<?xml version="1.0" encoding="UTF-8" standalone="no"?>
<svg
   version="1.1"
   id="Ebene_1"
   height="153"
   width="530"
   viewBox="0 0 530 153"
   enable-background="new 0 0 535 0"
   xml:space="preserve"
   inkscape:export-xdpi="90"
   inkscape:export-ydpi="90"
   sodipodi:docname="noted-5-tkl.svg"
   xmlns:inkscape="http://www.inkscape.org/namespaces/inkscape"
   xmlns:sodipodi="http://sodipodi.sourceforge.net/DTD/sodipodi-0.dtd"
   xmlns:xlink="http://www.w3.org/1999/xlink"
   xmlns="http://www.w3.org/2000/svg"
   xmlns:svg="http://www.w3.org/2000/svg"
   xmlns:rdf="http://www.w3.org/1999/02/22-rdf-syntax-ns#"
   xmlns:cc="http://creativecommons.org/ns#"
   xmlns:dc="http://purl.org/dc/elements/1.1/">&#10;&#10;  <metadata
   id="metadata135">&#10;    <rdf:RDF>&#10;      <cc:Work
   rdf:about="">&#10;        <dc:format>image/svg+xml</dc:format>&#10;        <dc:type
   rdf:resource="http://purl.org/dc/dcmitype/StillImage" />&#10;        <dc:title />&#10;      </cc:Work>&#10;    </rdf:RDF>&#10;  </metadata>&#10;&#10;<defs
   id="defs">&#10;  <style
   type="text/css"
   id="style46661">&#10;  text.mod, text.key, text.dead {&#10;    fill:#111;&#10;    fill-opacity:1;&#10;      stroke:none;&#10;      font-style:normal;&#10;      font-variant:normal;&#10;      font-weight:normal;&#10;      font-stretch:normal;&#10;      display:inline;&#10;      font-family:Arial;&#10;      writing-mode:lr-tb;&#10;  }&#10;&#10;  text.key {&#10;      font-family:Arial;&#10;  }&#10;&#10;  text.dead {&#10;      font-family: Gentium Plus Compact;&#10;  }&#10;&#10;  text.space, text.dead, text.center, text.key, text.mod {&#10;      text-align:center;&#10;      text-anchor:middle;&#10;  }&#10;&#10;  text.key { font-size:18px; }&#10;  text.dead { font-size:18px; }&#10;  text.mod { font-size:10px; }&#10;  text.big { font-size:12px; }&#10;&#10;  .key {&#10;  stroke-width:0.75;&#10;  }&#10;&#10;  .grey { fill:#949494; stroke:#696969; }&#10;  .grey { fill:#9f9f9f; stroke:#747474; }&#10;&#10;  .numpad { fill:#afaa9f; stroke:#747474; }&#10;&#10;  /* bootstrap colors */&#10;  .l5, .r5 { fill:#93CCEA; }&#10;  .l4, .r4 { fill:#7abeb3; }&#10;  .l3, .r3 { fill:#63b280; }&#10;  .l2, .r2 { fill:#4aa44a; }&#10;  .l1, .r1 { fill:#4aa44a; }&#10;&#10;  /* btn bg hover, unused */&#10;  .l2, .r2 { stroke:#3071a9; }&#10;  .l3, .r3 { stroke:#449d44; }&#10;  .l4, .r4 { stroke:#c9302c; }&#10;  .l5, .r5 { stroke:#ec971f; }&#10;&#10;  /* btn border hover */&#10;  .l1, .r1 { stroke:#204d74; }&#10;  .l2, .r2 { stroke:#204d74; }&#10;  .l3, .r3 { stroke:#204d74; }&#10;  .l4, .r4 { stroke:#204d74; }&#10;  .l5, .r5 { stroke:#204d74; }&#10;&#10;  <!-- text.nubkey { fill:#eee; } -->&#10;&#10;  .pressed {&#10;    <!--opacity:0.5;-->&#10;    fill:#777;&#10;  }&#10;  </style>&#10;&#10;  <g
   id="basekey">&#10;    <rect
   width="32"
   height="32"
   rx="4"
   class="key"
   id="rect1" />&#10;  </g>&#10;&#10;  <g
   id="nub">&#10;    <rect
   width="14"
   height="1"
   rx="1"
   style="fill:#eee;"
   id="rect2" />&#10;  </g>&#10;&#10;</defs>&#10;<sodipodi:namedview
   pagecolor="#ffffff"
   bordercolor="#666666"
   borderopacity="1"
   objecttolerance="10"
   gridtolerance="10"
   guidetolerance="10"
   inkscape:pageopacity="0"
   inkscape:pageshadow="2"
   inkscape:window-width="1614"
   inkscape:window-height="969"
   id="base"
   showgrid="false"
   inkscape:zoom="0.70961538"
   inkscape:cx="685.32105"
   inkscape:cy="241.15395"
   inkscape:window-x="78"
   inkscape:window-y="71"
   inkscape:window-maximized="0"
   inkscape:current-layer="Ebene_1"
   inkscape:showpageshadow="2"
   inkscape:pagecheckerboard="0"
   inkscape:deskcolor="#d1d1d1" />&#10;&#10;<rect
   width="100%"
   height="100%"
   rx="4"
   style="fill:#eee"
   id="rect3" />&#10;&#10;<g
   transform="translate(3.5,3.5)"
   id="g62">&#10;&#10;  <g
   transform="translate(0, 0)"
   id="g32">&#10;&#10;    <!-- outer column -->&#10;    <g
   transform="translate(0, 0)"
   id="g5">&#10;      <use
   xlink:href="#basekey"
   y="0"
   class="l5"
   id="use3" />&#10;      <use
   xlink:href="#basekey"
   y="36"
   class="key grey pressed"
   id="m3l" />&#10;      <use
   xlink:href="#basekey"
   y="72"
   class="key grey"
   id="use4" />&#10;&#10;      <path
   d="m 20.07373,15.557617 q 0,3.348633 -1.054687,4.983399 -1.054688,1.634765 -3.058594,1.634765 -1.96875,0 -3.005859,-1.669922 -1.02832,-1.678711 -1.02832,-4.948242 0,-6.5917967 4.086914,-6.5917967 2.100586,0 3.076171,1.6259767 0.984375,1.617187 0.984375,4.96582 z m -4.130859,5.449219 q 1.256836,0 1.836914,-1.195313 0.580078,-1.204101 0.624024,-3.726562 h -4.807618 q 0.04395,2.425781 0.606446,3.673828 0.571289,1.248047 1.740234,1.248047 z m 0.09668,-10.907227 q -1.248047,0 -1.819336,1.177735 -0.571289,1.168945 -0.624024,3.65625 h 4.807618 q -0.04395,-2.487305 -0.597657,-3.65625 -0.544922,-1.177735 -1.766601,-1.177735 z"
   id="text4"
   class="key"
   style="font-size:18px;font-family:Arial;text-align:center;text-anchor:middle;fill:#111111;stroke-width:0.75"
   aria-label="θ" />&#10;      <path
   d="m 15.724121,56 v -4.589844 q 0,-0.761719 0.04394,-1.464844 -0.239257,0.874024 -0.429687,1.367188 L 13.561035,56 h -0.654297 l -1.801758,-4.6875 -0.273437,-0.830078 -0.161133,-0.53711 0.01465,0.541993 0.01953,0.922851 V 56 H 9.8745117 v -6.879883 h 1.2255863 l 1.831054,4.770508 q 0.09766,0.288086 0.185547,0.620117 0.09277,0.327149 0.122071,0.473633 0.03906,-0.195313 0.161132,-0.59082 0.126953,-0.400391 0.170899,-0.50293 l 1.796875,-4.770508 h 1.196289 V 56 Z m 6.782227,-1.899414 q 0,0.952148 -0.605469,1.474609 -0.605469,0.522461 -1.728516,0.522461 -1.044922,0 -1.669922,-0.46875 -0.620117,-0.473633 -0.737304,-1.396484 l 0.908203,-0.08301 q 0.175781,1.220703 1.499023,1.220703 0.664063,0 1.040039,-0.327148 0.38086,-0.327149 0.38086,-0.97168 0,-0.561523 -0.434571,-0.874023 -0.429687,-0.317383 -1.245117,-0.317383 h -0.498047 v -0.761719 h 0.478516 q 0.722656,0 1.118164,-0.3125 0.400391,-0.317383 0.400391,-0.874023 0,-0.551758 -0.327149,-0.869141 -0.322265,-0.322266 -0.961914,-0.322266 -0.581055,0 -0.942383,0.297852 -0.356445,0.297851 -0.415039,0.839844 l -0.883789,-0.06836 q 0.09766,-0.844726 0.698242,-1.318359 0.605469,-0.473633 1.552735,-0.473633 1.035156,0 1.606445,0.483399 0.576172,0.478515 0.576172,1.33789 0,0.65918 -0.371094,1.074219 -0.366211,0.410156 -1.069336,0.556641 v 0.01953 q 0.771485,0.08301 1.201172,0.517578 0.429688,0.43457 0.429688,1.09375 z"
   id="m3ltxt"
   class="mod"
   style="font-size:10px;font-family:Arial;text-align:center;text-anchor:middle;fill:#111111"
   aria-label="M3" />&#10;      <path
   d="m 11.554199,92 v -4.589844 q 0,-0.761719 0.04395,-1.464844 -0.239258,0.874024 -0.429688,1.367188 L 9.3911133,92 H 8.7368164 l -1.8017578,-4.6875 -0.2734375,-0.830078 -0.1611328,-0.53711 0.014648,0.541993 0.019531,0.922851 V 92 H 5.7045898 v -6.879883 h 1.225586 l 1.8310547,4.770508 q 0.097656,0.288086 0.1855468,0.620117 0.092773,0.327149 0.1220704,0.473633 0.039063,-0.195313 0.1611328,-0.59082 0.1269531,-0.400391 0.1708984,-0.50293 l 1.7968751,-4.770508 h 1.196289 V 92 Z m 3.007813,-2.456055 q 0,0.908203 0.375976,1.401367 0.375977,0.493165 1.098633,0.493165 0.571289,0 0.913086,-0.229493 0.34668,-0.229492 0.46875,-0.581054 l 0.771484,0.219726 q -0.473632,1.25 -2.15332,1.25 -1.171875,0 -1.787109,-0.698242 -0.610352,-0.698242 -0.610352,-2.075195 0,-1.308594 0.610352,-2.006836 0.615234,-0.698242 1.752929,-0.698242 2.329102,0 2.329102,2.807617 v 0.117187 z m 2.861328,-0.673828 q -0.07324,-0.834961 -0.424805,-1.21582 -0.351562,-0.385742 -1.010742,-0.385742 -0.639648,0 -1.015625,0.429687 -0.371094,0.424805 -0.400391,1.171875 z m 4.057617,3.09082 q -0.43457,0.117188 -0.888672,0.117188 -1.054687,0 -1.054687,-1.196289 v -3.525391 h -0.610352 v -0.639648 h 0.644531 l 0.258789,-1.181641 h 0.585938 v 1.181641 h 0.976562 v 0.639648 h -0.976562 v 3.334961 q 0,0.38086 0.12207,0.53711 0.126953,0.151367 0.434571,0.151367 0.175781,0 0.507812,-0.06836 z m 2.094727,0.136719 q -0.795899,0 -1.196289,-0.419922 -0.400391,-0.419922 -0.400391,-1.152343 0,-0.820313 0.537109,-1.259766 0.541992,-0.439453 1.743164,-0.46875 l 1.186524,-0.01953 v -0.288086 q 0,-0.644531 -0.273438,-0.922852 -0.273437,-0.27832 -0.859375,-0.27832 -0.59082,0 -0.859375,0.200195 -0.268554,0.200196 -0.322265,0.639649 l -0.917969,-0.08301 q 0.224609,-1.425781 2.119141,-1.425781 0.996093,0 1.499023,0.458984 0.50293,0.454102 0.50293,1.318359 v 2.275391 q 0,0.390625 0.102539,0.59082 0.102539,0.195313 0.390625,0.195313 0.126953,0 0.288086,-0.03418 v 0.546875 q -0.332032,0.07813 -0.678711,0.07813 -0.488282,0 -0.712891,-0.253906 -0.219726,-0.258789 -0.249023,-0.805664 h -0.0293 q -0.336914,0.605469 -0.786133,0.859375 -0.444336,0.249023 -1.083984,0.249023 z m 0.200195,-0.659179 q 0.483398,0 0.859375,-0.219727 0.375976,-0.219727 0.59082,-0.600586 0.219727,-0.385742 0.219727,-0.791016 v -0.43457 l -0.961914,0.01953 q -0.620117,0.0098 -0.942383,0.126953 -0.317383,0.117188 -0.488281,0.361329 -0.170899,0.24414 -0.170899,0.639648 0,0.429688 0.229492,0.664063 0.234375,0.234375 0.664063,0.234375 z"
   id="text5"
   class="mod"
   style="font-size:10px;font-family:Arial;text-align:center;text-anchor:middle;fill:#111111"
   aria-label="Meta" />&#10;    </g>&#10;&#10;    <!-- pinky finger column -->&#10;    <g
   transform="translate(36, 0)"
   id="g9">&#10;      <use
   xlink:href="#basekey"
   y="0"
   class="l5"
   id="use5" />&#10;      <use
   xlink:href="#basekey"
   y="36"
   class="l5"
   id="use6" />&#10;      <use
   xlink:href="#basekey"
   y="72"
   class="l5"
   id="use7" />&#10;&#10;      <path
   d="m 14.466309,18.668945 q 0,0.588867 0.210937,0.958008 0.210938,0.360352 0.615234,0.597656 0.413086,0.228516 1.582032,0.536133 0.474609,0.131836 0.958008,0.28125 0.492187,0.149414 0.887695,0.404297 0.395508,0.246094 0.65039,0.632813 0.254883,0.386718 0.254883,0.984375 0,0.386718 -0.158203,0.861328 -0.158203,0.483398 -0.571289,1.177734 l -1.107422,-0.492187 q 0.202149,-0.272461 0.342774,-0.632813 0.140625,-0.360352 0.140625,-0.606445 0,-0.316407 -0.184571,-0.527344 -0.18457,-0.210938 -0.553711,-0.369141 Q 17.17334,22.316406 16.04834,22.052734 15.037598,21.81543 14.633301,21.648437 14.237793,21.481445 13.88623,21.25293 q -0.342773,-0.237305 -0.588867,-0.5625 -0.237304,-0.333985 -0.377929,-0.773438 -0.131836,-0.448242 -0.131836,-1.02832 0,-3.427734 5.036132,-8.780274 v -0.03516 l -1.11621,0.03516 H 13.675293 V 8.9570313 h 5.642578 v 1.1162107 q -2.548828,2.874024 -3.700195,4.97461 -1.151367,2.091796 -1.151367,3.621093 z"
   id="text7"
   class="key"
   style="font-size:18px;font-family:Arial;text-align:center;text-anchor:middle;fill:#111111;stroke-width:0.75"
   aria-label="ζ" />&#10;      <path
   d="m 16.039551,55.899414 -2.926758,5.827148 h -1.652344 l 3.867188,-7.250976 -1.494141,-3.014649 q -0.641601,-1.274414 -0.94043,-1.599609 -0.290039,-0.325195 -0.624023,-0.325195 -0.237305,0 -0.439453,0.08789 l -0.298828,-1.151367 q 0.46582,-0.175781 1.037109,-0.175781 0.755859,0 1.22168,0.439453 0.474609,0.439453 1.177734,1.898438 l 1.248047,2.592773 2.320313,-4.737305 h 1.643554 l -3.234375,6.125977 3.56836,7.110351 h -1.669922 z"
   id="text8"
   class="key"
   style="font-size:18px;font-family:Arial;text-align:center;text-anchor:middle;fill:#111111;stroke-width:0.75"
   aria-label="χ" />&#10;      <text
   x="16"
   y="94"
   class="key"
   id="text9" />&#10;    </g>&#10;&#10;    <!-- ring finger column -->&#10;    <g
   transform="translate(72, 0)"
   id="g13">&#10;      <use
   xlink:href="#basekey"
   y="0"
   class="l4"
   id="use9" />&#10;      <use
   xlink:href="#basekey"
   y="36"
   class="l4"
   id="use10" />&#10;      <use
   xlink:href="#basekey"
   y="72"
   class="l4"
   id="use11" />&#10;&#10;      <path
   d="m 20.060547,16.981445 q 0,2.575196 -1.02832,3.884766 -1.028321,1.30957 -3.058594,1.30957 -1.959961,0 -2.847656,-0.93164 Q 12.24707,20.3125 12.24707,18.317383 v -5.827149 h 1.590821 v 5.879883 q 0,1.283203 0.509765,1.933594 0.518555,0.650391 1.696289,0.650391 1.291992,0 1.836914,-0.905274 0.553711,-0.914062 0.553711,-3.032226 0,-1.125 -0.307617,-2.452149 -0.307617,-1.327148 -0.694336,-2.074219 h 1.652344 q 0.46582,1.03711 0.720703,2.25 0.254883,1.212891 0.254883,2.241211 z"
   id="text11"
   class="key"
   style="font-size:18px;font-family:Arial;text-align:center;text-anchor:middle;fill:#111111;stroke-width:0.75"
   aria-label="υ" />&#10;      <path
   d="m 19.867187,53.68457 q 0,2.118164 -1.151367,3.304688 -1.142578,1.186523 -3.155273,1.186523 -2.109375,0 -3.234375,-1.230469 -1.125,-1.239257 -1.125,-3.550781 0,-2.329101 1.318359,-3.612304 1.31836,-1.291993 3.761719,-1.291993 h 5.000977 v 1.151368 h -1.450196 l -1.300781,-0.05273 v 0.03516 q 0.711914,1.063477 1.019531,2.039063 0.316406,0.975586 0.316406,2.021484 z m -1.661132,0.02637 q 0,-2.24121 -1.089844,-4.069335 h -0.782227 q -1.617187,0 -2.540039,0.984375 -0.922851,0.984375 -0.922851,2.750976 0,3.629883 2.61914,3.629883 1.327149,0 2.021485,-0.84375 0.694336,-0.852539 0.694336,-2.452149 z"
   id="text12"
   class="key"
   style="font-size:18px;font-family:Arial;text-align:center;text-anchor:middle;fill:#111111;stroke-width:0.75"
   aria-label="σ" />&#10;      <path
   d="m 12.726074,90.888672 q 0,-1.573242 1.054688,-2.645508 1.063476,-1.072266 2.99707,-1.362305 v -0.01758 q -1.318359,-0.09668 -2.083008,-0.738281 -0.764648,-0.641602 -0.764648,-1.634766 0,-0.905273 0.632812,-1.520507 0.632813,-0.624024 1.766602,-0.861329 v -0.07031 l -2.232422,0.07031 h -0.650391 v -1.151367 h 5.572266 v 1.098633 q -1.819336,0.210938 -2.671875,0.773438 -0.852539,0.5625 -0.852539,1.502929 0,0.606446 0.333984,1.001953 0.342774,0.395508 0.966797,0.624024 0.632813,0.228515 1.845703,0.333984 v 1.151367 q -2.083008,0.272461 -3.164062,1.107422 -1.072266,0.826172 -1.072266,2.118164 0,0.588867 0.210938,0.958008 0.210937,0.360352 0.615234,0.597656 0.413086,0.228516 1.582031,0.536133 0.47461,0.131836 0.975586,0.28125 0.500977,0.149414 0.914063,0.404297 0.413086,0.246094 0.676758,0.632813 0.27246,0.386718 0.27246,0.984375 0,0.386718 -0.158203,0.861328 -0.158203,0.483398 -0.571289,1.177734 l -1.107422,-0.492187 q 0.202149,-0.272461 0.342774,-0.632813 0.140625,-0.360352 0.140625,-0.606445 0,-0.316407 -0.202149,-0.527344 -0.193359,-0.210938 -0.580078,-0.369141 -0.386718,-0.158203 -1.529297,-0.421875 -1.010742,-0.237304 -1.415039,-0.404297 -0.395507,-0.166992 -0.74707,-0.395507 -0.342773,-0.237305 -0.588867,-0.5625 -0.237305,-0.333985 -0.37793,-0.773438 -0.131836,-0.448242 -0.131836,-1.02832 z"
   id="text13"
   class="key"
   style="font-size:18px;font-family:Arial;text-align:center;text-anchor:middle;fill:#111111;stroke-width:0.75"
   aria-label="ξ" />&#10;    </g>&#10;&#10;    <!-- middle finger column -->&#10;    <g
   transform="translate(108, 0)"
   id="g17">&#10;      <use
   xlink:href="#basekey"
   y="0"
   class="l3"
   id="use13" />&#10;      <use
   xlink:href="#basekey"
   y="36"
   class="l3"
   id="use14" />&#10;      <use
   xlink:href="#basekey"
   y="72"
   class="l3"
   id="use15" />&#10;&#10;      <text
   x="16"
   y="22"
   class="key"
   id="text15" />&#10;      <path
   d="M 15.749512,58 Q 15.48584,57.71875 15.345215,57.129883 15.20459,56.532227 15.20459,55.925781 v -7.435547 h 1.582031 v 7.514649 q 0,0.571289 0.18457,1.107422 0.19336,0.536132 0.518555,0.887695 z"
   id="text16"
   class="key"
   style="font-size:18px;font-family:Arial;text-align:center;text-anchor:middle;fill:#111111;stroke-width:0.75"
   aria-label="ι" />&#10;      <text
   x="16"
   y="94"
   class="key"
   id="text17" />&#10;    </g>&#10;&#10;    <!-- index finger column -->&#10;    <g
   transform="translate(144,0)"
   id="g21">&#10;      <use
   xlink:href="#basekey"
   y="0"
   class="l2"
   id="use17" />&#10;      <use
   xlink:href="#basekey"
   y="36"
   class="l2"
   id="use18" />&#10;      <use
   xlink:href="#basekey"
   y="72"
   class="l2"
   id="use19" />&#10;&#10;      <path
   d="m 18.206055,19.916992 q -0.553711,1.195313 -1.327149,1.731445 -0.764648,0.527344 -1.828125,0.527344 -1.801758,0 -2.654297,-1.21289 -0.84375,-1.212891 -0.84375,-3.673829 0,-2.496093 0.949219,-3.735351 0.958008,-1.239258 2.794922,-1.239258 1.107422,0 1.889648,0.588867 0.791016,0.588868 1.186524,1.652344 h 0.01758 q 0.202148,-1.045898 0.641602,-2.06543 h 1.652343 q -0.439453,0.931641 -0.808593,2.285157 -0.369141,1.344726 -0.439454,2.206054 0.04395,1.40625 0.298829,2.759766 Q 19.999023,21.094727 20.412109,22 H 18.803711 Q 18.592773,21.463867 18.43457,20.839844 18.285156,20.207031 18.241211,19.916992 Z m -4.992188,-2.680664 q 0,1.951172 0.500977,2.838867 0.500976,0.878907 1.661133,0.878907 1.054687,0 1.77539,-1.010743 0.729492,-1.019531 0.958008,-2.742187 -0.254883,-1.854492 -0.922852,-2.786133 -0.667968,-0.931641 -1.713867,-0.931641 -1.195312,0 -1.731445,0.887696 -0.527344,0.878906 -0.527344,2.865234 z"
   id="text19"
   class="key"
   style="font-size:18px;font-family:Arial;text-align:center;text-anchor:middle;fill:#111111;stroke-width:0.75"
   aria-label="α" />&#10;      <path
   d="m 15.995605,56.998047 q 0.764649,0 1.494141,-0.386719 0.738281,-0.395508 1.256836,-1.02832 l 0.922852,0.878906 q -0.703125,0.852539 -1.661133,1.283203 -0.958008,0.430664 -2.118164,0.430664 -1.590821,0 -2.44336,-0.729492 -0.84375,-0.729492 -0.84375,-2.039062 0,-0.966797 0.650391,-1.617188 0.65918,-0.650391 1.669922,-0.74707 v -0.01758 q -0.931641,-0.105469 -1.485352,-0.703125 -0.544922,-0.597657 -0.544922,-1.467774 0,-1.142578 0.887696,-1.836914 0.896484,-0.703125 2.346679,-0.703125 2.206055,0 3.304688,1.625977 l -1.125,0.773437 q -0.808594,-1.22168 -2.170899,-1.22168 -0.799804,0 -1.221679,0.37793 -0.421875,0.369141 -0.421875,1.019531 0,0.799805 0.685547,1.177735 0.685547,0.36914 2.460937,0.36914 v 1.186524 q -1.344726,0 -2.012695,0.175781 -0.667969,0.166992 -1.02832,0.544922 -0.351563,0.37793 -0.351563,1.037109 0,0.764649 0.46582,1.195313 0.47461,0.421875 1.283203,0.421875 z"
   id="text20"
   class="key nubkey"
   style="font-size:18px;font-family:Arial;text-align:center;text-anchor:middle;fill:#111111;stroke-width:0.75"
   aria-label="ε" />&#10;      <path
   d="m 18.245605,97.726562 v -9.755859 q 0,-0.94043 -0.18457,-1.458984 -0.18457,-0.518555 -0.588867,-0.747071 -0.404297,-0.228515 -1.186523,-0.228515 -1.142579,0 -1.801758,0.782226 -0.65918,0.782227 -0.65918,2.170899 V 94 h -1.582031 v -7.479492 q 0,-1.081055 -0.316406,-2.030274 h 1.49414 q 0.149414,0.342774 0.237305,0.808594 0.09668,0.457031 0.09668,0.817383 h 0.02637 q 0.544922,-0.984375 1.256836,-1.388672 0.720703,-0.413086 1.784179,-0.413086 1.564453,0 2.285157,0.782227 0.729492,0.773437 0.729492,2.566406 v 10.063476 z"
   id="text21"
   class="key"
   style="font-size:18px;font-family:Arial;text-align:center;text-anchor:middle;fill:#111111;stroke-width:0.75"
   aria-label="η" />&#10;&#10;      <use
   x="10"
   y="65"
   xlink:href="#nub"
   id="use21" />&#10;    </g>&#10;&#10;    <!-- inner column -->&#10;    <g
   transform="translate(180,0)"
   id="g26">&#10;      <use
   xlink:href="#basekey"
   y="0"
   class="l2"
   id="use22" />&#10;      <use
   xlink:href="#basekey"
   y="36"
   class="l2"
   id="use23" />&#10;      <use
   xlink:href="#basekey"
   y="72"
   class="l2"
   id="use24" />&#10;&#10;      <path
   d="m 15.230957,25.735352 v -3.708985 q -1.766602,-0.219726 -2.671875,-1.423828 -0.896484,-1.212891 -0.896484,-3.366211 0,-4.30664 3.568359,-4.763672 V 8.9570313 h 1.441406 v 3.5068357 q 1.863282,0.175781 2.759766,1.335938 0.905273,1.160156 0.905273,3.436523 0,4.385742 -3.665039,4.790039 v 3.708985 z m 3.498047,-8.499024 q 0,-1.661133 -0.492188,-2.53125 -0.492187,-0.870117 -1.564453,-1.054687 v 7.189453 q 1.072266,-0.210938 1.564453,-1.098633 0.492188,-0.896484 0.492188,-2.504883 z m -5.458008,0 q 0,1.538086 0.46582,2.425781 0.47461,0.887696 1.494141,1.160157 v -7.12793 q -1.02832,0.254883 -1.494141,1.142578 -0.46582,0.878906 -0.46582,2.399414 z"
   id="text24"
   class="key"
   style="font-size:18px;font-family:Arial;text-align:center;text-anchor:middle;fill:#111111;stroke-width:0.75"
   aria-label="ϕ" />&#10;      <path
   d="m 20.249512,53.236328 q 0,2.496094 -1.098633,3.717774 -1.098633,1.221679 -3.19043,1.221679 -2.083008,0 -3.146484,-1.265625 -1.063477,-1.274414 -1.063477,-3.673828 0,-4.921875 4.262696,-4.921875 2.179687,0 3.208007,1.204102 1.028321,1.195312 1.028321,3.717773 z m -1.661133,0 q 0,-1.96875 -0.588867,-2.856445 -0.580078,-0.896485 -1.959961,-0.896485 -1.388672,0 -2.012696,0.914063 -0.615234,0.905273 -0.615234,2.838867 0,1.880859 0.606445,2.830078 0.615235,0.94043 1.924805,0.94043 1.423828,0 2.030274,-0.914063 0.615234,-0.914062 0.615234,-2.856445 z"
   id="text25"
   class="key"
   style="font-size:18px;font-family:Arial;text-align:center;text-anchor:middle;fill:#111111;stroke-width:0.75"
   aria-label="ο" />&#10;      <path
   d="m 19.273926,94 h -2.452149 q -2.012695,0 -3.058593,-1.186523 -1.03711,-1.195313 -1.03711,-3.480469 0,-2.25 1.116211,-3.541992 1.125,-1.300782 3.128906,-1.300782 h 2.302735 v 1.230469 h -2.373047 q -1.22168,0 -1.889649,0.764649 -0.659179,0.764648 -0.659179,2.126953 h 3.295898 v 1.160156 h -3.295898 q 0,2.99707 2.557617,2.99707 h 2.364258 z"
   id="text26"
   class="key"
   style="font-size:18px;font-family:Arial;text-align:center;text-anchor:middle;fill:#111111;stroke-width:0.75"
   aria-label="ϵ" />&#10;    </g>&#10;&#10;    <!-- thump cluster -->&#10;    <g
   transform="translate(144, 114)"
   id="g31">&#10;      <g
   transform="rotate(0)"
   id="g30">&#10;        <use
   xlink:href="#basekey"
   x="0"
   class="key grey"
   id="use26" />&#10;        <path
   d="m 15.724121,20 v -4.589844 q 0,-0.761718 0.04394,-1.464843 -0.239257,0.874023 -0.429687,1.367187 L 13.561035,20 h -0.654297 l -1.801758,-4.6875 -0.273437,-0.830078 -0.161133,-0.537109 0.01465,0.541992 0.01953,0.922851 V 20 H 9.8745117 v -6.879883 h 1.2255863 l 1.831054,4.770508 q 0.09766,0.288086 0.185547,0.620117 0.09277,0.327149 0.122071,0.473633 0.03906,-0.195313 0.161132,-0.59082 0.126953,-0.400391 0.170899,-0.50293 l 1.796875,-4.770508 h 1.196289 V 20 Z m 5.961914,-1.557617 V 20 H 20.855957 V 18.442383 H 17.61377 v -0.683594 l 3.149414,-4.638672 h 0.922851 v 4.628906 h 0.966797 v 0.69336 z m -0.830078,-4.331055 q -0.0098,0.0293 -0.136719,0.258789 -0.126953,0.229492 -0.190429,0.322266 l -1.762696,2.597656 -0.263672,0.361328 -0.07813,0.09766 h 2.431641 z"
   id="m4ltxt"
   class="mod"
   style="font-size:10px;font-family:Arial;text-align:center;text-anchor:middle;fill:#111111"
   aria-label="M4" />&#10;        <g
   transform="translate(36, 0) rotate(0)"
   id="g29">&#10;          <use
   xlink:href="#basekey"
   x="0"
   class="key grey pressed"
   id="use27" />&#10;          <path
   d="M 17.298828,14.453125 16,13.154297 14.701172,14.453125 h 0.639648 v 5.058594 h 1.31836 V 14.453125 Z M 13.519531,14.941406 16,12.460938 18.480469,14.941406 H 17.147461 V 20 h -2.294922 v -5.058594 z"
   id="shiftltxt"
   class="mod"
   style="font-size:10px;font-family:Arial;text-align:center;text-anchor:middle;fill:#111111"
   aria-label="⇧" />&#10;          <g
   transform="translate(36, 0) rotate(0)"
   id="g28">&#10;            <use
   xlink:href="#basekey"
   x="0"
   class="l1"
   id="use28" />&#10;            <path
   d="m 12.381836,16.450195 h 5.087891 l -1.142579,-1.142578 0.585938,-0.585937 1.923828,1.923828 v -1.875 h 0.830078 v 4.199219 h -0.830078 v -1.884766 l -1.923828,1.923828 -0.585938,-0.585937 1.142579,-1.142579 h -5.087891 z"
   id="text28"
   class="mod"
   style="font-size:10px;font-family:Arial;text-align:center;text-anchor:middle;fill:#111111"
   aria-label="⇥" />&#10;          </g>&#10;        </g>&#10;      </g>&#10;    </g>&#10;  </g>&#10;&#10;&#10;&#10;&#10;  <g
   transform="translate(310,0)"
   id="g61">&#10;&#10;    <!-- thumb-cluster -->&#10;    <g
   transform="translate(36, 114)"
   id="g37">&#10;      <g
   transform="rotate(0, 36, 0)"
   id="g36">&#10;        <use
   xlink:href="#basekey"
   x="0"
   class="key grey"
   id="use32" />&#10;        <path
   d="m 15.724121,20 v -4.589844 q 0,-0.761718 0.04394,-1.464843 -0.239257,0.874023 -0.429687,1.367187 L 13.561035,20 h -0.654297 l -1.801758,-4.6875 -0.273437,-0.830078 -0.161133,-0.537109 0.01465,0.541992 0.01953,0.922851 V 20 H 9.8745117 v -6.879883 h 1.2255863 l 1.831054,4.770508 q 0.09766,0.288086 0.185547,0.620117 0.09277,0.327149 0.122071,0.473633 0.03906,-0.195313 0.161132,-0.59082 0.126953,-0.400391 0.170899,-0.50293 l 1.796875,-4.770508 h 1.196289 V 20 Z m 5.961914,-1.557617 V 20 H 20.855957 V 18.442383 H 17.61377 v -0.683594 l 3.149414,-4.638672 h 0.922851 v 4.628906 h 0.966797 v 0.69336 z m -0.830078,-4.331055 q -0.0098,0.0293 -0.136719,0.258789 -0.126953,0.229492 -0.190429,0.322266 l -1.762696,2.597656 -0.263672,0.361328 -0.07813,0.09766 h 2.431641 z"
   id="m4rtxt"
   class="mod"
   style="font-size:10px;font-family:Arial;text-align:center;text-anchor:middle;fill:#111111"
   aria-label="M4" />&#10;        <g
   transform="translate(-36, 0) rotate(0, 36, 0)"
   id="g35">&#10;          <use
   xlink:href="#basekey"
   x="0"
   class="l1"
   id="use33" />&#10;          <path
   d="m 14.359375,21.445312 h 3.28125 v -2.460937 h 0.820312 v 3.291016 h -4.921874 v -3.291016 h 0.820312 z"
   id="text33"
   class="mod space"
   style="font-size:10px;font-family:Arial;text-align:center;text-anchor:middle;fill:#111111"
   aria-label="␣" />&#10;          <g
   transform="translate(-36, 0) rotate(0, 36, 0)"
   id="g34">&#10;            <use
   xlink:href="#basekey"
   x="0"
   class="l1"
   id="use34" />&#10;            <path
   d="m 14.55957,19.345703 -2.480468,-2.480469 2.480468,-2.480468 v 1.333007 h 2.768555 v -3.007812 h 2.294922 l -0.0049,5.302734 H 14.55957 Z m -0.488281,-3.139648 v -0.639649 l -1.298828,1.298828 1.298828,1.298828 v -0.639648 h 5.058594 l 0.0049,-4.326172 h -1.31836 l -0.0049,3.007813 z"
   id="returntxt"
   class="mod"
   style="font-size:10px;font-family:Arial;text-align:center;text-anchor:middle;fill:#111111"
   aria-label="⏎" />&#10;          </g>&#10;        </g>&#10;      </g>&#10;    </g>&#10;&#10;    <!-- inner column -->&#10;    <g
   transform="translate(0,0)"
   id="g41">&#10;      <use
   xlink:href="#basekey"
   y="0"
   class="l2"
   id="use37" />&#10;      <use
   xlink:href="#basekey"
   y="36"
   class="l2"
   id="use38" />&#10;      <use
   xlink:href="#basekey"
   y="72"
   class="l2"
   id="use39" />&#10;&#10;      <path
   d="m 19.687012,22.175781 q -1.010742,0 -1.458985,-0.492187 -0.448242,-0.500977 -0.448242,-1.678711 v -6.363281 h -3.533203 v 0.632812 q 0,2.012695 -0.228516,4.078125 Q 13.789551,20.40918 13.385254,22 H 11.73291 q 0.457031,-1.810547 0.711914,-3.84082 0.254883,-2.039063 0.254883,-3.814453 v -0.703125 q -0.580078,0 -1.283203,0.09668 -0.703125,0.09668 -0.931641,0.228516 v -1.22168 q 0.210938,-0.105469 0.676758,-0.175781 0.474609,-0.0791 0.931641,-0.0791 h 9.325195 v 1.151368 h -2.056641 v 6.020507 q 0,0.667969 0.184571,0.975586 0.18457,0.298828 0.641601,0.298828 l 0.75586,-0.07031 V 22 q -0.676758,0.175781 -1.256836,0.175781 z"
   id="text39"
   class="key"
   style="font-size:18px;font-family:Arial;text-align:center;text-anchor:middle;fill:#111111;stroke-width:0.75"
   aria-label="π" />&#10;      <path
   d="m 18.583984,53.860352 q 0,-0.764649 -0.237304,-1.432618 -0.228516,-0.676757 -0.597657,-1.248047 -0.360351,-0.580078 -1.098632,-1.344726 -1.573243,0.5625 -2.408203,1.608398 -0.834961,1.045899 -0.834961,2.416993 0,1.485351 0.685546,2.320312 0.694336,0.826172 1.916016,0.826172 1.265625,0 1.916016,-0.791016 0.659179,-0.791015 0.659179,-2.355468 z m -2.258789,-7.743165 -1.353515,-0.07031 2.777343,2.847656 q 1.063477,1.089844 1.520508,1.792969 0.465821,0.694336 0.720703,1.467773 0.254883,0.764649 0.254883,1.669922 0,1.995117 -1.133789,3.172852 -1.133789,1.177734 -3.102539,1.177734 -1.986328,0 -3.128906,-1.151367 -1.133789,-1.151367 -1.133789,-3.181641 0,-1.705078 1.02832,-2.926757 1.02832,-1.230469 3.058594,-1.933594 L 13.029297,46.00293 v -1.045899 h 6.442383 v 1.160156 z"
   id="text40"
   class="key"
   style="font-size:18px;font-family:Arial;text-align:center;text-anchor:middle;fill:#111111;stroke-width:0.75"
   aria-label="δ" />&#10;      <path
   d="m 16.733887,90.053711 q 0,1.379883 0.500976,2.144531 0.500977,0.75586 1.397461,0.75586 1.001953,0 1.494141,-0.817383 0.500976,-0.817383 0.500976,-2.636719 0,-1.625977 -0.580078,-2.671875 -0.580078,-1.054688 -1.652343,-1.300781 l 0.202148,-1.22168 q 1.142578,0.18457 1.96875,0.896484 0.834961,0.703125 1.274414,1.819336 0.448242,1.107422 0.448242,2.434571 0,2.25 -0.914062,3.489257 -0.905274,1.230469 -2.575196,1.230469 -1.107421,0 -1.801757,-0.5625 -0.685547,-0.571289 -0.984375,-1.784179 h -0.03516 q -0.298828,1.21289 -0.993164,1.784179 -0.685547,0.5625 -1.792968,0.5625 -1.669922,0 -2.583985,-1.230469 -0.9052733,-1.239257 -0.9052733,-3.489257 0,-2.056641 0.9931643,-3.462891 0.993164,-1.40625 2.698242,-1.6875 l 0.202148,1.22168 q -1.045898,0.228515 -1.643554,1.265625 -0.588867,1.02832 -0.588867,2.707031 0,1.810547 0.483398,2.636719 0.492187,0.817383 1.494141,0.817383 0.896484,0 1.415039,-0.75586 0.518554,-0.764648 0.518554,-2.144531 v -2.214844 h 1.458985 z"
   id="text41"
   class="key"
   style="font-size:18px;font-family:Arial;text-align:center;text-anchor:middle;fill:#111111;stroke-width:0.75"
   aria-label="ω" />&#10;    </g>&#10;&#10;&#10;    <!-- index finger column -->&#10;    <g
   transform="translate(36,0)"
   id="g45">&#10;      <use
   xlink:href="#basekey"
   y="0"
   class="r2"
   id="use41" />&#10;      <use
   xlink:href="#basekey"
   y="36"
   class="r2"
   id="use42" />&#10;      <use
   xlink:href="#basekey"
   y="72"
   class="r2"
   id="use43" />&#10;&#10;      <path
   d="m 20.464844,18.44043 q 0,1.740234 -1.045899,2.742187 -1.037109,0.993164 -2.970703,0.993164 -1.608398,0 -2.794922,-0.826172 h -0.05273 q 0.05273,1.001953 0.05273,1.775391 v 2.610352 H 12.071289 V 12.973633 q 0,-2.083008 1.001953,-3.0498049 1.001953,-0.9667968 2.988281,-0.9667968 1.731446,0 2.645508,0.8085937 0.922852,0.799805 0.922852,2.258789 0,2.223633 -1.959961,2.988281 1.300781,0.254883 2.047851,1.151367 0.747071,0.896485 0.747071,2.276368 z m -6.811524,1.757812 q 0.5625,0.37793 1.283203,0.597656 0.729493,0.210938 1.441407,0.210938 1.239257,0 1.907226,-0.676758 0.667969,-0.676758 0.667969,-1.863281 0,-1.274414 -0.764648,-1.959961 Q 17.432617,15.821289 16,15.821289 v -1.248047 q 1.116211,-0.237304 1.608398,-0.84375 0.500977,-0.615234 0.500977,-1.6875 0,-0.861328 -0.536133,-1.353515 -0.527344,-0.492188 -1.49414,-0.492188 -1.291993,0 -1.863282,0.685547 -0.5625,0.676758 -0.5625,2.144531 z"
   id="text43"
   class="key"
   style="font-size:18px;font-family:Arial;text-align:center;text-anchor:middle;fill:#111111;stroke-width:0.75"
   aria-label="β" />&#10;      <path
   d="m 14.914551,49.641602 q -0.580078,0 -1.283203,0.09668 -0.703125,0.09668 -0.931641,0.228516 v -1.22168 q 0.210938,-0.105469 0.676758,-0.175781 0.474609,-0.0791 0.93164,-0.0791 h 5.097657 v 1.151368 h -2.671875 v 6.020507 q 0,0.667969 0.18457,0.975586 0.18457,0.298828 0.641602,0.298828 l 0.755859,-0.07031 V 58 q -0.676758,0.175781 -1.256836,0.175781 -1.010742,0 -1.458984,-0.492187 -0.448243,-0.500977 -0.448243,-1.678711 v -6.363281 z"
   id="text44"
   class="key nubkey"
   style="font-size:18px;font-family:Arial;text-align:center;text-anchor:middle;fill:#111111;stroke-width:0.75"
   aria-label="τ" />&#10;      <path
   d="m 11.561523,84.490234 h 1.6875 l 2.153321,5.932618 q 0.06152,0.193359 0.149414,0.474609 0.09668,0.272461 0.18457,0.571289 0.08789,0.290039 0.158203,0.571289 0.0791,0.272461 0.114258,0.46582 0.193359,-0.799804 0.650391,-2.065429 l 2.100586,-5.950196 h 1.678711 l -3.427735,9.043946 q -0.298828,0.791015 -0.553711,1.977539 -0.254883,1.195312 -0.36914,2.214843 H 14.40918 q 0.219726,-1.6875 0.782226,-3.823242 z"
   id="text45"
   class="key"
   style="font-size:18px;font-family:Arial;text-align:center;text-anchor:middle;fill:#111111;stroke-width:0.75"
   aria-label="γ" />&#10;&#10;      <use
   x="10"
   y="65"
   xlink:href="#nub"
   id="use45" />&#10;    </g>&#10;&#10;    <!-- middle finger column -->&#10;    <g
   transform="translate(72,0)"
   id="g50">&#10;      <use
   xlink:href="#basekey"
   y="0"
   class="r3"
   id="use46" />&#10;      <use
   xlink:href="#basekey"
   y="36"
   class="r3"
   id="use47" />&#10;      <use
   xlink:href="#basekey"
   y="72"
   class="r3"
   id="use48" />&#10;&#10;      <path
   d="m 18.390625,22 q -0.01758,-0.105469 -0.05273,-0.711914 -0.02637,-0.615234 -0.03516,-0.958008 h -0.03516 q -0.527344,1.037109 -1.116211,1.441406 -0.580078,0.404297 -1.467773,0.404297 -0.720703,0 -1.248047,-0.28125 -0.527344,-0.28125 -0.808594,-0.791015 h -0.03516 q 0.03516,0.377929 0.03516,1.072265 v 3.278321 H 12.027344 V 12.490234 h 1.599609 v 5.660157 q 0,1.415039 0.553711,2.100586 0.553711,0.685546 1.696289,0.685546 1.089844,0 1.713867,-0.799804 0.632813,-0.799805 0.632813,-2.223633 v -5.422852 h 1.59082 v 7.461914 q 0,1.678711 0.05273,2.047852 z"
   id="text48"
   class="key"
   style="font-size:18px;font-family:Arial;text-align:center;text-anchor:middle;fill:#111111;stroke-width:0.75"
   aria-label="μ" />&#10;      <path
   d="m 19.814453,50.564453 q 0,1.529297 -0.914062,3.524414 Q 17.995117,56.075195 16.421875,58 H 14.927734 L 11.5,48.490234 h 1.661133 l 2.733398,8.15625 q 2.337891,-3.049804 2.337891,-6.002929 0,-1.186524 -0.430664,-2.153321 h 1.555664 q 0.457031,0.852539 0.457031,2.074219 z"
   id="text49"
   class="key"
   style="font-size:18px;font-family:Arial;text-align:center;text-anchor:middle;fill:#111111;stroke-width:0.75"
   aria-label="ν" />&#10;      <path
   d="m 11.706543,90.897461 q 0,-2.118164 0.237305,-3.27832 0.237304,-1.160157 0.755859,-1.872071 0.527344,-0.720703 1.371094,-1.072265 0.852539,-0.360352 2.047851,-0.360352 2.223633,0 3.269532,1.186524 1.054687,1.186523 1.054687,3.64746 0,2.425782 -1.116211,3.638672 Q 18.219238,94 16.065918,94 q -2.003906,0 -3.076172,-1.327148 0.05273,1.177734 0.474609,1.87207 0.421875,0.703125 1.212891,1.019531 0.799805,0.316406 2.381836,0.316406 1.362305,0 1.959961,0.158203 0.606445,0.158204 0.896484,0.536133 0.290039,0.37793 0.351563,1.160157 h -1.397461 q -0.05273,-0.19336 -0.210938,-0.29004 -0.158203,-0.09668 -0.509765,-0.140625 -0.342774,-0.03516 -1.643555,-0.03516 -1.195312,0 -2.021484,-0.272461 -0.817383,-0.263672 -1.362305,-0.738281 -0.536133,-0.474609 -0.84375,-1.168945 -0.298828,-0.685547 -0.439453,-1.546875 -0.131836,-0.861328 -0.131836,-2.645508 z m 7.075195,-1.749024 q 0,-1.300781 -0.28125,-2.109375 -0.272461,-0.808593 -0.826172,-1.177734 -0.544921,-0.37793 -1.529296,-0.37793 -1.441407,0 -2.083008,0.905274 -0.632813,0.896484 -0.632813,2.759765 0,1.845704 0.632813,2.768555 0.632812,0.914063 1.986328,0.914063 1.476562,0 2.100586,-0.887696 0.632812,-0.887695 0.632812,-2.794922 z"
   id="text50"
   class="key"
   style="font-size:18px;font-family:Arial;text-align:center;text-anchor:middle;fill:#111111;stroke-width:0.75"
   aria-label="ϱ" />&#10;    </g>&#10;&#10;    <!-- ring finger colummn -->&#10;    <g
   transform="translate(108,0)"
   id="g54">&#10;      <use
   xlink:href="#basekey"
   y="0"
   class="r4"
   id="use50" />&#10;      <use
   xlink:href="#basekey"
   y="36"
   class="r4"
   id="use51" />&#10;      <use
   xlink:href="#basekey"
   y="72"
   class="r4"
   id="use52" />&#10;&#10;      <path
   d="M 15.569336,13.518555 Q 14.97168,11.866211 14.77832,11.426758 14.59375,10.987305 14.400391,10.732422 14.21582,10.46875 13.978516,10.345703 q -0.237305,-0.123047 -0.580078,-0.123047 -0.254883,0 -0.430665,0.08789 L 12.660156,9.1679688 q 0.588867,-0.2109375 1.133789,-0.2109375 0.94043,0 1.538086,0.6416015 0.597657,0.6416012 1.256836,2.3730472 L 20.341797,22 H 18.671875 L 16.852539,16.928711 Q 16.492187,15.944336 16.28125,15.047852 16.149414,15.452148 15.956055,15.926758 15.771484,16.392578 13.266602,22 h -1.643555 z"
   id="text52"
   class="key"
   style="font-size:18px;font-family:Arial;text-align:center;text-anchor:middle;fill:#111111;stroke-width:0.75"
   aria-label="λ" />&#10;      <path
   d="m 20.398926,53.464844 q 0,2.091797 -1.072266,3.401367 -1.063476,1.30957 -2.768555,1.30957 -0.966796,0 -1.669921,-0.298828 -0.703125,-0.298828 -1.265625,-0.958008 h -0.03516 Q 13.622559,57.446289 13.622559,58 v 3.735352 h -1.582032 v -8.841797 q 0,-2.153321 1.063477,-3.366211 1.063476,-1.22168 2.935547,-1.22168 1.248047,0 2.25,0.641602 1.001953,0.632812 1.555664,1.819336 0.553711,1.177734 0.553711,2.698242 z m -1.696289,-0.07031 q 0,-1.836914 -0.75586,-2.874023 -0.74707,-1.045899 -2.012695,-1.045899 -2.311523,0 -2.311523,3.454102 v 2.786133 q 0.483398,0.606445 1.221679,0.949218 0.738282,0.342774 1.511719,0.342774 1.116211,0 1.731445,-0.931641 0.615235,-0.93164 0.615235,-2.680664 z"
   id="text53"
   class="key"
   style="font-size:18px;font-family:Arial;text-align:center;text-anchor:middle;fill:#111111;stroke-width:0.75"
   aria-label="ρ" />&#10;      <path
   d="m 20.78125,87.311523 h -0.852539 q 0,1.951172 -0.588867,3.56836 -0.580078,1.608398 -1.608399,2.452148 -1.019531,0.84375 -2.33789,0.84375 -2.663086,0 -2.663086,-2.355469 0,-0.430664 0.210937,-1.248046 0.210938,-0.817383 0.210938,-1.125 0,-0.527344 -0.509766,-0.527344 -0.430664,0 -1.274414,0.430664 l -0.210937,-1.239258 q 0.93164,-0.474609 1.625976,-0.474609 0.817383,0 1.274414,0.439453 0.457031,0.430664 0.457031,1.204101 0,0.439454 -0.210937,1.256836 -0.219727,0.817383 -0.219727,1.256836 0,0.580078 0.360352,0.905274 0.360352,0.316406 0.975586,0.316406 0.905273,0 1.599609,-0.685547 0.694336,-0.694336 1.107422,-2.074219 0.413086,-1.388672 0.413086,-2.944336 -1.749023,-0.02637 -3.014648,-0.448242 -1.256836,-0.430664 -1.863282,-1.186523 -0.606445,-0.75586 -0.606445,-1.792969 0,-1.344727 0.896484,-2.135742 0.896485,-0.791016 2.390625,-0.791016 1.722657,0 2.636719,1.300781 0.914063,1.300782 0.949219,3.832032 h 0.852539 z m -2.241211,-1.21289 q 0,-1.766602 -0.580078,-2.882813 -0.580078,-1.116211 -1.617188,-1.116211 -1.810546,0 -1.810546,1.766602 0,1.081055 1.037109,1.661133 1.045898,0.571289 2.970703,0.571289 z"
   id="text54"
   class="key"
   style="font-size:18px;font-family:Arial;text-align:center;text-anchor:middle;fill:#111111;stroke-width:0.75"
   aria-label="ϑ" />&#10;    </g>&#10;&#10;&#10;    <!-- pinky finger column -->&#10;    <g
   transform="translate(144,0)"
   id="g58">&#10;      <use
   xlink:href="#basekey"
   y="0"
   class="r5"
   id="use54" />&#10;      <use
   xlink:href="#basekey"
   y="36"
   class="r5"
   id="use55" />&#10;      <use
   xlink:href="#basekey"
   y="72"
   class="r5"
   id="use56" />&#10;&#10;      <path
   d="m 21.080078,17.03418 q 0,2.390625 -1.116211,3.700195 -1.107422,1.300781 -3.27832,1.423828 v 3.577149 h -1.494141 v -3.577149 q -2.126953,-0.09668 -3.208008,-1.353516 -1.072265,-1.256835 -1.072265,-3.594726 0,-2.030273 0.975586,-3.339844 0.984375,-1.30957 2.71582,-1.59082 l 0.18457,1.195312 q -1.089843,0.237305 -1.652343,1.195313 -0.5625,0.958008 -0.5625,2.575195 0,1.87207 0.641601,2.759766 0.650391,0.878906 1.977539,0.949219 v -5.097657 q 0,-1.696289 0.676758,-2.627929 0.676758,-0.931641 2.06543,-0.931641 1.467773,0 2.302734,1.283203 0.84375,1.283203 0.84375,3.454102 z m -1.661133,-0.01758 q 0,-1.696289 -0.386718,-2.619141 -0.37793,-0.931641 -1.081055,-0.931641 -1.265625,0 -1.265625,2.364258 v 5.124024 q 1.423828,-0.06152 2.074219,-1.019532 0.659179,-0.958008 0.659179,-2.917968 z"
   id="text56"
   class="key"
   style="font-size:18px;font-family:Arial;text-align:center;text-anchor:middle;fill:#111111;stroke-width:0.75"
   aria-label="φ" />&#10;      <path
   d="m 16.738281,56.954102 q 1.608399,-0.01758 2.241211,-0.632813 0.641602,-0.624023 0.641602,-2.15332 v -5.677735 h 1.599609 v 5.660157 q 0,2.118164 -1.063476,3.067382 -1.054688,0.94043 -3.418946,0.958008 v 3.559571 h -1.49414 v -3.559571 q -2.34668,-0.01758 -3.410157,-0.958008 -1.063476,-0.940429 -1.063476,-3.067382 v -5.660157 h 1.59082 v 5.677735 q 0,1.49414 0.632813,2.135742 0.632812,0.632812 2.25,0.650391 V 46.222656 h 1.49414 z"
   id="text57"
   class="key"
   style="font-size:18px;font-family:Arial;text-align:center;text-anchor:middle;fill:#111111;stroke-width:0.75"
   aria-label="ψ" />&#10;      <path
   d="m 18.671875,94 -3.216797,-4.341797 -1.160156,0.958008 V 94 h -1.582031 v -9.509766 h 1.582031 v 4.614258 l 4.174805,-4.614258 h 1.854492 L 16.46582,88.577148 20.526367,94 Z"
   id="text58"
   class="key"
   style="font-size:18px;font-family:Arial;text-align:center;text-anchor:middle;fill:#111111;stroke-width:0.75"
   aria-label="κ" />&#10;    </g>&#10;&#10;&#10;    <!-- outer column -->&#10;    <g
   transform="translate(180,0)"
   id="g60">&#10;      <use
   xlink:href="#basekey"
   y="0"
   class="r5"
   id="use58" />&#10;      <use
   xlink:href="#basekey"
   y="36"
   class="key grey pressed"
   id="m3r" />&#10;      <use
   xlink:href="#basekey"
   y="72"
   class="key grey"
   id="use59" />&#10;&#10;      <path
   d="m 16.777832,13.553711 q -0.720703,0 -1.30957,0.536133 -0.580078,0.536133 -0.975586,1.617187 -0.395508,1.081055 -0.395508,2.144531 0,1.13379 0.5625,1.713868 0.571289,0.571289 2.285156,1.125 l 0.966797,0.307617 q 1.87207,0.615234 1.87207,2.06543 0,0.386718 -0.158203,0.861328 -0.158203,0.483398 -0.571289,1.177734 l -1.107422,-0.492187 q 0.202149,-0.272461 0.342774,-0.632813 0.140625,-0.360352 0.140625,-0.606445 0,-0.421875 -0.439453,-0.711914 -0.439453,-0.290039 -1.872071,-0.676758 -1.564453,-0.421875 -2.293945,-0.914063 -0.729492,-0.500976 -1.072266,-1.274414 -0.333984,-0.782226 -0.333984,-1.96875 0,-0.975586 0.342773,-2.065429 0.351563,-1.098633 0.914063,-1.854493 0.571289,-0.764648 1.344727,-1.177734 0.782226,-0.413086 1.757812,-0.413086 0.887695,0 1.546875,0.237305 0.65918,0.237305 1.230469,0.834961 l -1.019531,1.045898 q -0.834961,-0.878906 -1.757813,-0.878906 z"
   id="text59"
   class="key"
   style="font-size:18px;font-family:Arial;text-align:center;text-anchor:middle;fill:#111111;stroke-width:0.75"
   aria-label="ς" />&#10;      <path
   d="m 15.724121,56 v -4.589844 q 0,-0.761719 0.04394,-1.464844 -0.239257,0.874024 -0.429687,1.367188 L 13.561035,56 h -0.654297 l -1.801758,-4.6875 -0.273437,-0.830078 -0.161133,-0.53711 0.01465,0.541993 0.01953,0.922851 V 56 H 9.8745117 v -6.879883 h 1.2255863 l 1.831054,4.770508 q 0.09766,0.288086 0.185547,0.620117 0.09277,0.327149 0.122071,0.473633 0.03906,-0.195313 0.161132,-0.59082 0.126953,-0.400391 0.170899,-0.50293 l 1.796875,-4.770508 h 1.196289 V 56 Z m 6.782227,-1.899414 q 0,0.952148 -0.605469,1.474609 -0.605469,0.522461 -1.728516,0.522461 -1.044922,0 -1.669922,-0.46875 -0.620117,-0.473633 -0.737304,-1.396484 l 0.908203,-0.08301 q 0.175781,1.220703 1.499023,1.220703 0.664063,0 1.040039,-0.327148 0.38086,-0.327149 0.38086,-0.97168 0,-0.561523 -0.434571,-0.874023 -0.429687,-0.317383 -1.245117,-0.317383 h -0.498047 v -0.761719 h 0.478516 q 0.722656,0 1.118164,-0.3125 0.400391,-0.317383 0.400391,-0.874023 0,-0.551758 -0.327149,-0.869141 -0.322265,-0.322266 -0.961914,-0.322266 -0.581055,0 -0.942383,0.297852 -0.356445,0.297851 -0.415039,0.839844 l -0.883789,-0.06836 q 0.09766,-0.844726 0.698242,-1.318359 0.605469,-0.473633 1.552735,-0.473633 1.035156,0 1.606445,0.483399 0.576172,0.478515 0.576172,1.33789 0,0.65918 -0.371094,1.074219 -0.366211,0.410156 -1.069336,0.556641 v 0.01953 q 0.771485,0.08301 1.201172,0.517578 0.429688,0.43457 0.429688,1.09375 z"
   id="m3rtxt"
   class="mod"
   style="font-size:10px;font-family:Arial;text-align:center;text-anchor:middle;fill:#111111"
   aria-label="M3" />&#10;      <path
   d="m 11.554199,92 v -4.589844 q 0,-0.761719 0.04395,-1.464844 -0.239258,0.874024 -0.429688,1.367188 L 9.3911133,92 H 8.7368164 l -1.8017578,-4.6875 -0.2734375,-0.830078 -0.1611328,-0.53711 0.014648,0.541993 0.019531,0.922851 V 92 H 5.7045898 v -6.879883 h 1.225586 l 1.8310547,4.770508 q 0.097656,0.288086 0.1855468,0.620117 0.092773,0.327149 0.1220704,0.473633 0.039063,-0.195313 0.1611328,-0.59082 0.1269531,-0.400391 0.1708984,-0.50293 l 1.7968751,-4.770508 h 1.196289 V 92 Z m 3.007813,-2.456055 q 0,0.908203 0.375976,1.401367 0.375977,0.493165 1.098633,0.493165 0.571289,0 0.913086,-0.229493 0.34668,-0.229492 0.46875,-0.581054 l 0.771484,0.219726 q -0.473632,1.25 -2.15332,1.25 -1.171875,0 -1.787109,-0.698242 -0.610352,-0.698242 -0.610352,-2.075195 0,-1.308594 0.610352,-2.006836 0.615234,-0.698242 1.752929,-0.698242 2.329102,0 2.329102,2.807617 v 0.117187 z m 2.861328,-0.673828 q -0.07324,-0.834961 -0.424805,-1.21582 -0.351562,-0.385742 -1.010742,-0.385742 -0.639648,0 -1.015625,0.429687 -0.371094,0.424805 -0.400391,1.171875 z m 4.057617,3.09082 q -0.43457,0.117188 -0.888672,0.117188 -1.054687,0 -1.054687,-1.196289 v -3.525391 h -0.610352 v -0.639648 h 0.644531 l 0.258789,-1.181641 h 0.585938 v 1.181641 h 0.976562 v 0.639648 h -0.976562 v 3.334961 q 0,0.38086 0.12207,0.53711 0.126953,0.151367 0.434571,0.151367 0.175781,0 0.507812,-0.06836 z m 2.094727,0.136719 q -0.795899,0 -1.196289,-0.419922 -0.400391,-0.419922 -0.400391,-1.152343 0,-0.820313 0.537109,-1.259766 0.541992,-0.439453 1.743164,-0.46875 l 1.186524,-0.01953 v -0.288086 q 0,-0.644531 -0.273438,-0.922852 -0.273437,-0.27832 -0.859375,-0.27832 -0.59082,0 -0.859375,0.200195 -0.268554,0.200196 -0.322265,0.639649 l -0.917969,-0.08301 q 0.224609,-1.425781 2.119141,-1.425781 0.996093,0 1.499023,0.458984 0.50293,0.454102 0.50293,1.318359 v 2.275391 q 0,0.390625 0.102539,0.59082 0.102539,0.195313 0.390625,0.195313 0.126953,0 0.288086,-0.03418 v 0.546875 q -0.332032,0.07813 -0.678711,0.07813 -0.488282,0 -0.712891,-0.253906 -0.219726,-0.258789 -0.249023,-0.805664 h -0.0293 q -0.336914,0.605469 -0.786133,0.859375 -0.444336,0.249023 -1.083984,0.249023 z m 0.200195,-0.659179 q 0.483398,0 0.859375,-0.219727 0.375976,-0.219727 0.59082,-0.600586 0.219727,-0.385742 0.219727,-0.791016 v -0.43457 l -0.961914,0.01953 q -0.620117,0.0098 -0.942383,0.126953 -0.317383,0.117188 -0.488281,0.361329 -0.170899,0.24414 -0.170899,0.639648 0,0.429688 0.229492,0.664063 0.234375,0.234375 0.664063,0.234375 z"
   id="text60"
   class="mod"
   style="font-size:10px;font-family:Arial;text-align:center;text-anchor:middle;fill:#111111"
   aria-label="Meta" />&#10;    </g>&#10;  </g>&#10;</g>&#10;&#10;</svg>
