<?xml version="1.0" encoding="UTF-8" standalone="no"?>
<svg
   version="1.1"
   id="Ebene_1"
   height="183"
   width="535"
   viewBox="0 0 535 183"
   enable-background="new 0 0 535 183"
   xml:space="preserve"
   inkscape:export-xdpi="90"
   inkscape:export-ydpi="90"
   sodipodi:docname="noted-Pseudoebene-tkl.svg"
   xmlns:inkscape="http://www.inkscape.org/namespaces/inkscape"
   xmlns:sodipodi="http://sodipodi.sourceforge.net/DTD/sodipodi-0.dtd"
   xmlns:xlink="http://www.w3.org/1999/xlink"
   xmlns="http://www.w3.org/2000/svg"
   xmlns:svg="http://www.w3.org/2000/svg"
   xmlns:rdf="http://www.w3.org/1999/02/22-rdf-syntax-ns#"
   xmlns:cc="http://creativecommons.org/ns#"
   xmlns:dc="http://purl.org/dc/elements/1.1/">&#10;&#10;  <metadata
   id="metadata135">&#10;    <rdf:RDF>&#10;      <cc:Work
   rdf:about="">&#10;        <dc:format>image/svg+xml</dc:format>&#10;        <dc:type
   rdf:resource="http://purl.org/dc/dcmitype/StillImage" />&#10;        <dc:title />&#10;      </cc:Work>&#10;    </rdf:RDF>&#10;  </metadata>&#10;&#10;<defs
   id="defs">&#10;  <style
   type="text/css"
   id="style46661">&#10;  text.mod, text.key, text.dead {&#10;    fill:#111;&#10;    fill-opacity:1;&#10;      stroke:none;&#10;      font-style:normal;&#10;      font-variant:normal;&#10;      font-weight:normal;&#10;      font-stretch:normal;&#10;      display:inline;&#10;      font-family:DejaVu Sans;&#10;      writing-mode:lr-tb;&#10;  }&#10;&#10;  text.key {&#10;      font-family:DejaVu Sans;&#10;  }&#10;&#10;  text.dead {&#10;      font-family: Gentium Plus Compact;&#10;  }&#10;&#10;  text.space, text.dead, text.center, text.key, text.mod {&#10;      text-align:center;&#10;      text-anchor:middle;&#10;  }&#10;&#10;  text.key { font-size:18px; }&#10;  text.dead { font-size:18px; }&#10;  text.mod { font-size:8px; }&#10;  text.big { font-size:12px; }&#10;&#10;  .key {&#10;  stroke-width:0.75;&#10;  }&#10;&#10;  .grey { fill:#949494; stroke:#696969; }&#10;  .grey { fill:#9f9f9f; stroke:#747474; }&#10;&#10;  .numpad { fill:#afaa9f; stroke:#747474; }&#10;&#10;  /* bootstrap colors */&#10;  .l5, .r5 { fill:#93CCEA; }&#10;  .l4, .r4 { fill:#7abeb3; }&#10;  .l3, .r3 { fill:#63b280; }&#10;  .l2, .r2 { fill:#4aa44a; }&#10;  .l1, .r1 { fill:#4aa44a; }&#10;&#10;  /* btn bg hover, unused */&#10;  .l2, .r2 { stroke:#3071a9; }&#10;  .l3, .r3 { stroke:#449d44; }&#10;  .l4, .r4 { stroke:#c9302c; }&#10;  .l5, .r5 { stroke:#ec971f; }&#10;&#10;  /* btn border hover */&#10;  .l1, .r1 { stroke:#204d74; }&#10;  .l2, .r2 { stroke:#204d74; }&#10;  .l3, .r3 { stroke:#204d74; }&#10;  .l4, .r4 { stroke:#204d74; }&#10;  .l5, .r5 { stroke:#204d74; }&#10;&#10;  <!-- text.nubkey { fill:#eee; } -->&#10;&#10;  .pressed {&#10;    <!--opacity:0.5;-->&#10;    fill:#777;&#10;  }&#10;  </style>&#10;&#10;  <g
   id="basekey">&#10;    <rect
   width="32"
   height="32"
   rx="4"
   class="key"
   id="rect1" />&#10;  </g>&#10;&#10;  <g
   id="nub">&#10;    <!-- <rect width="14" height="1" rx="1" style="fill:#eee;" /> -->&#10;    <rect
   width="14"
   height="1"
   rx="1"
   style="fill:#111;"
   id="rect2" />&#10;  </g>&#10;&#10;</defs>&#10;<sodipodi:namedview
   pagecolor="#ffffff"
   bordercolor="#666666"
   borderopacity="1"
   objecttolerance="10"
   gridtolerance="10"
   guidetolerance="10"
   inkscape:pageopacity="0"
   inkscape:pageshadow="2"
   inkscape:window-width="1614"
   inkscape:window-height="969"
   id="base"
   showgrid="false"
   inkscape:zoom="0.70961538"
   inkscape:cx="685.32105"
   inkscape:cy="241.15395"
   inkscape:window-x="78"
   inkscape:window-y="71"
   inkscape:window-maximized="0"
   inkscape:current-layer="Ebene_1"
   inkscape:showpageshadow="2"
   inkscape:pagecheckerboard="0"
   inkscape:deskcolor="#d1d1d1" />&#10;&#10;<g
   transform="translate(3.5,3.5)"
   id="g61">&#10;&#10;  <g
   transform="translate(0, 0)"
   id="g31">&#10;&#10;    <!-- outer column -->&#10;    <g
   transform="translate(0, 0)"
   id="g4">&#10;      <use
   xlink:href="#basekey"
   y="0"
   class="l5"
   id="use2" />&#10;      <use
   xlink:href="#basekey"
   y="36"
   class="key grey"
   id="m3l" />&#10;      <use
   xlink:href="#basekey"
   y="72"
   class="key grey"
   id="use3" />&#10;&#10;      <text
   x="16"
   y="22"
   class="key"
   id="text3" />&#10;      <path
   d="m 10.789063,50.167969 h 1.175781 l 1.488281,3.96875 1.496094,-3.96875 H 16.125 V 56 h -0.769531 v -5.121094 l -1.503906,4 h -0.792969 l -1.503906,-4 V 56 h -0.765625 z m 9.363281,2.6875 q 0.566406,0.121093 0.882812,0.503906 0.320313,0.382812 0.320313,0.945312 0,0.863282 -0.59375,1.335938 -0.59375,0.472656 -1.6875,0.472656 -0.367188,0 -0.757813,-0.07422 -0.386719,-0.07031 -0.800781,-0.214843 V 55.0625 q 0.328125,0.191406 0.71875,0.289062 0.390625,0.09766 0.816406,0.09766 0.742188,0 1.128906,-0.292969 0.390625,-0.292969 0.390625,-0.851563 0,-0.515625 -0.363281,-0.804687 -0.359375,-0.292969 -1.003906,-0.292969 h -0.679688 v -0.648437 h 0.710938 q 0.582031,0 0.890625,-0.230469 0.308594,-0.234375 0.308594,-0.671875 0,-0.449219 -0.320313,-0.6875 -0.316406,-0.242188 -0.910156,-0.242188 -0.324219,0 -0.695313,0.07031 -0.371093,0.07031 -0.816406,0.21875 V 50.3125 q 0.449219,-0.125 0.839844,-0.1875 0.394531,-0.0625 0.742187,-0.0625 0.898438,0 1.421875,0.410156 0.523438,0.40625 0.523438,1.101563 0,0.484375 -0.277344,0.820312 -0.277344,0.332031 -0.789062,0.460938 z"
   id="m3ltxt"
   class="mod"
   style="font-size:8px;font-family:'DejaVu Sans';text-align:center;text-anchor:middle;fill:#111111"
   aria-label="M3" />&#10;      <path
   d="m 6.8535156,86.167969 h 1.1757813 l 1.4882812,3.96875 1.4960939,-3.96875 h 1.175781 V 92 h -0.769531 v -5.121094 l -1.5039064,4 H 9.1230469 l -1.5039063,-4 V 92 h -0.765625 z m 10.6132814,3.464843 v 0.351563 h -3.304688 q 0.04687,0.742187 0.445313,1.132812 0.402344,0.386719 1.117187,0.386719 0.414063,0 0.800782,-0.101562 0.390625,-0.101563 0.773437,-0.304688 v 0.679688 q -0.386719,0.164062 -0.792969,0.25 -0.40625,0.08594 -0.824218,0.08594 -1.046875,0 -1.660157,-0.609375 -0.609375,-0.609375 -0.609375,-1.648437 0,-1.074219 0.578125,-1.703125 0.582032,-0.632813 1.566407,-0.632813 0.882812,0 1.394531,0.570313 0.515625,0.566406 0.515625,1.542968 z m -0.71875,-0.210937 q -0.0078,-0.589844 -0.332031,-0.941406 -0.320313,-0.351563 -0.851563,-0.351563 -0.601562,0 -0.964844,0.339844 -0.359375,0.339844 -0.414062,0.957031 z m 2.609375,-3.039063 V 87.625 h 1.480469 v 0.558594 h -1.480469 v 2.375 q 0,0.535156 0.144531,0.6875 0.148438,0.152343 0.597656,0.152343 h 0.738282 V 92 h -0.738282 q -0.832031,0 -1.148437,-0.308594 -0.316406,-0.3125 -0.316406,-1.132812 v -2.375 H 18.107422 V 87.625 h 0.527344 v -1.242188 z m 4.414062,3.417969 q -0.871093,0 -1.207031,0.199219 -0.335937,0.199219 -0.335937,0.679687 0,0.382813 0.25,0.609375 0.253906,0.222657 0.6875,0.222657 0.597656,0 0.957031,-0.421875 0.363281,-0.425782 0.363281,-1.128907 v -0.160156 z m 1.433594,-0.296875 V 92 h -0.71875 v -0.664063 q -0.246094,0.398438 -0.613281,0.589844 -0.367188,0.1875 -0.898438,0.1875 -0.671875,0 -1.070312,-0.375 -0.394531,-0.378906 -0.394531,-1.011719 0,-0.738281 0.492187,-1.113281 0.496094,-0.375 1.476563,-0.375 h 1.007812 v -0.07031 q 0,-0.496094 -0.328125,-0.765625 -0.324219,-0.273438 -0.914062,-0.273438 -0.375,0 -0.730469,0.08984 -0.355469,0.08984 -0.683594,0.269531 v -0.664062 q 0.394531,-0.152344 0.765625,-0.226563 0.371094,-0.07813 0.722656,-0.07813 0.949219,0 1.417969,0.492188 0.46875,0.492187 0.46875,1.492187 z"
   id="text4"
   class="mod"
   style="font-size:8px;font-family:'DejaVu Sans';text-align:center;text-anchor:middle;fill:#111111"
   aria-label="Meta" />&#10;    </g>&#10;&#10;    <!-- pinky finger column -->&#10;    <g
   transform="translate(36, 0)"
   id="g8">&#10;      <use
   xlink:href="#basekey"
   y="0"
   class="l5"
   id="use4" />&#10;      <use
   xlink:href="#basekey"
   y="36"
   class="l5"
   id="use5" />&#10;      <use
   xlink:href="#basekey"
   y="72"
   class="l5"
   id="use6" />&#10;&#10;      <path
   d="m 15.604492,8.8164063 h 0.791016 l 3.445312,3.4628907 -1.054687,1.054687 -2.039063,-2.05664 v 3.251953 h 2.601563 v 1.49414 H 16.74707 v 1.494141 h 2.601563 v 1.494141 H 16.74707 V 22 h -1.49414 v -2.988281 h -2.583985 v -1.494141 h 2.583985 v -1.494141 h -2.583985 v -1.49414 h 2.583985 v -3.251953 l -2.056641,2.05664 -1.054687,-1.054687 z"
   id="text6"
   class="key"
   style="font-size:18px;font-family:'DejaVu Sans';text-align:center;text-anchor:middle;fill:#111111;stroke-width:0.75"
   aria-label="⇞" />&#10;      <path
   d="m 22.635742,44.87793 v 0.870117 H 10.401367 V 58 H 9.53125 V 44.87793 Z m -10.555664,3.102539 0.553711,-0.553711 h 4.886719 v 1.485351 h -2.900391 l 7.576172,7.576172 -1.054687,1.054688 -7.576172,-7.576172 v 2.90039 h -1.485352 z"
   id="text7"
   class="key"
   style="font-size:18px;font-family:'DejaVu Sans';text-align:center;text-anchor:middle;fill:#111111;stroke-width:0.75"
   aria-label="⇱" />&#10;      <path
   d="M 7,94 V 80.324219 H 25 V 94 Z M 8.3007813,81.625 V 92.699219 H 9.5400391 L 15.077148,87.162109 9.5400391,81.625 Z m 12.3222657,0 h -9.228516 l 4.614258,4.614258 z m -9.228516,11.074219 h 9.228516 L 16.008789,88.084961 Z M 22.451172,81.625 l -5.53711,5.537109 5.53711,5.53711 h 1.248047 V 81.625 Z"
   id="text8"
   class="key"
   style="font-size:18px;font-family:'DejaVu Sans';text-align:center;text-anchor:middle;fill:#111111;stroke-width:0.75"
   aria-label="⌧" />&#10;    </g>&#10;&#10;    <!-- ring finger column -->&#10;    <g
   transform="translate(72, 0)"
   id="g12">&#10;      <use
   xlink:href="#basekey"
   y="0"
   class="l4"
   id="use8" />&#10;      <use
   xlink:href="#basekey"
   y="36"
   class="l4"
   id="use9" />&#10;      <use
   xlink:href="#basekey"
   y="72"
   class="l4"
   id="use10" />&#10;&#10;      <path
   d="M 27.355469,22 H 10.120117 L 3.2822266,15.162109 10.120117,8.3242188 H 27.355469 Z M 26.054687,9.625 H 24.81543 l -5.53711,5.537109 5.53711,5.53711 h 1.239257 z m -12.322265,0 4.614258,4.614258 L 22.960937,9.625 Z m 9.228515,11.074219 -4.614257,-4.614258 -4.614258,4.614258 z M 11.904297,9.625 H 10.65625 l -5.5371094,5.554688 5.5371094,5.519531 h 1.248047 l 5.537109,-5.53711 z"
   id="text10"
   class="key"
   style="font-size:18px;font-family:'DejaVu Sans';text-align:center;text-anchor:middle;fill:#111111;stroke-width:0.75"
   aria-label="⌫" />&#10;      <path
   d="m 9.3378906,52.75293 v -0.791016 l 3.4541014,-3.454102 1.054688,1.054688 -2.047852,2.047852 h 3.243164 v 1.49414 h -3.243164 l 2.047852,2.047852 -1.054688,1.054687 z m 7.1982424,0.351562 v -1.49414 h 2.241211 v 1.49414 z m 3.735351,0 v -1.49414 h 2.241211 v 1.49414 z"
   id="text11"
   class="key"
   style="font-size:18px;font-family:'DejaVu Sans';text-align:center;text-anchor:middle;fill:#111111;stroke-width:0.75"
   aria-label="⇠" />&#10;      <path
   d="m 9.4873047,87.610352 h 9.1582033 l -2.056641,-2.056641 1.054688,-1.054688 3.46289,3.462891 v -3.375 h 1.494141 v 7.558594 H 21.106445 V 88.75293 l -3.46289,3.46289 -1.054688,-1.054687 2.056641,-2.056641 H 9.4873047 Z"
   id="text12"
   class="key"
   style="font-size:18px;font-family:'DejaVu Sans';text-align:center;text-anchor:middle;fill:#111111;stroke-width:0.75"
   aria-label="⇥" />&#10;    </g>&#10;&#10;    <!-- middle finger column -->&#10;    <g
   transform="translate(108, 0)"
   id="g16">&#10;      <use
   xlink:href="#basekey"
   y="0"
   class="l3"
   id="use12" />&#10;      <use
   xlink:href="#basekey"
   y="36"
   class="l3"
   id="use13" />&#10;      <use
   xlink:href="#basekey"
   y="72"
   class="l3"
   id="use14" />&#10;&#10;      <path
   d="m 15.604492,8.8164063 h 0.791016 l 3.46289,3.4628907 -1.054687,1.054687 -2.056641,-2.05664 v 3.251953 h -1.49414 v -3.251953 l -2.056641,2.05664 -1.054687,-1.054687 z M 15.25293,16.023437 h 1.49414 v 2.232422 h -1.49414 z m 0,3.726563 h 1.49414 V 22 h -1.49414 z"
   id="text14"
   class="key"
   style="font-size:18px;font-family:'DejaVu Sans';text-align:center;text-anchor:middle;fill:#111111;stroke-width:0.75"
   aria-label="⇡" />&#10;      <path
   d="m 15.604492,58.061523 -3.46289,-3.46289 1.054687,-1.054688 2.056641,2.056641 v -3.251953 h 1.49414 v 3.251953 l 2.056641,-2.056641 1.054687,1.054688 -3.46289,3.46289 z M 15.25293,50.854492 V 48.62207 h 1.49414 v 2.232422 z m 0,-3.726562 v -2.25 h 1.49414 v 2.25 z"
   id="text15"
   class="key"
   style="font-size:18px;font-family:'DejaVu Sans';text-align:center;text-anchor:middle;fill:#111111;stroke-width:0.75"
   aria-label="⇣" />&#10;      <path
   d="m 15.774998,82.786 c -0.63,0 -1.386,0.306 -1.71,0.468 l 0.216,0.774 c 0.522,-0.324 0.81,-0.45 1.422,-0.45 0.684,0 1.17,0.432 1.17,1.098 h -0.954 c -1.098,0 -1.998,0.558 -1.998,1.638 0,0.99 0.576,1.566 1.512,1.566 0.648,0 1.116,-0.144 1.44,-0.414 v 0.342 h 0.864 V 85 c 0,-1.422 -0.594,-2.214 -1.962,-2.214 z m -0.162,4.266 c -0.468,0 -0.828,-0.27 -0.828,-0.792 0,-0.594 0.63,-0.792 1.422,-0.792 h 0.666 c 0,1.35 -0.792,1.584 -1.26,1.584 z m 0.432,6.354 c -0.738,-1.584 -2.322,-3.978 -3.726,-5.814 l -0.648,0.288 c 1.476,2.034 2.88,4.158 3.996,6.336 h 0.756 c 0.972,-1.998 2.448,-4.248 3.906,-6.228 l -0.576,-0.396 c -1.368,1.8 -2.988,4.284 -3.708,5.814 z"
   id="text16"
   class="key"
   style="font-size:18px;font-family:'DejaVu Sans';text-align:center;text-anchor:middle;fill:#111111;stroke-width:0.75"
   aria-label="⎀" />&#10;    </g>&#10;&#10;    <!-- index finger column -->&#10;    <g
   transform="translate(144,0)"
   id="g20">&#10;      <use
   xlink:href="#basekey"
   y="0"
   class="l2"
   id="use16" />&#10;      <use
   xlink:href="#basekey"
   y="36"
   class="l2"
   id="use17" />&#10;      <use
   xlink:href="#basekey"
   y="72"
   class="l2"
   id="use18" />&#10;&#10;      <path
   d="M 4.6445312,22 V 8.3242188 H 21.879883 L 28.717773,15.162109 21.879883,22 Z M 5.9453125,9.625 V 20.699219 H 7.1845703 L 12.72168,15.162109 7.1845703,9.625 Z m 12.3222655,0 H 9.0390625 L 13.65332,14.239258 Z M 9.0390625,20.699219 H 18.267578 L 13.65332,16.084961 Z M 20.095703,9.625 l -5.537109,5.537109 5.537109,5.53711 H 21.34375 L 26.880859,15.179688 21.34375,9.625 Z"
   id="text18"
   class="key"
   style="font-size:18px;font-family:'DejaVu Sans';text-align:center;text-anchor:middle;fill:#111111;stroke-width:0.75"
   aria-label="⌦" />&#10;      <path
   d="m 22.662109,52.75293 -3.454101,3.454101 -1.054688,-1.054687 2.047852,-2.047852 h -3.243164 v -1.49414 h 3.243164 L 18.15332,49.5625 l 1.054688,-1.054688 3.454101,3.454102 z m -9.439453,-1.142578 h 2.241211 v 1.49414 h -2.241211 z m -1.49414,0 v 1.49414 H 9.4873047 v -1.49414 z"
   id="text19"
   class="key nubkey"
   style="font-size:18px;font-family:'DejaVu Sans';text-align:center;text-anchor:middle;fill:#111111;stroke-width:0.75"
   aria-label="⇢" />&#10;      <path
   d="M 13.407227,92.822266 8.9423828,88.357422 13.407227,83.892578 v 2.399414 h 4.983398 V 80.87793 h 4.130859 l -0.0088,9.544922 H 13.407227 Z M 12.52832,87.170898 v -1.151367 l -2.33789,2.337891 2.33789,2.33789 v -1.151367 h 9.105469 l 0.0088,-7.787109 h -2.373047 l -0.0088,5.414062 z"
   id="text20"
   class="key"
   style="font-size:18px;font-family:'DejaVu Sans';text-align:center;text-anchor:middle;fill:#111111;stroke-width:0.75"
   aria-label="⏎" />&#10;&#10;      <use
   x="10"
   y="65"
   xlink:href="#nub"
   id="use20" />&#10;    </g>&#10;&#10;    <!-- inner column -->&#10;    <g
   transform="translate(180,0)"
   id="g25">&#10;      <use
   xlink:href="#basekey"
   y="0"
   class="l2"
   id="use21" />&#10;      <use
   xlink:href="#basekey"
   y="36"
   class="l2"
   id="use22" />&#10;      <use
   xlink:href="#basekey"
   y="72"
   class="l2"
   id="use23" />&#10;&#10;      <path
   d="m 16.37793,22.061523 h -0.791016 l -3.445312,-3.46289 1.054687,-1.054688 2.039063,2.056641 v -3.251953 h -2.601563 v -1.494141 h 2.601563 v -1.49414 h -2.601563 v -1.494141 h 2.601563 V 8.8779297 h 1.49414 v 2.9882813 h 2.583985 v 1.494141 h -2.583985 v 1.49414 h 2.583985 v 1.494141 h -2.583985 v 3.251953 l 2.056641,-2.056641 1.054687,1.054688 z"
   id="text23"
   class="key"
   style="font-size:18px;font-family:'DejaVu Sans';text-align:center;text-anchor:middle;fill:#111111;stroke-width:0.75"
   aria-label="⇟" />&#10;      <path
   d="M 9.53125,58 V 57.129883 H 21.765625 V 44.87793 h 0.870117 V 58 Z m 10.555664,-3.102539 -0.553711,0.553711 H 14.646484 V 53.96582 h 2.900391 l -7.5761719,-7.576172 1.0546879,-1.054687 7.576171,7.576172 v -2.900391 h 1.485352 z"
   id="text24"
   class="key"
   style="font-size:18px;font-family:'DejaVu Sans';text-align:center;text-anchor:middle;fill:#111111;stroke-width:0.75"
   aria-label="⇲" />&#10;      <path
   d="m 18.540039,87.882812 v -0.439453 q 0,-0.817382 -0.290039,-1.529297 -0.307617,-0.729492 -0.870117,-1.291992 -0.5625,-0.553711 -1.283203,-0.861328 -0.685547,-0.290039 -1.520508,-0.290039 -0.834961,0 -1.485352,0.290039 -0.755859,0.342774 -1.283203,0.861328 -0.580078,0.580078 -0.870117,1.291992 -0.290039,0.711915 -0.290039,1.529297 H 9.1533203 q 0,-1.116211 0.4042969,-2.100586 0.3955078,-0.940429 1.2041018,-1.77539 0.791015,-0.75586 1.757812,-1.186524 0.949219,-0.404297 2.074219,-0.404297 1.125,0 2.074219,0.404297 0.966797,0.430664 1.757812,1.186524 0.808594,0.834961 1.204102,1.77539 0.404297,0.984375 0.404297,2.100586 v 0.439453 l 2.05664,-2.05664 1.054688,1.054687 -3.462891,3.462891 h -0.791015 l -3.445313,-3.462891 1.054688,-1.054687 z"
   id="text25"
   class="key"
   style="font-size:18px;font-family:'DejaVu Sans';text-align:center;text-anchor:middle;fill:#111111;stroke-width:0.75"
   aria-label="↷" />&#10;    </g>&#10;&#10;    <!-- thump cluster -->&#10;    <g
   transform="translate(144, 114)"
   id="g30">&#10;      <g
   transform="rotate(0)"
   id="g29">&#10;        <use
   xlink:href="#basekey"
   x="0"
   class="key grey pressed"
   id="use25" />&#10;        <path
   d="m 10.789063,14.167969 h 1.175781 l 1.488281,3.96875 1.496094,-3.96875 H 16.125 V 20 h -0.769531 v -5.121094 l -1.503906,4 h -0.792969 l -1.503906,-4 V 20 h -0.765625 z m 9.140624,0.6875 -1.992187,3.113281 h 1.992187 z m -0.207031,-0.6875 h 0.992188 v 3.800781 h 0.832031 V 18.625 H 20.714844 V 20 h -0.785157 v -1.375 h -2.632812 v -0.761719 z"
   id="m4ltxt"
   class="mod"
   style="font-size:8px;font-family:'DejaVu Sans';text-align:center;text-anchor:middle;fill:#111111"
   aria-label="M4" />&#10;        <g
   transform="translate(36, 0) rotate(0)"
   id="g28">&#10;          <use
   xlink:href="#basekey"
   x="0"
   class="key grey pressed"
   id="use26" />&#10;          <path
   d="M 17.039062,15.5625 16,14.523438 14.960938,15.5625 h 0.511718 v 4.046875 h 1.054688 V 15.5625 Z M 14.015625,15.953125 16,13.96875 17.984375,15.953125 H 16.917969 V 20 h -1.835938 v -4.046875 z"
   id="shiftltxt"
   class="mod"
   style="font-size:8px;font-family:'DejaVu Sans';text-align:center;text-anchor:middle;fill:#111111"
   aria-label="⇧" />&#10;          <g
   transform="translate(36, 0) rotate(0)"
   id="g27">&#10;            <use
   xlink:href="#basekey"
   x="0"
   class="l1"
   id="use27" />&#10;            <path
   d="m 13.105469,17.160156 h 4.070312 l -0.914062,-0.914062 0.46875,-0.46875 1.539062,1.539062 v -1.5 h 0.664063 v 3.359375 h -0.664063 v -1.507812 l -1.539062,1.539062 -0.46875,-0.46875 0.914062,-0.914062 h -4.070312 z"
   id="text27"
   class="mod"
   style="font-size:8px;font-family:'DejaVu Sans';text-align:center;text-anchor:middle;fill:#111111"
   aria-label="⇥" />&#10;          </g>&#10;        </g>&#10;      </g>&#10;    </g>&#10;  </g>&#10;&#10;&#10;&#10;&#10;  <g
   transform="translate(310,0)"
   id="g60">&#10;&#10;    <!-- thumb-cluster -->&#10;    <g
   transform="translate(36, 114)"
   id="g36">&#10;      <g
   transform="rotate(0, 36, 0)"
   id="g35">&#10;        <use
   xlink:href="#basekey"
   x="0"
   class="key grey pressed"
   id="use31" />&#10;        <path
   d="m 10.789063,14.167969 h 1.175781 l 1.488281,3.96875 1.496094,-3.96875 H 16.125 V 20 h -0.769531 v -5.121094 l -1.503906,4 h -0.792969 l -1.503906,-4 V 20 h -0.765625 z m 9.140624,0.6875 -1.992187,3.113281 h 1.992187 z m -0.207031,-0.6875 h 0.992188 v 3.800781 h 0.832031 V 18.625 H 20.714844 V 20 h -0.785157 v -1.375 h -2.632812 v -0.761719 z"
   id="m4rtxt"
   class="mod"
   style="font-size:8px;font-family:'DejaVu Sans';text-align:center;text-anchor:middle;fill:#111111"
   aria-label="M4" />&#10;        <g
   transform="translate(-36, 0) rotate(0, 36, 0)"
   id="g34">&#10;          <use
   xlink:href="#basekey"
   x="0"
   class="l1"
   id="use32" />&#10;          <path
   d="m 14.6875,21.15625 h 2.625 V 19.1875 h 0.65625 v 2.632812 h -3.9375 V 19.1875 h 0.65625 z"
   id="text32"
   class="mod space"
   style="font-size:8px;font-family:'DejaVu Sans';text-align:center;text-anchor:middle;fill:#111111"
   aria-label="␣" />&#10;          <g
   transform="translate(-36, 0) rotate(0, 36, 0)"
   id="g33">&#10;            <use
   xlink:href="#basekey"
   x="0"
   class="l1"
   id="use33" />&#10;            <path
   d="m 14.847656,19.476562 -1.984375,-1.984375 1.984375,-1.984374 v 1.066406 H 17.0625 v -2.40625 h 1.835937 l -0.0039,4.242187 h -4.046875 z m -0.390625,-2.511718 v -0.511719 l -1.039062,1.039062 1.039062,1.039063 v -0.511719 h 4.046875 l 0.0039,-3.460937 h -1.054687 l -0.0039,2.40625 z"
   id="returntxt"
   class="mod"
   style="font-size:8px;font-family:'DejaVu Sans';text-align:center;text-anchor:middle;fill:#111111"
   aria-label="⏎" />&#10;          </g>&#10;        </g>&#10;      </g>&#10;    </g>&#10;&#10;    <!-- inner column -->&#10;    <g
   transform="translate(0,0)"
   id="g40">&#10;      <use
   xlink:href="#basekey"
   y="0"
   class="l2"
   id="use36" />&#10;      <use
   xlink:href="#basekey"
   y="36"
   class="l2"
   id="use37" />&#10;      <use
   xlink:href="#basekey"
   y="72"
   class="l2"
   id="use38" />&#10;&#10;      <text
   x="16"
   y="22"
   class="key"
   id="text38" />&#10;      <text
   x="16"
   y="58"
   class="key"
   id="text39" />&#10;      <text
   x="16"
   y="94"
   class="key"
   id="text40" />&#10;    </g>&#10;&#10;&#10;    <!-- index finger column -->&#10;    <g
   transform="translate(36,0)"
   id="g44">&#10;      <use
   xlink:href="#basekey"
   y="0"
   class="r2"
   id="use40" />&#10;      <use
   xlink:href="#basekey"
   y="36"
   class="r2"
   id="use41" />&#10;      <use
   xlink:href="#basekey"
   y="72"
   class="r2"
   id="use42" />&#10;&#10;      <path
   d="m 11.750488,8.8779297 h 8.4375 V 9.6337891 L 15.424316,22 h -1.854492 l 4.482422,-11.62793 h -6.301758 z"
   id="text42"
   class="key"
   style="font-size:18px;font-family:'DejaVu Sans';text-align:center;text-anchor:middle;fill:#111111;stroke-width:0.75"
   aria-label="7" />&#10;      <path
   d="m 17.07666,46.424805 -4.482422,7.004882 H 17.07666 Z M 16.61084,44.87793 h 2.232422 v 8.551757 h 1.87207 v 1.476563 h -1.87207 V 58 H 17.07666 v -3.09375 h -5.923828 v -1.713867 z"
   id="text43"
   class="key nubkey"
   style="font-size:18px;font-family:'DejaVu Sans';text-align:center;text-anchor:middle;fill:#111111;stroke-width:0.75"
   aria-label="4" />&#10;      <path
   d="m 12.506348,92.505859 h 2.90039 V 82.495117 L 12.251465,83.12793 V 81.510742 L 15.38916,80.87793 h 1.775391 v 11.627929 h 2.90039 V 94 h -7.558593 z"
   id="text44"
   class="key"
   style="font-size:18px;font-family:'DejaVu Sans';text-align:center;text-anchor:middle;fill:#111111;stroke-width:0.75"
   aria-label="1" />&#10;&#10;      <use
   x="10"
   y="65"
   xlink:href="#nub"
   id="use44" />&#10;    </g>&#10;&#10;    <!-- middle finger column -->&#10;    <g
   transform="translate(72,0)"
   id="g49">&#10;      <use
   xlink:href="#basekey"
   y="0"
   class="r3"
   id="use45" />&#10;      <use
   xlink:href="#basekey"
   y="36"
   class="r3"
   id="use46" />&#10;      <use
   xlink:href="#basekey"
   y="72"
   class="r3"
   id="use47" />&#10;&#10;      <path
   d="m 15.995605,15.768555 q -1.265625,0 -1.995117,0.676757 -0.720703,0.676758 -0.720703,1.863282 0,1.186523 0.720703,1.863281 0.729492,0.676758 1.995117,0.676758 1.265625,0 1.995118,-0.676758 0.729492,-0.685547 0.729492,-1.863281 0,-1.186524 -0.729492,-1.863282 -0.720703,-0.676757 -1.995118,-0.676757 z m -1.77539,-0.75586 q -1.142578,-0.28125 -1.78418,-1.063476 -0.632812,-0.782227 -0.632812,-1.907227 0,-1.573242 1.116211,-2.4873045 1.125,-0.9140625 3.076171,-0.9140625 1.959961,0 3.076172,0.9140625 1.116211,0.9140625 1.116211,2.4873045 0,1.125 -0.641601,1.907227 -0.632813,0.782226 -1.766602,1.063476 1.283203,0.298828 1.995117,1.168946 0.720703,0.870117 0.720703,2.126953 0,1.907226 -1.168945,2.926758 -1.160156,1.019531 -3.331055,1.019531 -2.170898,0 -3.339843,-1.019531 -1.160157,-1.019532 -1.160157,-2.926758 0,-1.256836 0.720704,-2.126953 0.720703,-0.870118 2.003906,-1.168946 z m -0.650391,-2.803711 q 0,1.019532 0.632813,1.590821 0.641601,0.571289 1.792968,0.571289 1.142579,0 1.78418,-0.571289 0.650391,-0.571289 0.650391,-1.590821 0,-1.019531 -0.650391,-1.59082 -0.641601,-0.571289 -1.78418,-0.571289 -1.151367,0 -1.792968,0.571289 -0.632813,0.571289 -0.632813,1.59082 z"
   id="text47"
   class="key"
   style="font-size:18px;font-family:'DejaVu Sans';text-align:center;text-anchor:middle;fill:#111111;stroke-width:0.75"
   aria-label="8" />&#10;      <path
   d="m 12.216309,44.87793 h 6.969726 v 1.49414 h -5.34375 v 3.216797 q 0.386719,-0.131836 0.773438,-0.193359 0.386718,-0.07031 0.773437,-0.07031 2.197266,0 3.480469,1.204102 1.283203,1.204101 1.283203,3.260742 0,2.118164 -1.318359,3.295898 -1.31836,1.168946 -3.717774,1.168946 -0.826172,0 -1.6875,-0.140625 -0.852539,-0.140625 -1.766601,-0.421875 v -1.78418 q 0.791015,0.430664 1.634765,0.641602 0.84375,0.210937 1.78418,0.210937 1.520508,0 2.408203,-0.799805 0.887695,-0.799804 0.887695,-2.170898 0,-1.371094 -0.887695,-2.170898 -0.887695,-0.799805 -2.408203,-0.799805 -0.711914,0 -1.423828,0.158203 -0.703125,0.158203 -1.441406,0.492188 z"
   id="text48"
   class="key"
   style="font-size:18px;font-family:'DejaVu Sans';text-align:center;text-anchor:middle;fill:#111111;stroke-width:0.75"
   aria-label="5" />&#10;      <path
   d="m 13.728027,92.505859 h 6.196289 V 94 h -8.332031 v -1.494141 q 1.010742,-1.045898 2.750977,-2.803711 1.749023,-1.766601 2.197265,-2.276367 0.852539,-0.958008 1.186524,-1.617187 0.342773,-0.667969 0.342773,-1.309571 0,-1.045898 -0.738281,-1.705078 -0.729492,-0.659179 -1.907227,-0.659179 -0.834961,0 -1.766601,0.290039 -0.922852,0.290039 -1.977539,0.878906 v -1.792969 q 1.072265,-0.430664 2.003906,-0.65039 0.931641,-0.219727 1.705078,-0.219727 2.039063,0 3.251953,1.019531 1.212891,1.019531 1.212891,2.72461 0,0.808593 -0.307617,1.538086 -0.298828,0.720703 -1.098633,1.705078 -0.219727,0.254882 -1.397461,1.476562 -1.177734,1.212891 -3.322266,3.401367 z"
   id="text49"
   class="key"
   style="font-size:18px;font-family:'DejaVu Sans';text-align:center;text-anchor:middle;fill:#111111;stroke-width:0.75"
   aria-label="2" />&#10;    </g>&#10;&#10;    <!-- ring finger colummn -->&#10;    <g
   transform="translate(108,0)"
   id="g53">&#10;      <use
   xlink:href="#basekey"
   y="0"
   class="r4"
   id="use49" />&#10;      <use
   xlink:href="#basekey"
   y="36"
   class="r4"
   id="use50" />&#10;      <use
   xlink:href="#basekey"
   y="72"
   class="r4"
   id="use51" />&#10;&#10;      <path
   d="m 12.251465,21.727539 v -1.617187 q 0.667969,0.316406 1.353515,0.483398 0.685547,0.166992 1.344727,0.166992 1.757813,0 2.680664,-1.177734 0.931641,-1.186524 1.063477,-3.594727 -0.509766,0.75586 -1.291993,1.160156 -0.782226,0.404297 -1.731445,0.404297 -1.96875,0 -3.120117,-1.186523 -1.142578,-1.195313 -1.142578,-3.260742 0,-2.021485 1.195312,-3.2431643 1.195313,-1.2216797 3.181641,-1.2216797 2.276367,0 3.47168,1.749023 1.204101,1.740235 1.204101,5.0625 0,3.102539 -1.476562,4.957032 -1.467774,1.845703 -3.955078,1.845703 -0.667969,0 -1.353516,-0.131836 -0.685547,-0.131836 -1.423828,-0.395508 z m 3.533203,-5.563477 q 1.195312,0 1.889648,-0.817382 0.703125,-0.817383 0.703125,-2.241211 0,-1.415039 -0.703125,-2.232422 -0.694336,-0.826172 -1.889648,-0.826172 -1.195313,0 -1.898438,0.826172 -0.694335,0.817383 -0.694335,2.232422 0,1.423828 0.694335,2.241211 0.703125,0.817382 1.898438,0.817382 z"
   id="text51"
   class="key"
   style="font-size:18px;font-family:'DejaVu Sans';text-align:center;text-anchor:middle;fill:#111111;stroke-width:0.75"
   aria-label="9" />&#10;      <path
   d="m 16.215332,50.731445 q -1.195312,0 -1.898437,0.817383 -0.694336,0.817383 -0.694336,2.241211 0,1.415039 0.694336,2.241211 0.703125,0.817383 1.898437,0.817383 1.195313,0 1.889648,-0.817383 0.703125,-0.826172 0.703125,-2.241211 0,-1.423828 -0.703125,-2.241211 -0.694335,-0.817383 -1.889648,-0.817383 z m 3.524414,-5.563476 v 1.617187 q -0.667969,-0.316406 -1.353516,-0.483398 -0.676757,-0.166992 -1.344726,-0.166992 -1.757813,0 -2.689453,1.186523 -0.922852,1.186523 -1.054688,3.585938 0.518555,-0.764649 1.300782,-1.168946 0.782226,-0.413086 1.722656,-0.413086 1.977539,0 3.120117,1.204102 1.151367,1.195312 1.151367,3.260742 0,2.021484 -1.195312,3.243164 -1.195313,1.22168 -3.181641,1.22168 -2.276367,0 -3.480469,-1.740235 -1.204101,-1.749023 -1.204101,-5.0625 0,-3.111328 1.476562,-4.957031 1.476563,-1.854492 3.963867,-1.854492 0.667969,0 1.344727,0.131836 0.685547,0.131836 1.423828,0.395508 z"
   id="text52"
   class="key"
   style="font-size:18px;font-family:'DejaVu Sans';text-align:center;text-anchor:middle;fill:#111111;stroke-width:0.75"
   aria-label="6" />&#10;      <path
   d="m 17.577637,86.924805 q 1.274414,0.272461 1.986328,1.133789 0.720703,0.861328 0.720703,2.126953 0,1.942383 -1.335938,3.005859 -1.335937,1.063477 -3.796875,1.063477 -0.826171,0 -1.705078,-0.166992 -0.870117,-0.158204 -1.801757,-0.483399 v -1.713867 q 0.738281,0.430664 1.617187,0.650391 0.878906,0.219726 1.836914,0.219726 1.669922,0 2.540039,-0.65918 0.878906,-0.659179 0.878906,-1.916015 0,-1.160156 -0.817382,-1.810547 -0.808594,-0.65918 -2.258789,-0.65918 h -1.529297 v -1.458984 h 1.599609 q 1.30957,0 2.003906,-0.518555 0.694336,-0.527344 0.694336,-1.511719 0,-1.010742 -0.720703,-1.546875 -0.711914,-0.544921 -2.047851,-0.544921 -0.729493,0 -1.564454,0.158203 -0.834961,0.158203 -1.836914,0.492187 v -1.582031 q 1.010743,-0.28125 1.889649,-0.421875 0.887695,-0.140625 1.669922,-0.140625 2.021484,0 3.199218,0.922852 1.177735,0.914062 1.177735,2.478515 0,1.089844 -0.624024,1.845703 -0.624023,0.747071 -1.77539,1.03711 z"
   id="text53"
   class="key"
   style="font-size:18px;font-family:'DejaVu Sans';text-align:center;text-anchor:middle;fill:#111111;stroke-width:0.75"
   aria-label="3" />&#10;    </g>&#10;&#10;&#10;    <!-- pinky finger column -->&#10;    <g
   transform="translate(144,0)"
   id="g57">&#10;      <use
   xlink:href="#basekey"
   y="0"
   class="r5"
   id="use53" />&#10;      <use
   xlink:href="#basekey"
   y="36"
   class="r5"
   id="use54" />&#10;      <use
   xlink:href="#basekey"
   y="72"
   class="r5"
   id="use55" />&#10;&#10;      <path
   d="m 16.738281,10.714844 v 4.895508 h 4.895508 v 1.49414 H 16.738281 V 22 h -1.476562 v -4.895508 h -4.895508 v -1.49414 h 4.895508 v -4.895508 z"
   id="text55"
   class="key"
   style="font-size:18px;font-family:'DejaVu Sans';text-align:center;text-anchor:middle;fill:#111111;stroke-width:0.75"
   aria-label="+" />&#10;      <path
   d="m 15.063965,55.767578 h 1.854492 V 58 h -1.854492 z"
   id="text56"
   class="key"
   style="font-size:18px;font-family:'DejaVu Sans';text-align:center;text-anchor:middle;fill:#111111;stroke-width:0.75"
   aria-label="." />&#10;      <path
   d="m 15.248535,91.767578 h 1.854492 v 1.511719 l -1.441406,2.8125 h -1.133789 l 0.720703,-2.8125 z"
   id="text57"
   class="key"
   style="font-size:18px;font-family:'DejaVu Sans';text-align:center;text-anchor:middle;fill:#111111;stroke-width:0.75"
   aria-label="," />&#10;    </g>&#10;&#10;&#10;    <!-- outer column -->&#10;    <g
   transform="translate(180,0)"
   id="g59">&#10;      <use
   xlink:href="#basekey"
   y="0"
   class="r5"
   id="use57" />&#10;      <use
   xlink:href="#basekey"
   y="36"
   class="key grey"
   id="m3r" />&#10;      <use
   xlink:href="#basekey"
   y="72"
   class="key grey"
   id="use58" />&#10;&#10;      <text
   x="16"
   y="22"
   class="key"
   id="text58" />&#10;      <path
   d="m 10.789063,50.167969 h 1.175781 l 1.488281,3.96875 1.496094,-3.96875 H 16.125 V 56 h -0.769531 v -5.121094 l -1.503906,4 h -0.792969 l -1.503906,-4 V 56 h -0.765625 z m 9.363281,2.6875 q 0.566406,0.121093 0.882812,0.503906 0.320313,0.382812 0.320313,0.945312 0,0.863282 -0.59375,1.335938 -0.59375,0.472656 -1.6875,0.472656 -0.367188,0 -0.757813,-0.07422 -0.386719,-0.07031 -0.800781,-0.214843 V 55.0625 q 0.328125,0.191406 0.71875,0.289062 0.390625,0.09766 0.816406,0.09766 0.742188,0 1.128906,-0.292969 0.390625,-0.292969 0.390625,-0.851563 0,-0.515625 -0.363281,-0.804687 -0.359375,-0.292969 -1.003906,-0.292969 h -0.679688 v -0.648437 h 0.710938 q 0.582031,0 0.890625,-0.230469 0.308594,-0.234375 0.308594,-0.671875 0,-0.449219 -0.320313,-0.6875 -0.316406,-0.242188 -0.910156,-0.242188 -0.324219,0 -0.695313,0.07031 -0.371093,0.07031 -0.816406,0.21875 V 50.3125 q 0.449219,-0.125 0.839844,-0.1875 0.394531,-0.0625 0.742187,-0.0625 0.898438,0 1.421875,0.410156 0.523438,0.40625 0.523438,1.101563 0,0.484375 -0.277344,0.820312 -0.277344,0.332031 -0.789062,0.460938 z"
   id="m3rtxt"
   class="mod"
   style="font-size:8px;font-family:'DejaVu Sans';text-align:center;text-anchor:middle;fill:#111111"
   aria-label="M3" />&#10;      <path
   d="m 6.8535156,86.167969 h 1.1757813 l 1.4882812,3.96875 1.4960939,-3.96875 h 1.175781 V 92 h -0.769531 v -5.121094 l -1.5039064,4 H 9.1230469 l -1.5039063,-4 V 92 h -0.765625 z m 10.6132814,3.464843 v 0.351563 h -3.304688 q 0.04687,0.742187 0.445313,1.132812 0.402344,0.386719 1.117187,0.386719 0.414063,0 0.800782,-0.101562 0.390625,-0.101563 0.773437,-0.304688 v 0.679688 q -0.386719,0.164062 -0.792969,0.25 -0.40625,0.08594 -0.824218,0.08594 -1.046875,0 -1.660157,-0.609375 -0.609375,-0.609375 -0.609375,-1.648437 0,-1.074219 0.578125,-1.703125 0.582032,-0.632813 1.566407,-0.632813 0.882812,0 1.394531,0.570313 0.515625,0.566406 0.515625,1.542968 z m -0.71875,-0.210937 q -0.0078,-0.589844 -0.332031,-0.941406 -0.320313,-0.351563 -0.851563,-0.351563 -0.601562,0 -0.964844,0.339844 -0.359375,0.339844 -0.414062,0.957031 z m 2.609375,-3.039063 V 87.625 h 1.480469 v 0.558594 h -1.480469 v 2.375 q 0,0.535156 0.144531,0.6875 0.148438,0.152343 0.597656,0.152343 h 0.738282 V 92 h -0.738282 q -0.832031,0 -1.148437,-0.308594 -0.316406,-0.3125 -0.316406,-1.132812 v -2.375 H 18.107422 V 87.625 h 0.527344 v -1.242188 z m 4.414062,3.417969 q -0.871093,0 -1.207031,0.199219 -0.335937,0.199219 -0.335937,0.679687 0,0.382813 0.25,0.609375 0.253906,0.222657 0.6875,0.222657 0.597656,0 0.957031,-0.421875 0.363281,-0.425782 0.363281,-1.128907 v -0.160156 z m 1.433594,-0.296875 V 92 h -0.71875 v -0.664063 q -0.246094,0.398438 -0.613281,0.589844 -0.367188,0.1875 -0.898438,0.1875 -0.671875,0 -1.070312,-0.375 -0.394531,-0.378906 -0.394531,-1.011719 0,-0.738281 0.492187,-1.113281 0.496094,-0.375 1.476563,-0.375 h 1.007812 v -0.07031 q 0,-0.496094 -0.328125,-0.765625 -0.324219,-0.273438 -0.914062,-0.273438 -0.375,0 -0.730469,0.08984 -0.355469,0.08984 -0.683594,0.269531 v -0.664062 q 0.394531,-0.152344 0.765625,-0.226563 0.371094,-0.07813 0.722656,-0.07813 0.949219,0 1.417969,0.492188 0.46875,0.492187 0.46875,1.492187 z"
   id="text59"
   class="mod"
   style="font-size:8px;font-family:'DejaVu Sans';text-align:center;text-anchor:middle;fill:#111111"
   aria-label="Meta" />&#10;    </g>&#10;  </g>&#10;</g>&#10;&#10;</svg>
