<?xml version="1.0" encoding="UTF-8" standalone="no"?>
<svg
   version="1.1"
   id="Ebene_1"
   height="183"
   width="535"
   viewBox="0 0 535 183"
   enable-background="new 0 0 535 183"
   xml:space="preserve"
   inkscape:export-xdpi="90"
   inkscape:export-ydpi="90"
   sodipodi:docname="noted-5-tkl.svg"
   xmlns:inkscape="http://www.inkscape.org/namespaces/inkscape"
   xmlns:sodipodi="http://sodipodi.sourceforge.net/DTD/sodipodi-0.dtd"
   xmlns:xlink="http://www.w3.org/1999/xlink"
   xmlns="http://www.w3.org/2000/svg"
   xmlns:svg="http://www.w3.org/2000/svg"
   xmlns:rdf="http://www.w3.org/1999/02/22-rdf-syntax-ns#"
   xmlns:cc="http://creativecommons.org/ns#"
   xmlns:dc="http://purl.org/dc/elements/1.1/">&#10;&#10;  <metadata
   id="metadata135">&#10;    <rdf:RDF>&#10;      <cc:Work
   rdf:about="">&#10;        <dc:format>image/svg+xml</dc:format>&#10;        <dc:type
   rdf:resource="http://purl.org/dc/dcmitype/StillImage" />&#10;        <dc:title />&#10;      </cc:Work>&#10;    </rdf:RDF>&#10;  </metadata>&#10;&#10;<defs
   id="defs">&#10;  <style
   type="text/css"
   id="style46661">&#10;  text.mod, text.key, text.dead {&#10;    fill:#111;&#10;    fill-opacity:1;&#10;      stroke:none;&#10;      font-style:normal;&#10;      font-variant:normal;&#10;      font-weight:normal;&#10;      font-stretch:normal;&#10;      display:inline;&#10;      font-family:DejaVu Sans;&#10;      writing-mode:lr-tb;&#10;  }&#10;&#10;  text.key {&#10;      font-family:DejaVu Sans;&#10;  }&#10;&#10;  text.dead {&#10;      font-family: Gentium Plus Compact;&#10;  }&#10;&#10;  text.space, text.dead, text.center, text.key, text.mod {&#10;      text-align:center;&#10;      text-anchor:middle;&#10;  }&#10;&#10;  text.key { font-size:18px; }&#10;  text.dead { font-size:18px; }&#10;  text.mod { font-size:8px; }&#10;  text.big { font-size:12px; }&#10;&#10;  .key {&#10;  stroke-width:0.75;&#10;  }&#10;&#10;  .grey { fill:#949494; stroke:#696969; }&#10;  .grey { fill:#9f9f9f; stroke:#747474; }&#10;&#10;  .numpad { fill:#afaa9f; stroke:#747474; }&#10;&#10;  /* bootstrap colors */&#10;  .l5, .r5 { fill:#93CCEA; }&#10;  .l4, .r4 { fill:#7abeb3; }&#10;  .l3, .r3 { fill:#63b280; }&#10;  .l2, .r2 { fill:#4aa44a; }&#10;  .l1, .r1 { fill:#4aa44a; }&#10;&#10;  /* btn bg hover, unused */&#10;  .l2, .r2 { stroke:#3071a9; }&#10;  .l3, .r3 { stroke:#449d44; }&#10;  .l4, .r4 { stroke:#c9302c; }&#10;  .l5, .r5 { stroke:#ec971f; }&#10;&#10;  /* btn border hover */&#10;  .l1, .r1 { stroke:#204d74; }&#10;  .l2, .r2 { stroke:#204d74; }&#10;  .l3, .r3 { stroke:#204d74; }&#10;  .l4, .r4 { stroke:#204d74; }&#10;  .l5, .r5 { stroke:#204d74; }&#10;&#10;  <!-- text.nubkey { fill:#eee; } -->&#10;&#10;  .pressed {&#10;    <!--opacity:0.5;-->&#10;    fill:#777;&#10;  }&#10;  </style>&#10;&#10;  <g
   id="basekey">&#10;    <rect
   width="32"
   height="32"
   rx="4"
   class="key"
   id="rect1" />&#10;  </g>&#10;&#10;  <g
   id="nub">&#10;    <!-- <rect width="14" height="1" rx="1" style="fill:#eee;" /> -->&#10;    <rect
   width="14"
   height="1"
   rx="1"
   style="fill:#111;"
   id="rect2" />&#10;  </g>&#10;&#10;</defs>&#10;<sodipodi:namedview
   pagecolor="#ffffff"
   bordercolor="#666666"
   borderopacity="1"
   objecttolerance="10"
   gridtolerance="10"
   guidetolerance="10"
   inkscape:pageopacity="0"
   inkscape:pageshadow="2"
   inkscape:window-width="1614"
   inkscape:window-height="969"
   id="base"
   showgrid="false"
   inkscape:zoom="0.70961538"
   inkscape:cx="685.32105"
   inkscape:cy="241.15395"
   inkscape:window-x="78"
   inkscape:window-y="71"
   inkscape:window-maximized="0"
   inkscape:current-layer="Ebene_1"
   inkscape:showpageshadow="2"
   inkscape:pagecheckerboard="0"
   inkscape:deskcolor="#d1d1d1" />&#10;&#10;<g
   transform="translate(3.5,3.5)"
   id="g61">&#10;&#10;  <g
   transform="translate(0, 0)"
   id="g31">&#10;&#10;    <!-- outer column -->&#10;    <g
   transform="translate(0, 0)"
   id="g4">&#10;      <use
   xlink:href="#basekey"
   y="0"
   class="l5"
   id="use2" />&#10;      <use
   xlink:href="#basekey"
   y="36"
   class="key grey pressed"
   id="m3l" />&#10;      <use
   xlink:href="#basekey"
   y="72"
   class="key grey"
   id="use3" />&#10;&#10;      <path
   d="m 18.799316,15.759766 h -5.598632 q 0.131836,2.627929 0.738281,3.74414 0.755859,1.371094 2.06543,1.371094 1.318359,0 2.047851,-1.379883 0.641602,-1.21289 0.74707,-3.735351 z m -0.02637,-1.494141 q -0.246094,-2.496094 -0.720703,-3.375 -0.755859,-1.3886719 -2.047851,-1.3886719 -1.344727,0 -2.056641,1.3710939 -0.5625,1.107422 -0.729492,3.392578 z M 16.004395,8.1835938 q 2.109375,0 3.313476,1.8632812 1.204102,1.854492 1.204102,5.141602 0,3.27832 -1.204102,5.141601 -1.204101,1.87207 -3.313476,1.87207 -2.118165,0 -3.313477,-1.87207 -1.204102,-1.863281 -1.204102,-5.141601 0,-3.28711 1.204102,-5.141602 1.195312,-1.8632812 3.313477,-1.8632812 z"
   id="text3"
   class="key"
   style="font-size:18px;font-family:'DejaVu Sans';text-align:center;text-anchor:middle;fill:#111111;stroke-width:0.75"
   aria-label="θ" />&#10;      <path
   d="m 10.789063,50.167969 h 1.175781 l 1.488281,3.96875 1.496094,-3.96875 H 16.125 V 56 h -0.769531 v -5.121094 l -1.503906,4 h -0.792969 l -1.503906,-4 V 56 h -0.765625 z m 9.363281,2.6875 q 0.566406,0.121093 0.882812,0.503906 0.320313,0.382812 0.320313,0.945312 0,0.863282 -0.59375,1.335938 -0.59375,0.472656 -1.6875,0.472656 -0.367188,0 -0.757813,-0.07422 -0.386719,-0.07031 -0.800781,-0.214843 V 55.0625 q 0.328125,0.191406 0.71875,0.289062 0.390625,0.09766 0.816406,0.09766 0.742188,0 1.128906,-0.292969 0.390625,-0.292969 0.390625,-0.851563 0,-0.515625 -0.363281,-0.804687 -0.359375,-0.292969 -1.003906,-0.292969 h -0.679688 v -0.648437 h 0.710938 q 0.582031,0 0.890625,-0.230469 0.308594,-0.234375 0.308594,-0.671875 0,-0.449219 -0.320313,-0.6875 -0.316406,-0.242188 -0.910156,-0.242188 -0.324219,0 -0.695313,0.07031 -0.371093,0.07031 -0.816406,0.21875 V 50.3125 q 0.449219,-0.125 0.839844,-0.1875 0.394531,-0.0625 0.742187,-0.0625 0.898438,0 1.421875,0.410156 0.523438,0.40625 0.523438,1.101563 0,0.484375 -0.277344,0.820312 -0.277344,0.332031 -0.789062,0.460938 z"
   id="m3ltxt"
   class="mod"
   style="font-size:8px;font-family:'DejaVu Sans';text-align:center;text-anchor:middle;fill:#111111"
   aria-label="M3" />&#10;      <path
   d="m 6.8535156,86.167969 h 1.1757813 l 1.4882812,3.96875 1.4960939,-3.96875 h 1.175781 V 92 h -0.769531 v -5.121094 l -1.5039064,4 H 9.1230469 l -1.5039063,-4 V 92 h -0.765625 z m 10.6132814,3.464843 v 0.351563 h -3.304688 q 0.04687,0.742187 0.445313,1.132812 0.402344,0.386719 1.117187,0.386719 0.414063,0 0.800782,-0.101562 0.390625,-0.101563 0.773437,-0.304688 v 0.679688 q -0.386719,0.164062 -0.792969,0.25 -0.40625,0.08594 -0.824218,0.08594 -1.046875,0 -1.660157,-0.609375 -0.609375,-0.609375 -0.609375,-1.648437 0,-1.074219 0.578125,-1.703125 0.582032,-0.632813 1.566407,-0.632813 0.882812,0 1.394531,0.570313 0.515625,0.566406 0.515625,1.542968 z m -0.71875,-0.210937 q -0.0078,-0.589844 -0.332031,-0.941406 -0.320313,-0.351563 -0.851563,-0.351563 -0.601562,0 -0.964844,0.339844 -0.359375,0.339844 -0.414062,0.957031 z m 2.609375,-3.039063 V 87.625 h 1.480469 v 0.558594 h -1.480469 v 2.375 q 0,0.535156 0.144531,0.6875 0.148438,0.152343 0.597656,0.152343 h 0.738282 V 92 h -0.738282 q -0.832031,0 -1.148437,-0.308594 -0.316406,-0.3125 -0.316406,-1.132812 v -2.375 H 18.107422 V 87.625 h 0.527344 v -1.242188 z m 4.414062,3.417969 q -0.871093,0 -1.207031,0.199219 -0.335937,0.199219 -0.335937,0.679687 0,0.382813 0.25,0.609375 0.253906,0.222657 0.6875,0.222657 0.597656,0 0.957031,-0.421875 0.363281,-0.425782 0.363281,-1.128907 v -0.160156 z m 1.433594,-0.296875 V 92 h -0.71875 v -0.664063 q -0.246094,0.398438 -0.613281,0.589844 -0.367188,0.1875 -0.898438,0.1875 -0.671875,0 -1.070312,-0.375 -0.394531,-0.378906 -0.394531,-1.011719 0,-0.738281 0.492187,-1.113281 0.496094,-0.375 1.476563,-0.375 h 1.007812 v -0.07031 q 0,-0.496094 -0.328125,-0.765625 -0.324219,-0.273438 -0.914062,-0.273438 -0.375,0 -0.730469,0.08984 -0.355469,0.08984 -0.683594,0.269531 v -0.664062 q 0.394531,-0.152344 0.765625,-0.226563 0.371094,-0.07813 0.722656,-0.07813 0.949219,0 1.417969,0.492188 0.46875,0.492187 0.46875,1.492187 z"
   id="text4"
   class="mod"
   style="font-size:8px;font-family:'DejaVu Sans';text-align:center;text-anchor:middle;fill:#111111"
   aria-label="Meta" />&#10;    </g>&#10;&#10;    <!-- pinky finger column -->&#10;    <g
   transform="translate(36, 0)"
   id="g8">&#10;      <use
   xlink:href="#basekey"
   y="0"
   class="l5"
   id="use4" />&#10;      <use
   xlink:href="#basekey"
   y="36"
   class="l5"
   id="use5" />&#10;      <use
   xlink:href="#basekey"
   y="72"
   class="l5"
   id="use6" />&#10;&#10;      <path
   d="m 17.379883,20.883789 q 1.160156,0.0088 1.854492,0.667969 0.738281,0.694336 0.738281,1.749023 0,1.010742 -0.65039,1.713867 -0.703125,0.764649 -2.135743,0.764649 0,-0.65918 0,-1.327149 0.606446,0.04395 0.975586,-0.342773 0.28125,-0.307617 0.28125,-0.632813 0,-0.46582 -0.28125,-0.852539 -0.272461,-0.36914 -0.782226,-0.36914 -5.326172,0 -5.334961,-4.948242 0,-4.324219 5.018555,-7.3564457 H 12.387695 V 8.3242188 h 7.646485 v 1.6259765 q -6.363282,3.1992187 -6.363282,7.3564457 0,3.577148 3.708985,3.577148 z"
   id="text6"
   class="key"
   style="font-size:18px;font-family:'DejaVu Sans';text-align:center;text-anchor:middle;fill:#111111;stroke-width:0.75"
   aria-label="ζ" />&#10;      <path
   d="m 17.234863,60.197266 -1.30957,-3.366211 -2.698242,4.921875 h -1.907227 l 3.814453,-6.960938 -1.599609,-4.139648 q -0.430664,-1.107422 -1.78418,-1.107422 H 11.319824 V 48.15625 l 0.615235,0.01758 q 2.267578,0.06152 2.838867,1.529297 l 1.300781,3.366211 2.698242,-4.921875 h 1.907227 l -3.814453,6.960937 1.599609,4.139649 q 0.430664,1.107422 1.78418,1.107422 h 0.430664 v 1.388672 l -0.615235,-0.01758 q -2.267578,-0.06152 -2.830078,-1.529296 z"
   id="text7"
   class="key"
   style="font-size:18px;font-family:'DejaVu Sans';text-align:center;text-anchor:middle;fill:#111111;stroke-width:0.75"
   aria-label="χ" />&#10;      <text
   x="16"
   y="94"
   class="key"
   id="text8" />&#10;    </g>&#10;&#10;    <!-- ring finger column -->&#10;    <g
   transform="translate(72, 0)"
   id="g12">&#10;      <use
   xlink:href="#basekey"
   y="0"
   class="l4"
   id="use8" />&#10;      <use
   xlink:href="#basekey"
   y="36"
   class="l4"
   id="use9" />&#10;      <use
   xlink:href="#basekey"
   y="72"
   class="l4"
   id="use10" />&#10;&#10;      <path
   d="m 13.763184,12.15625 v 6.37207 q 0,1.186524 0.439453,1.749024 0.483398,0.606445 1.423828,0.606445 1.318359,0 2.241211,-1.828125 0.518554,-1.037109 0.65039,-2.680664 0.07031,-0.896484 -0.193359,-2.021484 -0.246094,-1.045899 -1.177734,-2.197266 h 1.634765 v 0 q 0.615235,0.791016 1.010742,1.87207 0.369141,1.010743 0.369141,2.364258 0,2.223633 -1.125,3.867188 -1.371094,2.003906 -3.603516,1.995117 -1.573242,0 -2.460937,-1.054688 -0.861328,-1.037109 -0.861328,-2.768554 l -0.0088,-6.275391 z"
   id="text10"
   class="key"
   style="font-size:18px;font-family:'DejaVu Sans';text-align:center;text-anchor:middle;fill:#111111;stroke-width:0.75"
   aria-label="υ" />&#10;      <path
   d="m 15.806641,49.439453 q -1.335938,0 -2.056641,0.966797 -0.755859,1.010742 -0.755859,2.680664 0,1.766602 0.74707,2.786133 0.755859,1.010742 2.06543,1.010742 1.291992,0 2.047851,-1.019531 0.75586,-1.019531 0.75586,-2.777344 0,-1.608398 -0.75586,-2.680664 -0.694336,-0.966797 -2.047851,-0.966797 z m 0,-1.283203 h 5.370117 v 1.617187 h -1.810547 q 0.958008,1.371094 0.958008,3.313477 0,2.416992 -1.204102,3.788086 -1.204101,1.379883 -3.313476,1.379883 -2.118164,0 -3.313477,-1.379883 -1.204101,-1.371094 -1.204101,-3.788086 0,-2.43457 1.204101,-3.796875 0.993164,-1.133789 3.313477,-1.133789 z"
   id="text11"
   class="key"
   style="font-size:18px;font-family:'DejaVu Sans';text-align:center;text-anchor:middle;fill:#111111;stroke-width:0.75"
   aria-label="σ" />&#10;      <path
   d="m 17.397461,92.883789 q 1.160156,0.0088 1.854492,0.667969 0.738281,0.694336 0.738281,1.749023 0,1.010742 -0.65039,1.713867 -0.703125,0.764649 -2.135742,0.764649 0,-0.65918 0,-1.327149 0.606445,0.04395 0.975585,-0.342773 0.28125,-0.307617 0.28125,-0.632813 0,-0.46582 -0.28125,-0.852539 -0.27246,-0.36914 -0.782226,-0.36914 -5.475586,0 -5.475586,-3.840821 0,-2.636718 2.926758,-3.410156 -2.460938,-0.316406 -2.460938,-2.601562 0,-1.731446 1.933594,-2.452149 h -1.828125 v -1.625976 h 6.93457 v 1.625976 q -5.52832,0 -5.52832,2.557617 0,1.678711 4.640625,1.757813 v 1.494141 q -5.009766,-0.19336 -4.992187,2.654296 0.0088,2.381836 3.849609,2.469727 z"
   id="text12"
   class="key"
   style="font-size:18px;font-family:'DejaVu Sans';text-align:center;text-anchor:middle;fill:#111111;stroke-width:0.75"
   aria-label="ξ" />&#10;    </g>&#10;&#10;    <!-- middle finger column -->&#10;    <g
   transform="translate(108, 0)"
   id="g16">&#10;      <use
   xlink:href="#basekey"
   y="0"
   class="l3"
   id="use12" />&#10;      <use
   xlink:href="#basekey"
   y="36"
   class="l3"
   id="use13" />&#10;      <use
   xlink:href="#basekey"
   y="72"
   class="l3"
   id="use14" />&#10;&#10;      <text
   x="16"
   y="22"
   class="key"
   id="text14" />&#10;      <path
   d="m 16.074707,48.15625 v 6.37207 q 0,1.274414 0.298828,1.678711 0.316406,0.421875 1.265625,0.421875 h 0.782227 V 58 h -0.975586 q -1.582031,0 -2.302735,-0.84375 -0.720703,-0.861328 -0.720703,-2.724609 l -0.0088,-6.275391 z"
   id="text15"
   class="key"
   style="font-size:18px;font-family:'DejaVu Sans';text-align:center;text-anchor:middle;fill:#111111;stroke-width:0.75"
   aria-label="ι" />&#10;      <text
   x="16"
   y="94"
   class="key"
   id="text16" />&#10;    </g>&#10;&#10;    <!-- index finger column -->&#10;    <g
   transform="translate(144,0)"
   id="g20">&#10;      <use
   xlink:href="#basekey"
   y="0"
   class="l2"
   id="use16" />&#10;      <use
   xlink:href="#basekey"
   y="36"
   class="l2"
   id="use17" />&#10;      <use
   xlink:href="#basekey"
   y="72"
   class="l2"
   id="use18" />&#10;&#10;      <path
   d="m 17.50293,17.420898 -0.386719,-2.030273 q -0.395508,-2.083008 -1.959961,-2.083008 -1.177734,0 -1.713867,0.966797 -0.676758,1.212891 -0.676758,2.8125 0,1.933594 0.65918,2.856445 0.667968,0.94043 1.731445,0.94043 1.177734,0 1.810547,-1.87207 z m 0.905273,-2.689453 0.870117,-2.575195 h 1.441407 l -1.801758,5.334961 0.351562,1.924805 q 0.0791,0.430664 0.386719,0.791015 0.360352,0.421875 0.641602,0.421875 h 0.773437 V 22 h -0.966797 q -0.826172,0 -1.564453,-0.738281 -0.360352,-0.369141 -0.509766,-1.142578 -0.404296,0.975586 -1.230468,1.740234 -0.386719,0.360352 -1.643555,0.360352 -2.06543,0 -3.067383,-1.335938 -1.02832,-1.379883 -1.02832,-3.796875 0,-2.583984 1.116211,-3.796875 1.239258,-1.353516 2.979492,-1.353516 2.733398,0 3.251953,2.794922 z"
   id="text18"
   class="key"
   style="font-size:18px;font-family:'DejaVu Sans';text-align:center;text-anchor:middle;fill:#111111;stroke-width:0.75"
   aria-label="α" />&#10;      <path
   d="m 14.606934,52.691406 q -0.984375,-0.210937 -1.511719,-0.782226 -0.527344,-0.5625 -0.527344,-1.379883 0,-1.239258 1.001953,-1.933594 0.993164,-0.685547 2.715821,-0.685547 0.667968,0 1.415039,0.105469 0.74707,0.105469 1.608398,0.316406 v 1.467774 q -0.852539,-0.254883 -1.555664,-0.369141 -0.711914,-0.114258 -1.335938,-0.114258 -1.045898,0 -1.652343,0.404297 -0.615235,0.404297 -0.615235,0.966797 0,0.615234 0.597657,1.010742 0.588867,0.386719 1.608398,0.386719 h 1.362305 v 1.335937 H 16.41748 q -1.204101,0 -1.836914,0.448243 -0.685546,0.492187 -0.685546,1.265625 0,0.791015 0.738281,1.283203 0.74707,0.492187 2.074219,0.492187 0.817382,0 1.564453,-0.158203 0.74707,-0.166992 1.371093,-0.492187 v 1.502929 q -0.791015,0.246094 -1.529296,0.369141 -0.747071,0.123047 -1.450196,0.123047 -2.091797,0 -3.225586,-0.799805 -1.133789,-0.799805 -1.133789,-2.320312 0,-0.949219 0.606446,-1.590821 0.606445,-0.641601 1.696289,-0.852539 z"
   id="text19"
   class="key nubkey"
   style="font-size:18px;font-family:'DejaVu Sans';text-align:center;text-anchor:middle;fill:#111111;stroke-width:0.75"
   aria-label="ε" />&#10;      <path
   d="m 20.174805,88.058594 v 9.685547 h -1.617188 v -9.632813 q 0,-1.397461 -0.544922,-2.091797 -0.544922,-0.694336 -1.634765,-0.694336 -1.309571,0 -2.06543,0.834961 -0.755859,0.834961 -0.755859,2.276367 V 94 h -1.625977 v -9.84375 h 1.625977 v 1.529297 q 0.580078,-0.887695 1.362304,-1.327149 0.791016,-0.439453 1.819336,-0.439453 1.696289,0 2.566406,1.045899 0.870118,1.054687 0.870118,3.09375 z"
   id="text20"
   class="key"
   style="font-size:18px;font-family:'DejaVu Sans';text-align:center;text-anchor:middle;fill:#111111;stroke-width:0.75"
   aria-label="η" />&#10;&#10;      <use
   x="10"
   y="65"
   xlink:href="#nub"
   id="use20" />&#10;    </g>&#10;&#10;    <!-- inner column -->&#10;    <g
   transform="translate(180,0)"
   id="g25">&#10;      <use
   xlink:href="#basekey"
   y="0"
   class="l2"
   id="use21" />&#10;      <use
   xlink:href="#basekey"
   y="36"
   class="l2"
   id="use22" />&#10;      <use
   xlink:href="#basekey"
   y="72"
   class="l2"
   id="use23" />&#10;&#10;      <path
   d="m 16.777832,8.3242188 v 3.6298832 q 1.749023,0 2.917969,1.344726 1.204101,1.371094 1.204101,3.788086 0,2.416992 -1.204101,3.788086 -1.168946,1.344727 -2.917969,1.344727 v 3.524414 h -1.608398 v -3.524414 q -1.749024,0 -2.926758,-1.344727 -1.195313,-1.371094 -1.195313,-3.788086 0,-2.416992 1.195313,-3.788086 1.177734,-1.344726 2.926758,-1.344726 V 8.3242188 Z m 0,12.4541012 q 0.993164,0 1.669922,-0.905273 0.738281,-1.010742 0.74707,-2.786133 0.0088,-1.757812 -0.74707,-2.786133 -0.676758,-0.905273 -1.669922,-0.905273 z m -1.608398,0 v -7.382812 q -0.993164,0 -1.661133,0.905273 -0.764649,1.028321 -0.75586,2.786133 0.0088,1.775391 0.75586,2.786133 0.667969,0.905273 1.661133,0.905273 z"
   id="text23"
   class="key"
   style="font-size:18px;font-family:'DejaVu Sans';text-align:center;text-anchor:middle;fill:#111111;stroke-width:0.75"
   aria-label="ϕ" />&#10;      <path
   d="m 16.004395,49.290039 q -1.300782,0 -2.056641,1.019531 -0.755859,1.010742 -0.755859,2.777344 0,1.766602 0.74707,2.786133 0.755859,1.010742 2.06543,1.010742 1.291992,0 2.047851,-1.019531 0.755859,-1.019531 0.755859,-2.777344 0,-1.749023 -0.755859,-2.768555 -0.755859,-1.02832 -2.047851,-1.02832 z m 0,-1.371094 q 2.109375,0 3.313476,1.371094 1.204102,1.371094 1.204102,3.796875 0,2.416992 -1.204102,3.796875 -1.204101,1.371094 -3.313476,1.371094 -2.118165,0 -3.322266,-1.371094 -1.195313,-1.379883 -1.195313,-3.796875 0,-2.425781 1.195313,-3.796875 1.204101,-1.371094 3.322266,-1.371094 z"
   id="text24"
   class="key"
   style="font-size:18px;font-family:'DejaVu Sans';text-align:center;text-anchor:middle;fill:#111111;stroke-width:0.75"
   aria-label="ο" />&#10;      <path
   d="m 19.111328,85.720703 q -0.325195,-0.114258 -0.650391,-0.202148 -0.870117,-0.228516 -1.801757,-0.228516 -1.608399,0 -2.504883,0.870117 -0.834961,0.808594 -0.993164,2.293946 h 5.950195 v 1.265625 h -5.950195 q 0.158203,1.485351 0.993164,2.293945 0.896484,0.870117 2.504883,0.870117 1.125,0 1.801757,-0.228516 l 0.650391,-0.219726 v 1.467773 l -0.694336,0.158203 q -0.914062,0.19336 -1.854492,0.19336 -2.355469,0 -3.726562,-1.371094 -1.379883,-1.371094 -1.379883,-3.796875 0,-2.425781 1.379883,-3.796875 1.371093,-1.371094 3.726562,-1.371094 0.887695,0 1.854492,0.19336 0.351563,0.07031 0.694336,0.175781 z"
   id="text25"
   class="key"
   style="font-size:18px;font-family:'DejaVu Sans';text-align:center;text-anchor:middle;fill:#111111;stroke-width:0.75"
   aria-label="ϵ" />&#10;    </g>&#10;&#10;    <!-- thump cluster -->&#10;    <g
   transform="translate(144, 114)"
   id="g30">&#10;      <g
   transform="rotate(0)"
   id="g29">&#10;        <use
   xlink:href="#basekey"
   x="0"
   class="key grey"
   id="use25" />&#10;        <path
   d="m 10.789063,14.167969 h 1.175781 l 1.488281,3.96875 1.496094,-3.96875 H 16.125 V 20 h -0.769531 v -5.121094 l -1.503906,4 h -0.792969 l -1.503906,-4 V 20 h -0.765625 z m 9.140624,0.6875 -1.992187,3.113281 h 1.992187 z m -0.207031,-0.6875 h 0.992188 v 3.800781 h 0.832031 V 18.625 H 20.714844 V 20 h -0.785157 v -1.375 h -2.632812 v -0.761719 z"
   id="m4ltxt"
   class="mod"
   style="font-size:8px;font-family:'DejaVu Sans';text-align:center;text-anchor:middle;fill:#111111"
   aria-label="M4" />&#10;        <g
   transform="translate(36, 0) rotate(0)"
   id="g28">&#10;          <use
   xlink:href="#basekey"
   x="0"
   class="key grey pressed"
   id="use26" />&#10;          <path
   d="M 17.039062,15.5625 16,14.523438 14.960938,15.5625 h 0.511718 v 4.046875 h 1.054688 V 15.5625 Z M 14.015625,15.953125 16,13.96875 17.984375,15.953125 H 16.917969 V 20 h -1.835938 v -4.046875 z"
   id="shiftltxt"
   class="mod"
   style="font-size:8px;font-family:'DejaVu Sans';text-align:center;text-anchor:middle;fill:#111111"
   aria-label="⇧" />&#10;          <g
   transform="translate(36, 0) rotate(0)"
   id="g27">&#10;            <use
   xlink:href="#basekey"
   x="0"
   class="l1"
   id="use27" />&#10;            <path
   d="m 13.105469,17.160156 h 4.070312 l -0.914062,-0.914062 0.46875,-0.46875 1.539062,1.539062 v -1.5 h 0.664063 v 3.359375 h -0.664063 v -1.507812 l -1.539062,1.539062 -0.46875,-0.46875 0.914062,-0.914062 h -4.070312 z"
   id="text27"
   class="mod"
   style="font-size:8px;font-family:'DejaVu Sans';text-align:center;text-anchor:middle;fill:#111111"
   aria-label="⇥" />&#10;          </g>&#10;        </g>&#10;      </g>&#10;    </g>&#10;  </g>&#10;&#10;&#10;&#10;&#10;  <g
   transform="translate(310,0)"
   id="g60">&#10;&#10;    <!-- thumb-cluster -->&#10;    <g
   transform="translate(36, 114)"
   id="g36">&#10;      <g
   transform="rotate(0, 36, 0)"
   id="g35">&#10;        <use
   xlink:href="#basekey"
   x="0"
   class="key grey"
   id="use31" />&#10;        <path
   d="m 10.789063,14.167969 h 1.175781 l 1.488281,3.96875 1.496094,-3.96875 H 16.125 V 20 h -0.769531 v -5.121094 l -1.503906,4 h -0.792969 l -1.503906,-4 V 20 h -0.765625 z m 9.140624,0.6875 -1.992187,3.113281 h 1.992187 z m -0.207031,-0.6875 h 0.992188 v 3.800781 h 0.832031 V 18.625 H 20.714844 V 20 h -0.785157 v -1.375 h -2.632812 v -0.761719 z"
   id="m4rtxt"
   class="mod"
   style="font-size:8px;font-family:'DejaVu Sans';text-align:center;text-anchor:middle;fill:#111111"
   aria-label="M4" />&#10;        <g
   transform="translate(-36, 0) rotate(0, 36, 0)"
   id="g34">&#10;          <use
   xlink:href="#basekey"
   x="0"
   class="l1"
   id="use32" />&#10;          <path
   d="m 14.6875,21.15625 h 2.625 V 19.1875 h 0.65625 v 2.632812 h -3.9375 V 19.1875 h 0.65625 z"
   id="text32"
   class="mod space"
   style="font-size:8px;font-family:'DejaVu Sans';text-align:center;text-anchor:middle;fill:#111111"
   aria-label="␣" />&#10;          <g
   transform="translate(-36, 0) rotate(0, 36, 0)"
   id="g33">&#10;            <use
   xlink:href="#basekey"
   x="0"
   class="l1"
   id="use33" />&#10;            <path
   d="m 14.847656,19.476562 -1.984375,-1.984375 1.984375,-1.984374 v 1.066406 H 17.0625 v -2.40625 h 1.835937 l -0.0039,4.242187 h -4.046875 z m -0.390625,-2.511718 v -0.511719 l -1.039062,1.039062 1.039062,1.039063 v -0.511719 h 4.046875 l 0.0039,-3.460937 h -1.054687 l -0.0039,2.40625 z"
   id="returntxt"
   class="mod"
   style="font-size:8px;font-family:'DejaVu Sans';text-align:center;text-anchor:middle;fill:#111111"
   aria-label="⏎" />&#10;          </g>&#10;        </g>&#10;      </g>&#10;    </g>&#10;&#10;    <!-- inner column -->&#10;    <g
   transform="translate(0,0)"
   id="g40">&#10;      <use
   xlink:href="#basekey"
   y="0"
   class="l2"
   id="use36" />&#10;      <use
   xlink:href="#basekey"
   y="36"
   class="l2"
   id="use37" />&#10;      <use
   xlink:href="#basekey"
   y="72"
   class="l2"
   id="use38" />&#10;&#10;      <path
   d="m 11.231934,12.15625 h 9.430664 v 1.617188 H 19.42334 v 6.046874 q 0,0.632813 0.210937,0.914063 0.219727,0.272461 0.703125,0.272461 0.131836,0 0.325196,-0.01758 0.193359,-0.02637 0.254882,-0.03516 v 1.168945 q -0.307617,0.114258 -0.632812,0.166992 -0.325195,0.05273 -0.650391,0.05273 -1.054687,0 -1.458984,-0.571289 -0.404297,-0.580078 -0.404297,-2.126953 V 13.773438 H 14.141113 V 22 H 12.48877 v -8.226562 h -1.256836 z"
   id="text38"
   class="key"
   style="font-size:18px;font-family:'DejaVu Sans';text-align:center;text-anchor:middle;fill:#111111;stroke-width:0.75"
   aria-label="π" />&#10;      <path
   d="m 19.317871,46.600586 q -0.896484,-0.615234 -2.99707,-0.615234 -2.223633,0 -2.223633,1.02832 0,0.808594 2.320312,1.230469 1.828125,0.325195 2.856446,1.30957 1.248047,1.186523 1.248047,3.621094 0,2.329101 -1.204102,3.700195 -1.204101,1.379883 -3.313476,1.379883 -2.100586,0 -3.313477,-1.379883 -1.204102,-1.371094 -1.204102,-3.788086 0,-1.792969 1.204102,-3.243164 0.46582,-0.5625 1.125,-0.878906 -1.371094,-0.694336 -1.371094,-1.933594 0,-2.390625 3.875977,-2.390625 1.942383,0 2.99707,0.615234 z m -4.289062,2.803711 q -0.597657,0.254883 -1.081055,0.896484 -0.755859,0.993164 -0.755859,2.786133 0,1.78418 0.74707,2.786133 0.755859,1.010742 2.06543,1.010742 1.291992,0 2.047851,-1.019531 0.755859,-1.019531 0.755859,-2.689453 0,-1.749024 -0.799804,-2.592774 -0.852539,-0.905273 -1.959961,-1.001953 -0.5625,-0.05273 -1.019531,-0.175781 z"
   id="text39"
   class="key"
   style="font-size:18px;font-family:'DejaVu Sans';text-align:center;text-anchor:middle;fill:#111111;stroke-width:0.75"
   aria-label="δ" />&#10;      <path
   d="m 13.297363,94.254883 q -3.6474607,0 -3.6474607,-5.220703 0,-2.06543 1.3623047,-4.87793 h 1.740234 q -1.256836,2.8125 -1.256836,4.921875 0,3.805664 1.951172,3.805664 1.78418,0 1.78418,-4.728516 h 1.494141 q 0,4.728516 1.784179,4.728516 1.951172,0 1.951172,-3.805664 0,-2.109375 -1.256836,-4.921875 h 1.740235 q 1.362304,2.8125 1.362304,4.87793 0,5.220703 -3.647461,5.220703 -2.390625,0 -2.680664,-2.62793 -0.360351,2.62793 -2.680664,2.62793 z"
   id="text40"
   class="key"
   style="font-size:18px;font-family:'DejaVu Sans';text-align:center;text-anchor:middle;fill:#111111;stroke-width:0.75"
   aria-label="ω" />&#10;    </g>&#10;&#10;&#10;    <!-- index finger column -->&#10;    <g
   transform="translate(36,0)"
   id="g44">&#10;      <use
   xlink:href="#basekey"
   y="0"
   class="r2"
   id="use40" />&#10;      <use
   xlink:href="#basekey"
   y="36"
   class="r2"
   id="use41" />&#10;      <use
   xlink:href="#basekey"
   y="72"
   class="r2"
   id="use42" />&#10;&#10;      <path
   d="m 13.569824,21.393555 v 4.350586 H 11.943848 V 12.217773 q 0,-4.0078121 3.74414,-4.0078121 3.814453,0 3.814453,3.3837891 0,2.408203 -1.511718,3.287109 2.460937,0.791016 2.460937,3.137696 0,4.166015 -4.236328,4.166015 -1.863281,0 -2.645508,-0.791015 z m 0,-2.109375 q 0.975586,1.520507 2.707031,1.520507 2.53125,0 2.53125,-2.759765 0,-2.478516 -4.078125,-2.285156 v -1.494141 q 3.19043,0 3.19043,-2.8125 0,-1.9248047 -2.05664,-1.9248047 -2.293946,0 -2.293946,2.7421877 z"
   id="text42"
   class="key"
   style="font-size:18px;font-family:'DejaVu Sans';text-align:center;text-anchor:middle;fill:#111111;stroke-width:0.75"
   aria-label="β" />&#10;      <path
   d="m 17.103027,56.207031 q 0.316407,0.421875 1.265625,0.421875 h 0.782227 V 58 h -0.975586 q -1.582031,0 -2.302734,-0.84375 -0.720704,-0.861328 -0.720704,-2.724609 V 49.773437 H 11.460449 V 48.15625 h 9.079102 v 1.617187 h -3.735352 v 4.754883 q 0,1.274414 0.298828,1.678711 z"
   id="text43"
   class="key nubkey"
   style="font-size:18px;font-family:'DejaVu Sans';text-align:center;text-anchor:middle;fill:#111111;stroke-width:0.75"
   aria-label="τ" />&#10;      <path
   d="M 13.84668,85.703125 16,91.785156 19.076172,84.15625 h 1.713867 L 16.808594,94 v 3.744141 H 15.191406 V 94 l -2.583984,-7.347656 q -0.386719,-1.107422 -1.22168,-1.107422 H 10.955078 V 84.15625 h 0.615235 q 1.731445,0 2.276367,1.546875 z"
   id="text44"
   class="key"
   style="font-size:18px;font-family:'DejaVu Sans';text-align:center;text-anchor:middle;fill:#111111;stroke-width:0.75"
   aria-label="γ" />&#10;&#10;      <use
   x="10"
   y="65"
   xlink:href="#nub"
   id="use44" />&#10;    </g>&#10;&#10;    <!-- middle finger column -->&#10;    <g
   transform="translate(72,0)"
   id="g49">&#10;      <use
   xlink:href="#basekey"
   y="0"
   class="r3"
   id="use45" />&#10;      <use
   xlink:href="#basekey"
   y="36"
   class="r3"
   id="use46" />&#10;      <use
   xlink:href="#basekey"
   y="72"
   class="r3"
   id="use47" />&#10;&#10;      <path
   d="M 11.803223,25.744141 V 12.15625 h 1.617187 v 6.117187 q 0,1.274415 0.606445,1.924805 0.606446,0.650391 1.792969,0.650391 1.300781,0 1.951172,-0.738281 0.65918,-0.738282 0.65918,-2.214844 V 12.15625 h 1.617187 v 7.576172 q 0,0.527344 0.149414,0.782226 0.158203,0.246094 0.483399,0.246094 0.0791,0 0.219726,-0.04395 0.140625,-0.05273 0.386719,-0.158203 v 1.300781 q -0.360351,0.202148 -0.685547,0.298828 -0.316406,0.09668 -0.624023,0.09668 -0.606446,0 -0.966797,-0.342774 -0.360352,-0.342773 -0.492188,-1.045898 -0.439453,0.694336 -1.081054,1.045898 -0.632813,0.342774 -1.494141,0.342774 -0.896484,0 -1.529297,-0.342774 -0.624023,-0.342773 -0.993164,-1.02832 v 4.860352 z"
   id="text47"
   class="key"
   style="font-size:18px;font-family:'DejaVu Sans';text-align:center;text-anchor:middle;fill:#111111;stroke-width:0.75"
   aria-label="μ" />&#10;      <path
   d="m 14.628906,58 -3.005859,-9.84375 h 1.740234 l 2.540039,8.261719 q 1.054688,-1.089844 1.933594,-2.601563 0.667969,-1.133789 0.703125,-2.118164 0.01758,-0.46582 -0.193359,-1.344726 -0.246094,-1.045899 -1.177735,-2.197266 h 1.634766 v 0 q 0.606445,0.782227 1.010742,1.87207 0.369141,1.001953 0.369141,1.6875 0,1.722657 -1.195313,3.260742 Q 17.432617,56.980469 16.351562,58 Z"
   id="text48"
   class="key"
   style="font-size:18px;font-family:'DejaVu Sans';text-align:center;text-anchor:middle;fill:#111111;stroke-width:0.75"
   aria-label="ν" />&#10;      <path
   d="m 11.921875,89.174805 q 0,-1.828125 0.791016,-3.260743 0.474609,-0.861328 1.863281,-1.6875 0.518555,-0.307617 2.118164,-0.307617 1.792969,0 2.90918,1.423828 1.125,1.423829 1.125,3.744141 0,2.320313 -1.125,3.744141 -1.116211,1.423828 -2.90918,1.423828 -1.054688,0 -1.854492,-0.430664 Q 14.057617,93.402344 13.547852,92.523437 13.591797,96.25 16.123047,96.25 h 4.394531 v 1.494141 h -4.253906 q -4.341797,0 -4.341797,-6.416016 z m 6.398437,2.71582 q 0.729493,-1.019531 0.729493,-2.803711 0,-1.78418 -0.729493,-2.803711 -0.738281,-1.010742 -2.021484,-1.010742 -1.283203,0 -2.021484,1.010742 -0.729492,1.019531 -0.729492,2.803711 0,1.78418 0.729492,2.803711 0.738281,1.010742 2.021484,1.010742 1.283203,0 2.021484,-1.010742 z"
   id="text49"
   class="key"
   style="font-size:18px;font-family:'DejaVu Sans';text-align:center;text-anchor:middle;fill:#111111;stroke-width:0.75"
   aria-label="ϱ" />&#10;    </g>&#10;&#10;    <!-- ring finger colummn -->&#10;    <g
   transform="translate(108,0)"
   id="g53">&#10;      <use
   xlink:href="#basekey"
   y="0"
   class="r4"
   id="use49" />&#10;      <use
   xlink:href="#basekey"
   y="36"
   class="r4"
   id="use50" />&#10;      <use
   xlink:href="#basekey"
   y="72"
   class="r4"
   id="use51" />&#10;&#10;      <path
   d="M 16.246094,9.8623047 20.790039,22 H 19.076172 L 16.316406,14.722656 12.923828,22 H 11.209961 L 15.525391,12.560547 14.875,10.820313 Q 14.461914,9.7128906 13.521484,9.7128906 h -0.84375 V 8.3242188 l 1.028321,0.017578 q 1.986328,0.026367 2.540039,1.5205078 z"
   id="text51"
   class="key"
   style="font-size:18px;font-family:'DejaVu Sans';text-align:center;text-anchor:middle;fill:#111111;stroke-width:0.75"
   aria-label="λ" />&#10;      <path
   d="m 12.712891,49.914062 q 0.536132,-0.896484 1.863281,-1.6875 0.518555,-0.307617 2.118164,-0.307617 1.792969,0 2.90918,1.423828 1.125,1.423829 1.125,3.744141 0,2.320313 -1.125,3.744141 -1.116211,1.423828 -2.90918,1.423828 -1.081055,0 -1.863281,-0.421875 -0.773438,-0.430664 -1.283203,-1.309571 v 5.220704 h -1.625977 v -8.569336 q 0,-2.030274 0.791016,-3.260743 z m 6.336914,3.172852 q 0,-1.78418 -0.738282,-2.794922 -0.729492,-1.019531 -2.012695,-1.019531 -1.283203,0 -2.021484,1.019531 -0.729492,1.010742 -0.729492,2.794922 0,1.78418 0.729492,2.803711 0.738281,1.010742 2.021484,1.010742 1.283203,0 2.012695,-1.010742 0.738282,-1.019531 0.738282,-2.803711 z"
   id="text52"
   class="key"
   style="font-size:18px;font-family:'DejaVu Sans';text-align:center;text-anchor:middle;fill:#111111;stroke-width:0.75"
   aria-label="ρ" />&#10;      <path
   d="m 18.707031,86.265625 q 0,-2.162109 -0.430664,-3.269531 -0.580078,-1.494141 -1.889648,-1.494141 -0.729492,0 -1.256836,0.606445 -0.527344,0.597657 -0.527344,1.388672 0,1.494141 1.063477,2.285157 0.65039,0.483398 3.041015,0.483398 z m 0.02637,1.494141 q -2.707031,0 -3.858398,-0.571289 -1.854492,-0.922852 -1.854492,-3.647461 0,-1.40625 0.914062,-2.381836 0.914063,-0.975586 2.452149,-0.975586 1.916015,0 2.988281,1.810547 1.081055,1.810546 1.081055,5.203125 0,3.392578 -1.248047,5.203125 -1.248047,1.801757 -3.348633,1.801757 -2.091797,0 -3.269531,-1.924804 -1.168946,-1.924805 -1.168946,-6.020508 l 1.652344,0.0088 v 1.40625 q 0,2.364258 0.773438,3.788086 0.773437,1.415039 2.100586,1.415039 1.335937,0 2.05664,-1.415039 0.729492,-1.415039 0.729492,-3.700195 z"
   id="text53"
   class="key"
   style="font-size:18px;font-family:'DejaVu Sans';text-align:center;text-anchor:middle;fill:#111111;stroke-width:0.75"
   aria-label="ϑ" />&#10;    </g>&#10;&#10;&#10;    <!-- pinky finger column -->&#10;    <g
   transform="translate(144,0)"
   id="g57">&#10;      <use
   xlink:href="#basekey"
   y="0"
   class="r5"
   id="use53" />&#10;      <use
   xlink:href="#basekey"
   y="36"
   class="r5"
   id="use54" />&#10;      <use
   xlink:href="#basekey"
   y="72"
   class="r5"
   id="use55" />&#10;&#10;      <path
   d="m 17.349121,13.46582 q -0.571289,0 -0.571289,1.274414 v 6.029297 q 0.834961,0 1.669922,-0.914062 0.74707,-0.817383 0.74707,-2.777344 0,-1.828125 -0.755859,-2.8125 Q 17.82373,13.46582 17.349121,13.46582 Z m 0,-1.379882 q 1.230469,0 2.34668,1.160156 1.204101,1.239258 1.204101,3.832031 0,2.381836 -1.204101,3.796875 -1.133789,1.335937 -2.917969,1.335937 v 3.533204 h -1.608398 v -3.524414 q -1.749024,0 -2.926758,-1.344727 -1.195313,-1.371094 -1.195313,-3.788086 0,-2.513672 1.195313,-3.796875 0.896484,-0.958008 2.355469,-1.204101 v 1.432617 q -0.580079,0.202148 -1.089844,0.887695 -0.75586,1.010742 -0.75586,2.680664 0,1.775391 0.75586,2.786133 0.676758,0.905273 1.661133,0.905273 v -6.038086 q 0,-2.654296 2.179687,-2.654296 z"
   id="text55"
   class="key"
   style="font-size:18px;font-family:'DejaVu Sans';text-align:center;text-anchor:middle;fill:#111111;stroke-width:0.75"
   aria-label="φ" />&#10;      <path
   d="M 15.169434,58.219727 Q 13.13916,57.894531 12.19873,57.041992 11.047363,55.996094 11.047363,53.860352 V 48.15625 h 1.634766 v 5.642578 q 0,1.608399 0.74707,2.276367 0.650391,0.580078 1.740235,0.703125 v -8.62207 h 1.608398 v 8.613281 q 1.151367,-0.123047 1.740234,-0.703125 0.747071,-0.738281 0.747071,-2.276367 V 48.15625 h 1.634765 v 5.695312 q 0,2.214844 -1.151367,3.181641 -1.037109,0.870117 -2.970703,1.177734 v 3.533204 h -1.608398 z"
   id="text56"
   class="key"
   style="font-size:18px;font-family:'DejaVu Sans';text-align:center;text-anchor:middle;fill:#111111;stroke-width:0.75"
   aria-label="ψ" />&#10;      <path
   d="m 12.374512,84.15625 h 1.669922 v 4.086914 l 4.245117,-4.086914 h 1.96875 L 16.382324,87.865234 20.864746,94 h -1.977539 l -3.638672,-5.080078 -1.204101,1.133789 V 94 h -1.669922 z"
   id="text57"
   class="key"
   style="font-size:18px;font-family:'DejaVu Sans';text-align:center;text-anchor:middle;fill:#111111;stroke-width:0.75"
   aria-label="κ" />&#10;    </g>&#10;&#10;&#10;    <!-- outer column -->&#10;    <g
   transform="translate(180,0)"
   id="g59">&#10;      <use
   xlink:href="#basekey"
   y="0"
   class="r5"
   id="use57" />&#10;      <use
   xlink:href="#basekey"
   y="36"
   class="key grey pressed"
   id="m3r" />&#10;      <use
   xlink:href="#basekey"
   y="72"
   class="key grey"
   id="use58" />&#10;&#10;      <path
   d="m 16.694336,22.254883 q -2.364258,0 -3.673828,-1.397461 -1.30957,-1.397461 -1.30957,-3.770508 0,-2.408203 1.318359,-3.788086 1.327148,-1.379883 3.629883,-1.379883 0.74707,0 1.458984,0.158203 0.711914,0.149415 1.379883,0.457032 v 1.511718 q -0.685547,-0.377929 -1.379883,-0.5625 -0.685547,-0.193359 -1.388672,-0.193359 -1.573242,0 -2.443359,1.001953 -0.870117,0.993164 -0.870117,2.794922 0,1.801758 0.870117,2.803711 0.870117,0.993164 2.408203,0.993164 1.151367,0 1.854492,0.667969 0.738281,0.694336 0.738281,1.749023 0,1.010742 -0.65039,1.713867 -0.703125,0.764649 -2.135742,0.764649 0,-0.65918 0,-1.327149 0.606445,0.04395 0.975585,-0.342773 0.28125,-0.307617 0.28125,-0.632813 0,-0.46582 -0.28125,-0.852539 -0.27246,-0.36914 -0.782226,-0.36914 z"
   id="text58"
   class="key"
   style="font-size:18px;font-family:'DejaVu Sans';text-align:center;text-anchor:middle;fill:#111111;stroke-width:0.75"
   aria-label="ς" />&#10;      <path
   d="m 10.789063,50.167969 h 1.175781 l 1.488281,3.96875 1.496094,-3.96875 H 16.125 V 56 h -0.769531 v -5.121094 l -1.503906,4 h -0.792969 l -1.503906,-4 V 56 h -0.765625 z m 9.363281,2.6875 q 0.566406,0.121093 0.882812,0.503906 0.320313,0.382812 0.320313,0.945312 0,0.863282 -0.59375,1.335938 -0.59375,0.472656 -1.6875,0.472656 -0.367188,0 -0.757813,-0.07422 -0.386719,-0.07031 -0.800781,-0.214843 V 55.0625 q 0.328125,0.191406 0.71875,0.289062 0.390625,0.09766 0.816406,0.09766 0.742188,0 1.128906,-0.292969 0.390625,-0.292969 0.390625,-0.851563 0,-0.515625 -0.363281,-0.804687 -0.359375,-0.292969 -1.003906,-0.292969 h -0.679688 v -0.648437 h 0.710938 q 0.582031,0 0.890625,-0.230469 0.308594,-0.234375 0.308594,-0.671875 0,-0.449219 -0.320313,-0.6875 -0.316406,-0.242188 -0.910156,-0.242188 -0.324219,0 -0.695313,0.07031 -0.371093,0.07031 -0.816406,0.21875 V 50.3125 q 0.449219,-0.125 0.839844,-0.1875 0.394531,-0.0625 0.742187,-0.0625 0.898438,0 1.421875,0.410156 0.523438,0.40625 0.523438,1.101563 0,0.484375 -0.277344,0.820312 -0.277344,0.332031 -0.789062,0.460938 z"
   id="m3rtxt"
   class="mod"
   style="font-size:8px;font-family:'DejaVu Sans';text-align:center;text-anchor:middle;fill:#111111"
   aria-label="M3" />&#10;      <path
   d="m 6.8535156,86.167969 h 1.1757813 l 1.4882812,3.96875 1.4960939,-3.96875 h 1.175781 V 92 h -0.769531 v -5.121094 l -1.5039064,4 H 9.1230469 l -1.5039063,-4 V 92 h -0.765625 z m 10.6132814,3.464843 v 0.351563 h -3.304688 q 0.04687,0.742187 0.445313,1.132812 0.402344,0.386719 1.117187,0.386719 0.414063,0 0.800782,-0.101562 0.390625,-0.101563 0.773437,-0.304688 v 0.679688 q -0.386719,0.164062 -0.792969,0.25 -0.40625,0.08594 -0.824218,0.08594 -1.046875,0 -1.660157,-0.609375 -0.609375,-0.609375 -0.609375,-1.648437 0,-1.074219 0.578125,-1.703125 0.582032,-0.632813 1.566407,-0.632813 0.882812,0 1.394531,0.570313 0.515625,0.566406 0.515625,1.542968 z m -0.71875,-0.210937 q -0.0078,-0.589844 -0.332031,-0.941406 -0.320313,-0.351563 -0.851563,-0.351563 -0.601562,0 -0.964844,0.339844 -0.359375,0.339844 -0.414062,0.957031 z m 2.609375,-3.039063 V 87.625 h 1.480469 v 0.558594 h -1.480469 v 2.375 q 0,0.535156 0.144531,0.6875 0.148438,0.152343 0.597656,0.152343 h 0.738282 V 92 h -0.738282 q -0.832031,0 -1.148437,-0.308594 -0.316406,-0.3125 -0.316406,-1.132812 v -2.375 H 18.107422 V 87.625 h 0.527344 v -1.242188 z m 4.414062,3.417969 q -0.871093,0 -1.207031,0.199219 -0.335937,0.199219 -0.335937,0.679687 0,0.382813 0.25,0.609375 0.253906,0.222657 0.6875,0.222657 0.597656,0 0.957031,-0.421875 0.363281,-0.425782 0.363281,-1.128907 v -0.160156 z m 1.433594,-0.296875 V 92 h -0.71875 v -0.664063 q -0.246094,0.398438 -0.613281,0.589844 -0.367188,0.1875 -0.898438,0.1875 -0.671875,0 -1.070312,-0.375 -0.394531,-0.378906 -0.394531,-1.011719 0,-0.738281 0.492187,-1.113281 0.496094,-0.375 1.476563,-0.375 h 1.007812 v -0.07031 q 0,-0.496094 -0.328125,-0.765625 -0.324219,-0.273438 -0.914062,-0.273438 -0.375,0 -0.730469,0.08984 -0.355469,0.08984 -0.683594,0.269531 v -0.664062 q 0.394531,-0.152344 0.765625,-0.226563 0.371094,-0.07813 0.722656,-0.07813 0.949219,0 1.417969,0.492188 0.46875,0.492187 0.46875,1.492187 z"
   id="text59"
   class="mod"
   style="font-size:8px;font-family:'DejaVu Sans';text-align:center;text-anchor:middle;fill:#111111"
   aria-label="Meta" />&#10;    </g>&#10;  </g>&#10;</g>&#10;&#10;</svg>
