<?xml version="1.0" encoding="UTF-8" standalone="no"?>
<svg
   version="1.1"
   id="Ebene_1"
   height="183"
   width="535"
   viewBox="0 0 535 183"
   enable-background="new 0 0 535 183"
   xml:space="preserve"
   inkscape:export-xdpi="90"
   inkscape:export-ydpi="90"
   sodipodi:docname="noted-6-tkl.svg"
   xmlns:inkscape="http://www.inkscape.org/namespaces/inkscape"
   xmlns:sodipodi="http://sodipodi.sourceforge.net/DTD/sodipodi-0.dtd"
   xmlns:xlink="http://www.w3.org/1999/xlink"
   xmlns="http://www.w3.org/2000/svg"
   xmlns:svg="http://www.w3.org/2000/svg"
   xmlns:rdf="http://www.w3.org/1999/02/22-rdf-syntax-ns#"
   xmlns:cc="http://creativecommons.org/ns#"
   xmlns:dc="http://purl.org/dc/elements/1.1/">&#10;&#10;  <metadata
   id="metadata135">&#10;    <rdf:RDF>&#10;      <cc:Work
   rdf:about="">&#10;        <dc:format>image/svg+xml</dc:format>&#10;        <dc:type
   rdf:resource="http://purl.org/dc/dcmitype/StillImage" />&#10;        <dc:title />&#10;      </cc:Work>&#10;    </rdf:RDF>&#10;  </metadata>&#10;&#10;<defs
   id="defs">&#10;  <style
   type="text/css"
   id="style46661">&#10;  text.mod, text.key, text.dead {&#10;    fill:#111;&#10;    fill-opacity:1;&#10;      stroke:none;&#10;      font-style:normal;&#10;      font-variant:normal;&#10;      font-weight:normal;&#10;      font-stretch:normal;&#10;      display:inline;&#10;      font-family:DejaVu Sans;&#10;      writing-mode:lr-tb;&#10;  }&#10;&#10;  text.key {&#10;      font-family:DejaVu Sans;&#10;  }&#10;&#10;  text.dead {&#10;      font-family: Gentium Plus Compact;&#10;  }&#10;&#10;  text.space, text.dead, text.center, text.key, text.mod {&#10;      text-align:center;&#10;      text-anchor:middle;&#10;  }&#10;&#10;  text.key { font-size:18px; }&#10;  text.dead { font-size:18px; }&#10;  text.mod { font-size:8px; }&#10;  text.big { font-size:12px; }&#10;&#10;  .key {&#10;  stroke-width:0.75;&#10;  }&#10;&#10;  .grey { fill:#949494; stroke:#696969; }&#10;  .grey { fill:#9f9f9f; stroke:#747474; }&#10;&#10;  .numpad { fill:#afaa9f; stroke:#747474; }&#10;&#10;  /* bootstrap colors */&#10;  .l5, .r5 { fill:#93CCEA; }&#10;  .l4, .r4 { fill:#7abeb3; }&#10;  .l3, .r3 { fill:#63b280; }&#10;  .l2, .r2 { fill:#4aa44a; }&#10;  .l1, .r1 { fill:#4aa44a; }&#10;&#10;  /* btn bg hover, unused */&#10;  .l2, .r2 { stroke:#3071a9; }&#10;  .l3, .r3 { stroke:#449d44; }&#10;  .l4, .r4 { stroke:#c9302c; }&#10;  .l5, .r5 { stroke:#ec971f; }&#10;&#10;  /* btn border hover */&#10;  .l1, .r1 { stroke:#204d74; }&#10;  .l2, .r2 { stroke:#204d74; }&#10;  .l3, .r3 { stroke:#204d74; }&#10;  .l4, .r4 { stroke:#204d74; }&#10;  .l5, .r5 { stroke:#204d74; }&#10;&#10;  <!-- text.nubkey { fill:#eee; } -->&#10;&#10;  .pressed {&#10;    <!--opacity:0.5;-->&#10;    fill:#777;&#10;  }&#10;  </style>&#10;&#10;  <g
   id="basekey">&#10;    <rect
   width="32"
   height="32"
   rx="4"
   class="key"
   id="rect1" />&#10;  </g>&#10;&#10;  <g
   id="nub">&#10;    <!-- <rect width="14" height="1" rx="1" style="fill:#eee;" /> -->&#10;    <rect
   width="14"
   height="1"
   rx="1"
   style="fill:#111;"
   id="rect2" />&#10;  </g>&#10;&#10;</defs>&#10;<sodipodi:namedview
   pagecolor="#ffffff"
   bordercolor="#666666"
   borderopacity="1"
   objecttolerance="10"
   gridtolerance="10"
   guidetolerance="10"
   inkscape:pageopacity="0"
   inkscape:pageshadow="2"
   inkscape:window-width="1614"
   inkscape:window-height="969"
   id="base"
   showgrid="false"
   inkscape:zoom="0.70961538"
   inkscape:cx="685.32105"
   inkscape:cy="241.15395"
   inkscape:window-x="78"
   inkscape:window-y="71"
   inkscape:window-maximized="0"
   inkscape:current-layer="Ebene_1"
   inkscape:showpageshadow="2"
   inkscape:pagecheckerboard="0"
   inkscape:deskcolor="#d1d1d1" />&#10;&#10;<g
   transform="translate(3.5,3.5)"
   id="g61">&#10;&#10;  <g
   transform="translate(0, 0)"
   id="g31">&#10;&#10;    <!-- outer column -->&#10;    <g
   transform="translate(0, 0)"
   id="g4">&#10;      <use
   xlink:href="#basekey"
   y="0"
   class="l5"
   id="use2" />&#10;      <use
   xlink:href="#basekey"
   y="36"
   class="key grey pressed"
   id="m3l" />&#10;      <use
   xlink:href="#basekey"
   y="72"
   class="key grey"
   id="use3" />&#10;&#10;      <path
   d="m 12.897461,14.265625 h 6.205078 v 1.494141 h -6.205078 z m 3.111328,-4.183594 q -1.933594,0 -3.067383,1.441407 -1.142578,1.441406 -1.142578,3.92871 0,2.478516 1.133789,3.919922 1.142578,1.441407 3.076172,1.441407 1.933594,0 3.067383,-1.441407 1.125,-1.441406 1.125,-3.919922 0,-2.487304 -1.125,-3.92871 -1.133789,-1.441407 -3.067383,-1.441407 z m 0,-1.441406 q 2.759766,0 4.412109,1.854492 1.652344,1.845703 1.652344,4.957031 0,3.102539 -1.652344,4.948243 -1.652343,1.854492 -4.412109,1.854492 -2.768555,0 -4.420898,-1.845703 -1.6611332,-1.845703 -1.6611332,-4.957032 0,-3.111328 1.6611332,-4.96582 1.652343,-1.845703 4.420898,-1.845703 z"
   id="text3"
   class="key"
   style="font-size:18px;font-family:'DejaVu Sans';text-align:center;text-anchor:middle;fill:#111111;stroke-width:0.75"
   aria-label="Θ" />&#10;      <path
   d="m 10.789063,50.167969 h 1.175781 l 1.488281,3.96875 1.496094,-3.96875 H 16.125 V 56 h -0.769531 v -5.121094 l -1.503906,4 h -0.792969 l -1.503906,-4 V 56 h -0.765625 z m 9.363281,2.6875 q 0.566406,0.121093 0.882812,0.503906 0.320313,0.382812 0.320313,0.945312 0,0.863282 -0.59375,1.335938 -0.59375,0.472656 -1.6875,0.472656 -0.367188,0 -0.757813,-0.07422 -0.386719,-0.07031 -0.800781,-0.214843 V 55.0625 q 0.328125,0.191406 0.71875,0.289062 0.390625,0.09766 0.816406,0.09766 0.742188,0 1.128906,-0.292969 0.390625,-0.292969 0.390625,-0.851563 0,-0.515625 -0.363281,-0.804687 -0.359375,-0.292969 -1.003906,-0.292969 h -0.679688 v -0.648437 h 0.710938 q 0.582031,0 0.890625,-0.230469 0.308594,-0.234375 0.308594,-0.671875 0,-0.449219 -0.320313,-0.6875 -0.316406,-0.242188 -0.910156,-0.242188 -0.324219,0 -0.695313,0.07031 -0.371093,0.07031 -0.816406,0.21875 V 50.3125 q 0.449219,-0.125 0.839844,-0.1875 0.394531,-0.0625 0.742187,-0.0625 0.898438,0 1.421875,0.410156 0.523438,0.40625 0.523438,1.101563 0,0.484375 -0.277344,0.820312 -0.277344,0.332031 -0.789062,0.460938 z"
   id="m3ltxt"
   class="mod"
   style="font-size:8px;font-family:'DejaVu Sans';text-align:center;text-anchor:middle;fill:#111111"
   aria-label="M3" />&#10;      <path
   d="m 6.8535156,86.167969 h 1.1757813 l 1.4882812,3.96875 1.4960939,-3.96875 h 1.175781 V 92 h -0.769531 v -5.121094 l -1.5039064,4 H 9.1230469 l -1.5039063,-4 V 92 h -0.765625 z m 10.6132814,3.464843 v 0.351563 h -3.304688 q 0.04687,0.742187 0.445313,1.132812 0.402344,0.386719 1.117187,0.386719 0.414063,0 0.800782,-0.101562 0.390625,-0.101563 0.773437,-0.304688 v 0.679688 q -0.386719,0.164062 -0.792969,0.25 -0.40625,0.08594 -0.824218,0.08594 -1.046875,0 -1.660157,-0.609375 -0.609375,-0.609375 -0.609375,-1.648437 0,-1.074219 0.578125,-1.703125 0.582032,-0.632813 1.566407,-0.632813 0.882812,0 1.394531,0.570313 0.515625,0.566406 0.515625,1.542968 z m -0.71875,-0.210937 q -0.0078,-0.589844 -0.332031,-0.941406 -0.320313,-0.351563 -0.851563,-0.351563 -0.601562,0 -0.964844,0.339844 -0.359375,0.339844 -0.414062,0.957031 z m 2.609375,-3.039063 V 87.625 h 1.480469 v 0.558594 h -1.480469 v 2.375 q 0,0.535156 0.144531,0.6875 0.148438,0.152343 0.597656,0.152343 h 0.738282 V 92 h -0.738282 q -0.832031,0 -1.148437,-0.308594 -0.316406,-0.3125 -0.316406,-1.132812 v -2.375 H 18.107422 V 87.625 h 0.527344 v -1.242188 z m 4.414062,3.417969 q -0.871093,0 -1.207031,0.199219 -0.335937,0.199219 -0.335937,0.679687 0,0.382813 0.25,0.609375 0.253906,0.222657 0.6875,0.222657 0.597656,0 0.957031,-0.421875 0.363281,-0.425782 0.363281,-1.128907 v -0.160156 z m 1.433594,-0.296875 V 92 h -0.71875 v -0.664063 q -0.246094,0.398438 -0.613281,0.589844 -0.367188,0.1875 -0.898438,0.1875 -0.671875,0 -1.070312,-0.375 -0.394531,-0.378906 -0.394531,-1.011719 0,-0.738281 0.492187,-1.113281 0.496094,-0.375 1.476563,-0.375 h 1.007812 v -0.07031 q 0,-0.496094 -0.328125,-0.765625 -0.324219,-0.273438 -0.914062,-0.273438 -0.375,0 -0.730469,0.08984 -0.355469,0.08984 -0.683594,0.269531 v -0.664062 q 0.394531,-0.152344 0.765625,-0.226563 0.371094,-0.07813 0.722656,-0.07813 0.949219,0 1.417969,0.492188 0.46875,0.492187 0.46875,1.492187 z"
   id="text4"
   class="mod"
   style="font-size:8px;font-family:'DejaVu Sans';text-align:center;text-anchor:middle;fill:#111111"
   aria-label="Meta" />&#10;    </g>&#10;&#10;    <!-- pinky finger column -->&#10;    <g
   transform="translate(36, 0)"
   id="g8">&#10;      <use
   xlink:href="#basekey"
   y="0"
   class="l5"
   id="use4" />&#10;      <use
   xlink:href="#basekey"
   y="36"
   class="l5"
   id="use5" />&#10;      <use
   xlink:href="#basekey"
   y="72"
   class="l5"
   id="use6" />&#10;&#10;      <path
   d="M 13.306152,21.121094 20.54834,9.7568359 H 18.491699 L 11.249512,21.121094 Z M 10.309082,8.8779297 H 21.690918 V 9.7568359 L 14.44873,21.121094 h 7.444336 V 22 H 10.106934 V 21.121094 L 17.349121,9.7568359 h -7.040039 z"
   id="text6"
   class="key"
   style="font-size:18px;font-family:'DejaVu Sans';text-align:center;text-anchor:middle;fill:#111111;stroke-width:0.75"
   aria-label="ℤ" />&#10;      <path
   d="m 21.308594,45.888672 v 1.037109 q -0.782227,-0.571289 -1.801758,-0.966797 -1.019531,-0.395507 -2.34668,-0.395507 -1.432617,0 -2.496093,0.457031 V 56.875 q 1.063476,0.457031 2.496093,0.457031 1.327149,0 2.34668,-0.395508 1.019531,-0.395507 1.801758,-0.975586 v 1.028321 q -0.931641,0.632812 -1.977539,0.949219 -1.03711,0.316406 -2.197266,0.316406 -2.979492,0 -4.693359,-1.819336 -1.713867,-1.828125 -1.713867,-4.983399 0,-3.164062 1.713867,-4.983398 1.713867,-1.828125 4.693359,-1.828125 1.177734,0 2.214844,0.316406 1.045898,0.307617 1.959961,0.931641 z m -7.567383,10.458984 v -9.799804 q -0.307617,0.237304 -0.580078,0.527343 -1.379883,1.511719 -1.379883,4.376953 0,2.856446 1.379883,4.368164 0.272461,0.29004 0.580078,0.527344 z"
   id="text7"
   class="key"
   style="font-size:18px;font-family:'DejaVu Sans';text-align:center;text-anchor:middle;fill:#111111;stroke-width:0.75"
   aria-label="ℂ" />&#10;      <path
   d="m 20.07373,79.401367 h 1.661133 v 0.84375 H 20.724121 L 15.503418,94.360352 H 14.92334 l -2.803711,-7.760743 -1.098633,0.395508 -0.219726,-0.703125 2.487304,-0.861328 2.25,6.231445 z"
   id="text8"
   class="key"
   style="font-size:18px;font-family:'DejaVu Sans';text-align:center;text-anchor:middle;fill:#111111;stroke-width:0.75"
   aria-label="√" />&#10;    </g>&#10;&#10;    <!-- ring finger column -->&#10;    <g
   transform="translate(72, 0)"
   id="g12">&#10;      <use
   xlink:href="#basekey"
   y="0"
   class="l4"
   id="use8" />&#10;      <use
   xlink:href="#basekey"
   y="36"
   class="l4"
   id="use9" />&#10;      <use
   xlink:href="#basekey"
   y="72"
   class="l4"
   id="use10" />&#10;&#10;      <path
   d="m 17.766602,15.671875 3.471679,3.47168 q 0.870117,0.870117 0.870117,1.300781 0,1.142578 -1.265625,1.810547 0,-0.729492 -0.439453,-1.168946 l -6.793945,-6.793945 -1.362305,1.371094 q -0.544922,0.553711 0.03516,1.133789 l 1.511718,1.511719 q 0.878907,0.878906 0.878907,1.819336 0,0.940429 -0.536133,1.327148 Q 13.380859,22 12.774414,22 h -2.15332 v -0.492188 q 1.722656,-0.55371 1.722656,-1.371093 0,-0.254883 -0.413086,-0.667969 l -0.861328,-0.870117 q -0.46582,-0.47461 -0.46582,-1.300781 0,-0.826172 1.230468,-2.06543 L 13.1875,13.870117 11.069336,11.751953 q -0.870117,-0.870117 -0.870117,-1.300781 0,-1.1425782 1.265625,-1.810547 0,0.7294922 0.439453,1.1689453 l 5.449219,5.4316407 2.469726,-2.469727 -1.019531,-1.019531 q -0.870117,-0.870117 -0.870117,-1.300781 0,-1.1425782 1.265625,-1.810547 0,0.7294922 0.439453,1.1689453 l 1.599609,1.5996097 q 0.870117,0.870117 0.870117,1.300781 0,1.142578 -1.265625,1.810547 0,-0.729492 -0.439453,-1.168945 l -0.158203,-0.158204 z"
   id="text10"
   class="key"
   style="font-size:18px;font-family:'DejaVu Sans';text-align:center;text-anchor:middle;fill:#111111;stroke-width:0.75"
   aria-label="ℵ" />&#10;      <path
   d="m 14.119141,56.505859 h 6.416015 V 58 h -8.455078 v -1.494141 l 4.209961,-5.484375 -4.209961,-4.649414 v -1.49414 h 8.296875 v 1.49414 h -6.257812 l 4.209961,4.614258 z"
   id="text11"
   class="key"
   style="font-size:18px;font-family:'DejaVu Sans';text-align:center;text-anchor:middle;fill:#111111;stroke-width:0.75"
   aria-label="Σ" />&#10;      <path
   d="m 13.00293,86.256836 h 6.249023 v 1.494141 H 13.00293 Z M 12.080078,80.87793 h 8.094727 v 1.49414 h -8.094727 z m 0,11.627929 h 8.094727 V 94 h -8.094727 z"
   id="text12"
   class="key"
   style="font-size:18px;font-family:'DejaVu Sans';text-align:center;text-anchor:middle;fill:#111111;stroke-width:0.75"
   aria-label="Ξ" />&#10;    </g>&#10;&#10;    <!-- middle finger column -->&#10;    <g
   transform="translate(108, 0)"
   id="g16">&#10;      <use
   xlink:href="#basekey"
   y="0"
   class="l3"
   id="use12" />&#10;      <use
   xlink:href="#basekey"
   y="36"
   class="l3"
   id="use13" />&#10;      <use
   xlink:href="#basekey"
   y="72"
   class="l3"
   id="use14" />&#10;&#10;      <path
   d="m 21.080078,12.332031 -4.016601,4.03418 4.016601,4.016601 L 20.03418,21.446289 16,17.412109 11.96582,21.446289 10.928711,20.382812 14.936523,16.366211 10.928711,12.332031 11.96582,11.268555 16,15.302734 20.03418,11.268555 Z"
   id="text14"
   class="key"
   style="font-size:18px;font-family:'DejaVu Sans';text-align:center;text-anchor:middle;fill:#111111;stroke-width:0.75"
   aria-label="×" />&#10;      <path
   d="m 15.556152,47.013672 q 0.07031,-1.467774 0.782227,-2.047852 0.711914,-0.588867 1.371094,-0.588867 0.667968,0 1.221679,0.553711 0.553711,0.544922 0.729493,1.775391 l -1.300782,0.131836 q -0.149414,-1.142579 -0.65039,-1.142579 -0.624024,0 -0.694336,1.538086 l -0.571289,11.953125 q -0.07031,1.467774 -0.782227,2.047852 -0.711914,0.588867 -1.379883,0.588867 -0.659179,0 -1.21289,-0.553711 -0.553711,-0.544922 -0.729493,-1.77539 l 1.300782,-0.131836 q 0.149414,1.142578 0.65039,1.142578 0.624024,0 0.694336,-1.538086 z"
   id="text15"
   class="key"
   style="font-size:18px;font-family:'DejaVu Sans';text-align:center;text-anchor:middle;fill:#111111;stroke-width:0.75"
   aria-label="∫" />&#10;      <path
   d="m 11.73291,88.779297 v -5.203125 h 1.511719 v 4.983398 q 0,2.144532 0.650391,3.076172 0.65039,0.922852 2.109375,0.922852 1.450195,0 2.100585,-0.922852 0.650391,-0.93164 0.650391,-3.076172 v -4.983398 h 1.511719 v 5.203125 q 0,2.601562 -1.081055,3.911133 Q 18.11377,94 16.004395,94 13.88623,94 12.805176,92.69043 11.73291,91.380859 11.73291,88.779297 Z"
   id="text16"
   class="key"
   style="font-size:18px;font-family:'DejaVu Sans';text-align:center;text-anchor:middle;fill:#111111;stroke-width:0.75"
   aria-label="∪" />&#10;    </g>&#10;&#10;    <!-- index finger column -->&#10;    <g
   transform="translate(144,0)"
   id="g20">&#10;      <use
   xlink:href="#basekey"
   y="0"
   class="l2"
   id="use16" />&#10;      <use
   xlink:href="#basekey"
   y="36"
   class="l2"
   id="use17" />&#10;      <use
   xlink:href="#basekey"
   y="72"
   class="l2"
   id="use18" />&#10;&#10;      <path
   d="m 15.995605,20.250977 2.416993,-6.530274 H 13.587402 Z M 14.993652,22 9.9838867,8.8779297 h 1.8720703 l 1.195313,3.3662113 h 5.915039 l 1.195312,-3.3662113 h 1.845703 L 17.006348,22 Z"
   id="text18"
   class="key"
   style="font-size:18px;font-family:'DejaVu Sans';text-align:center;text-anchor:middle;fill:#111111;stroke-width:0.75"
   aria-label="∀" />&#10;      <path
   d="M 20.535156,44.87793 V 58 h -8.455078 v -1.494141 h 6.679688 V 52.181641 H 12.080078 V 50.6875 h 6.679688 v -4.31543 h -6.679688 v -1.49414 z"
   id="text19"
   class="key nubkey"
   style="font-size:18px;font-family:'DejaVu Sans';text-align:center;text-anchor:middle;fill:#111111;stroke-width:0.75"
   aria-label="∃" />&#10;      <path
   d="m 11.73291,88.796875 q 0,-2.601563 1.072266,-3.911133 1.081054,-1.30957 3.199219,-1.30957 2.109375,0 3.18164,1.30957 1.081055,1.30957 1.081055,3.911133 0,0 0,5.203125 h -1.511719 v -4.983398 q 0,-2.144532 -0.650391,-3.067383 -0.65039,-0.931641 -2.100585,-0.931641 -1.458985,0 -2.109375,0.931641 -0.650391,0.922851 -0.650391,3.067383 0,0 0,4.983398 H 11.73291 Z"
   id="text20"
   class="key"
   style="font-size:18px;font-family:'DejaVu Sans';text-align:center;text-anchor:middle;fill:#111111;stroke-width:0.75"
   aria-label="∩" />&#10;&#10;      <use
   x="10"
   y="65"
   xlink:href="#nub"
   id="use20" />&#10;    </g>&#10;&#10;    <!-- inner column -->&#10;    <g
   transform="translate(180,0)"
   id="g25">&#10;      <use
   xlink:href="#basekey"
   y="0"
   class="l2"
   id="use21" />&#10;      <use
   xlink:href="#basekey"
   y="36"
   class="l2"
   id="use22" />&#10;      <use
   xlink:href="#basekey"
   y="72"
   class="l2"
   id="use23" />&#10;&#10;      <path
   d="m 18.496094,21.762695 2.33789,2.557617 h -2.144531 l -1.942383,-2.100585 -0.448242,0.02637 q -0.149414,0.0088 -0.290039,0.0088 -2.768555,0 -4.429687,-1.845703 -1.6523442,-1.854493 -1.6523442,-4.957032 0,-3.111328 1.6523442,-4.957031 1.661132,-1.854492 4.429687,-1.854492 2.759766,0 4.412109,1.854492 1.652344,1.845703 1.652344,4.957031 0,2.285157 -0.922851,3.911133 -0.914063,1.625977 -2.654297,2.399414 z m -4.631836,-0.870117 q 0.949219,0.439453 2.144531,0.439453 1.195313,0 2.144531,-0.439453 V 10.00293 q -0.949218,-0.4394534 -2.144531,-0.4394534 -1.195312,0 -2.144531,0.4394534 z m -0.922852,-0.571289 v -9.738281 q -0.316406,0.254883 -0.597656,0.580078 -1.362305,1.599609 -1.362305,4.289062 0,2.689454 1.362305,4.280274 0.28125,0.325195 0.597656,0.588867 z m 6.134766,-9.729492 v 9.711914 q 0.307617,-0.254883 0.580078,-0.571289 1.362305,-1.59961 1.362305,-4.280274 0,-2.689453 -1.362305,-4.289062 -0.272461,-0.316406 -0.580078,-0.571289 z"
   id="text23"
   class="key"
   style="font-size:18px;font-family:'DejaVu Sans';text-align:center;text-anchor:middle;fill:#111111;stroke-width:0.75"
   aria-label="ℚ" />&#10;      <path
   d="m 11.174805,52.489258 q 0.06152,0.65039 0.615234,1.705078 0.650391,1.22168 1.880859,1.907226 1.204102,0.667969 2.504883,0.676758 h 6.125977 v 1.397461 h -6.125977 q -1.6875,0 -3.251953,-0.870117 -1.555664,-0.870117 -2.390625,-2.416992 -0.8349608,-1.546875 -0.8349608,-3.19043 0,-1.625976 0.8349608,-3.172851 0.834961,-1.546875 2.390625,-2.425782 1.564453,-0.878906 3.251953,-0.878906 h 6.125977 v 1.397461 h -6.125977 q -1.300781,0.0088 -2.504883,0.685547 -1.221679,0.694336 -1.880859,1.907226 -0.5625,1.054688 -0.641601,1.872071 h 11.15332 v 1.40625 z"
   id="text24"
   class="key"
   style="font-size:18px;font-family:'DejaVu Sans';text-align:center;text-anchor:middle;fill:#111111;stroke-width:0.75"
   aria-label="∈" />&#10;      <path
   d="m 21.748047,92.567383 h -7.294922 q -1.775391,0 -2.988281,-1.22168 -1.212891,-1.22168 -1.212891,-2.979492 0,-1.740234 1.212891,-2.979492 1.21289,-1.22168 2.970703,-1.22168 0,0 7.3125,0 v 1.318359 h -7.3125 q -1.195313,0 -2.030274,0.84375 -0.83496,0.84375 -0.83496,2.039063 0,1.212891 0.826171,2.039062 0.84375,0.84375 2.039063,0.84375 0,0 7.3125,0 z"
   id="text25"
   class="key"
   style="font-size:18px;font-family:'DejaVu Sans';text-align:center;text-anchor:middle;fill:#111111;stroke-width:0.75"
   aria-label="⊂" />&#10;    </g>&#10;&#10;    <!-- thump cluster -->&#10;    <g
   transform="translate(144, 114)"
   id="g30">&#10;      <g
   transform="rotate(0)"
   id="g29">&#10;        <use
   xlink:href="#basekey"
   x="0"
   class="key grey pressed"
   id="use25" />&#10;        <path
   d="m 10.789063,14.167969 h 1.175781 l 1.488281,3.96875 1.496094,-3.96875 H 16.125 V 20 h -0.769531 v -5.121094 l -1.503906,4 h -0.792969 l -1.503906,-4 V 20 h -0.765625 z m 9.140624,0.6875 -1.992187,3.113281 h 1.992187 z m -0.207031,-0.6875 h 0.992188 v 3.800781 h 0.832031 V 18.625 H 20.714844 V 20 h -0.785157 v -1.375 h -2.632812 v -0.761719 z"
   id="m4ltxt"
   class="mod"
   style="font-size:8px;font-family:'DejaVu Sans';text-align:center;text-anchor:middle;fill:#111111"
   aria-label="M4" />&#10;        <g
   transform="translate(36, 0) rotate(0)"
   id="g28">&#10;          <use
   xlink:href="#basekey"
   x="0"
   class="key grey"
   id="use26" />&#10;          <path
   d="M 17.039062,15.5625 16,14.523438 14.960938,15.5625 h 0.511718 v 4.046875 h 1.054688 V 15.5625 Z M 14.015625,15.953125 16,13.96875 17.984375,15.953125 H 16.917969 V 20 h -1.835938 v -4.046875 z"
   id="shiftltxt"
   class="mod"
   style="font-size:8px;font-family:'DejaVu Sans';text-align:center;text-anchor:middle;fill:#111111"
   aria-label="⇧" />&#10;          <g
   transform="translate(36, 0) rotate(0)"
   id="g27">&#10;            <use
   xlink:href="#basekey"
   x="0"
   class="l1"
   id="use27" />&#10;            <path
   d="m 13.105469,17.160156 h 4.070312 l -0.914062,-0.914062 0.46875,-0.46875 1.539062,1.539062 v -1.5 h 0.664063 v 3.359375 h -0.664063 v -1.507812 l -1.539062,1.539062 -0.46875,-0.46875 0.914062,-0.914062 h -4.070312 z"
   id="text27"
   class="mod"
   style="font-size:8px;font-family:'DejaVu Sans';text-align:center;text-anchor:middle;fill:#111111"
   aria-label="⇥" />&#10;          </g>&#10;        </g>&#10;      </g>&#10;    </g>&#10;  </g>&#10;&#10;&#10;&#10;&#10;  <g
   transform="translate(310,0)"
   id="g60">&#10;&#10;    <!-- thumb-cluster -->&#10;    <g
   transform="translate(36, 114)"
   id="g36">&#10;      <g
   transform="rotate(0, 36, 0)"
   id="g35">&#10;        <use
   xlink:href="#basekey"
   x="0"
   class="key grey pressed"
   id="use31" />&#10;        <path
   d="m 10.789063,14.167969 h 1.175781 l 1.488281,3.96875 1.496094,-3.96875 H 16.125 V 20 h -0.769531 v -5.121094 l -1.503906,4 h -0.792969 l -1.503906,-4 V 20 h -0.765625 z m 9.140624,0.6875 -1.992187,3.113281 h 1.992187 z m -0.207031,-0.6875 h 0.992188 v 3.800781 h 0.832031 V 18.625 H 20.714844 V 20 h -0.785157 v -1.375 h -2.632812 v -0.761719 z"
   id="m4rtxt"
   class="mod"
   style="font-size:8px;font-family:'DejaVu Sans';text-align:center;text-anchor:middle;fill:#111111"
   aria-label="M4" />&#10;        <g
   transform="translate(-36, 0) rotate(0, 36, 0)"
   id="g34">&#10;          <use
   xlink:href="#basekey"
   x="0"
   class="l1"
   id="use32" />&#10;          <path
   d="m 14.6875,21.15625 h 2.625 V 19.1875 h 0.65625 v 2.632812 h -3.9375 V 19.1875 h 0.65625 z"
   id="text32"
   class="mod space"
   style="font-size:8px;font-family:'DejaVu Sans';text-align:center;text-anchor:middle;fill:#111111"
   aria-label="␣" />&#10;          <g
   transform="translate(-36, 0) rotate(0, 36, 0)"
   id="g33">&#10;            <use
   xlink:href="#basekey"
   x="0"
   class="l1"
   id="use33" />&#10;            <path
   d="m 14.847656,19.476562 -1.984375,-1.984375 1.984375,-1.984374 v 1.066406 H 17.0625 v -2.40625 h 1.835937 l -0.0039,4.242187 h -4.046875 z m -0.390625,-2.511718 v -0.511719 l -1.039062,1.039062 1.039062,1.039063 v -0.511719 h 4.046875 l 0.0039,-3.460937 h -1.054687 l -0.0039,2.40625 z"
   id="returntxt"
   class="mod"
   style="font-size:8px;font-family:'DejaVu Sans';text-align:center;text-anchor:middle;fill:#111111"
   aria-label="⏎" />&#10;          </g>&#10;        </g>&#10;      </g>&#10;    </g>&#10;&#10;    <!-- inner column -->&#10;    <g
   transform="translate(0,0)"
   id="g40">&#10;      <use
   xlink:href="#basekey"
   y="0"
   class="l2"
   id="use36" />&#10;      <use
   xlink:href="#basekey"
   y="36"
   class="l2"
   id="use37" />&#10;      <use
   xlink:href="#basekey"
   y="72"
   class="l2"
   id="use38" />&#10;&#10;      <path
   d="M 21.000977,8.8779297 V 22 H 19.225586 V 10.37207 H 12.774414 V 22 H 10.999023 V 8.8779297 Z"
   id="text38"
   class="key"
   style="font-size:18px;font-family:'DejaVu Sans';text-align:center;text-anchor:middle;fill:#111111;stroke-width:0.75"
   aria-label="Π" />&#10;      <path
   d="m 15.995605,46.626953 -3.603515,9.896484 h 7.21582 z M 9.9838867,58 14.993652,44.87793 h 2.012696 L 22.007324,58 Z"
   id="text39"
   class="key"
   style="font-size:18px;font-family:'DejaVu Sans';text-align:center;text-anchor:middle;fill:#111111;stroke-width:0.75"
   aria-label="Δ" />&#10;      <path
   d="M 22.191895,92.435547 V 94 h -5.273438 v -1.564453 q 1.555664,-0.852539 2.425781,-2.311524 0.870117,-1.458984 0.870117,-3.234375 0,-2.109375 -1.160156,-3.383789 -1.160156,-1.274414 -3.058594,-1.274414 -1.898437,0 -3.067382,1.283203 -1.160157,1.274414 -1.160157,3.375 0,1.775391 0.870118,3.234375 0.878906,1.458985 2.443359,2.311524 V 94 H 9.8081055 v -1.564453 h 2.8037105 q -1.388671,-1.22168 -2.030273,-2.53125 -0.6328125,-1.30957 -0.6328125,-2.926758 0,-2.794922 1.6874995,-4.526367 1.678711,-1.731445 4.359375,-1.731445 2.663086,0 4.359375,1.731445 1.6875,1.722656 1.6875,4.438476 0,1.705079 -0.624023,3.00586 -0.624023,1.300781 -2.039062,2.540039 z"
   id="text40"
   class="key"
   style="font-size:18px;font-family:'DejaVu Sans';text-align:center;text-anchor:middle;fill:#111111;stroke-width:0.75"
   aria-label="Ω" />&#10;    </g>&#10;&#10;&#10;    <!-- index finger column -->&#10;    <g
   transform="translate(36,0)"
   id="g44">&#10;      <use
   xlink:href="#basekey"
   y="0"
   class="r2"
   id="use40" />&#10;      <use
   xlink:href="#basekey"
   y="36"
   class="r2"
   id="use41" />&#10;      <use
   xlink:href="#basekey"
   y="72"
   class="r2"
   id="use42" />&#10;&#10;      <path
   d="m 15.187012,22.254883 q -1.239258,0 -2.047852,-0.747071 -0.958008,-0.887695 -0.958008,-2.496093 0,-1.669922 0.84375,-2.970703 0.870118,-1.335938 2.434571,-1.335938 1.02832,0 1.836914,0.641602 0.474609,0.377929 0.799804,1.010742 0.114258,-0.711914 0.114258,-1.520508 0,-1.186523 -0.28125,-1.87207 -0.624023,-1.520508 -2.276367,-1.520508 -0.624023,0 -1.59082,0.386719 v -1.476563 q 1.019531,-0.272461 1.933593,-0.272461 2.355469,0 3.357422,2.16211 0.465821,1.019531 0.465821,2.540039 0,0.993164 -0.219727,2.144531 -0.553711,2.882812 -1.986328,4.253906 -1.125,1.072266 -2.425781,1.072266 z m -1.50293,-2.979492 q 0,0.878906 0.386719,1.353515 0.413086,0.500977 1.045898,0.500977 0.5625,0 1.010742,-0.395508 0.632813,-0.544922 1.098633,-1.432617 0.386719,-0.729492 0.580078,-1.511719 -0.782226,-1.889648 -2.135742,-1.889648 -1.160156,0 -1.669922,1.529296 -0.316406,0.949219 -0.316406,1.845704 z"
   id="text42"
   class="key"
   style="font-size:18px;font-family:'DejaVu Sans';text-align:center;text-anchor:middle;fill:#111111;stroke-width:0.75"
   aria-label="∂" />&#10;      <path
   d="m 15.991211,56.145508 3.673828,-9.527344 H 12.317383 Z M 15.015625,58 9.9267578,45.053711 H 22.073242 L 16.984375,58 Z"
   id="text43"
   class="key nubkey"
   style="font-size:18px;font-family:'DejaVu Sans';text-align:center;text-anchor:middle;fill:#111111;stroke-width:0.75"
   aria-label="∇" />&#10;      <path
   d="M 12.752441,94 V 80.87793 h 8.165039 v 1.49414 H 14.527832 V 94 Z"
   id="text44"
   class="key"
   style="font-size:18px;font-family:'DejaVu Sans';text-align:center;text-anchor:middle;fill:#111111;stroke-width:0.75"
   aria-label="Γ" />&#10;&#10;      <use
   x="10"
   y="65"
   xlink:href="#nub"
   id="use44" />&#10;    </g>&#10;&#10;    <!-- middle finger column -->&#10;    <g
   transform="translate(72,0)"
   id="g49">&#10;      <use
   xlink:href="#basekey"
   y="0"
   class="r3"
   id="use45" />&#10;      <use
   xlink:href="#basekey"
   y="36"
   class="r3"
   id="use46" />&#10;      <use
   xlink:href="#basekey"
   y="72"
   class="r3"
   id="use47" />&#10;&#10;      <path
   d="m 20.201172,17.104492 h -9.219727 v 3.032227 H 9.4873047 v -7.558594 h 1.4941403 v 3.032227 h 9.219727 L 18.15332,13.5625 l 1.054688,-1.054687 3.454101,3.454101 v 0.791016 l -3.454101,3.454101 -1.054688,-1.054687 z"
   id="text47"
   class="key"
   style="font-size:18px;font-family:'DejaVu Sans';text-align:center;text-anchor:middle;fill:#111111;stroke-width:0.75"
   aria-label="↦" />&#10;      <path
   d="M 20.324219,57.121094 13.767578,45.756836 h -2.091797 l 6.556641,11.364258 z M 10.533203,44.87793 h 3.726563 l 6.328125,10.977539 V 44.87793 h 0.878906 V 58 H 17.740234 L 11.412109,47.022461 V 58 h -0.878906 z"
   id="text48"
   class="key"
   style="font-size:18px;font-family:'DejaVu Sans';text-align:center;text-anchor:middle;fill:#111111;stroke-width:0.75"
   aria-label="ℕ" />&#10;      <path
   d="m 11.974609,89.280273 h 10.538086 v 1.054688 h -9.483398 l 0.817383,0.817383 -1.054688,1.054687 -3.4541014,-3.454101 v -0.791016 l 3.4541014,-3.454102 1.054688,1.054688 -0.817383,0.817383 h 9.483398 V 87.43457 H 11.974609 l -0.922851,0.922852 z"
   id="text49"
   class="key"
   style="font-size:18px;font-family:'DejaVu Sans';text-align:center;text-anchor:middle;fill:#111111;stroke-width:0.75"
   aria-label="⇐" />&#10;    </g>&#10;&#10;    <!-- ring finger colummn -->&#10;    <g
   transform="translate(108,0)"
   id="g53">&#10;      <use
   xlink:href="#basekey"
   y="0"
   class="r4"
   id="use49" />&#10;      <use
   xlink:href="#basekey"
   y="36"
   class="r4"
   id="use50" />&#10;      <use
   xlink:href="#basekey"
   y="72"
   class="r4"
   id="use51" />&#10;&#10;      <path
   d="M 11.855957,22 H 9.9838867 L 14.993652,8.8779297 h 2.012696 L 22.007324,22 H 20.161621 L 15.995605,10.626953 Z"
   id="text51"
   class="key"
   style="font-size:18px;font-family:'DejaVu Sans';text-align:center;text-anchor:middle;fill:#111111;stroke-width:0.75"
   aria-label="Λ" />&#10;      <path
   d="M 20.078125,54.633789 Q 19.410156,53.306641 18.8125,52.884766 18.206055,52.454102 17.151367,52.454102 h -0.395508 q 0.676758,0.413085 1.564453,2.179687 l 1.256836,2.487305 h 1.749024 z m -1.072266,-2.707031 q 0.465821,0.219726 0.958008,0.799804 0.500977,0.580079 1.045899,1.6875 L 22.811523,58 H 18.944336 L 17.265625,54.633789 Q 16.615234,53.31543 16,52.884766 15.393555,52.454102 14.338867,52.454102 H 14.163086 V 58 H 10.629883 V 44.87793 h 5.967773 q 2.25,0 3.357422,0.940429 1.107422,0.94043 1.107422,2.838868 0,1.828125 -1.02832,2.689453 -0.430664,0.360351 -1.028321,0.580078 z m -4.842773,-6.169922 v 5.818359 h 2.856445 q 0.210938,0 0.413086,-0.01758 v -5.783203 q -0.202148,-0.01758 -0.413086,-0.01758 z m 4.192383,0.202148 v 5.405274 q 0.571289,-0.19336 0.949218,-0.553711 0.791016,-0.75586 0.791016,-2.15332 0,-1.397461 -0.782226,-2.144532 -0.369141,-0.360351 -0.958008,-0.553711 z m -6.84668,-0.202148 V 57.121094 H 13.28418 V 45.756836 Z"
   id="text52"
   class="key"
   style="font-size:18px;font-family:'DejaVu Sans';text-align:center;text-anchor:middle;fill:#111111;stroke-width:0.75"
   aria-label="ℝ" />&#10;      <path
   d="m 11.974609,89.280273 h 8.050782 l 0.922851,-0.922851 -0.922851,-0.922852 h -8.050782 l -0.922851,0.922852 z m 6.996094,1.054688 h -5.941406 l 0.817383,0.817383 -1.054688,1.054687 -3.4541014,-3.454101 v -0.791016 l 3.4541014,-3.454102 1.054688,1.054688 -0.817383,0.817383 h 5.941406 L 18.15332,85.5625 l 1.054688,-1.054688 3.454101,3.454102 v 0.791016 l -3.454101,3.454101 -1.054688,-1.054687 z"
   id="text53"
   class="key"
   style="font-size:18px;font-family:'DejaVu Sans';text-align:center;text-anchor:middle;fill:#111111;stroke-width:0.75"
   aria-label="⇔" />&#10;    </g>&#10;&#10;&#10;    <!-- pinky finger column -->&#10;    <g
   transform="translate(144,0)"
   id="g57">&#10;      <use
   xlink:href="#basekey"
   y="0"
   class="r5"
   id="use53" />&#10;      <use
   xlink:href="#basekey"
   y="36"
   class="r5"
   id="use54" />&#10;      <use
   xlink:href="#basekey"
   y="72"
   class="r5"
   id="use55" />&#10;&#10;      <path
   d="m 15.121094,11.751953 q -1.31836,0.18457 -2.179688,0.949219 -1.142578,1.010742 -1.142578,2.750976 0,1.731446 1.142578,2.742188 0.861328,0.764648 2.179688,0.949219 z m 1.77539,7.391602 q 1.31836,-0.184571 2.179688,-0.949219 1.125,-1.010742 1.125,-2.742188 0,-1.740234 -1.125,-2.750976 -0.861328,-0.764649 -2.179688,-0.949219 z m -1.77539,1.467773 q -2.144531,-0.193359 -3.533203,-1.371094 -1.6611332,-1.40625 -1.6611332,-3.788086 0,-2.381835 1.6611332,-3.796875 1.379882,-1.186523 3.533203,-1.379882 V 8.8779297 h 1.77539 v 1.3974613 q 2.144532,0.202148 3.524414,1.379882 1.652344,1.41504 1.652344,3.796875 0,2.373047 -1.652344,3.788086 -1.379882,1.177735 -3.524414,1.379883 V 22 h -1.77539 z"
   id="text55"
   class="key"
   style="font-size:18px;font-family:'DejaVu Sans';text-align:center;text-anchor:middle;fill:#111111;stroke-width:0.75"
   aria-label="Φ" />&#10;      <path
   d="m 15.121094,58 q 0.0088,-1.177734 0,-2.724609 -1.88086,0 -3.533203,-1.845704 Q 9.9707031,51.636719 9.9267578,48.472656 V 44.87793 h 1.8720702 v 3.594726 q 0,2.478516 1.142578,3.919922 0.966797,1.230469 2.179688,1.353516 V 44.87793 h 1.77539 v 8.868164 q 1.212891,-0.123047 2.179688,-1.353516 1.142578,-1.441406 1.142578,-3.919922 V 44.87793 h 1.87207 v 3.594726 q -0.04395,3.164063 -1.661133,4.957031 -1.652343,1.845704 -3.533203,1.845704 -0.0088,0.632812 0,2.724609 z"
   id="text56"
   class="key"
   style="font-size:18px;font-family:'DejaVu Sans';text-align:center;text-anchor:middle;fill:#111111;stroke-width:0.75"
   aria-label="Ψ" />&#10;      <path
   d="M 20.025391,89.280273 20.948242,88.357422 20.025391,87.43457 H 9.4873047 V 86.379883 H 18.970703 L 18.15332,85.5625 l 1.054688,-1.054688 3.454101,3.454102 v 0.791016 l -3.454101,3.454101 -1.054688,-1.054687 0.817383,-0.817383 H 9.4873047 v -1.054688 z"
   id="text57"
   class="key"
   style="font-size:18px;font-family:'DejaVu Sans';text-align:center;text-anchor:middle;fill:#111111;stroke-width:0.75"
   aria-label="⇒" />&#10;    </g>&#10;&#10;&#10;    <!-- outer column -->&#10;    <g
   transform="translate(180,0)"
   id="g59">&#10;      <use
   xlink:href="#basekey"
   y="0"
   class="r5"
   id="use57" />&#10;      <use
   xlink:href="#basekey"
   y="36"
   class="key grey pressed"
   id="m3r" />&#10;      <use
   xlink:href="#basekey"
   y="72"
   class="key grey"
   id="use58" />&#10;&#10;      <path
   d="m 16,14.678711 q -0.703125,0 -1.186523,0.492187 -0.483399,0.483399 -0.483399,1.186524 0,0.694336 0.483399,1.177734 0.483398,0.47461 1.186523,0.47461 0.703125,0 1.186523,-0.47461 0.483399,-0.483398 0.483399,-1.177734 0,-0.694336 -0.492188,-1.186524 Q 16.694336,14.678711 16,14.678711 Z m 0,-1.133789 q 0.5625,0 1.081055,0.219726 0.518554,0.210938 0.896484,0.615235 0.404297,0.395508 0.606445,0.896484 0.202149,0.500977 0.202149,1.081055 0,1.160156 -0.817383,1.96875 -0.808594,0.799805 -1.986328,0.799805 -1.186524,0 -1.977539,-0.791016 -0.791016,-0.791016 -0.791016,-1.977539 0,-1.177734 0.808594,-1.995117 Q 14.831055,13.544922 16,13.544922 Z"
   id="text58"
   class="key"
   style="font-size:18px;font-family:'DejaVu Sans';text-align:center;text-anchor:middle;fill:#111111;stroke-width:0.75"
   aria-label="∘" />&#10;      <path
   d="m 10.789063,50.167969 h 1.175781 l 1.488281,3.96875 1.496094,-3.96875 H 16.125 V 56 h -0.769531 v -5.121094 l -1.503906,4 h -0.792969 l -1.503906,-4 V 56 h -0.765625 z m 9.363281,2.6875 q 0.566406,0.121093 0.882812,0.503906 0.320313,0.382812 0.320313,0.945312 0,0.863282 -0.59375,1.335938 -0.59375,0.472656 -1.6875,0.472656 -0.367188,0 -0.757813,-0.07422 -0.386719,-0.07031 -0.800781,-0.214843 V 55.0625 q 0.328125,0.191406 0.71875,0.289062 0.390625,0.09766 0.816406,0.09766 0.742188,0 1.128906,-0.292969 0.390625,-0.292969 0.390625,-0.851563 0,-0.515625 -0.363281,-0.804687 -0.359375,-0.292969 -1.003906,-0.292969 h -0.679688 v -0.648437 h 0.710938 q 0.582031,0 0.890625,-0.230469 0.308594,-0.234375 0.308594,-0.671875 0,-0.449219 -0.320313,-0.6875 -0.316406,-0.242188 -0.910156,-0.242188 -0.324219,0 -0.695313,0.07031 -0.371093,0.07031 -0.816406,0.21875 V 50.3125 q 0.449219,-0.125 0.839844,-0.1875 0.394531,-0.0625 0.742187,-0.0625 0.898438,0 1.421875,0.410156 0.523438,0.40625 0.523438,1.101563 0,0.484375 -0.277344,0.820312 -0.277344,0.332031 -0.789062,0.460938 z"
   id="m3rtxt"
   class="mod"
   style="font-size:8px;font-family:'DejaVu Sans';text-align:center;text-anchor:middle;fill:#111111"
   aria-label="M3" />&#10;      <path
   d="m 6.8535156,86.167969 h 1.1757813 l 1.4882812,3.96875 1.4960939,-3.96875 h 1.175781 V 92 h -0.769531 v -5.121094 l -1.5039064,4 H 9.1230469 l -1.5039063,-4 V 92 h -0.765625 z m 10.6132814,3.464843 v 0.351563 h -3.304688 q 0.04687,0.742187 0.445313,1.132812 0.402344,0.386719 1.117187,0.386719 0.414063,0 0.800782,-0.101562 0.390625,-0.101563 0.773437,-0.304688 v 0.679688 q -0.386719,0.164062 -0.792969,0.25 -0.40625,0.08594 -0.824218,0.08594 -1.046875,0 -1.660157,-0.609375 -0.609375,-0.609375 -0.609375,-1.648437 0,-1.074219 0.578125,-1.703125 0.582032,-0.632813 1.566407,-0.632813 0.882812,0 1.394531,0.570313 0.515625,0.566406 0.515625,1.542968 z m -0.71875,-0.210937 q -0.0078,-0.589844 -0.332031,-0.941406 -0.320313,-0.351563 -0.851563,-0.351563 -0.601562,0 -0.964844,0.339844 -0.359375,0.339844 -0.414062,0.957031 z m 2.609375,-3.039063 V 87.625 h 1.480469 v 0.558594 h -1.480469 v 2.375 q 0,0.535156 0.144531,0.6875 0.148438,0.152343 0.597656,0.152343 h 0.738282 V 92 h -0.738282 q -0.832031,0 -1.148437,-0.308594 -0.316406,-0.3125 -0.316406,-1.132812 v -2.375 H 18.107422 V 87.625 h 0.527344 v -1.242188 z m 4.414062,3.417969 q -0.871093,0 -1.207031,0.199219 -0.335937,0.199219 -0.335937,0.679687 0,0.382813 0.25,0.609375 0.253906,0.222657 0.6875,0.222657 0.597656,0 0.957031,-0.421875 0.363281,-0.425782 0.363281,-1.128907 v -0.160156 z m 1.433594,-0.296875 V 92 h -0.71875 v -0.664063 q -0.246094,0.398438 -0.613281,0.589844 -0.367188,0.1875 -0.898438,0.1875 -0.671875,0 -1.070312,-0.375 -0.394531,-0.378906 -0.394531,-1.011719 0,-0.738281 0.492187,-1.113281 0.496094,-0.375 1.476563,-0.375 h 1.007812 v -0.07031 q 0,-0.496094 -0.328125,-0.765625 -0.324219,-0.273438 -0.914062,-0.273438 -0.375,0 -0.730469,0.08984 -0.355469,0.08984 -0.683594,0.269531 v -0.664062 q 0.394531,-0.152344 0.765625,-0.226563 0.371094,-0.07813 0.722656,-0.07813 0.949219,0 1.417969,0.492188 0.46875,0.492187 0.46875,1.492187 z"
   id="text59"
   class="mod"
   style="font-size:8px;font-family:'DejaVu Sans';text-align:center;text-anchor:middle;fill:#111111"
   aria-label="Meta" />&#10;    </g>&#10;  </g>&#10;</g>&#10;&#10;</svg>
