<?xml version="1.0" encoding="UTF-8" standalone="no"?>
<svg
   version="1.1"
   id="Ebene_1"
   height="183"
   width="535"
   viewBox="0 0 535 183"
   enable-background="new 0 0 535 183"
   xml:space="preserve"
   inkscape:export-xdpi="90"
   inkscape:export-ydpi="90"
   sodipodi:docname="noted-3-tkl.svg"
   xmlns:inkscape="http://www.inkscape.org/namespaces/inkscape"
   xmlns:sodipodi="http://sodipodi.sourceforge.net/DTD/sodipodi-0.dtd"
   xmlns:xlink="http://www.w3.org/1999/xlink"
   xmlns="http://www.w3.org/2000/svg"
   xmlns:svg="http://www.w3.org/2000/svg"
   xmlns:rdf="http://www.w3.org/1999/02/22-rdf-syntax-ns#"
   xmlns:cc="http://creativecommons.org/ns#"
   xmlns:dc="http://purl.org/dc/elements/1.1/">&#10;&#10;  <metadata
   id="metadata135">&#10;    <rdf:RDF>&#10;      <cc:Work
   rdf:about="">&#10;        <dc:format>image/svg+xml</dc:format>&#10;        <dc:type
   rdf:resource="http://purl.org/dc/dcmitype/StillImage" />&#10;        <dc:title />&#10;      </cc:Work>&#10;    </rdf:RDF>&#10;  </metadata>&#10;&#10;<defs
   id="defs">&#10;  <style
   type="text/css"
   id="style46661">&#10;  text.mod, text.key, text.dead {&#10;    fill:#111;&#10;    fill-opacity:1;&#10;      stroke:none;&#10;      font-style:normal;&#10;      font-variant:normal;&#10;      font-weight:normal;&#10;      font-stretch:normal;&#10;      display:inline;&#10;      font-family:DejaVu Sans;&#10;      writing-mode:lr-tb;&#10;  }&#10;&#10;  text.key {&#10;      font-family:DejaVu Sans;&#10;  }&#10;&#10;  text.dead {&#10;      font-family: Gentium Plus Compact;&#10;  }&#10;&#10;  text.space, text.dead, text.center, text.key, text.mod {&#10;      text-align:center;&#10;      text-anchor:middle;&#10;  }&#10;&#10;  text.key { font-size:18px; }&#10;  text.dead { font-size:18px; }&#10;  text.mod { font-size:8px; }&#10;  text.big { font-size:12px; }&#10;&#10;  .key {&#10;  stroke-width:0.75;&#10;  }&#10;&#10;  .grey { fill:#949494; stroke:#696969; }&#10;  .grey { fill:#9f9f9f; stroke:#747474; }&#10;&#10;  .numpad { fill:#afaa9f; stroke:#747474; }&#10;&#10;  /* bootstrap colors */&#10;  .l5, .r5 { fill:#93CCEA; }&#10;  .l4, .r4 { fill:#7abeb3; }&#10;  .l3, .r3 { fill:#63b280; }&#10;  .l2, .r2 { fill:#4aa44a; }&#10;  .l1, .r1 { fill:#4aa44a; }&#10;&#10;  /* btn bg hover, unused */&#10;  .l2, .r2 { stroke:#3071a9; }&#10;  .l3, .r3 { stroke:#449d44; }&#10;  .l4, .r4 { stroke:#c9302c; }&#10;  .l5, .r5 { stroke:#ec971f; }&#10;&#10;  /* btn border hover */&#10;  .l1, .r1 { stroke:#204d74; }&#10;  .l2, .r2 { stroke:#204d74; }&#10;  .l3, .r3 { stroke:#204d74; }&#10;  .l4, .r4 { stroke:#204d74; }&#10;  .l5, .r5 { stroke:#204d74; }&#10;&#10;  <!-- text.nubkey { fill:#eee; } -->&#10;&#10;  .pressed {&#10;    <!--opacity:0.5;-->&#10;    fill:#777;&#10;  }&#10;  </style>&#10;&#10;  <g
   id="basekey">&#10;    <rect
   width="32"
   height="32"
   rx="4"
   class="key"
   id="rect1" />&#10;  </g>&#10;&#10;  <g
   id="nub">&#10;    <!-- <rect width="14" height="1" rx="1" style="fill:#eee;" /> -->&#10;    <rect
   width="14"
   height="1"
   rx="1"
   style="fill:#111;"
   id="rect2" />&#10;  </g>&#10;&#10;</defs>&#10;<sodipodi:namedview
   pagecolor="#ffffff"
   bordercolor="#666666"
   borderopacity="1"
   objecttolerance="10"
   gridtolerance="10"
   guidetolerance="10"
   inkscape:pageopacity="0"
   inkscape:pageshadow="2"
   inkscape:window-width="1614"
   inkscape:window-height="969"
   id="base"
   showgrid="false"
   inkscape:zoom="0.70961538"
   inkscape:cx="685.32105"
   inkscape:cy="241.15395"
   inkscape:window-x="78"
   inkscape:window-y="71"
   inkscape:window-maximized="0"
   inkscape:current-layer="Ebene_1"
   inkscape:showpageshadow="2"
   inkscape:pagecheckerboard="0"
   inkscape:deskcolor="#d1d1d1" />&#10;&#10;<g
   transform="translate(3.5,3.5)"
   id="g61">&#10;&#10;  <g
   transform="translate(0, 0)"
   id="g31">&#10;&#10;    <!-- outer column -->&#10;    <g
   transform="translate(0, 0)"
   id="g4">&#10;      <use
   xlink:href="#basekey"
   y="0"
   class="l5"
   id="use2" />&#10;      <use
   xlink:href="#basekey"
   y="36"
   class="key grey pressed"
   id="m3l" />&#10;      <use
   xlink:href="#basekey"
   y="72"
   class="key grey"
   id="use3" />&#10;&#10;      <path
   d="m 13.697266,17.280273 q 0,1.256836 0.624023,1.977539 0.624024,0.711915 1.713867,0.711915 1.081055,0 1.696289,-0.720704 0.624024,-0.720703 0.624024,-1.96875 0,-1.230468 -0.632813,-1.951171 -0.632812,-0.729493 -1.705078,-0.729493 -1.063476,0 -1.696289,0.720704 -0.624023,0.720703 -0.624023,1.95996 z m 4.790039,2.62793 q -0.527344,0.676758 -1.212891,1.001953 -0.676758,0.316406 -1.582031,0.316406 -1.511719,0 -2.460938,-1.089843 -0.940429,-1.098633 -0.940429,-2.856446 0,-1.757812 0.949218,-2.856445 0.949219,-1.098633 2.452149,-1.098633 0.905273,0 1.59082,0.333985 0.685547,0.325195 1.204102,0.993164 v -1.151367 h 1.256836 v 6.46875 q 1.283203,-0.19336 2.003906,-1.168946 0.729492,-0.984375 0.729492,-2.540039 0,-0.940429 -0.28125,-1.766601 -0.272461,-0.826172 -0.834961,-1.529297 -0.914062,-1.151367 -2.232422,-1.757813 -1.30957,-0.615234 -2.856445,-0.615234 -1.081055,0 -2.074219,0.290039 -0.993164,0.28125 -1.836914,0.84375 -1.379883,0.896484 -2.162109,2.355469 -0.7734377,1.450195 -0.7734377,3.146484 0,1.397461 0.5009765,2.619141 0.5097652,1.221679 1.4677732,2.15332 0.922852,0.914062 2.135742,1.388672 1.212891,0.483398 2.592774,0.483398 1.133789,0 2.223633,-0.386718 1.098632,-0.37793 2.012695,-1.089844 l 0.791016,0.975586 q -1.098633,0.852539 -2.399414,1.300781 -1.291993,0.457031 -2.62793,0.457031 -1.625977,0 -3.067383,-0.580078 -1.441406,-0.571289 -2.566406,-1.669922 -1.1250002,-1.098633 -1.7138674,-2.540039 -0.5888672,-1.450195 -0.5888672,-3.111328 0,-1.599609 0.5976563,-3.049805 0.5976562,-1.450195 1.7050783,-2.548828 1.133789,-1.116211 2.61914,-1.7050779 1.485352,-0.5976562 3.146485,-0.5976562 1.863281,0 3.454101,0.7646481 1.59961,0.764649 2.680664,2.170899 0.65918,0.861328 1.001954,1.87207 0.351562,1.010742 0.351562,2.091797 0,2.311523 -1.397461,3.647461 -1.397461,1.335937 -3.858398,1.388672 z"
   id="text3"
   class="key"
   style="font-size:18px;font-family:'DejaVu Sans';text-align:center;text-anchor:middle;fill:#111111;stroke-width:0.75"
   aria-label="@" />&#10;      <path
   d="m 10.789063,50.167969 h 1.175781 l 1.488281,3.96875 1.496094,-3.96875 H 16.125 V 56 h -0.769531 v -5.121094 l -1.503906,4 h -0.792969 l -1.503906,-4 V 56 h -0.765625 z m 9.363281,2.6875 q 0.566406,0.121093 0.882812,0.503906 0.320313,0.382812 0.320313,0.945312 0,0.863282 -0.59375,1.335938 -0.59375,0.472656 -1.6875,0.472656 -0.367188,0 -0.757813,-0.07422 -0.386719,-0.07031 -0.800781,-0.214843 V 55.0625 q 0.328125,0.191406 0.71875,0.289062 0.390625,0.09766 0.816406,0.09766 0.742188,0 1.128906,-0.292969 0.390625,-0.292969 0.390625,-0.851563 0,-0.515625 -0.363281,-0.804687 -0.359375,-0.292969 -1.003906,-0.292969 h -0.679688 v -0.648437 h 0.710938 q 0.582031,0 0.890625,-0.230469 0.308594,-0.234375 0.308594,-0.671875 0,-0.449219 -0.320313,-0.6875 -0.316406,-0.242188 -0.910156,-0.242188 -0.324219,0 -0.695313,0.07031 -0.371093,0.07031 -0.816406,0.21875 V 50.3125 q 0.449219,-0.125 0.839844,-0.1875 0.394531,-0.0625 0.742187,-0.0625 0.898438,0 1.421875,0.410156 0.523438,0.40625 0.523438,1.101563 0,0.484375 -0.277344,0.820312 -0.277344,0.332031 -0.789062,0.460938 z"
   id="m3ltxt"
   class="mod"
   style="font-size:8px;font-family:'DejaVu Sans';text-align:center;text-anchor:middle;fill:#111111"
   aria-label="M3" />&#10;      <path
   d="m 6.8535156,86.167969 h 1.1757813 l 1.4882812,3.96875 1.4960939,-3.96875 h 1.175781 V 92 h -0.769531 v -5.121094 l -1.5039064,4 H 9.1230469 l -1.5039063,-4 V 92 h -0.765625 z m 10.6132814,3.464843 v 0.351563 h -3.304688 q 0.04687,0.742187 0.445313,1.132812 0.402344,0.386719 1.117187,0.386719 0.414063,0 0.800782,-0.101562 0.390625,-0.101563 0.773437,-0.304688 v 0.679688 q -0.386719,0.164062 -0.792969,0.25 -0.40625,0.08594 -0.824218,0.08594 -1.046875,0 -1.660157,-0.609375 -0.609375,-0.609375 -0.609375,-1.648437 0,-1.074219 0.578125,-1.703125 0.582032,-0.632813 1.566407,-0.632813 0.882812,0 1.394531,0.570313 0.515625,0.566406 0.515625,1.542968 z m -0.71875,-0.210937 q -0.0078,-0.589844 -0.332031,-0.941406 -0.320313,-0.351563 -0.851563,-0.351563 -0.601562,0 -0.964844,0.339844 -0.359375,0.339844 -0.414062,0.957031 z m 2.609375,-3.039063 V 87.625 h 1.480469 v 0.558594 h -1.480469 v 2.375 q 0,0.535156 0.144531,0.6875 0.148438,0.152343 0.597656,0.152343 h 0.738282 V 92 h -0.738282 q -0.832031,0 -1.148437,-0.308594 -0.316406,-0.3125 -0.316406,-1.132812 v -2.375 H 18.107422 V 87.625 h 0.527344 v -1.242188 z m 4.414062,3.417969 q -0.871093,0 -1.207031,0.199219 -0.335937,0.199219 -0.335937,0.679687 0,0.382813 0.25,0.609375 0.253906,0.222657 0.6875,0.222657 0.597656,0 0.957031,-0.421875 0.363281,-0.425782 0.363281,-1.128907 v -0.160156 z m 1.433594,-0.296875 V 92 h -0.71875 v -0.664063 q -0.246094,0.398438 -0.613281,0.589844 -0.367188,0.1875 -0.898438,0.1875 -0.671875,0 -1.070312,-0.375 -0.394531,-0.378906 -0.394531,-1.011719 0,-0.738281 0.492187,-1.113281 0.496094,-0.375 1.476563,-0.375 h 1.007812 v -0.07031 q 0,-0.496094 -0.328125,-0.765625 -0.324219,-0.273438 -0.914062,-0.273438 -0.375,0 -0.730469,0.08984 -0.355469,0.08984 -0.683594,0.269531 v -0.664062 q 0.394531,-0.152344 0.765625,-0.226563 0.371094,-0.07813 0.722656,-0.07813 0.949219,0 1.417969,0.492188 0.46875,0.492187 0.46875,1.492187 z"
   id="text4"
   class="mod"
   style="font-size:8px;font-family:'DejaVu Sans';text-align:center;text-anchor:middle;fill:#111111"
   aria-label="Meta" />&#10;    </g>&#10;&#10;    <!-- pinky finger column -->&#10;    <g
   transform="translate(36, 0)"
   id="g8">&#10;      <use
   xlink:href="#basekey"
   y="0"
   class="l5"
   id="use4" />&#10;      <use
   xlink:href="#basekey"
   y="36"
   class="l5"
   id="use5" />&#10;      <use
   xlink:href="#basekey"
   y="72"
   class="l5"
   id="use6" />&#10;&#10;      <path
   d="m 15.068359,19.767578 h 1.863282 V 22 h -1.863282 z m 5.985352,0 h 1.87207 V 22 h -1.87207 z m -11.9794922,0 H 10.946289 V 22 H 9.0742188 Z"
   id="text6"
   class="key"
   style="font-size:18px;font-family:'DejaVu Sans';text-align:center;text-anchor:middle;fill:#111111;stroke-width:0.75"
   aria-label="…" />&#10;      <path
   d="m 14.461914,44.87793 4.570313,14.791992 H 17.538086 L 12.967773,44.87793 Z"
   id="text7"
   class="key"
   style="font-size:18px;font-family:'DejaVu Sans';text-align:center;text-anchor:middle;fill:#111111;stroke-width:0.75"
   aria-label="\" />&#10;      <path
   d="m 17.661133,86.081055 h -2.557617 l -0.738282,2.935547 h 2.575196 z m -1.31836,-5.000977 -0.914062,3.647461 h 2.566406 l 0.922852,-3.647461 h 1.40625 l -0.905274,3.647461 h 2.742188 v 1.353516 h -3.084961 l -0.720703,2.935547 h 2.794922 v 1.344726 H 18.012695 L 17.098633,94 h -1.40625 l 0.905273,-3.638672 H 14.022461 L 13.117188,94 h -1.41504 l 0.914063,-3.638672 H 9.8476563 v -1.344726 h 3.0937497 l 0.738282,-2.935547 h -2.830079 v -1.353516 h 3.172852 l 0.896484,-3.647461 z"
   id="text8"
   class="key"
   style="font-size:18px;font-family:'DejaVu Sans';text-align:center;text-anchor:middle;fill:#111111;stroke-width:0.75"
   aria-label="#" />&#10;    </g>&#10;&#10;    <!-- ring finger column -->&#10;    <g
   transform="translate(72, 0)"
   id="g12">&#10;      <use
   xlink:href="#basekey"
   y="0"
   class="l4"
   id="use8" />&#10;      <use
   xlink:href="#basekey"
   y="36"
   class="l4"
   id="use9" />&#10;      <use
   xlink:href="#basekey"
   y="72"
   class="l4"
   id="use10" />&#10;&#10;      <path
   d="m 20.675781,24.988281 v 1.256836 h -9.351562 v -1.256836 z"
   id="text10"
   class="key"
   style="font-size:18px;font-family:'DejaVu Sans';text-align:center;text-anchor:middle;fill:#111111;stroke-width:0.75"
   aria-label="_" />&#10;      <path
   d="m 17.538086,44.87793 h 1.494141 l -4.570313,14.791992 h -1.494141 z"
   id="text11"
   class="key"
   style="font-size:18px;font-family:'DejaVu Sans';text-align:center;text-anchor:middle;fill:#111111;stroke-width:0.75"
   aria-label="/" />&#10;      <path
   d="M 16.355957,96.645508 H 15.477051 L 15.468262,94 q -0.922852,-0.01758 -1.845703,-0.210938 -0.922852,-0.202148 -1.854493,-0.597656 v -1.582031 q 0.896485,0.5625 1.810547,0.852539 0.922852,0.28125 1.898438,0.290039 v -4.007812 q -1.942383,-0.316407 -2.830078,-1.072266 -0.878907,-0.755859 -0.878907,-2.074219 0,-1.432617 0.958008,-2.258789 0.958008,-0.826172 2.750977,-0.949219 v -2.065429 h 0.878906 v 2.039062 q 0.817383,0.03516 1.582031,0.175781 0.764649,0.131836 1.494141,0.369141 v 1.538086 Q 18.702637,84.077148 17.929199,83.875 17.164551,83.672852 16.355957,83.637695 v 3.75293 q 1.995117,0.307617 2.935547,1.098633 0.94043,0.791015 0.94043,2.162109 0,1.485352 -1.001954,2.34668 -0.993164,0.852539 -2.874023,0.984375 z m -0.878906,-9.413086 v -3.603516 q -1.019531,0.114258 -1.555664,0.580078 -0.536133,0.465821 -0.536133,1.239258 0,0.75586 0.492187,1.177735 0.500977,0.421875 1.59961,0.606445 z m 0.878906,1.6875 v 3.805664 q 1.116211,-0.149414 1.678711,-0.632813 0.571289,-0.483398 0.571289,-1.274414 0,-0.773437 -0.544922,-1.230468 -0.536133,-0.457032 -1.705078,-0.667969 z"
   id="text12"
   class="key"
   style="font-size:18px;font-family:'DejaVu Sans';text-align:center;text-anchor:middle;fill:#111111;stroke-width:0.75"
   aria-label="$" />&#10;    </g>&#10;&#10;    <!-- middle finger column -->&#10;    <g
   transform="translate(108, 0)"
   id="g16">&#10;      <use
   xlink:href="#basekey"
   y="0"
   class="l3"
   id="use12" />&#10;      <use
   xlink:href="#basekey"
   y="36"
   class="l3"
   id="use13" />&#10;      <use
   xlink:href="#basekey"
   y="72"
   class="l3"
   id="use14" />&#10;&#10;      <path
   d="m 14.035645,8.3242188 h 3.726562 V 9.5810547 H 15.652832 V 23.116211 h 2.109375 v 1.256836 h -3.726562 z"
   id="text14"
   class="key"
   style="font-size:18px;font-family:'DejaVu Sans';text-align:center;text-anchor:middle;fill:#111111;stroke-width:0.75"
   aria-label="[" />&#10;      <path
   d="m 19.476074,59.669922 v 1.265625 h -0.544922 q -2.188476,0 -2.935547,-0.650391 -0.738281,-0.65039 -0.738281,-2.592773 v -2.100586 q 0,-1.327149 -0.474609,-1.836914 -0.47461,-0.509766 -1.722656,-0.509766 h -0.536133 v -1.256836 h 0.536133 q 1.256836,0 1.722656,-0.500976 0.474609,-0.509766 0.474609,-1.819336 v -2.109375 q 0,-1.942383 0.738281,-2.583985 0.747071,-0.65039 2.935547,-0.65039 h 0.544922 v 1.256836 h -0.597656 q -1.239258,0 -1.617188,0.386718 -0.377929,0.386719 -0.377929,1.625977 v 2.179687 q 0,1.379883 -0.404297,2.003907 -0.395508,0.624023 -1.362305,0.84375 0.975586,0.237304 1.371094,0.861328 0.395508,0.624023 0.395508,1.995117 v 2.179688 q 0,1.239257 0.377929,1.625976 0.37793,0.386719 1.617188,0.386719 z"
   id="text15"
   class="key"
   style="font-size:18px;font-family:'DejaVu Sans';text-align:center;text-anchor:middle;fill:#111111;stroke-width:0.75"
   aria-label="{" />&#10;      <path
   d="m 16.74707,80.245117 v 18 h -1.49414 v -18 z"
   id="text16"
   class="key"
   style="font-size:18px;font-family:'DejaVu Sans';text-align:center;text-anchor:middle;fill:#111111;stroke-width:0.75"
   aria-label="|" />&#10;    </g>&#10;&#10;    <!-- index finger column -->&#10;    <g
   transform="translate(144,0)"
   id="g20">&#10;      <use
   xlink:href="#basekey"
   y="0"
   class="l2"
   id="use16" />&#10;      <use
   xlink:href="#basekey"
   y="36"
   class="l2"
   id="use17" />&#10;      <use
   xlink:href="#basekey"
   y="72"
   class="l2"
   id="use18" />&#10;&#10;      <path
   d="M 17.964355,8.3242188 V 24.373047 h -3.726562 v -1.256836 h 2.100586 V 9.5810547 H 14.237793 V 8.3242188 Z"
   id="text18"
   class="key"
   style="font-size:18px;font-family:'DejaVu Sans';text-align:center;text-anchor:middle;fill:#111111;stroke-width:0.75"
   aria-label="]" />&#10;      <path
   d="m 12.523926,59.669922 h 0.615234 q 1.230469,0 1.59961,-0.37793 0.377929,-0.37793 0.377929,-1.634765 v -2.179688 q 0,-1.371094 0.395508,-1.995117 0.395508,-0.624024 1.371094,-0.861328 -0.975586,-0.219727 -1.371094,-0.84375 -0.395508,-0.624024 -0.395508,-2.003907 V 47.59375 q 0,-1.248047 -0.377929,-1.625977 -0.369141,-0.386718 -1.59961,-0.386718 h -0.615234 v -1.256836 h 0.553711 q 2.188476,0 2.917968,0.65039 0.738282,0.641602 0.738282,2.583985 v 2.109375 q 0,1.30957 0.474609,1.819336 0.474609,0.500976 1.722656,0.500976 h 0.544922 v 1.256836 h -0.544922 q -1.248047,0 -1.722656,0.509766 -0.474609,0.509765 -0.474609,1.836914 v 2.100586 q 0,1.942383 -0.738282,2.592773 -0.729492,0.650391 -2.917968,0.650391 h -0.553711 z"
   id="text19"
   class="key nubkey"
   style="font-size:18px;font-family:'DejaVu Sans';text-align:center;text-anchor:middle;fill:#111111;stroke-width:0.75"
   aria-label="}" />&#10;      <path
   d="m 21.633789,86.819336 v 1.564453 q -0.922852,0.694336 -1.713867,0.993164 -0.782227,0.298828 -1.634766,0.298828 -0.966797,0 -2.25,-0.518554 -0.09668,-0.03516 -0.140625,-0.05274 -0.06152,-0.02637 -0.193359,-0.07031 -1.362305,-0.544922 -2.188477,-0.544922 -0.773437,0 -1.529297,0.342773 -0.755859,0.333985 -1.617187,1.063477 v -1.564453 q 0.922852,-0.694336 1.705078,-0.993164 0.791016,-0.307618 1.643555,-0.307618 0.966797,0 2.258789,0.527344 0.08789,0.03516 0.131836,0.05274 0.07031,0.02637 0.193359,0.07031 1.362305,0.544922 2.188477,0.544922 0.755859,0 1.49414,-0.333984 0.747071,-0.333985 1.652344,-1.072266 z"
   id="text20"
   class="key"
   style="font-size:18px;font-family:'DejaVu Sans';text-align:center;text-anchor:middle;fill:#111111;stroke-width:0.75"
   aria-label="~" />&#10;&#10;      <use
   x="10"
   y="65"
   xlink:href="#nub"
   id="use20" />&#10;    </g>&#10;&#10;    <!-- inner column -->&#10;    <g
   transform="translate(180,0)"
   id="g25">&#10;      <use
   xlink:href="#basekey"
   y="0"
   class="l2"
   id="use21" />&#10;      <use
   xlink:href="#basekey"
   y="36"
   class="l2"
   id="use22" />&#10;      <use
   xlink:href="#basekey"
   y="72"
   class="l2"
   id="use23" />&#10;&#10;      <path
   d="m 16.861328,8.8779297 4.772461,4.8955083 H 19.867187 L 16,10.301758 l -3.867187,3.47168 h -1.766602 l 4.772461,-4.8955083 z"
   id="text23"
   class="key"
   style="font-size:18px;font-family:'DejaVu Sans';text-align:center;text-anchor:middle;fill:#111111;stroke-width:0.75"
   aria-label="^" />&#10;      <path
   d="m 19.963867,47.040039 -3.155273,1.705078 3.155273,1.713867 -0.509765,0.861328 -2.953125,-1.784179 v 3.313476 h -1.001954 v -3.313476 l -2.953125,1.784179 -0.509765,-0.861328 3.155273,-1.713867 -3.155273,-1.705078 0.509765,-0.870117 2.953125,1.78418 v -3.313477 h 1.001954 v 3.313477 l 2.953125,-1.78418 z"
   id="text24"
   class="key"
   style="font-size:18px;font-family:'DejaVu Sans';text-align:center;text-anchor:middle;fill:#111111;stroke-width:0.75"
   aria-label="*" />&#10;      <path
   d="m 14.725586,79.603516 2.478516,3.287109 h -1.344727 l -2.865234,-3.287109 z"
   id="text25"
   class="key"
   style="font-size:18px;font-family:'DejaVu Sans';text-align:center;text-anchor:middle;fill:#111111;stroke-width:0.75"
   aria-label="`" />&#10;    </g>&#10;&#10;    <!-- thump cluster -->&#10;    <g
   transform="translate(144, 114)"
   id="g30">&#10;      <g
   transform="rotate(0)"
   id="g29">&#10;        <use
   xlink:href="#basekey"
   x="0"
   class="key grey"
   id="use25" />&#10;        <path
   d="m 10.789063,14.167969 h 1.175781 l 1.488281,3.96875 1.496094,-3.96875 H 16.125 V 20 h -0.769531 v -5.121094 l -1.503906,4 h -0.792969 l -1.503906,-4 V 20 h -0.765625 z m 9.140624,0.6875 -1.992187,3.113281 h 1.992187 z m -0.207031,-0.6875 h 0.992188 v 3.800781 h 0.832031 V 18.625 H 20.714844 V 20 h -0.785157 v -1.375 h -2.632812 v -0.761719 z"
   id="m4ltxt"
   class="mod"
   style="font-size:8px;font-family:'DejaVu Sans';text-align:center;text-anchor:middle;fill:#111111"
   aria-label="M4" />&#10;        <g
   transform="translate(36, 0) rotate(0)"
   id="g28">&#10;          <use
   xlink:href="#basekey"
   x="0"
   class="key grey"
   id="use26" />&#10;          <path
   d="M 17.039062,15.5625 16,14.523438 14.960938,15.5625 h 0.511718 v 4.046875 h 1.054688 V 15.5625 Z M 14.015625,15.953125 16,13.96875 17.984375,15.953125 H 16.917969 V 20 h -1.835938 v -4.046875 z"
   id="shiftltxt"
   class="mod"
   style="font-size:8px;font-family:'DejaVu Sans';text-align:center;text-anchor:middle;fill:#111111"
   aria-label="⇧" />&#10;          <g
   transform="translate(36, 0) rotate(0)"
   id="g27">&#10;            <use
   xlink:href="#basekey"
   x="0"
   class="l1"
   id="use27" />&#10;            <path
   d="m 13.105469,17.160156 h 4.070312 l -0.914062,-0.914062 0.46875,-0.46875 1.539062,1.539062 v -1.5 h 0.664063 v 3.359375 h -0.664063 v -1.507812 l -1.539062,1.539062 -0.46875,-0.46875 0.914062,-0.914062 h -4.070312 z"
   id="text27"
   class="mod"
   style="font-size:8px;font-family:'DejaVu Sans';text-align:center;text-anchor:middle;fill:#111111"
   aria-label="⇥" />&#10;          </g>&#10;        </g>&#10;      </g>&#10;    </g>&#10;  </g>&#10;&#10;&#10;&#10;&#10;  <g
   transform="translate(310,0)"
   id="g60">&#10;&#10;    <!-- thumb-cluster -->&#10;    <g
   transform="translate(36, 114)"
   id="g36">&#10;      <g
   transform="rotate(0, 36, 0)"
   id="g35">&#10;        <use
   xlink:href="#basekey"
   x="0"
   class="key grey"
   id="use31" />&#10;        <path
   d="m 10.789063,14.167969 h 1.175781 l 1.488281,3.96875 1.496094,-3.96875 H 16.125 V 20 h -0.769531 v -5.121094 l -1.503906,4 h -0.792969 l -1.503906,-4 V 20 h -0.765625 z m 9.140624,0.6875 -1.992187,3.113281 h 1.992187 z m -0.207031,-0.6875 h 0.992188 v 3.800781 h 0.832031 V 18.625 H 20.714844 V 20 h -0.785157 v -1.375 h -2.632812 v -0.761719 z"
   id="m4rtxt"
   class="mod"
   style="font-size:8px;font-family:'DejaVu Sans';text-align:center;text-anchor:middle;fill:#111111"
   aria-label="M4" />&#10;        <g
   transform="translate(-36, 0) rotate(0, 36, 0)"
   id="g34">&#10;          <use
   xlink:href="#basekey"
   x="0"
   class="l1"
   id="use32" />&#10;          <path
   d="m 14.6875,21.15625 h 2.625 V 19.1875 h 0.65625 v 2.632812 h -3.9375 V 19.1875 h 0.65625 z"
   id="text32"
   class="mod space"
   style="font-size:8px;font-family:'DejaVu Sans';text-align:center;text-anchor:middle;fill:#111111"
   aria-label="␣" />&#10;          <g
   transform="translate(-36, 0) rotate(0, 36, 0)"
   id="g33">&#10;            <use
   xlink:href="#basekey"
   x="0"
   class="l1"
   id="use33" />&#10;            <path
   d="m 14.847656,19.476562 -1.984375,-1.984375 1.984375,-1.984374 v 1.066406 H 17.0625 v -2.40625 h 1.835937 l -0.0039,4.242187 h -4.046875 z m -0.390625,-2.511718 v -0.511719 l -1.039062,1.039062 1.039062,1.039063 v -0.511719 h 4.046875 l 0.0039,-3.460937 h -1.054687 l -0.0039,2.40625 z"
   id="returntxt"
   class="mod"
   style="font-size:8px;font-family:'DejaVu Sans';text-align:center;text-anchor:middle;fill:#111111"
   aria-label="⏎" />&#10;          </g>&#10;        </g>&#10;      </g>&#10;    </g>&#10;&#10;    <!-- inner column -->&#10;    <g
   transform="translate(0,0)"
   id="g40">&#10;      <use
   xlink:href="#basekey"
   y="0"
   class="l2"
   id="use36" />&#10;      <use
   xlink:href="#basekey"
   y="36"
   class="l2"
   id="use37" />&#10;      <use
   xlink:href="#basekey"
   y="72"
   class="l2"
   id="use38" />&#10;&#10;      <path
   d="m 15.10791,19.767578 h 1.78418 V 22 h -1.78418 z m 0,-10.8896483 h 1.78418 v 5.7568363 l -0.175781,3.137695 H 15.29248 l -0.18457,-3.137695 z"
   id="text38"
   class="key"
   style="font-size:18px;font-family:'DejaVu Sans';text-align:center;text-anchor:middle;fill:#111111;stroke-width:0.75"
   aria-label="!" />&#10;      <path
   d="m 14.659668,55.767578 h 1.78418 V 58 h -1.78418 z m 1.731445,-1.291992 H 14.712402 V 53.12207 q 0,-0.887695 0.246094,-1.458984 0.246094,-0.571289 1.037109,-1.327149 l 0.791016,-0.782226 q 0.500977,-0.46582 0.720703,-0.878906 0.228516,-0.413086 0.228516,-0.84375 0,-0.782227 -0.580078,-1.265625 -0.571289,-0.483399 -1.520508,-0.483399 -0.694336,0 -1.485352,0.307617 -0.782226,0.307618 -1.634765,0.896485 v -1.652344 q 0.826172,-0.500977 1.669922,-0.74707 0.852539,-0.246094 1.757812,-0.246094 1.617188,0 2.592774,0.852539 0.984375,0.852539 0.984375,2.25 0,0.667969 -0.316407,1.274414 -0.316406,0.597656 -1.107422,1.353516 l -0.773437,0.755859 q -0.413086,0.413086 -0.588867,0.650391 -0.166992,0.228515 -0.237305,0.448242 -0.05273,0.18457 -0.0791,0.448242 -0.02637,0.263672 -0.02637,0.720703 z"
   id="text39"
   class="key"
   style="font-size:18px;font-family:'DejaVu Sans';text-align:center;text-anchor:middle;fill:#111111;stroke-width:0.75"
   aria-label="?" />&#10;      <path
   d="m 16.738281,82.714844 v 4.895508 h 4.895508 v 1.49414 H 16.738281 V 94 h -1.476562 v -4.895508 h -4.895508 v -1.49414 h 4.895508 v -4.895508 z"
   id="text40"
   class="key"
   style="font-size:18px;font-family:'DejaVu Sans';text-align:center;text-anchor:middle;fill:#111111;stroke-width:0.75"
   aria-label="+" />&#10;    </g>&#10;&#10;&#10;    <!-- index finger column -->&#10;    <g
   transform="translate(36,0)"
   id="g44">&#10;      <use
   xlink:href="#basekey"
   y="0"
   class="r2"
   id="use40" />&#10;      <use
   xlink:href="#basekey"
   y="36"
   class="r2"
   id="use41" />&#10;      <use
   xlink:href="#basekey"
   y="72"
   class="r2"
   id="use42" />&#10;&#10;      <path
   d="m 21.633789,13.140625 -9.070312,3.225586 9.070312,3.208008 v 1.599609 L 10.366211,17.086914 V 15.62793 l 11.267578,-4.086914 z"
   id="text42"
   class="key"
   style="font-size:18px;font-family:'DejaVu Sans';text-align:center;text-anchor:middle;fill:#111111;stroke-width:0.75"
   aria-label="&lt;" />&#10;      <path
   d="m 18.069824,44.341797 q -1.177734,2.021484 -1.749023,3.999023 -0.571289,1.977539 -0.571289,4.007813 0,2.030273 0.571289,4.02539 0.580078,1.986329 1.749023,3.999024 h -1.40625 q -1.318359,-2.06543 -1.977539,-4.060547 -0.65039,-1.995117 -0.65039,-3.963867 0,-1.959961 0.65039,-3.946289 0.650391,-1.986328 1.977539,-4.060547 z"
   id="text43"
   class="key nubkey"
   style="font-size:18px;font-family:'DejaVu Sans';text-align:center;text-anchor:middle;fill:#111111;stroke-width:0.75"
   aria-label="(" />&#10;      <path
   d="m 20.535156,88.225586 q -0.764648,0 -1.204101,0.650391 -0.430664,0.65039 -0.430664,1.810546 0,1.142579 0.430664,1.801758 0.439453,0.650391 1.204101,0.650391 0.747071,0 1.177735,-0.650391 0.439453,-0.659179 0.439453,-1.801758 0,-1.151367 -0.439453,-1.801757 -0.430664,-0.65918 -1.177735,-0.65918 z m 0,-1.116211 q 1.388672,0 2.206055,0.966797 0.817383,0.966797 0.817383,2.610351 0,1.643555 -0.826172,2.610352 -0.817383,0.958008 -2.197266,0.958008 -1.40625,0 -2.223633,-0.958008 -0.817382,-0.966797 -0.817382,-2.610352 0,-1.652343 0.817382,-2.610351 0.826172,-0.966797 2.223633,-0.966797 z m -9.070312,-5.352539 q -0.75586,0 -1.195313,0.65918 -0.4306638,0.65039 -0.4306638,1.792968 0,1.160157 0.4306638,1.810547 0.430664,0.650391 1.195313,0.650391 0.764648,0 1.195312,-0.650391 0.439453,-0.65039 0.439453,-1.810547 0,-1.133789 -0.439453,-1.792968 -0.439453,-0.65918 -1.195312,-0.65918 z m 7.936523,-1.116211 h 1.40625 l -8.208984,13.614258 h -1.40625 z m -7.936523,0 q 1.388672,0 2.214844,0.966797 0.826171,0.958008 0.826171,2.601562 0,1.661133 -0.826171,2.619141 -0.817383,0.958008 -2.214844,0.958008 -1.397461,0 -2.214844,-0.958008 -0.8085937,-0.966797 -0.8085937,-2.619141 0,-1.634765 0.8173828,-2.601562 0.8173829,-0.966797 2.2060549,-0.966797 z"
   id="text44"
   class="key"
   style="font-size:18px;font-family:'DejaVu Sans';text-align:center;text-anchor:middle;fill:#111111;stroke-width:0.75"
   aria-label="%" />&#10;&#10;      <use
   x="10"
   y="65"
   xlink:href="#nub"
   id="use44" />&#10;    </g>&#10;&#10;    <!-- middle finger column -->&#10;    <g
   transform="translate(72,0)"
   id="g49">&#10;      <use
   xlink:href="#basekey"
   y="0"
   class="r3"
   id="use45" />&#10;      <use
   xlink:href="#basekey"
   y="36"
   class="r3"
   id="use46" />&#10;      <use
   xlink:href="#basekey"
   y="72"
   class="r3"
   id="use47" />&#10;&#10;      <path
   d="m 10.366211,13.140625 v -1.599609 l 11.267578,4.086914 v 1.458984 l -11.267578,4.086914 v -1.599609 l 9.052734,-3.208008 z"
   id="text47"
   class="key"
   style="font-size:18px;font-family:'DejaVu Sans';text-align:center;text-anchor:middle;fill:#111111;stroke-width:0.75"
   aria-label="&gt;" />&#10;      <path
   d="m 13.930176,44.341797 h 1.40625 q 1.318359,2.074219 1.96875,4.060547 0.659179,1.986328 0.659179,3.946289 0,1.96875 -0.659179,3.963867 -0.650391,1.995117 -1.96875,4.060547 h -1.40625 q 1.168945,-2.012695 1.740234,-3.999024 0.580078,-1.995117 0.580078,-4.02539 0,-2.030274 -0.580078,-4.007813 -0.571289,-1.977539 -1.740234,-3.999023 z"
   id="text48"
   class="key"
   style="font-size:18px;font-family:'DejaVu Sans';text-align:center;text-anchor:middle;fill:#111111;stroke-width:0.75"
   aria-label=")" />&#10;      <path
   d="m 15.085938,80.87793 v 4.877929 H 13.591797 V 80.87793 Z m 3.322265,0 v 4.877929 H 16.914062 V 80.87793 Z"
   id="text49"
   class="key"
   style="font-size:18px;font-family:'DejaVu Sans';text-align:center;text-anchor:middle;fill:#111111;stroke-width:0.75"
   aria-label="&quot;" />&#10;    </g>&#10;&#10;    <!-- ring finger colummn -->&#10;    <g
   transform="translate(108,0)"
   id="g53">&#10;      <use
   xlink:href="#basekey"
   y="0"
   class="r4"
   id="use49" />&#10;      <use
   xlink:href="#basekey"
   y="36"
   class="r4"
   id="use50" />&#10;      <use
   xlink:href="#basekey"
   y="72"
   class="r4"
   id="use51" />&#10;&#10;      <path
   d="m 10.366211,13.826172 h 11.267578 v 1.476562 H 10.366211 Z m 0,3.585937 H 21.633789 V 18.90625 H 10.366211 Z"
   id="text51"
   class="key"
   style="font-size:18px;font-family:'DejaVu Sans';text-align:center;text-anchor:middle;fill:#111111;stroke-width:0.75"
   aria-label="=" />&#10;      <path
   d="m 13.631348,52.348633 h 4.737304 v 1.441406 h -4.737304 z"
   id="text52"
   class="key"
   style="font-size:18px;font-family:'DejaVu Sans';text-align:center;text-anchor:middle;fill:#111111;stroke-width:0.75"
   aria-label="-" />&#10;      <path
   d="m 16.751465,80.87793 v 4.877929 H 15.257324 V 80.87793 Z"
   id="text53"
   class="key"
   style="font-size:18px;font-family:'DejaVu Sans';text-align:center;text-anchor:middle;fill:#111111;stroke-width:0.75"
   aria-label="'" />&#10;    </g>&#10;&#10;&#10;    <!-- pinky finger column -->&#10;    <g
   transform="translate(144,0)"
   id="g57">&#10;      <use
   xlink:href="#basekey"
   y="0"
   class="r5"
   id="use53" />&#10;      <use
   xlink:href="#basekey"
   y="36"
   class="r5"
   id="use54" />&#10;      <use
   xlink:href="#basekey"
   y="72"
   class="r5"
   id="use55" />&#10;&#10;      <path
   d="m 13.358887,14.942383 q -0.799805,0.711914 -1.177735,1.423828 -0.36914,0.703125 -0.36914,1.476562 0,1.283204 0.93164,2.135743 0.931641,0.852539 2.337891,0.852539 0.834961,0 1.564453,-0.272461 0.729492,-0.28125 1.371094,-0.84375 z m 1.239258,-0.984375 4.464843,4.570312 q 0.518555,-0.782226 0.808594,-1.669922 0.290039,-0.896484 0.342773,-1.898437 h 1.634766 q -0.105469,1.160156 -0.5625,2.293945 -0.457031,1.133789 -1.274414,2.241211 L 22.464355,22 h -2.214843 l -1.256836,-1.291992 q -0.914063,0.782226 -1.916016,1.168945 -1.001953,0.37793 -2.15332,0.37793 -2.118164,0 -3.462891,-1.204102 -1.344726,-1.21289 -1.344726,-3.102539 0,-1.125 0.588867,-2.109375 0.588867,-0.993164 1.766601,-1.863281 -0.421875,-0.553711 -0.641601,-1.098633 -0.219727,-0.553711 -0.219727,-1.081055 0,-1.423828 0.975586,-2.2851558 0.975586,-0.8701172 2.592774,-0.8701172 0.729492,0 1.450195,0.1582031 0.729492,0.1582032 1.476562,0.4746094 v 1.5996095 q -0.764648,-0.413086 -1.458984,-0.624024 -0.694336,-0.219726 -1.291992,-0.219726 -0.922852,0 -1.50293,0.492187 -0.571289,0.483399 -0.571289,1.256836 0,0.448243 0.254883,0.905274 0.263672,0.448242 1.063477,1.274414 z"
   id="text55"
   class="key"
   style="font-size:18px;font-family:'DejaVu Sans';text-align:center;text-anchor:middle;fill:#111111;stroke-width:0.75"
   aria-label="&amp;" />&#10;      <path
   d="m 15.077148,55.767578 h 1.854493 V 58 h -1.854493 z m 0,-7.075195 h 1.854493 v 2.232422 h -1.854493 z"
   id="text56"
   class="key"
   style="font-size:18px;font-family:'DejaVu Sans';text-align:center;text-anchor:middle;fill:#111111;stroke-width:0.75"
   aria-label=":" />&#10;      <path
   d="m 15.077148,84.692383 h 1.854493 v 2.232422 h -1.854493 z m 0,7.075195 h 1.854493 v 1.511719 l -1.441407,2.8125 h -1.133789 l 0.720703,-2.8125 z"
   id="text57"
   class="key"
   style="font-size:18px;font-family:'DejaVu Sans';text-align:center;text-anchor:middle;fill:#111111;stroke-width:0.75"
   aria-label=";" />&#10;    </g>&#10;&#10;&#10;    <!-- outer column -->&#10;    <g
   transform="translate(180,0)"
   id="g59">&#10;      <use
   xlink:href="#basekey"
   y="0"
   class="r5"
   id="use57" />&#10;      <use
   xlink:href="#basekey"
   y="36"
   class="key grey pressed"
   id="m3r" />&#10;      <use
   xlink:href="#basekey"
   y="72"
   class="key grey"
   id="use58" />&#10;&#10;      <path
   d="M 16.41748,22 H 14.791504 V 13.413086 H 13.244629 V 12.15625 h 1.546875 v -0.685547 q 0,-1.6435546 0.764648,-2.3906249 0.764649,-0.7558593 2.425782,-0.7558593 h 1.529296 v 1.3447265 h -1.546875 q -0.870117,0 -1.21289,0.3515627 -0.333985,0.360351 -0.333985,1.265625 z"
   id="text58"
   class="key"
   style="font-size:18px;font-family:'DejaVu Sans';text-align:center;text-anchor:middle;fill:#111111;stroke-width:0.75"
   aria-label="ſ" />&#10;      <path
   d="m 10.789063,50.167969 h 1.175781 l 1.488281,3.96875 1.496094,-3.96875 H 16.125 V 56 h -0.769531 v -5.121094 l -1.503906,4 h -0.792969 l -1.503906,-4 V 56 h -0.765625 z m 9.363281,2.6875 q 0.566406,0.121093 0.882812,0.503906 0.320313,0.382812 0.320313,0.945312 0,0.863282 -0.59375,1.335938 -0.59375,0.472656 -1.6875,0.472656 -0.367188,0 -0.757813,-0.07422 -0.386719,-0.07031 -0.800781,-0.214843 V 55.0625 q 0.328125,0.191406 0.71875,0.289062 0.390625,0.09766 0.816406,0.09766 0.742188,0 1.128906,-0.292969 0.390625,-0.292969 0.390625,-0.851563 0,-0.515625 -0.363281,-0.804687 -0.359375,-0.292969 -1.003906,-0.292969 h -0.679688 v -0.648437 h 0.710938 q 0.582031,0 0.890625,-0.230469 0.308594,-0.234375 0.308594,-0.671875 0,-0.449219 -0.320313,-0.6875 -0.316406,-0.242188 -0.910156,-0.242188 -0.324219,0 -0.695313,0.07031 -0.371093,0.07031 -0.816406,0.21875 V 50.3125 q 0.449219,-0.125 0.839844,-0.1875 0.394531,-0.0625 0.742187,-0.0625 0.898438,0 1.421875,0.410156 0.523438,0.40625 0.523438,1.101563 0,0.484375 -0.277344,0.820312 -0.277344,0.332031 -0.789062,0.460938 z"
   id="m3rtxt"
   class="mod"
   style="font-size:8px;font-family:'DejaVu Sans';text-align:center;text-anchor:middle;fill:#111111"
   aria-label="M3" />&#10;      <path
   d="m 6.8535156,86.167969 h 1.1757813 l 1.4882812,3.96875 1.4960939,-3.96875 h 1.175781 V 92 h -0.769531 v -5.121094 l -1.5039064,4 H 9.1230469 l -1.5039063,-4 V 92 h -0.765625 z m 10.6132814,3.464843 v 0.351563 h -3.304688 q 0.04687,0.742187 0.445313,1.132812 0.402344,0.386719 1.117187,0.386719 0.414063,0 0.800782,-0.101562 0.390625,-0.101563 0.773437,-0.304688 v 0.679688 q -0.386719,0.164062 -0.792969,0.25 -0.40625,0.08594 -0.824218,0.08594 -1.046875,0 -1.660157,-0.609375 -0.609375,-0.609375 -0.609375,-1.648437 0,-1.074219 0.578125,-1.703125 0.582032,-0.632813 1.566407,-0.632813 0.882812,0 1.394531,0.570313 0.515625,0.566406 0.515625,1.542968 z m -0.71875,-0.210937 q -0.0078,-0.589844 -0.332031,-0.941406 -0.320313,-0.351563 -0.851563,-0.351563 -0.601562,0 -0.964844,0.339844 -0.359375,0.339844 -0.414062,0.957031 z m 2.609375,-3.039063 V 87.625 h 1.480469 v 0.558594 h -1.480469 v 2.375 q 0,0.535156 0.144531,0.6875 0.148438,0.152343 0.597656,0.152343 h 0.738282 V 92 h -0.738282 q -0.832031,0 -1.148437,-0.308594 -0.316406,-0.3125 -0.316406,-1.132812 v -2.375 H 18.107422 V 87.625 h 0.527344 v -1.242188 z m 4.414062,3.417969 q -0.871093,0 -1.207031,0.199219 -0.335937,0.199219 -0.335937,0.679687 0,0.382813 0.25,0.609375 0.253906,0.222657 0.6875,0.222657 0.597656,0 0.957031,-0.421875 0.363281,-0.425782 0.363281,-1.128907 v -0.160156 z m 1.433594,-0.296875 V 92 h -0.71875 v -0.664063 q -0.246094,0.398438 -0.613281,0.589844 -0.367188,0.1875 -0.898438,0.1875 -0.671875,0 -1.070312,-0.375 -0.394531,-0.378906 -0.394531,-1.011719 0,-0.738281 0.492187,-1.113281 0.496094,-0.375 1.476563,-0.375 h 1.007812 v -0.07031 q 0,-0.496094 -0.328125,-0.765625 -0.324219,-0.273438 -0.914062,-0.273438 -0.375,0 -0.730469,0.08984 -0.355469,0.08984 -0.683594,0.269531 v -0.664062 q 0.394531,-0.152344 0.765625,-0.226563 0.371094,-0.07813 0.722656,-0.07813 0.949219,0 1.417969,0.492188 0.46875,0.492187 0.46875,1.492187 z"
   id="text59"
   class="mod"
   style="font-size:8px;font-family:'DejaVu Sans';text-align:center;text-anchor:middle;fill:#111111"
   aria-label="Meta" />&#10;    </g>&#10;  </g>&#10;</g>&#10;&#10;</svg>
