<?xml version="1.0" encoding="UTF-8" standalone="no"?>
<svg
   version="1.1"
   id="Ebene_1"
   height="153"
   width="530"
   viewBox="0 0 530 153"
   enable-background="new 0 0 535 0"
   xml:space="preserve"
   inkscape:export-xdpi="90"
   inkscape:export-ydpi="90"
   sodipodi:docname="noted-6-tkl.svg"
   xmlns:inkscape="http://www.inkscape.org/namespaces/inkscape"
   xmlns:sodipodi="http://sodipodi.sourceforge.net/DTD/sodipodi-0.dtd"
   xmlns:xlink="http://www.w3.org/1999/xlink"
   xmlns="http://www.w3.org/2000/svg"
   xmlns:svg="http://www.w3.org/2000/svg"
   xmlns:rdf="http://www.w3.org/1999/02/22-rdf-syntax-ns#"
   xmlns:cc="http://creativecommons.org/ns#"
   xmlns:dc="http://purl.org/dc/elements/1.1/">&#10;&#10;  <metadata
   id="metadata135">&#10;    <rdf:RDF>&#10;      <cc:Work
   rdf:about="">&#10;        <dc:format>image/svg+xml</dc:format>&#10;        <dc:type
   rdf:resource="http://purl.org/dc/dcmitype/StillImage" />&#10;        <dc:title />&#10;      </cc:Work>&#10;    </rdf:RDF>&#10;  </metadata>&#10;&#10;<defs
   id="defs">&#10;  <style
   type="text/css"
   id="style46661">&#10;  text.mod, text.key, text.dead {&#10;    fill:#111;&#10;    fill-opacity:1;&#10;      stroke:none;&#10;      font-style:normal;&#10;      font-variant:normal;&#10;      font-weight:normal;&#10;      font-stretch:normal;&#10;      display:inline;&#10;      font-family:Arial;&#10;      writing-mode:lr-tb;&#10;  }&#10;&#10;  text.key {&#10;      font-family:Arial;&#10;  }&#10;&#10;  text.dead {&#10;      font-family: Gentium Plus Compact;&#10;  }&#10;&#10;  text.space, text.dead, text.center, text.key, text.mod {&#10;      text-align:center;&#10;      text-anchor:middle;&#10;  }&#10;&#10;  text.key { font-size:18px; }&#10;  text.dead { font-size:18px; }&#10;  text.mod { font-size:10px; }&#10;  text.big { font-size:12px; }&#10;&#10;  .key {&#10;  stroke-width:0.75;&#10;  }&#10;&#10;  .grey { fill:#949494; stroke:#696969; }&#10;  .grey { fill:#9f9f9f; stroke:#747474; }&#10;&#10;  .numpad { fill:#afaa9f; stroke:#747474; }&#10;&#10;  /* bootstrap colors */&#10;  .l5, .r5 { fill:#93CCEA; }&#10;  .l4, .r4 { fill:#7abeb3; }&#10;  .l3, .r3 { fill:#63b280; }&#10;  .l2, .r2 { fill:#4aa44a; }&#10;  .l1, .r1 { fill:#4aa44a; }&#10;&#10;  /* btn bg hover, unused */&#10;  .l2, .r2 { stroke:#3071a9; }&#10;  .l3, .r3 { stroke:#449d44; }&#10;  .l4, .r4 { stroke:#c9302c; }&#10;  .l5, .r5 { stroke:#ec971f; }&#10;&#10;  /* btn border hover */&#10;  .l1, .r1 { stroke:#204d74; }&#10;  .l2, .r2 { stroke:#204d74; }&#10;  .l3, .r3 { stroke:#204d74; }&#10;  .l4, .r4 { stroke:#204d74; }&#10;  .l5, .r5 { stroke:#204d74; }&#10;&#10;  <!-- text.nubkey { fill:#eee; } -->&#10;&#10;  .pressed {&#10;    <!--opacity:0.5;-->&#10;    fill:#777;&#10;  }&#10;  </style>&#10;&#10;  <g
   id="basekey">&#10;    <rect
   width="32"
   height="32"
   rx="4"
   class="key"
   id="rect1" />&#10;  </g>&#10;&#10;  <g
   id="nub">&#10;    <rect
   width="14"
   height="1"
   rx="1"
   style="fill:#eee;"
   id="rect2" />&#10;  </g>&#10;&#10;</defs>&#10;<sodipodi:namedview
   pagecolor="#ffffff"
   bordercolor="#666666"
   borderopacity="1"
   objecttolerance="10"
   gridtolerance="10"
   guidetolerance="10"
   inkscape:pageopacity="0"
   inkscape:pageshadow="2"
   inkscape:window-width="1614"
   inkscape:window-height="969"
   id="base"
   showgrid="false"
   inkscape:zoom="0.70961538"
   inkscape:cx="685.32105"
   inkscape:cy="241.15395"
   inkscape:window-x="78"
   inkscape:window-y="71"
   inkscape:window-maximized="0"
   inkscape:current-layer="Ebene_1"
   inkscape:showpageshadow="2"
   inkscape:pagecheckerboard="0"
   inkscape:deskcolor="#d1d1d1" />&#10;&#10;<rect
   width="100%"
   height="100%"
   rx="4"
   style="fill:#eee"
   id="rect3" />&#10;&#10;<g
   transform="translate(3.5,3.5)"
   id="g62">&#10;&#10;  <g
   transform="translate(0, 0)"
   id="g32">&#10;&#10;    <!-- outer column -->&#10;    <g
   transform="translate(0, 0)"
   id="g5">&#10;      <use
   xlink:href="#basekey"
   y="0"
   class="l5"
   id="use3" />&#10;      <use
   xlink:href="#basekey"
   y="36"
   class="key grey pressed"
   id="m3l" />&#10;      <use
   xlink:href="#basekey"
   y="72"
   class="key grey"
   id="use4" />&#10;&#10;      <path
   d="m 22.13916,15.750977 q 0,1.942382 -0.74707,3.401367 -0.738281,1.458984 -2.126953,2.241211 -1.388672,0.782226 -3.278321,0.782226 -1.907226,0 -3.295898,-0.773437 -1.379883,-0.773438 -2.109375,-2.232422 -0.7294922,-1.467774 -0.7294922,-3.418945 0,-2.970704 1.6259762,-4.640625 1.625977,-1.6787114 4.526368,-1.6787114 1.889648,0 3.27832,0.7558594 1.388672,0.74707 2.118164,2.179688 0.738281,1.432617 0.738281,3.383789 z m -1.713867,0 q 0,-2.311524 -1.160156,-3.629883 -1.151367,-1.31836 -3.260742,-1.31836 -2.126954,0 -3.28711,1.300782 -1.160156,1.300781 -1.160156,3.647461 0,2.329101 1.168945,3.700195 1.177735,1.362305 3.260742,1.362305 2.144532,0 3.28711,-1.31836 1.151367,-1.327148 1.151367,-3.74414 z m -7.013672,-0.729493 h 5.15918 v 1.40625 h -5.15918 z"
   id="text4"
   class="key"
   style="font-size:18px;font-family:Arial;text-align:center;text-anchor:middle;fill:#111111;stroke-width:0.75"
   aria-label="Θ" />&#10;      <path
   d="m 15.724121,56 v -4.589844 q 0,-0.761719 0.04394,-1.464844 -0.239257,0.874024 -0.429687,1.367188 L 13.561035,56 h -0.654297 l -1.801758,-4.6875 -0.273437,-0.830078 -0.161133,-0.53711 0.01465,0.541993 0.01953,0.922851 V 56 H 9.8745117 v -6.879883 h 1.2255863 l 1.831054,4.770508 q 0.09766,0.288086 0.185547,0.620117 0.09277,0.327149 0.122071,0.473633 0.03906,-0.195313 0.161132,-0.59082 0.126953,-0.400391 0.170899,-0.50293 l 1.796875,-4.770508 h 1.196289 V 56 Z m 6.782227,-1.899414 q 0,0.952148 -0.605469,1.474609 -0.605469,0.522461 -1.728516,0.522461 -1.044922,0 -1.669922,-0.46875 -0.620117,-0.473633 -0.737304,-1.396484 l 0.908203,-0.08301 q 0.175781,1.220703 1.499023,1.220703 0.664063,0 1.040039,-0.327148 0.38086,-0.327149 0.38086,-0.97168 0,-0.561523 -0.434571,-0.874023 -0.429687,-0.317383 -1.245117,-0.317383 h -0.498047 v -0.761719 h 0.478516 q 0.722656,0 1.118164,-0.3125 0.400391,-0.317383 0.400391,-0.874023 0,-0.551758 -0.327149,-0.869141 -0.322265,-0.322266 -0.961914,-0.322266 -0.581055,0 -0.942383,0.297852 -0.356445,0.297851 -0.415039,0.839844 l -0.883789,-0.06836 q 0.09766,-0.844726 0.698242,-1.318359 0.605469,-0.473633 1.552735,-0.473633 1.035156,0 1.606445,0.483399 0.576172,0.478515 0.576172,1.33789 0,0.65918 -0.371094,1.074219 -0.366211,0.410156 -1.069336,0.556641 v 0.01953 q 0.771485,0.08301 1.201172,0.517578 0.429688,0.43457 0.429688,1.09375 z"
   id="m3ltxt"
   class="mod"
   style="font-size:10px;font-family:Arial;text-align:center;text-anchor:middle;fill:#111111"
   aria-label="M3" />&#10;      <path
   d="m 11.554199,92 v -4.589844 q 0,-0.761719 0.04395,-1.464844 -0.239258,0.874024 -0.429688,1.367188 L 9.3911133,92 H 8.7368164 l -1.8017578,-4.6875 -0.2734375,-0.830078 -0.1611328,-0.53711 0.014648,0.541993 0.019531,0.922851 V 92 H 5.7045898 v -6.879883 h 1.225586 l 1.8310547,4.770508 q 0.097656,0.288086 0.1855468,0.620117 0.092773,0.327149 0.1220704,0.473633 0.039063,-0.195313 0.1611328,-0.59082 0.1269531,-0.400391 0.1708984,-0.50293 l 1.7968751,-4.770508 h 1.196289 V 92 Z m 3.007813,-2.456055 q 0,0.908203 0.375976,1.401367 0.375977,0.493165 1.098633,0.493165 0.571289,0 0.913086,-0.229493 0.34668,-0.229492 0.46875,-0.581054 l 0.771484,0.219726 q -0.473632,1.25 -2.15332,1.25 -1.171875,0 -1.787109,-0.698242 -0.610352,-0.698242 -0.610352,-2.075195 0,-1.308594 0.610352,-2.006836 0.615234,-0.698242 1.752929,-0.698242 2.329102,0 2.329102,2.807617 v 0.117187 z m 2.861328,-0.673828 q -0.07324,-0.834961 -0.424805,-1.21582 -0.351562,-0.385742 -1.010742,-0.385742 -0.639648,0 -1.015625,0.429687 -0.371094,0.424805 -0.400391,1.171875 z m 4.057617,3.09082 q -0.43457,0.117188 -0.888672,0.117188 -1.054687,0 -1.054687,-1.196289 v -3.525391 h -0.610352 v -0.639648 h 0.644531 l 0.258789,-1.181641 h 0.585938 v 1.181641 h 0.976562 v 0.639648 h -0.976562 v 3.334961 q 0,0.38086 0.12207,0.53711 0.126953,0.151367 0.434571,0.151367 0.175781,0 0.507812,-0.06836 z m 2.094727,0.136719 q -0.795899,0 -1.196289,-0.419922 -0.400391,-0.419922 -0.400391,-1.152343 0,-0.820313 0.537109,-1.259766 0.541992,-0.439453 1.743164,-0.46875 l 1.186524,-0.01953 v -0.288086 q 0,-0.644531 -0.273438,-0.922852 -0.273437,-0.27832 -0.859375,-0.27832 -0.59082,0 -0.859375,0.200195 -0.268554,0.200196 -0.322265,0.639649 l -0.917969,-0.08301 q 0.224609,-1.425781 2.119141,-1.425781 0.996093,0 1.499023,0.458984 0.50293,0.454102 0.50293,1.318359 v 2.275391 q 0,0.390625 0.102539,0.59082 0.102539,0.195313 0.390625,0.195313 0.126953,0 0.288086,-0.03418 v 0.546875 q -0.332032,0.07813 -0.678711,0.07813 -0.488282,0 -0.712891,-0.253906 -0.219726,-0.258789 -0.249023,-0.805664 h -0.0293 q -0.336914,0.605469 -0.786133,0.859375 -0.444336,0.249023 -1.083984,0.249023 z m 0.200195,-0.659179 q 0.483398,0 0.859375,-0.219727 0.375976,-0.219727 0.59082,-0.600586 0.219727,-0.385742 0.219727,-0.791016 v -0.43457 l -0.961914,0.01953 q -0.620117,0.0098 -0.942383,0.126953 -0.317383,0.117188 -0.488281,0.361329 -0.170899,0.24414 -0.170899,0.639648 0,0.429688 0.229492,0.664063 0.234375,0.234375 0.664063,0.234375 z"
   id="text5"
   class="mod"
   style="font-size:10px;font-family:Arial;text-align:center;text-anchor:middle;fill:#111111"
   aria-label="Meta" />&#10;    </g>&#10;&#10;    <!-- pinky finger column -->&#10;    <g
   transform="translate(36, 0)"
   id="g9">&#10;      <use
   xlink:href="#basekey"
   y="0"
   class="l5"
   id="use5" />&#10;      <use
   xlink:href="#basekey"
   y="36"
   class="l5"
   id="use6" />&#10;      <use
   xlink:href="#basekey"
   y="72"
   class="l5"
   id="use7" />&#10;&#10;      <path
   d="M 13.306152,21.121094 20.54834,9.7568359 H 18.491699 L 11.249512,21.121094 Z M 10.309082,8.8779297 H 21.690918 V 9.7568359 L 14.44873,21.121094 h 7.444336 V 22 H 10.106934 V 21.121094 L 17.349121,9.7568359 h -7.040039 z"
   id="text7"
   class="key"
   style="font-size:18px;font-family:Arial;text-align:center;text-anchor:middle;fill:#111111;stroke-width:0.75"
   aria-label="ℤ" />&#10;      <path
   d="m 21.308594,45.888672 v 1.037109 q -0.782227,-0.571289 -1.801758,-0.966797 -1.019531,-0.395507 -2.34668,-0.395507 -1.432617,0 -2.496093,0.457031 V 56.875 q 1.063476,0.457031 2.496093,0.457031 1.327149,0 2.34668,-0.395508 1.019531,-0.395507 1.801758,-0.975586 v 1.028321 q -0.931641,0.632812 -1.977539,0.949219 -1.03711,0.316406 -2.197266,0.316406 -2.979492,0 -4.693359,-1.819336 -1.713867,-1.828125 -1.713867,-4.983399 0,-3.164062 1.713867,-4.983398 1.713867,-1.828125 4.693359,-1.828125 1.177734,0 2.214844,0.316406 1.045898,0.307617 1.959961,0.931641 z m -7.567383,10.458984 v -9.799804 q -0.307617,0.237304 -0.580078,0.527343 -1.379883,1.511719 -1.379883,4.376953 0,2.856446 1.379883,4.368164 0.272461,0.29004 0.580078,0.527344 z"
   id="text8"
   class="key"
   style="font-size:18px;font-family:Arial;text-align:center;text-anchor:middle;fill:#111111;stroke-width:0.75"
   aria-label="ℂ" />&#10;      <path
   d="m 16.527344,94.123047 h -0.931641 l -2.487305,-6.960938 h -1.599609 v -1.02832 h 2.373047 l 2.126953,6.064453 3.779297,-12.436523 h 1.133789 z"
   id="text9"
   class="key"
   style="font-size:18px;font-family:Arial;text-align:center;text-anchor:middle;fill:#111111;stroke-width:0.75"
   aria-label="√" />&#10;    </g>&#10;&#10;    <!-- ring finger column -->&#10;    <g
   transform="translate(72, 0)"
   id="g13">&#10;      <use
   xlink:href="#basekey"
   y="0"
   class="l4"
   id="use9" />&#10;      <use
   xlink:href="#basekey"
   y="36"
   class="l4"
   id="use10" />&#10;      <use
   xlink:href="#basekey"
   y="72"
   class="l4"
   id="use11" />&#10;&#10;      <path
   d="m 16.882,16.744 -4.608,-5.85 c -0.18,0.396 -0.27,0.756 -0.27,1.134 0,0.342 0.126,0.63 0.486,1.08 l 1.26,1.566 -1.008,1.89 c -0.324,0.594 -0.504,1.116 -0.504,1.458 0,0.36 0.162,0.774 0.522,1.404 0.468,0.774 0.468,0.774 0.468,0.972 0,0.324 -0.234,0.504 -0.63,0.504 H 12.274 V 22 h 1.476 c 1.584,0 1.98,-0.27 1.98,-1.332 0,-0.72 -0.162,-1.062 -1.152,-2.394 -0.612,-0.828 -0.828,-1.314 -0.828,-1.854 0,-0.342 0.072,-0.558 0.414,-1.188 L 19.546,22 c 0.18,-0.378 0.27,-0.702 0.27,-1.062 0,-0.378 -0.144,-0.702 -0.594,-1.278 L 18.52,18.778 c -0.666,-0.846 -0.846,-1.224 -0.846,-1.818 0,-0.324 0.054,-0.576 0.27,-1.152 L 18.736,13.9 h 0.396 c 0.396,0 0.576,0.18 0.648,0.63 0.162,-0.558 0.234,-1.026 0.234,-1.548 0,-0.918 -0.306,-1.278 -1.098,-1.278 h -1.224 c -0.684,0 -0.936,-0.198 -0.936,-0.774 v -0.288 c -0.522,0.558 -0.774,1.152 -0.774,1.854 0,0.486 0.144,0.936 0.396,1.152 0.18,0.198 0.432,0.252 0.99,0.252 h 0.72 z"
   id="text11"
   class="key"
   style="font-size:18px;font-family:Arial;text-align:center;text-anchor:middle;fill:#111111;stroke-width:0.75"
   aria-label="ℵ" />&#10;      <path
   d="m 11.385742,58 v -1.423828 l 4.728516,-5.088867 -4.579102,-4.456055 v -1.415039 h 8.780274 v 1.371094 h -6.890625 l 4.02539,3.911132 v 1.089844 l -4.30664,4.640625 h 7.708007 V 58 Z"
   id="text12"
   class="key"
   style="font-size:18px;font-family:Arial;text-align:center;text-anchor:middle;fill:#111111;stroke-width:0.75"
   aria-label="Σ" />&#10;      <path
   d="m 11.249512,81.616211 h 9.500976 v 1.371094 h -9.500976 z m 9.808593,11.012695 V 94 h -10.11621 v -1.371094 z m -1.362304,-5.668945 v 1.353516 h -7.391602 v -1.353516 z"
   id="text13"
   class="key"
   style="font-size:18px;font-family:Arial;text-align:center;text-anchor:middle;fill:#111111;stroke-width:0.75"
   aria-label="Ξ" />&#10;    </g>&#10;&#10;    <!-- middle finger column -->&#10;    <g
   transform="translate(108, 0)"
   id="g17">&#10;      <use
   xlink:href="#basekey"
   y="0"
   class="l3"
   id="use13" />&#10;      <use
   xlink:href="#basekey"
   y="36"
   class="l3"
   id="use14" />&#10;      <use
   xlink:href="#basekey"
   y="72"
   class="l3"
   id="use15" />&#10;&#10;      <path
   d="m 11.992188,19.099609 3.111328,-3.111328 -3.09375,-3.09375 0.914062,-0.905273 L 16,15.091797 l 3.076172,-3.084961 0.922851,0.922852 -3.076171,3.058593 3.09375,3.09375 -0.896485,0.922852 -3.102539,-3.102539 -3.128906,3.120117 z"
   id="text15"
   class="key"
   style="font-size:18px;font-family:Arial;text-align:center;text-anchor:middle;fill:#111111;stroke-width:0.75"
   aria-label="×" />&#10;      <path
   d="m 13.851074,61.814453 q -0.694336,0 -1.177734,-0.166992 v -1.291992 q 0.527344,0.210937 1.02832,0.210937 1.511719,0 1.511719,-2.047851 l -0.01758,-10.652344 q 0,-1.511719 0.764648,-2.311524 0.764649,-0.799804 2.223633,-0.799804 0.764648,0 1.151367,0.158203 v 1.300781 q -0.430664,-0.237305 -1.010742,-0.237305 -0.729492,0 -1.125,0.527344 -0.386719,0.518555 -0.386719,1.520508 v 10.669922 q 0,1.511719 -0.764648,2.311523 -0.764649,0.808594 -2.197266,0.808594 z"
   id="text16"
   class="key"
   style="font-size:18px;font-family:Arial;text-align:center;text-anchor:middle;fill:#111111;stroke-width:0.75"
   aria-label="∫" />&#10;      <path
   d="m 20.311001,83.002 h -1.26 v 4.896 c 0,2.034 -0.09,2.826 -0.378,3.402 -0.486,0.954 -1.548,1.602 -2.682,1.602 -0.99,0 -1.98,-0.504 -2.502,-1.296 -0.432,-0.666 -0.558,-1.458 -0.558,-3.708 v -4.896 h -1.26 v 4.842 c 0,2.682 0.09,3.366 0.576,4.158 0.756,1.26 2.124,1.998 3.744,1.998 1.494,0 2.754,-0.594 3.564,-1.71 0.648,-0.882 0.756,-1.53 0.756,-4.446 z"
   id="text17"
   class="key"
   style="font-size:18px;font-family:Arial;text-align:center;text-anchor:middle;fill:#111111;stroke-width:0.75"
   aria-label="∪" />&#10;    </g>&#10;&#10;    <!-- index finger column -->&#10;    <g
   transform="translate(144,0)"
   id="g21">&#10;      <use
   xlink:href="#basekey"
   y="0"
   class="l2"
   id="use17" />&#10;      <use
   xlink:href="#basekey"
   y="36"
   class="l2"
   id="use18" />&#10;      <use
   xlink:href="#basekey"
   y="72"
   class="l2"
   id="use19" />&#10;&#10;      <path
   d="m 17.916996,14.944 h -3.834 l -1.332,-3.33 h -1.692 l 4.194,10.386 h 1.494 l 4.194,-10.386 h -1.692 z m -0.558,1.44 -1.368,3.24 -1.35,-3.24 z"
   id="text19"
   class="key"
   style="font-size:18px;font-family:Arial;text-align:center;text-anchor:middle;fill:#111111;stroke-width:0.75"
   aria-label="∀" />&#10;      <path
   d="m 13.102002,58 h 5.85 V 47.614 h -5.85 v 1.512 h 4.338 v 2.916 h -4.338 v 1.512 h 4.338 v 2.934 h -4.338 z"
   id="text20"
   class="key nubkey"
   style="font-size:18px;font-family:Arial;text-align:center;text-anchor:middle;fill:#111111;stroke-width:0.75"
   aria-label="∃" />&#10;      <path
   d="m 11.974609,94.017578 v -4.5 q 0,-1.318359 0.509766,-2.364258 0.509766,-1.054687 1.423828,-1.634765 0.922852,-0.588868 2.06543,-0.588868 1.151367,0 2.074219,0.580079 0.93164,0.580078 1.450195,1.643554 0.527344,1.063477 0.527344,2.364258 v 4.5 H 19.120117 V 89.5 q 0,-1.669922 -0.861328,-2.671875 -0.861328,-1.001953 -2.267578,-1.001953 -1.423828,0 -2.267578,0.993164 -0.84375,0.993164 -0.84375,2.698242 v 4.5 z"
   id="text21"
   class="key"
   style="font-size:18px;font-family:Arial;text-align:center;text-anchor:middle;fill:#111111;stroke-width:0.75"
   aria-label="∩" />&#10;&#10;      <use
   x="10"
   y="65"
   xlink:href="#nub"
   id="use21" />&#10;    </g>&#10;&#10;    <!-- inner column -->&#10;    <g
   transform="translate(180,0)"
   id="g26">&#10;      <use
   xlink:href="#basekey"
   y="0"
   class="l2"
   id="use22" />&#10;      <use
   xlink:href="#basekey"
   y="36"
   class="l2"
   id="use23" />&#10;      <use
   xlink:href="#basekey"
   y="72"
   class="l2"
   id="use24" />&#10;&#10;      <path
   d="m 18.496094,21.762695 2.33789,2.557617 h -2.144531 l -1.942383,-2.100585 -0.448242,0.02637 q -0.149414,0.0088 -0.290039,0.0088 -2.768555,0 -4.429687,-1.845703 -1.6523442,-1.854493 -1.6523442,-4.957032 0,-3.111328 1.6523442,-4.957031 1.661132,-1.854492 4.429687,-1.854492 2.759766,0 4.412109,1.854492 1.652344,1.845703 1.652344,4.957031 0,2.285157 -0.922851,3.911133 -0.914063,1.625977 -2.654297,2.399414 z m -4.631836,-0.870117 q 0.949219,0.439453 2.144531,0.439453 1.195313,0 2.144531,-0.439453 V 10.00293 q -0.949218,-0.4394534 -2.144531,-0.4394534 -1.195312,0 -2.144531,0.4394534 z m -0.922852,-0.571289 v -9.738281 q -0.316406,0.254883 -0.597656,0.580078 -1.362305,1.599609 -1.362305,4.289062 0,2.689454 1.362305,4.280274 0.28125,0.325195 0.597656,0.588867 z m 6.134766,-9.729492 v 9.711914 q 0.307617,-0.254883 0.580078,-0.571289 1.362305,-1.59961 1.362305,-4.280274 0,-2.689453 -1.362305,-4.289062 -0.272461,-0.316406 -0.580078,-0.571289 z"
   id="text24"
   class="key"
   style="font-size:18px;font-family:Arial;text-align:center;text-anchor:middle;fill:#111111;stroke-width:0.75"
   aria-label="ℚ" />&#10;      <path
   d="M 20.806,54.112 V 53.014 H 12.49 c 0.108,-1.926 1.116,-2.826 3.078,-2.79 h 5.238 v -1.116 h -5.04 c -1.494,0 -2.124,0.126 -2.79,0.576 -1.17,0.774 -1.782,2.088 -1.782,3.798 0,2.088 0.81,3.582 2.232,4.194 0.612,0.252 1.098,0.324 2.34,0.324 h 5.04 V 56.884 H 15.568 C 13.606,56.92 12.598,56.02 12.49,54.112 Z"
   id="text25"
   class="key"
   style="font-size:18px;font-family:Arial;text-align:center;text-anchor:middle;fill:#111111;stroke-width:0.75"
   aria-label="∈" />&#10;      <path
   d="m 20.806,92.884 h -5.238 c -2.178,0 -3.114,-0.99 -3.114,-3.33 0,-2.322 0.936,-3.33 3.114,-3.33 h 5.238 v -1.116 h -5.04 c -1.494,0 -2.124,0.126 -2.79,0.576 -1.17,0.774 -1.782,2.07 -1.782,3.798 0,2.07 0.81,3.582 2.232,4.194 0.612,0.252 1.098,0.324 2.34,0.324 h 5.04 z"
   id="text26"
   class="key"
   style="font-size:18px;font-family:Arial;text-align:center;text-anchor:middle;fill:#111111;stroke-width:0.75"
   aria-label="⊂" />&#10;    </g>&#10;&#10;    <!-- thump cluster -->&#10;    <g
   transform="translate(144, 114)"
   id="g31">&#10;      <g
   transform="rotate(0)"
   id="g30">&#10;        <use
   xlink:href="#basekey"
   x="0"
   class="key grey pressed"
   id="use26" />&#10;        <path
   d="m 15.724121,20 v -4.589844 q 0,-0.761718 0.04394,-1.464843 -0.239257,0.874023 -0.429687,1.367187 L 13.561035,20 h -0.654297 l -1.801758,-4.6875 -0.273437,-0.830078 -0.161133,-0.537109 0.01465,0.541992 0.01953,0.922851 V 20 H 9.8745117 v -6.879883 h 1.2255863 l 1.831054,4.770508 q 0.09766,0.288086 0.185547,0.620117 0.09277,0.327149 0.122071,0.473633 0.03906,-0.195313 0.161132,-0.59082 0.126953,-0.400391 0.170899,-0.50293 l 1.796875,-4.770508 h 1.196289 V 20 Z m 5.961914,-1.557617 V 20 H 20.855957 V 18.442383 H 17.61377 v -0.683594 l 3.149414,-4.638672 h 0.922851 v 4.628906 h 0.966797 v 0.69336 z m -0.830078,-4.331055 q -0.0098,0.0293 -0.136719,0.258789 -0.126953,0.229492 -0.190429,0.322266 l -1.762696,2.597656 -0.263672,0.361328 -0.07813,0.09766 h 2.431641 z"
   id="m4ltxt"
   class="mod"
   style="font-size:10px;font-family:Arial;text-align:center;text-anchor:middle;fill:#111111"
   aria-label="M4" />&#10;        <g
   transform="translate(36, 0) rotate(0)"
   id="g29">&#10;          <use
   xlink:href="#basekey"
   x="0"
   class="key grey"
   id="use27" />&#10;          <path
   d="M 17.298828,14.453125 16,13.154297 14.701172,14.453125 h 0.639648 v 5.058594 h 1.31836 V 14.453125 Z M 13.519531,14.941406 16,12.460938 18.480469,14.941406 H 17.147461 V 20 h -2.294922 v -5.058594 z"
   id="shiftltxt"
   class="mod"
   style="font-size:10px;font-family:Arial;text-align:center;text-anchor:middle;fill:#111111"
   aria-label="⇧" />&#10;          <g
   transform="translate(36, 0) rotate(0)"
   id="g28">&#10;            <use
   xlink:href="#basekey"
   x="0"
   class="l1"
   id="use28" />&#10;            <path
   d="m 12.381836,16.450195 h 5.087891 l -1.142579,-1.142578 0.585938,-0.585937 1.923828,1.923828 v -1.875 h 0.830078 v 4.199219 h -0.830078 v -1.884766 l -1.923828,1.923828 -0.585938,-0.585937 1.142579,-1.142579 h -5.087891 z"
   id="text28"
   class="mod"
   style="font-size:10px;font-family:Arial;text-align:center;text-anchor:middle;fill:#111111"
   aria-label="⇥" />&#10;          </g>&#10;        </g>&#10;      </g>&#10;    </g>&#10;  </g>&#10;&#10;&#10;&#10;&#10;  <g
   transform="translate(310,0)"
   id="g61">&#10;&#10;    <!-- thumb-cluster -->&#10;    <g
   transform="translate(36, 114)"
   id="g37">&#10;      <g
   transform="rotate(0, 36, 0)"
   id="g36">&#10;        <use
   xlink:href="#basekey"
   x="0"
   class="key grey pressed"
   id="use32" />&#10;        <path
   d="m 15.724121,20 v -4.589844 q 0,-0.761718 0.04394,-1.464843 -0.239257,0.874023 -0.429687,1.367187 L 13.561035,20 h -0.654297 l -1.801758,-4.6875 -0.273437,-0.830078 -0.161133,-0.537109 0.01465,0.541992 0.01953,0.922851 V 20 H 9.8745117 v -6.879883 h 1.2255863 l 1.831054,4.770508 q 0.09766,0.288086 0.185547,0.620117 0.09277,0.327149 0.122071,0.473633 0.03906,-0.195313 0.161132,-0.59082 0.126953,-0.400391 0.170899,-0.50293 l 1.796875,-4.770508 h 1.196289 V 20 Z m 5.961914,-1.557617 V 20 H 20.855957 V 18.442383 H 17.61377 v -0.683594 l 3.149414,-4.638672 h 0.922851 v 4.628906 h 0.966797 v 0.69336 z m -0.830078,-4.331055 q -0.0098,0.0293 -0.136719,0.258789 -0.126953,0.229492 -0.190429,0.322266 l -1.762696,2.597656 -0.263672,0.361328 -0.07813,0.09766 h 2.431641 z"
   id="m4rtxt"
   class="mod"
   style="font-size:10px;font-family:Arial;text-align:center;text-anchor:middle;fill:#111111"
   aria-label="M4" />&#10;        <g
   transform="translate(-36, 0) rotate(0, 36, 0)"
   id="g35">&#10;          <use
   xlink:href="#basekey"
   x="0"
   class="l1"
   id="use33" />&#10;          <path
   d="m 14.359375,21.445312 h 3.28125 v -2.460937 h 0.820312 v 3.291016 h -4.921874 v -3.291016 h 0.820312 z"
   id="text33"
   class="mod space"
   style="font-size:10px;font-family:Arial;text-align:center;text-anchor:middle;fill:#111111"
   aria-label="␣" />&#10;          <g
   transform="translate(-36, 0) rotate(0, 36, 0)"
   id="g34">&#10;            <use
   xlink:href="#basekey"
   x="0"
   class="l1"
   id="use34" />&#10;            <path
   d="m 14.55957,19.345703 -2.480468,-2.480469 2.480468,-2.480468 v 1.333007 h 2.768555 v -3.007812 h 2.294922 l -0.0049,5.302734 H 14.55957 Z m -0.488281,-3.139648 v -0.639649 l -1.298828,1.298828 1.298828,1.298828 v -0.639648 h 5.058594 l 0.0049,-4.326172 h -1.31836 l -0.0049,3.007813 z"
   id="returntxt"
   class="mod"
   style="font-size:10px;font-family:Arial;text-align:center;text-anchor:middle;fill:#111111"
   aria-label="⏎" />&#10;          </g>&#10;        </g>&#10;      </g>&#10;    </g>&#10;&#10;    <!-- inner column -->&#10;    <g
   transform="translate(0,0)"
   id="g41">&#10;      <use
   xlink:href="#basekey"
   y="0"
   class="l2"
   id="use37" />&#10;      <use
   xlink:href="#basekey"
   y="36"
   class="l2"
   id="use38" />&#10;      <use
   xlink:href="#basekey"
   y="72"
   class="l2"
   id="use39" />&#10;&#10;      <path
   d="M 19.353027,22 V 11.03125 H 12.655762 V 22 H 10.977051 V 9.6162109 H 21.031738 V 22 Z"
   id="text39"
   class="key"
   style="font-size:18px;font-family:Arial;text-align:center;text-anchor:middle;fill:#111111;stroke-width:0.75"
   aria-label="Π" />&#10;      <path
   d="m 15.077148,45.616211 h 1.907227 l 4.482422,11.144531 V 58 H 10.524414 l 0.0088,-1.239258 z m 4.631836,11.012695 -2.970703,-7.576172 q -0.263672,-0.65039 -0.492187,-1.353515 -0.219727,-0.711914 -0.237305,-0.817383 l -0.0791,0.28125 q -0.272461,0.975586 -0.650391,1.907226 l -2.979492,7.558594 z"
   id="text40"
   class="key"
   style="font-size:18px;font-family:Arial;text-align:center;text-anchor:middle;fill:#111111;stroke-width:0.75"
   aria-label="Δ" />&#10;      <path
   d="m 15.995605,81.431641 q 2.663086,0 4.183594,1.476562 1.529297,1.467774 1.529297,4.051758 0,1.766601 -0.949219,3.260742 -0.940429,1.494141 -2.777343,2.504883 l 0.711914,-0.04395 1.116211,-0.05273 H 21.95459 V 94 h -5.176758 v -1.96875 q 1.573242,-0.834961 2.390625,-2.083008 0.826172,-1.256836 0.826172,-2.874023 0,-2.039063 -1.045899,-3.155274 -1.045898,-1.116211 -2.944335,-1.116211 -1.916016,0 -2.961915,1.116211 -1.045898,1.116211 -1.045898,3.155274 0,1.608398 0.817383,2.865234 0.817383,1.248047 2.399414,2.091797 V 94 h -5.176758 v -1.371094 h 2.144531 l 1.116211,0.05273 0.711914,0.04395 q -1.828125,-0.993164 -2.777343,-2.487305 -0.949219,-1.502929 -0.949219,-3.27832 0,-2.583984 1.520508,-4.051758 1.529297,-1.476562 4.192382,-1.476562 z"
   id="text41"
   class="key"
   style="font-size:18px;font-family:Arial;text-align:center;text-anchor:middle;fill:#111111;stroke-width:0.75"
   aria-label="Ω" />&#10;    </g>&#10;&#10;&#10;    <!-- index finger column -->&#10;    <g
   transform="translate(36,0)"
   id="g45">&#10;      <use
   xlink:href="#basekey"
   y="0"
   class="r2"
   id="use41" />&#10;      <use
   xlink:href="#basekey"
   y="36"
   class="r2"
   id="use42" />&#10;      <use
   xlink:href="#basekey"
   y="72"
   class="r2"
   id="use43" />&#10;&#10;      <path
   d="m 19.9375,13.755859 q 0,1.388672 -0.316406,3.049805 -0.316407,1.652344 -0.966797,2.900391 -0.641602,1.239257 -1.582031,1.889648 -0.94043,0.641602 -2.100586,0.641602 -1.415039,0 -2.170899,-0.887696 -0.755859,-0.896484 -0.755859,-2.478515 0,-1.458985 0.553711,-2.856446 0.5625,-1.39746 1.467773,-2.118164 0.905274,-0.720703 2.012696,-0.720703 0.738281,0 1.318359,0.439453 0.588867,0.430664 0.870117,1.168946 h 0.03516 l 0.03516,-1.028321 q 0,-1.722656 -0.571289,-2.636718 -0.57129,-0.922852 -1.705079,-0.922852 -0.46582,0 -1.010742,0.175781 -0.536133,0.175782 -0.940429,0.483399 l 0.316406,-1.2919924 q 0.993164,-0.5449219 1.977539,-0.5449219 1.713867,0 2.61914,1.2304683 0.914063,1.230469 0.914063,3.506836 z m -1.854492,2.267578 Q 17.933594,15.25 17.450195,14.749023 q -0.474609,-0.509765 -1.081054,-0.509765 -0.711914,0 -1.300782,0.580078 -0.588867,0.580078 -0.975586,1.731445 -0.377929,1.142578 -0.377929,2.302735 0,1.010742 0.395508,1.599609 0.395507,0.588867 1.116211,0.588867 0.685546,0 1.274414,-0.65918 0.597656,-0.667968 1.010742,-1.836914 0.421875,-1.177734 0.571289,-2.522461 z"
   id="text43"
   class="key"
   style="font-size:18px;font-family:Arial;text-align:center;text-anchor:middle;fill:#111111;stroke-width:0.75"
   aria-label="∂" />&#10;      <path
   d="m 10.573007,46.66 4.626,11.34 h 1.584 l 4.662,-11.34 z m 5.418,9.504 -3.276,-8.19 h 6.57 z"
   id="text44"
   class="key nubkey"
   style="font-size:18px;font-family:Arial;text-align:center;text-anchor:middle;fill:#111111;stroke-width:0.75"
   aria-label="∇" />&#10;      <path
   d="m 20.456055,81.607422 v 1.371094 H 14.198242 V 93.991211 H 12.519531 V 81.607422 Z"
   id="text45"
   class="key"
   style="font-size:18px;font-family:Arial;text-align:center;text-anchor:middle;fill:#111111;stroke-width:0.75"
   aria-label="Γ" />&#10;&#10;      <use
   x="10"
   y="65"
   xlink:href="#nub"
   id="use45" />&#10;    </g>&#10;&#10;    <!-- middle finger column -->&#10;    <g
   transform="translate(72,0)"
   id="g50">&#10;      <use
   xlink:href="#basekey"
   y="0"
   class="r3"
   id="use46" />&#10;      <use
   xlink:href="#basekey"
   y="36"
   class="r3"
   id="use47" />&#10;      <use
   xlink:href="#basekey"
   y="72"
   class="r3"
   id="use48" />&#10;&#10;      <path
   d="m 20.201172,17.104492 h -9.219727 v 3.032227 H 9.4873047 v -7.558594 h 1.4941403 v 3.032227 h 9.219727 L 18.15332,13.5625 l 1.054688,-1.054687 3.454101,3.454101 v 0.791016 l -3.454101,3.454101 -1.054688,-1.054687 z"
   id="text48"
   class="key"
   style="font-size:18px;font-family:Arial;text-align:center;text-anchor:middle;fill:#111111;stroke-width:0.75"
   aria-label="↦" />&#10;      <path
   d="M 20.324219,57.121094 13.767578,45.756836 h -2.091797 l 6.556641,11.364258 z M 10.533203,44.87793 h 3.726563 l 6.328125,10.977539 V 44.87793 h 0.878906 V 58 H 17.740234 L 11.412109,47.022461 V 58 h -0.878906 z"
   id="text49"
   class="key"
   style="font-size:18px;font-family:Arial;text-align:center;text-anchor:middle;fill:#111111;stroke-width:0.75"
   aria-label="ℕ" />&#10;      <path
   d="m 10.923999,88.69 1.476,-1.278 h 9.936 v -0.756 h -9.054 l 1.08,-0.936 V 84.676 L 9.6459989,88.69 14.361999,92.686 V 91.66 l -1.08,-0.936 h 9.054 v -0.756 h -9.936 z"
   id="text50"
   class="key"
   style="font-size:18px;font-family:Arial;text-align:center;text-anchor:middle;fill:#111111;stroke-width:0.75"
   aria-label="⇐" />&#10;    </g>&#10;&#10;    <!-- ring finger colummn -->&#10;    <g
   transform="translate(108,0)"
   id="g54">&#10;      <use
   xlink:href="#basekey"
   y="0"
   class="r4"
   id="use50" />&#10;      <use
   xlink:href="#basekey"
   y="36"
   class="r4"
   id="use51" />&#10;      <use
   xlink:href="#basekey"
   y="72"
   class="r4"
   id="use52" />&#10;&#10;      <path
   d="m 21.923828,21.991211 h -1.766601 l -3.410157,-8.71875 -0.738281,-2.188477 -0.738281,2.188477 -3.427735,8.71875 H 10.076172 L 15.129883,9.6074219 h 1.740234 z"
   id="text52"
   class="key"
   style="font-size:18px;font-family:Arial;text-align:center;text-anchor:middle;fill:#111111;stroke-width:0.75"
   aria-label="Λ" />&#10;      <path
   d="M 20.078125,54.633789 Q 19.410156,53.306641 18.8125,52.884766 18.206055,52.454102 17.151367,52.454102 h -0.395508 q 0.676758,0.413085 1.564453,2.179687 l 1.256836,2.487305 h 1.749024 z m -1.072266,-2.707031 q 0.465821,0.219726 0.958008,0.799804 0.500977,0.580079 1.045899,1.6875 L 22.811523,58 H 18.944336 L 17.265625,54.633789 Q 16.615234,53.31543 16,52.884766 15.393555,52.454102 14.338867,52.454102 H 14.163086 V 58 H 10.629883 V 44.87793 h 5.967773 q 2.25,0 3.357422,0.940429 1.107422,0.94043 1.107422,2.838868 0,1.828125 -1.02832,2.689453 -0.430664,0.360351 -1.028321,0.580078 z m -4.842773,-6.169922 v 5.818359 h 2.856445 q 0.210938,0 0.413086,-0.01758 v -5.783203 q -0.202148,-0.01758 -0.413086,-0.01758 z m 4.192383,0.202148 v 5.405274 q 0.571289,-0.19336 0.949218,-0.553711 0.791016,-0.75586 0.791016,-2.15332 0,-1.397461 -0.782226,-2.144532 -0.369141,-0.360351 -0.958008,-0.553711 z m -6.84668,-0.202148 V 57.121094 H 13.28418 V 45.756836 Z"
   id="text53"
   class="key"
   style="font-size:18px;font-family:Arial;text-align:center;text-anchor:middle;fill:#111111;stroke-width:0.75"
   aria-label="ℝ" />&#10;      <path
   d="m 11.921875,89.754883 0.817383,0.729492 h 6.662109 l 0.826172,-0.74707 -0.878906,-0.711914 -6.635742,0.02637 z m 1.151367,1.283203 q 0.307617,0.430664 0.606446,0.852539 h -0.632813 q -1.116211,-1.30957 -2.373047,-1.951172 v -0.316406 q 1.256836,-0.641602 2.373047,-1.951172 h 0.632813 q -0.298829,0.421875 -0.606446,0.852539 h 5.853516 Q 18.619141,88.09375 18.320312,87.671875 h 0.632813 q 1.116211,1.30957 2.373047,1.951172 v 0.316406 q -1.256836,0.641602 -2.373047,1.951172 h -0.632813 q 0.351563,-0.421875 0.694336,-0.852539 z"
   id="text54"
   class="key"
   style="font-size:18px;font-family:Arial;text-align:center;text-anchor:middle;fill:#111111;stroke-width:0.75"
   aria-label="⇔" />&#10;    </g>&#10;&#10;&#10;    <!-- pinky finger column -->&#10;    <g
   transform="translate(144,0)"
   id="g58">&#10;      <use
   xlink:href="#basekey"
   y="0"
   class="r5"
   id="use54" />&#10;      <use
   xlink:href="#basekey"
   y="36"
   class="r5"
   id="use55" />&#10;      <use
   xlink:href="#basekey"
   y="72"
   class="r5"
   id="use56" />&#10;&#10;      <path
   d="m 22.161133,15.53125 q 0,1.344727 -0.5625,2.390625 -0.553711,1.037109 -1.59961,1.608398 -1.045898,0.571289 -2.452148,0.571289 h -0.729492 v 1.995118 h -1.625977 v -1.995118 h -0.729492 q -1.415039,0 -2.460937,-0.571289 -1.045899,-0.580078 -1.59961,-1.617187 -0.5537107,-1.045899 -0.5537107,-2.381836 0,-2.091797 1.2216797,-3.243164 1.230469,-1.160156 3.489258,-1.160156 h 0.632812 V 9.5283203 h 1.625977 V 11.12793 h 0.624023 q 2.267578,0 3.489258,1.160156 1.230469,1.160156 1.230469,3.243164 z m -1.6875,0.03516 q 0,-3.225586 -3.234375,-3.225586 h -0.421875 v 6.556641 h 0.492187 q 1.529297,0 2.34668,-0.84375 0.817383,-0.84375 0.817383,-2.487305 z m -8.938477,0 q 0,1.643555 0.817383,2.487305 0.817383,0.84375 2.34668,0.84375 h 0.492187 V 12.34082 h -0.457031 q -1.599609,0 -2.399414,0.791016 -0.799805,0.791016 -0.799805,2.43457 z"
   id="text56"
   class="key"
   style="font-size:18px;font-family:Arial;text-align:center;text-anchor:middle;fill:#111111;stroke-width:0.75"
   aria-label="Φ" />&#10;      <path
   d="M 15.187012,58 V 54.24707 H 14.45752 q -1.41504,0 -2.487305,-0.571289 Q 10.897949,53.095703 10.32666,52.058594 9.7553711,51.012695 9.7553711,49.685547 v -4.069336 h 1.6787109 v 4.104492 q 0,1.511719 0.870117,2.399414 0.878906,0.887695 2.390625,0.887695 h 0.492188 v -7.391601 h 1.625976 v 7.391601 h 0.492188 q 1.546875,0 2.399414,-0.870117 0.861328,-0.878906 0.861328,-2.416992 v -4.104492 h 1.678711 v 4.069336 q 0,1.30957 -0.580078,2.355469 -0.571289,1.045898 -1.643555,1.625976 Q 18.95752,54.24707 17.54248,54.24707 H 16.812988 V 58 Z"
   id="text57"
   class="key"
   style="font-size:18px;font-family:Arial;text-align:center;text-anchor:middle;fill:#111111;stroke-width:0.75"
   aria-label="Ψ" />&#10;      <path
   d="m 21.075999,88.69 -1.476,1.278 H 9.6639989 v 0.756 h 9.0540001 l -1.08,0.936 v 1.026 l 4.716,-3.996 -4.716,-4.014 v 1.044 l 1.08,0.936 H 9.6639989 v 0.756 h 9.9360001 z"
   id="text58"
   class="key"
   style="font-size:18px;font-family:Arial;text-align:center;text-anchor:middle;fill:#111111;stroke-width:0.75"
   aria-label="⇒" />&#10;    </g>&#10;&#10;&#10;    <!-- outer column -->&#10;    <g
   transform="translate(180,0)"
   id="g60">&#10;      <use
   xlink:href="#basekey"
   y="0"
   class="r5"
   id="use58" />&#10;      <use
   xlink:href="#basekey"
   y="36"
   class="key grey pressed"
   id="m3r" />&#10;      <use
   xlink:href="#basekey"
   y="72"
   class="key grey"
   id="use59" />&#10;&#10;      <path
   d="m 16,14.678711 q -0.703125,0 -1.186523,0.492187 -0.483399,0.483399 -0.483399,1.186524 0,0.694336 0.483399,1.177734 0.483398,0.47461 1.186523,0.47461 0.703125,0 1.186523,-0.47461 0.483399,-0.483398 0.483399,-1.177734 0,-0.694336 -0.492188,-1.186524 Q 16.694336,14.678711 16,14.678711 Z m 0,-1.133789 q 0.5625,0 1.081055,0.219726 0.518554,0.210938 0.896484,0.615235 0.404297,0.395508 0.606445,0.896484 0.202149,0.500977 0.202149,1.081055 0,1.160156 -0.817383,1.96875 -0.808594,0.799805 -1.986328,0.799805 -1.186524,0 -1.977539,-0.791016 -0.791016,-0.791016 -0.791016,-1.977539 0,-1.177734 0.808594,-1.995117 Q 14.831055,13.544922 16,13.544922 Z"
   id="text59"
   class="key"
   style="font-size:18px;font-family:Arial;text-align:center;text-anchor:middle;fill:#111111;stroke-width:0.75"
   aria-label="∘" />&#10;      <path
   d="m 15.724121,56 v -4.589844 q 0,-0.761719 0.04394,-1.464844 -0.239257,0.874024 -0.429687,1.367188 L 13.561035,56 h -0.654297 l -1.801758,-4.6875 -0.273437,-0.830078 -0.161133,-0.53711 0.01465,0.541993 0.01953,0.922851 V 56 H 9.8745117 v -6.879883 h 1.2255863 l 1.831054,4.770508 q 0.09766,0.288086 0.185547,0.620117 0.09277,0.327149 0.122071,0.473633 0.03906,-0.195313 0.161132,-0.59082 0.126953,-0.400391 0.170899,-0.50293 l 1.796875,-4.770508 h 1.196289 V 56 Z m 6.782227,-1.899414 q 0,0.952148 -0.605469,1.474609 -0.605469,0.522461 -1.728516,0.522461 -1.044922,0 -1.669922,-0.46875 -0.620117,-0.473633 -0.737304,-1.396484 l 0.908203,-0.08301 q 0.175781,1.220703 1.499023,1.220703 0.664063,0 1.040039,-0.327148 0.38086,-0.327149 0.38086,-0.97168 0,-0.561523 -0.434571,-0.874023 -0.429687,-0.317383 -1.245117,-0.317383 h -0.498047 v -0.761719 h 0.478516 q 0.722656,0 1.118164,-0.3125 0.400391,-0.317383 0.400391,-0.874023 0,-0.551758 -0.327149,-0.869141 -0.322265,-0.322266 -0.961914,-0.322266 -0.581055,0 -0.942383,0.297852 -0.356445,0.297851 -0.415039,0.839844 l -0.883789,-0.06836 q 0.09766,-0.844726 0.698242,-1.318359 0.605469,-0.473633 1.552735,-0.473633 1.035156,0 1.606445,0.483399 0.576172,0.478515 0.576172,1.33789 0,0.65918 -0.371094,1.074219 -0.366211,0.410156 -1.069336,0.556641 v 0.01953 q 0.771485,0.08301 1.201172,0.517578 0.429688,0.43457 0.429688,1.09375 z"
   id="m3rtxt"
   class="mod"
   style="font-size:10px;font-family:Arial;text-align:center;text-anchor:middle;fill:#111111"
   aria-label="M3" />&#10;      <path
   d="m 11.554199,92 v -4.589844 q 0,-0.761719 0.04395,-1.464844 -0.239258,0.874024 -0.429688,1.367188 L 9.3911133,92 H 8.7368164 l -1.8017578,-4.6875 -0.2734375,-0.830078 -0.1611328,-0.53711 0.014648,0.541993 0.019531,0.922851 V 92 H 5.7045898 v -6.879883 h 1.225586 l 1.8310547,4.770508 q 0.097656,0.288086 0.1855468,0.620117 0.092773,0.327149 0.1220704,0.473633 0.039063,-0.195313 0.1611328,-0.59082 0.1269531,-0.400391 0.1708984,-0.50293 l 1.7968751,-4.770508 h 1.196289 V 92 Z m 3.007813,-2.456055 q 0,0.908203 0.375976,1.401367 0.375977,0.493165 1.098633,0.493165 0.571289,0 0.913086,-0.229493 0.34668,-0.229492 0.46875,-0.581054 l 0.771484,0.219726 q -0.473632,1.25 -2.15332,1.25 -1.171875,0 -1.787109,-0.698242 -0.610352,-0.698242 -0.610352,-2.075195 0,-1.308594 0.610352,-2.006836 0.615234,-0.698242 1.752929,-0.698242 2.329102,0 2.329102,2.807617 v 0.117187 z m 2.861328,-0.673828 q -0.07324,-0.834961 -0.424805,-1.21582 -0.351562,-0.385742 -1.010742,-0.385742 -0.639648,0 -1.015625,0.429687 -0.371094,0.424805 -0.400391,1.171875 z m 4.057617,3.09082 q -0.43457,0.117188 -0.888672,0.117188 -1.054687,0 -1.054687,-1.196289 v -3.525391 h -0.610352 v -0.639648 h 0.644531 l 0.258789,-1.181641 h 0.585938 v 1.181641 h 0.976562 v 0.639648 h -0.976562 v 3.334961 q 0,0.38086 0.12207,0.53711 0.126953,0.151367 0.434571,0.151367 0.175781,0 0.507812,-0.06836 z m 2.094727,0.136719 q -0.795899,0 -1.196289,-0.419922 -0.400391,-0.419922 -0.400391,-1.152343 0,-0.820313 0.537109,-1.259766 0.541992,-0.439453 1.743164,-0.46875 l 1.186524,-0.01953 v -0.288086 q 0,-0.644531 -0.273438,-0.922852 -0.273437,-0.27832 -0.859375,-0.27832 -0.59082,0 -0.859375,0.200195 -0.268554,0.200196 -0.322265,0.639649 l -0.917969,-0.08301 q 0.224609,-1.425781 2.119141,-1.425781 0.996093,0 1.499023,0.458984 0.50293,0.454102 0.50293,1.318359 v 2.275391 q 0,0.390625 0.102539,0.59082 0.102539,0.195313 0.390625,0.195313 0.126953,0 0.288086,-0.03418 v 0.546875 q -0.332032,0.07813 -0.678711,0.07813 -0.488282,0 -0.712891,-0.253906 -0.219726,-0.258789 -0.249023,-0.805664 h -0.0293 q -0.336914,0.605469 -0.786133,0.859375 -0.444336,0.249023 -1.083984,0.249023 z m 0.200195,-0.659179 q 0.483398,0 0.859375,-0.219727 0.375976,-0.219727 0.59082,-0.600586 0.219727,-0.385742 0.219727,-0.791016 v -0.43457 l -0.961914,0.01953 q -0.620117,0.0098 -0.942383,0.126953 -0.317383,0.117188 -0.488281,0.361329 -0.170899,0.24414 -0.170899,0.639648 0,0.429688 0.229492,0.664063 0.234375,0.234375 0.664063,0.234375 z"
   id="text60"
   class="mod"
   style="font-size:10px;font-family:Arial;text-align:center;text-anchor:middle;fill:#111111"
   aria-label="Meta" />&#10;    </g>&#10;  </g>&#10;</g>&#10;&#10;</svg>
