<?xml version="1.0" encoding="UTF-8" standalone="no"?>
<svg
   version="1.1"
   id="Ebene_1"
   height="153"
   width="530"
   viewBox="0 0 530 153"
   enable-background="new 0 0 535 0"
   xml:space="preserve"
   inkscape:export-xdpi="90"
   inkscape:export-ydpi="90"
   sodipodi:docname="noted-Pseudoebene-tkl.svg"
   xmlns:inkscape="http://www.inkscape.org/namespaces/inkscape"
   xmlns:sodipodi="http://sodipodi.sourceforge.net/DTD/sodipodi-0.dtd"
   xmlns:xlink="http://www.w3.org/1999/xlink"
   xmlns="http://www.w3.org/2000/svg"
   xmlns:svg="http://www.w3.org/2000/svg"
   xmlns:rdf="http://www.w3.org/1999/02/22-rdf-syntax-ns#"
   xmlns:cc="http://creativecommons.org/ns#"
   xmlns:dc="http://purl.org/dc/elements/1.1/">&#10;&#10;  <metadata
   id="metadata135">&#10;    <rdf:RDF>&#10;      <cc:Work
   rdf:about="">&#10;        <dc:format>image/svg+xml</dc:format>&#10;        <dc:type
   rdf:resource="http://purl.org/dc/dcmitype/StillImage" />&#10;        <dc:title />&#10;      </cc:Work>&#10;    </rdf:RDF>&#10;  </metadata>&#10;&#10;<defs
   id="defs">&#10;  <style
   type="text/css"
   id="style46661">&#10;  text.mod, text.key, text.dead {&#10;    fill:#111;&#10;    fill-opacity:1;&#10;      stroke:none;&#10;      font-style:normal;&#10;      font-variant:normal;&#10;      font-weight:normal;&#10;      font-stretch:normal;&#10;      display:inline;&#10;      font-family:Arial;&#10;      writing-mode:lr-tb;&#10;  }&#10;&#10;  text.key {&#10;      font-family:Arial;&#10;  }&#10;&#10;  text.dead {&#10;      font-family: Gentium Plus Compact;&#10;  }&#10;&#10;  text.space, text.dead, text.center, text.key, text.mod {&#10;      text-align:center;&#10;      text-anchor:middle;&#10;  }&#10;&#10;  text.key { font-size:18px; }&#10;  text.dead { font-size:18px; }&#10;  text.mod { font-size:10px; }&#10;  text.big { font-size:12px; }&#10;&#10;  .key {&#10;  stroke-width:0.75;&#10;  }&#10;&#10;  .grey { fill:#949494; stroke:#696969; }&#10;  .grey { fill:#9f9f9f; stroke:#747474; }&#10;&#10;  .numpad { fill:#afaa9f; stroke:#747474; }&#10;&#10;  /* bootstrap colors */&#10;  .l5, .r5 { fill:#93CCEA; }&#10;  .l4, .r4 { fill:#7abeb3; }&#10;  .l3, .r3 { fill:#63b280; }&#10;  .l2, .r2 { fill:#4aa44a; }&#10;  .l1, .r1 { fill:#4aa44a; }&#10;&#10;  /* btn bg hover, unused */&#10;  .l2, .r2 { stroke:#3071a9; }&#10;  .l3, .r3 { stroke:#449d44; }&#10;  .l4, .r4 { stroke:#c9302c; }&#10;  .l5, .r5 { stroke:#ec971f; }&#10;&#10;  /* btn border hover */&#10;  .l1, .r1 { stroke:#204d74; }&#10;  .l2, .r2 { stroke:#204d74; }&#10;  .l3, .r3 { stroke:#204d74; }&#10;  .l4, .r4 { stroke:#204d74; }&#10;  .l5, .r5 { stroke:#204d74; }&#10;&#10;  <!-- rect.nubkey, text.nubkey { fill:#eee; } -->&#10;&#10;  .pressed {&#10;    <!--opacity:0.5;-->&#10;    fill:#777;&#10;  }&#10;  </style>&#10;&#10;  <g
   id="basekey">&#10;    <rect
   width="32"
   height="32"
   rx="4"
   class="key"
   id="rect1" />&#10;  </g>&#10;&#10;  <g
   id="nub">&#10;    <rect
   width="14"
   height="1"
   rx="1"
   class="nubkey"
   id="rect2" />&#10;  </g>&#10;&#10;</defs>&#10;<sodipodi:namedview
   pagecolor="#ffffff"
   bordercolor="#666666"
   borderopacity="1"
   objecttolerance="10"
   gridtolerance="10"
   guidetolerance="10"
   inkscape:pageopacity="0"
   inkscape:pageshadow="2"
   inkscape:window-width="1614"
   inkscape:window-height="969"
   id="base"
   showgrid="false"
   inkscape:zoom="0.70961538"
   inkscape:cx="685.32105"
   inkscape:cy="241.15395"
   inkscape:window-x="78"
   inkscape:window-y="71"
   inkscape:window-maximized="0"
   inkscape:current-layer="Ebene_1"
   inkscape:showpageshadow="2"
   inkscape:pagecheckerboard="0"
   inkscape:deskcolor="#d1d1d1" />&#10;&#10;<rect
   width="100%"
   height="100%"
   rx="4"
   style="fill:#eee"
   id="rect3" />&#10;&#10;<g
   transform="translate(3.5,3.5)"
   id="g62">&#10;&#10;  <g
   transform="translate(0, 0)"
   id="g32">&#10;&#10;    <!-- outer column -->&#10;    <g
   transform="translate(0, 0)"
   id="g5">&#10;      <use
   xlink:href="#basekey"
   y="0"
   class="l5"
   id="use3" />&#10;      <use
   xlink:href="#basekey"
   y="36"
   class="key grey"
   id="m3l" />&#10;      <use
   xlink:href="#basekey"
   y="72"
   class="key grey"
   id="use4" />&#10;&#10;      <text
   x="16"
   y="22"
   class="key"
   id="text4" />&#10;      <path
   d="m 15.724121,56 v -4.589844 q 0,-0.761719 0.04394,-1.464844 -0.239257,0.874024 -0.429687,1.367188 L 13.561035,56 h -0.654297 l -1.801758,-4.6875 -0.273437,-0.830078 -0.161133,-0.53711 0.01465,0.541993 0.01953,0.922851 V 56 H 9.8745117 v -6.879883 h 1.2255863 l 1.831054,4.770508 q 0.09766,0.288086 0.185547,0.620117 0.09277,0.327149 0.122071,0.473633 0.03906,-0.195313 0.161132,-0.59082 0.126953,-0.400391 0.170899,-0.50293 l 1.796875,-4.770508 h 1.196289 V 56 Z m 6.782227,-1.899414 q 0,0.952148 -0.605469,1.474609 -0.605469,0.522461 -1.728516,0.522461 -1.044922,0 -1.669922,-0.46875 -0.620117,-0.473633 -0.737304,-1.396484 l 0.908203,-0.08301 q 0.175781,1.220703 1.499023,1.220703 0.664063,0 1.040039,-0.327148 0.38086,-0.327149 0.38086,-0.97168 0,-0.561523 -0.434571,-0.874023 -0.429687,-0.317383 -1.245117,-0.317383 h -0.498047 v -0.761719 h 0.478516 q 0.722656,0 1.118164,-0.3125 0.400391,-0.317383 0.400391,-0.874023 0,-0.551758 -0.327149,-0.869141 -0.322265,-0.322266 -0.961914,-0.322266 -0.581055,0 -0.942383,0.297852 -0.356445,0.297851 -0.415039,0.839844 l -0.883789,-0.06836 q 0.09766,-0.844726 0.698242,-1.318359 0.605469,-0.473633 1.552735,-0.473633 1.035156,0 1.606445,0.483399 0.576172,0.478515 0.576172,1.33789 0,0.65918 -0.371094,1.074219 -0.366211,0.410156 -1.069336,0.556641 v 0.01953 q 0.771485,0.08301 1.201172,0.517578 0.429688,0.43457 0.429688,1.09375 z"
   id="m3ltxt"
   class="mod"
   style="font-size:10px;font-family:Arial;text-align:center;text-anchor:middle;fill:#111111"
   aria-label="M3" />&#10;      <path
   d="m 11.554199,92 v -4.589844 q 0,-0.761719 0.04395,-1.464844 -0.239258,0.874024 -0.429688,1.367188 L 9.3911133,92 H 8.7368164 l -1.8017578,-4.6875 -0.2734375,-0.830078 -0.1611328,-0.53711 0.014648,0.541993 0.019531,0.922851 V 92 H 5.7045898 v -6.879883 h 1.225586 l 1.8310547,4.770508 q 0.097656,0.288086 0.1855468,0.620117 0.092773,0.327149 0.1220704,0.473633 0.039063,-0.195313 0.1611328,-0.59082 0.1269531,-0.400391 0.1708984,-0.50293 l 1.7968751,-4.770508 h 1.196289 V 92 Z m 3.007813,-2.456055 q 0,0.908203 0.375976,1.401367 0.375977,0.493165 1.098633,0.493165 0.571289,0 0.913086,-0.229493 0.34668,-0.229492 0.46875,-0.581054 l 0.771484,0.219726 q -0.473632,1.25 -2.15332,1.25 -1.171875,0 -1.787109,-0.698242 -0.610352,-0.698242 -0.610352,-2.075195 0,-1.308594 0.610352,-2.006836 0.615234,-0.698242 1.752929,-0.698242 2.329102,0 2.329102,2.807617 v 0.117187 z m 2.861328,-0.673828 q -0.07324,-0.834961 -0.424805,-1.21582 -0.351562,-0.385742 -1.010742,-0.385742 -0.639648,0 -1.015625,0.429687 -0.371094,0.424805 -0.400391,1.171875 z m 4.057617,3.09082 q -0.43457,0.117188 -0.888672,0.117188 -1.054687,0 -1.054687,-1.196289 v -3.525391 h -0.610352 v -0.639648 h 0.644531 l 0.258789,-1.181641 h 0.585938 v 1.181641 h 0.976562 v 0.639648 h -0.976562 v 3.334961 q 0,0.38086 0.12207,0.53711 0.126953,0.151367 0.434571,0.151367 0.175781,0 0.507812,-0.06836 z m 2.094727,0.136719 q -0.795899,0 -1.196289,-0.419922 -0.400391,-0.419922 -0.400391,-1.152343 0,-0.820313 0.537109,-1.259766 0.541992,-0.439453 1.743164,-0.46875 l 1.186524,-0.01953 v -0.288086 q 0,-0.644531 -0.273438,-0.922852 -0.273437,-0.27832 -0.859375,-0.27832 -0.59082,0 -0.859375,0.200195 -0.268554,0.200196 -0.322265,0.639649 l -0.917969,-0.08301 q 0.224609,-1.425781 2.119141,-1.425781 0.996093,0 1.499023,0.458984 0.50293,0.454102 0.50293,1.318359 v 2.275391 q 0,0.390625 0.102539,0.59082 0.102539,0.195313 0.390625,0.195313 0.126953,0 0.288086,-0.03418 v 0.546875 q -0.332032,0.07813 -0.678711,0.07813 -0.488282,0 -0.712891,-0.253906 -0.219726,-0.258789 -0.249023,-0.805664 h -0.0293 q -0.336914,0.605469 -0.786133,0.859375 -0.444336,0.249023 -1.083984,0.249023 z m 0.200195,-0.659179 q 0.483398,0 0.859375,-0.219727 0.375976,-0.219727 0.59082,-0.600586 0.219727,-0.385742 0.219727,-0.791016 v -0.43457 l -0.961914,0.01953 q -0.620117,0.0098 -0.942383,0.126953 -0.317383,0.117188 -0.488281,0.361329 -0.170899,0.24414 -0.170899,0.639648 0,0.429688 0.229492,0.664063 0.234375,0.234375 0.664063,0.234375 z"
   id="text5"
   class="mod"
   style="font-size:10px;font-family:Arial;text-align:center;text-anchor:middle;fill:#111111"
   aria-label="Meta" />&#10;    </g>&#10;&#10;    <!-- pinky finger column -->&#10;    <g
   transform="translate(36, 0)"
   id="g9">&#10;      <use
   xlink:href="#basekey"
   y="0"
   class="l5"
   id="use5" />&#10;      <use
   xlink:href="#basekey"
   y="36"
   class="l5"
   id="use6" />&#10;      <use
   xlink:href="#basekey"
   y="72"
   class="l5"
   id="use7" />&#10;&#10;      <path
   d="m 15.604492,8.8164063 h 0.791016 l 3.445312,3.4628907 -1.054687,1.054687 -2.039063,-2.05664 v 3.251953 h 2.601563 v 1.49414 H 16.74707 v 1.494141 h 2.601563 v 1.494141 H 16.74707 V 22 h -1.49414 v -2.988281 h -2.583985 v -1.494141 h 2.583985 v -1.494141 h -2.583985 v -1.49414 h 2.583985 v -3.251953 l -2.056641,2.05664 -1.054687,-1.054687 z"
   id="text7"
   class="key"
   style="font-size:18px;font-family:Arial;text-align:center;text-anchor:middle;fill:#111111;stroke-width:0.75"
   aria-label="⇞" />&#10;      <path
   d="m 22.635742,44.87793 v 0.870117 H 10.401367 V 58 H 9.53125 V 44.87793 Z m -10.555664,3.102539 0.553711,-0.553711 h 4.886719 v 1.485351 h -2.900391 l 7.576172,7.576172 -1.054687,1.054688 -7.576172,-7.576172 v 2.90039 h -1.485352 z"
   id="text8"
   class="key"
   style="font-size:18px;font-family:Arial;text-align:center;text-anchor:middle;fill:#111111;stroke-width:0.75"
   aria-label="⇱" />&#10;      <path
   d="M 7,94 V 80.324219 H 25 V 94 Z M 8.3007813,81.625 V 92.699219 H 9.5400391 L 15.077148,87.162109 9.5400391,81.625 Z m 12.3222657,0 h -9.228516 l 4.614258,4.614258 z m -9.228516,11.074219 h 9.228516 L 16.008789,88.084961 Z M 22.451172,81.625 l -5.53711,5.537109 5.53711,5.53711 h 1.248047 V 81.625 Z"
   id="text9"
   class="key"
   style="font-size:18px;font-family:Arial;text-align:center;text-anchor:middle;fill:#111111;stroke-width:0.75"
   aria-label="⌧" />&#10;    </g>&#10;&#10;    <!-- ring finger column -->&#10;    <g
   transform="translate(72, 0)"
   id="g13">&#10;      <use
   xlink:href="#basekey"
   y="0"
   class="l4"
   id="use9" />&#10;      <use
   xlink:href="#basekey"
   y="36"
   class="l4"
   id="use10" />&#10;      <use
   xlink:href="#basekey"
   y="72"
   class="l4"
   id="use11" />&#10;&#10;      <path
   d="M 27.355469,22 H 10.120117 L 3.2822266,15.162109 10.120117,8.3242188 H 27.355469 Z M 26.054687,9.625 H 24.81543 l -5.53711,5.537109 5.53711,5.53711 h 1.239257 z m -12.322265,0 4.614258,4.614258 L 22.960937,9.625 Z m 9.228515,11.074219 -4.614257,-4.614258 -4.614258,4.614258 z M 11.904297,9.625 H 10.65625 l -5.5371094,5.554688 5.5371094,5.519531 h 1.248047 l 5.537109,-5.53711 z"
   id="text11"
   class="key"
   style="font-size:18px;font-family:Arial;text-align:center;text-anchor:middle;fill:#111111;stroke-width:0.75"
   aria-label="⌫" />&#10;      <path
   d="m 9.3378906,52.75293 v -0.791016 l 3.4541014,-3.454102 1.054688,1.054688 -2.047852,2.047852 h 3.243164 v 1.49414 h -3.243164 l 2.047852,2.047852 -1.054688,1.054687 z m 7.1982424,0.351562 v -1.49414 h 2.241211 v 1.49414 z m 3.735351,0 v -1.49414 h 2.241211 v 1.49414 z"
   id="text12"
   class="key"
   style="font-size:18px;font-family:Arial;text-align:center;text-anchor:middle;fill:#111111;stroke-width:0.75"
   aria-label="⇠" />&#10;      <path
   d="m 9.4873047,87.610352 h 9.1582033 l -2.056641,-2.056641 1.054688,-1.054688 3.46289,3.462891 v -3.375 h 1.494141 v 7.558594 H 21.106445 V 88.75293 l -3.46289,3.46289 -1.054688,-1.054687 2.056641,-2.056641 H 9.4873047 Z"
   id="text13"
   class="key"
   style="font-size:18px;font-family:Arial;text-align:center;text-anchor:middle;fill:#111111;stroke-width:0.75"
   aria-label="⇥" />&#10;    </g>&#10;&#10;    <!-- middle finger column -->&#10;    <g
   transform="translate(108, 0)"
   id="g17">&#10;      <use
   xlink:href="#basekey"
   y="0"
   class="l3"
   id="use13" />&#10;      <use
   xlink:href="#basekey"
   y="36"
   class="l3"
   id="use14" />&#10;      <use
   xlink:href="#basekey"
   y="72"
   class="l3"
   id="use15" />&#10;&#10;      <path
   d="m 15.604492,8.8164063 h 0.791016 l 3.46289,3.4628907 -1.054687,1.054687 -2.056641,-2.05664 v 3.251953 h -1.49414 v -3.251953 l -2.056641,2.05664 -1.054687,-1.054687 z M 15.25293,16.023437 h 1.49414 v 2.232422 h -1.49414 z m 0,3.726563 h 1.49414 V 22 h -1.49414 z"
   id="text15"
   class="key"
   style="font-size:18px;font-family:Arial;text-align:center;text-anchor:middle;fill:#111111;stroke-width:0.75"
   aria-label="⇡" />&#10;      <path
   d="m 15.604492,58.061523 -3.46289,-3.46289 1.054687,-1.054688 2.056641,2.056641 v -3.251953 h 1.49414 v 3.251953 l 2.056641,-2.056641 1.054687,1.054688 -3.46289,3.46289 z M 15.25293,50.854492 V 48.62207 h 1.49414 v 2.232422 z m 0,-3.726562 v -2.25 h 1.49414 v 2.25 z"
   id="text16"
   class="key"
   style="font-size:18px;font-family:Arial;text-align:center;text-anchor:middle;fill:#111111;stroke-width:0.75"
   aria-label="⇣" />&#10;      <path
   d="m 15.774998,82.786 c -0.63,0 -1.386,0.306 -1.71,0.468 l 0.216,0.774 c 0.522,-0.324 0.81,-0.45 1.422,-0.45 0.684,0 1.17,0.432 1.17,1.098 h -0.954 c -1.098,0 -1.998,0.558 -1.998,1.638 0,0.99 0.576,1.566 1.512,1.566 0.648,0 1.116,-0.144 1.44,-0.414 v 0.342 h 0.864 V 85 c 0,-1.422 -0.594,-2.214 -1.962,-2.214 z m -0.162,4.266 c -0.468,0 -0.828,-0.27 -0.828,-0.792 0,-0.594 0.63,-0.792 1.422,-0.792 h 0.666 c 0,1.35 -0.792,1.584 -1.26,1.584 z m 0.432,6.354 c -0.738,-1.584 -2.322,-3.978 -3.726,-5.814 l -0.648,0.288 c 1.476,2.034 2.88,4.158 3.996,6.336 h 0.756 c 0.972,-1.998 2.448,-4.248 3.906,-6.228 l -0.576,-0.396 c -1.368,1.8 -2.988,4.284 -3.708,5.814 z"
   id="text17"
   class="key"
   style="font-size:18px;font-family:Arial;text-align:center;text-anchor:middle;fill:#111111;stroke-width:0.75"
   aria-label="⎀" />&#10;    </g>&#10;&#10;    <!-- index finger column -->&#10;    <g
   transform="translate(144,0)"
   id="g21">&#10;      <use
   xlink:href="#basekey"
   y="0"
   class="l2"
   id="use17" />&#10;      <use
   xlink:href="#basekey"
   y="36"
   class="l2"
   id="use18" />&#10;      <use
   xlink:href="#basekey"
   y="72"
   class="l2"
   id="use19" />&#10;&#10;      <path
   d="M 4.6445312,22 V 8.3242188 H 21.879883 L 28.717773,15.162109 21.879883,22 Z M 5.9453125,9.625 V 20.699219 H 7.1845703 L 12.72168,15.162109 7.1845703,9.625 Z m 12.3222655,0 H 9.0390625 L 13.65332,14.239258 Z M 9.0390625,20.699219 H 18.267578 L 13.65332,16.084961 Z M 20.095703,9.625 l -5.537109,5.537109 5.537109,5.53711 H 21.34375 L 26.880859,15.179688 21.34375,9.625 Z"
   id="text19"
   class="key"
   style="font-size:18px;font-family:Arial;text-align:center;text-anchor:middle;fill:#111111;stroke-width:0.75"
   aria-label="⌦" />&#10;      <path
   d="m 22.662109,52.75293 -3.454101,3.454101 -1.054688,-1.054687 2.047852,-2.047852 h -3.243164 v -1.49414 h 3.243164 L 18.15332,49.5625 l 1.054688,-1.054688 3.454101,3.454102 z m -9.439453,-1.142578 h 2.241211 v 1.49414 h -2.241211 z m -1.49414,0 v 1.49414 H 9.4873047 v -1.49414 z"
   id="text20"
   class="key nubkey"
   style="font-size:18px;font-family:Arial;text-align:center;text-anchor:middle;fill:#111111;stroke-width:0.75"
   aria-label="⇢" />&#10;      <path
   d="M 13.407227,92.822266 8.9423828,88.357422 13.407227,83.892578 v 2.399414 h 4.983398 V 80.87793 h 4.130859 l -0.0088,9.544922 H 13.407227 Z M 12.52832,87.170898 v -1.151367 l -2.33789,2.337891 2.33789,2.33789 v -1.151367 h 9.105469 l 0.0088,-7.787109 h -2.373047 l -0.0088,5.414062 z"
   id="text21"
   class="key"
   style="font-size:18px;font-family:Arial;text-align:center;text-anchor:middle;fill:#111111;stroke-width:0.75"
   aria-label="⏎" />&#10;&#10;      <use
   x="10"
   y="65"
   xlink:href="#nub"
   id="use21" />&#10;    </g>&#10;&#10;    <!-- inner column -->&#10;    <g
   transform="translate(180,0)"
   id="g26">&#10;      <use
   xlink:href="#basekey"
   y="0"
   class="l2"
   id="use22" />&#10;      <use
   xlink:href="#basekey"
   y="36"
   class="l2"
   id="use23" />&#10;      <use
   xlink:href="#basekey"
   y="72"
   class="l2"
   id="use24" />&#10;&#10;      <path
   d="m 16.37793,22.061523 h -0.791016 l -3.445312,-3.46289 1.054687,-1.054688 2.039063,2.056641 v -3.251953 h -2.601563 v -1.494141 h 2.601563 v -1.49414 h -2.601563 v -1.494141 h 2.601563 V 8.8779297 h 1.49414 v 2.9882813 h 2.583985 v 1.494141 h -2.583985 v 1.49414 h 2.583985 v 1.494141 h -2.583985 v 3.251953 l 2.056641,-2.056641 1.054687,1.054688 z"
   id="text24"
   class="key"
   style="font-size:18px;font-family:Arial;text-align:center;text-anchor:middle;fill:#111111;stroke-width:0.75"
   aria-label="⇟" />&#10;      <path
   d="M 9.53125,58 V 57.129883 H 21.765625 V 44.87793 h 0.870117 V 58 Z m 10.555664,-3.102539 -0.553711,0.553711 H 14.646484 V 53.96582 h 2.900391 l -7.5761719,-7.576172 1.0546879,-1.054687 7.576171,7.576172 v -2.900391 h 1.485352 z"
   id="text25"
   class="key"
   style="font-size:18px;font-family:Arial;text-align:center;text-anchor:middle;fill:#111111;stroke-width:0.75"
   aria-label="⇲" />&#10;      <path
   d="m 18.540039,87.882812 v -0.439453 q 0,-0.817382 -0.290039,-1.529297 -0.307617,-0.729492 -0.870117,-1.291992 -0.5625,-0.553711 -1.283203,-0.861328 -0.685547,-0.290039 -1.520508,-0.290039 -0.834961,0 -1.485352,0.290039 -0.755859,0.342774 -1.283203,0.861328 -0.580078,0.580078 -0.870117,1.291992 -0.290039,0.711915 -0.290039,1.529297 H 9.1533203 q 0,-1.116211 0.4042969,-2.100586 0.3955078,-0.940429 1.2041018,-1.77539 0.791015,-0.75586 1.757812,-1.186524 0.949219,-0.404297 2.074219,-0.404297 1.125,0 2.074219,0.404297 0.966797,0.430664 1.757812,1.186524 0.808594,0.834961 1.204102,1.77539 0.404297,0.984375 0.404297,2.100586 v 0.439453 l 2.05664,-2.05664 1.054688,1.054687 -3.462891,3.462891 h -0.791015 l -3.445313,-3.462891 1.054688,-1.054687 z"
   id="text26"
   class="key"
   style="font-size:18px;font-family:Arial;text-align:center;text-anchor:middle;fill:#111111;stroke-width:0.75"
   aria-label="↷" />&#10;    </g>&#10;&#10;    <!-- thump cluster -->&#10;    <g
   transform="translate(144, 114)"
   id="g31">&#10;      <g
   transform="rotate(0)"
   id="g30">&#10;        <use
   xlink:href="#basekey"
   x="0"
   class="key grey pressed"
   id="use26" />&#10;        <path
   d="m 15.724121,20 v -4.589844 q 0,-0.761718 0.04394,-1.464843 -0.239257,0.874023 -0.429687,1.367187 L 13.561035,20 h -0.654297 l -1.801758,-4.6875 -0.273437,-0.830078 -0.161133,-0.537109 0.01465,0.541992 0.01953,0.922851 V 20 H 9.8745117 v -6.879883 h 1.2255863 l 1.831054,4.770508 q 0.09766,0.288086 0.185547,0.620117 0.09277,0.327149 0.122071,0.473633 0.03906,-0.195313 0.161132,-0.59082 0.126953,-0.400391 0.170899,-0.50293 l 1.796875,-4.770508 h 1.196289 V 20 Z m 5.961914,-1.557617 V 20 H 20.855957 V 18.442383 H 17.61377 v -0.683594 l 3.149414,-4.638672 h 0.922851 v 4.628906 h 0.966797 v 0.69336 z m -0.830078,-4.331055 q -0.0098,0.0293 -0.136719,0.258789 -0.126953,0.229492 -0.190429,0.322266 l -1.762696,2.597656 -0.263672,0.361328 -0.07813,0.09766 h 2.431641 z"
   id="m4ltxt"
   class="mod"
   style="font-size:10px;font-family:Arial;text-align:center;text-anchor:middle;fill:#111111"
   aria-label="M4" />&#10;        <g
   transform="translate(36, 0) rotate(0)"
   id="g29">&#10;          <use
   xlink:href="#basekey"
   x="0"
   class="key grey pressed"
   id="use27" />&#10;          <path
   d="M 17.298828,14.453125 16,13.154297 14.701172,14.453125 h 0.639648 v 5.058594 h 1.31836 V 14.453125 Z M 13.519531,14.941406 16,12.460938 18.480469,14.941406 H 17.147461 V 20 h -2.294922 v -5.058594 z"
   id="shiftltxt"
   class="mod"
   style="font-size:10px;font-family:Arial;text-align:center;text-anchor:middle;fill:#111111"
   aria-label="⇧" />&#10;          <g
   transform="translate(36, 0) rotate(0)"
   id="g28">&#10;            <use
   xlink:href="#basekey"
   x="0"
   class="l1"
   id="use28" />&#10;            <path
   d="m 12.381836,16.450195 h 5.087891 l -1.142579,-1.142578 0.585938,-0.585937 1.923828,1.923828 v -1.875 h 0.830078 v 4.199219 h -0.830078 v -1.884766 l -1.923828,1.923828 -0.585938,-0.585937 1.142579,-1.142579 h -5.087891 z"
   id="text28"
   class="mod"
   style="font-size:10px;font-family:Arial;text-align:center;text-anchor:middle;fill:#111111"
   aria-label="⇥" />&#10;          </g>&#10;        </g>&#10;      </g>&#10;    </g>&#10;  </g>&#10;&#10;&#10;&#10;&#10;  <g
   transform="translate(310,0)"
   id="g61">&#10;&#10;    <!-- thumb-cluster -->&#10;    <g
   transform="translate(36, 114)"
   id="g37">&#10;      <g
   transform="rotate(0, 36, 0)"
   id="g36">&#10;        <use
   xlink:href="#basekey"
   x="0"
   class="key grey pressed"
   id="use32" />&#10;        <path
   d="m 15.724121,20 v -4.589844 q 0,-0.761718 0.04394,-1.464843 -0.239257,0.874023 -0.429687,1.367187 L 13.561035,20 h -0.654297 l -1.801758,-4.6875 -0.273437,-0.830078 -0.161133,-0.537109 0.01465,0.541992 0.01953,0.922851 V 20 H 9.8745117 v -6.879883 h 1.2255863 l 1.831054,4.770508 q 0.09766,0.288086 0.185547,0.620117 0.09277,0.327149 0.122071,0.473633 0.03906,-0.195313 0.161132,-0.59082 0.126953,-0.400391 0.170899,-0.50293 l 1.796875,-4.770508 h 1.196289 V 20 Z m 5.961914,-1.557617 V 20 H 20.855957 V 18.442383 H 17.61377 v -0.683594 l 3.149414,-4.638672 h 0.922851 v 4.628906 h 0.966797 v 0.69336 z m -0.830078,-4.331055 q -0.0098,0.0293 -0.136719,0.258789 -0.126953,0.229492 -0.190429,0.322266 l -1.762696,2.597656 -0.263672,0.361328 -0.07813,0.09766 h 2.431641 z"
   id="m4rtxt"
   class="mod"
   style="font-size:10px;font-family:Arial;text-align:center;text-anchor:middle;fill:#111111"
   aria-label="M4" />&#10;        <g
   transform="translate(-36, 0) rotate(0, 36, 0)"
   id="g35">&#10;          <use
   xlink:href="#basekey"
   x="0"
   class="l1"
   id="use33" />&#10;          <path
   d="m 14.359375,21.445312 h 3.28125 v -2.460937 h 0.820312 v 3.291016 h -4.921874 v -3.291016 h 0.820312 z"
   id="text33"
   class="mod space"
   style="font-size:10px;font-family:Arial;text-align:center;text-anchor:middle;fill:#111111"
   aria-label="␣" />&#10;          <g
   transform="translate(-36, 0) rotate(0, 36, 0)"
   id="g34">&#10;            <use
   xlink:href="#basekey"
   x="0"
   class="l1"
   id="use34" />&#10;            <path
   d="m 14.55957,19.345703 -2.480468,-2.480469 2.480468,-2.480468 v 1.333007 h 2.768555 v -3.007812 h 2.294922 l -0.0049,5.302734 H 14.55957 Z m -0.488281,-3.139648 v -0.639649 l -1.298828,1.298828 1.298828,1.298828 v -0.639648 h 5.058594 l 0.0049,-4.326172 h -1.31836 l -0.0049,3.007813 z"
   id="returntxt"
   class="mod"
   style="font-size:10px;font-family:Arial;text-align:center;text-anchor:middle;fill:#111111"
   aria-label="⏎" />&#10;          </g>&#10;        </g>&#10;      </g>&#10;    </g>&#10;&#10;    <!-- inner column -->&#10;    <g
   transform="translate(0,0)"
   id="g41">&#10;      <use
   xlink:href="#basekey"
   y="0"
   class="l2"
   id="use37" />&#10;      <use
   xlink:href="#basekey"
   y="36"
   class="l2"
   id="use38" />&#10;      <use
   xlink:href="#basekey"
   y="72"
   class="l2"
   id="use39" />&#10;&#10;      <text
   x="16"
   y="22"
   class="key"
   id="text39" />&#10;      <text
   x="16"
   y="58"
   class="key"
   id="text40" />&#10;      <text
   x="16"
   y="94"
   class="key"
   id="text41" />&#10;    </g>&#10;&#10;&#10;    <!-- index finger column -->&#10;    <g
   transform="translate(36,0)"
   id="g45">&#10;      <use
   xlink:href="#basekey"
   y="0"
   class="r2"
   id="use41" />&#10;      <use
   xlink:href="#basekey"
   y="36"
   class="r2"
   id="use42" />&#10;      <use
   xlink:href="#basekey"
   y="72"
   class="r2"
   id="use43" />&#10;&#10;      <path
   d="m 20.100098,10.899414 q -1.898438,2.900391 -2.680664,4.543945 -0.782227,1.643555 -1.177735,3.243164 Q 15.85498,20.286133 15.85498,22 h -1.652343 q 0,-2.373047 1.001953,-4.992188 1.010742,-2.627929 3.366211,-6.046874 H 11.91748 V 9.6162109 h 8.182618 z"
   id="text43"
   class="key"
   style="font-size:18px;font-family:Arial;text-align:center;text-anchor:middle;fill:#111111;stroke-width:0.75"
   aria-label="7" />&#10;      <path
   d="M 18.737793,55.196289 V 58 H 17.243652 V 55.196289 H 11.407715 V 53.96582 l 5.668945,-8.349609 h 1.661133 v 8.332031 h 1.740234 v 1.248047 z m -1.494141,-7.795898 q -0.01758,0.05273 -0.246093,0.46582 -0.228516,0.413086 -0.342774,0.580078 l -3.172851,4.675781 -0.47461,0.650391 -0.140625,0.175781 h 4.376953 z"
   id="text44"
   class="key nubkey"
   style="font-size:18px;font-family:Arial;text-align:center;text-anchor:middle;fill:#111111;stroke-width:0.75"
   aria-label="4" />&#10;      <path
   d="m 12.365723,94 v -1.344727 h 3.155273 V 83.12793 l -2.794922,1.995117 v -1.494141 l 2.926758,-2.012695 h 1.458984 v 11.039062 h 3.014649 V 94 Z"
   id="text45"
   class="key"
   style="font-size:18px;font-family:Arial;text-align:center;text-anchor:middle;fill:#111111;stroke-width:0.75"
   aria-label="1" />&#10;&#10;      <use
   x="10"
   y="65"
   xlink:href="#nub"
   id="use45" />&#10;    </g>&#10;&#10;    <!-- middle finger column -->&#10;    <g
   transform="translate(72,0)"
   id="g50">&#10;      <use
   xlink:href="#basekey"
   y="0"
   class="r3"
   id="use46" />&#10;      <use
   xlink:href="#basekey"
   y="36"
   class="r3"
   id="use47" />&#10;      <use
   xlink:href="#basekey"
   y="72"
   class="r3"
   id="use48" />&#10;&#10;      <path
   d="m 20.223145,18.545898 q 0,1.713868 -1.089844,2.671875 -1.089844,0.958008 -3.128906,0.958008 -1.986329,0 -3.111329,-0.940429 -1.116211,-0.94043 -1.116211,-2.671875 0,-1.212891 0.694336,-2.039063 0.694336,-0.826172 1.775391,-1.001953 v -0.03516 Q 13.23584,15.25 12.646973,14.458984 q -0.580078,-0.791015 -0.580078,-1.854492 0,-1.415039 1.054687,-2.293945 1.063477,-0.8789064 2.847656,-0.8789064 1.828125,0 2.882813,0.8613284 1.063476,0.861328 1.063476,2.329101 0,1.063477 -0.588867,1.854493 -0.588867,0.791015 -1.608398,0.993164 v 0.03516 q 1.186523,0.193359 1.845703,1.010742 0.65918,0.808594 0.65918,2.030273 z m -1.951172,-5.835937 q 0,-2.100586 -2.302735,-2.100586 -1.116211,0 -1.705078,0.527344 -0.580078,0.527344 -0.580078,1.573242 0,1.063477 0.597656,1.625977 0.606446,0.55371 1.705078,0.55371 1.116211,0 1.696289,-0.509765 0.588868,-0.518555 0.588868,-1.669922 z m 0.307617,5.686523 q 0,-1.151367 -0.685547,-1.731445 -0.685547,-0.588867 -1.924805,-0.588867 -1.204101,0 -1.880859,0.632812 -0.676758,0.624024 -0.676758,1.722657 0,2.557617 2.610352,2.557617 1.291992,0 1.924804,-0.615235 Q 18.57959,19.75 18.57959,18.396484 Z"
   id="text48"
   class="key"
   style="font-size:18px;font-family:Arial;text-align:center;text-anchor:middle;fill:#111111;stroke-width:0.75"
   aria-label="8" />&#10;      <path
   d="m 20.249512,53.96582 q 0,1.959961 -1.168946,3.084961 -1.160156,1.125 -3.225586,1.125 -1.731445,0 -2.794921,-0.755859 -1.063477,-0.75586 -1.344727,-2.188477 l 1.599609,-0.18457 q 0.500977,1.836914 2.575196,1.836914 1.274414,0 1.995117,-0.764648 0.720703,-0.773438 0.720703,-2.118164 0,-1.168946 -0.729492,-1.889649 -0.720703,-0.720703 -1.951172,-0.720703 -0.641602,0 -1.195313,0.202148 -0.55371,0.202149 -1.107421,0.685547 h -1.546875 l 0.413086,-6.662109 h 7.040039 v 1.344726 h -5.598633 l -0.237305,3.928711 q 1.02832,-0.791015 2.557617,-0.791015 1.828125,0 2.90918,1.072265 1.089844,1.072266 1.089844,2.794922 z"
   id="text49"
   class="key"
   style="font-size:18px;font-family:Arial;text-align:center;text-anchor:middle;fill:#111111;stroke-width:0.75"
   aria-label="5" />&#10;      <path
   d="m 11.899902,94 v -1.116211 q 0.448243,-1.02832 1.089844,-1.810547 0.650391,-0.791015 1.362305,-1.423828 0.711914,-0.641602 1.40625,-1.186523 0.703125,-0.544922 1.265625,-1.089844 0.5625,-0.544922 0.905273,-1.142578 0.351563,-0.597657 0.351563,-1.353516 0,-1.019531 -0.597657,-1.582031 -0.597656,-0.5625 -1.661132,-0.5625 -1.010743,0 -1.669922,0.553711 -0.650391,0.544922 -0.764649,1.538086 l -1.617187,-0.149414 q 0.175781,-1.485352 1.256836,-2.364258 1.089844,-0.878906 2.794922,-0.878906 1.87207,0 2.874023,0.887695 1.010742,0.878906 1.010742,2.504883 0,0.720703 -0.333984,1.432617 -0.325195,0.711914 -0.975586,1.423828 -0.650391,0.711914 -2.487305,2.206055 -1.010742,0.826172 -1.608398,1.49414 -0.597656,0.65918 -0.861328,1.274414 h 6.459961 V 94 Z"
   id="text50"
   class="key"
   style="font-size:18px;font-family:Arial;text-align:center;text-anchor:middle;fill:#111111;stroke-width:0.75"
   aria-label="2" />&#10;    </g>&#10;&#10;    <!-- ring finger colummn -->&#10;    <g
   transform="translate(108,0)"
   id="g54">&#10;      <use
   xlink:href="#basekey"
   y="0"
   class="r4"
   id="use50" />&#10;      <use
   xlink:href="#basekey"
   y="36"
   class="r4"
   id="use51" />&#10;      <use
   xlink:href="#basekey"
   y="72"
   class="r4"
   id="use52" />&#10;&#10;      <path
   d="m 20.152832,15.557617 q 0,3.19043 -1.168945,4.904297 -1.160157,1.713867 -3.313477,1.713867 -1.450195,0 -2.329101,-0.606445 -0.870118,-0.615234 -1.248047,-1.977539 l 1.511718,-0.237305 q 0.47461,1.546875 2.091797,1.546875 1.362305,0 2.109375,-1.265625 0.747071,-1.265625 0.782227,-3.612305 -0.351563,0.791016 -1.204102,1.274415 -0.852539,0.474609 -1.87207,0.474609 -1.669922,0 -2.671875,-1.142578 -1.001953,-1.142578 -1.001953,-3.032227 0,-1.942383 1.089844,-3.049804 1.089843,-1.1162114 3.032226,-1.1162114 2.06543,0 3.128906,1.5292974 1.063477,1.529296 1.063477,4.596679 z M 18.430176,14.02832 q 0,-1.49414 -0.685547,-2.399414 -0.685547,-0.914062 -1.836914,-0.914062 -1.142578,0 -1.801758,0.782226 -0.65918,0.773438 -0.65918,2.100586 0,1.353516 0.65918,2.144532 0.65918,0.782226 1.78418,0.782226 0.685547,0 1.274414,-0.307617 0.588867,-0.316406 0.922851,-0.887695 0.342774,-0.571289 0.342774,-1.300782 z"
   id="text52"
   class="key"
   style="font-size:18px;font-family:Arial;text-align:center;text-anchor:middle;fill:#111111;stroke-width:0.75"
   aria-label="9" />&#10;      <path
   d="m 20.214355,53.948242 q 0,1.959961 -1.063476,3.09375 -1.063477,1.133789 -2.935547,1.133789 -2.091797,0 -3.199219,-1.555664 -1.107422,-1.555664 -1.107422,-4.526367 0,-3.216797 1.151368,-4.939453 1.151367,-1.722656 3.27832,-1.722656 2.803711,0 3.533203,2.522461 l -1.511719,0.27246 q -0.46582,-1.511718 -2.039062,-1.511718 -1.353516,0 -2.100586,1.265625 -0.738281,1.256836 -0.738281,3.647461 0.430664,-0.799805 1.21289,-1.212891 0.782227,-0.421875 1.792969,-0.421875 1.713867,0 2.71582,1.072266 1.010742,1.072265 1.010742,2.882812 z m -1.608398,0.07031 q 0,-1.344727 -0.65918,-2.074219 -0.659179,-0.729492 -1.836914,-0.729492 -1.107422,0 -1.792968,0.65039 -0.676758,0.641602 -0.676758,1.775391 0,1.432617 0.703125,2.34668 0.711914,0.914062 1.819336,0.914062 1.142578,0 1.792968,-0.764648 0.650391,-0.773438 0.650391,-2.118164 z"
   id="text53"
   class="key"
   style="font-size:18px;font-family:Arial;text-align:center;text-anchor:middle;fill:#111111;stroke-width:0.75"
   aria-label="6" />&#10;      <path
   d="m 20.214355,90.581055 q 0,1.713867 -1.089843,2.654297 -1.089844,0.940429 -3.111328,0.940429 -1.88086,0 -3.00586,-0.84375 -1.116211,-0.852539 -1.327148,-2.513672 l 1.634765,-0.149414 q 0.316407,2.197266 2.698243,2.197266 1.195312,0 1.87207,-0.588867 0.685547,-0.588867 0.685547,-1.749024 0,-1.010742 -0.782227,-1.573242 -0.773437,-0.571289 -2.241211,-0.571289 h -0.896484 v -1.371094 h 0.861328 q 1.300781,0 2.012695,-0.5625 0.720703,-0.571289 0.720703,-1.573242 0,-0.993164 -0.588867,-1.564453 -0.580078,-0.580078 -1.731445,-0.580078 -1.045898,0 -1.696289,0.536133 -0.641602,0.536132 -0.74707,1.511718 l -1.590821,-0.123046 q 0.175782,-1.520508 1.256836,-2.373047 1.089844,-0.852539 2.794922,-0.852539 1.863281,0 2.891602,0.870117 1.037109,0.861328 1.037109,2.408203 0,1.186523 -0.667969,1.933594 -0.659179,0.738281 -1.924804,1.001953 v 0.03516 q 1.388671,0.149414 2.162109,0.931641 0.773437,0.782226 0.773437,1.96875 z"
   id="text54"
   class="key"
   style="font-size:18px;font-family:Arial;text-align:center;text-anchor:middle;fill:#111111;stroke-width:0.75"
   aria-label="3" />&#10;    </g>&#10;&#10;&#10;    <!-- pinky finger column -->&#10;    <g
   transform="translate(144,0)"
   id="g58">&#10;      <use
   xlink:href="#basekey"
   y="0"
   class="r5"
   id="use54" />&#10;      <use
   xlink:href="#basekey"
   y="36"
   class="r5"
   id="use55" />&#10;      <use
   xlink:href="#basekey"
   y="72"
   class="r5"
   id="use56" />&#10;&#10;      <path
   d="m 16.641602,16.65625 v 3.761719 H 15.349609 V 16.65625 h -3.726562 v -1.283203 h 3.726562 v -3.761719 h 1.291993 v 3.761719 h 3.726562 v 1.283203 z"
   id="text56"
   class="key"
   style="font-size:18px;font-family:Arial;text-align:center;text-anchor:middle;fill:#111111;stroke-width:0.75"
   aria-label="+" />&#10;      <path
   d="m 15.143066,58 v -1.924805 h 1.713868 V 58 Z"
   id="text57"
   class="key"
   style="font-size:18px;font-family:Arial;text-align:center;text-anchor:middle;fill:#111111;stroke-width:0.75"
   aria-label="." />&#10;      <path
   d="m 16.883301,92.075195 v 1.476563 q 0,0.93164 -0.166992,1.555664 -0.166993,0.624023 -0.518555,1.195312 H 15.116699 Q 15.942871,95.107422 15.942871,94 h -0.773437 v -1.924805 z"
   id="text58"
   class="key"
   style="font-size:18px;font-family:Arial;text-align:center;text-anchor:middle;fill:#111111;stroke-width:0.75"
   aria-label="," />&#10;    </g>&#10;&#10;&#10;    <!-- outer column -->&#10;    <g
   transform="translate(180,0)"
   id="g60">&#10;      <use
   xlink:href="#basekey"
   y="0"
   class="r5"
   id="use58" />&#10;      <use
   xlink:href="#basekey"
   y="36"
   class="key grey"
   id="m3r" />&#10;      <use
   xlink:href="#basekey"
   y="72"
   class="key grey"
   id="use59" />&#10;&#10;      <text
   x="16"
   y="22"
   class="key"
   id="text59" />&#10;      <path
   d="m 15.724121,56 v -4.589844 q 0,-0.761719 0.04394,-1.464844 -0.239257,0.874024 -0.429687,1.367188 L 13.561035,56 h -0.654297 l -1.801758,-4.6875 -0.273437,-0.830078 -0.161133,-0.53711 0.01465,0.541993 0.01953,0.922851 V 56 H 9.8745117 v -6.879883 h 1.2255863 l 1.831054,4.770508 q 0.09766,0.288086 0.185547,0.620117 0.09277,0.327149 0.122071,0.473633 0.03906,-0.195313 0.161132,-0.59082 0.126953,-0.400391 0.170899,-0.50293 l 1.796875,-4.770508 h 1.196289 V 56 Z m 6.782227,-1.899414 q 0,0.952148 -0.605469,1.474609 -0.605469,0.522461 -1.728516,0.522461 -1.044922,0 -1.669922,-0.46875 -0.620117,-0.473633 -0.737304,-1.396484 l 0.908203,-0.08301 q 0.175781,1.220703 1.499023,1.220703 0.664063,0 1.040039,-0.327148 0.38086,-0.327149 0.38086,-0.97168 0,-0.561523 -0.434571,-0.874023 -0.429687,-0.317383 -1.245117,-0.317383 h -0.498047 v -0.761719 h 0.478516 q 0.722656,0 1.118164,-0.3125 0.400391,-0.317383 0.400391,-0.874023 0,-0.551758 -0.327149,-0.869141 -0.322265,-0.322266 -0.961914,-0.322266 -0.581055,0 -0.942383,0.297852 -0.356445,0.297851 -0.415039,0.839844 l -0.883789,-0.06836 q 0.09766,-0.844726 0.698242,-1.318359 0.605469,-0.473633 1.552735,-0.473633 1.035156,0 1.606445,0.483399 0.576172,0.478515 0.576172,1.33789 0,0.65918 -0.371094,1.074219 -0.366211,0.410156 -1.069336,0.556641 v 0.01953 q 0.771485,0.08301 1.201172,0.517578 0.429688,0.43457 0.429688,1.09375 z"
   id="m3rtxt"
   class="mod"
   style="font-size:10px;font-family:Arial;text-align:center;text-anchor:middle;fill:#111111"
   aria-label="M3" />&#10;      <path
   d="m 11.554199,92 v -4.589844 q 0,-0.761719 0.04395,-1.464844 -0.239258,0.874024 -0.429688,1.367188 L 9.3911133,92 H 8.7368164 l -1.8017578,-4.6875 -0.2734375,-0.830078 -0.1611328,-0.53711 0.014648,0.541993 0.019531,0.922851 V 92 H 5.7045898 v -6.879883 h 1.225586 l 1.8310547,4.770508 q 0.097656,0.288086 0.1855468,0.620117 0.092773,0.327149 0.1220704,0.473633 0.039063,-0.195313 0.1611328,-0.59082 0.1269531,-0.400391 0.1708984,-0.50293 l 1.7968751,-4.770508 h 1.196289 V 92 Z m 3.007813,-2.456055 q 0,0.908203 0.375976,1.401367 0.375977,0.493165 1.098633,0.493165 0.571289,0 0.913086,-0.229493 0.34668,-0.229492 0.46875,-0.581054 l 0.771484,0.219726 q -0.473632,1.25 -2.15332,1.25 -1.171875,0 -1.787109,-0.698242 -0.610352,-0.698242 -0.610352,-2.075195 0,-1.308594 0.610352,-2.006836 0.615234,-0.698242 1.752929,-0.698242 2.329102,0 2.329102,2.807617 v 0.117187 z m 2.861328,-0.673828 q -0.07324,-0.834961 -0.424805,-1.21582 -0.351562,-0.385742 -1.010742,-0.385742 -0.639648,0 -1.015625,0.429687 -0.371094,0.424805 -0.400391,1.171875 z m 4.057617,3.09082 q -0.43457,0.117188 -0.888672,0.117188 -1.054687,0 -1.054687,-1.196289 v -3.525391 h -0.610352 v -0.639648 h 0.644531 l 0.258789,-1.181641 h 0.585938 v 1.181641 h 0.976562 v 0.639648 h -0.976562 v 3.334961 q 0,0.38086 0.12207,0.53711 0.126953,0.151367 0.434571,0.151367 0.175781,0 0.507812,-0.06836 z m 2.094727,0.136719 q -0.795899,0 -1.196289,-0.419922 -0.400391,-0.419922 -0.400391,-1.152343 0,-0.820313 0.537109,-1.259766 0.541992,-0.439453 1.743164,-0.46875 l 1.186524,-0.01953 v -0.288086 q 0,-0.644531 -0.273438,-0.922852 -0.273437,-0.27832 -0.859375,-0.27832 -0.59082,0 -0.859375,0.200195 -0.268554,0.200196 -0.322265,0.639649 l -0.917969,-0.08301 q 0.224609,-1.425781 2.119141,-1.425781 0.996093,0 1.499023,0.458984 0.50293,0.454102 0.50293,1.318359 v 2.275391 q 0,0.390625 0.102539,0.59082 0.102539,0.195313 0.390625,0.195313 0.126953,0 0.288086,-0.03418 v 0.546875 q -0.332032,0.07813 -0.678711,0.07813 -0.488282,0 -0.712891,-0.253906 -0.219726,-0.258789 -0.249023,-0.805664 h -0.0293 q -0.336914,0.605469 -0.786133,0.859375 -0.444336,0.249023 -1.083984,0.249023 z m 0.200195,-0.659179 q 0.483398,0 0.859375,-0.219727 0.375976,-0.219727 0.59082,-0.600586 0.219727,-0.385742 0.219727,-0.791016 v -0.43457 l -0.961914,0.01953 q -0.620117,0.0098 -0.942383,0.126953 -0.317383,0.117188 -0.488281,0.361329 -0.170899,0.24414 -0.170899,0.639648 0,0.429688 0.229492,0.664063 0.234375,0.234375 0.664063,0.234375 z"
   id="text60"
   class="mod"
   style="font-size:10px;font-family:Arial;text-align:center;text-anchor:middle;fill:#111111"
   aria-label="Meta" />&#10;    </g>&#10;  </g>&#10;</g>&#10;&#10;</svg>
