<?xml version="1.0" encoding="UTF-8" standalone="no"?>
<svg
   version="1.1"
   id="Ebene_1"
   height="153"
   width="530"
   viewBox="0 0 530 153"
   enable-background="new 0 0 535 0"
   xml:space="preserve"
   inkscape:export-xdpi="90"
   inkscape:export-ydpi="90"
   sodipodi:docname="noted-3-tkl.svg"
   xmlns:inkscape="http://www.inkscape.org/namespaces/inkscape"
   xmlns:sodipodi="http://sodipodi.sourceforge.net/DTD/sodipodi-0.dtd"
   xmlns:xlink="http://www.w3.org/1999/xlink"
   xmlns="http://www.w3.org/2000/svg"
   xmlns:svg="http://www.w3.org/2000/svg"
   xmlns:rdf="http://www.w3.org/1999/02/22-rdf-syntax-ns#"
   xmlns:cc="http://creativecommons.org/ns#"
   xmlns:dc="http://purl.org/dc/elements/1.1/">&#10;&#10;  <metadata
   id="metadata135">&#10;    <rdf:RDF>&#10;      <cc:Work
   rdf:about="">&#10;        <dc:format>image/svg+xml</dc:format>&#10;        <dc:type
   rdf:resource="http://purl.org/dc/dcmitype/StillImage" />&#10;        <dc:title />&#10;      </cc:Work>&#10;    </rdf:RDF>&#10;  </metadata>&#10;&#10;<defs
   id="defs">&#10;  <style
   type="text/css"
   id="style46661">&#10;  text.mod, text.key, text.dead {&#10;    fill:#111;&#10;    fill-opacity:1;&#10;      stroke:none;&#10;      font-style:normal;&#10;      font-variant:normal;&#10;      font-weight:normal;&#10;      font-stretch:normal;&#10;      display:inline;&#10;      font-family:Arial;&#10;      writing-mode:lr-tb;&#10;  }&#10;&#10;  text.key {&#10;      font-family:Arial;&#10;  }&#10;&#10;  text.dead {&#10;      font-family: Gentium Plus Compact;&#10;  }&#10;&#10;  text.space, text.dead, text.center, text.key, text.mod {&#10;      text-align:center;&#10;      text-anchor:middle;&#10;  }&#10;&#10;  text.key { font-size:18px; }&#10;  text.dead { font-size:18px; }&#10;  text.mod { font-size:10px; }&#10;  text.big { font-size:12px; }&#10;&#10;  .key {&#10;  stroke-width:0.75;&#10;  }&#10;&#10;  .grey { fill:#949494; stroke:#696969; }&#10;  .grey { fill:#9f9f9f; stroke:#747474; }&#10;&#10;  .numpad { fill:#afaa9f; stroke:#747474; }&#10;&#10;  /* bootstrap colors */&#10;  .l5, .r5 { fill:#93CCEA; }&#10;  .l4, .r4 { fill:#7abeb3; }&#10;  .l3, .r3 { fill:#63b280; }&#10;  .l2, .r2 { fill:#4aa44a; }&#10;  .l1, .r1 { fill:#4aa44a; }&#10;&#10;  /* btn bg hover, unused */&#10;  .l2, .r2 { stroke:#3071a9; }&#10;  .l3, .r3 { stroke:#449d44; }&#10;  .l4, .r4 { stroke:#c9302c; }&#10;  .l5, .r5 { stroke:#ec971f; }&#10;&#10;  /* btn border hover */&#10;  .l1, .r1 { stroke:#204d74; }&#10;  .l2, .r2 { stroke:#204d74; }&#10;  .l3, .r3 { stroke:#204d74; }&#10;  .l4, .r4 { stroke:#204d74; }&#10;  .l5, .r5 { stroke:#204d74; }&#10;&#10;  <!-- text.nubkey { fill:#eee; } -->&#10;&#10;  .pressed {&#10;    <!--opacity:0.5;-->&#10;    fill:#777;&#10;  }&#10;  </style>&#10;&#10;  <g
   id="basekey">&#10;    <rect
   width="32"
   height="32"
   rx="4"
   class="key"
   id="rect1" />&#10;  </g>&#10;&#10;  <g
   id="nub">&#10;    <rect
   width="14"
   height="1"
   rx="1"
   style="fill:#eee;"
   id="rect2" />&#10;  </g>&#10;&#10;</defs>&#10;<sodipodi:namedview
   pagecolor="#ffffff"
   bordercolor="#666666"
   borderopacity="1"
   objecttolerance="10"
   gridtolerance="10"
   guidetolerance="10"
   inkscape:pageopacity="0"
   inkscape:pageshadow="2"
   inkscape:window-width="1614"
   inkscape:window-height="969"
   id="base"
   showgrid="false"
   inkscape:zoom="0.70961538"
   inkscape:cx="685.32105"
   inkscape:cy="241.15395"
   inkscape:window-x="78"
   inkscape:window-y="71"
   inkscape:window-maximized="0"
   inkscape:current-layer="Ebene_1"
   inkscape:showpageshadow="2"
   inkscape:pagecheckerboard="0"
   inkscape:deskcolor="#d1d1d1" />&#10;&#10;<rect
   width="100%"
   height="100%"
   rx="4"
   style="fill:#eee"
   id="rect3" />&#10;&#10;<g
   transform="translate(3.5,3.5)"
   id="g62">&#10;&#10;  <g
   transform="translate(0, 0)"
   id="g32">&#10;&#10;    <!-- outer column -->&#10;    <g
   transform="translate(0, 0)"
   id="g5">&#10;      <use
   xlink:href="#basekey"
   y="0"
   class="l5"
   id="use3" />&#10;      <use
   xlink:href="#basekey"
   y="36"
   class="key grey pressed"
   id="m3l" />&#10;      <use
   xlink:href="#basekey"
   y="72"
   class="key grey"
   id="use4" />&#10;&#10;      <path
   d="m 23.580566,15.364258 q 0,1.634765 -0.509765,2.961914 -0.500977,1.318359 -1.40625,2.039062 -0.896485,0.720703 -2.012696,0.720703 -0.870117,0 -1.344726,-0.386718 Q 17.83252,20.3125 17.83252,19.539062 l 0.02637,-0.615234 h -0.05273 q -0.580078,1.081055 -1.441406,1.625977 -0.852539,0.536132 -1.845703,0.536132 -1.379883,0 -2.144531,-0.896484 -0.75586,-0.896484 -0.75586,-2.487305 0,-1.441406 0.5625,-2.680664 0.571289,-1.239257 1.590821,-1.96875 1.019531,-0.729492 2.258789,-0.729492 1.924804,0 2.645508,1.59961 h 0.05273 l 0.342773,-1.40625 h 1.371094 l -1.019531,4.447265 q -0.325195,1.441406 -0.325195,2.223633 0,0.826172 0.711914,0.826172 0.703125,0 1.291992,-0.606445 0.597656,-0.606446 0.940429,-1.669922 0.342774,-1.063477 0.342774,-2.355469 0,-1.573242 -0.676758,-2.786133 -0.676758,-1.22168 -1.951172,-1.87207 -1.274414,-0.65918 -2.979492,-0.65918 -2.126953,0 -3.761719,0.94043 -1.634765,0.94043 -2.566406,2.71582 -0.9316406,1.766602 -0.9316406,3.963867 0,1.696289 0.6855466,2.997071 0.694336,1.291992 1.995117,1.986328 1.309571,0.694336 3.049805,0.694336 1.274414,0 2.583985,-0.333985 1.30957,-0.325195 2.71582,-1.089843 l 0.483398,0.984375 q -1.274414,0.764648 -2.768554,1.160156 -1.485352,0.404297 -3.014649,0.404297 -2.118164,0 -3.708984,-0.84375 Q 9.9575195,22.808594 9.1137695,21.261719 8.2788086,19.706055 8.2788086,17.68457 q 0,-2.460937 1.0898437,-4.473632 1.0986327,-2.012696 3.0410157,-3.128907 1.942383,-1.1249997 4.350586,-1.1249997 2.118164,0 3.65625,0.7998046 1.538086,0.7910161 2.34668,2.2412111 0.817382,1.450195 0.817382,3.366211 z m -5.326171,0.07031 q 0,-0.896484 -0.580079,-1.441406 -0.580078,-0.553711 -1.546875,-0.553711 -0.887695,0 -1.582031,0.5625 -0.685547,0.553711 -1.081055,1.546875 -0.395507,0.984375 -0.395507,2.135742 0,1.054688 0.413086,1.652344 0.421875,0.597656 1.291992,0.597656 1.098633,0 2.012695,-0.922851 0.914063,-0.922852 1.265625,-2.302735 0.202149,-0.808593 0.202149,-1.274414 z"
   id="text4"
   class="key"
   style="font-size:18px;font-family:Arial;text-align:center;text-anchor:middle;fill:#111111;stroke-width:0.75"
   aria-label="@" />&#10;      <path
   d="m 15.724121,56 v -4.589844 q 0,-0.761719 0.04394,-1.464844 -0.239257,0.874024 -0.429687,1.367188 L 13.561035,56 h -0.654297 l -1.801758,-4.6875 -0.273437,-0.830078 -0.161133,-0.53711 0.01465,0.541993 0.01953,0.922851 V 56 H 9.8745117 v -6.879883 h 1.2255863 l 1.831054,4.770508 q 0.09766,0.288086 0.185547,0.620117 0.09277,0.327149 0.122071,0.473633 0.03906,-0.195313 0.161132,-0.59082 0.126953,-0.400391 0.170899,-0.50293 l 1.796875,-4.770508 h 1.196289 V 56 Z m 6.782227,-1.899414 q 0,0.952148 -0.605469,1.474609 -0.605469,0.522461 -1.728516,0.522461 -1.044922,0 -1.669922,-0.46875 -0.620117,-0.473633 -0.737304,-1.396484 l 0.908203,-0.08301 q 0.175781,1.220703 1.499023,1.220703 0.664063,0 1.040039,-0.327148 0.38086,-0.327149 0.38086,-0.97168 0,-0.561523 -0.434571,-0.874023 -0.429687,-0.317383 -1.245117,-0.317383 h -0.498047 v -0.761719 h 0.478516 q 0.722656,0 1.118164,-0.3125 0.400391,-0.317383 0.400391,-0.874023 0,-0.551758 -0.327149,-0.869141 -0.322265,-0.322266 -0.961914,-0.322266 -0.581055,0 -0.942383,0.297852 -0.356445,0.297851 -0.415039,0.839844 l -0.883789,-0.06836 q 0.09766,-0.844726 0.698242,-1.318359 0.605469,-0.473633 1.552735,-0.473633 1.035156,0 1.606445,0.483399 0.576172,0.478515 0.576172,1.33789 0,0.65918 -0.371094,1.074219 -0.366211,0.410156 -1.069336,0.556641 v 0.01953 q 0.771485,0.08301 1.201172,0.517578 0.429688,0.43457 0.429688,1.09375 z"
   id="m3ltxt"
   class="mod"
   style="font-size:10px;font-family:Arial;text-align:center;text-anchor:middle;fill:#111111"
   aria-label="M3" />&#10;      <path
   d="m 11.554199,92 v -4.589844 q 0,-0.761719 0.04395,-1.464844 -0.239258,0.874024 -0.429688,1.367188 L 9.3911133,92 H 8.7368164 l -1.8017578,-4.6875 -0.2734375,-0.830078 -0.1611328,-0.53711 0.014648,0.541993 0.019531,0.922851 V 92 H 5.7045898 v -6.879883 h 1.225586 l 1.8310547,4.770508 q 0.097656,0.288086 0.1855468,0.620117 0.092773,0.327149 0.1220704,0.473633 0.039063,-0.195313 0.1611328,-0.59082 0.1269531,-0.400391 0.1708984,-0.50293 l 1.7968751,-4.770508 h 1.196289 V 92 Z m 3.007813,-2.456055 q 0,0.908203 0.375976,1.401367 0.375977,0.493165 1.098633,0.493165 0.571289,0 0.913086,-0.229493 0.34668,-0.229492 0.46875,-0.581054 l 0.771484,0.219726 q -0.473632,1.25 -2.15332,1.25 -1.171875,0 -1.787109,-0.698242 -0.610352,-0.698242 -0.610352,-2.075195 0,-1.308594 0.610352,-2.006836 0.615234,-0.698242 1.752929,-0.698242 2.329102,0 2.329102,2.807617 v 0.117187 z m 2.861328,-0.673828 q -0.07324,-0.834961 -0.424805,-1.21582 -0.351562,-0.385742 -1.010742,-0.385742 -0.639648,0 -1.015625,0.429687 -0.371094,0.424805 -0.400391,1.171875 z m 4.057617,3.09082 q -0.43457,0.117188 -0.888672,0.117188 -1.054687,0 -1.054687,-1.196289 v -3.525391 h -0.610352 v -0.639648 h 0.644531 l 0.258789,-1.181641 h 0.585938 v 1.181641 h 0.976562 v 0.639648 h -0.976562 v 3.334961 q 0,0.38086 0.12207,0.53711 0.126953,0.151367 0.434571,0.151367 0.175781,0 0.507812,-0.06836 z m 2.094727,0.136719 q -0.795899,0 -1.196289,-0.419922 -0.400391,-0.419922 -0.400391,-1.152343 0,-0.820313 0.537109,-1.259766 0.541992,-0.439453 1.743164,-0.46875 l 1.186524,-0.01953 v -0.288086 q 0,-0.644531 -0.273438,-0.922852 -0.273437,-0.27832 -0.859375,-0.27832 -0.59082,0 -0.859375,0.200195 -0.268554,0.200196 -0.322265,0.639649 l -0.917969,-0.08301 q 0.224609,-1.425781 2.119141,-1.425781 0.996093,0 1.499023,0.458984 0.50293,0.454102 0.50293,1.318359 v 2.275391 q 0,0.390625 0.102539,0.59082 0.102539,0.195313 0.390625,0.195313 0.126953,0 0.288086,-0.03418 v 0.546875 q -0.332032,0.07813 -0.678711,0.07813 -0.488282,0 -0.712891,-0.253906 -0.219726,-0.258789 -0.249023,-0.805664 h -0.0293 q -0.336914,0.605469 -0.786133,0.859375 -0.444336,0.249023 -1.083984,0.249023 z m 0.200195,-0.659179 q 0.483398,0 0.859375,-0.219727 0.375976,-0.219727 0.59082,-0.600586 0.219727,-0.385742 0.219727,-0.791016 v -0.43457 l -0.961914,0.01953 q -0.620117,0.0098 -0.942383,0.126953 -0.317383,0.117188 -0.488281,0.361329 -0.170899,0.24414 -0.170899,0.639648 0,0.429688 0.229492,0.664063 0.234375,0.234375 0.664063,0.234375 z"
   id="text5"
   class="mod"
   style="font-size:10px;font-family:Arial;text-align:center;text-anchor:middle;fill:#111111"
   aria-label="Meta" />&#10;    </g>&#10;&#10;    <!-- pinky finger column -->&#10;    <g
   transform="translate(36, 0)"
   id="g9">&#10;      <use
   xlink:href="#basekey"
   y="0"
   class="l5"
   id="use5" />&#10;      <use
   xlink:href="#basekey"
   y="36"
   class="l5"
   id="use6" />&#10;      <use
   xlink:href="#basekey"
   y="72"
   class="l5"
   id="use7" />&#10;&#10;      <path
   d="m 20.851562,22 v -1.924805 h 1.705079 V 22 Z m -5.686523,0 v -1.924805 h 1.6875 V 22 Z M 9.4433594,22 V 20.075195 H 11.157227 V 22 Z"
   id="text7"
   class="key"
   style="font-size:18px;font-family:Arial;text-align:center;text-anchor:middle;fill:#111111;stroke-width:0.75"
   aria-label="…" />&#10;      <path
   d="m 17.07666,58.175781 -3.577148,-13.21875 h 1.388672 l 3.612304,13.21875 z"
   id="text8"
   class="key"
   style="font-size:18px;font-family:Arial;text-align:center;text-anchor:middle;fill:#111111;stroke-width:0.75"
   aria-label="\" />&#10;      <path
   d="m 18.869629,86.22168 -0.685547,3.243164 h 2.285156 v 0.949218 H 17.981934 L 17.208496,94 h -0.966797 l 0.75586,-3.585938 h -3.19043 L 13.068848,94 h -0.966797 l 0.738281,-3.585938 H 11.07373 v -0.949218 h 1.97754 l 0.685546,-3.243164 h -2.214843 v -0.949219 h 2.408203 l 0.782226,-3.585938 h 0.966797 l -0.773437,3.585938 h 3.190429 l 0.773438,-3.585938 h 0.966797 l -0.773438,3.585938 h 1.854492 v 0.949219 z m -4.139649,0 -0.703125,3.243164 h 3.181641 l 0.685547,-3.243164 z"
   id="text9"
   class="key"
   style="font-size:18px;font-family:Arial;text-align:center;text-anchor:middle;fill:#111111;stroke-width:0.75"
   aria-label="#" />&#10;    </g>&#10;&#10;    <!-- ring finger column -->&#10;    <g
   transform="translate(72, 0)"
   id="g13">&#10;      <use
   xlink:href="#basekey"
   y="0"
   class="l4"
   id="use9" />&#10;      <use
   xlink:href="#basekey"
   y="36"
   class="l4"
   id="use10" />&#10;      <use
   xlink:href="#basekey"
   y="72"
   class="l4"
   id="use11" />&#10;&#10;      <path
   d="M 10.722168,25.577148 V 24.43457 H 21.20752 v 1.142578 z"
   id="text11"
   class="key"
   style="font-size:18px;font-family:Arial;text-align:center;text-anchor:middle;fill:#111111;stroke-width:0.75"
   aria-label="_" />&#10;      <path
   d="m 13.499512,58.175781 3.612304,-13.21875 h 1.388672 l -3.577148,13.21875 z"
   id="text12"
   class="key"
   style="font-size:18px;font-family:Arial;text-align:center;text-anchor:middle;fill:#111111;stroke-width:0.75"
   aria-label="/" />&#10;      <path
   d="m 15.547363,93.824219 q -3.74414,-0.158203 -4.359375,-3.155274 l 1.494141,-0.325195 q 0.219726,1.045898 0.914062,1.573242 0.703125,0.527344 1.951172,0.606445 v -4.359375 q -1.555664,-0.386718 -2.15332,-0.694335 -0.588867,-0.307618 -0.958008,-0.703125 -0.360351,-0.404297 -0.527344,-0.861329 -0.158203,-0.457031 -0.158203,-1.098632 0,-1.362305 0.984375,-2.126954 0.993164,-0.773437 2.8125,-0.852539 v -1.151367 h 1.089844 v 1.151367 q 1.643555,0.0791 2.540039,0.747071 0.896484,0.659179 1.265625,2.065429 l -1.529297,0.290039 q -0.175781,-0.826171 -0.711914,-1.283203 -0.536133,-0.46582 -1.564453,-0.5625 v 3.911133 q 1.573242,0.369141 2.232422,0.676758 0.667969,0.307617 1.054687,0.694336 0.386719,0.386719 0.588868,0.914062 0.202148,0.527344 0.202148,1.239258 0,1.450196 -1.063477,2.329102 -1.063476,0.878906 -3.014648,0.975586 v 1.423828 h -1.089844 z m 3.65625,-3.28711 q 0,-0.571289 -0.228515,-0.940429 -0.228516,-0.369141 -0.65918,-0.606446 -0.430664,-0.246093 -1.678711,-0.571289 v 4.113282 q 1.239258,-0.0791 1.898438,-0.588868 0.667968,-0.509765 0.667968,-1.40625 z m -5.941406,-5.748047 q 0,0.518555 0.219727,0.878907 0.219726,0.360351 0.65039,0.606445 0.439453,0.246094 1.415039,0.492188 v -3.700196 q -2.285156,0.123047 -2.285156,1.722656 z"
   id="text13"
   class="key"
   style="font-size:18px;font-family:Arial;text-align:center;text-anchor:middle;fill:#111111;stroke-width:0.75"
   aria-label="$" />&#10;    </g>&#10;&#10;    <!-- middle finger column -->&#10;    <g
   transform="translate(108, 0)"
   id="g17">&#10;      <use
   xlink:href="#basekey"
   y="0"
   class="l3"
   id="use13" />&#10;      <use
   xlink:href="#basekey"
   y="36"
   class="l3"
   id="use14" />&#10;      <use
   xlink:href="#basekey"
   y="72"
   class="l3"
   id="use15" />&#10;&#10;      <path
   d="M 14.782715,25.735352 V 8.9570313 h 3.577148 V 10.09082 h -2.047851 v 14.510742 h 2.047851 v 1.13379 z"
   id="text15"
   class="key"
   style="font-size:18px;font-family:Arial;text-align:center;text-anchor:middle;fill:#111111;stroke-width:0.75"
   aria-label="[" />&#10;      <path
   d="m 17.50293,61.735352 q -1.116211,0 -1.722657,-0.676758 -0.597656,-0.676758 -0.597656,-1.898438 v -3.172851 q 0,-1.028321 -0.46582,-1.529297 -0.457031,-0.509766 -1.423828,-0.553711 v -1.116211 q 0.958008,-0.03516 1.423828,-0.536133 0.46582,-0.509766 0.46582,-1.538086 v -3.18164 q 0,-1.239258 0.580078,-1.907227 0.588867,-0.667969 1.740235,-0.667969 h 1.186523 v 1.133789 h -0.553711 q -0.799805,0 -1.142578,0.47461 -0.333984,0.46582 -0.333984,1.415039 v 3.128906 q 0,0.826172 -0.465821,1.432617 -0.46582,0.597656 -1.239257,0.782227 v 0.01758 q 0.782226,0.18457 1.239257,0.782226 0.465821,0.597657 0.465821,1.450196 v 3.137695 q 0,0.931641 0.333984,1.40625 0.342773,0.483398 1.142578,0.483398 h 0.553711 v 1.13379 z"
   id="text16"
   class="key"
   style="font-size:18px;font-family:Arial;text-align:center;text-anchor:middle;fill:#111111;stroke-width:0.75"
   aria-label="{" />&#10;      <path
   d="M 15.270508,97.814453 V 80.957031 h 1.458984 v 16.857422 z"
   id="text17"
   class="key"
   style="font-size:18px;font-family:Arial;text-align:center;text-anchor:middle;fill:#111111;stroke-width:0.75"
   aria-label="|" />&#10;    </g>&#10;&#10;    <!-- index finger column -->&#10;    <g
   transform="translate(144,0)"
   id="g21">&#10;      <use
   xlink:href="#basekey"
   y="0"
   class="l2"
   id="use17" />&#10;      <use
   xlink:href="#basekey"
   y="36"
   class="l2"
   id="use18" />&#10;      <use
   xlink:href="#basekey"
   y="72"
   class="l2"
   id="use19" />&#10;&#10;      <path
   d="m 13.640137,25.735352 v -1.13379 h 2.047851 V 10.09082 H 13.640137 V 8.9570313 h 3.577148 V 25.735352 Z"
   id="text19"
   class="key"
   style="font-size:18px;font-family:Arial;text-align:center;text-anchor:middle;fill:#111111;stroke-width:0.75"
   aria-label="]" />&#10;      <path
   d="m 13.820313,60.601562 q 0.799804,0 1.142578,-0.483398 0.351562,-0.474609 0.351562,-1.40625 v -3.137695 q 0,-0.861328 0.457031,-1.458985 0.457032,-0.597656 1.239258,-0.773437 v -0.01758 q -0.755859,-0.175782 -1.230469,-0.764649 -0.46582,-0.597656 -0.46582,-1.450195 v -3.128906 q 0,-0.949219 -0.351562,-1.415039 -0.342774,-0.47461 -1.142578,-0.47461 h -0.527344 v -1.133789 h 1.160156 q 1.151367,0 1.731445,0.667969 0.588867,0.667969 0.588867,1.907227 v 3.18164 q 0,1.019531 0.465821,1.529297 0.46582,0.509766 1.441406,0.544922 v 1.116211 q -0.984375,0.03516 -1.450195,0.544922 -0.457032,0.509765 -0.457032,1.538086 v 3.172851 q 0,1.212891 -0.606445,1.889649 -0.597656,0.685547 -1.713867,0.685547 h -1.160156 v -1.13379 z"
   id="text20"
   class="key nubkey"
   style="font-size:18px;font-family:Arial;text-align:center;text-anchor:middle;fill:#111111;stroke-width:0.75"
   aria-label="}" />&#10;      <path
   d="m 18.162109,89.139648 q -0.606445,0 -1.248047,-0.193359 -0.632812,-0.193359 -1.274414,-0.421875 -1.133789,-0.395508 -1.907226,-0.395508 -0.588867,0 -1.098633,0.184571 -0.509766,0.175781 -1.081055,0.588867 v -1.256836 q 0.975586,-0.738281 2.311524,-0.738281 0.457031,0 1.010742,0.114257 0.5625,0.114258 1.705078,0.518555 0.272461,0.105469 0.799805,0.254883 0.527344,0.140625 0.922851,0.140625 1.142578,0 2.144532,-0.808594 v 1.30957 q -0.509766,0.369141 -1.028321,0.536133 -0.509765,0.166992 -1.256836,0.166992 z"
   id="text21"
   class="key"
   style="font-size:18px;font-family:Arial;text-align:center;text-anchor:middle;fill:#111111;stroke-width:0.75"
   aria-label="~" />&#10;&#10;      <use
   x="10"
   y="65"
   xlink:href="#nub"
   id="use21" />&#10;    </g>&#10;&#10;    <!-- inner column -->&#10;    <g
   transform="translate(180,0)"
   id="g26">&#10;      <use
   xlink:href="#basekey"
   y="0"
   class="l2"
   id="use22" />&#10;      <use
   xlink:href="#basekey"
   y="36"
   class="l2"
   id="use23" />&#10;      <use
   xlink:href="#basekey"
   y="72"
   class="l2"
   id="use24" />&#10;&#10;      <path
   d="m 18.693848,16.084961 -2.715821,-5.563477 -2.689453,5.563477 h -1.423828 l 3.234375,-6.4687501 h 1.78418 l 3.251953,6.4687501 z"
   id="text24"
   class="key"
   style="font-size:18px;font-family:Arial;text-align:center;text-anchor:middle;fill:#111111;stroke-width:0.75"
   aria-label="^" />&#10;      <path
   d="m 16.505371,48.208984 2.320313,-0.905273 0.395507,1.160156 -2.478515,0.641602 1.625976,2.197265 -1.045898,0.632813 -1.318359,-2.267578 -1.371094,2.25 -1.045899,-0.632813 1.661133,-2.179687 -2.460937,-0.641602 0.395507,-1.177734 2.34668,0.940429 -0.105469,-2.610351 h 1.195313 z"
   id="text25"
   class="key"
   style="font-size:18px;font-family:Arial;text-align:center;text-anchor:middle;fill:#111111;stroke-width:0.75"
   aria-label="*" />&#10;      <path
   d="M 16.834961,83.444336 13.93457,81.000977 v -0.254883 h 1.819336 l 1.907227,2.522461 v 0.175781 z"
   id="text26"
   class="key"
   style="font-size:18px;font-family:Arial;text-align:center;text-anchor:middle;fill:#111111;stroke-width:0.75"
   aria-label="`" />&#10;    </g>&#10;&#10;    <!-- thump cluster -->&#10;    <g
   transform="translate(144, 114)"
   id="g31">&#10;      <g
   transform="rotate(0)"
   id="g30">&#10;        <use
   xlink:href="#basekey"
   x="0"
   class="key grey"
   id="use26" />&#10;        <path
   d="m 15.724121,20 v -4.589844 q 0,-0.761718 0.04394,-1.464843 -0.239257,0.874023 -0.429687,1.367187 L 13.561035,20 h -0.654297 l -1.801758,-4.6875 -0.273437,-0.830078 -0.161133,-0.537109 0.01465,0.541992 0.01953,0.922851 V 20 H 9.8745117 v -6.879883 h 1.2255863 l 1.831054,4.770508 q 0.09766,0.288086 0.185547,0.620117 0.09277,0.327149 0.122071,0.473633 0.03906,-0.195313 0.161132,-0.59082 0.126953,-0.400391 0.170899,-0.50293 l 1.796875,-4.770508 h 1.196289 V 20 Z m 5.961914,-1.557617 V 20 H 20.855957 V 18.442383 H 17.61377 v -0.683594 l 3.149414,-4.638672 h 0.922851 v 4.628906 h 0.966797 v 0.69336 z m -0.830078,-4.331055 q -0.0098,0.0293 -0.136719,0.258789 -0.126953,0.229492 -0.190429,0.322266 l -1.762696,2.597656 -0.263672,0.361328 -0.07813,0.09766 h 2.431641 z"
   id="m4ltxt"
   class="mod"
   style="font-size:10px;font-family:Arial;text-align:center;text-anchor:middle;fill:#111111"
   aria-label="M4" />&#10;        <g
   transform="translate(36, 0) rotate(0)"
   id="g29">&#10;          <use
   xlink:href="#basekey"
   x="0"
   class="key grey"
   id="use27" />&#10;          <path
   d="M 17.298828,14.453125 16,13.154297 14.701172,14.453125 h 0.639648 v 5.058594 h 1.31836 V 14.453125 Z M 13.519531,14.941406 16,12.460938 18.480469,14.941406 H 17.147461 V 20 h -2.294922 v -5.058594 z"
   id="shiftltxt"
   class="mod"
   style="font-size:10px;font-family:Arial;text-align:center;text-anchor:middle;fill:#111111"
   aria-label="⇧" />&#10;          <g
   transform="translate(36, 0) rotate(0)"
   id="g28">&#10;            <use
   xlink:href="#basekey"
   x="0"
   class="l1"
   id="use28" />&#10;            <path
   d="m 12.381836,16.450195 h 5.087891 l -1.142579,-1.142578 0.585938,-0.585937 1.923828,1.923828 v -1.875 h 0.830078 v 4.199219 h -0.830078 v -1.884766 l -1.923828,1.923828 -0.585938,-0.585937 1.142579,-1.142579 h -5.087891 z"
   id="text28"
   class="mod"
   style="font-size:10px;font-family:Arial;text-align:center;text-anchor:middle;fill:#111111"
   aria-label="⇥" />&#10;          </g>&#10;        </g>&#10;      </g>&#10;    </g>&#10;  </g>&#10;&#10;&#10;&#10;&#10;  <g
   transform="translate(310,0)"
   id="g61">&#10;&#10;    <!-- thumb-cluster -->&#10;    <g
   transform="translate(36, 114)"
   id="g37">&#10;      <g
   transform="rotate(0, 36, 0)"
   id="g36">&#10;        <use
   xlink:href="#basekey"
   x="0"
   class="key grey"
   id="use32" />&#10;        <path
   d="m 15.724121,20 v -4.589844 q 0,-0.761718 0.04394,-1.464843 -0.239257,0.874023 -0.429687,1.367187 L 13.561035,20 h -0.654297 l -1.801758,-4.6875 -0.273437,-0.830078 -0.161133,-0.537109 0.01465,0.541992 0.01953,0.922851 V 20 H 9.8745117 v -6.879883 h 1.2255863 l 1.831054,4.770508 q 0.09766,0.288086 0.185547,0.620117 0.09277,0.327149 0.122071,0.473633 0.03906,-0.195313 0.161132,-0.59082 0.126953,-0.400391 0.170899,-0.50293 l 1.796875,-4.770508 h 1.196289 V 20 Z m 5.961914,-1.557617 V 20 H 20.855957 V 18.442383 H 17.61377 v -0.683594 l 3.149414,-4.638672 h 0.922851 v 4.628906 h 0.966797 v 0.69336 z m -0.830078,-4.331055 q -0.0098,0.0293 -0.136719,0.258789 -0.126953,0.229492 -0.190429,0.322266 l -1.762696,2.597656 -0.263672,0.361328 -0.07813,0.09766 h 2.431641 z"
   id="m4rtxt"
   class="mod"
   style="font-size:10px;font-family:Arial;text-align:center;text-anchor:middle;fill:#111111"
   aria-label="M4" />&#10;        <g
   transform="translate(-36, 0) rotate(0, 36, 0)"
   id="g35">&#10;          <use
   xlink:href="#basekey"
   x="0"
   class="l1"
   id="use33" />&#10;          <path
   d="m 14.359375,21.445312 h 3.28125 v -2.460937 h 0.820312 v 3.291016 h -4.921874 v -3.291016 h 0.820312 z"
   id="text33"
   class="mod space"
   style="font-size:10px;font-family:Arial;text-align:center;text-anchor:middle;fill:#111111"
   aria-label="␣" />&#10;          <g
   transform="translate(-36, 0) rotate(0, 36, 0)"
   id="g34">&#10;            <use
   xlink:href="#basekey"
   x="0"
   class="l1"
   id="use34" />&#10;            <path
   d="m 14.55957,19.345703 -2.480468,-2.480469 2.480468,-2.480468 v 1.333007 h 2.768555 v -3.007812 h 2.294922 l -0.0049,5.302734 H 14.55957 Z m -0.488281,-3.139648 v -0.639649 l -1.298828,1.298828 1.298828,1.298828 v -0.639648 h 5.058594 l 0.0049,-4.326172 h -1.31836 l -0.0049,3.007813 z"
   id="returntxt"
   class="mod"
   style="font-size:10px;font-family:Arial;text-align:center;text-anchor:middle;fill:#111111"
   aria-label="⏎" />&#10;          </g>&#10;        </g>&#10;      </g>&#10;    </g>&#10;&#10;    <!-- inner column -->&#10;    <g
   transform="translate(0,0)"
   id="g41">&#10;      <use
   xlink:href="#basekey"
   y="0"
   class="l2"
   id="use37" />&#10;      <use
   xlink:href="#basekey"
   y="36"
   class="l2"
   id="use38" />&#10;      <use
   xlink:href="#basekey"
   y="72"
   class="l2"
   id="use39" />&#10;&#10;      <path
   d="M 16.654785,18.510742 H 15.354004 L 15.143066,9.6162109 h 1.722657 z M 15.125488,22 v -1.766602 h 1.705078 V 22 Z"
   id="text39"
   class="key"
   style="font-size:18px;font-family:Arial;text-align:center;text-anchor:middle;fill:#111111;stroke-width:0.75"
   aria-label="!" />&#10;      <path
   d="m 20.337402,48.929687 q 0,0.65918 -0.193359,1.177735 -0.193359,0.518555 -0.553711,0.958008 -0.360352,0.439453 -1.177734,1.037109 l -0.703125,0.518555 q -0.632813,0.457031 -0.94043,0.966797 -0.307617,0.500976 -0.316406,1.098632 h -1.538086 q 0.01758,-0.606445 0.18457,-1.063476 0.175781,-0.457031 0.448242,-0.808594 0.272461,-0.351562 0.615235,-0.624023 0.342773,-0.28125 0.694336,-0.527344 0.351562,-0.254883 0.685546,-0.500977 0.342774,-0.254882 0.606446,-0.5625 0.263672,-0.307617 0.421875,-0.694336 Q 18.737793,49.518555 18.737793,49 q 0,-1.001953 -0.685547,-1.582031 -0.676758,-0.580078 -1.907226,-0.580078 -1.230469,0 -1.951172,0.615234 -0.720703,0.615234 -0.84375,1.6875 L 11.73291,49.035156 q 0.228516,-1.740234 1.371094,-2.671875 1.142578,-0.93164 3.023437,-0.93164 1.959961,0 3.084961,0.93164 1.125,0.922852 1.125,2.566406 z M 14.844238,58 v -1.766602 h 1.713867 V 58 Z"
   id="text40"
   class="key"
   style="font-size:18px;font-family:Arial;text-align:center;text-anchor:middle;fill:#111111;stroke-width:0.75"
   aria-label="?" />&#10;      <path
   d="m 16.641602,88.65625 v 3.761719 H 15.349609 V 88.65625 h -3.726562 v -1.283203 h 3.726562 v -3.761719 h 1.291993 v 3.761719 h 3.726562 v 1.283203 z"
   id="text41"
   class="key"
   style="font-size:18px;font-family:Arial;text-align:center;text-anchor:middle;fill:#111111;stroke-width:0.75"
   aria-label="+" />&#10;    </g>&#10;&#10;&#10;    <!-- index finger column -->&#10;    <g
   transform="translate(36,0)"
   id="g45">&#10;      <use
   xlink:href="#basekey"
   y="0"
   class="r2"
   id="use41" />&#10;      <use
   xlink:href="#basekey"
   y="36"
   class="r2"
   id="use42" />&#10;      <use
   xlink:href="#basekey"
   y="72"
   class="r2"
   id="use43" />&#10;&#10;      <path
   d="m 11.631836,16.981445 v -1.801757 l 8.745117,-3.673829 v 1.353516 l -7.541015,3.216797 7.541015,3.225586 v 1.344726 z"
   id="text43"
   class="key"
   style="font-size:18px;font-family:Arial;text-align:center;text-anchor:middle;fill:#111111;stroke-width:0.75"
   aria-label="&lt;" />&#10;      <path
   d="m 14.119141,53.324219 q 0,-2.540039 0.791015,-4.561524 0.799805,-2.021484 2.452149,-3.805664 h 1.529297 q -1.643555,1.828125 -2.416993,3.884766 -0.764648,2.05664 -0.764648,4.5 0,2.43457 0.755859,4.482422 0.764649,2.047851 2.425782,3.902343 h -1.529297 q -1.661133,-1.792968 -2.452149,-3.814453 -0.791015,-2.030273 -0.791015,-4.552734 z"
   id="text44"
   class="key nubkey"
   style="font-size:18px;font-family:Arial;text-align:center;text-anchor:middle;fill:#111111;stroke-width:0.75"
   aria-label="(" />&#10;      <path
   d="m 23.36084,90.185547 q 0,1.889648 -0.711914,2.90918 -0.711914,1.010742 -2.100586,1.010742 -1.371094,0 -2.074219,-0.984375 -0.694336,-0.993164 -0.694336,-2.935547 0,-2.003906 0.667969,-2.979492 0.676758,-0.984375 2.135742,-0.984375 1.441406,0 2.109375,1.010742 0.667969,1.001953 0.667969,2.953125 z M 12.629395,94 H 11.26709 l 8.103515,-12.383789 h 1.379883 z M 11.460449,81.510742 q 1.397461,0 2.074219,0.984375 0.676758,0.984375 0.676758,2.935547 0,1.907227 -0.703125,2.935547 -0.694336,1.02832 -2.083008,1.02832 -1.388672,0 -2.0917969,-1.019531 -0.6943359,-1.019531 -0.6943359,-2.944336 0,-1.959961 0.6767578,-2.935547 0.6767578,-0.984375 2.144531,-0.984375 z m 10.59961,8.674805 q 0,-1.573242 -0.342774,-2.276367 -0.333984,-0.711914 -1.133789,-0.711914 -0.799805,0 -1.160156,0.694336 -0.351563,0.694335 -0.351563,2.293945 0,1.50293 0.342774,2.232422 0.351562,0.720703 1.151367,0.720703 0.773437,0 1.133789,-0.729492 0.360352,-0.738282 0.360352,-2.223633 z m -9.140625,-4.754883 q 0,-1.546875 -0.333985,-2.258789 -0.333984,-0.711914 -1.125,-0.711914 -0.826172,0 -1.177734,0.703125 -0.3515627,0.694336 -0.3515627,2.267578 0,1.520508 0.3515627,2.25 0.351562,0.720703 1.160156,0.720703 0.764649,0 1.116211,-0.738281 0.360352,-0.738281 0.360352,-2.232422 z"
   id="text45"
   class="key"
   style="font-size:18px;font-family:Arial;text-align:center;text-anchor:middle;fill:#111111;stroke-width:0.75"
   aria-label="%" />&#10;&#10;      <use
   x="10"
   y="65"
   xlink:href="#nub"
   id="use45" />&#10;    </g>&#10;&#10;    <!-- middle finger column -->&#10;    <g
   transform="translate(72,0)"
   id="g50">&#10;      <use
   xlink:href="#basekey"
   y="0"
   class="r3"
   id="use46" />&#10;      <use
   xlink:href="#basekey"
   y="36"
   class="r3"
   id="use47" />&#10;      <use
   xlink:href="#basekey"
   y="72"
   class="r3"
   id="use48" />&#10;&#10;      <path
   d="m 11.631836,20.646484 v -1.344726 l 7.541016,-3.225586 -7.541016,-3.216797 v -1.353516 l 8.745117,3.673829 v 1.801757 z"
   id="text48"
   class="key"
   style="font-size:18px;font-family:Arial;text-align:center;text-anchor:middle;fill:#111111;stroke-width:0.75"
   aria-label="&gt;" />&#10;      <path
   d="m 17.880859,53.359375 q 0,2.540039 -0.799804,4.561523 -0.791016,2.021485 -2.44336,3.805664 h -1.529297 q 1.652344,-1.845703 2.416993,-3.884765 0.764648,-2.047852 0.764648,-4.5 0,-2.452149 -0.773437,-4.5 -0.764649,-2.047852 -2.408204,-3.884766 h 1.529297 q 1.661133,1.792969 2.452149,3.823242 0.791015,2.021485 0.791015,4.543946 z"
   id="text49"
   class="key"
   style="font-size:18px;font-family:Arial;text-align:center;text-anchor:middle;fill:#111111;stroke-width:0.75"
   aria-label=")" />&#10;      <path
   d="M 18.236816,85.509766 H 16.98877 l -0.175782,-3.893555 h 1.617188 z m -3.243164,0 h -1.239257 l -0.184571,-3.893555 h 1.617188 z"
   id="text50"
   class="key"
   style="font-size:18px;font-family:Arial;text-align:center;text-anchor:middle;fill:#111111;stroke-width:0.75"
   aria-label="&quot;" />&#10;    </g>&#10;&#10;    <!-- ring finger colummn -->&#10;    <g
   transform="translate(108,0)"
   id="g54">&#10;      <use
   xlink:href="#basekey"
   y="0"
   class="r4"
   id="use50" />&#10;      <use
   xlink:href="#basekey"
   y="36"
   class="r4"
   id="use51" />&#10;      <use
   xlink:href="#basekey"
   y="72"
   class="r4"
   id="use52" />&#10;&#10;      <path
   d="m 11.623047,14.476563 v -1.300782 h 8.745117 v 1.300782 z m 0,4.499999 v -1.300781 h 8.745117 v 1.300781 z"
   id="text52"
   class="key"
   style="font-size:18px;font-family:Arial;text-align:center;text-anchor:middle;fill:#111111;stroke-width:0.75"
   aria-label="=" />&#10;      <path
   d="m 13.802734,53.921875 v -1.40625 h 4.394532 v 1.40625 z"
   id="text53"
   class="key"
   style="font-size:18px;font-family:Arial;text-align:center;text-anchor:middle;fill:#111111;stroke-width:0.75"
   aria-label="-" />&#10;      <path
   d="m 16.619629,85.509766 h -1.239258 l -0.18457,-3.893555 h 1.617187 z"
   id="text54"
   class="key"
   style="font-size:18px;font-family:Arial;text-align:center;text-anchor:middle;fill:#111111;stroke-width:0.75"
   aria-label="'" />&#10;    </g>&#10;&#10;&#10;    <!-- pinky finger column -->&#10;    <g
   transform="translate(144,0)"
   id="g58">&#10;      <use
   xlink:href="#basekey"
   y="0"
   class="r5"
   id="use54" />&#10;      <use
   xlink:href="#basekey"
   y="36"
   class="r5"
   id="use55" />&#10;      <use
   xlink:href="#basekey"
   y="72"
   class="r5"
   id="use56" />&#10;&#10;      <path
   d="m 20.482422,22.105469 q -1.555664,0 -2.619141,-1.116211 -0.659179,0.571289 -1.502929,0.878906 -0.84375,0.307617 -1.766602,0.307617 -1.889648,0 -2.926758,-0.905273 -1.037109,-0.914063 -1.037109,-2.53125 0,-2.44336 3.014648,-3.770508 -0.290039,-0.544922 -0.500976,-1.291992 -0.210938,-0.74707 -0.210938,-1.362305 0,-1.318359 0.799805,-2.039062 0.808594,-0.7294926 2.285156,-0.7294926 1.327149,0 2.135742,0.6679686 0.817383,0.667969 0.817383,1.828125 0,1.03711 -0.808594,1.845703 -0.799804,0.808594 -2.786132,1.59961 0.975585,1.801757 2.575195,3.621093 0.993164,-1.458984 1.50293,-3.603515 l 1.274414,0.37793 q -0.553711,2.188476 -1.863282,4.12207 0.84375,0.861328 1.828125,0.861328 0.624024,0 1.028321,-0.140625 v 1.186523 q -0.492188,0.19336 -1.239258,0.19336 z M 17.634766,12.041992 q 0,-0.632812 -0.439454,-1.02832 Q 16.755859,10.609375 16,10.609375 q -0.84375,0 -1.283203,0.457031 -0.439453,0.448242 -0.439453,1.248047 0,1.001953 0.571289,2.144531 1.151367,-0.46582 1.6875,-0.808593 0.544922,-0.342774 0.817383,-0.738282 0.28125,-0.395507 0.28125,-0.870117 z m -0.650391,8.050781 q -1.740234,-2.05664 -2.803711,-4.016601 -2.074219,0.878906 -2.074219,2.645508 0,1.063476 0.676758,1.6875 0.685547,0.615234 1.863281,0.615234 0.624024,0 1.248047,-0.237305 0.624024,-0.246093 1.089844,-0.694336 z"
   id="text56"
   class="key"
   style="font-size:18px;font-family:Arial;text-align:center;text-anchor:middle;fill:#111111;stroke-width:0.75"
   aria-label="&amp;" />&#10;      <path
   d="m 15.143066,50.30957 v -1.819336 h 1.713868 v 1.819336 z m 0,7.69043 v -1.819336 h 1.713868 V 58 Z"
   id="text57"
   class="key"
   style="font-size:18px;font-family:Arial;text-align:center;text-anchor:middle;fill:#111111;stroke-width:0.75"
   aria-label=":" />&#10;      <path
   d="m 16.883301,92.180664 v 1.371094 q 0,0.93164 -0.166992,1.555664 -0.166993,0.624023 -0.518555,1.195312 H 15.116699 Q 15.942871,95.107422 15.942871,94 H 15.169434 V 92.180664 Z M 15.169434,86.30957 v -1.819336 h 1.713867 v 1.819336 z"
   id="text58"
   class="key"
   style="font-size:18px;font-family:Arial;text-align:center;text-anchor:middle;fill:#111111;stroke-width:0.75"
   aria-label=";" />&#10;    </g>&#10;&#10;&#10;    <!-- outer column -->&#10;    <g
   transform="translate(180,0)"
   id="g60">&#10;      <use
   xlink:href="#basekey"
   y="0"
   class="r5"
   id="use58" />&#10;      <use
   xlink:href="#basekey"
   y="36"
   class="key grey pressed"
   id="m3r" />&#10;      <use
   xlink:href="#basekey"
   y="72"
   class="key grey"
   id="use59" />&#10;&#10;      <path
   d="M 16.79541,22 H 15.213379 V 11.417969 q 0,-1.300781 0.571289,-1.8720706 0.571289,-0.571289 1.749023,-0.571289 0.65918,0 1.116211,0.1054687 V 10.28418 q -0.395507,-0.07031 -0.703125,-0.07031 -0.606445,0 -0.878906,0.307617 -0.272461,0.307618 -0.272461,1.116211 z"
   id="text59"
   class="key"
   style="font-size:18px;font-family:Arial;text-align:center;text-anchor:middle;fill:#111111;stroke-width:0.75"
   aria-label="ſ" />&#10;      <path
   d="m 15.724121,56 v -4.589844 q 0,-0.761719 0.04394,-1.464844 -0.239257,0.874024 -0.429687,1.367188 L 13.561035,56 h -0.654297 l -1.801758,-4.6875 -0.273437,-0.830078 -0.161133,-0.53711 0.01465,0.541993 0.01953,0.922851 V 56 H 9.8745117 v -6.879883 h 1.2255863 l 1.831054,4.770508 q 0.09766,0.288086 0.185547,0.620117 0.09277,0.327149 0.122071,0.473633 0.03906,-0.195313 0.161132,-0.59082 0.126953,-0.400391 0.170899,-0.50293 l 1.796875,-4.770508 h 1.196289 V 56 Z m 6.782227,-1.899414 q 0,0.952148 -0.605469,1.474609 -0.605469,0.522461 -1.728516,0.522461 -1.044922,0 -1.669922,-0.46875 -0.620117,-0.473633 -0.737304,-1.396484 l 0.908203,-0.08301 q 0.175781,1.220703 1.499023,1.220703 0.664063,0 1.040039,-0.327148 0.38086,-0.327149 0.38086,-0.97168 0,-0.561523 -0.434571,-0.874023 -0.429687,-0.317383 -1.245117,-0.317383 h -0.498047 v -0.761719 h 0.478516 q 0.722656,0 1.118164,-0.3125 0.400391,-0.317383 0.400391,-0.874023 0,-0.551758 -0.327149,-0.869141 -0.322265,-0.322266 -0.961914,-0.322266 -0.581055,0 -0.942383,0.297852 -0.356445,0.297851 -0.415039,0.839844 l -0.883789,-0.06836 q 0.09766,-0.844726 0.698242,-1.318359 0.605469,-0.473633 1.552735,-0.473633 1.035156,0 1.606445,0.483399 0.576172,0.478515 0.576172,1.33789 0,0.65918 -0.371094,1.074219 -0.366211,0.410156 -1.069336,0.556641 v 0.01953 q 0.771485,0.08301 1.201172,0.517578 0.429688,0.43457 0.429688,1.09375 z"
   id="m3rtxt"
   class="mod"
   style="font-size:10px;font-family:Arial;text-align:center;text-anchor:middle;fill:#111111"
   aria-label="M3" />&#10;      <path
   d="m 11.554199,92 v -4.589844 q 0,-0.761719 0.04395,-1.464844 -0.239258,0.874024 -0.429688,1.367188 L 9.3911133,92 H 8.7368164 l -1.8017578,-4.6875 -0.2734375,-0.830078 -0.1611328,-0.53711 0.014648,0.541993 0.019531,0.922851 V 92 H 5.7045898 v -6.879883 h 1.225586 l 1.8310547,4.770508 q 0.097656,0.288086 0.1855468,0.620117 0.092773,0.327149 0.1220704,0.473633 0.039063,-0.195313 0.1611328,-0.59082 0.1269531,-0.400391 0.1708984,-0.50293 l 1.7968751,-4.770508 h 1.196289 V 92 Z m 3.007813,-2.456055 q 0,0.908203 0.375976,1.401367 0.375977,0.493165 1.098633,0.493165 0.571289,0 0.913086,-0.229493 0.34668,-0.229492 0.46875,-0.581054 l 0.771484,0.219726 q -0.473632,1.25 -2.15332,1.25 -1.171875,0 -1.787109,-0.698242 -0.610352,-0.698242 -0.610352,-2.075195 0,-1.308594 0.610352,-2.006836 0.615234,-0.698242 1.752929,-0.698242 2.329102,0 2.329102,2.807617 v 0.117187 z m 2.861328,-0.673828 q -0.07324,-0.834961 -0.424805,-1.21582 -0.351562,-0.385742 -1.010742,-0.385742 -0.639648,0 -1.015625,0.429687 -0.371094,0.424805 -0.400391,1.171875 z m 4.057617,3.09082 q -0.43457,0.117188 -0.888672,0.117188 -1.054687,0 -1.054687,-1.196289 v -3.525391 h -0.610352 v -0.639648 h 0.644531 l 0.258789,-1.181641 h 0.585938 v 1.181641 h 0.976562 v 0.639648 h -0.976562 v 3.334961 q 0,0.38086 0.12207,0.53711 0.126953,0.151367 0.434571,0.151367 0.175781,0 0.507812,-0.06836 z m 2.094727,0.136719 q -0.795899,0 -1.196289,-0.419922 -0.400391,-0.419922 -0.400391,-1.152343 0,-0.820313 0.537109,-1.259766 0.541992,-0.439453 1.743164,-0.46875 l 1.186524,-0.01953 v -0.288086 q 0,-0.644531 -0.273438,-0.922852 -0.273437,-0.27832 -0.859375,-0.27832 -0.59082,0 -0.859375,0.200195 -0.268554,0.200196 -0.322265,0.639649 l -0.917969,-0.08301 q 0.224609,-1.425781 2.119141,-1.425781 0.996093,0 1.499023,0.458984 0.50293,0.454102 0.50293,1.318359 v 2.275391 q 0,0.390625 0.102539,0.59082 0.102539,0.195313 0.390625,0.195313 0.126953,0 0.288086,-0.03418 v 0.546875 q -0.332032,0.07813 -0.678711,0.07813 -0.488282,0 -0.712891,-0.253906 -0.219726,-0.258789 -0.249023,-0.805664 h -0.0293 q -0.336914,0.605469 -0.786133,0.859375 -0.444336,0.249023 -1.083984,0.249023 z m 0.200195,-0.659179 q 0.483398,0 0.859375,-0.219727 0.375976,-0.219727 0.59082,-0.600586 0.219727,-0.385742 0.219727,-0.791016 v -0.43457 l -0.961914,0.01953 q -0.620117,0.0098 -0.942383,0.126953 -0.317383,0.117188 -0.488281,0.361329 -0.170899,0.24414 -0.170899,0.639648 0,0.429688 0.229492,0.664063 0.234375,0.234375 0.664063,0.234375 z"
   id="text60"
   class="mod"
   style="font-size:10px;font-family:Arial;text-align:center;text-anchor:middle;fill:#111111"
   aria-label="Meta" />&#10;    </g>&#10;  </g>&#10;</g>&#10;&#10;</svg>
