<?xml version="1.0" encoding="UTF-8" standalone="no"?>
<svg
   version="1.1"
   id="Ebene_1"
   height="153"
   width="530"
   viewBox="0 0 530 153"
   enable-background="new 0 0 535 0"
   xml:space="preserve"
   inkscape:export-xdpi="90"
   inkscape:export-ydpi="90"
   sodipodi:docname="noted-2-tkl.svg"
   xmlns:inkscape="http://www.inkscape.org/namespaces/inkscape"
   xmlns:sodipodi="http://sodipodi.sourceforge.net/DTD/sodipodi-0.dtd"
   xmlns:xlink="http://www.w3.org/1999/xlink"
   xmlns="http://www.w3.org/2000/svg"
   xmlns:svg="http://www.w3.org/2000/svg"
   xmlns:rdf="http://www.w3.org/1999/02/22-rdf-syntax-ns#"
   xmlns:cc="http://creativecommons.org/ns#"
   xmlns:dc="http://purl.org/dc/elements/1.1/">&#10;&#10;  <metadata
   id="metadata135">&#10;    <rdf:RDF>&#10;      <cc:Work
   rdf:about="">&#10;        <dc:format>image/svg+xml</dc:format>&#10;        <dc:type
   rdf:resource="http://purl.org/dc/dcmitype/StillImage" />&#10;        <dc:title />&#10;      </cc:Work>&#10;    </rdf:RDF>&#10;  </metadata>&#10;&#10;<defs
   id="defs">&#10;  <style
   type="text/css"
   id="style46661">&#10;  text.mod, text.key, text.dead {&#10;    fill:#111;&#10;    fill-opacity:1;&#10;      stroke:none;&#10;      font-style:normal;&#10;      font-variant:normal;&#10;      font-weight:normal;&#10;      font-stretch:normal;&#10;      display:inline;&#10;      font-family:Arial;&#10;      writing-mode:lr-tb;&#10;  }&#10;&#10;  text.key {&#10;      font-family:Arial;&#10;  }&#10;&#10;  text.dead {&#10;      font-family: Gentium Plus Compact;&#10;  }&#10;&#10;  text.space, text.dead, text.center, text.key, text.mod {&#10;      text-align:center;&#10;      text-anchor:middle;&#10;  }&#10;&#10;  text.key { font-size:18px; }&#10;  text.dead { font-size:18px; }&#10;  text.mod { font-size:10px; }&#10;  text.big { font-size:12px; }&#10;&#10;  .key {&#10;  stroke-width:0.75;&#10;  }&#10;&#10;  .grey { fill:#949494; stroke:#696969; }&#10;  .grey { fill:#9f9f9f; stroke:#747474; }&#10;&#10;  .numpad { fill:#afaa9f; stroke:#747474; }&#10;&#10;  /* bootstrap colors */&#10;  .l5, .r5 { fill:#93CCEA; }&#10;  .l4, .r4 { fill:#7abeb3; }&#10;  .l3, .r3 { fill:#63b280; }&#10;  .l2, .r2 { fill:#4aa44a; }&#10;  .l1, .r1 { fill:#4aa44a; }&#10;&#10;  /* btn bg hover, unused */&#10;  .l2, .r2 { stroke:#3071a9; }&#10;  .l3, .r3 { stroke:#449d44; }&#10;  .l4, .r4 { stroke:#c9302c; }&#10;  .l5, .r5 { stroke:#ec971f; }&#10;&#10;  /* btn border hover */&#10;  .l1, .r1 { stroke:#204d74; }&#10;  .l2, .r2 { stroke:#204d74; }&#10;  .l3, .r3 { stroke:#204d74; }&#10;  .l4, .r4 { stroke:#204d74; }&#10;  .l5, .r5 { stroke:#204d74; }&#10;&#10;  <!-- text.nubkey { fill:#eee; } -->&#10;&#10;  .pressed {&#10;    <!--opacity:0.5;-->&#10;    fill:#777;&#10;  }&#10;  </style>&#10;&#10;  <g
   id="basekey">&#10;    <rect
   width="32"
   height="32"
   rx="4"
   class="key"
   id="rect1" />&#10;  </g>&#10;&#10;  <g
   id="nub">&#10;    <rect
   width="14"
   height="1"
   rx="1"
   style="fill:#eee;"
   id="rect2" />&#10;  </g>&#10;&#10;</defs>&#10;<sodipodi:namedview
   pagecolor="#ffffff"
   bordercolor="#666666"
   borderopacity="1"
   objecttolerance="10"
   gridtolerance="10"
   guidetolerance="10"
   inkscape:pageopacity="0"
   inkscape:pageshadow="2"
   inkscape:window-width="1614"
   inkscape:window-height="969"
   id="base"
   showgrid="false"
   inkscape:zoom="0.70961538"
   inkscape:cx="685.32105"
   inkscape:cy="241.15395"
   inkscape:window-x="78"
   inkscape:window-y="71"
   inkscape:window-maximized="0"
   inkscape:current-layer="Ebene_1"
   inkscape:showpageshadow="2"
   inkscape:pagecheckerboard="0"
   inkscape:deskcolor="#d1d1d1" />&#10;&#10;<rect
   width="100%"
   height="100%"
   rx="4"
   style="fill:#eee"
   id="rect3" />&#10;&#10;<g
   transform="translate(3.5,3.5)"
   id="g62">&#10;&#10;  <g
   transform="translate(0, 0)"
   id="g32">&#10;&#10;    <!-- outer column -->&#10;    <g
   transform="translate(0, 0)"
   id="g5">&#10;      <use
   xlink:href="#basekey"
   y="0"
   class="l5"
   id="use3" />&#10;      <use
   xlink:href="#basekey"
   y="36"
   class="key grey"
   id="m3l" />&#10;      <use
   xlink:href="#basekey"
   y="72"
   class="key grey"
   id="use4" />&#10;&#10;      <path
   d="m 15.516602,22.175781 q -3.146485,0 -3.735352,-3.251953 l 1.643555,-0.272461 q 0.158203,1.019531 0.711914,1.59082 0.553711,0.57129 1.388672,0.57129 0.914062,0 1.441406,-0.624024 0.527344,-0.632812 0.527344,-1.845703 V 10.987305 H 15.112305 V 9.6162109 h 4.051757 v 8.6923831 q 0,1.801758 -0.975585,2.838867 -0.975586,1.02832 -2.671875,1.02832 z"
   id="text4"
   class="key"
   style="font-size:18px;font-family:Arial;text-align:center;text-anchor:middle;fill:#111111;stroke-width:0.75"
   aria-label="J" />&#10;      <path
   d="m 15.724121,56 v -4.589844 q 0,-0.761719 0.04394,-1.464844 -0.239257,0.874024 -0.429687,1.367188 L 13.561035,56 h -0.654297 l -1.801758,-4.6875 -0.273437,-0.830078 -0.161133,-0.53711 0.01465,0.541993 0.01953,0.922851 V 56 H 9.8745117 v -6.879883 h 1.2255863 l 1.831054,4.770508 q 0.09766,0.288086 0.185547,0.620117 0.09277,0.327149 0.122071,0.473633 0.03906,-0.195313 0.161132,-0.59082 0.126953,-0.400391 0.170899,-0.50293 l 1.796875,-4.770508 h 1.196289 V 56 Z m 6.782227,-1.899414 q 0,0.952148 -0.605469,1.474609 -0.605469,0.522461 -1.728516,0.522461 -1.044922,0 -1.669922,-0.46875 -0.620117,-0.473633 -0.737304,-1.396484 l 0.908203,-0.08301 q 0.175781,1.220703 1.499023,1.220703 0.664063,0 1.040039,-0.327148 0.38086,-0.327149 0.38086,-0.97168 0,-0.561523 -0.434571,-0.874023 -0.429687,-0.317383 -1.245117,-0.317383 h -0.498047 v -0.761719 h 0.478516 q 0.722656,0 1.118164,-0.3125 0.400391,-0.317383 0.400391,-0.874023 0,-0.551758 -0.327149,-0.869141 -0.322265,-0.322266 -0.961914,-0.322266 -0.581055,0 -0.942383,0.297852 -0.356445,0.297851 -0.415039,0.839844 l -0.883789,-0.06836 q 0.09766,-0.844726 0.698242,-1.318359 0.605469,-0.473633 1.552735,-0.473633 1.035156,0 1.606445,0.483399 0.576172,0.478515 0.576172,1.33789 0,0.65918 -0.371094,1.074219 -0.366211,0.410156 -1.069336,0.556641 v 0.01953 q 0.771485,0.08301 1.201172,0.517578 0.429688,0.43457 0.429688,1.09375 z"
   id="m3ltxt"
   class="mod"
   style="font-size:10px;font-family:Arial;text-align:center;text-anchor:middle;fill:#111111"
   aria-label="M3" />&#10;      <path
   d="m 11.554199,92 v -4.589844 q 0,-0.761719 0.04395,-1.464844 -0.239258,0.874024 -0.429688,1.367188 L 9.3911133,92 H 8.7368164 l -1.8017578,-4.6875 -0.2734375,-0.830078 -0.1611328,-0.53711 0.014648,0.541993 0.019531,0.922851 V 92 H 5.7045898 v -6.879883 h 1.225586 l 1.8310547,4.770508 q 0.097656,0.288086 0.1855468,0.620117 0.092773,0.327149 0.1220704,0.473633 0.039063,-0.195313 0.1611328,-0.59082 0.1269531,-0.400391 0.1708984,-0.50293 l 1.7968751,-4.770508 h 1.196289 V 92 Z m 3.007813,-2.456055 q 0,0.908203 0.375976,1.401367 0.375977,0.493165 1.098633,0.493165 0.571289,0 0.913086,-0.229493 0.34668,-0.229492 0.46875,-0.581054 l 0.771484,0.219726 q -0.473632,1.25 -2.15332,1.25 -1.171875,0 -1.787109,-0.698242 -0.610352,-0.698242 -0.610352,-2.075195 0,-1.308594 0.610352,-2.006836 0.615234,-0.698242 1.752929,-0.698242 2.329102,0 2.329102,2.807617 v 0.117187 z m 2.861328,-0.673828 q -0.07324,-0.834961 -0.424805,-1.21582 -0.351562,-0.385742 -1.010742,-0.385742 -0.639648,0 -1.015625,0.429687 -0.371094,0.424805 -0.400391,1.171875 z m 4.057617,3.09082 q -0.43457,0.117188 -0.888672,0.117188 -1.054687,0 -1.054687,-1.196289 v -3.525391 h -0.610352 v -0.639648 h 0.644531 l 0.258789,-1.181641 h 0.585938 v 1.181641 h 0.976562 v 0.639648 h -0.976562 v 3.334961 q 0,0.38086 0.12207,0.53711 0.126953,0.151367 0.434571,0.151367 0.175781,0 0.507812,-0.06836 z m 2.094727,0.136719 q -0.795899,0 -1.196289,-0.419922 -0.400391,-0.419922 -0.400391,-1.152343 0,-0.820313 0.537109,-1.259766 0.541992,-0.439453 1.743164,-0.46875 l 1.186524,-0.01953 v -0.288086 q 0,-0.644531 -0.273438,-0.922852 -0.273437,-0.27832 -0.859375,-0.27832 -0.59082,0 -0.859375,0.200195 -0.268554,0.200196 -0.322265,0.639649 l -0.917969,-0.08301 q 0.224609,-1.425781 2.119141,-1.425781 0.996093,0 1.499023,0.458984 0.50293,0.454102 0.50293,1.318359 v 2.275391 q 0,0.390625 0.102539,0.59082 0.102539,0.195313 0.390625,0.195313 0.126953,0 0.288086,-0.03418 v 0.546875 q -0.332032,0.07813 -0.678711,0.07813 -0.488282,0 -0.712891,-0.253906 -0.219726,-0.258789 -0.249023,-0.805664 h -0.0293 q -0.336914,0.605469 -0.786133,0.859375 -0.444336,0.249023 -1.083984,0.249023 z m 0.200195,-0.659179 q 0.483398,0 0.859375,-0.219727 0.375976,-0.219727 0.59082,-0.600586 0.219727,-0.385742 0.219727,-0.791016 v -0.43457 l -0.961914,0.01953 q -0.620117,0.0098 -0.942383,0.126953 -0.317383,0.117188 -0.488281,0.361329 -0.170899,0.24414 -0.170899,0.639648 0,0.429688 0.229492,0.664063 0.234375,0.234375 0.664063,0.234375 z"
   id="text5"
   class="mod"
   style="font-size:10px;font-family:Arial;text-align:center;text-anchor:middle;fill:#111111"
   aria-label="Meta" />&#10;    </g>&#10;&#10;    <!-- pinky finger column -->&#10;    <g
   transform="translate(36, 0)"
   id="g9">&#10;      <use
   xlink:href="#basekey"
   y="0"
   class="l5"
   id="use5" />&#10;      <use
   xlink:href="#basekey"
   y="36"
   class="l5"
   id="use6" />&#10;      <use
   xlink:href="#basekey"
   y="72"
   class="l5"
   id="use7" />&#10;&#10;      <path
   d="M 20.935059,22 H 11.07373 v -1.256836 l 7.541016,-9.755859 H 11.715332 V 9.6162109 h 8.806641 v 1.2216801 l -7.541016,9.791015 h 7.954102 z"
   id="text7"
   class="key"
   style="font-size:18px;font-family:Arial;text-align:center;text-anchor:middle;fill:#111111;stroke-width:0.75"
   aria-label="Z" />&#10;      <path
   d="m 16.461426,46.802734 q -2.056641,0 -3.199219,1.327149 -1.142578,1.318359 -1.142578,3.621094 0,2.276367 1.186523,3.665039 1.195313,1.379882 3.225586,1.379882 2.601563,0 3.911133,-2.575195 l 1.371094,0.685547 q -0.764649,1.599609 -2.15332,2.43457 -1.379883,0.834961 -3.208008,0.834961 -1.872071,0 -3.243164,-0.773437 -1.362305,-0.782227 -2.083008,-2.223633 -0.711914,-1.450195 -0.711914,-3.427734 0,-2.961915 1.599609,-4.640625 1.59961,-1.678711 4.429688,-1.678711 1.977539,0 3.304687,0.773437 1.327149,0.773438 1.951172,2.293945 l -1.59082,0.527344 q -0.430664,-1.081055 -1.388672,-1.652344 -0.949219,-0.571289 -2.258789,-0.571289 z"
   id="text8"
   class="key"
   style="font-size:18px;font-family:Arial;text-align:center;text-anchor:middle;fill:#111111;stroke-width:0.75"
   aria-label="C" />&#10;      <path
   d="M 16.870117,94 H 15.129883 L 10.076172,81.616211 h 1.766601 l 3.427735,8.71875 0.738281,2.188476 0.738281,-2.188476 3.410157,-8.71875 h 1.766601 z"
   id="text9"
   class="key"
   style="font-size:18px;font-family:Arial;text-align:center;text-anchor:middle;fill:#111111;stroke-width:0.75"
   aria-label="V" />&#10;    </g>&#10;&#10;    <!-- ring finger column -->&#10;    <g
   transform="translate(72, 0)"
   id="g13">&#10;      <use
   xlink:href="#basekey"
   y="0"
   class="l4"
   id="use9" />&#10;      <use
   xlink:href="#basekey"
   y="36"
   class="l4"
   id="use10" />&#10;      <use
   xlink:href="#basekey"
   y="72"
   class="l4"
   id="use11" />&#10;&#10;      <path
   d="M 16.826172,16.867187 V 22 H 15.15625 V 16.867187 L 10.392578,9.6162109 h 1.845703 l 3.770508,5.8974611 3.75293,-5.8974611 h 1.845703 z"
   id="text11"
   class="key"
   style="font-size:18px;font-family:Arial;text-align:center;text-anchor:middle;fill:#111111;stroke-width:0.75"
   aria-label="Y" />&#10;      <path
   d="m 21.176758,54.581055 q 0,1.713867 -1.344727,2.654297 -1.335937,0.940429 -3.770508,0.940429 -4.526367,0 -5.24707,-3.146484 l 1.625977,-0.325195 q 0.28125,1.11621 1.195312,1.643554 0.914063,0.518555 2.487305,0.518555 1.625976,0 2.504883,-0.553711 0.887695,-0.5625 0.887695,-1.643555 0,-0.606445 -0.28125,-0.984375 -0.272461,-0.377929 -0.773438,-0.624023 -0.500976,-0.246094 -1.195312,-0.413086 -0.694336,-0.166992 -1.538086,-0.360352 -1.467773,-0.325195 -2.232422,-0.65039 -0.755859,-0.325196 -1.195312,-0.720703 -0.439453,-0.404297 -0.676758,-0.94043 -0.228516,-0.536133 -0.228516,-1.230469 0,-1.59082 1.212891,-2.452148 1.22168,-0.861328 3.489258,-0.861328 2.109375,0 3.225586,0.65039 1.116211,0.641602 1.564453,2.197266 l -1.652344,0.290039 q -0.272461,-0.984375 -1.037109,-1.423828 -0.764649,-0.448242 -2.118164,-0.448242 -1.485352,0 -2.267579,0.492187 -0.782226,0.492188 -0.782226,1.467774 0,0.571289 0.298828,0.949218 0.307617,0.369141 0.878906,0.632813 0.571289,0.254883 2.276367,0.632812 0.571289,0.131836 1.133789,0.272461 0.57129,0.131836 1.089844,0.325196 0.518555,0.18457 0.966797,0.439453 0.457031,0.254882 0.791016,0.624023 0.333984,0.369141 0.518554,0.870117 0.19336,0.500977 0.19336,1.177735 z"
   id="text12"
   class="key"
   style="font-size:18px;font-family:Arial;text-align:center;text-anchor:middle;fill:#111111;stroke-width:0.75"
   aria-label="S" />&#10;      <path
   d="M 19.770508,94 16.052734,88.585937 12.255859,94 h -1.854492 l 4.710938,-6.433594 -4.350586,-5.950195 h 1.854492 l 3.445312,4.860351 3.348633,-4.860351 h 1.854492 L 17.02832,87.504883 21.625,94 Z"
   id="text13"
   class="key"
   style="font-size:18px;font-family:Arial;text-align:center;text-anchor:middle;fill:#111111;stroke-width:0.75"
   aria-label="X" />&#10;    </g>&#10;&#10;    <!-- middle finger column -->&#10;    <g
   transform="translate(108, 0)"
   id="g17">&#10;      <use
   xlink:href="#basekey"
   y="0"
   class="l3"
   id="use13" />&#10;      <use
   xlink:href="#basekey"
   y="36"
   class="l3"
   id="use14" />&#10;      <use
   xlink:href="#basekey"
   y="72"
   class="l3"
   id="use15" />&#10;&#10;      <path
   d="m 15.925293,22.175781 q -1.520508,0 -2.654297,-0.553711 Q 12.137207,21.068359 11.513184,20.013672 10.88916,18.958984 10.88916,17.5 V 9.6162109 h 1.678711 v 7.7431641 q 0,1.696289 0.861328,2.575195 0.861328,0.878907 2.487305,0.878907 1.669922,0 2.592773,-0.905274 0.931641,-0.914062 0.931641,-2.663086 V 9.6162109 h 1.669922 v 7.7255861 q 0,1.50293 -0.641602,2.592773 -0.632812,1.089844 -1.801758,1.669922 -1.160156,0.571289 -2.742187,0.571289 z"
   id="text15"
   class="key"
   style="font-size:18px;font-family:Arial;text-align:center;text-anchor:middle;fill:#111111;stroke-width:0.75"
   aria-label="U" />&#10;      <path
   d="M 15.160645,58 V 45.616211 h 1.67871 V 58 Z"
   id="text16"
   class="key"
   style="font-size:18px;font-family:Arial;text-align:center;text-anchor:middle;fill:#111111;stroke-width:0.75"
   aria-label="I" />&#10;      <path
   d="m 15.925293,94.175781 q -1.520508,0 -2.654297,-0.553711 Q 12.137207,93.068359 11.513184,92.013672 10.88916,90.958984 10.88916,89.5 v -7.883789 h 1.678711 v 7.743164 q 0,1.696289 0.861328,2.575195 0.861328,0.878907 2.487305,0.878907 1.669922,0 2.592773,-0.905274 0.931641,-0.914062 0.931641,-2.663086 v -7.628906 h 1.669922 v 7.725586 q 0,1.50293 -0.641602,2.592773 -0.632812,1.089844 -1.801758,1.669922 -1.160156,0.571289 -2.742187,0.571289 z m 1.072266,-13.623047 v -1.617187 h 1.432617 v 1.617187 z m -3.462891,0 v -1.617187 h 1.450195 v 1.617187 z"
   id="text17"
   class="key"
   style="font-size:18px;font-family:Arial;text-align:center;text-anchor:middle;fill:#111111;stroke-width:0.75"
   aria-label="Ü" />&#10;    </g>&#10;&#10;    <!-- index finger column -->&#10;    <g
   transform="translate(144,0)"
   id="g21">&#10;      <use
   xlink:href="#basekey"
   y="0"
   class="l2"
   id="use17" />&#10;      <use
   xlink:href="#basekey"
   y="36"
   class="l2"
   id="use18" />&#10;      <use
   xlink:href="#basekey"
   y="72"
   class="l2"
   id="use19" />&#10;&#10;      <path
   d="M 20.253906,22 18.838867,18.378906 H 13.196289 L 11.772461,22 H 10.032227 L 15.085938,9.6162109 h 1.907226 L 21.967773,22 Z m -4.236328,-11.118164 -0.0791,0.246094 Q 15.71875,11.857422 15.288086,13 l -1.582031,4.069336 h 4.631836 L 16.74707,12.982422 q -0.246093,-0.606445 -0.492187,-1.371094 z"
   id="text19"
   class="key"
   style="font-size:18px;font-family:Arial;text-align:center;text-anchor:middle;fill:#111111;stroke-width:0.75"
   aria-label="A" />&#10;      <path
   d="M 11.473633,58 V 45.616211 h 9.395508 v 1.371094 h -7.716797 v 3.972656 h 7.189453 v 1.353516 h -7.189453 v 4.315429 h 8.077148 V 58 Z"
   id="text20"
   class="key nubkey"
   style="font-size:18px;font-family:Arial;text-align:center;text-anchor:middle;fill:#111111;stroke-width:0.75"
   aria-label="E" />&#10;      <path
   d="M 20.253906,94 18.838867,90.378906 H 13.196289 L 11.772461,94 h -1.740234 l 5.053711,-12.383789 h 1.907226 L 21.967773,94 Z m -4.236328,-11.118164 -0.0791,0.246094 Q 15.71875,83.857422 15.288086,85 l -1.582031,4.069336 h 4.631836 L 16.74707,84.982422 q -0.246093,-0.606445 -0.492187,-1.371094 z m 1.037109,-2.329102 v -1.617187 h 1.432618 v 1.617187 z m -3.46289,0 v -1.617187 h 1.450195 v 1.617187 z"
   id="text21"
   class="key"
   style="font-size:18px;font-family:Arial;text-align:center;text-anchor:middle;fill:#111111;stroke-width:0.75"
   aria-label="Ä" />&#10;&#10;      <use
   x="10"
   y="65"
   xlink:href="#nub"
   id="use21" />&#10;    </g>&#10;&#10;    <!-- inner column -->&#10;    <g
   transform="translate(180,0)"
   id="g26">&#10;      <use
   xlink:href="#basekey"
   y="0"
   class="l2"
   id="use22" />&#10;      <use
   xlink:href="#basekey"
   y="36"
   class="l2"
   id="use23" />&#10;      <use
   xlink:href="#basekey"
   y="72"
   class="l2"
   id="use24" />&#10;&#10;      <path
   d="m 22.13916,15.750977 q 0,2.61914 -1.318359,4.30664 -1.31836,1.6875 -3.665039,1.995117 0.360351,1.107422 0.940429,1.59961 0.588868,0.492187 1.485352,0.492187 0.483398,0 1.010742,-0.114258 v 1.177735 q -0.817383,0.193359 -1.564453,0.193359 -1.327148,0 -2.188477,-0.755859 -0.852539,-0.747071 -1.39746,-2.504883 -1.740235,-0.08789 -3.00586,-0.878906 -1.256836,-0.799805 -1.924805,-2.214844 -0.6591792,-1.423828 -0.6591792,-3.295898 0,-2.970704 1.6259762,-4.640625 1.625977,-1.6787114 4.526368,-1.6787114 1.889648,0 3.27832,0.7558594 1.388672,0.74707 2.118164,2.179688 0.738281,1.432617 0.738281,3.383789 z m -1.713867,0 q 0,-2.311524 -1.160156,-3.629883 -1.151367,-1.31836 -3.260742,-1.31836 -2.126954,0 -3.28711,1.300782 -1.160156,1.300781 -1.160156,3.647461 0,2.329101 1.168945,3.700195 1.177735,1.362305 3.260742,1.362305 2.144532,0 3.28711,-1.31836 1.151367,-1.327148 1.151367,-3.74414 z"
   id="text24"
   class="key"
   style="font-size:18px;font-family:Arial;text-align:center;text-anchor:middle;fill:#111111;stroke-width:0.75"
   aria-label="Q" />&#10;      <path
   d="m 22.13916,51.750977 q 0,1.942382 -0.74707,3.401367 -0.738281,1.458984 -2.126953,2.241211 -1.388672,0.782226 -3.278321,0.782226 -1.907226,0 -3.295898,-0.773437 -1.379883,-0.773438 -2.109375,-2.232422 -0.7294922,-1.467774 -0.7294922,-3.418945 0,-2.970704 1.6259762,-4.640625 1.625977,-1.678711 4.526368,-1.678711 1.889648,0 3.27832,0.755859 1.388672,0.74707 2.118164,2.179687 0.738281,1.432618 0.738281,3.38379 z m -1.713867,0 q 0,-2.311524 -1.160156,-3.629883 -1.151367,-1.31836 -3.260742,-1.31836 -2.126954,0 -3.28711,1.300782 -1.160156,1.300781 -1.160156,3.647461 0,2.329101 1.168945,3.700195 1.177735,1.362305 3.260742,1.362305 2.144532,0 3.28711,-1.31836 1.151367,-1.327148 1.151367,-3.74414 z"
   id="text25"
   class="key"
   style="font-size:18px;font-family:Arial;text-align:center;text-anchor:middle;fill:#111111;stroke-width:0.75"
   aria-label="O" />&#10;      <path
   d="m 22.13916,87.750977 q 0,1.942382 -0.74707,3.401367 -0.738281,1.458984 -2.126953,2.241211 -1.388672,0.782226 -3.278321,0.782226 -1.907226,0 -3.295898,-0.773437 -1.379883,-0.773438 -2.109375,-2.232422 -0.7294922,-1.467774 -0.7294922,-3.418945 0,-2.970704 1.6259762,-4.640625 1.625977,-1.678711 4.526368,-1.678711 1.889648,0 3.27832,0.755859 1.388672,0.74707 2.118164,2.179687 0.738281,1.432618 0.738281,3.38379 z m -1.713867,0 q 0,-2.311524 -1.160156,-3.629883 -1.151367,-1.31836 -3.260742,-1.31836 -2.126954,0 -3.28711,1.300782 -1.160156,1.300781 -1.160156,3.647461 0,2.329101 1.168945,3.700195 1.177735,1.362305 3.260742,1.362305 2.144532,0 3.28711,-1.31836 1.151367,-1.327148 1.151367,-3.74414 z m -3.427734,-7.198243 v -1.617187 h 1.432617 v 1.617187 z m -3.462891,0 v -1.617187 h 1.450195 v 1.617187 z"
   id="text26"
   class="key"
   style="font-size:18px;font-family:Arial;text-align:center;text-anchor:middle;fill:#111111;stroke-width:0.75"
   aria-label="Ö" />&#10;    </g>&#10;&#10;    <!-- thump cluster -->&#10;    <g
   transform="translate(144, 114)"
   id="g31">&#10;      <g
   transform="rotate(0)"
   id="g30">&#10;        <use
   xlink:href="#basekey"
   x="0"
   class="key grey"
   id="use26" />&#10;        <path
   d="m 15.724121,20 v -4.589844 q 0,-0.761718 0.04394,-1.464843 -0.239257,0.874023 -0.429687,1.367187 L 13.561035,20 h -0.654297 l -1.801758,-4.6875 -0.273437,-0.830078 -0.161133,-0.537109 0.01465,0.541992 0.01953,0.922851 V 20 H 9.8745117 v -6.879883 h 1.2255863 l 1.831054,4.770508 q 0.09766,0.288086 0.185547,0.620117 0.09277,0.327149 0.122071,0.473633 0.03906,-0.195313 0.161132,-0.59082 0.126953,-0.400391 0.170899,-0.50293 l 1.796875,-4.770508 h 1.196289 V 20 Z m 5.961914,-1.557617 V 20 H 20.855957 V 18.442383 H 17.61377 v -0.683594 l 3.149414,-4.638672 h 0.922851 v 4.628906 h 0.966797 v 0.69336 z m -0.830078,-4.331055 q -0.0098,0.0293 -0.136719,0.258789 -0.126953,0.229492 -0.190429,0.322266 l -1.762696,2.597656 -0.263672,0.361328 -0.07813,0.09766 h 2.431641 z"
   id="m4ltxt"
   class="mod"
   style="font-size:10px;font-family:Arial;text-align:center;text-anchor:middle;fill:#111111"
   aria-label="M4" />&#10;        <g
   transform="translate(36, 0) rotate(0)"
   id="g29">&#10;          <use
   xlink:href="#basekey"
   x="0"
   class="key grey pressed"
   id="use27" />&#10;          <path
   d="M 17.298828,14.453125 16,13.154297 14.701172,14.453125 h 0.639648 v 5.058594 h 1.31836 V 14.453125 Z M 13.519531,14.941406 16,12.460938 18.480469,14.941406 H 17.147461 V 20 h -2.294922 v -5.058594 z"
   id="shiftltxt"
   class="mod"
   style="font-size:10px;font-family:Arial;text-align:center;text-anchor:middle;fill:#111111"
   aria-label="⇧" />&#10;          <g
   transform="translate(36, 0) rotate(0)"
   id="g28">&#10;            <use
   xlink:href="#basekey"
   x="0"
   class="l1"
   id="use28" />&#10;            <path
   d="m 12.381836,16.450195 h 5.087891 l -1.142579,-1.142578 0.585938,-0.585937 1.923828,1.923828 v -1.875 h 0.830078 v 4.199219 h -0.830078 v -1.884766 l -1.923828,1.923828 -0.585938,-0.585937 1.142579,-1.142579 h -5.087891 z"
   id="text28"
   class="mod"
   style="font-size:10px;font-family:Arial;text-align:center;text-anchor:middle;fill:#111111"
   aria-label="⇥" />&#10;          </g>&#10;        </g>&#10;      </g>&#10;    </g>&#10;  </g>&#10;&#10;&#10;&#10;&#10;  <g
   transform="translate(310,0)"
   id="g61">&#10;&#10;    <!-- thumb-cluster -->&#10;    <g
   transform="translate(36, 114)"
   id="g37">&#10;      <g
   transform="rotate(0, 36, 0)"
   id="g36">&#10;        <use
   xlink:href="#basekey"
   x="0"
   class="key grey"
   id="use32" />&#10;        <path
   d="m 15.724121,20 v -4.589844 q 0,-0.761718 0.04394,-1.464843 -0.239257,0.874023 -0.429687,1.367187 L 13.561035,20 h -0.654297 l -1.801758,-4.6875 -0.273437,-0.830078 -0.161133,-0.537109 0.01465,0.541992 0.01953,0.922851 V 20 H 9.8745117 v -6.879883 h 1.2255863 l 1.831054,4.770508 q 0.09766,0.288086 0.185547,0.620117 0.09277,0.327149 0.122071,0.473633 0.03906,-0.195313 0.161132,-0.59082 0.126953,-0.400391 0.170899,-0.50293 l 1.796875,-4.770508 h 1.196289 V 20 Z m 5.961914,-1.557617 V 20 H 20.855957 V 18.442383 H 17.61377 v -0.683594 l 3.149414,-4.638672 h 0.922851 v 4.628906 h 0.966797 v 0.69336 z m -0.830078,-4.331055 q -0.0098,0.0293 -0.136719,0.258789 -0.126953,0.229492 -0.190429,0.322266 l -1.762696,2.597656 -0.263672,0.361328 -0.07813,0.09766 h 2.431641 z"
   id="m4rtxt"
   class="mod"
   style="font-size:10px;font-family:Arial;text-align:center;text-anchor:middle;fill:#111111"
   aria-label="M4" />&#10;        <g
   transform="translate(-36, 0) rotate(0, 36, 0)"
   id="g35">&#10;          <use
   xlink:href="#basekey"
   x="0"
   class="l1"
   id="use33" />&#10;          <path
   d="m 14.359375,21.445312 h 3.28125 v -2.460937 h 0.820312 v 3.291016 h -4.921874 v -3.291016 h 0.820312 z"
   id="text33"
   class="mod space"
   style="font-size:10px;font-family:Arial;text-align:center;text-anchor:middle;fill:#111111"
   aria-label="␣" />&#10;          <g
   transform="translate(-36, 0) rotate(0, 36, 0)"
   id="g34">&#10;            <use
   xlink:href="#basekey"
   x="0"
   class="l1"
   id="use34" />&#10;            <path
   d="m 14.55957,19.345703 -2.480468,-2.480469 2.480468,-2.480468 v 1.333007 h 2.768555 v -3.007812 h 2.294922 l -0.0049,5.302734 H 14.55957 Z m -0.488281,-3.139648 v -0.639649 l -1.298828,1.298828 1.298828,1.298828 v -0.639648 h 5.058594 l 0.0049,-4.326172 h -1.31836 l -0.0049,3.007813 z"
   id="returntxt"
   class="mod"
   style="font-size:10px;font-family:Arial;text-align:center;text-anchor:middle;fill:#111111"
   aria-label="⏎" />&#10;          </g>&#10;        </g>&#10;      </g>&#10;    </g>&#10;&#10;    <!-- inner column -->&#10;    <g
   transform="translate(0,0)"
   id="g41">&#10;      <use
   xlink:href="#basekey"
   y="0"
   class="l2"
   id="use37" />&#10;      <use
   xlink:href="#basekey"
   y="36"
   class="l2"
   id="use38" />&#10;      <use
   xlink:href="#basekey"
   y="72"
   class="l2"
   id="use39" />&#10;&#10;      <path
   d="m 21.053711,13.342773 q 0,1.757813 -1.151367,2.794922 -1.142578,1.03711 -3.111328,1.03711 H 13.152344 V 22 H 11.473633 V 9.6162109 h 5.211914 q 2.083008,0 3.225586,0.9755861 1.142578,0.975586 1.142578,2.750976 z m -1.6875,0.01758 q 0,-2.399414 -2.882813,-2.399414 h -3.331054 v 4.886718 h 3.401367 q 2.8125,0 2.8125,-2.487304 z"
   id="text39"
   class="key"
   style="font-size:18px;font-family:Arial;text-align:center;text-anchor:middle;fill:#111111;stroke-width:0.75"
   aria-label="P" />&#10;      <path
   d="m 21.638184,51.680664 q 0,1.916016 -0.747071,3.357422 -0.74707,1.432617 -2.118164,2.197266 Q 17.401855,58 15.608887,58 H 10.977051 V 45.616211 h 4.095703 q 3.146484,0 4.851562,1.582031 1.713868,1.573242 1.713868,4.482422 z m -1.6875,0 q 0,-2.302734 -1.265625,-3.506836 -1.256836,-1.212891 -3.647461,-1.212891 h -2.381836 v 9.694336 h 2.759765 q 1.362305,0 2.390625,-0.597656 1.03711,-0.597656 1.590821,-1.722656 0.553711,-1.125 0.553711,-2.654297 z"
   id="text40"
   class="key"
   style="font-size:18px;font-family:Arial;text-align:center;text-anchor:middle;fill:#111111;stroke-width:0.75"
   aria-label="D" />&#10;      <path
   d="M 20.785645,94 H 18.781738 L 16.637207,86.133789 Q 16.42627,85.395508 16.021973,83.488281 15.793457,84.507812 15.635254,85.193359 15.477051,85.878906 13.23584,94 H 11.231934 L 7.5844727,81.616211 h 1.7490234 l 2.2236329,7.866211 q 0.395508,1.476562 0.729492,3.041015 0.210938,-0.966796 0.483399,-2.109375 0.28125,-1.142578 2.443359,-8.797851 h 1.608398 l 2.153321,7.708008 q 0.492187,1.889648 0.773437,3.199218 l 0.0791,-0.307617 q 0.237304,-1.010742 0.386718,-1.643554 0.149415,-0.641602 2.469727,-8.956055 h 1.749023 z"
   id="text41"
   class="key"
   style="font-size:18px;font-family:Arial;text-align:center;text-anchor:middle;fill:#111111;stroke-width:0.75"
   aria-label="W" />&#10;    </g>&#10;&#10;&#10;    <!-- index finger column -->&#10;    <g
   transform="translate(36,0)"
   id="g45">&#10;      <use
   xlink:href="#basekey"
   y="0"
   class="r2"
   id="use41" />&#10;      <use
   xlink:href="#basekey"
   y="36"
   class="r2"
   id="use42" />&#10;      <use
   xlink:href="#basekey"
   y="72"
   class="r2"
   id="use43" />&#10;&#10;      <path
   d="m 21.053711,18.510742 q 0,1.652344 -1.204102,2.575195 Q 18.645508,22 16.500977,22 H 11.473633 V 9.6162109 h 4.5 q 4.359375,0 4.359375,3.0058591 0,1.098633 -0.615235,1.845703 -0.615234,0.747071 -1.740234,1.001954 1.476563,0.175781 2.276367,0.993164 0.799805,0.808593 0.799805,2.047851 z m -2.408203,-5.686523 q 0,-1.001953 -0.685547,-1.432617 -0.685547,-0.430664 -1.986328,-0.430664 h -2.821289 v 3.919921 h 2.821289 q 1.344726,0 2.003906,-0.500976 0.667969,-0.509766 0.667969,-1.555664 z m 0.711914,5.554687 q 0,-2.188476 -3.076172,-2.188476 h -3.128906 v 4.464843 h 3.260742 q 1.538086,0 2.241211,-0.571289 0.703125,-0.571289 0.703125,-1.705078 z"
   id="text43"
   class="key"
   style="font-size:18px;font-family:Arial;text-align:center;text-anchor:middle;fill:#111111;stroke-width:0.75"
   aria-label="B" />&#10;      <path
   d="M 16.830566,46.987305 V 58 H 15.160645 V 46.987305 h -4.253907 v -1.371094 h 10.177735 v 1.371094 z"
   id="text44"
   class="key nubkey"
   style="font-size:18px;font-family:Arial;text-align:center;text-anchor:middle;fill:#111111;stroke-width:0.75"
   aria-label="T" />&#10;      <path
   d="m 9.9047852,87.750977 q 0,-3.014649 1.6171878,-4.666993 1.617187,-1.652343 4.543945,-1.652343 2.056641,0 3.339844,0.694336 1.283203,0.694335 1.977539,2.223632 l -1.59961,0.47461 q -0.527343,-1.054688 -1.458984,-1.538086 -0.922852,-0.483399 -2.302734,-0.483399 -2.144532,0 -3.278321,1.300782 -1.133789,1.291992 -1.133789,3.647461 0,2.346679 1.204102,3.708984 1.204101,1.353516 3.331055,1.353516 1.21289,0 2.258789,-0.369141 1.054687,-0.369141 1.705078,-1.001953 v -2.232422 h -3.700196 v -1.40625 h 5.247071 v 4.271484 q -0.984375,1.001953 -2.416992,1.555664 -1.423829,0.544922 -3.09375,0.544922 -1.942383,0 -3.348633,-0.773437 -1.40625,-0.773438 -2.153321,-2.223633 -0.7382808,-1.458984 -0.7382808,-3.427734 z"
   id="text45"
   class="key"
   style="font-size:18px;font-family:Arial;text-align:center;text-anchor:middle;fill:#111111;stroke-width:0.75"
   aria-label="G" />&#10;&#10;      <use
   x="10"
   y="65"
   xlink:href="#nub"
   id="use45" />&#10;    </g>&#10;&#10;    <!-- middle finger column -->&#10;    <g
   transform="translate(72,0)"
   id="g50">&#10;      <use
   xlink:href="#basekey"
   y="0"
   class="r3"
   id="use46" />&#10;      <use
   xlink:href="#basekey"
   y="36"
   class="r3"
   id="use47" />&#10;      <use
   xlink:href="#basekey"
   y="72"
   class="r3"
   id="use48" />&#10;&#10;      <path
   d="m 20.508789,22 v -8.261719 q 0,-1.371093 0.0791,-2.636718 -0.430664,1.573242 -0.773438,2.460937 L 16.615234,22 H 15.4375 l -3.243164,-8.4375 -0.492188,-1.494141 -0.290039,-0.966796 0.02637,0.975585 0.03516,1.661133 V 22 H 9.9794922 V 9.6162109 h 2.2060548 l 3.295898,8.5869141 q 0.175782,0.518555 0.333985,1.116211 0.166992,0.588867 0.219726,0.852539 0.07031,-0.351563 0.290039,-1.063477 0.228516,-0.720703 0.307617,-0.905273 l 3.234375,-8.5869141 h 2.153321 V 22 Z"
   id="text48"
   class="key"
   style="font-size:18px;font-family:Arial;text-align:center;text-anchor:middle;fill:#111111;stroke-width:0.75"
   aria-label="M" />&#10;      <path
   d="m 19.010254,58 -6.626953,-10.546875 0.04395,0.852539 0.04394,1.467773 V 58 h -1.49414 V 45.616211 h 1.951172 l 6.697265,10.617187 Q 19.52002,54.510742 19.52002,53.737305 v -8.121094 h 1.511718 V 58 Z"
   id="text49"
   class="key"
   style="font-size:18px;font-family:Arial;text-align:center;text-anchor:middle;fill:#111111;stroke-width:0.75"
   aria-label="N" />&#10;      <path
   d="m 10.994629,90.036133 v -1.204102 h 10.001953 v 1.204102 z"
   id="text50"
   class="key"
   style="font-size:18px;font-family:Arial;text-align:center;text-anchor:middle;fill:#111111;stroke-width:0.75"
   aria-label="–" />&#10;    </g>&#10;&#10;    <!-- ring finger colummn -->&#10;    <g
   transform="translate(108,0)"
   id="g54">&#10;      <use
   xlink:href="#basekey"
   y="0"
   class="r4"
   id="use50" />&#10;      <use
   xlink:href="#basekey"
   y="36"
   class="r4"
   id="use51" />&#10;      <use
   xlink:href="#basekey"
   y="72"
   class="r4"
   id="use52" />&#10;&#10;      <path
   d="M 12.471191,22 V 9.6162109 h 1.678711 V 20.628906 h 6.257813 V 22 Z"
   id="text52"
   class="key"
   style="font-size:18px;font-family:Arial;text-align:center;text-anchor:middle;fill:#111111;stroke-width:0.75"
   aria-label="L" />&#10;      <path
   d="M 19.730957,58 16.51416,52.858398 H 12.655762 V 58 H 10.977051 V 45.616211 h 5.827148 q 2.091797,0 3.225586,0.94043 1.142578,0.93164 1.142578,2.601562 0,1.379883 -0.808593,2.320313 -0.799805,0.940429 -2.214844,1.186523 L 21.664551,58 Z m -0.246094,-8.824219 q 0,-1.081054 -0.738281,-1.643554 -0.729492,-0.57129 -2.109375,-0.57129 h -3.981445 v 4.570313 h 4.051758 q 1.327148,0 2.047851,-0.615234 0.729492,-0.624024 0.729492,-1.740235 z"
   id="text53"
   class="key"
   style="font-size:18px;font-family:Arial;text-align:center;text-anchor:middle;fill:#111111;stroke-width:0.75"
   aria-label="R" />&#10;      <path
   d="m 18.438965,88.005859 q 0,0.993164 -0.720703,1.731446 -0.711914,0.738281 -1.749024,0.738281 -0.993164,0 -1.705078,-0.729492 -0.703125,-0.729492 -0.703125,-1.740235 0,-1.010742 0.711914,-1.705078 0.711914,-0.703125 1.696289,-0.703125 1.019532,0 1.740235,0.711914 0.729492,0.703125 0.729492,1.696289 z"
   id="text54"
   class="key"
   style="font-size:18px;font-family:Arial;text-align:center;text-anchor:middle;fill:#111111;stroke-width:0.75"
   aria-label="•" />&#10;    </g>&#10;&#10;&#10;    <!-- pinky finger column -->&#10;    <g
   transform="translate(144,0)"
   id="g58">&#10;      <use
   xlink:href="#basekey"
   y="0"
   class="r5"
   id="use54" />&#10;      <use
   xlink:href="#basekey"
   y="36"
   class="r5"
   id="use55" />&#10;      <use
   xlink:href="#basekey"
   y="72"
   class="r5"
   id="use56" />&#10;&#10;      <path
   d="m 13.657715,10.987305 v 4.605468 h 6.908203 v 1.388672 H 13.657715 V 22 H 11.979004 V 9.6162109 h 8.797851 v 1.3710941 z"
   id="text56"
   class="key"
   style="font-size:18px;font-family:Arial;text-align:center;text-anchor:middle;fill:#111111;stroke-width:0.75"
   aria-label="F" />&#10;      <path
   d="M 19.353027,58 V 52.260742 H 12.655762 V 58 H 10.977051 V 45.616211 h 1.678711 v 5.238281 h 6.697265 v -5.238281 h 1.678711 V 58 Z"
   id="text57"
   class="key"
   style="font-size:18px;font-family:Arial;text-align:center;text-anchor:middle;fill:#111111;stroke-width:0.75"
   aria-label="H" />&#10;      <path
   d="m 19.717773,94 -4.948242,-5.976563 -1.617187,1.230469 V 94 H 11.473633 V 81.616211 h 1.678711 v 6.205078 l 5.967773,-6.205078 h 1.977539 L 15.824219,86.995117 21.800781,94 Z"
   id="text58"
   class="key"
   style="font-size:18px;font-family:Arial;text-align:center;text-anchor:middle;fill:#111111;stroke-width:0.75"
   aria-label="K" />&#10;    </g>&#10;&#10;&#10;    <!-- outer column -->&#10;    <g
   transform="translate(180,0)"
   id="g60">&#10;      <use
   xlink:href="#basekey"
   y="0"
   class="r5"
   id="use58" />&#10;      <use
   xlink:href="#basekey"
   y="36"
   class="key grey"
   id="m3r" />&#10;      <use
   xlink:href="#basekey"
   y="72"
   class="key grey"
   id="use59" />&#10;&#10;      <path
   d="m 21.515137,18.484375 q 0,1.125 -0.527344,1.959961 -0.518555,0.834961 -1.494141,1.283203 -0.966797,0.448242 -2.214843,0.448242 -1.388672,0 -2.53125,-0.28125 l 0.237304,-1.388672 q 0.94043,0.342774 2.188477,0.342774 1.353515,0 2.003906,-0.624024 0.650391,-0.624023 0.650391,-1.740234 0,-1.230469 -0.738282,-1.766602 -0.738281,-0.544921 -2.583984,-0.544921 h -0.606445 v -1.230469 l 2.71582,-3.084961 q -0.439453,-0.483399 -1.195312,-0.764649 -0.75586,-0.290039 -1.511719,-0.290039 -0.870117,0 -1.458985,0.202149 -0.588867,0.202148 -0.940429,0.615234 -0.351563,0.413086 -0.518555,1.107422 -0.158203,0.694336 -0.158203,2.012695 V 22 h -1.678711 v -7.101562 q 0,-2.891602 1.133789,-4.174805 1.142578,-1.2919924 3.638672,-1.2919924 3.128906,0 4.798828,2.3642574 l -2.90918,3.120118 q 1.757813,0.123047 2.72461,1.054687 0.975586,0.931641 0.975586,2.513672 z"
   id="text59"
   class="key"
   style="font-size:18px;font-family:Arial;text-align:center;text-anchor:middle;fill:#111111;stroke-width:0.75"
   aria-label="ẞ" />&#10;      <path
   d="m 15.724121,56 v -4.589844 q 0,-0.761719 0.04394,-1.464844 -0.239257,0.874024 -0.429687,1.367188 L 13.561035,56 h -0.654297 l -1.801758,-4.6875 -0.273437,-0.830078 -0.161133,-0.53711 0.01465,0.541993 0.01953,0.922851 V 56 H 9.8745117 v -6.879883 h 1.2255863 l 1.831054,4.770508 q 0.09766,0.288086 0.185547,0.620117 0.09277,0.327149 0.122071,0.473633 0.03906,-0.195313 0.161132,-0.59082 0.126953,-0.400391 0.170899,-0.50293 l 1.796875,-4.770508 h 1.196289 V 56 Z m 6.782227,-1.899414 q 0,0.952148 -0.605469,1.474609 -0.605469,0.522461 -1.728516,0.522461 -1.044922,0 -1.669922,-0.46875 -0.620117,-0.473633 -0.737304,-1.396484 l 0.908203,-0.08301 q 0.175781,1.220703 1.499023,1.220703 0.664063,0 1.040039,-0.327148 0.38086,-0.327149 0.38086,-0.97168 0,-0.561523 -0.434571,-0.874023 -0.429687,-0.317383 -1.245117,-0.317383 h -0.498047 v -0.761719 h 0.478516 q 0.722656,0 1.118164,-0.3125 0.400391,-0.317383 0.400391,-0.874023 0,-0.551758 -0.327149,-0.869141 -0.322265,-0.322266 -0.961914,-0.322266 -0.581055,0 -0.942383,0.297852 -0.356445,0.297851 -0.415039,0.839844 l -0.883789,-0.06836 q 0.09766,-0.844726 0.698242,-1.318359 0.605469,-0.473633 1.552735,-0.473633 1.035156,0 1.606445,0.483399 0.576172,0.478515 0.576172,1.33789 0,0.65918 -0.371094,1.074219 -0.366211,0.410156 -1.069336,0.556641 v 0.01953 q 0.771485,0.08301 1.201172,0.517578 0.429688,0.43457 0.429688,1.09375 z"
   id="m3rtxt"
   class="mod"
   style="font-size:10px;font-family:Arial;text-align:center;text-anchor:middle;fill:#111111"
   aria-label="M3" />&#10;      <path
   d="m 11.554199,92 v -4.589844 q 0,-0.761719 0.04395,-1.464844 -0.239258,0.874024 -0.429688,1.367188 L 9.3911133,92 H 8.7368164 l -1.8017578,-4.6875 -0.2734375,-0.830078 -0.1611328,-0.53711 0.014648,0.541993 0.019531,0.922851 V 92 H 5.7045898 v -6.879883 h 1.225586 l 1.8310547,4.770508 q 0.097656,0.288086 0.1855468,0.620117 0.092773,0.327149 0.1220704,0.473633 0.039063,-0.195313 0.1611328,-0.59082 0.1269531,-0.400391 0.1708984,-0.50293 l 1.7968751,-4.770508 h 1.196289 V 92 Z m 3.007813,-2.456055 q 0,0.908203 0.375976,1.401367 0.375977,0.493165 1.098633,0.493165 0.571289,0 0.913086,-0.229493 0.34668,-0.229492 0.46875,-0.581054 l 0.771484,0.219726 q -0.473632,1.25 -2.15332,1.25 -1.171875,0 -1.787109,-0.698242 -0.610352,-0.698242 -0.610352,-2.075195 0,-1.308594 0.610352,-2.006836 0.615234,-0.698242 1.752929,-0.698242 2.329102,0 2.329102,2.807617 v 0.117187 z m 2.861328,-0.673828 q -0.07324,-0.834961 -0.424805,-1.21582 -0.351562,-0.385742 -1.010742,-0.385742 -0.639648,0 -1.015625,0.429687 -0.371094,0.424805 -0.400391,1.171875 z m 4.057617,3.09082 q -0.43457,0.117188 -0.888672,0.117188 -1.054687,0 -1.054687,-1.196289 v -3.525391 h -0.610352 v -0.639648 h 0.644531 l 0.258789,-1.181641 h 0.585938 v 1.181641 h 0.976562 v 0.639648 h -0.976562 v 3.334961 q 0,0.38086 0.12207,0.53711 0.126953,0.151367 0.434571,0.151367 0.175781,0 0.507812,-0.06836 z m 2.094727,0.136719 q -0.795899,0 -1.196289,-0.419922 -0.400391,-0.419922 -0.400391,-1.152343 0,-0.820313 0.537109,-1.259766 0.541992,-0.439453 1.743164,-0.46875 l 1.186524,-0.01953 v -0.288086 q 0,-0.644531 -0.273438,-0.922852 -0.273437,-0.27832 -0.859375,-0.27832 -0.59082,0 -0.859375,0.200195 -0.268554,0.200196 -0.322265,0.639649 l -0.917969,-0.08301 q 0.224609,-1.425781 2.119141,-1.425781 0.996093,0 1.499023,0.458984 0.50293,0.454102 0.50293,1.318359 v 2.275391 q 0,0.390625 0.102539,0.59082 0.102539,0.195313 0.390625,0.195313 0.126953,0 0.288086,-0.03418 v 0.546875 q -0.332032,0.07813 -0.678711,0.07813 -0.488282,0 -0.712891,-0.253906 -0.219726,-0.258789 -0.249023,-0.805664 h -0.0293 q -0.336914,0.605469 -0.786133,0.859375 -0.444336,0.249023 -1.083984,0.249023 z m 0.200195,-0.659179 q 0.483398,0 0.859375,-0.219727 0.375976,-0.219727 0.59082,-0.600586 0.219727,-0.385742 0.219727,-0.791016 v -0.43457 l -0.961914,0.01953 q -0.620117,0.0098 -0.942383,0.126953 -0.317383,0.117188 -0.488281,0.361329 -0.170899,0.24414 -0.170899,0.639648 0,0.429688 0.229492,0.664063 0.234375,0.234375 0.664063,0.234375 z"
   id="text60"
   class="mod"
   style="font-size:10px;font-family:Arial;text-align:center;text-anchor:middle;fill:#111111"
   aria-label="Meta" />&#10;    </g>&#10;  </g>&#10;</g>&#10;&#10;</svg>
