<?xml version="1.0" encoding="UTF-8" standalone="no"?>
<svg
   version="1.1"
   id="Ebene_1"
   height="153"
   width="530"
   viewBox="0 0 530 153"
   enable-background="new 0 0 535 0"
   xml:space="preserve"
   inkscape:export-xdpi="90"
   inkscape:export-ydpi="90"
   sodipodi:docname="noted-1-tkl.svg"
   xmlns:inkscape="http://www.inkscape.org/namespaces/inkscape"
   xmlns:sodipodi="http://sodipodi.sourceforge.net/DTD/sodipodi-0.dtd"
   xmlns:xlink="http://www.w3.org/1999/xlink"
   xmlns="http://www.w3.org/2000/svg"
   xmlns:svg="http://www.w3.org/2000/svg"
   xmlns:rdf="http://www.w3.org/1999/02/22-rdf-syntax-ns#"
   xmlns:cc="http://creativecommons.org/ns#"
   xmlns:dc="http://purl.org/dc/elements/1.1/">&#10;&#10;  <metadata
   id="metadata135">&#10;    <rdf:RDF>&#10;      <cc:Work
   rdf:about="">&#10;        <dc:format>image/svg+xml</dc:format>&#10;        <dc:type
   rdf:resource="http://purl.org/dc/dcmitype/StillImage" />&#10;        <dc:title />&#10;      </cc:Work>&#10;    </rdf:RDF>&#10;  </metadata>&#10;&#10;<defs
   id="defs">&#10;  <style
   type="text/css"
   id="style46661">&#10;  text.mod, text.key, text.dead {&#10;    fill:#111;&#10;    fill-opacity:1;&#10;      stroke:none;&#10;      font-style:normal;&#10;      font-variant:normal;&#10;      font-weight:normal;&#10;      font-stretch:normal;&#10;      display:inline;&#10;      font-family:Arial;&#10;      writing-mode:lr-tb;&#10;  }&#10;&#10;  text.key {&#10;      font-family:Arial;&#10;  }&#10;&#10;  text.dead {&#10;      font-family: Gentium Plus Compact;&#10;  }&#10;&#10;  text.space, text.dead, text.center, text.key, text.mod {&#10;      text-align:center;&#10;      text-anchor:middle;&#10;  }&#10;&#10;  text.key { font-size:18px; }&#10;  text.dead { font-size:18px; }&#10;  text.mod { font-size:10px; }&#10;  text.big { font-size:12px; }&#10;&#10;  .key {&#10;  stroke-width:0.75;&#10;  }&#10;&#10;  .grey { fill:#949494; stroke:#696969; }&#10;  .grey { fill:#9f9f9f; stroke:#747474; }&#10;&#10;  .numpad { fill:#afaa9f; stroke:#747474; }&#10;&#10;  /* bootstrap colors */&#10;  .l5, .r5 { fill:#93CCEA; }&#10;  .l4, .r4 { fill:#7abeb3; }&#10;  .l3, .r3 { fill:#63b280; }&#10;  .l2, .r2 { fill:#4aa44a; }&#10;  .l1, .r1 { fill:#4aa44a; }&#10;&#10;  /* btn bg hover, unused */&#10;  .l2, .r2 { stroke:#3071a9; }&#10;  .l3, .r3 { stroke:#449d44; }&#10;  .l4, .r4 { stroke:#c9302c; }&#10;  .l5, .r5 { stroke:#ec971f; }&#10;&#10;  /* btn border hover */&#10;  .l1, .r1 { stroke:#204d74; }&#10;  .l2, .r2 { stroke:#204d74; }&#10;  .l3, .r3 { stroke:#204d74; }&#10;  .l4, .r4 { stroke:#204d74; }&#10;  .l5, .r5 { stroke:#204d74; }&#10;&#10;  <!-- text.nubkey { fill:#eee; } -->&#10;&#10;  .pressed {&#10;    <!--opacity:0.5;-->&#10;    fill:#777;&#10;  }&#10;  </style>&#10;&#10;  <g
   id="basekey">&#10;    <rect
   width="32"
   height="32"
   rx="4"
   class="key"
   id="rect1" />&#10;  </g>&#10;&#10;  <g
   id="nub">&#10;    <rect
   width="14"
   height="1"
   rx="1"
   style="fill:#eee;"
   id="rect2" />&#10;  </g>&#10;&#10;</defs>&#10;<sodipodi:namedview
   pagecolor="#ffffff"
   bordercolor="#666666"
   borderopacity="1"
   objecttolerance="10"
   gridtolerance="10"
   guidetolerance="10"
   inkscape:pageopacity="0"
   inkscape:pageshadow="2"
   inkscape:window-width="1614"
   inkscape:window-height="969"
   id="base"
   showgrid="false"
   inkscape:zoom="0.70961538"
   inkscape:cx="685.32105"
   inkscape:cy="241.15395"
   inkscape:window-x="78"
   inkscape:window-y="71"
   inkscape:window-maximized="0"
   inkscape:current-layer="Ebene_1"
   inkscape:showpageshadow="2"
   inkscape:pagecheckerboard="0"
   inkscape:deskcolor="#d1d1d1" />&#10;&#10;<rect
   width="100%"
   height="100%"
   rx="4"
   style="fill:#eee"
   id="rect3" />&#10;&#10;<g
   transform="translate(3.5,3.5)"
   id="g62">&#10;&#10;  <g
   transform="translate(0, 0)"
   id="g32">&#10;&#10;    <!-- outer column -->&#10;    <g
   transform="translate(0, 0)"
   id="g5">&#10;      <use
   xlink:href="#basekey"
   y="0"
   class="l5"
   id="use3" />&#10;      <use
   xlink:href="#basekey"
   y="36"
   class="key grey"
   id="m3l" />&#10;      <use
   xlink:href="#basekey"
   y="72"
   class="key grey"
   id="use4" />&#10;&#10;      <path
   d="M 15.20459,10.46875 V 8.9570313 h 1.582031 V 10.46875 Z m 1.582031,12.708984 q 0,1.344727 -0.527344,1.951172 -0.527343,0.606446 -1.582031,0.606446 -0.676758,0 -1.116211,-0.0791 v -1.22168 l 0.544922,0.05273 q 0.606445,0 0.852539,-0.316407 0.246094,-0.316406 0.246094,-1.230468 V 12.490234 h 1.582031 z"
   id="text4"
   class="key"
   style="font-size:18px;font-family:Arial;text-align:center;text-anchor:middle;fill:#111111;stroke-width:0.75"
   aria-label="j" />&#10;      <path
   d="m 15.724121,56 v -4.589844 q 0,-0.761719 0.04394,-1.464844 -0.239257,0.874024 -0.429687,1.367188 L 13.561035,56 h -0.654297 l -1.801758,-4.6875 -0.273437,-0.830078 -0.161133,-0.53711 0.01465,0.541993 0.01953,0.922851 V 56 H 9.8745117 v -6.879883 h 1.2255863 l 1.831054,4.770508 q 0.09766,0.288086 0.185547,0.620117 0.09277,0.327149 0.122071,0.473633 0.03906,-0.195313 0.161132,-0.59082 0.126953,-0.400391 0.170899,-0.50293 l 1.796875,-4.770508 h 1.196289 V 56 Z m 6.782227,-1.899414 q 0,0.952148 -0.605469,1.474609 -0.605469,0.522461 -1.728516,0.522461 -1.044922,0 -1.669922,-0.46875 -0.620117,-0.473633 -0.737304,-1.396484 l 0.908203,-0.08301 q 0.175781,1.220703 1.499023,1.220703 0.664063,0 1.040039,-0.327148 0.38086,-0.327149 0.38086,-0.97168 0,-0.561523 -0.434571,-0.874023 -0.429687,-0.317383 -1.245117,-0.317383 h -0.498047 v -0.761719 h 0.478516 q 0.722656,0 1.118164,-0.3125 0.400391,-0.317383 0.400391,-0.874023 0,-0.551758 -0.327149,-0.869141 -0.322265,-0.322266 -0.961914,-0.322266 -0.581055,0 -0.942383,0.297852 -0.356445,0.297851 -0.415039,0.839844 l -0.883789,-0.06836 q 0.09766,-0.844726 0.698242,-1.318359 0.605469,-0.473633 1.552735,-0.473633 1.035156,0 1.606445,0.483399 0.576172,0.478515 0.576172,1.33789 0,0.65918 -0.371094,1.074219 -0.366211,0.410156 -1.069336,0.556641 v 0.01953 q 0.771485,0.08301 1.201172,0.517578 0.429688,0.43457 0.429688,1.09375 z"
   id="m3ltxt"
   class="mod"
   style="font-size:10px;font-family:Arial;text-align:center;text-anchor:middle;fill:#111111"
   aria-label="M3" />&#10;      <path
   d="m 11.554199,92 v -4.589844 q 0,-0.761719 0.04395,-1.464844 -0.239258,0.874024 -0.429688,1.367188 L 9.3911133,92 H 8.7368164 l -1.8017578,-4.6875 -0.2734375,-0.830078 -0.1611328,-0.53711 0.014648,0.541993 0.019531,0.922851 V 92 H 5.7045898 v -6.879883 h 1.225586 l 1.8310547,4.770508 q 0.097656,0.288086 0.1855468,0.620117 0.092773,0.327149 0.1220704,0.473633 0.039063,-0.195313 0.1611328,-0.59082 0.1269531,-0.400391 0.1708984,-0.50293 l 1.7968751,-4.770508 h 1.196289 V 92 Z m 3.007813,-2.456055 q 0,0.908203 0.375976,1.401367 0.375977,0.493165 1.098633,0.493165 0.571289,0 0.913086,-0.229493 0.34668,-0.229492 0.46875,-0.581054 l 0.771484,0.219726 q -0.473632,1.25 -2.15332,1.25 -1.171875,0 -1.787109,-0.698242 -0.610352,-0.698242 -0.610352,-2.075195 0,-1.308594 0.610352,-2.006836 0.615234,-0.698242 1.752929,-0.698242 2.329102,0 2.329102,2.807617 v 0.117187 z m 2.861328,-0.673828 q -0.07324,-0.834961 -0.424805,-1.21582 -0.351562,-0.385742 -1.010742,-0.385742 -0.639648,0 -1.015625,0.429687 -0.371094,0.424805 -0.400391,1.171875 z m 4.057617,3.09082 q -0.43457,0.117188 -0.888672,0.117188 -1.054687,0 -1.054687,-1.196289 v -3.525391 h -0.610352 v -0.639648 h 0.644531 l 0.258789,-1.181641 h 0.585938 v 1.181641 h 0.976562 v 0.639648 h -0.976562 v 3.334961 q 0,0.38086 0.12207,0.53711 0.126953,0.151367 0.434571,0.151367 0.175781,0 0.507812,-0.06836 z m 2.094727,0.136719 q -0.795899,0 -1.196289,-0.419922 -0.400391,-0.419922 -0.400391,-1.152343 0,-0.820313 0.537109,-1.259766 0.541992,-0.439453 1.743164,-0.46875 l 1.186524,-0.01953 v -0.288086 q 0,-0.644531 -0.273438,-0.922852 -0.273437,-0.27832 -0.859375,-0.27832 -0.59082,0 -0.859375,0.200195 -0.268554,0.200196 -0.322265,0.639649 l -0.917969,-0.08301 q 0.224609,-1.425781 2.119141,-1.425781 0.996093,0 1.499023,0.458984 0.50293,0.454102 0.50293,1.318359 v 2.275391 q 0,0.390625 0.102539,0.59082 0.102539,0.195313 0.390625,0.195313 0.126953,0 0.288086,-0.03418 v 0.546875 q -0.332032,0.07813 -0.678711,0.07813 -0.488282,0 -0.712891,-0.253906 -0.219726,-0.258789 -0.249023,-0.805664 h -0.0293 q -0.336914,0.605469 -0.786133,0.859375 -0.444336,0.249023 -1.083984,0.249023 z m 0.200195,-0.659179 q 0.483398,0 0.859375,-0.219727 0.375976,-0.219727 0.59082,-0.600586 0.219727,-0.385742 0.219727,-0.791016 v -0.43457 l -0.961914,0.01953 q -0.620117,0.0098 -0.942383,0.126953 -0.317383,0.117188 -0.488281,0.361329 -0.170899,0.24414 -0.170899,0.639648 0,0.429688 0.229492,0.664063 0.234375,0.234375 0.664063,0.234375 z"
   id="text5"
   class="mod"
   style="font-size:10px;font-family:Arial;text-align:center;text-anchor:middle;fill:#111111"
   aria-label="Meta" />&#10;    </g>&#10;&#10;    <!-- pinky finger column -->&#10;    <g
   transform="translate(36, 0)"
   id="g9">&#10;      <use
   xlink:href="#basekey"
   y="0"
   class="l5"
   id="use5" />&#10;      <use
   xlink:href="#basekey"
   y="36"
   class="l5"
   id="use6" />&#10;      <use
   xlink:href="#basekey"
   y="72"
   class="l5"
   id="use7" />&#10;&#10;      <path
   d="m 12.229492,22 v -1.204102 l 5.317383,-7.083984 H 12.52832 v -1.22168 h 6.890625 v 1.204102 l -5.326172,7.083984 h 5.510743 V 22 Z"
   id="text7"
   class="key"
   style="font-size:18px;font-family:Arial;text-align:center;text-anchor:middle;fill:#111111;stroke-width:0.75"
   aria-label="z" />&#10;      <path
   d="m 13.916992,53.201172 q 0,1.898437 0.597656,2.8125 0.597657,0.914062 1.801758,0.914062 0.84375,0 1.40625,-0.457031 0.571289,-0.457031 0.703125,-1.40625 l 1.59961,0.105469 q -0.184571,1.371094 -1.168946,2.188476 -0.984375,0.817383 -2.496093,0.817383 -1.995118,0 -3.049805,-1.256836 -1.045899,-1.265625 -1.045899,-3.682617 0,-2.399414 1.054688,-3.65625 1.054687,-1.265625 3.023437,-1.265625 1.458985,0 2.416993,0.755859 0.966796,0.75586 1.21289,2.083008 l -1.625976,0.123047 q -0.123047,-0.791015 -0.624024,-1.256836 -0.500976,-0.46582 -1.423828,-0.46582 -1.256836,0 -1.819336,0.834961 -0.5625,0.834961 -0.5625,2.8125 z"
   id="text8"
   class="key"
   style="font-size:18px;font-family:Arial;text-align:center;text-anchor:middle;fill:#111111;stroke-width:0.75"
   aria-label="c" />&#10;      <path
   d="m 16.887695,94 h -1.87207 l -3.454102,-9.509766 h 1.6875 l 2.091797,6.1875 q 0.114258,0.351563 0.606446,2.083008 l 0.307617,-1.02832 0.342773,-1.03711 2.16211,-6.205078 h 1.678711 z"
   id="text9"
   class="key"
   style="font-size:18px;font-family:Arial;text-align:center;text-anchor:middle;fill:#111111;stroke-width:0.75"
   aria-label="v" />&#10;    </g>&#10;&#10;    <!-- ring finger column -->&#10;    <g
   transform="translate(72, 0)"
   id="g13">&#10;      <use
   xlink:href="#basekey"
   y="0"
   class="l4"
   id="use9" />&#10;      <use
   xlink:href="#basekey"
   y="36"
   class="l4"
   id="use10" />&#10;      <use
   xlink:href="#basekey"
   y="72"
   class="l4"
   id="use11" />&#10;&#10;      <path
   d="m 13.178711,25.735352 q -0.650391,0 -1.089844,-0.09668 v -1.186524 q 0.333985,0.05273 0.738281,0.05273 1.476563,0 2.337891,-2.170899 l 0.149414,-0.377929 -3.770508,-9.465821 h 1.6875 l 2.003907,5.25586 q 0.04394,0.123047 0.105468,0.298828 0.06152,0.166992 0.395508,1.142578 0.333984,0.975586 0.360352,1.089844 l 0.615234,-1.731446 2.083008,-6.055664 h 1.669922 L 16.808594,22 q -0.588867,1.520508 -1.098633,2.258789 -0.509766,0.74707 -1.133789,1.107422 -0.615234,0.369141 -1.397461,0.369141 z"
   id="text11"
   class="key"
   style="font-size:18px;font-family:Arial;text-align:center;text-anchor:middle;fill:#111111;stroke-width:0.75"
   aria-label="y" />&#10;      <path
   d="m 19.849609,55.37207 q 0,1.344727 -1.019531,2.074219 -1.010742,0.729492 -2.838867,0.729492 -1.775391,0 -2.742188,-0.580078 -0.958007,-0.588867 -1.248046,-1.828125 l 1.397461,-0.272461 q 0.202148,0.764649 0.83496,1.125 0.632813,0.351563 1.757813,0.351563 1.204101,0 1.757812,-0.369141 0.5625,-0.369141 0.5625,-1.107422 0,-0.5625 -0.386718,-0.914062 -0.386719,-0.351563 -1.248047,-0.580078 l -1.133789,-0.298829 q -1.362305,-0.351562 -1.942383,-0.685546 -0.571289,-0.342774 -0.896484,-0.826172 -0.325196,-0.483399 -0.325196,-1.186524 0,-1.300781 0.922852,-1.977539 0.93164,-0.685547 2.707031,-0.685547 1.573242,0 2.496094,0.553711 0.93164,0.553711 1.177734,1.775391 l -1.423828,0.175781 q -0.131836,-0.632812 -0.711914,-0.966797 -0.571289,-0.342773 -1.538086,-0.342773 -1.072266,0 -1.582031,0.325195 -0.509766,0.325195 -0.509766,0.984375 0,0.404297 0.210938,0.667969 0.210937,0.263672 0.624023,0.448242 0.413086,0.18457 1.740234,0.509766 1.256836,0.316406 1.810547,0.588867 0.553711,0.263672 0.870118,0.588867 0.325195,0.325195 0.500976,0.755859 0.175781,0.421875 0.175781,0.966797 z"
   id="text12"
   class="key"
   style="font-size:18px;font-family:Arial;text-align:center;text-anchor:middle;fill:#111111;stroke-width:0.75"
   aria-label="s" />&#10;      <path
   d="M 18.540039,94 15.982422,90.097656 13.407227,94 h -1.705079 l 3.38379,-4.886719 -3.225586,-4.623047 h 1.749023 l 2.373047,3.700196 2.355469,-3.700196 h 1.766601 L 16.878906,89.095703 20.306641,94 Z"
   id="text13"
   class="key"
   style="font-size:18px;font-family:Arial;text-align:center;text-anchor:middle;fill:#111111;stroke-width:0.75"
   aria-label="x" />&#10;    </g>&#10;&#10;    <!-- middle finger column -->&#10;    <g
   transform="translate(108, 0)"
   id="g17">&#10;      <use
   xlink:href="#basekey"
   y="0"
   class="l3"
   id="use13" />&#10;      <use
   xlink:href="#basekey"
   y="36"
   class="l3"
   id="use14" />&#10;      <use
   xlink:href="#basekey"
   y="72"
   class="l3"
   id="use15" />&#10;&#10;      <path
   d="m 13.754395,12.490234 v 6.029297 q 0,0.94043 0.18457,1.458985 0.18457,0.518554 0.588867,0.74707 0.404297,0.228516 1.186523,0.228516 1.142579,0 1.801758,-0.782227 0.65918,-0.782227 0.65918,-2.170898 v -5.510743 h 1.582031 v 7.479493 q 0,1.661132 0.05273,2.030273 h -1.494141 q -0.0088,-0.04395 -0.01758,-0.237305 -0.0088,-0.193359 -0.02637,-0.439453 -0.0088,-0.254883 -0.02637,-0.949219 h -0.02637 q -0.544922,0.984375 -1.265625,1.397461 -0.711914,0.404297 -1.77539,0.404297 -1.564453,0 -2.293946,-0.773437 -0.720703,-0.782227 -0.720703,-2.575196 v -6.336914 z"
   id="text15"
   class="key"
   style="font-size:18px;font-family:Arial;text-align:center;text-anchor:middle;fill:#111111;stroke-width:0.75"
   aria-label="u" />&#10;      <path
   d="m 15.20459,46.46875 v -1.511719 h 1.582031 v 1.511719 z m 0,11.53125 v -9.509766 h 1.582031 V 58 Z"
   id="text16"
   class="key"
   style="font-size:18px;font-family:Arial;text-align:center;text-anchor:middle;fill:#111111;stroke-width:0.75"
   aria-label="i" />&#10;      <path
   d="m 13.807129,84.490234 v 6.029297 q 0,0.94043 0.18457,1.458985 0.184571,0.518554 0.588867,0.74707 0.404297,0.228516 1.186524,0.228516 1.142578,0 1.801758,-0.782227 0.659179,-0.782227 0.659179,-2.170898 v -5.510743 h 1.582032 v 7.479493 q 0,1.661132 0.05273,2.030273 h -1.494141 q -0.0088,-0.04394 -0.01758,-0.237305 -0.0088,-0.193359 -0.02637,-0.439453 -0.0088,-0.254883 -0.02637,-0.949219 h -0.02637 q -0.544922,0.984375 -1.265625,1.397461 -0.711914,0.404297 -1.775391,0.404297 -1.564453,0 -2.293945,-0.773437 -0.720703,-0.782227 -0.720703,-2.575196 v -6.336914 z m 3.128906,-1.204101 v -1.617188 h 1.432617 v 1.617188 z m -3.46289,0 v -1.617188 h 1.450195 v 1.617188 z"
   id="text17"
   class="key"
   style="font-size:18px;font-family:Arial;text-align:center;text-anchor:middle;fill:#111111;stroke-width:0.75"
   aria-label="ü" />&#10;    </g>&#10;&#10;    <!-- index finger column -->&#10;    <g
   transform="translate(144,0)"
   id="g21">&#10;      <use
   xlink:href="#basekey"
   y="0"
   class="l2"
   id="use17" />&#10;      <use
   xlink:href="#basekey"
   y="36"
   class="l2"
   id="use18" />&#10;      <use
   xlink:href="#basekey"
   y="72"
   class="l2"
   id="use19" />&#10;&#10;      <path
   d="m 14.633301,22.175781 q -1.432617,0 -2.153321,-0.755859 -0.720703,-0.75586 -0.720703,-2.074219 0,-1.476562 0.966797,-2.267578 0.975586,-0.791016 3.137696,-0.84375 l 2.135742,-0.03516 v -0.518555 q 0,-1.160156 -0.492188,-1.661133 -0.492187,-0.500976 -1.546875,-0.500976 -1.063476,0 -1.546875,0.360351 -0.483398,0.360352 -0.580078,1.151367 l -1.652344,-0.149414 q 0.404297,-2.566406 3.814453,-2.566406 1.792969,0 2.698243,0.826172 0.905273,0.817383 0.905273,2.373047 v 4.095703 q 0,0.703125 0.18457,1.063477 0.184571,0.351562 0.703125,0.351562 0.228516,0 0.518555,-0.06152 v 0.984375 q -0.597656,0.140625 -1.22168,0.140625 -0.878906,0 -1.283203,-0.457032 -0.395508,-0.46582 -0.448242,-1.450195 h -0.05273 q -0.606446,1.089844 -1.415039,1.546875 -0.799805,0.448242 -1.951172,0.448242 z m 0.360351,-1.186523 q 0.870118,0 1.546875,-0.395508 0.676758,-0.395508 1.063477,-1.081055 0.395508,-0.694336 0.395508,-1.423828 v -0.782226 l -1.731446,0.03516 q -1.116211,0.01758 -1.696289,0.228515 -0.571289,0.210938 -0.878906,0.650391 -0.307617,0.439453 -0.307617,1.151367 0,0.773438 0.413086,1.195313 0.421875,0.421875 1.195312,0.421875 z"
   id="text19"
   class="key"
   style="font-size:18px;font-family:Arial;text-align:center;text-anchor:middle;fill:#111111;stroke-width:0.75"
   aria-label="a" />&#10;      <path
   d="m 13.42041,53.579102 q 0,1.634765 0.676758,2.52246 0.676758,0.887696 1.977539,0.887696 1.02832,0 1.643555,-0.413086 0.624023,-0.413086 0.84375,-1.045899 l 1.388672,0.395508 q -0.852539,2.25 -3.875977,2.25 -2.109375,0 -3.216797,-1.256836 -1.098633,-1.256836 -1.098633,-3.735351 0,-2.355469 1.098633,-3.612305 1.107422,-1.256836 3.155274,-1.256836 4.192382,0 4.192382,5.053711 v 0.210938 z m 5.150391,-1.212891 q -0.131836,-1.50293 -0.764649,-2.188477 -0.632812,-0.694336 -1.819336,-0.694336 -1.151367,0 -1.828125,0.773438 -0.667968,0.764648 -0.720703,2.109375 z"
   id="text20"
   class="key nubkey"
   style="font-size:18px;font-family:Arial;text-align:center;text-anchor:middle;fill:#111111;stroke-width:0.75"
   aria-label="e" />&#10;      <path
   d="m 14.633301,94.175781 q -1.432617,0 -2.153321,-0.755859 -0.720703,-0.75586 -0.720703,-2.074219 0,-1.476562 0.966797,-2.267578 0.975586,-0.791016 3.137696,-0.84375 l 2.135742,-0.03516 v -0.518555 q 0,-1.160156 -0.492188,-1.661133 -0.492187,-0.500976 -1.546875,-0.500976 -1.063476,0 -1.546875,0.360351 -0.483398,0.360352 -0.580078,1.151367 l -1.652344,-0.149414 q 0.404297,-2.566406 3.814453,-2.566406 1.792969,0 2.698243,0.826172 0.905273,0.817383 0.905273,2.373047 v 4.095703 q 0,0.703125 0.18457,1.063477 0.184571,0.351562 0.703125,0.351562 0.228516,0 0.518555,-0.06152 v 0.984375 q -0.597656,0.140625 -1.22168,0.140625 -0.878906,0 -1.283203,-0.457032 -0.395508,-0.46582 -0.448242,-1.450195 h -0.05273 q -0.606446,1.089844 -1.415039,1.546875 -0.799805,0.448242 -1.951172,0.448242 z m 0.360351,-1.186523 q 0.870118,0 1.546875,-0.395508 0.676758,-0.395508 1.063477,-1.081055 0.395508,-0.694336 0.395508,-1.423828 v -0.782226 l -1.731446,0.03516 q -1.116211,0.01758 -1.696289,0.228515 -0.571289,0.210938 -0.878906,0.650391 -0.307617,0.439453 -0.307617,1.151367 0,0.773438 0.413086,1.195313 0.421875,0.421875 1.195312,0.421875 z m 1.924805,-9.703125 v -1.617188 h 1.432617 v 1.617188 z m -3.462891,0 v -1.617188 h 1.450196 v 1.617188 z"
   id="text21"
   class="key"
   style="font-size:18px;font-family:Arial;text-align:center;text-anchor:middle;fill:#111111;stroke-width:0.75"
   aria-label="ä" />&#10;&#10;      <use
   x="10"
   y="65"
   xlink:href="#nub"
   id="use21" />&#10;    </g>&#10;&#10;    <!-- inner column -->&#10;    <g
   transform="translate(180,0)"
   id="g26">&#10;      <use
   xlink:href="#basekey"
   y="0"
   class="l2"
   id="use22" />&#10;      <use
   xlink:href="#basekey"
   y="36"
   class="l2"
   id="use23" />&#10;      <use
   xlink:href="#basekey"
   y="72"
   class="l2"
   id="use24" />&#10;&#10;      <path
   d="m 15.248535,22.175781 q -1.810547,0 -2.654297,-1.221679 -0.84375,-1.22168 -0.84375,-3.66504 0,-4.974609 3.498047,-4.974609 1.081055,0 1.78418,0.386719 0.703125,0.37793 1.177734,1.265625 h 0.01758 q 0,-0.263672 0.03516,-0.905274 0.03516,-0.65039 0.07031,-0.694335 h 1.520508 q -0.06152,0.518554 -0.06152,2.592773 v 10.775391 h -1.582031 v -3.858399 l 0.03516,-1.441406 h -0.01758 q -0.474609,0.94043 -1.168945,1.344726 -0.694336,0.395508 -1.810547,0.395508 z m 2.961914,-5.044922 q 0,-1.854492 -0.606445,-2.750976 -0.606445,-0.896485 -1.933594,-0.896485 -1.204101,0 -1.731445,0.896485 -0.527344,0.896484 -0.527344,2.856445 0,1.995117 0.527344,2.856445 0.536133,0.861329 1.713867,0.861329 1.344727,0 1.951172,-0.958008 0.606445,-0.958008 0.606445,-2.865235 z"
   id="text24"
   class="key"
   style="font-size:18px;font-family:Arial;text-align:center;text-anchor:middle;fill:#111111;stroke-width:0.75"
   aria-label="q" />&#10;      <path
   d="m 20.249512,53.236328 q 0,2.496094 -1.098633,3.717774 -1.098633,1.221679 -3.19043,1.221679 -2.083008,0 -3.146484,-1.265625 -1.063477,-1.274414 -1.063477,-3.673828 0,-4.921875 4.262696,-4.921875 2.179687,0 3.208007,1.204102 1.028321,1.195312 1.028321,3.717773 z m -1.661133,0 q 0,-1.96875 -0.588867,-2.856445 -0.580078,-0.896485 -1.959961,-0.896485 -1.388672,0 -2.012696,0.914063 -0.615234,0.905273 -0.615234,2.838867 0,1.880859 0.606445,2.830078 0.615235,0.94043 1.924805,0.94043 1.423828,0 2.030274,-0.914063 0.615234,-0.914062 0.615234,-2.856445 z"
   id="text25"
   class="key"
   style="font-size:18px;font-family:Arial;text-align:center;text-anchor:middle;fill:#111111;stroke-width:0.75"
   aria-label="o" />&#10;      <path
   d="m 20.249512,89.236328 q 0,2.496094 -1.098633,3.717774 -1.098633,1.221679 -3.19043,1.221679 -2.083008,0 -3.146484,-1.265625 -1.063477,-1.274414 -1.063477,-3.673828 0,-4.921875 4.262696,-4.921875 2.179687,0 3.208007,1.204102 1.028321,1.195312 1.028321,3.717773 z m -1.661133,0 q 0,-1.96875 -0.588867,-2.856445 -0.580078,-0.896485 -1.959961,-0.896485 -1.388672,0 -2.012696,0.914063 -0.615234,0.905273 -0.615234,2.838867 0,1.880859 0.606445,2.830078 0.615235,0.94043 1.924805,0.94043 1.423828,0 2.030274,-0.914063 0.615234,-0.914062 0.615234,-2.856445 z m -1.538086,-5.950195 v -1.617188 h 1.432617 v 1.617188 z m -3.462891,0 v -1.617188 h 1.450196 v 1.617188 z"
   id="text26"
   class="key"
   style="font-size:18px;font-family:Arial;text-align:center;text-anchor:middle;fill:#111111;stroke-width:0.75"
   aria-label="ö" />&#10;    </g>&#10;&#10;    <!-- thump cluster -->&#10;    <g
   transform="translate(144, 114)"
   id="g31">&#10;      <g
   transform="rotate(0)"
   id="g30">&#10;        <use
   xlink:href="#basekey"
   x="0"
   class="key grey"
   id="use26" />&#10;        <path
   d="m 15.724121,20 v -4.589844 q 0,-0.761718 0.04394,-1.464843 -0.239257,0.874023 -0.429687,1.367187 L 13.561035,20 h -0.654297 l -1.801758,-4.6875 -0.273437,-0.830078 -0.161133,-0.537109 0.01465,0.541992 0.01953,0.922851 V 20 H 9.8745117 v -6.879883 h 1.2255863 l 1.831054,4.770508 q 0.09766,0.288086 0.185547,0.620117 0.09277,0.327149 0.122071,0.473633 0.03906,-0.195313 0.161132,-0.59082 0.126953,-0.400391 0.170899,-0.50293 l 1.796875,-4.770508 h 1.196289 V 20 Z m 5.961914,-1.557617 V 20 H 20.855957 V 18.442383 H 17.61377 v -0.683594 l 3.149414,-4.638672 h 0.922851 v 4.628906 h 0.966797 v 0.69336 z m -0.830078,-4.331055 q -0.0098,0.0293 -0.136719,0.258789 -0.126953,0.229492 -0.190429,0.322266 l -1.762696,2.597656 -0.263672,0.361328 -0.07813,0.09766 h 2.431641 z"
   id="m4ltxt"
   class="mod"
   style="font-size:10px;font-family:Arial;text-align:center;text-anchor:middle;fill:#111111"
   aria-label="M4" />&#10;        <g
   transform="translate(36, 0) rotate(0)"
   id="g29">&#10;          <use
   xlink:href="#basekey"
   x="0"
   class="key grey"
   id="use27" />&#10;          <path
   d="M 17.298828,14.453125 16,13.154297 14.701172,14.453125 h 0.639648 v 5.058594 h 1.31836 V 14.453125 Z M 13.519531,14.941406 16,12.460938 18.480469,14.941406 H 17.147461 V 20 h -2.294922 v -5.058594 z"
   id="shiftltxt"
   class="mod"
   style="font-size:10px;font-family:Arial;text-align:center;text-anchor:middle;fill:#111111"
   aria-label="⇧" />&#10;          <g
   transform="translate(36, 0) rotate(0)"
   id="g28">&#10;            <use
   xlink:href="#basekey"
   x="0"
   class="l1"
   id="use28" />&#10;            <path
   d="m 12.381836,16.450195 h 5.087891 l -1.142579,-1.142578 0.585938,-0.585937 1.923828,1.923828 v -1.875 h 0.830078 v 4.199219 h -0.830078 v -1.884766 l -1.923828,1.923828 -0.585938,-0.585937 1.142579,-1.142579 h -5.087891 z"
   id="text28"
   class="mod"
   style="font-size:10px;font-family:Arial;text-align:center;text-anchor:middle;fill:#111111"
   aria-label="⇥" />&#10;          </g>&#10;        </g>&#10;      </g>&#10;    </g>&#10;  </g>&#10;&#10;&#10;&#10;&#10;  <g
   transform="translate(310,0)"
   id="g61">&#10;&#10;    <!-- thumb-cluster -->&#10;    <g
   transform="translate(36, 114)"
   id="g37">&#10;      <g
   transform="rotate(0, 36, 0)"
   id="g36">&#10;        <use
   xlink:href="#basekey"
   x="0"
   class="key grey"
   id="use32" />&#10;        <path
   d="m 15.724121,20 v -4.589844 q 0,-0.761718 0.04394,-1.464843 -0.239257,0.874023 -0.429687,1.367187 L 13.561035,20 h -0.654297 l -1.801758,-4.6875 -0.273437,-0.830078 -0.161133,-0.537109 0.01465,0.541992 0.01953,0.922851 V 20 H 9.8745117 v -6.879883 h 1.2255863 l 1.831054,4.770508 q 0.09766,0.288086 0.185547,0.620117 0.09277,0.327149 0.122071,0.473633 0.03906,-0.195313 0.161132,-0.59082 0.126953,-0.400391 0.170899,-0.50293 l 1.796875,-4.770508 h 1.196289 V 20 Z m 5.961914,-1.557617 V 20 H 20.855957 V 18.442383 H 17.61377 v -0.683594 l 3.149414,-4.638672 h 0.922851 v 4.628906 h 0.966797 v 0.69336 z m -0.830078,-4.331055 q -0.0098,0.0293 -0.136719,0.258789 -0.126953,0.229492 -0.190429,0.322266 l -1.762696,2.597656 -0.263672,0.361328 -0.07813,0.09766 h 2.431641 z"
   id="m4rtxt"
   class="mod"
   style="font-size:10px;font-family:Arial;text-align:center;text-anchor:middle;fill:#111111"
   aria-label="M4" />&#10;        <g
   transform="translate(-36, 0) rotate(0, 36, 0)"
   id="g35">&#10;          <use
   xlink:href="#basekey"
   x="0"
   class="l1"
   id="use33" />&#10;          <path
   d="m 14.359375,21.445312 h 3.28125 v -2.460937 h 0.820312 v 3.291016 h -4.921874 v -3.291016 h 0.820312 z"
   id="text33"
   class="mod space"
   style="font-size:10px;font-family:Arial;text-align:center;text-anchor:middle;fill:#111111"
   aria-label="␣" />&#10;          <g
   transform="translate(-36, 0) rotate(0, 36, 0)"
   id="g34">&#10;            <use
   xlink:href="#basekey"
   x="0"
   class="l1"
   id="use34" />&#10;            <path
   d="m 14.55957,19.345703 -2.480468,-2.480469 2.480468,-2.480468 v 1.333007 h 2.768555 v -3.007812 h 2.294922 l -0.0049,5.302734 H 14.55957 Z m -0.488281,-3.139648 v -0.639649 l -1.298828,1.298828 1.298828,1.298828 v -0.639648 h 5.058594 l 0.0049,-4.326172 h -1.31836 l -0.0049,3.007813 z"
   id="returntxt"
   class="mod"
   style="font-size:10px;font-family:Arial;text-align:center;text-anchor:middle;fill:#111111"
   aria-label="⏎" />&#10;          </g>&#10;        </g>&#10;      </g>&#10;    </g>&#10;&#10;    <!-- inner column -->&#10;    <g
   transform="translate(0,0)"
   id="g41">&#10;      <use
   xlink:href="#basekey"
   y="0"
   class="l2"
   id="use37" />&#10;      <use
   xlink:href="#basekey"
   y="36"
   class="l2"
   id="use38" />&#10;      <use
   xlink:href="#basekey"
   y="72"
   class="l2"
   id="use39" />&#10;&#10;      <path
   d="m 20.249512,17.201172 q 0,4.974609 -3.498047,4.974609 -2.197266,0 -2.953125,-1.652344 h -0.04394 q 0.03516,0.07031 0.03516,1.494141 v 3.717774 H 12.20752 V 14.432617 q 0,-1.467773 -0.05274,-1.942383 h 1.529297 q 0.0088,0.03516 0.02637,0.254883 0.01758,0.210938 0.03516,0.65918 0.02637,0.448242 0.02637,0.615234 h 0.03516 q 0.421875,-0.878906 1.116211,-1.283203 0.694336,-0.413086 1.828125,-0.413086 1.757812,0 2.62793,1.177735 0.870117,1.177734 0.870117,3.700195 z m -1.661133,0.03516 q 0,-1.986328 -0.536133,-2.838867 -0.536133,-0.852539 -1.705078,-0.852539 -0.94043,0 -1.476563,0.395508 -0.527343,0.395508 -0.808593,1.239258 -0.272461,0.83496 -0.272461,2.179687 0,1.87207 0.597656,2.759766 0.597656,0.887695 1.942383,0.887695 1.177734,0 1.713867,-0.861328 0.544922,-0.870117 0.544922,-2.90918 z"
   id="text39"
   class="key"
   style="font-size:18px;font-family:Arial;text-align:center;text-anchor:middle;fill:#111111;stroke-width:0.75"
   aria-label="p" />&#10;      <path
   d="m 18.210449,56.470703 q -0.439453,0.914063 -1.168945,1.30957 -0.720703,0.395508 -1.792969,0.395508 -1.801758,0 -2.654297,-1.21289 -0.84375,-1.212891 -0.84375,-3.673829 0,-4.974609 3.498047,-4.974609 1.081055,0 1.801758,0.395508 0.720703,0.395508 1.160156,1.256836 h 0.01758 l -0.01758,-1.063477 v -3.946289 h 1.582031 v 11.083008 q 0,1.485352 0.05273,1.959961 h -1.511719 q -0.02637,-0.140625 -0.06152,-0.650391 -0.02637,-0.509765 -0.02637,-0.878906 z m -4.798828,-3.234375 q 0,1.995117 0.527344,2.856445 0.527344,0.861329 1.713867,0.861329 1.344727,0 1.951172,-0.931641 0.606445,-0.931641 0.606445,-2.891602 0,-1.889648 -0.606445,-2.768554 -0.606445,-0.878907 -1.933594,-0.878907 -1.195312,0 -1.731445,0.887696 -0.527344,0.878906 -0.527344,2.865234 z"
   id="text40"
   class="key"
   style="font-size:18px;font-family:Arial;text-align:center;text-anchor:middle;fill:#111111;stroke-width:0.75"
   aria-label="d" />&#10;      <path
   d="m 19.818848,94 h -1.836914 l -1.661133,-6.723633 -0.316406,-1.485351 q -0.0791,0.395507 -0.246094,1.142578 Q 15.591309,87.671875 13.965332,94 H 12.137207 L 9.4741211,84.490234 h 1.5644529 l 1.608399,6.459961 q 0.06152,0.210938 0.377929,1.740235 l 0.149414,-0.650391 1.986329,-7.549805 h 1.696289 l 1.661132,6.530274 0.404297,1.669922 0.272461,-1.22168 1.801758,-6.978516 h 1.546875 z"
   id="text41"
   class="key"
   style="font-size:18px;font-family:Arial;text-align:center;text-anchor:middle;fill:#111111;stroke-width:0.75"
   aria-label="w" />&#10;    </g>&#10;&#10;&#10;    <!-- index finger column -->&#10;    <g
   transform="translate(36,0)"
   id="g45">&#10;      <use
   xlink:href="#basekey"
   y="0"
   class="r2"
   id="use41" />&#10;      <use
   xlink:href="#basekey"
   y="36"
   class="r2"
   id="use42" />&#10;      <use
   xlink:href="#basekey"
   y="72"
   class="r2"
   id="use43" />&#10;&#10;      <path
   d="m 20.249512,17.201172 q 0,4.974609 -3.498047,4.974609 -1.081055,0 -1.801758,-0.386719 -0.711914,-0.395507 -1.160156,-1.265625 h -0.01758 q 0,0.272461 -0.03516,0.834961 Q 13.70166,21.912109 13.684082,22 h -1.529297 q 0.05274,-0.474609 0.05274,-1.959961 V 8.9570313 h 1.582031 v 3.7177737 q 0,0.571289 -0.03516,1.344726 h 0.03516 q 0.439453,-0.914062 1.160156,-1.30957 0.729492,-0.395508 1.801758,-0.395508 1.801758,0 2.645508,1.212891 0.852539,1.21289 0.852539,3.673828 z m -1.661133,0.05273 q 0,-1.995117 -0.527344,-2.856445 -0.527344,-0.861328 -1.713867,-0.861328 -1.335938,0 -1.951172,0.914062 -0.606445,0.914063 -0.606445,2.900391 0,1.87207 0.597656,2.768555 0.597656,0.887695 1.942383,0.887695 1.195312,0 1.722656,-0.878906 0.536133,-0.887696 0.536133,-2.874024 z"
   id="text43"
   class="key"
   style="font-size:18px;font-family:Arial;text-align:center;text-anchor:middle;fill:#111111;stroke-width:0.75"
   aria-label="b" />&#10;      <path
   d="m 18.368652,57.929687 q -0.782226,0.210938 -1.599609,0.210938 -1.898438,0 -1.898438,-2.15332 v -6.345703 h -1.098632 v -1.151368 h 1.160156 l 0.46582,-2.126953 h 1.054688 v 2.126953 h 1.757812 v 1.151368 h -1.757812 v 6.002929 q 0,0.685547 0.219726,0.966797 0.228516,0.272461 0.782227,0.272461 0.316406,0 0.914062,-0.123047 z"
   id="text44"
   class="key nubkey"
   style="font-size:18px;font-family:Arial;text-align:center;text-anchor:middle;fill:#111111;stroke-width:0.75"
   aria-label="t" />&#10;      <path
   d="m 15.811035,97.735352 q -1.555664,0 -2.478515,-0.615235 -0.922852,-0.606445 -1.186524,-1.731445 l 1.59082,-0.228516 q 0.158204,0.65918 0.694336,1.010742 0.544922,0.360352 1.423828,0.360352 2.364258,0 2.364258,-2.768555 v -1.529297 h -0.01758 q -0.448242,0.914063 -1.230469,1.379883 -0.782226,0.457031 -1.828125,0.457031 -1.749023,0 -2.575195,-1.160156 -0.817383,-1.160156 -0.817383,-3.647461 0,-2.522461 0.878907,-3.717773 0.887695,-1.204102 2.689453,-1.204102 1.010742,0 1.749023,0.465821 0.74707,0.457031 1.151367,1.30957 h 0.01758 q 0,-0.263672 0.03516,-0.914063 0.03516,-0.65039 0.07031,-0.711914 h 1.50293 q -0.05273,0.47461 -0.05273,1.96875 v 7.268555 q 0,4.007813 -3.981445,4.007813 z m 2.408203,-8.490235 q 0,-1.160156 -0.316406,-1.995117 -0.316406,-0.84375 -0.896484,-1.283203 -0.571289,-0.448242 -1.300782,-0.448242 -1.21289,0 -1.766601,0.878906 -0.553711,0.878906 -0.553711,2.847656 0,1.951172 0.518555,2.803711 0.518554,0.852539 1.77539,0.852539 0.747071,0 1.327149,-0.439453 0.580078,-0.439453 0.896484,-1.256836 0.316406,-0.826172 0.316406,-1.959961 z"
   id="text45"
   class="key"
   style="font-size:18px;font-family:Arial;text-align:center;text-anchor:middle;fill:#111111;stroke-width:0.75"
   aria-label="g" />&#10;&#10;      <use
   x="10"
   y="65"
   xlink:href="#nub"
   id="use45" />&#10;    </g>&#10;&#10;    <!-- middle finger column -->&#10;    <g
   transform="translate(72,0)"
   id="g50">&#10;      <use
   xlink:href="#basekey"
   y="0"
   class="r3"
   id="use46" />&#10;      <use
   xlink:href="#basekey"
   y="36"
   class="r3"
   id="use47" />&#10;      <use
   xlink:href="#basekey"
   y="72"
   class="r3"
   id="use48" />&#10;&#10;      <path
   d="m 15.25293,22 v -6.029297 q 0,-1.379883 -0.37793,-1.907226 -0.37793,-0.527344 -1.362305,-0.527344 -1.010742,0 -1.599609,0.773437 -0.588867,0.773438 -0.588867,2.179688 V 22 H 9.7509766 v -7.479492 q 0,-1.661133 -0.052734,-2.030274 h 1.4941408 q 0.0088,0.04395 0.01758,0.237305 0.0088,0.193359 0.01758,0.448242 0.01758,0.246094 0.03516,0.94043 h 0.02637 q 0.509765,-1.010742 1.168945,-1.40625 0.65918,-0.395508 1.608398,-0.395508 1.081055,0 1.705078,0.430664 0.632813,0.430664 0.878907,1.371094 h 0.02637 q 0.492187,-0.958008 1.186523,-1.379883 0.703125,-0.421875 1.696289,-0.421875 1.441407,0 2.091797,0.782227 0.65918,0.782226 0.65918,2.566406 V 22 h -1.564453 v -6.029297 q 0,-1.379883 -0.37793,-1.907226 -0.37793,-0.527344 -1.362305,-0.527344 -1.037109,0 -1.617187,0.773437 -0.571289,0.764649 -0.571289,2.179688 V 22 Z"
   id="text48"
   class="key"
   style="font-size:18px;font-family:Arial;text-align:center;text-anchor:middle;fill:#111111;stroke-width:0.75"
   aria-label="m" />&#10;      <path
   d="m 18.245605,58 v -6.029297 q 0,-0.94043 -0.18457,-1.458984 -0.18457,-0.518555 -0.588867,-0.747071 -0.404297,-0.228515 -1.186523,-0.228515 -1.142579,0 -1.801758,0.782226 -0.65918,0.782227 -0.65918,2.170899 V 58 h -1.582031 v -7.479492 q 0,-1.661133 -0.05274,-2.030274 h 1.494141 q 0.0088,0.04395 0.01758,0.237305 0.0088,0.193359 0.01758,0.448242 0.01758,0.246094 0.03516,0.94043 h 0.02637 q 0.544922,-0.984375 1.256836,-1.388672 0.720703,-0.413086 1.784179,-0.413086 1.564453,0 2.285157,0.782227 0.729492,0.773437 0.729492,2.566406 V 58 Z"
   id="text49"
   class="key"
   style="font-size:18px;font-family:Arial;text-align:center;text-anchor:middle;fill:#111111;stroke-width:0.75"
   aria-label="n" />&#10;      <path
   d="m 16.883301,92.075195 v 1.476563 q 0,0.93164 -0.166992,1.555664 -0.166993,0.624023 -0.518555,1.195312 H 15.116699 Q 15.942871,95.107422 15.942871,94 h -0.773437 v -1.924805 z"
   id="text50"
   class="key"
   style="font-size:18px;font-family:Arial;text-align:center;text-anchor:middle;fill:#111111;stroke-width:0.75"
   aria-label="," />&#10;    </g>&#10;&#10;    <!-- ring finger colummn -->&#10;    <g
   transform="translate(108,0)"
   id="g54">&#10;      <use
   xlink:href="#basekey"
   y="0"
   class="r4"
   id="use50" />&#10;      <use
   xlink:href="#basekey"
   y="36"
   class="r4"
   id="use51" />&#10;      <use
   xlink:href="#basekey"
   y="72"
   class="r4"
   id="use52" />&#10;&#10;      <path
   d="M 15.213379,22 V 8.9570313 H 16.79541 V 22 Z"
   id="text52"
   class="key"
   style="font-size:18px;font-family:Arial;text-align:center;text-anchor:middle;fill:#111111;stroke-width:0.75"
   aria-label="l" />&#10;      <path
   d="m 14.250977,58 v -7.294922 q 0,-1.001953 -0.05274,-2.214844 h 1.494141 q 0.07031,1.617188 0.07031,1.942383 h 0.03516 q 0.377929,-1.22168 0.870117,-1.669922 0.492187,-0.448242 1.388672,-0.448242 0.316406,0 0.641601,0.08789 v 1.450195 q -0.316406,-0.08789 -0.84375,-0.08789 -0.984375,0 -1.50293,0.852539 -0.518554,0.84375 -0.518554,2.425782 V 58 Z"
   id="text53"
   class="key"
   style="font-size:18px;font-family:Arial;text-align:center;text-anchor:middle;fill:#111111;stroke-width:0.75"
   aria-label="r" />&#10;      <path
   d="m 15.143066,94 v -1.924805 h 1.713868 V 94 Z"
   id="text54"
   class="key"
   style="font-size:18px;font-family:Arial;text-align:center;text-anchor:middle;fill:#111111;stroke-width:0.75"
   aria-label="." />&#10;    </g>&#10;&#10;&#10;    <!-- pinky finger column -->&#10;    <g
   transform="translate(144,0)"
   id="g58">&#10;      <use
   xlink:href="#basekey"
   y="0"
   class="r5"
   id="use54" />&#10;      <use
   xlink:href="#basekey"
   y="36"
   class="r5"
   id="use55" />&#10;      <use
   xlink:href="#basekey"
   y="72"
   class="r5"
   id="use56" />&#10;&#10;      <path
   d="M 16.672363,13.641602 V 22 h -1.582031 v -8.358398 h -1.335937 v -1.151368 h 1.335937 v -1.072265 q 0,-1.300781 0.571289,-1.8720706 0.571289,-0.571289 1.749024,-0.571289 0.659179,0 1.11621,0.1054687 V 10.28418 q -0.395507,-0.07031 -0.703125,-0.07031 -0.606445,0 -0.878906,0.307617 -0.272461,0.307618 -0.272461,1.116211 v 0.852539 h 1.854492 v 1.151368 z"
   id="text56"
   class="key"
   style="font-size:18px;font-family:Arial;text-align:center;text-anchor:middle;fill:#111111;stroke-width:0.75"
   aria-label="f" />&#10;      <path
   d="m 13.780762,50.116211 q 0.509765,-0.931641 1.221679,-1.362305 0.720704,-0.439453 1.819336,-0.439453 1.546875,0 2.276368,0.773438 0.738281,0.764648 0.738281,2.575195 V 58 h -1.590821 v -6.029297 q 0,-1.001953 -0.18457,-1.485351 -0.18457,-0.492188 -0.606445,-0.720704 -0.421875,-0.228515 -1.168945,-0.228515 -1.116211,0 -1.792969,0.773437 -0.667969,0.773438 -0.667969,2.083008 V 58 H 12.242676 V 44.957031 h 1.582031 v 3.392578 q 0,0.536133 -0.03516,1.107422 -0.02637,0.571289 -0.03516,0.65918 z"
   id="text57"
   class="key"
   style="font-size:18px;font-family:Arial;text-align:center;text-anchor:middle;fill:#111111;stroke-width:0.75"
   aria-label="h" />&#10;      <path
   d="m 18.671875,94 -3.216797,-4.341797 -1.160156,0.958008 V 94 H 12.712891 V 80.957031 h 1.582031 v 8.147461 l 4.174805,-4.614258 h 1.854492 L 16.46582,88.577148 20.526367,94 Z"
   id="text58"
   class="key"
   style="font-size:18px;font-family:Arial;text-align:center;text-anchor:middle;fill:#111111;stroke-width:0.75"
   aria-label="k" />&#10;    </g>&#10;&#10;&#10;    <!-- outer column -->&#10;    <g
   transform="translate(180,0)"
   id="g60">&#10;      <use
   xlink:href="#basekey"
   y="0"
   class="r5"
   id="use58" />&#10;      <use
   xlink:href="#basekey"
   y="36"
   class="key grey"
   id="m3r" />&#10;      <use
   xlink:href="#basekey"
   y="72"
   class="key grey"
   id="use59" />&#10;&#10;      <path
   d="m 20.759277,19.407227 q 0,1.318359 -0.826172,2.047851 -0.826171,0.720703 -2.320312,0.720703 -1.50293,0 -2.487305,-0.430664 l -0.01758,-1.441406 q 0.457031,0.254883 1.160156,0.430664 0.703125,0.175781 1.309571,0.175781 0.808593,0 1.239258,-0.377929 0.430664,-0.37793 0.430664,-1.072266 0,-0.5625 -0.37793,-1.010742 -0.369141,-0.448242 -1.22168,-0.958008 -0.808594,-0.474609 -1.21289,-1.054688 -0.395508,-0.580078 -0.395508,-1.335937 0,-0.536133 0.246094,-0.975586 0.254882,-0.439453 0.729492,-0.834961 0.509765,-0.421875 0.738281,-0.791016 0.237305,-0.36914 0.237305,-0.808593 0,-0.676758 -0.588868,-1.081055 -0.588867,-0.413086 -1.546875,-0.413086 -1.300781,0 -1.916015,0.703125 -0.606445,0.703125 -0.606445,2.126953 V 22 h -1.582032 v -9.026367 q 0,-1.995117 1.028321,-3.0058596 1.037109,-1.0107421 3.076171,-1.0107421 1.669922,0 2.654297,0.711914 0.993164,0.7031247 0.993164,1.8984377 0,1.256836 -0.993164,2.162109 -0.694336,0.632813 -0.84375,0.852539 -0.149414,0.210938 -0.149414,0.465821 0,0.333984 0.237305,0.597656 0.246094,0.254883 0.606445,0.509765 0.360352,0.246094 0.782227,0.527344 1.617187,1.089844 1.617187,2.72461 z"
   id="text59"
   class="key"
   style="font-size:18px;font-family:Arial;text-align:center;text-anchor:middle;fill:#111111;stroke-width:0.75"
   aria-label="ß" />&#10;      <path
   d="m 15.724121,56 v -4.589844 q 0,-0.761719 0.04394,-1.464844 -0.239257,0.874024 -0.429687,1.367188 L 13.561035,56 h -0.654297 l -1.801758,-4.6875 -0.273437,-0.830078 -0.161133,-0.53711 0.01465,0.541993 0.01953,0.922851 V 56 H 9.8745117 v -6.879883 h 1.2255863 l 1.831054,4.770508 q 0.09766,0.288086 0.185547,0.620117 0.09277,0.327149 0.122071,0.473633 0.03906,-0.195313 0.161132,-0.59082 0.126953,-0.400391 0.170899,-0.50293 l 1.796875,-4.770508 h 1.196289 V 56 Z m 6.782227,-1.899414 q 0,0.952148 -0.605469,1.474609 -0.605469,0.522461 -1.728516,0.522461 -1.044922,0 -1.669922,-0.46875 -0.620117,-0.473633 -0.737304,-1.396484 l 0.908203,-0.08301 q 0.175781,1.220703 1.499023,1.220703 0.664063,0 1.040039,-0.327148 0.38086,-0.327149 0.38086,-0.97168 0,-0.561523 -0.434571,-0.874023 -0.429687,-0.317383 -1.245117,-0.317383 h -0.498047 v -0.761719 h 0.478516 q 0.722656,0 1.118164,-0.3125 0.400391,-0.317383 0.400391,-0.874023 0,-0.551758 -0.327149,-0.869141 -0.322265,-0.322266 -0.961914,-0.322266 -0.581055,0 -0.942383,0.297852 -0.356445,0.297851 -0.415039,0.839844 l -0.883789,-0.06836 q 0.09766,-0.844726 0.698242,-1.318359 0.605469,-0.473633 1.552735,-0.473633 1.035156,0 1.606445,0.483399 0.576172,0.478515 0.576172,1.33789 0,0.65918 -0.371094,1.074219 -0.366211,0.410156 -1.069336,0.556641 v 0.01953 q 0.771485,0.08301 1.201172,0.517578 0.429688,0.43457 0.429688,1.09375 z"
   id="m3rtxt"
   class="mod"
   style="font-size:10px;font-family:Arial;text-align:center;text-anchor:middle;fill:#111111"
   aria-label="M3" />&#10;      <path
   d="m 11.554199,92 v -4.589844 q 0,-0.761719 0.04395,-1.464844 -0.239258,0.874024 -0.429688,1.367188 L 9.3911133,92 H 8.7368164 l -1.8017578,-4.6875 -0.2734375,-0.830078 -0.1611328,-0.53711 0.014648,0.541993 0.019531,0.922851 V 92 H 5.7045898 v -6.879883 h 1.225586 l 1.8310547,4.770508 q 0.097656,0.288086 0.1855468,0.620117 0.092773,0.327149 0.1220704,0.473633 0.039063,-0.195313 0.1611328,-0.59082 0.1269531,-0.400391 0.1708984,-0.50293 l 1.7968751,-4.770508 h 1.196289 V 92 Z m 3.007813,-2.456055 q 0,0.908203 0.375976,1.401367 0.375977,0.493165 1.098633,0.493165 0.571289,0 0.913086,-0.229493 0.34668,-0.229492 0.46875,-0.581054 l 0.771484,0.219726 q -0.473632,1.25 -2.15332,1.25 -1.171875,0 -1.787109,-0.698242 -0.610352,-0.698242 -0.610352,-2.075195 0,-1.308594 0.610352,-2.006836 0.615234,-0.698242 1.752929,-0.698242 2.329102,0 2.329102,2.807617 v 0.117187 z m 2.861328,-0.673828 q -0.07324,-0.834961 -0.424805,-1.21582 -0.351562,-0.385742 -1.010742,-0.385742 -0.639648,0 -1.015625,0.429687 -0.371094,0.424805 -0.400391,1.171875 z m 4.057617,3.09082 q -0.43457,0.117188 -0.888672,0.117188 -1.054687,0 -1.054687,-1.196289 v -3.525391 h -0.610352 v -0.639648 h 0.644531 l 0.258789,-1.181641 h 0.585938 v 1.181641 h 0.976562 v 0.639648 h -0.976562 v 3.334961 q 0,0.38086 0.12207,0.53711 0.126953,0.151367 0.434571,0.151367 0.175781,0 0.507812,-0.06836 z m 2.094727,0.136719 q -0.795899,0 -1.196289,-0.419922 -0.400391,-0.419922 -0.400391,-1.152343 0,-0.820313 0.537109,-1.259766 0.541992,-0.439453 1.743164,-0.46875 l 1.186524,-0.01953 v -0.288086 q 0,-0.644531 -0.273438,-0.922852 -0.273437,-0.27832 -0.859375,-0.27832 -0.59082,0 -0.859375,0.200195 -0.268554,0.200196 -0.322265,0.639649 l -0.917969,-0.08301 q 0.224609,-1.425781 2.119141,-1.425781 0.996093,0 1.499023,0.458984 0.50293,0.454102 0.50293,1.318359 v 2.275391 q 0,0.390625 0.102539,0.59082 0.102539,0.195313 0.390625,0.195313 0.126953,0 0.288086,-0.03418 v 0.546875 q -0.332032,0.07813 -0.678711,0.07813 -0.488282,0 -0.712891,-0.253906 -0.219726,-0.258789 -0.249023,-0.805664 h -0.0293 q -0.336914,0.605469 -0.786133,0.859375 -0.444336,0.249023 -1.083984,0.249023 z m 0.200195,-0.659179 q 0.483398,0 0.859375,-0.219727 0.375976,-0.219727 0.59082,-0.600586 0.219727,-0.385742 0.219727,-0.791016 v -0.43457 l -0.961914,0.01953 q -0.620117,0.0098 -0.942383,0.126953 -0.317383,0.117188 -0.488281,0.361329 -0.170899,0.24414 -0.170899,0.639648 0,0.429688 0.229492,0.664063 0.234375,0.234375 0.664063,0.234375 z"
   id="text60"
   class="mod"
   style="font-size:10px;font-family:Arial;text-align:center;text-anchor:middle;fill:#111111"
   aria-label="Meta" />&#10;    </g>&#10;  </g>&#10;</g>&#10;&#10;</svg>
