<?xml version="1.0" encoding="UTF-8" standalone="no"?>
<svg
   version="1.1"
   id="Ebene_1"
   height="183"
   width="535"
   viewBox="0 0 535 183"
   enable-background="new 0 0 535 183"
   xml:space="preserve"
   inkscape:export-xdpi="90"
   inkscape:export-ydpi="90"
   sodipodi:docname="noted-2-tkl.svg"
   xmlns:inkscape="http://www.inkscape.org/namespaces/inkscape"
   xmlns:sodipodi="http://sodipodi.sourceforge.net/DTD/sodipodi-0.dtd"
   xmlns:xlink="http://www.w3.org/1999/xlink"
   xmlns="http://www.w3.org/2000/svg"
   xmlns:svg="http://www.w3.org/2000/svg"
   xmlns:rdf="http://www.w3.org/1999/02/22-rdf-syntax-ns#"
   xmlns:cc="http://creativecommons.org/ns#"
   xmlns:dc="http://purl.org/dc/elements/1.1/">&#10;&#10;  <metadata
   id="metadata135">&#10;    <rdf:RDF>&#10;      <cc:Work
   rdf:about="">&#10;        <dc:format>image/svg+xml</dc:format>&#10;        <dc:type
   rdf:resource="http://purl.org/dc/dcmitype/StillImage" />&#10;        <dc:title />&#10;      </cc:Work>&#10;    </rdf:RDF>&#10;  </metadata>&#10;&#10;<defs
   id="defs">&#10;  <style
   type="text/css"
   id="style46661">&#10;  text.mod, text.key, text.dead {&#10;    fill:#111;&#10;    fill-opacity:1;&#10;      stroke:none;&#10;      font-style:normal;&#10;      font-variant:normal;&#10;      font-weight:normal;&#10;      font-stretch:normal;&#10;      display:inline;&#10;      font-family:DejaVu Sans;&#10;      writing-mode:lr-tb;&#10;  }&#10;&#10;  text.key {&#10;      font-family:DejaVu Sans;&#10;  }&#10;&#10;  text.dead {&#10;      font-family: Gentium Plus Compact;&#10;  }&#10;&#10;  text.space, text.dead, text.center, text.key, text.mod {&#10;      text-align:center;&#10;      text-anchor:middle;&#10;  }&#10;&#10;  text.key { font-size:18px; }&#10;  text.dead { font-size:18px; }&#10;  text.mod { font-size:8px; }&#10;  text.big { font-size:12px; }&#10;&#10;  .key {&#10;  stroke-width:0.75;&#10;  }&#10;&#10;  .grey { fill:#949494; stroke:#696969; }&#10;  .grey { fill:#9f9f9f; stroke:#747474; }&#10;&#10;  .numpad { fill:#afaa9f; stroke:#747474; }&#10;&#10;  /* bootstrap colors */&#10;  .l5, .r5 { fill:#93CCEA; }&#10;  .l4, .r4 { fill:#7abeb3; }&#10;  .l3, .r3 { fill:#63b280; }&#10;  .l2, .r2 { fill:#4aa44a; }&#10;  .l1, .r1 { fill:#4aa44a; }&#10;&#10;  /* btn bg hover, unused */&#10;  .l2, .r2 { stroke:#3071a9; }&#10;  .l3, .r3 { stroke:#449d44; }&#10;  .l4, .r4 { stroke:#c9302c; }&#10;  .l5, .r5 { stroke:#ec971f; }&#10;&#10;  /* btn border hover */&#10;  .l1, .r1 { stroke:#204d74; }&#10;  .l2, .r2 { stroke:#204d74; }&#10;  .l3, .r3 { stroke:#204d74; }&#10;  .l4, .r4 { stroke:#204d74; }&#10;  .l5, .r5 { stroke:#204d74; }&#10;&#10;  <!-- text.nubkey { fill:#eee; } -->&#10;&#10;  .pressed {&#10;    <!--opacity:0.5;-->&#10;    fill:#777;&#10;  }&#10;  </style>&#10;&#10;  <g
   id="basekey">&#10;    <rect
   width="32"
   height="32"
   rx="4"
   class="key"
   id="rect1" />&#10;  </g>&#10;&#10;  <g
   id="nub">&#10;    <!-- <rect width="14" height="1" rx="1" style="fill:#eee;" /> -->&#10;    <rect
   width="14"
   height="1"
   rx="1"
   style="fill:#111;"
   id="rect2" />&#10;  </g>&#10;&#10;</defs>&#10;<sodipodi:namedview
   pagecolor="#ffffff"
   bordercolor="#666666"
   borderopacity="1"
   objecttolerance="10"
   gridtolerance="10"
   guidetolerance="10"
   inkscape:pageopacity="0"
   inkscape:pageshadow="2"
   inkscape:window-width="1614"
   inkscape:window-height="969"
   id="base"
   showgrid="false"
   inkscape:zoom="0.70961538"
   inkscape:cx="685.32105"
   inkscape:cy="241.15395"
   inkscape:window-x="78"
   inkscape:window-y="71"
   inkscape:window-maximized="0"
   inkscape:current-layer="Ebene_1"
   inkscape:showpageshadow="2"
   inkscape:pagecheckerboard="0"
   inkscape:deskcolor="#d1d1d1" />&#10;&#10;<g
   transform="translate(3.5,3.5)"
   id="g61">&#10;&#10;  <g
   transform="translate(0, 0)"
   id="g31">&#10;&#10;    <!-- outer column -->&#10;    <g
   transform="translate(0, 0)"
   id="g4">&#10;      <use
   xlink:href="#basekey"
   y="0"
   class="l5"
   id="use2" />&#10;      <use
   xlink:href="#basekey"
   y="36"
   class="key grey"
   id="m3l" />&#10;      <use
   xlink:href="#basekey"
   y="72"
   class="key grey"
   id="use3" />&#10;&#10;      <path
   d="m 15.112305,8.8779297 h 1.77539 V 21.085937 q 0,2.373047 -0.905273,3.445313 -0.896484,1.072266 -2.891602,1.072266 h -0.676757 v -1.494141 h 0.55371 q 1.177735,0 1.661133,-0.65918 0.483399,-0.659179 0.483399,-2.364258 z"
   id="text3"
   class="key"
   style="font-size:18px;font-family:'DejaVu Sans';text-align:center;text-anchor:middle;fill:#111111;stroke-width:0.75"
   aria-label="J" />&#10;      <path
   d="m 10.789063,50.167969 h 1.175781 l 1.488281,3.96875 1.496094,-3.96875 H 16.125 V 56 h -0.769531 v -5.121094 l -1.503906,4 h -0.792969 l -1.503906,-4 V 56 h -0.765625 z m 9.363281,2.6875 q 0.566406,0.121093 0.882812,0.503906 0.320313,0.382812 0.320313,0.945312 0,0.863282 -0.59375,1.335938 -0.59375,0.472656 -1.6875,0.472656 -0.367188,0 -0.757813,-0.07422 -0.386719,-0.07031 -0.800781,-0.214843 V 55.0625 q 0.328125,0.191406 0.71875,0.289062 0.390625,0.09766 0.816406,0.09766 0.742188,0 1.128906,-0.292969 0.390625,-0.292969 0.390625,-0.851563 0,-0.515625 -0.363281,-0.804687 -0.359375,-0.292969 -1.003906,-0.292969 h -0.679688 v -0.648437 h 0.710938 q 0.582031,0 0.890625,-0.230469 0.308594,-0.234375 0.308594,-0.671875 0,-0.449219 -0.320313,-0.6875 -0.316406,-0.242188 -0.910156,-0.242188 -0.324219,0 -0.695313,0.07031 -0.371093,0.07031 -0.816406,0.21875 V 50.3125 q 0.449219,-0.125 0.839844,-0.1875 0.394531,-0.0625 0.742187,-0.0625 0.898438,0 1.421875,0.410156 0.523438,0.40625 0.523438,1.101563 0,0.484375 -0.277344,0.820312 -0.277344,0.332031 -0.789062,0.460938 z"
   id="m3ltxt"
   class="mod"
   style="font-size:8px;font-family:'DejaVu Sans';text-align:center;text-anchor:middle;fill:#111111"
   aria-label="M3" />&#10;      <path
   d="m 6.8535156,86.167969 h 1.1757813 l 1.4882812,3.96875 1.4960939,-3.96875 h 1.175781 V 92 h -0.769531 v -5.121094 l -1.5039064,4 H 9.1230469 l -1.5039063,-4 V 92 h -0.765625 z m 10.6132814,3.464843 v 0.351563 h -3.304688 q 0.04687,0.742187 0.445313,1.132812 0.402344,0.386719 1.117187,0.386719 0.414063,0 0.800782,-0.101562 0.390625,-0.101563 0.773437,-0.304688 v 0.679688 q -0.386719,0.164062 -0.792969,0.25 -0.40625,0.08594 -0.824218,0.08594 -1.046875,0 -1.660157,-0.609375 -0.609375,-0.609375 -0.609375,-1.648437 0,-1.074219 0.578125,-1.703125 0.582032,-0.632813 1.566407,-0.632813 0.882812,0 1.394531,0.570313 0.515625,0.566406 0.515625,1.542968 z m -0.71875,-0.210937 q -0.0078,-0.589844 -0.332031,-0.941406 -0.320313,-0.351563 -0.851563,-0.351563 -0.601562,0 -0.964844,0.339844 -0.359375,0.339844 -0.414062,0.957031 z m 2.609375,-3.039063 V 87.625 h 1.480469 v 0.558594 h -1.480469 v 2.375 q 0,0.535156 0.144531,0.6875 0.148438,0.152343 0.597656,0.152343 h 0.738282 V 92 h -0.738282 q -0.832031,0 -1.148437,-0.308594 -0.316406,-0.3125 -0.316406,-1.132812 v -2.375 H 18.107422 V 87.625 h 0.527344 v -1.242188 z m 4.414062,3.417969 q -0.871093,0 -1.207031,0.199219 -0.335937,0.199219 -0.335937,0.679687 0,0.382813 0.25,0.609375 0.253906,0.222657 0.6875,0.222657 0.597656,0 0.957031,-0.421875 0.363281,-0.425782 0.363281,-1.128907 v -0.160156 z m 1.433594,-0.296875 V 92 h -0.71875 v -0.664063 q -0.246094,0.398438 -0.613281,0.589844 -0.367188,0.1875 -0.898438,0.1875 -0.671875,0 -1.070312,-0.375 -0.394531,-0.378906 -0.394531,-1.011719 0,-0.738281 0.492187,-1.113281 0.496094,-0.375 1.476563,-0.375 h 1.007812 v -0.07031 q 0,-0.496094 -0.328125,-0.765625 -0.324219,-0.273438 -0.914062,-0.273438 -0.375,0 -0.730469,0.08984 -0.355469,0.08984 -0.683594,0.269531 v -0.664062 q 0.394531,-0.152344 0.765625,-0.226563 0.371094,-0.07813 0.722656,-0.07813 0.949219,0 1.417969,0.492188 0.46875,0.492187 0.46875,1.492187 z"
   id="text4"
   class="mod"
   style="font-size:8px;font-family:'DejaVu Sans';text-align:center;text-anchor:middle;fill:#111111"
   aria-label="Meta" />&#10;    </g>&#10;&#10;    <!-- pinky finger column -->&#10;    <g
   transform="translate(36, 0)"
   id="g8">&#10;      <use
   xlink:href="#basekey"
   y="0"
   class="l5"
   id="use4" />&#10;      <use
   xlink:href="#basekey"
   y="36"
   class="l5"
   id="use5" />&#10;      <use
   xlink:href="#basekey"
   y="72"
   class="l5"
   id="use6" />&#10;&#10;      <path
   d="m 10.845215,8.8779297 h 10.30957 V 10.231445 L 12.85791,20.505859 h 8.499024 V 22 H 10.643066 V 20.646484 L 18.939941,10.37207 h -8.094726 z"
   id="text6"
   class="key"
   style="font-size:18px;font-family:'DejaVu Sans';text-align:center;text-anchor:middle;fill:#111111;stroke-width:0.75"
   aria-label="Z" />&#10;      <path
   d="m 21.308594,45.888672 v 1.87207 q -0.896485,-0.834961 -1.916016,-1.248047 -1.010742,-0.413086 -2.15332,-0.413086 -2.25,0 -3.445313,1.379883 -1.195312,1.371094 -1.195312,3.972656 0,2.592774 1.195312,3.972657 1.195313,1.371093 3.445313,1.371093 1.142578,0 2.15332,-0.413086 1.019531,-0.413085 1.916016,-1.248046 v 1.854492 q -0.931641,0.632812 -1.977539,0.949219 -1.03711,0.316406 -2.197266,0.316406 -2.979492,0 -4.693359,-1.819336 -1.713867,-1.828125 -1.713867,-4.983399 0,-3.164062 1.713867,-4.983398 1.713867,-1.828125 4.693359,-1.828125 1.177734,0 2.214844,0.316406 1.045898,0.307617 1.959961,0.931641 z"
   id="text7"
   class="key"
   style="font-size:18px;font-family:'DejaVu Sans';text-align:center;text-anchor:middle;fill:#111111;stroke-width:0.75"
   aria-label="C" />&#10;      <path
   d="M 14.993652,94 9.9838867,80.87793 h 1.8544923 l 4.157226,11.047851 4.166016,-11.047851 h 1.845703 L 17.006348,94 Z"
   id="text8"
   class="key"
   style="font-size:18px;font-family:'DejaVu Sans';text-align:center;text-anchor:middle;fill:#111111;stroke-width:0.75"
   aria-label="V" />&#10;    </g>&#10;&#10;    <!-- ring finger column -->&#10;    <g
   transform="translate(72, 0)"
   id="g12">&#10;      <use
   xlink:href="#basekey"
   y="0"
   class="l4"
   id="use8" />&#10;      <use
   xlink:href="#basekey"
   y="36"
   class="l4"
   id="use9" />&#10;      <use
   xlink:href="#basekey"
   y="72"
   class="l4"
   id="use10" />&#10;&#10;      <path
   d="m 10.467285,8.8779297 h 1.907227 l 3.638672,5.3964843 3.612304,-5.3964843 h 1.907227 L 16.89209,15.750977 V 22 h -1.78418 v -6.249023 z"
   id="text10"
   class="key"
   style="font-size:18px;font-family:'DejaVu Sans';text-align:center;text-anchor:middle;fill:#111111;stroke-width:0.75"
   aria-label="Y" />&#10;      <path
   d="m 19.919922,45.308594 v 1.731445 q -1.010742,-0.483398 -1.907227,-0.720703 -0.896484,-0.237305 -1.731445,-0.237305 -1.450195,0 -2.241211,0.5625 -0.782226,0.5625 -0.782226,1.59961 0,0.870117 0.518554,1.318359 0.527344,0.439453 1.986328,0.711914 l 1.072266,0.219727 q 1.986328,0.377929 2.926758,1.335937 0.949218,0.949219 0.949218,2.548828 0,1.907227 -1.283203,2.891602 -1.274414,0.984375 -3.74414,0.984375 -0.931641,0 -1.986328,-0.210938 -1.045899,-0.210937 -2.170899,-0.624023 v -1.828125 q 1.081055,0.606445 2.118164,0.914062 1.03711,0.307618 2.039063,0.307618 1.520508,0 2.346679,-0.597657 0.826172,-0.597656 0.826172,-1.705078 0,-0.966797 -0.597656,-1.511719 -0.588867,-0.544921 -1.942383,-0.817382 l -1.081054,-0.210938 q -1.986329,-0.395508 -2.874024,-1.239258 -0.887695,-0.84375 -0.887695,-2.346679 0,-1.740235 1.22168,-2.742188 1.230468,-1.001953 3.383789,-1.001953 0.922851,0 1.880859,0.166992 0.958008,0.166992 1.959961,0.500977 z"
   id="text11"
   class="key"
   style="font-size:18px;font-family:'DejaVu Sans';text-align:center;text-anchor:middle;fill:#111111;stroke-width:0.75"
   aria-label="S" />&#10;      <path
   d="m 10.968262,80.87793 h 1.907226 l 3.260742,4.877929 3.278321,-4.877929 h 1.907226 l -4.21875,6.301757 4.5,6.820313 H 19.695801 L 16.004395,88.418945 12.286621,94 h -1.916016 l 4.684571,-7.004883 z"
   id="text12"
   class="key"
   style="font-size:18px;font-family:'DejaVu Sans';text-align:center;text-anchor:middle;fill:#111111;stroke-width:0.75"
   aria-label="X" />&#10;    </g>&#10;&#10;    <!-- middle finger column -->&#10;    <g
   transform="translate(108, 0)"
   id="g16">&#10;      <use
   xlink:href="#basekey"
   y="0"
   class="l3"
   id="use12" />&#10;      <use
   xlink:href="#basekey"
   y="36"
   class="l3"
   id="use13" />&#10;      <use
   xlink:href="#basekey"
   y="72"
   class="l3"
   id="use14" />&#10;&#10;      <path
   d="m 10.977051,8.8779297 h 1.784179 v 7.9716793 q 0,2.109375 0.764649,3.041016 0.764648,0.922852 2.478516,0.922852 1.705078,0 2.469726,-0.922852 0.764649,-0.931641 0.764649,-3.041016 V 8.8779297 h 1.784179 v 8.1914063 q 0,2.566406 -1.274414,3.875976 -1.265625,1.309571 -3.74414,1.309571 -2.487305,0 -3.761719,-1.309571 -1.265625,-1.30957 -1.265625,-3.875976 z"
   id="text14"
   class="key"
   style="font-size:18px;font-family:'DejaVu Sans';text-align:center;text-anchor:middle;fill:#111111;stroke-width:0.75"
   aria-label="U" />&#10;      <path
   d="m 15.112305,44.87793 h 1.77539 V 58 h -1.77539 z"
   id="text15"
   class="key"
   style="font-size:18px;font-family:'DejaVu Sans';text-align:center;text-anchor:middle;fill:#111111;stroke-width:0.75"
   aria-label="I" />&#10;      <path
   d="m 10.977051,80.87793 h 1.784179 v 7.971679 q 0,2.109375 0.764649,3.041016 0.764648,0.922852 2.478516,0.922852 1.705078,0 2.469726,-0.922852 0.764649,-0.931641 0.764649,-3.041016 V 80.87793 h 1.784179 v 8.191406 q 0,2.566406 -1.274414,3.875976 -1.265625,1.309571 -3.74414,1.309571 -2.487305,0 -3.761719,-1.309571 -1.265625,-1.30957 -1.265625,-3.875976 z m 5.853515,-3.313477 h 1.78418 v 1.78418 h -1.78418 z m -3.436523,0 h 1.78418 v 1.78418 h -1.78418 z"
   id="text16"
   class="key"
   style="font-size:18px;font-family:'DejaVu Sans';text-align:center;text-anchor:middle;fill:#111111;stroke-width:0.75"
   aria-label="Ü" />&#10;    </g>&#10;&#10;    <!-- index finger column -->&#10;    <g
   transform="translate(144,0)"
   id="g20">&#10;      <use
   xlink:href="#basekey"
   y="0"
   class="l2"
   id="use16" />&#10;      <use
   xlink:href="#basekey"
   y="36"
   class="l2"
   id="use17" />&#10;      <use
   xlink:href="#basekey"
   y="72"
   class="l2"
   id="use18" />&#10;&#10;      <path
   d="m 15.995605,10.626953 -2.408203,6.530274 h 4.825196 z M 14.993652,8.8779297 h 2.012696 L 22.007324,22 H 20.161621 L 18.966309,18.633789 H 13.05127 L 11.855957,22 H 9.9838867 Z"
   id="text18"
   class="key"
   style="font-size:18px;font-family:'DejaVu Sans';text-align:center;text-anchor:middle;fill:#111111;stroke-width:0.75"
   aria-label="A" />&#10;      <path
   d="m 12.080078,44.87793 h 8.296875 v 1.49414 h -6.521484 v 3.884766 h 6.249023 v 1.494141 h -6.249023 v 4.754882 h 6.679687 V 58 h -8.455078 z"
   id="text19"
   class="key nubkey"
   style="font-size:18px;font-family:'DejaVu Sans';text-align:center;text-anchor:middle;fill:#111111;stroke-width:0.75"
   aria-label="E" />&#10;      <path
   d="m 15.995605,82.626953 -2.408203,6.530274 h 4.825196 z M 14.993652,80.87793 h 2.012696 L 22.007324,94 H 20.161621 L 18.966309,90.633789 H 13.05127 L 11.855957,94 H 9.9838867 Z m 1.828125,-3.313477 h 1.78418 v 1.78418 h -1.78418 z m -3.436523,0 h 1.78418 v 1.78418 h -1.78418 z"
   id="text20"
   class="key"
   style="font-size:18px;font-family:'DejaVu Sans';text-align:center;text-anchor:middle;fill:#111111;stroke-width:0.75"
   aria-label="Ä" />&#10;&#10;      <use
   x="10"
   y="65"
   xlink:href="#nub"
   id="use20" />&#10;    </g>&#10;&#10;    <!-- inner column -->&#10;    <g
   transform="translate(180,0)"
   id="g25">&#10;      <use
   xlink:href="#basekey"
   y="0"
   class="l2"
   id="use21" />&#10;      <use
   xlink:href="#basekey"
   y="36"
   class="l2"
   id="use22" />&#10;      <use
   xlink:href="#basekey"
   y="72"
   class="l2"
   id="use23" />&#10;&#10;      <path
   d="m 16.008789,10.082031 q -1.933594,0 -3.076172,1.441407 -1.133789,1.441406 -1.133789,3.92871 0,2.478516 1.133789,3.919922 1.142578,1.441407 3.076172,1.441407 1.933594,0 3.058594,-1.441407 1.133789,-1.441406 1.133789,-3.919922 0,-2.487304 -1.133789,-3.92871 -1.125,-1.441407 -3.058594,-1.441407 z m 2.487305,11.680664 2.33789,2.557617 H 18.689453 L 16.74707,22.219727 q -0.290039,0.01758 -0.448242,0.02637 -0.149414,0.0088 -0.290039,0.0088 -2.768555,0 -4.429687,-1.845703 -1.6523442,-1.854493 -1.6523442,-4.957032 0,-3.111328 1.6523442,-4.957031 1.661132,-1.854492 4.429687,-1.854492 2.759766,0 4.412109,1.854492 1.652344,1.845703 1.652344,4.957031 0,2.285157 -0.922851,3.911133 -0.914063,1.625977 -2.654297,2.399414 z"
   id="text23"
   class="key"
   style="font-size:18px;font-family:'DejaVu Sans';text-align:center;text-anchor:middle;fill:#111111;stroke-width:0.75"
   aria-label="Q" />&#10;      <path
   d="m 16.008789,46.082031 q -1.933594,0 -3.076172,1.441406 -1.133789,1.441407 -1.133789,3.928711 0,2.478516 1.133789,3.919922 1.142578,1.441407 3.076172,1.441407 1.933594,0 3.058594,-1.441407 1.133789,-1.441406 1.133789,-3.919922 0,-2.487304 -1.133789,-3.928711 -1.125,-1.441406 -3.058594,-1.441406 z m 0,-1.441406 q 2.759766,0 4.412109,1.854492 1.652344,1.845703 1.652344,4.957031 0,3.102539 -1.652344,4.957032 -1.652343,1.845703 -4.412109,1.845703 -2.768555,0 -4.429687,-1.845703 -1.6523442,-1.845703 -1.6523442,-4.957032 0,-3.111328 1.6523442,-4.957031 1.661132,-1.854492 4.429687,-1.854492 z"
   id="text24"
   class="key"
   style="font-size:18px;font-family:'DejaVu Sans';text-align:center;text-anchor:middle;fill:#111111;stroke-width:0.75"
   aria-label="O" />&#10;      <path
   d="m 16.008789,82.082031 q -1.933594,0 -3.076172,1.441406 -1.133789,1.441407 -1.133789,3.928711 0,2.478516 1.133789,3.919922 1.142578,1.441407 3.076172,1.441407 1.933594,0 3.058594,-1.441407 1.133789,-1.441406 1.133789,-3.919922 0,-2.487304 -1.133789,-3.928711 -1.125,-1.441406 -3.058594,-1.441406 z m 0,-1.441406 q 2.759766,0 4.412109,1.854492 1.652344,1.845703 1.652344,4.957031 0,3.102539 -1.652344,4.957032 -1.652343,1.845703 -4.412109,1.845703 -2.768555,0 -4.429687,-1.845703 -1.6523442,-1.845703 -1.6523442,-4.957032 0,-3.111328 1.6523442,-4.957031 1.661132,-1.854492 4.429687,-1.854492 z m 0.826172,-3.076172 h 1.78418 v 1.78418 h -1.78418 z m -3.436523,0 h 1.784179 v 1.78418 h -1.784179 z"
   id="text25"
   class="key"
   style="font-size:18px;font-family:'DejaVu Sans';text-align:center;text-anchor:middle;fill:#111111;stroke-width:0.75"
   aria-label="Ö" />&#10;    </g>&#10;&#10;    <!-- thump cluster -->&#10;    <g
   transform="translate(144, 114)"
   id="g30">&#10;      <g
   transform="rotate(0)"
   id="g29">&#10;        <use
   xlink:href="#basekey"
   x="0"
   class="key grey"
   id="use25" />&#10;        <path
   d="m 10.789063,14.167969 h 1.175781 l 1.488281,3.96875 1.496094,-3.96875 H 16.125 V 20 h -0.769531 v -5.121094 l -1.503906,4 h -0.792969 l -1.503906,-4 V 20 h -0.765625 z m 9.140624,0.6875 -1.992187,3.113281 h 1.992187 z m -0.207031,-0.6875 h 0.992188 v 3.800781 h 0.832031 V 18.625 H 20.714844 V 20 h -0.785157 v -1.375 h -2.632812 v -0.761719 z"
   id="m4ltxt"
   class="mod"
   style="font-size:8px;font-family:'DejaVu Sans';text-align:center;text-anchor:middle;fill:#111111"
   aria-label="M4" />&#10;        <g
   transform="translate(36, 0) rotate(0)"
   id="g28">&#10;          <use
   xlink:href="#basekey"
   x="0"
   class="key grey pressed"
   id="use26" />&#10;          <path
   d="M 17.039062,15.5625 16,14.523438 14.960938,15.5625 h 0.511718 v 4.046875 h 1.054688 V 15.5625 Z M 14.015625,15.953125 16,13.96875 17.984375,15.953125 H 16.917969 V 20 h -1.835938 v -4.046875 z"
   id="shiftltxt"
   class="mod"
   style="font-size:8px;font-family:'DejaVu Sans';text-align:center;text-anchor:middle;fill:#111111"
   aria-label="⇧" />&#10;          <g
   transform="translate(36, 0) rotate(0)"
   id="g27">&#10;            <use
   xlink:href="#basekey"
   x="0"
   class="l1"
   id="use27" />&#10;            <path
   d="m 13.105469,17.160156 h 4.070312 l -0.914062,-0.914062 0.46875,-0.46875 1.539062,1.539062 v -1.5 h 0.664063 v 3.359375 h -0.664063 v -1.507812 l -1.539062,1.539062 -0.46875,-0.46875 0.914062,-0.914062 h -4.070312 z"
   id="text27"
   class="mod"
   style="font-size:8px;font-family:'DejaVu Sans';text-align:center;text-anchor:middle;fill:#111111"
   aria-label="⇥" />&#10;          </g>&#10;        </g>&#10;      </g>&#10;    </g>&#10;  </g>&#10;&#10;&#10;&#10;&#10;  <g
   transform="translate(310,0)"
   id="g60">&#10;&#10;    <!-- thumb-cluster -->&#10;    <g
   transform="translate(36, 114)"
   id="g36">&#10;      <g
   transform="rotate(0, 36, 0)"
   id="g35">&#10;        <use
   xlink:href="#basekey"
   x="0"
   class="key grey"
   id="use31" />&#10;        <path
   d="m 10.789063,14.167969 h 1.175781 l 1.488281,3.96875 1.496094,-3.96875 H 16.125 V 20 h -0.769531 v -5.121094 l -1.503906,4 h -0.792969 l -1.503906,-4 V 20 h -0.765625 z m 9.140624,0.6875 -1.992187,3.113281 h 1.992187 z m -0.207031,-0.6875 h 0.992188 v 3.800781 h 0.832031 V 18.625 H 20.714844 V 20 h -0.785157 v -1.375 h -2.632812 v -0.761719 z"
   id="m4rtxt"
   class="mod"
   style="font-size:8px;font-family:'DejaVu Sans';text-align:center;text-anchor:middle;fill:#111111"
   aria-label="M4" />&#10;        <g
   transform="translate(-36, 0) rotate(0, 36, 0)"
   id="g34">&#10;          <use
   xlink:href="#basekey"
   x="0"
   class="l1"
   id="use32" />&#10;          <path
   d="m 14.6875,21.15625 h 2.625 V 19.1875 h 0.65625 v 2.632812 h -3.9375 V 19.1875 h 0.65625 z"
   id="text32"
   class="mod space"
   style="font-size:8px;font-family:'DejaVu Sans';text-align:center;text-anchor:middle;fill:#111111"
   aria-label="␣" />&#10;          <g
   transform="translate(-36, 0) rotate(0, 36, 0)"
   id="g33">&#10;            <use
   xlink:href="#basekey"
   x="0"
   class="l1"
   id="use33" />&#10;            <path
   d="m 14.847656,19.476562 -1.984375,-1.984375 1.984375,-1.984374 v 1.066406 H 17.0625 v -2.40625 h 1.835937 l -0.0039,4.242187 h -4.046875 z m -0.390625,-2.511718 v -0.511719 l -1.039062,1.039062 1.039062,1.039063 v -0.511719 h 4.046875 l 0.0039,-3.460937 h -1.054687 l -0.0039,2.40625 z"
   id="returntxt"
   class="mod"
   style="font-size:8px;font-family:'DejaVu Sans';text-align:center;text-anchor:middle;fill:#111111"
   aria-label="⏎" />&#10;          </g>&#10;        </g>&#10;      </g>&#10;    </g>&#10;&#10;    <!-- inner column -->&#10;    <g
   transform="translate(0,0)"
   id="g40">&#10;      <use
   xlink:href="#basekey"
   y="0"
   class="l2"
   id="use36" />&#10;      <use
   xlink:href="#basekey"
   y="36"
   class="l2"
   id="use37" />&#10;      <use
   xlink:href="#basekey"
   y="72"
   class="l2"
   id="use38" />&#10;&#10;      <path
   d="m 14.114746,10.336914 v 4.930664 h 2.232422 q 1.239258,0 1.916016,-0.641601 0.676757,-0.641602 0.676757,-1.828125 0,-1.177735 -0.676757,-1.819336 -0.676758,-0.641602 -1.916016,-0.641602 z M 12.339355,8.8779297 h 4.007813 q 2.206055,0 3.331055,1.0019531 1.133789,0.9931642 1.133789,2.9179692 0,1.942382 -1.133789,2.935546 -1.125,0.993164 -3.331055,0.993164 H 14.114746 V 22 h -1.775391 z"
   id="text38"
   class="key"
   style="font-size:18px;font-family:'DejaVu Sans';text-align:center;text-anchor:middle;fill:#111111;stroke-width:0.75"
   aria-label="P" />&#10;      <path
   d="m 12.611816,46.336914 v 10.204102 h 2.144532 q 2.71582,0 3.972656,-1.230469 1.265625,-1.230469 1.265625,-3.884766 0,-2.636719 -1.265625,-3.858398 -1.256836,-1.230469 -3.972656,-1.230469 z m -1.77539,-1.458984 h 3.647461 q 3.814453,0 5.598633,1.59082 1.784179,1.582031 1.784179,4.957031 0,3.392578 -1.792969,4.983399 Q 18.280762,58 14.483887,58 h -3.647461 z"
   id="text39"
   class="key"
   style="font-size:18px;font-family:'DejaVu Sans';text-align:center;text-anchor:middle;fill:#111111;stroke-width:0.75"
   aria-label="D" />&#10;      <path
   d="M 7.6987305,80.87793 H 9.4916992 L 12.251465,91.969727 15.002441,80.87793 h 1.995118 l 2.759765,11.091797 2.750977,-11.091797 h 1.801758 L 21.01416,94 H 18.781738 L 16.013184,82.609375 13.218262,94 H 10.98584 Z"
   id="text40"
   class="key"
   style="font-size:18px;font-family:'DejaVu Sans';text-align:center;text-anchor:middle;fill:#111111;stroke-width:0.75"
   aria-label="W" />&#10;    </g>&#10;&#10;&#10;    <!-- index finger column -->&#10;    <g
   transform="translate(36,0)"
   id="g44">&#10;      <use
   xlink:href="#basekey"
   y="0"
   class="r2"
   id="use40" />&#10;      <use
   xlink:href="#basekey"
   y="36"
   class="r2"
   id="use41" />&#10;      <use
   xlink:href="#basekey"
   y="72"
   class="r2"
   id="use42" />&#10;&#10;      <path
   d="m 13.367676,15.733398 v 4.807618 h 2.847656 q 1.432617,0 2.118164,-0.588868 0.694336,-0.597656 0.694336,-1.819336 0,-1.230468 -0.694336,-1.810546 -0.685547,-0.588868 -2.118164,-0.588868 z m 0,-5.396484 v 3.955078 h 2.627929 q 1.300782,0 1.933594,-0.483398 0.641602,-0.492188 0.641602,-1.494141 0,-0.993164 -0.641602,-1.485351 -0.632812,-0.492188 -1.933594,-0.492188 z M 11.592285,8.8779297 h 4.535156 q 2.030274,0 3.128907,0.84375 1.098632,0.8437503 1.098632,2.3994143 0,1.204101 -0.5625,1.916015 -0.5625,0.711914 -1.652343,0.887696 1.30957,0.28125 2.030273,1.177734 0.729492,0.887695 0.729492,2.223633 0,1.757812 -1.195312,2.71582 Q 18.509277,22 16.303223,22 h -4.710938 z"
   id="text42"
   class="key"
   style="font-size:18px;font-family:'DejaVu Sans';text-align:center;text-anchor:middle;fill:#111111;stroke-width:0.75"
   aria-label="B" />&#10;      <path
   d="m 10.449707,44.87793 h 11.100586 v 1.49414 H 16.89209 V 58 H 15.10791 V 46.37207 h -4.658203 z"
   id="text43"
   class="key nubkey"
   style="font-size:18px;font-family:'DejaVu Sans';text-align:center;text-anchor:middle;fill:#111111;stroke-width:0.75"
   aria-label="T" />&#10;      <path
   d="m 19.739746,92.12793 v -3.524414 h -2.900391 v -1.458985 h 4.658204 v 5.633789 q -1.028321,0.729492 -2.267579,1.107422 -1.239257,0.369141 -2.645507,0.369141 -3.076172,0 -4.816407,-1.792969 -1.731445,-1.801758 -1.731445,-5.009766 0,-3.216796 1.731445,-5.009765 1.740235,-1.801758 4.816407,-1.801758 1.283203,0 2.43457,0.316406 1.160156,0.316406 2.135742,0.931641 v 1.889648 q -0.984375,-0.834961 -2.091797,-1.256836 -1.107422,-0.421875 -2.329101,-0.421875 -2.408203,0 -3.621094,1.344727 -1.204102,1.344726 -1.204102,4.007812 0,2.654297 1.204102,3.999024 1.212891,1.344726 3.621094,1.344726 0.940429,0 1.678711,-0.158203 0.738281,-0.166992 1.327148,-0.509765 z"
   id="text44"
   class="key"
   style="font-size:18px;font-family:'DejaVu Sans';text-align:center;text-anchor:middle;fill:#111111;stroke-width:0.75"
   aria-label="G" />&#10;&#10;      <use
   x="10"
   y="65"
   xlink:href="#nub"
   id="use44" />&#10;    </g>&#10;&#10;    <!-- middle finger column -->&#10;    <g
   transform="translate(72,0)"
   id="g49">&#10;      <use
   xlink:href="#basekey"
   y="0"
   class="r3"
   id="use45" />&#10;      <use
   xlink:href="#basekey"
   y="36"
   class="r3"
   id="use46" />&#10;      <use
   xlink:href="#basekey"
   y="72"
   class="r3"
   id="use47" />&#10;&#10;      <path
   d="m 10.001465,8.8779297 h 2.645508 l 3.348632,8.9296873 3.366211,-8.9296873 h 2.645508 V 22 H 20.275879 V 10.477539 l -3.383789,9 h -1.78418 l -3.383789,-9 V 22 h -1.722656 z"
   id="text47"
   class="key"
   style="font-size:18px;font-family:'DejaVu Sans';text-align:center;text-anchor:middle;fill:#111111;stroke-width:0.75"
   aria-label="M" />&#10;      <path
   d="m 11.03418,44.87793 h 2.390625 l 5.818359,10.977539 V 44.87793 H 20.96582 V 58 H 18.575195 L 12.756836,47.022461 V 58 H 11.03418 Z"
   id="text48"
   class="key"
   style="font-size:18px;font-family:'DejaVu Sans';text-align:center;text-anchor:middle;fill:#111111;stroke-width:0.75"
   aria-label="N" />&#10;      <path
   d="m 12.378906,88.436523 h 7.242188 v 1.265625 h -7.242188 z"
   id="text49"
   class="key"
   style="font-size:18px;font-family:'DejaVu Sans';text-align:center;text-anchor:middle;fill:#111111;stroke-width:0.75"
   aria-label="–" />&#10;    </g>&#10;&#10;    <!-- ring finger colummn -->&#10;    <g
   transform="translate(108,0)"
   id="g53">&#10;      <use
   xlink:href="#basekey"
   y="0"
   class="r4"
   id="use49" />&#10;      <use
   xlink:href="#basekey"
   y="36"
   class="r4"
   id="use50" />&#10;      <use
   xlink:href="#basekey"
   y="72"
   class="r4"
   id="use51" />&#10;&#10;      <path
   d="m 12.752441,8.8779297 h 1.775391 V 20.505859 H 20.91748 V 22 h -8.165039 z"
   id="text51"
   class="key"
   style="font-size:18px;font-family:'DejaVu Sans';text-align:center;text-anchor:middle;fill:#111111;stroke-width:0.75"
   aria-label="L" />&#10;      <path
   d="m 17.73584,51.847656 q 0.571289,0.19336 1.107422,0.826172 0.544922,0.632813 1.089843,1.740234 L 21.734863,58 H 19.827637 L 18.148926,54.633789 Q 17.498535,53.31543 16.883301,52.884766 16.276855,52.454102 15.222168,52.454102 H 13.288574 V 58 h -1.77539 V 44.87793 h 4.007812 q 2.25,0 3.357422,0.940429 1.107422,0.94043 1.107422,2.838868 0,1.239257 -0.580078,2.05664 -0.571289,0.817383 -1.669922,1.133789 z m -4.447266,-5.510742 v 4.658203 h 2.232422 q 1.283203,0 1.933594,-0.588867 0.65918,-0.597656 0.65918,-1.749023 0,-1.151368 -0.65918,-1.731446 -0.650391,-0.588867 -1.933594,-0.588867 z"
   id="text52"
   class="key"
   style="font-size:18px;font-family:'DejaVu Sans';text-align:center;text-anchor:middle;fill:#111111;stroke-width:0.75"
   aria-label="R" />&#10;      <path
   d="m 13.389648,87.302734 q 0,-1.089843 0.75586,-1.836914 0.764648,-0.755859 1.87207,-0.755859 1.089844,0 1.836914,0.755859 0.75586,0.747071 0.75586,1.836914 0,1.098633 -0.75586,1.854493 Q 17.098633,89.913086 16,89.913086 q -1.098633,0 -1.854492,-0.755859 -0.75586,-0.75586 -0.75586,-1.854493 z"
   id="text53"
   class="key"
   style="font-size:18px;font-family:'DejaVu Sans';text-align:center;text-anchor:middle;fill:#111111;stroke-width:0.75"
   aria-label="•" />&#10;    </g>&#10;&#10;&#10;    <!-- pinky finger column -->&#10;    <g
   transform="translate(144,0)"
   id="g57">&#10;      <use
   xlink:href="#basekey"
   y="0"
   class="r5"
   id="use53" />&#10;      <use
   xlink:href="#basekey"
   y="36"
   class="r5"
   id="use54" />&#10;      <use
   xlink:href="#basekey"
   y="72"
   class="r5"
   id="use55" />&#10;&#10;      <path
   d="m 12.589844,8.8779297 h 7.541015 V 10.37207 h -5.765625 v 3.867188 h 5.203125 v 1.49414 H 14.365234 V 22 h -1.77539 z"
   id="text55"
   class="key"
   style="font-size:18px;font-family:'DejaVu Sans';text-align:center;text-anchor:middle;fill:#111111;stroke-width:0.75"
   aria-label="F" />&#10;      <path
   d="m 10.999023,44.87793 h 1.775391 v 5.378906 h 6.451172 V 44.87793 h 1.775391 V 58 H 19.225586 V 51.750977 H 12.774414 V 58 h -1.775391 z"
   id="text56"
   class="key"
   style="font-size:18px;font-family:'DejaVu Sans';text-align:center;text-anchor:middle;fill:#111111;stroke-width:0.75"
   aria-label="H" />&#10;      <path
   d="m 11.864746,80.87793 h 1.775391 v 5.545898 l 5.888672,-5.545898 h 2.285156 L 15.30127,86.995117 22.279785,94 h -2.33789 L 13.640137,87.680664 V 94 h -1.775391 z"
   id="text57"
   class="key"
   style="font-size:18px;font-family:'DejaVu Sans';text-align:center;text-anchor:middle;fill:#111111;stroke-width:0.75"
   aria-label="K" />&#10;    </g>&#10;&#10;&#10;    <!-- outer column -->&#10;    <g
   transform="translate(180,0)"
   id="g59">&#10;      <use
   xlink:href="#basekey"
   y="0"
   class="r5"
   id="use57" />&#10;      <use
   xlink:href="#basekey"
   y="36"
   class="key grey"
   id="m3r" />&#10;      <use
   xlink:href="#basekey"
   y="72"
   class="key grey"
   id="use58" />&#10;&#10;      <path
   d="m 18.109375,10.855469 q -0.958008,-0.791016 -2.487305,-0.791016 -0.5625,0 -1.010742,0.105469 -0.448242,0.105469 -0.870117,0.386719 -0.413086,0.28125 -0.694336,0.738281 -0.28125,0.457031 -0.448242,1.195312 -0.166992,0.729493 -0.166992,1.705079 V 22 h -1.78418 v -8.024414 q 0,-1.151367 0.246094,-2.056641 0.254883,-0.914062 0.694336,-1.520507 0.439453,-0.6152349 1.072265,-1.0195317 0.632813,-0.4042969 1.362305,-0.5800782 0.729492,-0.1757812 1.599609,-0.1757812 1.907227,0 3.243164,0.8701172 1.335938,0.8613279 1.819336,2.5224609 -1.819336,0 -2.953125,0.553711 -1.125,0.544922 -1.125,1.379883 0,0.395508 0.290039,0.694336 0.298828,0.290039 0.764649,0.492187 0.46582,0.19336 1.02832,0.395508 0.571289,0.193359 1.133789,0.46582 0.571289,0.272461 1.03711,0.641602 0.46582,0.36914 0.755859,0.984375 0.298828,0.615234 0.298828,1.423828 0,1.441406 -1.168945,2.329102 -1.160157,0.878906 -3.014649,0.878906 -1.582031,0 -3.348632,-0.834961 v -1.828125 q 0.958007,0.606445 1.731445,0.914062 0.782226,0.307618 1.757812,0.307618 0.861328,0 1.520508,-0.518555 0.667969,-0.518555 0.667969,-1.291992 0,-0.465821 -0.18457,-0.817383 -0.175782,-0.351563 -0.483399,-0.571289 -0.307617,-0.228516 -0.711914,-0.404297 -0.395508,-0.18457 -0.834961,-0.325195 -0.439453,-0.140625 -0.878906,-0.298829 -0.439453,-0.158203 -0.84375,-0.377929 -0.395508,-0.219727 -0.703125,-0.509766 -0.307617,-0.290039 -0.492188,-0.738281 -0.175781,-0.457031 -0.175781,-1.045898 0,-1.256836 0.975586,-2.074219 0.984375,-0.826172 2.381836,-0.984375 z"
   id="text58"
   class="key"
   style="font-size:18px;font-family:'DejaVu Sans';text-align:center;text-anchor:middle;fill:#111111;stroke-width:0.75"
   aria-label="ẞ" />&#10;      <path
   d="m 10.789063,50.167969 h 1.175781 l 1.488281,3.96875 1.496094,-3.96875 H 16.125 V 56 h -0.769531 v -5.121094 l -1.503906,4 h -0.792969 l -1.503906,-4 V 56 h -0.765625 z m 9.363281,2.6875 q 0.566406,0.121093 0.882812,0.503906 0.320313,0.382812 0.320313,0.945312 0,0.863282 -0.59375,1.335938 -0.59375,0.472656 -1.6875,0.472656 -0.367188,0 -0.757813,-0.07422 -0.386719,-0.07031 -0.800781,-0.214843 V 55.0625 q 0.328125,0.191406 0.71875,0.289062 0.390625,0.09766 0.816406,0.09766 0.742188,0 1.128906,-0.292969 0.390625,-0.292969 0.390625,-0.851563 0,-0.515625 -0.363281,-0.804687 -0.359375,-0.292969 -1.003906,-0.292969 h -0.679688 v -0.648437 h 0.710938 q 0.582031,0 0.890625,-0.230469 0.308594,-0.234375 0.308594,-0.671875 0,-0.449219 -0.320313,-0.6875 -0.316406,-0.242188 -0.910156,-0.242188 -0.324219,0 -0.695313,0.07031 -0.371093,0.07031 -0.816406,0.21875 V 50.3125 q 0.449219,-0.125 0.839844,-0.1875 0.394531,-0.0625 0.742187,-0.0625 0.898438,0 1.421875,0.410156 0.523438,0.40625 0.523438,1.101563 0,0.484375 -0.277344,0.820312 -0.277344,0.332031 -0.789062,0.460938 z"
   id="m3rtxt"
   class="mod"
   style="font-size:8px;font-family:'DejaVu Sans';text-align:center;text-anchor:middle;fill:#111111"
   aria-label="M3" />&#10;      <path
   d="m 6.8535156,86.167969 h 1.1757813 l 1.4882812,3.96875 1.4960939,-3.96875 h 1.175781 V 92 h -0.769531 v -5.121094 l -1.5039064,4 H 9.1230469 l -1.5039063,-4 V 92 h -0.765625 z m 10.6132814,3.464843 v 0.351563 h -3.304688 q 0.04687,0.742187 0.445313,1.132812 0.402344,0.386719 1.117187,0.386719 0.414063,0 0.800782,-0.101562 0.390625,-0.101563 0.773437,-0.304688 v 0.679688 q -0.386719,0.164062 -0.792969,0.25 -0.40625,0.08594 -0.824218,0.08594 -1.046875,0 -1.660157,-0.609375 -0.609375,-0.609375 -0.609375,-1.648437 0,-1.074219 0.578125,-1.703125 0.582032,-0.632813 1.566407,-0.632813 0.882812,0 1.394531,0.570313 0.515625,0.566406 0.515625,1.542968 z m -0.71875,-0.210937 q -0.0078,-0.589844 -0.332031,-0.941406 -0.320313,-0.351563 -0.851563,-0.351563 -0.601562,0 -0.964844,0.339844 -0.359375,0.339844 -0.414062,0.957031 z m 2.609375,-3.039063 V 87.625 h 1.480469 v 0.558594 h -1.480469 v 2.375 q 0,0.535156 0.144531,0.6875 0.148438,0.152343 0.597656,0.152343 h 0.738282 V 92 h -0.738282 q -0.832031,0 -1.148437,-0.308594 -0.316406,-0.3125 -0.316406,-1.132812 v -2.375 H 18.107422 V 87.625 h 0.527344 v -1.242188 z m 4.414062,3.417969 q -0.871093,0 -1.207031,0.199219 -0.335937,0.199219 -0.335937,0.679687 0,0.382813 0.25,0.609375 0.253906,0.222657 0.6875,0.222657 0.597656,0 0.957031,-0.421875 0.363281,-0.425782 0.363281,-1.128907 v -0.160156 z m 1.433594,-0.296875 V 92 h -0.71875 v -0.664063 q -0.246094,0.398438 -0.613281,0.589844 -0.367188,0.1875 -0.898438,0.1875 -0.671875,0 -1.070312,-0.375 -0.394531,-0.378906 -0.394531,-1.011719 0,-0.738281 0.492187,-1.113281 0.496094,-0.375 1.476563,-0.375 h 1.007812 v -0.07031 q 0,-0.496094 -0.328125,-0.765625 -0.324219,-0.273438 -0.914062,-0.273438 -0.375,0 -0.730469,0.08984 -0.355469,0.08984 -0.683594,0.269531 v -0.664062 q 0.394531,-0.152344 0.765625,-0.226563 0.371094,-0.07813 0.722656,-0.07813 0.949219,0 1.417969,0.492188 0.46875,0.492187 0.46875,1.492187 z"
   id="text59"
   class="mod"
   style="font-size:8px;font-family:'DejaVu Sans';text-align:center;text-anchor:middle;fill:#111111"
   aria-label="Meta" />&#10;    </g>&#10;  </g>&#10;</g>&#10;&#10;</svg>
