<?xml version="1.0" encoding="UTF-8" standalone="no"?>
<svg
   version="1.1"
   id="Ebene_1"
   height="183"
   width="535"
   viewBox="0 0 535 183"
   enable-background="new 0 0 535 183"
   xml:space="preserve"
   inkscape:export-xdpi="90"
   inkscape:export-ydpi="90"
   sodipodi:docname="noted-1-tkl.svg"
   xmlns:inkscape="http://www.inkscape.org/namespaces/inkscape"
   xmlns:sodipodi="http://sodipodi.sourceforge.net/DTD/sodipodi-0.dtd"
   xmlns:xlink="http://www.w3.org/1999/xlink"
   xmlns="http://www.w3.org/2000/svg"
   xmlns:svg="http://www.w3.org/2000/svg"
   xmlns:rdf="http://www.w3.org/1999/02/22-rdf-syntax-ns#"
   xmlns:cc="http://creativecommons.org/ns#"
   xmlns:dc="http://purl.org/dc/elements/1.1/">&#10;&#10;  <metadata
   id="metadata135">&#10;    <rdf:RDF>&#10;      <cc:Work
   rdf:about="">&#10;        <dc:format>image/svg+xml</dc:format>&#10;        <dc:type
   rdf:resource="http://purl.org/dc/dcmitype/StillImage" />&#10;        <dc:title />&#10;      </cc:Work>&#10;    </rdf:RDF>&#10;  </metadata>&#10;&#10;<defs
   id="defs">&#10;  <style
   type="text/css"
   id="style46661">&#10;  text.mod, text.key, text.dead {&#10;    fill:#111;&#10;    fill-opacity:1;&#10;      stroke:none;&#10;      font-style:normal;&#10;      font-variant:normal;&#10;      font-weight:normal;&#10;      font-stretch:normal;&#10;      display:inline;&#10;      font-family:DejaVu Sans;&#10;      writing-mode:lr-tb;&#10;  }&#10;&#10;  text.key {&#10;      font-family:DejaVu Sans;&#10;  }&#10;&#10;  text.dead {&#10;      font-family: Gentium Plus Compact;&#10;  }&#10;&#10;  text.space, text.dead, text.center, text.key, text.mod {&#10;      text-align:center;&#10;      text-anchor:middle;&#10;  }&#10;&#10;  text.key { font-size:18px; }&#10;  text.dead { font-size:18px; }&#10;  text.mod { font-size:8px; }&#10;  text.big { font-size:12px; }&#10;&#10;  .key {&#10;  stroke-width:0.75;&#10;  }&#10;&#10;  .grey { fill:#949494; stroke:#696969; }&#10;  .grey { fill:#9f9f9f; stroke:#747474; }&#10;&#10;  .numpad { fill:#afaa9f; stroke:#747474; }&#10;&#10;  /* bootstrap colors */&#10;  .l5, .r5 { fill:#93CCEA; }&#10;  .l4, .r4 { fill:#7abeb3; }&#10;  .l3, .r3 { fill:#63b280; }&#10;  .l2, .r2 { fill:#4aa44a; }&#10;  .l1, .r1 { fill:#4aa44a; }&#10;&#10;  /* btn bg hover, unused */&#10;  .l2, .r2 { stroke:#3071a9; }&#10;  .l3, .r3 { stroke:#449d44; }&#10;  .l4, .r4 { stroke:#c9302c; }&#10;  .l5, .r5 { stroke:#ec971f; }&#10;&#10;  /* btn border hover */&#10;  .l1, .r1 { stroke:#204d74; }&#10;  .l2, .r2 { stroke:#204d74; }&#10;  .l3, .r3 { stroke:#204d74; }&#10;  .l4, .r4 { stroke:#204d74; }&#10;  .l5, .r5 { stroke:#204d74; }&#10;&#10;  <!-- text.nubkey { fill:#eee; } -->&#10;&#10;  .pressed {&#10;    <!--opacity:0.5;-->&#10;    fill:#777;&#10;  }&#10;  </style>&#10;&#10;  <g
   id="basekey">&#10;    <rect
   width="32"
   height="32"
   rx="4"
   class="key"
   id="rect1" />&#10;  </g>&#10;&#10;  <g
   id="nub">&#10;    <!-- <rect width="14" height="1" rx="1" style="fill:#eee;" /> -->&#10;    <rect
   width="14"
   height="1"
   rx="1"
   style="fill:#111;"
   id="rect2" />&#10;  </g>&#10;&#10;</defs>&#10;<sodipodi:namedview
   pagecolor="#ffffff"
   bordercolor="#666666"
   borderopacity="1"
   objecttolerance="10"
   gridtolerance="10"
   guidetolerance="10"
   inkscape:pageopacity="0"
   inkscape:pageshadow="2"
   inkscape:window-width="1614"
   inkscape:window-height="969"
   id="base"
   showgrid="false"
   inkscape:zoom="0.70961538"
   inkscape:cx="685.32105"
   inkscape:cy="241.15395"
   inkscape:window-x="78"
   inkscape:window-y="71"
   inkscape:window-maximized="0"
   inkscape:current-layer="Ebene_1"
   inkscape:showpageshadow="2"
   inkscape:pagecheckerboard="0"
   inkscape:deskcolor="#d1d1d1" />&#10;&#10;<g
   transform="translate(3.5,3.5)"
   id="g61">&#10;&#10;  <g
   transform="translate(0, 0)"
   id="g31">&#10;&#10;    <!-- outer column -->&#10;    <g
   transform="translate(0, 0)"
   id="g4">&#10;      <use
   xlink:href="#basekey"
   y="0"
   class="l5"
   id="use2" />&#10;      <use
   xlink:href="#basekey"
   y="36"
   class="key grey"
   id="m3l" />&#10;      <use
   xlink:href="#basekey"
   y="72"
   class="key grey"
   id="use3" />&#10;&#10;      <path
   d="m 15.195801,12.15625 h 1.617187 v 10.019531 q 0,1.88086 -0.720703,2.72461 -0.711914,0.84375 -2.302734,0.84375 h -0.615235 v -1.371094 h 0.430664 q 0.922852,0 1.256836,-0.430664 0.333985,-0.421875 0.333985,-1.766602 z m 0,-3.8320312 h 1.617187 V 10.37207 h -1.617187 z"
   id="text3"
   class="key"
   style="font-size:18px;font-family:'DejaVu Sans';text-align:center;text-anchor:middle;fill:#111111;stroke-width:0.75"
   aria-label="j" />&#10;      <path
   d="m 10.789063,50.167969 h 1.175781 l 1.488281,3.96875 1.496094,-3.96875 H 16.125 V 56 h -0.769531 v -5.121094 l -1.503906,4 h -0.792969 l -1.503906,-4 V 56 h -0.765625 z m 9.363281,2.6875 q 0.566406,0.121093 0.882812,0.503906 0.320313,0.382812 0.320313,0.945312 0,0.863282 -0.59375,1.335938 -0.59375,0.472656 -1.6875,0.472656 -0.367188,0 -0.757813,-0.07422 -0.386719,-0.07031 -0.800781,-0.214843 V 55.0625 q 0.328125,0.191406 0.71875,0.289062 0.390625,0.09766 0.816406,0.09766 0.742188,0 1.128906,-0.292969 0.390625,-0.292969 0.390625,-0.851563 0,-0.515625 -0.363281,-0.804687 -0.359375,-0.292969 -1.003906,-0.292969 h -0.679688 v -0.648437 h 0.710938 q 0.582031,0 0.890625,-0.230469 0.308594,-0.234375 0.308594,-0.671875 0,-0.449219 -0.320313,-0.6875 -0.316406,-0.242188 -0.910156,-0.242188 -0.324219,0 -0.695313,0.07031 -0.371093,0.07031 -0.816406,0.21875 V 50.3125 q 0.449219,-0.125 0.839844,-0.1875 0.394531,-0.0625 0.742187,-0.0625 0.898438,0 1.421875,0.410156 0.523438,0.40625 0.523438,1.101563 0,0.484375 -0.277344,0.820312 -0.277344,0.332031 -0.789062,0.460938 z"
   id="m3ltxt"
   class="mod"
   style="font-size:8px;font-family:'DejaVu Sans';text-align:center;text-anchor:middle;fill:#111111"
   aria-label="M3" />&#10;      <path
   d="m 6.8535156,86.167969 h 1.1757813 l 1.4882812,3.96875 1.4960939,-3.96875 h 1.175781 V 92 h -0.769531 v -5.121094 l -1.5039064,4 H 9.1230469 l -1.5039063,-4 V 92 h -0.765625 z m 10.6132814,3.464843 v 0.351563 h -3.304688 q 0.04687,0.742187 0.445313,1.132812 0.402344,0.386719 1.117187,0.386719 0.414063,0 0.800782,-0.101562 0.390625,-0.101563 0.773437,-0.304688 v 0.679688 q -0.386719,0.164062 -0.792969,0.25 -0.40625,0.08594 -0.824218,0.08594 -1.046875,0 -1.660157,-0.609375 -0.609375,-0.609375 -0.609375,-1.648437 0,-1.074219 0.578125,-1.703125 0.582032,-0.632813 1.566407,-0.632813 0.882812,0 1.394531,0.570313 0.515625,0.566406 0.515625,1.542968 z m -0.71875,-0.210937 q -0.0078,-0.589844 -0.332031,-0.941406 -0.320313,-0.351563 -0.851563,-0.351563 -0.601562,0 -0.964844,0.339844 -0.359375,0.339844 -0.414062,0.957031 z m 2.609375,-3.039063 V 87.625 h 1.480469 v 0.558594 h -1.480469 v 2.375 q 0,0.535156 0.144531,0.6875 0.148438,0.152343 0.597656,0.152343 h 0.738282 V 92 h -0.738282 q -0.832031,0 -1.148437,-0.308594 -0.316406,-0.3125 -0.316406,-1.132812 v -2.375 H 18.107422 V 87.625 h 0.527344 v -1.242188 z m 4.414062,3.417969 q -0.871093,0 -1.207031,0.199219 -0.335937,0.199219 -0.335937,0.679687 0,0.382813 0.25,0.609375 0.253906,0.222657 0.6875,0.222657 0.597656,0 0.957031,-0.421875 0.363281,-0.425782 0.363281,-1.128907 v -0.160156 z m 1.433594,-0.296875 V 92 h -0.71875 v -0.664063 q -0.246094,0.398438 -0.613281,0.589844 -0.367188,0.1875 -0.898438,0.1875 -0.671875,0 -1.070312,-0.375 -0.394531,-0.378906 -0.394531,-1.011719 0,-0.738281 0.492187,-1.113281 0.496094,-0.375 1.476563,-0.375 h 1.007812 v -0.07031 q 0,-0.496094 -0.328125,-0.765625 -0.324219,-0.273438 -0.914062,-0.273438 -0.375,0 -0.730469,0.08984 -0.355469,0.08984 -0.683594,0.269531 v -0.664062 q 0.394531,-0.152344 0.765625,-0.226563 0.371094,-0.07813 0.722656,-0.07813 0.949219,0 1.417969,0.492188 0.46875,0.492187 0.46875,1.492187 z"
   id="text4"
   class="mod"
   style="font-size:8px;font-family:'DejaVu Sans';text-align:center;text-anchor:middle;fill:#111111"
   aria-label="Meta" />&#10;    </g>&#10;&#10;    <!-- pinky finger column -->&#10;    <g
   transform="translate(36, 0)"
   id="g8">&#10;      <use
   xlink:href="#basekey"
   y="0"
   class="l5"
   id="use4" />&#10;      <use
   xlink:href="#basekey"
   y="36"
   class="l5"
   id="use5" />&#10;      <use
   xlink:href="#basekey"
   y="72"
   class="l5"
   id="use6" />&#10;&#10;      <path
   d="m 12.269043,12.15625 h 7.681641 v 1.476563 l -6.082032,7.075195 h 6.082032 V 22 h -7.901368 v -1.476563 l 6.082032,-7.075195 h -5.862305 z"
   id="text6"
   class="key"
   style="font-size:18px;font-family:'DejaVu Sans';text-align:center;text-anchor:middle;fill:#111111;stroke-width:0.75"
   aria-label="z" />&#10;      <path
   d="m 19.832031,48.53418 v 1.511718 q -0.685547,-0.377929 -1.379883,-0.5625 -0.685546,-0.193359 -1.388671,-0.193359 -1.573243,0 -2.44336,1.001953 Q 13.75,51.285156 13.75,53.086914 q 0,1.801758 0.870117,2.803711 0.870117,0.993164 2.44336,0.993164 0.703125,0 1.388671,-0.18457 0.694336,-0.19336 1.379883,-0.571289 v 1.49414 q -0.676758,0.316407 -1.40625,0.47461 -0.720703,0.158203 -1.538086,0.158203 -2.223632,0 -3.533203,-1.397461 -1.30957,-1.397461 -1.30957,-3.770508 0,-2.408203 1.318359,-3.788086 1.327149,-1.379883 3.629883,-1.379883 0.74707,0 1.458984,0.158203 0.711914,0.149414 1.379883,0.457032 z"
   id="text7"
   class="key"
   style="font-size:18px;font-family:'DejaVu Sans';text-align:center;text-anchor:middle;fill:#111111;stroke-width:0.75"
   aria-label="c" />&#10;      <path
   d="m 11.209961,84.15625 h 1.713867 L 16,92.417969 19.076172,84.15625 h 1.713867 L 17.098633,94 h -2.197266 z"
   id="text8"
   class="key"
   style="font-size:18px;font-family:'DejaVu Sans';text-align:center;text-anchor:middle;fill:#111111;stroke-width:0.75"
   aria-label="v" />&#10;    </g>&#10;&#10;    <!-- ring finger column -->&#10;    <g
   transform="translate(72, 0)"
   id="g12">&#10;      <use
   xlink:href="#basekey"
   y="0"
   class="l4"
   id="use8" />&#10;      <use
   xlink:href="#basekey"
   y="36"
   class="l4"
   id="use9" />&#10;      <use
   xlink:href="#basekey"
   y="72"
   class="l4"
   id="use10" />&#10;&#10;      <path
   d="m 16.46582,22.914062 q -0.685547,1.757813 -1.335937,2.293946 -0.650391,0.536133 -1.740235,0.536133 h -1.291992 v -1.353516 h 0.949219 q 0.667969,0 1.037109,-0.316406 0.369141,-0.316407 0.817383,-1.494141 l 0.290039,-0.738281 -3.981445,-9.685547 h 1.713867 L 16,19.855469 19.076172,12.15625 h 1.713867 z"
   id="text10"
   class="key"
   style="font-size:18px;font-family:'DejaVu Sans';text-align:center;text-anchor:middle;fill:#111111;stroke-width:0.75"
   aria-label="y" />&#10;      <path
   d="m 19.282715,48.446289 v 1.529297 q -0.685547,-0.351563 -1.423828,-0.527344 -0.738282,-0.175781 -1.529297,-0.175781 -1.204102,0 -1.810547,0.369141 -0.597656,0.36914 -0.597656,1.107421 0,0.5625 0.430664,0.887696 0.430664,0.316406 1.731445,0.606445 l 0.553711,0.123047 q 1.722656,0.369141 2.443359,1.045898 0.729493,0.667969 0.729493,1.872071 0,1.371093 -1.089844,2.170898 -1.081055,0.799805 -2.979492,0.799805 -0.791016,0 -1.652344,-0.158203 -0.852539,-0.149414 -1.801758,-0.457032 v -1.669921 q 0.896484,0.46582 1.766602,0.703125 0.870117,0.228515 1.722656,0.228515 1.142578,0 1.757812,-0.386719 0.615235,-0.395507 0.615235,-1.107421 0,-0.65918 -0.448242,-1.010743 -0.439454,-0.351562 -1.942383,-0.676757 l -0.5625,-0.131836 q -1.50293,-0.316407 -2.170899,-0.966797 -0.667968,-0.65918 -0.667968,-1.801758 0,-1.388672 0.984375,-2.144531 0.984375,-0.75586 2.794921,-0.75586 0.896485,0 1.6875,0.131836 0.791016,0.131836 1.458985,0.395508 z"
   id="text11"
   class="key"
   style="font-size:18px;font-family:'DejaVu Sans';text-align:center;text-anchor:middle;fill:#111111;stroke-width:0.75"
   aria-label="s" />&#10;      <path
   d="M 20.552734,84.15625 16.993164,88.946289 20.737305,94 H 18.830078 L 15.964844,90.132812 13.099609,94 h -1.907226 l 3.823242,-5.150391 -3.498047,-4.693359 h 1.907227 l 2.610351,3.506836 2.610352,-3.506836 z"
   id="text12"
   class="key"
   style="font-size:18px;font-family:'DejaVu Sans';text-align:center;text-anchor:middle;fill:#111111;stroke-width:0.75"
   aria-label="x" />&#10;    </g>&#10;&#10;    <!-- middle finger column -->&#10;    <g
   transform="translate(108, 0)"
   id="g16">&#10;      <use
   xlink:href="#basekey"
   y="0"
   class="l3"
   id="use12" />&#10;      <use
   xlink:href="#basekey"
   y="36"
   class="l3"
   id="use13" />&#10;      <use
   xlink:href="#basekey"
   y="72"
   class="l3"
   id="use14" />&#10;&#10;      <path
   d="M 11.825195,18.115234 V 12.15625 h 1.617188 v 5.897461 q 0,1.397461 0.544922,2.100586 0.544922,0.694336 1.634765,0.694336 1.309571,0 2.06543,-0.834961 0.764648,-0.834961 0.764648,-2.276367 V 12.15625 h 1.617188 V 22 h -1.617188 v -1.511719 q -0.588867,0.896485 -1.371093,1.335938 -0.773438,0.430664 -1.801758,0.430664 -1.696289,0 -2.575195,-1.054688 -0.878907,-1.054687 -0.878907,-3.084961 z m 4.069336,-6.196289 z"
   id="text14"
   class="key"
   style="font-size:18px;font-family:'DejaVu Sans';text-align:center;text-anchor:middle;fill:#111111;stroke-width:0.75"
   aria-label="u" />&#10;      <path
   d="m 15.195801,48.15625 h 1.617187 V 58 h -1.617187 z m 0,-3.832031 h 1.617187 v 2.047851 h -1.617187 z"
   id="text15"
   class="key"
   style="font-size:18px;font-family:'DejaVu Sans';text-align:center;text-anchor:middle;fill:#111111;stroke-width:0.75"
   aria-label="i" />&#10;      <path
   d="M 11.825195,90.115234 V 84.15625 h 1.617188 v 5.897461 q 0,1.397461 0.544922,2.100586 0.544922,0.694336 1.634765,0.694336 1.309571,0 2.06543,-0.834961 0.764648,-0.834961 0.764648,-2.276367 V 84.15625 h 1.617188 V 94 h -1.617188 v -1.511719 q -0.588867,0.896485 -1.371093,1.335938 -0.773438,0.430664 -1.801758,0.430664 -1.696289,0 -2.575195,-1.054688 -0.878907,-1.054687 -0.878907,-3.084961 z m 4.069336,-6.196289 z m 0.808594,-3.55957 h 1.78418 v 1.775391 h -1.78418 z m -3.436523,0 h 1.784179 v 1.775391 h -1.784179 z"
   id="text16"
   class="key"
   style="font-size:18px;font-family:'DejaVu Sans';text-align:center;text-anchor:middle;fill:#111111;stroke-width:0.75"
   aria-label="ü" />&#10;    </g>&#10;&#10;    <!-- index finger column -->&#10;    <g
   transform="translate(144,0)"
   id="g20">&#10;      <use
   xlink:href="#basekey"
   y="0"
   class="l2"
   id="use16" />&#10;      <use
   xlink:href="#basekey"
   y="36"
   class="l2"
   id="use17" />&#10;      <use
   xlink:href="#basekey"
   y="72"
   class="l2"
   id="use18" />&#10;&#10;      <path
   d="m 16.654785,17.051758 q -1.959961,0 -2.71582,0.448242 -0.75586,0.448242 -0.75586,1.529297 0,0.861328 0.5625,1.371094 0.57129,0.500976 1.546875,0.500976 1.344727,0 2.153321,-0.949219 0.817383,-0.958007 0.817383,-2.540039 v -0.360351 z m 3.225586,-0.667969 V 22 h -1.617187 v -1.494141 q -0.553711,0.896485 -1.379883,1.327149 -0.826172,0.421875 -2.021485,0.421875 -1.511718,0 -2.408203,-0.84375 -0.887695,-0.852539 -0.887695,-2.276367 0,-1.661133 1.107422,-2.504883 1.116211,-0.84375 3.322265,-0.84375 h 2.267579 V 15.62793 q 0,-1.116211 -0.738282,-1.722657 -0.729492,-0.615234 -2.05664,-0.615234 -0.84375,0 -1.643555,0.202149 -0.799805,0.202148 -1.538086,0.606445 v -1.494141 q 0.887695,-0.342773 1.722656,-0.509765 0.834961,-0.175782 1.625977,-0.175782 2.135742,0 3.19043,1.107422 1.054687,1.107422 1.054687,3.357422 z"
   id="text18"
   class="key"
   style="font-size:18px;font-family:'DejaVu Sans';text-align:center;text-anchor:middle;fill:#111111;stroke-width:0.75"
   aria-label="a" />&#10;      <path
   d="m 20.579102,52.673828 v 0.791016 h -7.435547 q 0.105468,1.669922 1.001953,2.548828 0.905273,0.870117 2.513672,0.870117 0.93164,0 1.801757,-0.228516 0.878907,-0.228515 1.740235,-0.685546 v 1.529296 q -0.870117,0.369141 -1.78418,0.5625 -0.914062,0.19336 -1.854492,0.19336 -2.355469,0 -3.735352,-1.371094 -1.371093,-1.371094 -1.371093,-3.708984 0,-2.416993 1.300781,-3.832032 1.30957,-1.423828 3.524414,-1.423828 1.986328,0 3.137695,1.283203 1.160157,1.274414 1.160157,3.47168 z m -1.617188,-0.474609 q -0.01758,-1.327149 -0.74707,-2.118164 -0.720703,-0.791016 -1.916016,-0.791016 -1.353515,0 -2.170898,0.764648 -0.808594,0.764649 -0.931641,2.153321 z"
   id="text19"
   class="key nubkey"
   style="font-size:18px;font-family:'DejaVu Sans';text-align:center;text-anchor:middle;fill:#111111;stroke-width:0.75"
   aria-label="e" />&#10;      <path
   d="m 16.654785,89.051758 q -1.959961,0 -2.71582,0.448242 -0.75586,0.448242 -0.75586,1.529297 0,0.861328 0.5625,1.371094 0.57129,0.500976 1.546875,0.500976 1.344727,0 2.153321,-0.949219 0.817383,-0.958007 0.817383,-2.540039 v -0.360351 z m 3.225586,-0.667969 V 94 h -1.617187 v -1.494141 q -0.553711,0.896485 -1.379883,1.327149 -0.826172,0.421875 -2.021485,0.421875 -1.511718,0 -2.408203,-0.84375 -0.887695,-0.852539 -0.887695,-2.276367 0,-1.661133 1.107422,-2.504883 1.116211,-0.84375 3.322265,-0.84375 h 2.267579 V 87.62793 q 0,-1.116211 -0.738282,-1.722657 -0.729492,-0.615234 -2.05664,-0.615234 -0.84375,0 -1.643555,0.202148 -0.799805,0.202149 -1.538086,0.606446 v -1.494141 q 0.887695,-0.342773 1.722656,-0.509765 0.834961,-0.175782 1.625977,-0.175782 2.135742,0 3.19043,1.107422 1.054687,1.107422 1.054687,3.357422 z m -3.348633,-8.024414 h 1.78418 v 1.775391 h -1.78418 z m -3.436523,0 h 1.78418 v 1.775391 h -1.78418 z"
   id="text20"
   class="key"
   style="font-size:18px;font-family:'DejaVu Sans';text-align:center;text-anchor:middle;fill:#111111;stroke-width:0.75"
   aria-label="ä" />&#10;&#10;      <use
   x="10"
   y="65"
   xlink:href="#nub"
   id="use20" />&#10;    </g>&#10;&#10;    <!-- inner column -->&#10;    <g
   transform="translate(180,0)"
   id="g25">&#10;      <use
   xlink:href="#basekey"
   y="0"
   class="l2"
   id="use21" />&#10;      <use
   xlink:href="#basekey"
   y="36"
   class="l2"
   id="use22" />&#10;      <use
   xlink:href="#basekey"
   y="72"
   class="l2"
   id="use23" />&#10;&#10;      <path
   d="m 12.950195,17.086914 q 0,1.78418 0.729493,2.803711 0.738281,1.010742 2.021484,1.010742 1.283203,0 2.021484,-1.010742 0.738281,-1.019531 0.738281,-2.803711 0,-1.78418 -0.738281,-2.794922 -0.738281,-1.019531 -2.021484,-1.019531 -1.283203,0 -2.021484,1.019531 -0.729493,1.010742 -0.729493,2.794922 z m 5.510742,3.436523 q -0.509765,0.878907 -1.291992,1.309571 -0.773437,0.421875 -1.863281,0.421875 -1.78418,0 -2.90918,-1.423828 -1.116211,-1.423828 -1.116211,-3.744141 0,-2.320312 1.116211,-3.744141 1.125,-1.423828 2.90918,-1.423828 1.089844,0 1.863281,0.430664 0.782227,0.421875 1.291992,1.300782 V 12.15625 h 1.617188 v 13.587891 h -1.617188 z"
   id="text23"
   class="key"
   style="font-size:18px;font-family:'DejaVu Sans';text-align:center;text-anchor:middle;fill:#111111;stroke-width:0.75"
   aria-label="q" />&#10;      <path
   d="m 16.004395,49.290039 q -1.300782,0 -2.056641,1.019531 -0.755859,1.010742 -0.755859,2.777344 0,1.766602 0.74707,2.786133 0.755859,1.010742 2.06543,1.010742 1.291992,0 2.047851,-1.019531 0.755859,-1.019531 0.755859,-2.777344 0,-1.749023 -0.755859,-2.768555 -0.755859,-1.02832 -2.047851,-1.02832 z m 0,-1.371094 q 2.109375,0 3.313476,1.371094 1.204102,1.371094 1.204102,3.796875 0,2.416992 -1.204102,3.796875 -1.204101,1.371094 -3.313476,1.371094 -2.118165,0 -3.322266,-1.371094 -1.195313,-1.379883 -1.195313,-3.796875 0,-2.425781 1.195313,-3.796875 1.204101,-1.371094 3.322266,-1.371094 z"
   id="text24"
   class="key"
   style="font-size:18px;font-family:'DejaVu Sans';text-align:center;text-anchor:middle;fill:#111111;stroke-width:0.75"
   aria-label="o" />&#10;      <path
   d="m 16.004395,85.290039 q -1.300782,0 -2.056641,1.019531 -0.755859,1.010742 -0.755859,2.777344 0,1.766602 0.74707,2.786133 0.755859,1.010742 2.06543,1.010742 1.291992,0 2.047851,-1.019531 0.755859,-1.019531 0.755859,-2.777344 0,-1.749023 -0.755859,-2.768555 -0.755859,-1.02832 -2.047851,-1.02832 z m 0,-1.371094 q 2.109375,0 3.313476,1.371094 1.204102,1.371094 1.204102,3.796875 0,2.416992 -1.204102,3.796875 -1.204101,1.371094 -3.313476,1.371094 -2.118165,0 -3.322266,-1.371094 -1.195313,-1.379883 -1.195313,-3.796875 0,-2.425781 1.195313,-3.796875 1.204101,-1.371094 3.322266,-1.371094 z m 0.826171,-3.55957 h 1.78418 v 1.775391 h -1.78418 z m -3.436523,0 h 1.78418 v 1.775391 h -1.78418 z"
   id="text25"
   class="key"
   style="font-size:18px;font-family:'DejaVu Sans';text-align:center;text-anchor:middle;fill:#111111;stroke-width:0.75"
   aria-label="ö" />&#10;    </g>&#10;&#10;    <!-- thump cluster -->&#10;    <g
   transform="translate(144, 114)"
   id="g30">&#10;      <g
   transform="rotate(0)"
   id="g29">&#10;        <use
   xlink:href="#basekey"
   x="0"
   class="key grey"
   id="use25" />&#10;        <path
   d="m 10.789063,14.167969 h 1.175781 l 1.488281,3.96875 1.496094,-3.96875 H 16.125 V 20 h -0.769531 v -5.121094 l -1.503906,4 h -0.792969 l -1.503906,-4 V 20 h -0.765625 z m 9.140624,0.6875 -1.992187,3.113281 h 1.992187 z m -0.207031,-0.6875 h 0.992188 v 3.800781 h 0.832031 V 18.625 H 20.714844 V 20 h -0.785157 v -1.375 h -2.632812 v -0.761719 z"
   id="m4ltxt"
   class="mod"
   style="font-size:8px;font-family:'DejaVu Sans';text-align:center;text-anchor:middle;fill:#111111"
   aria-label="M4" />&#10;        <g
   transform="translate(36, 0) rotate(0)"
   id="g28">&#10;          <use
   xlink:href="#basekey"
   x="0"
   class="key grey"
   id="use26" />&#10;          <path
   d="M 17.039062,15.5625 16,14.523438 14.960938,15.5625 h 0.511718 v 4.046875 h 1.054688 V 15.5625 Z M 14.015625,15.953125 16,13.96875 17.984375,15.953125 H 16.917969 V 20 h -1.835938 v -4.046875 z"
   id="shiftltxt"
   class="mod"
   style="font-size:8px;font-family:'DejaVu Sans';text-align:center;text-anchor:middle;fill:#111111"
   aria-label="⇧" />&#10;          <g
   transform="translate(36, 0) rotate(0)"
   id="g27">&#10;            <use
   xlink:href="#basekey"
   x="0"
   class="l1"
   id="use27" />&#10;            <path
   d="m 13.105469,17.160156 h 4.070312 l -0.914062,-0.914062 0.46875,-0.46875 1.539062,1.539062 v -1.5 h 0.664063 v 3.359375 h -0.664063 v -1.507812 l -1.539062,1.539062 -0.46875,-0.46875 0.914062,-0.914062 h -4.070312 z"
   id="text27"
   class="mod"
   style="font-size:8px;font-family:'DejaVu Sans';text-align:center;text-anchor:middle;fill:#111111"
   aria-label="⇥" />&#10;          </g>&#10;        </g>&#10;      </g>&#10;    </g>&#10;  </g>&#10;&#10;&#10;&#10;&#10;  <g
   transform="translate(310,0)"
   id="g60">&#10;&#10;    <!-- thumb-cluster -->&#10;    <g
   transform="translate(36, 114)"
   id="g36">&#10;      <g
   transform="rotate(0, 36, 0)"
   id="g35">&#10;        <use
   xlink:href="#basekey"
   x="0"
   class="key grey"
   id="use31" />&#10;        <path
   d="m 10.789063,14.167969 h 1.175781 l 1.488281,3.96875 1.496094,-3.96875 H 16.125 V 20 h -0.769531 v -5.121094 l -1.503906,4 h -0.792969 l -1.503906,-4 V 20 h -0.765625 z m 9.140624,0.6875 -1.992187,3.113281 h 1.992187 z m -0.207031,-0.6875 h 0.992188 v 3.800781 h 0.832031 V 18.625 H 20.714844 V 20 h -0.785157 v -1.375 h -2.632812 v -0.761719 z"
   id="m4rtxt"
   class="mod"
   style="font-size:8px;font-family:'DejaVu Sans';text-align:center;text-anchor:middle;fill:#111111"
   aria-label="M4" />&#10;        <g
   transform="translate(-36, 0) rotate(0, 36, 0)"
   id="g34">&#10;          <use
   xlink:href="#basekey"
   x="0"
   class="l1"
   id="use32" />&#10;          <path
   d="m 14.6875,21.15625 h 2.625 V 19.1875 h 0.65625 v 2.632812 h -3.9375 V 19.1875 h 0.65625 z"
   id="text32"
   class="mod space"
   style="font-size:8px;font-family:'DejaVu Sans';text-align:center;text-anchor:middle;fill:#111111"
   aria-label="␣" />&#10;          <g
   transform="translate(-36, 0) rotate(0, 36, 0)"
   id="g33">&#10;            <use
   xlink:href="#basekey"
   x="0"
   class="l1"
   id="use33" />&#10;            <path
   d="m 14.847656,19.476562 -1.984375,-1.984375 1.984375,-1.984374 v 1.066406 H 17.0625 v -2.40625 h 1.835937 l -0.0039,4.242187 h -4.046875 z m -0.390625,-2.511718 v -0.511719 l -1.039062,1.039062 1.039062,1.039063 v -0.511719 h 4.046875 l 0.0039,-3.460937 h -1.054687 l -0.0039,2.40625 z"
   id="returntxt"
   class="mod"
   style="font-size:8px;font-family:'DejaVu Sans';text-align:center;text-anchor:middle;fill:#111111"
   aria-label="⏎" />&#10;          </g>&#10;        </g>&#10;      </g>&#10;    </g>&#10;&#10;    <!-- inner column -->&#10;    <g
   transform="translate(0,0)"
   id="g40">&#10;      <use
   xlink:href="#basekey"
   y="0"
   class="l2"
   id="use36" />&#10;      <use
   xlink:href="#basekey"
   y="36"
   class="l2"
   id="use37" />&#10;      <use
   xlink:href="#basekey"
   y="72"
   class="l2"
   id="use38" />&#10;&#10;      <path
   d="m 13.547852,20.523437 v 5.220704 H 11.921875 V 12.15625 h 1.625977 v 1.494141 q 0.509765,-0.878907 1.283203,-1.300782 0.782226,-0.430664 1.863281,-0.430664 1.792969,0 2.90918,1.423828 1.125,1.423829 1.125,3.744141 0,2.320313 -1.125,3.744141 -1.116211,1.423828 -2.90918,1.423828 -1.081055,0 -1.863281,-0.421875 -0.773438,-0.430664 -1.283203,-1.309571 z m 5.501953,-3.436523 q 0,-1.78418 -0.738282,-2.794922 -0.729492,-1.019531 -2.012695,-1.019531 -1.283203,0 -2.021484,1.019531 -0.729492,1.010742 -0.729492,2.794922 0,1.78418 0.729492,2.803711 0.738281,1.010742 2.021484,1.010742 1.283203,0 2.012695,-1.010742 0.738282,-1.019531 0.738282,-2.803711 z"
   id="text38"
   class="key"
   style="font-size:18px;font-family:'DejaVu Sans';text-align:center;text-anchor:middle;fill:#111111;stroke-width:0.75"
   aria-label="p" />&#10;      <path
   d="m 18.460937,49.650391 v -5.326172 h 1.617188 V 58 h -1.617188 v -1.476563 q -0.509765,0.878907 -1.291992,1.309571 -0.773437,0.421875 -1.863281,0.421875 -1.78418,0 -2.90918,-1.423828 -1.116211,-1.423828 -1.116211,-3.744141 0,-2.320312 1.116211,-3.744141 1.125,-1.423828 2.90918,-1.423828 1.089844,0 1.863281,0.430664 0.782227,0.421875 1.291992,1.300782 z m -5.510742,3.436523 q 0,1.78418 0.729493,2.803711 0.738281,1.010742 2.021484,1.010742 1.283203,0 2.021484,-1.010742 0.738281,-1.019531 0.738281,-2.803711 0,-1.78418 -0.738281,-2.794922 -0.738281,-1.019531 -2.021484,-1.019531 -1.283203,0 -2.021484,1.019531 -0.729493,1.010742 -0.729493,2.794922 z"
   id="text39"
   class="key"
   style="font-size:18px;font-family:'DejaVu Sans';text-align:center;text-anchor:middle;fill:#111111;stroke-width:0.75"
   aria-label="d" />&#10;      <path
   d="m 9.3950195,84.15625 h 1.6171875 l 2.021484,7.681641 2.012696,-7.681641 h 1.907226 l 2.021485,7.681641 2.012695,-7.681641 H 22.60498 L 20.029785,94 H 18.122559 L 16.004395,85.931641 13.877441,94 h -1.907226 z"
   id="text40"
   class="key"
   style="font-size:18px;font-family:'DejaVu Sans';text-align:center;text-anchor:middle;fill:#111111;stroke-width:0.75"
   aria-label="w" />&#10;    </g>&#10;&#10;&#10;    <!-- index finger column -->&#10;    <g
   transform="translate(36,0)"
   id="g44">&#10;      <use
   xlink:href="#basekey"
   y="0"
   class="r2"
   id="use40" />&#10;      <use
   xlink:href="#basekey"
   y="36"
   class="r2"
   id="use41" />&#10;      <use
   xlink:href="#basekey"
   y="72"
   class="r2"
   id="use42" />&#10;&#10;      <path
   d="m 19.049805,17.086914 q 0,-1.78418 -0.738282,-2.794922 -0.729492,-1.019531 -2.012695,-1.019531 -1.283203,0 -2.021484,1.019531 -0.729492,1.010742 -0.729492,2.794922 0,1.78418 0.729492,2.803711 0.738281,1.010742 2.021484,1.010742 1.283203,0 2.012695,-1.010742 0.738282,-1.019531 0.738282,-2.803711 z m -5.501953,-3.436523 q 0.509765,-0.878907 1.283203,-1.300782 0.782226,-0.430664 1.863281,-0.430664 1.792969,0 2.90918,1.423828 1.125,1.423829 1.125,3.744141 0,2.320313 -1.125,3.744141 -1.116211,1.423828 -2.90918,1.423828 -1.081055,0 -1.863281,-0.421875 -0.773438,-0.430664 -1.283203,-1.309571 V 22 H 11.921875 V 8.3242188 h 1.625977 z"
   id="text42"
   class="key"
   style="font-size:18px;font-family:'DejaVu Sans';text-align:center;text-anchor:middle;fill:#111111;stroke-width:0.75"
   aria-label="b" />&#10;      <path
   d="m 15.76709,45.361328 v 2.794922 h 3.331055 v 1.256836 H 15.76709 v 5.34375 q 0,1.204101 0.325195,1.546875 0.333985,0.342773 1.344727,0.342773 h 1.661133 V 58 h -1.661133 q -1.872071,0 -2.583985,-0.694336 -0.711914,-0.703125 -0.711914,-2.548828 v -5.34375 H 12.95459 V 48.15625 h 1.186523 v -2.794922 z"
   id="text43"
   class="key nubkey"
   style="font-size:18px;font-family:'DejaVu Sans';text-align:center;text-anchor:middle;fill:#111111;stroke-width:0.75"
   aria-label="t" />&#10;      <path
   d="m 18.460937,88.963867 q 0,-1.757812 -0.729492,-2.724609 -0.720703,-0.966797 -2.030273,-0.966797 -1.300781,0 -2.030274,0.966797 -0.720703,0.966797 -0.720703,2.724609 0,1.749024 0.720703,2.71582 0.729493,0.966797 2.030274,0.966797 1.30957,0 2.030273,-0.966797 0.729492,-0.966796 0.729492,-2.71582 z m 1.617188,3.814453 q 0,2.513672 -1.116211,3.735352 -1.116211,1.230469 -3.418945,1.230469 -0.852539,0 -1.608399,-0.131836 -0.755859,-0.123047 -1.467773,-0.386719 v -1.573242 q 0.711914,0.386718 1.40625,0.571289 0.694336,0.18457 1.415039,0.18457 1.59082,0 2.381836,-0.834961 0.791015,-0.826172 0.791015,-2.504883 V 92.268555 Q 17.959961,93.138672 17.177734,93.569336 16.395508,94 15.305664,94 q -1.810547,0 -2.917969,-1.379883 -1.107422,-1.379883 -1.107422,-3.65625 0,-2.285156 1.107422,-3.665039 1.107422,-1.379883 2.917969,-1.379883 1.089844,0 1.87207,0.430664 0.782227,0.430664 1.283203,1.300782 V 84.15625 h 1.617188 z"
   id="text44"
   class="key"
   style="font-size:18px;font-family:'DejaVu Sans';text-align:center;text-anchor:middle;fill:#111111;stroke-width:0.75"
   aria-label="g" />&#10;&#10;      <use
   x="10"
   y="65"
   xlink:href="#nub"
   id="use44" />&#10;    </g>&#10;&#10;    <!-- middle finger column -->&#10;    <g
   transform="translate(72,0)"
   id="g49">&#10;      <use
   xlink:href="#basekey"
   y="0"
   class="r3"
   id="use45" />&#10;      <use
   xlink:href="#basekey"
   y="36"
   class="r3"
   id="use46" />&#10;      <use
   xlink:href="#basekey"
   y="72"
   class="r3"
   id="use47" />&#10;&#10;      <path
   d="m 16.593262,14.045898 q 0.606445,-1.089843 1.450195,-1.608398 0.84375,-0.518555 1.986328,-0.518555 1.538086,0 2.373047,1.081055 0.834961,1.072266 0.834961,3.058594 V 22 h -1.625977 v -5.888672 q 0,-1.415039 -0.500976,-2.100586 -0.500977,-0.685547 -1.529297,-0.685547 -1.256836,0 -1.986328,0.834961 -0.729492,0.834961 -0.729492,2.276367 V 22 h -1.625977 v -5.888672 q 0,-1.423828 -0.500976,-2.100586 -0.500977,-0.685547 -1.546875,-0.685547 -1.239258,0 -1.96875,0.84375 -0.729493,0.834961 -0.729493,2.267578 V 22 H 8.8676758 v -9.84375 h 1.6259762 v 1.529297 q 0.553711,-0.905274 1.327149,-1.335938 0.773437,-0.430664 1.836914,-0.430664 1.072265,0 1.819336,0.544922 0.755859,0.544922 1.116211,1.582031 z"
   id="text47"
   class="key"
   style="font-size:18px;font-family:'DejaVu Sans';text-align:center;text-anchor:middle;fill:#111111;stroke-width:0.75"
   aria-label="m" />&#10;      <path
   d="M 20.174805,52.058594 V 58 h -1.617188 v -5.888672 q 0,-1.397461 -0.544922,-2.091797 -0.544922,-0.694336 -1.634765,-0.694336 -1.309571,0 -2.06543,0.834961 -0.755859,0.834961 -0.755859,2.276367 V 58 h -1.625977 v -9.84375 h 1.625977 v 1.529297 q 0.580078,-0.887695 1.362304,-1.327149 0.791016,-0.439453 1.819336,-0.439453 1.696289,0 2.566406,1.054688 0.870118,1.045898 0.870118,3.084961 z"
   id="text48"
   class="key"
   style="font-size:18px;font-family:'DejaVu Sans';text-align:center;text-anchor:middle;fill:#111111;stroke-width:0.75"
   aria-label="n" />&#10;      <path
   d="m 15.248535,91.767578 h 1.854492 v 1.511719 l -1.441406,2.8125 h -1.133789 l 0.720703,-2.8125 z"
   id="text49"
   class="key"
   style="font-size:18px;font-family:'DejaVu Sans';text-align:center;text-anchor:middle;fill:#111111;stroke-width:0.75"
   aria-label="," />&#10;    </g>&#10;&#10;    <!-- ring finger colummn -->&#10;    <g
   transform="translate(108,0)"
   id="g53">&#10;      <use
   xlink:href="#basekey"
   y="0"
   class="r4"
   id="use49" />&#10;      <use
   xlink:href="#basekey"
   y="36"
   class="r4"
   id="use50" />&#10;      <use
   xlink:href="#basekey"
   y="72"
   class="r4"
   id="use51" />&#10;&#10;      <path
   d="m 15.195801,8.3242188 h 1.617187 V 22 h -1.617187 z"
   id="text51"
   class="key"
   style="font-size:18px;font-family:'DejaVu Sans';text-align:center;text-anchor:middle;fill:#111111;stroke-width:0.75"
   aria-label="l" />&#10;      <path
   d="m 19.700195,49.667969 q -0.272461,-0.158203 -0.597656,-0.228516 -0.316406,-0.0791 -0.703125,-0.0791 -1.371094,0 -2.109375,0.896484 -0.729492,0.887695 -0.729492,2.557617 V 58 H 13.93457 v -9.84375 h 1.625977 v 1.529297 q 0.509765,-0.896485 1.327148,-1.327149 0.817383,-0.439453 1.986328,-0.439453 0.166993,0 0.369141,0.02637 0.202148,0.01758 0.448242,0.06152 z"
   id="text52"
   class="key"
   style="font-size:18px;font-family:'DejaVu Sans';text-align:center;text-anchor:middle;fill:#111111;stroke-width:0.75"
   aria-label="r" />&#10;      <path
   d="m 15.063965,91.767578 h 1.854492 V 94 h -1.854492 z"
   id="text53"
   class="key"
   style="font-size:18px;font-family:'DejaVu Sans';text-align:center;text-anchor:middle;fill:#111111;stroke-width:0.75"
   aria-label="." />&#10;    </g>&#10;&#10;&#10;    <!-- pinky finger column -->&#10;    <g
   transform="translate(144,0)"
   id="g57">&#10;      <use
   xlink:href="#basekey"
   y="0"
   class="r5"
   id="use53" />&#10;      <use
   xlink:href="#basekey"
   y="36"
   class="r5"
   id="use54" />&#10;      <use
   xlink:href="#basekey"
   y="72"
   class="r5"
   id="use55" />&#10;&#10;      <path
   d="m 19.51123,8.3242188 v 1.3447265 h -1.546875 q -0.870117,0 -1.21289,0.3515627 -0.333985,0.351562 -0.333985,1.265625 v 0.870117 h 2.663086 v 1.256836 H 16.41748 V 22 H 14.791504 V 13.413086 H 13.244629 V 12.15625 h 1.546875 v -0.685547 q 0,-1.6435546 0.764648,-2.3906249 0.764649,-0.7558593 2.425782,-0.7558593 z"
   id="text55"
   class="key"
   style="font-size:18px;font-family:'DejaVu Sans';text-align:center;text-anchor:middle;fill:#111111;stroke-width:0.75"
   aria-label="f" />&#10;      <path
   d="M 20.174805,52.058594 V 58 h -1.617188 v -5.888672 q 0,-1.397461 -0.544922,-2.091797 -0.544922,-0.694336 -1.634765,-0.694336 -1.309571,0 -2.06543,0.834961 -0.755859,0.834961 -0.755859,2.276367 V 58 H 11.930664 V 44.324219 h 1.625977 v 5.361328 q 0.580078,-0.887695 1.362304,-1.327149 0.791016,-0.439453 1.819336,-0.439453 1.696289,0 2.566406,1.054688 0.870118,1.045898 0.870118,3.084961 z"
   id="text56"
   class="key"
   style="font-size:18px;font-family:'DejaVu Sans';text-align:center;text-anchor:middle;fill:#111111;stroke-width:0.75"
   aria-label="h" />&#10;      <path
   d="m 12.422852,80.324219 h 1.625976 v 8.077148 l 4.825195,-4.245117 h 2.06543 L 15.71875,88.761719 21.15918,94 H 19.049805 L 14.048828,89.192383 V 94 h -1.625976 z"
   id="text57"
   class="key"
   style="font-size:18px;font-family:'DejaVu Sans';text-align:center;text-anchor:middle;fill:#111111;stroke-width:0.75"
   aria-label="k" />&#10;    </g>&#10;&#10;&#10;    <!-- outer column -->&#10;    <g
   transform="translate(180,0)"
   id="g59">&#10;      <use
   xlink:href="#basekey"
   y="0"
   class="r5"
   id="use57" />&#10;      <use
   xlink:href="#basekey"
   y="36"
   class="key grey"
   id="m3r" />&#10;      <use
   xlink:href="#basekey"
   y="72"
   class="key grey"
   id="use58" />&#10;&#10;      <path
   d="m 11.96582,12.006836 q 0,-1.757813 1.045899,-2.7158204 1.054687,-0.9667968 2.970703,-0.9667968 1.828125,0 2.786133,1.0195312 0.966797,1.019531 0.993164,2.988281 -1.327149,0.07031 -2.06543,0.580078 -0.738281,0.500977 -0.738281,1.344727 0,0.413086 0.254883,0.773437 0.254882,0.351563 0.826171,0.720704 l 0.500977,0.325195 q 1.458984,0.93164 1.880859,1.555664 0.421875,0.624023 0.421875,1.50293 0,1.511718 -0.993164,2.320312 -0.984375,0.799805 -2.838867,0.799805 -0.5625,0 -1.160156,-0.114258 -0.597656,-0.105469 -1.239258,-0.316406 v -1.441407 q 0.703125,0.263672 1.31836,0.395508 0.615234,0.123047 1.186523,0.123047 1.019531,0 1.546875,-0.413086 0.527344,-0.421875 0.527344,-1.221679 0,-0.553711 -0.263672,-0.922852 -0.254883,-0.369141 -1.142578,-0.914063 l -0.808594,-0.483398 q -0.84375,-0.518555 -1.230469,-1.107422 -0.377929,-0.597656 -0.377929,-1.397461 0,-1.116211 0.729492,-1.87207 0.738281,-0.755859 2.065429,-1.010742 -0.07031,-0.905274 -0.65039,-1.397461 -0.571289,-0.4921877 -1.564453,-0.4921877 -1.142578,0 -1.740235,0.6152347 -0.597656,0.606445 -0.597656,1.757812 V 22 H 11.96582 Z"
   id="text58"
   class="key"
   style="font-size:18px;font-family:'DejaVu Sans';text-align:center;text-anchor:middle;fill:#111111;stroke-width:0.75"
   aria-label="ß" />&#10;      <path
   d="m 10.789063,50.167969 h 1.175781 l 1.488281,3.96875 1.496094,-3.96875 H 16.125 V 56 h -0.769531 v -5.121094 l -1.503906,4 h -0.792969 l -1.503906,-4 V 56 h -0.765625 z m 9.363281,2.6875 q 0.566406,0.121093 0.882812,0.503906 0.320313,0.382812 0.320313,0.945312 0,0.863282 -0.59375,1.335938 -0.59375,0.472656 -1.6875,0.472656 -0.367188,0 -0.757813,-0.07422 -0.386719,-0.07031 -0.800781,-0.214843 V 55.0625 q 0.328125,0.191406 0.71875,0.289062 0.390625,0.09766 0.816406,0.09766 0.742188,0 1.128906,-0.292969 0.390625,-0.292969 0.390625,-0.851563 0,-0.515625 -0.363281,-0.804687 -0.359375,-0.292969 -1.003906,-0.292969 h -0.679688 v -0.648437 h 0.710938 q 0.582031,0 0.890625,-0.230469 0.308594,-0.234375 0.308594,-0.671875 0,-0.449219 -0.320313,-0.6875 -0.316406,-0.242188 -0.910156,-0.242188 -0.324219,0 -0.695313,0.07031 -0.371093,0.07031 -0.816406,0.21875 V 50.3125 q 0.449219,-0.125 0.839844,-0.1875 0.394531,-0.0625 0.742187,-0.0625 0.898438,0 1.421875,0.410156 0.523438,0.40625 0.523438,1.101563 0,0.484375 -0.277344,0.820312 -0.277344,0.332031 -0.789062,0.460938 z"
   id="m3rtxt"
   class="mod"
   style="font-size:8px;font-family:'DejaVu Sans';text-align:center;text-anchor:middle;fill:#111111"
   aria-label="M3" />&#10;      <path
   d="m 6.8535156,86.167969 h 1.1757813 l 1.4882812,3.96875 1.4960939,-3.96875 h 1.175781 V 92 h -0.769531 v -5.121094 l -1.5039064,4 H 9.1230469 l -1.5039063,-4 V 92 h -0.765625 z m 10.6132814,3.464843 v 0.351563 h -3.304688 q 0.04687,0.742187 0.445313,1.132812 0.402344,0.386719 1.117187,0.386719 0.414063,0 0.800782,-0.101562 0.390625,-0.101563 0.773437,-0.304688 v 0.679688 q -0.386719,0.164062 -0.792969,0.25 -0.40625,0.08594 -0.824218,0.08594 -1.046875,0 -1.660157,-0.609375 -0.609375,-0.609375 -0.609375,-1.648437 0,-1.074219 0.578125,-1.703125 0.582032,-0.632813 1.566407,-0.632813 0.882812,0 1.394531,0.570313 0.515625,0.566406 0.515625,1.542968 z m -0.71875,-0.210937 q -0.0078,-0.589844 -0.332031,-0.941406 -0.320313,-0.351563 -0.851563,-0.351563 -0.601562,0 -0.964844,0.339844 -0.359375,0.339844 -0.414062,0.957031 z m 2.609375,-3.039063 V 87.625 h 1.480469 v 0.558594 h -1.480469 v 2.375 q 0,0.535156 0.144531,0.6875 0.148438,0.152343 0.597656,0.152343 h 0.738282 V 92 h -0.738282 q -0.832031,0 -1.148437,-0.308594 -0.316406,-0.3125 -0.316406,-1.132812 v -2.375 H 18.107422 V 87.625 h 0.527344 v -1.242188 z m 4.414062,3.417969 q -0.871093,0 -1.207031,0.199219 -0.335937,0.199219 -0.335937,0.679687 0,0.382813 0.25,0.609375 0.253906,0.222657 0.6875,0.222657 0.597656,0 0.957031,-0.421875 0.363281,-0.425782 0.363281,-1.128907 v -0.160156 z m 1.433594,-0.296875 V 92 h -0.71875 v -0.664063 q -0.246094,0.398438 -0.613281,0.589844 -0.367188,0.1875 -0.898438,0.1875 -0.671875,0 -1.070312,-0.375 -0.394531,-0.378906 -0.394531,-1.011719 0,-0.738281 0.492187,-1.113281 0.496094,-0.375 1.476563,-0.375 h 1.007812 v -0.07031 q 0,-0.496094 -0.328125,-0.765625 -0.324219,-0.273438 -0.914062,-0.273438 -0.375,0 -0.730469,0.08984 -0.355469,0.08984 -0.683594,0.269531 v -0.664062 q 0.394531,-0.152344 0.765625,-0.226563 0.371094,-0.07813 0.722656,-0.07813 0.949219,0 1.417969,0.492188 0.46875,0.492187 0.46875,1.492187 z"
   id="text59"
   class="mod"
   style="font-size:8px;font-family:'DejaVu Sans';text-align:center;text-anchor:middle;fill:#111111"
   aria-label="Meta" />&#10;    </g>&#10;  </g>&#10;</g>&#10;&#10;</svg>
