<?xml version="1.0" encoding="UTF-8" standalone="no"?>
<svg
   version="1.1"
   id="Ebene_1"
   height="183"
   width="535"
   viewBox="0 0 535 183"
   enable-background="new 0 0 535 183"
   xml:space="preserve"
   inkscape:version="0.48.5 r10040"
   sodipodi:docname="noted-5-tkl.svg"
   inkscape:export-xdpi="90"
   inkscape:export-ydpi="90"
   xmlns:inkscape="http://www.inkscape.org/namespaces/inkscape"
   xmlns:sodipodi="http://sodipodi.sourceforge.net/DTD/sodipodi-0.dtd"
   xmlns:xlink="http://www.w3.org/1999/xlink"
   xmlns="http://www.w3.org/2000/svg"
   xmlns:svg="http://www.w3.org/2000/svg"
   xmlns:rdf="http://www.w3.org/1999/02/22-rdf-syntax-ns#"
   xmlns:cc="http://creativecommons.org/ns#"
   xmlns:dc="http://purl.org/dc/elements/1.1/">&#10;&#10;  <metadata
   id="metadata135">&#10;    <rdf:RDF>&#10;      <cc:Work
   rdf:about="">&#10;        <dc:format>image/svg+xml</dc:format>&#10;        <dc:type
   rdf:resource="http://purl.org/dc/dcmitype/StillImage" />&#10;        <dc:title />&#10;      </cc:Work>&#10;    </rdf:RDF>&#10;  </metadata>&#10;&#10;<defs
   id="defs">&#10;<style
   type="text/css"
   id="style46661">&#10;text.mod, text.key, text.dead {&#10;	fill:#111;&#10;	fill-opacity:1;&#10;    stroke:none;&#10;    font-style:normal;&#10;    font-variant:normal;&#10;    font-weight:normal;&#10;    font-stretch:normal;&#10;    display:inline;&#10;    font-family:Arial;&#10;    writing-mode:lr-tb;&#10;}&#10;&#10;text.key {&#10;    font-family:Arial;&#10;}&#10;&#10;text.dead {&#10;    font-family: Gentium Plus Compact; &#10;}&#10;&#10;text.mod {&#10;    text-align:start;&#10;    text-anchor:start;&#10;}&#10;&#10;text.space, text.dead, text.center, text.key {&#10;    text-align:center;&#10;    text-anchor:middle;&#10;}&#10;&#10;text.key { font-size:18px; }&#10;text.dead { font-size:18px; }&#10;text.mod { font-size:10px; }&#10;text.big { font-size:12px; }&#10;&#10;.key {&#10;stroke-width:0.75;&#10;}&#10;&#10;.grey { fill:#949494; stroke:#696969; }&#10;.grey { fill:#9f9f9f; stroke:#747474; }&#10;&#10;.numpad { fill:#afaa9f; stroke:#747474; }&#10;&#10;/* bootstrap colors */&#10;.l5, .r5 { fill:#93CCEA; }&#10;.l4, .r4 { fill:#7abeb3; }&#10;.l3, .r3 { fill:#63b280; }&#10;.l2, .r2 { fill:#4aa44a; }&#10;&#10;/* btn bg hover, unused */&#10;.l2, .r2 { stroke:#3071a9; }&#10;.l3, .r3 { stroke:#449d44; }&#10;.l4, .r4 { stroke:#c9302c; }&#10;.l5, .r5 { stroke:#ec971f; }&#10;&#10;/* btn border hover */&#10;.l2, .r2 { stroke:#204d74; }&#10;.l3, .r3 { stroke:#204d74; }&#10;.l4, .r4 { stroke:#204d74; }&#10;.l5, .r5 { stroke:#204d74; }&#10;&#10;<!-- text.nubkey { fill:#eee; } -->&#10;&#10;.pressed {&#10;	<!--opacity:0.5;-->&#10;	fill:#777;&#10;}&#10;    </style>&#10;&#10;    <g
   id="basekey">&#10;        <rect
   width="32"
   height="32"
   rx="4"
   class="key"
   id="rect1" />&#10;	<!--rect width="20" height="20" x="6" y="6" /-->&#10;        <!--rect width="2" height="2" fill="#000" x="15" y="15" /-->&#10;    </g>&#10;&#10;    </defs>&#10;<sodipodi:namedview
   pagecolor="#ffffff"
   bordercolor="#666666"
   borderopacity="1"
   objecttolerance="10"
   gridtolerance="10"
   guidetolerance="10"
   inkscape:pageopacity="0"
   inkscape:pageshadow="2"
   inkscape:window-width="1614"
   inkscape:window-height="969"
   id="base"
   showgrid="false"
   inkscape:zoom="0.70961538"
   inkscape:cx="685.32105"
   inkscape:cy="241.15395"
   inkscape:window-x="78"
   inkscape:window-y="71"
   inkscape:window-maximized="0"
   inkscape:current-layer="Ebene_1"
   inkscape:showpageshadow="2"
   inkscape:pagecheckerboard="0"
   inkscape:deskcolor="#d1d1d1" />&#10;&#10;<rect
   width="100%"
   height="100%"
   rx="4"
   style="fill:#eee"
   id="rect2" />&#10;&#10;<g
   transform="translate(3.5,3.5)"
   id="g62">&#10;<use
   xlink:href="#basekey"
   y="0"
   x="0"
   class="l5"
   id="use2" />&#10;<use
   xlink:href="#basekey"
   y="0"
   x="36"
   class="l5"
   id="use3" />&#10;<use
   xlink:href="#basekey"
   y="0"
   x="72"
   class="l5"
   id="use4" />&#10;<use
   xlink:href="#basekey"
   y="0"
   x="108"
   class="l4"
   id="use5" />&#10;<use
   xlink:href="#basekey"
   y="0"
   x="144"
   class="l3"
   id="use6" />&#10;<use
   xlink:href="#basekey"
   y="0"
   x="180"
   class="l2"
   id="use7" />&#10;<use
   xlink:href="#basekey"
   y="0"
   x="216"
   class="l2"
   id="use8" />&#10;&#10;<use
   xlink:href="#basekey"
   y="0"
   x="252"
   class="r2"
   id="use9" />&#10;<use
   xlink:href="#basekey"
   y="0"
   x="288"
   class="r2"
   id="use10" />&#10;<use
   xlink:href="#basekey"
   y="0"
   x="324"
   class="r3"
   id="use11" />&#10;<use
   xlink:href="#basekey"
   y="0"
   x="360"
   class="r4"
   id="use12" />&#10;<use
   xlink:href="#basekey"
   y="0"
   x="396"
   class="r5"
   id="use13" />&#10;<use
   xlink:href="#basekey"
   y="0"
   x="432"
   class="r5"
   id="use14" />&#10;&#10;&#10;<use
   xlink:href="#basekey"
   y="36"
   x="54"
   class="l5"
   id="use15" />&#10;<use
   xlink:href="#basekey"
   y="36"
   x="90"
   class="l4"
   id="use16" />&#10;<use
   xlink:href="#basekey"
   y="36"
   x="126"
   class="l3"
   id="use17" />&#10;<use
   xlink:href="#basekey"
   y="36"
   x="162"
   class="l2"
   id="use18" />&#10;<use
   xlink:href="#basekey"
   y="36"
   x="198"
   class="l2"
   id="use19" />&#10;&#10;<use
   xlink:href="#basekey"
   y="36"
   x="234"
   class="r2"
   id="use20" />&#10;<use
   xlink:href="#basekey"
   y="36"
   x="270"
   class="r2"
   id="use21" />&#10;<use
   xlink:href="#basekey"
   y="36"
   x="306"
   class="r3"
   id="use22" />&#10;<use
   xlink:href="#basekey"
   y="36"
   x="342"
   class="r4"
   id="use23" />&#10;<use
   xlink:href="#basekey"
   y="36"
   x="378"
   class="r5"
   id="use24" />&#10;<use
   xlink:href="#basekey"
   y="36"
   x="414"
   class="r5"
   id="use25" />&#10;<use
   xlink:href="#basekey"
   y="36"
   x="450"
   class="r5"
   id="use26" />&#10;&#10;&#10;<use
   xlink:href="#basekey"
   y="72"
   x="64"
   class="l5"
   id="use27" />&#10;<use
   xlink:href="#basekey"
   y="72"
   x="100"
   class="l4"
   id="use28" />&#10;<use
   xlink:href="#basekey"
   y="72"
   x="136"
   class="l3"
   id="use29" />&#10;<use
   xlink:href="#basekey"
   y="72"
   x="172"
   class="l2"
   id="use30" />&#10;<use
   xlink:href="#basekey"
   y="72"
   x="208"
   class="l2"
   id="use31" />&#10;&#10;<use
   xlink:href="#basekey"
   y="72"
   x="244"
   class="r2"
   id="use32" />&#10;<use
   xlink:href="#basekey"
   y="72"
   x="280"
   class="r2"
   id="use33" />&#10;<use
   xlink:href="#basekey"
   y="72"
   x="316"
   class="r3"
   id="use34" />&#10;<use
   xlink:href="#basekey"
   y="72"
   x="352"
   class="r4"
   id="use35" />&#10;<use
   xlink:href="#basekey"
   y="72"
   x="388"
   class="r5"
   id="use36" />&#10;&#10;    <use
   xlink:href="#basekey"
   y="72"
   x="460"
   class="r5"
   id="use37" />&#10;&#10;&#10;&#10;<use
   xlink:href="#basekey"
   y="108"
   x="82"
   class="l5"
   id="use38" />&#10;<use
   xlink:href="#basekey"
   y="108"
   x="118"
   class="l4"
   id="use39" />&#10;<use
   xlink:href="#basekey"
   y="108"
   x="154"
   class="l3"
   id="use40" />&#10;<use
   xlink:href="#basekey"
   y="108"
   x="190"
   class="l2"
   id="use41" />&#10;<use
   xlink:href="#basekey"
   y="108"
   x="226"
   class="l2"
   id="use42" />&#10;&#10;<use
   xlink:href="#basekey"
   y="108"
   x="262"
   class="r2"
   id="use43" />&#10;<use
   xlink:href="#basekey"
   y="108"
   x="298"
   class="r2"
   id="use44" />&#10;<use
   xlink:href="#basekey"
   y="108"
   x="334"
   class="r3"
   id="use45" />&#10;<use
   xlink:href="#basekey"
   y="108"
   x="370"
   class="r4"
   id="use46" />&#10;<use
   xlink:href="#basekey"
   y="108"
   x="406"
   class="r5"
   id="use47" />&#10;&#10;&#10;<rect
   id="backspace"
   y="0"
   x="468"
   width="60"
   height="32"
   rx="4"
   class="key grey" />&#10;&#10;<rect
   id="tab"
   x="0"
   y="36"
   width="50"
   height="32"
   rx="4"
   class="key grey" />&#10;&#10;<rect
   id="m3l"
   x="0"
   y="72"
   width="60"
   height="32"
   rx="4"
   class="key grey pressed" />&#10;&#10;<use
   id="m3r"
   xlink:href="#basekey"
   x="424"
   y="72"
   class="key grey pressed" />&#10;&#10;&#10;<rect
   id="shiftl"
   x="0"
   y="108"
   width="40"
   height="32"
   rx="4"
   class="key grey pressed" />&#10;<rect
   id="m4l"
   x="44"
   y="108"
   width="34"
   height="32"
   rx="4"
   class="key grey" />&#10;<rect
   id="shiftr"
   x="442"
   y="108"
   width="86"
   height="32"
   rx="4"
   class="key grey pressed" />&#10;&#10;<rect
   id="ctrll"
   x="0"
   y="144"
   width="50"
   height="32"
   rx="4"
   class="key grey" />&#10;<rect
   id="altl"
   x="124"
   y="144"
   width="48"
   height="32"
   rx="4"
   class="key grey" />&#10;<rect
   id="space"
   x="176"
   y="144"
   width="168"
   height="32"
   rx="4"
   class="key grey" />&#10;<rect
   id="m4r"
   x="348"
   y="144"
   width="48"
   height="32"
   rx="4"
   class="key grey" />&#10;<rect
   id="ctrlr"
   x="478"
   y="144"
   width="50"
   height="32"
   rx="4"
   class="key grey" />&#10;&#10;<use
   xlink:href="#basekey"
   y="0"
   x="542"
   class="key numpad"
   id="use48" />&#10;<use
   xlink:href="#basekey"
   y="0"
   x="578"
   class="key numpad"
   id="use49" />&#10;<use
   xlink:href="#basekey"
   y="0"
   x="614"
   class="key numpad"
   id="use50" />&#10;<use
   xlink:href="#basekey"
   y="0"
   x="650"
   class="key numpad"
   id="use51" />&#10;&#10;<use
   xlink:href="#basekey"
   y="36"
   x="542"
   class="key numpad"
   id="use52" />&#10;<use
   xlink:href="#basekey"
   y="36"
   x="578"
   class="key numpad"
   id="use53" />&#10;<use
   xlink:href="#basekey"
   y="36"
   x="614"
   class="key numpad"
   id="use54" />&#10;<rect
   id="kpplus"
   x="650"
   y="36"
   width="32"
   height="68"
   rx="4"
   class="key numpad" />&#10;&#10;<use
   xlink:href="#basekey"
   y="72"
   x="542"
   class="key numpad"
   id="use55" />&#10;<use
   xlink:href="#basekey"
   y="72"
   x="578"
   class="key numpad"
   id="use56" />&#10;<use
   xlink:href="#basekey"
   y="72"
   x="614"
   class="key numpad"
   id="use57" />&#10;&#10;<use
   xlink:href="#basekey"
   y="108"
   x="542"
   class="key numpad"
   id="use58" />&#10;<use
   xlink:href="#basekey"
   y="108"
   x="578"
   class="key numpad"
   id="use59" />&#10;<use
   xlink:href="#basekey"
   y="108"
   x="614"
   class="key numpad"
   id="use60" />&#10;<rect
   id="kppenter"
   x="650"
   y="108"
   width="32"
   height="68"
   rx="4"
   class="key numpad" />&#10;&#10;<rect
   id="kp0"
   x="542"
   y="144"
   width="68"
   height="32"
   rx="4"
   class="key numpad" />&#10;<use
   xlink:href="#basekey"
   y="144"
   x="614"
   class="key numpad"
   id="use61" />&#10;&#10;<path
   fill-rule="evenodd"
   clip-rule="evenodd"
   d="      M 10,32      l -6,0 a 4,4 0 0 1 -4,-4      l 0,-24 a 4,4 0 0 1 4,-4      l 34,0 a 4,4 0 0 1 4,4      l 0,60 a 4,4 0 0 1 -4,4      l -24,0 a 4,4 0 0 1 -4,-4      z"
   transform="translate(486,36)"
   id="return"
   class="key grey" />&#10;&#10;<rect
   y="101"
   x="181"
   width="14"
   height="1"
   rx="1"
   id="nub"
   style="fill:#111;" />&#10;<use
   y="0"
   x="108"
   xlink:href="#nub"
   id="use62" />&#10;</g>&#10;&#10;<g
   transform="translate(-0.5,-0.5)"
   id="g63">&#10;<path
   d="m 16.669922,96 v -4.589844 q 0,-0.761719 0.04395,-1.464844 -0.239258,0.874024 -0.429687,1.367188 L 14.506836,96 h -0.654297 l -1.801758,-4.6875 -0.273437,-0.830078 -0.161133,-0.53711 0.01465,0.541993 0.01953,0.922851 V 96 h -0.830078 v -6.879883 h 1.225585 l 1.831055,4.770508 q 0.09766,0.288086 0.185547,0.620117 0.09277,0.327149 0.12207,0.473633 0.03906,-0.195313 0.161133,-0.59082 0.126953,-0.400391 0.170899,-0.50293 l 1.796875,-4.770508 h 1.196289 V 96 Z m 6.801758,-2.646484 q 0,1.386718 -0.610352,2.065429 -0.610351,0.678711 -1.772461,0.678711 -1.157226,0 -1.748047,-0.703125 Q 18.75,94.686523 18.75,93.353516 q 0,-2.734375 2.368164,-2.734375 1.210938,0 1.782227,0.668945 0.571289,0.664062 0.571289,2.06543 z m -0.922852,0 q 0,-1.09375 -0.327148,-1.586914 -0.322266,-0.498047 -1.088868,-0.498047 -0.771484,0 -1.118164,0.507812 -0.341796,0.50293 -0.341796,1.577149 0,1.044921 0.336914,1.572265 0.341796,0.522461 1.069336,0.522461 0.791015,0 1.127929,-0.507812 0.341797,-0.507813 0.341797,-1.586914 z m 5.351563,1.796875 q -0.244141,0.507812 -0.649414,0.727539 -0.400391,0.219726 -0.996094,0.219726 -1.000977,0 -1.47461,-0.673828 -0.46875,-0.673828 -0.46875,-2.041016 0,-2.763671 1.94336,-2.763671 0.600586,0 1.000976,0.219726 0.400391,0.219727 0.644532,0.698242 h 0.0098 l -0.0098,-0.59082 v -2.192383 h 0.878906 v 6.157227 q 0,0.825195 0.0293,1.088867 H 27.96875 q -0.01465,-0.07813 -0.03418,-0.361328 -0.01465,-0.283203 -0.01465,-0.488281 z m -2.666016,-1.796875 q 0,1.108398 0.292969,1.586914 0.292968,0.478515 0.952148,0.478515 0.74707,0 1.083985,-0.517578 0.336914,-0.517578 0.336914,-1.606445 0,-1.049805 -0.336914,-1.538086 -0.336915,-0.488281 -1.074219,-0.488281 -0.664063,0 -0.961914,0.493164 -0.292969,0.488281 -0.292969,1.591797 z m 9.34082,0.74707 q 0,0.952148 -0.605468,1.474609 -0.605469,0.522461 -1.728516,0.522461 -1.044922,0 -1.669922,-0.46875 -0.620117,-0.473633 -0.737305,-1.396484 l 0.908203,-0.08301 q 0.175782,1.220703 1.499024,1.220703 0.664062,0 1.040039,-0.327148 0.380859,-0.327149 0.380859,-0.97168 0,-0.561523 -0.43457,-0.874023 -0.429687,-0.317383 -1.245117,-0.317383 h -0.498047 v -0.761719 h 0.478516 q 0.722656,0 1.118164,-0.3125 0.40039,-0.317383 0.40039,-0.874023 0,-0.551758 -0.327148,-0.869141 -0.322266,-0.322266 -0.961914,-0.322266 -0.581055,0 -0.942383,0.297852 -0.356445,0.297851 -0.415039,0.839844 l -0.883789,-0.06836 q 0.09766,-0.844726 0.698242,-1.318359 0.605469,-0.473633 1.552734,-0.473633 1.035157,0 1.606446,0.483399 0.576172,0.478515 0.576172,1.33789 0,0.65918 -0.371094,1.074219 -0.366211,0.410156 -1.069336,0.556641 v 0.01953 q 0.771484,0.08301 1.201172,0.517578 0.429687,0.43457 0.429687,1.09375 z"
   id="m3ltxt"
   style="font-size:10px;line-height:0%;font-family:Arial;fill:#111111"
   class="mod"
   aria-label="Mod3" />&#10;<path
   d="m 16.585937,126.34375 -1.558593,-1.55859 -1.558594,1.55859 h 0.767578 v 6.07031 h 1.582031 v -6.07031 z m -4.535156,0.58594 2.976563,-2.97656 2.976562,2.97656 H 16.404297 V 133 h -2.753906 v -6.07031 z"
   id="shiftltxt"
   style="font-size:12px;line-height:0%;font-family:Arial;fill:#111111"
   class="mod big"
   aria-label="⇧" />&#10;<path
   d="m 16.210937,166.10059 q 0,0.95214 -0.74707,1.47461 -0.742187,0.52246 -2.094726,0.52246 -2.514649,0 -2.915039,-1.74805 l 0.90332,-0.18066 q 0.15625,0.62011 0.664062,0.91308 0.507813,0.28809 1.381836,0.28809 0.903321,0 1.391602,-0.30762 0.493164,-0.3125 0.493164,-0.91309 0,-0.33691 -0.15625,-0.54687 -0.151367,-0.20996 -0.429688,-0.34668 -0.27832,-0.13672 -0.664062,-0.22949 -0.385742,-0.0928 -0.854492,-0.2002 -0.81543,-0.18066 -1.240235,-0.36133 -0.419921,-0.18066 -0.664062,-0.40039 -0.244141,-0.22461 -0.375977,-0.52246 -0.126953,-0.29785 -0.126953,-0.68359 0,-0.88379 0.673828,-1.36231 0.678711,-0.47851 1.938477,-0.47851 1.171875,0 1.791992,0.36133 0.620117,0.35644 0.869141,1.2207 l -0.917969,0.16113 q -0.151367,-0.54687 -0.576172,-0.79101 -0.424805,-0.24903 -1.176758,-0.24903 -0.825195,0 -1.259765,0.27344 -0.434571,0.27344 -0.434571,0.81543 0,0.31738 0.166016,0.52734 0.170898,0.20508 0.488281,0.35157 0.317383,0.1416 1.264649,0.35156 0.317382,0.0732 0.629882,0.15137 0.317383,0.0732 0.605469,0.18066 0.288086,0.10254 0.53711,0.24414 0.253906,0.1416 0.439453,0.34668 0.185547,0.20508 0.288086,0.4834 0.107421,0.27832 0.107421,0.6543 z m 3.164063,1.86035 q -0.43457,0.11718 -0.888672,0.11718 -1.054687,0 -1.054687,-1.19628 v -3.52539 h -0.610352 v -0.63965 h 0.644531 l 0.258789,-1.18164 h 0.585938 v 1.18164 h 0.976562 v 0.63965 h -0.976562 v 3.33496 q 0,0.38086 0.12207,0.53711 0.126953,0.15136 0.43457,0.15136 0.175782,0 0.507813,-0.0684 z M 20.141602,168 v -4.05273 q 0,-0.55665 -0.0293,-1.23047 h 0.830078 q 0.03906,0.89843 0.03906,1.0791 h 0.01953 q 0.20996,-0.67871 0.483398,-0.92774 0.273437,-0.24902 0.771484,-0.24902 0.175782,0 0.356446,0.0488 v 0.80566 q -0.175782,-0.0488 -0.46875,-0.0488 -0.546875,0 -0.834961,0.47364 -0.288086,0.46875 -0.288086,1.34765 V 168 Z m 5.3125,2.0752 q -0.864258,0 -1.376954,-0.3418 -0.512695,-0.33692 -0.659179,-0.96192 l 0.883789,-0.12695 q 0.08789,0.36621 0.385742,0.56152 0.302734,0.2002 0.791016,0.2002 1.313476,0 1.313476,-1.53809 v -0.84961 h -0.0098 q -0.249024,0.50782 -0.683594,0.76661 -0.434571,0.2539 -1.015625,0.2539 -0.97168,0 -1.430664,-0.64453 -0.454102,-0.64453 -0.454102,-2.02637 0,-1.40136 0.488281,-2.06543 0.493164,-0.66894 1.494141,-0.66894 0.561523,0 0.97168,0.25879 0.415039,0.2539 0.639648,0.72754 h 0.0098 q 0,-0.14649 0.01953,-0.50782 0.01953,-0.36132 0.03906,-0.3955 h 0.83496 q -0.0293,0.26367 -0.0293,1.09375 v 4.03808 q 0,2.22657 -2.211914,2.22657 z m 1.33789,-4.7168 q 0,-0.64453 -0.175781,-1.1084 -0.175781,-0.46875 -0.498047,-0.71289 -0.317383,-0.24902 -0.722656,-0.24902 -0.673828,0 -0.981446,0.48828 -0.307617,0.48828 -0.307617,1.58203 0,1.08398 0.288086,1.55762 0.288086,0.47363 0.986328,0.47363 0.415039,0 0.737305,-0.24414 0.322266,-0.24414 0.498047,-0.69824 0.175781,-0.45899 0.175781,-1.08887 z"
   id="ctrlltxt"
   style="font-size:10px;line-height:0%;font-family:Arial;fill:#111111"
   class="mod"
   aria-label="Strg" />&#10;&#10;<path
   d="m 62.669922,132 v -4.58984 q 0,-0.76172 0.04395,-1.46485 -0.239258,0.87403 -0.429687,1.36719 L 60.506836,132 h -0.654297 l -1.801758,-4.6875 -0.273437,-0.83008 -0.161133,-0.53711 0.01465,0.54199 0.01953,0.92286 V 132 h -0.830079 v -6.87988 h 1.225586 l 1.831055,4.7705 q 0.09766,0.28809 0.185547,0.62012 0.09277,0.32715 0.12207,0.47363 0.03906,-0.19531 0.161133,-0.59082 0.126953,-0.40039 0.170899,-0.50293 l 1.796875,-4.7705 h 1.196289 V 132 Z m 5.961914,-1.55762 V 132 h -0.830078 v -1.55762 H 64.55957 v -0.68359 l 3.149414,-4.63867 h 0.922852 v 4.6289 h 0.966797 v 0.69336 z m -0.830078,-4.33105 q -0.0098,0.0293 -0.136719,0.25879 -0.126953,0.22949 -0.19043,0.32226 l -1.762695,2.59766 -0.263672,0.36133 -0.07813,0.0977 h 2.431641 z"
   id="m4ltxt"
   style="font-size:10px;line-height:0%;font-family:Arial;fill:#111111"
   class="mod"
   aria-label="M4" />&#10;<path
   d="m 140.69824,168 -0.78613,-2.01172 h -3.13477 L 135.98633,168 h -0.9668 l 2.80762,-6.87988 h 1.05957 L 141.65039,168 Z m -2.35351,-6.17676 -0.0439,0.13672 q -0.12207,0.40527 -0.36133,1.04004 l -0.8789,2.26074 h 2.57324 L 138.75,162.99023 q -0.13672,-0.33691 -0.27344,-0.76171 z M 142.34375,168 v -7.24609 h 0.87891 V 168 Z m 4.25293,-0.0391 q -0.43457,0.11718 -0.88867,0.11718 -1.05469,0 -1.05469,-1.19628 v -3.52539 h -0.61035 v -0.63965 h 0.64453 l 0.25879,-1.18164 h 0.58594 v 1.18164 h 0.97656 v 0.63965 h -0.97656 v 3.33496 q 0,0.38086 0.12207,0.53711 0.12695,0.15136 0.43457,0.15136 0.17578,0 0.50781,-0.0684 z"
   id="altltxt"
   style="font-size:10px;line-height:0%;font-family:Arial;fill:#111111"
   class="mod"
   aria-label="Alt" />&#10;&#10;&#10;<path
   d="m 442.66992,96 v -4.589844 q 0,-0.761719 0.0439,-1.464844 -0.23926,0.874024 -0.42969,1.367188 L 440.50684,96 h -0.6543 l -1.80176,-4.6875 -0.27344,-0.830078 -0.16113,-0.53711 0.0146,0.541993 0.0195,0.922851 V 96 h -0.83008 v -6.879883 h 1.22559 l 1.83105,4.770508 q 0.0977,0.288086 0.18555,0.620117 0.0928,0.327149 0.12207,0.473633 0.0391,-0.195313 0.16113,-0.59082 0.12696,-0.400391 0.1709,-0.50293 l 1.79688,-4.770508 h 1.19629 V 96 Z m 6.78223,-1.899414 q 0,0.952148 -0.60547,1.474609 -0.60547,0.522461 -1.72852,0.522461 -1.04492,0 -1.66992,-0.46875 -0.62012,-0.473633 -0.7373,-1.396484 l 0.9082,-0.08301 q 0.17578,1.220703 1.49902,1.220703 0.66407,0 1.04004,-0.327148 0.38086,-0.327149 0.38086,-0.97168 0,-0.561523 -0.43457,-0.874023 -0.42969,-0.317383 -1.24512,-0.317383 h -0.49804 v -0.761719 h 0.47851 q 0.72266,0 1.11817,-0.3125 0.40039,-0.317383 0.40039,-0.874023 0,-0.551758 -0.32715,-0.869141 -0.32227,-0.322266 -0.96191,-0.322266 -0.58106,0 -0.94239,0.297852 -0.35644,0.297851 -0.41504,0.839844 l -0.88379,-0.06836 q 0.0977,-0.844726 0.69825,-1.318359 0.60547,-0.473633 1.55273,-0.473633 1.03516,0 1.60645,0.483399 0.57617,0.478515 0.57617,1.33789 0,0.65918 -0.3711,1.074219 -0.36621,0.410156 -1.06933,0.556641 v 0.01953 q 0.77148,0.08301 1.20117,0.517578 0.42969,0.43457 0.42969,1.09375 z"
   id="m3rtxt"
   style="font-size:10px;line-height:0%;font-family:Arial;fill:#111111"
   class="mod"
   aria-label="M3" />&#10;&#10;&#10;<path
   d="m 456.58594,126.34375 -1.5586,-1.55859 -1.55859,1.55859 h 0.76758 v 6.07031 h 1.58203 v -6.07031 z m -4.53516,0.58594 2.97656,-2.97656 2.97657,2.97656 H 456.4043 V 133 h -2.75391 v -6.07031 z"
   id="shiftrtxt"
   style="font-size:12px;line-height:0%;font-family:Arial;fill:#111111"
   class="mod big"
   aria-label="⇧" />&#10;<path
   d="m 496.21094,166.10059 q 0,0.95214 -0.74707,1.47461 -0.74219,0.52246 -2.09473,0.52246 -2.51465,0 -2.91504,-1.74805 l 0.90332,-0.18066 q 0.15625,0.62011 0.66406,0.91308 0.50782,0.28809 1.38184,0.28809 0.90332,0 1.3916,-0.30762 0.49317,-0.3125 0.49317,-0.91309 0,-0.33691 -0.15625,-0.54687 -0.15137,-0.20996 -0.42969,-0.34668 -0.27832,-0.13672 -0.66406,-0.22949 -0.38575,-0.0928 -0.8545,-0.2002 -0.81543,-0.18066 -1.24023,-0.36133 -0.41992,-0.18066 -0.66406,-0.40039 -0.24414,-0.22461 -0.37598,-0.52246 -0.12695,-0.29785 -0.12695,-0.68359 0,-0.88379 0.67383,-1.36231 0.67871,-0.47851 1.93847,-0.47851 1.17188,0 1.79199,0.36133 0.62012,0.35644 0.86914,1.2207 l -0.91796,0.16113 q -0.15137,-0.54687 -0.57618,-0.79101 -0.4248,-0.24903 -1.17675,-0.24903 -0.8252,0 -1.25977,0.27344 -0.43457,0.27344 -0.43457,0.81543 0,0.31738 0.16602,0.52734 0.17089,0.20508 0.48828,0.35157 0.31738,0.1416 1.26465,0.35156 0.31738,0.0732 0.62988,0.15137 0.31738,0.0732 0.60547,0.18066 0.28808,0.10254 0.53711,0.24414 0.2539,0.1416 0.43945,0.34668 0.18555,0.20508 0.28809,0.4834 0.10742,0.27832 0.10742,0.6543 z m 3.16406,1.86035 q -0.43457,0.11718 -0.88867,0.11718 -1.05469,0 -1.05469,-1.19628 v -3.52539 h -0.61035 v -0.63965 h 0.64453 l 0.25879,-1.18164 h 0.58594 v 1.18164 h 0.97656 v 0.63965 h -0.97656 v 3.33496 q 0,0.38086 0.12207,0.53711 0.12695,0.15136 0.43457,0.15136 0.17578,0 0.50781,-0.0684 z M 500.1416,168 v -4.05273 q 0,-0.55665 -0.0293,-1.23047 h 0.83008 q 0.0391,0.89843 0.0391,1.0791 h 0.0195 q 0.20996,-0.67871 0.48339,-0.92774 0.27344,-0.24902 0.77149,-0.24902 0.17578,0 0.35644,0.0488 v 0.80566 q -0.17578,-0.0488 -0.46875,-0.0488 -0.54687,0 -0.83496,0.47364 -0.28808,0.46875 -0.28808,1.34765 V 168 Z m 5.3125,2.0752 q -0.86426,0 -1.37695,-0.3418 -0.5127,-0.33692 -0.65918,-0.96192 l 0.88379,-0.12695 q 0.0879,0.36621 0.38574,0.56152 0.30273,0.2002 0.79102,0.2002 1.31347,0 1.31347,-1.53809 v -0.84961 h -0.01 q -0.24903,0.50782 -0.6836,0.76661 -0.43457,0.2539 -1.01562,0.2539 -0.97168,0 -1.43067,-0.64453 -0.4541,-0.64453 -0.4541,-2.02637 0,-1.40136 0.48828,-2.06543 0.49317,-0.66894 1.49414,-0.66894 0.56153,0 0.97168,0.25879 0.41504,0.2539 0.63965,0.72754 h 0.01 q 0,-0.14649 0.0195,-0.50782 0.0195,-0.36132 0.0391,-0.3955 h 0.83496 q -0.0293,0.26367 -0.0293,1.09375 v 4.03808 q 0,2.22657 -2.21192,2.22657 z m 1.33789,-4.7168 q 0,-0.64453 -0.17578,-1.1084 -0.17578,-0.46875 -0.49805,-0.71289 -0.31738,-0.24902 -0.72265,-0.24902 -0.67383,0 -0.98145,0.48828 -0.30761,0.48828 -0.30761,1.58203 0,1.08398 0.28808,1.55762 0.28809,0.47363 0.98633,0.47363 0.41504,0 0.7373,-0.24414 0.32227,-0.24414 0.49805,-0.69824 0.17578,-0.45899 0.17578,-1.08887 z"
   id="ctrlrtxt"
   style="font-size:10px;line-height:0%;font-family:Arial;fill:#111111"
   class="mod"
   aria-label="Strg" />&#10;<path
   d="m 363.66992,168 v -4.58984 q 0,-0.76172 0.0439,-1.46485 -0.23926,0.87403 -0.42969,1.36719 L 361.50684,168 h -0.6543 l -1.80176,-4.6875 -0.27344,-0.83008 -0.16113,-0.53711 0.0146,0.54199 0.0195,0.92286 V 168 h -0.83008 v -6.87988 h 1.22559 l 1.83105,4.7705 q 0.0977,0.28809 0.18555,0.62012 0.0928,0.32715 0.12207,0.47363 0.0391,-0.19531 0.16113,-0.59082 0.12696,-0.40039 0.1709,-0.50293 l 1.79688,-4.7705 h 1.19629 V 168 Z m 6.80176,-2.64648 q 0,1.38671 -0.61035,2.06543 -0.61035,0.67871 -1.77246,0.67871 -1.15723,0 -1.74805,-0.70313 -0.59082,-0.70801 -0.59082,-2.04101 0,-2.73438 2.36816,-2.73438 1.21094,0 1.78223,0.66895 0.57129,0.66406 0.57129,2.06543 z m -0.92285,0 q 0,-1.09375 -0.32715,-1.58692 -0.32227,-0.49805 -1.08887,-0.49805 -0.77148,0 -1.11816,0.50782 -0.3418,0.50293 -0.3418,1.57715 0,1.04492 0.33692,1.57226 0.34179,0.52246 1.06933,0.52246 0.79102,0 1.12793,-0.50781 0.3418,-0.50781 0.3418,-1.58691 z m 5.35156,1.79687 q -0.24414,0.50781 -0.64941,0.72754 -0.40039,0.21973 -0.9961,0.21973 -1.00097,0 -1.47461,-0.67383 -0.46875,-0.67383 -0.46875,-2.04102 0,-2.76367 1.94336,-2.76367 0.60059,0 1.00098,0.21973 0.40039,0.21972 0.64453,0.69824 h 0.01 l -0.01,-0.59082 v -2.19238 h 0.87891 v 6.15722 q 0,0.8252 0.0293,1.08887 h -0.83984 q -0.0147,-0.0781 -0.0342,-0.36133 -0.0147,-0.2832 -0.0147,-0.48828 z m -2.66602,-1.79687 q 0,1.10839 0.29297,1.58691 0.29297,0.47852 0.95215,0.47852 0.74707,0 1.08399,-0.51758 0.33691,-0.51758 0.33691,-1.60645 0,-1.0498 -0.33691,-1.53808 -0.33692,-0.48829 -1.07422,-0.48829 -0.66406,0 -0.96192,0.49317 -0.29297,0.48828 -0.29297,1.5918 z m 8.52051,1.08886 V 168 h -0.83008 v -1.55762 h -3.24218 v -0.68359 l 3.14941,-4.63867 h 0.92285 v 4.6289 h 0.9668 v 0.69336 z m -0.83008,-4.33105 q -0.01,0.0293 -0.13671,0.25879 -0.12696,0.22949 -0.19043,0.32226 l -1.7627,2.59766 -0.26367,0.36133 -0.0781,0.0977 h 2.43164 z"
   id="m4rtxt"
   style="font-size:10px;line-height:0%;font-family:Arial;fill:#111111"
   class="mod"
   aria-label="Mod4" />&#10;<path
   d="m 210.36328,170.0752 q -0.86426,0 -1.37695,-0.3418 -0.5127,-0.33692 -0.65918,-0.96192 l 0.88379,-0.12695 q 0.0879,0.36621 0.38574,0.56152 0.30273,0.2002 0.79102,0.2002 1.31347,0 1.31347,-1.53809 v -0.84961 h -0.01 q -0.24903,0.50782 -0.6836,0.76661 -0.43457,0.2539 -1.01562,0.2539 -0.97168,0 -1.43067,-0.64453 -0.4541,-0.64453 -0.4541,-2.02637 0,-1.40136 0.48828,-2.06543 0.49317,-0.66894 1.49414,-0.66894 0.56153,0 0.97168,0.25879 0.41504,0.2539 0.63965,0.72754 h 0.01 q 0,-0.14649 0.0195,-0.50782 0.0195,-0.36132 0.0391,-0.3955 h 0.83496 q -0.0293,0.26367 -0.0293,1.09375 v 4.03808 q 0,2.22657 -2.21192,2.22657 z m 1.33789,-4.7168 q 0,-0.64453 -0.17578,-1.1084 -0.17578,-0.46875 -0.49805,-0.71289 -0.31738,-0.24902 -0.72265,-0.24902 -0.67383,0 -0.98145,0.48828 -0.30762,0.48828 -0.30762,1.58203 0,1.08398 0.28809,1.55762 0.28809,0.47363 0.98633,0.47363 0.41504,0 0.7373,-0.24414 0.32227,-0.24414 0.49805,-0.69824 0.17578,-0.45899 0.17578,-1.08887 z m 2.89551,0.18555 q 0,0.9082 0.37598,1.40136 0.37597,0.49317 1.09863,0.49317 0.57129,0 0.91308,-0.2295 0.34668,-0.22949 0.46875,-0.58105 l 0.77149,0.21973 q -0.47363,1.25 -2.15332,1.25 -1.17188,0 -1.78711,-0.69825 -0.61035,-0.69824 -0.61035,-2.07519 0,-1.3086 0.61035,-2.00684 0.61523,-0.69824 1.75293,-0.69824 2.3291,0 2.3291,2.80762 v 0.11719 z m 2.86133,-0.67383 q -0.0732,-0.83496 -0.42481,-1.21582 -0.35156,-0.38575 -1.01074,-0.38575 -0.63965,0 -1.01562,0.42969 -0.3711,0.42481 -0.40039,1.17188 z m 5.99121,1.66992 q 0,0.74707 -0.56641,1.15234 -0.56152,0.40528 -1.57715,0.40528 -0.98632,0 -1.52343,-0.32227 -0.53223,-0.32715 -0.69336,-1.01562 l 0.77636,-0.15137 q 0.11231,0.4248 0.46387,0.625 0.35156,0.19531 0.97656,0.19531 0.66895,0 0.97657,-0.20508 0.3125,-0.20508 0.3125,-0.61523 0,-0.3125 -0.21485,-0.50781 -0.21484,-0.19532 -0.69336,-0.32227 l -0.62988,-0.16602 q -0.75684,-0.19531 -1.0791,-0.38085 -0.31738,-0.19043 -0.49805,-0.45899 -0.18066,-0.26855 -0.18066,-0.65918 0,-0.72266 0.51269,-1.09863 0.51758,-0.38086 1.50391,-0.38086 0.87402,0 1.38672,0.30762 0.51758,0.30761 0.6543,0.98632 l -0.79102,0.0977 q -0.0732,-0.35156 -0.39551,-0.53711 -0.31738,-0.19043 -0.85449,-0.19043 -0.5957,0 -0.87891,0.18067 -0.2832,0.18066 -0.2832,0.54687 0,0.22461 0.11719,0.37109 0.11719,0.14649 0.34668,0.24903 0.22949,0.10254 0.96679,0.2832 0.69825,0.17578 1.00586,0.32715 0.30762,0.14648 0.4834,0.32715 0.18067,0.18066 0.27832,0.41992 0.0977,0.23437 0.0977,0.53711 z m 1.7041,-1.20606 q 0,1.05469 0.33203,1.5625 0.33203,0.50782 1.00098,0.50782 0.46875,0 0.78125,-0.25391 0.31738,-0.25391 0.39062,-0.78125 l 0.88867,0.0586 q -0.10253,0.76172 -0.64941,1.21582 -0.54687,0.45411 -1.38672,0.45411 -1.1084,0 -1.69433,-0.69825 -0.58106,-0.70312 -0.58106,-2.04589 0,-1.33301 0.58594,-2.03125 0.58594,-0.70313 1.67969,-0.70313 0.81054,0 1.34277,0.41992 0.53711,0.41992 0.67383,1.15723 l -0.90332,0.0684 q -0.0684,-0.43945 -0.34668,-0.69824 -0.27832,-0.25879 -0.79102,-0.25879 -0.69824,0 -1.01074,0.46386 -0.3125,0.46387 -0.3125,1.5625 z m 5.20508,-1.71386 q 0.2832,-0.51758 0.67871,-0.75684 0.40039,-0.24414 1.01074,-0.24414 0.85938,0 1.26465,0.42969 0.41016,0.4248 0.41016,1.43066 V 168 h -0.88379 v -3.34961 q 0,-0.55664 -0.10254,-0.82519 -0.10254,-0.27344 -0.33692,-0.4004 -0.23437,-0.12695 -0.64941,-0.12695 -0.62012,0 -0.99609,0.42969 -0.3711,0.42969 -0.3711,1.15723 V 168 h -0.8789 v -7.24609 h 0.8789 v 1.88476 q 0,0.29785 -0.0195,0.61524 -0.0146,0.31738 -0.0195,0.36621 z m 5.57617,-0.90332 v 3.34961 q 0,0.52246 0.10254,0.81054 0.10254,0.28809 0.32715,0.41504 0.22461,0.12696 0.65918,0.12696 0.63476,0 1.00097,-0.43458 0.36621,-0.43457 0.36621,-1.20605 v -3.06152 h 0.87891 v 4.15527 q 0,0.92285 0.0293,1.12793 h -0.83008 q -0.005,-0.0244 -0.01,-0.13184 -0.005,-0.10742 -0.0146,-0.24414 -0.005,-0.1416 -0.0147,-0.52734 h -0.0146 q -0.30274,0.54687 -0.70313,0.77637 -0.3955,0.22461 -0.98632,0.22461 -0.86914,0 -1.27442,-0.42969 -0.40039,-0.43457 -0.40039,-1.43067 v -3.5205 z m 1.73828,-0.66895 v -0.89844 h 0.7959 v 0.89844 z m -1.92383,0 v -0.89844 h 0.80567 v 0.89844 z m 6.88965,5.91309 q -0.43457,0.11718 -0.88867,0.11718 -1.05469,0 -1.05469,-1.19628 v -3.52539 h -0.61035 v -0.63965 h 0.64453 l 0.25879,-1.18164 h 0.58594 v 1.18164 h 0.97656 v 0.63965 h -0.97656 v 3.33496 q 0,0.38086 0.12207,0.53711 0.12695,0.15136 0.43457,0.15136 0.17578,0 0.50781,-0.0684 z M 243.11719,168 v -0.66895 l 2.9541,-3.93554 h -2.78809 v -0.67871 h 3.82813 v 0.66894 l -2.95899,3.93555 h 3.06153 V 168 Z m 7.2998,-0.0391 q -0.43457,0.11718 -0.88867,0.11718 -1.05469,0 -1.05469,-1.19628 v -3.52539 h -0.61035 v -0.63965 h 0.64453 l 0.25879,-1.18164 h 0.58594 v 1.18164 h 0.97656 v 0.63965 h -0.97656 v 3.33496 q 0,0.38086 0.12207,0.53711 0.12695,0.15136 0.43457,0.15136 0.17578,0 0.50781,-0.0684 z m 1.4209,-2.41699 q 0,0.9082 0.37598,1.40136 0.37597,0.49317 1.09863,0.49317 0.57129,0 0.91309,-0.2295 0.34668,-0.22949 0.46875,-0.58105 l 0.77148,0.21973 q -0.47363,1.25 -2.15332,1.25 -1.17188,0 -1.78711,-0.69825 -0.61035,-0.69824 -0.61035,-2.07519 0,-1.3086 0.61035,-2.00684 0.61523,-0.69824 1.75293,-0.69824 2.3291,0 2.3291,2.80762 v 0.11719 z m 2.86133,-0.67383 q -0.0732,-0.83496 -0.42481,-1.21582 -0.35156,-0.38575 -1.01074,-0.38575 -0.63965,0 -1.01562,0.42969 -0.3711,0.42481 -0.40039,1.17188 z m 5.99121,1.66992 q 0,0.74707 -0.56641,1.15234 -0.56152,0.40528 -1.57715,0.40528 -0.98632,0 -1.52343,-0.32227 -0.53223,-0.32715 -0.69336,-1.01562 l 0.77637,-0.15137 q 0.1123,0.4248 0.46386,0.625 0.35156,0.19531 0.97656,0.19531 0.66895,0 0.97657,-0.20508 0.3125,-0.20508 0.3125,-0.61523 0,-0.3125 -0.21485,-0.50781 -0.21484,-0.19532 -0.69336,-0.32227 l -0.62988,-0.16602 q -0.75683,-0.19531 -1.0791,-0.38085 -0.31738,-0.19043 -0.49805,-0.45899 -0.18066,-0.26855 -0.18066,-0.65918 0,-0.72266 0.51269,-1.09863 0.51758,-0.38086 1.50391,-0.38086 0.87402,0 1.38672,0.30762 0.51758,0.30761 0.6543,0.98632 l -0.79102,0.0977 q -0.0732,-0.35156 -0.39551,-0.53711 -0.31738,-0.19043 -0.85449,-0.19043 -0.5957,0 -0.87891,0.18067 -0.2832,0.18066 -0.2832,0.54687 0,0.22461 0.11719,0.37109 0.11719,0.14649 0.34668,0.24903 0.22949,0.10254 0.9668,0.2832 0.69824,0.17578 1.00585,0.32715 0.30762,0.14648 0.4834,0.32715 0.18067,0.18066 0.27832,0.41992 0.0977,0.23437 0.0977,0.53711 z M 264.65039,168 v -6.87988 h 0.93262 v 6.11816 h 3.47656 V 168 Z m 6.08887,-2.45605 q 0,0.9082 0.37597,1.40136 0.37598,0.49317 1.09864,0.49317 0.57129,0 0.91308,-0.2295 0.34668,-0.22949 0.46875,-0.58105 l 0.77149,0.21973 q -0.47364,1.25 -2.15332,1.25 -1.17188,0 -1.78711,-0.69825 -0.61035,-0.69824 -0.61035,-2.07519 0,-1.3086 0.61035,-2.00684 0.61523,-0.69824 1.75293,-0.69824 2.3291,0 2.3291,2.80762 v 0.11719 z m 2.86133,-0.67383 q -0.0733,-0.83496 -0.42481,-1.21582 -0.35156,-0.38575 -1.01074,-0.38575 -0.63965,0 -1.01563,0.42969 -0.37109,0.42481 -0.40039,1.17188 z m 2.70019,0.67383 q 0,0.9082 0.37598,1.40136 0.37597,0.49317 1.09863,0.49317 0.57129,0 0.91309,-0.2295 0.34668,-0.22949 0.46875,-0.58105 l 0.77148,0.21973 q -0.47363,1.25 -2.15332,1.25 -1.17187,0 -1.78711,-0.69825 -0.61035,-0.69824 -0.61035,-2.07519 0,-1.3086 0.61035,-2.00684 0.61524,-0.69824 1.75293,-0.69824 2.3291,0 2.3291,2.80762 v 0.11719 z m 2.86133,-0.67383 q -0.0732,-0.83496 -0.42481,-1.21582 -0.35156,-0.38575 -1.01074,-0.38575 -0.63965,0 -1.01562,0.42969 -0.3711,0.42481 -0.40039,1.17188 z M 281.20801,168 v -4.05273 q 0,-0.55665 -0.0293,-1.23047 h 0.83008 q 0.0391,0.89843 0.0391,1.0791 h 0.0195 q 0.20996,-0.67871 0.4834,-0.92774 0.27344,-0.24902 0.77149,-0.24902 0.17578,0 0.35644,0.0488 v 0.80566 q -0.17578,-0.0488 -0.46875,-0.0488 -0.54687,0 -0.83496,0.47364 -0.28809,0.46875 -0.28809,1.34765 V 168 Z m 3.04199,0 v -0.66895 l 2.9541,-3.93554 h -2.78808 v -0.67871 h 3.82812 v 0.66894 l -2.95898,3.93555 h 3.06152 V 168 Z m 5.94238,-2.45605 q 0,0.9082 0.37598,1.40136 0.37598,0.49317 1.09863,0.49317 0.57129,0 0.91309,-0.2295 0.34668,-0.22949 0.46875,-0.58105 l 0.77148,0.21973 q -0.47363,1.25 -2.15332,1.25 -1.17187,0 -1.78711,-0.69825 -0.61035,-0.69824 -0.61035,-2.07519 0,-1.3086 0.61035,-2.00684 0.61524,-0.69824 1.75293,-0.69824 2.3291,0 2.3291,2.80762 v 0.11719 z m 2.86133,-0.67383 q -0.0732,-0.83496 -0.4248,-1.21582 -0.35157,-0.38575 -1.01075,-0.38575 -0.63964,0 -1.01562,0.42969 -0.37109,0.42481 -0.40039,1.17188 z m 2.02149,-3.27637 v -0.83984 h 0.8789 v 0.83984 z m 0,6.40625 v -5.2832 h 0.8789 V 168 Z m 2.8955,-2.66602 q 0,1.05469 0.33203,1.5625 0.33204,0.50782 1.00098,0.50782 0.46875,0 0.78125,-0.25391 0.31738,-0.25391 0.39063,-0.78125 l 0.88867,0.0586 q -0.10254,0.76172 -0.64942,1.21582 -0.54687,0.45411 -1.38672,0.45411 -1.10839,0 -1.69433,-0.69825 -0.58106,-0.70312 -0.58106,-2.04589 0,-1.33301 0.58594,-2.03125 0.58594,-0.70313 1.67969,-0.70313 0.81055,0 1.34277,0.41992 0.53711,0.41992 0.67383,1.15723 l -0.90332,0.0684 q -0.0684,-0.43945 -0.34668,-0.69824 -0.27832,-0.25879 -0.79101,-0.25879 -0.69825,0 -1.01075,0.46386 -0.3125,0.46387 -0.3125,1.5625 z m 5.20508,-1.71386 q 0.2832,-0.51758 0.67871,-0.75684 0.40039,-0.24414 1.01074,-0.24414 0.85938,0 1.26465,0.42969 0.41016,0.4248 0.41016,1.43066 V 168 h -0.88379 v -3.34961 q 0,-0.55664 -0.10254,-0.82519 -0.10254,-0.27344 -0.33691,-0.4004 -0.23438,-0.12695 -0.64942,-0.12695 -0.62011,0 -0.99609,0.42969 -0.37109,0.42969 -0.37109,1.15723 V 168 h -0.87891 v -7.24609 h 0.87891 v 1.88476 q 0,0.29785 -0.0195,0.61524 -0.0146,0.31738 -0.0195,0.36621 z m 5.36133,1.92383 q 0,0.9082 0.37598,1.40136 0.37597,0.49317 1.09863,0.49317 0.57129,0 0.91308,-0.2295 0.34668,-0.22949 0.46875,-0.58105 l 0.77149,0.21973 q -0.47363,1.25 -2.15332,1.25 -1.17188,0 -1.78711,-0.69825 -0.61035,-0.69824 -0.61035,-2.07519 0,-1.3086 0.61035,-2.00684 0.61523,-0.69824 1.75293,-0.69824 2.3291,0 2.3291,2.80762 v 0.11719 z m 2.86133,-0.67383 q -0.0732,-0.83496 -0.42481,-1.21582 -0.35156,-0.38575 -1.01074,-0.38575 -0.63965,0 -1.01562,0.42969 -0.3711,0.42481 -0.4004,1.17188 z M 316.7793,168 v -3.34961 q 0,-0.52246 -0.10254,-0.81055 -0.10254,-0.28808 -0.32715,-0.41504 -0.22461,-0.12695 -0.65918,-0.12695 -0.63477,0 -1.00098,0.43457 -0.36621,0.43457 -0.36621,1.20606 V 168 h -0.8789 v -4.15527 q 0,-0.92286 -0.0293,-1.12793 h 0.83008 q 0.005,0.0244 0.01,0.13183 0.005,0.10742 0.01,0.24903 0.01,0.13671 0.0195,0.52246 h 0.0147 q 0.30273,-0.54688 0.69824,-0.77149 0.40039,-0.22949 0.99121,-0.22949 0.86914,0 1.26953,0.43457 0.40528,0.42969 0.40528,1.42578 V 168 Z"
   id="text62"
   style="font-size:10px;line-height:0%;font-family:Arial;text-align:center;text-anchor:middle;fill:#111111"
   class="mod space"
   aria-label="geschütztes Leerzeichen" />&#10;&#10;<path
   d="m 498.29883,61.214844 -2.97656,-2.976563 2.97656,-2.976562 v 1.599609 h 3.32226 v -3.609375 h 2.75391 l -0.006,6.363281 h -6.07031 z m -0.58594,-3.767578 v -0.767579 l -1.55859,1.558594 1.55859,1.558594 v -0.767578 h 6.07031 l 0.006,-5.191406 h -1.58203 l -0.006,3.609375 z"
   id="returntxt"
   style="font-size:12px;line-height:0%;font-family:Arial;fill:#111111"
   class="mod big"
   aria-label="⏎" />&#10;<path
   d="m 493.37891,23 h -9.5752 l -3.79883,-3.798828 3.79883,-3.798828 h 9.5752 z m -0.72266,-6.875 h -0.68848 l -3.07617,3.076172 3.07617,3.076172 h 0.68848 z m -6.8457,0 2.56347,2.563477 2.56348,-2.563477 z m 5.12695,6.152344 -2.56348,-2.563477 -2.56347,2.563477 z M 484.79492,16.125 h -0.69336 l -3.07617,3.085937 3.07617,3.066407 h 0.69336 l 3.07617,-3.076172 z"
   id="backspacetxt"
   style="font-size:10px;line-height:0%;font-family:Arial;fill:#111111"
   class="mod"
   aria-label="⌫" />&#10;</g>&#10;&#10;<g
   transform="translate(55,26)"
   id="g73">&#10;	<path
   d="M -2.3510742,1.5380859 V 0.76464844 h 1.99511717 V -4.7197266 l -1.76660157,1.1425782 v -0.8613282 l 1.85449219,-1.1601562 H 0.65478516 V 0.76464844 H 2.5708008 V 1.5380859 Z"
   id="text63"
   style="font-size:18px;line-height:0%;font-family:Arial;text-align:center;text-anchor:middle;fill:#111111;stroke-width:0.75"
   class="key"
   aria-label="₁" />&#10;	<path
   d="M 33.402832,1.5380859 V 0.89648438 q 0.474609,-0.984375 1.555664,-1.87207032 0.448242,-0.36914066 0.887695,-0.67675776 0.448243,-0.3164063 0.799805,-0.6240235 0.799805,-0.703125 0.799805,-1.3623047 0,-1.3095703 -1.432617,-1.3095703 -0.641602,0 -1.054688,0.3164063 -0.413086,0.3164062 -0.483398,0.8876953 l -1.028321,-0.087891 q 0.114258,-0.852539 0.799805,-1.3623046 0.685547,-0.5097657 1.819336,-0.5009766 1.133789,0 1.766602,0.5097656 0.641601,0.5009766 0.641601,1.4414063 0,0.8173828 -0.826172,1.6435547 -0.413086,0.4130859 -1.318359,1.0810547 -0.896485,0.65917964 -1.283203,1.03710933 -0.37793,0.38671875 -0.544922,0.74707031 h 4.095703 V 1.5380859 Z"
   id="text64"
   style="font-size:18px;line-height:0%;font-family:Arial;text-align:center;text-anchor:middle;fill:#111111;stroke-width:0.75"
   class="key"
   aria-label="₂" />&#10;	<path
   d="m 74.416992,-3.8144531 q 0,1.3798828 -1.634765,1.6875 v 0.026367 q 0.878906,0.087891 1.362304,0.5361328 0.492188,0.4482422 0.492188,1.13378904 0,0.984375 -0.694336,1.52050776 -0.685547,0.5449219 -1.924805,0.5449219 -2.522461,0 -2.786133,-1.93359373 l 1.03711,-0.0878906 q 0.202148,1.265625 1.705078,1.265625 0.755859,0 1.186523,-0.34277344 0.439453,-0.33398437 0.439453,-0.95800781 0,-1.2744141 -1.916015,-1.2744141 h -0.571289 v -0.7910156 h 0.544922 q 0.826171,0 1.274414,-0.3251953 0.457031,-0.3251953 0.457031,-0.8964844 0,-0.5800781 -0.369141,-0.9052734 -0.36914,-0.3339844 -1.063476,-0.3339844 -0.694336,0 -1.107422,0.3076172 -0.404297,0.3076172 -0.47461,0.8701172 l -1.010742,-0.070312 q 0.114258,-0.8789063 0.799805,-1.3710938 0.685547,-0.4921875 1.819336,-0.4833984 1.133789,0 1.78418,0.5009766 0.65039,0.4921875 0.65039,1.3798828 z"
   id="text65"
   style="font-size:18px;line-height:0%;font-family:Arial;text-align:center;text-anchor:middle;fill:#111111;stroke-width:0.75"
   class="key"
   aria-label="₃" />&#10;	<path
   d="m 107.68359,-5.0800781 q -0.66796,-0.09668 -1.14257,-0.4306641 -0.46582,-0.3339844 -0.76465,-0.8701172 -0.29883,-0.5361328 -0.29883,-1.1953125 0,-1.1074219 0.76465,-1.828125 0.76465,-0.7294921 1.7666,-0.7294921 1.03711,0 1.7666,0.7558593 0.75586,0.7294922 0.75586,1.8017578 0,0.9580078 -0.63281,1.6699219 -0.63281,0.7119141 -1.56446,0.8261719 v 1.4589843 h 2.25 v 0.6152344 h -2.25 v 2.3027344 h -0.65039 v -2.3027344 h -2.26757 v -0.6152344 h 2.26757 z m 0.30762,-4.3154297 q -0.49219,0 -0.89648,0.2373047 -0.4043,0.2285156 -0.65918,0.6503906 -0.2461,0.4130859 -0.2461,0.9140625 0,0.7558594 0.53614,1.2919922 0.54492,0.5273437 1.26562,0.5273437 0.76465,0 1.2832,-0.5449218 0.53614,-0.5361328 0.53614,-1.2744141 0,-0.5097656 -0.25489,-0.9228516 -0.24609,-0.421875 -0.65918,-0.6503906 -0.40429,-0.2285156 -0.90527,-0.2285156 z"
   id="text66"
   style="font-size:18px;line-height:0%;font-family:Arial;text-align:center;text-anchor:middle;fill:#111111;stroke-width:0.75"
   class="key"
   aria-label="♀" />&#10;	<path
   d="m 146.24121,-9 q -1.29199,-0.3779297 -1.66992,-0.7558594 -0.0703,-0.043945 -0.0703,-0.1582031 0,-0.070312 0.0527,-0.1494145 0.0527,-0.03516 0.12305,-0.03516 l 0.29004,0.03516 q 0.59765,0.1494145 1.11621,0.1494145 0.77344,0 1.13379,-0.1142575 0.3164,-0.105469 0.43066,-0.105469 0.14063,0 0.14063,0.123047 l -0.0527,0.2373045 q -0.14062,0.5273437 -0.14062,1.3886719 0,0.6855469 0.10547,1.133789 l 0.0352,0.28125 q 0,0.079102 -0.0352,0.131836 l -0.12305,0.052734 q -0.16699,0 -0.33399,-0.28125 -0.1582,-0.2900391 -0.3164,-0.6855469 -0.15821,-0.3955078 -0.27246,-0.834961 l -2.08301,2.0917969 q 0.73828,0.7119141 0.73828,1.6699219 0,1.0986328 -0.77344,1.8632812 -0.76465,0.7646485 -1.78418,0.7646485 -1.01953,0 -1.78418,-0.7119141 -0.75586,-0.7207031 -0.75586,-1.7929687 0,-1.0546875 0.73829,-1.8017578 0.74707,-0.7470704 1.81933,-0.7470704 0.62402,0 1.35352,0.3779297 z m -3.47168,2.4082031 q -0.78223,0 -1.32715,0.5361328 -0.54492,0.5361329 -0.54492,1.3183594 0,0.8349609 0.55371,1.3535156 0.55371,0.5185547 1.31836,0.5185547 0.78223,0 1.31836,-0.5449219 0.53613,-0.5537109 0.53613,-1.3271484 0,-0.7646484 -0.54492,-1.3095703 -0.54492,-0.5449219 -1.30957,-0.5449219 z"
   id="text67"
   style="font-size:18px;line-height:0%;font-family:Arial;text-align:center;text-anchor:middle;fill:#111111;stroke-width:0.75"
   class="key"
   aria-label="♂" />&#10;&#10;	<path
   d="m 181.93799,-8.1474609 q 0,-1.4414063 -1.02832,-2.4433591 -1.02832,-1.001953 -2.46094,-1.001953 -1.42383,0 -2.44336,1.001953 -1.01074,1.0019528 -1.01074,2.4433591 0,1.4326172 1.01074,2.3818359 1.01953,0.9492188 2.44336,0.9492188 1.43262,0 2.46094,-0.9492188 1.02832,-0.9492187 1.02832,-2.3818359 z m -7.04004,3.4716797 q -1.48535,-1.3798829 -1.48535,-3.4716797 0,-2.1005861 1.47656,-3.5595701 1.47656,-1.458985 3.57715,-1.458985 1.6875,0 2.99707,0.966797 l 3.16406,-3.049804 h -3.26074 l 1.23047,-1.248047 h 4.34179 v 4.324218 l -1.25683,1.256836 v -3.27832 l -3.14649,3.058594 q 0.98438,1.2832029 0.98438,2.9882811 0,2.1005859 -1.48535,3.4716797 -1.19531,1.1074218 -2.77735,1.2656249 v 2.3203126 h 2.39063 V 0 h -2.39063 v 2.2587891 h -1.58203 V 0 h -2.39062 v -1.0898437 h 2.39062 v -2.3291016 q -1.59082,-0.1494141 -2.77734,-1.2568359 z"
   id="text68"
   style="font-size:18px;line-height:0%;font-family:Arial;text-align:center;text-anchor:middle;fill:#111111;stroke-width:0.75"
   class="key"
   aria-label="⚥" />&#10;	<path
   d="M 218.35986,-7.0224609 213.51709,0 h -2.3291 q 2.0918,-2.953125 2.0918,-6.1259766 0,-2.0302734 -1.0459,-2.0302734 -0.25489,0 -0.74707,0.1230469 l -0.29883,-1.3447266 q 0.58008,-0.1669922 1.23926,-0.1669922 1.08984,0 1.62597,0.6679688 0.53614,0.6679687 0.53614,2.258789 0,1.0283204 -0.23731,2.2324219 -0.2373,1.2041016 -0.55371,1.8457031 l 0.0439,0.017578 4.78125,-6.9873047 h 2.36425 q -0.97558,1.3183593 -1.51172,2.953125 -0.52734,1.6347656 -0.52734,3.3134765 0,2.0302735 1.0459,2.0302735 0.25488,0 0.74707,-0.1230469 l 0.29883,1.34472656 q -0.58008,0.16699219 -1.23926,0.16699219 -1.08984,0 -1.62598,-0.66796875 -0.53613,-0.6679687 -0.53613,-2.2587891 0,-1.2304687 0.22852,-2.4521484 0.2373,-1.2216797 0.53613,-1.8017578 z"
   id="text69"
   style="font-size:18px;line-height:0%;font-family:Arial;text-align:center;text-anchor:middle;fill:#111111;stroke-width:0.75"
   class="key"
   aria-label="ϰ" />&#10;	<path
   d="m 250.09717,-5.6425781 2.47851,-8.0156249 h 1.49414 l -2.47851,8.0156249 2.47851,8.015625 h -1.49414 z"
   id="text70"
   style="font-size:18px;line-height:0%;font-family:Arial;text-align:center;text-anchor:middle;fill:#111111;stroke-width:0.75"
   class="key"
   aria-label="⟨" />&#10;	<path
   d="m 289.90283,-5.6425781 -2.47851,8.015625 h -1.49414 l 2.47851,-8.015625 -2.47851,-8.0156249 h 1.49414 z"
   id="text71"
   style="font-size:18px;line-height:0%;font-family:Arial;text-align:center;text-anchor:middle;fill:#111111;stroke-width:0.75"
   class="key"
   aria-label="⟩" />&#10;	<path
   d="m 324.04395,-5.7041016 q 2.70703,0 2.70703,3.6738282 0,1.78417965 -0.69434,2.72460934 -0.68555,0.94042966 -2.03906,0.94042966 -2.71582,0 -2.71582,-3.665039 0,-1.8369141 0.65918,-2.7509766 0.65918,-0.9228516 2.08301,-0.9228516 z m -0.0264,6.60058598 q 0.89648,0 1.30078,-0.72070313 0.41309,-0.72070312 0.41309,-2.23242185 0,-1.5205078 -0.39551,-2.2148438 -0.38672,-0.6943359 -1.30078,-0.6943359 -0.91407,0 -1.31836,0.6855469 -0.4043,0.6855468 -0.4043,2.2236328 0,1.53808591 0.4043,2.24121091 0.41308,0.71191407 1.30078,0.71191407 z"
   id="text72"
   style="font-size:18px;line-height:0%;font-family:Arial;text-align:center;text-anchor:middle;fill:#111111;stroke-width:0.75"
   class="key"
   aria-label="₀" />&#10;	<path
   d="m 357.63135,-5.6513672 h 4.7373 v 1.4414063 h -4.7373 z"
   id="text73"
   style="font-size:18px;line-height:0%;font-family:Arial;text-align:center;text-anchor:middle;fill:#111111;stroke-width:0.75"
   class="key"
   aria-label="‑" />&#10;</g>&#10;&#10;&#10;<path
   d="m 10.685547,55.740234 h 6.105469 l -1.371094,-1.371093 0.703125,-0.703125 2.308594,2.308593 v -2.25 h 0.996093 v 5.039063 h -0.996093 v -2.261719 l -2.308594,2.308594 -0.703125,-0.703125 1.371094,-1.371094 h -6.105469 z"
   id="text74"
   style="font-size:12px;line-height:0%;font-family:Arial;fill:#111111"
   class="mod big"
   aria-label="⇥" />&#10;&#10;<g
   transform="translate(73,62)"
   id="g86">&#10;	<path
   d="m -1.5336914,-3.3310547 q 0,0.5888672 0.2109375,0.9580078 0.2109375,0.3603516 0.61523437,0.5976563 0.41308594,0.2285156 1.58203125,0.5361328 0.47460938,0.1318359 0.95800778,0.28124999 0.4921875,0.14941406 0.8876953,0.40429687 0.3955079,0.24609375 0.6503907,0.6328125 0.2548828,0.38671875 0.2548828,0.98437504 0,0.3867187 -0.1582031,0.8613281 Q 3.309082,2.4082031 2.8959961,3.1025391 L 1.7885742,2.6103516 Q 1.9907227,2.3378906 2.1313477,1.9775391 2.2719727,1.6171875 2.2719727,1.3710937 2.2719727,1.0546875 2.0874023,0.84375 1.902832,0.6328125 1.5336914,0.47460938 1.1733398,0.31640625 0.04833984,0.05273437 -0.96240234,-0.18457031 -1.3666992,-0.3515625 -1.762207,-0.51855469 -2.1137695,-0.74707031 -2.456543,-0.984375 -2.7026367,-1.3095703 -2.9399414,-1.6435547 -3.0805664,-2.0830078 -3.2124023,-2.53125 -3.2124023,-3.1113281 q 0,-3.4277344 5.0361328,-8.7802739 v -0.03516 l -1.11621097,0.03516 H -2.324707 v -1.151367 h 5.6425781 v 1.116211 q -2.54882813,2.8740236 -3.70019532,4.9746096 -1.15136718,2.0917968 -1.15136718,3.6210937 z"
   id="text75"
   style="font-size:18px;line-height:0%;font-family:Arial;text-align:center;text-anchor:middle;fill:#111111;stroke-width:0.75"
   class="key"
   aria-label="ζ" />&#10;	<path
   d="m 40.060547,-5.0185547 q 0,2.5751953 -1.02832,3.8847656 -1.028321,1.30957035 -3.058594,1.30957035 -1.959961,0 -2.847656,-0.93164062 Q 32.24707,-1.6875 32.24707,-3.6826172 v -5.8271484 h 1.590821 v 5.8798828 q 0,1.2832031 0.509765,1.9335937 0.518555,0.6503907 1.696289,0.6503907 1.291992,0 1.836914,-0.9052735 0.553711,-0.9140625 0.553711,-3.0322265 0,-1.125 -0.307617,-2.4521485 -0.307617,-1.3271484 -0.694336,-2.0742187 h 1.652344 q 0.46582,1.0371093 0.720703,2.25 0.254883,1.2128906 0.254883,2.2412109 z"
   id="text76"
   style="font-size:18px;line-height:0%;font-family:Arial;text-align:center;text-anchor:middle;fill:#111111;stroke-width:0.75"
   class="key"
   aria-label="υ" />&#10;	<text
   x="72"
   class="key"
   id="text77" />&#10;	<path
   d="m 110.20605,-2.0830078 q -0.55371,1.19531249 -1.32714,1.7314453 -0.76465,0.52734375 -1.82813,0.52734375 -1.80176,0 -2.6543,-1.21289065 -0.84375,-1.2128906 -0.84375,-3.6738281 0,-2.4960937 0.94922,-3.7353516 0.95801,-1.2392578 2.79493,-1.2392578 1.10742,0 1.88964,0.5888672 0.79102,0.5888672 1.18653,1.6523438 h 0.0176 q 0.20214,-1.0458985 0.6416,-2.0654297 h 1.65234 q -0.43945,0.9316406 -0.80859,2.2851562 -0.36914,1.3447266 -0.43946,2.2060547 0.0439,1.40625 0.29883,2.7597656 Q 111.99902,-0.90527344 112.41211,0 h -1.6084 q -0.21094,-0.53613281 -0.36914,-1.1601562 -0.14941,-0.6328125 -0.19336,-0.9228516 z m -4.99218,-2.6806641 q 0,1.9511719 0.50097,2.8388672 0.50098,0.8789063 1.66114,0.8789063 1.05468,0 1.77539,-1.0107422 0.72949,-1.0195313 0.95801,-2.7421875 -0.25489,-1.8544922 -0.92286,-2.7861328 -0.66797,-0.9316407 -1.71386,-0.9316407 -1.19532,0 -1.73145,0.8876954 -0.52734,0.8789062 -0.52734,2.8652343 z"
   id="text78"
   style="font-size:18px;line-height:0%;font-family:Arial;text-align:center;text-anchor:middle;fill:#111111;stroke-width:0.75"
   class="key"
   aria-label="α" />&#10;	<path
   d="M 143.23096,3.7353516 V 0.02636719 q -1.7666,-0.21972656 -2.67188,-1.42382809 -0.89648,-1.2128907 -0.89648,-3.366211 0,-4.3066406 3.56836,-4.7636719 v -3.5156252 h 1.4414 v 3.5068362 q 1.86328,0.1757812 2.75977,1.3359375 0.90527,1.1601562 0.90527,3.4365234 0,4.38574221 -3.66504,4.79003909 V 3.7353516 Z m 3.49804,-8.4990235 q 0,-1.6611328 -0.49218,-2.53125 -0.49219,-0.8701172 -1.56446,-1.0546875 v 7.1894532 q 1.07227,-0.2109375 1.56446,-1.0986329 0.49218,-0.8964843 0.49218,-2.5048828 z m -5.458,0 q 0,1.538086 0.46582,2.4257813 0.47461,0.8876953 1.49414,1.1601562 v -7.1279297 q -1.02832,0.2548828 -1.49414,1.1425782 -0.46582,0.8789062 -0.46582,2.399414 z"
   id="text79"
   style="font-size:18px;line-height:0%;font-family:Arial;text-align:center;text-anchor:middle;fill:#111111;stroke-width:0.75"
   class="key"
   aria-label="ϕ" />&#10;&#10;	<path
   d="m 183.68701,0.17578125 q -1.01074,0 -1.45898,-0.4921875 -0.44824,-0.50097656 -0.44824,-1.67871095 v -6.3632812 h -3.53321 v 0.6328125 q 0,2.0126953 -0.22851,4.078125 Q 177.78955,-1.5908203 177.38525,0 h -1.65234 q 0.45703,-1.8105469 0.71191,-3.8408203 0.25489,-2.0390625 0.25489,-3.8144531 v -0.703125 q -0.58008,0 -1.28321,0.09668 -0.70312,0.09668 -0.93164,0.2285157 v -1.2216797 q 0.21094,-0.1054688 0.67676,-0.1757813 0.47461,-0.079102 0.93164,-0.079102 h 9.3252 v 1.1513672 h -2.05664 v 6.0205078 q 0,0.6679687 0.18457,0.9755859 0.18457,0.2988281 0.6416,0.2988281 l 0.75586,-0.070312 V 0 q -0.67676,0.17578125 -1.25684,0.17578125 z"
   id="text80"
   style="font-size:18px;line-height:0%;font-family:Arial;text-align:center;text-anchor:middle;fill:#111111;stroke-width:0.75"
   class="key"
   aria-label="π" />&#10;	<path
   d="m 220.46484,-3.5595703 q 0,1.7402344 -1.04589,2.74218749 -1.03711,0.99316406 -2.97071,0.99316406 -1.6084,0 -2.79492,-0.82617187 h -0.0527 q 0.0527,1.00195312 0.0527,1.77539062 v 2.6103516 h -1.58203 V -9.0263672 q 0,-2.0830078 1.00195,-3.0498048 1.00196,-0.966797 2.98828,-0.966797 1.73145,0 2.64551,0.808594 0.92285,0.799805 0.92285,2.2587891 0,2.2236328 -1.95996,2.9882812 1.30078,0.2548828 2.04785,1.1513672 0.74707,0.8964844 0.74707,2.2763672 z m -6.81152,1.7578125 q 0.5625,0.3779297 1.2832,0.5976562 0.7295,0.21093754 1.44141,0.21093754 1.23926,0 1.90723,-0.67675784 0.66796,-0.6767578 0.66796,-1.8632812 0,-1.2744141 -0.76464,-1.959961 Q 217.43262,-6.1787109 216,-6.1787109 v -1.2480469 q 1.11621,-0.2373047 1.6084,-0.84375 0.50097,-0.6152344 0.50097,-1.6875 0,-0.8613282 -0.53613,-1.3535152 -0.52734,-0.492188 -1.49414,-0.492188 -1.29199,0 -1.86328,0.685547 -0.5625,0.676758 -0.5625,2.1445312 z"
   id="text81"
   style="font-size:18px;line-height:0%;font-family:Arial;text-align:center;text-anchor:middle;fill:#111111;stroke-width:0.75"
   class="key"
   aria-label="β" />&#10;	<path
   d="m 254.39062,0 q -0.0176,-0.10546875 -0.0527,-0.71191406 -0.0264,-0.61523434 -0.0352,-0.95800784 h -0.0351 q -0.52735,1.0371094 -1.11621,1.44140627 -0.58008,0.40429688 -1.46778,0.40429688 -0.7207,0 -1.24804,-0.28125 -0.52735,-0.28125 -0.8086,-0.79101563 h -0.0351 q 0.0351,0.37792969 0.0351,1.07226563 V 3.4541016 h -1.59961 V -9.5097656 h 1.59961 v 5.6601562 q 0,1.4150391 0.55371,2.100586 0.55371,0.6855468 1.69629,0.6855468 1.08985,0 1.71387,-0.7998046 0.63281,-0.7998047 0.63281,-2.2236329 v -5.4228515 h 1.59082 v 7.461914 q 0,1.67871097 0.0527,2.0478516 z"
   id="text82"
   style="font-size:18px;line-height:0%;font-family:Arial;text-align:center;text-anchor:middle;fill:#111111;stroke-width:0.75"
   class="key"
   aria-label="μ" />&#10;	<path
   d="m 287.56934,-8.4814453 q -0.59766,-1.6523437 -0.79102,-2.0917967 -0.18457,-0.439453 -0.37793,-0.694336 -0.18457,-0.263672 -0.42187,-0.386719 -0.23731,-0.123047 -0.58008,-0.123047 -0.25489,0 -0.43067,0.08789 l -0.30761,-1.142578 q 0.58886,-0.210938 1.13379,-0.210938 0.94042,0 1.53808,0.641602 0.59766,0.641601 1.25684,2.373047 L 292.3418,0 h -1.66993 l -1.81933,-5.0712891 q -0.36035,-0.984375 -0.57129,-1.8808593 -0.13184,0.4042968 -0.3252,0.8789062 Q 287.77148,-5.6074219 285.2666,0 h -1.64355 z"
   id="text83"
   style="font-size:18px;line-height:0%;font-family:Arial;text-align:center;text-anchor:middle;fill:#111111;stroke-width:0.75"
   class="key"
   aria-label="λ" />&#10;	<path
   d="m 329.08008,-4.9658203 q 0,2.390625 -1.11621,3.7001953 -1.10742,1.30078125 -3.27832,1.42382812 V 3.7353516 h -1.49414 V 0.15820312 q -2.12696,-0.09667968 -3.20801,-1.35351562 -1.07227,-1.2568359 -1.07227,-3.5947266 0,-2.0302734 0.97559,-3.3398437 0.98437,-1.3095703 2.71582,-1.5908203 l 0.18457,1.1953125 q -1.08984,0.2373047 -1.65234,1.1953125 -0.5625,0.9580078 -0.5625,2.5751953 0,1.8720703 0.6416,2.7597656 0.65039,0.8789063 1.97754,0.9492188 v -5.0976563 q 0,-1.696289 0.67675,-2.6279297 0.67676,-0.9316406 2.06543,-0.9316406 1.46778,0 2.30274,1.2832031 0.84375,1.2832032 0.84375,3.4541016 z m -1.66113,-0.017578 q 0,-1.6962891 -0.38672,-2.6191407 -0.37793,-0.9316406 -1.08106,-0.9316406 -1.26562,0 -1.26562,2.3642578 v 5.1240235 q 1.42382,-0.061524 2.07422,-1.0195313 0.65918,-0.9580078 0.65918,-2.9179687 z"
   id="text84"
   style="font-size:18px;line-height:0%;font-family:Arial;text-align:center;text-anchor:middle;fill:#111111;stroke-width:0.75"
   class="key"
   aria-label="φ" />&#10;	<path
   d="m 364.07373,-6.4423828 q 0,3.3486328 -1.05469,4.9833984 -1.05468,1.63476565 -3.05859,1.63476565 -1.96875,0 -3.00586,-1.66992185 -1.02832,-1.678711 -1.02832,-4.9482422 0,-6.5917972 4.08691,-6.5917972 2.10059,0 3.07618,1.625977 0.98437,1.6171874 0.98437,4.9658202 z m -4.13086,5.44921874 q 1.25684,0 1.83692,-1.19531254 0.58007,-1.2041015 0.62402,-3.7265625 h -4.80762 q 0.0439,2.4257813 0.60645,3.6738282 0.57129,1.24804684 1.74023,1.24804684 z m 0.0967,-10.90722694 q -1.24805,0 -1.81934,1.177735 -0.57128,1.1689451 -0.62402,3.6562498 h 4.80762 q -0.0439,-2.4873047 -0.59766,-3.6562498 -0.54492,-1.177735 -1.7666,-1.177735 z"
   id="text85"
   style="font-size:18px;line-height:0%;font-family:Arial;text-align:center;text-anchor:middle;fill:#111111;stroke-width:0.75"
   class="key"
   aria-label="θ" />&#10;&#10;  <path
   d="m 396.77783,-8.4462891 q -0.7207,0 -1.30957,0.5361329 -0.58008,0.5361328 -0.97558,1.6171875 -0.39551,1.0810546 -0.39551,2.1445312 0,1.1337891 0.5625,1.7138672 0.57129,0.5712891 2.28515,1.125 l 0.9668,0.3076172 q 1.87207,0.61523435 1.87207,2.0654297 0,0.3867187 -0.1582,0.8613281 -0.1582,0.4833984 -0.57129,1.1777344 l -1.10742,-0.4921875 q 0.20215,-0.272461 0.34277,-0.6328125 0.14063,-0.3603516 0.14063,-0.6064454 0,-0.42187495 -0.43946,-0.71191401 -0.43945,-0.29003906 -1.87207,-0.67675782 -1.56445,-0.421875 -2.29394,-0.9140625 -0.7295,-0.50097657 -1.07227,-1.27441407 -0.33398,-0.7822266 -0.33398,-1.96875 0,-0.9755859 0.34277,-2.0654297 0.35156,-1.0986328 0.91406,-1.8544922 0.57129,-0.7646484 1.34473,-1.1777343 0.78223,-0.413086 1.75781,-0.413086 0.8877,0 1.54688,0.2373047 0.65918,0.2373047 1.23047,0.8349609 l -1.01954,1.0458985 q -0.83496,-0.8789063 -1.75781,-0.8789063 z"
   id="text86"
   style="font-size:18px;line-height:0%;font-family:Arial;text-align:center;text-anchor:middle;fill:#111111;stroke-width:0.75"
   class="key"
   aria-label="ς" />&#10;&#10;</g>&#10;&#10;&#10;<g
   transform="translate(84,98)"
   id="g96">&#10;	<path
   d="M 0.03955078,-2.1005859 -2.887207,3.7265625 h -1.6523438 l 3.86718752,-7.2509766 -1.49414062,-3.0146484 q -0.6416016,-1.2744141 -0.9404297,-1.5996094 -0.2900391,-0.3251953 -0.6240234,-0.3251953 -0.2373047,0 -0.4394532,0.087891 l -0.2988281,-1.1513672 q 0.4658203,-0.1757812 1.0371094,-0.1757812 0.7558594,0 1.2216797,0.4394531 0.4746094,0.4394531 1.1777344,1.8984375 L 0.21533203,-4.7724609 2.5356445,-9.5097656 H 4.1791992 L 0.94482422,-3.3837891 4.5131836,3.7265625 H 2.8432617 Z"
   id="text87"
   style="font-size:18px;line-height:0%;font-family:Arial;text-align:center;text-anchor:middle;fill:#111111;stroke-width:0.75"
   class="key"
   aria-label="χ" />&#10;	<path
   d="m 39.867187,-4.3154297 q 0,2.1181641 -1.151367,3.3046875 -1.142578,1.18652345 -3.155273,1.18652345 -2.109375,0 -3.234375,-1.23046875 -1.125,-1.2392578 -1.125,-3.5507812 0,-2.3291016 1.318359,-3.6123047 1.31836,-1.2919922 3.761719,-1.2919922 h 5.000977 v 1.1513672 h -1.450196 l -1.300781,-0.052734 v 0.035156 q 0.711914,1.0634766 1.019531,2.0390625 0.316406,0.975586 0.316406,2.0214844 z m -1.661132,0.026367 q 0,-2.2412109 -1.089844,-4.0693359 h -0.782227 q -1.617187,0 -2.540039,0.984375 -0.922851,0.984375 -0.922851,2.7509765 0,3.62988284 2.61914,3.62988284 1.327149,0 2.021485,-0.84375004 0.694336,-0.852539 0.694336,-2.4521484 z"
   id="text88"
   style="font-size:18px;line-height:0%;font-family:Arial;text-align:center;text-anchor:middle;fill:#111111;stroke-width:0.75"
   class="key"
   aria-label="σ" />&#10;	<path
   d="M 71.749512,0 Q 71.48584,-0.28125 71.345215,-0.87011719 71.20459,-1.4677734 71.20459,-2.0742188 v -7.4355468 h 1.582031 v 7.5146484 q 0,0.5712891 0.18457,1.10742189 Q 73.164551,-0.3515625 73.489746,0 Z"
   id="text89"
   style="font-size:18px;line-height:0%;font-family:Arial;text-align:center;text-anchor:middle;fill:#111111;stroke-width:0.75"
   class="key"
   aria-label="ι" />&#10;	<path
   d="m 107.99561,-1.0019531 q 0.76464,0 1.49414,-0.3867188 0.73828,-0.3955078 1.25683,-1.0283203 l 0.92285,0.8789063 q -0.70312,0.85253903 -1.66113,1.28320309 -0.95801,0.43066406 -2.11816,0.43066406 -1.59082,0 -2.44336,-0.72949219 -0.84375,-0.72949216 -0.84375,-2.03906246 0,-0.9667969 0.65039,-1.6171875 0.65918,-0.6503907 1.66992,-0.7470703 v -0.017578 q -0.93164,-0.1054687 -1.48535,-0.703125 -0.54492,-0.5976562 -0.54492,-1.4677734 0,-1.1425781 0.88769,-1.8369141 0.89649,-0.703125 2.34668,-0.703125 2.20606,0 3.30469,1.6259766 l -1.125,0.7734375 q -0.80859,-1.2216797 -2.1709,-1.2216797 -0.7998,0 -1.22168,0.3779297 -0.42187,0.3691406 -0.42187,1.0195312 0,0.7998047 0.68554,1.1777344 0.68555,0.3691406 2.46094,0.3691406 v 1.1865235 q -1.34473,0 -2.0127,0.1757812 -0.66796,0.1669922 -1.02832,0.5449219 -0.35156,0.3779297 -0.35156,1.0371094 0,0.7646484 0.46582,1.1953125 0.47461,0.421875 1.28321,0.421875 z"
   id="text90"
   style="font-size:18px;line-height:0%;font-family:Arial;text-align:center;text-anchor:middle;fill:#111111;stroke-width:0.75"
   class="key nubkey"
   aria-label="ε" />&#10;	<path
   d="m 148.24951,-4.7636719 q 0,2.4960938 -1.09863,3.7177735 -1.09863,1.22167965 -3.19043,1.22167965 -2.08301,0 -3.14649,-1.26562495 -1.06347,-1.2744141 -1.06347,-3.6738282 0,-4.921875 4.26269,-4.921875 2.17969,0 3.20801,1.2041016 1.02832,1.1953125 1.02832,3.7177734 z m -1.66113,0 q 0,-1.96875 -0.58887,-2.8564453 -0.58008,-0.8964844 -1.95996,-0.8964844 -1.38867,0 -2.01269,0.9140625 -0.61524,0.9052735 -0.61524,2.8388672 0,1.8808594 0.60645,2.8300782 0.61523,0.94042964 1.9248,0.94042964 1.42383,0 2.03027,-0.91406254 0.61524,-0.9140625 0.61524,-2.8564453 z"
   id="text91"
   style="font-size:18px;line-height:0%;font-family:Arial;text-align:center;text-anchor:middle;fill:#111111;stroke-width:0.75"
   class="key"
   aria-label="ο" />&#10;&#10;	<path
   d="m 182.58398,-4.1396484 q 0,-0.7646485 -0.2373,-1.4326172 -0.22852,-0.6767578 -0.59766,-1.2480469 -0.36035,-0.5800781 -1.09863,-1.3447266 -1.57324,0.5625 -2.4082,1.6083985 -0.83496,1.0458984 -0.83496,2.4169922 0,1.4853515 0.68554,2.3203125 0.69434,0.82617184 1.91602,0.82617184 1.26562,0 1.91601,-0.79101564 0.65918,-0.7910156 0.65918,-2.3554687 z m -2.25878,-7.7431646 -1.35352,-0.07031 2.77734,2.8476562 q 1.06348,1.0898438 1.52051,1.7929688 0.46582,0.6943359 0.7207,1.4677734 0.25489,0.7646485 0.25489,1.6699219 0,1.9951172 -1.13379,3.1728516 -1.13379,1.17773435 -3.10254,1.17773435 -1.98633,0 -3.12891,-1.15136719 -1.13379,-1.15136716 -1.13379,-3.18164066 0,-1.7050781 1.02832,-2.9267578 1.02832,-1.2304687 3.0586,-1.9335937 L 177.0293,-11.99707 v -1.045899 h 6.44238 v 1.160156 z"
   id="text92"
   style="font-size:18px;line-height:0%;font-family:Arial;text-align:center;text-anchor:middle;fill:#111111;stroke-width:0.75"
   class="key"
   aria-label="δ" />&#10;	<path
   d="m 214.91455,-8.3583984 q -0.58008,0 -1.2832,0.09668 -0.70313,0.09668 -0.93164,0.2285157 v -1.2216797 q 0.21093,-0.1054688 0.67675,-0.1757813 0.47461,-0.079102 0.93165,-0.079102 h 5.09765 v 1.1513672 h -2.67187 v 6.0205078 q 0,0.6679687 0.18457,0.9755859 0.18457,0.2988281 0.6416,0.2988281 l 0.75586,-0.070312 V 0 q -0.67676,0.17578125 -1.25684,0.17578125 -1.01074,0 -1.45898,-0.4921875 -0.44824,-0.50097656 -0.44824,-1.67871095 v -6.3632812 z"
   id="text93"
   style="font-size:18px;line-height:0%;font-family:Arial;text-align:center;text-anchor:middle;fill:#111111;stroke-width:0.75"
   class="key nubkey"
   aria-label="τ" />&#10;	<path
   d="m 255.81445,-7.4355469 q 0,1.5292969 -0.91406,3.5244141 Q 253.99512,-1.9248047 252.42187,0 h -1.49414 L 247.5,-9.5097656 h 1.66113 l 2.7334,8.15625 q 2.33789,-3.0498047 2.33789,-6.0029297 0,-1.1865235 -0.43066,-2.1533203 h 1.55566 q 0.45703,0.852539 0.45703,2.0742187 z"
   id="text94"
   style="font-size:18px;line-height:0%;font-family:Arial;text-align:center;text-anchor:middle;fill:#111111;stroke-width:0.75"
   class="key"
   aria-label="ν" />&#10;	<path
   d="m 292.39893,-4.5351562 q 0,2.0917968 -1.07227,3.4013671 -1.06348,1.30957035 -2.76855,1.30957035 -0.9668,0 -1.66993,-0.29882812 -0.70312,-0.29882813 -1.26562,-0.95800783 h -0.0352 Q 285.62256,-0.55371094 285.62256,0 v 3.7353516 h -1.58203 v -8.8417969 q 0,-2.1533203 1.06347,-3.366211 1.06348,-1.2216796 2.93555,-1.2216796 1.24805,0 2.25,0.6416015 1.00195,0.6328125 1.55566,1.819336 0.55372,1.1777343 0.55372,2.6982422 z m -1.69629,-0.070312 q 0,-1.8369141 -0.75586,-2.8740235 -0.74707,-1.0458984 -2.0127,-1.0458984 -2.31152,0 -2.31152,3.4541015 v 2.7861328 q 0.4834,0.6064454 1.22168,0.9492188 0.73828,0.34277344 1.51172,0.34277344 1.11621,0 1.73144,-0.93164064 0.61524,-0.9316406 0.61524,-2.680664 z"
   id="text95"
   style="font-size:18px;line-height:0%;font-family:Arial;text-align:center;text-anchor:middle;fill:#111111;stroke-width:0.75"
   class="key"
   aria-label="ρ" />&#10;	<path
   d="m 324.73828,-1.0458984 q 1.6084,-0.017578 2.24121,-0.6328125 0.6416,-0.6240235 0.6416,-2.1533204 v -5.6777343 h 1.59961 v 5.6601562 q 0,2.1181641 -1.06347,3.06738284 -1.05469,0.94042968 -3.41895,0.95800781 V 3.7353516 h -1.49414 V 0.17578125 q -2.34668,-0.0175781 -3.41016,-0.95800781 -1.06347,-0.94042964 -1.06347,-3.06738284 v -5.6601562 h 1.59082 v 5.6777343 q 0,1.4941407 0.63281,2.1357422 0.63281,0.6328125 2.25,0.6503907 V -11.777344 h 1.49414 z"
   id="text96"
   style="font-size:18px;line-height:0%;font-family:Arial;text-align:center;text-anchor:middle;fill:#111111;stroke-width:0.75"
   class="key"
   aria-label="ψ" />&#10;&#10;  &#10;&#10;</g>&#10;&#10;<g
   transform="translate(101,134)"
   id="g106">&#10;    <text
   x="0"
   class="key"
   id="text97" />&#10;    <path
   d="m 32.726074,-3.1113281 q 0,-1.5732422 1.054688,-2.6455078 1.063476,-1.0722657 2.99707,-1.3623047 v -0.017578 q -1.318359,-0.09668 -2.083008,-0.7382813 -0.764648,-0.6416016 -0.764648,-1.6347656 0,-0.9052734 0.632812,-1.5205074 0.632813,-0.624024 1.766602,-0.861329 v -0.07031 l -2.232422,0.07031 h -0.650391 v -1.151367 h 5.572266 v 1.098633 q -1.819336,0.210938 -2.671875,0.773438 -0.852539,0.5625 -0.852539,1.5029292 0,0.6064454 0.333984,1.0019532 0.342774,0.3955078 0.966797,0.6240234 0.632813,0.2285156 1.845703,0.3339844 v 1.1513672 q -2.083008,0.2724609 -3.164062,1.1074219 -1.072266,0.8261718 -1.072266,2.118164 0,0.5888672 0.210938,0.9580078 0.210937,0.3603516 0.615234,0.5976563 0.413086,0.2285156 1.582031,0.5361328 0.47461,0.1318359 0.975586,0.28124999 0.500977,0.14941406 0.914063,0.40429687 0.413086,0.24609375 0.676758,0.6328125 0.27246,0.38671875 0.27246,0.98437504 0,0.3867187 -0.158203,0.8613281 -0.158203,0.4833984 -0.571289,1.1777344 L 37.814941,2.6103516 Q 38.01709,2.3378906 38.157715,1.9775391 38.29834,1.6171875 38.29834,1.3710937 38.29834,1.0546875 38.096191,0.84375 37.902832,0.6328125 37.516113,0.47460938 37.129395,0.31640625 35.986816,0.05273437 34.976074,-0.18457031 34.571777,-0.3515625 34.17627,-0.51855469 33.824707,-0.74707031 33.481934,-0.984375 33.23584,-1.3095703 32.998535,-1.6435547 32.85791,-2.0830078 32.726074,-2.53125 32.726074,-3.1113281 Z"
   id="text98"
   style="font-size:18px;line-height:0%;font-family:Arial;text-align:center;text-anchor:middle;fill:#111111;stroke-width:0.75"
   class="key"
   aria-label="ξ" />&#10;    <text
   x="72"
   class="key"
   id="text99" />&#10;    <path
   d="m 110.24561,3.7265625 v -9.7558594 q 0,-0.9404297 -0.18457,-1.4589843 -0.18458,-0.5185547 -0.58887,-0.7470704 -0.4043,-0.2285156 -1.18653,-0.2285156 -1.14257,0 -1.80175,0.7822266 -0.65918,0.7822265 -0.65918,2.1708984 V 0 h -1.58203 v -7.4794922 q 0,-1.0810547 -0.31641,-2.0302734 h 1.49414 q 0.14941,0.3427734 0.2373,0.8085937 0.0967,0.4570313 0.0967,0.8173828 h 0.0264 q 0.54492,-0.984375 1.25684,-1.3886718 0.7207,-0.413086 1.78418,-0.413086 1.56445,0 2.28515,0.7822266 0.7295,0.7734375 0.7295,2.5664062 V 3.7265625 Z"
   id="text100"
   style="font-size:18px;line-height:0%;font-family:Arial;text-align:center;text-anchor:middle;fill:#111111;stroke-width:0.75"
   class="key"
   aria-label="η" />&#10;&#10;    <path
   d="m 147.27393,0 h -2.45215 q -2.0127,0 -3.0586,-1.1865234 -1.03711,-1.1953125 -1.03711,-3.4804688 0,-2.25 1.11622,-3.5419922 1.125,-1.3007812 3.1289,-1.3007812 h 2.30274 v 1.2304687 h -2.37305 q -1.22168,0 -1.88965,0.7646485 -0.65918,0.7646484 -0.65918,2.1269531 h 3.2959 v 1.1601562 h -3.2959 q 0,2.9970704 2.55762,2.9970704 h 2.36426 z"
   id="text101"
   style="font-size:18px;line-height:0%;font-family:Arial;text-align:center;text-anchor:middle;fill:#111111;stroke-width:0.75"
   class="key"
   aria-label="ϵ" />&#10;    <path
   d="m 180.73389,-3.9462891 q 0,1.3798828 0.50097,2.1445313 0.50098,0.7558594 1.39746,0.7558594 1.00196,0 1.49414,-0.8173828 0.50098,-0.8173829 0.50098,-2.6367188 0,-1.6259766 -0.58008,-2.671875 -0.58007,-1.0546875 -1.65234,-1.3007813 l 0.20215,-1.2216796 q 1.14258,0.1845703 1.96875,0.8964843 0.83496,0.703125 1.27441,1.819336 0.44824,1.1074219 0.44824,2.4345703 0,2.25 -0.91406,3.4892578 -0.90527,1.23046875 -2.57519,1.23046875 -1.10743,0 -1.80176,-0.5625 -0.68555,-0.57128906 -0.98438,-1.78417965 h -0.0352 q -0.29883,1.21289059 -0.99317,1.78417965 -0.68554,0.5625 -1.79297,0.5625 -1.66992,0 -2.58398,-1.23046875 -0.90527,-1.2392578 -0.90527,-3.4892578 0,-2.0566406 0.99316,-3.4628906 0.99316,-1.40625 2.69824,-1.6875 l 0.20215,1.2216796 q -1.0459,0.2285157 -1.64355,1.2656251 -0.58887,1.0283203 -0.58887,2.7070312 0,1.8105469 0.4834,2.6367188 0.49219,0.8173828 1.49414,0.8173828 0.89648,0 1.41504,-0.7558594 0.51855,-0.7646485 0.51855,-2.1445313 v -2.2148437 h 1.45899 z"
   id="text102"
   style="font-size:18px;line-height:0%;font-family:Arial;text-align:center;text-anchor:middle;fill:#111111;stroke-width:0.75"
   class="key"
   aria-label="ω" />&#10;    <path
   d="m 211.56152,-9.5097656 h 1.6875 l 2.15332,5.9326172 q 0.0615,0.1933593 0.14942,0.4746093 0.0967,0.272461 0.18457,0.5712891 0.0879,0.2900391 0.1582,0.5712891 0.0791,0.2724609 0.11426,0.4658203 0.19336,-0.7998047 0.65039,-2.0654297 l 2.10059,-5.9501953 h 1.67871 l -3.42774,9.04394529 q -0.29883,0.79101562 -0.55371,1.97753901 -0.25488,1.1953126 -0.36914,2.2148438 h -1.67871 q 0.21973,-1.6875 0.78223,-3.82324219 z"
   id="text103"
   style="font-size:18px;line-height:0%;font-family:Arial;text-align:center;text-anchor:middle;fill:#111111;stroke-width:0.75"
   class="key"
   aria-label="γ" />&#10;    <path
   d="m 247.70654,-3.1025391 q 0,-2.118164 0.23731,-3.2783203 0.2373,-1.1601562 0.75586,-1.8720703 0.52734,-0.7207031 1.37109,-1.0722656 0.85254,-0.3603516 2.04785,-0.3603516 2.22364,0 3.26953,1.1865235 1.05469,1.1865234 1.05469,3.6474609 0,2.4257812 -1.11621,3.6386719 Q 254.21924,0 252.06592,0 q -2.00391,0 -3.07617,-1.3271484 0.0527,1.17773434 0.47461,1.87207027 0.42187,0.70312503 1.21289,1.01953123 0.7998,0.3164063 2.38183,0.3164063 1.36231,0 1.95996,0.1582031 0.60645,0.1582031 0.89649,0.5361328 0.29004,0.3779297 0.35156,1.1601563 h -1.39746 q -0.0527,-0.1933594 -0.21094,-0.2900391 -0.1582,-0.09668 -0.50976,-0.140625 -0.34278,-0.035156 -1.64356,-0.035156 -1.19531,0 -2.02148,-0.272461 -0.81739,-0.2636719 -1.36231,-0.7382812 -0.53613,-0.4746094 -0.84375,-1.1689454 -0.29883,-0.68554682 -0.43945,-1.54687495 -0.13184,-0.86132815 -0.13184,-2.64550785 z m 7.0752,-1.7490234 q 0,-1.3007812 -0.28125,-2.109375 -0.27246,-0.8085937 -0.82617,-1.1777344 -0.54493,-0.3779297 -1.5293,-0.3779297 -1.44141,0 -2.08301,0.9052735 -0.63281,0.8964844 -0.63281,2.7597656 0,1.8457031 0.63281,2.7685547 0.63281,0.9140625 1.98633,0.9140625 1.47656,0 2.10059,-0.8876953 0.63281,-0.8876953 0.63281,-2.7949219 z"
   id="text104"
   style="font-size:18px;line-height:0%;font-family:Arial;text-align:center;text-anchor:middle;fill:#111111;stroke-width:0.75"
   class="key"
   aria-label="ϱ" />&#10;    <path
   d="m 292.78125,-6.6884766 h -0.85254 q 0,1.9511719 -0.58887,3.5683594 -0.58007,1.6083985 -1.60839,2.45214845 -1.01954,0.84375 -2.3379,0.84375 -2.66308,0 -2.66308,-2.35546875 0,-0.4306641 0.21094,-1.2480469 0.21093,-0.8173828 0.21093,-1.125 0,-0.5273437 -0.50976,-0.5273437 -0.43067,0 -1.27442,0.430664 l -0.21093,-1.2392578 q 0.93164,-0.4746093 1.62597,-0.4746093 0.81739,0 1.27442,0.4394531 0.45703,0.430664 0.45703,1.2041015 0,0.4394532 -0.21094,1.256836 -0.21973,0.8173828 -0.21973,1.2568359 0,0.5800781 0.36036,0.9052735 0.36035,0.3164062 0.97558,0.3164062 0.90528,0 1.59961,-0.6855469 0.69434,-0.6943359 1.10742,-2.0742187 0.41309,-1.3886719 0.41309,-2.944336 -1.74902,-0.026367 -3.01465,-0.4482421 -1.25684,-0.4306641 -1.86328,-1.1865235 -0.60645,-0.7558594 -0.60645,-1.7929688 0,-1.344727 0.89649,-2.135742 0.89648,-0.791016 2.39062,-0.791016 1.72266,0 2.63672,1.300781 0.91406,1.300782 0.94922,3.8320318 h 0.85254 z m -2.24121,-1.2128906 q 0,-1.7666016 -0.58008,-2.8828128 -0.58008,-1.116211 -1.61719,-1.116211 -1.81054,0 -1.81054,1.766602 0,1.0810546 1.03711,1.6611327 1.04589,0.5712891 2.9707,0.5712891 z"
   id="text105"
   style="font-size:18px;line-height:0%;font-family:Arial;text-align:center;text-anchor:middle;fill:#111111;stroke-width:0.75"
   class="key"
   aria-label="ϑ" />&#10;    <path
   d="m 326.67187,0 -3.21679,-4.3417969 -1.16016,0.9580078 V 0 h -1.58203 v -9.5097656 h 1.58203 v 4.6142578 l 4.17481,-4.6142578 h 1.85449 l -3.8584,4.086914 L 328.52637,0 Z"
   id="text106"
   style="font-size:18px;line-height:0%;font-family:Arial;text-align:center;text-anchor:middle;fill:#111111;stroke-width:0.75"
   class="key"
   aria-label="κ" />&#10;</g>&#10;&#10;&#10;<g
   transform="translate(561,26)"
   id="g110">&#10;    <path
   d="m 2.1621094,-6.6621094 q -0.6064453,0 -1.2480469,-0.1845703 -0.6328125,-0.1933594 -1.27441406,-0.421875 -1.16894534,-0.3955078 -1.90722654,-0.3955078 -0.553711,0 -1.0546875,0.1669922 -0.5009766,0.1582031 -1.125,0.6064453 V -8.15625 q 1.0019531,-0.7382813 2.3115234,-0.7382813 0.9052735,0 2.0654297,0.413086 0.96679688,0.3515625 1.4677734,0.4921875 0.5097657,0.140625 0.9052735,0.140625 1.1425781,0 2.1445312,-0.8261719 v 1.3095703 Q 3.9375,-6.9960937 3.4189453,-6.8291016 2.9091797,-6.6621094 2.1621094,-6.6621094 Z m 0,3.7089844 q -0.6064453,0 -1.2480469,-0.1933594 -0.6328125,-0.1933594 -1.27441406,-0.421875 -1.16894534,-0.4130859 -1.90722654,-0.4130859 -0.5888672,0 -1.0986328,0.1845703 -0.5097657,0.1757812 -1.0810547,0.5888672 v -1.2392578 q 0.9755859,-0.7382813 2.3115234,-0.7382813 0.4570313,0 1.0107422,0.1142578 0.5625,0.1142579 1.70507812,0.5185547 0.27246094,0.1054688 0.79980468,0.2548828 0.5273438,0.140625 0.9228516,0.140625 1.1425781,0 2.1445312,-0.8085937 v 1.2919922 Q 3.8671875,-3.2607422 3.3662109,-3.1025391 2.8740234,-2.953125 2.1621094,-2.953125 Z"
   id="text107"
   style="font-size:18px;line-height:0%;font-family:Arial;text-align:center;text-anchor:middle;fill:#111111;stroke-width:0.75"
   class="key"
   aria-label="≈" />&#10;    <path
   d="m 35.995605,-9.2021484 q 1.634766,0 2.891602,0.993164 l 1.02832,-1.0371094 0.870118,0.8701172 -1.03711,1.0371094 q 0.966797,1.2392578 0.966797,2.8740235 0,1.9423828 -1.388672,3.3310546 -1.388672,1.38867191 -3.331055,1.38867191 -1.617187,0 -2.856445,-0.97558593 l -1.037109,1.03710937 -0.870117,-0.87011719 1.02832,-1.03710936 q -0.975586,-1.2392578 -0.975586,-2.8740234 0,-1.959961 1.388672,-3.3486329 1.388672,-1.3886718 3.322265,-1.3886718 z m 2.003907,1.8720703 q -0.878907,-0.6328125 -2.003907,-0.6328125 -1.423828,0 -2.452148,1.0283203 -1.019531,1.0195312 -1.019531,2.4697266 0,1.1249999 0.624023,1.9951171 z m -3.981446,5.7216797 q 0.870118,0.6240234 1.977539,0.6240234 1.432618,0 2.452149,-1.0195313 1.02832,-1.0283203 1.02832,-2.4609374 0,-1.125 -0.606445,-1.9863282 z"
   id="text108"
   style="font-size:18px;line-height:0%;font-family:Arial;text-align:center;text-anchor:middle;fill:#111111;stroke-width:0.75"
   class="key"
   aria-label="⌀" />&#10;    <path
   d="m 71.999997,-7.128 c -0.612,0 -1.098,0.468 -1.098,1.098 0,0.594 0.486,1.08 1.08,1.08 0.612,0 1.098,-0.486 1.098,-1.098 0,-0.594 -0.486,-1.08 -1.08,-1.08 z m 0.072,-5.4 c -3.636,0 -6.552,2.898 -6.552,6.516 0,3.528 2.916,6.462 6.462,6.462 3.546,0 6.498,-2.934 6.498,-6.462 0,-3.528 -2.934,-6.516 -6.408,-6.516 z m -0.144,1.08 c 3.078,0 5.508,2.376 5.508,5.418 0,2.97 -2.448,5.382 -5.436,5.382 -3.006,0 -5.436,-2.412 -5.436,-5.364 0,-2.97 2.43,-5.436 5.364,-5.436 z"
   id="text109"
   style="font-size:18px;line-height:0%;font-family:Arial;text-align:center;text-anchor:middle;fill:#111111;stroke-width:0.75"
   class="key"
   aria-label="⊙" />&#10;    <path
   d="m 108.072,-12.528 c -3.636,0 -6.552,2.898 -6.552,6.516 0,3.528 2.916,6.462 6.462,6.462 3.546,0 6.498,-2.934 6.498,-6.462 0,-3.528 -2.934,-6.516 -6.408,-6.516 z m 5.328,7.02 c -0.288,2.79 -2.592,4.878 -5.4,4.878 -2.808,0 -5.13,-2.088 -5.418,-4.878 z M 102.6,-6.57 c 0.288,-2.772 2.592,-4.878 5.382,-4.878 2.826,0 5.13,2.088 5.418,4.878 z"
   id="text110"
   style="font-size:18px;line-height:0%;font-family:Arial;text-align:center;text-anchor:middle;fill:#111111;stroke-width:0.75"
   class="key"
   aria-label="⊖" />&#10;</g>&#10;<g
   transform="translate(561,62)"
   id="g113">&#10;    <path
   d="m 5.8679974,-10.494 -11.79,5.238 v 0.774 l 11.79,5.256 v -1.368 l -9.666,-4.266 9.666,-4.284 z m 0,2.466 -7.164,3.168 7.164,3.15 v -1.368 l -4.158,-1.782 4.158,-1.8 z"
   id="text111"
   style="font-size:18px;line-height:0%;font-family:Arial;text-align:center;text-anchor:middle;fill:#111111;stroke-width:0.75"
   class="key"
   aria-label="≪" />&#10;    <path
   d="M 31.974609,0.01757813 V -4.4824219 q 0,-1.3183593 0.509766,-2.3642578 0.509766,-1.0546875 1.423828,-1.6347656 0.922852,-0.5888672 2.06543,-0.5888672 1.151367,0 2.074219,0.5800781 0.93164,0.5800782 1.450195,1.6435547 0.527344,1.0634766 0.527344,2.3642578 V 0.01757813 H 39.120117 V -4.5 q 0,-1.6699219 -0.861328,-2.671875 -0.861328,-1.0019531 -2.267578,-1.0019531 -1.423828,0 -2.267578,0.993164 -0.84375,0.9931641 -0.84375,2.6982422 v 4.50000003 z"
   id="text112"
   style="font-size:18px;line-height:0%;font-family:Arial;text-align:center;text-anchor:middle;fill:#111111;stroke-width:0.75"
   class="key"
   aria-label="∩" />&#10;    <path
   d="m 66.077997,-10.494 v 1.35 l 9.666,4.284 -9.666,4.266 v 1.368 l 11.79,-5.256 v -0.774 z m 0,2.466 v 1.368 l 4.158,1.8 -4.158,1.782 v 1.368 l 7.164,-3.15 z"
   id="text113"
   style="font-size:18px;line-height:0%;font-family:Arial;text-align:center;text-anchor:middle;fill:#111111;stroke-width:0.75"
   class="key"
   aria-label="≫" />&#10;</g>&#10;<g
   transform="translate(561,98)"
   id="g116">&#10;    <path
   d="m 4.806,-1.116 h -5.238 c -2.178,0 -3.114,-0.99 -3.114,-3.33 0,-2.322 0.936,-3.33 3.114,-3.33 h 5.238 v -1.116 h -5.04 c -1.494,0 -2.124,0.126 -2.79,0.576 -1.17,0.774 -1.782,2.07 -1.782,3.798 0,2.07 0.81,3.582 2.232,4.194 C -1.962,-0.072 -1.476,0 -0.234,0 h 5.04 z"
   id="text114"
   style="font-size:18px;line-height:0%;font-family:Arial;text-align:center;text-anchor:middle;fill:#111111;stroke-width:0.75"
   class="key"
   aria-label="⊂" />&#10;    <path
   d="m 39.647461,-7.4443359 q 0.729492,-0.7294922 1.757812,-0.7294922 1.03711,0 1.78418,0.7382812 0.74707,0.7382813 0.74707,1.7929688 0,1.0458984 -0.738281,1.7666015 -0.729492,0.7207032 -1.792969,0.7207032 -1.063476,0 -1.77539,-0.7119141 -0.448242,-0.4482422 -0.615235,-1.0371094 h -6.038086 q -0.175781,0.5800782 -0.624023,1.0283203 -0.738281,0.7207032 -1.801758,0.7207032 -1.063476,0 -1.77539,-0.7119141 -0.711914,-0.7119141 -0.711914,-1.7753906 0,-1.0634766 0.729492,-1.7929688 0.729492,-0.7382812 1.757812,-0.7382812 1.03711,0 1.801758,0.7470703 0.457031,0.4570312 0.624023,1.0458984 h 6.038086 q 0.175782,-0.5976562 0.632813,-1.0634765 z m -8.226563,0.9492187 q -0.351562,-0.3603515 -0.852539,-0.3603515 -0.500976,0 -0.852539,0.3515625 -0.342773,0.3515625 -0.342773,0.852539 0,0.5009766 0.342773,0.8525391 0.351563,0.3427734 0.852539,0.3427734 0.509766,0 0.852539,-0.3427734 0.351563,-0.3515625 0.351563,-0.84375 0,-0.5009766 -0.351563,-0.8525391 z"
   id="text115"
   style="font-size:18px;line-height:0%;font-family:Arial;text-align:center;text-anchor:middle;fill:#111111;stroke-width:0.75"
   class="key"
   aria-label="⊶" />&#10;    <path
   d="M 67.194,-1.116 V 0 h 5.04 c 1.494,0 2.124,-0.126 2.808,-0.576 1.17,-0.774 1.764,-2.088 1.764,-3.87 0,-1.998 -0.828,-3.528 -2.232,-4.122 -0.612,-0.252 -1.098,-0.324 -2.34,-0.324 h -5.04 v 1.116 h 5.238 c 2.178,0 3.114,0.99 3.114,3.33 0,2.34 -0.936,3.33 -3.114,3.33 z"
   id="text116"
   style="font-size:18px;line-height:0%;font-family:Arial;text-align:center;text-anchor:middle;fill:#111111;stroke-width:0.75"
   class="key"
   aria-label="⊃" />&#10;</g>&#10;<g
   transform="translate(561,134)"
   id="g119">&#10;    <path
   d="m -4.3681641,-5.5458984 v -1.8017578 l 8.7451172,-3.4716798 v 1.3535157 l -7.5410156,3.0234375 7.5410156,3.0234375 v 1.3447265 z M -4.3857422,0 V -1.2744141 H 4.359375 V 0 Z"
   id="text117"
   style="font-size:18px;line-height:0%;font-family:Arial;text-align:center;text-anchor:middle;fill:#111111;stroke-width:0.75"
   class="key"
   aria-label="≤" />&#10;    <path
   d="m 40.311001,-10.998 h -1.26 v 4.896 c 0,2.034 -0.09,2.826 -0.378,3.402 -0.486,0.954 -1.548,1.602 -2.682,1.602 -0.99,0 -1.98,-0.504 -2.502,-1.296 -0.432,-0.666 -0.558,-1.458 -0.558,-3.708 v -4.896 h -1.26 v 4.842 c 0,2.682 0.09,3.366 0.576,4.158 0.756,1.26 2.124,1.998 3.744,1.998 1.494,0 2.754,-0.594 3.564,-1.71 0.648,-0.882 0.756,-1.53 0.756,-4.446 z"
   id="text118"
   style="font-size:18px;line-height:0%;font-family:Arial;text-align:center;text-anchor:middle;fill:#111111;stroke-width:0.75"
   class="key"
   aria-label="∪" />&#10;    <path
   d="m 67.631836,-2.0742188 v -1.3447265 l 7.541016,-3.0234375 -7.541016,-3.0234375 v -1.3535157 l 8.745117,3.4716798 v 1.8017578 z m 0,2.0742188 v -1.2744141 h 8.745117 V 0 Z"
   id="text119"
   style="font-size:18px;line-height:0%;font-family:Arial;text-align:center;text-anchor:middle;fill:#111111;stroke-width:0.75"
   class="key"
   aria-label="≥" />&#10;</g>&#10;<g
   transform="translate(561,170)"
   id="g121">&#10;    <path
   d="M 11.671875,0 H 10.30957 l 8.103516,-12.383789 h 1.379883 z m 0.457031,-12.489258 q 1.31836,0 1.942383,0.808594 0.632813,0.799805 0.632813,2.3642577 0,1.5820313 -0.667969,2.3994141 -0.667969,0.8173828 -1.942383,0.8173828 -1.300781,0 -1.959961,-0.8261718 -0.6503906,-0.8261719 -0.6503906,-2.3906251 0,-1.5908207 0.6328126,-2.3818357 0.641602,-0.791016 2.012695,-0.791016 z m 1.283203,3.1728517 q 0,-1.1689457 -0.298828,-1.6962887 -0.290039,-0.527344 -0.984375,-0.527344 -0.738281,0 -1.045898,0.527344 -0.307617,0.518554 -0.307617,1.6962887 0,1.1601563 0.316406,1.6962891 0.325195,0.5273438 1.019531,0.5273438 0.65918,0 0.975586,-0.5449219 0.325195,-0.5449219 0.325195,-1.678711 z m 4.763672,3.0234376 q 1.31836,0 1.942383,0.8085937 0.632813,0.7998047 0.632813,2.3642578 0,1.5820313 -0.667969,2.39941408 -0.667969,0.81738281 -1.942383,0.81738281 -1.300781,0 -1.959961,-0.82617188 -0.650391,-0.82617191 -0.650391,-2.39062501 0,-1.5908203 0.632813,-2.3818359 0.641601,-0.7910156 2.012695,-0.7910156 z m 1.283203,3.1728515 q 0,-1.1689453 -0.298828,-1.696289 -0.290039,-0.5273438 -0.984375,-0.5273438 -0.738281,0 -1.045898,0.5273438 -0.307617,0.5185546 -0.307617,1.696289 0,1.1601563 0.316406,1.6962891 0.325195,0.52734372 1.019531,0.52734372 0.65918,0 0.975586,-0.54492182 0.325195,-0.5449219 0.325195,-1.678711 z m 4.473633,-3.1728515 q 1.31836,0 1.942383,0.8085937 0.632812,0.7998047 0.632812,2.3642578 0,1.5820313 -0.667968,2.39941408 -0.667969,0.81738281 -1.942383,0.81738281 -1.300781,0 -1.959961,-0.82617188 -0.650391,-0.82617191 -0.650391,-2.39062501 0,-1.5908203 0.632813,-2.3818359 0.641601,-0.7910156 2.012695,-0.7910156 z m 1.283203,3.1728515 q 0,-1.1689453 -0.298828,-1.696289 -0.290039,-0.5273438 -0.984375,-0.5273438 -0.738281,0 -1.045898,0.5273438 -0.307617,0.5185546 -0.307617,1.696289 0,1.1601563 0.316406,1.6962891 0.325195,0.52734372 1.019531,0.52734372 0.65918,0 0.975586,-0.54492182 0.325195,-0.5449219 0.325195,-1.678711 z"
   id="text120"
   style="font-size:18px;line-height:0%;font-family:Arial;text-align:center;text-anchor:middle;fill:#111111;stroke-width:0.75"
   class="key"
   aria-label="‰" />&#10;    <path
   d="m 71.05957,-7.8222656 0.5625,-4.5615234 h 1.722657 l -1.388672,4.5615234 z"
   id="text121"
   style="font-size:18px;line-height:0%;font-family:Arial;text-align:center;text-anchor:middle;fill:#111111;stroke-width:0.75"
   class="key"
   aria-label="′" />&#10;</g>&#10;&#10;<g
   transform="translate(561,78)"
   id="g122">&#10;    <path
   d="m 108.072,-12.888 c -3.672,0 -6.552,2.862 -6.552,6.498 0,3.582 2.88,6.444 6.498,6.444 3.582,0 6.462,-2.88 6.462,-6.48 0,-3.546 -2.898,-6.462 -6.408,-6.462 z m 0.45,1.026 c 2.574,0.234 4.626,2.286 4.878,4.896 h -4.878 z m 4.896,5.922 c -0.162,2.556 -2.34,4.77 -4.896,4.968 V -5.94 Z m -5.904,4.968 c -2.646,-0.252 -4.68,-2.286 -4.932,-4.968 h 4.932 z m -4.932,-5.994 c 0.252,-2.592 2.322,-4.644 4.932,-4.896 v 4.896 z"
   id="text122"
   style="font-size:18px;line-height:0%;font-family:Arial;text-align:center;text-anchor:middle;fill:#111111;stroke-width:0.75"
   class="key"
   aria-label="⊕" />&#10;</g>&#10;<g
   transform="translate(561,150)"
   id="g123">&#10;    <path
   d="m 105.40723,-1.1777344 -4.46485,-4.4648437 4.46485,-4.4648439 v 2.3994142 h 4.9834 V -13.12207 h 4.13085 l -0.009,9.5449216 h -9.10547 z m -0.87891,-5.6513672 v -1.1513671 l -2.33789,2.3378906 2.33789,2.3378906 v -1.1513672 h 9.10547 l 0.009,-7.7871093 h -2.37305 l -0.009,5.4140624 z"
   id="text123"
   style="font-size:18px;line-height:0%;font-family:Arial;text-align:center;text-anchor:middle;fill:#111111;stroke-width:0.75"
   class="key"
   aria-label="⏎" />&#10;</g>&#10;&#10;<path
   d="m 17.820312,18.476562 q 0.03516,0.07031 0.03516,0.166993 0,0.166992 -0.114258,0.298828 -0.105469,0.123047 -0.28125,0.123047 -0.166992,0 -0.307617,-0.114258 -0.131836,-0.123047 -0.131836,-0.307617 0,-0.158203 0.123047,-0.290039 0.131836,-0.131836 0.307617,-0.131836 0.263672,0 0.36914,0.254882 z m 2.768555,6.670899 q 0.03516,0.105469 0.03516,0.158203 0,0.158203 -0.123046,0.290039 -0.123047,0.131836 -0.298829,0.131836 -0.158203,0 -0.290039,-0.123047 -0.131836,-0.123047 -0.131836,-0.307617 0,-0.149414 0.114258,-0.28125 0.114258,-0.131836 0.28125,-0.131836 0.28125,0 0.413086,0.263672 z m -4.03418,-6.020508 q 0.131836,0.114258 0.131836,0.290039 0,0.421875 -0.413086,0.421875 -0.175781,0 -0.298828,-0.114258 -0.123046,-0.123047 -0.123046,-0.290039 0,-0.175781 0.123046,-0.298828 0.123047,-0.131836 0.290039,-0.131836 0.166993,0 0.290039,0.123047 z m 5.115235,5.097656 q 0.123047,0.123047 0.123047,0.298828 0,0.166993 -0.123047,0.29004 -0.114258,0.123046 -0.298828,0.123046 -0.175782,0 -0.298828,-0.123046 -0.123047,-0.123047 -0.123047,-0.29004 0,-0.175781 0.114258,-0.290039 0.123046,-0.123046 0.290039,-0.123046 0.175781,0 0.316406,0.114257 z m -6.029297,-4.016601 q 0.272461,0.114258 0.272461,0.404297 0,0.166992 -0.140625,0.290039 -0.131836,0.114258 -0.290039,0.114258 -0.18457,0 -0.298828,-0.131836 -0.114258,-0.131836 -0.114258,-0.290039 0,-0.175782 0.123047,-0.298829 0.131836,-0.123046 0.290039,-0.123046 0.05273,0 0.158203,0.03516 z m 6.670898,2.759765 q 0.263672,0.114258 0.263672,0.386719 0,0.175781 -0.131836,0.298828 -0.123047,0.114258 -0.290039,0.114258 -0.193359,0 -0.307617,-0.123047 -0.114258,-0.131836 -0.114258,-0.290039 0,-0.202148 0.131836,-0.307617 0.140625,-0.105469 0.298828,-0.105469 0.08789,0 0.149414,0.02637 z m -7.101562,-1.40625 q 0.166992,0 0.298828,0.123047 0.131836,0.114258 0.131836,0.28125 0,0.175782 -0.131836,0.307617 -0.131836,0.123047 -0.290039,0.123047 h -0.01758 q -0.166992,0 -0.290039,-0.123047 -0.114258,-0.131835 -0.114258,-0.298828 0,-0.175781 0.114258,-0.290039 0.123047,-0.123047 0.298828,-0.123047 z m 7.21582,-0.0088 q 0.175781,0 0.298828,0.123047 0.123047,0.123047 0.123047,0.298828 0,0.166993 -0.123047,0.290039 -0.114257,0.123047 -0.290039,0.123047 h -0.03516 q -0.158203,0 -0.28125,-0.123047 -0.114258,-0.123046 -0.114258,-0.28125 0,-0.175781 0.131836,-0.298828 0.131836,-0.123047 0.290039,-0.131836 z m -7.101562,1.423828 q 0.07031,-0.03516 0.166992,-0.03516 0.175781,0 0.298828,0.114258 0.123047,0.114258 0.123047,0.290039 0,0.166992 -0.123047,0.298828 -0.123047,0.131836 -0.298828,0.131836 -0.166992,0 -0.298828,-0.123047 -0.123047,-0.131836 -0.123047,-0.307617 0,-0.272461 0.254883,-0.369141 z m 6.670898,-2.768554 q 0.105469,-0.03516 0.158203,-0.03516 0.158203,0 0.290039,0.123046 0.131836,0.123047 0.131836,0.298829 0,0.158203 -0.123047,0.290039 -0.123046,0.131836 -0.307617,0.131836 -0.158203,0 -0.28125,-0.123047 -0.123047,-0.123047 -0.123047,-0.290039 0,-0.28125 0.254883,-0.395508 z m -6.020508,4.034179 q 0.131836,-0.131835 0.28125,-0.131835 0.184571,0 0.307618,0.123046 0.123046,0.114258 0.123046,0.290039 0,0.166993 -0.123046,0.298829 -0.114258,0.123046 -0.29004,0.123046 -0.166992,0 -0.298828,-0.123046 -0.123046,-0.131836 -0.123046,-0.298829 0,-0.158203 0.123046,-0.28125 z m 5.097657,-5.115234 q 0.140625,-0.123047 0.298828,-0.123047 0.175781,0 0.290039,0.123047 0.123047,0.123047 0.123047,0.298828 0,0.166992 -0.123047,0.298828 -0.114258,0.123047 -0.290039,0.123047 -0.166992,0 -0.290039,-0.131836 -0.123047,-0.131836 -0.123047,-0.290039 0,-0.166992 0.114258,-0.298828 z m -4.016602,6.029297 q 0.05273,-0.123047 0.166992,-0.193359 0.123047,-0.07031 0.228516,-0.07031 0.175781,0 0.290039,0.131836 0.123047,0.131836 0.123047,0.290039 0,0.175781 -0.131836,0.298828 -0.131836,0.114258 -0.290039,0.114258 -0.166992,0 -0.298828,-0.131836 -0.123047,-0.131836 -0.123047,-0.28125 0,-0.05273 0.03516,-0.158203 z m 2.759766,-6.670898 q 0.114257,-0.263672 0.386718,-0.263672 0.175782,0 0.298829,0.131836 0.123046,0.131836 0.123046,0.298828 0,0.175781 -0.131836,0.298828 -0.131835,0.114258 -0.290039,0.114258 -0.175781,0 -0.298828,-0.131836 -0.114258,-0.140625 -0.114258,-0.298828 0,-0.07031 0.02637,-0.149414 z m -1.40625,7.101562 q 0,-0.175781 0.123047,-0.298828 0.123046,-0.123047 0.290039,-0.123047 0.175781,0 0.298828,0.123047 0.123047,0.123047 0.123047,0.298828 0,0.166992 -0.123047,0.290039 Q 18.998047,26 18.822266,26 18.655273,26 18.532227,25.876953 18.40918,25.753906 18.40918,25.586914 Z m 0,-7.21582 q 0,-0.175782 0.123047,-0.298828 0.123046,-0.123047 0.290039,-0.123047 0.175781,0 0.298828,0.123047 0.123047,0.123046 0.123047,0.298828 0,0.166992 -0.123047,0.290039 -0.123047,0.123047 -0.298828,0.123047 -0.166993,0 -0.290039,-0.123047 -0.123047,-0.123047 -0.123047,-0.290039 z m 6.591797,-0.615235 q -0.351563,0.483399 -0.465821,0.870118 -0.105469,0.386718 -0.114258,0.632812 -0.01758,0.685547 0.465821,0.667969 0.175781,-0.0088 0.404297,-0.07031 0.237304,-0.06152 0.641601,-0.254883 l 0.105469,0.37793 q -0.632813,0.483399 -1.019531,0.676758 -0.37793,0.193359 -0.720703,0.193359 -0.219727,0 -0.457032,-0.237304 -0.237304,-0.237305 -0.237304,-0.817383 0,-0.202149 0.04395,-0.37793 0.04395,-0.175781 0.105469,-0.325195 -0.448243,0.09668 -1.028321,0.360351 -0.588867,0.254883 -1.089843,0.544922 l -0.246094,-0.729492 q 1.098633,-0.386719 1.977539,-0.834961 0.878906,-0.457031 1.388672,-0.870117 z"
   id="t1"
   style="font-size:18px;line-height:0%;font-family:'Gentium Plus Compact';text-align:center;text-anchor:middle;fill:#111111"
   class="dead"
   aria-label="◌˞" />&#10;<path
   d="m 450.99805,18.476562 q 0.0352,0.07031 0.0352,0.166993 0,0.166992 -0.11425,0.298828 -0.10547,0.123047 -0.28125,0.123047 -0.167,0 -0.30762,-0.114258 -0.13184,-0.123047 -0.13184,-0.307617 0,-0.158203 0.12305,-0.290039 0.13183,-0.131836 0.30762,-0.131836 0.26367,0 0.36914,0.254882 z m 2.76855,6.670899 q 0.0352,0.105469 0.0352,0.158203 0,0.158203 -0.12305,0.290039 -0.12305,0.131836 -0.29883,0.131836 -0.1582,0 -0.29004,-0.123047 -0.13183,-0.123047 -0.13183,-0.307617 0,-0.149414 0.11426,-0.28125 0.11425,-0.131836 0.28125,-0.131836 0.28125,0 0.41308,0.263672 z m -4.03418,-6.020508 q 0.13184,0.114258 0.13184,0.290039 0,0.421875 -0.41309,0.421875 -0.17578,0 -0.29883,-0.114258 -0.12304,-0.123047 -0.12304,-0.290039 0,-0.175781 0.12304,-0.298828 0.12305,-0.131836 0.29004,-0.131836 0.16699,0 0.29004,0.123047 z m 5.11524,5.097656 q 0.12304,0.123047 0.12304,0.298828 0,0.166993 -0.12304,0.29004 -0.11426,0.123046 -0.29883,0.123046 -0.17578,0 -0.29883,-0.123046 -0.12305,-0.123047 -0.12305,-0.29004 0,-0.175781 0.11426,-0.290039 0.12305,-0.123046 0.29004,-0.123046 0.17578,0 0.31641,0.114257 z m -6.0293,-4.016601 q 0.27246,0.114258 0.27246,0.404297 0,0.166992 -0.14062,0.290039 -0.13184,0.114258 -0.29004,0.114258 -0.18457,0 -0.29883,-0.131836 -0.11426,-0.131836 -0.11426,-0.290039 0,-0.175782 0.12305,-0.298829 0.13183,-0.123046 0.29004,-0.123046 0.0527,0 0.1582,0.03516 z m 6.6709,2.759765 q 0.26367,0.114258 0.26367,0.386719 0,0.175781 -0.13184,0.298828 -0.12304,0.114258 -0.29004,0.114258 -0.19335,0 -0.30761,-0.123047 -0.11426,-0.131836 -0.11426,-0.290039 0,-0.202148 0.13184,-0.307617 0.14062,-0.105469 0.29882,-0.105469 0.0879,0 0.14942,0.02637 z m -7.10156,-1.40625 q 0.16699,0 0.29882,0.123047 0.13184,0.114258 0.13184,0.28125 0,0.175782 -0.13184,0.307617 -0.13183,0.123047 -0.29004,0.123047 h -0.0176 q -0.167,0 -0.29004,-0.123047 -0.11426,-0.131835 -0.11426,-0.298828 0,-0.175781 0.11426,-0.290039 0.12304,-0.123047 0.29883,-0.123047 z m 7.21582,-0.0088 q 0.17578,0 0.29882,0.123047 0.12305,0.123047 0.12305,0.298828 0,0.166993 -0.12305,0.290039 -0.11425,0.123047 -0.29004,0.123047 h -0.0351 q -0.1582,0 -0.28125,-0.123047 -0.11426,-0.123046 -0.11426,-0.28125 0,-0.175781 0.13184,-0.298828 0.13183,-0.123047 0.29004,-0.131836 z m -7.10157,1.423828 q 0.0703,-0.03516 0.167,-0.03516 0.17578,0 0.29882,0.114258 0.12305,0.114258 0.12305,0.290039 0,0.166992 -0.12305,0.298828 -0.12304,0.131836 -0.29882,0.131836 -0.167,0 -0.29883,-0.123047 -0.12305,-0.131836 -0.12305,-0.307617 0,-0.272461 0.25488,-0.369141 z m 6.6709,-2.768554 q 0.10547,-0.03516 0.1582,-0.03516 0.15821,0 0.29004,0.123046 0.13184,0.123047 0.13184,0.298829 0,0.158203 -0.12305,0.290039 -0.12304,0.131836 -0.30761,0.131836 -0.15821,0 -0.28125,-0.123047 -0.12305,-0.123047 -0.12305,-0.290039 0,-0.28125 0.25488,-0.395508 z m -6.02051,4.034179 q 0.13184,-0.131835 0.28125,-0.131835 0.18457,0 0.30762,0.123046 0.12305,0.114258 0.12305,0.290039 0,0.166993 -0.12305,0.298829 -0.11426,0.123046 -0.29004,0.123046 -0.16699,0 -0.29883,-0.123046 -0.12304,-0.131836 -0.12304,-0.298829 0,-0.158203 0.12304,-0.28125 z M 454.25,19.126953 q 0.14062,-0.123047 0.29883,-0.123047 0.17578,0 0.29004,0.123047 0.12304,0.123047 0.12304,0.298828 0,0.166992 -0.12304,0.298828 -0.11426,0.123047 -0.29004,0.123047 -0.16699,0 -0.29004,-0.131836 -0.12305,-0.131836 -0.12305,-0.290039 0,-0.166992 0.11426,-0.298828 z m -4.0166,6.029297 q 0.0527,-0.123047 0.16699,-0.193359 0.12305,-0.07031 0.22852,-0.07031 0.17578,0 0.29004,0.131836 0.12304,0.131836 0.12304,0.290039 0,0.175781 -0.13183,0.298828 -0.13184,0.114258 -0.29004,0.114258 -0.167,0 -0.29883,-0.131836 -0.12305,-0.131836 -0.12305,-0.28125 0,-0.05273 0.0352,-0.158203 z m 2.75976,-6.670898 q 0.11426,-0.263672 0.38672,-0.263672 0.17578,0 0.29883,0.131836 0.12305,0.131836 0.12305,0.298828 0,0.175781 -0.13184,0.298828 -0.13183,0.114258 -0.29004,0.114258 -0.17578,0 -0.29883,-0.131836 -0.11425,-0.140625 -0.11425,-0.298828 0,-0.07031 0.0264,-0.149414 z m -1.40625,7.101562 q 0,-0.175781 0.12305,-0.298828 0.12305,-0.123047 0.29004,-0.123047 0.17578,0 0.29883,0.123047 0.12304,0.123047 0.12304,0.298828 0,0.166992 -0.12304,0.290039 Q 452.17578,26 452,26 q -0.16699,0 -0.29004,-0.123047 -0.12305,-0.123047 -0.12305,-0.290039 z m 0,-7.21582 q 0,-0.175782 0.12305,-0.298828 0.12305,-0.123047 0.29004,-0.123047 0.17578,0 0.29883,0.123047 0.12304,0.123046 0.12304,0.298828 0,0.166992 -0.12304,0.290039 -0.12305,0.123047 -0.29883,0.123047 -0.16699,0 -0.29004,-0.123047 -0.12305,-0.123047 -0.12305,-0.290039 z m -0.80859,-3.770508 q -0.0352,-0.483398 0.13184,-0.958008 0.16699,-0.474609 0.62402,-0.791015 0.30762,-0.01758 0.84375,0.114257 0.52734,0.123047 0.93164,0.290039 l -0.10547,0.360352 q -0.54492,0.105469 -0.80859,0.351562 -0.26367,0.246094 -0.33399,0.544922 -0.0791,0.290039 -0.0615,0.536133 0.0264,0.404297 0.2373,0.711914 0.20215,0.307617 0.62403,0.632813 l -0.34278,0.290039 q -0.85253,-0.351563 -1.26562,-0.852539 -0.41309,-0.509766 -0.47461,-1.230469 z"
   id="t2"
   style="font-size:18px;line-height:0%;font-family:'Gentium Plus Compact';text-align:center;text-anchor:middle;fill:#111111"
   class="dead"
   aria-label="◌̔" />&#10;&#10;<path
   d="m 478.99805,90.476562 q 0.0352,0.07031 0.0352,0.166993 0,0.166992 -0.11425,0.298828 -0.10547,0.123047 -0.28125,0.123047 -0.167,0 -0.30762,-0.114258 -0.13184,-0.123047 -0.13184,-0.307617 0,-0.158203 0.12305,-0.290039 0.13183,-0.131836 0.30762,-0.131836 0.26367,0 0.36914,0.254882 z m 2.76855,6.670899 q 0.0352,0.105469 0.0352,0.158203 0,0.158203 -0.12305,0.290039 -0.12305,0.131836 -0.29883,0.131836 -0.1582,0 -0.29004,-0.123047 -0.13183,-0.123047 -0.13183,-0.307617 0,-0.149414 0.11426,-0.28125 0.11425,-0.131836 0.28125,-0.131836 0.28125,0 0.41308,0.263672 z m -4.03418,-6.020508 q 0.13184,0.114258 0.13184,0.290039 0,0.421875 -0.41309,0.421875 -0.17578,0 -0.29883,-0.114258 -0.12304,-0.123047 -0.12304,-0.290039 0,-0.175781 0.12304,-0.298828 0.12305,-0.131836 0.29004,-0.131836 0.16699,0 0.29004,0.123047 z m 5.11524,5.097656 q 0.12304,0.123047 0.12304,0.298828 0,0.166993 -0.12304,0.29004 -0.11426,0.123046 -0.29883,0.123046 -0.17578,0 -0.29883,-0.123046 -0.12305,-0.123047 -0.12305,-0.29004 0,-0.175781 0.11426,-0.290039 0.12305,-0.123046 0.29004,-0.123046 0.17578,0 0.31641,0.114257 z m -6.0293,-4.016601 q 0.27246,0.114258 0.27246,0.404297 0,0.166992 -0.14062,0.290039 -0.13184,0.114258 -0.29004,0.114258 -0.18457,0 -0.29883,-0.131836 -0.11426,-0.131836 -0.11426,-0.290039 0,-0.175782 0.12305,-0.298829 0.13183,-0.123046 0.29004,-0.123046 0.0527,0 0.1582,0.03516 z m 6.6709,2.759765 q 0.26367,0.114258 0.26367,0.386719 0,0.175781 -0.13184,0.298828 -0.12304,0.114258 -0.29004,0.114258 -0.19335,0 -0.30761,-0.123047 -0.11426,-0.131836 -0.11426,-0.290039 0,-0.202148 0.13184,-0.307617 0.14062,-0.105469 0.29882,-0.105469 0.0879,0 0.14942,0.02637 z m -7.10156,-1.40625 q 0.16699,0 0.29882,0.123047 0.13184,0.114258 0.13184,0.28125 0,0.175782 -0.13184,0.307617 -0.13183,0.123047 -0.29004,0.123047 h -0.0176 q -0.167,0 -0.29004,-0.123047 -0.11426,-0.131835 -0.11426,-0.298828 0,-0.175781 0.11426,-0.290039 0.12304,-0.123047 0.29883,-0.123047 z m 7.21582,-0.0088 q 0.17578,0 0.29882,0.123047 0.12305,0.123047 0.12305,0.298828 0,0.166993 -0.12305,0.290039 -0.11425,0.123047 -0.29004,0.123047 h -0.0351 q -0.1582,0 -0.28125,-0.123047 -0.11426,-0.123046 -0.11426,-0.28125 0,-0.175781 0.13184,-0.298828 0.13183,-0.123047 0.29004,-0.131836 z m -7.10157,1.423828 q 0.0703,-0.03516 0.167,-0.03516 0.17578,0 0.29882,0.114258 0.12305,0.114258 0.12305,0.290039 0,0.166992 -0.12305,0.298828 -0.12304,0.131836 -0.29882,0.131836 -0.167,0 -0.29883,-0.123047 -0.12305,-0.131836 -0.12305,-0.307617 0,-0.272461 0.25488,-0.369141 z m 6.6709,-2.768554 q 0.10547,-0.03516 0.1582,-0.03516 0.15821,0 0.29004,0.123046 0.13184,0.123047 0.13184,0.298829 0,0.158203 -0.12305,0.290039 -0.12304,0.131836 -0.30761,0.131836 -0.15821,0 -0.28125,-0.123047 -0.12305,-0.123047 -0.12305,-0.290039 0,-0.28125 0.25488,-0.395508 z m -6.02051,4.034179 q 0.13184,-0.131835 0.28125,-0.131835 0.18457,0 0.30762,0.123046 0.12305,0.114258 0.12305,0.290039 0,0.166993 -0.12305,0.298829 -0.11426,0.123046 -0.29004,0.123046 -0.16699,0 -0.29883,-0.123046 -0.12304,-0.131836 -0.12304,-0.298829 0,-0.158203 0.12304,-0.28125 z M 482.25,91.126953 q 0.14062,-0.123047 0.29883,-0.123047 0.17578,0 0.29004,0.123047 0.12304,0.123047 0.12304,0.298828 0,0.166992 -0.12304,0.298828 -0.11426,0.123047 -0.29004,0.123047 -0.16699,0 -0.29004,-0.131836 -0.12305,-0.131836 -0.12305,-0.290039 0,-0.166992 0.11426,-0.298828 z m -4.0166,6.029297 q 0.0527,-0.123047 0.16699,-0.193359 0.12305,-0.07031 0.22852,-0.07031 0.17578,0 0.29004,0.131836 0.12304,0.131836 0.12304,0.290039 0,0.175781 -0.13183,0.298828 -0.13184,0.114258 -0.29004,0.114258 -0.167,0 -0.29883,-0.131836 -0.12305,-0.131836 -0.12305,-0.28125 0,-0.05273 0.0352,-0.158203 z m 2.75976,-6.670898 q 0.11426,-0.263672 0.38672,-0.263672 0.17578,0 0.29883,0.131836 0.12305,0.131836 0.12305,0.298828 0,0.175781 -0.13184,0.298828 -0.13183,0.114258 -0.29004,0.114258 -0.17578,0 -0.29883,-0.131836 -0.11425,-0.140625 -0.11425,-0.298828 0,-0.07031 0.0264,-0.149414 z m -1.40625,7.101562 q 0,-0.175781 0.12305,-0.298828 0.12305,-0.123047 0.29004,-0.123047 0.17578,0 0.29883,0.123047 0.12304,0.123047 0.12304,0.298828 0,0.166992 -0.12304,0.290039 Q 480.17578,98 480,98 q -0.16699,0 -0.29004,-0.123047 -0.12305,-0.123047 -0.12305,-0.290039 z m 0,-7.21582 q 0,-0.175782 0.12305,-0.298828 0.12305,-0.123047 0.29004,-0.123047 0.17578,0 0.29883,0.123047 0.12304,0.123046 0.12304,0.298828 0,0.166992 -0.12304,0.290039 -0.12305,0.123047 -0.29883,0.123047 -0.16699,0 -0.29004,-0.123047 -0.12305,-0.123047 -0.12305,-0.290039 z m 1.76661,-4.042969 q -0.0439,0.606445 -0.43067,1.212891 -0.39551,0.606445 -1.24805,1.142578 l -0.34277,-0.290039 q 0.72949,-0.667969 0.78223,-1.441407 0.0351,-0.46582 -0.2461,-0.808593 -0.29004,-0.351563 -0.98437,-0.360352 l -0.0967,-0.369141 q 0.0967,-0.114257 0.45703,-0.254882 0.36035,-0.140625 0.75586,-0.237305 0.38672,-0.105469 0.57129,-0.0791 0.4834,0.202149 0.65039,0.624024 0.16699,0.413086 0.13184,0.861328 z"
   id="t3"
   style="font-size:18px;line-height:0%;font-family:'Gentium Plus Compact';text-align:center;text-anchor:middle;fill:#111111"
   class="dead"
   aria-label="◌̓" />&#10;&#10;</svg>
