<?xml version="1.0" encoding="UTF-8" standalone="no"?>
<svg
   version="1.1"
   id="Ebene_1"
   height="183"
   width="535"
   viewBox="0 0 535 183"
   enable-background="new 0 0 535 183"
   xml:space="preserve"
   inkscape:version="0.48.5 r10040"
   sodipodi:docname="noted-1-tkl.svg"
   inkscape:export-xdpi="90"
   inkscape:export-ydpi="90"
   xmlns:inkscape="http://www.inkscape.org/namespaces/inkscape"
   xmlns:sodipodi="http://sodipodi.sourceforge.net/DTD/sodipodi-0.dtd"
   xmlns:xlink="http://www.w3.org/1999/xlink"
   xmlns="http://www.w3.org/2000/svg"
   xmlns:svg="http://www.w3.org/2000/svg"
   xmlns:rdf="http://www.w3.org/1999/02/22-rdf-syntax-ns#"
   xmlns:cc="http://creativecommons.org/ns#"
   xmlns:dc="http://purl.org/dc/elements/1.1/">

  <metadata
   id="metadata135">
    <rdf:RDF>
      <cc:Work
   rdf:about="">
        <dc:format>image/svg+xml</dc:format>
        <dc:type
   rdf:resource="http://purl.org/dc/dcmitype/StillImage" />
        <dc:title />
      </cc:Work>
    </rdf:RDF>
  </metadata>

<defs
   id="defs">
<style
   type="text/css"
   id="style46661">
text.mod, text.key, text.dead {
	fill:#111;
	fill-opacity:1;
    stroke:none;
    font-style:normal;
    font-variant:normal;
    font-weight:normal;
    font-stretch:normal;
    display:inline;
    font-family:DejaVu Sans;
    writing-mode:lr-tb;
}

text.key {
    font-family:Linux Libertine;
}

text.dead {
    font-family: Gentium Plus Compact; 
}

text.mod {
    text-align:start;
    text-anchor:start;
}

text.space, text.dead, text.center, text.key {
    text-align:center;
    text-anchor:middle;
}

text.key { font-size:20px; }
text.dead { font-size:20px; }
text.mod { font-size:10px; }
text.big { font-size:14px; }

.key {
stroke-width:1.25;
}

.grey { fill:#949494; stroke:#696969; }
.grey { fill:#9f9f9f; stroke:#747474; }

.numpad { fill:#afaa9f; stroke:#747474; }

/* bootstrap colors */
.l5, .r5 { fill:#93CCEA; }
.l4, .r4 { fill:#7abeb3; }
.l3, .r3 { fill:#63b280; }
.l2, .r2 { fill:#4aa44a; }

/* btn bg hover, unused */
.l2, .r2 { stroke:#3071a9; }
.l3, .r3 { stroke:#449d44; }
.l4, .r4 { stroke:#c9302c; }
.l5, .r5 { stroke:#ec971f; }

/* btn border hover */
.l2, .r2 { stroke:#204d74; }
.l3, .r3 { stroke:#204d74; }
.l4, .r4 { stroke:#204d74; }
.l5, .r5 { stroke:#204d74; }

text.nubkey { fill:#eee; }

.pressed {
	<!--opacity:0.5;-->
	fill:#777;
}
    </style>

    <g
   id="basekey">
        <rect
   width="32"
   height="32"
   rx="4"
   class="key"
   id="rect4" />
	<!--rect width="20" height="20" x="6" y="6" /-->
        <!--rect width="2" height="2" fill="#000" x="15" y="15" /-->
    </g>

    </defs>
<sodipodi:namedview
   pagecolor="#ffffff"
   bordercolor="#666666"
   borderopacity="1"
   objecttolerance="10"
   gridtolerance="10"
   guidetolerance="10"
   inkscape:pageopacity="0"
   inkscape:pageshadow="2"
   inkscape:window-width="1614"
   inkscape:window-height="969"
   id="base"
   showgrid="false"
   inkscape:zoom="0.70961538"
   inkscape:cx="685.32105"
   inkscape:cy="241.15395"
   inkscape:window-x="78"
   inkscape:window-y="71"
   inkscape:window-maximized="0"
   inkscape:current-layer="Ebene_1"
   inkscape:showpageshadow="2"
   inkscape:pagecheckerboard="0"
   inkscape:deskcolor="#d1d1d1" />

<g
   transform="translate(3.5,3.5)"
   id="g148">
<use
   xlink:href="#basekey"
   y="0"
   x="0"
   class="l5"
   id="use9" />
<use
   xlink:href="#basekey"
   y="0"
   x="36"
   class="l5"
   id="use11" />
<use
   xlink:href="#basekey"
   y="0"
   x="72"
   class="l5"
   id="use13" />
<use
   xlink:href="#basekey"
   y="0"
   x="108"
   class="l4"
   id="use15" />
<use
   xlink:href="#basekey"
   y="0"
   x="144"
   class="l3"
   id="use17" />
<use
   xlink:href="#basekey"
   y="0"
   x="180"
   class="l2"
   id="use19" />
<use
   xlink:href="#basekey"
   y="0"
   x="216"
   class="l2"
   id="use21" />

<use
   xlink:href="#basekey"
   y="0"
   x="252"
   class="r2"
   id="use23" />
<use
   xlink:href="#basekey"
   y="0"
   x="288"
   class="r2"
   id="use25" />
<use
   xlink:href="#basekey"
   y="0"
   x="324"
   class="r3"
   id="use27" />
<use
   xlink:href="#basekey"
   y="0"
   x="360"
   class="r4"
   id="use29" />
<use
   xlink:href="#basekey"
   y="0"
   x="396"
   class="r5"
   id="use31" />
<use
   xlink:href="#basekey"
   y="0"
   x="432"
   class="r5"
   id="use33" />


<use
   xlink:href="#basekey"
   y="36"
   x="54"
   class="l5"
   id="use35" />
<use
   xlink:href="#basekey"
   y="36"
   x="90"
   class="l4"
   id="use37" />
<use
   xlink:href="#basekey"
   y="36"
   x="126"
   class="l3"
   id="use39" />
<use
   xlink:href="#basekey"
   y="36"
   x="162"
   class="l2"
   id="use41" />
<use
   xlink:href="#basekey"
   y="36"
   x="198"
   class="l2"
   id="use43" />

<use
   xlink:href="#basekey"
   y="36"
   x="234"
   class="r2"
   id="use45" />
<use
   xlink:href="#basekey"
   y="36"
   x="270"
   class="r2"
   id="use47" />
<use
   xlink:href="#basekey"
   y="36"
   x="306"
   class="r3"
   id="use49" />
<use
   xlink:href="#basekey"
   y="36"
   x="342"
   class="r4"
   id="use51" />
<use
   xlink:href="#basekey"
   y="36"
   x="378"
   class="r5"
   id="use53" />
<use
   xlink:href="#basekey"
   y="36"
   x="414"
   class="r5"
   id="use55" />
<use
   xlink:href="#basekey"
   y="36"
   x="450"
   class="r5"
   id="use57" />


<use
   xlink:href="#basekey"
   y="72"
   x="64"
   class="l5"
   id="use59" />
<use
   xlink:href="#basekey"
   y="72"
   x="100"
   class="l4"
   id="use61" />
<use
   xlink:href="#basekey"
   y="72"
   x="136"
   class="l3"
   id="use63" />
<use
   xlink:href="#basekey"
   y="72"
   x="172"
   class="l2"
   id="use65" />
<use
   xlink:href="#basekey"
   y="72"
   x="208"
   class="l2"
   id="use67" />

<use
   xlink:href="#basekey"
   y="72"
   x="244"
   class="r2"
   id="use69" />
<use
   xlink:href="#basekey"
   y="72"
   x="280"
   class="r2"
   id="use71" />
<use
   xlink:href="#basekey"
   y="72"
   x="316"
   class="r3"
   id="use73" />
<use
   xlink:href="#basekey"
   y="72"
   x="352"
   class="r4"
   id="use75" />
<use
   xlink:href="#basekey"
   y="72"
   x="388"
   class="r5"
   id="use77" />

    <use
   xlink:href="#basekey"
   y="72"
   x="460"
   class="r5"
   id="use79" />



<use
   xlink:href="#basekey"
   y="108"
   x="82"
   class="l5"
   id="use81" />
<use
   xlink:href="#basekey"
   y="108"
   x="118"
   class="l4"
   id="use83" />
<use
   xlink:href="#basekey"
   y="108"
   x="154"
   class="l3"
   id="use85" />
<use
   xlink:href="#basekey"
   y="108"
   x="190"
   class="l2"
   id="use87" />
<use
   xlink:href="#basekey"
   y="108"
   x="226"
   class="l2"
   id="use89" />

<use
   xlink:href="#basekey"
   y="108"
   x="262"
   class="r2"
   id="use91" />
<use
   xlink:href="#basekey"
   y="108"
   x="298"
   class="r2"
   id="use93" />
<use
   xlink:href="#basekey"
   y="108"
   x="334"
   class="r3"
   id="use95" />
<use
   xlink:href="#basekey"
   y="108"
   x="370"
   class="r4"
   id="use97" />
<use
   xlink:href="#basekey"
   y="108"
   x="406"
   class="r5"
   id="use99" />


<path
   id="backspace"
   class="key grey"
   style="fill:#9f9f9f;stroke:#747474;stroke-width:1.25"
   d="m 472,0 h 52 c 2.216,0 4,1.784 4,4 v 24 c 0,2.216 -1.784,4 -4,4 h -52 c -2.216,0 -4,-1.784 -4,-4 V 4 c 0,-2.216 1.784,-4 4,-4 z" />

<path
   id="tab"
   class="key grey"
   style="fill:#9f9f9f;stroke:#747474;stroke-width:1.25"
   d="m 4,36 h 42 c 2.216,0 4,1.784 4,4 v 24 c 0,2.216 -1.784,4 -4,4 H 4 C 1.784,68 0,66.216 0,64 V 40 c 0,-2.216 1.784,-4 4,-4 z" />

<path
   id="m3l"
   class="key grey"
   style="fill:#9f9f9f;stroke:#747474;stroke-width:1.25"
   d="m 4,72 h 52 c 2.216,0 4,1.784 4,4 v 24 c 0,2.216 -1.784,4 -4,4 H 4 c -2.216,0 -4,-1.784 -4,-4 V 76 c 0,-2.216 1.784,-4 4,-4 z" />

<use
   id="m3r"
   xlink:href="#basekey"
   x="424"
   y="72"
   class="key grey" />


<path
   id="shiftl"
   class="key grey"
   style="fill:#9f9f9f;stroke:#747474;stroke-width:1.25"
   d="m 4,108 h 32 c 2.216,0 4,1.784 4,4 v 24 c 0,2.216 -1.784,4 -4,4 H 4 c -2.216,0 -4,-1.784 -4,-4 v -24 c 0,-2.216 1.784,-4 4,-4 z" />
<path
   id="m4l"
   class="key grey"
   style="fill:#9f9f9f;stroke:#747474;stroke-width:1.25"
   d="m 48,108 h 26 c 2.216,0 4,1.784 4,4 v 24 c 0,2.216 -1.784,4 -4,4 H 48 c -2.216,0 -4,-1.784 -4,-4 v -24 c 0,-2.216 1.784,-4 4,-4 z" />
<path
   id="shiftr"
   class="key grey"
   style="fill:#9f9f9f;stroke:#747474;stroke-width:1.25"
   d="m 446,108 h 78 c 2.216,0 4,1.784 4,4 v 24 c 0,2.216 -1.784,4 -4,4 h -78 c -2.216,0 -4,-1.784 -4,-4 v -24 c 0,-2.216 1.784,-4 4,-4 z" />

<path
   id="ctrll"
   class="key grey"
   style="fill:#9f9f9f;stroke:#747474;stroke-width:1.25"
   d="m 4,144 h 42 c 2.216,0 4,1.784 4,4 v 24 c 0,2.216 -1.784,4 -4,4 H 4 c -2.216,0 -4,-1.784 -4,-4 v -24 c 0,-2.216 1.784,-4 4,-4 z" />
<path
   id="altl"
   class="key grey"
   style="fill:#9f9f9f;stroke:#747474;stroke-width:1.25"
   d="m 128,144 h 40 c 2.216,0 4,1.784 4,4 v 24 c 0,2.216 -1.784,4 -4,4 h -40 c -2.216,0 -4,-1.784 -4,-4 v -24 c 0,-2.216 1.784,-4 4,-4 z" />
<path
   id="space"
   class="key grey"
   style="fill:#9f9f9f;stroke:#747474;stroke-width:1.25"
   d="m 180,144 h 160 c 2.216,0 4,1.784 4,4 v 24 c 0,2.216 -1.784,4 -4,4 H 180 c -2.216,0 -4,-1.784 -4,-4 v -24 c 0,-2.216 1.784,-4 4,-4 z" />
<path
   id="m4r"
   class="key grey"
   style="fill:#9f9f9f;stroke:#747474;stroke-width:1.25"
   d="m 352,144 h 40 c 2.216,0 4,1.784 4,4 v 24 c 0,2.216 -1.784,4 -4,4 h -40 c -2.216,0 -4,-1.784 -4,-4 v -24 c 0,-2.216 1.784,-4 4,-4 z" />
<path
   id="ctrlr"
   class="key grey"
   style="fill:#9f9f9f;stroke:#747474;stroke-width:1.25"
   d="m 482,144 h 42 c 2.216,0 4,1.784 4,4 v 24 c 0,2.216 -1.784,4 -4,4 h -42 c -2.216,0 -4,-1.784 -4,-4 v -24 c 0,-2.216 1.784,-4 4,-4 z" />

<use
   xlink:href="#basekey"
   y="0"
   x="542"
   class="key numpad"
   id="use113" />
<use
   xlink:href="#basekey"
   y="0"
   x="578"
   class="key numpad"
   id="use115" />
<use
   xlink:href="#basekey"
   y="0"
   x="614"
   class="key numpad"
   id="use117" />
<use
   xlink:href="#basekey"
   y="0"
   x="650"
   class="key numpad"
   id="use119" />

<use
   xlink:href="#basekey"
   y="36"
   x="542"
   class="key numpad"
   id="use121" />
<use
   xlink:href="#basekey"
   y="36"
   x="578"
   class="key numpad"
   id="use123" />
<use
   xlink:href="#basekey"
   y="36"
   x="614"
   class="key numpad"
   id="use125" />
<path
   id="kpplus"
   class="key numpad"
   style="fill:#afaa9f;stroke:#747474;stroke-width:1.25"
   d="m 654,36 h 24 c 2.216,0 4,1.784 4,4 v 60 c 0,2.216 -1.784,4 -4,4 h -24 c -2.216,0 -4,-1.784 -4,-4 V 40 c 0,-2.216 1.784,-4 4,-4 z" />

<use
   xlink:href="#basekey"
   y="72"
   x="542"
   class="key numpad"
   id="use128" />
<use
   xlink:href="#basekey"
   y="72"
   x="578"
   class="key numpad"
   id="use130" />
<use
   xlink:href="#basekey"
   y="72"
   x="614"
   class="key numpad"
   id="use132" />

<use
   xlink:href="#basekey"
   y="108"
   x="542"
   class="key numpad"
   id="use134" />
<use
   xlink:href="#basekey"
   y="108"
   x="578"
   class="key numpad"
   id="use136" />
<use
   xlink:href="#basekey"
   y="108"
   x="614"
   class="key numpad"
   id="use138" />
<path
   id="kppenter"
   class="key numpad"
   style="fill:#afaa9f;stroke:#747474;stroke-width:1.25"
   d="m 654,108 h 24 c 2.216,0 4,1.784 4,4 v 60 c 0,2.216 -1.784,4 -4,4 h -24 c -2.216,0 -4,-1.784 -4,-4 v -60 c 0,-2.216 1.784,-4 4,-4 z" />

<path
   id="kp0"
   class="key numpad"
   style="fill:#afaa9f;stroke:#747474;stroke-width:1.25"
   d="m 546,144 h 60 c 2.216,0 4,1.784 4,4 v 24 c 0,2.216 -1.784,4 -4,4 h -60 c -2.216,0 -4,-1.784 -4,-4 v -24 c 0,-2.216 1.784,-4 4,-4 z" />
<use
   xlink:href="#basekey"
   y="144"
   x="614"
   class="key numpad"
   id="use142" />

<path
   fill-rule="evenodd"
   clip-rule="evenodd"
   d="M 10,32 H 4 A 4,4 0 0 1 0,28 V 4 A 4,4 0 0 1 4,0 h 34 a 4,4 0 0 1 4,4 v 60 a 4,4 0 0 1 -4,4 H 14 a 4,4 0 0 1 -4,-4 z"
   transform="translate(486,36)"
   id="return"
   class="key grey" />

<path
   id="nub"
   style="fill:#eeeeee"
   d="m 182,101 h 12 c 0.554,0 1,0.223 1,0.5 0,0.277 -0.446,0.5 -1,0.5 h -12 c -0.554,0 -1,-0.223 -1,-0.5 0,-0.277 0.446,-0.5 1,-0.5 z" />
<use
   y="0"
   x="108"
   xlink:href="#nub"
   id="use146" />
</g>

<g
   transform="translate(-0.5,-0.5)"
   id="g163">
<g
   aria-label="Mod3"
   id="m3ltxt"
   style="font-size:10px;line-height:0%;font-family:'DejaVu Sans';display:inline;fill:#111111"
   class="mod"><path
     d="m 10.981445,88.709961 h 1.469727 l 1.860351,4.960937 1.870118,-4.960937 h 1.469726 V 96 h -0.961914 v -6.401367 l -1.879883,5 h -0.991211 l -1.879882,-5 V 96 h -0.957032 z"
     id="path328" /><path
     d="m 21.689453,91.161133 q -0.722656,0 -1.142578,0.566406 -0.419922,0.561523 -0.419922,1.542969 0,0.981445 0.415039,1.547851 0.419922,0.561524 1.147461,0.561524 0.717774,0 1.137695,-0.566406 0.419922,-0.566407 0.419922,-1.542969 0,-0.97168 -0.419922,-1.538086 -0.419921,-0.571289 -1.137695,-0.571289 z m 0,-0.761719 q 1.171875,0 1.84082,0.761719 0.668946,0.761719 0.668946,2.109375 0,1.342773 -0.668946,2.109375 -0.668945,0.761719 -1.84082,0.761719 -1.176758,0 -1.845703,-0.761719 -0.664063,-0.766602 -0.664063,-2.109375 0,-1.347656 0.664063,-2.109375 0.668945,-0.761719 1.845703,-0.761719 z"
     id="path330" /><path
     d="m 29.287109,91.361328 v -2.958984 h 0.898438 V 96 h -0.898438 v -0.820313 q -0.283203,0.488282 -0.717773,0.72754 -0.429688,0.234375 -1.035156,0.234375 -0.991211,0 -1.616211,-0.791016 -0.620117,-0.791016 -0.620117,-2.080078 0,-1.289063 0.620117,-2.080078 0.625,-0.791016 1.616211,-0.791016 0.605468,0 1.035156,0.239258 0.43457,0.234375 0.717773,0.722656 z m -3.061523,1.90918 q 0,0.991211 0.405273,1.557617 0.410157,0.561523 1.123047,0.561523 0.712891,0 1.123047,-0.561523 0.410156,-0.566406 0.410156,-1.557617 0,-0.991211 -0.410156,-1.552735 -0.410156,-0.566406 -1.123047,-0.566406 -0.71289,0 -1.123047,0.566406 -0.405273,0.561524 -0.405273,1.552735 z"
     id="path332" /><path
     d="m 35.151367,92.069336 q 0.708008,0.151367 1.103516,0.629883 0.40039,0.478515 0.40039,1.18164 0,1.079102 -0.742187,1.669922 -0.742188,0.590821 -2.109375,0.590821 -0.458984,0 -0.947266,-0.09277 -0.483398,-0.08789 -1.000976,-0.268555 v -0.952148 q 0.410156,0.239258 0.898437,0.361328 0.488281,0.12207 1.020508,0.12207 0.927734,0 1.411133,-0.366211 0.488281,-0.36621 0.488281,-1.064453 0,-0.644531 -0.454101,-1.005859 -0.449219,-0.366211 -1.254883,-0.366211 h -0.84961 v -0.810547 h 0.888672 q 0.727539,0 1.113281,-0.288086 0.385743,-0.292969 0.385743,-0.839844 0,-0.561523 -0.400391,-0.859375 -0.395508,-0.302734 -1.137695,-0.302734 -0.405274,0 -0.869141,0.08789 -0.463867,0.08789 -1.020508,0.273437 v -0.878906 q 0.561524,-0.15625 1.049805,-0.234375 0.493164,-0.07813 0.927734,-0.07813 1.123047,0 1.777344,0.512695 0.654297,0.507813 0.654297,1.376953 0,0.605469 -0.34668,1.025391 -0.346679,0.415039 -0.986328,0.576172 z"
     id="path334" /></g>
<g
   aria-label="⇧"
   id="shiftltxt"
   style="font-size:14px;line-height:0%;font-family:'DejaVu Sans';display:inline;fill:#111111"
   class="mod big"><path
     d="m 17.683594,125.23438 -1.81836,-1.81836 -1.818359,1.81836 h 0.895508 v 7.08203 h 1.845703 v -7.08203 z m -5.291016,0.68359 3.472656,-3.47266 3.472657,3.47266 H 17.47168 V 133 h -3.212891 v -7.08203 z"
     id="path337" /></g>
<g
   aria-label="Strg"
   id="ctrlltxt"
   style="font-size:10px;line-height:0%;font-family:'DejaVu Sans';display:inline;fill:#111111"
   class="mod"><path
     d="m 15.351563,160.94922 v 0.96191 q -0.561524,-0.26855 -1.059571,-0.40039 -0.498047,-0.13183 -0.961914,-0.13183 -0.805664,0 -1.245117,0.3125 -0.43457,0.3125 -0.43457,0.88867 0,0.4834 0.288086,0.73242 0.292968,0.24414 1.103515,0.39551 l 0.595703,0.12207 q 1.103516,0.20996 1.625977,0.74219 0.527344,0.52734 0.527344,1.41601 0,1.05957 -0.712891,1.60645 -0.708008,0.54687 -2.080078,0.54687 -0.517578,0 -1.103516,-0.11719 -0.581054,-0.11718 -1.206054,-0.34668 v -1.01562 q 0.600586,0.33691 1.176757,0.50781 0.576172,0.1709 1.132813,0.1709 0.844726,0 1.303711,-0.33203 0.458984,-0.33203 0.458984,-0.94727 0,-0.53711 -0.332031,-0.83984 -0.327148,-0.30273 -1.079102,-0.4541 l -0.600586,-0.11719 q -1.103515,-0.21973 -1.596679,-0.68848 -0.493164,-0.46875 -0.493164,-1.30371 0,-0.96679 0.678711,-1.52343 0.683593,-0.55665 1.879882,-0.55665 0.512696,0 1.044922,0.0928 0.532227,0.0928 1.088868,0.27832 z"
     id="path340" /><path
     d="m 18.178711,160.97852 v 1.55273 h 1.850586 v 0.69824 h -1.850586 v 2.96875 q 0,0.66895 0.180664,0.85938 0.185547,0.19043 0.74707,0.19043 h 0.922852 V 168 h -0.922852 q -1.040039,0 -1.435547,-0.38574 -0.395507,-0.39063 -0.395507,-1.41602 v -2.96875 h -0.65918 v -0.69824 h 0.65918 v -1.55273 z"
     id="path342" /><path
     d="m 24.379883,163.37109 q -0.151367,-0.0879 -0.332031,-0.12695 -0.175782,-0.0439 -0.390625,-0.0439 -0.761719,0 -1.171875,0.49804 -0.405274,0.49317 -0.405274,1.4209 V 168 h -0.90332 v -5.46875 h 0.90332 v 0.84961 q 0.283203,-0.49805 0.737305,-0.73731 0.454101,-0.24414 1.103515,-0.24414 0.09277,0 0.205079,0.0147 0.112304,0.01 0.249023,0.0342 z"
     id="path344" /><path
     d="m 28.745117,165.20215 q 0,-0.97656 -0.405273,-1.51367 -0.400391,-0.53711 -1.12793,-0.53711 -0.722656,0 -1.12793,0.53711 -0.40039,0.53711 -0.40039,1.51367 0,0.97168 0.40039,1.50879 0.405274,0.53711 1.12793,0.53711 0.727539,0 1.12793,-0.53711 0.405273,-0.53711 0.405273,-1.50879 z m 0.898438,2.11914 q 0,1.39648 -0.620118,2.07519 -0.620117,0.6836 -1.899414,0.6836 -0.473632,0 -0.893554,-0.0732 -0.419922,-0.0684 -0.81543,-0.21485 v -0.87402 q 0.395508,0.21484 0.78125,0.31738 0.385742,0.10254 0.786133,0.10254 0.883789,0 1.323242,-0.46387 0.439453,-0.45898 0.439453,-1.3916 v -0.44433 q -0.27832,0.48339 -0.71289,0.72265 Q 27.597656,168 26.992187,168 q -1.005859,0 -1.621093,-0.7666 -0.615235,-0.7666 -0.615235,-2.03125 0,-1.26953 0.615235,-2.03613 0.615234,-0.76661 1.621093,-0.76661 0.605469,0 1.04004,0.23926 0.43457,0.23926 0.71289,0.72266 v -0.83008 h 0.898438 z"
     id="path346" /></g>

<g
   aria-label="M4"
   id="m4ltxt"
   style="font-size:10px;line-height:0%;font-family:'DejaVu Sans';display:inline;fill:#111111"
   class="mod"><path
     d="m 56.981445,124.70996 h 1.469727 l 1.860351,4.96094 1.870118,-4.96094 h 1.469726 V 132 h -0.961914 v -6.40137 l -1.879883,5 h -0.991211 l -1.879882,-5 V 132 h -0.957032 z"
     id="path349" /><path
     d="m 68.407227,125.56934 -2.490235,3.8916 h 2.490235 z m -0.25879,-0.85938 h 1.240235 v 4.75098 h 1.040039 v 0.82031 H 69.388672 V 132 h -0.981445 v -1.71875 h -3.291016 v -0.95215 z"
     id="path351" /></g>
<g
   aria-label="Alt"
   id="altltxt"
   style="font-size:10px;line-height:0%;font-family:'DejaVu Sans';display:inline;fill:#111111"
   class="mod"><path
     d="m 138.41797,161.68164 -1.33789,3.62793 h 2.68066 z m -0.55664,-0.97168 h 1.11816 L 141.75781,168 h -1.02539 l -0.66406,-1.87012 h -3.28613 L 136.11816,168 h -1.04004 z"
     id="path354" /><path
     d="m 142.7832,160.40234 h 0.89844 V 168 h -0.89844 z"
     id="path356" /><path
     d="m 146.4502,160.97852 v 1.55273 h 1.85058 v 0.69824 h -1.85058 v 2.96875 q 0,0.66895 0.18066,0.85938 0.18555,0.19043 0.74707,0.19043 h 0.92285 V 168 h -0.92285 q -1.04004,0 -1.43555,-0.38574 -0.39551,-0.39063 -0.39551,-1.41602 v -2.96875 h -0.65917 v -0.69824 h 0.65917 v -1.55273 z"
     id="path358" /></g>


<g
   aria-label="M3"
   id="m3rtxt"
   style="font-size:10px;line-height:0%;font-family:'DejaVu Sans';display:inline;fill:#111111"
   class="mod"><path
     d="m 436.98145,88.709961 h 1.46972 l 1.86035,4.960937 1.87012,-4.960937 h 1.46973 V 96 h -0.96192 v -6.401367 l -1.87988,5 h -0.99121 l -1.87988,-5 V 96 h -0.95703 z"
     id="path361" /><path
     d="m 448.68555,92.069336 q 0.708,0.151367 1.10351,0.629883 0.40039,0.478515 0.40039,1.18164 0,1.079102 -0.74218,1.669922 -0.74219,0.590821 -2.10938,0.590821 -0.45898,0 -0.94727,-0.09277 -0.48339,-0.08789 -1.00097,-0.268555 v -0.952148 q 0.41015,0.239258 0.89844,0.361328 0.48828,0.12207 1.0205,0.12207 0.92774,0 1.41114,-0.366211 0.48828,-0.36621 0.48828,-1.064453 0,-0.644531 -0.4541,-1.005859 -0.44922,-0.366211 -1.25489,-0.366211 h -0.84961 v -0.810547 h 0.88868 q 0.72753,0 1.11328,-0.288086 0.38574,-0.292969 0.38574,-0.839844 0,-0.561523 -0.40039,-0.859375 -0.39551,-0.302734 -1.1377,-0.302734 -0.40527,0 -0.86914,0.08789 -0.46386,0.08789 -1.02051,0.273437 v -0.878906 q 0.56153,-0.15625 1.04981,-0.234375 0.49316,-0.07813 0.92773,-0.07813 1.12305,0 1.77735,0.512695 0.65429,0.507813 0.65429,1.376953 0,0.605469 -0.34668,1.025391 -0.34667,0.415039 -0.98632,0.576172 z"
     id="path363" /></g>


<g
   aria-label="⇧"
   id="shiftrtxt"
   style="font-size:14px;line-height:0%;font-family:'DejaVu Sans';display:inline;fill:#111111"
   class="mod big"><path
     d="m 457.68359,125.23438 -1.81836,-1.81836 -1.81836,1.81836 h 0.89551 v 7.08203 h 1.84571 v -7.08203 z m -5.29101,0.68359 3.47265,-3.47266 3.47266,3.47266 h -1.86621 V 133 h -3.21289 v -7.08203 z"
     id="path366" /></g>
<g
   aria-label="Strg"
   id="ctrlrtxt"
   style="font-size:10px;line-height:0%;font-family:'DejaVu Sans';display:inline;fill:#111111"
   class="mod"><path
     d="m 495.35156,160.94922 v 0.96191 q -0.56152,-0.26855 -1.05957,-0.40039 -0.49804,-0.13183 -0.96191,-0.13183 -0.80567,0 -1.24512,0.3125 -0.43457,0.3125 -0.43457,0.88867 0,0.4834 0.28809,0.73242 0.29297,0.24414 1.10351,0.39551 l 0.59571,0.12207 q 1.10351,0.20996 1.62597,0.74219 0.52735,0.52734 0.52735,1.41601 0,1.05957 -0.7129,1.60645 -0.708,0.54687 -2.08007,0.54687 -0.51758,0 -1.10352,-0.11719 -0.58105,-0.11718 -1.20605,-0.34668 v -1.01562 q 0.60058,0.33691 1.17675,0.50781 0.57618,0.1709 1.13282,0.1709 0.84472,0 1.30371,-0.33203 0.45898,-0.33203 0.45898,-0.94727 0,-0.53711 -0.33203,-0.83984 -0.32715,-0.30273 -1.0791,-0.4541 l -0.60059,-0.11719 q -1.10351,-0.21973 -1.59668,-0.68848 -0.49316,-0.46875 -0.49316,-1.30371 0,-0.96679 0.67871,-1.52343 0.68359,-0.55665 1.87988,-0.55665 0.5127,0 1.04493,0.0928 0.53222,0.0928 1.08886,0.27832 z"
     id="path369" /><path
     d="m 498.17871,160.97852 v 1.55273 h 1.85059 v 0.69824 h -1.85059 v 2.96875 q 0,0.66895 0.18066,0.85938 0.18555,0.19043 0.74708,0.19043 h 0.92285 V 168 h -0.92285 q -1.04004,0 -1.43555,-0.38574 -0.39551,-0.39063 -0.39551,-1.41602 v -2.96875 h -0.65918 v -0.69824 h 0.65918 v -1.55273 z"
     id="path371" /><path
     d="m 504.37988,163.37109 q -0.15136,-0.0879 -0.33203,-0.12695 -0.17578,-0.0439 -0.39062,-0.0439 -0.76172,0 -1.17188,0.49804 -0.40527,0.49317 -0.40527,1.4209 V 168 h -0.90332 v -5.46875 h 0.90332 v 0.84961 q 0.2832,-0.49805 0.7373,-0.73731 0.4541,-0.24414 1.10352,-0.24414 0.0928,0 0.20508,0.0147 0.1123,0.01 0.24902,0.0342 z"
     id="path373" /><path
     d="m 508.74512,165.20215 q 0,-0.97656 -0.40528,-1.51367 -0.40039,-0.53711 -1.12793,-0.53711 -0.72265,0 -1.12793,0.53711 -0.40039,0.53711 -0.40039,1.51367 0,0.97168 0.40039,1.50879 0.40528,0.53711 1.12793,0.53711 0.72754,0 1.12793,-0.53711 0.40528,-0.53711 0.40528,-1.50879 z m 0.89843,2.11914 q 0,1.39648 -0.62011,2.07519 -0.62012,0.6836 -1.89942,0.6836 -0.47363,0 -0.89355,-0.0732 -0.41992,-0.0684 -0.81543,-0.21485 v -0.87402 q 0.39551,0.21484 0.78125,0.31738 0.38574,0.10254 0.78613,0.10254 0.88379,0 1.32324,-0.46387 0.43946,-0.45898 0.43946,-1.3916 v -0.44433 q -0.27832,0.48339 -0.71289,0.72265 Q 507.59766,168 506.99219,168 q -1.00586,0 -1.6211,-0.7666 -0.61523,-0.7666 -0.61523,-2.03125 0,-1.26953 0.61523,-2.03613 0.61524,-0.76661 1.6211,-0.76661 0.60547,0 1.04004,0.23926 0.43457,0.23926 0.71289,0.72266 v -0.83008 h 0.89843 z"
     id="path375" /></g>
<g
   aria-label="Mod4"
   id="m4rtxt"
   style="font-size:10px;line-height:0%;font-family:'DejaVu Sans';display:inline;fill:#111111"
   class="mod"><path
     d="m 357.98145,160.70996 h 1.46972 l 1.86035,4.96094 1.87012,-4.96094 h 1.46973 V 168 h -0.96192 v -6.40137 l -1.87988,5 h -0.99121 l -1.87988,-5 V 168 h -0.95703 z"
     id="path378" /><path
     d="m 368.68945,163.16113 q -0.72265,0 -1.14258,0.56641 -0.41992,0.56152 -0.41992,1.54297 0,0.98144 0.41504,1.54785 0.41992,0.56152 1.14746,0.56152 0.71778,0 1.1377,-0.5664 0.41992,-0.56641 0.41992,-1.54297 0,-0.97168 -0.41992,-1.53809 -0.41992,-0.57129 -1.1377,-0.57129 z m 0,-0.76172 q 1.17188,0 1.84082,0.76172 0.66895,0.76172 0.66895,2.10938 0,1.34277 -0.66895,2.10937 -0.66894,0.76172 -1.84082,0.76172 -1.17675,0 -1.8457,-0.76172 -0.66406,-0.7666 -0.66406,-2.10937 0,-1.34766 0.66406,-2.10938 0.66895,-0.76172 1.8457,-0.76172 z"
     id="path380" /><path
     d="m 376.28711,163.36133 v -2.95899 h 0.89844 V 168 h -0.89844 v -0.82031 q -0.2832,0.48828 -0.71777,0.72754 -0.42969,0.23437 -1.03516,0.23437 -0.99121,0 -1.61621,-0.79101 -0.62012,-0.79102 -0.62012,-2.08008 0,-1.28906 0.62012,-2.08008 0.625,-0.79102 1.61621,-0.79102 0.60547,0 1.03516,0.23926 0.43457,0.23438 0.71777,0.72266 z m -3.06152,1.90918 q 0,0.99121 0.40527,1.55761 0.41016,0.56153 1.12305,0.56153 0.71289,0 1.12304,-0.56153 0.41016,-0.5664 0.41016,-1.55761 0,-0.99121 -0.41016,-1.55274 -0.41015,-0.5664 -1.12304,-0.5664 -0.71289,0 -1.12305,0.5664 -0.40527,0.56153 -0.40527,1.55274 z"
     id="path382" /><path
     d="m 381.87305,161.56934 -2.49024,3.8916 h 2.49024 z m -0.25879,-0.85938 h 1.24023 v 4.75098 h 1.04004 v 0.82031 h -1.04004 V 168 h -0.98144 v -1.71875 h -3.29102 v -0.95215 z"
     id="path384" /></g>
<g
   aria-label="Leerzeichen"
   id="text159"
   style="font-size:10px;line-height:0%;font-family:'DejaVu Sans';text-align:center;text-anchor:middle;display:inline;fill:#111111"
   class="mod space"><path
     d="m 233.82275,160.70996 h 0.98633 v 6.45996 h 3.54981 V 168 h -4.53614 z"
     id="path387" /><path
     d="m 243.85693,165.04102 v 0.43945 h -4.13086 q 0.0586,0.92773 0.55664,1.41601 0.50293,0.4834 1.39649,0.4834 0.51758,0 1.00098,-0.12695 0.48828,-0.12695 0.96679,-0.38086 v 0.84961 q -0.4834,0.20508 -0.99121,0.3125 -0.50781,0.10742 -1.03027,0.10742 -1.3086,0 -2.0752,-0.76172 -0.76172,-0.76172 -0.76172,-2.06054 0,-1.34278 0.72266,-2.12891 0.72754,-0.79102 1.95801,-0.79102 1.10351,0 1.74316,0.71289 0.64453,0.70801 0.64453,1.92872 z m -0.89843,-0.26368 q -0.01,-0.7373 -0.41504,-1.17675 -0.40039,-0.43946 -1.06446,-0.43946 -0.75195,0 -1.20605,0.42481 -0.44922,0.4248 -0.51758,1.19629 z"
     id="path389" /><path
     d="m 250.00928,165.04102 v 0.43945 h -4.13086 q 0.0586,0.92773 0.55664,1.41601 0.50293,0.4834 1.39648,0.4834 0.51758,0 1.00098,-0.12695 0.48828,-0.12695 0.9668,-0.38086 v 0.84961 q -0.4834,0.20508 -0.99121,0.3125 -0.50782,0.10742 -1.03028,0.10742 -1.30859,0 -2.07519,-0.76172 -0.76172,-0.76172 -0.76172,-2.06054 0,-1.34278 0.72265,-2.12891 0.72754,-0.79102 1.95801,-0.79102 1.10352,0 1.74317,0.71289 0.64453,0.70801 0.64453,1.92872 z m -0.89844,-0.26368 q -0.01,-0.7373 -0.41504,-1.17675 -0.40039,-0.43946 -1.06445,-0.43946 -0.75196,0 -1.20606,0.42481 -0.44922,0.4248 -0.51758,1.19629 z"
     id="path391" /><path
     d="m 254.65283,163.37109 q -0.15137,-0.0879 -0.33203,-0.12695 -0.17578,-0.0439 -0.39062,-0.0439 -0.76172,0 -1.17188,0.49804 -0.40527,0.49317 -0.40527,1.4209 V 168 h -0.90332 v -5.46875 h 0.90332 v 0.84961 q 0.2832,-0.49805 0.7373,-0.73731 0.4541,-0.24414 1.10352,-0.24414 0.0928,0 0.20508,0.0147 0.1123,0.01 0.24902,0.0342 z"
     id="path393" /><path
     d="m 255.20459,162.53125 h 4.26758 v 0.82031 l -3.37891,3.93067 h 3.37891 V 168 h -4.38965 v -0.82031 l 3.37891,-3.93067 h -3.25684 z"
     id="path395" /><path
     d="m 265.52197,165.04102 v 0.43945 h -4.13086 q 0.0586,0.92773 0.55664,1.41601 0.50293,0.4834 1.39649,0.4834 0.51758,0 1.00097,-0.12695 0.48829,-0.12695 0.9668,-0.38086 v 0.84961 q -0.4834,0.20508 -0.99121,0.3125 -0.50781,0.10742 -1.03027,0.10742 -1.3086,0 -2.0752,-0.76172 -0.76172,-0.76172 -0.76172,-2.06054 0,-1.34278 0.72266,-2.12891 0.72754,-0.79102 1.95801,-0.79102 1.10351,0 1.74316,0.71289 0.64453,0.70801 0.64453,1.92872 z m -0.89843,-0.26368 q -0.01,-0.7373 -0.41504,-1.17675 -0.40039,-0.43946 -1.06446,-0.43946 -0.75195,0 -1.20605,0.42481 -0.44922,0.4248 -0.51758,1.19629 z"
     id="path397" /><path
     d="m 266.99658,162.53125 h 0.89844 V 168 h -0.89844 z m 0,-2.12891 h 0.89844 v 1.1377 h -0.89844 z"
     id="path399" /><path
     d="m 273.71045,162.74121 v 0.83984 q -0.38086,-0.20996 -0.7666,-0.3125 -0.38086,-0.10742 -0.77149,-0.10742 -0.87402,0 -1.35742,0.55664 -0.4834,0.55176 -0.4834,1.55274 0,1.00097 0.4834,1.55761 0.4834,0.55176 1.35742,0.55176 0.39063,0 0.77149,-0.10254 0.38574,-0.10742 0.7666,-0.31738 v 0.83008 q -0.37598,0.17578 -0.78125,0.26367 -0.40039,0.0879 -0.85449,0.0879 -1.23535,0 -1.96289,-0.77637 -0.72754,-0.77636 -0.72754,-2.09472 0,-1.33789 0.73242,-2.10449 0.7373,-0.76661 2.0166,-0.76661 0.41504,0 0.81055,0.0879 0.39551,0.083 0.7666,0.25391 z"
     id="path401" /><path
     d="M 279.81885,164.69922 V 168 h -0.89844 v -3.27148 q 0,-0.77637 -0.30273,-1.16211 -0.30274,-0.38575 -0.90821,-0.38575 -0.72754,0 -1.14746,0.46387 -0.41992,0.46387 -0.41992,1.26465 V 168 h -0.90332 v -7.59766 h 0.90332 v 2.97852 q 0.32227,-0.49316 0.75684,-0.73731 0.43945,-0.24414 1.01074,-0.24414 0.94238,0 1.42578,0.58594 0.4834,0.58106 0.4834,1.71387 z"
     id="path403" /><path
     d="m 286.28857,165.04102 v 0.43945 h -4.13086 q 0.0586,0.92773 0.55665,1.41601 0.50293,0.4834 1.39648,0.4834 0.51758,0 1.00098,-0.12695 0.48828,-0.12695 0.96679,-0.38086 v 0.84961 q -0.4834,0.20508 -0.99121,0.3125 -0.50781,0.10742 -1.03027,0.10742 -1.30859,0 -2.0752,-0.76172 -0.76172,-0.76172 -0.76172,-2.06054 0,-1.34278 0.72266,-2.12891 0.72754,-0.79102 1.95801,-0.79102 1.10351,0 1.74316,0.71289 0.64453,0.70801 0.64453,1.92872 z m -0.89843,-0.26368 q -0.01,-0.7373 -0.41504,-1.17675 -0.40039,-0.43946 -1.06446,-0.43946 -0.75195,0 -1.20605,0.42481 -0.44922,0.4248 -0.51758,1.19629 z"
     id="path405" /><path
     d="M 292.30908,164.69922 V 168 h -0.89844 v -3.27148 q 0,-0.77637 -0.30273,-1.16211 -0.30273,-0.38575 -0.9082,-0.38575 -0.72754,0 -1.14746,0.46387 -0.41993,0.46387 -0.41993,1.26465 V 168 H 287.729 v -5.46875 h 0.90332 v 0.84961 q 0.32227,-0.49316 0.75684,-0.73731 0.43945,-0.24414 1.01074,-0.24414 0.94239,0 1.42578,0.58594 0.4834,0.58106 0.4834,1.71387 z"
     id="path407" /></g>

<g
   aria-label="⏎"
   id="returntxt"
   style="font-size:14px;line-height:0%;font-family:'DejaVu Sans';display:inline;fill:#111111"
   class="mod big"><path
     d="m 498.84863,61.083984 -3.47265,-3.472656 3.47265,-3.472656 v 1.866211 h 3.87598 v -4.210938 h 3.21289 l -0.007,7.423828 h -7.08203 z m -0.68359,-4.395507 v -0.895508 l -1.81836,1.818359 1.81836,1.818359 V 58.53418 h 7.08203 l 0.007,-6.056641 h -1.84571 l -0.007,4.210938 z"
     id="path410" /></g>
<g
   aria-label="⌫"
   id="backspacetxt"
   style="font-size:10px;line-height:0%;font-family:'DejaVu Sans';display:inline;fill:#111111"
   class="mod"><path
     d="m 493.37891,23 h -9.5752 l -3.79883,-3.798828 3.79883,-3.798828 h 9.5752 z m -0.72266,-6.875 h -0.68848 l -3.07617,3.076172 3.07617,3.076172 h 0.68848 z m -6.8457,0 2.56347,2.563477 2.56348,-2.563477 z m 5.12695,6.152344 -2.56348,-2.563477 -2.56347,2.563477 z M 484.79492,16.125 h -0.69336 l -3.07617,3.085937 3.07617,3.066407 h 0.69336 l 3.07617,-3.076172 z"
     id="path413" /></g>
</g>

<g
   transform="translate(55,26)"
   id="g187">
	<g
   aria-label="1"
   id="text165"
   style="font-size:20px;line-height:0%;font-family:'Linux Libertine';text-align:center;text-anchor:middle;display:inline;fill:#111111;stroke-width:1.25"
   class="key"><path
     d="m 1.379995,0 h -1.72000004 v -9.98 q 0,-0.86 0.02,-1.38 0.02,-0.52 0.06,-1.08 -0.32,0.32 -0.58,0.54 -0.25999996,0.22 -0.65999996,0.56 l -1.52,1.24 -0.92,-1.18 3.85999996,-3 H 1.379995 Z"
     id="path416" /></g>
	<g
   aria-label="2"
   id="text167"
   style="font-size:20px;line-height:0%;font-family:'Linux Libertine';text-align:center;text-anchor:middle;display:inline;fill:#111111;stroke-width:1.25"
   class="key"><path
     d="m 40.679995,0 h -9.44 v -1.46 l 3.74,-3.78 q 1.08,-1.08 1.82,-1.92 0.74,-0.84 1.12,-1.64 0.38,-0.82 0.38,-1.78 0,-1.18 -0.7,-1.78 -0.7,-0.62 -1.82,-0.62 -1.04,0 -1.84,0.36 -0.78,0.36 -1.6,1 l -0.94,-1.18 q 0.84,-0.7 1.92,-1.18 1.1,-0.5 2.46,-0.5 2,0 3.16,1.02 1.16,1 1.16,2.78 0,1.12 -0.46,2.1 -0.46,0.98 -1.28,1.94 -0.82,0.94 -1.92,2.02 l -2.98,2.94 v 0.08 h 7.22 z"
     id="path419" /></g>
	<g
   aria-label="3"
   id="text169"
   style="font-size:20px;line-height:0%;font-family:'Linux Libertine';text-align:center;text-anchor:middle;display:inline;fill:#111111;stroke-width:1.25"
   class="key"><path
     d="m 76.139995,-10.94 q 0,1.44 -0.8,2.3 -0.8,0.84 -2.16,1.12 v 0.08 q 1.72,0.2 2.56,1.08 0.84,0.88 0.84,2.3 0,1.24 -0.58,2.22 -0.58,0.96 -1.8,1.5 -1.2,0.54 -3.1,0.54 -1.12,0 -2.08,-0.18 -0.96,-0.16 -1.84,-0.6 v -1.64 q 0.9,0.44 1.94,0.7 1.04,0.24 2,0.24 1.92,0 2.76,-0.74 0.86,-0.76 0.86,-2.08 0,-1.34 -1.06,-1.92 -1.04,-0.6 -2.94,-0.6 h -1.38 v -1.5 h 1.4 q 1.76,0 2.66,-0.74 0.92,-0.74 0.92,-1.96 0,-1.04 -0.7,-1.6 -0.7,-0.58 -1.9,-0.58 -1.16,0 -1.98,0.34 -0.82,0.34 -1.62,0.86 l -0.88,-1.2 q 0.76,-0.6 1.88,-1.04 1.14,-0.44 2.58,-0.44 2.24,0 3.32,1 1.1,1 1.1,2.54 z"
     id="path422" /></g>
	<g
   aria-label="4"
   id="text171"
   style="font-size:20px;line-height:0%;font-family:'Linux Libertine';text-align:center;text-anchor:middle;display:inline;fill:#111111;stroke-width:1.25"
   class="key"><path
     d="m 113.31999,-3.24 h -2.08 V 0 h -1.7 v -3.24 h -6.84 v -1.5 l 6.72,-9.62 h 1.82 v 9.54 h 2.08 z m -3.78,-6.08 q 0,-1.04 0.04,-1.76 0.04,-0.74 0.06,-1.4 h -0.08 q -0.16,0.38 -0.4,0.82 -0.24,0.44 -0.46,0.74 l -4.28,6.1 h 5.12 z"
     id="path425" /></g>
	<g
   aria-label="5"
   id="text173"
   style="font-size:20px;line-height:0%;font-family:'Linux Libertine';text-align:center;text-anchor:middle;display:inline;fill:#111111;stroke-width:1.25"
   class="key"><path
     d="m 143.77999,-8.76 q 2.2,0 3.5,1.1 1.3,1.1 1.3,3.1 0,2.22 -1.42,3.5 -1.4,1.26 -3.92,1.26 -1.1,0 -2.08,-0.2 -0.96,-0.2 -1.62,-0.58 v -1.66 q 0.72,0.44 1.74,0.7 1.04,0.24 1.98,0.24 1.58,0 2.54,-0.74 0.98,-0.76 0.98,-2.34 0,-1.4 -0.86,-2.14 -0.86,-0.76 -2.72,-0.76 -0.56,0 -1.28,0.1 -0.72,0.1 -1.16,0.2 l -0.88,-0.56 0.54,-6.74 h 7.16 v 1.6 h -5.66 l -0.34,4.14 q 0.34,-0.06 0.92,-0.14 0.58,-0.08 1.28,-0.08 z"
     id="path428" /></g>

	<g
   aria-label="6"
   id="text175"
   style="font-size:20px;line-height:0%;font-family:'Linux Libertine';text-align:center;text-anchor:middle;display:inline;fill:#111111;stroke-width:1.25"
   class="key"><path
     d="m 175.37999,-6.1 q 0,-1.54 0.26,-3.02 0.28,-1.5 0.98,-2.7 0.72,-1.22 2,-1.94 1.28,-0.72 3.3,-0.72 0.42,0 0.92,0.04 0.52,0.04 0.84,0.14 v 1.5 q -0.36,-0.12 -0.82,-0.18 -0.44,-0.06 -0.9,-0.06 -1.38,0 -2.3,0.46 -0.92,0.46 -1.46,1.26 -0.52,0.8 -0.76,1.84 -0.24,1.04 -0.3,2.22 h 0.12 q 0.46,-0.7 1.28,-1.18 0.82,-0.5 2.1,-0.5 1.86,0 3,1.14 1.14,1.12 1.14,3.2 0,2.24 -1.24,3.52 -1.22,1.28 -3.3,1.28 -1.36,0 -2.46,-0.68 -1.1,-0.68 -1.76,-2.08 -0.64,-1.4 -0.64,-3.54 z m 4.84,4.82 q 1.26,0 2.04,-0.8 0.78,-0.82 0.78,-2.52 0,-1.36 -0.7,-2.16 -0.68,-0.8 -2.06,-0.8 -0.94,0 -1.64,0.4 -0.7,0.38 -1.1,0.98 -0.38,0.6 -0.38,1.24 0,0.86 0.34,1.72 0.34,0.84 1.02,1.4 0.68,0.54 1.7,0.54 z"
     id="path431" /></g>
	<g
   aria-label="7"
   id="text177"
   style="font-size:20px;line-height:0%;font-family:'Linux Libertine';text-align:center;text-anchor:middle;display:inline;fill:#111111;stroke-width:1.25"
   class="key"><path
     d="m 212.99999,0 5.86,-12.68 h -7.7 v -1.6 h 9.58 v 1.36 l -5.8,12.92 z"
     id="path434" /></g>
	<g
   aria-label="8"
   id="text179"
   style="font-size:20px;line-height:0%;font-family:'Linux Libertine';text-align:center;text-anchor:middle;display:inline;fill:#111111;stroke-width:1.25"
   class="key"><path
     d="m 251.97999,-14.48 q 1.88,0 3.08,0.88 1.2,0.88 1.2,2.54 0,0.86 -0.38,1.5 -0.36,0.64 -0.98,1.14 -0.62,0.48 -1.36,0.86 0.88,0.42 1.6,0.96 0.72,0.52 1.14,1.22 0.44,0.7 0.44,1.68 0,1.8 -1.28,2.86 -1.26,1.04 -3.4,1.04 -2.3,0 -3.54,-1 -1.24,-1.02 -1.24,-2.84 0,-0.98 0.4,-1.7 0.42,-0.72 1.1,-1.24 0.68,-0.52 1.46,-0.88 -1.04,-0.6 -1.78,-1.44 -0.72,-0.86 -0.72,-2.18 0,-1.1 0.56,-1.84 0.56,-0.76 1.52,-1.16 0.96,-0.4 2.18,-0.4 z m -0.02,1.42 q -1.1,0 -1.82,0.54 -0.7,0.52 -0.7,1.52 0,0.74 0.34,1.24 0.36,0.5 0.96,0.86 0.6,0.34 1.32,0.66 1.04,-0.44 1.74,-1.06 0.72,-0.62 0.72,-1.7 0,-1 -0.7,-1.52 -0.7,-0.54 -1.86,-0.54 z m -2.98,9.44 q 0,1.04 0.74,1.74 0.74,0.68 2.28,0.68 1.46,0 2.22,-0.68 0.78,-0.7 0.78,-1.8 0,-1.04 -0.82,-1.72 -0.82,-0.7 -2.18,-1.22 l -0.32,-0.12 q -1.32,0.56 -2.02,1.3 -0.68,0.72 -0.68,1.82 z"
     id="path437" /></g>
	<g
   aria-label="9"
   id="text181"
   style="font-size:20px;line-height:0%;font-family:'Linux Libertine';text-align:center;text-anchor:middle;display:inline;fill:#111111;stroke-width:1.25"
   class="key"><path
     d="m 292.67999,-8.18 q 0,1.54 -0.28,3.04 -0.26,1.48 -0.98,2.7 -0.7,1.2 -2,1.92 -1.28,0.72 -3.3,0.72 -0.4,0 -0.94,-0.06 -0.52,-0.04 -0.86,-0.14 v -1.5 q 0.78,0.26 1.76,0.26 1.4,0 2.3,-0.46 0.92,-0.46 1.46,-1.24 0.54,-0.8 0.78,-1.84 0.24,-1.06 0.28,-2.22 h -0.12 q -0.44,0.68 -1.28,1.18 -0.82,0.48 -2.12,0.48 -1.84,0 -2.98,-1.12 -1.12,-1.14 -1.12,-3.2 0,-1.5 0.56,-2.58 0.58,-1.08 1.6,-1.66 1.02,-0.58 2.4,-0.58 1.36,0 2.46,0.7 1.1,0.68 1.74,2.08 0.64,1.38 0.64,3.52 z m -4.84,-4.82 q -1.24,0 -2.04,0.82 -0.78,0.82 -0.78,2.5 0,1.38 0.66,2.18 0.68,0.78 2.08,0.78 0.96,0 1.66,-0.38 0.7,-0.4 1.08,-1 0.4,-0.6 0.4,-1.24 0,-0.86 -0.34,-1.7 -0.34,-0.84 -1.02,-1.4 -0.68,-0.56 -1.7,-0.56 z"
     id="path440" /></g>
	<g
   aria-label="0"
   id="text183"
   style="font-size:20px;line-height:0%;font-family:'Linux Libertine';text-align:center;text-anchor:middle;display:inline;fill:#111111;stroke-width:1.25"
   class="key"><path
     d="m 328.73999,-7.16 q 0,2.3 -0.48,3.96 -0.48,1.64 -1.52,2.52 -1.04,0.88 -2.76,0.88 -2.42,0 -3.58,-1.94 -1.14,-1.96 -1.14,-5.42 0,-2.32 0.46,-3.96 0.48,-1.64 1.52,-2.5 1.04,-0.88 2.74,-0.88 2.4,0 3.58,1.94 1.18,1.92 1.18,5.4 z m -7.72,0 q 0,2.94 0.66,4.4 0.68,1.46 2.3,1.46 1.6,0 2.28,-1.44 0.7,-1.46 0.7,-4.42 0,-2.92 -0.7,-4.38 -0.68,-1.46 -2.28,-1.46 -1.62,0 -2.3,1.46 -0.66,1.46 -0.66,4.38 z"
     id="path443" /></g>
	<g
   aria-label="-"
   id="text185"
   style="font-size:20px;line-height:0%;font-family:'Linux Libertine';text-align:center;text-anchor:middle;display:inline;fill:#111111;stroke-width:1.25"
   class="key"><path
     d="m 357.57999,-4.58 v -1.56 h 4.84 v 1.56 z"
     id="path446" /></g>
</g>


<g
   aria-label="⇥"
   id="text189"
   style="font-size:14px;line-height:0%;font-family:'DejaVu Sans';display:inline;fill:#111111"
   class="mod big"><path
     d="m 10.799805,55.030273 h 7.123047 l -1.59961,-1.599609 0.820313,-0.820312 2.693359,2.693359 v -2.625 h 1.162109 v 5.878906 h -1.162109 v -2.638672 l -2.693359,2.69336 -0.820313,-0.820313 1.59961,-1.599609 h -7.123047 z"
     id="path449" /></g>

<g
   transform="translate(73,62)"
   id="g213">
	<g
   aria-label="z"
   id="text191"
   style="font-size:20px;line-height:0%;font-family:'Linux Libertine';text-align:center;text-anchor:middle;display:inline;fill:#111111;stroke-width:1.25"
   class="key"><path
     d="m 3.9200069,0 h -7.84 v -1.16 l 5.76,-8.2 h -5.42 v -1.36 h 7.36 v 1.32 l -5.68,8.04 h 5.82 z"
     id="path452" /></g>
	<g
   aria-label="y"
   id="text193"
   style="font-size:20px;line-height:0%;font-family:'Linux Libertine';text-align:center;text-anchor:middle;display:inline;fill:#111111;stroke-width:1.25"
   class="key"><path
     d="m 30.919998,-10.72 h 1.88 l 2.32,6.1 q 0.3,0.8 0.54,1.54 0.24,0.72 0.36,1.38 h 0.08 q 0.12,-0.5 0.38,-1.3 0.26,-0.82 0.54,-1.64 l 2.18,-6.08 h 1.9 l -4.62,12.2 q -0.56,1.52 -1.46,2.42 -0.88,0.9 -2.44,0.9 -0.48,0 -0.84,-0.06 -0.36,-0.04 -0.62,-0.1 v -1.4 q 0.22,0.04 0.52,0.08 0.32,0.04 0.66,0.04 0.92,0 1.48,-0.52 0.58,-0.52 0.9,-1.38 l 0.56,-1.42 z"
     id="path455" /></g>
	<g
   aria-label="u"
   id="text195"
   style="font-size:20px;line-height:0%;font-family:'Linux Libertine';text-align:center;text-anchor:middle;display:inline;fill:#111111;stroke-width:1.25"
   class="key"><path
     d="M 76.48,-10.72 V 0 H 75.04 L 74.78,-1.42 H 74.7 Q 74.18,-0.58 73.26,-0.18 72.34,0.2 71.3,0.2 69.36,0.2 68.38,-0.72 67.4,-1.66 67.4,-3.7 v -7.02 h 1.78 v 6.9 q 0,2.56 2.38,2.56 1.78,0 2.46,-1 0.7,-1 0.7,-2.88 v -5.58 z"
     id="path458" /></g>
	<g
   aria-label="a"
   id="text197"
   style="font-size:20px;line-height:0%;font-family:'Linux Libertine';text-align:center;text-anchor:middle;display:inline;fill:#111111;stroke-width:1.25"
   class="key"><path
     d="m 108.14999,-10.9 q 1.96,0 2.9,0.86 0.94,0.86 0.94,2.74 V 0 h -1.28 l -0.34,-1.52 h -0.08 q -0.7,0.88 -1.48,1.3 -0.76,0.42 -2.12,0.42 -1.46,0 -2.42,-0.76 -0.96,-0.78 -0.96,-2.42 0,-1.6 1.26,-2.46 1.26,-0.88 3.88,-0.96 l 1.82,-0.06 V -7.1 q 0,-1.34 -0.58,-1.86 -0.58,-0.52 -1.64,-0.52 -0.84,0 -1.6,0.26 -0.76,0.24 -1.42,0.56 l -0.54,-1.32 q 0.7,-0.38 1.66,-0.64 0.96,-0.28 2,-0.28 z m 0.52,5.72 q -2,0.08 -2.78,0.64 -0.76,0.56 -0.76,1.58 0,0.9 0.54,1.32 0.56,0.42 1.42,0.42 1.36,0 2.26,-0.74 0.9,-0.76 0.9,-2.32 v -0.96 z"
     id="path461" /></g>
	<g
   aria-label="q"
   id="text199"
   style="font-size:20px;line-height:0%;font-family:'Linux Libertine';text-align:center;text-anchor:middle;display:inline;fill:#111111;stroke-width:1.25"
   class="key"><path
     d="m 146.69,0.22 q 0,-0.36 0.02,-0.84 0.02,-0.48 0.08,-0.82 h -0.12 q -0.46,0.68 -1.28,1.16 -0.8,0.48 -2.08,0.48 -1.94,0 -3.16,-1.38 -1.2,-1.4 -1.2,-4.16 0,-2.76 1.22,-4.16 1.24,-1.42 3.2,-1.42 1.26,0 2.06,0.48 0.8,0.48 1.28,1.18 h 0.08 l 0.26,-1.46 h 1.4 V 4.8 h -1.76 z m -3.04,-1.48 q 1.66,0 2.34,-0.9 0.7,-0.92 0.72,-2.8 v -0.36 q 0,-2.04 -0.68,-3.08 -0.68,-1.06 -2.42,-1.06 -1.44,0 -2.14,1.14 -0.7,1.12 -0.7,3.02 0,1.9 0.7,2.98 0.72,1.06 2.18,1.06 z"
     id="path464" /></g>

	<g
   aria-label="p"
   id="text201"
   style="font-size:20px;line-height:0%;font-family:'Linux Libertine';text-align:center;text-anchor:middle;display:inline;fill:#111111;stroke-width:1.25"
   class="key"><path
     d="m 180.65,-10.92 q 1.98,0 3.18,1.38 1.22,1.38 1.22,4.16 0,2.74 -1.22,4.16 -1.2,1.42 -3.2,1.42 -1.24,0 -2.06,-0.46 -0.8,-0.48 -1.26,-1.1 h -0.12 q 0.04,0.34 0.08,0.86 0.04,0.52 0.04,0.9 v 4.4 h -1.76 v -15.52 h 1.44 l 0.24,1.46 h 0.08 q 0.48,-0.7 1.26,-1.18 0.78,-0.48 2.08,-0.48 z m -0.32,1.48 q -1.64,0 -2.32,0.92 -0.66,0.92 -0.7,2.8 v 0.34 q 0,1.98 0.64,3.06 0.66,1.06 2.42,1.06 0.98,0 1.6,-0.54 0.64,-0.54 0.94,-1.46 0.32,-0.94 0.32,-2.14 0,-1.84 -0.72,-2.94 -0.7,-1.1 -2.18,-1.1 z"
     id="path467" /></g>
	<g
   aria-label="b"
   id="text203"
   style="font-size:20px;line-height:0%;font-family:'Linux Libertine';text-align:center;text-anchor:middle;display:inline;fill:#111111;stroke-width:1.25"
   class="key"><path
     d="m 213.31,-11.5 q 0,0.68 -0.04,1.28 -0.02,0.58 -0.06,0.92 h 0.1 q 0.46,-0.68 1.26,-1.14 0.8,-0.46 2.06,-0.46 2,0 3.2,1.4 1.22,1.38 1.22,4.14 0,2.76 -1.22,4.16 -1.22,1.4 -3.2,1.4 -1.26,0 -2.06,-0.46 -0.8,-0.46 -1.26,-1.1 h -0.14 L 212.81,0 h -1.26 v -15.2 h 1.76 z m 3.02,2.06 q -1.7,0 -2.36,0.98 -0.66,0.98 -0.66,3.04 v 0.08 q 0,1.98 0.64,3.04 0.66,1.04 2.42,1.04 1.44,0 2.14,-1.06 0.72,-1.06 0.72,-3.06 0,-4.06 -2.9,-4.06 z"
     id="path470" /></g>
	<g
   aria-label="m"
   id="text205"
   style="font-size:20px;line-height:0%;font-family:'Linux Libertine';text-align:center;text-anchor:middle;display:inline;fill:#111111;stroke-width:1.25"
   class="key"><path
     d="m 256.11001,-10.92 q 1.82,0 2.72,0.94 0.9,0.92 0.9,3 V 0 h -1.74 v -6.9 q 0,-2.54 -2.18,-2.54 -1.56,0 -2.24,0.9 -0.66,0.9 -0.66,2.62 V 0 h -1.74 v -6.9 q 0,-2.54 -2.2,-2.54 -1.62,0 -2.24,1 -0.62,1 -0.62,2.88 V 0 h -1.76 v -10.72 h 1.42 l 0.26,1.46 h 0.1 q 0.5,-0.84 1.34,-1.24 0.86,-0.42 1.82,-0.42 2.52,0 3.28,1.8 h 0.1 q 0.54,-0.92 1.46,-1.36 0.94,-0.44 1.98,-0.44 z"
     id="path473" /></g>
	<g
   aria-label="l"
   id="text207"
   style="font-size:20px;line-height:0%;font-family:'Linux Libertine';text-align:center;text-anchor:middle;display:inline;fill:#111111;stroke-width:1.25"
   class="key"><path
     d="m 288.88001,0 h -1.76 v -15.2 h 1.76 z"
     id="path476" /></g>
	<g
   aria-label="f"
   id="text209"
   style="font-size:20px;line-height:0%;font-family:'Linux Libertine';text-align:center;text-anchor:middle;display:inline;fill:#111111;stroke-width:1.25"
   class="key"><path
     d="m 327.2,-9.36 h -2.7 V 0 h -1.76 v -9.36 h -1.88 v -0.82 l 1.88,-0.6 v -0.62 q 0,-2.08 0.92,-2.98 0.92,-0.92 2.56,-0.92 0.64,0 1.16,0.12 0.54,0.1 0.92,0.24 l -0.46,1.38 q -0.32,-0.1 -0.74,-0.2 -0.42,-0.1 -0.86,-0.1 -0.88,0 -1.32,0.6 -0.42,0.58 -0.42,1.84 v 0.7 h 2.7 z"
     id="path479" /></g>
	<g
   aria-label="j"
   id="text211"
   style="font-size:20px;line-height:0%;font-family:'Linux Libertine';text-align:center;text-anchor:middle;display:inline;fill:#111111;stroke-width:1.25"
   class="key"><path
     d="m 358.98001,-13.62 q 0,-0.58 0.3,-0.84 0.3,-0.28 0.74,-0.28 0.4,0 0.7,0.28 0.32,0.26 0.32,0.84 0,0.56 -0.32,0.84 -0.3,0.28 -0.7,0.28 -0.44,0 -0.74,-0.28 -0.3,-0.28 -0.3,-0.84 z m -1.12,18.42 q -0.5,0 -0.88,-0.08 -0.38,-0.06 -0.66,-0.16 V 3.14 q 0.3,0.08 0.62,0.14 0.32,0.06 0.7,0.06 0.64,0 1.06,-0.36 0.42,-0.34 0.42,-1.32 v -12.38 h 1.76 V 1.6 q 0,1.5 -0.72,2.34 -0.72,0.86 -2.3,0.86 z"
     id="path482" /></g>
</g>


<g
   transform="translate(84,98)"
   id="g235">
	<g
   aria-label="c"
   id="text215"
   style="font-size:20px;line-height:0%;font-family:'Linux Libertine';text-align:center;text-anchor:middle;display:inline;fill:#111111;stroke-width:1.25"
   class="key"><path
     d="m 1.2000046,0.2 q -1.42000002,0 -2.54,-0.58 -1.1,-0.58 -1.74,-1.8 -0.62,-1.22 -0.62,-3.12 0,-1.98 0.66,-3.22 0.66,-1.24 1.78,-1.82 1.13999998,-0.58 2.58,-0.58 0.82,0 1.58,0.18 0.76,0.16 1.24,0.4 l -0.54,1.46 q -0.48,-0.18 -1.12,-0.34 -0.64,-0.16 -1.2,-0.16 -3.16,0 -3.16,4.06 0,1.94 0.76,2.98 0.77999998,1.02 2.3,1.02 0.88,0 1.54,-0.18 0.68,-0.18 1.24,-0.44 v 1.56 q -0.54,0.28 -1.2,0.42 -0.64,0.16 -1.56,0.16 z"
     id="path485" /></g>
	<g
   aria-label="s"
   id="text217"
   style="font-size:20px;line-height:0%;font-family:'Linux Libertine';text-align:center;text-anchor:middle;display:inline;fill:#111111;stroke-width:1.25"
   class="key"><path
     d="m 39.889999,-2.96 q 0,1.56 -1.16,2.36 -1.16,0.8 -3.12,0.8 -1.12,0 -1.94,-0.18 -0.8,-0.18 -1.42,-0.5 v -1.6 q 0.64,0.32 1.54,0.6 0.92,0.26 1.86,0.26 1.34,0 1.94,-0.42 0.6,-0.44 0.6,-1.16 0,-0.4 -0.22,-0.72 -0.22,-0.32 -0.8,-0.64 -0.56,-0.32 -1.62,-0.72 -1.04,-0.4 -1.78,-0.8 -0.74,-0.4 -1.14,-0.96 -0.4,-0.56 -0.4,-1.44 0,-1.36 1.1,-2.1 1.12,-0.74 2.92,-0.74 0.98,0 1.82,0.2 0.86,0.18 1.6,0.52 l -0.6,1.4 q -0.68,-0.28 -1.42,-0.48 -0.74,-0.2 -1.52,-0.2 -1.08,0 -1.66,0.36 -0.56,0.34 -0.56,0.94 0,0.44 0.26,0.76 0.26,0.3 0.86,0.6 0.62,0.28 1.64,0.68 1.02,0.38 1.74,0.78 0.72,0.4 1.1,0.98 0.38,0.56 0.38,1.42 z"
     id="path488" /></g>
	<g
   aria-label="i"
   id="text219"
   style="font-size:20px;line-height:0%;font-family:'Linux Libertine';text-align:center;text-anchor:middle;display:inline;fill:#111111;stroke-width:1.25"
   class="key"><path
     d="m 72.020006,-14.74 q 0.4,0 0.7,0.28 0.32,0.26 0.32,0.84 0,0.56 -0.32,0.84 -0.3,0.28 -0.7,0.28 -0.44,0 -0.74,-0.28 -0.3,-0.28 -0.3,-0.84 0,-0.58 0.3,-0.84 0.3,-0.28 0.74,-0.28 z m 0.86,4.02 V 0 h -1.76 v -10.72 z"
     id="path491" /></g>
	<g
   aria-label="e"
   id="text221"
   style="font-size:20px;line-height:0%;font-family:'Linux Libertine';text-align:center;text-anchor:middle;display:inline;fill:#eeeeee;stroke-width:1.25"
   class="key nubkey"><path
     d="m 108.20001,-10.92 q 1.38,0 2.36,0.6 1,0.6 1.52,1.7 0.54,1.08 0.54,2.54 v 1.06 h -7.34 q 0.04,1.82 0.92,2.78 0.9,0.94 2.5,0.94 1.02,0 1.8,-0.18 0.8,-0.2 1.64,-0.56 v 1.54 q -0.82,0.36 -1.62,0.52 -0.8,0.18 -1.9,0.18 -1.52,0 -2.7,-0.62 -1.16,-0.62 -1.82,-1.84 -0.64,-1.24 -0.64,-3.02 0,-1.76 0.58,-3.02 0.6,-1.26 1.66,-1.94 1.08,-0.68 2.5,-0.68 z m -0.02,1.44 q -1.26,0 -2,0.82 -0.72,0.8 -0.86,2.24 h 5.46 q -0.02,-1.36 -0.64,-2.2 -0.62,-0.86 -1.96,-0.86 z"
     id="path494" /></g>
	<g
   aria-label="o"
   id="text223"
   style="font-size:20px;line-height:0%;font-family:'Linux Libertine';text-align:center;text-anchor:middle;display:inline;fill:#111111;stroke-width:1.25"
   class="key"><path
     d="m 148.97,-5.38 q 0,2.66 -1.36,4.12 -1.34,1.46 -3.64,1.46 -1.42,0 -2.54,-0.64 -1.1,-0.66 -1.74,-1.9 -0.64,-1.26 -0.64,-3.04 0,-2.66 1.34,-4.1 1.34,-1.44 3.64,-1.44 1.46,0 2.56,0.66 1.12,0.64 1.74,1.88 0.64,1.22 0.64,3 z m -8.1,0 q 0,1.9 0.74,3.02 0.76,1.1 2.4,1.1 1.62,0 2.38,-1.1 0.76,-1.12 0.76,-3.02 0,-1.9 -0.76,-2.98 -0.76,-1.08 -2.4,-1.08 -1.64,0 -2.38,1.08 -0.74,1.08 -0.74,2.98 z"
     id="path497" /></g>

	<g
   aria-label="d"
   id="text225"
   style="font-size:20px;line-height:0%;font-family:'Linux Libertine';text-align:center;text-anchor:middle;display:inline;fill:#111111;stroke-width:1.25"
   class="key"><path
     d="m 179.35,0.2 q -2,0 -3.2,-1.38 -1.2,-1.4 -1.2,-4.16 0,-2.76 1.2,-4.16 1.22,-1.42 3.22,-1.42 1.24,0 2.02,0.46 0.8,0.46 1.3,1.12 h 0.12 q -0.02,-0.26 -0.08,-0.76 -0.04,-0.52 -0.04,-0.82 v -4.28 h 1.76 V 0 h -1.42 l -0.26,-1.44 h -0.08 q -0.48,0.68 -1.28,1.16 -0.8,0.48 -2.06,0.48 z m 0.28,-1.46 q 1.7,0 2.38,-0.92 0.7,-0.94 0.7,-2.82 v -0.32 q 0,-2 -0.66,-3.06 -0.66,-1.08 -2.44,-1.08 -1.42,0 -2.14,1.14 -0.7,1.12 -0.7,3.02 0,1.92 0.7,2.98 0.72,1.06 2.16,1.06 z"
     id="path500" /></g>
	<g
   aria-label="t"
   id="text227"
   style="font-size:20px;line-height:0%;font-family:'Linux Libertine';text-align:center;text-anchor:middle;display:inline;fill:#eeeeee;stroke-width:1.25"
   class="key nubkey"><path
     d="m 217.67,-1.24 q 0.4,0 0.82,-0.06 0.42,-0.08 0.68,-0.16 v 1.34 q -0.28,0.14 -0.8,0.22 -0.52,0.1 -1,0.1 -0.84,0 -1.56,-0.28 -0.7,-0.3 -1.14,-1.02 -0.44,-0.72 -0.44,-2.02 v -6.24 h -1.52 v -0.84 l 1.54,-0.7 0.7,-2.28 h 1.04 v 2.46 h 3.1 v 1.36 h -3.1 v 6.2 q 0,0.98 0.46,1.46 0.48,0.46 1.22,0.46 z"
     id="path503" /></g>
	<g
   aria-label="n"
   id="text229"
   style="font-size:20px;line-height:0%;font-family:'Linux Libertine';text-align:center;text-anchor:middle;display:inline;fill:#111111;stroke-width:1.25"
   class="key"><path
     d="m 252.68,-10.92 q 1.92,0 2.9,0.94 0.98,0.92 0.98,3 V 0 h -1.74 v -6.86 q 0,-2.58 -2.4,-2.58 -1.78,0 -2.46,1 -0.68,1 -0.68,2.88 V 0 h -1.76 v -10.72 h 1.42 l 0.26,1.46 h 0.1 q 0.52,-0.84 1.44,-1.24 0.92,-0.42 1.94,-0.42 z"
     id="path506" /></g>
	<g
   aria-label="r"
   id="text231"
   style="font-size:20px;line-height:0%;font-family:'Linux Libertine';text-align:center;text-anchor:middle;display:inline;fill:#111111;stroke-width:1.25"
   class="key"><path
     d="m 290.57,-10.92 q 0.3,0 0.64,0.04 0.36,0.02 0.62,0.08 l -0.22,1.62 q -0.26,-0.06 -0.58,-0.1 -0.3,-0.04 -0.58,-0.04 -0.82,0 -1.54,0.46 -0.72,0.44 -1.16,1.26 -0.42,0.8 -0.42,1.88 V 0 h -1.76 v -10.72 h 1.44 l 0.2,1.96 h 0.08 q 0.52,-0.88 1.34,-1.52 0.82,-0.64 1.94,-0.64 z"
     id="path509" /></g>
	<g
   aria-label="h"
   id="text233"
   style="font-size:20px;line-height:0%;font-family:'Linux Libertine';text-align:center;text-anchor:middle;display:inline;fill:#111111;stroke-width:1.25"
   class="key"><path
     d="m 321.28,-10.74 q 0,0.8 -0.1,1.5 h 0.12 q 0.52,-0.82 1.4,-1.24 0.9,-0.42 1.94,-0.42 1.96,0 2.94,0.94 0.98,0.92 0.98,2.98 V 0 h -1.74 v -6.86 q 0,-2.58 -2.4,-2.58 -1.8,0 -2.48,1.02 -0.66,1 -0.66,2.88 V 0 h -1.76 v -15.2 h 1.76 z"
     id="path512" /></g>


</g>

<g
   transform="translate(101,134)"
   id="g257">
    <g
   aria-label="v"
   id="text237"
   style="font-size:20px;line-height:0%;font-family:'Linux Libertine';text-align:center;text-anchor:middle;display:inline;fill:#111111;stroke-width:1.25"
   class="key"><path
     d="m -1.0199942,0 -4.06,-10.72 h 1.88 l 2.28,6.32 q 0.16,0.44 0.34,0.98 0.18,0.54 0.32,1.04 0.14,0.48 0.2,0.82 h 0.08 q 0.08,-0.34 0.22,-0.84 0.16,-0.5 0.34,-1.04 0.2,-0.54 0.34,-0.96 l 2.28,-6.32 h 1.88 l -4.08,10.72 z"
     id="path515" /></g>
    <g
   aria-label="x"
   id="text239"
   style="font-size:20px;line-height:0%;font-family:'Linux Libertine';text-align:center;text-anchor:middle;display:inline;fill:#111111;stroke-width:1.25"
   class="key"><path
     d="m 34.950007,-5.48 -3.7,-5.24 h 2 l 2.76,4.04 2.74,-4.04 h 1.98 l -3.7,5.24 3.9,5.48 h -2 l -2.92,-4.28 -2.96,4.28 h -1.98 z"
     id="path518" /></g>
    <g
   aria-label="ü"
   id="text241"
   style="font-size:20px;line-height:0%;font-family:'Linux Libertine';text-align:center;text-anchor:middle;display:inline;fill:#111111;stroke-width:1.25"
   class="key"><path
     d="M 76.48,-10.72 V 0 H 75.04 L 74.78,-1.42 H 74.7 Q 74.18,-0.58 73.26,-0.18 72.34,0.2 71.3,0.2 69.36,0.2 68.38,-0.72 67.4,-1.66 67.4,-3.7 v -7.02 h 1.78 v 6.9 q 0,2.56 2.38,2.56 1.78,0 2.46,-1 0.7,-1 0.7,-2.88 v -5.58 z m -7.28,-2.9 q 0,-0.52 0.28,-0.74 0.28,-0.24 0.66,-0.24 0.38,0 0.66,0.24 0.28,0.22 0.28,0.74 0,0.5 -0.28,0.76 -0.28,0.24 -0.66,0.24 -0.38,0 -0.66,-0.24 -0.28,-0.26 -0.28,-0.76 z m 3.76,0 q 0,-0.52 0.26,-0.74 0.28,-0.24 0.66,-0.24 0.38,0 0.66,0.24 0.28,0.22 0.28,0.74 0,0.5 -0.28,0.76 -0.28,0.24 -0.66,0.24 -0.38,0 -0.66,-0.24 -0.26,-0.26 -0.26,-0.76 z"
     id="path521" /></g>
    <g
   aria-label="ä"
   id="text243"
   style="font-size:20px;line-height:0%;font-family:'Linux Libertine';text-align:center;text-anchor:middle;display:inline;fill:#111111;stroke-width:1.25"
   class="key"><path
     d="m 108.14999,-10.9 q 1.96,0 2.9,0.86 0.94,0.86 0.94,2.74 V 0 h -1.28 l -0.34,-1.52 h -0.08 q -0.7,0.88 -1.48,1.3 -0.76,0.42 -2.12,0.42 -1.46,0 -2.42,-0.76 -0.96,-0.78 -0.96,-2.42 0,-1.6 1.26,-2.46 1.26,-0.88 3.88,-0.96 l 1.82,-0.06 V -7.1 q 0,-1.34 -0.58,-1.86 -0.58,-0.52 -1.64,-0.52 -0.84,0 -1.6,0.26 -0.76,0.24 -1.42,0.56 l -0.54,-1.32 q 0.7,-0.38 1.66,-0.64 0.96,-0.28 2,-0.28 z m 0.52,5.72 q -2,0.08 -2.78,0.64 -0.76,0.56 -0.76,1.58 0,0.9 0.54,1.32 0.56,0.42 1.42,0.42 1.36,0 2.26,-0.74 0.9,-0.76 0.9,-2.32 v -0.96 z m -3.46,-8.44 q 0,-0.52 0.28,-0.74 0.28,-0.24 0.66,-0.24 0.38,0 0.66,0.24 0.28,0.22 0.28,0.74 0,0.5 -0.28,0.76 -0.28,0.24 -0.66,0.24 -0.38,0 -0.66,-0.24 -0.28,-0.26 -0.28,-0.76 z m 3.76,0 q 0,-0.52 0.26,-0.74 0.28,-0.24 0.66,-0.24 0.38,0 0.66,0.24 0.28,0.22 0.28,0.74 0,0.5 -0.28,0.76 -0.28,0.24 -0.66,0.24 -0.38,0 -0.66,-0.24 -0.26,-0.26 -0.26,-0.76 z"
     id="path524" /></g>

    <g
   aria-label="ö"
   id="text245"
   style="font-size:20px;line-height:0%;font-family:'Linux Libertine';text-align:center;text-anchor:middle;display:inline;fill:#111111;stroke-width:1.25"
   class="key"><path
     d="m 148.97,-5.38 q 0,2.66 -1.36,4.12 -1.34,1.46 -3.64,1.46 -1.42,0 -2.54,-0.64 -1.1,-0.66 -1.74,-1.9 -0.64,-1.26 -0.64,-3.04 0,-2.66 1.34,-4.1 1.34,-1.44 3.64,-1.44 1.46,0 2.56,0.66 1.12,0.64 1.74,1.88 0.64,1.22 0.64,3 z m -8.1,0 q 0,1.9 0.74,3.02 0.76,1.1 2.4,1.1 1.62,0 2.38,-1.1 0.76,-1.12 0.76,-3.02 0,-1.9 -0.76,-2.98 -0.76,-1.08 -2.4,-1.08 -1.64,0 -2.38,1.08 -0.74,1.08 -0.74,2.98 z m 0.34,-8.24 q 0,-0.52 0.28,-0.74 0.28,-0.24 0.66,-0.24 0.38,0 0.66,0.24 0.28,0.22 0.28,0.74 0,0.5 -0.28,0.76 -0.28,0.24 -0.66,0.24 -0.38,0 -0.66,-0.24 -0.28,-0.26 -0.28,-0.76 z m 3.76,0 q 0,-0.52 0.26,-0.74 0.28,-0.24 0.66,-0.24 0.38,0 0.66,0.24 0.28,0.22 0.28,0.74 0,0.5 -0.28,0.76 -0.28,0.24 -0.66,0.24 -0.38,0 -0.66,-0.24 -0.26,-0.26 -0.26,-0.76 z"
     id="path527" /></g>
    <g
   aria-label="w"
   id="text247"
   style="font-size:20px;line-height:0%;font-family:'Linux Libertine';text-align:center;text-anchor:middle;display:inline;fill:#111111;stroke-width:1.25"
   class="key"><path
     d="m 180.76001,-6.06 q -0.26,-0.82 -0.46,-1.6 -0.18,-0.8 -0.28,-1.24 h -0.08 q -0.08,0.44 -0.26,1.24 -0.18,0.78 -0.46,1.62 l -1.92,6.02 h -2 l -2.94,-10.72 h 1.82 l 1.48,5.72 q 0.22,0.86 0.42,1.74 0.2,0.88 0.28,1.46 h 0.08 q 0.08,-0.34 0.18,-0.84 0.12,-0.5 0.26,-1.04 0.14,-0.56 0.28,-1 l 1.9,-6.04 h 1.92 l 1.84,6.04 q 0.22,0.68 0.42,1.48 0.22,0.8 0.3,1.38 h 0.08 q 0.06,-0.5 0.26,-1.38 0.22,-0.88 0.46,-1.8 l 1.5,-5.72 h 1.8 l -2.98,10.72 h -2.06 z"
     id="path530" /></g>
    <g
   aria-label="g"
   id="text249"
   style="font-size:20px;line-height:0%;font-family:'Linux Libertine';text-align:center;text-anchor:middle;display:inline;fill:#111111;stroke-width:1.25"
   class="key"><path
     d="m 215.35,-10.92 q 1.06,0 1.9,0.4 0.86,0.4 1.46,1.22 h 0.1 l 0.24,-1.42 h 1.4 v 10.9 q 0,2.3 -1.18,3.46 -1.16,1.16 -3.62,1.16 -2.36,0 -3.86,-0.68 V 2.5 q 1.58,0.84 3.96,0.84 1.38,0 2.16,-0.82 0.8,-0.8 0.8,-2.2 V -0.1 q 0,-0.24 0.02,-0.68 0.02,-0.46 0.04,-0.64 h -0.08 q -1.08,1.62 -3.32,1.62 -2.08,0 -3.26,-1.46 -1.16,-1.46 -1.16,-4.08 0,-2.56 1.16,-4.06 1.18,-1.52 3.24,-1.52 z m 0.24,1.48 q -1.34,0 -2.08,1.08 -0.74,1.06 -0.74,3.04 0,1.98 0.72,3.04 0.74,1.04 2.14,1.04 1.62,0 2.36,-0.86 0.74,-0.88 0.74,-2.82 v -0.42 q 0,-2.2 -0.76,-3.14 -0.76,-0.96 -2.38,-0.96 z"
     id="path533" /></g>
    <g
   aria-label=","
   id="text251"
   style="font-size:20px;line-height:0%;font-family:'Linux Libertine';text-align:center;text-anchor:middle;display:inline;fill:#111111;stroke-width:1.25"
   class="key"><path
     d="m 253.16,-2.1 q -0.26,1.06 -0.76,2.32 -0.48,1.28 -0.96,2.36 h -1.3 q 0.28,-1.14 0.56,-2.5 0.3,-1.36 0.44,-2.4 h 1.88 z"
     id="path536" /></g>
    <g
   aria-label="."
   id="text253"
   style="font-size:20px;line-height:0%;font-family:'Linux Libertine';text-align:center;text-anchor:middle;display:inline;fill:#111111;stroke-width:1.25"
   class="key"><path
     d="m 286.76,-1.08 q 0,-0.74 0.36,-1.04 0.36,-0.3 0.86,-0.3 0.52,0 0.88,0.3 0.38,0.3 0.38,1.04 0,0.72 -0.38,1.04 -0.36,0.32 -0.88,0.32 -0.5,0 -0.86,-0.32 -0.36,-0.32 -0.36,-1.04 z"
     id="path539" /></g>
    <g
   aria-label="k"
   id="text255"
   style="font-size:20px;line-height:0%;font-family:'Linux Libertine';text-align:center;text-anchor:middle;display:inline;fill:#111111;stroke-width:1.25"
   class="key"><path
     d="m 322.1,-7.26 q 0,0.32 -0.04,0.84 -0.02,0.52 -0.04,0.9 h 0.08 q 0.12,-0.16 0.36,-0.46 0.24,-0.3 0.48,-0.6 0.26,-0.32 0.44,-0.52 l 3.42,-3.62 h 2.06 l -4.34,4.58 4.64,6.14 h -2.12 l -3.72,-5 -1.22,1.06 V 0 h -1.74 v -15.2 h 1.74 z"
     id="path542" /></g>
</g>


<g
   transform="translate(561,26)"
   id="g267">
    <g
   aria-label="⇥"
   id="text259"
   style="font-size:20px;line-height:0%;font-family:'Linux Libertine';text-align:center;text-anchor:middle;display:inline;fill:#111111;stroke-width:1.25"
   class="key"><path
     d="M -7.2363281,-7.0996094 H 2.9394531 L 0.65429687,-9.3847656 1.8261719,-10.556641 5.6738281,-6.7089844 v -3.7499996 h 1.6601563 v 8.3984371 H 5.6738281 V -5.8300781 L 1.8261719,-1.9824219 0.65429687,-3.1542969 2.9394531,-5.4394531 H -7.2363281 Z"
     id="path545" /></g>
    <g
   aria-label="/"
   id="text261"
   style="font-size:20px;line-height:0%;font-family:'Linux Libertine';text-align:center;text-anchor:middle;display:inline;fill:#111111;stroke-width:1.25"
   class="key"><path
     d="m 39.520003,-14.28 -5.32,14.28 h -1.72 l 5.32,-14.28 z"
     id="path548" /></g>
    <g
   aria-label="*"
   id="text263"
   style="font-size:20px;line-height:0%;font-family:'Linux Libertine';text-align:center;text-anchor:middle;display:inline;fill:#111111;stroke-width:1.25"
   class="key"><path
     d="m 72.929994,-15.2 -0.4,3.84 3.84,-1.08 0.28,1.84 -3.68,0.3 2.38,3.16 -1.72,0.94 -1.7,-3.5 -1.54,3.5 -1.78,-0.94 2.34,-3.16 -3.64,-0.3 0.28,-1.84 3.8,1.08 -0.42,-3.84 z"
     id="path551" /></g>
    <g
   aria-label="-"
   id="text265"
   style="font-size:20px;line-height:0%;font-family:'Linux Libertine';text-align:center;text-anchor:middle;display:inline;fill:#111111;stroke-width:1.25"
   class="key"><path
     d="m 105.57999,-4.58 v -1.56 h 4.84 v 1.56 z"
     id="path554" /></g>
</g>
<g
   transform="translate(561,62)"
   id="g275">
    <g
   aria-label="7"
   id="text269"
   style="font-size:20px;line-height:0%;font-family:'Linux Libertine';text-align:center;text-anchor:middle;display:inline;fill:#111111;stroke-width:1.25"
   class="key"><path
     d="m -3.000005,0 5.86,-12.68 h -7.7 v -1.6 h 9.58 v 1.36 l -5.8,12.92 z"
     id="path557" /></g>
    <g
   aria-label="8"
   id="text271"
   style="font-size:20px;line-height:0%;font-family:'Linux Libertine';text-align:center;text-anchor:middle;display:inline;fill:#111111;stroke-width:1.25"
   class="key"><path
     d="m 35.979995,-14.48 q 1.88,0 3.08,0.88 1.2,0.88 1.2,2.54 0,0.86 -0.38,1.5 -0.36,0.64 -0.98,1.14 -0.62,0.48 -1.36,0.86 0.88,0.42 1.6,0.96 0.72,0.52 1.14,1.22 0.44,0.7 0.44,1.68 0,1.8 -1.28,2.86 -1.26,1.04 -3.4,1.04 -2.3,0 -3.54,-1 -1.24,-1.02 -1.24,-2.84 0,-0.98 0.4,-1.7 0.42,-0.72 1.1,-1.24 0.68,-0.52 1.46,-0.88 -1.04,-0.6 -1.78,-1.44 -0.72,-0.86 -0.72,-2.18 0,-1.1 0.56,-1.84 0.56,-0.76 1.52,-1.16 0.96,-0.4 2.18,-0.4 z m -0.02,1.42 q -1.1,0 -1.82,0.54 -0.7,0.52 -0.7,1.52 0,0.74 0.34,1.24 0.36,0.5 0.96,0.86 0.6,0.34 1.32,0.66 1.04,-0.44 1.74,-1.06 0.72,-0.62 0.72,-1.7 0,-1 -0.7,-1.52 -0.7,-0.54 -1.86,-0.54 z m -2.98,9.44 q 0,1.04 0.74,1.74 0.74,0.68 2.28,0.68 1.46,0 2.22,-0.68 0.78,-0.7 0.78,-1.8 0,-1.04 -0.82,-1.72 -0.82,-0.7 -2.18,-1.22 l -0.32,-0.12 q -1.32,0.56 -2.02,1.3 -0.68,0.72 -0.68,1.82 z"
     id="path560" /></g>
    <g
   aria-label="9"
   id="text273"
   style="font-size:20px;line-height:0%;font-family:'Linux Libertine';text-align:center;text-anchor:middle;display:inline;fill:#111111;stroke-width:1.25"
   class="key"><path
     d="m 76.679995,-8.18 q 0,1.54 -0.28,3.04 -0.26,1.48 -0.98,2.7 -0.7,1.2 -2,1.92 -1.28,0.72 -3.3,0.72 -0.4,0 -0.94,-0.06 -0.52,-0.04 -0.86,-0.14 v -1.5 q 0.78,0.26 1.76,0.26 1.4,0 2.3,-0.46 0.92,-0.46 1.46,-1.24 0.54,-0.8 0.78,-1.84 0.24,-1.06 0.28,-2.22 h -0.12 q -0.44,0.68 -1.28,1.18 -0.82,0.48 -2.12,0.48 -1.84,0 -2.98,-1.12 -1.12,-1.14 -1.12,-3.2 0,-1.5 0.56,-2.58 0.58,-1.08 1.6,-1.66 1.02,-0.58 2.4,-0.58 1.36,0 2.46,0.7 1.1,0.68 1.74,2.08 0.64,1.38 0.64,3.52 z m -4.84,-4.82 q -1.24,0 -2.04,0.82 -0.78,0.82 -0.78,2.5 0,1.38 0.66,2.18 0.68,0.78 2.08,0.78 0.96,0 1.66,-0.38 0.7,-0.4 1.08,-1 0.4,-0.6 0.4,-1.24 0,-0.86 -0.34,-1.7 -0.34,-0.84 -1.02,-1.4 -0.68,-0.56 -1.7,-0.56 z"
     id="path563" /></g>
</g>
<g
   transform="translate(561,98)"
   id="g283">
    <g
   aria-label="4"
   id="text277"
   style="font-size:20px;line-height:0%;font-family:'Linux Libertine';text-align:center;text-anchor:middle;display:inline;fill:#111111;stroke-width:1.25"
   class="key"><path
     d="m 5.319995,-3.24 h -2.08 V 0 h -1.7 v -3.24 h -6.84 v -1.5 l 6.72,-9.62 h 1.82 v 9.54 h 2.08 z m -3.78,-6.08 q 0,-1.04 0.04,-1.76 0.04,-0.74 0.06,-1.4 h -0.08 q -0.16,0.38 -0.4,0.82 -0.24000004,0.44 -0.46000004,0.74 l -4.27999996,6.1 h 5.12 z"
     id="path566" /></g>
    <g
   aria-label="5"
   id="text279"
   style="font-size:20px;line-height:0%;font-family:'Linux Libertine';text-align:center;text-anchor:middle;display:inline;fill:#111111;stroke-width:1.25"
   class="key"><path
     d="m 35.779995,-8.76 q 2.2,0 3.5,1.1 1.3,1.1 1.3,3.1 0,2.22 -1.42,3.5 -1.4,1.26 -3.92,1.26 -1.1,0 -2.08,-0.2 -0.96,-0.2 -1.62,-0.58 v -1.66 q 0.72,0.44 1.74,0.7 1.04,0.24 1.98,0.24 1.58,0 2.54,-0.74 0.98,-0.76 0.98,-2.34 0,-1.4 -0.86,-2.14 -0.86,-0.76 -2.72,-0.76 -0.56,0 -1.28,0.1 -0.72,0.1 -1.16,0.2 l -0.88,-0.56 0.54,-6.74 h 7.16 v 1.6 h -5.66 l -0.34,4.14 q 0.34,-0.06 0.92,-0.14 0.58,-0.08 1.28,-0.08 z"
     id="path569" /></g>
    <g
   aria-label="6"
   id="text281"
   style="font-size:20px;line-height:0%;font-family:'Linux Libertine';text-align:center;text-anchor:middle;display:inline;fill:#111111;stroke-width:1.25"
   class="key"><path
     d="m 67.379995,-6.1 q 0,-1.54 0.26,-3.02 0.28,-1.5 0.98,-2.7 0.72,-1.22 2,-1.94 1.28,-0.72 3.3,-0.72 0.42,0 0.92,0.04 0.52,0.04 0.84,0.14 v 1.5 q -0.36,-0.12 -0.82,-0.18 -0.44,-0.06 -0.9,-0.06 -1.38,0 -2.3,0.46 -0.92,0.46 -1.46,1.26 -0.52,0.8 -0.76,1.84 -0.24,1.04 -0.3,2.22 h 0.12 q 0.46,-0.7 1.28,-1.18 0.82,-0.5 2.1,-0.5 1.86,0 3,1.14 1.14,1.12 1.14,3.2 0,2.24 -1.24,3.52 -1.22,1.28 -3.3,1.28 -1.36,0 -2.46,-0.68 -1.1,-0.68 -1.76,-2.08 -0.64,-1.4 -0.64,-3.54 z m 4.84,4.82 q 1.26,0 2.04,-0.8 0.78,-0.82 0.78,-2.52 0,-1.36 -0.7,-2.16 -0.68,-0.8 -2.06,-0.8 -0.94,0 -1.64,0.4 -0.7,0.38 -1.1,0.98 -0.38,0.6 -0.38,1.24 0,0.86 0.34,1.72 0.34,0.84 1.02,1.4 0.68,0.54 1.7,0.54 z"
     id="path572" /></g>
</g>
<g
   transform="translate(561,134)"
   id="g291">
    <g
   aria-label="1"
   id="text285"
   style="font-size:20px;line-height:0%;font-family:'Linux Libertine';text-align:center;text-anchor:middle;display:inline;fill:#111111;stroke-width:1.25"
   class="key"><path
     d="m 1.379995,0 h -1.72000004 v -9.98 q 0,-0.86 0.02,-1.38 0.02,-0.52 0.06,-1.08 -0.32,0.32 -0.58,0.54 -0.25999996,0.22 -0.65999996,0.56 l -1.52,1.24 -0.92,-1.18 3.85999996,-3 H 1.379995 Z"
     id="path575" /></g>
    <g
   aria-label="2"
   id="text287"
   style="font-size:20px;line-height:0%;font-family:'Linux Libertine';text-align:center;text-anchor:middle;display:inline;fill:#111111;stroke-width:1.25"
   class="key"><path
     d="m 40.679995,0 h -9.44 v -1.46 l 3.74,-3.78 q 1.08,-1.08 1.82,-1.92 0.74,-0.84 1.12,-1.64 0.38,-0.82 0.38,-1.78 0,-1.18 -0.7,-1.78 -0.7,-0.62 -1.82,-0.62 -1.04,0 -1.84,0.36 -0.78,0.36 -1.6,1 l -0.94,-1.18 q 0.84,-0.7 1.92,-1.18 1.1,-0.5 2.46,-0.5 2,0 3.16,1.02 1.16,1 1.16,2.78 0,1.12 -0.46,2.1 -0.46,0.98 -1.28,1.94 -0.82,0.94 -1.92,2.02 l -2.98,2.94 v 0.08 h 7.22 z"
     id="path578" /></g>
    <g
   aria-label="3"
   id="text289"
   style="font-size:20px;line-height:0%;font-family:'Linux Libertine';text-align:center;text-anchor:middle;display:inline;fill:#111111;stroke-width:1.25"
   class="key"><path
     d="m 76.139995,-10.94 q 0,1.44 -0.8,2.3 -0.8,0.84 -2.16,1.12 v 0.08 q 1.72,0.2 2.56,1.08 0.84,0.88 0.84,2.3 0,1.24 -0.58,2.22 -0.58,0.96 -1.8,1.5 -1.2,0.54 -3.1,0.54 -1.12,0 -2.08,-0.18 -0.96,-0.16 -1.84,-0.6 v -1.64 q 0.9,0.44 1.94,0.7 1.04,0.24 2,0.24 1.92,0 2.76,-0.74 0.86,-0.76 0.86,-2.08 0,-1.34 -1.06,-1.92 -1.04,-0.6 -2.94,-0.6 h -1.38 v -1.5 h 1.4 q 1.76,0 2.66,-0.74 0.92,-0.74 0.92,-1.96 0,-1.04 -0.7,-1.6 -0.7,-0.58 -1.9,-0.58 -1.16,0 -1.98,0.34 -0.82,0.34 -1.62,0.86 l -0.88,-1.2 q 0.76,-0.6 1.88,-1.04 1.14,-0.44 2.58,-0.44 2.24,0 3.32,1 1.1,1 1.1,2.54 z"
     id="path581" /></g>
</g>
<g
   transform="translate(561,170)"
   id="g297">
    <g
   aria-label="0"
   id="text293"
   style="font-size:20px;line-height:0%;font-family:'Linux Libertine';text-align:center;text-anchor:middle;display:inline;fill:#111111;stroke-width:1.25"
   class="key"><path
     d="m 22.739995,-7.16 q 0,2.3 -0.48,3.96 -0.48,1.64 -1.52,2.52 -1.04,0.88 -2.76,0.88 -2.42,0 -3.58,-1.94 -1.14,-1.96 -1.14,-5.42 0,-2.32 0.46,-3.96 0.48,-1.64 1.52,-2.5 1.04,-0.88 2.74,-0.88 2.4,0 3.58,1.94 1.18,1.92 1.18,5.4 z m -7.72,0 q 0,2.94 0.66,4.4 0.68,1.46 2.3,1.46 1.6,0 2.28,-1.44 0.7,-1.46 0.7,-4.42 0,-2.92 -0.7,-4.38 -0.68,-1.46 -2.28,-1.46 -1.62,0 -2.3,1.46 -0.66,1.46 -0.66,4.38 z"
     id="path584" /></g>
    <g
   aria-label=","
   id="text295"
   style="font-size:20px;line-height:0%;font-family:'Linux Libertine';text-align:center;text-anchor:middle;display:inline;fill:#111111;stroke-width:1.25"
   class="key"><path
     d="m 73.160004,-2.1 q -0.26,1.06 -0.76,2.32 -0.48,1.28 -0.96,2.36 h -1.3 q 0.28,-1.14 0.56,-2.5 0.3,-1.36 0.44,-2.4 h 1.88 z"
     id="path587" /></g>
</g>

<g
   transform="translate(561,78)"
   id="g301">
    <g
   aria-label="+"
   id="text299"
   style="font-size:20px;line-height:0%;font-family:'Linux Libertine';text-align:center;text-anchor:middle;display:inline;fill:#111111;stroke-width:1.25"
   class="key"><path
     d="m 108.69999,-7.76 h 3.98 v 1.42 h -3.98 v 4.12 h -1.44 v -4.12 h -3.98 v -1.42 h 3.98 v -4.14 h 1.44 z"
     id="path590" /></g>
</g>
<g
   transform="translate(561,150)"
   id="g305">
    <g
   aria-label="⏎"
   id="text303"
   style="font-size:20px;line-height:0%;font-family:'Linux Libertine';text-align:center;text-anchor:middle;display:inline;fill:#111111;stroke-width:1.25"
   class="key"><path
     d="m 105.11914,-1.3085937 -4.96094,-4.9609375 4.96094,-4.9609378 v 2.6660159 h 5.53711 v -6.0156249 h 4.58984 l -0.01,10.6054686 h -10.11719 z m -0.97656,-6.2792969 v -1.2792969 l -2.59766,2.5976563 2.59766,2.5976562 v -1.2792969 h 10.11719 l 0.01,-8.6523441 h -2.63672 l -0.01,6.0156254 z"
     id="path593" /></g>
</g>

<g
   aria-label="◌̂"
   id="t1"
   style="font-size:20px;line-height:0%;font-family:'Gentium Plus Compact';text-align:center;text-anchor:middle;display:inline;fill:#111111"
   class="dead"><path
     d="m 20.000001,15.2 q 0.22,0 0.36,0.16 0.16,0.14 0.16,0.36 0,0.2 -0.16,0.36 -0.14,0.16 -0.36,0.16 -0.2,0 -0.36,-0.16 -0.16,-0.16 -0.16,-0.36 0,-0.22 0.16,-0.36 0.16,-0.16 0.36,-0.16 z m -1.68,0.36 q 0.22,0 0.36,0.16 0.16,0.14 0.16,0.36 0,0.2 -0.16,0.36 -0.14,0.16 -0.36,0.16 -0.2,0 -0.36,-0.16 -0.16,-0.16 -0.16,-0.36 0,-0.22 0.16,-0.36 0.16,-0.16 0.36,-0.16 z m 3.36,0 q 0.22,0 0.36,0.16 0.16,0.14 0.16,0.36 0,0.2 -0.16,0.36 -0.14,0.16 -0.36,0.16 -0.2,0 -0.36,-0.16 -0.16,-0.16 -0.16,-0.36 0,-0.22 0.16,-0.36 0.16,-0.16 0.36,-0.16 z m -5.36,1.46 q 0,-0.22 0.16,-0.36 0.16,-0.16 0.36,-0.16 0.22,0 0.36,0.16 0.16,0.14 0.16,0.36 0,0.2 -0.16,0.36 -0.14,0.16 -0.36,0.16 -0.2,0 -0.36,-0.16 -0.16,-0.16 -0.16,-0.36 z m 6.32,0 q 0,-0.22 0.16,-0.36 0.16,-0.16 0.36,-0.16 0.22,0 0.36,0.16 0.16,0.14 0.16,0.36 0,0.2 -0.16,0.36 -0.14,0.16 -0.36,0.16 -0.2,0 -0.36,-0.16 -0.16,-0.16 -0.16,-0.36 z m -7.26,1.48 q 0,-0.22 0.16,-0.36 0.16,-0.16 0.36,-0.16 0.22,0 0.36,0.16 0.16,0.14 0.16,0.36 0,0.2 -0.16,0.36 -0.14,0.16 -0.36,0.16 -0.2,0 -0.36,-0.16 -0.16,-0.16 -0.16,-0.36 z m 8.2,0 q 0,-0.22 0.16,-0.36 0.16,-0.16 0.36,-0.16 0.22,0 0.36,0.16 0.16,0.14 0.16,0.36 0,0.2 -0.16,0.36 -0.14,0.16 -0.36,0.16 -0.2,0 -0.36,-0.16 -0.16,-0.16 -0.16,-0.36 z m -8.56,1.68 q 0,-0.22 0.16,-0.36 0.16,-0.16 0.36,-0.16 0.22,0 0.36,0.16 0.16,0.14 0.16,0.36 0,0.2 -0.16,0.36 -0.14,0.16 -0.36,0.16 -0.2,0 -0.36,-0.16 -0.16,-0.16 -0.16,-0.36 z m 8.92,0 q 0,-0.22 0.16,-0.36 0.16,-0.16 0.36,-0.16 0.22,0 0.36,0.16 0.16,0.14 0.16,0.36 0,0.2 -0.16,0.36 -0.14,0.16 -0.36,0.16 -0.2,0 -0.36,-0.16 -0.16,-0.16 -0.16,-0.36 z m -8.56,1.68 q 0,-0.22 0.16,-0.36 0.16,-0.16 0.36,-0.16 0.22,0 0.36,0.16 0.16,0.14 0.16,0.36 0,0.2 -0.16,0.36 -0.14,0.16 -0.36,0.16 -0.2,0 -0.36,-0.16 -0.16,-0.16 -0.16,-0.36 z m 8.2,0 q 0,-0.22 0.16,-0.36 0.16,-0.16 0.36,-0.16 0.22,0 0.36,0.16 0.16,0.14 0.16,0.36 0,0.2 -0.16,0.36 -0.14,0.16 -0.36,0.16 -0.2,0 -0.36,-0.16 -0.16,-0.16 -0.16,-0.36 z m -7.26,1.48 q 0,-0.22 0.16,-0.36 0.16,-0.16 0.36,-0.16 0.22,0 0.36,0.16 0.16,0.14 0.16,0.36 0,0.2 -0.16,0.36 -0.14,0.16 -0.36,0.16 -0.2,0 -0.36,-0.16 -0.16,-0.16 -0.16,-0.36 z m 6.32,0 q 0,-0.22 0.16,-0.36 0.16,-0.16 0.36,-0.16 0.22,0 0.36,0.16 0.16,0.14 0.16,0.36 0,0.2 -0.16,0.36 -0.14,0.16 -0.36,0.16 -0.2,0 -0.36,-0.16 -0.16,-0.16 -0.16,-0.36 z m -4.32,0.42 q 0.22,0 0.36,0.16 0.16,0.14 0.16,0.36 0,0.2 -0.16,0.36 -0.14,0.16 -0.36,0.16 -0.2,0 -0.36,-0.16 -0.16,-0.16 -0.16,-0.36 0,-0.22 0.16,-0.36 0.16,-0.16 0.36,-0.16 z m 3.36,0 q 0.22,0 0.36,0.16 0.16,0.14 0.16,0.36 0,0.2 -0.16,0.36 -0.14,0.16 -0.36,0.16 -0.2,0 -0.36,-0.16 -0.16,-0.16 -0.16,-0.36 0,-0.22 0.16,-0.36 0.16,-0.16 0.36,-0.16 z m -1.68,0.36 q 0.22,0 0.36,0.16 0.16,0.14 0.16,0.36 0,0.2 -0.16,0.36 -0.14,0.16 -0.36,0.16 -0.2,0 -0.36,-0.16 -0.16,-0.16 -0.16,-0.36 0,-0.22 0.16,-0.36 0.16,-0.16 0.36,-0.16 z"
     id="path596" /><path
     d="m 20.880003,10.600006 q 0.24,0.44 0.68,1 0.46,0.54 0.94,1.08 0.5,0.52 0.88,0.9 v 0.22 h -1.24 q -0.52,-0.32 -1.08,-0.78 -0.56,-0.48 -1.1,-1.02 -0.54,0.54 -1.08,1 -0.54,0.46 -1.06,0.8 h -1.2 v -0.22 q 0.38,-0.4 0.86,-0.92 0.46,-0.52 0.9,-1.06 0.44,-0.56 0.7,-1 z"
     id="path598" /></g>
<g
   aria-label="◌̀"
   id="t2"
   style="font-size:20px;line-height:0%;font-family:'Gentium Plus Compact';text-align:center;text-anchor:middle;display:inline;fill:#111111"
   class="dead"><path
     d="m 452,15.2 q 0.22,0 0.36,0.16 0.16,0.14 0.16,0.36 0,0.2 -0.16,0.36 -0.14,0.16 -0.36,0.16 -0.2,0 -0.36,-0.16 -0.16,-0.16 -0.16,-0.36 0,-0.22 0.16,-0.36 0.16,-0.16 0.36,-0.16 z m -1.68,0.36 q 0.22,0 0.36,0.16 0.16,0.14 0.16,0.36 0,0.2 -0.16,0.36 -0.14,0.16 -0.36,0.16 -0.2,0 -0.36,-0.16 -0.16,-0.16 -0.16,-0.36 0,-0.22 0.16,-0.36 0.16,-0.16 0.36,-0.16 z m 3.36,0 q 0.22,0 0.36,0.16 0.16,0.14 0.16,0.36 0,0.2 -0.16,0.36 -0.14,0.16 -0.36,0.16 -0.2,0 -0.36,-0.16 -0.16,-0.16 -0.16,-0.36 0,-0.22 0.16,-0.36 0.16,-0.16 0.36,-0.16 z m -5.36,1.46 q 0,-0.22 0.16,-0.36 0.16,-0.16 0.36,-0.16 0.22,0 0.36,0.16 0.16,0.14 0.16,0.36 0,0.2 -0.16,0.36 -0.14,0.16 -0.36,0.16 -0.2,0 -0.36,-0.16 -0.16,-0.16 -0.16,-0.36 z m 6.32,0 q 0,-0.22 0.16,-0.36 0.16,-0.16 0.36,-0.16 0.22,0 0.36,0.16 0.16,0.14 0.16,0.36 0,0.2 -0.16,0.36 -0.14,0.16 -0.36,0.16 -0.2,0 -0.36,-0.16 -0.16,-0.16 -0.16,-0.36 z m -7.26,1.48 q 0,-0.22 0.16,-0.36 0.16,-0.16 0.36,-0.16 0.22,0 0.36,0.16 0.16,0.14 0.16,0.36 0,0.2 -0.16,0.36 -0.14,0.16 -0.36,0.16 -0.2,0 -0.36,-0.16 -0.16,-0.16 -0.16,-0.36 z m 8.2,0 q 0,-0.22 0.16,-0.36 0.16,-0.16 0.36,-0.16 0.22,0 0.36,0.16 0.16,0.14 0.16,0.36 0,0.2 -0.16,0.36 -0.14,0.16 -0.36,0.16 -0.2,0 -0.36,-0.16 -0.16,-0.16 -0.16,-0.36 z m -8.56,1.68 q 0,-0.22 0.16,-0.36 0.16,-0.16 0.36,-0.16 0.22,0 0.36,0.16 0.16,0.14 0.16,0.36 0,0.2 -0.16,0.36 -0.14,0.16 -0.36,0.16 -0.2,0 -0.36,-0.16 -0.16,-0.16 -0.16,-0.36 z m 8.92,0 q 0,-0.22 0.16,-0.36 0.16,-0.16 0.36,-0.16 0.22,0 0.36,0.16 0.16,0.14 0.16,0.36 0,0.2 -0.16,0.36 -0.14,0.16 -0.36,0.16 -0.2,0 -0.36,-0.16 -0.16,-0.16 -0.16,-0.36 z m -8.56,1.68 q 0,-0.22 0.16,-0.36 0.16,-0.16 0.36,-0.16 0.22,0 0.36,0.16 0.16,0.14 0.16,0.36 0,0.2 -0.16,0.36 -0.14,0.16 -0.36,0.16 -0.2,0 -0.36,-0.16 -0.16,-0.16 -0.16,-0.36 z m 8.2,0 q 0,-0.22 0.16,-0.36 0.16,-0.16 0.36,-0.16 0.22,0 0.36,0.16 0.16,0.14 0.16,0.36 0,0.2 -0.16,0.36 -0.14,0.16 -0.36,0.16 -0.2,0 -0.36,-0.16 -0.16,-0.16 -0.16,-0.36 z m -7.26,1.48 q 0,-0.22 0.16,-0.36 0.16,-0.16 0.36,-0.16 0.22,0 0.36,0.16 0.16,0.14 0.16,0.36 0,0.2 -0.16,0.36 -0.14,0.16 -0.36,0.16 -0.2,0 -0.36,-0.16 -0.16,-0.16 -0.16,-0.36 z m 6.32,0 q 0,-0.22 0.16,-0.36 0.16,-0.16 0.36,-0.16 0.22,0 0.36,0.16 0.16,0.14 0.16,0.36 0,0.2 -0.16,0.36 -0.14,0.16 -0.36,0.16 -0.2,0 -0.36,-0.16 -0.16,-0.16 -0.16,-0.36 z m -4.32,0.42 q 0.22,0 0.36,0.16 0.16,0.14 0.16,0.36 0,0.2 -0.16,0.36 -0.14,0.16 -0.36,0.16 -0.2,0 -0.36,-0.16 -0.16,-0.16 -0.16,-0.36 0,-0.22 0.16,-0.36 0.16,-0.16 0.36,-0.16 z m 3.36,0 q 0.22,0 0.36,0.16 0.16,0.14 0.16,0.36 0,0.2 -0.16,0.36 -0.14,0.16 -0.36,0.16 -0.2,0 -0.36,-0.16 -0.16,-0.16 -0.16,-0.36 0,-0.22 0.16,-0.36 0.16,-0.16 0.36,-0.16 z M 452,24.12 q 0.22,0 0.36,0.16 0.16,0.14 0.16,0.36 0,0.2 -0.16,0.36 -0.14,0.16 -0.36,0.16 -0.2,0 -0.36,-0.16 -0.16,-0.16 -0.16,-0.36 0,-0.22 0.16,-0.36 0.16,-0.16 0.36,-0.16 z"
     id="path601" /><path
     d="m 451.5,10.600006 q 0.22,0.44 0.56,1 0.32,0.54 0.7,1.06 0.36,0.52 0.66,0.9 v 0.24 h -1.18 q -0.46,-0.36 -1.04,-0.92 -0.58,-0.58 -1.06,-1.14 -0.5,-0.58 -0.74,-0.94 v -0.2 z"
     id="path603" /></g>

<g
   aria-label="◌́"
   id="t3"
   style="font-size:20px;line-height:0%;font-family:'Gentium Plus Compact';text-align:center;text-anchor:middle;display:inline;fill:#111111"
   class="dead"><path
     d="m 480,87.2 q 0.22,0 0.36,0.16 0.16,0.14 0.16,0.36 0,0.2 -0.16,0.36 -0.14,0.16 -0.36,0.16 -0.2,0 -0.36,-0.16 -0.16,-0.16 -0.16,-0.36 0,-0.22 0.16,-0.36 0.16,-0.16 0.36,-0.16 z m -1.68,0.36 q 0.22,0 0.36,0.16 0.16,0.14 0.16,0.36 0,0.2 -0.16,0.36 -0.14,0.16 -0.36,0.16 -0.2,0 -0.36,-0.16 -0.16,-0.16 -0.16,-0.36 0,-0.22 0.16,-0.36 0.16,-0.16 0.36,-0.16 z m 3.36,0 q 0.22,0 0.36,0.16 0.16,0.14 0.16,0.36 0,0.2 -0.16,0.36 -0.14,0.16 -0.36,0.16 -0.2,0 -0.36,-0.16 -0.16,-0.16 -0.16,-0.36 0,-0.22 0.16,-0.36 0.16,-0.16 0.36,-0.16 z m -5.36,1.46 q 0,-0.22 0.16,-0.36 0.16,-0.16 0.36,-0.16 0.22,0 0.36,0.16 0.16,0.14 0.16,0.36 0,0.2 -0.16,0.36 -0.14,0.16 -0.36,0.16 -0.2,0 -0.36,-0.16 -0.16,-0.16 -0.16,-0.36 z m 6.32,0 q 0,-0.22 0.16,-0.36 0.16,-0.16 0.36,-0.16 0.22,0 0.36,0.16 0.16,0.14 0.16,0.36 0,0.2 -0.16,0.36 -0.14,0.16 -0.36,0.16 -0.2,0 -0.36,-0.16 -0.16,-0.16 -0.16,-0.36 z m -7.26,1.48 q 0,-0.22 0.16,-0.36 0.16,-0.16 0.36,-0.16 0.22,0 0.36,0.16 0.16,0.14 0.16,0.36 0,0.2 -0.16,0.36 -0.14,0.16 -0.36,0.16 -0.2,0 -0.36,-0.16 -0.16,-0.16 -0.16,-0.36 z m 8.2,0 q 0,-0.22 0.16,-0.36 0.16,-0.16 0.36,-0.16 0.22,0 0.36,0.16 0.16,0.14 0.16,0.36 0,0.2 -0.16,0.36 -0.14,0.16 -0.36,0.16 -0.2,0 -0.36,-0.16 -0.16,-0.16 -0.16,-0.36 z m -8.56,1.68 q 0,-0.22 0.16,-0.36 0.16,-0.16 0.36,-0.16 0.22,0 0.36,0.16 0.16,0.14 0.16,0.36 0,0.2 -0.16,0.36 -0.14,0.16 -0.36,0.16 -0.2,0 -0.36,-0.16 -0.16,-0.16 -0.16,-0.36 z m 8.92,0 q 0,-0.22 0.16,-0.36 0.16,-0.16 0.36,-0.16 0.22,0 0.36,0.16 0.16,0.14 0.16,0.36 0,0.2 -0.16,0.36 -0.14,0.16 -0.36,0.16 -0.2,0 -0.36,-0.16 -0.16,-0.16 -0.16,-0.36 z m -8.56,1.68 q 0,-0.22 0.16,-0.36 0.16,-0.16 0.36,-0.16 0.22,0 0.36,0.16 0.16,0.14 0.16,0.36 0,0.2 -0.16,0.36 -0.14,0.16 -0.36,0.16 -0.2,0 -0.36,-0.16 -0.16,-0.16 -0.16,-0.36 z m 8.2,0 q 0,-0.22 0.16,-0.36 0.16,-0.16 0.36,-0.16 0.22,0 0.36,0.16 0.16,0.14 0.16,0.36 0,0.2 -0.16,0.36 -0.14,0.16 -0.36,0.16 -0.2,0 -0.36,-0.16 -0.16,-0.16 -0.16,-0.36 z m -7.26,1.48 q 0,-0.22 0.16,-0.36 0.16,-0.16 0.36,-0.16 0.22,0 0.36,0.16 0.16,0.14 0.16,0.36 0,0.2 -0.16,0.36 -0.14,0.16 -0.36,0.16 -0.2,0 -0.36,-0.16 -0.16,-0.16 -0.16,-0.36 z m 6.32,0 q 0,-0.22 0.16,-0.36 0.16,-0.16 0.36,-0.16 0.22,0 0.36,0.16 0.16,0.14 0.16,0.36 0,0.2 -0.16,0.36 -0.14,0.16 -0.36,0.16 -0.2,0 -0.36,-0.16 -0.16,-0.16 -0.16,-0.36 z m -4.32,0.42 q 0.22,0 0.36,0.16 0.16,0.14 0.16,0.36 0,0.2 -0.16,0.36 -0.14,0.16 -0.36,0.16 -0.2,0 -0.36,-0.16 -0.16,-0.16 -0.16,-0.36 0,-0.22 0.16,-0.36 0.16,-0.16 0.36,-0.16 z m 3.36,0 q 0.22,0 0.36,0.16 0.16,0.14 0.16,0.36 0,0.2 -0.16,0.36 -0.14,0.16 -0.36,0.16 -0.2,0 -0.36,-0.16 -0.16,-0.16 -0.16,-0.36 0,-0.22 0.16,-0.36 0.16,-0.16 0.36,-0.16 z M 480,96.12 q 0.22,0 0.36,0.16 0.16,0.14 0.16,0.36 0,0.2 -0.16,0.36 -0.14,0.16 -0.36,0.16 -0.2,0 -0.36,-0.16 -0.16,-0.16 -0.16,-0.36 0,-0.22 0.16,-0.36 0.16,-0.16 0.36,-0.16 z"
     id="path606" /><path
     d="m 482.96001,82.800006 q -0.24,0.36 -0.74,0.94 -0.5,0.56 -1.06,1.14 -0.58,0.56 -1.06,0.92 h -1.16 v -0.24 q 0.3,-0.38 0.66,-0.9 0.34,-0.52 0.68,-1.06 0.34,-0.56 0.56,-1 h 2.12 z"
     id="path608" /></g>
<g
   aria-label="ß"
   id="text310"
   style="font-size:20px;line-height:0%;font-family:'Linux Libertine';text-align:center;text-anchor:middle;display:inline;fill:#111111;stroke-width:1.25"
   class="key"><path
     d="m 474.12999,49.66 q 0,0.68 -0.28,1.2 -0.28,0.5 -0.7,0.9 -0.42,0.38 -0.84,0.7 -0.42,0.32 -0.7,0.64 -0.28,0.3 -0.28,0.66 0,0.26 0.12,0.48 0.14,0.22 0.52,0.52 0.38,0.28 1.12,0.78 1.08,0.72 1.7,1.48 0.62,0.74 0.62,1.92 0,1.7 -1.04,2.48 -1.02,0.78 -2.68,0.78 -0.94,0 -1.66,-0.18 -0.72,-0.18 -1.24,-0.5 v -1.58 q 0.52,0.32 1.28,0.58 0.76,0.26 1.56,0.26 1.1,0 1.58,-0.46 0.48,-0.46 0.48,-1.26 0,-0.72 -0.42,-1.22 -0.4,-0.5 -1.46,-1.18 -1.26,-0.82 -1.72,-1.4 -0.46,-0.6 -0.46,-1.4 0,-0.62 0.26,-1.06 0.28,-0.44 0.68,-0.76 0.42,-0.34 0.82,-0.66 0.42,-0.32 0.68,-0.7 0.28,-0.38 0.28,-0.92 0,-0.84 -0.72,-1.22 -0.7,-0.38 -1.82,-0.38 -0.7,0 -1.32,0.2 -0.6,0.18 -0.98,0.64 -0.36,0.46 -0.36,1.32 V 62 h -1.76 V 50.32 q 0,-1.34 0.58,-2.12 0.58,-0.8 1.58,-1.14 1,-0.36 2.26,-0.36 1.94,0 3.12,0.74 1.2,0.74 1.2,2.22 z"
     id="path611" /></g>

</svg>
