<?xml version="1.0" encoding="UTF-8" standalone="no"?>
<svg
   version="1.1"
   id="Ebene_1"
   height="183"
   width="535"
   viewBox="0 0 535 183"
   enable-background="new 0 0 535 183"
   xml:space="preserve"
   inkscape:version="0.48.5 r10040"
   sodipodi:docname="noted-Pseudoebene-tkl.svg"
   inkscape:export-xdpi="90"
   inkscape:export-ydpi="90"
   xmlns:inkscape="http://www.inkscape.org/namespaces/inkscape"
   xmlns:sodipodi="http://sodipodi.sourceforge.net/DTD/sodipodi-0.dtd"
   xmlns:xlink="http://www.w3.org/1999/xlink"
   xmlns="http://www.w3.org/2000/svg"
   xmlns:svg="http://www.w3.org/2000/svg"
   xmlns:rdf="http://www.w3.org/1999/02/22-rdf-syntax-ns#"
   xmlns:cc="http://creativecommons.org/ns#"
   xmlns:dc="http://purl.org/dc/elements/1.1/">&#10;&#10;  <metadata
   id="metadata135">&#10;    <rdf:RDF>&#10;      <cc:Work
   rdf:about="">&#10;        <dc:format>image/svg+xml</dc:format>&#10;        <dc:type
   rdf:resource="http://purl.org/dc/dcmitype/StillImage" />&#10;        <dc:title />&#10;      </cc:Work>&#10;    </rdf:RDF>&#10;  </metadata>&#10;&#10;<defs
   id="defs">&#10;<style
   type="text/css"
   id="style46661">&#10;text.mod, text.key, text.dead {&#10;	fill:#111;&#10;	fill-opacity:1;&#10;    stroke:none;&#10;    font-style:normal;&#10;    font-variant:normal;&#10;    font-weight:normal;&#10;    font-stretch:normal;&#10;    display:inline;&#10;    font-family:Arial;&#10;    writing-mode:lr-tb;&#10;}&#10;&#10;text.key {&#10;    font-family:Arial;&#10;}&#10;&#10;text.dead {&#10;    font-family: Gentium Plus Compact; &#10;}&#10;&#10;text.mod {&#10;    text-align:start;&#10;    text-anchor:start;&#10;}&#10;&#10;text.space, text.dead, text.center, text.key {&#10;    text-align:center;&#10;    text-anchor:middle;&#10;}&#10;&#10;text.key { font-size:18px; }&#10;text.dead { font-size:18px; }&#10;text.mod { font-size:10px; }&#10;text.big { font-size:12px; }&#10;&#10;.key {&#10;stroke-width:0.75;&#10;}&#10;&#10;.grey { fill:#949494; stroke:#696969; }&#10;.grey { fill:#9f9f9f; stroke:#747474; }&#10;&#10;.numpad { fill:#afaa9f; stroke:#747474; }&#10;&#10;/* bootstrap colors */&#10;.l5, .r5 { fill:#93CCEA; }&#10;.l4, .r4 { fill:#7abeb3; }&#10;.l3, .r3 { fill:#63b280; }&#10;.l2, .r2 { fill:#4aa44a; }&#10;&#10;/* btn bg hover, unused */&#10;.l2, .r2 { stroke:#3071a9; }&#10;.l3, .r3 { stroke:#449d44; }&#10;.l4, .r4 { stroke:#c9302c; }&#10;.l5, .r5 { stroke:#ec971f; }&#10;&#10;/* btn border hover */&#10;.l2, .r2 { stroke:#204d74; }&#10;.l3, .r3 { stroke:#204d74; }&#10;.l4, .r4 { stroke:#204d74; }&#10;.l5, .r5 { stroke:#204d74; }&#10;&#10;<!-- text.nubkey { fill:#eee; } -->&#10;&#10;.pressed {&#10;	<!--opacity:0.5;-->&#10;	fill:#777;&#10;}&#10;    </style>&#10;&#10;    <g
   id="basekey">&#10;        <rect
   width="32"
   height="32"
   rx="4"
   class="key"
   id="rect1" />&#10;	<!--rect width="20" height="20" x="6" y="6" /-->&#10;        <!--rect width="2" height="2" fill="#000" x="15" y="15" /-->&#10;    </g>&#10;&#10;    </defs>&#10;<sodipodi:namedview
   pagecolor="#ffffff"
   bordercolor="#666666"
   borderopacity="1"
   objecttolerance="10"
   gridtolerance="10"
   guidetolerance="10"
   inkscape:pageopacity="0"
   inkscape:pageshadow="2"
   inkscape:window-width="1614"
   inkscape:window-height="969"
   id="base"
   showgrid="false"
   inkscape:zoom="0.70961538"
   inkscape:cx="685.32105"
   inkscape:cy="241.15395"
   inkscape:window-x="78"
   inkscape:window-y="71"
   inkscape:window-maximized="0"
   inkscape:current-layer="Ebene_1"
   inkscape:showpageshadow="2"
   inkscape:pagecheckerboard="0"
   inkscape:deskcolor="#d1d1d1" />&#10;&#10;<rect
   width="100%"
   height="100%"
   rx="4"
   style="fill:#eee"
   id="rect2" />&#10;&#10;<g
   transform="translate(3.5,3.5)"
   id="g62">&#10;<use
   xlink:href="#basekey"
   y="0"
   x="0"
   class="l5"
   id="use2" />&#10;<use
   xlink:href="#basekey"
   y="0"
   x="36"
   class="l5"
   id="use3" />&#10;<use
   xlink:href="#basekey"
   y="0"
   x="72"
   class="l5"
   id="use4" />&#10;<use
   xlink:href="#basekey"
   y="0"
   x="108"
   class="l4"
   id="use5" />&#10;<use
   xlink:href="#basekey"
   y="0"
   x="144"
   class="l3"
   id="use6" />&#10;<use
   xlink:href="#basekey"
   y="0"
   x="180"
   class="l2"
   id="use7" />&#10;<use
   xlink:href="#basekey"
   y="0"
   x="216"
   class="l2"
   id="use8" />&#10;&#10;<use
   xlink:href="#basekey"
   y="0"
   x="252"
   class="r2"
   id="use9" />&#10;<use
   xlink:href="#basekey"
   y="0"
   x="288"
   class="r2"
   id="use10" />&#10;<use
   xlink:href="#basekey"
   y="0"
   x="324"
   class="r3"
   id="use11" />&#10;<use
   xlink:href="#basekey"
   y="0"
   x="360"
   class="r4"
   id="use12" />&#10;<use
   xlink:href="#basekey"
   y="0"
   x="396"
   class="r5"
   id="use13" />&#10;<use
   xlink:href="#basekey"
   y="0"
   x="432"
   class="r5"
   id="use14" />&#10;&#10;&#10;<use
   xlink:href="#basekey"
   y="36"
   x="54"
   class="l5"
   id="use15" />&#10;<use
   xlink:href="#basekey"
   y="36"
   x="90"
   class="l4"
   id="use16" />&#10;<use
   xlink:href="#basekey"
   y="36"
   x="126"
   class="l3"
   id="use17" />&#10;<use
   xlink:href="#basekey"
   y="36"
   x="162"
   class="l2"
   id="use18" />&#10;<use
   xlink:href="#basekey"
   y="36"
   x="198"
   class="l2"
   id="use19" />&#10;&#10;<use
   xlink:href="#basekey"
   y="36"
   x="234"
   class="r2"
   id="use20" />&#10;<use
   xlink:href="#basekey"
   y="36"
   x="270"
   class="r2"
   id="use21" />&#10;<use
   xlink:href="#basekey"
   y="36"
   x="306"
   class="r3"
   id="use22" />&#10;<use
   xlink:href="#basekey"
   y="36"
   x="342"
   class="r4"
   id="use23" />&#10;<use
   xlink:href="#basekey"
   y="36"
   x="378"
   class="r5"
   id="use24" />&#10;<use
   xlink:href="#basekey"
   y="36"
   x="414"
   class="r5"
   id="use25" />&#10;<use
   xlink:href="#basekey"
   y="36"
   x="450"
   class="r5"
   id="use26" />&#10;&#10;&#10;<use
   xlink:href="#basekey"
   y="72"
   x="64"
   class="l5"
   id="use27" />&#10;<use
   xlink:href="#basekey"
   y="72"
   x="100"
   class="l4"
   id="use28" />&#10;<use
   xlink:href="#basekey"
   y="72"
   x="136"
   class="l3"
   id="use29" />&#10;<use
   xlink:href="#basekey"
   y="72"
   x="172"
   class="l2"
   id="use30" />&#10;<use
   xlink:href="#basekey"
   y="72"
   x="208"
   class="l2"
   id="use31" />&#10;&#10;<use
   xlink:href="#basekey"
   y="72"
   x="244"
   class="r2"
   id="use32" />&#10;<use
   xlink:href="#basekey"
   y="72"
   x="280"
   class="r2"
   id="use33" />&#10;<use
   xlink:href="#basekey"
   y="72"
   x="316"
   class="r3"
   id="use34" />&#10;<use
   xlink:href="#basekey"
   y="72"
   x="352"
   class="r4"
   id="use35" />&#10;<use
   xlink:href="#basekey"
   y="72"
   x="388"
   class="r5"
   id="use36" />&#10;&#10;    <use
   xlink:href="#basekey"
   y="72"
   x="460"
   class="r5"
   id="use37" />&#10;&#10;&#10;&#10;<use
   xlink:href="#basekey"
   y="108"
   x="82"
   class="l5"
   id="use38" />&#10;<use
   xlink:href="#basekey"
   y="108"
   x="118"
   class="l4"
   id="use39" />&#10;<use
   xlink:href="#basekey"
   y="108"
   x="154"
   class="l3"
   id="use40" />&#10;<use
   xlink:href="#basekey"
   y="108"
   x="190"
   class="l2"
   id="use41" />&#10;<use
   xlink:href="#basekey"
   y="108"
   x="226"
   class="l2"
   id="use42" />&#10;&#10;<use
   xlink:href="#basekey"
   y="108"
   x="262"
   class="r2"
   id="use43" />&#10;<use
   xlink:href="#basekey"
   y="108"
   x="298"
   class="r2"
   id="use44" />&#10;<use
   xlink:href="#basekey"
   y="108"
   x="334"
   class="r3"
   id="use45" />&#10;<use
   xlink:href="#basekey"
   y="108"
   x="370"
   class="r4"
   id="use46" />&#10;<use
   xlink:href="#basekey"
   y="108"
   x="406"
   class="r5"
   id="use47" />&#10;&#10;&#10;<rect
   id="backspace"
   y="0"
   x="468"
   width="60"
   height="32"
   rx="4"
   class="key grey" />&#10;&#10;<rect
   id="tab"
   x="0"
   y="36"
   width="50"
   height="32"
   rx="4"
   class="key grey" />&#10;&#10;<rect
   id="m3l"
   x="0"
   y="72"
   width="60"
   height="32"
   rx="4"
   class="key grey" />&#10;&#10;<use
   id="m3r"
   xlink:href="#basekey"
   x="424"
   y="72"
   class="key grey" />&#10;&#10;&#10;<rect
   id="shiftl"
   x="0"
   y="108"
   width="40"
   height="32"
   rx="4"
   class="key grey pressed" />&#10;<rect
   id="m4l"
   x="44"
   y="108"
   width="34"
   height="32"
   rx="4"
   class="key grey pressed" />&#10;<rect
   id="shiftr"
   x="442"
   y="108"
   width="86"
   height="32"
   rx="4"
   class="key grey pressed" />&#10;&#10;<rect
   id="ctrll"
   x="0"
   y="144"
   width="50"
   height="32"
   rx="4"
   class="key grey" />&#10;<rect
   id="altl"
   x="124"
   y="144"
   width="48"
   height="32"
   rx="4"
   class="key grey" />&#10;<rect
   id="space"
   x="176"
   y="144"
   width="168"
   height="32"
   rx="4"
   class="key grey" />&#10;<rect
   id="m4r"
   x="348"
   y="144"
   width="48"
   height="32"
   rx="4"
   class="key grey pressed" />&#10;<rect
   id="ctrlr"
   x="478"
   y="144"
   width="50"
   height="32"
   rx="4"
   class="key grey" />&#10;&#10;<use
   xlink:href="#basekey"
   y="0"
   x="542"
   class="key numpad"
   id="use48" />&#10;<use
   xlink:href="#basekey"
   y="0"
   x="578"
   class="key numpad"
   id="use49" />&#10;<use
   xlink:href="#basekey"
   y="0"
   x="614"
   class="key numpad"
   id="use50" />&#10;<use
   xlink:href="#basekey"
   y="0"
   x="650"
   class="key numpad"
   id="use51" />&#10;&#10;<use
   xlink:href="#basekey"
   y="36"
   x="542"
   class="key numpad"
   id="use52" />&#10;<use
   xlink:href="#basekey"
   y="36"
   x="578"
   class="key numpad"
   id="use53" />&#10;<use
   xlink:href="#basekey"
   y="36"
   x="614"
   class="key numpad"
   id="use54" />&#10;<rect
   id="kpplus"
   x="650"
   y="36"
   width="32"
   height="68"
   rx="4"
   class="key numpad" />&#10;&#10;<use
   xlink:href="#basekey"
   y="72"
   x="542"
   class="key numpad"
   id="use55" />&#10;<use
   xlink:href="#basekey"
   y="72"
   x="578"
   class="key numpad"
   id="use56" />&#10;<use
   xlink:href="#basekey"
   y="72"
   x="614"
   class="key numpad"
   id="use57" />&#10;&#10;<use
   xlink:href="#basekey"
   y="108"
   x="542"
   class="key numpad"
   id="use58" />&#10;<use
   xlink:href="#basekey"
   y="108"
   x="578"
   class="key numpad"
   id="use59" />&#10;<use
   xlink:href="#basekey"
   y="108"
   x="614"
   class="key numpad"
   id="use60" />&#10;<rect
   id="kppenter"
   x="650"
   y="108"
   width="32"
   height="68"
   rx="4"
   class="key numpad" />&#10;&#10;<rect
   id="kp0"
   x="542"
   y="144"
   width="68"
   height="32"
   rx="4"
   class="key numpad" />&#10;<use
   xlink:href="#basekey"
   y="144"
   x="614"
   class="key numpad"
   id="use61" />&#10;&#10;<path
   fill-rule="evenodd"
   clip-rule="evenodd"
   d="      M 10,32      l -6,0 a 4,4 0 0 1 -4,-4      l 0,-24 a 4,4 0 0 1 4,-4      l 34,0 a 4,4 0 0 1 4,4      l 0,60 a 4,4 0 0 1 -4,4      l -24,0 a 4,4 0 0 1 -4,-4      z"
   transform="translate(486,36)"
   id="return"
   class="key grey" />&#10;&#10;<rect
   y="101"
   x="181"
   width="14"
   height="1"
   rx="1"
   id="nub"
   style="fill:#111;" />&#10;<use
   y="0"
   x="108"
   xlink:href="#nub"
   id="use62" />&#10;</g>&#10;&#10;<g
   transform="translate(-0.5,-0.5)"
   id="g63">&#10;<path
   d="m 16.669922,96 v -4.589844 q 0,-0.761719 0.04395,-1.464844 -0.239258,0.874024 -0.429687,1.367188 L 14.506836,96 h -0.654297 l -1.801758,-4.6875 -0.273437,-0.830078 -0.161133,-0.53711 0.01465,0.541993 0.01953,0.922851 V 96 h -0.830078 v -6.879883 h 1.225585 l 1.831055,4.770508 q 0.09766,0.288086 0.185547,0.620117 0.09277,0.327149 0.12207,0.473633 0.03906,-0.195313 0.161133,-0.59082 0.126953,-0.400391 0.170899,-0.50293 l 1.796875,-4.770508 h 1.196289 V 96 Z m 6.801758,-2.646484 q 0,1.386718 -0.610352,2.065429 -0.610351,0.678711 -1.772461,0.678711 -1.157226,0 -1.748047,-0.703125 Q 18.75,94.686523 18.75,93.353516 q 0,-2.734375 2.368164,-2.734375 1.210938,0 1.782227,0.668945 0.571289,0.664062 0.571289,2.06543 z m -0.922852,0 q 0,-1.09375 -0.327148,-1.586914 -0.322266,-0.498047 -1.088868,-0.498047 -0.771484,0 -1.118164,0.507812 -0.341796,0.50293 -0.341796,1.577149 0,1.044921 0.336914,1.572265 0.341796,0.522461 1.069336,0.522461 0.791015,0 1.127929,-0.507812 0.341797,-0.507813 0.341797,-1.586914 z m 5.351563,1.796875 q -0.244141,0.507812 -0.649414,0.727539 -0.400391,0.219726 -0.996094,0.219726 -1.000977,0 -1.47461,-0.673828 -0.46875,-0.673828 -0.46875,-2.041016 0,-2.763671 1.94336,-2.763671 0.600586,0 1.000976,0.219726 0.400391,0.219727 0.644532,0.698242 h 0.0098 l -0.0098,-0.59082 v -2.192383 h 0.878906 v 6.157227 q 0,0.825195 0.0293,1.088867 H 27.96875 q -0.01465,-0.07813 -0.03418,-0.361328 -0.01465,-0.283203 -0.01465,-0.488281 z m -2.666016,-1.796875 q 0,1.108398 0.292969,1.586914 0.292968,0.478515 0.952148,0.478515 0.74707,0 1.083985,-0.517578 0.336914,-0.517578 0.336914,-1.606445 0,-1.049805 -0.336914,-1.538086 -0.336915,-0.488281 -1.074219,-0.488281 -0.664063,0 -0.961914,0.493164 -0.292969,0.488281 -0.292969,1.591797 z m 9.34082,0.74707 q 0,0.952148 -0.605468,1.474609 -0.605469,0.522461 -1.728516,0.522461 -1.044922,0 -1.669922,-0.46875 -0.620117,-0.473633 -0.737305,-1.396484 l 0.908203,-0.08301 q 0.175782,1.220703 1.499024,1.220703 0.664062,0 1.040039,-0.327148 0.380859,-0.327149 0.380859,-0.97168 0,-0.561523 -0.43457,-0.874023 -0.429687,-0.317383 -1.245117,-0.317383 h -0.498047 v -0.761719 h 0.478516 q 0.722656,0 1.118164,-0.3125 0.40039,-0.317383 0.40039,-0.874023 0,-0.551758 -0.327148,-0.869141 -0.322266,-0.322266 -0.961914,-0.322266 -0.581055,0 -0.942383,0.297852 -0.356445,0.297851 -0.415039,0.839844 l -0.883789,-0.06836 q 0.09766,-0.844726 0.698242,-1.318359 0.605469,-0.473633 1.552734,-0.473633 1.035157,0 1.606446,0.483399 0.576172,0.478515 0.576172,1.33789 0,0.65918 -0.371094,1.074219 -0.366211,0.410156 -1.069336,0.556641 v 0.01953 q 0.771484,0.08301 1.201172,0.517578 0.429687,0.43457 0.429687,1.09375 z"
   id="m3ltxt"
   style="font-size:10px;line-height:0%;font-family:Arial;fill:#111111"
   class="mod"
   aria-label="Mod3" />&#10;<path
   d="m 16.585937,126.34375 -1.558593,-1.55859 -1.558594,1.55859 h 0.767578 v 6.07031 h 1.582031 v -6.07031 z m -4.535156,0.58594 2.976563,-2.97656 2.976562,2.97656 H 16.404297 V 133 h -2.753906 v -6.07031 z"
   id="shiftltxt"
   style="font-size:12px;line-height:0%;font-family:Arial;fill:#111111"
   class="mod big"
   aria-label="⇧" />&#10;<path
   d="m 16.210937,166.10059 q 0,0.95214 -0.74707,1.47461 -0.742187,0.52246 -2.094726,0.52246 -2.514649,0 -2.915039,-1.74805 l 0.90332,-0.18066 q 0.15625,0.62011 0.664062,0.91308 0.507813,0.28809 1.381836,0.28809 0.903321,0 1.391602,-0.30762 0.493164,-0.3125 0.493164,-0.91309 0,-0.33691 -0.15625,-0.54687 -0.151367,-0.20996 -0.429688,-0.34668 -0.27832,-0.13672 -0.664062,-0.22949 -0.385742,-0.0928 -0.854492,-0.2002 -0.81543,-0.18066 -1.240235,-0.36133 -0.419921,-0.18066 -0.664062,-0.40039 -0.244141,-0.22461 -0.375977,-0.52246 -0.126953,-0.29785 -0.126953,-0.68359 0,-0.88379 0.673828,-1.36231 0.678711,-0.47851 1.938477,-0.47851 1.171875,0 1.791992,0.36133 0.620117,0.35644 0.869141,1.2207 l -0.917969,0.16113 q -0.151367,-0.54687 -0.576172,-0.79101 -0.424805,-0.24903 -1.176758,-0.24903 -0.825195,0 -1.259765,0.27344 -0.434571,0.27344 -0.434571,0.81543 0,0.31738 0.166016,0.52734 0.170898,0.20508 0.488281,0.35157 0.317383,0.1416 1.264649,0.35156 0.317382,0.0732 0.629882,0.15137 0.317383,0.0732 0.605469,0.18066 0.288086,0.10254 0.53711,0.24414 0.253906,0.1416 0.439453,0.34668 0.185547,0.20508 0.288086,0.4834 0.107421,0.27832 0.107421,0.6543 z m 3.164063,1.86035 q -0.43457,0.11718 -0.888672,0.11718 -1.054687,0 -1.054687,-1.19628 v -3.52539 h -0.610352 v -0.63965 h 0.644531 l 0.258789,-1.18164 h 0.585938 v 1.18164 h 0.976562 v 0.63965 h -0.976562 v 3.33496 q 0,0.38086 0.12207,0.53711 0.126953,0.15136 0.43457,0.15136 0.175782,0 0.507813,-0.0684 z M 20.141602,168 v -4.05273 q 0,-0.55665 -0.0293,-1.23047 h 0.830078 q 0.03906,0.89843 0.03906,1.0791 h 0.01953 q 0.20996,-0.67871 0.483398,-0.92774 0.273437,-0.24902 0.771484,-0.24902 0.175782,0 0.356446,0.0488 v 0.80566 q -0.175782,-0.0488 -0.46875,-0.0488 -0.546875,0 -0.834961,0.47364 -0.288086,0.46875 -0.288086,1.34765 V 168 Z m 5.3125,2.0752 q -0.864258,0 -1.376954,-0.3418 -0.512695,-0.33692 -0.659179,-0.96192 l 0.883789,-0.12695 q 0.08789,0.36621 0.385742,0.56152 0.302734,0.2002 0.791016,0.2002 1.313476,0 1.313476,-1.53809 v -0.84961 h -0.0098 q -0.249024,0.50782 -0.683594,0.76661 -0.434571,0.2539 -1.015625,0.2539 -0.97168,0 -1.430664,-0.64453 -0.454102,-0.64453 -0.454102,-2.02637 0,-1.40136 0.488281,-2.06543 0.493164,-0.66894 1.494141,-0.66894 0.561523,0 0.97168,0.25879 0.415039,0.2539 0.639648,0.72754 h 0.0098 q 0,-0.14649 0.01953,-0.50782 0.01953,-0.36132 0.03906,-0.3955 h 0.83496 q -0.0293,0.26367 -0.0293,1.09375 v 4.03808 q 0,2.22657 -2.211914,2.22657 z m 1.33789,-4.7168 q 0,-0.64453 -0.175781,-1.1084 -0.175781,-0.46875 -0.498047,-0.71289 -0.317383,-0.24902 -0.722656,-0.24902 -0.673828,0 -0.981446,0.48828 -0.307617,0.48828 -0.307617,1.58203 0,1.08398 0.288086,1.55762 0.288086,0.47363 0.986328,0.47363 0.415039,0 0.737305,-0.24414 0.322266,-0.24414 0.498047,-0.69824 0.175781,-0.45899 0.175781,-1.08887 z"
   id="ctrlltxt"
   style="font-size:10px;line-height:0%;font-family:Arial;fill:#111111"
   class="mod"
   aria-label="Strg" />&#10;&#10;<path
   d="m 62.669922,132 v -4.58984 q 0,-0.76172 0.04395,-1.46485 -0.239258,0.87403 -0.429687,1.36719 L 60.506836,132 h -0.654297 l -1.801758,-4.6875 -0.273437,-0.83008 -0.161133,-0.53711 0.01465,0.54199 0.01953,0.92286 V 132 h -0.830079 v -6.87988 h 1.225586 l 1.831055,4.7705 q 0.09766,0.28809 0.185547,0.62012 0.09277,0.32715 0.12207,0.47363 0.03906,-0.19531 0.161133,-0.59082 0.126953,-0.40039 0.170899,-0.50293 l 1.796875,-4.7705 h 1.196289 V 132 Z m 5.961914,-1.55762 V 132 h -0.830078 v -1.55762 H 64.55957 v -0.68359 l 3.149414,-4.63867 h 0.922852 v 4.6289 h 0.966797 v 0.69336 z m -0.830078,-4.33105 q -0.0098,0.0293 -0.136719,0.25879 -0.126953,0.22949 -0.19043,0.32226 l -1.762695,2.59766 -0.263672,0.36133 -0.07813,0.0977 h 2.431641 z"
   id="m4ltxt"
   style="font-size:10px;line-height:0%;font-family:Arial;fill:#111111"
   class="mod"
   aria-label="M4" />&#10;<path
   d="m 140.69824,168 -0.78613,-2.01172 h -3.13477 L 135.98633,168 h -0.9668 l 2.80762,-6.87988 h 1.05957 L 141.65039,168 Z m -2.35351,-6.17676 -0.0439,0.13672 q -0.12207,0.40527 -0.36133,1.04004 l -0.8789,2.26074 h 2.57324 L 138.75,162.99023 q -0.13672,-0.33691 -0.27344,-0.76171 z M 142.34375,168 v -7.24609 h 0.87891 V 168 Z m 4.25293,-0.0391 q -0.43457,0.11718 -0.88867,0.11718 -1.05469,0 -1.05469,-1.19628 v -3.52539 h -0.61035 v -0.63965 h 0.64453 l 0.25879,-1.18164 h 0.58594 v 1.18164 h 0.97656 v 0.63965 h -0.97656 v 3.33496 q 0,0.38086 0.12207,0.53711 0.12695,0.15136 0.43457,0.15136 0.17578,0 0.50781,-0.0684 z"
   id="altltxt"
   style="font-size:10px;line-height:0%;font-family:Arial;fill:#111111"
   class="mod"
   aria-label="Alt" />&#10;&#10;&#10;<path
   d="m 442.66992,96 v -4.589844 q 0,-0.761719 0.0439,-1.464844 -0.23926,0.874024 -0.42969,1.367188 L 440.50684,96 h -0.6543 l -1.80176,-4.6875 -0.27344,-0.830078 -0.16113,-0.53711 0.0146,0.541993 0.0195,0.922851 V 96 h -0.83008 v -6.879883 h 1.22559 l 1.83105,4.770508 q 0.0977,0.288086 0.18555,0.620117 0.0928,0.327149 0.12207,0.473633 0.0391,-0.195313 0.16113,-0.59082 0.12696,-0.400391 0.1709,-0.50293 l 1.79688,-4.770508 h 1.19629 V 96 Z m 6.78223,-1.899414 q 0,0.952148 -0.60547,1.474609 -0.60547,0.522461 -1.72852,0.522461 -1.04492,0 -1.66992,-0.46875 -0.62012,-0.473633 -0.7373,-1.396484 l 0.9082,-0.08301 q 0.17578,1.220703 1.49902,1.220703 0.66407,0 1.04004,-0.327148 0.38086,-0.327149 0.38086,-0.97168 0,-0.561523 -0.43457,-0.874023 -0.42969,-0.317383 -1.24512,-0.317383 h -0.49804 v -0.761719 h 0.47851 q 0.72266,0 1.11817,-0.3125 0.40039,-0.317383 0.40039,-0.874023 0,-0.551758 -0.32715,-0.869141 -0.32227,-0.322266 -0.96191,-0.322266 -0.58106,0 -0.94239,0.297852 -0.35644,0.297851 -0.41504,0.839844 l -0.88379,-0.06836 q 0.0977,-0.844726 0.69825,-1.318359 0.60547,-0.473633 1.55273,-0.473633 1.03516,0 1.60645,0.483399 0.57617,0.478515 0.57617,1.33789 0,0.65918 -0.3711,1.074219 -0.36621,0.410156 -1.06933,0.556641 v 0.01953 q 0.77148,0.08301 1.20117,0.517578 0.42969,0.43457 0.42969,1.09375 z"
   id="m3rtxt"
   style="font-size:10px;line-height:0%;font-family:Arial;fill:#111111"
   class="mod"
   aria-label="M3" />&#10;&#10;&#10;<path
   d="m 456.58594,126.34375 -1.5586,-1.55859 -1.55859,1.55859 h 0.76758 v 6.07031 h 1.58203 v -6.07031 z m -4.53516,0.58594 2.97656,-2.97656 2.97657,2.97656 H 456.4043 V 133 h -2.75391 v -6.07031 z"
   id="shiftrtxt"
   style="font-size:12px;line-height:0%;font-family:Arial;fill:#111111"
   class="mod big"
   aria-label="⇧" />&#10;<path
   d="m 496.21094,166.10059 q 0,0.95214 -0.74707,1.47461 -0.74219,0.52246 -2.09473,0.52246 -2.51465,0 -2.91504,-1.74805 l 0.90332,-0.18066 q 0.15625,0.62011 0.66406,0.91308 0.50782,0.28809 1.38184,0.28809 0.90332,0 1.3916,-0.30762 0.49317,-0.3125 0.49317,-0.91309 0,-0.33691 -0.15625,-0.54687 -0.15137,-0.20996 -0.42969,-0.34668 -0.27832,-0.13672 -0.66406,-0.22949 -0.38575,-0.0928 -0.8545,-0.2002 -0.81543,-0.18066 -1.24023,-0.36133 -0.41992,-0.18066 -0.66406,-0.40039 -0.24414,-0.22461 -0.37598,-0.52246 -0.12695,-0.29785 -0.12695,-0.68359 0,-0.88379 0.67383,-1.36231 0.67871,-0.47851 1.93847,-0.47851 1.17188,0 1.79199,0.36133 0.62012,0.35644 0.86914,1.2207 l -0.91796,0.16113 q -0.15137,-0.54687 -0.57618,-0.79101 -0.4248,-0.24903 -1.17675,-0.24903 -0.8252,0 -1.25977,0.27344 -0.43457,0.27344 -0.43457,0.81543 0,0.31738 0.16602,0.52734 0.17089,0.20508 0.48828,0.35157 0.31738,0.1416 1.26465,0.35156 0.31738,0.0732 0.62988,0.15137 0.31738,0.0732 0.60547,0.18066 0.28808,0.10254 0.53711,0.24414 0.2539,0.1416 0.43945,0.34668 0.18555,0.20508 0.28809,0.4834 0.10742,0.27832 0.10742,0.6543 z m 3.16406,1.86035 q -0.43457,0.11718 -0.88867,0.11718 -1.05469,0 -1.05469,-1.19628 v -3.52539 h -0.61035 v -0.63965 h 0.64453 l 0.25879,-1.18164 h 0.58594 v 1.18164 h 0.97656 v 0.63965 h -0.97656 v 3.33496 q 0,0.38086 0.12207,0.53711 0.12695,0.15136 0.43457,0.15136 0.17578,0 0.50781,-0.0684 z M 500.1416,168 v -4.05273 q 0,-0.55665 -0.0293,-1.23047 h 0.83008 q 0.0391,0.89843 0.0391,1.0791 h 0.0195 q 0.20996,-0.67871 0.48339,-0.92774 0.27344,-0.24902 0.77149,-0.24902 0.17578,0 0.35644,0.0488 v 0.80566 q -0.17578,-0.0488 -0.46875,-0.0488 -0.54687,0 -0.83496,0.47364 -0.28808,0.46875 -0.28808,1.34765 V 168 Z m 5.3125,2.0752 q -0.86426,0 -1.37695,-0.3418 -0.5127,-0.33692 -0.65918,-0.96192 l 0.88379,-0.12695 q 0.0879,0.36621 0.38574,0.56152 0.30273,0.2002 0.79102,0.2002 1.31347,0 1.31347,-1.53809 v -0.84961 h -0.01 q -0.24903,0.50782 -0.6836,0.76661 -0.43457,0.2539 -1.01562,0.2539 -0.97168,0 -1.43067,-0.64453 -0.4541,-0.64453 -0.4541,-2.02637 0,-1.40136 0.48828,-2.06543 0.49317,-0.66894 1.49414,-0.66894 0.56153,0 0.97168,0.25879 0.41504,0.2539 0.63965,0.72754 h 0.01 q 0,-0.14649 0.0195,-0.50782 0.0195,-0.36132 0.0391,-0.3955 h 0.83496 q -0.0293,0.26367 -0.0293,1.09375 v 4.03808 q 0,2.22657 -2.21192,2.22657 z m 1.33789,-4.7168 q 0,-0.64453 -0.17578,-1.1084 -0.17578,-0.46875 -0.49805,-0.71289 -0.31738,-0.24902 -0.72265,-0.24902 -0.67383,0 -0.98145,0.48828 -0.30761,0.48828 -0.30761,1.58203 0,1.08398 0.28808,1.55762 0.28809,0.47363 0.98633,0.47363 0.41504,0 0.7373,-0.24414 0.32227,-0.24414 0.49805,-0.69824 0.17578,-0.45899 0.17578,-1.08887 z"
   id="ctrlrtxt"
   style="font-size:10px;line-height:0%;font-family:Arial;fill:#111111"
   class="mod"
   aria-label="Strg" />&#10;<path
   d="m 363.66992,168 v -4.58984 q 0,-0.76172 0.0439,-1.46485 -0.23926,0.87403 -0.42969,1.36719 L 361.50684,168 h -0.6543 l -1.80176,-4.6875 -0.27344,-0.83008 -0.16113,-0.53711 0.0146,0.54199 0.0195,0.92286 V 168 h -0.83008 v -6.87988 h 1.22559 l 1.83105,4.7705 q 0.0977,0.28809 0.18555,0.62012 0.0928,0.32715 0.12207,0.47363 0.0391,-0.19531 0.16113,-0.59082 0.12696,-0.40039 0.1709,-0.50293 l 1.79688,-4.7705 h 1.19629 V 168 Z m 6.80176,-2.64648 q 0,1.38671 -0.61035,2.06543 -0.61035,0.67871 -1.77246,0.67871 -1.15723,0 -1.74805,-0.70313 -0.59082,-0.70801 -0.59082,-2.04101 0,-2.73438 2.36816,-2.73438 1.21094,0 1.78223,0.66895 0.57129,0.66406 0.57129,2.06543 z m -0.92285,0 q 0,-1.09375 -0.32715,-1.58692 -0.32227,-0.49805 -1.08887,-0.49805 -0.77148,0 -1.11816,0.50782 -0.3418,0.50293 -0.3418,1.57715 0,1.04492 0.33692,1.57226 0.34179,0.52246 1.06933,0.52246 0.79102,0 1.12793,-0.50781 0.3418,-0.50781 0.3418,-1.58691 z m 5.35156,1.79687 q -0.24414,0.50781 -0.64941,0.72754 -0.40039,0.21973 -0.9961,0.21973 -1.00097,0 -1.47461,-0.67383 -0.46875,-0.67383 -0.46875,-2.04102 0,-2.76367 1.94336,-2.76367 0.60059,0 1.00098,0.21973 0.40039,0.21972 0.64453,0.69824 h 0.01 l -0.01,-0.59082 v -2.19238 h 0.87891 v 6.15722 q 0,0.8252 0.0293,1.08887 h -0.83984 q -0.0147,-0.0781 -0.0342,-0.36133 -0.0147,-0.2832 -0.0147,-0.48828 z m -2.66602,-1.79687 q 0,1.10839 0.29297,1.58691 0.29297,0.47852 0.95215,0.47852 0.74707,0 1.08399,-0.51758 0.33691,-0.51758 0.33691,-1.60645 0,-1.0498 -0.33691,-1.53808 -0.33692,-0.48829 -1.07422,-0.48829 -0.66406,0 -0.96192,0.49317 -0.29297,0.48828 -0.29297,1.5918 z m 8.52051,1.08886 V 168 h -0.83008 v -1.55762 h -3.24218 v -0.68359 l 3.14941,-4.63867 h 0.92285 v 4.6289 h 0.9668 v 0.69336 z m -0.83008,-4.33105 q -0.01,0.0293 -0.13671,0.25879 -0.12696,0.22949 -0.19043,0.32226 l -1.7627,2.59766 -0.26367,0.36133 -0.0781,0.0977 h 2.43164 z"
   id="m4rtxt"
   style="font-size:10px;line-height:0%;font-family:Arial;fill:#111111"
   class="mod"
   aria-label="Mod4" />&#10;<path
   d="m 265.39014,164.55762 q 0,1.72363 -0.61035,2.63183 -0.60547,0.90821 -1.792,0.90821 -1.18652,0 -1.78222,-0.90332 -0.59571,-0.90332 -0.59571,-2.63672 0,-1.77246 0.57618,-2.65625 0.58105,-0.88379 1.83105,-0.88379 1.21582,0 1.79199,0.89355 0.58106,0.89356 0.58106,2.64649 z m -0.89356,0 q 0,-1.48926 -0.34668,-2.15821 -0.34179,-0.66894 -1.13281,-0.66894 -0.81055,0 -1.16699,0.65918 -0.35156,0.65918 -0.35156,2.16797 0,1.46484 0.35644,2.14355 0.36133,0.67871 1.14258,0.67871 0.77637,0 1.13769,-0.69336 0.36133,-0.69336 0.36133,-2.1289 z"
   id="text62"
   style="font-size:10px;line-height:0%;font-family:Arial;text-align:center;text-anchor:middle;fill:#111111"
   class="mod space"
   aria-label="0" />&#10;&#10;<path
   d="m 498.29883,61.214844 -2.97656,-2.976563 2.97656,-2.976562 v 1.599609 h 3.32226 v -3.609375 h 2.75391 l -0.006,6.363281 h -6.07031 z m -0.58594,-3.767578 v -0.767579 l -1.55859,1.558594 1.55859,1.558594 v -0.767578 h 6.07031 l 0.006,-5.191406 h -1.58203 l -0.006,3.609375 z"
   id="returntxt"
   style="font-size:12px;line-height:0%;font-family:Arial;fill:#111111"
   class="mod big"
   aria-label="⏎" />&#10;<path
   d="m 493.37891,23 h -9.5752 l -3.79883,-3.798828 3.79883,-3.798828 h 9.5752 z m -0.72266,-6.875 h -0.68848 l -3.07617,3.076172 3.07617,3.076172 h 0.68848 z m -6.8457,0 2.56347,2.563477 2.56348,-2.563477 z m 5.12695,6.152344 -2.56348,-2.563477 -2.56347,2.563477 z M 484.79492,16.125 h -0.69336 l -3.07617,3.085937 3.07617,3.066407 h 0.69336 l 3.07617,-3.076172 z"
   id="backspacetxt"
   style="font-size:10px;line-height:0%;font-family:Arial;fill:#111111"
   class="mod"
   aria-label="⌫" />&#10;</g>&#10;&#10;<g
   transform="translate(55,26)"
   id="g73">&#10;	<text
   x="0"
   class="key"
   id="text63" />&#10;	<text
   x="36"
   class="key"
   id="text64" />&#10;	<text
   x="72"
   class="key"
   id="text65" />&#10;	<text
   x="108"
   class="key"
   id="text66" />&#10;	<text
   x="144"
   class="key"
   id="text67" />&#10;&#10;	<text
   x="180"
   class="key"
   id="text68" />&#10;	<text
   x="216"
   class="key"
   id="text69" />&#10;	<path
   d="m 258.5127,-6.3896484 v 1.4941406 h -9.15821 l 2.05664,2.0566406 -1.05468,1.0546875 -3.4629,-3.4628906 v 3.3925781 h -1.49414 v -7.5585937 h 1.49414 v 3.375 l 3.4629,-3.4628907 1.05468,1.0546875 -2.05664,2.0566407 z"
   id="text70"
   style="font-size:18px;line-height:0%;font-family:Arial;text-align:center;text-anchor:middle;fill:#111111;stroke-width:0.75"
   class="key"
   aria-label="⇤" />&#10;	<path
   d="m 285.49951,0.17578125 3.61231,-13.21875025 h 1.38867 l -3.57715,13.21875025 z"
   id="text71"
   style="font-size:18px;line-height:0%;font-family:Arial;text-align:center;text-anchor:middle;fill:#111111;stroke-width:0.75"
   class="key"
   aria-label="/" />&#10;	<path
   d="m 324.50537,-9.7910156 2.32031,-0.9052734 0.39551,1.1601562 -2.47851,0.6416015 1.62597,2.1972657 -1.0459,0.6328125 -1.31836,-2.2675782 -1.37109,2.2500001 -1.0459,-0.6328125 1.66114,-2.1796876 -2.46094,-0.6416015 0.39551,-1.1777342 2.34668,0.9404295 -0.10547,-2.6103515 h 1.19531 z"
   id="text72"
   style="font-size:18px;line-height:0%;font-family:Arial;text-align:center;text-anchor:middle;fill:#111111;stroke-width:0.75"
   class="key"
   aria-label="*" />&#10;	<path
   d="m 357.80273,-4.078125 v -1.40625 h 4.39454 v 1.40625 z"
   id="text73"
   style="font-size:18px;line-height:0%;font-family:Arial;text-align:center;text-anchor:middle;fill:#111111;stroke-width:0.75"
   class="key"
   aria-label="-" />&#10;</g>&#10;&#10;&#10;<path
   d="m 10.685547,55.740234 h 6.105469 l -1.371094,-1.371093 0.703125,-0.703125 2.308594,2.308593 v -2.25 h 0.996093 v 5.039063 h -0.996093 v -2.261719 l -2.308594,2.308594 -0.703125,-0.703125 1.371094,-1.371094 h -6.105469 z"
   id="text74"
   style="font-size:12px;line-height:0%;font-family:Arial;fill:#111111"
   class="mod big"
   aria-label="⇥" />&#10;&#10;<g
   transform="translate(73,62)"
   id="g86">&#10;	<path
   d="M -0.39550781,-13.183594 H 0.39550781 L 3.8408203,-9.7207031 2.7861328,-8.6660156 0.74707031,-10.722656 v 3.2519529 H 3.3486328 v 1.4941406 H 0.74707031 v 1.4941406 H 3.3486328 v 1.4941406 H 0.74707031 V 0 H -0.74707031 V -2.9882813 H -3.3310547 v -1.4941406 h 2.58398439 V -5.9765625 H -3.3310547 v -1.4941406 h 2.58398439 v -3.2519529 l -2.05664059,2.0566404 -1.0546875,-1.0546875 z"
   id="text75"
   style="font-size:18px;line-height:0%;font-family:Arial;text-align:center;text-anchor:middle;fill:#111111;stroke-width:0.75"
   class="key"
   aria-label="⇞" />&#10;	<path
   d="M 47.355469,0 H 30.120117 l -6.83789,-6.8378906 6.83789,-6.8378904 H 47.355469 Z M 46.054687,-12.375 H 44.81543 l -5.53711,5.5371094 5.53711,5.5371094 h 1.239257 z m -12.322265,0 4.614258,4.6142578 4.614257,-4.6142578 z m 9.228515,11.0742188 -4.614257,-4.6142579 -4.614258,4.6142579 z M 31.904297,-12.375 H 30.65625 l -5.537109,5.5546875 5.537109,5.5195313 h 1.248047 l 5.537109,-5.5371094 z"
   id="text76"
   style="font-size:18px;line-height:0%;font-family:Arial;text-align:center;text-anchor:middle;fill:#111111;stroke-width:0.75"
   class="key"
   aria-label="⌫" />&#10;	<path
   d="m 71.604492,-13.183594 h 0.791016 l 3.46289,3.4628909 -1.054687,1.0546875 -2.056641,-2.0566404 v 3.2519529 h -1.49414 v -3.2519529 l -2.056641,2.0566404 -1.054687,-1.0546875 z m -0.351562,7.2070315 h 1.49414 v 2.2324219 h -1.49414 z m 0,3.7265625 h 1.49414 V 0 h -1.49414 z"
   id="text77"
   style="font-size:18px;line-height:0%;font-family:Arial;text-align:center;text-anchor:middle;fill:#111111;stroke-width:0.75"
   class="key"
   aria-label="⇡" />&#10;	<path
   d="m 96.644531,0 v -13.675781 h 17.235349 l 6.83789,6.8378904 L 113.87988,0 Z m 1.300781,-12.375 V -1.3007812 H 99.18457 L 104.72168,-6.8378906 99.18457,-12.375 Z m 12.322268,0 h -9.22852 l 4.61426,4.6142578 z m -9.22852,11.0742188 h 9.22852 l -4.61426,-4.6142579 z M 112.0957,-12.375 l -5.53711,5.5371094 5.53711,5.5371094 h 1.24805 l 5.53711,-5.5195313 -5.53711,-5.5546875 z"
   id="text78"
   style="font-size:18px;line-height:0%;font-family:Arial;text-align:center;text-anchor:middle;fill:#111111;stroke-width:0.75"
   class="key"
   aria-label="⌦" />&#10;	<path
   d="m 144.37793,0.06152344 h -0.79102 l -3.44531,-3.46289064 1.05469,-1.0546875 2.03906,2.0566406 v -3.2519531 h -2.60156 v -1.4941406 h 2.60156 v -1.4941406 h -2.60156 v -1.4941406 h 2.60156 v -2.988281 h 1.49414 v 2.988281 h 2.58399 v 1.4941406 h -2.58399 v 1.4941406 h 2.58399 v 1.4941406 h -2.58399 v 3.2519531 l 2.05664,-2.0566406 1.05469,1.0546875 z"
   id="text79"
   style="font-size:18px;line-height:0%;font-family:Arial;text-align:center;text-anchor:middle;fill:#111111;stroke-width:0.75"
   class="key"
   aria-label="⇟" />&#10;&#10;	<text
   x="180"
   class="key"
   id="text80" />&#10;	<path
   d="m 220.1001,-11.100586 q -1.89844,2.9003907 -2.68067,4.5439454 -0.78222,1.6435547 -1.17773,3.243164 Q 215.85498,-1.7138672 215.85498,0 h -1.65234 q 0,-2.3730469 1.00195,-4.9921875 1.01074,-2.6279297 3.36621,-6.0468755 h -6.65332 v -1.344726 h 8.18262 z"
   id="text81"
   style="font-size:18px;line-height:0%;font-family:Arial;text-align:center;text-anchor:middle;fill:#111111;stroke-width:0.75"
   class="key"
   aria-label="7" />&#10;	<path
   d="m 256.22314,-3.4541016 q 0,1.7138672 -1.08984,2.67187504 -1.08984,0.95800781 -3.12891,0.95800781 -1.98632,0 -3.11132,-0.94042969 -1.11621,-0.94042966 -1.11621,-2.67187496 0,-1.2128907 0.69433,-2.0390625 0.69434,-0.8261719 1.77539,-1.0019532 v -0.035156 Q 249.23584,-6.75 248.64697,-7.5410156 q -0.58008,-0.7910157 -0.58008,-1.8544922 0,-1.4150392 1.05469,-2.2939452 1.06348,-0.878906 2.84766,-0.878906 1.82812,0 2.88281,0.861328 1.06348,0.861328 1.06348,2.3291013 0,1.0634766 -0.58887,1.8544922 -0.58887,0.7910156 -1.6084,0.9931641 v 0.035156 q 1.18653,0.1933594 1.8457,1.0107422 0.65918,0.8085938 0.65918,2.0302734 z m -1.95117,-5.8359375 q 0,-2.1005859 -2.30273,-2.1005859 -1.11621,0 -1.70508,0.527344 -0.58008,0.527343 -0.58008,1.5732419 0,1.0634766 0.59766,1.6259766 0.60644,0.5537109 1.70508,0.5537109 1.11621,0 1.69629,-0.5097656 0.58886,-0.5185547 0.58886,-1.6699219 z m 0.30762,5.6865235 q 0,-1.1513672 -0.68555,-1.7314453 -0.68554,-0.5888672 -1.9248,-0.5888672 -1.2041,0 -1.88086,0.6328125 -0.67676,0.6240234 -0.67676,1.7226562 0,2.5576172 2.61035,2.5576172 1.29199,0 1.92481,-0.6152344 0.63281,-0.6240234 0.63281,-1.977539 z"
   id="text82"
   style="font-size:18px;line-height:0%;font-family:Arial;text-align:center;text-anchor:middle;fill:#111111;stroke-width:0.75"
   class="key"
   aria-label="8" />&#10;	<path
   d="m 292.15283,-6.4423828 q 0,3.1904297 -1.16894,4.9042969 -1.16016,1.71386715 -3.31348,1.71386715 -1.4502,0 -2.3291,-0.60644531 -0.87012,-0.61523434 -1.24805,-1.97753904 l 1.51172,-0.2373047 q 0.47461,1.546875 2.0918,1.546875 1.3623,0 2.10937,-1.265625 0.74707,-1.265625 0.78223,-3.6123047 -0.35156,0.7910156 -1.2041,1.2744141 -0.85254,0.4746093 -1.87207,0.4746093 -1.66992,0 -2.67188,-1.1425781 -1.00195,-1.1425781 -1.00195,-3.0322266 0,-1.9423832 1.08984,-3.0498042 1.08985,-1.116211 3.03223,-1.116211 2.06543,0 3.12891,1.529296 1.06347,1.5292974 1.06347,4.5966802 z m -1.72265,-1.5292969 q 0,-1.4941406 -0.68555,-2.3994143 -0.68555,-0.914062 -1.83692,-0.914062 -1.14257,0 -1.80175,0.782226 -0.65918,0.7734378 -0.65918,2.1005862 0,1.3535157 0.65918,2.1445313 0.65918,0.7822266 1.78418,0.7822266 0.68554,0 1.27441,-0.3076172 0.58887,-0.3164063 0.92285,-0.8876953 0.34278,-0.5712891 0.34278,-1.3007813 z"
   id="text83"
   style="font-size:18px;line-height:0%;font-family:Arial;text-align:center;text-anchor:middle;fill:#111111;stroke-width:0.75"
   class="key"
   aria-label="9" />&#10;	<path
   d="m 324.6416,-5.34375 v 3.7617188 h -1.29199 V -5.34375 h -3.72656 v -1.2832031 h 3.72656 v -3.7617189 h 1.29199 v 3.7617189 h 3.72656 V -5.34375 Z"
   id="text84"
   style="font-size:18px;line-height:0%;font-family:Arial;text-align:center;text-anchor:middle;fill:#111111;stroke-width:0.75"
   class="key"
   aria-label="+" />&#10;	<text
   x="360"
   class="key"
   id="text85" />&#10;&#10;  <text
   x="396"
   class="key"
   id="text86" />&#10;&#10;</g>&#10;&#10;&#10;<g
   transform="translate(84,98)"
   id="g96">&#10;	<path
   d="m 6.6357422,-13.12207 v 0.870117 H -5.5986328 V 0 H -6.46875 v -13.12207 z m -10.5556641,3.102539 0.553711,-0.553711 h 4.8867187 v 1.4853514 h -2.9003906 l 7.5761719,7.5761719 -1.0546875,1.05468745 -7.5761719,-7.57617185 v 2.9003906 h -1.4853516 z"
   id="text87"
   style="font-size:18px;line-height:0%;font-family:Arial;text-align:center;text-anchor:middle;fill:#111111;stroke-width:0.75"
   class="key"
   aria-label="⇱" />&#10;	<path
   d="m 29.337891,-5.2470703 v -0.7910156 l 3.454101,-3.4541016 1.054688,1.0546875 -2.047852,2.0478516 h 3.243164 v 1.4941406 h -3.243164 l 2.047852,2.0478515 -1.054688,1.0546876 z m 7.198242,0.3515625 v -1.4941406 h 2.241211 v 1.4941406 z m 3.735351,0 v -1.4941406 h 2.241211 v 1.4941406 z"
   id="text88"
   style="font-size:18px;line-height:0%;font-family:Arial;text-align:center;text-anchor:middle;fill:#111111;stroke-width:0.75"
   class="key"
   aria-label="⇠" />&#10;	<path
   d="m 71.604492,0.06152344 -3.46289,-3.46289064 1.054687,-1.0546875 2.056641,2.0566406 v -3.2519531 h 1.49414 v 3.2519531 l 2.056641,-2.0566406 1.054687,1.0546875 -3.46289,3.46289064 z M 71.25293,-7.1455078 v -2.2324219 h 1.49414 v 2.2324219 z m 0,-3.7265622 v -2.25 h 1.49414 v 2.25 z"
   id="text89"
   style="font-size:18px;line-height:0%;font-family:Arial;text-align:center;text-anchor:middle;fill:#111111;stroke-width:0.75"
   class="key"
   aria-label="⇣" />&#10;	<path
   d="m 114.66211,-5.2470703 -3.4541,3.4541016 -1.05469,-1.0546876 2.04785,-2.0478515 h -3.24316 v -1.4941406 h 3.24316 l -2.04785,-2.0478516 1.05469,-1.0546875 3.4541,3.4541016 z m -9.43945,-1.1425781 h 2.24121 v 1.4941406 h -2.24121 z m -1.49414,0 v 1.4941406 h -2.24122 v -1.4941406 z"
   id="text90"
   style="font-size:18px;line-height:0%;font-family:Arial;text-align:center;text-anchor:middle;fill:#111111;stroke-width:0.75"
   class="key nubkey"
   aria-label="⇢" />&#10;	<path
   d="m 137.53125,0 v -0.87011719 h 12.23437 V -13.12207 h 0.87012 V 0 Z m 10.55566,-3.1025391 -0.55371,0.553711 h -4.88672 v -1.4853516 h 2.90039 l -7.57617,-7.5761723 1.05469,-1.054687 7.57617,7.5761718 v -2.9003906 h 1.48535 z"
   id="text91"
   style="font-size:18px;line-height:0%;font-family:Arial;text-align:center;text-anchor:middle;fill:#111111;stroke-width:0.75"
   class="key"
   aria-label="⇲" />&#10;&#10;	<text
   x="180"
   class="key"
   id="text92" />&#10;	<path
   d="M 218.73779,-2.8037109 V 0 h -1.49414 v -2.8037109 h -5.83594 v -1.2304688 l 5.66895,-8.3496093 h 1.66113 v 8.3320312 h 1.74024 v 1.2480469 z m -1.49414,-7.7958981 q -0.0176,0.05273 -0.24609,0.46582 -0.22852,0.4130859 -0.34277,0.5800781 l -3.17286,4.6757812 -0.47461,0.6503906 -0.14062,0.1757813 h 4.37695 z"
   id="text93"
   style="font-size:18px;line-height:0%;font-family:Arial;text-align:center;text-anchor:middle;fill:#111111;stroke-width:0.75"
   class="key nubkey"
   aria-label="4" />&#10;	<path
   d="m 256.24951,-4.0341797 q 0,1.9599609 -1.16894,3.08496095 -1.16016,1.125 -3.22559,1.125 -1.73144,0 -2.79492,-0.75585937 -1.06348,-0.75585938 -1.34473,-2.18847658 l 1.59961,-0.1845703 q 0.50098,1.8369141 2.5752,1.8369141 1.27441,0 1.99511,-0.7646485 0.72071,-0.7734375 0.72071,-2.118164 0,-1.1689453 -0.7295,-1.8896485 -0.7207,-0.7207031 -1.95117,-0.7207031 -0.6416,0 -1.19531,0.2021484 -0.55371,0.2021485 -1.10742,0.6855469 h -1.54688 l 0.41309,-6.6621093 h 7.04004 v 1.344726 h -5.59863 l -0.23731,3.9287114 q 1.02832,-0.7910156 2.55762,-0.7910156 1.82812,0 2.90918,1.0722656 1.08984,1.0722657 1.08984,2.7949219 z"
   id="text94"
   style="font-size:18px;line-height:0%;font-family:Arial;text-align:center;text-anchor:middle;fill:#111111;stroke-width:0.75"
   class="key"
   aria-label="5" />&#10;	<path
   d="m 292.21436,-4.0517578 q 0,1.9599609 -1.06348,3.09374999 -1.06348,1.13378906 -2.93555,1.13378906 -2.09179,0 -3.19922,-1.55566405 -1.10742,-1.5556641 -1.10742,-4.5263672 0,-3.2167969 1.15137,-4.939453 1.15137,-1.722656 3.27832,-1.722656 2.80371,0 3.5332,2.522461 l -1.51172,0.2724605 q -0.46582,-1.5117185 -2.03906,-1.5117185 -1.35351,0 -2.10059,1.265625 -0.73828,1.2568357 -0.73828,3.6474607 0.43067,-0.7998047 1.21289,-1.2128906 0.78223,-0.421875 1.79297,-0.421875 1.71387,0 2.71582,1.0722656 1.01075,1.0722656 1.01075,2.8828125 z m -1.6084,0.070312 q 0,-1.3447266 -0.65918,-2.0742188 -0.65918,-0.7294921 -1.83692,-0.7294921 -1.10742,0 -1.79297,0.6503906 -0.67675,0.6416015 -0.67675,1.7753906 0,1.4326172 0.70312,2.3466797 0.71192,0.9140625 1.81934,0.9140625 1.14258,0 1.79297,-0.7646484 0.65039,-0.7734376 0.65039,-2.1181641 z"
   id="text95"
   style="font-size:18px;line-height:0%;font-family:Arial;text-align:center;text-anchor:middle;fill:#111111;stroke-width:0.75"
   class="key"
   aria-label="6" />&#10;	<path
   d="m 323.14307,0 v -1.9248047 h 1.71386 V 0 Z"
   id="text96"
   style="font-size:18px;line-height:0%;font-family:Arial;text-align:center;text-anchor:middle;fill:#111111;stroke-width:0.75"
   class="key"
   aria-label="." />&#10;&#10;  &#10;&#10;</g>&#10;&#10;<g
   transform="translate(101,134)"
   id="g106">&#10;    <path
   d="M -9,0 V -13.675781 H 9 V 0 Z m 1.3007813,-12.375 v 11.0742188 h 1.2392578 L -0.92285156,-6.8378906 -6.4599609,-12.375 Z m 12.3222656,0 h -9.2285156 l 4.61425776,4.6142578 z M -4.6054687,-1.3007812 H 4.6230469 L 0.00878906,-5.9150391 Z M 6.4511719,-12.375 0.9140625,-6.8378906 6.4511719,-1.3007812 H 7.6992187 V -12.375 Z"
   id="text97"
   style="font-size:18px;line-height:0%;font-family:Arial;text-align:center;text-anchor:middle;fill:#111111;stroke-width:0.75"
   class="key"
   aria-label="⌧" />&#10;    <path
   d="m 29.487305,-6.3896484 h 9.158203 l -2.056641,-2.0566407 1.054688,-1.0546875 3.46289,3.4628907 v -3.375 h 1.494141 v 7.5585937 h -1.494141 v -3.3925781 l -3.46289,3.4628906 -1.054688,-1.0546875 2.056641,-2.0566406 h -9.158203 z"
   id="text98"
   style="font-size:18px;line-height:0%;font-family:Arial;text-align:center;text-anchor:middle;fill:#111111;stroke-width:0.75"
   class="key"
   aria-label="⇥" />&#10;    <path
   d="m 71.774998,-11.214 c -0.63,0 -1.386,0.306 -1.71,0.468 l 0.216,0.774 c 0.522,-0.324 0.81,-0.45 1.422,-0.45 0.684,0 1.17,0.432 1.17,1.098 h -0.954 c -1.098,0 -1.998,0.558 -1.998,1.638 0,0.99 0.576,1.566 1.512,1.566 0.648,0 1.116,-0.144 1.44,-0.414 v 0.342 h 0.864 V -9 c 0,-1.422 -0.594,-2.214 -1.962,-2.214 z m -0.162,4.266 c -0.468,0 -0.828,-0.27 -0.828,-0.792 0,-0.594 0.63,-0.792 1.422,-0.792 h 0.666 c 0,1.35 -0.792,1.584 -1.26,1.584 z m 0.432,6.354 c -0.738,-1.584 -2.322,-3.978 -3.726,-5.814 l -0.648,0.288 c 1.476,2.034 2.88,4.158 3.996,6.336 h 0.756 c 0.972,-1.998 2.448,-4.248 3.906,-6.228 l -0.576,-0.396 c -1.368,1.8 -2.988,4.284 -3.708,5.814 z"
   id="text99"
   style="font-size:18px;line-height:0%;font-family:Arial;text-align:center;text-anchor:middle;fill:#111111;stroke-width:0.75"
   class="key"
   aria-label="⎀" />&#10;    <path
   d="m 105.40723,-1.1777344 -4.46485,-4.4648437 4.46485,-4.4648439 v 2.3994142 h 4.9834 V -13.12207 h 4.13085 l -0.009,9.5449216 h -9.10547 z m -0.87891,-5.6513672 v -1.1513671 l -2.33789,2.3378906 2.33789,2.3378906 v -1.1513672 h 9.10547 l 0.009,-7.7871093 h -2.37305 l -0.009,5.4140624 z"
   id="text100"
   style="font-size:18px;line-height:0%;font-family:Arial;text-align:center;text-anchor:middle;fill:#111111;stroke-width:0.75"
   class="key"
   aria-label="⏎" />&#10;&#10;    <path
   d="m 146.54004,-6.1171875 v -0.4394531 q 0,-0.8173828 -0.29004,-1.5292969 -0.30762,-0.7294922 -0.87012,-1.2919922 -0.5625,-0.5537109 -1.2832,-0.8613283 -0.68555,-0.290039 -1.52051,-0.290039 -0.83496,0 -1.48535,0.290039 -0.75586,0.3427736 -1.2832,0.8613283 -0.58008,0.5800781 -0.87012,1.2919922 -0.29004,0.7119141 -0.29004,1.5292969 h -1.49414 q 0,-1.116211 0.4043,-2.100586 0.3955,-0.9404297 1.2041,-1.7753904 0.79101,-0.75586 1.75781,-1.186524 0.94922,-0.404297 2.07422,-0.404297 1.125,0 2.07422,0.404297 0.9668,0.430664 1.75781,1.186524 0.80859,0.8349607 1.2041,1.7753904 0.4043,0.984375 0.4043,2.100586 v 0.4394531 l 2.05664,-2.0566406 1.05469,1.0546875 -3.46289,3.4628906 h -0.79102 l -3.44531,-3.4628906 1.05469,-1.0546875 z"
   id="text101"
   style="font-size:18px;line-height:0%;font-family:Arial;text-align:center;text-anchor:middle;fill:#111111;stroke-width:0.75"
   class="key"
   aria-label="↷" />&#10;    <text
   x="180"
   class="key"
   id="text102" />&#10;    <path
   d="M 212.36572,0 V -1.3447266 H 215.521 V -10.87207 l -2.79493,1.9951169 v -1.4941409 l 2.92676,-2.012695 h 1.45899 v 11.0390624 h 3.01464 V 0 Z"
   id="text103"
   style="font-size:18px;line-height:0%;font-family:Arial;text-align:center;text-anchor:middle;fill:#111111;stroke-width:0.75"
   class="key"
   aria-label="1" />&#10;    <path
   d="m 247.8999,0 v -1.1162109 q 0.44824,-1.0283204 1.08985,-1.8105469 0.65039,-0.7910156 1.3623,-1.4238281 0.71191,-0.6416016 1.40625,-1.1865235 0.70313,-0.5449218 1.26563,-1.0898437 0.5625,-0.5449219 0.90527,-1.1425781 0.35156,-0.5976563 0.35156,-1.3535157 0,-1.0195311 -0.59765,-1.5820311 -0.59766,-0.5625 -1.66114,-0.5625 -1.01074,0 -1.66992,0.553711 -0.65039,0.544922 -0.76465,1.5380857 l -1.61719,-0.149414 q 0.17579,-1.4853517 1.25684,-2.3642577 1.08984,-0.878906 2.79492,-0.878906 1.87207,0 2.87403,0.887695 1.01074,0.878906 1.01074,2.5048827 0,0.7207032 -0.33399,1.4326172 -0.32519,0.7119141 -0.97558,1.4238282 -0.65039,0.711914 -2.48731,2.2060547 -1.01074,0.8261718 -1.6084,1.4941406 -0.59765,0.6591797 -0.86132,1.274414 h 6.45996 V 0 Z"
   id="text104"
   style="font-size:18px;line-height:0%;font-family:Arial;text-align:center;text-anchor:middle;fill:#111111;stroke-width:0.75"
   class="key"
   aria-label="2" />&#10;    <path
   d="m 292.21436,-3.4189453 q 0,1.7138672 -1.08985,2.65429686 -1.08984,0.94042969 -3.11133,0.94042969 -1.88086,0 -3.00586,-0.84375 -1.11621,-0.85253905 -1.32714,-2.51367185 l 1.63476,-0.1494141 q 0.31641,2.1972656 2.69824,2.1972656 1.19532,0 1.87207,-0.5888671 0.68555,-0.5888672 0.68555,-1.7490235 0,-1.0107422 -0.78223,-1.5732422 -0.77343,-0.571289 -2.24121,-0.571289 h -0.89648 v -1.3710938 h 0.86133 q 1.30078,0 2.01269,-0.5625 0.72071,-0.5712891 0.72071,-1.5732422 0,-0.9931641 -0.58887,-1.5644531 -0.58008,-0.580078 -1.73145,-0.580078 -1.0459,0 -1.69629,0.536133 -0.6416,0.536132 -0.74707,1.5117184 l -1.59082,-0.1230468 q 0.17578,-1.5205076 1.25684,-2.3730466 1.08984,-0.852539 2.79492,-0.852539 1.86328,0 2.8916,0.870117 1.03711,0.861328 1.03711,2.4082029 0,1.1865235 -0.66797,1.9335938 -0.65918,0.7382812 -1.9248,1.0019531 v 0.035156 q 1.38867,0.149414 2.16211,0.9316406 0.77344,0.7822266 0.77344,1.96875 z"
   id="text105"
   style="font-size:18px;line-height:0%;font-family:Arial;text-align:center;text-anchor:middle;fill:#111111;stroke-width:0.75"
   class="key"
   aria-label="3" />&#10;    <path
   d="m 324.8833,-1.9248047 v 1.47656251 q 0,0.93164063 -0.16699,1.55566409 -0.16699,0.6240234 -0.51856,1.1953125 H 323.1167 Q 323.94287,1.1074219 323.94287,0 h -0.77344 v -1.9248047 z"
   id="text106"
   style="font-size:18px;line-height:0%;font-family:Arial;text-align:center;text-anchor:middle;fill:#111111;stroke-width:0.75"
   class="key"
   aria-label="," />&#10;</g>&#10;&#10;&#10;<g
   transform="translate(561,26)"
   id="g110">&#10;    <text
   x="0"
   class="key"
   id="text107" />&#10;    <text
   x="36"
   class="key"
   id="text108" />&#10;    <text
   x="72"
   class="key"
   id="text109" />&#10;    <text
   x="108"
   class="key"
   id="text110" />&#10;</g>&#10;<g
   transform="translate(561,62)"
   id="g113">&#10;    <path
   d="m 6.6357422,-13.12207 v 0.870117 H -5.5986328 V 0 H -6.46875 v -13.12207 z m -10.5556641,3.102539 0.553711,-0.553711 h 4.8867187 v 1.4853514 h -2.9003906 l 7.5761719,7.5761719 -1.0546875,1.05468745 -7.5761719,-7.57617185 v 2.9003906 h -1.4853516 z"
   id="text111"
   style="font-size:18px;line-height:0%;font-family:Arial;text-align:center;text-anchor:middle;fill:#111111;stroke-width:0.75"
   class="key"
   aria-label="⇱" />&#10;    <path
   d="m 35.604492,-13.183594 h 0.791016 l 3.46289,3.4628909 -1.054687,1.0546875 -2.056641,-2.0566404 v 3.2519529 h -1.49414 v -3.2519529 l -2.056641,2.0566404 -1.054687,-1.0546875 z m -0.351562,7.2070315 h 1.49414 v 2.2324219 h -1.49414 z m 0,3.7265625 h 1.49414 V 0 h -1.49414 z"
   id="text112"
   style="font-size:18px;line-height:0%;font-family:Arial;text-align:center;text-anchor:middle;fill:#111111;stroke-width:0.75"
   class="key"
   aria-label="⇡" />&#10;    <path
   d="m 71.604492,-13.183594 h 0.791016 l 3.445312,3.4628909 -1.054687,1.0546875 -2.039063,-2.0566404 v 3.2519529 h 2.601563 v 1.4941406 H 72.74707 v 1.4941406 h 2.601563 v 1.4941406 H 72.74707 V 0 h -1.49414 v -2.9882813 h -2.583985 v -1.4941406 h 2.583985 v -1.4941406 h -2.583985 v -1.4941406 h 2.583985 v -3.2519529 l -2.056641,2.0566404 -1.054687,-1.0546875 z"
   id="text113"
   style="font-size:18px;line-height:0%;font-family:Arial;text-align:center;text-anchor:middle;fill:#111111;stroke-width:0.75"
   class="key"
   aria-label="⇞" />&#10;</g>&#10;<g
   transform="translate(561,98)"
   id="g116">&#10;    <path
   d="m -6.6621094,-5.2470703 v -0.7910156 l 3.4541016,-3.4541016 1.0546875,1.0546875 -2.0478516,2.0478516 h 3.24316409 v 1.4941406 H -4.2011719 l 2.0478516,2.0478515 -1.0546875,1.0546876 z m 7.19824221,0.3515625 V -6.3896484 H 2.7773438 v 1.4941406 z m 3.73535159,0 v -1.4941406 h 2.2412109 v 1.4941406 z"
   id="text114"
   style="font-size:18px;line-height:0%;font-family:Arial;text-align:center;text-anchor:middle;fill:#111111;stroke-width:0.75"
   class="key"
   aria-label="⇠" />&#10;    <text
   x="36"
   class="key"
   id="text115" />&#10;    <path
   d="m 78.662109,-5.2470703 -3.454101,3.4541016 -1.054688,-1.0546876 2.047852,-2.0478515 h -3.243164 v -1.4941406 h 3.243164 L 74.15332,-8.4375 l 1.054688,-1.0546875 3.454101,3.4541016 z m -9.439453,-1.1425781 h 2.241211 v 1.4941406 h -2.241211 z m -1.49414,0 v 1.4941406 h -2.241211 v -1.4941406 z"
   id="text116"
   style="font-size:18px;line-height:0%;font-family:Arial;text-align:center;text-anchor:middle;fill:#111111;stroke-width:0.75"
   class="key"
   aria-label="⇢" />&#10;</g>&#10;<g
   transform="translate(561,134)"
   id="g119">&#10;    <path
   d="M -6.46875,0 V -0.87011719 H 5.765625 V -13.12207 H 6.6357422 V 0 Z m 10.5556641,-3.1025391 -0.553711,0.553711 H -1.3535156 V -4.0341797 H 1.546875 l -7.5761719,-7.5761723 1.0546875,-1.054687 7.5761719,7.5761718 v -2.9003906 h 1.4853516 z"
   id="text117"
   style="font-size:18px;line-height:0%;font-family:Arial;text-align:center;text-anchor:middle;fill:#111111;stroke-width:0.75"
   class="key"
   aria-label="⇲" />&#10;    <path
   d="m 35.604492,0.06152344 -3.46289,-3.46289064 1.054687,-1.0546875 2.056641,2.0566406 v -3.2519531 h 1.49414 v 3.2519531 l 2.056641,-2.0566406 1.054687,1.0546875 -3.46289,3.46289064 z M 35.25293,-7.1455078 v -2.2324219 h 1.49414 v 2.2324219 z m 0,-3.7265622 v -2.25 h 1.49414 v 2.25 z"
   id="text118"
   style="font-size:18px;line-height:0%;font-family:Arial;text-align:center;text-anchor:middle;fill:#111111;stroke-width:0.75"
   class="key"
   aria-label="⇣" />&#10;    <path
   d="m 72.37793,0.06152344 h -0.791016 l -3.445312,-3.46289064 1.054687,-1.0546875 2.039063,2.0566406 v -3.2519531 h -2.601563 v -1.4941406 h 2.601563 v -1.4941406 h -2.601563 v -1.4941406 h 2.601563 v -2.988281 h 1.49414 v 2.988281 h 2.583985 v 1.4941406 h -2.583985 v 1.4941406 h 2.583985 v 1.4941406 h -2.583985 v 3.2519531 l 2.056641,-2.0566406 1.054687,1.0546875 z"
   id="text119"
   style="font-size:18px;line-height:0%;font-family:Arial;text-align:center;text-anchor:middle;fill:#111111;stroke-width:0.75"
   class="key"
   aria-label="⇟" />&#10;</g>&#10;<g
   transform="translate(561,170)"
   id="g121">&#10;    <path
   d="m 17.774998,-11.214 c -0.63,0 -1.386,0.306 -1.71,0.468 l 0.216,0.774 c 0.522,-0.324 0.81,-0.45 1.422,-0.45 0.684,0 1.17,0.432 1.17,1.098 h -0.954 c -1.098,0 -1.998,0.558 -1.998,1.638 0,0.99 0.576,1.566 1.512,1.566 0.648,0 1.116,-0.144 1.44,-0.414 v 0.342 h 0.864 V -9 c 0,-1.422 -0.594,-2.214 -1.962,-2.214 z m -0.162,4.266 c -0.468,0 -0.828,-0.27 -0.828,-0.792 0,-0.594 0.63,-0.792 1.422,-0.792 h 0.666 c 0,1.35 -0.792,1.584 -1.26,1.584 z m 0.432,6.354 c -0.738,-1.584 -2.322,-3.978 -3.726,-5.814 l -0.648,0.288 c 1.476,2.034 2.88,4.158 3.996,6.336 h 0.756 c 0.972,-1.998 2.448,-4.248 3.906,-6.228 l -0.576,-0.396 c -1.368,1.8 -2.988,4.284 -3.708,5.814 z"
   id="text120"
   style="font-size:18px;line-height:0%;font-family:Arial;text-align:center;text-anchor:middle;fill:#111111;stroke-width:0.75"
   class="key"
   aria-label="⎀" />&#10;    <path
   d="m 60.644531,0 v -13.675781 h 17.235352 l 6.83789,6.8378904 L 77.879883,0 Z m 1.300781,-12.375 V -1.3007812 H 63.18457 L 68.72168,-6.8378906 63.18457,-12.375 Z m 12.322266,0 h -9.228516 l 4.614258,4.6142578 z m -9.228516,11.0742188 h 9.228516 L 69.65332,-5.9150391 Z M 76.095703,-12.375 l -5.537109,5.5371094 5.537109,5.5371094 H 77.34375 L 82.880859,-6.8203125 77.34375,-12.375 Z"
   id="text121"
   style="font-size:18px;line-height:0%;font-family:Arial;text-align:center;text-anchor:middle;fill:#111111;stroke-width:0.75"
   class="key"
   aria-label="⌦" />&#10;</g>&#10;&#10;<g
   transform="translate(561,78)"
   id="g122">&#10;    <text
   x="108"
   class="key"
   id="text122" />&#10;</g>&#10;<g
   transform="translate(561,150)"
   id="g123">&#10;    <path
   d="m 105.40723,-1.1777344 -4.46485,-4.4648437 4.46485,-4.4648439 v 2.3994142 h 4.9834 V -13.12207 h 4.13085 l -0.009,9.5449216 h -9.10547 z m -0.87891,-5.6513672 v -1.1513671 l -2.33789,2.3378906 2.33789,2.3378906 v -1.1513672 h 9.10547 l 0.009,-7.7871093 h -2.37305 l -0.009,5.4140624 z"
   id="text123"
   style="font-size:18px;line-height:0%;font-family:Arial;text-align:center;text-anchor:middle;fill:#111111;stroke-width:0.75"
   class="key"
   aria-label="⏎" />&#10;</g>&#10;&#10;<text
   x="20"
   y="26"
   class="dead"
   id="t1" />&#10;<text
   x="452"
   y="26"
   class="dead"
   id="t2" />&#10;&#10;<text
   x="480"
   y="98"
   class="dead"
   id="t3" />&#10;&#10;</svg>
