<?xml version="1.0" encoding="UTF-8" standalone="no"?>
<svg
   version="1.1"
   id="Ebene_1"
   height="183"
   width="535"
   viewBox="0 0 535 183"
   enable-background="new 0 0 535 183"
   xml:space="preserve"
   inkscape:version="0.48.5 r10040"
   sodipodi:docname="noted-2-tkl.svg"
   inkscape:export-xdpi="90"
   inkscape:export-ydpi="90"
   xmlns:inkscape="http://www.inkscape.org/namespaces/inkscape"
   xmlns:sodipodi="http://sodipodi.sourceforge.net/DTD/sodipodi-0.dtd"
   xmlns:xlink="http://www.w3.org/1999/xlink"
   xmlns="http://www.w3.org/2000/svg"
   xmlns:svg="http://www.w3.org/2000/svg"
   xmlns:rdf="http://www.w3.org/1999/02/22-rdf-syntax-ns#"
   xmlns:cc="http://creativecommons.org/ns#"
   xmlns:dc="http://purl.org/dc/elements/1.1/">&#10;&#10;  <metadata
   id="metadata135">&#10;    <rdf:RDF>&#10;      <cc:Work
   rdf:about="">&#10;        <dc:format>image/svg+xml</dc:format>&#10;        <dc:type
   rdf:resource="http://purl.org/dc/dcmitype/StillImage" />&#10;        <dc:title />&#10;      </cc:Work>&#10;    </rdf:RDF>&#10;  </metadata>&#10;&#10;<defs
   id="defs">&#10;<style
   type="text/css"
   id="style46661">&#10;text.mod, text.key, text.dead {&#10;	fill:#111;&#10;	fill-opacity:1;&#10;    stroke:none;&#10;    font-style:normal;&#10;    font-variant:normal;&#10;    font-weight:normal;&#10;    font-stretch:normal;&#10;    display:inline;&#10;    font-family:DejaVu Sans;&#10;    writing-mode:lr-tb;&#10;}&#10;&#10;text.key {&#10;    font-family:DejaVu Sans;&#10;}&#10;&#10;text.dead {&#10;    font-family: Gentium Plus Compact;&#10;}&#10;&#10;text.mod {&#10;    text-align:start;&#10;    text-anchor:start;&#10;}&#10;&#10;text.space, text.dead, text.center, text.key {&#10;    text-align:center;&#10;    text-anchor:middle;&#10;}&#10;&#10;text.key { font-size:18px; }&#10;text.dead { font-size:18px; }&#10;text.mod { font-size:8px; }&#10;text.big { font-size:12px; }&#10;&#10;.key {&#10;stroke-width:0.75;&#10;}&#10;&#10;.grey { fill:#949494; stroke:#696969; }&#10;.grey { fill:#9f9f9f; stroke:#747474; }&#10;&#10;.numpad { fill:#afaa9f; stroke:#747474; }&#10;&#10;/* bootstrap colors */&#10;.l5, .r5 { fill:#93CCEA; }&#10;.l4, .r4 { fill:#7abeb3; }&#10;.l3, .r3 { fill:#63b280; }&#10;.l2, .r2 { fill:#4aa44a; }&#10;&#10;/* btn bg hover, unused */&#10;.l2, .r2 { stroke:#3071a9; }&#10;.l3, .r3 { stroke:#449d44; }&#10;.l4, .r4 { stroke:#c9302c; }&#10;.l5, .r5 { stroke:#ec971f; }&#10;&#10;/* btn border hover */&#10;.l2, .r2 { stroke:#204d74; }&#10;.l3, .r3 { stroke:#204d74; }&#10;.l4, .r4 { stroke:#204d74; }&#10;.l5, .r5 { stroke:#204d74; }&#10;&#10;<!-- text.nubkey { fill:#eee; } -->&#10;&#10;.pressed {&#10;	<!--opacity:0.5;-->&#10;	fill:#777;&#10;}&#10;    </style>&#10;&#10;    <g
   id="basekey">&#10;        <rect
   width="32"
   height="32"
   rx="4"
   class="key"
   id="rect1" />&#10;	<!--rect width="20" height="20" x="6" y="6" /-->&#10;        <!--rect width="2" height="2" fill="#000" x="15" y="15" /-->&#10;    </g>&#10;&#10;    </defs>&#10;<sodipodi:namedview
   pagecolor="#ffffff"
   bordercolor="#666666"
   borderopacity="1"
   objecttolerance="10"
   gridtolerance="10"
   guidetolerance="10"
   inkscape:pageopacity="0"
   inkscape:pageshadow="2"
   inkscape:window-width="1614"
   inkscape:window-height="969"
   id="base"
   showgrid="false"
   inkscape:zoom="0.70961538"
   inkscape:cx="685.32105"
   inkscape:cy="241.15395"
   inkscape:window-x="78"
   inkscape:window-y="71"
   inkscape:window-maximized="0"
   inkscape:current-layer="Ebene_1"
   inkscape:showpageshadow="2"
   inkscape:pagecheckerboard="0"
   inkscape:deskcolor="#d1d1d1" />&#10;&#10;<g
   transform="translate(3.5,3.5)"
   id="g61">&#10;<use
   xlink:href="#basekey"
   y="0"
   x="0"
   class="l5"
   id="use1" />&#10;<use
   xlink:href="#basekey"
   y="0"
   x="36"
   class="l5"
   id="use2" />&#10;<use
   xlink:href="#basekey"
   y="0"
   x="72"
   class="l5"
   id="use3" />&#10;<use
   xlink:href="#basekey"
   y="0"
   x="108"
   class="l4"
   id="use4" />&#10;<use
   xlink:href="#basekey"
   y="0"
   x="144"
   class="l3"
   id="use5" />&#10;<use
   xlink:href="#basekey"
   y="0"
   x="180"
   class="l2"
   id="use6" />&#10;<use
   xlink:href="#basekey"
   y="0"
   x="216"
   class="l2"
   id="use7" />&#10;&#10;<use
   xlink:href="#basekey"
   y="0"
   x="252"
   class="r2"
   id="use8" />&#10;<use
   xlink:href="#basekey"
   y="0"
   x="288"
   class="r2"
   id="use9" />&#10;<use
   xlink:href="#basekey"
   y="0"
   x="324"
   class="r3"
   id="use10" />&#10;<use
   xlink:href="#basekey"
   y="0"
   x="360"
   class="r4"
   id="use11" />&#10;<use
   xlink:href="#basekey"
   y="0"
   x="396"
   class="r5"
   id="use12" />&#10;<use
   xlink:href="#basekey"
   y="0"
   x="432"
   class="r5"
   id="use13" />&#10;&#10;&#10;<use
   xlink:href="#basekey"
   y="36"
   x="54"
   class="l5"
   id="use14" />&#10;<use
   xlink:href="#basekey"
   y="36"
   x="90"
   class="l4"
   id="use15" />&#10;<use
   xlink:href="#basekey"
   y="36"
   x="126"
   class="l3"
   id="use16" />&#10;<use
   xlink:href="#basekey"
   y="36"
   x="162"
   class="l2"
   id="use17" />&#10;<use
   xlink:href="#basekey"
   y="36"
   x="198"
   class="l2"
   id="use18" />&#10;&#10;<use
   xlink:href="#basekey"
   y="36"
   x="234"
   class="r2"
   id="use19" />&#10;<use
   xlink:href="#basekey"
   y="36"
   x="270"
   class="r2"
   id="use20" />&#10;<use
   xlink:href="#basekey"
   y="36"
   x="306"
   class="r3"
   id="use21" />&#10;<use
   xlink:href="#basekey"
   y="36"
   x="342"
   class="r4"
   id="use22" />&#10;<use
   xlink:href="#basekey"
   y="36"
   x="378"
   class="r5"
   id="use23" />&#10;<use
   xlink:href="#basekey"
   y="36"
   x="414"
   class="r5"
   id="use24" />&#10;<use
   xlink:href="#basekey"
   y="36"
   x="450"
   class="r5"
   id="use25" />&#10;&#10;&#10;<use
   xlink:href="#basekey"
   y="72"
   x="64"
   class="l5"
   id="use26" />&#10;<use
   xlink:href="#basekey"
   y="72"
   x="100"
   class="l4"
   id="use27" />&#10;<use
   xlink:href="#basekey"
   y="72"
   x="136"
   class="l3"
   id="use28" />&#10;<use
   xlink:href="#basekey"
   y="72"
   x="172"
   class="l2"
   id="use29" />&#10;<use
   xlink:href="#basekey"
   y="72"
   x="208"
   class="l2"
   id="use30" />&#10;&#10;<use
   xlink:href="#basekey"
   y="72"
   x="244"
   class="r2"
   id="use31" />&#10;<use
   xlink:href="#basekey"
   y="72"
   x="280"
   class="r2"
   id="use32" />&#10;<use
   xlink:href="#basekey"
   y="72"
   x="316"
   class="r3"
   id="use33" />&#10;<use
   xlink:href="#basekey"
   y="72"
   x="352"
   class="r4"
   id="use34" />&#10;<use
   xlink:href="#basekey"
   y="72"
   x="388"
   class="r5"
   id="use35" />&#10;&#10;    <use
   xlink:href="#basekey"
   y="72"
   x="460"
   class="r5"
   id="use36" />&#10;&#10;&#10;&#10;<use
   xlink:href="#basekey"
   y="108"
   x="82"
   class="l5"
   id="use37" />&#10;<use
   xlink:href="#basekey"
   y="108"
   x="118"
   class="l4"
   id="use38" />&#10;<use
   xlink:href="#basekey"
   y="108"
   x="154"
   class="l3"
   id="use39" />&#10;<use
   xlink:href="#basekey"
   y="108"
   x="190"
   class="l2"
   id="use40" />&#10;<use
   xlink:href="#basekey"
   y="108"
   x="226"
   class="l2"
   id="use41" />&#10;&#10;<use
   xlink:href="#basekey"
   y="108"
   x="262"
   class="r2"
   id="use42" />&#10;<use
   xlink:href="#basekey"
   y="108"
   x="298"
   class="r2"
   id="use43" />&#10;<use
   xlink:href="#basekey"
   y="108"
   x="334"
   class="r3"
   id="use44" />&#10;<use
   xlink:href="#basekey"
   y="108"
   x="370"
   class="r4"
   id="use45" />&#10;<use
   xlink:href="#basekey"
   y="108"
   x="406"
   class="r5"
   id="use46" />&#10;&#10;&#10;<rect
   id="backspace"
   y="0"
   x="468"
   width="60"
   height="32"
   rx="4"
   class="key grey" />&#10;&#10;<rect
   id="tab"
   x="0"
   y="36"
   width="50"
   height="32"
   rx="4"
   class="key grey" />&#10;&#10;<rect
   id="m3l"
   x="0"
   y="72"
   width="60"
   height="32"
   rx="4"
   class="key grey" />&#10;&#10;<use
   id="m3r"
   xlink:href="#basekey"
   x="424"
   y="72"
   class="key grey" />&#10;&#10;&#10;<rect
   id="shiftl"
   x="0"
   y="108"
   width="40"
   height="32"
   rx="4"
   class="key grey pressed" />&#10;<rect
   id="m4l"
   x="44"
   y="108"
   width="34"
   height="32"
   rx="4"
   class="key grey" />&#10;<rect
   id="shiftr"
   x="442"
   y="108"
   width="86"
   height="32"
   rx="4"
   class="key grey pressed" />&#10;&#10;<rect
   id="ctrll"
   x="0"
   y="144"
   width="50"
   height="32"
   rx="4"
   class="key grey" />&#10;<rect
   id="altl"
   x="124"
   y="144"
   width="48"
   height="32"
   rx="4"
   class="key grey" />&#10;<rect
   id="space"
   x="176"
   y="144"
   width="168"
   height="32"
   rx="4"
   class="key grey" />&#10;<rect
   id="m4r"
   x="348"
   y="144"
   width="48"
   height="32"
   rx="4"
   class="key grey" />&#10;<rect
   id="ctrlr"
   x="478"
   y="144"
   width="50"
   height="32"
   rx="4"
   class="key grey" />&#10;&#10;<use
   xlink:href="#basekey"
   y="0"
   x="542"
   class="key numpad"
   id="use47" />&#10;<use
   xlink:href="#basekey"
   y="0"
   x="578"
   class="key numpad"
   id="use48" />&#10;<use
   xlink:href="#basekey"
   y="0"
   x="614"
   class="key numpad"
   id="use49" />&#10;<use
   xlink:href="#basekey"
   y="0"
   x="650"
   class="key numpad"
   id="use50" />&#10;&#10;<use
   xlink:href="#basekey"
   y="36"
   x="542"
   class="key numpad"
   id="use51" />&#10;<use
   xlink:href="#basekey"
   y="36"
   x="578"
   class="key numpad"
   id="use52" />&#10;<use
   xlink:href="#basekey"
   y="36"
   x="614"
   class="key numpad"
   id="use53" />&#10;<rect
   id="kpplus"
   x="650"
   y="36"
   width="32"
   height="68"
   rx="4"
   class="key numpad" />&#10;&#10;<use
   xlink:href="#basekey"
   y="72"
   x="542"
   class="key numpad"
   id="use54" />&#10;<use
   xlink:href="#basekey"
   y="72"
   x="578"
   class="key numpad"
   id="use55" />&#10;<use
   xlink:href="#basekey"
   y="72"
   x="614"
   class="key numpad"
   id="use56" />&#10;&#10;<use
   xlink:href="#basekey"
   y="108"
   x="542"
   class="key numpad"
   id="use57" />&#10;<use
   xlink:href="#basekey"
   y="108"
   x="578"
   class="key numpad"
   id="use58" />&#10;<use
   xlink:href="#basekey"
   y="108"
   x="614"
   class="key numpad"
   id="use59" />&#10;<rect
   id="kppenter"
   x="650"
   y="108"
   width="32"
   height="68"
   rx="4"
   class="key numpad" />&#10;&#10;<rect
   id="kp0"
   x="542"
   y="144"
   width="68"
   height="32"
   rx="4"
   class="key numpad" />&#10;<use
   xlink:href="#basekey"
   y="144"
   x="614"
   class="key numpad"
   id="use60" />&#10;&#10;<path
   fill-rule="evenodd"
   clip-rule="evenodd"
   d="      M 10,32      l -6,0 a 4,4 0 0 1 -4,-4      l 0,-24 a 4,4 0 0 1 4,-4      l 34,0 a 4,4 0 0 1 4,4      l 0,60 a 4,4 0 0 1 -4,4      l -24,0 a 4,4 0 0 1 -4,-4      z"
   transform="translate(486,36)"
   id="return"
   class="key grey" />&#10;&#10;<rect
   y="101"
   x="181"
   width="14"
   height="1"
   rx="1"
   id="nub"
   style="fill:#111;" />&#10;<use
   y="0"
   x="108"
   xlink:href="#nub"
   id="use61" />&#10;</g>&#10;&#10;<g
   transform="translate(-0.5,-0.5)"
   id="g62">&#10;<path
   d="m 10.785156,90.167969 h 1.175782 l 1.488281,3.96875 1.496094,-3.96875 h 1.175781 V 96 h -0.769531 v -5.121094 l -1.503907,4 h -0.792968 l -1.503907,-4 V 96 h -0.765625 z m 8.566406,1.960937 q -0.578125,0 -0.914062,0.453125 -0.335938,0.449219 -0.335938,1.234375 0,0.785156 0.332032,1.238281 0.335937,0.449219 0.917968,0.449219 0.574219,0 0.910157,-0.453125 0.335937,-0.453125 0.335937,-1.234375 0,-0.777344 -0.335937,-1.230469 -0.335938,-0.457031 -0.910157,-0.457031 z m 0,-0.609375 q 0.9375,0 1.472657,0.609375 0.535156,0.609375 0.535156,1.6875 0,1.074219 -0.535156,1.6875 -0.535157,0.609375 -1.472657,0.609375 -0.941406,0 -1.476562,-0.609375 -0.53125,-0.613281 -0.53125,-1.6875 0,-1.078125 0.53125,-1.6875 0.535156,-0.609375 1.476562,-0.609375 z m 6.078125,0.769531 v -2.367187 h 0.71875 V 96 h -0.71875 v -0.65625 q -0.226562,0.390625 -0.574218,0.582031 -0.34375,0.1875 -0.828125,0.1875 -0.792969,0 -1.292969,-0.632812 -0.496094,-0.632813 -0.496094,-1.664063 0,-1.03125 0.496094,-1.664062 0.5,-0.632813 1.292969,-0.632813 0.484375,0 0.828125,0.191406 0.347656,0.1875 0.574218,0.578125 z m -2.449218,1.527344 q 0,0.792969 0.324218,1.246094 0.328125,0.449219 0.898438,0.449219 0.570312,0 0.898437,-0.449219 0.328125,-0.453125 0.328125,-1.246094 0,-0.792969 -0.328125,-1.242187 -0.328125,-0.453125 -0.898437,-0.453125 -0.570313,0 -0.898438,0.453125 -0.324218,0.449218 -0.324218,1.242187 z m 7.140625,-0.960937 q 0.566406,0.121093 0.882812,0.503906 0.320313,0.382812 0.320313,0.945312 0,0.863282 -0.59375,1.335938 -0.59375,0.472656 -1.6875,0.472656 -0.367188,0 -0.757813,-0.07422 -0.386719,-0.07031 -0.800781,-0.214843 V 95.0625 q 0.328125,0.191406 0.71875,0.289062 0.390625,0.09766 0.816406,0.09766 0.742188,0 1.128906,-0.292969 0.390625,-0.292969 0.390625,-0.851563 0,-0.515625 -0.363281,-0.804687 -0.359375,-0.292969 -1.003906,-0.292969 h -0.679688 v -0.648437 h 0.710938 q 0.582031,0 0.890625,-0.230469 0.308594,-0.234375 0.308594,-0.671875 0,-0.449219 -0.320313,-0.6875 -0.316406,-0.242188 -0.910156,-0.242188 -0.324219,0 -0.695313,0.07031 -0.371093,0.07031 -0.816406,0.21875 V 90.3125 Q 28.109375,90.1875 28.5,90.125 q 0.394531,-0.0625 0.742187,-0.0625 0.898438,0 1.421875,0.410156 0.523438,0.40625 0.523438,1.101563 0,0.484375 -0.277344,0.820312 -0.277344,0.332031 -0.789062,0.460938 z"
   id="m3ltxt"
   style="font-size:8px;line-height:0%;font-family:'DejaVu Sans';fill:#111111"
   class="mod"
   aria-label="Mod3" />&#10;<path
   d="m 16.585937,126.34375 -1.558593,-1.55859 -1.558594,1.55859 h 0.767578 v 6.07031 h 1.582031 v -6.07031 z m -4.535156,0.58594 2.976563,-2.97656 2.976562,2.97656 H 16.404297 V 133 h -2.753906 v -6.07031 z"
   id="shiftltxt"
   style="font-size:12px;line-height:0%;font-family:'DejaVu Sans';fill:#111111"
   class="mod big"
   aria-label="⇧" />&#10;<path
   d="m 14.28125,162.35937 v 0.76954 q -0.449219,-0.21485 -0.847656,-0.32032 -0.398438,-0.10547 -0.769531,-0.10547 -0.644532,0 -0.996094,0.25 -0.347656,0.25 -0.347656,0.71094 0,0.38672 0.230468,0.58594 0.234375,0.19531 0.882813,0.31641 l 0.476562,0.0977 q 0.882813,0.16797 1.300782,0.59375 0.421875,0.42188 0.421875,1.13281 0,0.84766 -0.570313,1.28516 -0.566406,0.4375 -1.664062,0.4375 -0.414063,0 -0.882813,-0.0937 -0.464844,-0.0937 -0.964844,-0.27734 v -0.8125 q 0.480469,0.26953 0.941407,0.40625 0.460937,0.13672 0.90625,0.13672 0.675781,0 1.042968,-0.26563 0.367188,-0.26562 0.367188,-0.75781 0,-0.42969 -0.265625,-0.67188 -0.261719,-0.24218 -0.863281,-0.36328 l -0.480469,-0.0937 q -0.882813,-0.17578 -1.277344,-0.55078 -0.394531,-0.375 -0.394531,-1.04297 0,-0.77344 0.542969,-1.21875 0.546875,-0.44531 1.503906,-0.44531 0.410156,0 0.835937,0.0742 0.425782,0.0742 0.871094,0.22265 z m 2.261719,0.0234 v 1.24219 h 1.480468 v 0.55859 h -1.480468 v 2.375 q 0,0.53516 0.144531,0.6875 0.148437,0.15235 0.597656,0.15235 h 0.738281 V 168 h -0.738281 q -0.832031,0 -1.148437,-0.30859 -0.316406,-0.3125 -0.316406,-1.13282 v -2.375 H 15.292969 V 163.625 h 0.527344 v -1.24219 z m 4.960937,1.91406 q -0.121094,-0.0703 -0.265625,-0.10156 -0.140625,-0.0352 -0.3125,-0.0352 -0.609375,0 -0.9375,0.39843 -0.324219,0.39453 -0.324219,1.13672 V 168 h -0.722656 v -4.375 h 0.722656 v 0.67969 q 0.226563,-0.39844 0.589844,-0.58985 0.363281,-0.19531 0.882813,-0.19531 0.07422,0 0.164062,0.0117 0.08984,0.008 0.199219,0.0273 z m 3.492188,1.46485 q 0,-0.78125 -0.324219,-1.21094 -0.320313,-0.42969 -0.902344,-0.42969 -0.578125,0 -0.902344,0.42969 -0.320312,0.42969 -0.320312,1.21094 0,0.77734 0.320312,1.20703 0.324219,0.42969 0.902344,0.42969 0.582031,0 0.902344,-0.42969 0.324219,-0.42969 0.324219,-1.20703 z m 0.71875,1.69531 q 0,1.11719 -0.496094,1.66016 -0.496094,0.54687 -1.519531,0.54687 -0.378907,0 -0.714844,-0.0586 -0.335938,-0.0547 -0.652344,-0.17188 v -0.69922 q 0.316406,0.17188 0.625,0.25391 0.308594,0.082 0.628906,0.082 0.707032,0 1.058594,-0.37109 0.351563,-0.36719 0.351563,-1.11328 v -0.35547 q -0.222657,0.38672 -0.570313,0.57812 Q 24.078125,168 23.59375,168 q -0.804688,0 -1.296875,-0.61328 -0.492188,-0.61328 -0.492188,-1.625 0,-1.01563 0.492188,-1.62891 0.492187,-0.61328 1.296875,-0.61328 0.484375,0 0.832031,0.19141 0.347656,0.1914 0.570313,0.57812 V 163.625 h 0.71875 z"
   id="ctrlltxt"
   style="font-size:8px;line-height:0%;font-family:'DejaVu Sans';fill:#111111"
   class="mod"
   aria-label="Strg" />&#10;&#10;<path
   d="m 56.785156,126.16797 h 1.175781 l 1.488282,3.96875 1.496093,-3.96875 h 1.175782 V 132 h -0.769532 v -5.12109 l -1.503906,4 h -0.792969 l -1.503906,-4 V 132 h -0.765625 z m 9.140625,0.6875 -1.992187,3.11328 h 1.992187 z m -0.207031,-0.6875 h 0.992187 v 3.80078 h 0.832032 V 130.625 H 66.710937 V 132 h -0.785156 v -1.375 h -2.632812 v -0.76172 z"
   id="m4ltxt"
   style="font-size:8px;line-height:0%;font-family:'DejaVu Sans';fill:#111111"
   class="mod"
   aria-label="M4" />&#10;<path
   d="m 137.73437,162.94531 -1.07031,2.90235 h 2.14453 z m -0.44531,-0.77734 h 0.89453 L 140.40625,168 h -0.82031 l -0.53125,-1.49609 h -2.62891 L 135.89453,168 h -0.83203 z m 3.9375,-0.2461 h 0.71875 V 168 h -0.71875 z m 2.9336,0.46094 v 1.24219 h 1.48046 v 0.55859 h -1.48046 v 2.375 q 0,0.53516 0.14453,0.6875 0.14843,0.15235 0.59765,0.15235 h 0.73828 V 168 h -0.73828 q -0.83203,0 -1.14843,-0.30859 -0.31641,-0.3125 -0.31641,-1.13282 v -2.375 h -0.52734 V 163.625 h 0.52734 v -1.24219 z"
   id="altltxt"
   style="font-size:8px;line-height:0%;font-family:'DejaVu Sans';fill:#111111"
   class="mod"
   aria-label="Alt" />&#10;&#10;&#10;<path
   d="m 436.78516,90.167969 h 1.17578 l 1.48828,3.96875 1.49609,-3.96875 h 1.17578 V 96 h -0.76953 v -5.121094 l -1.5039,4 h -0.79297 l -1.50391,-4 V 96 h -0.76562 z m 9.36328,2.6875 q 0.5664,0.121093 0.88281,0.503906 0.32031,0.382812 0.32031,0.945312 0,0.863282 -0.59375,1.335938 -0.59375,0.472656 -1.6875,0.472656 -0.36719,0 -0.75781,-0.07422 -0.38672,-0.07031 -0.80078,-0.214843 V 95.0625 q 0.32812,0.191406 0.71875,0.289062 0.39062,0.09766 0.8164,0.09766 0.74219,0 1.12891,-0.292969 0.39063,-0.292969 0.39063,-0.851563 0,-0.515625 -0.36329,-0.804687 -0.35937,-0.292969 -1.0039,-0.292969 h -0.67969 v -0.648437 h 0.71094 q 0.58203,0 0.89062,-0.230469 0.3086,-0.234375 0.3086,-0.671875 0,-0.449219 -0.32032,-0.6875 -0.3164,-0.242188 -0.91015,-0.242188 -0.32422,0 -0.69531,0.07031 -0.3711,0.07031 -0.81641,0.21875 V 90.3125 q 0.44922,-0.125 0.83984,-0.1875 0.39453,-0.0625 0.74219,-0.0625 0.89844,0 1.42188,0.410156 0.52343,0.40625 0.52343,1.101563 0,0.484375 -0.27734,0.820312 -0.27734,0.332031 -0.78906,0.460938 z"
   id="m3rtxt"
   style="font-size:8px;line-height:0%;font-family:'DejaVu Sans';fill:#111111"
   class="mod"
   aria-label="M3" />&#10;&#10;&#10;<path
   d="m 456.58594,126.34375 -1.5586,-1.55859 -1.55859,1.55859 h 0.76758 v 6.07031 h 1.58203 v -6.07031 z m -4.53516,0.58594 2.97656,-2.97656 2.97657,2.97656 H 456.4043 V 133 h -2.75391 v -6.07031 z"
   id="shiftrtxt"
   style="font-size:12px;line-height:0%;font-family:'DejaVu Sans';fill:#111111"
   class="mod big"
   aria-label="⇧" />&#10;<path
   d="m 494.28125,162.35937 v 0.76954 q -0.44922,-0.21485 -0.84766,-0.32032 -0.39843,-0.10547 -0.76953,-0.10547 -0.64453,0 -0.99609,0.25 -0.34766,0.25 -0.34766,0.71094 0,0.38672 0.23047,0.58594 0.23438,0.19531 0.88281,0.31641 l 0.47657,0.0977 q 0.88281,0.16797 1.30078,0.59375 0.42187,0.42188 0.42187,1.13281 0,0.84766 -0.57031,1.28516 -0.56641,0.4375 -1.66406,0.4375 -0.41407,0 -0.88282,-0.0937 -0.46484,-0.0937 -0.96484,-0.27734 v -0.8125 q 0.48047,0.26953 0.94141,0.40625 0.46093,0.13672 0.90625,0.13672 0.67578,0 1.04297,-0.26563 0.36718,-0.26562 0.36718,-0.75781 0,-0.42969 -0.26562,-0.67188 -0.26172,-0.24218 -0.86328,-0.36328 l -0.48047,-0.0937 q -0.88281,-0.17578 -1.27735,-0.55078 -0.39453,-0.375 -0.39453,-1.04297 0,-0.77344 0.54297,-1.21875 0.54688,-0.44531 1.50391,-0.44531 0.41015,0 0.83594,0.0742 0.42578,0.0742 0.87109,0.22265 z m 2.26172,0.0234 v 1.24219 h 1.48047 v 0.55859 h -1.48047 v 2.375 q 0,0.53516 0.14453,0.6875 0.14844,0.15235 0.59766,0.15235 h 0.73828 V 168 h -0.73828 q -0.83204,0 -1.14844,-0.30859 -0.31641,-0.3125 -0.31641,-1.13282 v -2.375 h -0.52734 V 163.625 h 0.52734 v -1.24219 z m 4.96094,1.91406 q -0.1211,-0.0703 -0.26563,-0.10156 -0.14062,-0.0352 -0.3125,-0.0352 -0.60937,0 -0.9375,0.39843 -0.32422,0.39453 -0.32422,1.13672 V 168 h -0.72265 v -4.375 h 0.72265 v 0.67969 q 0.22656,-0.39844 0.58985,-0.58985 0.36328,-0.19531 0.88281,-0.19531 0.0742,0 0.16406,0.0117 0.0898,0.008 0.19922,0.0273 z m 3.49218,1.46485 q 0,-0.78125 -0.32422,-1.21094 -0.32031,-0.42969 -0.90234,-0.42969 -0.57812,0 -0.90234,0.42969 -0.32032,0.42969 -0.32032,1.21094 0,0.77734 0.32032,1.20703 0.32422,0.42969 0.90234,0.42969 0.58203,0 0.90234,-0.42969 0.32422,-0.42969 0.32422,-1.20703 z m 0.71875,1.69531 q 0,1.11719 -0.49609,1.66016 -0.49609,0.54687 -1.51953,0.54687 -0.37891,0 -0.71485,-0.0586 -0.33593,-0.0547 -0.65234,-0.17188 v -0.69922 q 0.31641,0.17188 0.625,0.25391 0.30859,0.082 0.62891,0.082 0.70703,0 1.05859,-0.37109 0.35156,-0.36719 0.35156,-1.11328 v -0.35547 q -0.22265,0.38672 -0.57031,0.57812 Q 504.07812,168 503.59375,168 q -0.80469,0 -1.29688,-0.61328 -0.49218,-0.61328 -0.49218,-1.625 0,-1.01563 0.49218,-1.62891 0.49219,-0.61328 1.29688,-0.61328 0.48437,0 0.83203,0.19141 0.34766,0.1914 0.57031,0.57812 V 163.625 h 0.71875 z"
   id="ctrlrtxt"
   style="font-size:8px;line-height:0%;font-family:'DejaVu Sans';fill:#111111"
   class="mod"
   aria-label="Strg" />&#10;<path
   d="m 357.78516,162.16797 h 1.17578 l 1.48828,3.96875 1.49609,-3.96875 h 1.17578 V 168 h -0.76953 v -5.12109 l -1.5039,4 h -0.79297 l -1.50391,-4 V 168 h -0.76562 z m 8.5664,1.96094 q -0.57812,0 -0.91406,0.45312 -0.33594,0.44922 -0.33594,1.23438 0,0.78515 0.33203,1.23828 0.33594,0.44922 0.91797,0.44922 0.57422,0 0.91016,-0.45313 0.33594,-0.45312 0.33594,-1.23437 0,-0.77735 -0.33594,-1.23047 -0.33594,-0.45703 -0.91016,-0.45703 z m 0,-0.60938 q 0.9375,0 1.47266,0.60938 0.53515,0.60937 0.53515,1.6875 0,1.07421 -0.53515,1.6875 -0.53516,0.60937 -1.47266,0.60937 -0.9414,0 -1.47656,-0.60937 -0.53125,-0.61329 -0.53125,-1.6875 0,-1.07813 0.53125,-1.6875 0.53516,-0.60938 1.47656,-0.60938 z m 6.07813,0.76953 v -2.36719 h 0.71875 V 168 h -0.71875 v -0.65625 q -0.22657,0.39062 -0.57422,0.58203 -0.34375,0.1875 -0.82813,0.1875 -0.79297,0 -1.29297,-0.63281 -0.49609,-0.63281 -0.49609,-1.66406 0,-1.03125 0.49609,-1.66407 0.5,-0.63281 1.29297,-0.63281 0.48438,0 0.82813,0.19141 0.34765,0.1875 0.57422,0.57812 z m -2.44922,1.52735 q 0,0.79296 0.32422,1.24609 0.32812,0.44922 0.89843,0.44922 0.57032,0 0.89844,-0.44922 0.32813,-0.45313 0.32813,-1.24609 0,-0.79297 -0.32813,-1.24219 -0.32812,-0.45313 -0.89844,-0.45313 -0.57031,0 -0.89843,0.45313 -0.32422,0.44922 -0.32422,1.24219 z m 6.91797,-2.96094 -1.99219,3.11328 h 1.99219 z m -0.20703,-0.6875 h 0.99218 v 3.80078 h 0.83203 v 0.65625 h -0.83203 V 168 h -0.78515 v -1.375 h -2.63282 v -0.76172 z"
   id="m4rtxt"
   style="font-size:8px;line-height:0%;font-family:'DejaVu Sans';fill:#111111"
   class="mod"
   aria-label="Mod4" />&#10;<path
   d="m 239.6582,162.16797 h 0.78907 v 5.16797 h 2.83984 V 168 h -3.62891 z m 8.02735,3.46484 v 0.35156 h -3.30469 q 0.0469,0.74219 0.44531,1.13282 0.40235,0.38672 1.11719,0.38672 0.41406,0 0.80078,-0.10157 0.39063,-0.10156 0.77344,-0.30468 v 0.67968 q -0.38672,0.16407 -0.79297,0.25 -0.40625,0.0859 -0.82422,0.0859 -1.04687,0 -1.66016,-0.60937 -0.60937,-0.60938 -0.60937,-1.64844 0,-1.07422 0.57812,-1.70313 0.58204,-0.63281 1.56641,-0.63281 0.88281,0 1.39453,0.57031 0.51563,0.56641 0.51563,1.54297 z m -0.71875,-0.21094 q -0.008,-0.58984 -0.33203,-0.9414 -0.32032,-0.35156 -0.85157,-0.35156 -0.60156,0 -0.96484,0.33984 -0.35938,0.33984 -0.41406,0.95703 z m 5.64062,0.21094 v 0.35156 h -3.30469 q 0.0469,0.74219 0.44532,1.13282 0.40234,0.38672 1.11718,0.38672 0.41407,0 0.80079,-0.10157 0.39062,-0.10156 0.77343,-0.30468 v 0.67968 q -0.38672,0.16407 -0.79297,0.25 -0.40625,0.0859 -0.82421,0.0859 -1.04688,0 -1.66016,-0.60937 -0.60938,-0.60938 -0.60938,-1.64844 0,-1.07422 0.57813,-1.70313 0.58203,-0.63281 1.56641,-0.63281 0.88281,0 1.39453,0.57031 0.51562,0.56641 0.51562,1.54297 z m -0.71875,-0.21094 q -0.008,-0.58984 -0.33203,-0.9414 -0.32031,-0.35156 -0.85156,-0.35156 -0.60156,0 -0.96485,0.33984 -0.35937,0.33984 -0.41406,0.95703 z m 4.4336,-1.125 q -0.1211,-0.0703 -0.26563,-0.10156 -0.14062,-0.0352 -0.3125,-0.0352 -0.60937,0 -0.9375,0.39843 -0.32422,0.39453 -0.32422,1.13672 V 168 h -0.72265 v -4.375 h 0.72265 v 0.67969 q 0.22656,-0.39844 0.58985,-0.58985 0.36328,-0.19531 0.88281,-0.19531 0.0742,0 0.16406,0.0117 0.0898,0.008 0.19922,0.0273 z m 0.4414,-0.67187 h 3.41406 v 0.65625 l -2.70312,3.14453 h 2.70312 V 168 h -3.51171 v -0.65625 l 2.70312,-3.14453 h -2.60547 z m 8.25391,2.00781 v 0.35156 h -3.30469 q 0.0469,0.74219 0.44531,1.13282 0.40235,0.38672 1.11719,0.38672 0.41406,0 0.80078,-0.10157 0.39063,-0.10156 0.77344,-0.30468 v 0.67968 q -0.38672,0.16407 -0.79297,0.25 -0.40625,0.0859 -0.82422,0.0859 -1.04687,0 -1.66015,-0.60937 -0.60938,-0.60938 -0.60938,-1.64844 0,-1.07422 0.57813,-1.70313 0.58203,-0.63281 1.5664,-0.63281 0.88281,0 1.39453,0.57031 0.51563,0.56641 0.51563,1.54297 z m -0.71875,-0.21094 q -0.008,-0.58984 -0.33203,-0.9414 -0.32032,-0.35156 -0.85157,-0.35156 -0.60156,0 -0.96484,0.33984 -0.35937,0.33984 -0.41406,0.95703 z m 1.89844,-1.79687 h 0.71875 V 168 h -0.71875 z m 0,-1.70313 h 0.71875 v 0.91016 h -0.71875 z m 5.37109,1.8711 v 0.67187 q -0.30469,-0.16797 -0.61328,-0.25 -0.30469,-0.0859 -0.61719,-0.0859 -0.69922,0 -1.08594,0.44531 -0.38672,0.4414 -0.38672,1.24219 0,0.80078 0.38672,1.24609 0.38672,0.44141 1.08594,0.44141 0.3125,0 0.61719,-0.082 0.30859,-0.0859 0.61328,-0.2539 v 0.66406 q -0.30078,0.14063 -0.625,0.21094 -0.32031,0.0703 -0.68359,0.0703 -0.98829,0 -1.57032,-0.62109 -0.58203,-0.6211 -0.58203,-1.67578 0,-1.07032 0.58594,-1.6836 0.58984,-0.61328 1.61328,-0.61328 0.33203,0 0.64844,0.0703 0.3164,0.0664 0.61328,0.20313 z m 4.88672,1.5664 V 168 h -0.71875 v -2.61719 q 0,-0.62109 -0.24219,-0.92969 -0.24219,-0.30859 -0.72656,-0.30859 -0.58203,0 -0.91797,0.37109 -0.33594,0.3711 -0.33594,1.01172 V 168 h -0.72265 v -6.07813 h 0.72265 v 2.38282 q 0.25781,-0.39453 0.60547,-0.58985 0.35156,-0.19531 0.80859,-0.19531 0.75391,0 1.14063,0.46875 0.38672,0.46484 0.38672,1.37109 z m 5.17578,0.27344 v 0.35156 h -3.30469 q 0.0469,0.74219 0.44531,1.13282 0.40235,0.38672 1.11719,0.38672 0.41406,0 0.80078,-0.10157 0.39063,-0.10156 0.77344,-0.30468 v 0.67968 q -0.38672,0.16407 -0.79297,0.25 -0.40625,0.0859 -0.82422,0.0859 -1.04687,0 -1.66015,-0.60937 -0.60938,-0.60938 -0.60938,-1.64844 0,-1.07422 0.57813,-1.70313 0.58203,-0.63281 1.5664,-0.63281 0.88282,0 1.39453,0.57031 0.51563,0.56641 0.51563,1.54297 z m -0.71875,-0.21094 q -0.008,-0.58984 -0.33203,-0.9414 -0.32031,-0.35156 -0.85156,-0.35156 -0.60157,0 -0.96485,0.33984 -0.35937,0.33984 -0.41406,0.95703 z m 5.53516,-0.0625 V 168 h -0.71875 v -2.61719 q 0,-0.62109 -0.24219,-0.92969 -0.24219,-0.30859 -0.72656,-0.30859 -0.58204,0 -0.91797,0.37109 -0.33594,0.3711 -0.33594,1.01172 V 168 h -0.72266 v -4.375 h 0.72266 v 0.67969 q 0.25781,-0.39453 0.60547,-0.58985 0.35156,-0.19531 0.80859,-0.19531 0.75391,0 1.14063,0.46875 0.38672,0.46484 0.38672,1.37109 z"
   id="text61"
   style="font-size:8px;line-height:0%;font-family:'DejaVu Sans';text-align:center;text-anchor:middle;fill:#111111"
   class="mod space"
   aria-label="Leerzeichen" />&#10;&#10;<path
   d="m 498.29883,61.214844 -2.97656,-2.976563 2.97656,-2.976562 v 1.599609 h 3.32226 v -3.609375 h 2.75391 l -0.006,6.363281 h -6.07031 z m -0.58594,-3.767578 v -0.767579 l -1.55859,1.558594 1.55859,1.558594 v -0.767578 h 6.07031 l 0.006,-5.191406 h -1.58203 l -0.006,3.609375 z"
   id="returntxt"
   style="font-size:12px;line-height:0%;font-family:'DejaVu Sans';fill:#111111"
   class="mod big"
   aria-label="⏎" />&#10;<path
   d="m 490.70312,23 h -7.66015 l -3.03906,-3.039063 3.03906,-3.039062 h 7.66015 z M 490.125,17.5 h -0.55078 l -2.46094,2.460937 2.46094,2.460938 h 0.55078 z m -5.47656,0 2.05078,2.050781 L 488.75,17.5 Z m 4.10156,4.921875 -2.05078,-2.050781 -2.05078,2.050781 z M 483.83594,17.5 h -0.55469 l -2.46094,2.46875 2.46094,2.453125 h 0.55469 l 2.46093,-2.460938 z"
   id="backspacetxt"
   style="font-size:8px;line-height:0%;font-family:'DejaVu Sans';fill:#111111"
   class="mod"
   aria-label="⌫" />&#10;</g>&#10;&#10;<g
   transform="translate(55,26)"
   id="g72">&#10;	<path
   d="m 0,-12.225586 q -0.703125,0 -1.1865234,0.492188 -0.4833985,0.483398 -0.4833985,1.186523 0,0.6943359 0.4833985,1.1777344 Q -0.703125,-8.8945313 0,-8.8945313 q 0.703125,0 1.1865234,-0.4746093 0.4833985,-0.4833985 0.4833985,-1.1777344 0,-0.694336 -0.4921875,-1.186523 Q 0.69433594,-12.225586 0,-12.225586 Z m 0,-1.133789 q 0.5625,0 1.0810547,0.219727 0.5185547,0.210937 0.8964844,0.615234 0.4042968,0.395508 0.6064453,0.896484 0.2021484,0.500977 0.2021484,1.081055 0,1.1601562 -0.8173828,1.96875 -0.8085938,0.7998047 -1.98632813,0.7998047 -1.18652347,0 -1.97753907,-0.7910156 -0.7910156,-0.7910157 -0.7910156,-1.9775391 0,-1.177734 0.8085937,-1.995117 Q -1.1689453,-13.359375 0,-13.359375 Z"
   id="text62"
   style="font-size:18px;line-height:0%;font-family:'DejaVu Sans';text-align:center;text-anchor:middle;fill:#111111;stroke-width:0.75"
   class="key"
   aria-label="°" />&#10;	<path
   d="m 34.831055,-8.2265625 q -0.553711,0.4042969 -0.826172,0.7998047 -0.272461,0.3955078 -0.272461,0.7998047 0,0.6679687 0.606445,1.2568359 0.615235,0.5800781 2.8125,1.7666016 0.553711,-0.3955078 0.826172,-0.7910156 Q 38.25,-4.7988281 38.25,-5.203125 q 0,-0.6591797 -0.632813,-1.2568359 -0.624023,-0.5976563 -2.786132,-1.7666016 z m 3.955078,-4.6230465 v 1.441406 q -0.729492,-0.342774 -1.362305,-0.509766 -0.624023,-0.175781 -1.116211,-0.175781 -0.852539,0 -1.327148,0.351562 -0.47461,0.351563 -0.47461,0.975586 0,0.7910161 1.810547,1.8017582 0.228516,0.131836 0.351563,0.2021485 1.854492,1.0458984 2.425781,1.7226562 0.580078,0.6767579 0.580078,1.5644532 0,0.7910156 -0.404297,1.40625 -0.404297,0.6152343 -1.221679,1.0810546 0.544921,0.4570313 0.791015,0.9404297 0.254883,0.4746094 0.254883,1.0371094 0,1.24804689 -0.896484,1.98632814 -0.896485,0.73828126 -2.416993,0.73828126 -0.641601,0 -1.318359,-0.131836 -0.676758,-0.1230468 -1.450195,-0.3779296 v -1.44140629 q 0.764648,0.34277344 1.415039,0.50976563 0.65039,0.17578125 1.160156,0.17578125 0.896484,0 1.388672,-0.36914063 0.500976,-0.36914062 0.500976,-1.03710937 0,-0.89648439 -1.942382,-1.97753909 l -0.219727,-0.1230469 q -1.880859,-1.0546874 -2.443359,-1.7226562 -0.5625,-0.6767578 -0.5625,-1.5732422 0,-0.7998047 0.404297,-1.4238281 0.413086,-0.6328125 1.21289,-1.0634766 -0.518554,-0.3867187 -0.782226,-0.8789062 -0.254883,-0.4921879 -0.254883,-1.0986329 0,-1.142578 0.878906,-1.836914 0.878906,-0.703125 2.337891,-0.703125 0.641601,0 1.30957,0.131836 0.676758,0.123047 1.371094,0.37793 z"
   id="text63"
   style="font-size:18px;line-height:0%;font-family:'DejaVu Sans';text-align:center;text-anchor:middle;fill:#111111;stroke-width:0.75"
   class="key"
   aria-label="§" />&#10;	<path
   d="m 70.954102,-2.3554688 q 0.360351,1.75781255 1.125,1.75781255 0.509765,0 1.168945,-1.01074215 h 1.168945 q -0.527344,0.89648434 -1.142578,1.36230465 -0.667969,0.50097656 -1.283203,0.50097656 -1.371094,0 -1.924805,-1.22167969 L 69.407227,0 h -1.371094 q 0.949219,-1.2919922 1.652344,-2.4960938 -0.08789,-0.6855468 -0.08789,-1.4326171 0,-1.3359375 0.272461,-2.671875 1.02832,-5.0185551 1.942383,-6.0468751 0.632812,-0.711914 1.713867,-0.711914 1.098633,0 1.098633,1.520508 -0.0088,0.685547 -0.166993,1.502929 -0.632812,3.3486333 -3.506835,7.9804692 z m -0.0088,-2.3027343 q 1.643555,-3.0585938 2.144532,-5.5019529 0.263672,-1.291992 0.263672,-1.625977 0,-0.606445 -0.219727,-0.606445 -0.958008,0.764648 -1.810547,5.3173827 -0.237305,1.2744141 -0.37793,2.4169922 z"
   id="text64"
   style="font-size:18px;line-height:0%;font-family:'DejaVu Sans';text-align:center;text-anchor:middle;fill:#111111;stroke-width:0.75"
   class="key"
   aria-label="ℓ" />&#10;	<path
   d="m 104.18994,-9.3076172 4.12207,3.6738281 v 0.7207032 l -4.12207,3.6738281 v -1.678711 l 2.64551,-2.3554687 -2.64551,-2.3554687 z m 3.81445,0 4.12207,3.6738281 v 0.7207032 l -4.12207,3.6738281 v -1.678711 l 2.64551,-2.3554687 -2.64551,-2.3554687 z"
   id="text65"
   style="font-size:18px;line-height:0%;font-family:'DejaVu Sans';text-align:center;text-anchor:middle;fill:#111111;stroke-width:0.75"
   class="key"
   aria-label="»" />&#10;	<path
   d="m 147.81885,-9.3076172 v 1.678711 l -2.64551,2.3554687 2.64551,2.3554687 v 1.678711 l -4.12207,-3.6738281 v -0.7207032 z m -3.81446,0 v 1.678711 l -2.6455,2.3554687 2.6455,2.3554687 v 1.678711 l -4.12207,-3.6738281 v -0.7207032 z"
   id="text66"
   style="font-size:18px;line-height:0%;font-family:'DejaVu Sans';text-align:center;text-anchor:middle;fill:#111111;stroke-width:0.75"
   class="key"
   aria-label="«" />&#10;&#10;	<path
   d="m 180.35596,2.6455078 h -0.87891 L 179.46826,0 q -0.92285,-0.01757813 -1.8457,-0.2109375 -0.92285,-0.20214844 -1.85449,-0.59765625 V -2.390625 q 0.89648,0.5625 1.81054,0.8525391 0.92285,0.28125 1.89844,0.290039 v -4.0078125 q -1.94238,-0.3164062 -2.83008,-1.0722656 -0.8789,-0.7558594 -0.8789,-2.0742188 0,-1.4326171 0.958,-2.2587892 0.95801,-0.826172 2.75098,-0.949219 v -2.065429 h 0.87891 v 2.039062 q 0.81738,0.03516 1.58203,0.175781 0.76465,0.131836 1.49414,0.369141 v 1.5380861 q -0.72949,-0.3691407 -1.50293,-0.5712891 -0.76465,-0.202148 -1.57324,-0.237305 v 3.75293 q 1.99511,0.3076172 2.93554,1.0986328 0.94043,0.7910156 0.94043,2.1621094 0,1.4853516 -1.00195,2.3466797 -0.99316,0.85253904 -2.87402,0.98437497 z m -0.87891,-9.4130859 v -3.6035159 q -1.01953,0.114258 -1.55566,0.5800784 -0.53614,0.4658203 -0.53614,1.2392578 0,0.7558594 0.49219,1.1777344 0.50098,0.421875 1.59961,0.6064453 z m 0.87891,1.6875 v 3.805664 q 1.11621,-0.149414 1.67871,-0.6328125 0.57129,-0.4833984 0.57129,-1.274414 0,-0.7734375 -0.54492,-1.2304688 -0.53614,-0.4570312 -1.70508,-0.6679687 z"
   id="text67"
   style="font-size:18px;line-height:0%;font-family:'DejaVu Sans';text-align:center;text-anchor:middle;fill:#111111;stroke-width:0.75"
   class="key"
   aria-label="$" />&#10;	<path
   d="m 220.53076,-12.111328 v 1.87207 q -0.7998,-0.922851 -1.54687,-1.318359 -0.73828,-0.395508 -1.63477,-0.395508 -1.37988,0 -2.26758,0.878906 -0.88769,0.878906 -1.16894,2.5224612 h 5.07129 l -0.4834,1.0810547 h -4.72852 q -0.0176,0.2109375 -0.0264,0.4130859 0,0.2021485 0,0.5097656 0,0.28125 0,0.4833985 0.009,0.2021484 0.0264,0.4130859 h 3.91992 l -0.49218,1.0810547 h -3.28711 q 0.28125,1.6435547 1.16894,2.53125 0.8877,0.8876953 2.26758,0.8876953 0.89649,0 1.63477,-0.3955078 0.74707,-0.3955078 1.54687,-1.3183594 v 1.8544922 q -0.78222,0.63281251 -1.59961,0.94921876 -0.80859,0.31640625 -1.65234,0.31640625 -2.08301,0 -3.44531,-1.27441401 -1.35352,-1.2744141 -1.70508,-3.5507813 h -1.85449 l 0.48339,-1.0810547 h 1.22168 q 0,-0.2021484 -0.009,-0.4042969 0,-0.2109375 0,-0.4921875 0,-0.3076171 0,-0.5097656 0.009,-0.2109375 0.009,-0.4130859 h -1.70507 l 0.48339,-1.0810547 h 1.3711 q 0.35156,-2.2587892 1.71387,-3.5332032 1.3623,-1.274414 3.43652,-1.274414 0.86133,0 1.66992,0.316406 0.81738,0.307617 1.58203,0.931641 z"
   id="text68"
   style="font-size:18px;line-height:0%;font-family:'DejaVu Sans';text-align:center;text-anchor:middle;fill:#111111;stroke-width:0.75"
   class="key"
   aria-label="€" />&#10;	<path
   d="m 253.19092,-2.2324219 h 1.85449 v 1.51171878 L 253.604,2.0917969 h -1.13379 l 0.72071,-2.81250002 z m -3.60352,0 h 1.85449 v 1.51171878 l -1.4414,2.81250002 h -1.13379 l 0.7207,-2.81250002 z"
   id="text69"
   style="font-size:18px;line-height:0%;font-family:'DejaVu Sans';text-align:center;text-anchor:middle;fill:#111111;stroke-width:0.75"
   class="key"
   aria-label="„" />&#10;	<path
   d="m 286.72119,-8.7978516 h -1.85449 v -1.5205074 l 1.44141,-2.803711 h 1.13378 l -0.7207,2.803711 z m 3.60352,0 h -1.8545 v -1.5205074 l 1.44141,-2.803711 h 1.13379 l -0.7207,2.803711 z"
   id="text70"
   style="font-size:18px;line-height:0%;font-family:'DejaVu Sans';text-align:center;text-anchor:middle;fill:#111111;stroke-width:0.75"
   class="key"
   aria-label="“" />&#10;	<path
   d="m 321.5874,-13.12207 h 1.85449 v 1.511718 l -1.4414,2.8125004 h -1.13379 l 0.7207,-2.8125004 z m 3.60352,0 h 1.85449 v 1.511718 l -1.44141,2.8125004 h -1.13379 l 0.72071,-2.8125004 z"
   id="text71"
   style="font-size:18px;line-height:0%;font-family:'DejaVu Sans';text-align:center;text-anchor:middle;fill:#111111;stroke-width:0.75"
   class="key"
   aria-label="”" />&#10;	<path
   d="m 351.87891,-5.5634766 h 16.24218 v 1.265625 h -16.24218 z"
   id="text72"
   style="font-size:18px;line-height:0%;font-family:'DejaVu Sans';text-align:center;text-anchor:middle;fill:#111111;stroke-width:0.75"
   class="key"
   aria-label="—" />&#10;</g>&#10;&#10;&#10;<path
   d="m 10.685547,55.740234 h 6.105469 l -1.371094,-1.371093 0.703125,-0.703125 2.308594,2.308593 v -2.25 h 0.996093 v 5.039063 h -0.996093 v -2.261719 l -2.308594,2.308594 -0.703125,-0.703125 1.371094,-1.371094 h -6.105469 z"
   id="text73"
   style="font-size:12px;line-height:0%;font-family:'DejaVu Sans';fill:#111111"
   class="mod big"
   aria-label="⇥" />&#10;&#10;<g
   transform="translate(73,62)"
   id="g85">&#10;	<path
   d="M -5.1547852,-13.12207 H 5.1547852 v 1.353515 l -8.296875,10.2744144 H 5.3569336 V 0 H -5.3569336 V -1.3535156 L 2.9399414,-11.62793 h -8.0947266 z"
   id="text74"
   style="font-size:18px;line-height:0%;font-family:'DejaVu Sans';text-align:center;text-anchor:middle;fill:#111111;stroke-width:0.75"
   class="key"
   aria-label="Z" />&#10;	<path
   d="m 30.467285,-13.12207 h 1.907227 l 3.638672,5.3964841 3.612304,-5.3964841 h 1.907227 L 36.89209,-6.2490234 V 0 h -1.78418 v -6.2490234 z"
   id="text75"
   style="font-size:18px;line-height:0%;font-family:'DejaVu Sans';text-align:center;text-anchor:middle;fill:#111111;stroke-width:0.75"
   class="key"
   aria-label="Y" />&#10;	<path
   d="m 66.977051,-13.12207 h 1.784179 v 7.9716794 q 0,2.109375 0.764649,3.0410156 0.764648,0.9228516 2.478516,0.9228516 1.705078,0 2.469726,-0.9228516 0.764649,-0.9316406 0.764649,-3.0410156 V -13.12207 h 1.784179 v 8.1914059 q 0,2.5664063 -1.274414,3.8759766 -1.265625,1.30957031 -3.74414,1.30957031 -2.487305,0 -3.761719,-1.30957031 -1.265625,-1.3095703 -1.265625,-3.8759766 z"
   id="text76"
   style="font-size:18px;line-height:0%;font-family:'DejaVu Sans';text-align:center;text-anchor:middle;fill:#111111;stroke-width:0.75"
   class="key"
   aria-label="U" />&#10;	<path
   d="m 107.99561,-11.373047 -2.40821,6.5302736 h 4.8252 z m -1.00196,-1.749023 h 2.0127 L 114.00732,0 h -1.8457 l -1.19531,-3.3662109 h -5.91504 L 103.85596,0 h -1.87207 z"
   id="text77"
   style="font-size:18px;line-height:0%;font-family:'DejaVu Sans';text-align:center;text-anchor:middle;fill:#111111;stroke-width:0.75"
   class="key"
   aria-label="A" />&#10;	<path
   d="m 144.00879,-11.917969 q -1.93359,0 -3.07617,1.441406 -1.13379,1.4414067 -1.13379,3.9287114 0,2.4785157 1.13379,3.9199219 1.14258,1.4414063 3.07617,1.4414063 1.93359,0 3.05859,-1.4414063 1.13379,-1.4414062 1.13379,-3.9199219 0,-2.4873047 -1.13379,-3.9287114 -1.125,-1.441406 -3.05859,-1.441406 z m 2.4873,11.68066431 2.33789,2.55761719 h -2.14453 l -1.94238,-2.10058594 q -0.29004,0.0175781 -0.44824,0.0263672 -0.14942,0.008789 -0.29004,0.008789 -2.76856,0 -4.42969,-1.84570311 -1.65234,-1.8544922 -1.65234,-4.9570313 0,-3.1113281 1.65234,-4.9570314 1.66113,-1.854492 4.42969,-1.854492 2.75976,0 4.41211,1.854492 1.65234,1.8457033 1.65234,4.9570314 0,2.2851563 -0.92285,3.9111328 -0.91406,1.6259766 -2.6543,2.39941411 z"
   id="text78"
   style="font-size:18px;line-height:0%;font-family:'DejaVu Sans';text-align:center;text-anchor:middle;fill:#111111;stroke-width:0.75"
   class="key"
   aria-label="Q" />&#10;&#10;	<path
   d="m 178.11475,-11.663086 v 4.9306641 h 2.23242 q 1.23926,0 1.91601,-0.6416015 0.67676,-0.6416016 0.67676,-1.828125 0,-1.1777346 -0.67676,-1.8193356 -0.67675,-0.641602 -1.91601,-0.641602 z m -1.77539,-1.458984 h 4.00781 q 2.20605,0 3.33105,1.001953 1.13379,0.993164 1.13379,2.9179686 0,1.9423828 -1.13379,2.9355468 -1.125,0.9931641 -3.33105,0.9931641 h -2.23242 V 0 h -1.77539 z"
   id="text79"
   style="font-size:18px;line-height:0%;font-family:'DejaVu Sans';text-align:center;text-anchor:middle;fill:#111111;stroke-width:0.75"
   class="key"
   aria-label="P" />&#10;	<path
   d="m 213.36768,-6.2666016 v 4.8076172 h 2.84765 q 1.43262,0 2.11817,-0.5888672 0.69433,-0.5976562 0.69433,-1.8193359 0,-1.2304687 -0.69433,-1.8105469 -0.68555,-0.5888672 -2.11817,-0.5888672 z m 0,-5.3964844 v 3.9550782 h 2.62793 q 1.30078,0 1.93359,-0.4833985 0.6416,-0.4921875 0.6416,-1.4941406 0,-0.9931641 -0.6416,-1.4853511 -0.63281,-0.492188 -1.93359,-0.492188 z m -1.77539,-1.458984 h 4.53515 q 2.03027,0 3.12891,0.84375 1.09863,0.84375 1.09863,2.3994137 0,1.2041016 -0.5625,1.9160157 -0.5625,0.711914 -1.65234,0.8876953 1.30957,0.28125 2.03027,1.1777344 0.72949,0.8876953 0.72949,2.2236328 0,1.7578125 -1.19531,2.71582029 Q 218.50928,0 216.30322,0 h -4.71093 z"
   id="text80"
   style="font-size:18px;line-height:0%;font-family:'DejaVu Sans';text-align:center;text-anchor:middle;fill:#111111;stroke-width:0.75"
   class="key"
   aria-label="B" />&#10;	<path
   d="m 246.00146,-13.12207 h 2.64551 l 3.34864,8.9296872 3.36621,-8.9296872 h 2.6455 V 0 h -1.73144 v -11.522461 l -3.38379,9.0000001 h -1.78418 l -3.38379,-9.0000001 V 0 h -1.72266 z"
   id="text81"
   style="font-size:18px;line-height:0%;font-family:'DejaVu Sans';text-align:center;text-anchor:middle;fill:#111111;stroke-width:0.75"
   class="key"
   aria-label="M" />&#10;	<path
   d="m 284.75244,-13.12207 h 1.77539 v 11.6279294 h 6.38965 V 0 h -8.16504 z"
   id="text82"
   style="font-size:18px;line-height:0%;font-family:'DejaVu Sans';text-align:center;text-anchor:middle;fill:#111111;stroke-width:0.75"
   class="key"
   aria-label="L" />&#10;	<path
   d="m 320.58984,-13.12207 h 7.54102 v 1.49414 h -5.76563 v 3.8671878 h 5.20313 v 1.4941406 h -5.20313 V 0 h -1.77539 z"
   id="text83"
   style="font-size:18px;line-height:0%;font-family:'DejaVu Sans';text-align:center;text-anchor:middle;fill:#111111;stroke-width:0.75"
   class="key"
   aria-label="F" />&#10;	<path
   d="m 359.1123,-13.12207 h 1.7754 v 12.2080075 q 0,2.3730469 -0.90528,3.4453125 -0.89648,1.0722656 -2.8916,1.0722656 h -0.67676 V 2.109375 h 0.55371 q 1.17774,0 1.66114,-0.6591797 0.48339,-0.65917968 0.48339,-2.3642578 z"
   id="text84"
   style="font-size:18px;line-height:0%;font-family:'DejaVu Sans';text-align:center;text-anchor:middle;fill:#111111;stroke-width:0.75"
   class="key"
   aria-label="J" />&#10;&#10;  <path
   d="m 398.10937,-11.144531 q -0.958,-0.791016 -2.4873,-0.791016 -0.5625,0 -1.01074,0.105469 -0.44824,0.105469 -0.87012,0.386719 -0.41309,0.28125 -0.69434,0.738281 -0.28125,0.457031 -0.44824,1.1953124 -0.16699,0.7294922 -0.16699,1.7050781 V 0 h -1.78418 v -8.0244141 q 0,-1.1513672 0.24609,-2.0566409 0.25489,-0.914062 0.69434,-1.520508 0.43945,-0.615234 1.07227,-1.019531 0.63281,-0.404297 1.3623,-0.580078 0.72949,-0.175781 1.59961,-0.175781 1.90723,0 3.24316,0.870117 1.33594,0.861328 1.81934,2.522461 -1.81934,0 -2.95312,0.5537109 -1.125,0.5449219 -1.125,1.3798828 0,0.3955079 0.29003,0.694336 0.29883,0.2900391 0.76465,0.4921875 0.46582,0.1933594 1.02832,0.3955078 0.57129,0.1933594 1.13379,0.4658203 0.57129,0.272461 1.03711,0.6416016 0.46582,0.3691406 0.75586,0.984375 0.29883,0.6152343 0.29883,1.4238281 0,1.4414063 -1.16895,2.32910156 -1.16015,0.87890625 -3.01464,0.87890625 -1.58204,0 -3.34864,-0.83496093 V -2.4082031 q 0.95801,0.6064453 1.73145,0.9140625 0.78222,0.3076172 1.75781,0.3076172 0.86133,0 1.52051,-0.5185547 0.66797,-0.5185547 0.66797,-1.2919922 0,-0.4658203 -0.18457,-0.8173828 -0.17578,-0.3515625 -0.4834,-0.5712891 -0.30762,-0.2285156 -0.71192,-0.4042969 -0.3955,-0.1845703 -0.83496,-0.3251953 -0.43945,-0.140625 -0.8789,-0.2988281 -0.43946,-0.1582031 -0.84375,-0.3779297 -0.39551,-0.2197265 -0.70313,-0.5097656 -0.30762,-0.2900391 -0.49219,-0.7382813 -0.17578,-0.4570312 -0.17578,-1.0458984 0,-1.2568359 0.97559,-2.0742185 0.98437,-0.826172 2.38183,-0.984375 z"
   id="text85"
   style="font-size:18px;line-height:0%;font-family:'DejaVu Sans';text-align:center;text-anchor:middle;fill:#111111;stroke-width:0.75"
   class="key"
   aria-label="ẞ" />&#10;&#10;</g>&#10;&#10;&#10;<g
   transform="translate(84,98)"
   id="g95">&#10;	<path
   d="m 5.3085937,-12.111328 v 1.87207 q -0.8964843,-0.834961 -1.9160156,-1.248047 -1.0107422,-0.413086 -2.1533203,-0.413086 -2.25,0 -3.4453125,1.379883 -1.1953125,1.3710939 -1.1953125,3.9726564 0,2.5927735 1.1953125,3.9726563 1.1953125,1.3710937 3.4453125,1.3710937 1.1425781,0 2.1533203,-0.4130859 1.0195313,-0.4130859 1.9160156,-1.2480469 v 1.8544922 q -0.9316406,0.63281251 -1.977539,0.94921876 -1.0371094,0.31640625 -2.1972656,0.31640625 -2.9794922,0 -4.6933594,-1.81933591 -1.7138672,-1.828125 -1.7138672,-4.9833985 0,-3.1640625 1.7138672,-4.9833984 1.7138672,-1.828125 4.6933594,-1.828125 1.1777343,0 2.2148437,0.316406 1.0458984,0.307617 1.9599609,0.931641 z"
   id="text86"
   style="font-size:18px;line-height:0%;font-family:'DejaVu Sans';text-align:center;text-anchor:middle;fill:#111111;stroke-width:0.75"
   class="key"
   aria-label="C" />&#10;	<path
   d="m 39.919922,-12.691406 v 1.731445 q -1.010742,-0.483398 -1.907227,-0.720703 -0.896484,-0.237305 -1.731445,-0.237305 -1.450195,0 -2.241211,0.5625 -0.782227,0.5625 -0.782227,1.5996096 0,0.8701172 0.518555,1.3183594 0.527344,0.4394531 1.986328,0.7119141 l 1.072266,0.2197265 q 1.986328,0.3779297 2.926758,1.3359375 0.949218,0.9492188 0.949218,2.5488281 0,1.9072266 -1.283203,2.89160161 -1.274414,0.984375 -3.74414,0.984375 -0.931641,0 -1.986328,-0.2109375 -1.045899,-0.2109375 -2.170899,-0.62402343 V -2.4082031 q 1.081055,0.6064453 2.118164,0.9140625 1.03711,0.3076172 2.039063,0.3076172 1.520508,0 2.346679,-0.5976563 0.826172,-0.5976562 0.826172,-1.7050781 0,-0.9667969 -0.597656,-1.5117188 -0.588867,-0.5449218 -1.942383,-0.8173828 l -1.081054,-0.2109375 q -1.986329,-0.3955078 -2.874024,-1.2392578 -0.887695,-0.84375 -0.887695,-2.3466797 0,-1.7402346 1.221679,-2.7421876 1.230469,-1.001953 3.38379,-1.001953 0.922851,0 1.880859,0.166992 0.958008,0.166992 1.959961,0.500977 z"
   id="text87"
   style="font-size:18px;line-height:0%;font-family:'DejaVu Sans';text-align:center;text-anchor:middle;fill:#111111;stroke-width:0.75"
   class="key"
   aria-label="S" />&#10;	<path
   d="m 71.112305,-13.12207 h 1.77539 V 0 h -1.77539 z"
   id="text88"
   style="font-size:18px;line-height:0%;font-family:'DejaVu Sans';text-align:center;text-anchor:middle;fill:#111111;stroke-width:0.75"
   class="key"
   aria-label="I" />&#10;	<path
   d="m 104.08008,-13.12207 h 8.29687 v 1.49414 h -6.52148 v 3.8847659 h 6.24902 v 1.4941407 h -6.24902 v 4.7548828 h 6.67969 V 0 h -8.45508 z"
   id="text89"
   style="font-size:18px;line-height:0%;font-family:'DejaVu Sans';text-align:center;text-anchor:middle;fill:#111111;stroke-width:0.75"
   class="key nubkey"
   aria-label="E" />&#10;	<path
   d="m 144.00879,-11.917969 q -1.93359,0 -3.07617,1.441406 -1.13379,1.4414067 -1.13379,3.9287114 0,2.4785157 1.13379,3.9199219 1.14258,1.4414063 3.07617,1.4414063 1.93359,0 3.05859,-1.4414063 1.13379,-1.4414062 1.13379,-3.9199219 0,-2.4873047 -1.13379,-3.9287114 -1.125,-1.441406 -3.05859,-1.441406 z m 0,-1.441406 q 2.75976,0 4.41211,1.854492 1.65234,1.8457033 1.65234,4.9570314 0,3.1025391 -1.65234,4.9570313 -1.65235,1.84570311 -4.41211,1.84570311 -2.76856,0 -4.42969,-1.84570311 -1.65234,-1.8457031 -1.65234,-4.9570313 0,-3.1113281 1.65234,-4.9570314 1.66113,-1.854492 4.42969,-1.854492 z"
   id="text90"
   style="font-size:18px;line-height:0%;font-family:'DejaVu Sans';text-align:center;text-anchor:middle;fill:#111111;stroke-width:0.75"
   class="key"
   aria-label="O" />&#10;&#10;	<path
   d="m 176.61182,-11.663086 v 10.2041016 h 2.14453 q 2.71582,0 3.97265,-1.2304687 1.26563,-1.2304688 1.26563,-3.8847656 0,-2.6367188 -1.26563,-3.8583983 -1.25683,-1.230469 -3.97265,-1.230469 z m -1.77539,-1.458984 h 3.64746 q 3.81445,0 5.59863,1.59082 1.78418,1.5820312 1.78418,4.9570313 0,3.3925781 -1.79297,4.9833984 Q 182.28076,0 178.48389,0 h -3.64746 z"
   id="text91"
   style="font-size:18px;line-height:0%;font-family:'DejaVu Sans';text-align:center;text-anchor:middle;fill:#111111;stroke-width:0.75"
   class="key"
   aria-label="D" />&#10;	<path
   d="m 210.44971,-13.12207 h 11.10058 v 1.49414 h -4.6582 V 0 h -1.78418 v -11.62793 h -4.6582 z"
   id="text92"
   style="font-size:18px;line-height:0%;font-family:'DejaVu Sans';text-align:center;text-anchor:middle;fill:#111111;stroke-width:0.75"
   class="key nubkey"
   aria-label="T" />&#10;	<path
   d="m 247.03418,-13.12207 h 2.39062 l 5.81836,10.9775387 V -13.12207 h 1.72266 V 0 h -2.39062 l -5.81836,-10.977539 V 0 h -1.72266 z"
   id="text93"
   style="font-size:18px;line-height:0%;font-family:'DejaVu Sans';text-align:center;text-anchor:middle;fill:#111111;stroke-width:0.75"
   class="key"
   aria-label="N" />&#10;	<path
   d="m 289.73584,-6.1523437 q 0.57129,0.1933593 1.10742,0.8261718 0.54492,0.6328125 1.08985,1.7402344 L 293.73486,0 h -1.90722 l -1.67871,-3.3662109 q -0.65039,-1.3183594 -1.26563,-1.7490235 -0.60644,-0.430664 -1.66113,-0.430664 h -1.9336 V 0 h -1.77539 v -13.12207 h 4.00782 q 2.25,0 3.35742,0.940429 1.10742,0.94043 1.10742,2.8388676 0,1.2392578 -0.58008,2.0566406 -0.57129,0.8173828 -1.66992,1.1337891 z m -4.44727,-5.5107423 v 4.6582032 h 2.23243 q 1.2832,0 1.93359,-0.5888672 0.65918,-0.5976563 0.65918,-1.7490234 0,-1.1513676 -0.65918,-1.7314456 -0.65039,-0.588867 -1.93359,-0.588867 z"
   id="text94"
   style="font-size:18px;line-height:0%;font-family:'DejaVu Sans';text-align:center;text-anchor:middle;fill:#111111;stroke-width:0.75"
   class="key"
   aria-label="R" />&#10;	<path
   d="m 318.99902,-13.12207 h 1.77539 v 5.3789059 h 6.45118 V -13.12207 h 1.77539 V 0 h -1.77539 v -6.2490234 h -6.45118 V 0 h -1.77539 z"
   id="text95"
   style="font-size:18px;line-height:0%;font-family:'DejaVu Sans';text-align:center;text-anchor:middle;fill:#111111;stroke-width:0.75"
   class="key"
   aria-label="H" />&#10;&#10;  &#10;&#10;</g>&#10;&#10;<g
   transform="translate(101,134)"
   id="g105">&#10;    <path
   d="m -1.0063477,0 -5.0097656,-13.12207 h 1.8544922 L -0.00439453,-2.0742188 4.1616211,-13.12207 H 6.0073242 L 1.0063477,0 Z"
   id="text96"
   style="font-size:18px;line-height:0%;font-family:'DejaVu Sans';text-align:center;text-anchor:middle;fill:#111111;stroke-width:0.75"
   class="key"
   aria-label="V" />&#10;    <path
   d="m 30.968262,-13.12207 h 1.907226 l 3.260742,4.8779294 3.278321,-4.8779294 h 1.907226 L 37.103027,-6.8203125 41.603027,0 H 39.695801 L 36.004395,-5.5810547 32.286621,0 h -1.916016 l 4.684571,-7.0048828 z"
   id="text97"
   style="font-size:18px;line-height:0%;font-family:'DejaVu Sans';text-align:center;text-anchor:middle;fill:#111111;stroke-width:0.75"
   class="key"
   aria-label="X" />&#10;    <path
   d="m 66.977051,-13.12207 h 1.784179 v 7.9716794 q 0,2.109375 0.764649,3.0410156 0.764648,0.9228516 2.478516,0.9228516 1.705078,0 2.469726,-0.9228516 0.764649,-0.9316406 0.764649,-3.0410156 V -13.12207 h 1.784179 v 8.1914059 q 0,2.5664063 -1.274414,3.8759766 -1.265625,1.30957031 -3.74414,1.30957031 -2.487305,0 -3.761719,-1.30957031 -1.265625,-1.3095703 -1.265625,-3.8759766 z m 5.853515,-3.313477 h 1.78418 v 1.78418 h -1.78418 z m -3.436523,0 h 1.78418 v 1.78418 h -1.78418 z"
   id="text98"
   style="font-size:18px;line-height:0%;font-family:'DejaVu Sans';text-align:center;text-anchor:middle;fill:#111111;stroke-width:0.75"
   class="key"
   aria-label="Ü" />&#10;    <path
   d="m 107.99561,-11.373047 -2.40821,6.5302736 h 4.8252 z m -1.00196,-1.749023 h 2.0127 L 114.00732,0 h -1.8457 l -1.19531,-3.3662109 h -5.91504 L 103.85596,0 h -1.87207 z m 1.82813,-3.313477 h 1.78418 v 1.78418 h -1.78418 z m -3.43653,0 h 1.78418 v 1.78418 h -1.78418 z"
   id="text99"
   style="font-size:18px;line-height:0%;font-family:'DejaVu Sans';text-align:center;text-anchor:middle;fill:#111111;stroke-width:0.75"
   class="key"
   aria-label="Ä" />&#10;&#10;    <path
   d="m 144.00879,-11.917969 q -1.93359,0 -3.07617,1.441406 -1.13379,1.4414067 -1.13379,3.9287114 0,2.4785157 1.13379,3.9199219 1.14258,1.4414063 3.07617,1.4414063 1.93359,0 3.05859,-1.4414063 1.13379,-1.4414062 1.13379,-3.9199219 0,-2.4873047 -1.13379,-3.9287114 -1.125,-1.441406 -3.05859,-1.441406 z m 0,-1.441406 q 2.75976,0 4.41211,1.854492 1.65234,1.8457033 1.65234,4.9570314 0,3.1025391 -1.65234,4.9570313 -1.65235,1.84570311 -4.41211,1.84570311 -2.76856,0 -4.42969,-1.84570311 -1.65234,-1.8457031 -1.65234,-4.9570313 0,-3.1113281 1.65234,-4.9570314 1.66113,-1.854492 4.42969,-1.854492 z m 0.82617,-3.076172 h 1.78418 v 1.78418 h -1.78418 z m -3.43652,0 h 1.78418 v 1.78418 h -1.78418 z"
   id="text100"
   style="font-size:18px;line-height:0%;font-family:'DejaVu Sans';text-align:center;text-anchor:middle;fill:#111111;stroke-width:0.75"
   class="key"
   aria-label="Ö" />&#10;    <path
   d="m 171.69873,-13.12207 h 1.79297 l 2.75976,11.0917966 2.75098,-11.0917966 h 1.99512 l 2.75976,11.0917966 2.75098,-11.0917966 h 1.80176 L 185.01416,0 h -2.23242 L 180.01318,-11.390625 177.21826,0 h -2.23242 z"
   id="text101"
   style="font-size:18px;line-height:0%;font-family:'DejaVu Sans';text-align:center;text-anchor:middle;fill:#111111;stroke-width:0.75"
   class="key"
   aria-label="W" />&#10;    <path
   d="m 219.73975,-1.8720703 v -3.5244141 h -2.90039 v -1.4589843 h 4.6582 v 5.633789 q -1.02832,0.7294922 -2.26758,1.10742189 -1.23926,0.36914062 -2.64551,0.36914062 -3.07617,0 -4.8164,-1.79296871 -1.73145,-1.8017579 -1.73145,-5.0097657 0,-3.2167968 1.73145,-5.0097654 1.74023,-1.801758 4.8164,-1.801758 1.28321,0 2.43457,0.316406 1.16016,0.316406 2.13575,0.931641 v 1.889648 q -0.98438,-0.834961 -2.0918,-1.256836 -1.10742,-0.421875 -2.3291,-0.421875 -2.40821,0 -3.6211,1.344727 -1.2041,1.3447265 -1.2041,4.0078124 0,2.6542969 1.2041,3.9990235 1.21289,1.3447265 3.6211,1.3447265 0.94043,0 1.67871,-0.1582031 0.73828,-0.1669922 1.32715,-0.5097656 z"
   id="text102"
   style="font-size:18px;line-height:0%;font-family:'DejaVu Sans';text-align:center;text-anchor:middle;fill:#111111;stroke-width:0.75"
   class="key"
   aria-label="G" />&#10;    <path
   d="m 248.37891,-5.5634766 h 7.24218 v 1.265625 h -7.24218 z"
   id="text103"
   style="font-size:18px;line-height:0%;font-family:'DejaVu Sans';text-align:center;text-anchor:middle;fill:#111111;stroke-width:0.75"
   class="key"
   aria-label="–" />&#10;    <path
   d="m 285.38965,-6.6972656 q 0,-1.0898438 0.75586,-1.8369141 0.76465,-0.7558594 1.87207,-0.7558594 1.08984,0 1.83691,0.7558594 0.75586,0.7470703 0.75586,1.8369141 0,1.0986328 -0.75586,1.8544922 -0.75586,0.7558593 -1.85449,0.7558593 -1.09863,0 -1.85449,-0.7558593 -0.75586,-0.7558594 -0.75586,-1.8544922 z"
   id="text104"
   style="font-size:18px;line-height:0%;font-family:'DejaVu Sans';text-align:center;text-anchor:middle;fill:#111111;stroke-width:0.75"
   class="key"
   aria-label="•" />&#10;    <path
   d="m 319.86475,-13.12207 h 1.77539 v 5.5458981 l 5.88867,-5.5458981 h 2.28515 L 323.30127,-7.0048828 330.27979,0 h -2.3379 l -6.30175,-6.3193359 V 0 h -1.77539 z"
   id="text105"
   style="font-size:18px;line-height:0%;font-family:'DejaVu Sans';text-align:center;text-anchor:middle;fill:#111111;stroke-width:0.75"
   class="key"
   aria-label="K" />&#10;</g>&#10;&#10;&#10;<g
   transform="translate(561,26)"
   id="g109">&#10;    <path
   d="m 6.5126953,-6.3896484 v 1.4941406 h -9.1582031 l 2.05664061,2.0566406 -1.05468751,1.0546875 -3.4628906,-3.4628906 v 3.3925781 h -1.4941406 v -7.5585937 h 1.4941406 v 3.375 l 3.4628906,-3.4628907 1.05468751,1.0546875 -2.05664061,2.0566407 z"
   id="text106"
   style="font-size:18px;line-height:0%;font-family:'DejaVu Sans';text-align:center;text-anchor:middle;fill:#111111;stroke-width:0.75"
   class="key"
   aria-label="⇤" />&#10;    <path
   d="m 37.538086,-13.12207 h 1.494141 L 34.461914,1.6699219 h -1.494141 z"
   id="text107"
   style="font-size:18px;line-height:0%;font-family:'DejaVu Sans';text-align:center;text-anchor:middle;fill:#111111;stroke-width:0.75"
   class="key"
   aria-label="/" />&#10;    <path
   d="m 75.963867,-10.959961 -3.155273,1.7050782 3.155273,1.7138672 -0.509765,0.8613281 -2.953125,-1.7841797 v 3.3134766 h -1.001954 v -3.3134766 l -2.953125,1.7841797 -0.509765,-0.8613281 3.155273,-1.7138672 -3.155273,-1.7050782 0.509765,-0.870117 2.953125,1.78418 v -3.313477 h 1.001954 v 3.313477 l 2.953125,-1.78418 z"
   id="text108"
   style="font-size:18px;line-height:0%;font-family:'DejaVu Sans';text-align:center;text-anchor:middle;fill:#111111;stroke-width:0.75"
   class="key"
   aria-label="*" />&#10;    <path
   d="m 105.63135,-5.6513672 h 4.7373 v 1.4414063 h -4.7373 z"
   id="text109"
   style="font-size:18px;line-height:0%;font-family:'DejaVu Sans';text-align:center;text-anchor:middle;fill:#111111;stroke-width:0.75"
   class="key"
   aria-label="-" />&#10;</g>&#10;<g
   transform="translate(561,62)"
   id="g112">&#10;    <path
   d="m -3.5595703,-6.9785156 q 0.3427734,0 0.5185547,0.5625 0.3515625,1.0546875 0.5009765,1.0546875 0.1142578,0 0.2373047,-0.1757813 2.46972659,-3.6298828 4.5703125,-5.1679686 0.8876953,-0.650391 1.7314453,-0.650391 1.116211,0 1.3447266,0.07031 0.09668,0.02637 0.09668,0.219726 0,0.158203 -0.2021485,0.395508 -5.65136714,6.4863283 -6.7324218,8.4375001 -0.3691406,0.6679688 -1.7050782,0.6679688 -0.4394531,0 -0.9228515,-0.2285156 -0.2021484,-0.1054688 -0.703125,-1.3447266 -0.6328125,-1.5644531 -0.6328125,-2.7421875 0,-0.4306641 0.6152344,-0.7119141 0.84375,-0.3867187 1.265625,-0.3867187 z"
   id="text110"
   style="font-size:18px;line-height:0%;font-family:'DejaVu Sans';text-align:center;text-anchor:middle;fill:#111111;stroke-width:0.75"
   class="key"
   aria-label="✔" />&#10;    <path
   d="m 40.447266,-13.306641 q 0.254882,0 0.492187,0.263672 0.175781,0.19336 0.246094,0.703125 0.228515,-0.0088 0.316406,0.03516 0.28125,0.105469 0.404297,0.228516 0.123047,0.114258 0.123047,0.298828 0,0.351563 -0.140625,0.492188 -2.118164,1.9248044 -4.183594,4.675781 1.300781,1.7929688 2.601563,3.2167969 0.149414,0.1582031 0.149414,0.3691406 0,0.4306641 -0.263672,0.6591797 -0.175781,0.149414 -0.500977,0.1669922 -0.01758,0.149414 -0.140625,0.4570312 -0.210937,0.5097657 -0.492187,0.5097657 -0.316407,0 -0.580078,-0.2109375 -0.07031,0.1582031 -0.19336,0.2548828 -0.316406,0.23730465 -0.553711,0.23730465 -0.202148,0 -0.430664,-0.24609375 -0.782226,-0.8349609 -1.845703,-2.5136719 -2.021484,2.2939453 -2.794922,3.48046877 Q 32.510742,0 32.326172,0 q 0,0 -0.01758,0 -0.158203,0 -0.307617,-0.31640625 -0.131836,-0.27246094 -0.149415,-0.38671875 -0.175781,0.10546875 -0.333984,0.10546875 -0.219726,0 -0.474609,-0.26367188 -0.316407,-0.30761717 -0.316407,-0.45703127 0,-0.2373047 0.263672,-0.6328125 -0.0791,-0.026367 -0.158203,-0.140625 -0.158203,-0.2109375 -0.158203,-0.421875 0,-0.1845703 0.210938,-0.4570312 1.142578,-1.546875 2.865234,-3.4101563 -1.072266,-1.6611328 -1.942383,-4.0078126 -0.193359,-0.536133 -0.193359,-0.782226 0,-0.228516 0.202148,-0.65918 0.140625,-0.28125 0.333985,-0.28125 0.228515,0 0.65039,0.342773 0.0088,-0.123047 0.105469,-0.342773 0.202148,-0.439453 0.351562,-0.439453 0.37793,0 0.492188,0.228515 0.931641,1.722657 2.25,3.3574222 2.030273,-2.3203122 4.21875,-4.2363282 0.105469,-0.105469 0.228516,-0.105469 z"
   id="text111"
   style="font-size:18px;line-height:0%;font-family:'DejaVu Sans';text-align:center;text-anchor:middle;fill:#111111;stroke-width:0.75"
   class="key"
   aria-label="✘" />&#10;    <path
   d="m 71.226562,-13.12207 h 1.546875 v 3.6914059 h 3.225586 v 1.3447266 h -3.225586 v 9.8173828 h -1.546875 v -9.8173828 h -3.225585 v -1.3447266 h 3.225585 z"
   id="text112"
   style="font-size:18px;line-height:0%;font-family:'DejaVu Sans';text-align:center;text-anchor:middle;fill:#111111;stroke-width:0.75"
   class="key"
   aria-label="†" />&#10;</g>&#10;<g
   transform="translate(561,98)"
   id="g115">&#10;    <path
   d="m 0.00878906,-13.113281 q 1.88085934,0 2.76855474,1.995117 0.1142578,0.457031 0.140625,0.949219 0,1.02832 -1.0546876,2.43457 l -0.5273437,0.5273438 h 0.026367 Q 2.0126953,-7.453125 2.7509766,-7.453125 h 0.1669922 q 2.0917968,0 2.9355468,1.7753906 0.2021485,0.5800782 0.2021485,1.1074219 0,1.8017578 -1.8369141,2.7158203 -0.3515625,0.1054688 -0.9755859,0.1582031 -2.1269532,0 -3.01464847,-2.4082031 h -0.0263672 v 0.079102 q 0,3.0146484 0.72070312,3.97265623 V 0 h -1.828125 l -0.0527344,-0.05273437 Q -0.2109375,-1.1777344 -0.2109375,-4.1044922 v -0.026367 h -0.0263672 q -0.87890621,2.4345703 -3.03222661,2.4345703 -1.6787109,0 -2.5751953,-1.7666015 -0.2197265,-0.5976563 -0.2197265,-1.1074219 0,-2.0478516 2.1621093,-2.7773437 0.5800782,-0.1054688 1.0283204,-0.1054688 h 0.079102 q 0.7558594,0 1.4414063,0.2460938 h 0.026367 v -0.026367 q -0.7382813,-0.6240235 -0.9931641,-1.2304688 -0.5273438,-0.9667969 -0.5273438,-1.6787108 v -0.123047 q 0,-1.766602 1.88964849,-2.680664 0.62402343,-0.166992 0.96679687,-0.166992 z"
   id="text113"
   style="font-size:18px;line-height:0%;font-family:'DejaVu Sans';text-align:center;text-anchor:middle;fill:#111111;stroke-width:0.75"
   class="key"
   aria-label="♣" />&#10;    <path
   d="m 40.530762,-12.111328 v 1.87207 q -0.799805,-0.922851 -1.546875,-1.318359 -0.738282,-0.395508 -1.634766,-0.395508 -1.379883,0 -2.267578,0.878906 -0.887695,0.878906 -1.168945,2.5224612 h 5.071289 l -0.483399,1.0810547 h -4.728515 q -0.01758,0.2109375 -0.02637,0.4130859 0,0.2021485 0,0.5097656 0,0.28125 0,0.4833985 0.0088,0.2021484 0.02637,0.4130859 h 3.919922 l -0.492188,1.0810547 h -3.287109 q 0.28125,1.6435547 1.168945,2.53125 0.887695,0.8876953 2.267578,0.8876953 0.896484,0 1.634766,-0.3955078 0.74707,-0.3955078 1.546875,-1.3183594 v 1.8544922 q -0.782227,0.63281251 -1.59961,0.94921876 -0.808593,0.31640625 -1.652343,0.31640625 -2.083008,0 -3.445313,-1.27441401 -1.353516,-1.2744141 -1.705078,-3.5507813 h -1.854492 l 0.483398,-1.0810547 h 1.22168 q 0,-0.2021484 -0.0088,-0.4042969 0,-0.2109375 0,-0.4921875 0,-0.3076171 0,-0.5097656 0.0088,-0.2109375 0.0088,-0.4130859 h -1.705078 l 0.483398,-1.0810547 h 1.371094 q 0.351562,-2.2587892 1.713867,-3.5332032 1.362305,-1.274414 3.436524,-1.274414 0.861328,0 1.669921,0.316406 0.817383,0.307617 1.582032,0.931641 z"
   id="text114"
   style="font-size:18px;line-height:0%;font-family:'DejaVu Sans';text-align:center;text-anchor:middle;fill:#111111;stroke-width:0.75"
   class="key"
   aria-label="€" />&#10;    <path
   d="m 69.389648,-3.3837891 q 0,0 0,-6.609375 0,0 5.923829,3.3046875 z"
   id="text115"
   style="font-size:18px;line-height:0%;font-family:'DejaVu Sans';text-align:center;text-anchor:middle;fill:#111111;stroke-width:0.75"
   class="key"
   aria-label="‣" />&#10;</g>&#10;<g
   transform="translate(561,134)"
   id="g118">&#10;    <path
   d="m 0,-13.113281 4.4208984,5.7392576 q 0.6064453,0.7470703 0.6064453,0.8613281 L 0,0 q -0.10546875,-0.0703125 -5.0449219,-6.5126953 0,-0.1230469 0.975586,-1.3359375 z"
   id="text116"
   style="font-size:18px;line-height:0%;font-family:'DejaVu Sans';text-align:center;text-anchor:middle;fill:#111111;stroke-width:0.75"
   class="key"
   aria-label="♦" />&#10;    <path
   d="m 32.783203,-13.113281 q 1.78418,0 2.803711,2.065429 0.369141,0.817383 0.386719,1.2480473 H 36 q 0.307617,-1.4238283 1.116211,-2.3642583 0.949219,-0.949218 2.135742,-0.949218 1.836914,0 2.944336,1.96875 0.28125,0.729492 0.28125,1.3710935 0,2.1972656 -1.828125,4.1923828 L 36,0 h -0.05273 l -4.939454,-6.0556641 q -1.476562,-1.8017578 -1.476562,-3.7177734 0,-1.8544925 1.749023,-2.9443355 0.738282,-0.395508 1.50293,-0.395508 z"
   id="text117"
   style="font-size:18px;line-height:0%;font-family:'DejaVu Sans';text-align:center;text-anchor:middle;fill:#111111;stroke-width:0.75"
   class="key"
   aria-label="♥" />&#10;    <path
   d="m 72.017578,-13.113281 q 0.826172,1.467773 2.724609,3.8935544 2.083008,2.4433594 2.135743,2.944336 0.342773,0.7470703 0.342773,1.4501953 v 0.3515625 q 0,1.4677734 -1.423828,2.3115234 -0.46582,0.1933594 -1.02832,0.1933594 -1.353516,0 -2.188477,-1.9423828 h -0.369141 v 0.1054687 q 0,2.4873047 0.729493,3.8056641 h -1.889649 v -0.05273437 q 0.747071,-1.32714843 0.747071,-3.83203123 l -0.02637,-0.026367 H 71.4375 l -0.413086,0.7734375 q -0.74707,1.1689453 -1.863281,1.1689453 -1.643555,0 -2.311524,-1.8369141 l -0.0791,-0.6416015 v -0.4042969 q 0,-1.6083984 1.643554,-3.3925781 2.768555,-3.3925784 3.550782,-4.8427734 l 0.02637,-0.02637 z"
   id="text118"
   style="font-size:18px;line-height:0%;font-family:'DejaVu Sans';text-align:center;text-anchor:middle;fill:#111111;stroke-width:0.75"
   class="key"
   aria-label="♠" />&#10;</g>&#10;<g
   transform="translate(561,170)"
   id="g120">&#10;    <path
   d="m 15.046875,2.6015625 h 5.90625 V -1.828125 h 1.476562 V 4.0957031 H 13.570313 V -1.828125 h 1.476562 z"
   id="text119"
   style="font-size:18px;line-height:0%;font-family:'DejaVu Sans';text-align:center;text-anchor:middle;fill:#111111;stroke-width:0.75"
   class="key"
   aria-label="␣" />&#10;    <path
   d="m 71.063965,-2.2324219 h 1.854492 V 0 h -1.854492 z"
   id="text120"
   style="font-size:18px;line-height:0%;font-family:'DejaVu Sans';text-align:center;text-anchor:middle;fill:#111111;stroke-width:0.75"
   class="key"
   aria-label="." />&#10;</g>&#10;&#10;<g
   transform="translate(561,78)"
   id="g121">&#10;    <path
   d="m 108.73828,-11.285156 v 4.8955076 h 4.89551 v 1.4941406 h -4.89551 V 0 h -1.47656 v -4.8955078 h -4.89551 v -1.4941406 h 4.89551 v -4.8955076 z"
   id="text121"
   style="font-size:18px;line-height:0%;font-family:'DejaVu Sans';text-align:center;text-anchor:middle;fill:#111111;stroke-width:0.75"
   class="key"
   aria-label="+" />&#10;</g>&#10;<g
   transform="translate(561,150)"
   id="g122">&#10;    <path
   d="m 105.40723,-1.1777344 -4.46485,-4.4648437 4.46485,-4.4648439 v 2.3994142 h 4.9834 V -13.12207 h 4.13085 l -0.009,9.5449216 h -9.10547 z m -0.87891,-5.6513672 v -1.1513671 l -2.33789,2.3378906 2.33789,2.3378906 v -1.1513672 h 9.10547 l 0.009,-7.7871093 h -2.37305 l -0.009,5.4140624 z"
   id="text122"
   style="font-size:18px;line-height:0%;font-family:'DejaVu Sans';text-align:center;text-anchor:middle;fill:#111111;stroke-width:0.75"
   class="key"
   aria-label="⏎" />&#10;</g>&#10;&#10;<path
   d="m 18.998047,18.476562 q 0.03516,0.07031 0.03516,0.166993 0,0.166992 -0.114258,0.298828 -0.105468,0.123047 -0.28125,0.123047 -0.166992,0 -0.307617,-0.114258 -0.131836,-0.123047 -0.131836,-0.307617 0,-0.158203 0.123047,-0.290039 0.131836,-0.131836 0.307617,-0.131836 0.263672,0 0.369141,0.254882 z m 2.768555,6.670899 q 0.03516,0.105469 0.03516,0.158203 0,0.158203 -0.123047,0.290039 -0.123047,0.131836 -0.298828,0.131836 -0.158203,0 -0.290039,-0.123047 -0.131836,-0.123047 -0.131836,-0.307617 0,-0.149414 0.114258,-0.28125 0.114257,-0.131836 0.28125,-0.131836 0.28125,0 0.413086,0.263672 z m -4.03418,-6.020508 q 0.131836,0.114258 0.131836,0.290039 0,0.421875 -0.413086,0.421875 -0.175781,0 -0.298828,-0.114258 -0.123047,-0.123047 -0.123047,-0.290039 0,-0.175781 0.123047,-0.298828 0.123047,-0.131836 0.290039,-0.131836 0.166992,0 0.290039,0.123047 z m 5.115234,5.097656 q 0.123047,0.123047 0.123047,0.298828 0,0.166993 -0.123047,0.29004 -0.114258,0.123046 -0.298828,0.123046 -0.175781,0 -0.298828,-0.123046 -0.123047,-0.123047 -0.123047,-0.29004 0,-0.175781 0.114258,-0.290039 0.123047,-0.123046 0.290039,-0.123046 0.175781,0 0.316406,0.114257 z m -6.029297,-4.016601 q 0.272461,0.114258 0.272461,0.404297 0,0.166992 -0.140625,0.290039 -0.131836,0.114258 -0.290039,0.114258 -0.18457,0 -0.298828,-0.131836 -0.114258,-0.131836 -0.114258,-0.290039 0,-0.175782 0.123047,-0.298829 0.131836,-0.123046 0.290039,-0.123046 0.05273,0 0.158203,0.03516 z m 6.670899,2.759765 q 0.263672,0.114258 0.263672,0.386719 0,0.175781 -0.131836,0.298828 -0.123047,0.114258 -0.290039,0.114258 -0.19336,0 -0.307618,-0.123047 -0.114257,-0.131836 -0.114257,-0.290039 0,-0.202148 0.131836,-0.307617 0.140625,-0.105469 0.298828,-0.105469 0.08789,0 0.149414,0.02637 z m -7.101563,-1.40625 q 0.166992,0 0.298828,0.123047 0.131836,0.114258 0.131836,0.28125 0,0.175782 -0.131836,0.307617 -0.131836,0.123047 -0.290039,0.123047 h -0.01758 q -0.166992,0 -0.290039,-0.123047 -0.114258,-0.131835 -0.114258,-0.298828 0,-0.175781 0.114258,-0.290039 0.123047,-0.123047 0.298828,-0.123047 z m 7.215821,-0.0088 q 0.175781,0 0.298828,0.123047 0.123047,0.123047 0.123047,0.298828 0,0.166993 -0.123047,0.290039 -0.114258,0.123047 -0.290039,0.123047 h -0.03516 q -0.158203,0 -0.28125,-0.123047 -0.114257,-0.123046 -0.114257,-0.28125 0,-0.175781 0.131836,-0.298828 0.131835,-0.123047 0.290039,-0.131836 z m -7.101563,1.423828 q 0.07031,-0.03516 0.166992,-0.03516 0.175782,0 0.298828,0.114258 0.123047,0.114258 0.123047,0.290039 0,0.166992 -0.123047,0.298828 -0.123046,0.131836 -0.298828,0.131836 -0.166992,0 -0.298828,-0.123047 -0.123047,-0.131836 -0.123047,-0.307617 0,-0.272461 0.254883,-0.369141 z m 6.670899,-2.768554 q 0.105468,-0.03516 0.158203,-0.03516 0.158203,0 0.290039,0.123046 0.131836,0.123047 0.131836,0.298829 0,0.158203 -0.123047,0.290039 -0.123047,0.131836 -0.307617,0.131836 -0.158204,0 -0.28125,-0.123047 -0.123047,-0.123047 -0.123047,-0.290039 0,-0.28125 0.254883,-0.395508 z m -6.020508,4.034179 q 0.131836,-0.131835 0.28125,-0.131835 0.18457,0 0.307617,0.123046 0.123047,0.114258 0.123047,0.290039 0,0.166993 -0.123047,0.298829 -0.114258,0.123046 -0.290039,0.123046 -0.166992,0 -0.298828,-0.123046 -0.123047,-0.131836 -0.123047,-0.298829 0,-0.158203 0.123047,-0.28125 z M 22.25,19.126953 q 0.140625,-0.123047 0.298828,-0.123047 0.175781,0 0.290039,0.123047 0.123047,0.123047 0.123047,0.298828 0,0.166992 -0.123047,0.298828 -0.114258,0.123047 -0.290039,0.123047 -0.166992,0 -0.290039,-0.131836 -0.123047,-0.131836 -0.123047,-0.290039 0,-0.166992 0.114258,-0.298828 z m -4.016602,6.029297 q 0.05273,-0.123047 0.166993,-0.193359 0.123046,-0.07031 0.228515,-0.07031 0.175781,0 0.290039,0.131836 0.123047,0.131836 0.123047,0.290039 0,0.175781 -0.131836,0.298828 -0.131836,0.114258 -0.290039,0.114258 -0.166992,0 -0.298828,-0.131836 -0.123047,-0.131836 -0.123047,-0.28125 0,-0.05273 0.03516,-0.158203 z m 2.759766,-6.670898 q 0.114258,-0.263672 0.386719,-0.263672 0.175781,0 0.298828,0.131836 0.123047,0.131836 0.123047,0.298828 0,0.175781 -0.131836,0.298828 -0.131836,0.114258 -0.290039,0.114258 -0.175781,0 -0.298828,-0.131836 -0.114258,-0.140625 -0.114258,-0.298828 0,-0.07031 0.02637,-0.149414 z m -1.40625,7.101562 q 0,-0.175781 0.123047,-0.298828 Q 19.833008,25.165039 20,25.165039 q 0.175781,0 0.298828,0.123047 0.123047,0.123047 0.123047,0.298828 0,0.166992 -0.123047,0.290039 Q 20.175781,26 20,26 19.833008,26 19.709961,25.876953 19.586914,25.753906 19.586914,25.586914 Z m 0,-7.21582 q 0,-0.175782 0.123047,-0.298828 Q 19.833008,17.949219 20,17.949219 q 0.175781,0 0.298828,0.123047 0.123047,0.123046 0.123047,0.298828 0,0.166992 -0.123047,0.290039 Q 20.175781,18.78418 20,18.78418 q -0.166992,0 -0.290039,-0.123047 -0.123047,-0.123047 -0.123047,-0.290039 z m 0.887695,-1.78418 H 19.53418 l -2.320313,-3.137695 q 0.123047,-0.175781 0.19336,-0.254883 0.06152,-0.0791 0.202148,-0.158203 l 2.416992,2.206055 2.373047,-2.206055 q 0.149414,0.0791 0.210938,0.158203 0.06152,0.0791 0.166992,0.254883 z"
   id="t1"
   style="font-size:18px;line-height:0%;font-family:'Gentium Plus Compact';text-align:center;text-anchor:middle;fill:#111111"
   class="dead"
   aria-label="◌̌" />&#10;<path
   d="m 450.99805,18.476562 q 0.0352,0.07031 0.0352,0.166993 0,0.166992 -0.11425,0.298828 -0.10547,0.123047 -0.28125,0.123047 -0.167,0 -0.30762,-0.114258 -0.13184,-0.123047 -0.13184,-0.307617 0,-0.158203 0.12305,-0.290039 0.13183,-0.131836 0.30762,-0.131836 0.26367,0 0.36914,0.254882 z m 2.76855,6.670899 q 0.0352,0.105469 0.0352,0.158203 0,0.158203 -0.12305,0.290039 -0.12305,0.131836 -0.29883,0.131836 -0.1582,0 -0.29004,-0.123047 -0.13183,-0.123047 -0.13183,-0.307617 0,-0.149414 0.11426,-0.28125 0.11425,-0.131836 0.28125,-0.131836 0.28125,0 0.41308,0.263672 z m -4.03418,-6.020508 q 0.13184,0.114258 0.13184,0.290039 0,0.421875 -0.41309,0.421875 -0.17578,0 -0.29883,-0.114258 -0.12304,-0.123047 -0.12304,-0.290039 0,-0.175781 0.12304,-0.298828 0.12305,-0.131836 0.29004,-0.131836 0.16699,0 0.29004,0.123047 z m 5.11524,5.097656 q 0.12304,0.123047 0.12304,0.298828 0,0.166993 -0.12304,0.29004 -0.11426,0.123046 -0.29883,0.123046 -0.17578,0 -0.29883,-0.123046 -0.12305,-0.123047 -0.12305,-0.29004 0,-0.175781 0.11426,-0.290039 0.12305,-0.123046 0.29004,-0.123046 0.17578,0 0.31641,0.114257 z m -6.0293,-4.016601 q 0.27246,0.114258 0.27246,0.404297 0,0.166992 -0.14062,0.290039 -0.13184,0.114258 -0.29004,0.114258 -0.18457,0 -0.29883,-0.131836 -0.11426,-0.131836 -0.11426,-0.290039 0,-0.175782 0.12305,-0.298829 0.13183,-0.123046 0.29004,-0.123046 0.0527,0 0.1582,0.03516 z m 6.6709,2.759765 q 0.26367,0.114258 0.26367,0.386719 0,0.175781 -0.13184,0.298828 -0.12304,0.114258 -0.29004,0.114258 -0.19335,0 -0.30761,-0.123047 -0.11426,-0.131836 -0.11426,-0.290039 0,-0.202148 0.13184,-0.307617 0.14062,-0.105469 0.29882,-0.105469 0.0879,0 0.14942,0.02637 z m -7.10156,-1.40625 q 0.16699,0 0.29882,0.123047 0.13184,0.114258 0.13184,0.28125 0,0.175782 -0.13184,0.307617 -0.13183,0.123047 -0.29004,0.123047 h -0.0176 q -0.167,0 -0.29004,-0.123047 -0.11426,-0.131835 -0.11426,-0.298828 0,-0.175781 0.11426,-0.290039 0.12304,-0.123047 0.29883,-0.123047 z m 7.21582,-0.0088 q 0.17578,0 0.29882,0.123047 0.12305,0.123047 0.12305,0.298828 0,0.166993 -0.12305,0.290039 -0.11425,0.123047 -0.29004,0.123047 h -0.0351 q -0.1582,0 -0.28125,-0.123047 -0.11426,-0.123046 -0.11426,-0.28125 0,-0.175781 0.13184,-0.298828 0.13183,-0.123047 0.29004,-0.131836 z m -7.10157,1.423828 q 0.0703,-0.03516 0.167,-0.03516 0.17578,0 0.29882,0.114258 0.12305,0.114258 0.12305,0.290039 0,0.166992 -0.12305,0.298828 -0.12304,0.131836 -0.29882,0.131836 -0.167,0 -0.29883,-0.123047 -0.12305,-0.131836 -0.12305,-0.307617 0,-0.272461 0.25488,-0.369141 z m 6.6709,-2.768554 q 0.10547,-0.03516 0.1582,-0.03516 0.15821,0 0.29004,0.123046 0.13184,0.123047 0.13184,0.298829 0,0.158203 -0.12305,0.290039 -0.12304,0.131836 -0.30761,0.131836 -0.15821,0 -0.28125,-0.123047 -0.12305,-0.123047 -0.12305,-0.290039 0,-0.28125 0.25488,-0.395508 z m -6.02051,4.034179 q 0.13184,-0.131835 0.28125,-0.131835 0.18457,0 0.30762,0.123046 0.12305,0.114258 0.12305,0.290039 0,0.166993 -0.12305,0.298829 -0.11426,0.123046 -0.29004,0.123046 -0.16699,0 -0.29883,-0.123046 -0.12304,-0.131836 -0.12304,-0.298829 0,-0.158203 0.12304,-0.28125 z M 454.25,19.126953 q 0.14062,-0.123047 0.29883,-0.123047 0.17578,0 0.29004,0.123047 0.12304,0.123047 0.12304,0.298828 0,0.166992 -0.12304,0.298828 -0.11426,0.123047 -0.29004,0.123047 -0.16699,0 -0.29004,-0.131836 -0.12305,-0.131836 -0.12305,-0.290039 0,-0.166992 0.11426,-0.298828 z m -4.0166,6.029297 q 0.0527,-0.123047 0.16699,-0.193359 0.12305,-0.07031 0.22852,-0.07031 0.17578,0 0.29004,0.131836 0.12304,0.131836 0.12304,0.290039 0,0.175781 -0.13183,0.298828 -0.13184,0.114258 -0.29004,0.114258 -0.167,0 -0.29883,-0.131836 -0.12305,-0.131836 -0.12305,-0.28125 0,-0.05273 0.0352,-0.158203 z m 2.75976,-6.670898 q 0.11426,-0.263672 0.38672,-0.263672 0.17578,0 0.29883,0.131836 0.12305,0.131836 0.12305,0.298828 0,0.175781 -0.13184,0.298828 -0.13183,0.114258 -0.29004,0.114258 -0.17578,0 -0.29883,-0.131836 -0.11425,-0.140625 -0.11425,-0.298828 0,-0.07031 0.0264,-0.149414 z m -1.40625,7.101562 q 0,-0.175781 0.12305,-0.298828 0.12305,-0.123047 0.29004,-0.123047 0.17578,0 0.29883,0.123047 0.12304,0.123047 0.12304,0.298828 0,0.166992 -0.12304,0.290039 Q 452.17578,26 452,26 q -0.16699,0 -0.29004,-0.123047 -0.12305,-0.123047 -0.12305,-0.290039 z m 0,-7.21582 q 0,-0.175782 0.12305,-0.298828 0.12305,-0.123047 0.29004,-0.123047 0.17578,0 0.29883,0.123047 0.12304,0.123046 0.12304,0.298828 0,0.166992 -0.12304,0.290039 -0.12305,0.123047 -0.29883,0.123047 -0.16699,0 -0.29004,-0.123047 -0.12305,-0.123047 -0.12305,-0.290039 z m 1.86329,9.641601 q 0,0.650391 -0.63282,1.160157 -0.63281,0.518554 -2.07422,0.729492 L 450.5498,29.47168 q 0.91407,-0.158203 1.30079,-0.465821 0.38671,-0.298828 0.38671,-0.580078 0,-0.298828 -0.22851,-0.421875 -0.22852,-0.114258 -0.77344,-0.166992 0,0 0.0615,-0.166992 0.0527,-0.166992 0.21973,-0.65918 0.1582,-0.492187 0.46582,-1.467773 l 0.68555,0.01758 -0.44824,1.353515 q 0.46582,0.09668 0.85254,0.351563 0.37793,0.254883 0.37793,0.74707 z"
   id="t2"
   style="font-size:18px;line-height:0%;font-family:'Gentium Plus Compact';text-align:center;text-anchor:middle;fill:#111111"
   class="dead"
   aria-label="◌̧" />&#10;&#10;<path
   d="m 478.99805,90.476562 q 0.0352,0.07031 0.0352,0.166993 0,0.166992 -0.11425,0.298828 -0.10547,0.123047 -0.28125,0.123047 -0.167,0 -0.30762,-0.114258 -0.13184,-0.123047 -0.13184,-0.307617 0,-0.158203 0.12305,-0.290039 0.13183,-0.131836 0.30762,-0.131836 0.26367,0 0.36914,0.254882 z m 2.76855,6.670899 q 0.0352,0.105469 0.0352,0.158203 0,0.158203 -0.12305,0.290039 -0.12305,0.131836 -0.29883,0.131836 -0.1582,0 -0.29004,-0.123047 -0.13183,-0.123047 -0.13183,-0.307617 0,-0.149414 0.11426,-0.28125 0.11425,-0.131836 0.28125,-0.131836 0.28125,0 0.41308,0.263672 z m -4.03418,-6.020508 q 0.13184,0.114258 0.13184,0.290039 0,0.421875 -0.41309,0.421875 -0.17578,0 -0.29883,-0.114258 -0.12304,-0.123047 -0.12304,-0.290039 0,-0.175781 0.12304,-0.298828 0.12305,-0.131836 0.29004,-0.131836 0.16699,0 0.29004,0.123047 z m 5.11524,5.097656 q 0.12304,0.123047 0.12304,0.298828 0,0.166993 -0.12304,0.29004 -0.11426,0.123046 -0.29883,0.123046 -0.17578,0 -0.29883,-0.123046 -0.12305,-0.123047 -0.12305,-0.29004 0,-0.175781 0.11426,-0.290039 0.12305,-0.123046 0.29004,-0.123046 0.17578,0 0.31641,0.114257 z m -6.0293,-4.016601 q 0.27246,0.114258 0.27246,0.404297 0,0.166992 -0.14062,0.290039 -0.13184,0.114258 -0.29004,0.114258 -0.18457,0 -0.29883,-0.131836 -0.11426,-0.131836 -0.11426,-0.290039 0,-0.175782 0.12305,-0.298829 0.13183,-0.123046 0.29004,-0.123046 0.0527,0 0.1582,0.03516 z m 6.6709,2.759765 q 0.26367,0.114258 0.26367,0.386719 0,0.175781 -0.13184,0.298828 -0.12304,0.114258 -0.29004,0.114258 -0.19335,0 -0.30761,-0.123047 -0.11426,-0.131836 -0.11426,-0.290039 0,-0.202148 0.13184,-0.307617 0.14062,-0.105469 0.29882,-0.105469 0.0879,0 0.14942,0.02637 z m -7.10156,-1.40625 q 0.16699,0 0.29882,0.123047 0.13184,0.114258 0.13184,0.28125 0,0.175782 -0.13184,0.307617 -0.13183,0.123047 -0.29004,0.123047 h -0.0176 q -0.167,0 -0.29004,-0.123047 -0.11426,-0.131835 -0.11426,-0.298828 0,-0.175781 0.11426,-0.290039 0.12304,-0.123047 0.29883,-0.123047 z m 7.21582,-0.0088 q 0.17578,0 0.29882,0.123047 0.12305,0.123047 0.12305,0.298828 0,0.166993 -0.12305,0.290039 -0.11425,0.123047 -0.29004,0.123047 h -0.0351 q -0.1582,0 -0.28125,-0.123047 -0.11426,-0.123046 -0.11426,-0.28125 0,-0.175781 0.13184,-0.298828 0.13183,-0.123047 0.29004,-0.131836 z m -7.10157,1.423828 q 0.0703,-0.03516 0.167,-0.03516 0.17578,0 0.29882,0.114258 0.12305,0.114258 0.12305,0.290039 0,0.166992 -0.12305,0.298828 -0.12304,0.131836 -0.29882,0.131836 -0.167,0 -0.29883,-0.123047 -0.12305,-0.131836 -0.12305,-0.307617 0,-0.272461 0.25488,-0.369141 z m 6.6709,-2.768554 q 0.10547,-0.03516 0.1582,-0.03516 0.15821,0 0.29004,0.123046 0.13184,0.123047 0.13184,0.298829 0,0.158203 -0.12305,0.290039 -0.12304,0.131836 -0.30761,0.131836 -0.15821,0 -0.28125,-0.123047 -0.12305,-0.123047 -0.12305,-0.290039 0,-0.28125 0.25488,-0.395508 z m -6.02051,4.034179 q 0.13184,-0.131835 0.28125,-0.131835 0.18457,0 0.30762,0.123046 0.12305,0.114258 0.12305,0.290039 0,0.166993 -0.12305,0.298829 -0.11426,0.123046 -0.29004,0.123046 -0.16699,0 -0.29883,-0.123046 -0.12304,-0.131836 -0.12304,-0.298829 0,-0.158203 0.12304,-0.28125 z M 482.25,91.126953 q 0.14062,-0.123047 0.29883,-0.123047 0.17578,0 0.29004,0.123047 0.12304,0.123047 0.12304,0.298828 0,0.166992 -0.12304,0.298828 -0.11426,0.123047 -0.29004,0.123047 -0.16699,0 -0.29004,-0.131836 -0.12305,-0.131836 -0.12305,-0.290039 0,-0.166992 0.11426,-0.298828 z m -4.0166,6.029297 q 0.0527,-0.123047 0.16699,-0.193359 0.12305,-0.07031 0.22852,-0.07031 0.17578,0 0.29004,0.131836 0.12304,0.131836 0.12304,0.290039 0,0.175781 -0.13183,0.298828 -0.13184,0.114258 -0.29004,0.114258 -0.167,0 -0.29883,-0.131836 -0.12305,-0.131836 -0.12305,-0.28125 0,-0.05273 0.0352,-0.158203 z m 2.75976,-6.670898 q 0.11426,-0.263672 0.38672,-0.263672 0.17578,0 0.29883,0.131836 0.12305,0.131836 0.12305,0.298828 0,0.175781 -0.13184,0.298828 -0.13183,0.114258 -0.29004,0.114258 -0.17578,0 -0.29883,-0.131836 -0.11425,-0.140625 -0.11425,-0.298828 0,-0.07031 0.0264,-0.149414 z m -1.40625,7.101562 q 0,-0.175781 0.12305,-0.298828 0.12305,-0.123047 0.29004,-0.123047 0.17578,0 0.29883,0.123047 0.12304,0.123047 0.12304,0.298828 0,0.166992 -0.12304,0.290039 Q 480.17578,98 480,98 q -0.16699,0 -0.29004,-0.123047 -0.12305,-0.123047 -0.12305,-0.290039 z m 0,-7.21582 q 0,-0.175782 0.12305,-0.298828 0.12305,-0.123047 0.29004,-0.123047 0.17578,0 0.29883,0.123047 0.12304,0.123046 0.12304,0.298828 0,0.166992 -0.12304,0.290039 -0.12305,0.123047 -0.29883,0.123047 -0.16699,0 -0.29004,-0.123047 -0.12305,-0.123047 -0.12305,-0.290039 z m 3.41016,-4.201172 q -0.20215,0.474609 -0.51855,0.93164 -0.3252,0.457032 -0.7295,0.75586 -0.40429,0.290039 -0.86132,0.290039 -0.4043,0 -0.76465,-0.246094 -0.36914,-0.254883 -0.71192,-0.500976 -0.34277,-0.246094 -0.68554,-0.246094 -0.35157,0 -0.64161,0.290039 -0.29003,0.28125 -0.61523,0.773437 l -0.46582,-0.175781 q 0.21094,-0.483398 0.52734,-0.93164 0.31641,-0.457032 0.72071,-0.75586 0.3955,-0.298828 0.85254,-0.298828 0.44824,0 0.82617,0.246094 0.37793,0.246094 0.71191,0.500976 0.3252,0.246094 0.60645,0.246094 0.33398,0 0.65918,-0.28125 0.3164,-0.290039 0.61523,-0.799805 z"
   id="t3"
   style="font-size:18px;line-height:0%;font-family:'Gentium Plus Compact';text-align:center;text-anchor:middle;fill:#111111"
   class="dead"
   aria-label="◌̃" />&#10;&#10;</svg>
