<?xml version="1.0" encoding="UTF-8" standalone="no"?>
<svg
   version="1.1"
   id="Ebene_1"
   height="183"
   width="535"
   viewBox="0 0 535 183"
   enable-background="new 0 0 535 183"
   xml:space="preserve"
   inkscape:version="0.48.5 r10040"
   sodipodi:docname="noted-3-tkl.svg"
   inkscape:export-xdpi="90"
   inkscape:export-ydpi="90"
   xmlns:inkscape="http://www.inkscape.org/namespaces/inkscape"
   xmlns:sodipodi="http://sodipodi.sourceforge.net/DTD/sodipodi-0.dtd"
   xmlns:xlink="http://www.w3.org/1999/xlink"
   xmlns="http://www.w3.org/2000/svg"
   xmlns:svg="http://www.w3.org/2000/svg"
   xmlns:rdf="http://www.w3.org/1999/02/22-rdf-syntax-ns#"
   xmlns:cc="http://creativecommons.org/ns#"
   xmlns:dc="http://purl.org/dc/elements/1.1/">&#10;&#10;  <metadata
   id="metadata135">&#10;    <rdf:RDF>&#10;      <cc:Work
   rdf:about="">&#10;        <dc:format>image/svg+xml</dc:format>&#10;        <dc:type
   rdf:resource="http://purl.org/dc/dcmitype/StillImage" />&#10;        <dc:title />&#10;      </cc:Work>&#10;    </rdf:RDF>&#10;  </metadata>&#10;&#10;<defs
   id="defs">&#10;<style
   type="text/css"
   id="style46661">&#10;text.mod, text.key, text.dead {&#10;	fill:#111;&#10;	fill-opacity:1;&#10;    stroke:none;&#10;    font-style:normal;&#10;    font-variant:normal;&#10;    font-weight:normal;&#10;    font-stretch:normal;&#10;    display:inline;&#10;    font-family:DejaVu Sans;&#10;    writing-mode:lr-tb;&#10;}&#10;&#10;text.key {&#10;    font-family:Linux Libertine;&#10;}&#10;&#10;text.dead {&#10;    font-family: Gentium Plus Compact;&#10;}&#10;&#10;text.mod {&#10;    text-align:start;&#10;    text-anchor:start;&#10;}&#10;&#10;text.space, text.dead, text.center, text.key {&#10;    text-align:center;&#10;    text-anchor:middle;&#10;}&#10;&#10;text.key { font-size:20px; }&#10;text.dead { font-size:20px; }&#10;text.mod { font-size:10px; }&#10;text.big { font-size:14px; }&#10;&#10;.key {&#10;stroke-width:1.25;&#10;}&#10;&#10;.grey { fill:#949494; stroke:#696969; }&#10;.grey { fill:#9f9f9f; stroke:#747474; }&#10;&#10;.numpad { fill:#afaa9f; stroke:#747474; }&#10;&#10;/* bootstrap colors */&#10;.l5, .r5 { fill:#93CCEA; }&#10;.l4, .r4 { fill:#7abeb3; }&#10;.l3, .r3 { fill:#63b280; }&#10;.l2, .r2 { fill:#4aa44a; }&#10;&#10;/* btn bg hover, unused */&#10;.l2, .r2 { stroke:#3071a9; }&#10;.l3, .r3 { stroke:#449d44; }&#10;.l4, .r4 { stroke:#c9302c; }&#10;.l5, .r5 { stroke:#ec971f; }&#10;&#10;/* btn border hover */&#10;.l2, .r2 { stroke:#204d74; }&#10;.l3, .r3 { stroke:#204d74; }&#10;.l4, .r4 { stroke:#204d74; }&#10;.l5, .r5 { stroke:#204d74; }&#10;&#10;text.nubkey { fill:#eee; }&#10;&#10;.pressed {&#10;	<!--opacity:0.5;-->&#10;	fill:#777;&#10;}&#10;    </style>&#10;&#10;    <g
   id="basekey">&#10;        <rect
   width="32"
   height="32"
   rx="4"
   class="key"
   id="rect1" />&#10;	<!--rect width="20" height="20" x="6" y="6" /-->&#10;        <!--rect width="2" height="2" fill="#000" x="15" y="15" /-->&#10;    </g>&#10;&#10;    </defs>&#10;<sodipodi:namedview
   pagecolor="#ffffff"
   bordercolor="#666666"
   borderopacity="1"
   objecttolerance="10"
   gridtolerance="10"
   guidetolerance="10"
   inkscape:pageopacity="0"
   inkscape:pageshadow="2"
   inkscape:window-width="1614"
   inkscape:window-height="969"
   id="base"
   showgrid="false"
   inkscape:zoom="0.70961538"
   inkscape:cx="685.32105"
   inkscape:cy="241.15395"
   inkscape:window-x="78"
   inkscape:window-y="71"
   inkscape:window-maximized="0"
   inkscape:current-layer="Ebene_1"
   inkscape:showpageshadow="2"
   inkscape:pagecheckerboard="0"
   inkscape:deskcolor="#d1d1d1" />&#10;&#10;<g
   transform="translate(3.5,3.5)"
   id="g61">&#10;<use
   xlink:href="#basekey"
   y="0"
   x="0"
   class="l5"
   id="use1" />&#10;<use
   xlink:href="#basekey"
   y="0"
   x="36"
   class="l5"
   id="use2" />&#10;<use
   xlink:href="#basekey"
   y="0"
   x="72"
   class="l5"
   id="use3" />&#10;<use
   xlink:href="#basekey"
   y="0"
   x="108"
   class="l4"
   id="use4" />&#10;<use
   xlink:href="#basekey"
   y="0"
   x="144"
   class="l3"
   id="use5" />&#10;<use
   xlink:href="#basekey"
   y="0"
   x="180"
   class="l2"
   id="use6" />&#10;<use
   xlink:href="#basekey"
   y="0"
   x="216"
   class="l2"
   id="use7" />&#10;&#10;<use
   xlink:href="#basekey"
   y="0"
   x="252"
   class="r2"
   id="use8" />&#10;<use
   xlink:href="#basekey"
   y="0"
   x="288"
   class="r2"
   id="use9" />&#10;<use
   xlink:href="#basekey"
   y="0"
   x="324"
   class="r3"
   id="use10" />&#10;<use
   xlink:href="#basekey"
   y="0"
   x="360"
   class="r4"
   id="use11" />&#10;<use
   xlink:href="#basekey"
   y="0"
   x="396"
   class="r5"
   id="use12" />&#10;<use
   xlink:href="#basekey"
   y="0"
   x="432"
   class="r5"
   id="use13" />&#10;&#10;&#10;<use
   xlink:href="#basekey"
   y="36"
   x="54"
   class="l5"
   id="use14" />&#10;<use
   xlink:href="#basekey"
   y="36"
   x="90"
   class="l4"
   id="use15" />&#10;<use
   xlink:href="#basekey"
   y="36"
   x="126"
   class="l3"
   id="use16" />&#10;<use
   xlink:href="#basekey"
   y="36"
   x="162"
   class="l2"
   id="use17" />&#10;<use
   xlink:href="#basekey"
   y="36"
   x="198"
   class="l2"
   id="use18" />&#10;&#10;<use
   xlink:href="#basekey"
   y="36"
   x="234"
   class="r2"
   id="use19" />&#10;<use
   xlink:href="#basekey"
   y="36"
   x="270"
   class="r2"
   id="use20" />&#10;<use
   xlink:href="#basekey"
   y="36"
   x="306"
   class="r3"
   id="use21" />&#10;<use
   xlink:href="#basekey"
   y="36"
   x="342"
   class="r4"
   id="use22" />&#10;<use
   xlink:href="#basekey"
   y="36"
   x="378"
   class="r5"
   id="use23" />&#10;<use
   xlink:href="#basekey"
   y="36"
   x="414"
   class="r5"
   id="use24" />&#10;<use
   xlink:href="#basekey"
   y="36"
   x="450"
   class="r5"
   id="use25" />&#10;&#10;&#10;<use
   xlink:href="#basekey"
   y="72"
   x="64"
   class="l5"
   id="use26" />&#10;<use
   xlink:href="#basekey"
   y="72"
   x="100"
   class="l4"
   id="use27" />&#10;<use
   xlink:href="#basekey"
   y="72"
   x="136"
   class="l3"
   id="use28" />&#10;<use
   xlink:href="#basekey"
   y="72"
   x="172"
   class="l2"
   id="use29" />&#10;<use
   xlink:href="#basekey"
   y="72"
   x="208"
   class="l2"
   id="use30" />&#10;&#10;<use
   xlink:href="#basekey"
   y="72"
   x="244"
   class="r2"
   id="use31" />&#10;<use
   xlink:href="#basekey"
   y="72"
   x="280"
   class="r2"
   id="use32" />&#10;<use
   xlink:href="#basekey"
   y="72"
   x="316"
   class="r3"
   id="use33" />&#10;<use
   xlink:href="#basekey"
   y="72"
   x="352"
   class="r4"
   id="use34" />&#10;<use
   xlink:href="#basekey"
   y="72"
   x="388"
   class="r5"
   id="use35" />&#10;&#10;    <use
   xlink:href="#basekey"
   y="72"
   x="460"
   class="r5"
   id="use36" />&#10;&#10;&#10;&#10;<use
   xlink:href="#basekey"
   y="108"
   x="82"
   class="l5"
   id="use37" />&#10;<use
   xlink:href="#basekey"
   y="108"
   x="118"
   class="l4"
   id="use38" />&#10;<use
   xlink:href="#basekey"
   y="108"
   x="154"
   class="l3"
   id="use39" />&#10;<use
   xlink:href="#basekey"
   y="108"
   x="190"
   class="l2"
   id="use40" />&#10;<use
   xlink:href="#basekey"
   y="108"
   x="226"
   class="l2"
   id="use41" />&#10;&#10;<use
   xlink:href="#basekey"
   y="108"
   x="262"
   class="r2"
   id="use42" />&#10;<use
   xlink:href="#basekey"
   y="108"
   x="298"
   class="r2"
   id="use43" />&#10;<use
   xlink:href="#basekey"
   y="108"
   x="334"
   class="r3"
   id="use44" />&#10;<use
   xlink:href="#basekey"
   y="108"
   x="370"
   class="r4"
   id="use45" />&#10;<use
   xlink:href="#basekey"
   y="108"
   x="406"
   class="r5"
   id="use46" />&#10;&#10;&#10;<rect
   id="backspace"
   y="0"
   x="468"
   width="60"
   height="32"
   rx="4"
   class="key grey" />&#10;&#10;<rect
   id="tab"
   x="0"
   y="36"
   width="50"
   height="32"
   rx="4"
   class="key grey" />&#10;&#10;<rect
   id="m3l"
   x="0"
   y="72"
   width="60"
   height="32"
   rx="4"
   class="key grey pressed" />&#10;&#10;<use
   id="m3r"
   xlink:href="#basekey"
   x="424"
   y="72"
   class="key grey pressed" />&#10;&#10;&#10;<rect
   id="shiftl"
   x="0"
   y="108"
   width="40"
   height="32"
   rx="4"
   class="key grey" />&#10;<rect
   id="m4l"
   x="44"
   y="108"
   width="34"
   height="32"
   rx="4"
   class="key grey" />&#10;<rect
   id="shiftr"
   x="442"
   y="108"
   width="86"
   height="32"
   rx="4"
   class="key grey" />&#10;&#10;<rect
   id="ctrll"
   x="0"
   y="144"
   width="50"
   height="32"
   rx="4"
   class="key grey" />&#10;<rect
   id="altl"
   x="124"
   y="144"
   width="48"
   height="32"
   rx="4"
   class="key grey" />&#10;<rect
   id="space"
   x="176"
   y="144"
   width="168"
   height="32"
   rx="4"
   class="key grey" />&#10;<rect
   id="m4r"
   x="348"
   y="144"
   width="48"
   height="32"
   rx="4"
   class="key grey" />&#10;<rect
   id="ctrlr"
   x="478"
   y="144"
   width="50"
   height="32"
   rx="4"
   class="key grey" />&#10;&#10;<use
   xlink:href="#basekey"
   y="0"
   x="542"
   class="key numpad"
   id="use47" />&#10;<use
   xlink:href="#basekey"
   y="0"
   x="578"
   class="key numpad"
   id="use48" />&#10;<use
   xlink:href="#basekey"
   y="0"
   x="614"
   class="key numpad"
   id="use49" />&#10;<use
   xlink:href="#basekey"
   y="0"
   x="650"
   class="key numpad"
   id="use50" />&#10;&#10;<use
   xlink:href="#basekey"
   y="36"
   x="542"
   class="key numpad"
   id="use51" />&#10;<use
   xlink:href="#basekey"
   y="36"
   x="578"
   class="key numpad"
   id="use52" />&#10;<use
   xlink:href="#basekey"
   y="36"
   x="614"
   class="key numpad"
   id="use53" />&#10;<rect
   id="kpplus"
   x="650"
   y="36"
   width="32"
   height="68"
   rx="4"
   class="key numpad" />&#10;&#10;<use
   xlink:href="#basekey"
   y="72"
   x="542"
   class="key numpad"
   id="use54" />&#10;<use
   xlink:href="#basekey"
   y="72"
   x="578"
   class="key numpad"
   id="use55" />&#10;<use
   xlink:href="#basekey"
   y="72"
   x="614"
   class="key numpad"
   id="use56" />&#10;&#10;<use
   xlink:href="#basekey"
   y="108"
   x="542"
   class="key numpad"
   id="use57" />&#10;<use
   xlink:href="#basekey"
   y="108"
   x="578"
   class="key numpad"
   id="use58" />&#10;<use
   xlink:href="#basekey"
   y="108"
   x="614"
   class="key numpad"
   id="use59" />&#10;<rect
   id="kppenter"
   x="650"
   y="108"
   width="32"
   height="68"
   rx="4"
   class="key numpad" />&#10;&#10;<rect
   id="kp0"
   x="542"
   y="144"
   width="68"
   height="32"
   rx="4"
   class="key numpad" />&#10;<use
   xlink:href="#basekey"
   y="144"
   x="614"
   class="key numpad"
   id="use60" />&#10;&#10;<path
   fill-rule="evenodd"
   clip-rule="evenodd"
   d="      M 10,32      l -6,0 a 4,4 0 0 1 -4,-4      l 0,-24 a 4,4 0 0 1 4,-4      l 34,0 a 4,4 0 0 1 4,4      l 0,60 a 4,4 0 0 1 -4,4      l -24,0 a 4,4 0 0 1 -4,-4      z"
   transform="translate(486,36)"
   id="return"
   class="key grey" />&#10;&#10;<rect
   y="101"
   x="181"
   width="14"
   height="1"
   rx="1"
   id="nub"
   style="fill:#eee;" />&#10;<use
   y="0"
   x="108"
   xlink:href="#nub"
   id="use61" />&#10;</g>&#10;&#10;<g
   transform="translate(-0.5,-0.5)"
   id="g62">&#10;<path
   d="m 10.981445,88.709961 h 1.469727 l 1.860351,4.960937 1.870118,-4.960937 h 1.469726 V 96 h -0.961914 v -6.401367 l -1.879883,5 h -0.991211 l -1.879882,-5 V 96 h -0.957032 z m 10.708008,2.451172 q -0.722656,0 -1.142578,0.566406 -0.419922,0.561523 -0.419922,1.542969 0,0.981445 0.415039,1.547851 0.419922,0.561524 1.147461,0.561524 0.717774,0 1.137695,-0.566406 0.419922,-0.566407 0.419922,-1.542969 0,-0.97168 -0.419922,-1.538086 -0.419921,-0.571289 -1.137695,-0.571289 z m 0,-0.761719 q 1.171875,0 1.84082,0.761719 0.668946,0.761719 0.668946,2.109375 0,1.342773 -0.668946,2.109375 -0.668945,0.761719 -1.84082,0.761719 -1.176758,0 -1.845703,-0.761719 -0.664063,-0.766602 -0.664063,-2.109375 0,-1.347656 0.664063,-2.109375 0.668945,-0.761719 1.845703,-0.761719 z m 7.597656,0.961914 v -2.958984 h 0.898438 V 96 h -0.898438 v -0.820313 q -0.283203,0.488282 -0.717773,0.72754 -0.429688,0.234375 -1.035156,0.234375 -0.991211,0 -1.616211,-0.791016 -0.620117,-0.791016 -0.620117,-2.080078 0,-1.289063 0.620117,-2.080078 0.625,-0.791016 1.616211,-0.791016 0.605468,0 1.035156,0.239258 0.43457,0.234375 0.717773,0.722656 z m -3.061523,1.90918 q 0,0.991211 0.405273,1.557617 0.410157,0.561523 1.123047,0.561523 0.712891,0 1.123047,-0.561523 0.410156,-0.566406 0.410156,-1.557617 0,-0.991211 -0.410156,-1.552735 -0.410156,-0.566406 -1.123047,-0.566406 -0.71289,0 -1.123047,0.566406 -0.405273,0.561524 -0.405273,1.552735 z m 8.925781,-1.201172 q 0.708008,0.151367 1.103516,0.629883 0.40039,0.478515 0.40039,1.18164 0,1.079102 -0.742187,1.669922 -0.742188,0.590821 -2.109375,0.590821 -0.458984,0 -0.947266,-0.09277 -0.483398,-0.08789 -1.000976,-0.268555 v -0.952148 q 0.410156,0.239258 0.898437,0.361328 0.488281,0.12207 1.020508,0.12207 0.927734,0 1.411133,-0.366211 0.488281,-0.36621 0.488281,-1.064453 0,-0.644531 -0.454101,-1.005859 -0.449219,-0.366211 -1.254883,-0.366211 h -0.84961 v -0.810547 h 0.888672 q 0.727539,0 1.113281,-0.288086 0.385743,-0.292969 0.385743,-0.839844 0,-0.561523 -0.400391,-0.859375 -0.395508,-0.302734 -1.137695,-0.302734 -0.405274,0 -0.869141,0.08789 -0.463867,0.08789 -1.020508,0.273437 v -0.878906 q 0.561524,-0.15625 1.049805,-0.234375 0.493164,-0.07813 0.927734,-0.07813 1.123047,0 1.777344,0.512695 0.654297,0.507813 0.654297,1.376953 0,0.605469 -0.34668,1.025391 -0.346679,0.415039 -0.986328,0.576172 z"
   id="m3ltxt"
   style="font-size:10px;line-height:0%;font-family:'DejaVu Sans';fill:#111111"
   class="mod"
   aria-label="Mod3" />&#10;<path
   d="m 17.683594,125.23438 -1.81836,-1.81836 -1.818359,1.81836 h 0.895508 v 7.08203 h 1.845703 v -7.08203 z m -5.291016,0.68359 3.472656,-3.47266 3.472657,3.47266 H 17.47168 V 133 h -3.212891 v -7.08203 z"
   id="shiftltxt"
   style="font-size:14px;line-height:0%;font-family:'DejaVu Sans';fill:#111111"
   class="mod big"
   aria-label="⇧" />&#10;<path
   d="m 15.351563,160.94922 v 0.96191 q -0.561524,-0.26855 -1.059571,-0.40039 -0.498047,-0.13183 -0.961914,-0.13183 -0.805664,0 -1.245117,0.3125 -0.43457,0.3125 -0.43457,0.88867 0,0.4834 0.288086,0.73242 0.292968,0.24414 1.103515,0.39551 l 0.595703,0.12207 q 1.103516,0.20996 1.625977,0.74219 0.527344,0.52734 0.527344,1.41601 0,1.05957 -0.712891,1.60645 -0.708008,0.54687 -2.080078,0.54687 -0.517578,0 -1.103516,-0.11719 -0.581054,-0.11718 -1.206054,-0.34668 v -1.01562 q 0.600586,0.33691 1.176757,0.50781 0.576172,0.1709 1.132813,0.1709 0.844726,0 1.303711,-0.33203 0.458984,-0.33203 0.458984,-0.94727 0,-0.53711 -0.332031,-0.83984 -0.327148,-0.30273 -1.079102,-0.4541 l -0.600586,-0.11719 q -1.103515,-0.21973 -1.596679,-0.68848 -0.493164,-0.46875 -0.493164,-1.30371 0,-0.96679 0.678711,-1.52343 0.683593,-0.55665 1.879882,-0.55665 0.512696,0 1.044922,0.0928 0.532227,0.0928 1.088868,0.27832 z m 2.827148,0.0293 v 1.55273 h 1.850586 v 0.69824 h -1.850586 v 2.96875 q 0,0.66895 0.180664,0.85938 0.185547,0.19043 0.74707,0.19043 h 0.922852 V 168 h -0.922852 q -1.040039,0 -1.435547,-0.38574 -0.395507,-0.39063 -0.395507,-1.41602 v -2.96875 h -0.65918 v -0.69824 h 0.65918 v -1.55273 z m 6.201172,2.39257 q -0.151367,-0.0879 -0.332031,-0.12695 -0.175782,-0.0439 -0.390625,-0.0439 -0.761719,0 -1.171875,0.49804 -0.405274,0.49317 -0.405274,1.4209 V 168 h -0.90332 v -5.46875 h 0.90332 v 0.84961 q 0.283203,-0.49805 0.737305,-0.73731 0.454101,-0.24414 1.103515,-0.24414 0.09277,0 0.205079,0.0147 0.112304,0.01 0.249023,0.0342 z m 4.365234,1.83106 q 0,-0.97656 -0.405273,-1.51367 -0.400391,-0.53711 -1.12793,-0.53711 -0.722656,0 -1.12793,0.53711 -0.40039,0.53711 -0.40039,1.51367 0,0.97168 0.40039,1.50879 0.405274,0.53711 1.12793,0.53711 0.727539,0 1.12793,-0.53711 0.405273,-0.53711 0.405273,-1.50879 z m 0.898438,2.11914 q 0,1.39648 -0.620118,2.07519 -0.620117,0.6836 -1.899414,0.6836 -0.473632,0 -0.893554,-0.0732 -0.419922,-0.0684 -0.81543,-0.21485 v -0.87402 q 0.395508,0.21484 0.78125,0.31738 0.385742,0.10254 0.786133,0.10254 0.883789,0 1.323242,-0.46387 0.439453,-0.45898 0.439453,-1.3916 v -0.44433 q -0.27832,0.48339 -0.71289,0.72265 Q 27.597656,168 26.992187,168 q -1.005859,0 -1.621093,-0.7666 -0.615235,-0.7666 -0.615235,-2.03125 0,-1.26953 0.615235,-2.03613 0.615234,-0.76661 1.621093,-0.76661 0.605469,0 1.04004,0.23926 0.43457,0.23926 0.71289,0.72266 v -0.83008 h 0.898438 z"
   id="ctrlltxt"
   style="font-size:10px;line-height:0%;font-family:'DejaVu Sans';fill:#111111"
   class="mod"
   aria-label="Strg" />&#10;&#10;<path
   d="m 56.981445,124.70996 h 1.469727 l 1.860351,4.96094 1.870118,-4.96094 h 1.469726 V 132 h -0.961914 v -6.40137 l -1.879883,5 h -0.991211 l -1.879882,-5 V 132 h -0.957032 z m 11.425782,0.85938 -2.490235,3.8916 h 2.490235 z m -0.25879,-0.85938 h 1.240235 v 4.75098 h 1.040039 v 0.82031 H 69.388672 V 132 h -0.981445 v -1.71875 h -3.291016 v -0.95215 z"
   id="m4ltxt"
   style="font-size:10px;line-height:0%;font-family:'DejaVu Sans';fill:#111111"
   class="mod"
   aria-label="M4" />&#10;<path
   d="m 138.41797,161.68164 -1.33789,3.62793 h 2.68066 z m -0.55664,-0.97168 h 1.11816 L 141.75781,168 h -1.02539 l -0.66406,-1.87012 h -3.28613 L 136.11816,168 h -1.04004 z m 4.92187,-0.30762 h 0.89844 V 168 h -0.89844 z m 3.667,0.57618 v 1.55273 h 1.85058 v 0.69824 h -1.85058 v 2.96875 q 0,0.66895 0.18066,0.85938 0.18555,0.19043 0.74707,0.19043 h 0.92285 V 168 h -0.92285 q -1.04004,0 -1.43555,-0.38574 -0.39551,-0.39063 -0.39551,-1.41602 v -2.96875 h -0.65917 v -0.69824 h 0.65917 v -1.55273 z"
   id="altltxt"
   style="font-size:10px;line-height:0%;font-family:'DejaVu Sans';fill:#111111"
   class="mod"
   aria-label="Alt" />&#10;&#10;&#10;<path
   d="m 436.98145,88.709961 h 1.46972 l 1.86035,4.960937 1.87012,-4.960937 h 1.46973 V 96 h -0.96192 v -6.401367 l -1.87988,5 h -0.99121 l -1.87988,-5 V 96 h -0.95703 z m 11.7041,3.359375 q 0.708,0.151367 1.10351,0.629883 0.40039,0.478515 0.40039,1.18164 0,1.079102 -0.74218,1.669922 -0.74219,0.590821 -2.10938,0.590821 -0.45898,0 -0.94727,-0.09277 -0.48339,-0.08789 -1.00097,-0.268555 v -0.952148 q 0.41015,0.239258 0.89844,0.361328 0.48828,0.12207 1.0205,0.12207 0.92774,0 1.41114,-0.366211 0.48828,-0.36621 0.48828,-1.064453 0,-0.644531 -0.4541,-1.005859 -0.44922,-0.366211 -1.25489,-0.366211 h -0.84961 v -0.810547 h 0.88868 q 0.72753,0 1.11328,-0.288086 0.38574,-0.292969 0.38574,-0.839844 0,-0.561523 -0.40039,-0.859375 -0.39551,-0.302734 -1.1377,-0.302734 -0.40527,0 -0.86914,0.08789 -0.46386,0.08789 -1.02051,0.273437 v -0.878906 q 0.56153,-0.15625 1.04981,-0.234375 0.49316,-0.07813 0.92773,-0.07813 1.12305,0 1.77735,0.512695 0.65429,0.507813 0.65429,1.376953 0,0.605469 -0.34668,1.025391 -0.34667,0.415039 -0.98632,0.576172 z"
   id="m3rtxt"
   style="font-size:10px;line-height:0%;font-family:'DejaVu Sans';fill:#111111"
   class="mod"
   aria-label="M3" />&#10;&#10;&#10;<path
   d="m 457.68359,125.23438 -1.81836,-1.81836 -1.81836,1.81836 h 0.89551 v 7.08203 h 1.84571 v -7.08203 z m -5.29101,0.68359 3.47265,-3.47266 3.47266,3.47266 h -1.86621 V 133 h -3.21289 v -7.08203 z"
   id="shiftrtxt"
   style="font-size:14px;line-height:0%;font-family:'DejaVu Sans';fill:#111111"
   class="mod big"
   aria-label="⇧" />&#10;<path
   d="m 495.35156,160.94922 v 0.96191 q -0.56152,-0.26855 -1.05957,-0.40039 -0.49804,-0.13183 -0.96191,-0.13183 -0.80567,0 -1.24512,0.3125 -0.43457,0.3125 -0.43457,0.88867 0,0.4834 0.28809,0.73242 0.29297,0.24414 1.10351,0.39551 l 0.59571,0.12207 q 1.10351,0.20996 1.62597,0.74219 0.52735,0.52734 0.52735,1.41601 0,1.05957 -0.7129,1.60645 -0.708,0.54687 -2.08007,0.54687 -0.51758,0 -1.10352,-0.11719 -0.58105,-0.11718 -1.20605,-0.34668 v -1.01562 q 0.60058,0.33691 1.17675,0.50781 0.57618,0.1709 1.13282,0.1709 0.84472,0 1.30371,-0.33203 0.45898,-0.33203 0.45898,-0.94727 0,-0.53711 -0.33203,-0.83984 -0.32715,-0.30273 -1.0791,-0.4541 l -0.60059,-0.11719 q -1.10351,-0.21973 -1.59668,-0.68848 -0.49316,-0.46875 -0.49316,-1.30371 0,-0.96679 0.67871,-1.52343 0.68359,-0.55665 1.87988,-0.55665 0.5127,0 1.04493,0.0928 0.53222,0.0928 1.08886,0.27832 z m 2.82715,0.0293 v 1.55273 h 1.85059 v 0.69824 h -1.85059 v 2.96875 q 0,0.66895 0.18066,0.85938 0.18555,0.19043 0.74708,0.19043 h 0.92285 V 168 h -0.92285 q -1.04004,0 -1.43555,-0.38574 -0.39551,-0.39063 -0.39551,-1.41602 v -2.96875 h -0.65918 v -0.69824 h 0.65918 v -1.55273 z m 6.20117,2.39257 q -0.15136,-0.0879 -0.33203,-0.12695 -0.17578,-0.0439 -0.39062,-0.0439 -0.76172,0 -1.17188,0.49804 -0.40527,0.49317 -0.40527,1.4209 V 168 h -0.90332 v -5.46875 h 0.90332 v 0.84961 q 0.2832,-0.49805 0.7373,-0.73731 0.4541,-0.24414 1.10352,-0.24414 0.0928,0 0.20508,0.0147 0.1123,0.01 0.24902,0.0342 z m 4.36524,1.83106 q 0,-0.97656 -0.40528,-1.51367 -0.40039,-0.53711 -1.12793,-0.53711 -0.72265,0 -1.12793,0.53711 -0.40039,0.53711 -0.40039,1.51367 0,0.97168 0.40039,1.50879 0.40528,0.53711 1.12793,0.53711 0.72754,0 1.12793,-0.53711 0.40528,-0.53711 0.40528,-1.50879 z m 0.89843,2.11914 q 0,1.39648 -0.62011,2.07519 -0.62012,0.6836 -1.89942,0.6836 -0.47363,0 -0.89355,-0.0732 -0.41992,-0.0684 -0.81543,-0.21485 v -0.87402 q 0.39551,0.21484 0.78125,0.31738 0.38574,0.10254 0.78613,0.10254 0.88379,0 1.32324,-0.46387 0.43946,-0.45898 0.43946,-1.3916 v -0.44433 q -0.27832,0.48339 -0.71289,0.72265 Q 507.59766,168 506.99219,168 q -1.00586,0 -1.6211,-0.7666 -0.61523,-0.7666 -0.61523,-2.03125 0,-1.26953 0.61523,-2.03613 0.61524,-0.76661 1.6211,-0.76661 0.60547,0 1.04004,0.23926 0.43457,0.23926 0.71289,0.72266 v -0.83008 h 0.89843 z"
   id="ctrlrtxt"
   style="font-size:10px;line-height:0%;font-family:'DejaVu Sans';fill:#111111"
   class="mod"
   aria-label="Strg" />&#10;<path
   d="m 357.98145,160.70996 h 1.46972 l 1.86035,4.96094 1.87012,-4.96094 h 1.46973 V 168 h -0.96192 v -6.40137 l -1.87988,5 h -0.99121 l -1.87988,-5 V 168 h -0.95703 z m 10.708,2.45117 q -0.72265,0 -1.14258,0.56641 -0.41992,0.56152 -0.41992,1.54297 0,0.98144 0.41504,1.54785 0.41992,0.56152 1.14746,0.56152 0.71778,0 1.1377,-0.5664 0.41992,-0.56641 0.41992,-1.54297 0,-0.97168 -0.41992,-1.53809 -0.41992,-0.57129 -1.1377,-0.57129 z m 0,-0.76172 q 1.17188,0 1.84082,0.76172 0.66895,0.76172 0.66895,2.10938 0,1.34277 -0.66895,2.10937 -0.66894,0.76172 -1.84082,0.76172 -1.17675,0 -1.8457,-0.76172 -0.66406,-0.7666 -0.66406,-2.10937 0,-1.34766 0.66406,-2.10938 0.66895,-0.76172 1.8457,-0.76172 z m 7.59766,0.96192 v -2.95899 h 0.89844 V 168 h -0.89844 v -0.82031 q -0.2832,0.48828 -0.71777,0.72754 -0.42969,0.23437 -1.03516,0.23437 -0.99121,0 -1.61621,-0.79101 -0.62012,-0.79102 -0.62012,-2.08008 0,-1.28906 0.62012,-2.08008 0.625,-0.79102 1.61621,-0.79102 0.60547,0 1.03516,0.23926 0.43457,0.23438 0.71777,0.72266 z m -3.06152,1.90918 q 0,0.99121 0.40527,1.55761 0.41016,0.56153 1.12305,0.56153 0.71289,0 1.12304,-0.56153 0.41016,-0.5664 0.41016,-1.55761 0,-0.99121 -0.41016,-1.55274 -0.41015,-0.5664 -1.12304,-0.5664 -0.71289,0 -1.12305,0.5664 -0.40527,0.56153 -0.40527,1.55274 z m 8.64746,-3.70117 -2.49024,3.8916 h 2.49024 z m -0.25879,-0.85938 h 1.24023 v 4.75098 h 1.04004 v 0.82031 h -1.04004 V 168 h -0.98144 v -1.71875 h -3.29102 v -0.95215 z"
   id="m4rtxt"
   style="font-size:10px;line-height:0%;font-family:'DejaVu Sans';fill:#111111"
   class="mod"
   aria-label="Mod4" />&#10;<path
   d="m 233.82275,160.70996 h 0.98633 v 6.45996 h 3.54981 V 168 h -4.53614 z m 10.03418,4.33106 v 0.43945 h -4.13086 q 0.0586,0.92773 0.55664,1.41601 0.50293,0.4834 1.39649,0.4834 0.51758,0 1.00098,-0.12695 0.48828,-0.12695 0.96679,-0.38086 v 0.84961 q -0.4834,0.20508 -0.99121,0.3125 -0.50781,0.10742 -1.03027,0.10742 -1.3086,0 -2.0752,-0.76172 -0.76172,-0.76172 -0.76172,-2.06054 0,-1.34278 0.72266,-2.12891 0.72754,-0.79102 1.95801,-0.79102 1.10351,0 1.74316,0.71289 0.64453,0.70801 0.64453,1.92872 z m -0.89843,-0.26368 q -0.01,-0.7373 -0.41504,-1.17675 -0.40039,-0.43946 -1.06446,-0.43946 -0.75195,0 -1.20605,0.42481 -0.44922,0.4248 -0.51758,1.19629 z m 7.05078,0.26368 v 0.43945 h -4.13086 q 0.0586,0.92773 0.55664,1.41601 0.50293,0.4834 1.39648,0.4834 0.51758,0 1.00098,-0.12695 0.48828,-0.12695 0.9668,-0.38086 v 0.84961 q -0.4834,0.20508 -0.99121,0.3125 -0.50782,0.10742 -1.03028,0.10742 -1.30859,0 -2.07519,-0.76172 -0.76172,-0.76172 -0.76172,-2.06054 0,-1.34278 0.72265,-2.12891 0.72754,-0.79102 1.95801,-0.79102 1.10352,0 1.74317,0.71289 0.64453,0.70801 0.64453,1.92872 z m -0.89844,-0.26368 q -0.01,-0.7373 -0.41504,-1.17675 -0.40039,-0.43946 -1.06445,-0.43946 -0.75196,0 -1.20606,0.42481 -0.44922,0.4248 -0.51758,1.19629 z m 5.54199,-1.40625 q -0.15137,-0.0879 -0.33203,-0.12695 -0.17578,-0.0439 -0.39062,-0.0439 -0.76172,0 -1.17188,0.49804 -0.40527,0.49317 -0.40527,1.4209 V 168 h -0.90332 v -5.46875 h 0.90332 v 0.84961 q 0.2832,-0.49805 0.7373,-0.73731 0.4541,-0.24414 1.10352,-0.24414 0.0928,0 0.20508,0.0147 0.1123,0.01 0.24902,0.0342 z m 0.55176,-0.83984 h 4.26758 v 0.82031 l -3.37891,3.93067 h 3.37891 V 168 h -4.38965 v -0.82031 l 3.37891,-3.93067 h -3.25684 z m 10.31738,2.50977 v 0.43945 h -4.13086 q 0.0586,0.92773 0.55664,1.41601 0.50293,0.4834 1.39649,0.4834 0.51758,0 1.00097,-0.12695 0.48829,-0.12695 0.9668,-0.38086 v 0.84961 q -0.4834,0.20508 -0.99121,0.3125 -0.50781,0.10742 -1.03027,0.10742 -1.3086,0 -2.0752,-0.76172 -0.76172,-0.76172 -0.76172,-2.06054 0,-1.34278 0.72266,-2.12891 0.72754,-0.79102 1.95801,-0.79102 1.10351,0 1.74316,0.71289 0.64453,0.70801 0.64453,1.92872 z m -0.89843,-0.26368 q -0.01,-0.7373 -0.41504,-1.17675 -0.40039,-0.43946 -1.06446,-0.43946 -0.75195,0 -1.20605,0.42481 -0.44922,0.4248 -0.51758,1.19629 z m 2.37304,-2.24609 h 0.89844 V 168 h -0.89844 z m 0,-2.12891 h 0.89844 v 1.1377 h -0.89844 z m 6.71387,2.33887 v 0.83984 q -0.38086,-0.20996 -0.7666,-0.3125 -0.38086,-0.10742 -0.77149,-0.10742 -0.87402,0 -1.35742,0.55664 -0.4834,0.55176 -0.4834,1.55274 0,1.00097 0.4834,1.55761 0.4834,0.55176 1.35742,0.55176 0.39063,0 0.77149,-0.10254 0.38574,-0.10742 0.7666,-0.31738 v 0.83008 q -0.37598,0.17578 -0.78125,0.26367 -0.40039,0.0879 -0.85449,0.0879 -1.23535,0 -1.96289,-0.77637 -0.72754,-0.77636 -0.72754,-2.09472 0,-1.33789 0.73242,-2.10449 0.7373,-0.76661 2.0166,-0.76661 0.41504,0 0.81055,0.0879 0.39551,0.083 0.7666,0.25391 z m 6.1084,1.95801 V 168 h -0.89844 v -3.27148 q 0,-0.77637 -0.30273,-1.16211 -0.30274,-0.38575 -0.90821,-0.38575 -0.72754,0 -1.14746,0.46387 -0.41992,0.46387 -0.41992,1.26465 V 168 h -0.90332 v -7.59766 h 0.90332 v 2.97852 q 0.32227,-0.49316 0.75684,-0.73731 0.43945,-0.24414 1.01074,-0.24414 0.94238,0 1.42578,0.58594 0.4834,0.58106 0.4834,1.71387 z m 6.46972,0.3418 v 0.43945 h -4.13086 q 0.0586,0.92773 0.55665,1.41601 0.50293,0.4834 1.39648,0.4834 0.51758,0 1.00098,-0.12695 0.48828,-0.12695 0.96679,-0.38086 v 0.84961 q -0.4834,0.20508 -0.99121,0.3125 -0.50781,0.10742 -1.03027,0.10742 -1.30859,0 -2.0752,-0.76172 -0.76172,-0.76172 -0.76172,-2.06054 0,-1.34278 0.72266,-2.12891 0.72754,-0.79102 1.95801,-0.79102 1.10351,0 1.74316,0.71289 0.64453,0.70801 0.64453,1.92872 z m -0.89843,-0.26368 q -0.01,-0.7373 -0.41504,-1.17675 -0.40039,-0.43946 -1.06446,-0.43946 -0.75195,0 -1.20605,0.42481 -0.44922,0.4248 -0.51758,1.19629 z m 6.91894,-0.0781 V 168 h -0.89844 v -3.27148 q 0,-0.77637 -0.30273,-1.16211 -0.30273,-0.38575 -0.9082,-0.38575 -0.72754,0 -1.14746,0.46387 -0.41993,0.46387 -0.41993,1.26465 V 168 H 287.729 v -5.46875 h 0.90332 v 0.84961 q 0.32227,-0.49316 0.75684,-0.73731 0.43945,-0.24414 1.01074,-0.24414 0.94239,0 1.42578,0.58594 0.4834,0.58106 0.4834,1.71387 z"
   id="text61"
   style="font-size:10px;line-height:0%;font-family:'DejaVu Sans';text-align:center;text-anchor:middle;fill:#111111"
   class="mod space"
   aria-label="Leerzeichen" />&#10;&#10;<path
   d="m 498.84863,61.083984 -3.47265,-3.472656 3.47265,-3.472656 v 1.866211 h 3.87598 v -4.210938 h 3.21289 l -0.007,7.423828 h -7.08203 z m -0.68359,-4.395507 v -0.895508 l -1.81836,1.818359 1.81836,1.818359 V 58.53418 h 7.08203 l 0.007,-6.056641 h -1.84571 l -0.007,4.210938 z"
   id="returntxt"
   style="font-size:14px;line-height:0%;font-family:'DejaVu Sans';fill:#111111"
   class="mod big"
   aria-label="⏎" />&#10;<path
   d="m 493.37891,23 h -9.5752 l -3.79883,-3.798828 3.79883,-3.798828 h 9.5752 z m -0.72266,-6.875 h -0.68848 l -3.07617,3.076172 3.07617,3.076172 h 0.68848 z m -6.8457,0 2.56347,2.563477 2.56348,-2.563477 z m 5.12695,6.152344 -2.56348,-2.563477 -2.56347,2.563477 z M 484.79492,16.125 h -0.69336 l -3.07617,3.085937 3.07617,3.066407 h 0.69336 l 3.07617,-3.076172 z"
   id="backspacetxt"
   style="font-size:10px;line-height:0%;font-family:'DejaVu Sans';fill:#111111"
   class="mod"
   aria-label="⌫" />&#10;</g>&#10;&#10;<g
   transform="translate(55,26)"
   id="g72">&#10;	<path
   d="m -0.37109375,-12.402344 q -0.30273437,0 -1.13281245,0.302735 -0.1953125,-0.15625 -0.2050782,-0.53711 1.25976565,-0.458984 2.34375002,-1.123047 0.22460938,-0.117187 0.36132813,0 v 4.775391 q 0,0.3808594 0.0683593,0.6054687 0.068359,0.2148438 0.234375,0.3320313 0.1757813,0.1074219 0.3320313,0.1367188 0.1660156,0.029297 0.4589844,0.048828 0.15625,0.3027344 0,0.5859375 -0.5957032,-0.019531 -1.67968755,-0.029297 -1.31835938,0 -1.91406245,0.029297 -0.1757813,-0.2832031 0,-0.5859375 0.4980468,-0.019531 0.74218745,-0.078125 0.25390625,-0.058594 0.45898437,-0.3027344 0.21484376,-0.2539063 0.21484376,-0.7421875 v -2.597656 q 0,-0.498047 -0.05859375,-0.654297 -0.0488281,-0.166016 -0.22460938,-0.166016 z"
   id="text62"
   style="font-size:20px;line-height:0%;font-family:'Linux Libertine';text-align:center;text-anchor:middle;fill:#111111;stroke-width:1.25"
   class="key"
   aria-label="¹" />&#10;	<path
   d="m 34.398437,-11.738281 q -0.175781,0 -0.351562,-0.146485 -0.175781,-0.15625 -0.175781,-0.332031 0,-0.517578 0.537109,-1.025391 0.546875,-0.517578 1.601563,-0.517578 0.878906,0 1.523437,0.390625 0.644531,0.390625 0.644531,1.269532 0,0.644531 -0.429687,1.18164 -0.429688,0.53711 -1.357422,1.2011721 -1.015625,0.7421875 -1.318359,1.796875 h 1.660156 q 0.224609,0 0.40039,-0.1074219 0.185547,-0.1171875 0.322266,-0.3710937 0.136719,-0.2636719 0.205078,-0.4003906 0.07813,-0.1367188 0.195313,-0.4589844 0.322265,0 0.478515,0.097656 -0.136718,1.1035157 -0.380859,1.8847657 h -4.121094 q 0,-1.2207032 1.71875,-2.5488282 0.761719,-0.6152342 1.074219,-1.0644532 0.3125,-0.449219 0.3125,-1.191406 0,-1.083985 -1.005859,-1.083985 -0.78125,0 -0.957032,0.419922 -0.03906,0.09766 -0.03906,0.302735 0,0.205078 0,0.283203 -0.07813,0.419922 -0.53711,0.419922 z"
   id="text63"
   style="font-size:20px;line-height:0%;font-family:'Linux Libertine';text-align:center;text-anchor:middle;fill:#111111;stroke-width:1.25"
   class="key"
   aria-label="²" />&#10;	<path
   d="m 72.654297,-12.480469 q 0,-0.361328 -0.234375,-0.517578 -0.22461,-0.166016 -0.527344,-0.166016 -0.302734,0 -0.625,0.136719 -0.3125,0.126953 -0.410156,0.351563 -0.01953,0.03906 -0.06836,0.175781 -0.03906,0.136719 -0.06836,0.205078 -0.0293,0.05859 -0.136719,0.126953 -0.107422,0.06836 -0.273437,0.06836 -0.175781,0 -0.292969,-0.07813 -0.107422,-0.07813 -0.136719,-0.15625 -0.0293,-0.08789 -0.0293,-0.126954 0,-0.224609 0.185547,-0.488281 0.195313,-0.273437 0.742188,-0.537109 0.55664,-0.273438 1.357422,-0.273438 0.78125,0 1.240234,0.3125 0.458984,0.302735 0.458984,0.869141 0,0.800781 -1.02539,1.357422 0.595703,0.05859 1.09375,0.507812 0.507812,0.449219 0.507812,1.2500004 0,1.015625 -0.78125,1.6601562 -0.78125,0.6445313 -2.001953,0.6445313 -0.566406,0 -1.25,-0.2148438 -0.683594,-0.2246093 -0.683594,-0.6445312 0,-0.1953125 0.146485,-0.3125 0.15625,-0.1269532 0.351562,-0.1269532 0.419922,0 0.595703,0.3417969 0.175782,0.3613282 0.927735,0.3515625 0.576172,0 1.015625,-0.3320312 0.439453,-0.3417969 0.439453,-1.2011719 0,-1.220703 -1.494141,-1.220703 -0.07813,0 -0.40039,0.03906 -0.136719,-0.175781 -0.03906,-0.537109 1.416016,-0.205078 1.416016,-1.464844 z"
   id="text64"
   style="font-size:20px;line-height:0%;font-family:'Linux Libertine';text-align:center;text-anchor:middle;fill:#111111;stroke-width:1.25"
   class="key"
   aria-label="³" />&#10;	<path
   d="m 108.5127,-4.296875 q -1.18165,-1.3378906 -2.53907,-3.3984375 0.0977,-0.3417969 0.47852,-0.3808594 1.98242,2.1582032 3.70117,3.6523438 v 0.2441406 q -1.71875,1.5039062 -3.70117,3.66210938 -0.38086,-0.0390625 -0.47852,-0.38085938 1.35742,-2.0605469 2.53907,-3.3984375 z"
   id="text65"
   style="font-size:20px;line-height:0%;font-family:'Linux Libertine';text-align:center;text-anchor:middle;fill:#111111;stroke-width:1.25"
   class="key"
   aria-label="›" />&#10;	<path
   d="m 143.4873,-4.296875 q 1.18165,1.3378906 2.54883,3.3984375 -0.0977,0.34179688 -0.48828,0.38085938 -1.98242,-2.15820318 -3.6914,-3.66210938 v -0.2441406 q 1.71875,-1.5039063 3.6914,-3.6523438 0.38086,0.039063 0.48828,0.3808594 -1.36718,2.0605469 -2.54883,3.3984375 z"
   id="text66"
   style="font-size:20px;line-height:0%;font-family:'Linux Libertine';text-align:center;text-anchor:middle;fill:#111111;stroke-width:1.25"
   class="key"
   aria-label="‹" />&#10;&#10;	<path
   d="m 179.99023,-12.216797 h 0.72266 v 1.933594 q 1.30859,0.01953 2.07031,0.517578 0.76172,0.4980469 0.76172,1.2792969 0,0.4101562 -0.29297,0.625 -0.29297,0.2148437 -0.64453,0.2148437 -0.64453,0 -0.72265,-0.6835937 -0.0293,-0.2832032 -0.0781,-0.46875 -0.0488,-0.1855469 -0.16602,-0.390625 -0.11718,-0.2148438 -0.35156,-0.3222657 -0.23437,-0.1171875 -0.57617,-0.1464843 v 6.9628906 q 0.11719,0.00977 0.20508,0.00977 1.30859,0 2.28515,-1.25 0.29297,0.039063 0.4004,0.2636719 -0.625,1.0351562 -1.32813,1.4648437 -0.70312,0.4199219 -1.5625,0.4492188 v 2.02148438 h -0.72266 V -1.7773437 q -1.54296,-0.1660157 -2.40234,-1.2792969 -0.84961,-1.1132813 -0.84961,-2.8417969 0,-1.7089844 0.95703,-2.8808594 0.95703,-1.1816406 2.29492,-1.4453121 z m 0,9.3066407 v -6.6601562 q -0.74218,0.2441406 -1.18164,1.1035156 -0.43945,0.8496094 -0.43945,2.1484375 0,1.2402344 0.43945,2.1386719 0.44922,0.8984375 1.18164,1.2695312 z"
   id="text67"
   style="font-size:20px;line-height:0%;font-family:'Linux Libertine';text-align:center;text-anchor:middle;fill:#111111;stroke-width:1.25"
   class="key"
   aria-label="¢" />&#10;	<path
   d="m 215.16992,-2.5390625 v -0.1367188 h -2.82226 q -0.11719,0 -0.11719,-0.1464843 v -0.2539063 q 0,-0.3808594 0.47851,-0.3808594 h 2.46094 v -1.4453124 h -2.82226 q -0.11719,0 -0.11719,-0.1171875 v -0.2441407 q 0,-0.15625 0.11719,-0.2832031 0.12695,-0.1367187 0.36132,-0.1367187 h 2.38282 l -2.13868,-4.3750003 q -0.57617,-1.220703 -1.60156,-1.318359 -0.0781,-0.09766 -0.0781,-0.341797 0,-0.244141 0.0781,-0.322266 1.2793,0.03906 1.79688,0.03906 0.49804,0 1.78711,-0.03906 0.0976,0.07813 0.0976,0.322266 0,0.234375 -0.0976,0.341797 -0.57618,0 -0.70313,0.117187 -0.11719,0.117188 0.0977,0.644532 l 2.13867,4.3945309 h 0.0391 l 1.54297,-3.515625 q 0.49805,-1.1035159 0.46875,-1.3378909 -0.0293,-0.24414 -0.77148,-0.302734 -0.0781,-0.09766 -0.0781,-0.341797 0,-0.244141 0.0781,-0.322266 1.27929,0.03906 1.58203,0.03906 0.0586,0 1.33789,-0.03906 0.0781,0.09766 0.0684,0.332032 0,0.224609 -0.10742,0.332031 -0.78125,0.07813 -0.9961,0.292969 -0.20508,0.205078 -0.72265,1.3476559 l -1.83594,4.0527344 h 2.57812 q 0.15625,0 0.15625,0.1269531 v 0.3808594 q 0,0.2832031 -0.49804,0.2734375 h -2.44141 v 1.4453124 h 2.7832 q 0.15625,0 0.15625,0.1171875 v 0.3808594 q 0,0.2832031 -0.49804,0.2832031 h -2.44141 v 0.1367188 q 0,1.2792969 0.35156,1.58203125 0.35157,0.29296875 1.68946,0.34179688 0.0781,0.0976563 0.0781,0.34179687 0,0.234375 -0.0781,0.3125 Q 216.79102,0 216.04883,0 q -0.83985,0 -2.91992,0.0390625 -0.0977,-0.078125 -0.0977,-0.3125 0,-0.24414062 0.0977,-0.34179687 1.33789,-0.0390625 1.68945,-0.34179688 0.35156,-0.30273435 0.35156,-1.58203125 z"
   id="text68"
   style="font-size:20px;line-height:0%;font-family:'Linux Libertine';text-align:center;text-anchor:middle;fill:#111111;stroke-width:1.25"
   class="key"
   aria-label="¥" />&#10;	<path
   d="m 251.90234,-1.9042969 q 0.59571,0 0.95703,0.546875 0.36133,0.5371094 0.36133,1.4355469 0,0.9960937 -0.70312,1.6992187 -0.69336,0.7031251 -1.65039,0.8789063 -0.17578,-0.1757812 -0.18555,-0.4785156 0.72266,-0.1757813 1.24023,-0.7128907 0.51758,-0.5273437 0.51758,-0.88867183 0,-0.53710937 -0.71289,-0.61523437 -0.8789,-0.13671875 -0.8789,-0.87890625 0,-0.41992185 0.29296,-0.70312495 0.30274,-0.2832032 0.76172,-0.2832032 z"
   id="text69"
   style="font-size:20px;line-height:0%;font-family:'Linux Libertine';text-align:center;text-anchor:middle;fill:#111111;stroke-width:1.25"
   class="key"
   aria-label="‚" />&#10;	<path
   d="m 288.10742,-10.136719 q -0.5957,0 -0.95703,-0.537109 -0.36133,-0.546875 -0.36133,-1.445313 0,-0.996093 0.69336,-1.699218 0.70313,-0.703125 1.66016,-0.878907 0.17578,0.175782 0.18554,0.478516 -0.72265,0.175781 -1.25,0.712891 -0.51757,0.527343 -0.51757,0.888671 0,0.53711 0.72265,0.615235 0.87891,0.136719 0.87891,0.878906 0,0.419922 -0.30274,0.703125 -0.29296,0.283203 -0.75195,0.283203 z"
   id="text70"
   style="font-size:20px;line-height:0%;font-family:'Linux Libertine';text-align:center;text-anchor:middle;fill:#111111;stroke-width:1.25"
   class="key"
   aria-label="‘" />&#10;	<path
   d="m 323.90234,-13.964844 q 0.59571,0 0.95703,0.546875 0.36133,0.53711 0.36133,1.435547 0,0.996094 -0.70312,1.699219 -0.69336,0.7031249 -1.65039,0.8789061 -0.17578,-0.1757812 -0.18555,-0.4785156 0.72266,-0.1757815 1.24023,-0.7031255 0.51758,-0.537109 0.51758,-0.898437 0,-0.537109 -0.71289,-0.615234 -0.8789,-0.136719 -0.8789,-0.878907 0,-0.419922 0.29296,-0.703125 0.30274,-0.283203 0.76172,-0.283203 z"
   id="text71"
   style="font-size:20px;line-height:0%;font-family:'Linux Libertine';text-align:center;text-anchor:middle;fill:#111111;stroke-width:1.25"
   class="key"
   aria-label="’" />&#10;	<text
   x="360"
   class="key"
   id="text72" />&#10;</g>&#10;&#10;&#10;<path
   d="m 10.799805,55.030273 h 7.123047 l -1.59961,-1.599609 0.820313,-0.820312 2.693359,2.693359 v -2.625 h 1.162109 v 5.878906 h -1.162109 v -2.638672 l -2.693359,2.69336 -0.820313,-0.820313 1.59961,-1.599609 h -7.123047 z"
   id="text73"
   style="font-size:14px;line-height:0%;font-family:'DejaVu Sans';fill:#111111"
   class="mod big"
   aria-label="⇥" />&#10;&#10;<g
   transform="translate(73,62)"
   id="g84">&#10;	<path
   d="m -6.0400391,-0.10742187 q -0.3027343,-0.31250001 -0.3027343,-0.75195313 0,-0.4394531 0.3027343,-0.7519531 0.3125,-0.3125 0.7519532,-0.3125 0.4394531,0 0.7519531,0.3125 0.3125,0.3125 0.3125,0.7519531 0,0.43945312 -0.3125,0.75195313 -0.3125,0.30273437 -0.7519531,0.30273437 -0.4394532,0 -0.7519532,-0.30273437 z m 5.30273441,0 Q -1.0498047,-0.41992188 -1.0498047,-0.859375 q 0,-0.4394531 0.31250001,-0.7519531 0.3125,-0.3125 0.75195313,-0.3125 0.43945312,0 0.75195312,0.3125 0.31250004,0.3125 0.31250004,0.7519531 0,0.43945312 -0.31250004,0.75195313 -0.3125,0.30273437 -0.75195312,0.30273437 -0.43945313,0 -0.75195313,-0.30273437 z m 5.28320309,0 q -0.3125,-0.31250001 -0.3125,-0.75195313 0,-0.4394531 0.3125,-0.7519531 0.3125,-0.3125 0.7519532,-0.3125 0.4394531,0 0.7421875,0.3125 0.3125,0.3125 0.3125,0.7519531 0,0.43945312 -0.3125,0.75195313 -0.3027344,0.30273437 -0.7421875,0.30273437 -0.4394532,0 -0.7519532,-0.30273437 z"
   id="text74"
   style="font-size:20px;line-height:0%;font-family:'Linux Libertine';text-align:center;text-anchor:middle;fill:#111111;stroke-width:1.25"
   class="key"
   aria-label="…" />&#10;	<path
   d="m 40.663086,2.1972656 q 0.117187,0.1171875 0.117187,0.4394532 0,0.3222656 -0.117187,0.4394531 h -9.326172 q -0.117187,-0.1171875 -0.117187,-0.4394531 0,-0.3125 0.117187,-0.4394532 z"
   id="text75"
   style="font-size:20px;line-height:0%;font-family:'Linux Libertine';text-align:center;text-anchor:middle;fill:#111111;stroke-width:1.25"
   class="key"
   aria-label="_" />&#10;	<path
   d="M 70.598633,3.8574219 V -14.0625 h 4.238281 q 0.07813,0.09766 0.07813,0.302734 0.0098,0.195313 -0.07813,0.302735 -1.416016,0.09766 -2.001953,0.3125 -0.576172,0.205078 -0.742188,0.585937 -0.15625,0.38086 -0.15625,1.337891 V 0.99609375 q 0,0.74218745 0.05859,1.07421875 0.06836,0.3320313 0.371094,0.6152344 0.3125,0.2929687 0.849609,0.390625 0.546875,0.1074219 1.621094,0.1855469 0.07813,0.097656 0.07813,0.2929687 0.0098,0.2050781 -0.07813,0.3027344 z"
   id="text76"
   style="font-size:20px;line-height:0%;font-family:'Linux Libertine';text-align:center;text-anchor:middle;fill:#111111;stroke-width:1.25"
   class="key"
   aria-label="[" />&#10;	<path
   d="M 109.40137,-14.082031 V 3.8378906 h -4.23828 q -0.0781,-0.078125 -0.0781,-0.3027343 0,-0.2148438 0.0781,-0.2929688 1.41601,-0.097656 1.99218,-0.3125 0.58594,-0.2050781 0.74219,-0.5859375 0.16602,-0.3808594 0.16602,-1.34765625 V -11.220703 q 0,-0.742188 -0.0684,-1.064453 -0.0586,-0.332032 -0.3711,-0.625 -0.30273,-0.292969 -0.84961,-0.390625 -0.53711,-0.09766 -1.61132,-0.175782 -0.0781,-0.07813 -0.0781,-0.302734 0,-0.224609 0.0781,-0.302734 z"
   id="text77"
   style="font-size:20px;line-height:0%;font-family:'Linux Libertine';text-align:center;text-anchor:middle;fill:#111111;stroke-width:1.25"
   class="key"
   aria-label="]" />&#10;	<path
   d="m 144,-11.855469 -2.03125,4.9316409 h -0.9082 l 2.53906,-6.0742189 h 0.83984 l 2.5293,6.0742189 h -0.9082 z"
   id="text78"
   style="font-size:20px;line-height:0%;font-family:'Linux Libertine';text-align:center;text-anchor:middle;fill:#111111;stroke-width:1.25"
   class="key"
   aria-label="^" />&#10;&#10;	<path
   d="m 179.2627,-12.802734 q 0.32226,-0.361329 0.74218,-0.361329 0.41992,0 0.73242,0.361329 0.32227,0.361328 0.32227,1.103515 0,0.576172 -0.0684,1.132813 -0.0684,0.546875 -0.20508,1.3183591 -0.12695,0.7714844 -0.20508,1.40625 -0.11718,0.9375 -0.17578,1.796875 -0.0586,0.8496094 -0.0781,1.3085938 -0.0195,0.4589844 -0.0391,0.5371094 -0.0391,0.4003906 -0.28321,0.4003906 -0.24414,0 -0.2832,-0.2636719 -0.0195,-0.1171875 -0.0586,-0.7519531 -0.0391,-0.6445313 -0.10743,-1.4941406 -0.0684,-0.8496094 -0.15625,-1.5332032 -0.0586,-0.6152344 -0.26367,-1.8359375 -0.19531,-1.2207036 -0.19531,-2.0214846 0,-0.742187 0.32227,-1.103515 z m -0.01,12.69531213 q -0.3125,-0.31250001 -0.3125,-0.75195313 0,-0.4394531 0.3125,-0.7519531 0.3125,-0.3125 0.75195,-0.3125 0.43946,0 0.74219,0.3125 0.3125,0.3125 0.3125,0.7519531 0,0.43945312 -0.3125,0.75195313 -0.30273,0.30273437 -0.74219,0.30273437 -0.43945,0 -0.75195,-0.30273437 z"
   id="text79"
   style="font-size:20px;line-height:0%;font-family:'Linux Libertine';text-align:center;text-anchor:middle;fill:#111111;stroke-width:1.25"
   class="key"
   aria-label="!" />&#10;	<path
   d="m 213.26562,-4.7753906 6.3379,2.3144531 q 0.19531,0.2246094 0.19531,0.5664063 0,0.3320312 -0.19531,0.4296875 l -7.80274,-2.8320313 q -0.2832,-0.4394531 0,-0.9667969 l 7.80274,-2.8125 q 0.19531,0.097656 0.19531,0.4394532 0,0.3320312 -0.19531,0.5566406 z"
   id="text80"
   style="font-size:20px;line-height:0%;font-family:'Linux Libertine';text-align:center;text-anchor:middle;fill:#111111;stroke-width:1.25"
   class="key"
   aria-label="&lt;" />&#10;	<path
   d="m 254.74414,-4.7167969 -6.33789,-2.3242187 q -0.19531,-0.2246094 -0.20508,-0.5566406 0,-0.3417969 0.20508,-0.4394532 l 7.79297,2.8417969 q 0.2832,0.4394531 0,0.9570313 l -7.79297,2.8222656 q -0.19531,-0.097656 -0.20508,-0.4394531 0,-0.3417969 0.20508,-0.5664063 z"
   id="text81"
   style="font-size:20px;line-height:0%;font-family:'Linux Libertine';text-align:center;text-anchor:middle;fill:#111111;stroke-width:1.25"
   class="key"
   aria-label="&gt;" />&#10;	<path
   d="m 291.7793,-6.1816406 h -7.77344 q -0.30274,0 -0.30274,-0.3222656 0,-0.2246094 0.15625,-0.4492188 0.16602,-0.2246094 0.3418,-0.2246094 h 7.8418 q 0.2832,0 0.2832,0.3417969 0,0.15625 -0.18555,0.4101563 -0.18554,0.2441406 -0.36132,0.2441406 z m 0,3.3203125 h -7.77344 q -0.30274,0 -0.30274,-0.3222657 0,-0.2246093 0.15625,-0.4492187 0.16602,-0.2246094 0.3418,-0.2246094 h 7.8418 q 0.2832,0 0.2832,0.3417969 0,0.15625 -0.18555,0.4101562 -0.18554,0.2441407 -0.36132,0.2441407 z"
   id="text82"
   style="font-size:20px;line-height:0%;font-family:'Linux Libertine';text-align:center;text-anchor:middle;fill:#111111;stroke-width:1.25"
   class="key"
   aria-label="=" />&#10;	<path
   d="m 321.9541,-6.7578125 q -1.46484,0.8007813 -1.98242,1.640625 -0.51758,0.8398438 -0.51758,2.0019531 0,1.3769532 0.64453,2.0214844 0.6543,0.63476562 1.69922,0.63476562 0.9961,0 1.64063,-0.46875 0.65429,-0.46875002 1.47461,-1.59179692 -0.82032,-1.0839843 -1.80664,-2.4902343 -0.97657,-1.40625 -1.15235,-1.7480469 z m 3.41797,4.8730469 q -1.52344,2.0800781 -3.7207,2.0800781 -1.73828,0 -2.79297,-0.79101562 -1.04492,-0.80078128 -1.04492,-2.51953128 0,-1.2011718 0.86914,-2.2460937 0.86914,-1.0546875 2.83203,-2.1582031 -1.01563,-1.7578126 -1.02539,-2.8222658 0,-0.976562 0.83984,-1.787109 0.84961,-0.810547 2.2461,-0.810547 1.06445,0 1.80664,0.615234 0.75195,0.605469 0.75195,1.542969 0,0.8007812 -0.83984,1.6992187 -0.83985,0.8984375 -2.13868,1.6601563 l 0.0781,0.1660156 q 0.61523,1.0644532 2.4414,3.515625 0.83985,-1.2402343 1.54297,-2.5585937 0.28321,-0.5273438 0.38086,-0.8203125 0.0977,-0.3027344 -0.0195,-0.4589844 -0.10742,-0.1660156 -0.32226,-0.2148437 -0.20508,-0.048828 -0.66407,-0.068359 -0.0781,-0.097656 -0.0781,-0.3320313 0,-0.2441406 0.0781,-0.3222656 0.80078,0.039063 1.9043,0.039063 0.87891,0 1.67969,-0.039063 0.0976,0.078125 0.0976,0.3222656 0,0.234375 -0.0976,0.3320313 -0.91797,0.058594 -1.25977,0.3320312 -0.34179,0.2734375 -1.02539,1.4941407 -0.97656,1.7382812 -1.77734,2.8906249 l 0.72265,1.0058594 q 0.43946,0.5957032 0.85938,0.9277344 0.41992,0.33203125 0.67383,0.33203125 0.95703,0 1.52343,-1.08398435 0.22461,0 0.41993,0.2050781 -0.32227,0.9765625 -0.89844,1.46484375 -0.57617,0.48828125 -1.16211,0.48828125 -0.40039,0 -0.68359,-0.0488281 -0.27344,-0.04882812 -0.72266,-0.36132812 -0.44922,-0.32226562 -0.88867,-0.92773435 z m -2.63672,-6.2988282 q 0.9375,-0.6152343 1.47461,-1.328125 0.54688,-0.7128902 0.54688,-1.2695312 0,-0.683594 -0.3418,-1.083984 -0.3418,-0.410157 -0.9375,-0.410157 -0.47852,0 -0.99609,0.498047 -0.50782,0.498047 -0.50782,1.396485 0,0.7617184 0.76172,2.1972652 z"
   id="text83"
   style="font-size:20px;line-height:0%;font-family:'Linux Libertine';text-align:center;text-anchor:middle;fill:#111111;stroke-width:1.25"
   class="key"
   aria-label="&amp;" />&#10;	<path
   d="m 362.43164,-6.3183594 q 0,-0.5566406 -0.37109,-0.9082031 -0.36133,-0.3515625 -0.92774,-0.3515625 -0.34179,0 -0.86914,0.1953125 -0.52734,0.1855469 -0.92773,0.6054688 -1.35742,1.3574218 -1.35742,3.5351562 0,1.8359375 1.55273,1.8457031 0.51758,0 1.18164,-0.7519531 0.66406,-0.7519531 1.12305,-1.8554687 0.5957,-1.4355469 0.5957,-2.3144532 z m 0.2832,4.8339844 q 0,0.2441406 0.22461,0.2441406 1.64063,0 2.46094,-0.9472656 0.83008,-0.9570313 0.83008,-3.3105469 0,-1.484375 -0.57617,-2.6855469 -0.57618,-1.2011718 -1.49414,-1.9140622 -0.90821,-0.722657 -1.9336,-1.113282 -1.01562,-0.390625 -1.99219,-0.390625 -1.18164,0 -2.29492,0.410157 -1.10351,0.410156 -2.04101,1.2011716 -0.92774,0.7910156 -1.49414,2.1289063 -0.56641,1.3378906 -0.56641,3.0371094 0,0.9570312 0.18555,1.9238281 0.19531,0.9570312 0.68359,1.95312497 0.48828,0.98632813 1.21094,1.73828125 0.73242,0.75195308 1.92383,1.23046878 Q 359.0332,2.5 360.51758,2.5 q 2.36328,0 4.01367,-1.3183594 l 0.26367,0.3613281 q -1.06445,0.8007813 -2.08008,1.2109376 -1.01562,0.4101562 -2.57812,0.4101562 -3.51563,0 -5.71289,-2.1875 -2.1875,-2.1777344 -2.1875,-5.4394531 0,-3.2226563 2.40234,-5.4882813 2.41211,-2.2656251 5.80078,-2.2656251 3.20313,0 5.29297,1.884766 2.09961,1.8749997 2.09961,4.6874998 0,0.9179687 -0.30273,1.7773437 -0.29297,0.8496094 -0.92774,1.6210937 -0.625,0.7617188 -1.79687,1.2402344 -1.17188,0.46875003 -2.73438,0.46875003 -0.72265,0 -0.71289,-0.82031253 0,-0.3222656 0.29297,-1.2597656 l -0.0391,-0.019531 q -0.61524,1.0351563 -1.34766,1.5527344 -0.73242,0.50781253 -1.30859,0.50781253 -0.70313,0 -1.22071,-0.27343751 -0.51757,-0.27343752 -0.76171,-0.68359372 -0.23438,-0.4101563 -0.35157,-0.78125 -0.10742,-0.3808594 -0.10742,-0.7421875 0,-2.0605469 1.48438,-3.6035156 1.49414,-1.5429688 3.17382,-1.5429688 0.49805,0 0.94727,0.2441406 0.45898,0.234375 0.5957,0.6152344 l 0.0977,-0.4785156 1.06445,-0.2539063 0.29297,0.097656 -1.1914,5.15625 q -0.26368,1.1816406 -0.26368,1.3378906 z"
   id="text84"
   style="font-size:20px;line-height:0%;font-family:'Linux Libertine';text-align:center;text-anchor:middle;fill:#111111;stroke-width:1.25"
   class="key"
   aria-label="@" />&#10;</g>&#10;&#10;&#10;<g
   transform="translate(84,98)"
   id="g94">&#10;	<path
   d="M -1.7626953,-13.964844 2.8369141,0.95703125 H 1.9580078 L -2.6416016,-13.964844 Z"
   id="text85"
   style="font-size:20px;line-height:0%;font-family:'Linux Libertine';text-align:center;text-anchor:middle;fill:#111111;stroke-width:1.25"
   class="key"
   aria-label="\" />&#10;	<path
   d="M 38.631836,-12.919922 33.895508,1.1816406 h -0.820313 l 4.736328,-14.1015626 z"
   id="text86"
   style="font-size:20px;line-height:0%;font-family:'Linux Libertine';text-align:center;text-anchor:middle;fill:#111111;stroke-width:1.25"
   class="key"
   aria-label="/" />&#10;	<path
   d="m 72.795898,-11.035156 0.15625,3.3105466 q 0.05859,1.2402344 -0.458984,1.8359375 -0.517578,0.5859375 -1.640625,0.9082032 v 0.078125 q 1.103516,0.4589843 1.630859,1.1523437 0.527344,0.6933594 0.46875,1.8457031 l -0.15625,2.9882813 q -0.05859,1.2011719 0.419922,1.9335937 0.478516,0.7421875 1.171875,0.7421875 0.07813,0.078125 0.07813,0.234375 0.0098,0.1660156 -0.07813,0.2441406 -1.621093,0 -2.373047,-0.7031249 -0.742187,-0.6933594 -0.664062,-2.5585938 l 0.117187,-3.3984375 q 0.05859,-2.0410156 -1.953125,-2.2753906 -0.24414,-0.2441406 0,-0.4785156 1.015625,-0.097656 1.484375,-0.7324219 0.46875,-0.6347656 0.46875,-1.4941406 l -0.117187,-3.6816403 q -0.09766,-3.056641 3.037109,-3.056641 0.07813,0.09766 0.07813,0.244141 0.0098,0.136718 -0.07813,0.234375 -0.361328,0.09766 -0.595703,0.224609 -0.224609,0.117187 -0.517578,0.390625 -0.283203,0.263672 -0.400391,0.771484 -0.117187,0.498047 -0.07813,1.240235 z"
   id="text87"
   style="font-size:20px;line-height:0%;font-family:'Linux Libertine';text-align:center;text-anchor:middle;fill:#111111;stroke-width:1.25"
   class="key"
   aria-label="{" />&#10;	<path
   d="m 107.13574,1.1621094 -0.16601,-3.3203125 q -0.0586,-1.2402344 0.45898,-1.8261719 0.52734,-0.5957031 1.64063,-0.9179687 v -0.078125 q -1.10352,-0.4589844 -1.63086,-1.1425782 -0.52735,-0.6933593 -0.46875,-1.8554687 l 0.16601,-2.9785154 q 0.0586,-1.201172 -0.42969,-1.94336 -0.47851,-0.742187 -1.17187,-0.742187 -0.0977,-0.07813 -0.10742,-0.234375 0,-0.166016 0.10742,-0.244141 1.62109,0 2.36328,0.703125 0.75195,0.69336 0.67383,2.558594 l -0.11719,3.3984375 q -0.0586,2.0410156 1.95313,2.2851563 0.24414,0.2441406 0,0.4785156 -1.01563,0.097656 -1.48438,0.7324218 -0.46875,0.625 -0.46875,1.484375 l 0.11719,3.6816407 q 0.0977,3.0566406 -3.03711,3.0566406 -0.0977,-0.097656 -0.10742,-0.2441406 0,-0.1367188 0.10742,-0.234375 0.36133,-0.097656 0.58594,-0.2246094 0.23437,-0.1171875 0.51758,-0.390625 0.29296,-0.2636719 0.41015,-0.7617187 0.12695,-0.4980469 0.0879,-1.2402344 z"
   id="text88"
   style="font-size:20px;line-height:0%;font-family:'Linux Libertine';text-align:center;text-anchor:middle;fill:#eeeeee;stroke-width:1.25"
   class="key nubkey"
   aria-label="}" />&#10;	<path
   d="m 143.67285,-10.9375 q -0.3418,-0.07813 -0.83984,-0.07813 -1.6211,0 -1.6211,-0.742188 0,-0.24414 0.15625,-0.419921 0.16602,-0.185547 0.50782,-0.185547 0.38086,0 0.96679,0.439453 0.58594,0.439453 0.94727,0.585937 -0.0391,-0.40039 -0.25391,-0.986328 -0.20508,-0.595703 -0.20508,-0.859375 0,-0.322265 0.16602,-0.546875 0.17578,-0.234375 0.43945,-0.234375 0.66407,0 0.6543,0.703125 0,0.283203 -0.18555,0.976563 -0.17578,0.683593 -0.19531,0.966797 0.38086,-0.15625 0.95703,-0.595704 0.58594,-0.449218 0.94727,-0.449218 0.36133,0 0.51758,0.205078 0.16601,0.195312 0.16601,0.40039 0,0.742188 -1.38672,0.742188 -0.61523,0 -1.09375,0.07813 0.24414,0.263672 0.69336,0.576172 0.45899,0.302734 0.71289,0.5566405 0.25391,0.2441406 0.25391,0.6054687 0,0.2636719 -0.18555,0.4199219 -0.17578,0.15625 -0.40039,0.15625 -0.3418,0 -0.57617,-0.3125 -0.22461,-0.3222656 -0.45898,-0.9082031 -0.22461,-0.595703 -0.38086,-0.859375 -0.13672,0.263672 -0.38086,0.8886719 -0.24414,0.6152343 -0.46875,0.9082031 -0.21485,0.2832031 -0.55664,0.2832031 -0.26368,0 -0.41993,-0.1660156 -0.15625,-0.1757813 -0.15625,-0.390625 0,-0.3808594 0.25391,-0.6347656 0.26367,-0.2636719 0.72266,-0.5468749 0.45898,-0.292969 0.70312,-0.576172 z"
   id="text89"
   style="font-size:20px;line-height:0%;font-family:'Linux Libertine';text-align:center;text-anchor:middle;fill:#111111;stroke-width:1.25"
   class="key"
   aria-label="*" />&#10;&#10;	<path
   d="m 177.92969,-11.435547 q 0,0.361328 0.12695,0.517578 0.11719,0.136719 0.11719,0.478516 0,0.322265 -0.24414,0.517578 -0.23438,0.1855469 -0.53711,0.1855469 -0.32227,0 -0.57617,-0.1953125 -0.24414,-0.2050784 -0.24414,-0.6640624 0,-0.976563 1.02539,-1.806641 0.89843,-0.78125 2.48046,-0.78125 1.52344,0 2.44141,0.830078 0.91797,0.830078 0.91797,2.197266 0,0.5566406 -0.18555,1.0351562 -0.17578,0.4785157 -0.57617,0.8886719 -0.40039,0.4101563 -0.66406,0.6347657 -0.25391,0.2148437 -0.76172,0.5761718 -0.83984,0.6152344 -1.03516,1.0058594 -0.2832,0.5371094 -0.2832,1.4550781 v 0.8789063 q 0,0.1953125 -0.3418,0.2050781 -0.32226,0 -0.3125,-0.2050781 v -0.9179688 q 0,-1.9433593 1.39649,-3.2226562 0.5957,-0.5566407 0.84961,-1.0546875 0.2539,-0.5078125 0.2539,-1.2011719 0,-0.996094 -0.53711,-1.71875 -0.52734,-0.722656 -1.36718,-0.722656 -0.83985,0 -1.39649,0.3125 -0.54687,0.3125 -0.54687,0.771484 z m 0.9082,11.32812513 q -0.30273,-0.31250001 -0.30273,-0.75195313 0,-0.4394531 0.30273,-0.7519531 0.3125,-0.3125 0.75195,-0.3125 0.44922,0 0.75196,0.3125 0.3125,0.3125 0.3125,0.7519531 0,0.43945312 -0.3125,0.75195313 -0.30274,0.30273437 -0.75196,0.30273437 -0.43945,0 -0.75195,-0.30273437 z"
   id="text90"
   style="font-size:20px;line-height:0%;font-family:'Linux Libertine';text-align:center;text-anchor:middle;fill:#111111;stroke-width:1.25"
   class="key"
   aria-label="?" />&#10;	<path
   d="m 213.90039,-5.0390625 q 0,-2.6757812 1.18164,-5.0781255 1.18164,-2.402343 3.05664,-4.023437 0.30274,0.01953 0.41992,0.361328 -2.99804,3.378906 -2.99804,8.7402345 0,5.32226563 2.99804,8.7792969 -0.0977,0.2832031 -0.41992,0.3417968 -1.18164,-1.0156249 -2.03125,-2.265625 -0.84961,-1.24023433 -1.25976,-2.22656245 -0.41016,-0.98632815 -0.6543,-2.08007815 -0.23438,-1.09375 -0.26367,-1.5820312 -0.0293,-0.4882813 -0.0293,-0.9667969 z"
   id="text91"
   style="font-size:20px;line-height:0%;font-family:'Linux Libertine';text-align:center;text-anchor:middle;fill:#eeeeee;stroke-width:1.25"
   class="key nubkey"
   aria-label="(" />&#10;	<path
   d="m 254.09961,-5.0390625 q 0,2.6757812 -1.18164,5.078125 -1.17188,2.4023438 -3.05664,4.0234375 -0.30274,-0.019531 -0.41992,-0.3613281 2.99804,-3.37890627 2.99804,-8.7402344 0,-5.3222655 -2.99804,-8.7792965 0.0977,-0.283204 0.41992,-0.341797 1.18164,1.015625 2.03125,2.255859 0.84961,1.240234 1.25976,2.2363282 0.41016,0.9863282 0.64453,2.0800782 0.24415,1.0839844 0.27344,1.5820312 0.0293,0.4882813 0.0293,0.9667969 z"
   id="text92"
   style="font-size:20px;line-height:0%;font-family:'Linux Libertine';text-align:center;text-anchor:middle;fill:#111111;stroke-width:1.25"
   class="key"
   aria-label=")" />&#10;	<path
   d="m 290.04102,-4.4628906 h -4.31641 q -0.30274,0 -0.30274,-0.3808594 0,-0.2832031 0.15625,-0.546875 0.16602,-0.2734375 0.3418,-0.2734375 h 4.38477 q 0.2832,0 0.27343,0.4003906 0,0.1953125 -0.18554,0.4980469 -0.17578,0.3027344 -0.35156,0.3027344 z"
   id="text93"
   style="font-size:20px;line-height:0%;font-family:'Linux Libertine';text-align:center;text-anchor:middle;fill:#111111;stroke-width:1.25"
   class="key"
   aria-label="-" />&#10;	<path
   d="m 323.35059,-6.3476562 q -0.3125,-0.3125 -0.3125,-0.7519532 0,-0.4394531 0.3125,-0.7519531 0.3125,-0.3125 0.75195,-0.3125 0.43945,0 0.74219,0.3125 0.3125,0.3125 0.3125,0.7519531 0,0.4394532 -0.3125,0.7519532 -0.30274,0.3125 -0.74219,0.3125 -0.43945,0 -0.75195,-0.3125 z m 0,5.66406245 q -0.3125,-0.3125 -0.3125,-0.75195315 0,-0.4492187 0.3125,-0.7519531 0.3125,-0.3125 0.75195,-0.3125 0.43945,0 0.74219,0.3125 0.3125,0.3027344 0.3125,0.7519531 0,0.43945315 -0.3125,0.75195315 -0.30274,0.30273437 -0.74219,0.30273437 -0.43945,0 -0.75195,-0.30273437 z"
   id="text94"
   style="font-size:20px;line-height:0%;font-family:'Linux Libertine';text-align:center;text-anchor:middle;fill:#111111;stroke-width:1.25"
   class="key"
   aria-label=":" />&#10;&#10;&#10;</g>&#10;&#10;<g
   transform="translate(101,134)"
   id="g104">&#10;    <path
   d="M 0.92773438,-4.9023437 1.2890625,-7.1972656 H -0.96679688 L -1.3476562,-4.9023437 Z M 2.0507813,-7.1972656 1.6699219,-4.9023437 h 1.9042969 l -0.1464844,1.0644531 h -1.875 L 0.94726563,-0.28320313 H 0.1953125 L 0.73242187,-3.8378906 H -1.5039062 l -0.5859376,3.55468747 H -2.8320313 L -2.265625,-3.8378906 h -1.8652344 l 0.1660156,-1.0644531 h 1.875 l 0.3613282,-2.2949219 h -1.8554688 l 0.15625,-1.0644532 h 1.8554688 l 0.58593747,-3.5742192 h 0.76171875 l -0.60546875,3.5742192 H 1.4550781 L 2.0117188,-11.835938 H 2.7734375 L 2.1875,-8.2617188 h 1.9238281 l -0.15625,1.0644532 z"
   id="text95"
   style="font-size:20px;line-height:0%;font-family:'Linux Libertine';text-align:center;text-anchor:middle;fill:#111111;stroke-width:1.25"
   class="key"
   aria-label="#" />&#10;    <path
   d="M 35.492187,-7.3339844 35.726562,-11.5625 q -0.810546,0.0098 -1.416015,0.634766 -0.595703,0.625 -0.595703,1.4062496 0,1.3085938 1.777343,2.1875 z m 0.625,1.9824219 -0.263671,4.87304687 q 1.09375,-0.009766 1.679687,-0.59570307 0.595703,-0.5957032 0.595703,-1.7089844 0,-1.0644532 -0.537109,-1.6210938 -0.53711,-0.5664062 -1.47461,-0.9472656 z m 2.65625,-6.3476565 q 0.263672,1.298828 0.341797,2.402344 -0.136718,0.1171875 -0.625,0.1171875 -0.292968,-0.9472655 -0.742187,-1.5332035 -0.439453,-0.595703 -1.289063,-0.78125 l -0.253906,4.4726566 q 0.15625,0.058594 0.478516,0.1855469 0.322265,0.1269531 0.449218,0.1757813 2.558594,1.1035156 2.558594,3.2421874 0,0.8789063 -0.46875,1.6894532 -0.46875,0.81054685 -1.269531,1.30859372 -0.898438,0.55664063 -2.138672,0.59570313 l -0.09766,1.68945315 q -0.175781,0.097656 -0.732422,0.097656 l 0.09766,-1.79687498 q -0.585937,-0.0390625 -1.416015,-0.22460937 -0.820313,-0.18554688 -1.357422,-0.18554688 -0.302735,-1.22070307 -0.38086,-2.81249997 0.302735,-0.15625 0.605469,-0.058594 0.517578,2.2949219 2.587891,2.58789065 L 35.404297,-5.625 q -0.185547,-0.068359 -0.332031,-0.1367187 -2.695313,-1.1621094 -2.705079,-3.2617188 0,-1.3964845 0.986329,-2.2558595 0.986328,-0.869141 2.402343,-0.917969 l 0.08789,-1.591797 q 0.263672,-0.09766 0.742187,-0.09766 l -0.08789,1.699219 q 0.693359,0.03906 1.289062,0.244141 0.605469,0.195312 0.986328,0.24414 z"
   id="text96"
   style="font-size:20px;line-height:0%;font-family:'Linux Libertine';text-align:center;text-anchor:middle;fill:#111111;stroke-width:1.25"
   class="key"
   aria-label="$" />&#10;    <path
   d="M 72.454102,4.6386719 H 71.575195 V -13.964844 h 0.878907 z"
   id="text97"
   style="font-size:20px;line-height:0%;font-family:'Linux Libertine';text-align:center;text-anchor:middle;fill:#111111;stroke-width:1.25"
   class="key"
   aria-label="|" />&#10;    <path
   d="m 104.03027,-4.1796875 q 0.19532,-1.015625 0.9375,-1.7871094 0.74219,-0.7714843 1.6211,-0.7714843 0.64453,0 1.5039,0.6347656 0.89844,0.6640625 1.43555,0.6640625 0.51758,0 1.09375,-0.3320313 0.58594,-0.3320312 0.88867,-1.0058593 0.24414,0 0.3418,0.1171875 -0.2832,0.9765625 -0.80078,1.5625 -0.51758,0.5761718 -0.88867,0.7128906 -0.3711,0.1269531 -0.71289,0.1269531 -0.64454,0 -1.51368,-0.6640625 -0.85937,-0.6445312 -1.46484,-0.6347656 -0.53711,0 -1.15234,0.4101562 -0.60547,0.4101563 -0.94727,1.0449219 -0.18555,0 -0.3418,-0.078125 z"
   id="text98"
   style="font-size:20px;line-height:0%;font-family:'Linux Libertine';text-align:center;text-anchor:middle;fill:#111111;stroke-width:1.25"
   class="key"
   aria-label="~" />&#10;&#10;    <path
   d="m 143.64844,-13.984375 1.39648,2.519531 q 0.11719,0.244141 0.11719,0.488281 0,0.07813 -0.0879,0.146485 -0.0879,0.06836 -0.21485,0.06836 -0.15625,0 -0.57617,-0.40039 l -2.27539,-2.177735 0.0391,-0.224609 q 0.61524,-0.458985 1.29883,-0.458985 0.14649,0 0.30274,0.03906 z"
   id="text99"
   style="font-size:20px;line-height:0%;font-family:'Linux Libertine';text-align:center;text-anchor:middle;fill:#111111;stroke-width:1.25"
   class="key"
   aria-label="`" />&#10;    <path
   d="m 179.50195,-8.7011719 q 0,-0.1757812 0.24414,-0.3515625 0.25391,-0.1855469 0.41993,-0.1855469 0.34179,0 0.33203,0.2734375 v 3.4472657 h 3.52539 q 0.2832,0 0.2832,0.3417969 0,0.15625 -0.18555,0.4101562 -0.17578,0.2441406 -0.36132,0.2441406 h -3.26172 v 3.203125 q 0,0.1757813 -0.23438,0.3417969 -0.22461,0.15625 -0.43945,0.15625 -0.32227,0 -0.32227,-0.3027344 v -3.3984375 h -3.49609 q -0.30274,0 -0.30274,-0.3222656 0,-0.2246094 0.15625,-0.4492187 0.16602,-0.2246094 0.3418,-0.2246094 h 3.30078 z"
   id="text100"
   style="font-size:20px;line-height:0%;font-family:'Linux Libertine';text-align:center;text-anchor:middle;fill:#111111;stroke-width:1.25"
   class="key"
   aria-label="+" />&#10;    <path
   d="m 218.29492,-1.6601562 q 0,1.27929682 0.87891,1.27929682 0.76172,0 1.25976,-0.96679682 0.49805,-0.9765626 0.49805,-1.9335938 0,-0.4785156 -0.16602,-0.7617187 -0.15625,-0.2929688 -0.32226,-0.3710938 -0.16602,-0.087891 -0.35156,-0.087891 -0.70313,0 -1.25,0.9570312 -0.54688,0.9472656 -0.54688,1.8847657 z m -1.10351,-0.3027344 q 0,-1.2402344 0.79101,-2.1972656 0.79102,-0.9570313 1.89453,-0.9570313 0.72266,0 1.22071,0.4101563 0.49804,0.4101562 0.49804,1.4062499 0,1.1816407 -0.70312,2.3632813 -0.70313,1.18164063 -1.83594,1.18164063 -0.85937,0 -1.36719,-0.67382813 -0.49804,-0.6738281 -0.49804,-1.5332031 z m -0.28321,-8.4570314 q 0.80078,0 1.68946,-0.253906 0.89843,-0.263672 1.31836,-0.830078 l 0.63476,0.322265 -8.19336,11.42578163 -0.68359,-0.30273438 7.17773,-10.00000025 q -0.95703,0.3808596 -2.13867,0.3808596 -0.87891,0 -1.60156,-0.4199216 0.0586,0.2246091 0.0586,0.4980466 0,1.1621094 -0.71289,2.3535157 -0.70312,1.1816406 -1.8457,1.1816406 -0.85938,0 -1.34766,-0.6640625 -0.48828,-0.6738281 -0.48828,-1.5136719 0,-1.3183594 0.79102,-2.2460935 0.79101,-0.927735 1.86523,-0.927735 0.40039,0 0.79102,0.146485 0.39062,0.146484 0.54687,0.351562 1.07422,0.498047 2.13867,0.498047 z m -5.05859,2.4609376 q 0,0.703125 0.27344,0.9960938 0.27343,0.2832031 0.60547,0.2832031 0.76171,0 1.26953,-0.9570312 0.51757,-0.9667969 0.51757,-1.9433594 0,-1.2207029 -0.85937,-1.2207029 -0.70313,0 -1.25977,0.957031 -0.54687,0.9472656 -0.54687,1.8847656 z"
   id="text101"
   style="font-size:20px;line-height:0%;font-family:'Linux Libertine';text-align:center;text-anchor:middle;fill:#111111;stroke-width:1.25"
   class="key"
   aria-label="%" />&#10;    <path
   d="m 252.9375,-8.5351563 q -0.51758,-3.1835937 -0.51758,-3.3691407 0,-0.361328 0.30274,-0.673828 0.30273,-0.322266 0.72265,-0.322266 0.70313,0 0.69336,0.664063 l -0.6543,3.6132811 z m -2.51953,0.019531 q -0.51758,-3.183594 -0.51758,-3.369141 0,-0.361328 0.29297,-0.673828 0.30273,-0.322265 0.72266,-0.322265 0.70312,0 0.70312,0.664062 l -0.6543,3.6132814 z"
   id="text102"
   style="font-size:20px;line-height:0%;font-family:'Linux Libertine';text-align:center;text-anchor:middle;fill:#111111;stroke-width:1.25"
   class="key"
   aria-label="&quot;" />&#10;    <path
   d="m 287.68262,-8.515625 q -0.51758,-3.183594 -0.51758,-3.369141 0,-0.361328 0.29297,-0.673828 0.30273,-0.322265 0.72265,-0.322265 0.70313,0 0.70313,0.664062 l -0.66406,3.6132814 z"
   id="text103"
   style="font-size:20px;line-height:0%;font-family:'Linux Libertine';text-align:center;text-anchor:middle;fill:#111111;stroke-width:1.25"
   class="key"
   aria-label="'" />&#10;    <path
   d="m 323.35059,-6.3476562 q -0.3125,-0.3125 -0.3125,-0.7519532 0,-0.4394531 0.3125,-0.7519531 0.3125,-0.3125 0.75195,-0.3125 0.43945,0 0.74219,0.3125 0.3125,0.3125 0.3125,0.7519531 0,0.4394532 -0.3125,0.7519532 -0.30274,0.3125 -0.74219,0.3125 -0.43945,0 -0.75195,-0.3125 z m 0.75195,4.4433593 q 0.5957,0 0.95703,0.546875 0.36133,0.5371094 0.36133,1.4355469 0,0.9960937 -0.70313,1.6992187 -0.69336,0.7031251 -1.66015,0.8789063 -0.17578,-0.1757812 -0.17578,-0.4785156 0.72265,-0.1757813 1.24023,-0.7128907 0.51758,-0.5273437 0.51758,-0.88867183 0,-0.53710937 -0.72266,-0.61523437 -0.8789,-0.13671875 -0.8789,-0.87890625 0,-0.41992185 0.30273,-0.70312495 0.30273,-0.2832032 0.76172,-0.2832032 z"
   id="text104"
   style="font-size:20px;line-height:0%;font-family:'Linux Libertine';text-align:center;text-anchor:middle;fill:#111111;stroke-width:1.25"
   class="key"
   aria-label=";" />&#10;</g>&#10;&#10;&#10;<g
   transform="translate(561,26)"
   id="g108">&#10;    <path
   d="m 3.7792969,-6.1816406 h -7.7734375 q -0.3027344,0 -0.3027344,-0.3222656 0,-0.2246094 0.15625,-0.4492188 0.1660156,-0.2246094 0.3417969,-0.2246094 h 7.8417968 q 0.2832032,0 0.2832032,0.3417969 0,0.15625 -0.1855469,0.4101563 -0.1855469,0.2441406 -0.3613281,0.2441406 z m 0,3.3203125 h -7.7734375 q -0.3027344,0 -0.3027344,-0.3222657 0,-0.2246093 0.15625,-0.4492187 0.1660156,-0.2246094 0.3417969,-0.2246094 h 7.8417968 q 0.2832032,0 0.2832032,0.3417969 0,0.15625 -0.1855469,0.4101562 -0.1855469,0.2441407 -0.3613281,0.2441407 z"
   id="text105"
   style="font-size:20px;line-height:0%;font-family:'Linux Libertine';text-align:center;text-anchor:middle;fill:#111111;stroke-width:1.25"
   class="key"
   aria-label="=" />&#10;    <path
   d="m 35.277344,-7.109375 q -0.263672,-0.2636719 -0.263672,-0.625 0,-0.3710938 0.263672,-0.6347656 0.263672,-0.2636719 0.625,-0.2636719 0.371093,0 0.625,0.2636719 0.263672,0.2636718 0.263672,0.6347656 0,0.3613281 -0.263672,0.625 -0.253907,0.2539063 -0.625,0.2539063 -0.361328,0 -0.625,-0.2539063 z m 0,5.3613281 q -0.263672,-0.2636719 -0.263672,-0.625 0,-0.3710937 0.263672,-0.6347656 0.263672,-0.2636719 0.625,-0.2636719 0.371093,0 0.625,0.2636719 0.263672,0.2636719 0.263672,0.6347656 0,0.3613281 -0.263672,0.625 -0.253907,0.2539063 -0.625,0.2539063 -0.361328,0 -0.625,-0.2539063 z m 4.482422,-2.7734375 h -7.753907 q -0.302734,0 -0.302734,-0.3222656 0,-0.2246094 0.15625,-0.4492187 0.166016,-0.2246094 0.341797,-0.2246094 h 7.822265 q 0.283204,0 0.283204,0.3417969 0,0.15625 -0.185547,0.4101562 -0.185547,0.2441406 -0.361328,0.2441406 z"
   id="text106"
   style="font-size:20px;line-height:0%;font-family:'Linux Libertine';text-align:center;text-anchor:middle;fill:#111111;stroke-width:1.25"
   class="key"
   aria-label="÷" />&#10;    <path
   d="M 72.751953,-4.3066406 Q 72.419922,-3.984375 72,-3.984375 q -0.419922,0 -0.751953,-0.3222656 -0.332031,-0.3320313 -0.332031,-0.7519531 0,-0.4199219 0.332031,-0.7519532 Q 71.580078,-6.1425781 72,-6.1425781 q 0.419922,0 0.751953,0.3320312 0.332031,0.3320313 0.332031,0.7519532 0,0.4199218 -0.332031,0.7519531 z"
   id="text107"
   style="font-size:20px;line-height:0%;font-family:'Linux Libertine';text-align:center;text-anchor:middle;fill:#111111;stroke-width:1.25"
   class="key"
   aria-label="⋅" />&#10;    <path
   d="m 111.75977,-4.5214844 h -7.75391 q -0.30273,0 -0.30273,-0.3222656 0,-0.2246094 0.15625,-0.4492187 0.16601,-0.2246094 0.34179,-0.2246094 h 7.82227 q 0.2832,0 0.2832,0.3417969 0,0.15625 -0.18555,0.4101562 -0.18554,0.2441406 -0.36132,0.2441406 z"
   id="text108"
   style="font-size:20px;line-height:0%;font-family:'Linux Libertine';text-align:center;text-anchor:middle;fill:#111111;stroke-width:1.25"
   class="key"
   aria-label="−" />&#10;</g>&#10;<g
   transform="translate(561,62)"
   id="g111">&#10;    <path
   d="m -0.5078125,-12.216797 q -0.9570312,0.742188 -1.484375,1.074219 -0.8984375,0.576172 -1.6601563,0.917969 v -0.771485 q 1.3769532,-1.220703 2.2265626,-2.363281 0.85937495,-1.142578 1.1523437,-1.962891 h 0.46875 q 0.49804687,1.181641 1.2597656,2.060547 1.6796875,1.855469 2.1972657,2.285156 v 0.800782 Q 1.5332031,-11.191406 0.52734375,-12.216797 V 1.6015625 Q 1.5917969,0.53710937 3.671875,-0.43945313 V 0.36132813 Q 3.1542969,0.78125 1.4746094,2.6367188 0.71289062,3.4570313 0.21484375,4.6972656 H -0.24414063 Q -0.5078125,3.9550781 -1.40625,2.7441406 -2.265625,1.5820312 -3.6523438,0.38085938 v -0.78125001 q 0.7421875,0.32226563 1.6796876,0.91796875 0.5566406,0.36132813 1.4648437,1.08398438 z"
   id="text109"
   style="font-size:20px;line-height:0%;font-family:'Linux Libertine';text-align:center;text-anchor:middle;fill:#111111;stroke-width:1.25"
   class="key"
   aria-label="↕" />&#10;    <path
   d="m 39.686523,-11.337891 v 0.761719 q -1.660156,-0.703125 -3.134765,-2.226562 V 4.5996094 H 35.506836 V -12.802734 q -1.064453,1.298828 -3.134766,2.265625 v -0.800782 q 0.03906,0 0.673828,-0.595703 0.644532,-0.605469 1.513672,-1.679687 0.869141,-1.083985 1.269532,-2.050782 h 0.458984 q 0.654297,1.884766 3.398437,4.326172 z"
   id="text110"
   style="font-size:20px;line-height:0%;font-family:'Linux Libertine';text-align:center;text-anchor:middle;fill:#111111;stroke-width:1.25"
   class="key"
   aria-label="↑" />&#10;    <path
   d="m 66.672852,-1.3964844 q 0.419921,0.58593752 0.996093,1.06445315 0.449219,0.37109375 0.996094,0.68359375 0,0 -0.478516,1.0351562 -0.683593,-0.39062495 -1.240234,-0.85937495 -0.732422,-0.59570312 -1.25,-1.31835937 z m 8.652343,1.7480469 q 0.546875,-0.3125 0.996094,-0.68359375 0.507813,-0.4296875 0.996094,-1.06445315 0,0 0.976562,0.59570315 -0.576172,0.76171875 -1.25,1.328125 -0.55664,0.46875 -1.25,0.85937495 z m 1.992188,-9.3457031 q -0.429688,-0.5859375 -0.996094,-1.0644534 -0.449219,-0.371094 -0.996094,-0.683594 0,0 0.46875,-1.035156 0.69336,0.390625 1.25,0.859375 0.722657,0.595703 1.25,1.3183596 z m -8.652344,-1.7480474 q -0.546875,0.3125 -0.996094,0.683594 -0.576172,0.4785159 -0.996093,1.0644534 0,0 -0.976563,-0.6054688 0.478516,-0.6738286 1.25,-1.3183596 0.556641,-0.46875 1.240234,-0.859375 z m 1.835938,11.8945317 q 0.742187,0.2148438 1.49414,0.2148438 0.751953,0 1.494141,-0.2148438 0,0 0.371094,1.0742188 -0.927735,0.2636719 -1.865235,0.2636719 -0.9375,0 -1.875,-0.2636719 z m 7.841796,-4.8535156 q 0.15625,-0.7128906 0.15625,-1.4941406 0,-0.78125 -0.15625,-1.4941406 0,0 1.074219,-0.3808594 0.195313,0.8886719 0.195313,1.875 0,0.9863281 -0.195313,1.875 z m -4.853515,-7.8417971 q -0.742188,-0.214844 -1.494141,-0.214844 -0.751953,0 -1.49414,0.214844 0,0 -0.38086,-1.074219 0.9375,-0.263671 1.875,-0.263671 0.9375,0 1.865235,0.263671 z m -7.832031,4.8535159 q -0.15625,0.7128906 -0.15625,1.4941406 0,0.78125 0.15625,1.4941406 0,0 -1.074219,0.3808594 -0.195313,-0.8886719 -0.195313,-1.875 0,-0.9863281 0.195313,-1.875 z m 5.664062,-6.0156249 v -0.976563 h 7.236328 l -1.289062,-1.513672 h 1.230468 l 1.708985,2.001954 -1.708985,2.001953 h -1.230468 l 1.289062,-1.513672 z"
   id="text111"
   style="font-size:20px;line-height:0%;font-family:'Linux Libertine';text-align:center;text-anchor:middle;fill:#111111;stroke-width:1.25"
   class="key"
   aria-label="⃗" />&#10;</g>&#10;<g
   transform="translate(561,98)"
   id="g114">&#10;    <path
   d="m -5.8007812,-8.9648438 h 0.7617187 q -0.703125,1.6601563 -2.2167969,3.1445313 H 10.136719 v 1.0449219 H -7.2558594 Q -5.9570312,-3.7109375 -5,-1.640625 h -0.8007812 q 0,-0.039063 -0.6054688,-0.6738281 -0.5957031,-0.6445313 -1.6796875,-1.5136719 -1.0742188,-0.8691406 -2.0312505,-1.2695312 v -0.4589844 q 1.8750005,-0.6640625 4.3164068,-3.4082032 z"
   id="text112"
   style="font-size:20px;line-height:0%;font-family:'Linux Libertine';text-align:center;text-anchor:middle;fill:#111111;stroke-width:1.25"
   class="key"
   aria-label="←" />&#10;    <path
   d="m 35.350586,-6.3476562 q -0.3125,-0.3125 -0.3125,-0.7519532 0,-0.4394531 0.3125,-0.7519531 0.3125,-0.3125 0.751953,-0.3125 0.439453,0 0.742188,0.3125 0.3125,0.3125 0.3125,0.7519531 0,0.4394532 -0.3125,0.7519532 -0.302735,0.3125 -0.742188,0.3125 -0.439453,0 -0.751953,-0.3125 z m 0,5.66406245 q -0.3125,-0.3125 -0.3125,-0.75195315 0,-0.4492187 0.3125,-0.7519531 0.3125,-0.3125 0.751953,-0.3125 0.439453,0 0.742188,0.3125 0.3125,0.3027344 0.3125,0.7519531 0,0.43945315 -0.3125,0.75195315 -0.302735,0.30273437 -0.742188,0.30273437 -0.439453,0 -0.751953,-0.30273437 z"
   id="text113"
   style="font-size:20px;line-height:0%;font-family:'Linux Libertine';text-align:center;text-anchor:middle;fill:#111111;stroke-width:1.25"
   class="key"
   aria-label=":" />&#10;    <path
   d="m 77.820312,-1.640625 h -0.761718 q 0.703125,-1.6601563 2.226562,-3.1347656 H 61.882812 v -1.0449219 h 17.402344 q -1.298828,-1.0644531 -2.265625,-3.1445313 h 0.800781 q 0,0.039063 0.595704,0.6835938 0.605468,0.6445313 1.679687,1.5136719 1.083984,0.8691406 2.041016,1.2695312 v 0.4589844 q -1.875,0.6542969 -4.316407,3.3984375 z"
   id="text114"
   style="font-size:20px;line-height:0%;font-family:'Linux Libertine';text-align:center;text-anchor:middle;fill:#111111;stroke-width:1.25"
   class="key"
   aria-label="→" />&#10;</g>&#10;<g
   transform="translate(561,134)"
   id="g117">&#10;    <path
   d="M 6.9238281,-5.8203125 Q 6.1816406,-6.7773437 5.8398437,-7.3046875 5.2636719,-8.203125 4.921875,-8.9648438 h 0.78125 q 1.2207031,1.3769532 2.3632813,2.2265626 1.1425781,0.859375 1.9531247,1.1621093 v 0.4589844 Q 8.8378906,-4.6191406 7.9589844,-3.8574219 6.1035156,-2.1777344 5.6835937,-1.6601562 H 4.8828125 q 1.015625,-2.1191407 2.0410156,-3.1152344 H -6.8945312 q 1.0644531,1.0644531 2.0410156,3.1347656 H -5.6542969 Q -6.0742187,-2.1582031 -7.9394531,-3.8378906 -8.7597656,-4.5996094 -10,-5.0976562 V -5.5566406 Q -9.2578125,-5.8203125 -8.0371094,-6.71875 -6.875,-7.578125 -5.6738281,-8.9648438 h 0.78125 q -0.3222656,0.7421875 -0.9277344,1.6894532 -0.3613281,0.5566406 -1.0742187,1.4550781 z"
   id="text115"
   style="font-size:20px;line-height:0%;font-family:'Linux Libertine';text-align:center;text-anchor:middle;fill:#111111;stroke-width:1.25"
   class="key"
   aria-label="↔" />&#10;    <path
   d="M 32.357422,0.26367188 V -0.49804688 Q 34.017578,0.20507813 35.501953,1.71875 v -17.402344 h 1.035156 V 1.71875 q 1.064453,-1.29882812 3.144532,-2.25585937 v 0.80078125 q -0.03906,0 -0.683594,0.59570312 Q 38.363281,1.4648437 37.494141,2.5390625 36.625,3.6230469 36.224609,4.5800781 h -0.458984 q -0.664063,-1.875 -3.408203,-4.31640622 z"
   id="text116"
   style="font-size:20px;line-height:0%;font-family:'Linux Libertine';text-align:center;text-anchor:middle;fill:#111111;stroke-width:1.25"
   class="key"
   aria-label="↓" />&#10;    <path
   d="M 81.667969,-7.9394531 H 62.3125 V -8.984375 h 16.337891 q -0.996094,-1.064453 -2.021485,-3.154297 h 0.800781 q 1.31836,1.474609 2.285157,2.216797 0.878906,0.7421875 1.953125,1.2597656 z m -19.316407,2.1191406 h 19.355469 v 1.0449219 h -16.33789 q 0.996093,1.0644531 2.021484,3.1542969 h -0.800781 q -1.31836,-1.4746094 -2.275391,-2.2167969 -0.878906,-0.7421875 -1.962891,-1.2597656 z"
   id="text117"
   style="font-size:20px;line-height:0%;font-family:'Linux Libertine';text-align:center;text-anchor:middle;fill:#111111;stroke-width:1.25"
   class="key"
   aria-label="⇌" />&#10;</g>&#10;<g
   transform="translate(561,170)"
   id="g119">&#10;    <path
   d="m 20.294922,-1.6601562 q 0,1.27929682 0.878906,1.27929682 0.761719,0 1.259766,-0.96679682 0.498047,-0.9765626 0.498047,-1.9335938 0,-0.4785156 -0.166016,-0.7617187 -0.15625,-0.2929688 -0.322266,-0.3710938 -0.166015,-0.087891 -0.351562,-0.087891 -0.703125,0 -1.25,0.9570312 -0.546875,0.9472656 -0.546875,1.8847657 z m -1.103516,-0.3027344 q 0,-1.2402344 0.791016,-2.1972656 0.791015,-0.9570313 1.894531,-0.9570313 0.722656,0 1.220703,0.4101563 0.498047,0.4101562 0.498047,1.4062499 0,1.1816407 -0.703125,2.3632813 -0.703125,1.18164063 -1.835937,1.18164063 -0.859375,0 -1.367188,-0.67382813 -0.498047,-0.6738281 -0.498047,-1.5332031 z m -0.283203,-8.4570314 q 0.800781,0 1.689453,-0.253906 0.898438,-0.263672 1.31836,-0.830078 l 0.634765,0.322265 -8.193359,11.42578163 -0.683594,-0.30273438 7.177734,-10.00000025 q -0.957031,0.3808596 -2.138671,0.3808596 -0.878907,0 -1.601563,-0.4199216 0.05859,0.2246091 0.05859,0.4980466 0,1.1621094 -0.712891,2.3535157 -0.703125,1.1816406 -1.845703,1.1816406 -0.859375,0 -1.347656,-0.6640625 -0.488281,-0.6738281 -0.488281,-1.5136719 0,-1.3183594 0.791015,-2.2460935 0.791016,-0.927735 1.865235,-0.927735 0.40039,0 0.791015,0.146485 0.390625,0.146484 0.546875,0.351562 1.074219,0.498047 2.138672,0.498047 z m -5.058594,2.4609376 q 0,0.703125 0.273438,0.9960938 0.273437,0.2832031 0.605469,0.2832031 0.761718,0 1.269531,-0.9570312 0.517578,-0.9667969 0.517578,-1.9433594 0,-1.2207029 -0.859375,-1.2207029 -0.703125,0 -1.259766,0.957031 -0.546875,0.9472656 -0.546875,1.8847656 z"
   id="text118"
   style="font-size:20px;line-height:0%;font-family:'Linux Libertine';text-align:center;text-anchor:middle;fill:#111111;stroke-width:1.25"
   class="key"
   aria-label="%" />&#10;    <path
   d="m 71.882812,-1.9042969 q 0.595704,0 0.957032,0.546875 0.361328,0.5371094 0.361328,1.4355469 0,0.9960937 -0.703125,1.6992187 Q 71.804687,2.4804688 70.837891,2.65625 70.662109,2.4804688 70.662109,2.1777344 71.384766,2.0019531 71.902344,1.4648437 72.419922,0.9375 72.419922,0.57617187 q 0,-0.53710937 -0.712891,-0.61523437 -0.878906,-0.13671875 -0.888672,-0.87890625 0,-0.41992185 0.302735,-0.70312495 0.302734,-0.2832032 0.761718,-0.2832032 z"
   id="text119"
   style="font-size:20px;line-height:0%;font-family:'Linux Libertine';text-align:center;text-anchor:middle;fill:#111111;stroke-width:1.25"
   class="key"
   aria-label="," />&#10;</g>&#10;&#10;<g
   transform="translate(561,78)"
   id="g120">&#10;    <path
   d="m 107.50195,-10.400391 q 0,-0.175781 0.24414,-0.351562 0.25391,-0.185547 0.41993,-0.185547 0.34179,0 0.33203,0.273437 v 3.4472661 h 3.52539 q 0.2832,0 0.2832,0.3320313 0,0.15625 -0.18555,0.4101562 -0.17578,0.2539063 -0.36132,0.2539063 h -3.26172 v 3.203125 q 0,0.1757812 -0.23438,0.3417968 -0.22461,0.15625 -0.43945,0.15625 -0.32227,0 -0.32227,-0.3027343 v -3.3984375 h -3.49609 q -0.30273,0 -0.30273,-0.3222656 0,-0.2246094 0.15625,-0.4492188 0.16601,-0.2246094 0.34179,-0.2246094 h 3.30078 z m 4.25782,9.6582035 h -7.75391 q -0.30273,0 -0.30273,-0.3222656 0,-0.2246094 0.15625,-0.4492188 0.16601,-0.2246093 0.34179,-0.2246093 h 7.82227 q 0.2832,0 0.2832,0.3417968 0,0.15625 -0.18555,0.41015627 -0.18554,0.24414063 -0.36132,0.24414063 z"
   id="text120"
   style="font-size:20px;line-height:0%;font-family:'Linux Libertine';text-align:center;text-anchor:middle;fill:#111111;stroke-width:1.25"
   class="key"
   aria-label="±" />&#10;</g>&#10;<g
   transform="translate(561,150)"
   id="g121">&#10;    <path
   d="m 105.11914,-1.3085937 -4.96094,-4.9609375 4.96094,-4.9609378 v 2.6660159 h 5.53711 v -6.0156249 h 4.58984 l -0.01,10.6054686 h -10.11719 z m -0.97656,-6.2792969 v -1.2792969 l -2.59766,2.5976563 2.59766,2.5976562 v -1.2792969 h 10.11719 l 0.01,-8.6523441 h -2.63672 l -0.01,6.0156254 z"
   id="text121"
   style="font-size:20px;line-height:0%;font-family:'Linux Libertine';text-align:center;text-anchor:middle;fill:#111111;stroke-width:1.25"
   class="key"
   aria-label="⏎" />&#10;</g>&#10;&#10;<path
   d="m 21.240234,26.292969 q -1.826172,0 -3.21289,-0.830078 -1.386719,-0.839844 -2.167969,-2.304688 -0.771484,-1.464844 -0.771484,-3.349609 0,-0.78125 0.15625,-1.689453 0.166015,-0.908204 0.722656,-1.94336 L 16.875,16.634766 q -0.478516,0.927734 -0.625,1.708984 -0.136719,0.78125 -0.136719,1.474609 0,1.621094 0.644531,2.851563 0.654297,1.220703 1.806641,1.904297 1.162109,0.683593 2.675781,0.683593 1.484375,0 2.56836,-0.673828 1.09375,-0.673828 1.689453,-1.884765 0.605469,-1.210938 0.605469,-2.8125 0,-0.566407 -0.09766,-1.064453 l 0.986328,-0.244141 q 0.136719,0.703125 0.136719,1.386719 0,1.835937 -0.732422,3.271484 -0.732422,1.425781 -2.060547,2.246094 -1.318359,0.810547 -3.095703,0.810547 z m -3.222656,-6.064453 -1.474609,-3.457032 -0.410157,-0.166015 -3.388671,1.582031 -0.458985,-0.947266 4.638672,-2.11914 2.050781,4.667968 z"
   id="t1"
   style="font-size:20px;line-height:0%;font-family:'Gentium Plus Compact';text-align:center;text-anchor:middle;fill:#111111"
   class="dead"
   aria-label="↻" />&#10;<path
   d="m 450.88672,17.640625 q 0.0391,0.07813 0.0391,0.185547 0,0.185547 -0.12695,0.332031 -0.11719,0.136719 -0.3125,0.136719 -0.18555,0 -0.3418,-0.126953 -0.14648,-0.136719 -0.14648,-0.341797 0,-0.175781 0.13672,-0.322266 0.14648,-0.146484 0.34179,-0.146484 0.29297,0 0.41016,0.283203 z m 3.07617,7.412109 q 0.0391,0.117188 0.0391,0.175782 0,0.175781 -0.13672,0.322265 -0.13671,0.146485 -0.33203,0.146485 -0.17578,0 -0.32226,-0.136719 -0.14649,-0.136719 -0.14649,-0.341797 0,-0.166016 0.12696,-0.3125 0.12695,-0.146484 0.3125,-0.146484 0.3125,0 0.45898,0.292968 z m -4.48242,-6.689453 q 0.14648,0.126953 0.14648,0.322266 0,0.46875 -0.45898,0.46875 -0.19531,0 -0.33203,-0.126953 -0.13672,-0.136719 -0.13672,-0.322266 0,-0.195312 0.13672,-0.332031 0.13672,-0.146485 0.32226,-0.146485 0.18555,0 0.32227,0.136719 z m 5.68359,5.664063 q 0.13672,0.136718 0.13672,0.332031 0,0.185547 -0.13672,0.322266 -0.12695,0.136718 -0.33203,0.136718 -0.19531,0 -0.33203,-0.136718 -0.13672,-0.136719 -0.13672,-0.322266 0,-0.195313 0.12695,-0.322266 0.13672,-0.136718 0.32227,-0.136718 0.19531,0 0.35156,0.126953 z m -6.69922,-4.462891 q 0.30274,0.126953 0.30274,0.449219 0,0.185547 -0.15625,0.322265 -0.14649,0.126954 -0.32227,0.126954 -0.20508,0 -0.33203,-0.146485 -0.12695,-0.146484 -0.12695,-0.322265 0,-0.195313 0.13672,-0.332032 0.14648,-0.136718 0.32226,-0.136718 0.0586,0 0.17578,0.03906 z m 7.41211,3.066406 q 0.29297,0.126953 0.29297,0.429688 0,0.195312 -0.14648,0.332031 -0.13672,0.126953 -0.32227,0.126953 -0.21484,0 -0.3418,-0.136719 -0.12695,-0.146484 -0.12695,-0.322265 0,-0.22461 0.14649,-0.341797 0.15625,-0.117188 0.33203,-0.117188 0.0976,0 0.16601,0.0293 z m -7.89062,-1.5625 q 0.18554,0 0.33203,0.136719 0.14648,0.126953 0.14648,0.3125 0,0.195313 -0.14648,0.341797 -0.14649,0.136719 -0.32227,0.136719 h -0.0195 q -0.18554,0 -0.32226,-0.136719 -0.12696,-0.146484 -0.12696,-0.332031 0,-0.195313 0.12696,-0.322266 0.13672,-0.136719 0.33203,-0.136719 z m 8.01758,-0.0098 q 0.19531,0 0.33203,0.136718 0.13672,0.136719 0.13672,0.332032 0,0.185547 -0.13672,0.322265 -0.12696,0.136719 -0.32227,0.136719 h -0.0391 q -0.17578,0 -0.3125,-0.136719 -0.12695,-0.136718 -0.12695,-0.3125 0,-0.195312 0.14648,-0.332031 0.14648,-0.136719 0.32227,-0.146484 z m -7.89063,1.582031 q 0.0781,-0.03906 0.18555,-0.03906 0.19531,0 0.33203,0.126954 0.13672,0.126953 0.13672,0.322265 0,0.185547 -0.13672,0.332031 -0.13672,0.146485 -0.33203,0.146485 -0.18555,0 -0.33203,-0.136719 -0.13672,-0.146484 -0.13672,-0.341797 0,-0.302734 0.2832,-0.410156 z m 7.41211,-3.076172 q 0.11719,-0.03906 0.17578,-0.03906 0.17578,0 0.32227,0.136718 0.14648,0.136719 0.14648,0.332032 0,0.175781 -0.13672,0.322265 -0.13672,0.146485 -0.34179,0.146485 -0.17579,0 -0.3125,-0.136719 -0.13672,-0.136719 -0.13672,-0.322266 0,-0.3125 0.2832,-0.439453 z m -6.68945,4.482422 q 0.14648,-0.146484 0.3125,-0.146484 0.20508,0 0.34179,0.136718 0.13672,0.126953 0.13672,0.322266 0,0.185547 -0.13672,0.332031 -0.12695,0.136719 -0.32226,0.136719 -0.18555,0 -0.33203,-0.136719 -0.13672,-0.146484 -0.13672,-0.332031 0,-0.175781 0.13672,-0.3125 z M 454.5,18.363281 q 0.15625,-0.136719 0.33203,-0.136719 0.19531,0 0.32227,0.136719 0.13672,0.136719 0.13672,0.332031 0,0.185547 -0.13672,0.332032 -0.12696,0.136718 -0.32227,0.136718 -0.18555,0 -0.32226,-0.146484 -0.13672,-0.146484 -0.13672,-0.322266 0,-0.185546 0.12695,-0.332031 z m -4.46289,6.699219 q 0.0586,-0.136719 0.18555,-0.214844 0.13671,-0.07813 0.2539,-0.07813 0.19531,0 0.32227,0.146485 0.13672,0.146484 0.13672,0.322265 0,0.195313 -0.14649,0.332031 -0.14648,0.126954 -0.32226,0.126954 -0.18555,0 -0.33203,-0.146485 -0.13672,-0.146484 -0.13672,-0.3125 0,-0.05859 0.0391,-0.175781 z m 3.06641,-7.412109 q 0.12695,-0.292969 0.42968,-0.292969 0.19532,0 0.33203,0.146484 0.13672,0.146485 0.13672,0.332031 0,0.195313 -0.14648,0.332032 -0.14649,0.126953 -0.32227,0.126953 -0.19531,0 -0.33203,-0.146485 -0.12695,-0.15625 -0.12695,-0.332031 0,-0.07813 0.0293,-0.166015 z m -1.5625,7.890625 q 0,-0.195313 0.13671,-0.332032 0.13672,-0.136718 0.32227,-0.136718 0.19531,0 0.33203,0.136718 0.13672,0.136719 0.13672,0.332032 0,0.185546 -0.13672,0.322265 Q 452.19531,26 452,26 q -0.18555,0 -0.32227,-0.136719 -0.13671,-0.136719 -0.13671,-0.322265 z m 0,-8.017579 q 0,-0.195312 0.13671,-0.332031 0.13672,-0.136719 0.32227,-0.136719 0.19531,0 0.33203,0.136719 0.13672,0.136719 0.13672,0.332031 0,0.185547 -0.13672,0.322266 -0.13672,0.136719 -0.33203,0.136719 -0.18555,0 -0.32227,-0.136719 -0.13671,-0.136719 -0.13671,-0.322266 z m 2.27539,-4.062499 q 0,0.654296 -0.32227,1.171875 -0.32227,0.517578 -0.81055,0.820312 -0.49804,0.292969 -0.98632,0.292969 -0.6543,0 -1.08399,-0.439453 -0.42969,-0.449219 -0.42969,-1.064453 0,-0.673829 0.32227,-1.191407 0.32226,-0.517578 0.81055,-0.810547 0.48828,-0.302734 0.98632,-0.302734 0.63477,0 1.07422,0.458984 0.43946,0.449219 0.43946,1.064454 z m -0.87891,0.40039 q 0,-0.46875 -0.22461,-0.820312 -0.22461,-0.361328 -0.61523,-0.361328 -0.40039,0 -0.71289,0.322265 -0.32227,0.3125 -0.32227,0.839844 0,0.449219 0.22461,0.810547 0.22461,0.351562 0.61523,0.351562 0.39063,0 0.71289,-0.292968 0.32227,-0.292969 0.32227,-0.84961 z"
   id="t2"
   style="font-size:20px;line-height:0%;font-family:'Gentium Plus Compact';text-align:center;text-anchor:middle;fill:#111111"
   class="dead"
   aria-label="◌̊" />&#10;&#10;<path
   d="m 478.88672,89.640625 q 0.0391,0.07813 0.0391,0.185547 0,0.185547 -0.12695,0.332031 -0.11719,0.136719 -0.3125,0.136719 -0.18555,0 -0.3418,-0.126953 -0.14648,-0.136719 -0.14648,-0.341797 0,-0.175781 0.13672,-0.322266 0.14648,-0.146484 0.34179,-0.146484 0.29297,0 0.41016,0.283203 z m 3.07617,7.412109 q 0.0391,0.117188 0.0391,0.175782 0,0.175781 -0.13672,0.322265 -0.13671,0.146485 -0.33203,0.146485 -0.17578,0 -0.32226,-0.136719 -0.14649,-0.136719 -0.14649,-0.341797 0,-0.166016 0.12696,-0.3125 0.12695,-0.146484 0.3125,-0.146484 0.3125,0 0.45898,0.292968 z m -4.48242,-6.689453 q 0.14648,0.126953 0.14648,0.322266 0,0.46875 -0.45898,0.46875 -0.19531,0 -0.33203,-0.126953 -0.13672,-0.136719 -0.13672,-0.322266 0,-0.195312 0.13672,-0.332031 0.13672,-0.146485 0.32226,-0.146485 0.18555,0 0.32227,0.136719 z m 5.68359,5.664063 q 0.13672,0.136718 0.13672,0.332031 0,0.185547 -0.13672,0.322266 -0.12695,0.136718 -0.33203,0.136718 -0.19531,0 -0.33203,-0.136718 -0.13672,-0.136719 -0.13672,-0.322266 0,-0.195313 0.12695,-0.322266 0.13672,-0.136718 0.32227,-0.136718 0.19531,0 0.35156,0.126953 z m -6.69922,-4.462891 q 0.30274,0.126953 0.30274,0.449219 0,0.185547 -0.15625,0.322265 -0.14649,0.126954 -0.32227,0.126954 -0.20508,0 -0.33203,-0.146485 -0.12695,-0.146484 -0.12695,-0.322265 0,-0.195313 0.13672,-0.332032 0.14648,-0.136718 0.32226,-0.136718 0.0586,0 0.17578,0.03906 z m 7.41211,3.066406 q 0.29297,0.126953 0.29297,0.429688 0,0.195312 -0.14648,0.332031 -0.13672,0.126953 -0.32227,0.126953 -0.21484,0 -0.3418,-0.136719 -0.12695,-0.146484 -0.12695,-0.322265 0,-0.22461 0.14649,-0.341797 0.15625,-0.117188 0.33203,-0.117188 0.0976,0 0.16601,0.0293 z m -7.89062,-1.5625 q 0.18554,0 0.33203,0.136719 0.14648,0.126953 0.14648,0.3125 0,0.195313 -0.14648,0.341797 -0.14649,0.136719 -0.32227,0.136719 h -0.0195 q -0.18554,0 -0.32226,-0.136719 -0.12696,-0.146484 -0.12696,-0.332031 0,-0.195313 0.12696,-0.322266 0.13672,-0.136719 0.33203,-0.136719 z m 8.01758,-0.0098 q 0.19531,0 0.33203,0.136718 0.13672,0.136719 0.13672,0.332032 0,0.185547 -0.13672,0.322265 -0.12696,0.136719 -0.32227,0.136719 h -0.0391 q -0.17578,0 -0.3125,-0.136719 -0.12695,-0.136718 -0.12695,-0.3125 0,-0.195312 0.14648,-0.332031 0.14648,-0.136719 0.32227,-0.146484 z m -7.89063,1.582031 q 0.0781,-0.03906 0.18555,-0.03906 0.19531,0 0.33203,0.126954 0.13672,0.126953 0.13672,0.322265 0,0.185547 -0.13672,0.332031 -0.13672,0.146485 -0.33203,0.146485 -0.18555,0 -0.33203,-0.136719 -0.13672,-0.146484 -0.13672,-0.341797 0,-0.302734 0.2832,-0.410156 z m 7.41211,-3.076172 q 0.11719,-0.03906 0.17578,-0.03906 0.17578,0 0.32227,0.136718 0.14648,0.136719 0.14648,0.332032 0,0.175781 -0.13672,0.322265 -0.13672,0.146485 -0.34179,0.146485 -0.17579,0 -0.3125,-0.136719 -0.13672,-0.136719 -0.13672,-0.322266 0,-0.3125 0.2832,-0.439453 z m -6.68945,4.482422 q 0.14648,-0.146484 0.3125,-0.146484 0.20508,0 0.34179,0.136718 0.13672,0.126953 0.13672,0.322266 0,0.185547 -0.13672,0.332031 -0.12695,0.136719 -0.32226,0.136719 -0.18555,0 -0.33203,-0.136719 -0.13672,-0.146484 -0.13672,-0.332031 0,-0.175781 0.13672,-0.3125 z M 482.5,90.363281 q 0.15625,-0.136719 0.33203,-0.136719 0.19531,0 0.32227,0.136719 0.13672,0.136719 0.13672,0.332031 0,0.185547 -0.13672,0.332032 -0.12696,0.136718 -0.32227,0.136718 -0.18555,0 -0.32226,-0.146484 -0.13672,-0.146484 -0.13672,-0.322266 0,-0.185546 0.12695,-0.332031 z m -4.46289,6.699219 q 0.0586,-0.136719 0.18555,-0.214844 0.13671,-0.07813 0.2539,-0.07813 0.19531,0 0.32227,0.146485 0.13672,0.146484 0.13672,0.322265 0,0.195313 -0.14649,0.332031 -0.14648,0.126954 -0.32226,0.126954 -0.18555,0 -0.33203,-0.146485 -0.13672,-0.146484 -0.13672,-0.3125 0,-0.05859 0.0391,-0.175781 z m 3.06641,-7.412109 q 0.12695,-0.292969 0.42968,-0.292969 0.19532,0 0.33203,0.146484 0.13672,0.146485 0.13672,0.332031 0,0.195313 -0.14648,0.332032 -0.14649,0.126953 -0.32227,0.126953 -0.19531,0 -0.33203,-0.146485 -0.12695,-0.15625 -0.12695,-0.332031 0,-0.07813 0.0293,-0.166015 z m -1.5625,7.890625 q 0,-0.195313 0.13671,-0.332032 0.13672,-0.136718 0.32227,-0.136718 0.19531,0 0.33203,0.136718 0.13672,0.136719 0.13672,0.332032 0,0.185546 -0.13672,0.322265 Q 480.19531,98 480,98 q -0.18555,0 -0.32227,-0.136719 -0.13671,-0.136719 -0.13671,-0.322265 z m 0,-8.017579 q 0,-0.195312 0.13671,-0.332031 0.13672,-0.136719 0.32227,-0.136719 0.19531,0 0.33203,0.136719 0.13672,0.136719 0.13672,0.332031 0,0.185547 -0.13672,0.322266 -0.13672,0.136719 -0.33203,0.136719 -0.18555,0 -0.32227,-0.136719 -0.13671,-0.136719 -0.13671,-0.322266 z m 4.92187,-3.720703 -7.14844,14.677736 q -0.15625,0.16601 -0.49804,0.46875 -0.3418,0.3125 -0.56641,0.43945 l -0.3418,-0.26367 7.15821,-14.6875 q 0.22461,-0.214844 0.50781,-0.488281 0.2832,-0.283203 0.52734,-0.400391 z"
   id="t3"
   style="font-size:20px;line-height:0%;font-family:'Gentium Plus Compact';text-align:center;text-anchor:middle;fill:#111111"
   class="dead"
   aria-label="◌̸" />&#10;<path
   d="m 470.53223,59.558594 q 0,1.220703 0.26367,1.503906 0.26367,0.273437 1.31836,0.322266 0.0976,0.09766 0.0976,0.341796 0,0.234375 -0.0976,0.3125 Q 470.39551,62 469.75098,62 q -0.41993,0 -2.09961,0.03906 -0.0781,-0.07813 -0.0781,-0.3125 0,-0.24414 0.0781,-0.341796 0.83984,-0.03906 1.06445,-0.332032 0.23438,-0.292968 0.23438,-1.49414 v -5.136719 q 0,-0.195313 -0.0488,-0.253906 -0.0488,-0.06836 -0.24414,-0.06836 h -0.87891 q -0.0977,0 -0.10742,-0.09766 v -0.185547 q 0,-0.40039 0.45898,-0.40039 0.82032,0 0.82032,-0.957032 0,-2.177734 0.95703,-3.300781 0.96679,-1.123047 2.14843,-1.123047 0.9961,0 1.66016,0.605469 0.51758,0.458984 0.51758,0.917969 0,0.302734 -0.17578,0.537109 -0.16602,0.224609 -0.52735,0.224609 -0.76172,0 -0.91797,-0.820312 -0.15625,-0.78125 -0.69335,-0.78125 -0.76172,0 -1.07422,0.957031 -0.3125,0.947266 -0.3125,2.841797 z"
   id="text122"
   style="font-size:20px;line-height:0%;font-family:'Linux Libertine';text-align:center;text-anchor:middle;fill:#111111;stroke-width:1.25"
   class="key"
   aria-label="ſ" />&#10;&#10;</svg>
