<?xml version="1.0" encoding="UTF-8" standalone="no"?>
<svg
   version="1.1"
   id="Ebene_1"
   height="183"
   width="535"
   viewBox="0 0 535 183"
   enable-background="new 0 0 535 183"
   xml:space="preserve"
   inkscape:version="0.48.5 r10040"
   sodipodi:docname="noted-3-tkl.svg"
   inkscape:export-xdpi="90"
   inkscape:export-ydpi="90"
   xmlns:inkscape="http://www.inkscape.org/namespaces/inkscape"
   xmlns:sodipodi="http://sodipodi.sourceforge.net/DTD/sodipodi-0.dtd"
   xmlns:xlink="http://www.w3.org/1999/xlink"
   xmlns="http://www.w3.org/2000/svg"
   xmlns:svg="http://www.w3.org/2000/svg"
   xmlns:rdf="http://www.w3.org/1999/02/22-rdf-syntax-ns#"
   xmlns:cc="http://creativecommons.org/ns#"
   xmlns:dc="http://purl.org/dc/elements/1.1/">&#10;&#10;  <metadata
   id="metadata135">&#10;    <rdf:RDF>&#10;      <cc:Work
   rdf:about="">&#10;        <dc:format>image/svg+xml</dc:format>&#10;        <dc:type
   rdf:resource="http://purl.org/dc/dcmitype/StillImage" />&#10;        <dc:title />&#10;      </cc:Work>&#10;    </rdf:RDF>&#10;  </metadata>&#10;&#10;<defs
   id="defs">&#10;<style
   type="text/css"
   id="style46661">&#10;text.mod, text.key, text.dead {&#10;	fill:#111;&#10;	fill-opacity:1;&#10;    stroke:none;&#10;    font-style:normal;&#10;    font-variant:normal;&#10;    font-weight:normal;&#10;    font-stretch:normal;&#10;    display:inline;&#10;    font-family:Arial;&#10;    writing-mode:lr-tb;&#10;}&#10;&#10;text.key {&#10;    font-family:Arial;&#10;}&#10;&#10;text.dead {&#10;    font-family: Gentium Plus Compact; &#10;}&#10;&#10;text.mod {&#10;    text-align:start;&#10;    text-anchor:start;&#10;}&#10;&#10;text.space, text.dead, text.center, text.key {&#10;    text-align:center;&#10;    text-anchor:middle;&#10;}&#10;&#10;text.key { font-size:18px; }&#10;text.dead { font-size:18px; }&#10;text.mod { font-size:10px; }&#10;text.big { font-size:12px; }&#10;&#10;.key {&#10;stroke-width:0.75;&#10;}&#10;&#10;.grey { fill:#949494; stroke:#696969; }&#10;.grey { fill:#9f9f9f; stroke:#747474; }&#10;&#10;.numpad { fill:#afaa9f; stroke:#747474; }&#10;&#10;/* bootstrap colors */&#10;.l5, .r5 { fill:#93CCEA; }&#10;.l4, .r4 { fill:#7abeb3; }&#10;.l3, .r3 { fill:#63b280; }&#10;.l2, .r2 { fill:#4aa44a; }&#10;&#10;/* btn bg hover, unused */&#10;.l2, .r2 { stroke:#3071a9; }&#10;.l3, .r3 { stroke:#449d44; }&#10;.l4, .r4 { stroke:#c9302c; }&#10;.l5, .r5 { stroke:#ec971f; }&#10;&#10;/* btn border hover */&#10;.l2, .r2 { stroke:#204d74; }&#10;.l3, .r3 { stroke:#204d74; }&#10;.l4, .r4 { stroke:#204d74; }&#10;.l5, .r5 { stroke:#204d74; }&#10;&#10;<!-- text.nubkey { fill:#eee; } -->&#10;&#10;.pressed {&#10;	<!--opacity:0.5;-->&#10;	fill:#777;&#10;}&#10;    </style>&#10;&#10;    <g
   id="basekey">&#10;        <rect
   width="32"
   height="32"
   rx="4"
   class="key"
   id="rect1" />&#10;	<!--rect width="20" height="20" x="6" y="6" /-->&#10;        <!--rect width="2" height="2" fill="#000" x="15" y="15" /-->&#10;    </g>&#10;&#10;    </defs>&#10;<sodipodi:namedview
   pagecolor="#ffffff"
   bordercolor="#666666"
   borderopacity="1"
   objecttolerance="10"
   gridtolerance="10"
   guidetolerance="10"
   inkscape:pageopacity="0"
   inkscape:pageshadow="2"
   inkscape:window-width="1614"
   inkscape:window-height="969"
   id="base"
   showgrid="false"
   inkscape:zoom="0.70961538"
   inkscape:cx="685.32105"
   inkscape:cy="241.15395"
   inkscape:window-x="78"
   inkscape:window-y="71"
   inkscape:window-maximized="0"
   inkscape:current-layer="Ebene_1"
   inkscape:showpageshadow="2"
   inkscape:pagecheckerboard="0"
   inkscape:deskcolor="#d1d1d1" />&#10;&#10;<rect
   width="100%"
   height="100%"
   rx="4"
   style="fill:#eee"
   id="rect2" />&#10;&#10;<g
   transform="translate(3.5,3.5)"
   id="g62">&#10;<use
   xlink:href="#basekey"
   y="0"
   x="0"
   class="l5"
   id="use2" />&#10;<use
   xlink:href="#basekey"
   y="0"
   x="36"
   class="l5"
   id="use3" />&#10;<use
   xlink:href="#basekey"
   y="0"
   x="72"
   class="l5"
   id="use4" />&#10;<use
   xlink:href="#basekey"
   y="0"
   x="108"
   class="l4"
   id="use5" />&#10;<use
   xlink:href="#basekey"
   y="0"
   x="144"
   class="l3"
   id="use6" />&#10;<use
   xlink:href="#basekey"
   y="0"
   x="180"
   class="l2"
   id="use7" />&#10;<use
   xlink:href="#basekey"
   y="0"
   x="216"
   class="l2"
   id="use8" />&#10;&#10;<use
   xlink:href="#basekey"
   y="0"
   x="252"
   class="r2"
   id="use9" />&#10;<use
   xlink:href="#basekey"
   y="0"
   x="288"
   class="r2"
   id="use10" />&#10;<use
   xlink:href="#basekey"
   y="0"
   x="324"
   class="r3"
   id="use11" />&#10;<use
   xlink:href="#basekey"
   y="0"
   x="360"
   class="r4"
   id="use12" />&#10;<use
   xlink:href="#basekey"
   y="0"
   x="396"
   class="r5"
   id="use13" />&#10;<use
   xlink:href="#basekey"
   y="0"
   x="432"
   class="r5"
   id="use14" />&#10;&#10;&#10;<use
   xlink:href="#basekey"
   y="36"
   x="54"
   class="l5"
   id="use15" />&#10;<use
   xlink:href="#basekey"
   y="36"
   x="90"
   class="l4"
   id="use16" />&#10;<use
   xlink:href="#basekey"
   y="36"
   x="126"
   class="l3"
   id="use17" />&#10;<use
   xlink:href="#basekey"
   y="36"
   x="162"
   class="l2"
   id="use18" />&#10;<use
   xlink:href="#basekey"
   y="36"
   x="198"
   class="l2"
   id="use19" />&#10;&#10;<use
   xlink:href="#basekey"
   y="36"
   x="234"
   class="r2"
   id="use20" />&#10;<use
   xlink:href="#basekey"
   y="36"
   x="270"
   class="r2"
   id="use21" />&#10;<use
   xlink:href="#basekey"
   y="36"
   x="306"
   class="r3"
   id="use22" />&#10;<use
   xlink:href="#basekey"
   y="36"
   x="342"
   class="r4"
   id="use23" />&#10;<use
   xlink:href="#basekey"
   y="36"
   x="378"
   class="r5"
   id="use24" />&#10;<use
   xlink:href="#basekey"
   y="36"
   x="414"
   class="r5"
   id="use25" />&#10;<use
   xlink:href="#basekey"
   y="36"
   x="450"
   class="r5"
   id="use26" />&#10;&#10;&#10;<use
   xlink:href="#basekey"
   y="72"
   x="64"
   class="l5"
   id="use27" />&#10;<use
   xlink:href="#basekey"
   y="72"
   x="100"
   class="l4"
   id="use28" />&#10;<use
   xlink:href="#basekey"
   y="72"
   x="136"
   class="l3"
   id="use29" />&#10;<use
   xlink:href="#basekey"
   y="72"
   x="172"
   class="l2"
   id="use30" />&#10;<use
   xlink:href="#basekey"
   y="72"
   x="208"
   class="l2"
   id="use31" />&#10;&#10;<use
   xlink:href="#basekey"
   y="72"
   x="244"
   class="r2"
   id="use32" />&#10;<use
   xlink:href="#basekey"
   y="72"
   x="280"
   class="r2"
   id="use33" />&#10;<use
   xlink:href="#basekey"
   y="72"
   x="316"
   class="r3"
   id="use34" />&#10;<use
   xlink:href="#basekey"
   y="72"
   x="352"
   class="r4"
   id="use35" />&#10;<use
   xlink:href="#basekey"
   y="72"
   x="388"
   class="r5"
   id="use36" />&#10;&#10;    <use
   xlink:href="#basekey"
   y="72"
   x="460"
   class="r5"
   id="use37" />&#10;&#10;&#10;&#10;<use
   xlink:href="#basekey"
   y="108"
   x="82"
   class="l5"
   id="use38" />&#10;<use
   xlink:href="#basekey"
   y="108"
   x="118"
   class="l4"
   id="use39" />&#10;<use
   xlink:href="#basekey"
   y="108"
   x="154"
   class="l3"
   id="use40" />&#10;<use
   xlink:href="#basekey"
   y="108"
   x="190"
   class="l2"
   id="use41" />&#10;<use
   xlink:href="#basekey"
   y="108"
   x="226"
   class="l2"
   id="use42" />&#10;&#10;<use
   xlink:href="#basekey"
   y="108"
   x="262"
   class="r2"
   id="use43" />&#10;<use
   xlink:href="#basekey"
   y="108"
   x="298"
   class="r2"
   id="use44" />&#10;<use
   xlink:href="#basekey"
   y="108"
   x="334"
   class="r3"
   id="use45" />&#10;<use
   xlink:href="#basekey"
   y="108"
   x="370"
   class="r4"
   id="use46" />&#10;<use
   xlink:href="#basekey"
   y="108"
   x="406"
   class="r5"
   id="use47" />&#10;&#10;&#10;<rect
   id="backspace"
   y="0"
   x="468"
   width="60"
   height="32"
   rx="4"
   class="key grey" />&#10;&#10;<rect
   id="tab"
   x="0"
   y="36"
   width="50"
   height="32"
   rx="4"
   class="key grey" />&#10;&#10;<rect
   id="m3l"
   x="0"
   y="72"
   width="60"
   height="32"
   rx="4"
   class="key grey pressed" />&#10;&#10;<use
   id="m3r"
   xlink:href="#basekey"
   x="424"
   y="72"
   class="key grey pressed" />&#10;&#10;&#10;<rect
   id="shiftl"
   x="0"
   y="108"
   width="40"
   height="32"
   rx="4"
   class="key grey" />&#10;<rect
   id="m4l"
   x="44"
   y="108"
   width="34"
   height="32"
   rx="4"
   class="key grey" />&#10;<rect
   id="shiftr"
   x="442"
   y="108"
   width="86"
   height="32"
   rx="4"
   class="key grey" />&#10;&#10;<rect
   id="ctrll"
   x="0"
   y="144"
   width="50"
   height="32"
   rx="4"
   class="key grey" />&#10;<rect
   id="altl"
   x="124"
   y="144"
   width="48"
   height="32"
   rx="4"
   class="key grey" />&#10;<rect
   id="space"
   x="176"
   y="144"
   width="168"
   height="32"
   rx="4"
   class="key grey" />&#10;<rect
   id="m4r"
   x="348"
   y="144"
   width="48"
   height="32"
   rx="4"
   class="key grey" />&#10;<rect
   id="ctrlr"
   x="478"
   y="144"
   width="50"
   height="32"
   rx="4"
   class="key grey" />&#10;&#10;<use
   xlink:href="#basekey"
   y="0"
   x="542"
   class="key numpad"
   id="use48" />&#10;<use
   xlink:href="#basekey"
   y="0"
   x="578"
   class="key numpad"
   id="use49" />&#10;<use
   xlink:href="#basekey"
   y="0"
   x="614"
   class="key numpad"
   id="use50" />&#10;<use
   xlink:href="#basekey"
   y="0"
   x="650"
   class="key numpad"
   id="use51" />&#10;&#10;<use
   xlink:href="#basekey"
   y="36"
   x="542"
   class="key numpad"
   id="use52" />&#10;<use
   xlink:href="#basekey"
   y="36"
   x="578"
   class="key numpad"
   id="use53" />&#10;<use
   xlink:href="#basekey"
   y="36"
   x="614"
   class="key numpad"
   id="use54" />&#10;<rect
   id="kpplus"
   x="650"
   y="36"
   width="32"
   height="68"
   rx="4"
   class="key numpad" />&#10;&#10;<use
   xlink:href="#basekey"
   y="72"
   x="542"
   class="key numpad"
   id="use55" />&#10;<use
   xlink:href="#basekey"
   y="72"
   x="578"
   class="key numpad"
   id="use56" />&#10;<use
   xlink:href="#basekey"
   y="72"
   x="614"
   class="key numpad"
   id="use57" />&#10;&#10;<use
   xlink:href="#basekey"
   y="108"
   x="542"
   class="key numpad"
   id="use58" />&#10;<use
   xlink:href="#basekey"
   y="108"
   x="578"
   class="key numpad"
   id="use59" />&#10;<use
   xlink:href="#basekey"
   y="108"
   x="614"
   class="key numpad"
   id="use60" />&#10;<rect
   id="kppenter"
   x="650"
   y="108"
   width="32"
   height="68"
   rx="4"
   class="key numpad" />&#10;&#10;<rect
   id="kp0"
   x="542"
   y="144"
   width="68"
   height="32"
   rx="4"
   class="key numpad" />&#10;<use
   xlink:href="#basekey"
   y="144"
   x="614"
   class="key numpad"
   id="use61" />&#10;&#10;<path
   fill-rule="evenodd"
   clip-rule="evenodd"
   d="      M 10,32      l -6,0 a 4,4 0 0 1 -4,-4      l 0,-24 a 4,4 0 0 1 4,-4      l 34,0 a 4,4 0 0 1 4,4      l 0,60 a 4,4 0 0 1 -4,4      l -24,0 a 4,4 0 0 1 -4,-4      z"
   transform="translate(486,36)"
   id="return"
   class="key grey" />&#10;&#10;<rect
   y="101"
   x="181"
   width="14"
   height="1"
   rx="1"
   id="nub"
   style="fill:#111;" />&#10;<use
   y="0"
   x="108"
   xlink:href="#nub"
   id="use62" />&#10;</g>&#10;&#10;<g
   transform="translate(-0.5,-0.5)"
   id="g63">&#10;<path
   d="m 16.669922,96 v -4.589844 q 0,-0.761719 0.04395,-1.464844 -0.239258,0.874024 -0.429687,1.367188 L 14.506836,96 h -0.654297 l -1.801758,-4.6875 -0.273437,-0.830078 -0.161133,-0.53711 0.01465,0.541993 0.01953,0.922851 V 96 h -0.830078 v -6.879883 h 1.225585 l 1.831055,4.770508 q 0.09766,0.288086 0.185547,0.620117 0.09277,0.327149 0.12207,0.473633 0.03906,-0.195313 0.161133,-0.59082 0.126953,-0.400391 0.170899,-0.50293 l 1.796875,-4.770508 h 1.196289 V 96 Z m 6.801758,-2.646484 q 0,1.386718 -0.610352,2.065429 -0.610351,0.678711 -1.772461,0.678711 -1.157226,0 -1.748047,-0.703125 Q 18.75,94.686523 18.75,93.353516 q 0,-2.734375 2.368164,-2.734375 1.210938,0 1.782227,0.668945 0.571289,0.664062 0.571289,2.06543 z m -0.922852,0 q 0,-1.09375 -0.327148,-1.586914 -0.322266,-0.498047 -1.088868,-0.498047 -0.771484,0 -1.118164,0.507812 -0.341796,0.50293 -0.341796,1.577149 0,1.044921 0.336914,1.572265 0.341796,0.522461 1.069336,0.522461 0.791015,0 1.127929,-0.507812 0.341797,-0.507813 0.341797,-1.586914 z m 5.351563,1.796875 q -0.244141,0.507812 -0.649414,0.727539 -0.400391,0.219726 -0.996094,0.219726 -1.000977,0 -1.47461,-0.673828 -0.46875,-0.673828 -0.46875,-2.041016 0,-2.763671 1.94336,-2.763671 0.600586,0 1.000976,0.219726 0.400391,0.219727 0.644532,0.698242 h 0.0098 l -0.0098,-0.59082 v -2.192383 h 0.878906 v 6.157227 q 0,0.825195 0.0293,1.088867 H 27.96875 q -0.01465,-0.07813 -0.03418,-0.361328 -0.01465,-0.283203 -0.01465,-0.488281 z m -2.666016,-1.796875 q 0,1.108398 0.292969,1.586914 0.292968,0.478515 0.952148,0.478515 0.74707,0 1.083985,-0.517578 0.336914,-0.517578 0.336914,-1.606445 0,-1.049805 -0.336914,-1.538086 -0.336915,-0.488281 -1.074219,-0.488281 -0.664063,0 -0.961914,0.493164 -0.292969,0.488281 -0.292969,1.591797 z m 9.34082,0.74707 q 0,0.952148 -0.605468,1.474609 -0.605469,0.522461 -1.728516,0.522461 -1.044922,0 -1.669922,-0.46875 -0.620117,-0.473633 -0.737305,-1.396484 l 0.908203,-0.08301 q 0.175782,1.220703 1.499024,1.220703 0.664062,0 1.040039,-0.327148 0.380859,-0.327149 0.380859,-0.97168 0,-0.561523 -0.43457,-0.874023 -0.429687,-0.317383 -1.245117,-0.317383 h -0.498047 v -0.761719 h 0.478516 q 0.722656,0 1.118164,-0.3125 0.40039,-0.317383 0.40039,-0.874023 0,-0.551758 -0.327148,-0.869141 -0.322266,-0.322266 -0.961914,-0.322266 -0.581055,0 -0.942383,0.297852 -0.356445,0.297851 -0.415039,0.839844 l -0.883789,-0.06836 q 0.09766,-0.844726 0.698242,-1.318359 0.605469,-0.473633 1.552734,-0.473633 1.035157,0 1.606446,0.483399 0.576172,0.478515 0.576172,1.33789 0,0.65918 -0.371094,1.074219 -0.366211,0.410156 -1.069336,0.556641 v 0.01953 q 0.771484,0.08301 1.201172,0.517578 0.429687,0.43457 0.429687,1.09375 z"
   id="m3ltxt"
   style="font-size:10px;line-height:0%;font-family:Arial;fill:#111111"
   class="mod"
   aria-label="Mod3" />&#10;<path
   d="m 16.585937,126.34375 -1.558593,-1.55859 -1.558594,1.55859 h 0.767578 v 6.07031 h 1.582031 v -6.07031 z m -4.535156,0.58594 2.976563,-2.97656 2.976562,2.97656 H 16.404297 V 133 h -2.753906 v -6.07031 z"
   id="shiftltxt"
   style="font-size:12px;line-height:0%;font-family:Arial;fill:#111111"
   class="mod big"
   aria-label="⇧" />&#10;<path
   d="m 16.210937,166.10059 q 0,0.95214 -0.74707,1.47461 -0.742187,0.52246 -2.094726,0.52246 -2.514649,0 -2.915039,-1.74805 l 0.90332,-0.18066 q 0.15625,0.62011 0.664062,0.91308 0.507813,0.28809 1.381836,0.28809 0.903321,0 1.391602,-0.30762 0.493164,-0.3125 0.493164,-0.91309 0,-0.33691 -0.15625,-0.54687 -0.151367,-0.20996 -0.429688,-0.34668 -0.27832,-0.13672 -0.664062,-0.22949 -0.385742,-0.0928 -0.854492,-0.2002 -0.81543,-0.18066 -1.240235,-0.36133 -0.419921,-0.18066 -0.664062,-0.40039 -0.244141,-0.22461 -0.375977,-0.52246 -0.126953,-0.29785 -0.126953,-0.68359 0,-0.88379 0.673828,-1.36231 0.678711,-0.47851 1.938477,-0.47851 1.171875,0 1.791992,0.36133 0.620117,0.35644 0.869141,1.2207 l -0.917969,0.16113 q -0.151367,-0.54687 -0.576172,-0.79101 -0.424805,-0.24903 -1.176758,-0.24903 -0.825195,0 -1.259765,0.27344 -0.434571,0.27344 -0.434571,0.81543 0,0.31738 0.166016,0.52734 0.170898,0.20508 0.488281,0.35157 0.317383,0.1416 1.264649,0.35156 0.317382,0.0732 0.629882,0.15137 0.317383,0.0732 0.605469,0.18066 0.288086,0.10254 0.53711,0.24414 0.253906,0.1416 0.439453,0.34668 0.185547,0.20508 0.288086,0.4834 0.107421,0.27832 0.107421,0.6543 z m 3.164063,1.86035 q -0.43457,0.11718 -0.888672,0.11718 -1.054687,0 -1.054687,-1.19628 v -3.52539 h -0.610352 v -0.63965 h 0.644531 l 0.258789,-1.18164 h 0.585938 v 1.18164 h 0.976562 v 0.63965 h -0.976562 v 3.33496 q 0,0.38086 0.12207,0.53711 0.126953,0.15136 0.43457,0.15136 0.175782,0 0.507813,-0.0684 z M 20.141602,168 v -4.05273 q 0,-0.55665 -0.0293,-1.23047 h 0.830078 q 0.03906,0.89843 0.03906,1.0791 h 0.01953 q 0.20996,-0.67871 0.483398,-0.92774 0.273437,-0.24902 0.771484,-0.24902 0.175782,0 0.356446,0.0488 v 0.80566 q -0.175782,-0.0488 -0.46875,-0.0488 -0.546875,0 -0.834961,0.47364 -0.288086,0.46875 -0.288086,1.34765 V 168 Z m 5.3125,2.0752 q -0.864258,0 -1.376954,-0.3418 -0.512695,-0.33692 -0.659179,-0.96192 l 0.883789,-0.12695 q 0.08789,0.36621 0.385742,0.56152 0.302734,0.2002 0.791016,0.2002 1.313476,0 1.313476,-1.53809 v -0.84961 h -0.0098 q -0.249024,0.50782 -0.683594,0.76661 -0.434571,0.2539 -1.015625,0.2539 -0.97168,0 -1.430664,-0.64453 -0.454102,-0.64453 -0.454102,-2.02637 0,-1.40136 0.488281,-2.06543 0.493164,-0.66894 1.494141,-0.66894 0.561523,0 0.97168,0.25879 0.415039,0.2539 0.639648,0.72754 h 0.0098 q 0,-0.14649 0.01953,-0.50782 0.01953,-0.36132 0.03906,-0.3955 h 0.83496 q -0.0293,0.26367 -0.0293,1.09375 v 4.03808 q 0,2.22657 -2.211914,2.22657 z m 1.33789,-4.7168 q 0,-0.64453 -0.175781,-1.1084 -0.175781,-0.46875 -0.498047,-0.71289 -0.317383,-0.24902 -0.722656,-0.24902 -0.673828,0 -0.981446,0.48828 -0.307617,0.48828 -0.307617,1.58203 0,1.08398 0.288086,1.55762 0.288086,0.47363 0.986328,0.47363 0.415039,0 0.737305,-0.24414 0.322266,-0.24414 0.498047,-0.69824 0.175781,-0.45899 0.175781,-1.08887 z"
   id="ctrlltxt"
   style="font-size:10px;line-height:0%;font-family:Arial;fill:#111111"
   class="mod"
   aria-label="Strg" />&#10;&#10;<path
   d="m 62.669922,132 v -4.58984 q 0,-0.76172 0.04395,-1.46485 -0.239258,0.87403 -0.429687,1.36719 L 60.506836,132 h -0.654297 l -1.801758,-4.6875 -0.273437,-0.83008 -0.161133,-0.53711 0.01465,0.54199 0.01953,0.92286 V 132 h -0.830079 v -6.87988 h 1.225586 l 1.831055,4.7705 q 0.09766,0.28809 0.185547,0.62012 0.09277,0.32715 0.12207,0.47363 0.03906,-0.19531 0.161133,-0.59082 0.126953,-0.40039 0.170899,-0.50293 l 1.796875,-4.7705 h 1.196289 V 132 Z m 5.961914,-1.55762 V 132 h -0.830078 v -1.55762 H 64.55957 v -0.68359 l 3.149414,-4.63867 h 0.922852 v 4.6289 h 0.966797 v 0.69336 z m -0.830078,-4.33105 q -0.0098,0.0293 -0.136719,0.25879 -0.126953,0.22949 -0.19043,0.32226 l -1.762695,2.59766 -0.263672,0.36133 -0.07813,0.0977 h 2.431641 z"
   id="m4ltxt"
   style="font-size:10px;line-height:0%;font-family:Arial;fill:#111111"
   class="mod"
   aria-label="M4" />&#10;<path
   d="m 140.69824,168 -0.78613,-2.01172 h -3.13477 L 135.98633,168 h -0.9668 l 2.80762,-6.87988 h 1.05957 L 141.65039,168 Z m -2.35351,-6.17676 -0.0439,0.13672 q -0.12207,0.40527 -0.36133,1.04004 l -0.8789,2.26074 h 2.57324 L 138.75,162.99023 q -0.13672,-0.33691 -0.27344,-0.76171 z M 142.34375,168 v -7.24609 h 0.87891 V 168 Z m 4.25293,-0.0391 q -0.43457,0.11718 -0.88867,0.11718 -1.05469,0 -1.05469,-1.19628 v -3.52539 h -0.61035 v -0.63965 h 0.64453 l 0.25879,-1.18164 h 0.58594 v 1.18164 h 0.97656 v 0.63965 h -0.97656 v 3.33496 q 0,0.38086 0.12207,0.53711 0.12695,0.15136 0.43457,0.15136 0.17578,0 0.50781,-0.0684 z"
   id="altltxt"
   style="font-size:10px;line-height:0%;font-family:Arial;fill:#111111"
   class="mod"
   aria-label="Alt" />&#10;&#10;&#10;<path
   d="m 442.66992,96 v -4.589844 q 0,-0.761719 0.0439,-1.464844 -0.23926,0.874024 -0.42969,1.367188 L 440.50684,96 h -0.6543 l -1.80176,-4.6875 -0.27344,-0.830078 -0.16113,-0.53711 0.0146,0.541993 0.0195,0.922851 V 96 h -0.83008 v -6.879883 h 1.22559 l 1.83105,4.770508 q 0.0977,0.288086 0.18555,0.620117 0.0928,0.327149 0.12207,0.473633 0.0391,-0.195313 0.16113,-0.59082 0.12696,-0.400391 0.1709,-0.50293 l 1.79688,-4.770508 h 1.19629 V 96 Z m 6.78223,-1.899414 q 0,0.952148 -0.60547,1.474609 -0.60547,0.522461 -1.72852,0.522461 -1.04492,0 -1.66992,-0.46875 -0.62012,-0.473633 -0.7373,-1.396484 l 0.9082,-0.08301 q 0.17578,1.220703 1.49902,1.220703 0.66407,0 1.04004,-0.327148 0.38086,-0.327149 0.38086,-0.97168 0,-0.561523 -0.43457,-0.874023 -0.42969,-0.317383 -1.24512,-0.317383 h -0.49804 v -0.761719 h 0.47851 q 0.72266,0 1.11817,-0.3125 0.40039,-0.317383 0.40039,-0.874023 0,-0.551758 -0.32715,-0.869141 -0.32227,-0.322266 -0.96191,-0.322266 -0.58106,0 -0.94239,0.297852 -0.35644,0.297851 -0.41504,0.839844 l -0.88379,-0.06836 q 0.0977,-0.844726 0.69825,-1.318359 0.60547,-0.473633 1.55273,-0.473633 1.03516,0 1.60645,0.483399 0.57617,0.478515 0.57617,1.33789 0,0.65918 -0.3711,1.074219 -0.36621,0.410156 -1.06933,0.556641 v 0.01953 q 0.77148,0.08301 1.20117,0.517578 0.42969,0.43457 0.42969,1.09375 z"
   id="m3rtxt"
   style="font-size:10px;line-height:0%;font-family:Arial;fill:#111111"
   class="mod"
   aria-label="M3" />&#10;&#10;&#10;<path
   d="m 456.58594,126.34375 -1.5586,-1.55859 -1.55859,1.55859 h 0.76758 v 6.07031 h 1.58203 v -6.07031 z m -4.53516,0.58594 2.97656,-2.97656 2.97657,2.97656 H 456.4043 V 133 h -2.75391 v -6.07031 z"
   id="shiftrtxt"
   style="font-size:12px;line-height:0%;font-family:Arial;fill:#111111"
   class="mod big"
   aria-label="⇧" />&#10;<path
   d="m 496.21094,166.10059 q 0,0.95214 -0.74707,1.47461 -0.74219,0.52246 -2.09473,0.52246 -2.51465,0 -2.91504,-1.74805 l 0.90332,-0.18066 q 0.15625,0.62011 0.66406,0.91308 0.50782,0.28809 1.38184,0.28809 0.90332,0 1.3916,-0.30762 0.49317,-0.3125 0.49317,-0.91309 0,-0.33691 -0.15625,-0.54687 -0.15137,-0.20996 -0.42969,-0.34668 -0.27832,-0.13672 -0.66406,-0.22949 -0.38575,-0.0928 -0.8545,-0.2002 -0.81543,-0.18066 -1.24023,-0.36133 -0.41992,-0.18066 -0.66406,-0.40039 -0.24414,-0.22461 -0.37598,-0.52246 -0.12695,-0.29785 -0.12695,-0.68359 0,-0.88379 0.67383,-1.36231 0.67871,-0.47851 1.93847,-0.47851 1.17188,0 1.79199,0.36133 0.62012,0.35644 0.86914,1.2207 l -0.91796,0.16113 q -0.15137,-0.54687 -0.57618,-0.79101 -0.4248,-0.24903 -1.17675,-0.24903 -0.8252,0 -1.25977,0.27344 -0.43457,0.27344 -0.43457,0.81543 0,0.31738 0.16602,0.52734 0.17089,0.20508 0.48828,0.35157 0.31738,0.1416 1.26465,0.35156 0.31738,0.0732 0.62988,0.15137 0.31738,0.0732 0.60547,0.18066 0.28808,0.10254 0.53711,0.24414 0.2539,0.1416 0.43945,0.34668 0.18555,0.20508 0.28809,0.4834 0.10742,0.27832 0.10742,0.6543 z m 3.16406,1.86035 q -0.43457,0.11718 -0.88867,0.11718 -1.05469,0 -1.05469,-1.19628 v -3.52539 h -0.61035 v -0.63965 h 0.64453 l 0.25879,-1.18164 h 0.58594 v 1.18164 h 0.97656 v 0.63965 h -0.97656 v 3.33496 q 0,0.38086 0.12207,0.53711 0.12695,0.15136 0.43457,0.15136 0.17578,0 0.50781,-0.0684 z M 500.1416,168 v -4.05273 q 0,-0.55665 -0.0293,-1.23047 h 0.83008 q 0.0391,0.89843 0.0391,1.0791 h 0.0195 q 0.20996,-0.67871 0.48339,-0.92774 0.27344,-0.24902 0.77149,-0.24902 0.17578,0 0.35644,0.0488 v 0.80566 q -0.17578,-0.0488 -0.46875,-0.0488 -0.54687,0 -0.83496,0.47364 -0.28808,0.46875 -0.28808,1.34765 V 168 Z m 5.3125,2.0752 q -0.86426,0 -1.37695,-0.3418 -0.5127,-0.33692 -0.65918,-0.96192 l 0.88379,-0.12695 q 0.0879,0.36621 0.38574,0.56152 0.30273,0.2002 0.79102,0.2002 1.31347,0 1.31347,-1.53809 v -0.84961 h -0.01 q -0.24903,0.50782 -0.6836,0.76661 -0.43457,0.2539 -1.01562,0.2539 -0.97168,0 -1.43067,-0.64453 -0.4541,-0.64453 -0.4541,-2.02637 0,-1.40136 0.48828,-2.06543 0.49317,-0.66894 1.49414,-0.66894 0.56153,0 0.97168,0.25879 0.41504,0.2539 0.63965,0.72754 h 0.01 q 0,-0.14649 0.0195,-0.50782 0.0195,-0.36132 0.0391,-0.3955 h 0.83496 q -0.0293,0.26367 -0.0293,1.09375 v 4.03808 q 0,2.22657 -2.21192,2.22657 z m 1.33789,-4.7168 q 0,-0.64453 -0.17578,-1.1084 -0.17578,-0.46875 -0.49805,-0.71289 -0.31738,-0.24902 -0.72265,-0.24902 -0.67383,0 -0.98145,0.48828 -0.30761,0.48828 -0.30761,1.58203 0,1.08398 0.28808,1.55762 0.28809,0.47363 0.98633,0.47363 0.41504,0 0.7373,-0.24414 0.32227,-0.24414 0.49805,-0.69824 0.17578,-0.45899 0.17578,-1.08887 z"
   id="ctrlrtxt"
   style="font-size:10px;line-height:0%;font-family:Arial;fill:#111111"
   class="mod"
   aria-label="Strg" />&#10;<path
   d="m 363.66992,168 v -4.58984 q 0,-0.76172 0.0439,-1.46485 -0.23926,0.87403 -0.42969,1.36719 L 361.50684,168 h -0.6543 l -1.80176,-4.6875 -0.27344,-0.83008 -0.16113,-0.53711 0.0146,0.54199 0.0195,0.92286 V 168 h -0.83008 v -6.87988 h 1.22559 l 1.83105,4.7705 q 0.0977,0.28809 0.18555,0.62012 0.0928,0.32715 0.12207,0.47363 0.0391,-0.19531 0.16113,-0.59082 0.12696,-0.40039 0.1709,-0.50293 l 1.79688,-4.7705 h 1.19629 V 168 Z m 6.80176,-2.64648 q 0,1.38671 -0.61035,2.06543 -0.61035,0.67871 -1.77246,0.67871 -1.15723,0 -1.74805,-0.70313 -0.59082,-0.70801 -0.59082,-2.04101 0,-2.73438 2.36816,-2.73438 1.21094,0 1.78223,0.66895 0.57129,0.66406 0.57129,2.06543 z m -0.92285,0 q 0,-1.09375 -0.32715,-1.58692 -0.32227,-0.49805 -1.08887,-0.49805 -0.77148,0 -1.11816,0.50782 -0.3418,0.50293 -0.3418,1.57715 0,1.04492 0.33692,1.57226 0.34179,0.52246 1.06933,0.52246 0.79102,0 1.12793,-0.50781 0.3418,-0.50781 0.3418,-1.58691 z m 5.35156,1.79687 q -0.24414,0.50781 -0.64941,0.72754 -0.40039,0.21973 -0.9961,0.21973 -1.00097,0 -1.47461,-0.67383 -0.46875,-0.67383 -0.46875,-2.04102 0,-2.76367 1.94336,-2.76367 0.60059,0 1.00098,0.21973 0.40039,0.21972 0.64453,0.69824 h 0.01 l -0.01,-0.59082 v -2.19238 h 0.87891 v 6.15722 q 0,0.8252 0.0293,1.08887 h -0.83984 q -0.0147,-0.0781 -0.0342,-0.36133 -0.0147,-0.2832 -0.0147,-0.48828 z m -2.66602,-1.79687 q 0,1.10839 0.29297,1.58691 0.29297,0.47852 0.95215,0.47852 0.74707,0 1.08399,-0.51758 0.33691,-0.51758 0.33691,-1.60645 0,-1.0498 -0.33691,-1.53808 -0.33692,-0.48829 -1.07422,-0.48829 -0.66406,0 -0.96192,0.49317 -0.29297,0.48828 -0.29297,1.5918 z m 8.52051,1.08886 V 168 h -0.83008 v -1.55762 h -3.24218 v -0.68359 l 3.14941,-4.63867 h 0.92285 v 4.6289 h 0.9668 v 0.69336 z m -0.83008,-4.33105 q -0.01,0.0293 -0.13671,0.25879 -0.12696,0.22949 -0.19043,0.32226 l -1.7627,2.59766 -0.26367,0.36133 -0.0781,0.0977 h 2.43164 z"
   id="m4rtxt"
   style="font-size:10px;line-height:0%;font-family:Arial;fill:#111111"
   class="mod"
   aria-label="Mod4" />&#10;<path
   d="m 236.5791,168 v -6.87988 h 0.93262 v 6.11816 h 3.47656 V 168 Z m 6.08887,-2.45605 q 0,0.9082 0.37598,1.40136 0.37597,0.49317 1.09863,0.49317 0.57129,0 0.91308,-0.2295 0.34668,-0.22949 0.46875,-0.58105 l 0.77149,0.21973 q -0.47363,1.25 -2.15332,1.25 -1.17188,0 -1.78711,-0.69825 -0.61035,-0.69824 -0.61035,-2.07519 0,-1.3086 0.61035,-2.00684 0.61523,-0.69824 1.75293,-0.69824 2.3291,0 2.3291,2.80762 v 0.11719 z m 2.86133,-0.67383 q -0.0733,-0.83496 -0.42481,-1.21582 -0.35156,-0.38575 -1.01074,-0.38575 -0.63965,0 -1.01563,0.42969 -0.37109,0.42481 -0.40039,1.17188 z m 2.70019,0.67383 q 0,0.9082 0.37598,1.40136 0.37598,0.49317 1.09863,0.49317 0.57129,0 0.91309,-0.2295 0.34668,-0.22949 0.46875,-0.58105 l 0.77148,0.21973 q -0.47363,1.25 -2.15332,1.25 -1.17187,0 -1.78711,-0.69825 -0.61035,-0.69824 -0.61035,-2.07519 0,-1.3086 0.61035,-2.00684 0.61524,-0.69824 1.75293,-0.69824 2.3291,0 2.3291,2.80762 v 0.11719 z m 2.86133,-0.67383 q -0.0732,-0.83496 -0.4248,-1.21582 -0.35157,-0.38575 -1.01075,-0.38575 -0.63965,0 -1.01562,0.42969 -0.3711,0.42481 -0.40039,1.17188 z M 253.13672,168 v -4.05273 q 0,-0.55665 -0.0293,-1.23047 h 0.83008 q 0.0391,0.89843 0.0391,1.0791 h 0.0195 q 0.20996,-0.67871 0.4834,-0.92774 0.27344,-0.24902 0.77149,-0.24902 0.17578,0 0.35644,0.0488 v 0.80566 q -0.17578,-0.0488 -0.46875,-0.0488 -0.54687,0 -0.83496,0.47364 -0.28809,0.46875 -0.28809,1.34765 V 168 Z m 3.04199,0 v -0.66895 l 2.9541,-3.93554 h -2.78808 v -0.67871 h 3.82812 v 0.66894 l -2.95898,3.93555 h 3.06152 V 168 Z m 5.94238,-2.45605 q 0,0.9082 0.37598,1.40136 0.37598,0.49317 1.09863,0.49317 0.57129,0 0.91309,-0.2295 0.34668,-0.22949 0.46875,-0.58105 l 0.77148,0.21973 q -0.47363,1.25 -2.15332,1.25 -1.17187,0 -1.78711,-0.69825 -0.61035,-0.69824 -0.61035,-2.07519 0,-1.3086 0.61035,-2.00684 0.61524,-0.69824 1.75293,-0.69824 2.3291,0 2.3291,2.80762 v 0.11719 z m 2.86133,-0.67383 q -0.0732,-0.83496 -0.4248,-1.21582 -0.35157,-0.38575 -1.01075,-0.38575 -0.63964,0 -1.01562,0.42969 -0.37109,0.42481 -0.40039,1.17188 z m 2.02149,-3.27637 v -0.83984 h 0.8789 v 0.83984 z m 0,6.40625 v -5.2832 h 0.8789 V 168 Z m 2.8955,-2.66602 q 0,1.05469 0.33204,1.5625 0.33203,0.50782 1.00097,0.50782 0.46875,0 0.78125,-0.25391 0.31738,-0.25391 0.39063,-0.78125 l 0.88867,0.0586 q -0.10254,0.76172 -0.64942,1.21582 -0.54687,0.45411 -1.38671,0.45411 -1.1084,0 -1.69434,-0.69825 -0.58105,-0.70312 -0.58105,-2.04589 0,-1.33301 0.58593,-2.03125 0.58594,-0.70313 1.67969,-0.70313 0.81055,0 1.34277,0.41992 0.53711,0.41992 0.67383,1.15723 l -0.90332,0.0684 q -0.0684,-0.43945 -0.34668,-0.69824 -0.27832,-0.25879 -0.79101,-0.25879 -0.69825,0 -1.01075,0.46386 -0.3125,0.46387 -0.3125,1.5625 z m 5.20508,-1.71386 q 0.28321,-0.51758 0.67871,-0.75684 0.40039,-0.24414 1.01075,-0.24414 0.85937,0 1.26464,0.42969 0.41016,0.4248 0.41016,1.43066 V 168 h -0.88379 v -3.34961 q 0,-0.55664 -0.10254,-0.82519 -0.10254,-0.27344 -0.33691,-0.4004 -0.23438,-0.12695 -0.64942,-0.12695 -0.62011,0 -0.99609,0.42969 -0.37109,0.42969 -0.37109,1.15723 V 168 H 274.25 v -7.24609 h 0.87891 v 1.88476 q 0,0.29785 -0.0195,0.61524 -0.0146,0.31738 -0.0195,0.36621 z m 5.36133,1.92383 q 0,0.9082 0.37598,1.40136 0.37597,0.49317 1.09863,0.49317 0.57129,0 0.91309,-0.2295 0.34668,-0.22949 0.46875,-0.58105 l 0.77148,0.21973 q -0.47363,1.25 -2.15332,1.25 -1.17188,0 -1.78711,-0.69825 -0.61035,-0.69824 -0.61035,-2.07519 0,-1.3086 0.61035,-2.00684 0.61523,-0.69824 1.75293,-0.69824 2.3291,0 2.3291,2.80762 v 0.11719 z m 2.86133,-0.67383 q -0.0732,-0.83496 -0.42481,-1.21582 -0.35156,-0.38575 -1.01074,-0.38575 -0.63965,0 -1.01562,0.42969 -0.3711,0.42481 -0.40039,1.17188 z M 288.70801,168 v -3.34961 q 0,-0.52246 -0.10254,-0.81055 -0.10254,-0.28808 -0.32715,-0.41504 -0.22461,-0.12695 -0.65918,-0.12695 -0.63477,0 -1.00098,0.43457 -0.36621,0.43457 -0.36621,1.20606 V 168 h -0.8789 v -4.15527 q 0,-0.92286 -0.0293,-1.12793 h 0.83008 q 0.005,0.0244 0.01,0.13183 0.005,0.10742 0.01,0.24903 0.01,0.13671 0.0195,0.52246 h 0.0146 q 0.30273,-0.54688 0.69824,-0.77149 0.40039,-0.22949 0.99121,-0.22949 0.86914,0 1.26953,0.43457 0.40528,0.42969 0.40528,1.42578 V 168 Z"
   id="text62"
   style="font-size:10px;line-height:0%;font-family:Arial;text-align:center;text-anchor:middle;fill:#111111"
   class="mod space"
   aria-label="Leerzeichen" />&#10;&#10;<path
   d="m 498.29883,61.214844 -2.97656,-2.976563 2.97656,-2.976562 v 1.599609 h 3.32226 v -3.609375 h 2.75391 l -0.006,6.363281 h -6.07031 z m -0.58594,-3.767578 v -0.767579 l -1.55859,1.558594 1.55859,1.558594 v -0.767578 h 6.07031 l 0.006,-5.191406 h -1.58203 l -0.006,3.609375 z"
   id="returntxt"
   style="font-size:12px;line-height:0%;font-family:Arial;fill:#111111"
   class="mod big"
   aria-label="⏎" />&#10;<path
   d="m 493.37891,23 h -9.5752 l -3.79883,-3.798828 3.79883,-3.798828 h 9.5752 z m -0.72266,-6.875 h -0.68848 l -3.07617,3.076172 3.07617,3.076172 h 0.68848 z m -6.8457,0 2.56347,2.563477 2.56348,-2.563477 z m 5.12695,6.152344 -2.56348,-2.563477 -2.56347,2.563477 z M 484.79492,16.125 h -0.69336 l -3.07617,3.085937 3.07617,3.066407 h 0.69336 l 3.07617,-3.076172 z"
   id="backspacetxt"
   style="font-size:10px;line-height:0%;font-family:Arial;fill:#111111"
   class="mod"
   aria-label="⌫" />&#10;</g>&#10;&#10;<g
   transform="translate(55,26)"
   id="g73">&#10;	<path
   d="m -2.2939453,-4.9482422 v -0.9404297 h 1.85449217 V -11.337891 L -2.2148438,-10.125 v -1.054688 l 1.84570317,-1.204101 h 1.08105469 v 6.4951171 H 2.6015625 v 0.9404297 z"
   id="text63"
   style="font-size:18px;line-height:0%;font-family:Arial;text-align:center;text-anchor:middle;fill:#111111;stroke-width:0.75"
   class="key"
   aria-label="¹" />&#10;	<path
   d="m 33.380859,-4.9482422 -0.01758,-0.9052734 q 0.272461,-0.6064453 0.834961,-1.1777344 0.571289,-0.5800781 1.511719,-1.2304688 0.852539,-0.5976562 1.239258,-1.0898437 0.386718,-0.4921875 0.386718,-1.0019535 0,-0.544922 -0.316406,-0.870117 -0.307617,-0.333984 -0.958008,-0.333984 -0.597656,0 -0.984375,0.325195 -0.386718,0.316406 -0.457031,0.914063 l -1.168945,-0.07031 q 0.114258,-0.94043 0.817383,-1.520508 0.711914,-0.580078 1.845703,-0.580078 1.116211,0 1.766601,0.544922 0.65918,0.536133 0.65918,1.50293 0,1.2919919 -1.652344,2.5048826 -1.072265,0.7910156 -1.511718,1.1953125 -0.439454,0.4042968 -0.615235,0.7998047 h 3.893555 v 0.993164 z"
   id="text64"
   style="font-size:18px;line-height:0%;font-family:Arial;text-align:center;text-anchor:middle;fill:#111111;stroke-width:0.75"
   class="key"
   aria-label="²" />&#10;	<path
   d="m 74.645508,-6.9873047 q 0,1.0195313 -0.685547,1.5820313 -0.676758,0.5625 -1.924805,0.5625 -2.513672,0 -2.794922,-1.9951172 l 1.195313,-0.1142578 q 0.158203,1.1953125 1.599609,1.1953125 1.40625,0 1.40625,-1.3007813 0,-1.2041016 -1.661133,-1.2041016 h -0.536132 v -0.9580078 h 0.500976 q 0.703125,0 1.107422,-0.3164062 0.404297,-0.3164063 0.404297,-0.8876952 0,-0.527344 -0.325195,-0.826172 -0.325196,-0.307617 -0.949219,-0.307617 -0.597656,0 -0.966797,0.307617 -0.369141,0.307617 -0.421875,0.878906 l -1.186523,-0.105469 q 0.114257,-0.958007 0.799804,-1.485351 0.694336,-0.527344 1.810547,-0.527344 1.142578,0 1.792969,0.527344 0.65039,0.518555 0.65039,1.379883 0,0.6591794 -0.377929,1.1425779 -0.37793,0.4833984 -1.168946,0.6591797 v 0.017578 q 0.799805,0.079102 1.265625,0.5449219 0.465821,0.4570312 0.465821,1.2304687 z"
   id="text65"
   style="font-size:18px;line-height:0%;font-family:Arial;text-align:center;text-anchor:middle;fill:#111111;stroke-width:0.75"
   class="key"
   aria-label="³" />&#10;	<path
   d="m 107.26172,-1.2392578 h -1.47656 v -0.2548828 l 2.9707,-3.225586 -2.95313,-3.2695312 v -0.272461 h 1.45899 l 2.96191,3.2607422 v 0.553711 z"
   id="text66"
   style="font-size:18px;line-height:0%;font-family:Arial;text-align:center;text-anchor:middle;fill:#111111;stroke-width:0.75"
   class="key"
   aria-label="›" />&#10;	<path
   d="m 144.72949,-1.2392578 -2.95312,-3.2080078 v -0.553711 l 2.95312,-3.2607422 h 1.46778 v 0.272461 l -2.94434,3.2695312 2.96191,3.225586 v 0.2548828 z"
   id="text67"
   style="font-size:18px;line-height:0%;font-family:Arial;text-align:center;text-anchor:middle;fill:#111111;stroke-width:0.75"
   class="key"
   aria-label="‹" />&#10;&#10;	<path
   d="m 179.72314,-1.2041016 q -1.74902,-0.1582031 -2.6455,-1.40625 -0.89649,-1.2568359 -0.89649,-3.515625 0,-2.2236328 0.89649,-3.4804687 0.89648,-1.2656247 2.6455,-1.4150387 v -1.362305 h 1.08985 v 1.362305 q 1.25683,0.131836 2.04785,0.861328 0.79102,0.7294919 1.02832,1.9511716 l -1.62598,0.1230469 q -0.12304,-0.7910156 -0.62402,-1.2568359 -0.3252,-0.2988282 -0.82617,-0.4042969 l -0.009,7.2509765 q 0.46582,-0.1054687 0.83496,-0.3955078 0.5625,-0.4570312 0.70313,-1.40625 l 1.5996,0.1054688 q -0.16699,1.265625 -1.00195,2.0654297 -0.83496,0.7998047 -2.12695,0.9228515 v 1.47656254 h -0.009 -1.08106 z m 0,-8.5693359 q -0.8789,0.140625 -1.32714,0.7998047 -0.5625,0.8349609 -0.5625,2.8125 0,1.8984375 0.59765,2.8125 0.46582,0.711914 1.29199,0.8701172 z"
   id="text68"
   style="font-size:18px;line-height:0%;font-family:Arial;text-align:center;text-anchor:middle;fill:#111111;stroke-width:0.75"
   class="key"
   aria-label="¢" />&#10;	<path
   d="m 217.32275,-6.2314453 h 2.82129 v 1.0986328 h -3.36621 v 1.3535156 h 3.36621 v 1.116211 h -3.36621 V 0 h -1.56445 v -2.6630859 h -3.34863 v -1.116211 h 3.34863 l 0.0176,-1.3535156 h -3.36621 v -1.0986328 h 2.8125 l -3.7002,-6.1523437 h 1.74902 l 3.26075,5.6865234 3.29589,-5.6865234 h 1.74903 z"
   id="text69"
   style="font-size:18px;line-height:0%;font-family:Arial;text-align:center;text-anchor:middle;fill:#111111;stroke-width:0.75"
   class="key"
   aria-label="¥" />&#10;	<path
   d="m 252.8833,-0.44824219 q 0,0.93164063 -0.16699,1.55566409 -0.16699,0.6240234 -0.51856,1.1953125 H 251.1167 Q 251.94287,1.1074219 251.94287,0 h -0.77344 v -1.7138672 h 1.71387 z"
   id="text70"
   style="font-size:18px;line-height:0%;font-family:Arial;text-align:center;text-anchor:middle;fill:#111111;stroke-width:0.75"
   class="key"
   aria-label="‚" />&#10;	<path
   d="m 287.1167,-8.3671875 v -1.2832031 q 0,-0.8525394 0.1582,-1.4941404 0.16699,-0.650391 0.54492,-1.239258 h 1.06348 q -0.83496,1.204101 -0.83496,2.302734 h 0.78223 v 1.7138675 z"
   id="text71"
   style="font-size:18px;line-height:0%;font-family:Arial;text-align:center;text-anchor:middle;fill:#111111;stroke-width:0.75"
   class="key"
   aria-label="‘" />&#10;	<path
   d="m 324.8833,-11.109375 q 0,0.922852 -0.16699,1.5556641 -0.16699,0.6240234 -0.51856,1.1865234 h -1.08105 q 0.82617,-1.1953125 0.82617,-2.2851565 h -0.77344 v -1.731445 h 1.71387 z"
   id="text72"
   style="font-size:18px;line-height:0%;font-family:Arial;text-align:center;text-anchor:middle;fill:#111111;stroke-width:0.75"
   class="key"
   aria-label="’" />&#10;	<text
   x="360"
   class="key"
   id="text73" />&#10;</g>&#10;&#10;&#10;<path
   d="m 10.685547,55.740234 h 6.105469 l -1.371094,-1.371093 0.703125,-0.703125 2.308594,2.308593 v -2.25 h 0.996093 v 5.039063 h -0.996093 v -2.261719 l -2.308594,2.308594 -0.703125,-0.703125 1.371094,-1.371094 h -6.105469 z"
   id="text74"
   style="font-size:12px;line-height:0%;font-family:Arial;fill:#111111"
   class="mod big"
   aria-label="⇥" />&#10;&#10;<g
   transform="translate(73,62)"
   id="g86">&#10;	<path
   d="M 4.8515625,0 V -1.9248047 H 6.5566406 V 0 Z m -5.68652344,0 v -1.9248047 h 1.6875 V 0 Z M -6.5566406,0 v -1.9248047 h 1.7138672 V 0 Z"
   id="text75"
   style="font-size:18px;line-height:0%;font-family:Arial;text-align:center;text-anchor:middle;fill:#111111;stroke-width:0.75"
   class="key"
   aria-label="…" />&#10;	<path
   d="M 30.722168,3.5771484 V 2.4345703 H 41.20752 v 1.1425781 z"
   id="text76"
   style="font-size:18px;line-height:0%;font-family:Arial;text-align:center;text-anchor:middle;fill:#111111;stroke-width:0.75"
   class="key"
   aria-label="_" />&#10;	<path
   d="M 70.782715,3.7353516 V -13.042969 h 3.577148 v 1.133789 H 72.312012 V 2.6015625 h 2.047851 v 1.1337891 z"
   id="text77"
   style="font-size:18px;line-height:0%;font-family:Arial;text-align:center;text-anchor:middle;fill:#111111;stroke-width:0.75"
   class="key"
   aria-label="[" />&#10;	<path
   d="M 105.64014,3.7353516 V 2.6015625 h 2.04785 V -11.90918 h -2.04785 v -1.133789 h 3.57715 V 3.7353516 Z"
   id="text78"
   style="font-size:18px;line-height:0%;font-family:Arial;text-align:center;text-anchor:middle;fill:#111111;stroke-width:0.75"
   class="key"
   aria-label="]" />&#10;	<path
   d="m 146.69385,-5.9150391 -2.71582,-5.5634769 -2.68946,5.5634769 h -1.42382 l 3.23437,-6.4687499 h 1.78418 l 3.25195,6.4687499 z"
   id="text79"
   style="font-size:18px;line-height:0%;font-family:Arial;text-align:center;text-anchor:middle;fill:#111111;stroke-width:0.75"
   class="key"
   aria-label="^" />&#10;&#10;	<path
   d="M 180.65479,-3.4892578 H 179.354 l -0.21093,-8.8945312 h 1.72265 z M 179.12549,0 v -1.7666016 h 1.70508 V 0 Z"
   id="text80"
   style="font-size:18px;line-height:0%;font-family:Arial;text-align:center;text-anchor:middle;fill:#111111;stroke-width:0.75"
   class="key"
   aria-label="!" />&#10;	<path
   d="m 211.63184,-5.0185547 v -1.8017578 l 8.74511,-3.6738285 v 1.353516 l -7.54101,3.2167969 7.54101,3.2255859 v 1.3447266 z"
   id="text81"
   style="font-size:18px;line-height:0%;font-family:Arial;text-align:center;text-anchor:middle;fill:#111111;stroke-width:0.75"
   class="key"
   aria-label="&lt;" />&#10;	<path
   d="m 247.63184,-1.3535156 v -1.3447266 l 7.54101,-3.2255859 -7.54101,-3.2167969 v -1.353516 l 8.74511,3.6738285 v 1.8017578 z"
   id="text82"
   style="font-size:18px;line-height:0%;font-family:Arial;text-align:center;text-anchor:middle;fill:#111111;stroke-width:0.75"
   class="key"
   aria-label="&gt;" />&#10;	<path
   d="m 283.62305,-7.5234375 v -1.3007813 h 8.74511 v 1.3007813 z m 0,4.5 v -1.3007812 h 8.74511 v 1.3007812 z"
   id="text83"
   style="font-size:18px;line-height:0%;font-family:Arial;text-align:center;text-anchor:middle;fill:#111111;stroke-width:0.75"
   class="key"
   aria-label="=" />&#10;	<path
   d="m 328.48242,0.10546875 q -1.55566,0 -2.61914,-1.11621095 -0.65918,0.57128907 -1.50293,0.87890626 -0.84375,0.30761719 -1.7666,0.30761719 -1.88965,0 -2.92676,-0.90527344 -1.03711,-0.91406251 -1.03711,-2.53125001 0,-2.4433594 3.01465,-3.7705078 -0.29004,-0.5449219 -0.50098,-1.2919922 -0.21093,-0.7470703 -0.21093,-1.3623047 0,-1.3183591 0.7998,-2.0390621 0.8086,-0.729493 2.28516,-0.729493 1.32715,0 2.13574,0.667969 0.81738,0.667969 0.81738,1.8281252 0,1.0371094 -0.80859,1.8457031 -0.79981,0.8085938 -2.78613,1.5996094 0.97558,1.8017578 2.57519,3.6210937 0.99317,-1.4589843 1.50293,-3.6035156 l 1.27442,0.3779297 q -0.55372,2.1884766 -1.86329,4.1220703 0.84375,0.8613281 1.82813,0.8613281 0.62402,0 1.02832,-0.140625 v 1.18652348 q -0.49219,0.19335937 -1.23926,0.19335937 z M 325.63477,-9.9580078 q 0,-0.6328122 -0.43946,-1.0283202 -0.43945,-0.404297 -1.19531,-0.404297 -0.84375,0 -1.2832,0.457031 -0.43946,0.448242 -0.43946,1.2480471 0,1.0019531 0.57129,2.1445313 1.15137,-0.4658203 1.6875,-0.8085938 0.54492,-0.3427734 0.81739,-0.7382812 0.28125,-0.3955078 0.28125,-0.8701172 z m -0.6504,8.0507812 q -1.74023,-2.0566406 -2.80371,-4.0166015 -2.07421,0.8789062 -2.07421,2.6455078 0,1.0634765 0.67675,1.6875 0.68555,0.61523436 1.86328,0.61523436 0.62403,0 1.24805,-0.23730466 0.62402,-0.2460938 1.08984,-0.694336 z"
   id="text84"
   style="font-size:18px;line-height:0%;font-family:Arial;text-align:center;text-anchor:middle;fill:#111111;stroke-width:0.75"
   class="key"
   aria-label="&amp;" />&#10;	<path
   d="m 367.58057,-6.6357422 q 0,1.6347656 -0.50977,2.9619141 -0.50098,1.3183593 -1.40625,2.0390625 -0.89648,0.7207031 -2.01269,0.7207031 -0.87012,0 -1.34473,-0.3867187 -0.47461,-0.3867188 -0.47461,-1.1601563 l 0.0264,-0.6152344 h -0.0527 q -0.58008,1.0810547 -1.4414,1.6259766 -0.85254,0.5361328 -1.84571,0.5361328 -1.37988,0 -2.14453,-0.8964844 -0.75586,-0.8964844 -0.75586,-2.4873047 0,-1.4414062 0.5625,-2.680664 0.57129,-1.2392578 1.59082,-1.96875 1.01953,-0.7294922 2.25879,-0.7294922 1.92481,0 2.64551,1.5996094 h 0.0527 l 0.34278,-1.40625 h 1.37109 l -1.01953,4.4472656 q -0.3252,1.4414062 -0.3252,2.2236328 0,0.8261719 0.71192,0.8261719 0.70312,0 1.29199,-0.6064453 0.59766,-0.6064454 0.94043,-1.6699219 0.34277,-1.0634766 0.34277,-2.3554688 0,-1.5732422 -0.67675,-2.7861328 -0.67676,-1.2216801 -1.95118,-1.8720701 -1.27441,-0.65918 -2.97949,-0.65918 -2.12695,0 -3.76172,0.94043 -1.63476,0.940429 -2.5664,2.7158201 -0.93164,1.7666016 -0.93164,3.9638672 0,1.6962891 0.68554,2.9970703 0.69434,1.29199221 1.99512,1.98632815 1.30957,0.69433595 3.04981,0.69433595 1.27441,0 2.58398,-0.3339844 1.30957,-0.3251953 2.71582,-1.08984374 l 0.4834,0.984375 Q 363.75732,1.6875 362.26318,2.0830078 q -1.48535,0.4042969 -3.01464,0.4042969 -2.11817,0 -3.70899,-0.84375 -1.58203,-0.83496095 -2.42578,-2.38183595 -0.83496,-1.55566405 -0.83496,-3.57714845 0,-2.4609375 1.08984,-4.4736328 1.09864,-2.0126955 3.04102,-3.1289065 1.94238,-1.125 4.35058,-1.125 2.11817,0 3.65625,0.799805 1.53809,0.791016 2.34668,2.241211 0.81739,1.4501952 0.81739,3.3662108 z m -5.32618,0.070312 q 0,-0.8964844 -0.58007,-1.4414062 -0.58008,-0.553711 -1.54688,-0.553711 -0.88769,0 -1.58203,0.5625 -0.68555,0.553711 -1.08105,1.546875 -0.39551,0.984375 -0.39551,2.1357422 0,1.0546875 0.41308,1.6523438 0.42188,0.5976562 1.292,0.5976562 1.09863,0 2.01269,-0.9228516 0.91406,-0.9228515 1.26563,-2.3027343 0.20214,-0.8085938 0.20214,-1.2744141 z"
   id="text85"
   style="font-size:18px;line-height:0%;font-family:Arial;text-align:center;text-anchor:middle;fill:#111111;stroke-width:0.75"
   class="key"
   aria-label="@" />&#10;&#10;  <path
   d="m 396.79541,0 h -1.58203 v -10.582031 q 0,-1.300782 0.57129,-1.872071 0.57129,-0.571289 1.74902,-0.571289 0.65918,0 1.11621,0.105469 v 1.204102 q -0.39551,-0.07031 -0.70312,-0.07031 -0.60645,0 -0.87891,0.307617 -0.27246,0.307618 -0.27246,1.116211 z"
   id="text86"
   style="font-size:18px;line-height:0%;font-family:Arial;text-align:center;text-anchor:middle;fill:#111111;stroke-width:0.75"
   class="key"
   aria-label="ſ" />&#10;&#10;</g>&#10;&#10;&#10;<g
   transform="translate(84,98)"
   id="g96">&#10;	<path
   d="M 1.0766602,0.17578125 -2.5004883,-13.042969 h 1.3886719 L 2.5004883,0.17578125 Z"
   id="text87"
   style="font-size:18px;line-height:0%;font-family:Arial;text-align:center;text-anchor:middle;fill:#111111;stroke-width:0.75"
   class="key"
   aria-label="\" />&#10;	<path
   d="M 33.499512,0.17578125 37.111816,-13.042969 h 1.388672 L 34.92334,0.17578125 Z"
   id="text88"
   style="font-size:18px;line-height:0%;font-family:Arial;text-align:center;text-anchor:middle;fill:#111111;stroke-width:0.75"
   class="key"
   aria-label="/" />&#10;	<path
   d="m 73.50293,3.7353516 q -1.116211,0 -1.722657,-0.6767578 -0.597656,-0.6767579 -0.597656,-1.8984376 v -3.1728515 q 0,-1.0283203 -0.46582,-1.5292969 -0.457031,-0.5097656 -1.423828,-0.5537109 v -1.116211 q 0.958008,-0.035156 1.423828,-0.5361328 0.46582,-0.5097656 0.46582,-1.5380859 v -3.1816402 q 0,-1.239258 0.580078,-1.907227 0.588867,-0.667969 1.740235,-0.667969 h 1.186523 v 1.133789 h -0.553711 q -0.799805,0 -1.142578,0.47461 -0.333984,0.46582 -0.333984,1.415039 v 3.128906 q 0,0.8261719 -0.465821,1.4326172 -0.46582,0.5976562 -1.239257,0.7822266 v 0.017578 q 0.782226,0.1845703 1.239257,0.7822265 0.465821,0.5976563 0.465821,1.4501953 v 3.13769536 q 0,0.93164064 0.333984,1.40625004 0.342773,0.4833984 1.142578,0.4833984 h 0.553711 v 1.1337891 z"
   id="text89"
   style="font-size:18px;line-height:0%;font-family:Arial;text-align:center;text-anchor:middle;fill:#111111;stroke-width:0.75"
   class="key"
   aria-label="{" />&#10;	<path
   d="m 105.82031,2.6015625 q 0.79981,0 1.14258,-0.4833984 0.35156,-0.4746094 0.35156,-1.40625004 V -2.4257813 q 0,-0.8613281 0.45703,-1.4589843 0.45704,-0.5976563 1.23926,-0.7734375 v -0.017578 q -0.75586,-0.1757813 -1.23047,-0.7646485 -0.46582,-0.5976562 -0.46582,-1.4501953 v -3.128906 q 0,-0.949219 -0.35156,-1.415039 -0.34277,-0.47461 -1.14258,-0.47461 h -0.52734 v -1.133789 h 1.16016 q 1.15136,0 1.73144,0.667969 0.58887,0.667969 0.58887,1.907227 v 3.1816402 q 0,1.0195312 0.46582,1.5292969 0.46582,0.5097656 1.4414,0.5449218 v 1.116211 q -0.98437,0.035156 -1.45019,0.5449218 -0.45703,0.5097657 -0.45703,1.538086 v 3.1728515 q 0,1.2128907 -0.60645,1.8896485 -0.59765,0.6855469 -1.71386,0.6855469 h -1.16016 V 2.6015625 Z"
   id="text90"
   style="font-size:18px;line-height:0%;font-family:Arial;text-align:center;text-anchor:middle;fill:#111111;stroke-width:0.75"
   class="key nubkey"
   aria-label="}" />&#10;	<path
   d="m 144.50537,-9.7910156 2.32031,-0.9052734 0.39551,1.1601562 -2.47851,0.6416015 1.62597,2.1972657 -1.0459,0.6328125 -1.31836,-2.2675782 -1.37109,2.2500001 -1.0459,-0.6328125 1.66114,-2.1796876 -2.46094,-0.6416015 0.39551,-1.1777342 2.34668,0.9404295 -0.10547,-2.6103515 h 1.19531 z"
   id="text91"
   style="font-size:18px;line-height:0%;font-family:Arial;text-align:center;text-anchor:middle;fill:#111111;stroke-width:0.75"
   class="key"
   aria-label="*" />&#10;&#10;	<path
   d="m 184.3374,-9.0703125 q 0,0.6591797 -0.19336,1.1777344 -0.19336,0.5185547 -0.55371,0.9580078 -0.36035,0.4394531 -1.17773,1.0371094 l -0.70313,0.5185547 q -0.63281,0.4570312 -0.94043,0.9667968 -0.30761,0.5009766 -0.3164,1.0986328 h -1.53809 q 0.0176,-0.6064453 0.18457,-1.0634765 0.17578,-0.4570313 0.44824,-0.8085938 0.27246,-0.3515625 0.61524,-0.6240234 0.34277,-0.28125 0.69433,-0.5273438 0.35157,-0.2548828 0.68555,-0.5009765 0.34277,-0.2548828 0.60645,-0.5625 0.26367,-0.3076172 0.42187,-0.694336 0.16699,-0.3867187 0.16699,-0.9052734 0,-1.001953 -0.68554,-1.582031 -0.67676,-0.580078 -1.90723,-0.580078 -1.23047,0 -1.95117,0.615234 -0.72071,0.6152344 -0.84375,1.6875 l -1.61719,-0.1054688 q 0.22852,-1.7402342 1.37109,-2.6718752 1.14258,-0.93164 3.02344,-0.93164 1.95996,0 3.08496,0.93164 1.125,0.922852 1.125,2.5664065 z M 178.84424,0 v -1.7666016 h 1.71387 V 0 Z"
   id="text92"
   style="font-size:18px;line-height:0%;font-family:Arial;text-align:center;text-anchor:middle;fill:#111111;stroke-width:0.75"
   class="key"
   aria-label="?" />&#10;	<path
   d="m 214.11914,-4.6757812 q 0,-2.5400391 0.79102,-4.5615235 0.7998,-2.0214843 2.45214,-3.8056643 h 1.5293 q -1.64355,1.828125 -2.41699,3.8847659 -0.76465,2.0566406 -0.76465,4.5 0,2.4345703 0.75586,4.48242185 0.76465,2.04785155 2.42578,3.90234375 h -1.5293 q -1.66113,-1.7929688 -2.45214,-3.81445312 -0.79102,-2.03027348 -0.79102,-4.55273438 z"
   id="text93"
   style="font-size:18px;line-height:0%;font-family:Arial;text-align:center;text-anchor:middle;fill:#111111;stroke-width:0.75"
   class="key nubkey"
   aria-label="(" />&#10;	<path
   d="m 253.88086,-4.640625 q 0,2.5400391 -0.79981,4.56152344 -0.79101,2.02148436 -2.44335,3.80566406 h -1.5293 q 1.65234,-1.8457031 2.41699,-3.88476562 0.76465,-2.04785158 0.76465,-4.49999998 0,-2.4521485 -0.77344,-4.5 -0.76465,-2.0478519 -2.4082,-3.8847659 h 1.5293 q 1.66113,1.792969 2.45214,3.8232424 0.79102,2.0214844 0.79102,4.5439454 z"
   id="text94"
   style="font-size:18px;line-height:0%;font-family:Arial;text-align:center;text-anchor:middle;fill:#111111;stroke-width:0.75"
   class="key"
   aria-label=")" />&#10;	<path
   d="m 285.80273,-4.078125 v -1.40625 h 4.39454 v 1.40625 z"
   id="text95"
   style="font-size:18px;line-height:0%;font-family:Arial;text-align:center;text-anchor:middle;fill:#111111;stroke-width:0.75"
   class="key"
   aria-label="-" />&#10;	<path
   d="m 323.14307,-7.6904297 v -1.8193359 h 1.71386 v 1.8193359 z m 0,7.6904297 v -1.8193359 h 1.71386 V 0 Z"
   id="text96"
   style="font-size:18px;line-height:0%;font-family:Arial;text-align:center;text-anchor:middle;fill:#111111;stroke-width:0.75"
   class="key"
   aria-label=":" />&#10;&#10;  &#10;&#10;</g>&#10;&#10;<g
   transform="translate(101,134)"
   id="g106">&#10;    <path
   d="M 2.8696289,-7.7783203 2.184082,-4.5351562 h 2.2851563 v 0.9492187 H 1.9819336 L 1.2084961,0 H 0.24169922 L 0.99755859,-3.5859375 H -2.1928711 L -2.9311523,0 h -0.9667969 l 0.7382812,-3.5859375 h -1.7666015 v -0.9492187 h 1.977539 l 0.6855469,-3.2431641 h -2.2148437 v -0.9492188 h 2.4082031 l 0.7822265,-3.5859379 h 0.96679692 l -0.77343752,3.5859379 h 3.1904297 l 0.7734375,-3.5859379 h 0.9667969 l -0.7734375,3.5859379 h 1.8544922 v 0.9492188 z m -4.1396484,0 -0.703125,3.2431641 H 1.2084961 L 1.894043,-7.7783203 Z"
   id="text97"
   style="font-size:18px;line-height:0%;font-family:Arial;text-align:center;text-anchor:middle;fill:#111111;stroke-width:0.75"
   class="key"
   aria-label="#" />&#10;    <path
   d="M 35.547363,-0.17578125 Q 31.803223,-0.33398438 31.187988,-3.3310547 L 32.682129,-3.65625 q 0.219726,1.0458984 0.914062,1.5732422 0.703125,0.5273437 1.951172,0.6064453 v -4.359375 q -1.555664,-0.3867187 -2.15332,-0.6943359 -0.588867,-0.3076172 -0.958008,-0.703125 -0.360351,-0.4042969 -0.527344,-0.8613282 -0.158203,-0.4570312 -0.158203,-1.0986328 0,-1.3623046 0.984375,-2.1269536 0.993164,-0.773437 2.8125,-0.852539 v -1.151367 h 1.089844 v 1.151367 q 1.643555,0.0791 2.540039,0.747071 0.896484,0.659179 1.265625,2.0654294 l -1.529297,0.2900391 q -0.175781,-0.8261719 -0.711914,-1.2832035 -0.536133,-0.46582 -1.564453,-0.5625 v 3.9111332 q 1.573242,0.3691406 2.232422,0.6767578 0.667969,0.3076172 1.054687,0.6943359 0.386719,0.3867188 0.588868,0.9140625 0.202148,0.5273438 0.202148,1.2392578 0,1.4501954 -1.063477,2.3291016 -1.063476,0.87890626 -3.014648,0.97558595 V 1.2480469 h -1.089844 z m 3.65625,-3.28710935 q 0,-0.5712891 -0.228515,-0.9404297 -0.228516,-0.3691406 -0.65918,-0.6064453 -0.430664,-0.2460938 -1.678711,-0.5712891 v 4.1132813 q 1.239258,-0.079102 1.898438,-0.5888672 0.667968,-0.5097657 0.667968,-1.40625 z m -5.941406,-5.7480469 q 0,0.5185547 0.219727,0.8789062 0.219726,0.3603516 0.65039,0.6064454 0.439453,0.2460937 1.415039,0.4921875 v -3.7001956 q -2.285156,0.123047 -2.285156,1.7226565 z"
   id="text98"
   style="font-size:18px;line-height:0%;font-family:Arial;text-align:center;text-anchor:middle;fill:#111111;stroke-width:0.75"
   class="key"
   aria-label="$" />&#10;    <path
   d="M 71.270508,3.8144531 V -13.042969 h 1.458984 V 3.8144531 Z"
   id="text99"
   style="font-size:18px;line-height:0%;font-family:Arial;text-align:center;text-anchor:middle;fill:#111111;stroke-width:0.75"
   class="key"
   aria-label="|" />&#10;    <path
   d="m 110.16211,-4.8603516 q -0.60645,0 -1.24805,-0.1933593 -0.63281,-0.1933594 -1.27441,-0.421875 -1.13379,-0.3955078 -1.90723,-0.3955078 -0.58887,0 -1.09863,0.1845703 -0.50977,0.1757812 -1.08106,0.5888672 v -1.256836 q 0.97559,-0.7382812 2.31153,-0.7382812 0.45703,0 1.01074,0.1142578 0.5625,0.1142578 1.70508,0.5185547 0.27246,0.1054687 0.7998,0.2548828 0.52735,0.140625 0.92285,0.140625 1.14258,0 2.14454,-0.8085938 v 1.3095703 q -0.50977,0.3691407 -1.02832,0.5361329 -0.50977,0.1669921 -1.25684,0.1669921 z"
   id="text100"
   style="font-size:18px;line-height:0%;font-family:Arial;text-align:center;text-anchor:middle;fill:#111111;stroke-width:0.75"
   class="key"
   aria-label="~" />&#10;&#10;    <path
   d="m 144.83496,-10.555664 -2.90039,-2.443359 v -0.254883 h 1.81934 l 1.90722,2.522461 v 0.175781 z"
   id="text101"
   style="font-size:18px;line-height:0%;font-family:Arial;text-align:center;text-anchor:middle;fill:#111111;stroke-width:0.75"
   class="key"
   aria-label="`" />&#10;    <path
   d="m 180.6416,-5.34375 v 3.7617188 h -1.29199 V -5.34375 h -3.72656 v -1.2832031 h 3.72656 v -3.7617189 h 1.29199 v 3.7617189 h 3.72656 V -5.34375 Z"
   id="text102"
   style="font-size:18px;line-height:0%;font-family:Arial;text-align:center;text-anchor:middle;fill:#111111;stroke-width:0.75"
   class="key"
   aria-label="+" />&#10;    <path
   d="m 223.36084,-3.8144531 q 0,1.8896484 -0.71191,2.90917966 -0.71192,1.01074219 -2.10059,1.01074219 -1.37109,0 -2.07422,-0.984375 -0.69433,-0.99316405 -0.69433,-2.93554685 0,-2.0039063 0.66796,-2.9794922 0.67676,-0.984375 2.13575,-0.984375 1.4414,0 2.10937,1.0107422 0.66797,1.0019531 0.66797,2.953125 z M 212.62939,0 h -1.3623 l 8.10352,-12.383789 h 1.37988 z m -1.16894,-12.489258 q 1.39746,0 2.07422,0.984375 0.67676,0.984375 0.67676,2.9355471 0,1.9072265 -0.70313,2.9355468 -0.69434,1.0283204 -2.08301,1.0283204 -1.38867,0 -2.09179,-1.0195313 -0.69434,-1.0195312 -0.69434,-2.9443359 0,-1.9599611 0.67676,-2.9355471 0.67676,-0.984375 2.14453,-0.984375 z m 10.59961,8.6748049 q 0,-1.5732422 -0.34277,-2.2763672 -0.33399,-0.7119141 -1.13379,-0.7119141 -0.79981,0 -1.16016,0.694336 -0.35156,0.6943359 -0.35156,2.2939453 0,1.5029297 0.34277,2.2324219 0.35156,0.72070307 1.15137,0.72070307 0.77344,0 1.13379,-0.72949217 0.36035,-0.7382813 0.36035,-2.2236328 z m -9.14063,-4.7548828 q 0,-1.5468751 -0.33398,-2.2587891 -0.33399,-0.711914 -1.125,-0.711914 -0.82617,0 -1.17774,0.703125 -0.35156,0.694336 -0.35156,2.2675781 0,1.5205078 0.35156,2.25 0.35157,0.7207031 1.16016,0.7207031 0.76465,0 1.11621,-0.7382813 0.36035,-0.7382812 0.36035,-2.2324218 z"
   id="text103"
   style="font-size:18px;line-height:0%;font-family:Arial;text-align:center;text-anchor:middle;fill:#111111;stroke-width:0.75"
   class="key"
   aria-label="%" />&#10;    <path
   d="m 254.23682,-8.4902344 h -1.24805 l -0.17578,-3.8935546 h 1.61719 z m -3.24317,0 h -1.23926 l -0.18457,-3.8935546 h 1.61719 z"
   id="text104"
   style="font-size:18px;line-height:0%;font-family:Arial;text-align:center;text-anchor:middle;fill:#111111;stroke-width:0.75"
   class="key"
   aria-label="&quot;" />&#10;    <path
   d="m 288.61963,-8.4902344 h -1.23926 l -0.18457,-3.8935546 h 1.61719 z"
   id="text105"
   style="font-size:18px;line-height:0%;font-family:Arial;text-align:center;text-anchor:middle;fill:#111111;stroke-width:0.75"
   class="key"
   aria-label="'" />&#10;    <path
   d="m 324.8833,-1.8193359 v 1.37109371 q 0,0.93164063 -0.16699,1.55566409 -0.16699,0.6240234 -0.51856,1.1953125 H 323.1167 Q 323.94287,1.1074219 323.94287,0 h -0.77344 v -1.8193359 z m -1.71387,-5.8710938 v -1.8193359 h 1.71387 v 1.8193359 z"
   id="text106"
   style="font-size:18px;line-height:0%;font-family:Arial;text-align:center;text-anchor:middle;fill:#111111;stroke-width:0.75"
   class="key"
   aria-label=";" />&#10;</g>&#10;&#10;&#10;<g
   transform="translate(561,26)"
   id="g110">&#10;    <path
   d="m -4.3769531,-7.5234375 v -1.3007813 h 8.7451172 v 1.3007813 z m 0,4.5 v -1.3007812 h 8.7451172 v 1.3007812 z"
   id="text107"
   style="font-size:18px;line-height:0%;font-family:Arial;text-align:center;text-anchor:middle;fill:#111111;stroke-width:0.75"
   class="key"
   aria-label="=" />&#10;    <path
   d="M 35.261719,-8.4199219 V -10.02832 h 1.476562 v 1.6083981 z M 31.631836,-5.34375 v -1.2832031 h 8.745117 V -5.34375 Z m 3.629883,3.3837891 v -1.6083985 h 1.476562 v 1.6083985 z"
   id="text108"
   style="font-size:18px;line-height:0%;font-family:Arial;text-align:center;text-anchor:middle;fill:#111111;stroke-width:0.75"
   class="key"
   aria-label="÷" />&#10;    <path
   d="m 71.063965,-7.3652344 h 1.854492 v 2.2324219 h -1.854492 z"
   id="text109"
   style="font-size:18px;line-height:0%;font-family:Arial;text-align:center;text-anchor:middle;fill:#111111;stroke-width:0.75"
   class="key"
   aria-label="⋅" />&#10;    <path
   d="m 103.63184,-5.34375 v -1.2832031 h 8.74511 V -5.34375 Z"
   id="text110"
   style="font-size:18px;line-height:0%;font-family:Arial;text-align:center;text-anchor:middle;fill:#111111;stroke-width:0.75"
   class="key"
   aria-label="−" />&#10;</g>&#10;<g
   transform="translate(561,62)"
   id="g113">&#10;    <path
   d="m -0.37792969,-8.15625 q -0.58886719,0.5009766 -1.73144531,1.0458984 v -0.6328125 q 1.30957031,-1.1162109 1.95117188,-2.3730469 h 0.31640624 q 0.64160157,1.256836 1.95117188,2.3730469 v 0.6328125 Q 0.96679688,-7.6552734 0.37792969,-8.15625 v 6.7324219 Q 0.96679688,-1.9248047 2.109375,-2.4697266 v 0.6328125 Q 0.79980469,-0.72070312 0.15820312,0.53613281 H -0.15820312 Q -0.79980469,-0.72070312 -2.109375,-1.8369141 v -0.6328125 q 1.14257812,0.5449219 1.73144531,1.0458985 z"
   id="text111"
   style="font-size:18px;line-height:0%;font-family:Arial;text-align:center;text-anchor:middle;fill:#111111;stroke-width:0.75"
   class="key"
   aria-label="↕" />&#10;    <path
   d="m 35.62207,-8.15625 q -0.588867,0.5009766 -1.731445,1.0458984 v -0.6328125 q 1.30957,-1.1162109 1.951172,-2.3730469 h 0.316406 q 0.641602,1.256836 1.951172,2.3730469 v 0.6328125 Q 36.966797,-7.6552734 36.37793,-8.15625 v 8.69238281 h -0.75586 z"
   id="text112"
   style="font-size:18px;line-height:0%;font-family:Arial;text-align:center;text-anchor:middle;fill:#111111;stroke-width:0.75"
   class="key"
   aria-label="↑" />&#10;    <path
   d="m 67.205566,-1.2568359 q 0.37793,0.52734371 0.896485,0.95800777 0.404297,0.33398438 0.896484,0.61523438 0,0 -0.430664,0.93164065 -0.615234,-0.35156252 -1.116211,-0.77343752 -0.65918,-0.53613282 -1.125,-1.18652344 z m 7.78711,1.57324215 q 0.492187,-0.28125 0.896484,-0.61523438 0.457031,-0.38671874 0.896485,-0.95800777 0,0 0.878906,0.53613278 -0.518555,0.68554687 -1.125,1.1953125 -0.500977,0.421875 -1.125,0.77343752 z m 1.792969,-8.41113285 q -0.386719,-0.5273437 -0.896485,-0.9580078 -0.404297,-0.3339844 -0.896484,-0.6152344 0,0 0.421875,-0.9316402 0.624023,0.351562 1.125,0.7734371 0.65039,0.5361328 1.125,1.1865235 z m -7.78711,-1.5732422 q -0.492187,0.28125 -0.896484,0.6152344 -0.518555,0.4306641 -0.896485,0.9580078 0,0 -0.878906,-0.5449218 0.430664,-0.6064454 1.125,-1.1865235 0.500977,-0.4218751 1.116211,-0.7734371 z m 1.652344,10.7050782 q 0.667969,0.1933593 1.344726,0.1933593 0.676758,0 1.344727,-0.1933593 0,0 0.333984,0.9667969 -0.834961,0.2373046 -1.678711,0.2373046 -0.84375,0 -1.6875,-0.2373046 z m 7.057617,-4.3681641 q 0.140625,-0.6416016 0.140625,-1.3447265 0,-0.703125 -0.140625,-1.3447266 0,0 0.966797,-0.3427734 0.175781,0.7998046 0.175781,1.6875 0,0.8876953 -0.175781,1.6874999 z m -4.368164,-7.0576173 q -0.667969,-0.193359 -1.344727,-0.193359 -0.676757,0 -1.344726,0.193359 0,0 -0.342774,-0.966797 0.84375,-0.237304 1.6875,-0.237304 0.84375,0 1.678711,0.237304 z m -7.048828,4.3681642 q -0.140625,0.6416016 -0.140625,1.3447266 0,0.7031249 0.140625,1.3447265 0,0 -0.966797,0.3427734 -0.175781,-0.7998046 -0.175781,-1.6874999 0,-0.8876954 0.175781,-1.6875 z M 71.38916,-11.43457 v -0.878907 h 6.512695 l -1.160156,-1.362304 h 1.107422 l 1.538086,1.801758 -1.538086,1.801757 h -1.107422 l 1.160156,-1.362304 z"
   id="text113"
   style="font-size:18px;line-height:0%;font-family:Arial;text-align:center;text-anchor:middle;fill:#111111;stroke-width:0.75"
   class="key"
   aria-label="⃗" />&#10;</g>&#10;<g
   transform="translate(561,98)"
   id="g116">&#10;    <path
   d="m -3.3662109,-2.6103516 q 0.5009765,0.5888672 1.0458984,1.73144535 H -2.953125 Q -4.0693359,-2.1884766 -5.3261719,-2.8300781 v -0.3164063 q 1.256836,-0.6416015 2.3730469,-1.9511718 h 0.6328125 q -0.5449219,1.1425781 -1.0458984,1.7314453 h 8.6923828 v 0.7558593 z"
   id="text114"
   style="font-size:18px;line-height:0%;font-family:Arial;text-align:center;text-anchor:middle;fill:#111111;stroke-width:0.75"
   class="key"
   aria-label="←" />&#10;    <path
   d="m 35.143066,-7.6904297 v -1.8193359 h 1.713868 v 1.8193359 z m 0,7.6904297 v -1.8193359 h 1.713868 V 0 Z"
   id="text115"
   style="font-size:18px;line-height:0%;font-family:Arial;text-align:center;text-anchor:middle;fill:#111111;stroke-width:0.75"
   class="key"
   aria-label=":" />&#10;    <path
   d="m 75.366211,-3.3662109 q -0.500977,-0.5888672 -1.045899,-1.7314453 h 0.632813 q 1.116211,1.3095703 2.373047,1.9511718 v 0.3164063 q -1.256836,0.6416015 -2.373047,1.95117185 h -0.632813 q 0.544922,-1.14257815 1.045899,-1.73144535 h -8.692383 v -0.7558593 z"
   id="text116"
   style="font-size:18px;line-height:0%;font-family:Arial;text-align:center;text-anchor:middle;fill:#111111;stroke-width:0.75"
   class="key"
   aria-label="→" />&#10;</g>&#10;<g
   transform="translate(561,134)"
   id="g119">&#10;    <path
   d="m -3.3662109,-2.6103516 q 0.5009765,0.5888672 1.0458984,1.73144535 H -2.953125 Q -4.0693359,-2.1884766 -5.3261719,-2.8300781 v -0.3164063 q 1.256836,-0.6416015 2.3730469,-1.9511718 h 0.6328125 q -0.5449219,1.1425781 -1.0458984,1.7314453 H 3.3662109 Q 2.8652344,-3.9550781 2.3203125,-5.0976562 H 2.953125 q 1.1162109,1.3095703 2.3730469,1.9511718 v 0.3164063 Q 4.0693359,-2.1884766 2.953125,-0.87890625 H 2.3203125 Q 2.8652344,-2.0214844 3.3662109,-2.6103516 Z"
   id="text117"
   style="font-size:18px;line-height:0%;font-family:Arial;text-align:center;text-anchor:middle;fill:#111111;stroke-width:0.75"
   class="key"
   aria-label="↔" />&#10;    <path
   d="m 36.37793,-1.4238281 q 0.588867,-0.5009766 1.731445,-1.0458985 v 0.6328125 q -1.30957,1.11621098 -1.951172,2.37304691 H 35.841797 Q 35.200195,-0.72070312 33.890625,-1.8369141 v -0.6328125 q 1.142578,0.5449219 1.731445,1.0458985 v -8.6923829 h 0.75586 z"
   id="text118"
   style="font-size:18px;line-height:0%;font-family:Arial;text-align:center;text-anchor:middle;fill:#111111;stroke-width:0.75"
   class="key"
   aria-label="↓" />&#10;    <path
   d="m 65.337891,-4.7197266 h 13.174804 v 1.4941407 H 67.798828 l 2.047852,2.0478515 -1.054688,1.05468753 -3.454101,-3.45410153 z M 78.662109,-6.5654297 H 65.487305 v -1.4941406 h 10.713867 l -2.047852,-2.0478517 1.054688,-1.054687 3.454101,3.4541012 z"
   id="text119"
   style="font-size:18px;line-height:0%;font-family:Arial;text-align:center;text-anchor:middle;fill:#111111;stroke-width:0.75"
   class="key"
   aria-label="⇌" />&#10;</g>&#10;<g
   transform="translate(561,170)"
   id="g121">&#10;    <path
   d="m 25.36084,-3.8144531 q 0,1.8896484 -0.711914,2.90917966 -0.711914,1.01074219 -2.100586,1.01074219 -1.371094,0 -2.074219,-0.984375 -0.694336,-0.99316405 -0.694336,-2.93554685 0,-2.0039063 0.667969,-2.9794922 0.676758,-0.984375 2.135742,-0.984375 1.441406,0 2.109375,1.0107422 0.667969,1.0019531 0.667969,2.953125 z M 14.629395,0 H 13.26709 l 8.103515,-12.383789 h 1.379883 z m -1.168946,-12.489258 q 1.397461,0 2.074219,0.984375 0.676758,0.984375 0.676758,2.9355471 0,1.9072265 -0.703125,2.9355468 -0.694336,1.0283204 -2.083008,1.0283204 -1.388672,0 -2.091797,-1.0195313 -0.694336,-1.0195312 -0.694336,-2.9443359 0,-1.9599611 0.676758,-2.9355471 0.676758,-0.984375 2.144531,-0.984375 z m 10.59961,8.6748049 q 0,-1.5732422 -0.342774,-2.2763672 -0.333984,-0.7119141 -1.133789,-0.7119141 -0.799805,0 -1.160156,0.694336 -0.351563,0.6943359 -0.351563,2.2939453 0,1.5029297 0.342774,2.2324219 0.351562,0.72070307 1.151367,0.72070307 0.773437,0 1.133789,-0.72949217 0.360352,-0.7382813 0.360352,-2.2236328 z m -9.140625,-4.7548828 q 0,-1.5468751 -0.333985,-2.2587891 -0.333984,-0.711914 -1.125,-0.711914 -0.826172,0 -1.177734,0.703125 -0.351563,0.694336 -0.351563,2.2675781 0,1.5205078 0.351563,2.25 0.351562,0.7207031 1.160156,0.7207031 0.764649,0 1.116211,-0.7382813 0.360352,-0.7382812 0.360352,-2.2324218 z"
   id="text120"
   style="font-size:18px;line-height:0%;font-family:Arial;text-align:center;text-anchor:middle;fill:#111111;stroke-width:0.75"
   class="key"
   aria-label="%" />&#10;    <path
   d="m 72.883301,-1.9248047 v 1.47656251 q 0,0.93164063 -0.166992,1.55566409 -0.166993,0.6240234 -0.518555,1.1953125 H 71.116699 Q 71.942871,1.1074219 71.942871,0 h -0.773437 v -1.9248047 z"
   id="text121"
   style="font-size:18px;line-height:0%;font-family:Arial;text-align:center;text-anchor:middle;fill:#111111;stroke-width:0.75"
   class="key"
   aria-label="," />&#10;</g>&#10;&#10;<g
   transform="translate(561,78)"
   id="g122">&#10;    <path
   d="m 108.65039,-5.9765625 v 3.4716797 h -1.29199 v -3.4716797 h -3.72656 v -1.2744141 h 3.72656 v -3.4628904 h 1.29199 v 3.4628904 h 3.72656 v 1.2744141 z M 103.63184,0 v -1.2744141 h 8.74511 V 0 Z"
   id="text122"
   style="font-size:18px;line-height:0%;font-family:Arial;text-align:center;text-anchor:middle;fill:#111111;stroke-width:0.75"
   class="key"
   aria-label="±" />&#10;</g>&#10;<g
   transform="translate(561,150)"
   id="g123">&#10;    <path
   d="m 105.40723,-1.1777344 -4.46485,-4.4648437 4.46485,-4.4648439 v 2.3994142 h 4.9834 V -13.12207 h 4.13085 l -0.009,9.5449216 h -9.10547 z m -0.87891,-5.6513672 v -1.1513671 l -2.33789,2.3378906 2.33789,2.3378906 v -1.1513672 h 9.10547 l 0.009,-7.7871093 h -2.37305 l -0.009,5.4140624 z"
   id="text123"
   style="font-size:18px;line-height:0%;font-family:Arial;text-align:center;text-anchor:middle;fill:#111111;stroke-width:0.75"
   class="key"
   aria-label="⏎" />&#10;</g>&#10;&#10;<path
   d="m 21.116211,26.263672 q -1.643555,0 -2.891602,-0.74707 -1.248047,-0.75586 -1.951172,-2.074219 -0.694335,-1.31836 -0.694335,-3.014649 0,-0.703125 0.140625,-1.520507 0.149414,-0.817383 0.65039,-1.749024 l 0.817383,0.413086 q -0.430664,0.834961 -0.5625,1.538086 -0.123047,0.703125 -0.123047,1.327148 0,1.458985 0.580078,2.566407 0.588867,1.098632 1.625977,1.713867 1.045898,0.615234 2.408203,0.615234 1.335937,0 2.311523,-0.606445 0.984375,-0.606445 1.520508,-1.696289 0.544922,-1.089844 0.544922,-2.53125 0,-0.509766 -0.08789,-0.958008 l 0.887696,-0.219727 q 0.123047,0.632813 0.123047,1.248047 0,1.652344 -0.65918,2.944336 -0.65918,1.283203 -1.854492,2.021485 -1.186524,0.729492 -2.786133,0.729492 z m -2.900391,-5.458008 -1.327148,-3.111328 -0.369141,-0.149414 -3.049804,1.423828 -0.413086,-0.852539 4.174804,-1.907227 1.845703,4.201172 z"
   id="t1"
   style="font-size:18px;line-height:0%;font-family:'Gentium Plus Compact';text-align:center;text-anchor:middle;fill:#111111"
   class="dead"
   aria-label="↻" />&#10;<path
   d="m 450.99805,18.476562 q 0.0352,0.07031 0.0352,0.166993 0,0.166992 -0.11425,0.298828 -0.10547,0.123047 -0.28125,0.123047 -0.167,0 -0.30762,-0.114258 -0.13184,-0.123047 -0.13184,-0.307617 0,-0.158203 0.12305,-0.290039 0.13183,-0.131836 0.30762,-0.131836 0.26367,0 0.36914,0.254882 z m 2.76855,6.670899 q 0.0352,0.105469 0.0352,0.158203 0,0.158203 -0.12305,0.290039 -0.12305,0.131836 -0.29883,0.131836 -0.1582,0 -0.29004,-0.123047 -0.13183,-0.123047 -0.13183,-0.307617 0,-0.149414 0.11426,-0.28125 0.11425,-0.131836 0.28125,-0.131836 0.28125,0 0.41308,0.263672 z m -4.03418,-6.020508 q 0.13184,0.114258 0.13184,0.290039 0,0.421875 -0.41309,0.421875 -0.17578,0 -0.29883,-0.114258 -0.12304,-0.123047 -0.12304,-0.290039 0,-0.175781 0.12304,-0.298828 0.12305,-0.131836 0.29004,-0.131836 0.16699,0 0.29004,0.123047 z m 5.11524,5.097656 q 0.12304,0.123047 0.12304,0.298828 0,0.166993 -0.12304,0.29004 -0.11426,0.123046 -0.29883,0.123046 -0.17578,0 -0.29883,-0.123046 -0.12305,-0.123047 -0.12305,-0.29004 0,-0.175781 0.11426,-0.290039 0.12305,-0.123046 0.29004,-0.123046 0.17578,0 0.31641,0.114257 z m -6.0293,-4.016601 q 0.27246,0.114258 0.27246,0.404297 0,0.166992 -0.14062,0.290039 -0.13184,0.114258 -0.29004,0.114258 -0.18457,0 -0.29883,-0.131836 -0.11426,-0.131836 -0.11426,-0.290039 0,-0.175782 0.12305,-0.298829 0.13183,-0.123046 0.29004,-0.123046 0.0527,0 0.1582,0.03516 z m 6.6709,2.759765 q 0.26367,0.114258 0.26367,0.386719 0,0.175781 -0.13184,0.298828 -0.12304,0.114258 -0.29004,0.114258 -0.19335,0 -0.30761,-0.123047 -0.11426,-0.131836 -0.11426,-0.290039 0,-0.202148 0.13184,-0.307617 0.14062,-0.105469 0.29882,-0.105469 0.0879,0 0.14942,0.02637 z m -7.10156,-1.40625 q 0.16699,0 0.29882,0.123047 0.13184,0.114258 0.13184,0.28125 0,0.175782 -0.13184,0.307617 -0.13183,0.123047 -0.29004,0.123047 h -0.0176 q -0.167,0 -0.29004,-0.123047 -0.11426,-0.131835 -0.11426,-0.298828 0,-0.175781 0.11426,-0.290039 0.12304,-0.123047 0.29883,-0.123047 z m 7.21582,-0.0088 q 0.17578,0 0.29882,0.123047 0.12305,0.123047 0.12305,0.298828 0,0.166993 -0.12305,0.290039 -0.11425,0.123047 -0.29004,0.123047 h -0.0351 q -0.1582,0 -0.28125,-0.123047 -0.11426,-0.123046 -0.11426,-0.28125 0,-0.175781 0.13184,-0.298828 0.13183,-0.123047 0.29004,-0.131836 z m -7.10157,1.423828 q 0.0703,-0.03516 0.167,-0.03516 0.17578,0 0.29882,0.114258 0.12305,0.114258 0.12305,0.290039 0,0.166992 -0.12305,0.298828 -0.12304,0.131836 -0.29882,0.131836 -0.167,0 -0.29883,-0.123047 -0.12305,-0.131836 -0.12305,-0.307617 0,-0.272461 0.25488,-0.369141 z m 6.6709,-2.768554 q 0.10547,-0.03516 0.1582,-0.03516 0.15821,0 0.29004,0.123046 0.13184,0.123047 0.13184,0.298829 0,0.158203 -0.12305,0.290039 -0.12304,0.131836 -0.30761,0.131836 -0.15821,0 -0.28125,-0.123047 -0.12305,-0.123047 -0.12305,-0.290039 0,-0.28125 0.25488,-0.395508 z m -6.02051,4.034179 q 0.13184,-0.131835 0.28125,-0.131835 0.18457,0 0.30762,0.123046 0.12305,0.114258 0.12305,0.290039 0,0.166993 -0.12305,0.298829 -0.11426,0.123046 -0.29004,0.123046 -0.16699,0 -0.29883,-0.123046 -0.12304,-0.131836 -0.12304,-0.298829 0,-0.158203 0.12304,-0.28125 z M 454.25,19.126953 q 0.14062,-0.123047 0.29883,-0.123047 0.17578,0 0.29004,0.123047 0.12304,0.123047 0.12304,0.298828 0,0.166992 -0.12304,0.298828 -0.11426,0.123047 -0.29004,0.123047 -0.16699,0 -0.29004,-0.131836 -0.12305,-0.131836 -0.12305,-0.290039 0,-0.166992 0.11426,-0.298828 z m -4.0166,6.029297 q 0.0527,-0.123047 0.16699,-0.193359 0.12305,-0.07031 0.22852,-0.07031 0.17578,0 0.29004,0.131836 0.12304,0.131836 0.12304,0.290039 0,0.175781 -0.13183,0.298828 -0.13184,0.114258 -0.29004,0.114258 -0.167,0 -0.29883,-0.131836 -0.12305,-0.131836 -0.12305,-0.28125 0,-0.05273 0.0352,-0.158203 z m 2.75976,-6.670898 q 0.11426,-0.263672 0.38672,-0.263672 0.17578,0 0.29883,0.131836 0.12305,0.131836 0.12305,0.298828 0,0.175781 -0.13184,0.298828 -0.13183,0.114258 -0.29004,0.114258 -0.17578,0 -0.29883,-0.131836 -0.11425,-0.140625 -0.11425,-0.298828 0,-0.07031 0.0264,-0.149414 z m -1.40625,7.101562 q 0,-0.175781 0.12305,-0.298828 0.12305,-0.123047 0.29004,-0.123047 0.17578,0 0.29883,0.123047 0.12304,0.123047 0.12304,0.298828 0,0.166992 -0.12304,0.290039 Q 452.17578,26 452,26 q -0.16699,0 -0.29004,-0.123047 -0.12305,-0.123047 -0.12305,-0.290039 z m 0,-7.21582 q 0,-0.175782 0.12305,-0.298828 0.12305,-0.123047 0.29004,-0.123047 0.17578,0 0.29883,0.123047 0.12304,0.123046 0.12304,0.298828 0,0.166992 -0.12304,0.290039 -0.12305,0.123047 -0.29883,0.123047 -0.16699,0 -0.29004,-0.123047 -0.12305,-0.123047 -0.12305,-0.290039 z m 2.04786,-3.65625 q 0,0.588867 -0.29004,1.054687 -0.29004,0.465821 -0.7295,0.738281 -0.44824,0.263672 -0.88769,0.263672 -0.58887,0 -0.97559,-0.395507 -0.38672,-0.404297 -0.38672,-0.958008 0,-0.606446 0.29004,-1.072266 0.29004,-0.46582 0.7295,-0.729492 0.43945,-0.272461 0.88769,-0.272461 0.57129,0 0.9668,0.413086 0.39551,0.404297 0.39551,0.958008 z m -0.79102,0.360351 q 0,-0.421875 -0.20215,-0.738281 -0.20215,-0.325195 -0.55371,-0.325195 -0.36035,0 -0.6416,0.290039 -0.29004,0.28125 -0.29004,0.755859 0,0.404297 0.20215,0.729492 0.20215,0.316407 0.55371,0.316407 0.35156,0 0.6416,-0.263672 0.29004,-0.263672 0.29004,-0.764649 z"
   id="t2"
   style="font-size:18px;line-height:0%;font-family:'Gentium Plus Compact';text-align:center;text-anchor:middle;fill:#111111"
   class="dead"
   aria-label="◌̊" />&#10;&#10;<path
   d="m 478.99805,90.476562 q 0.0352,0.07031 0.0352,0.166993 0,0.166992 -0.11425,0.298828 -0.10547,0.123047 -0.28125,0.123047 -0.167,0 -0.30762,-0.114258 -0.13184,-0.123047 -0.13184,-0.307617 0,-0.158203 0.12305,-0.290039 0.13183,-0.131836 0.30762,-0.131836 0.26367,0 0.36914,0.254882 z m 2.76855,6.670899 q 0.0352,0.105469 0.0352,0.158203 0,0.158203 -0.12305,0.290039 -0.12305,0.131836 -0.29883,0.131836 -0.1582,0 -0.29004,-0.123047 -0.13183,-0.123047 -0.13183,-0.307617 0,-0.149414 0.11426,-0.28125 0.11425,-0.131836 0.28125,-0.131836 0.28125,0 0.41308,0.263672 z m -4.03418,-6.020508 q 0.13184,0.114258 0.13184,0.290039 0,0.421875 -0.41309,0.421875 -0.17578,0 -0.29883,-0.114258 -0.12304,-0.123047 -0.12304,-0.290039 0,-0.175781 0.12304,-0.298828 0.12305,-0.131836 0.29004,-0.131836 0.16699,0 0.29004,0.123047 z m 5.11524,5.097656 q 0.12304,0.123047 0.12304,0.298828 0,0.166993 -0.12304,0.29004 -0.11426,0.123046 -0.29883,0.123046 -0.17578,0 -0.29883,-0.123046 -0.12305,-0.123047 -0.12305,-0.29004 0,-0.175781 0.11426,-0.290039 0.12305,-0.123046 0.29004,-0.123046 0.17578,0 0.31641,0.114257 z m -6.0293,-4.016601 q 0.27246,0.114258 0.27246,0.404297 0,0.166992 -0.14062,0.290039 -0.13184,0.114258 -0.29004,0.114258 -0.18457,0 -0.29883,-0.131836 -0.11426,-0.131836 -0.11426,-0.290039 0,-0.175782 0.12305,-0.298829 0.13183,-0.123046 0.29004,-0.123046 0.0527,0 0.1582,0.03516 z m 6.6709,2.759765 q 0.26367,0.114258 0.26367,0.386719 0,0.175781 -0.13184,0.298828 -0.12304,0.114258 -0.29004,0.114258 -0.19335,0 -0.30761,-0.123047 -0.11426,-0.131836 -0.11426,-0.290039 0,-0.202148 0.13184,-0.307617 0.14062,-0.105469 0.29882,-0.105469 0.0879,0 0.14942,0.02637 z m -7.10156,-1.40625 q 0.16699,0 0.29882,0.123047 0.13184,0.114258 0.13184,0.28125 0,0.175782 -0.13184,0.307617 -0.13183,0.123047 -0.29004,0.123047 h -0.0176 q -0.167,0 -0.29004,-0.123047 -0.11426,-0.131835 -0.11426,-0.298828 0,-0.175781 0.11426,-0.290039 0.12304,-0.123047 0.29883,-0.123047 z m 7.21582,-0.0088 q 0.17578,0 0.29882,0.123047 0.12305,0.123047 0.12305,0.298828 0,0.166993 -0.12305,0.290039 -0.11425,0.123047 -0.29004,0.123047 h -0.0351 q -0.1582,0 -0.28125,-0.123047 -0.11426,-0.123046 -0.11426,-0.28125 0,-0.175781 0.13184,-0.298828 0.13183,-0.123047 0.29004,-0.131836 z m -7.10157,1.423828 q 0.0703,-0.03516 0.167,-0.03516 0.17578,0 0.29882,0.114258 0.12305,0.114258 0.12305,0.290039 0,0.166992 -0.12305,0.298828 -0.12304,0.131836 -0.29882,0.131836 -0.167,0 -0.29883,-0.123047 -0.12305,-0.131836 -0.12305,-0.307617 0,-0.272461 0.25488,-0.369141 z m 6.6709,-2.768554 q 0.10547,-0.03516 0.1582,-0.03516 0.15821,0 0.29004,0.123046 0.13184,0.123047 0.13184,0.298829 0,0.158203 -0.12305,0.290039 -0.12304,0.131836 -0.30761,0.131836 -0.15821,0 -0.28125,-0.123047 -0.12305,-0.123047 -0.12305,-0.290039 0,-0.28125 0.25488,-0.395508 z m -6.02051,4.034179 q 0.13184,-0.131835 0.28125,-0.131835 0.18457,0 0.30762,0.123046 0.12305,0.114258 0.12305,0.290039 0,0.166993 -0.12305,0.298829 -0.11426,0.123046 -0.29004,0.123046 -0.16699,0 -0.29883,-0.123046 -0.12304,-0.131836 -0.12304,-0.298829 0,-0.158203 0.12304,-0.28125 z M 482.25,91.126953 q 0.14062,-0.123047 0.29883,-0.123047 0.17578,0 0.29004,0.123047 0.12304,0.123047 0.12304,0.298828 0,0.166992 -0.12304,0.298828 -0.11426,0.123047 -0.29004,0.123047 -0.16699,0 -0.29004,-0.131836 -0.12305,-0.131836 -0.12305,-0.290039 0,-0.166992 0.11426,-0.298828 z m -4.0166,6.029297 q 0.0527,-0.123047 0.16699,-0.193359 0.12305,-0.07031 0.22852,-0.07031 0.17578,0 0.29004,0.131836 0.12304,0.131836 0.12304,0.290039 0,0.175781 -0.13183,0.298828 -0.13184,0.114258 -0.29004,0.114258 -0.167,0 -0.29883,-0.131836 -0.12305,-0.131836 -0.12305,-0.28125 0,-0.05273 0.0352,-0.158203 z m 2.75976,-6.670898 q 0.11426,-0.263672 0.38672,-0.263672 0.17578,0 0.29883,0.131836 0.12305,0.131836 0.12305,0.298828 0,0.175781 -0.13184,0.298828 -0.13183,0.114258 -0.29004,0.114258 -0.17578,0 -0.29883,-0.131836 -0.11425,-0.140625 -0.11425,-0.298828 0,-0.07031 0.0264,-0.149414 z m -1.40625,7.101562 q 0,-0.175781 0.12305,-0.298828 0.12305,-0.123047 0.29004,-0.123047 0.17578,0 0.29883,0.123047 0.12304,0.123047 0.12304,0.298828 0,0.166992 -0.12304,0.290039 Q 480.17578,98 480,98 q -0.16699,0 -0.29004,-0.123047 -0.12305,-0.123047 -0.12305,-0.290039 z m 0,-7.21582 q 0,-0.175782 0.12305,-0.298828 0.12305,-0.123047 0.29004,-0.123047 0.17578,0 0.29883,0.123047 0.12304,0.123046 0.12304,0.298828 0,0.166992 -0.12304,0.290039 -0.12305,0.123047 -0.29883,0.123047 -0.16699,0 -0.29004,-0.123047 -0.12305,-0.123047 -0.12305,-0.290039 z m 4.42969,-3.348633 -6.43359,13.209959 q -0.14063,0.14942 -0.44824,0.42188 -0.30762,0.28125 -0.50977,0.3955 l -0.30762,-0.2373 6.44239,-13.21875 q 0.20214,-0.193359 0.45703,-0.439453 0.25488,-0.254883 0.47461,-0.360352 z"
   id="t3"
   style="font-size:18px;line-height:0%;font-family:'Gentium Plus Compact';text-align:center;text-anchor:middle;fill:#111111"
   class="dead"
   aria-label="◌̸" />&#10;&#10;</svg>
