<?xml version="1.0" encoding="UTF-8" standalone="no"?>
<svg
   version="1.1"
   id="Ebene_1"
   height="183"
   width="535"
   viewBox="0 0 535 183"
   enable-background="new 0 0 535 183"
   xml:space="preserve"
   inkscape:version="0.48.5 r10040"
   sodipodi:docname="noted-4-tkl.svg"
   inkscape:export-xdpi="90"
   inkscape:export-ydpi="90"
   xmlns:inkscape="http://www.inkscape.org/namespaces/inkscape"
   xmlns:sodipodi="http://sodipodi.sourceforge.net/DTD/sodipodi-0.dtd"
   xmlns:xlink="http://www.w3.org/1999/xlink"
   xmlns="http://www.w3.org/2000/svg"
   xmlns:svg="http://www.w3.org/2000/svg"
   xmlns:rdf="http://www.w3.org/1999/02/22-rdf-syntax-ns#"
   xmlns:cc="http://creativecommons.org/ns#"
   xmlns:dc="http://purl.org/dc/elements/1.1/">&#10;&#10;  <metadata
   id="metadata135">&#10;    <rdf:RDF>&#10;      <cc:Work
   rdf:about="">&#10;        <dc:format>image/svg+xml</dc:format>&#10;        <dc:type
   rdf:resource="http://purl.org/dc/dcmitype/StillImage" />&#10;        <dc:title />&#10;      </cc:Work>&#10;    </rdf:RDF>&#10;  </metadata>&#10;&#10;<defs
   id="defs">&#10;<style
   type="text/css"
   id="style46661">&#10;text.mod, text.key, text.dead {&#10;	fill:#111;&#10;	fill-opacity:1;&#10;    stroke:none;&#10;    font-style:normal;&#10;    font-variant:normal;&#10;    font-weight:normal;&#10;    font-stretch:normal;&#10;    display:inline;&#10;    font-family:DejaVu Sans;&#10;    writing-mode:lr-tb;&#10;}&#10;&#10;text.key {&#10;    font-family:Linux Libertine;&#10;}&#10;&#10;text.dead {&#10;    font-family: Gentium Plus Compact;&#10;}&#10;&#10;text.mod {&#10;    text-align:start;&#10;    text-anchor:start;&#10;}&#10;&#10;text.space, text.dead, text.center, text.key {&#10;    text-align:center;&#10;    text-anchor:middle;&#10;}&#10;&#10;text.key { font-size:20px; }&#10;text.dead { font-size:20px; }&#10;text.mod { font-size:10px; }&#10;text.big { font-size:14px; }&#10;&#10;.key {&#10;stroke-width:1.25;&#10;}&#10;&#10;.grey { fill:#949494; stroke:#696969; }&#10;.grey { fill:#9f9f9f; stroke:#747474; }&#10;&#10;.numpad { fill:#afaa9f; stroke:#747474; }&#10;&#10;/* bootstrap colors */&#10;.l5, .r5 { fill:#93CCEA; }&#10;.l4, .r4 { fill:#7abeb3; }&#10;.l3, .r3 { fill:#63b280; }&#10;.l2, .r2 { fill:#4aa44a; }&#10;&#10;/* btn bg hover, unused */&#10;.l2, .r2 { stroke:#3071a9; }&#10;.l3, .r3 { stroke:#449d44; }&#10;.l4, .r4 { stroke:#c9302c; }&#10;.l5, .r5 { stroke:#ec971f; }&#10;&#10;/* btn border hover */&#10;.l2, .r2 { stroke:#204d74; }&#10;.l3, .r3 { stroke:#204d74; }&#10;.l4, .r4 { stroke:#204d74; }&#10;.l5, .r5 { stroke:#204d74; }&#10;&#10;text.nubkey { fill:#eee; }&#10;&#10;.pressed {&#10;	<!--opacity:0.5;-->&#10;	fill:#777;&#10;}&#10;    </style>&#10;&#10;    <g
   id="basekey">&#10;        <rect
   width="32"
   height="32"
   rx="4"
   class="key"
   id="rect1" />&#10;	<!--rect width="20" height="20" x="6" y="6" /-->&#10;        <!--rect width="2" height="2" fill="#000" x="15" y="15" /-->&#10;    </g>&#10;&#10;    </defs>&#10;<sodipodi:namedview
   pagecolor="#ffffff"
   bordercolor="#666666"
   borderopacity="1"
   objecttolerance="10"
   gridtolerance="10"
   guidetolerance="10"
   inkscape:pageopacity="0"
   inkscape:pageshadow="2"
   inkscape:window-width="1614"
   inkscape:window-height="969"
   id="base"
   showgrid="false"
   inkscape:zoom="0.70961538"
   inkscape:cx="685.32105"
   inkscape:cy="241.15395"
   inkscape:window-x="78"
   inkscape:window-y="71"
   inkscape:window-maximized="0"
   inkscape:current-layer="Ebene_1"
   inkscape:showpageshadow="2"
   inkscape:pagecheckerboard="0"
   inkscape:deskcolor="#d1d1d1" />&#10;&#10;<g
   transform="translate(3.5,3.5)"
   id="g61">&#10;<use
   xlink:href="#basekey"
   y="0"
   x="0"
   class="l5"
   id="use1" />&#10;<use
   xlink:href="#basekey"
   y="0"
   x="36"
   class="l5"
   id="use2" />&#10;<use
   xlink:href="#basekey"
   y="0"
   x="72"
   class="l5"
   id="use3" />&#10;<use
   xlink:href="#basekey"
   y="0"
   x="108"
   class="l4"
   id="use4" />&#10;<use
   xlink:href="#basekey"
   y="0"
   x="144"
   class="l3"
   id="use5" />&#10;<use
   xlink:href="#basekey"
   y="0"
   x="180"
   class="l2"
   id="use6" />&#10;<use
   xlink:href="#basekey"
   y="0"
   x="216"
   class="l2"
   id="use7" />&#10;&#10;<use
   xlink:href="#basekey"
   y="0"
   x="252"
   class="r2"
   id="use8" />&#10;<use
   xlink:href="#basekey"
   y="0"
   x="288"
   class="r2"
   id="use9" />&#10;<use
   xlink:href="#basekey"
   y="0"
   x="324"
   class="r3"
   id="use10" />&#10;<use
   xlink:href="#basekey"
   y="0"
   x="360"
   class="r4"
   id="use11" />&#10;<use
   xlink:href="#basekey"
   y="0"
   x="396"
   class="r5"
   id="use12" />&#10;<use
   xlink:href="#basekey"
   y="0"
   x="432"
   class="r5"
   id="use13" />&#10;&#10;&#10;<use
   xlink:href="#basekey"
   y="36"
   x="54"
   class="l5"
   id="use14" />&#10;<use
   xlink:href="#basekey"
   y="36"
   x="90"
   class="l4"
   id="use15" />&#10;<use
   xlink:href="#basekey"
   y="36"
   x="126"
   class="l3"
   id="use16" />&#10;<use
   xlink:href="#basekey"
   y="36"
   x="162"
   class="l2"
   id="use17" />&#10;<use
   xlink:href="#basekey"
   y="36"
   x="198"
   class="l2"
   id="use18" />&#10;&#10;<use
   xlink:href="#basekey"
   y="36"
   x="234"
   class="r2"
   id="use19" />&#10;<use
   xlink:href="#basekey"
   y="36"
   x="270"
   class="r2"
   id="use20" />&#10;<use
   xlink:href="#basekey"
   y="36"
   x="306"
   class="r3"
   id="use21" />&#10;<use
   xlink:href="#basekey"
   y="36"
   x="342"
   class="r4"
   id="use22" />&#10;<use
   xlink:href="#basekey"
   y="36"
   x="378"
   class="r5"
   id="use23" />&#10;<use
   xlink:href="#basekey"
   y="36"
   x="414"
   class="r5"
   id="use24" />&#10;<use
   xlink:href="#basekey"
   y="36"
   x="450"
   class="r5"
   id="use25" />&#10;&#10;&#10;<use
   xlink:href="#basekey"
   y="72"
   x="64"
   class="l5"
   id="use26" />&#10;<use
   xlink:href="#basekey"
   y="72"
   x="100"
   class="l4"
   id="use27" />&#10;<use
   xlink:href="#basekey"
   y="72"
   x="136"
   class="l3"
   id="use28" />&#10;<use
   xlink:href="#basekey"
   y="72"
   x="172"
   class="l2"
   id="use29" />&#10;<use
   xlink:href="#basekey"
   y="72"
   x="208"
   class="l2"
   id="use30" />&#10;&#10;<use
   xlink:href="#basekey"
   y="72"
   x="244"
   class="r2"
   id="use31" />&#10;<use
   xlink:href="#basekey"
   y="72"
   x="280"
   class="r2"
   id="use32" />&#10;<use
   xlink:href="#basekey"
   y="72"
   x="316"
   class="r3"
   id="use33" />&#10;<use
   xlink:href="#basekey"
   y="72"
   x="352"
   class="r4"
   id="use34" />&#10;<use
   xlink:href="#basekey"
   y="72"
   x="388"
   class="r5"
   id="use35" />&#10;&#10;    <use
   xlink:href="#basekey"
   y="72"
   x="460"
   class="r5"
   id="use36" />&#10;&#10;&#10;&#10;<use
   xlink:href="#basekey"
   y="108"
   x="82"
   class="l5"
   id="use37" />&#10;<use
   xlink:href="#basekey"
   y="108"
   x="118"
   class="l4"
   id="use38" />&#10;<use
   xlink:href="#basekey"
   y="108"
   x="154"
   class="l3"
   id="use39" />&#10;<use
   xlink:href="#basekey"
   y="108"
   x="190"
   class="l2"
   id="use40" />&#10;<use
   xlink:href="#basekey"
   y="108"
   x="226"
   class="l2"
   id="use41" />&#10;&#10;<use
   xlink:href="#basekey"
   y="108"
   x="262"
   class="r2"
   id="use42" />&#10;<use
   xlink:href="#basekey"
   y="108"
   x="298"
   class="r2"
   id="use43" />&#10;<use
   xlink:href="#basekey"
   y="108"
   x="334"
   class="r3"
   id="use44" />&#10;<use
   xlink:href="#basekey"
   y="108"
   x="370"
   class="r4"
   id="use45" />&#10;<use
   xlink:href="#basekey"
   y="108"
   x="406"
   class="r5"
   id="use46" />&#10;&#10;&#10;<rect
   id="backspace"
   y="0"
   x="468"
   width="60"
   height="32"
   rx="4"
   class="key grey" />&#10;&#10;<rect
   id="tab"
   x="0"
   y="36"
   width="50"
   height="32"
   rx="4"
   class="key grey" />&#10;&#10;<rect
   id="m3l"
   x="0"
   y="72"
   width="60"
   height="32"
   rx="4"
   class="key grey" />&#10;&#10;<use
   id="m3r"
   xlink:href="#basekey"
   x="424"
   y="72"
   class="key grey" />&#10;&#10;&#10;<rect
   id="shiftl"
   x="0"
   y="108"
   width="40"
   height="32"
   rx="4"
   class="key grey" />&#10;<rect
   id="m4l"
   x="44"
   y="108"
   width="34"
   height="32"
   rx="4"
   class="key grey pressed" />&#10;<rect
   id="shiftr"
   x="442"
   y="108"
   width="86"
   height="32"
   rx="4"
   class="key grey" />&#10;&#10;<rect
   id="ctrll"
   x="0"
   y="144"
   width="50"
   height="32"
   rx="4"
   class="key grey" />&#10;<rect
   id="altl"
   x="124"
   y="144"
   width="48"
   height="32"
   rx="4"
   class="key grey" />&#10;<rect
   id="space"
   x="176"
   y="144"
   width="168"
   height="32"
   rx="4"
   class="key grey" />&#10;<rect
   id="m4r"
   x="348"
   y="144"
   width="48"
   height="32"
   rx="4"
   class="key grey pressed" />&#10;<rect
   id="ctrlr"
   x="478"
   y="144"
   width="50"
   height="32"
   rx="4"
   class="key grey" />&#10;&#10;<use
   xlink:href="#basekey"
   y="0"
   x="542"
   class="key numpad"
   id="use47" />&#10;<use
   xlink:href="#basekey"
   y="0"
   x="578"
   class="key numpad"
   id="use48" />&#10;<use
   xlink:href="#basekey"
   y="0"
   x="614"
   class="key numpad"
   id="use49" />&#10;<use
   xlink:href="#basekey"
   y="0"
   x="650"
   class="key numpad"
   id="use50" />&#10;&#10;<use
   xlink:href="#basekey"
   y="36"
   x="542"
   class="key numpad"
   id="use51" />&#10;<use
   xlink:href="#basekey"
   y="36"
   x="578"
   class="key numpad"
   id="use52" />&#10;<use
   xlink:href="#basekey"
   y="36"
   x="614"
   class="key numpad"
   id="use53" />&#10;<rect
   id="kpplus"
   x="650"
   y="36"
   width="32"
   height="68"
   rx="4"
   class="key numpad" />&#10;&#10;<use
   xlink:href="#basekey"
   y="72"
   x="542"
   class="key numpad"
   id="use54" />&#10;<use
   xlink:href="#basekey"
   y="72"
   x="578"
   class="key numpad"
   id="use55" />&#10;<use
   xlink:href="#basekey"
   y="72"
   x="614"
   class="key numpad"
   id="use56" />&#10;&#10;<use
   xlink:href="#basekey"
   y="108"
   x="542"
   class="key numpad"
   id="use57" />&#10;<use
   xlink:href="#basekey"
   y="108"
   x="578"
   class="key numpad"
   id="use58" />&#10;<use
   xlink:href="#basekey"
   y="108"
   x="614"
   class="key numpad"
   id="use59" />&#10;<rect
   id="kppenter"
   x="650"
   y="108"
   width="32"
   height="68"
   rx="4"
   class="key numpad" />&#10;&#10;<rect
   id="kp0"
   x="542"
   y="144"
   width="68"
   height="32"
   rx="4"
   class="key numpad" />&#10;<use
   xlink:href="#basekey"
   y="144"
   x="614"
   class="key numpad"
   id="use60" />&#10;&#10;<path
   fill-rule="evenodd"
   clip-rule="evenodd"
   d="      M 10,32      l -6,0 a 4,4 0 0 1 -4,-4      l 0,-24 a 4,4 0 0 1 4,-4      l 34,0 a 4,4 0 0 1 4,4      l 0,60 a 4,4 0 0 1 -4,4      l -24,0 a 4,4 0 0 1 -4,-4      z"
   transform="translate(486,36)"
   id="return"
   class="key grey" />&#10;&#10;<rect
   y="101"
   x="181"
   width="14"
   height="1"
   rx="1"
   id="nub"
   style="fill:#eee;" />&#10;<use
   y="0"
   x="108"
   xlink:href="#nub"
   id="use61" />&#10;</g>&#10;&#10;<g
   transform="translate(-0.5,-0.5)"
   id="g62">&#10;<path
   d="m 10.981445,88.709961 h 1.469727 l 1.860351,4.960937 1.870118,-4.960937 h 1.469726 V 96 h -0.961914 v -6.401367 l -1.879883,5 h -0.991211 l -1.879882,-5 V 96 h -0.957032 z m 10.708008,2.451172 q -0.722656,0 -1.142578,0.566406 -0.419922,0.561523 -0.419922,1.542969 0,0.981445 0.415039,1.547851 0.419922,0.561524 1.147461,0.561524 0.717774,0 1.137695,-0.566406 0.419922,-0.566407 0.419922,-1.542969 0,-0.97168 -0.419922,-1.538086 -0.419921,-0.571289 -1.137695,-0.571289 z m 0,-0.761719 q 1.171875,0 1.84082,0.761719 0.668946,0.761719 0.668946,2.109375 0,1.342773 -0.668946,2.109375 -0.668945,0.761719 -1.84082,0.761719 -1.176758,0 -1.845703,-0.761719 -0.664063,-0.766602 -0.664063,-2.109375 0,-1.347656 0.664063,-2.109375 0.668945,-0.761719 1.845703,-0.761719 z m 7.597656,0.961914 v -2.958984 h 0.898438 V 96 h -0.898438 v -0.820313 q -0.283203,0.488282 -0.717773,0.72754 -0.429688,0.234375 -1.035156,0.234375 -0.991211,0 -1.616211,-0.791016 -0.620117,-0.791016 -0.620117,-2.080078 0,-1.289063 0.620117,-2.080078 0.625,-0.791016 1.616211,-0.791016 0.605468,0 1.035156,0.239258 0.43457,0.234375 0.717773,0.722656 z m -3.061523,1.90918 q 0,0.991211 0.405273,1.557617 0.410157,0.561523 1.123047,0.561523 0.712891,0 1.123047,-0.561523 0.410156,-0.566406 0.410156,-1.557617 0,-0.991211 -0.410156,-1.552735 -0.410156,-0.566406 -1.123047,-0.566406 -0.71289,0 -1.123047,0.566406 -0.405273,0.561524 -0.405273,1.552735 z m 8.925781,-1.201172 q 0.708008,0.151367 1.103516,0.629883 0.40039,0.478515 0.40039,1.18164 0,1.079102 -0.742187,1.669922 -0.742188,0.590821 -2.109375,0.590821 -0.458984,0 -0.947266,-0.09277 -0.483398,-0.08789 -1.000976,-0.268555 v -0.952148 q 0.410156,0.239258 0.898437,0.361328 0.488281,0.12207 1.020508,0.12207 0.927734,0 1.411133,-0.366211 0.488281,-0.36621 0.488281,-1.064453 0,-0.644531 -0.454101,-1.005859 -0.449219,-0.366211 -1.254883,-0.366211 h -0.84961 v -0.810547 h 0.888672 q 0.727539,0 1.113281,-0.288086 0.385743,-0.292969 0.385743,-0.839844 0,-0.561523 -0.400391,-0.859375 -0.395508,-0.302734 -1.137695,-0.302734 -0.405274,0 -0.869141,0.08789 -0.463867,0.08789 -1.020508,0.273437 v -0.878906 q 0.561524,-0.15625 1.049805,-0.234375 0.493164,-0.07813 0.927734,-0.07813 1.123047,0 1.777344,0.512695 0.654297,0.507813 0.654297,1.376953 0,0.605469 -0.34668,1.025391 -0.346679,0.415039 -0.986328,0.576172 z"
   id="m3ltxt"
   style="font-size:10px;line-height:0%;font-family:'DejaVu Sans';fill:#111111"
   class="mod"
   aria-label="Mod3" />&#10;<path
   d="m 17.683594,125.23438 -1.81836,-1.81836 -1.818359,1.81836 h 0.895508 v 7.08203 h 1.845703 v -7.08203 z m -5.291016,0.68359 3.472656,-3.47266 3.472657,3.47266 H 17.47168 V 133 h -3.212891 v -7.08203 z"
   id="shiftltxt"
   style="font-size:14px;line-height:0%;font-family:'DejaVu Sans';fill:#111111"
   class="mod big"
   aria-label="⇧" />&#10;<path
   d="m 15.351563,160.94922 v 0.96191 q -0.561524,-0.26855 -1.059571,-0.40039 -0.498047,-0.13183 -0.961914,-0.13183 -0.805664,0 -1.245117,0.3125 -0.43457,0.3125 -0.43457,0.88867 0,0.4834 0.288086,0.73242 0.292968,0.24414 1.103515,0.39551 l 0.595703,0.12207 q 1.103516,0.20996 1.625977,0.74219 0.527344,0.52734 0.527344,1.41601 0,1.05957 -0.712891,1.60645 -0.708008,0.54687 -2.080078,0.54687 -0.517578,0 -1.103516,-0.11719 -0.581054,-0.11718 -1.206054,-0.34668 v -1.01562 q 0.600586,0.33691 1.176757,0.50781 0.576172,0.1709 1.132813,0.1709 0.844726,0 1.303711,-0.33203 0.458984,-0.33203 0.458984,-0.94727 0,-0.53711 -0.332031,-0.83984 -0.327148,-0.30273 -1.079102,-0.4541 l -0.600586,-0.11719 q -1.103515,-0.21973 -1.596679,-0.68848 -0.493164,-0.46875 -0.493164,-1.30371 0,-0.96679 0.678711,-1.52343 0.683593,-0.55665 1.879882,-0.55665 0.512696,0 1.044922,0.0928 0.532227,0.0928 1.088868,0.27832 z m 2.827148,0.0293 v 1.55273 h 1.850586 v 0.69824 h -1.850586 v 2.96875 q 0,0.66895 0.180664,0.85938 0.185547,0.19043 0.74707,0.19043 h 0.922852 V 168 h -0.922852 q -1.040039,0 -1.435547,-0.38574 -0.395507,-0.39063 -0.395507,-1.41602 v -2.96875 h -0.65918 v -0.69824 h 0.65918 v -1.55273 z m 6.201172,2.39257 q -0.151367,-0.0879 -0.332031,-0.12695 -0.175782,-0.0439 -0.390625,-0.0439 -0.761719,0 -1.171875,0.49804 -0.405274,0.49317 -0.405274,1.4209 V 168 h -0.90332 v -5.46875 h 0.90332 v 0.84961 q 0.283203,-0.49805 0.737305,-0.73731 0.454101,-0.24414 1.103515,-0.24414 0.09277,0 0.205079,0.0147 0.112304,0.01 0.249023,0.0342 z m 4.365234,1.83106 q 0,-0.97656 -0.405273,-1.51367 -0.400391,-0.53711 -1.12793,-0.53711 -0.722656,0 -1.12793,0.53711 -0.40039,0.53711 -0.40039,1.51367 0,0.97168 0.40039,1.50879 0.405274,0.53711 1.12793,0.53711 0.727539,0 1.12793,-0.53711 0.405273,-0.53711 0.405273,-1.50879 z m 0.898438,2.11914 q 0,1.39648 -0.620118,2.07519 -0.620117,0.6836 -1.899414,0.6836 -0.473632,0 -0.893554,-0.0732 -0.419922,-0.0684 -0.81543,-0.21485 v -0.87402 q 0.395508,0.21484 0.78125,0.31738 0.385742,0.10254 0.786133,0.10254 0.883789,0 1.323242,-0.46387 0.439453,-0.45898 0.439453,-1.3916 v -0.44433 q -0.27832,0.48339 -0.71289,0.72265 Q 27.597656,168 26.992187,168 q -1.005859,0 -1.621093,-0.7666 -0.615235,-0.7666 -0.615235,-2.03125 0,-1.26953 0.615235,-2.03613 0.615234,-0.76661 1.621093,-0.76661 0.605469,0 1.04004,0.23926 0.43457,0.23926 0.71289,0.72266 v -0.83008 h 0.898438 z"
   id="ctrlltxt"
   style="font-size:10px;line-height:0%;font-family:'DejaVu Sans';fill:#111111"
   class="mod"
   aria-label="Strg" />&#10;&#10;<path
   d="m 56.981445,124.70996 h 1.469727 l 1.860351,4.96094 1.870118,-4.96094 h 1.469726 V 132 h -0.961914 v -6.40137 l -1.879883,5 h -0.991211 l -1.879882,-5 V 132 h -0.957032 z m 11.425782,0.85938 -2.490235,3.8916 h 2.490235 z m -0.25879,-0.85938 h 1.240235 v 4.75098 h 1.040039 v 0.82031 H 69.388672 V 132 h -0.981445 v -1.71875 h -3.291016 v -0.95215 z"
   id="m4ltxt"
   style="font-size:10px;line-height:0%;font-family:'DejaVu Sans';fill:#111111"
   class="mod"
   aria-label="M4" />&#10;<path
   d="m 138.41797,161.68164 -1.33789,3.62793 h 2.68066 z m -0.55664,-0.97168 h 1.11816 L 141.75781,168 h -1.02539 l -0.66406,-1.87012 h -3.28613 L 136.11816,168 h -1.04004 z m 4.92187,-0.30762 h 0.89844 V 168 h -0.89844 z m 3.667,0.57618 v 1.55273 h 1.85058 v 0.69824 h -1.85058 v 2.96875 q 0,0.66895 0.18066,0.85938 0.18555,0.19043 0.74707,0.19043 h 0.92285 V 168 h -0.92285 q -1.04004,0 -1.43555,-0.38574 -0.39551,-0.39063 -0.39551,-1.41602 v -2.96875 h -0.65917 v -0.69824 h 0.65917 v -1.55273 z"
   id="altltxt"
   style="font-size:10px;line-height:0%;font-family:'DejaVu Sans';fill:#111111"
   class="mod"
   aria-label="Alt" />&#10;&#10;&#10;<path
   d="m 436.98145,88.709961 h 1.46972 l 1.86035,4.960937 1.87012,-4.960937 h 1.46973 V 96 h -0.96192 v -6.401367 l -1.87988,5 h -0.99121 l -1.87988,-5 V 96 h -0.95703 z m 11.7041,3.359375 q 0.708,0.151367 1.10351,0.629883 0.40039,0.478515 0.40039,1.18164 0,1.079102 -0.74218,1.669922 -0.74219,0.590821 -2.10938,0.590821 -0.45898,0 -0.94727,-0.09277 -0.48339,-0.08789 -1.00097,-0.268555 v -0.952148 q 0.41015,0.239258 0.89844,0.361328 0.48828,0.12207 1.0205,0.12207 0.92774,0 1.41114,-0.366211 0.48828,-0.36621 0.48828,-1.064453 0,-0.644531 -0.4541,-1.005859 -0.44922,-0.366211 -1.25489,-0.366211 h -0.84961 v -0.810547 h 0.88868 q 0.72753,0 1.11328,-0.288086 0.38574,-0.292969 0.38574,-0.839844 0,-0.561523 -0.40039,-0.859375 -0.39551,-0.302734 -1.1377,-0.302734 -0.40527,0 -0.86914,0.08789 -0.46386,0.08789 -1.02051,0.273437 v -0.878906 q 0.56153,-0.15625 1.04981,-0.234375 0.49316,-0.07813 0.92773,-0.07813 1.12305,0 1.77735,0.512695 0.65429,0.507813 0.65429,1.376953 0,0.605469 -0.34668,1.025391 -0.34667,0.415039 -0.98632,0.576172 z"
   id="m3rtxt"
   style="font-size:10px;line-height:0%;font-family:'DejaVu Sans';fill:#111111"
   class="mod"
   aria-label="M3" />&#10;&#10;&#10;<path
   d="m 457.68359,125.23438 -1.81836,-1.81836 -1.81836,1.81836 h 0.89551 v 7.08203 h 1.84571 v -7.08203 z m -5.29101,0.68359 3.47265,-3.47266 3.47266,3.47266 h -1.86621 V 133 h -3.21289 v -7.08203 z"
   id="shiftrtxt"
   style="font-size:14px;line-height:0%;font-family:'DejaVu Sans';fill:#111111"
   class="mod big"
   aria-label="⇧" />&#10;<path
   d="m 495.35156,160.94922 v 0.96191 q -0.56152,-0.26855 -1.05957,-0.40039 -0.49804,-0.13183 -0.96191,-0.13183 -0.80567,0 -1.24512,0.3125 -0.43457,0.3125 -0.43457,0.88867 0,0.4834 0.28809,0.73242 0.29297,0.24414 1.10351,0.39551 l 0.59571,0.12207 q 1.10351,0.20996 1.62597,0.74219 0.52735,0.52734 0.52735,1.41601 0,1.05957 -0.7129,1.60645 -0.708,0.54687 -2.08007,0.54687 -0.51758,0 -1.10352,-0.11719 -0.58105,-0.11718 -1.20605,-0.34668 v -1.01562 q 0.60058,0.33691 1.17675,0.50781 0.57618,0.1709 1.13282,0.1709 0.84472,0 1.30371,-0.33203 0.45898,-0.33203 0.45898,-0.94727 0,-0.53711 -0.33203,-0.83984 -0.32715,-0.30273 -1.0791,-0.4541 l -0.60059,-0.11719 q -1.10351,-0.21973 -1.59668,-0.68848 -0.49316,-0.46875 -0.49316,-1.30371 0,-0.96679 0.67871,-1.52343 0.68359,-0.55665 1.87988,-0.55665 0.5127,0 1.04493,0.0928 0.53222,0.0928 1.08886,0.27832 z m 2.82715,0.0293 v 1.55273 h 1.85059 v 0.69824 h -1.85059 v 2.96875 q 0,0.66895 0.18066,0.85938 0.18555,0.19043 0.74708,0.19043 h 0.92285 V 168 h -0.92285 q -1.04004,0 -1.43555,-0.38574 -0.39551,-0.39063 -0.39551,-1.41602 v -2.96875 h -0.65918 v -0.69824 h 0.65918 v -1.55273 z m 6.20117,2.39257 q -0.15136,-0.0879 -0.33203,-0.12695 -0.17578,-0.0439 -0.39062,-0.0439 -0.76172,0 -1.17188,0.49804 -0.40527,0.49317 -0.40527,1.4209 V 168 h -0.90332 v -5.46875 h 0.90332 v 0.84961 q 0.2832,-0.49805 0.7373,-0.73731 0.4541,-0.24414 1.10352,-0.24414 0.0928,0 0.20508,0.0147 0.1123,0.01 0.24902,0.0342 z m 4.36524,1.83106 q 0,-0.97656 -0.40528,-1.51367 -0.40039,-0.53711 -1.12793,-0.53711 -0.72265,0 -1.12793,0.53711 -0.40039,0.53711 -0.40039,1.51367 0,0.97168 0.40039,1.50879 0.40528,0.53711 1.12793,0.53711 0.72754,0 1.12793,-0.53711 0.40528,-0.53711 0.40528,-1.50879 z m 0.89843,2.11914 q 0,1.39648 -0.62011,2.07519 -0.62012,0.6836 -1.89942,0.6836 -0.47363,0 -0.89355,-0.0732 -0.41992,-0.0684 -0.81543,-0.21485 v -0.87402 q 0.39551,0.21484 0.78125,0.31738 0.38574,0.10254 0.78613,0.10254 0.88379,0 1.32324,-0.46387 0.43946,-0.45898 0.43946,-1.3916 v -0.44433 q -0.27832,0.48339 -0.71289,0.72265 Q 507.59766,168 506.99219,168 q -1.00586,0 -1.6211,-0.7666 -0.61523,-0.7666 -0.61523,-2.03125 0,-1.26953 0.61523,-2.03613 0.61524,-0.76661 1.6211,-0.76661 0.60547,0 1.04004,0.23926 0.43457,0.23926 0.71289,0.72266 v -0.83008 h 0.89843 z"
   id="ctrlrtxt"
   style="font-size:10px;line-height:0%;font-family:'DejaVu Sans';fill:#111111"
   class="mod"
   aria-label="Strg" />&#10;<path
   d="m 357.98145,160.70996 h 1.46972 l 1.86035,4.96094 1.87012,-4.96094 h 1.46973 V 168 h -0.96192 v -6.40137 l -1.87988,5 h -0.99121 l -1.87988,-5 V 168 h -0.95703 z m 10.708,2.45117 q -0.72265,0 -1.14258,0.56641 -0.41992,0.56152 -0.41992,1.54297 0,0.98144 0.41504,1.54785 0.41992,0.56152 1.14746,0.56152 0.71778,0 1.1377,-0.5664 0.41992,-0.56641 0.41992,-1.54297 0,-0.97168 -0.41992,-1.53809 -0.41992,-0.57129 -1.1377,-0.57129 z m 0,-0.76172 q 1.17188,0 1.84082,0.76172 0.66895,0.76172 0.66895,2.10938 0,1.34277 -0.66895,2.10937 -0.66894,0.76172 -1.84082,0.76172 -1.17675,0 -1.8457,-0.76172 -0.66406,-0.7666 -0.66406,-2.10937 0,-1.34766 0.66406,-2.10938 0.66895,-0.76172 1.8457,-0.76172 z m 7.59766,0.96192 v -2.95899 h 0.89844 V 168 h -0.89844 v -0.82031 q -0.2832,0.48828 -0.71777,0.72754 -0.42969,0.23437 -1.03516,0.23437 -0.99121,0 -1.61621,-0.79101 -0.62012,-0.79102 -0.62012,-2.08008 0,-1.28906 0.62012,-2.08008 0.625,-0.79102 1.61621,-0.79102 0.60547,0 1.03516,0.23926 0.43457,0.23438 0.71777,0.72266 z m -3.06152,1.90918 q 0,0.99121 0.40527,1.55761 0.41016,0.56153 1.12305,0.56153 0.71289,0 1.12304,-0.56153 0.41016,-0.5664 0.41016,-1.55761 0,-0.99121 -0.41016,-1.55274 -0.41015,-0.5664 -1.12304,-0.5664 -0.71289,0 -1.12305,0.5664 -0.40527,0.56153 -0.40527,1.55274 z m 8.64746,-3.70117 -2.49024,3.8916 h 2.49024 z m -0.25879,-0.85938 h 1.24023 v 4.75098 h 1.04004 v 0.82031 h -1.04004 V 168 h -0.98144 v -1.71875 h -3.29102 v -0.95215 z"
   id="m4rtxt"
   style="font-size:10px;line-height:0%;font-family:'DejaVu Sans';fill:#111111"
   class="mod"
   aria-label="Mod4" />&#10;<path
   d="m 262.99756,161.35937 q -0.76172,0 -1.14746,0.75196 -0.38086,0.74707 -0.38086,2.25097 0,1.49903 0.38086,2.25098 0.38574,0.74707 1.14746,0.74707 0.7666,0 1.14746,-0.74707 0.38574,-0.75195 0.38574,-2.25098 0,-1.5039 -0.38574,-2.25097 -0.38086,-0.75196 -1.14746,-0.75196 z m 0,-0.78125 q 1.22558,0 1.87012,0.97168 0.64941,0.9668 0.64941,2.8125 0,1.84082 -0.64941,2.8125 -0.64454,0.9668 -1.87012,0.9668 -1.22559,0 -1.875,-0.9668 -0.64453,-0.97168 -0.64453,-2.8125 0,-1.8457 0.64453,-2.8125 0.64941,-0.97168 1.875,-0.97168 z"
   id="text61"
   style="font-size:10px;line-height:0%;font-family:'DejaVu Sans';text-align:center;text-anchor:middle;fill:#111111"
   class="mod space"
   aria-label="0" />&#10;&#10;<path
   d="m 498.84863,61.083984 -3.47265,-3.472656 3.47265,-3.472656 v 1.866211 h 3.87598 v -4.210938 h 3.21289 l -0.007,7.423828 h -7.08203 z m -0.68359,-4.395507 v -0.895508 l -1.81836,1.818359 1.81836,1.818359 V 58.53418 h 7.08203 l 0.007,-6.056641 h -1.84571 l -0.007,4.210938 z"
   id="returntxt"
   style="font-size:14px;line-height:0%;font-family:'DejaVu Sans';fill:#111111"
   class="mod big"
   aria-label="⏎" />&#10;<path
   d="m 493.37891,23 h -9.5752 l -3.79883,-3.798828 3.79883,-3.798828 h 9.5752 z m -0.72266,-6.875 h -0.68848 l -3.07617,3.076172 3.07617,3.076172 h 0.68848 z m -6.8457,0 2.56347,2.563477 2.56348,-2.563477 z m 5.12695,6.152344 -2.56348,-2.563477 -2.56347,2.563477 z M 484.79492,16.125 h -0.69336 l -3.07617,3.085937 3.07617,3.066407 h 0.69336 l 3.07617,-3.076172 z"
   id="backspacetxt"
   style="font-size:10px;line-height:0%;font-family:'DejaVu Sans';fill:#111111"
   class="mod"
   aria-label="⌫" />&#10;</g>&#10;&#10;<g
   transform="translate(55,26)"
   id="g72">&#10;	<path
   d="m 0.77148437,-10.039063 q -1.25976562,0.3222661 -1.71875,0.6347661 -0.45898437,0.3027344 -0.45898437,0.78125 0,0.8203125 0.8984375,0.8203125 0.53710938,0 1.27929687,-0.6542969 z m 0.85937503,2.8808599 q -0.3417969,0 -0.5664063,-0.234375 -0.21484372,-0.2441406 -0.27343748,-0.546875 -0.51757812,0.4589844 -0.86914062,0.625 -0.3515625,0.15625 -0.83007813,0.15625 -0.64453127,0 -1.09374997,-0.390625 -0.4492188,-0.390625 -0.4492188,-1.015625 0,-1.2011719 2.0605469,-1.7187499 l 1.16210937,-0.292969 q 0,-1.660156 -1.07421875,-1.660156 -0.49804687,0 -0.79101562,0.146484 -0.2929687,0.146485 -0.2929687,0.390625 0,0.175781 0.039063,0.263672 0.039063,0.07813 0.039063,0.234375 0,0.136719 -0.1269532,0.283203 -0.1269531,0.136719 -0.390625,0.136719 -0.2246094,0 -0.3710937,-0.136719 -0.1464844,-0.146484 -0.1464844,-0.361328 0,-0.556641 0.6933594,-1.005859 0.70312497,-0.458985 1.38671872,-0.458985 2.11914058,0 2.11914058,2.285157 v 1.4941402 q 0,1.1425782 0.2734376,1.1425782 0.1367187,0 0.2441406,-0.097656 0.2246094,0.078125 0.2050781,0.3222657 -0.4101562,0.4394531 -0.9472656,0.4394531 z"
   id="text62"
   style="font-size:20px;line-height:0%;font-family:'Linux Libertine';text-align:center;text-anchor:middle;fill:#111111;stroke-width:1.25"
   class="key"
   aria-label="ª" />&#10;	<path
   d="m 33.294922,-8.5839844 q 0,-1.2207031 0.761719,-1.9726566 0.761718,-0.761718 2.041015,-0.761718 1.240235,0 1.933594,0.761718 0.703125,0.7519535 0.703125,1.8554691 0,1.0644532 -0.732422,1.8554688 -0.732422,0.78125 -2.050781,0.78125 -1.123047,0 -1.894531,-0.7226563 -0.761719,-0.7324218 -0.761719,-1.796875 z m 2.636719,-2.2167966 q -0.722657,0 -1.103516,0.585937 -0.371094,0.5761721 -0.371094,1.4355471 0,0.8398438 0.439453,1.5234375 0.439453,0.6738282 1.279297,0.6738282 0.517578,0 0.957031,-0.4199219 0.439454,-0.4199219 0.439454,-1.3769532 0,-1.1816406 -0.439454,-1.7968747 -0.439453,-0.625 -1.201171,-0.625 z"
   id="text63"
   style="font-size:20px;line-height:0%;font-family:'Linux Libertine';text-align:center;text-anchor:middle;fill:#111111;stroke-width:1.25"
   class="key"
   aria-label="º" />&#10;	<path
   d="m 66.716797,-3.359375 q 0,2.0996094 -0.390625,2.83203125 -0.390625,0.72265625 -1.669922,0.72265625 -0.761719,0 -1.298828,-0.34179687 -0.527344,-0.35156251 -0.527344,-0.83007813 0,-0.3808594 0.185547,-0.5664062 0.195312,-0.1953125 0.478516,-0.1953125 0.537109,0 0.859375,0.6152343 0.01953,0.039063 0.09766,0.20507815 0.07813,0.15625 0.117187,0.24414063 0.03906,0.078125 0.126953,0.15625 0.09766,0.078125 0.195313,0.078125 0.576172,0 0.742187,-0.47851562 0.175782,-0.47851565 0.175782,-2.02148435 v -8.0566409 q -0.09766,-0.458984 -0.498047,-0.908203 -0.400391,-0.458984 -0.859375,-0.458984 h -0.09766 q -0.263672,0 -0.263672,-0.15625 v -0.38086 l 0.03906,-0.01953 h 2.646485 l 5.253906,8.8183595 q 0.800781,1.3574219 0.957031,1.3574219 0.166016,0 0.166016,-0.8203125 v -6.0351563 q 0,-2.0996096 0.390625,-2.8320316 0.390625,-0.732422 1.669922,-0.732422 0.761718,0 1.289062,0.351563 0.527344,0.351562 0.527344,0.830078 0,0.380859 -0.195313,0.576172 -0.185547,0.185547 -0.458984,0.185547 -0.537109,0 -0.859375,-0.615235 -0.01953,-0.03906 -0.107422,-0.195312 -0.07813,-0.166016 -0.117187,-0.244141 -0.03906,-0.08789 -0.126954,-0.166015 -0.08789,-0.07813 -0.195312,-0.07813 -0.576172,0 -0.751953,0.478515 -0.166016,0.478516 -0.166016,2.021485 v 9.59960912 q 0,0.28320313 -0.214844,0.46875 -0.205078,0.19531251 -0.419921,0.19531251 -0.703125,0 -1.044922,-0.52734376 L 67.136719,-9.1015625 q -0.263672,-0.4199219 -0.322266,-0.4199219 -0.09766,0 -0.09766,0.7421875 z m 13.59375,2.1777344 h -4.121094 q -0.302734,0 -0.292969,-0.2832031 0,-0.1953125 0.15625,-0.390625 0.15625,-0.2050782 0.341797,-0.2050782 h 4.179688 q 0.283203,0 0.273437,0.3027344 0,0.15625 -0.185547,0.3710938 -0.175781,0.2050781 -0.351562,0.2050781 z m -1.962891,-7.9394532 q 1.279297,0 1.933594,0.8300782 0.654297,0.8300781 0.654297,2.03125 0,1.0644531 -0.712891,1.8847656 -0.71289,0.8105469 -1.894531,0.8105469 -1.162109,0 -1.865234,-0.7910156 -0.69336,-0.8007813 -0.69336,-1.8457032 0,-1.1816406 0.664063,-2.0507812 0.673828,-0.8691407 1.914062,-0.8691407 z m 1.40625,3.2421876 q 0,-1.1816407 -0.439453,-1.9628907 -0.439453,-0.78125 -1.083984,-0.78125 -0.556641,0 -0.917969,0.5371094 -0.361328,0.5273438 -0.361328,1.6503906 0,1.1132813 0.46875,1.7480469 0.46875,0.625 1.132812,0.625 0.478516,0 0.839844,-0.4785156 0.361328,-0.4785156 0.361328,-1.3378906 z"
   id="text64"
   style="font-size:20px;line-height:0%;font-family:'Linux Libertine';text-align:center;text-anchor:middle;fill:#111111;stroke-width:1.25"
   class="key"
   aria-label="№" />&#10;	<text
   x="108"
   class="key"
   id="text65" />&#10;	<path
   d="M 144.75195,-4.3066406 Q 144.41992,-3.984375 144,-3.984375 q -0.41992,0 -0.75195,-0.3222656 -0.33203,-0.3320313 -0.33203,-0.7519531 0,-0.4199219 0.33203,-0.7519532 0.33203,-0.3320312 0.75195,-0.3320312 0.41992,0 0.75195,0.3320312 0.33203,0.3320313 0.33203,0.7519532 0,0.4199218 -0.33203,0.7519531 z"
   id="text66"
   style="font-size:20px;line-height:0%;font-family:'Linux Libertine';text-align:center;text-anchor:middle;fill:#111111;stroke-width:1.25"
   class="key"
   aria-label="·" />&#10;&#10;	<path
   d="m 176.83594,-5.9960937 q -0.11719,0 -0.12696,-0.1464844 v -0.2148438 q 0,-0.15625 0.11719,-0.2832031 0.12695,-0.1367187 0.36133,-0.1367187 h 0.9082 v -0.4003907 q 0,-1.2402344 0.38086,-2.1289062 0.39063,-0.8886724 1.25977,-1.7285154 1.14258,-1.181641 2.65625,-1.181641 0.47851,0 1.03515,0.253906 0.56641,0.244141 0.56641,0.722657 0,0.380859 -0.23437,0.605468 -0.22461,0.214844 -0.58594,0.214844 -0.30274,0 -0.72266,-0.380859 -0.49805,-0.458985 -0.99609,-0.458985 -0.70313,0 -1.18164,0.878907 -0.47852,0.8789059 -0.47852,2.177734 v 1.4257813 h 2.48047 q 0.15625,0 0.15625,0.1171875 v 0.4003906 q 0,0.2636719 -0.47852,0.2636719 h -2.1582 q -0.0195,2.8027343 -1.5039,4.1796875 0.83984,0 1.41601,0.1464843 0.58594,0.1464844 0.82031,0.3222657 0.24414,0.1660156 0.60547,0.3222656 0.36133,0.14648435 0.80078,0.14648435 1.41602,0 2.06055,-0.87890625 0.26367,0.039063 0.36133,0.2148438 -0.38086,0.8007812 -1.10352,1.28906245 -0.72265,0.47851563 -1.67968,0.47851563 -0.89844,0 -1.80665,-0.59570313 -0.89843,-0.60546875 -1.77734,-0.60546875 -0.80078,0 -0.80078,0.49804687 0,0.34179688 -0.23438,0.51757813 -0.2246,0.18554688 -0.5664,0.18554688 -0.30274,0 -0.50781,-0.16601563 -0.20508,-0.15625 -0.20508,-0.40039063 0,-0.43945312 1.01562,-0.99609372 0.82032,-0.5957031 1.11328,-1.6601563 0.29297,-1.0644531 0.29297,-2.6171875 v -0.3808593 z"
   id="text67"
   style="font-size:20px;line-height:0%;font-family:'Linux Libertine';text-align:center;text-anchor:middle;fill:#111111;stroke-width:1.25"
   class="key"
   aria-label="£" />&#10;	<path
   d="m 213.50977,-6.1035156 q 0,1.1816406 0.67382,2.0019531 0.6836,0.8203125 1.78711,0.8203125 1.08399,0 1.76758,-0.8203125 0.69336,-0.8203125 0.69336,-1.9824219 0,-1.1816406 -0.72266,-1.9921875 -0.71289,-0.8203125 -1.69921,-0.8203125 -1.08399,0 -1.79688,0.8203125 -0.70312,0.8105469 -0.70312,1.9726563 z m 2.46093,3.7207031 q -1.24023,0 -2.27539,-0.7617188 l -0.9082,1.1230469 -0.85938,-0.859375 1.14258,-0.8984375 q -0.83984,-1.015625 -0.83984,-2.3046875 0,-1.3183593 0.83984,-2.3144531 l -1.10351,-0.8789063 0.78125,-0.8398442 0.96679,1.0742192 q 1.03516,-0.7421875 2.25586,-0.7324218 1.2793,0 2.30469,0.7714843 l 0.97656,-1.1523437 0.82032,0.859375 -1.16211,0.9375 q 0.80078,0.9765625 0.80078,2.2753906 0,1.2402344 -0.78125,2.265625 l 1.10351,0.9179688 -0.76172,0.8007812 -0.95703,-1.0644531 q -1.05468,0.78125 -2.34375,0.78125 z"
   id="text68"
   style="font-size:20px;line-height:0%;font-family:'Linux Libertine';text-align:center;text-anchor:middle;fill:#111111;stroke-width:1.25"
   class="key"
   aria-label="¤" />&#10;	<path
   d="m 244.76367,-7.0996094 h 10.17578 l -2.28515,-2.2851562 1.17187,-1.1718754 3.84766,3.8476566 v -3.7499996 h 1.66015 v 8.3984371 h -1.66015 v -3.7695312 l -3.84766,3.8476562 -1.17187,-1.171875 2.28515,-2.2851562 h -10.17578 z"
   id="text69"
   style="font-size:20px;line-height:0%;font-family:'Linux Libertine';text-align:center;text-anchor:middle;fill:#111111;stroke-width:1.25"
   class="key"
   aria-label="⇥" />&#10;	<path
   d="m 290.63184,-12.919922 -4.73633,14.1015626 h -0.82031 l 4.73632,-14.1015626 z"
   id="text70"
   style="font-size:20px;line-height:0%;font-family:'Linux Libertine';text-align:center;text-anchor:middle;fill:#111111;stroke-width:1.25"
   class="key"
   aria-label="/" />&#10;	<path
   d="m 323.67285,-10.9375 q -0.3418,-0.07813 -0.83984,-0.07813 -1.6211,0 -1.6211,-0.742188 0,-0.24414 0.15625,-0.419921 0.16602,-0.185547 0.50782,-0.185547 0.38086,0 0.96679,0.439453 0.58594,0.439453 0.94727,0.585937 -0.0391,-0.40039 -0.25391,-0.986328 -0.20508,-0.595703 -0.20508,-0.859375 0,-0.322265 0.16602,-0.546875 0.17578,-0.234375 0.43945,-0.234375 0.66407,0 0.6543,0.703125 0,0.283203 -0.18555,0.976563 -0.17578,0.683593 -0.19531,0.966797 0.38086,-0.15625 0.95703,-0.595704 0.58594,-0.449218 0.94727,-0.449218 0.36133,0 0.51758,0.205078 0.16601,0.195312 0.16601,0.40039 0,0.742188 -1.38672,0.742188 -0.61523,0 -1.09375,0.07813 0.24414,0.263672 0.69336,0.576172 0.45899,0.302734 0.71289,0.5566405 0.25391,0.2441406 0.25391,0.6054687 0,0.2636719 -0.18555,0.4199219 -0.17578,0.15625 -0.40039,0.15625 -0.3418,0 -0.57617,-0.3125 -0.22461,-0.3222656 -0.45898,-0.9082031 -0.22461,-0.595703 -0.38086,-0.859375 -0.13672,0.263672 -0.38086,0.8886719 -0.24414,0.6152343 -0.46875,0.9082031 -0.21485,0.2832031 -0.55664,0.2832031 -0.26368,0 -0.41993,-0.1660156 -0.15625,-0.1757813 -0.15625,-0.390625 0,-0.3808594 0.25391,-0.6347656 0.26367,-0.2636719 0.72266,-0.5468749 0.45898,-0.292969 0.70312,-0.576172 z"
   id="text71"
   style="font-size:20px;line-height:0%;font-family:'Linux Libertine';text-align:center;text-anchor:middle;fill:#111111;stroke-width:1.25"
   class="key"
   aria-label="*" />&#10;	<path
   d="m 362.04102,-4.4628906 h -4.31641 q -0.30274,0 -0.30274,-0.3808594 0,-0.2832031 0.15625,-0.546875 0.16602,-0.2734375 0.3418,-0.2734375 h 4.38477 q 0.2832,0 0.27343,0.4003906 0,0.1953125 -0.18554,0.4980469 -0.17578,0.3027344 -0.35156,0.3027344 z"
   id="text72"
   style="font-size:20px;line-height:0%;font-family:'Linux Libertine';text-align:center;text-anchor:middle;fill:#111111;stroke-width:1.25"
   class="key"
   aria-label="-" />&#10;</g>&#10;&#10;&#10;<path
   d="m 10.799805,55.030273 h 7.123047 l -1.59961,-1.599609 0.820313,-0.820312 2.693359,2.693359 v -2.625 h 1.162109 v 5.878906 h -1.162109 v -2.638672 l -2.693359,2.69336 -0.820313,-0.820313 1.59961,-1.599609 h -7.123047 z"
   id="text73"
   style="font-size:14px;line-height:0%;font-family:'DejaVu Sans';fill:#111111"
   class="mod big"
   aria-label="⇥" />&#10;&#10;<g
   transform="translate(73,62)"
   id="g84">&#10;	<path
   d="m -0.43945313,-14.648438 h 0.87890626 l 3.82812497,3.847657 -1.171875,1.1718747 -2.26562497,-2.2851567 v 3.6132817 H 3.7207031 V -6.640625 H 0.83007813 v 1.6601563 H 3.7207031 v 1.6601562 H 0.83007813 V 0 H -0.83007813 V -3.3203125 H -3.7011719 v -1.6601562 h 2.87109377 V -6.640625 H -3.7011719 v -1.6601563 h 2.87109377 v -3.6132817 l -2.28515627,2.2851567 -1.171875,-1.1718747 z"
   id="text74"
   style="font-size:20px;line-height:0%;font-family:'Linux Libertine';text-align:center;text-anchor:middle;fill:#111111;stroke-width:1.25"
   class="key"
   aria-label="⇞" />&#10;	<path
   d="m 33.905273,-7.9199219 h -1.33789 q -1.484375,1.6992188 -3.720703,3.6230469 2.001953,1.6992187 3.720703,3.61328125 h 1.357422 l 3.017578,-3.59374995 z m 6.054688,7.23632815 -2.539063,-3.03710935 -2.539062,3.03710935 z m 0.966797,0 h 1.582031 V -7.9199219 h -1.5625 l -3.037109,3.6425782 z m -6.083985,-7.23632815 2.578125,3.0566407 2.56836,-3.0566407 z M 32.225586,-8.6035156 H 43.280273 V 0 H 32.225586 q -2.34375,-2.5 -4.384766,-3.9160156 v -0.7617188 q 2.080078,-1.4648437 4.384766,-3.9257812 z"
   id="text75"
   style="font-size:20px;line-height:0%;font-family:'Linux Libertine';text-align:center;text-anchor:middle;fill:#111111;stroke-width:1.25"
   class="key"
   aria-label="⌫" />&#10;	<path
   d="m 71.560547,-14.648438 h 0.878906 l 3.847656,3.847657 -1.171875,1.1718747 -2.285156,-2.2851567 v 3.6132817 h -1.660156 v -3.6132817 l -2.285156,2.2851567 -1.171875,-1.1718747 z m -0.390625,8.007813 h 1.660156 v 2.4804688 h -1.660156 z m 0,4.140625 h 1.660156 V 0 h -1.660156 z"
   id="text76"
   style="font-size:20px;line-height:0%;font-family:'Linux Libertine';text-align:center;text-anchor:middle;fill:#111111;stroke-width:1.25"
   class="key"
   aria-label="⇡" />&#10;	<path
   d="m 110.12402,-7.9003906 -3.03711,3.6230469 3.01758,3.59374995 h 1.35742 Q 113.06348,-2.5 115.18262,-4.296875 112.7998,-6.3378906 111.44238,-7.9003906 Z m -6.05468,7.21679685 h 5.07812 L 106.6084,-3.7207031 Z m -0.9668,0 3.01758,-3.59374995 -3.05664,-3.6230469 h -1.54297 v 7.21679685 z m 6.06445,-7.21679685 h -5.14648 l 2.58789,3.0371094 z m 2.61719,-0.6835938 q 2.24609,2.4023438 4.38477,3.90625 v 0.7617188 Q 114.12793,-2.5 111.78418,0 h -11.05469 v -8.5839844 z"
   id="text77"
   style="font-size:20px;line-height:0%;font-family:'Linux Libertine';text-align:center;text-anchor:middle;fill:#111111;stroke-width:1.25"
   class="key"
   aria-label="⌦" />&#10;	<path
   d="m 144.41992,0.06835937 h -0.8789 l -3.82813,-3.84765627 1.17188,-1.171875 2.26562,2.2851563 v -3.6132813 h -2.89062 v -1.6601562 h 2.89062 v -1.6601563 h -2.89062 v -1.6601566 h 2.89062 v -3.320312 h 1.66016 v 3.320312 h 2.87109 v 1.6601566 h -2.87109 v 1.6601563 h 2.87109 v 1.6601562 h -2.87109 v 3.6132813 l 2.28515,-2.2851563 1.17188,1.171875 z"
   id="text78"
   style="font-size:20px;line-height:0%;font-family:'Linux Libertine';text-align:center;text-anchor:middle;fill:#111111;stroke-width:1.25"
   class="key"
   aria-label="⇟" />&#10;&#10;	<path
   d="m 180.7373,4.21875 q -0.3125,0.3613281 -0.73242,0.3613281 -0.41992,0 -0.74218,-0.3613281 -0.32227,-0.3613281 -0.32227,-1.1035156 0,-0.5761719 0.0684,-1.1328125 0.0781,-0.546875 0.20508,-1.3183594 0.12695,-0.76171875 0.21484,-1.40625 0.11719,-0.9375 0.17578,-1.7871094 0.0586,-0.8496094 0.0781,-1.3085937 0.0195,-0.4589844 0.0391,-0.546875 0.0391,-0.4003906 0.27344,-0.390625 0.24414,0 0.29297,0.2539062 0.0195,0.1171875 0.0586,0.7617188 0.0391,0.6445312 0.10742,1.4941406 0.0684,0.8496094 0.14649,1.5234375 0.0586,0.61523438 0.2539,1.8359375 0.20508,1.2304688 0.20508,2.0214844 0,0.7421875 -0.32227,1.1035156 z m 0.01,-12.6855469 q 0.3125,0.3027344 0.3125,0.7519532 0,0.4394531 -0.3125,0.7519531 -0.30273,0.3027344 -0.74219,0.3027344 -0.43945,0 -0.75195,-0.3027344 -0.3125,-0.3125 -0.3125,-0.7519531 0,-0.4492188 0.3125,-0.7519532 0.3125,-0.3125 0.75195,-0.3125 0.43946,0 0.74219,0.3125 z"
   id="text79"
   style="font-size:20px;line-height:0%;font-family:'Linux Libertine';text-align:center;text-anchor:middle;fill:#111111;stroke-width:1.25"
   class="key"
   aria-label="¡" />&#10;	<path
   d="m 214.75,-10.703125 q -0.38086,0 -0.6543,0.09766 -0.26367,0.08789 -0.57617,0.488281 -0.3125,0.4003911 -0.50781,1.1523442 -0.30274,0.039063 -0.64453,-0.058594 0.38086,-2.5000005 0.40039,-3.1933595 0,-0.05859 0.0879,-0.05859 0.0781,0.01953 0.33203,0.146485 0.26367,0.126953 0.66406,0.126953 h 4.1211 q 0.80078,0 1.54296,-0.214844 l 0.3125,0.234375 q -2.1582,5.2832033 -4.47265,12.1777345 l -1.36719,0.0683594 -0.15625,-0.14648438 q 1.48438,-3.3007813 4.50195,-10.8203125 z"
   id="text80"
   style="font-size:20px;line-height:0%;font-family:'Linux Libertine';text-align:center;text-anchor:middle;fill:#111111;stroke-width:1.25"
   class="key"
   aria-label="7" />&#10;	<path
   d="m 252.0293,-11.503906 q -0.85938,0 -1.34766,0.488281 -0.48828,0.478516 -0.48828,1.1914062 0,0.5566407 0.26367,1.0546875 0.27344,0.4882813 1.13281,1.0449219 l 0.625,0.3808594 q 1.60157,-1.1816406 1.60157,-2.3730469 0,-0.7617191 -0.43946,-1.2695311 -0.42968,-0.517578 -1.34765,-0.517578 z m 3.18359,1.8066404 q 0,0.859375 -0.77148,1.5917968 -0.77149,0.7226563 -1.68946,1.1816407 l 1.41602,0.859375 q 1.5625,0.9375 1.5625,2.8222656 0,1.2792969 -1.04492,2.36328125 -1.03516,1.07421875 -2.85157,1.07421875 -1.62109,0 -2.59765,-0.80078125 -0.9668,-0.81054685 -0.9668,-2.31445315 0,-1.3769531 1.16211,-2.4023437 0.69336,-0.6054688 1.61133,-1.09375 l -0.50781,-0.3222656 q -1.75782,-1.1035157 -1.76758,-2.7050782 0,-1.1816406 0.92773,-1.9628906 0.9375,-0.791016 2.43164,-0.791016 1.43555,0 2.25586,0.703125 0.83008,0.69336 0.83008,1.7968754 z m -3.33984,9.19921872 q 0.91797,0 1.66015,-0.50781252 0.74219,-0.5175781 0.74219,-1.8359375 0,-1.6015625 -1.74805,-2.65625 l -0.9375,-0.5664062 q -1.12304,0.7421875 -1.55273,1.6113281 -0.42969,0.8691406 -0.42969,1.5332031 0,1.2207032 0.71289,1.8261719 0.71289,0.59570312 1.55274,0.59570312 z"
   id="text81"
   style="font-size:20px;line-height:0%;font-family:'Linux Libertine';text-align:center;text-anchor:middle;fill:#111111;stroke-width:1.25"
   class="key"
   aria-label="8" />&#10;	<path
   d="m 290.07031,-5.8398437 q 0.16602,-0.8007813 0.16602,-1.5625 0,-2.3632813 -0.6543,-3.2324223 -0.6543,-0.86914 -1.74805,-0.86914 -0.78125,0 -1.30859,0.820312 -0.51758,0.8203127 -0.51758,2.3828127 0,0.4394532 0.10742,0.8886719 0.11719,0.4492188 0.35157,0.9375 0.24414,0.4785157 0.74218,0.7910157 0.49805,0.3027343 1.20118,0.3027343 0.95703,0 1.66015,-0.4589843 z m -0.18554,0.7226562 q -0.94727,0.4296875 -1.89454,0.4394531 -1.90429,0 -2.77343,-0.9082031 -0.86914,-0.9179687 -0.86914,-2.3535156 0,-1.5429688 0.95703,-2.9003909 0.96679,-1.357422 2.74414,-1.357422 0.66406,0 1.25976,0.205078 0.60547,0.195313 1.22071,0.683594 0.625,0.488281 0.98632,1.5136721 0.3711,1.015625 0.3711,2.4511719 0,2.6757813 -1.85547,4.84375 -1.66016,1.94335938 -4.375,2.74414063 -0.24414,-0.15625001 -0.24414,-0.52734376 1.8457,-0.69335937 2.91992,-1.98242187 1.08399,-1.2890625 1.55274,-2.8515625 z"
   id="text82"
   style="font-size:20px;line-height:0%;font-family:'Linux Libertine';text-align:center;text-anchor:middle;fill:#111111;stroke-width:1.25"
   class="key"
   aria-label="9" />&#10;	<path
   d="m 323.50195,-8.7011719 q 0,-0.1757812 0.24414,-0.3515625 0.25391,-0.1855469 0.41993,-0.1855469 0.34179,0 0.33203,0.2734375 v 3.4472657 h 3.52539 q 0.2832,0 0.2832,0.3417969 0,0.15625 -0.18555,0.4101562 -0.17578,0.2441406 -0.36132,0.2441406 h -3.26172 v 3.203125 q 0,0.1757813 -0.23438,0.3417969 -0.22461,0.15625 -0.43945,0.15625 -0.32227,0 -0.32227,-0.3027344 v -3.3984375 h -3.49609 q -0.30274,0 -0.30274,-0.3222656 0,-0.2246094 0.15625,-0.4492187 0.16602,-0.2246094 0.3418,-0.2246094 h 3.30078 z"
   id="text83"
   style="font-size:20px;line-height:0%;font-family:'Linux Libertine';text-align:center;text-anchor:middle;fill:#111111;stroke-width:1.25"
   class="key"
   aria-label="+" />&#10;	<path
   d="m 363.75977,-4.5214844 h -7.75391 q -0.30274,0 -0.30274,-0.3222656 0,-0.2246094 0.15625,-0.4492187 0.16602,-0.2246094 0.3418,-0.2246094 h 7.82227 q 0.2832,0 0.2832,0.3417969 0,0.15625 -0.18555,0.4101562 -0.18554,0.2441406 -0.36132,0.2441406 z"
   id="text84"
   style="font-size:20px;line-height:0%;font-family:'Linux Libertine';text-align:center;text-anchor:middle;fill:#111111;stroke-width:1.25"
   class="key"
   aria-label="−" />&#10;</g>&#10;&#10;&#10;<g
   transform="translate(84,98)"
   id="g94">&#10;	<path
   d="m 7.3730469,-14.580078 v 0.966797 h -13.59375 V 0 H -7.1875 v -14.580078 z m -11.7285156,3.447265 0.6152343,-0.615234 h 5.4296875 v 1.650391 h -3.2226562 l 8.4179687,8.4179685 -1.171875,1.171875 -8.4179687,-8.4179688 v 3.2226563 h -1.6503906 z"
   id="text85"
   style="font-size:20px;line-height:0%;font-family:'Linux Libertine';text-align:center;text-anchor:middle;fill:#111111;stroke-width:1.25"
   class="key"
   aria-label="⇱" />&#10;	<path
   d="m 28.597656,-5.8300781 v -0.8789063 l 3.837891,-3.8378906 1.171875,1.171875 -2.275391,2.2753906 h 3.603516 v 1.6601563 h -3.603516 l 2.275391,2.2753906 -1.171875,1.171875 z m 7.998047,0.390625 v -1.6601563 h 2.490234 v 1.6601563 z m 4.150391,0 v -1.6601563 h 2.490234 v 1.6601563 z"
   id="text86"
   style="font-size:20px;line-height:0%;font-family:'Linux Libertine';text-align:center;text-anchor:middle;fill:#111111;stroke-width:1.25"
   class="key"
   aria-label="⇠" />&#10;	<path
   d="m 71.560547,0.06835937 -3.847656,-3.84765627 1.171875,-1.171875 2.285156,2.2851563 v -3.6132813 h 1.660156 v 3.6132813 l 2.285156,-2.2851563 1.171875,1.171875 -3.847656,3.84765627 z M 71.169922,-7.9394531 v -2.4804689 h 1.660156 v 2.4804689 z m 0,-4.1406249 v -2.5 h 1.660156 v 2.5 z"
   id="text87"
   style="font-size:20px;line-height:0%;font-family:'Linux Libertine';text-align:center;text-anchor:middle;fill:#111111;stroke-width:1.25"
   class="key"
   aria-label="⇣" />&#10;	<path
   d="m 115.40234,-5.8300781 -3.83789,3.8378906 -1.17187,-1.171875 2.27539,-2.2753906 h -3.60352 v -1.6601563 h 3.60352 L 110.39258,-9.375 l 1.17187,-1.171875 3.83789,3.8378906 z m -10.48828,-1.2695313 h 2.49024 v 1.6601563 h -2.49024 z m -1.66015,0 v 1.6601563 h -2.49024 v -1.6601563 z"
   id="text88"
   style="font-size:20px;line-height:0%;font-family:'Linux Libertine';text-align:center;text-anchor:middle;fill:#eeeeee;stroke-width:1.25"
   class="key nubkey"
   aria-label="⇢" />&#10;	<path
   d="m 136.8125,0 v -0.96679688 h 13.59375 V -14.580078 h 0.9668 V 0 Z m 11.72852,-3.4472656 -0.61524,0.6152343 h -5.42969 v -1.6503906 h 3.22266 l -8.41797,-8.4179691 1.17188,-1.171875 8.41796,8.4179691 v -3.2226562 h 1.6504 z"
   id="text89"
   style="font-size:20px;line-height:0%;font-family:'Linux Libertine';text-align:center;text-anchor:middle;fill:#111111;stroke-width:1.25"
   class="key"
   aria-label="⇲" />&#10;&#10;	<path
   d="m 182.07031,2.8613281 q 0,-0.3808593 -0.11719,-0.5273437 -0.11718,-0.1367188 -0.11718,-0.4785157 0,-0.3222656 0.23437,-0.5078125 0.24414,-0.1855468 0.54688,-0.1855468 0.32226,0 0.5664,0.1953125 0.25391,0.2050781 0.25391,0.6640625 0,0.9765625 -1.02539,1.796875 -0.89844,0.78125 -2.48047,0.78125 -1.52344,0 -2.44141,-0.8300781 -0.91796,-0.8300782 -0.91796,-2.1875001 0,-0.5566406 0.17578,-1.04492183 0.18554,-0.47851562 0.58593,-0.88867187 0.40039,-0.41015625 0.6543,-0.625 0.26367,-0.2246094 0.76172,-0.5859375 0.83984,-0.6152344 1.04492,-0.9960938 0.2832,-0.5371093 0.2832,-1.4648437 v -0.8789062 q 0,-0.1953125 0.33204,-0.1953125 0.32226,0 0.32226,0.1953125 v 0.9179687 q 0,1.9433594 -1.39648,3.22265625 -0.59571,0.55664062 -0.84961,1.0546875 -0.25391,0.5078125 -0.25391,1.21093745 0,0.9960938 0.52735,1.7089844 0.5371,0.7226563 1.37695,0.7226563 0.83984,0 1.38672,-0.3125 0.54687,-0.3027344 0.54687,-0.7617188 z m -0.9082,-11.328125 q 0.3125,0.3027344 0.3125,0.7519532 0,0.4394531 -0.3125,0.7519531 -0.3125,0.3027344 -0.75195,0.3027344 -0.43946,0 -0.75196,-0.3027344 -0.30273,-0.3125 -0.30273,-0.7519531 0,-0.4492188 0.30273,-0.7519532 0.3125,-0.3125 0.75196,-0.3125 0.43945,0 0.75195,0.3125 z"
   id="text90"
   style="font-size:20px;line-height:0%;font-family:'Linux Libertine';text-align:center;text-anchor:middle;fill:#111111;stroke-width:1.25"
   class="key"
   aria-label="¿" />&#10;	<path
   d="m 216.77148,-10.136719 q -1.52343,2.0800784 -3.81836,5.7519534 h 3.81836 z m 3.1836,5.7519534 q 0.30273,0 0.29297,0.3222656 0,0.1757812 -0.19532,0.4003906 -0.18554,0.2246094 -0.38086,0.2246094 h -1.37695 v 1.8359375 q 0,0.3222656 0.0488,0.5175781 0.0488,0.1855469 0.25391,0.27343752 0.21484,0.0878906 0.33203,0.10742188 0.11718,0.0195313 0.55664,0.0683594 0.13672,0.0195313 0.20508,0.0195313 0.0977,0.0976563 0.0977,0.34179687 0,0.234375 -0.0977,0.3125 Q 218.41211,0 217.51367,0 q -1.08398,0 -2.36328,0.0390625 -0.0781,-0.078125 -0.0781,-0.3125 0,-0.24414062 0.0781,-0.34179687 1.07422,-0.078125 1.33789,-0.29296876 0.2832,-0.22460937 0.2832,-0.69335937 V -3.4375 h -4.08203 q -0.61523,0 -0.78125,-0.8398437 3.09571,-4.8632813 5.41992,-7.7050783 0.17579,-0.224609 0.32227,-0.214844 h 0.64453 l 0.0391,0.03906 q -0.0391,0.175781 -0.0391,1.933594 v 5.8398434 z"
   id="text91"
   style="font-size:20px;line-height:0%;font-family:'Linux Libertine';text-align:center;text-anchor:middle;fill:#eeeeee;stroke-width:1.25"
   class="key nubkey"
   aria-label="4" />&#10;	<path
   d="m 253.72852,-3.7792969 q 0,-1.5625 -0.64454,-2.2949218 -0.63476,-0.7421875 -1.66992,-0.7421875 -1.25976,0 -2.53906,0.4785156 l 0.67383,-5.7617184 q 1.16211,0.09766 2.1582,0.09766 1.20117,0 3.28125,-0.214844 l 0.14649,0.07813 -0.32227,1.357422 q -1.2207,0.117187 -2.09961,0.117187 -0.68359,0 -2.34375,-0.175781 L 249.96875,-7.5 q 0.82031,-0.3222656 1.96289,-0.3222656 1.62109,0 2.59766,1.0839844 0.98632,1.0742187 0.98632,2.5976562 0,1.9042969 -1.1914,3.1347656 -1.19141,1.23046878 -3.05664,1.23046878 -0.91797,0 -1.875,-0.45898438 -0.95703,-0.46875 -0.95703,-1.0449219 0,-0.3027343 0.22461,-0.5175781 0.23437,-0.2246094 0.52734,-0.2246094 0.53711,0 1.02539,0.6445313 0.0195,0.039063 0.11719,0.1660156 0.0976,0.1269531 0.13672,0.1953125 0.0488,0.0585938 0.14648,0.15625 0.0977,0.0976563 0.17578,0.14648438 0.0781,0.0488281 0.19531,0.12695312 0.12696,0.0683594 0.25391,0.0878906 0.13672,0.0195313 0.29297,0.0195313 0.91797,0 1.55273,-0.94726557 0.64454,-0.9570313 0.64454,-2.3535157 z"
   id="text92"
   style="font-size:20px;line-height:0%;font-family:'Linux Libertine';text-align:center;text-anchor:middle;fill:#111111;stroke-width:1.25"
   class="key"
   aria-label="5" />&#10;	<path
   d="m 286.05664,-6.1425781 q -0.16602,0.8007812 -0.16602,1.5625 0,2.3632812 0.64454,3.2324219 0.65429,0.86914057 1.75781,0.86914057 0.78125,0 1.29883,-0.82031247 0.51757,-0.8203125 0.51757,-2.3828125 0,-0.4394531 -0.10742,-0.8886719 -0.10742,-0.4492187 -0.35156,-0.9277344 -0.23437,-0.4785156 -0.74219,-0.7910156 -0.49804,-0.3125 -1.20117,-0.3125 -0.94726,0 -1.65039,0.4589844 z m 0.18555,-0.7226563 q 0.94726,-0.4296875 1.88476,-0.4394531 1.9043,0 2.77344,0.9179688 0.86914,0.9082031 0.86914,2.34375 0,1.5429687 -0.95703,2.9101562 -0.95703,1.35742188 -2.74414,1.35742188 -0.66406,0 -1.25977,-0.20507813 -0.5957,-0.1953125 -1.2207,-0.68359375 -0.61523,-0.4980469 -0.98633,-1.5136719 -0.37109,-1.0253906 -0.37109,-2.4609375 0,-2.6757812 1.86523,-4.84375 1.66016,-1.9433591 4.375,-2.7343751 0.24414,0.136719 0.24414,0.517578 -1.8457,0.69336 -2.92968,1.9824221 -1.07422,1.2890625 -1.54297,2.8515625 z"
   id="text93"
   style="font-size:20px;line-height:0%;font-family:'Linux Libertine';text-align:center;text-anchor:middle;fill:#111111;stroke-width:1.25"
   class="key"
   aria-label="6" />&#10;	<path
   d="m 323.24805,-0.10742187 q -0.30274,-0.31250001 -0.30274,-0.75195313 0,-0.4394531 0.30274,-0.7519531 0.3125,-0.3125 0.75195,-0.3125 0.43945,0 0.75195,0.3125 0.3125,0.3125 0.3125,0.7519531 0,0.43945312 -0.3125,0.75195313 Q 324.43945,0.1953125 324,0.1953125 q -0.43945,0 -0.75195,-0.30273437 z"
   id="text94"
   style="font-size:20px;line-height:0%;font-family:'Linux Libertine';text-align:center;text-anchor:middle;fill:#111111;stroke-width:1.25"
   class="key"
   aria-label="." />&#10;&#10;&#10;</g>&#10;&#10;<g
   transform="translate(101,134)"
   id="g104">&#10;    <path
   d="m -2.5292969,-0.68359375 h 5.078125 L 0.00976563,-3.7207031 Z m -0.9570312,0 3.0175781,-3.59374995 -3.0371094,-3.6425782 h -1.484375 v 7.23632815 z M 2.578125,-7.9199219 h -5.1464844 l 2.57812503,3.0566407 z M 5.7714844,-8.6035156 V 0 H -5.7617187 v -8.6035156 z m -0.78125,7.91992185 V -7.9199219 H 3.5351563 L 0.49804688,-4.2773437 3.515625,-0.68359375 Z"
   id="text95"
   style="font-size:20px;line-height:0%;font-family:'Linux Libertine';text-align:center;text-anchor:middle;fill:#111111;stroke-width:1.25"
   class="key"
   aria-label="⌧" />&#10;    <path
   d="m 28.763672,-7.0996094 h 10.175781 l -2.285156,-2.2851562 1.171875,-1.1718754 3.847656,3.8476566 v -3.7499996 h 1.660156 v 8.3984371 h -1.660156 v -3.7695312 l -3.847656,3.8476562 -1.171875,-1.171875 2.285156,-2.2851562 H 28.763672 Z"
   id="text96"
   style="font-size:20px;line-height:0%;font-family:'Linux Libertine';text-align:center;text-anchor:middle;fill:#111111;stroke-width:1.25"
   class="key"
   aria-label="⇥" />&#10;    <path
   d="m 71.750977,-12.460938 q 2.177734,0 2.177734,2.460938 v 3.1152344 H 72.97168 v -0.3710938 q -0.556641,0.4589844 -1.601563,0.4589844 -0.78125,0 -1.230469,-0.4589844 -0.449218,-0.46875 -0.449218,-1.2792969 0,-0.859375 0.625,-1.3378906 0.634765,-0.4882811 1.591797,-0.4882811 h 1.064453 q 0,-0.556641 -0.361328,-0.888672 -0.361329,-0.332031 -0.9375,-0.332031 -0.78125,0 -1.582032,0.498047 l -0.24414,-0.859375 q 1.044922,-0.517579 1.904297,-0.517579 z m -0.175782,4.7363286 q 0.53711,0 0.966797,-0.3710937 0.429688,-0.3808594 0.429688,-1.3867188 h -0.742188 q -1.582031,0 -1.582031,0.8789063 0,0.4199218 0.263672,0.6542969 0.263672,0.2246093 0.664062,0.2246093 z m 0.478516,7.0605469 q 1.279297,-2.7246094 4.121094,-6.4550781 l 0.634765,0.4394531 q -2.861328,3.8964844 -4.335937,6.92382813 H 71.633789 Q 70.032227,-2.9003906 67.19043,-6.796875 l 0.722656,-0.3222656 q 2.900391,3.7792968 4.140625,6.4550781 z"
   id="text97"
   style="font-size:20px;line-height:0%;font-family:'Linux Libertine';text-align:center;text-anchor:middle;fill:#111111;stroke-width:1.25"
   class="key"
   aria-label="⎀" />&#10;    <path
   d="m 105.11914,-1.3085937 -4.96094,-4.9609375 4.96094,-4.9609378 v 2.6660159 h 5.53711 v -6.0156249 h 4.58984 l -0.01,10.6054686 h -10.11719 z m -0.97656,-6.2792969 v -1.2792969 l -2.59766,2.5976563 2.59766,2.5976562 v -1.2792969 h 10.11719 l 0.01,-8.6523441 h -2.63672 l -0.01,6.0156254 z"
   id="text98"
   style="font-size:20px;line-height:0%;font-family:'Linux Libertine';text-align:center;text-anchor:middle;fill:#111111;stroke-width:1.25"
   class="key"
   aria-label="⏎" />&#10;&#10;    <path
   d="m 141.17773,-6.796875 2.26563,-2.2851563 1.17187,1.1718751 -3.82812,3.8476562 h -0.87891 l -3.84765,-3.8476562 1.17187,-1.1718751 2.28516,2.2851563 v -0.4882812 q 0,-1.2402344 0.44922,-2.3339844 0.43945,-1.0449224 1.33789,-1.9726564 0.8789,-0.839844 1.95312,-1.318359 1.05469,-0.449219 2.30469,-0.449219 1.25,0 2.30469,0.449219 1.07422,0.478515 1.95312,1.318359 0.89844,0.927734 1.33789,1.9726564 0.44922,1.09375 0.44922,2.3339844 h -1.66015 q 0,-0.9082032 -0.32227,-1.6992188 -0.32227,-0.7910156 -0.9668,-1.435547 -0.58593,-0.576172 -1.42578,-0.957031 -0.72265,-0.322266 -1.65039,-0.322266 -0.92773,0 -1.68945,0.322266 -0.80078,0.341797 -1.42578,0.957031 -0.625,0.6250001 -0.9668,1.435547 -0.32227,0.7910156 -0.32227,1.6992188 z"
   id="text99"
   style="font-size:20px;line-height:0%;font-family:'Linux Libertine';text-align:center;text-anchor:middle;fill:#111111;stroke-width:1.25"
   class="key"
   aria-label="↶" />&#10;    <path
   d="m 179.35059,-6.3476562 q -0.3125,-0.3125 -0.3125,-0.7519532 0,-0.4394531 0.3125,-0.7519531 0.3125,-0.3125 0.75195,-0.3125 0.43945,0 0.74219,0.3125 0.3125,0.3125 0.3125,0.7519531 0,0.4394532 -0.3125,0.7519532 -0.30274,0.3125 -0.74219,0.3125 -0.43945,0 -0.75195,-0.3125 z m 0,5.66406245 q -0.3125,-0.3125 -0.3125,-0.75195315 0,-0.4492187 0.3125,-0.7519531 0.3125,-0.3125 0.75195,-0.3125 0.43945,0 0.74219,0.3125 0.3125,0.3027344 0.3125,0.7519531 0,0.43945315 -0.3125,0.75195315 -0.30274,0.30273437 -0.74219,0.30273437 -0.43945,0 -0.75195,-0.30273437 z"
   id="text100"
   style="font-size:20px;line-height:0%;font-family:'Linux Libertine';text-align:center;text-anchor:middle;fill:#111111;stroke-width:1.25"
   class="key"
   aria-label=":" />&#10;    <path
   d="m 217.11328,-2.4414063 q 0,1.2011719 0.30274,1.49414067 0.3125,0.28320313 1.43554,0.33203126 0.0977,0.0976563 0.0977,0.34179687 0,0.234375 -0.0977,0.3125 Q 216.84961,0 216.41016,0 q -0.82032,0 -2.78321,0.0390625 -0.0781,-0.078125 -0.0781,-0.3125 0,-0.24414062 0.0781,-0.34179687 1.16211,-0.0390625 1.55274,-0.35156251 0.39062,-0.31250002 0.39062,-1.47460942 v -6.5234375 q 0,-1.1621092 -0.40039,-1.1523442 -0.53711,0 -1.73828,0.4980474 -0.24414,-0.15625 -0.30273,-0.5371094 2.80273,-1.298828 3.92578,-2.001953 0.11718,0 0.11718,0.09766 -0.0586,0.458984 -0.0586,2.6757814 z"
   id="text101"
   style="font-size:20px;line-height:0%;font-family:'Linux Libertine';text-align:center;text-anchor:middle;fill:#111111;stroke-width:1.25"
   class="key"
   aria-label="1" />&#10;    <path
   d="m 248.57227,-9.3554688 q 0,-0.9960942 1.01562,-1.9140622 1.02539,-0.927735 2.58789,-0.927735 1.35742,0 2.36328,0.771485 1.01563,0.761718 1.01563,2.2656247 0,0.7226563 -0.30274,1.3671876 -0.30273,0.6347656 -0.65429,1.0449218 -0.3418,0.4101563 -1.04493,1.0839844 l -2.02148,1.9433594 q -1.48438,1.484375 -1.48438,2.421875 h 3.56446 q 0.53711,0 0.83984,-0.4199219 0.30274,-0.4199219 0.55664,-1.5039063 0.38086,-0.078125 0.58594,0.1074219 -0.0391,1.3964844 -0.47852,3.1542969 Q 254.19727,0 253.55273,0 h -3.50586 l -1.66015,0.0390625 q 0,-0.95703125 0.44922,-1.8457031 0.45898,-0.8886719 1.83593,-2.2949219 l 1.48438,-1.4550781 q 1.64062,-1.6601563 1.63086,-3.5253907 0,-1.2988277 -0.52734,-1.8554687 -0.52735,-0.566406 -1.21094,-0.566406 -0.9961,0 -1.48438,0.380859 -0.48828,0.380859 -0.48828,0.839844 0,0.09766 0.0781,0.283203 0.0781,0.1757812 0.0781,0.1953125 0.0781,0.2832031 0.0781,0.4199219 0,0.3027343 -0.33203,0.5566406 -0.32227,0.2441406 -0.60547,0.2441406 -0.32227,0 -0.56641,-0.2246094 -0.23437,-0.2246093 -0.23437,-0.546875 z"
   id="text102"
   style="font-size:20px;line-height:0%;font-family:'Linux Libertine';text-align:center;text-anchor:middle;fill:#111111;stroke-width:1.25"
   class="key"
   aria-label="2" />&#10;    <path
   d="m 287.64844,-11.503906 q -0.36133,0 -0.74219,0.107422 -0.37109,0.09766 -0.76172,0.46875 -0.39062,0.371093 -0.39062,0.9472652 0,1.0351563 -0.78125,1.0449219 -0.32227,0 -0.50782,-0.2246094 -0.17578,-0.2246093 -0.17578,-0.4589843 0,-0.3027344 0.18555,-0.6933594 0.19531,-0.390625 0.5957,-0.839844 0.40039,-0.449219 1.19141,-0.742187 0.79101,-0.302735 1.80664,-0.302735 1.41601,0 2.1875,0.78125 0.625,0.634766 0.625,1.5820316 0,0.8398438 -0.46875,1.4746094 -0.46875,0.625 -1.64063,1.1816406 l 0.0195,0.039063 q 1.12304,0.1757813 1.97265,0.9375 0.84961,0.7617188 0.84961,2.2167969 0,1.9042969 -1.32812,3.046875 -1.31836,1.1328125 -3.17383,1.1328125 -0.9961,0 -1.94336,-0.38085937 -0.9375,-0.390625 -0.9375,-0.95703123 0,-0.2441406 0.26367,-0.46875 0.27344,-0.2246094 0.57617,-0.2246094 0.47852,0 0.85938,0.5175781 0.0195,0.019531 0.0879,0.1269532 0.0781,0.1074218 0.10742,0.15625 0.0293,0.0390625 0.0977,0.12695307 0.0684,0.0878906 0.12695,0.12695313 0.0586,0.0390625 0.16601,0.1171875 0.11719,0.0683594 0.23438,0.0976563 0.11719,0.0292969 0.27344,0.0488281 0.16601,0.0195312 0.35156,0.0195312 0.32227,0 0.68359,-0.13671874 0.3711,-0.14648438 0.80078,-0.44921878 0.42969,-0.3125 0.7129,-0.9960937 0.2832,-0.6835938 0.2832,-1.6210938 0,-2.578125 -2.62695,-2.578125 -0.61524,0 -0.95704,0.039063 l -0.0976,-0.6445312 q 1.38672,-0.1953125 2.26562,-1.0742188 0.87891,-0.8886719 0.87891,-1.7382812 0,-0.9082034 -0.47852,-1.3574224 -0.47851,-0.449218 -1.1914,-0.449218 z"
   id="text103"
   style="font-size:20px;line-height:0%;font-family:'Linux Libertine';text-align:center;text-anchor:middle;fill:#111111;stroke-width:1.25"
   class="key"
   aria-label="3" />&#10;    <path
   d="m 323.88281,-1.9042969 q 0.59571,0 0.95703,0.546875 0.36133,0.5371094 0.36133,1.4355469 0,0.9960937 -0.70312,1.6992187 -0.69336,0.7031251 -1.66016,0.8789063 -0.17578,-0.1757812 -0.17578,-0.4785156 0.72266,-0.1757813 1.24023,-0.7128907 0.51758,-0.5273437 0.51758,-0.88867183 0,-0.53710937 -0.71289,-0.61523437 -0.87891,-0.13671875 -0.88867,-0.87890625 0,-0.41992185 0.30273,-0.70312495 0.30274,-0.2832032 0.76172,-0.2832032 z"
   id="text104"
   style="font-size:20px;line-height:0%;font-family:'Linux Libertine';text-align:center;text-anchor:middle;fill:#111111;stroke-width:1.25"
   class="key"
   aria-label="," />&#10;</g>&#10;&#10;&#10;<g
   transform="translate(561,26)"
   id="g108">&#10;    <path
   d="m 1.2255859,-7.1777344 h 3.046875 q 0.2832032,0 0.2832032,0.3417969 0,0.15625 -0.1855469,0.4101563 -0.1757813,0.2441406 -0.3613281,0.2441406 H 0.88378906 l -0.78125,2.3242187 H 4.2724609 q 0.2832032,0 0.2832032,0.3417969 0,0.15625 -0.1855469,0.4101562 -0.1757813,0.2441407 -0.3613281,0.2441407 H -0.22949219 L -1.5478516,1.0644531 -2.3095703,0.8203125 -1.0693359,-2.8613281 h -2.6953125 q -0.3027344,0 -0.3027344,-0.3222657 0,-0.2246093 0.15625,-0.4492187 0.1660156,-0.2246094 0.3417969,-0.2246094 h 2.84179684 l 0.78125,-2.3242187 H -3.7646484 q -0.3027344,0 -0.3027344,-0.3222656 0,-0.2246094 0.15625,-0.4492188 0.1660156,-0.2246094 0.3417969,-0.2246094 h 3.95507809 l 1.40625001,-4.1601566 0.7617187,0.195313 z"
   id="text105"
   style="font-size:20px;line-height:0%;font-family:'Linux Libertine';text-align:center;text-anchor:middle;fill:#111111;stroke-width:1.25"
   class="key"
   aria-label="≠" />&#10;    <path
   d="m 40.042969,-12.021484 h 0.839843 L 31.703125,1.0839844 h -0.820313 z"
   id="text106"
   style="font-size:20px;line-height:0%;font-family:'Linux Libertine';text-align:center;text-anchor:middle;fill:#111111;stroke-width:1.25"
   class="key"
   aria-label="⁄" />&#10;    <path
   d="M 72.664062,-5.8007812 75.125,-3.359375 74.421875,-2.65625 71.980469,-5.0976562 69.539062,-2.65625 l -0.71289,-0.703125 2.451172,-2.4414062 -2.451172,-2.4609376 0.71289,-0.703125 2.441407,2.4609376 2.441406,-2.4609376 0.703125,0.703125 z"
   id="text107"
   style="font-size:20px;line-height:0%;font-family:'Linux Libertine';text-align:center;text-anchor:middle;fill:#111111;stroke-width:1.25"
   class="key"
   aria-label="×" />&#10;    <path
   d="m 112.04785,0 -8.97461,-11.464844 h 0.97656 L 113.05371,0 Z"
   id="text108"
   style="font-size:20px;line-height:0%;font-family:'Linux Libertine';text-align:center;text-anchor:middle;fill:#111111;stroke-width:1.25"
   class="key"
   aria-label="∖" />&#10;</g>&#10;<g
   transform="translate(561,62)"
   id="g111">&#10;    <path
   d="m 7.3730469,-14.580078 v 0.966797 h -13.59375 V 0 H -7.1875 v -14.580078 z m -11.7285156,3.447265 0.6152343,-0.615234 h 5.4296875 v 1.650391 h -3.2226562 l 8.4179687,8.4179685 -1.171875,1.171875 -8.4179687,-8.4179688 v 3.2226563 h -1.6503906 z"
   id="text109"
   style="font-size:20px;line-height:0%;font-family:'Linux Libertine';text-align:center;text-anchor:middle;fill:#111111;stroke-width:1.25"
   class="key"
   aria-label="⇱" />&#10;    <path
   d="m 35.560547,-14.648438 h 0.878906 l 3.847656,3.847657 -1.171875,1.1718747 -2.285156,-2.2851567 v 3.6132817 h -1.660156 v -3.6132817 l -2.285156,2.2851567 -1.171875,-1.1718747 z m -0.390625,8.007813 h 1.660156 v 2.4804688 h -1.660156 z m 0,4.140625 h 1.660156 V 0 h -1.660156 z"
   id="text110"
   style="font-size:20px;line-height:0%;font-family:'Linux Libertine';text-align:center;text-anchor:middle;fill:#111111;stroke-width:1.25"
   class="key"
   aria-label="⇡" />&#10;    <path
   d="m 71.560547,-14.648438 h 0.878906 l 3.828125,3.847657 -1.171875,1.1718747 -2.265625,-2.2851567 v 3.6132817 h 2.890625 v 1.6601563 h -2.890625 v 1.6601563 h 2.890625 v 1.6601562 H 72.830078 V 0 h -1.660156 v -3.3203125 h -2.871094 v -1.6601562 h 2.871094 V -6.640625 h -2.871094 v -1.6601563 h 2.871094 v -3.6132817 l -2.285156,2.2851567 -1.171875,-1.1718747 z"
   id="text111"
   style="font-size:20px;line-height:0%;font-family:'Linux Libertine';text-align:center;text-anchor:middle;fill:#111111;stroke-width:1.25"
   class="key"
   aria-label="⇞" />&#10;</g>&#10;<g
   transform="translate(561,98)"
   id="g114">&#10;    <path
   d="m -7.4023437,-5.8300781 v -0.8789063 l 3.8378906,-3.8378906 1.171875,1.171875 -2.2753906,2.2753906 h 3.6035156 v 1.6601563 h -3.6035156 l 2.2753906,2.2753906 -1.171875,1.171875 z m 7.99804682,0.390625 V -7.0996094 H 3.0859375 v 1.6601563 z m 4.15039058,0 v -1.6601563 h 2.4902344 v 1.6601563 z"
   id="text112"
   style="font-size:20px;line-height:0%;font-family:'Linux Libertine';text-align:center;text-anchor:middle;fill:#111111;stroke-width:1.25"
   class="key"
   aria-label="⇠" />&#10;    <text
   x="36"
   class="key"
   id="text113" />&#10;    <path
   d="m 79.402344,-5.8300781 -3.837891,3.8378906 -1.171875,-1.171875 2.275391,-2.2753906 h -3.603516 v -1.6601563 h 3.603516 L 74.392578,-9.375 l 1.171875,-1.171875 3.837891,3.8378906 z M 68.914062,-7.0996094 h 2.490235 v 1.6601563 h -2.490235 z m -1.660156,0 v 1.6601563 h -2.490234 v -1.6601563 z"
   id="text114"
   style="font-size:20px;line-height:0%;font-family:'Linux Libertine';text-align:center;text-anchor:middle;fill:#111111;stroke-width:1.25"
   class="key"
   aria-label="⇢" />&#10;</g>&#10;<g
   transform="translate(561,134)"
   id="g117">&#10;    <path
   d="M -7.1875,0 V -0.96679688 H 6.40625 V -14.580078 H 7.3730469 V 0 Z M 4.5410156,-3.4472656 3.9257813,-2.8320313 H -1.5039062 V -4.4824219 H 1.71875 l -8.4179687,-8.4179691 1.171875,-1.171875 8.4179687,8.4179691 v -3.2226562 h 1.6503906 z"
   id="text115"
   style="font-size:20px;line-height:0%;font-family:'Linux Libertine';text-align:center;text-anchor:middle;fill:#111111;stroke-width:1.25"
   class="key"
   aria-label="⇲" />&#10;    <path
   d="m 35.560547,0.06835937 -3.847656,-3.84765627 1.171875,-1.171875 2.285156,2.2851563 v -3.6132813 h 1.660156 v 3.6132813 l 2.285156,-2.2851563 1.171875,1.171875 -3.847656,3.84765627 z M 35.169922,-7.9394531 v -2.4804689 h 1.660156 v 2.4804689 z m 0,-4.1406249 v -2.5 h 1.660156 v 2.5 z"
   id="text116"
   style="font-size:20px;line-height:0%;font-family:'Linux Libertine';text-align:center;text-anchor:middle;fill:#111111;stroke-width:1.25"
   class="key"
   aria-label="⇣" />&#10;    <path
   d="m 72.419922,0.06835937 h -0.878906 l -3.828125,-3.84765627 1.171875,-1.171875 2.265625,2.2851563 v -3.6132813 h -2.890625 v -1.6601562 h 2.890625 v -1.6601563 h -2.890625 v -1.6601566 h 2.890625 v -3.320312 h 1.660156 v 3.320312 h 2.871094 v 1.6601566 h -2.871094 v 1.6601563 h 2.871094 v 1.6601562 h -2.871094 v 3.6132813 l 2.285156,-2.2851563 1.171875,1.171875 z"
   id="text117"
   style="font-size:20px;line-height:0%;font-family:'Linux Libertine';text-align:center;text-anchor:middle;fill:#111111;stroke-width:1.25"
   class="key"
   aria-label="⇟" />&#10;</g>&#10;<g
   transform="translate(561,170)"
   id="g119">&#10;    <path
   d="m 17.750977,-12.460938 q 2.177734,0 2.177734,2.460938 v 3.1152344 H 18.97168 v -0.3710938 q -0.556641,0.4589844 -1.601563,0.4589844 -0.78125,0 -1.230469,-0.4589844 -0.449218,-0.46875 -0.449218,-1.2792969 0,-0.859375 0.625,-1.3378906 0.634765,-0.4882811 1.591797,-0.4882811 h 1.064453 q 0,-0.556641 -0.361328,-0.888672 -0.361329,-0.332031 -0.9375,-0.332031 -0.78125,0 -1.582032,0.498047 l -0.24414,-0.859375 q 1.044922,-0.517579 1.904297,-0.517579 z m -0.175782,4.7363286 q 0.53711,0 0.966797,-0.3710937 0.429688,-0.3808594 0.429688,-1.3867188 h -0.742188 q -1.582031,0 -1.582031,0.8789063 0,0.4199218 0.263672,0.6542969 0.263672,0.2246093 0.664062,0.2246093 z m 0.478516,7.0605469 q 1.279297,-2.7246094 4.121094,-6.4550781 l 0.634765,0.4394531 q -2.861328,3.8964844 -4.335937,6.92382813 H 17.633789 Q 16.032227,-2.9003906 13.19043,-6.796875 l 0.722656,-0.3222656 q 2.900391,3.7792968 4.140625,6.4550781 z"
   id="text118"
   style="font-size:20px;line-height:0%;font-family:'Linux Libertine';text-align:center;text-anchor:middle;fill:#111111;stroke-width:1.25"
   class="key"
   aria-label="⎀" />&#10;    <path
   d="m 74.124023,-7.9003906 -3.037109,3.6230469 3.017578,3.59374995 h 1.357422 Q 77.063477,-2.5 79.182617,-4.296875 76.799805,-6.3378906 75.442383,-7.9003906 Z m -6.054687,7.21679685 h 5.078125 L 70.608398,-3.7207031 Z m -0.966797,0 3.017578,-3.59374995 -3.05664,-3.6230469 h -1.542969 v 7.21679685 z m 6.064453,-7.21679685 h -5.146484 l 2.58789,3.0371094 z m 2.617188,-0.6835938 q 2.246093,2.4023438 4.384765,3.90625 v 0.7617188 Q 78.12793,-2.5 75.78418,0 H 64.729492 v -8.5839844 z"
   id="text119"
   style="font-size:20px;line-height:0%;font-family:'Linux Libertine';text-align:center;text-anchor:middle;fill:#111111;stroke-width:1.25"
   class="key"
   aria-label="⌦" />&#10;</g>&#10;&#10;<g
   transform="translate(561,78)"
   id="g120">&#10;    <path
   d="m 108.49805,-0.61523437 q 0,0.17578124 -0.25391,0.36132812 Q 108,-0.078125 107.84375,-0.078125 q -0.3418,0 -0.3418,-0.28320313 V -3.7988281 h -3.51562 q -0.2832,0 -0.2832,-0.3417969 0,-0.15625 0.17578,-0.4101562 0.18554,-0.2539063 0.36132,-0.2539063 h 3.26172 v -3.1933594 q 0,-0.1757812 0.22461,-0.3320312 0.23438,-0.1660157 0.45899,-0.1660157 0.32226,0 0.3125,0.2929688 v 3.3984375 h 3.50586 q 0.30273,0 0.30273,0.3222656 0,0.2246094 -0.16601,0.4589844 -0.15625,0.2246094 -0.3418,0.2246094 h -3.30078 z m -4.25782,-9.66796863 h 7.76368 q 0.30273,0 0.30273,0.3222655 0,0.2246094 -0.16601,0.4589844 -0.15625,0.2246093 -0.3418,0.2246093 h -7.8125 q -0.2832,0 -0.2832,-0.3417968 0,-0.15625 0.17578,-0.4101564 0.18554,-0.253906 0.36132,-0.253906 z"
   id="text120"
   style="font-size:20px;line-height:0%;font-family:'Linux Libertine';text-align:center;text-anchor:middle;fill:#111111;stroke-width:1.25"
   class="key"
   aria-label="∓" />&#10;</g>&#10;<g
   transform="translate(561,150)"
   id="g121">&#10;    <path
   d="m 105.11914,-1.3085937 -4.96094,-4.9609375 4.96094,-4.9609378 v 2.6660159 h 5.53711 v -6.0156249 h 4.58984 l -0.01,10.6054686 h -10.11719 z m -0.97656,-6.2792969 v -1.2792969 l -2.59766,2.5976563 2.59766,2.5976562 v -1.2792969 h 10.11719 l 0.01,-8.6523441 h -2.63672 l -0.01,6.0156254 z"
   id="text121"
   style="font-size:20px;line-height:0%;font-family:'Linux Libertine';text-align:center;text-anchor:middle;fill:#111111;stroke-width:1.25"
   class="key"
   aria-label="⏎" />&#10;</g>&#10;&#10;<path
   d="m 18.886719,17.640625 q 0.03906,0.07813 0.03906,0.185547 0,0.185547 -0.126953,0.332031 -0.117187,0.136719 -0.3125,0.136719 -0.185547,0 -0.341797,-0.126953 -0.146484,-0.136719 -0.146484,-0.341797 0,-0.175781 0.136719,-0.322266 0.146484,-0.146484 0.341796,-0.146484 0.292969,0 0.410157,0.283203 z m 3.076172,7.412109 q 0.03906,0.117188 0.03906,0.175782 0,0.175781 -0.136719,0.322265 -0.136718,0.146485 -0.332031,0.146485 -0.175781,0 -0.322266,-0.136719 -0.146484,-0.136719 -0.146484,-0.341797 0,-0.166016 0.126953,-0.3125 0.126953,-0.146484 0.3125,-0.146484 0.3125,0 0.458985,0.292968 z m -4.482422,-6.689453 q 0.146484,0.126953 0.146484,0.322266 0,0.46875 -0.458984,0.46875 -0.195313,0 -0.332032,-0.126953 -0.136718,-0.136719 -0.136718,-0.322266 0,-0.195312 0.136718,-0.332031 0.136719,-0.146485 0.322266,-0.146485 0.185547,0 0.322266,0.136719 z m 5.683593,5.664063 q 0.136719,0.136718 0.136719,0.332031 0,0.185547 -0.136719,0.322266 -0.126953,0.136718 -0.332031,0.136718 -0.195312,0 -0.332031,-0.136718 -0.136719,-0.136719 -0.136719,-0.322266 0,-0.195313 0.126953,-0.322266 0.136719,-0.136718 0.322266,-0.136718 0.195312,0 0.351562,0.126953 z m -6.699218,-4.462891 q 0.302734,0.126953 0.302734,0.449219 0,0.185547 -0.15625,0.322265 -0.146484,0.126954 -0.322266,0.126954 -0.205078,0 -0.332031,-0.146485 -0.126953,-0.146484 -0.126953,-0.322265 0,-0.195313 0.136719,-0.332032 0.146484,-0.136718 0.322265,-0.136718 0.05859,0 0.175782,0.03906 z m 7.412109,3.066406 q 0.292969,0.126953 0.292969,0.429688 0,0.195312 -0.146485,0.332031 -0.136718,0.126953 -0.322265,0.126953 -0.214844,0 -0.341797,-0.136719 -0.126953,-0.146484 -0.126953,-0.322265 0,-0.22461 0.146484,-0.341797 0.15625,-0.117188 0.332031,-0.117188 0.09766,0 0.166016,0.0293 z m -7.890625,-1.5625 q 0.185547,0 0.332031,0.136719 0.146485,0.126953 0.146485,0.3125 0,0.195313 -0.146485,0.341797 -0.146484,0.136719 -0.322265,0.136719 h -0.01953 q -0.185547,0 -0.322266,-0.136719 -0.126953,-0.146484 -0.126953,-0.332031 0,-0.195313 0.126953,-0.322266 0.136719,-0.136719 0.332031,-0.136719 z m 8.017578,-0.0098 q 0.195313,0 0.332031,0.136718 0.136719,0.136719 0.136719,0.332032 0,0.185547 -0.136719,0.322265 -0.126953,0.136719 -0.322265,0.136719 h -0.03906 q -0.175781,0 -0.3125,-0.136719 -0.126953,-0.136718 -0.126953,-0.3125 0,-0.195312 0.146485,-0.332031 0.146484,-0.136719 0.322265,-0.146484 z m -7.890625,1.582031 q 0.07813,-0.03906 0.185547,-0.03906 0.195313,0 0.332031,0.126954 0.136719,0.126953 0.136719,0.322265 0,0.185547 -0.136719,0.332031 -0.136718,0.146485 -0.332031,0.146485 -0.185547,0 -0.332031,-0.136719 -0.136719,-0.146484 -0.136719,-0.341797 0,-0.302734 0.283203,-0.410156 z m 7.41211,-3.076172 q 0.117187,-0.03906 0.175781,-0.03906 0.175781,0 0.322265,0.136718 0.146485,0.136719 0.146485,0.332032 0,0.175781 -0.136719,0.322265 -0.136719,0.146485 -0.341797,0.146485 -0.175781,0 -0.3125,-0.136719 -0.136719,-0.136719 -0.136719,-0.322266 0,-0.3125 0.283204,-0.439453 z m -6.689454,4.482422 q 0.146485,-0.146484 0.3125,-0.146484 0.205079,0 0.341797,0.136718 0.136719,0.126953 0.136719,0.322266 0,0.185547 -0.136719,0.332031 -0.126953,0.136719 -0.322265,0.136719 -0.185547,0 -0.332032,-0.136719 -0.136718,-0.146484 -0.136718,-0.332031 0,-0.175781 0.136718,-0.3125 z M 22.5,18.363281 q 0.15625,-0.136719 0.332031,-0.136719 0.195313,0 0.322266,0.136719 0.136719,0.136719 0.136719,0.332031 0,0.185547 -0.136719,0.332032 -0.126953,0.136718 -0.322266,0.136718 -0.185547,0 -0.322265,-0.146484 -0.136719,-0.146484 -0.136719,-0.322266 0,-0.185546 0.126953,-0.332031 z M 18.037109,25.0625 q 0.05859,-0.136719 0.185547,-0.214844 0.136719,-0.07813 0.253906,-0.07813 0.195313,0 0.322266,0.146485 0.136719,0.146484 0.136719,0.322265 0,0.195313 -0.146485,0.332031 -0.146484,0.126954 -0.322265,0.126954 -0.185547,0 -0.332031,-0.146485 -0.136719,-0.146484 -0.136719,-0.3125 0,-0.05859 0.03906,-0.175781 z m 3.066407,-7.412109 q 0.126953,-0.292969 0.429687,-0.292969 0.195313,0 0.332031,0.146484 0.136719,0.146485 0.136719,0.332031 0,0.195313 -0.146484,0.332032 -0.146485,0.126953 -0.322266,0.126953 -0.195312,0 -0.332031,-0.146485 -0.126953,-0.15625 -0.126953,-0.332031 0,-0.07813 0.0293,-0.166015 z m -1.5625,7.890625 q 0,-0.195313 0.136718,-0.332032 Q 19.814453,25.072266 20,25.072266 q 0.195312,0 0.332031,0.136718 0.136719,0.136719 0.136719,0.332032 0,0.185546 -0.136719,0.322265 Q 20.195312,26 20,26 19.814453,26 19.677734,25.863281 19.541016,25.726562 19.541016,25.541016 Z m 0,-8.017579 q 0,-0.195312 0.136718,-0.332031 Q 19.814453,17.054687 20,17.054687 q 0.195312,0 0.332031,0.136719 0.136719,0.136719 0.136719,0.332031 0,0.185547 -0.136719,0.322266 Q 20.195312,17.982422 20,17.982422 q -0.185547,0 -0.322266,-0.136719 -0.136718,-0.136719 -0.136718,-0.322266 z m 1.435546,-3.83789 q 0,0.546875 -0.322265,0.947266 -0.322266,0.390625 -0.810547,0.390625 -0.820313,0 -0.820313,-0.9375 0,-0.556641 0.332032,-0.9375 0.332031,-0.390625 0.791015,-0.390625 0.830078,0 0.830078,0.927734 z"
   id="t1"
   style="font-size:20px;line-height:0%;font-family:'Gentium Plus Compact';text-align:center;text-anchor:middle;fill:#111111"
   class="dead"
   aria-label="◌̇" />&#10;<path
   d="m 450.88672,17.640625 q 0.0391,0.07813 0.0391,0.185547 0,0.185547 -0.12695,0.332031 -0.11719,0.136719 -0.3125,0.136719 -0.18555,0 -0.3418,-0.126953 -0.14648,-0.136719 -0.14648,-0.341797 0,-0.175781 0.13672,-0.322266 0.14648,-0.146484 0.34179,-0.146484 0.29297,0 0.41016,0.283203 z m 3.07617,7.412109 q 0.0391,0.117188 0.0391,0.175782 0,0.175781 -0.13672,0.322265 -0.13671,0.146485 -0.33203,0.146485 -0.17578,0 -0.32226,-0.136719 -0.14649,-0.136719 -0.14649,-0.341797 0,-0.166016 0.12696,-0.3125 0.12695,-0.146484 0.3125,-0.146484 0.3125,0 0.45898,0.292968 z m -4.48242,-6.689453 q 0.14648,0.126953 0.14648,0.322266 0,0.46875 -0.45898,0.46875 -0.19531,0 -0.33203,-0.126953 -0.13672,-0.136719 -0.13672,-0.322266 0,-0.195312 0.13672,-0.332031 0.13672,-0.146485 0.32226,-0.146485 0.18555,0 0.32227,0.136719 z m 5.68359,5.664063 q 0.13672,0.136718 0.13672,0.332031 0,0.185547 -0.13672,0.322266 -0.12695,0.136718 -0.33203,0.136718 -0.19531,0 -0.33203,-0.136718 -0.13672,-0.136719 -0.13672,-0.322266 0,-0.195313 0.12695,-0.322266 0.13672,-0.136718 0.32227,-0.136718 0.19531,0 0.35156,0.126953 z m -6.69922,-4.462891 q 0.30274,0.126953 0.30274,0.449219 0,0.185547 -0.15625,0.322265 -0.14649,0.126954 -0.32227,0.126954 -0.20508,0 -0.33203,-0.146485 -0.12695,-0.146484 -0.12695,-0.322265 0,-0.195313 0.13672,-0.332032 0.14648,-0.136718 0.32226,-0.136718 0.0586,0 0.17578,0.03906 z m 7.41211,3.066406 q 0.29297,0.126953 0.29297,0.429688 0,0.195312 -0.14648,0.332031 -0.13672,0.126953 -0.32227,0.126953 -0.21484,0 -0.3418,-0.136719 -0.12695,-0.146484 -0.12695,-0.322265 0,-0.22461 0.14649,-0.341797 0.15625,-0.117188 0.33203,-0.117188 0.0976,0 0.16601,0.0293 z m -7.89062,-1.5625 q 0.18554,0 0.33203,0.136719 0.14648,0.126953 0.14648,0.3125 0,0.195313 -0.14648,0.341797 -0.14649,0.136719 -0.32227,0.136719 h -0.0195 q -0.18554,0 -0.32226,-0.136719 -0.12696,-0.146484 -0.12696,-0.332031 0,-0.195313 0.12696,-0.322266 0.13672,-0.136719 0.33203,-0.136719 z m 8.01758,-0.0098 q 0.19531,0 0.33203,0.136718 0.13672,0.136719 0.13672,0.332032 0,0.185547 -0.13672,0.322265 -0.12696,0.136719 -0.32227,0.136719 h -0.0391 q -0.17578,0 -0.3125,-0.136719 -0.12695,-0.136718 -0.12695,-0.3125 0,-0.195312 0.14648,-0.332031 0.14648,-0.136719 0.32227,-0.146484 z m -7.89063,1.582031 q 0.0781,-0.03906 0.18555,-0.03906 0.19531,0 0.33203,0.126954 0.13672,0.126953 0.13672,0.322265 0,0.185547 -0.13672,0.332031 -0.13672,0.146485 -0.33203,0.146485 -0.18555,0 -0.33203,-0.136719 -0.13672,-0.146484 -0.13672,-0.341797 0,-0.302734 0.2832,-0.410156 z m 7.41211,-3.076172 q 0.11719,-0.03906 0.17578,-0.03906 0.17578,0 0.32227,0.136718 0.14648,0.136719 0.14648,0.332032 0,0.175781 -0.13672,0.322265 -0.13672,0.146485 -0.34179,0.146485 -0.17579,0 -0.3125,-0.136719 -0.13672,-0.136719 -0.13672,-0.322266 0,-0.3125 0.2832,-0.439453 z m -6.68945,4.482422 q 0.14648,-0.146484 0.3125,-0.146484 0.20508,0 0.34179,0.136718 0.13672,0.126953 0.13672,0.322266 0,0.185547 -0.13672,0.332031 -0.12695,0.136719 -0.32226,0.136719 -0.18555,0 -0.33203,-0.136719 -0.13672,-0.146484 -0.13672,-0.332031 0,-0.175781 0.13672,-0.3125 z M 454.5,18.363281 q 0.15625,-0.136719 0.33203,-0.136719 0.19531,0 0.32227,0.136719 0.13672,0.136719 0.13672,0.332031 0,0.185547 -0.13672,0.332032 -0.12696,0.136718 -0.32227,0.136718 -0.18555,0 -0.32226,-0.146484 -0.13672,-0.146484 -0.13672,-0.322266 0,-0.185546 0.12695,-0.332031 z m -4.46289,6.699219 q 0.0586,-0.136719 0.18555,-0.214844 0.13671,-0.07813 0.2539,-0.07813 0.19531,0 0.32227,0.146485 0.13672,0.146484 0.13672,0.322265 0,0.195313 -0.14649,0.332031 -0.14648,0.126954 -0.32226,0.126954 -0.18555,0 -0.33203,-0.146485 -0.13672,-0.146484 -0.13672,-0.3125 0,-0.05859 0.0391,-0.175781 z m 3.06641,-7.412109 q 0.12695,-0.292969 0.42968,-0.292969 0.19532,0 0.33203,0.146484 0.13672,0.146485 0.13672,0.332031 0,0.195313 -0.14648,0.332032 -0.14649,0.126953 -0.32227,0.126953 -0.19531,0 -0.33203,-0.146485 -0.12695,-0.15625 -0.12695,-0.332031 0,-0.07813 0.0293,-0.166015 z m -1.5625,7.890625 q 0,-0.195313 0.13671,-0.332032 0.13672,-0.136718 0.32227,-0.136718 0.19531,0 0.33203,0.136718 0.13672,0.136719 0.13672,0.332032 0,0.185546 -0.13672,0.322265 Q 452.19531,26 452,26 q -0.18555,0 -0.32227,-0.136719 -0.13671,-0.136719 -0.13671,-0.322265 z m 0,-8.017579 q 0,-0.195312 0.13671,-0.332031 0.13672,-0.136719 0.32227,-0.136719 0.19531,0 0.33203,0.136719 0.13672,0.136719 0.13672,0.332031 0,0.185547 -0.13672,0.322266 -0.13672,0.136719 -0.33203,0.136719 -0.18555,0 -0.32227,-0.136719 -0.13671,-0.136719 -0.13671,-0.322266 z m -0.51758,-3.83789 q 0,0.546875 -0.32227,0.947266 -0.32226,0.390625 -0.81055,0.390625 -0.82031,0 -0.82031,-0.9375 0,-0.556641 0.33203,-0.9375 0.33203,-0.390625 0.79102,-0.390625 0.83008,0 0.83008,0.927734 z m 3.90625,0 q 0,0.546875 -0.32227,0.947266 -0.32226,0.390625 -0.81055,0.390625 -0.82031,0 -0.82031,-0.9375 0,-0.556641 0.33203,-0.9375 0.33203,-0.390625 0.79102,-0.390625 0.83008,0 0.83008,0.927734 z"
   id="t2"
   style="font-size:20px;line-height:0%;font-family:'Gentium Plus Compact';text-align:center;text-anchor:middle;fill:#111111"
   class="dead"
   aria-label="◌̈" />&#10;&#10;<path
   d="m 478.88672,89.640625 q 0.0391,0.07813 0.0391,0.185547 0,0.185547 -0.12695,0.332031 -0.11719,0.136719 -0.3125,0.136719 -0.18555,0 -0.3418,-0.126953 -0.14648,-0.136719 -0.14648,-0.341797 0,-0.175781 0.13672,-0.322266 0.14648,-0.146484 0.34179,-0.146484 0.29297,0 0.41016,0.283203 z m 3.07617,7.412109 q 0.0391,0.117188 0.0391,0.175782 0,0.175781 -0.13672,0.322265 -0.13671,0.146485 -0.33203,0.146485 -0.17578,0 -0.32226,-0.136719 -0.14649,-0.136719 -0.14649,-0.341797 0,-0.166016 0.12696,-0.3125 0.12695,-0.146484 0.3125,-0.146484 0.3125,0 0.45898,0.292968 z m -4.48242,-6.689453 q 0.14648,0.126953 0.14648,0.322266 0,0.46875 -0.45898,0.46875 -0.19531,0 -0.33203,-0.126953 -0.13672,-0.136719 -0.13672,-0.322266 0,-0.195312 0.13672,-0.332031 0.13672,-0.146485 0.32226,-0.146485 0.18555,0 0.32227,0.136719 z m 5.68359,5.664063 q 0.13672,0.136718 0.13672,0.332031 0,0.185547 -0.13672,0.322266 -0.12695,0.136718 -0.33203,0.136718 -0.19531,0 -0.33203,-0.136718 -0.13672,-0.136719 -0.13672,-0.322266 0,-0.195313 0.12695,-0.322266 0.13672,-0.136718 0.32227,-0.136718 0.19531,0 0.35156,0.126953 z m -6.69922,-4.462891 q 0.30274,0.126953 0.30274,0.449219 0,0.185547 -0.15625,0.322265 -0.14649,0.126954 -0.32227,0.126954 -0.20508,0 -0.33203,-0.146485 -0.12695,-0.146484 -0.12695,-0.322265 0,-0.195313 0.13672,-0.332032 0.14648,-0.136718 0.32226,-0.136718 0.0586,0 0.17578,0.03906 z m 7.41211,3.066406 q 0.29297,0.126953 0.29297,0.429688 0,0.195312 -0.14648,0.332031 -0.13672,0.126953 -0.32227,0.126953 -0.21484,0 -0.3418,-0.136719 -0.12695,-0.146484 -0.12695,-0.322265 0,-0.22461 0.14649,-0.341797 0.15625,-0.117188 0.33203,-0.117188 0.0976,0 0.16601,0.0293 z m -7.89062,-1.5625 q 0.18554,0 0.33203,0.136719 0.14648,0.126953 0.14648,0.3125 0,0.195313 -0.14648,0.341797 -0.14649,0.136719 -0.32227,0.136719 h -0.0195 q -0.18554,0 -0.32226,-0.136719 -0.12696,-0.146484 -0.12696,-0.332031 0,-0.195313 0.12696,-0.322266 0.13672,-0.136719 0.33203,-0.136719 z m 8.01758,-0.0098 q 0.19531,0 0.33203,0.136718 0.13672,0.136719 0.13672,0.332032 0,0.185547 -0.13672,0.322265 -0.12696,0.136719 -0.32227,0.136719 h -0.0391 q -0.17578,0 -0.3125,-0.136719 -0.12695,-0.136718 -0.12695,-0.3125 0,-0.195312 0.14648,-0.332031 0.14648,-0.136719 0.32227,-0.146484 z m -7.89063,1.582031 q 0.0781,-0.03906 0.18555,-0.03906 0.19531,0 0.33203,0.126954 0.13672,0.126953 0.13672,0.322265 0,0.185547 -0.13672,0.332031 -0.13672,0.146485 -0.33203,0.146485 -0.18555,0 -0.33203,-0.136719 -0.13672,-0.146484 -0.13672,-0.341797 0,-0.302734 0.2832,-0.410156 z m 7.41211,-3.076172 q 0.11719,-0.03906 0.17578,-0.03906 0.17578,0 0.32227,0.136718 0.14648,0.136719 0.14648,0.332032 0,0.175781 -0.13672,0.322265 -0.13672,0.146485 -0.34179,0.146485 -0.17579,0 -0.3125,-0.136719 -0.13672,-0.136719 -0.13672,-0.322266 0,-0.3125 0.2832,-0.439453 z m -6.68945,4.482422 q 0.14648,-0.146484 0.3125,-0.146484 0.20508,0 0.34179,0.136718 0.13672,0.126953 0.13672,0.322266 0,0.185547 -0.13672,0.332031 -0.12695,0.136719 -0.32226,0.136719 -0.18555,0 -0.33203,-0.136719 -0.13672,-0.146484 -0.13672,-0.332031 0,-0.175781 0.13672,-0.3125 z M 482.5,90.363281 q 0.15625,-0.136719 0.33203,-0.136719 0.19531,0 0.32227,0.136719 0.13672,0.136719 0.13672,0.332031 0,0.185547 -0.13672,0.332032 -0.12696,0.136718 -0.32227,0.136718 -0.18555,0 -0.32226,-0.146484 -0.13672,-0.146484 -0.13672,-0.322266 0,-0.185546 0.12695,-0.332031 z m -4.46289,6.699219 q 0.0586,-0.136719 0.18555,-0.214844 0.13671,-0.07813 0.2539,-0.07813 0.19531,0 0.32227,0.146485 0.13672,0.146484 0.13672,0.322265 0,0.195313 -0.14649,0.332031 -0.14648,0.126954 -0.32226,0.126954 -0.18555,0 -0.33203,-0.146485 -0.13672,-0.146484 -0.13672,-0.3125 0,-0.05859 0.0391,-0.175781 z m 3.06641,-7.412109 q 0.12695,-0.292969 0.42968,-0.292969 0.19532,0 0.33203,0.146484 0.13672,0.146485 0.13672,0.332031 0,0.195313 -0.14648,0.332032 -0.14649,0.126953 -0.32227,0.126953 -0.19531,0 -0.33203,-0.146485 -0.12695,-0.15625 -0.12695,-0.332031 0,-0.07813 0.0293,-0.166015 z m -1.5625,7.890625 q 0,-0.195313 0.13671,-0.332032 0.13672,-0.136718 0.32227,-0.136718 0.19531,0 0.33203,0.136718 0.13672,0.136719 0.13672,0.332032 0,0.185546 -0.13672,0.322265 Q 480.19531,98 480,98 q -0.18555,0 -0.32227,-0.136719 -0.13671,-0.136719 -0.13671,-0.322265 z m 0,-8.017579 q 0,-0.195312 0.13671,-0.332031 0.13672,-0.136719 0.32227,-0.136719 0.19531,0 0.33203,0.136719 0.13672,0.136719 0.13672,0.332031 0,0.185547 -0.13672,0.322266 -0.13672,0.136719 -0.33203,0.136719 -0.18555,0 -0.32227,-0.136719 -0.13671,-0.136719 -0.13671,-0.322266 z M 481.25,87.775391 q -0.18555,-0.03906 -0.2832,-0.08789 -0.10743,-0.05859 -0.27344,-0.175781 l 1.71875,-4.052735 q 0.24414,0.0293 0.5957,0.09766 0.35156,0.06836 0.56641,0.146484 l 0.21484,0.400391 z m -2.8418,0 q -0.15625,-0.03906 -0.26367,-0.08789 -0.10742,-0.05859 -0.29297,-0.175781 l 1.71875,-4.052735 q 0.24414,0.0293 0.60547,0.09766 0.36133,0.06836 0.55664,0.146484 l 0.21485,0.400391 z"
   id="t3"
   style="font-size:20px;line-height:0%;font-family:'Gentium Plus Compact';text-align:center;text-anchor:middle;fill:#111111"
   class="dead"
   aria-label="◌̋" />&#10;<path
   d="m 469.35059,55.652344 q -0.3125,-0.3125 -0.3125,-0.751953 0,-0.439454 0.3125,-0.751954 0.3125,-0.3125 0.75195,-0.3125 0.43945,0 0.74219,0.3125 0.3125,0.3125 0.3125,0.751954 0,0.439453 -0.3125,0.751953 -0.30274,0.3125 -0.74219,0.3125 -0.43945,0 -0.75195,-0.3125 z m 0.75195,4.443359 q 0.5957,0 0.95703,0.546875 0.36133,0.537109 0.36133,1.435547 0,0.996094 -0.70313,1.699219 -0.69336,0.703125 -1.66015,0.878906 -0.17578,-0.175781 -0.17578,-0.478516 0.72265,-0.175781 1.24023,-0.71289 0.51758,-0.527344 0.51758,-0.888672 0,-0.53711 -0.72266,-0.615235 -0.8789,-0.136718 -0.8789,-0.878906 0,-0.419922 0.30273,-0.703125 0.30273,-0.283203 0.76172,-0.283203 z"
   id="text122"
   style="font-size:20px;line-height:0%;font-family:'Linux Libertine';text-align:center;text-anchor:middle;fill:#111111;stroke-width:1.25"
   class="key"
   aria-label=";" />&#10;&#10;</svg>
