<?xml version="1.0" encoding="UTF-8" standalone="no"?>
<svg
   version="1.1"
   id="Ebene_1"
   height="183"
   width="535"
   viewBox="0 0 535 183"
   enable-background="new 0 0 535 183"
   xml:space="preserve"
   inkscape:version="0.48.5 r10040"
   sodipodi:docname="noted-6-tkl.svg"
   inkscape:export-xdpi="90"
   inkscape:export-ydpi="90"
   xmlns:inkscape="http://www.inkscape.org/namespaces/inkscape"
   xmlns:sodipodi="http://sodipodi.sourceforge.net/DTD/sodipodi-0.dtd"
   xmlns:xlink="http://www.w3.org/1999/xlink"
   xmlns="http://www.w3.org/2000/svg"
   xmlns:svg="http://www.w3.org/2000/svg"
   xmlns:rdf="http://www.w3.org/1999/02/22-rdf-syntax-ns#"
   xmlns:cc="http://creativecommons.org/ns#"
   xmlns:dc="http://purl.org/dc/elements/1.1/">&#10;&#10;  <metadata
   id="metadata135">&#10;    <rdf:RDF>&#10;      <cc:Work
   rdf:about="">&#10;        <dc:format>image/svg+xml</dc:format>&#10;        <dc:type
   rdf:resource="http://purl.org/dc/dcmitype/StillImage" />&#10;        <dc:title />&#10;      </cc:Work>&#10;    </rdf:RDF>&#10;  </metadata>&#10;&#10;<defs
   id="defs">&#10;<style
   type="text/css"
   id="style46661">&#10;text.mod, text.key, text.dead {&#10;	fill:#111;&#10;	fill-opacity:1;&#10;    stroke:none;&#10;    font-style:normal;&#10;    font-variant:normal;&#10;    font-weight:normal;&#10;    font-stretch:normal;&#10;    display:inline;&#10;    font-family:DejaVu Sans;&#10;    writing-mode:lr-tb;&#10;}&#10;&#10;text.key {&#10;    font-family:DejaVu Sans;&#10;}&#10;&#10;text.dead {&#10;    font-family: Gentium Plus Compact;&#10;}&#10;&#10;text.mod {&#10;    text-align:start;&#10;    text-anchor:start;&#10;}&#10;&#10;text.space, text.dead, text.center, text.key {&#10;    text-align:center;&#10;    text-anchor:middle;&#10;}&#10;&#10;text.key { font-size:18px; }&#10;text.dead { font-size:18px; }&#10;text.mod { font-size:8px; }&#10;text.big { font-size:12px; }&#10;&#10;.key {&#10;stroke-width:0.75;&#10;}&#10;&#10;.grey { fill:#949494; stroke:#696969; }&#10;.grey { fill:#9f9f9f; stroke:#747474; }&#10;&#10;.numpad { fill:#afaa9f; stroke:#747474; }&#10;&#10;/* bootstrap colors */&#10;.l5, .r5 { fill:#93CCEA; }&#10;.l4, .r4 { fill:#7abeb3; }&#10;.l3, .r3 { fill:#63b280; }&#10;.l2, .r2 { fill:#4aa44a; }&#10;&#10;/* btn bg hover, unused */&#10;.l2, .r2 { stroke:#3071a9; }&#10;.l3, .r3 { stroke:#449d44; }&#10;.l4, .r4 { stroke:#c9302c; }&#10;.l5, .r5 { stroke:#ec971f; }&#10;&#10;/* btn border hover */&#10;.l2, .r2 { stroke:#204d74; }&#10;.l3, .r3 { stroke:#204d74; }&#10;.l4, .r4 { stroke:#204d74; }&#10;.l5, .r5 { stroke:#204d74; }&#10;&#10;<!-- text.nubkey { fill:#eee; } -->&#10;&#10;.pressed {&#10;	<!--opacity:0.5;-->&#10;	fill:#777;&#10;}&#10;    </style>&#10;&#10;    <g
   id="basekey">&#10;        <rect
   width="32"
   height="32"
   rx="4"
   class="key"
   id="rect1" />&#10;	<!--rect width="20" height="20" x="6" y="6" /-->&#10;        <!--rect width="2" height="2" fill="#000" x="15" y="15" /-->&#10;    </g>&#10;&#10;    </defs>&#10;<sodipodi:namedview
   pagecolor="#ffffff"
   bordercolor="#666666"
   borderopacity="1"
   objecttolerance="10"
   gridtolerance="10"
   guidetolerance="10"
   inkscape:pageopacity="0"
   inkscape:pageshadow="2"
   inkscape:window-width="1614"
   inkscape:window-height="969"
   id="base"
   showgrid="false"
   inkscape:zoom="0.70961538"
   inkscape:cx="685.32105"
   inkscape:cy="241.15395"
   inkscape:window-x="78"
   inkscape:window-y="71"
   inkscape:window-maximized="0"
   inkscape:current-layer="Ebene_1"
   inkscape:showpageshadow="2"
   inkscape:pagecheckerboard="0"
   inkscape:deskcolor="#d1d1d1" />&#10;&#10;<g
   transform="translate(3.5,3.5)"
   id="g61">&#10;<use
   xlink:href="#basekey"
   y="0"
   x="0"
   class="l5"
   id="use1" />&#10;<use
   xlink:href="#basekey"
   y="0"
   x="36"
   class="l5"
   id="use2" />&#10;<use
   xlink:href="#basekey"
   y="0"
   x="72"
   class="l5"
   id="use3" />&#10;<use
   xlink:href="#basekey"
   y="0"
   x="108"
   class="l4"
   id="use4" />&#10;<use
   xlink:href="#basekey"
   y="0"
   x="144"
   class="l3"
   id="use5" />&#10;<use
   xlink:href="#basekey"
   y="0"
   x="180"
   class="l2"
   id="use6" />&#10;<use
   xlink:href="#basekey"
   y="0"
   x="216"
   class="l2"
   id="use7" />&#10;&#10;<use
   xlink:href="#basekey"
   y="0"
   x="252"
   class="r2"
   id="use8" />&#10;<use
   xlink:href="#basekey"
   y="0"
   x="288"
   class="r2"
   id="use9" />&#10;<use
   xlink:href="#basekey"
   y="0"
   x="324"
   class="r3"
   id="use10" />&#10;<use
   xlink:href="#basekey"
   y="0"
   x="360"
   class="r4"
   id="use11" />&#10;<use
   xlink:href="#basekey"
   y="0"
   x="396"
   class="r5"
   id="use12" />&#10;<use
   xlink:href="#basekey"
   y="0"
   x="432"
   class="r5"
   id="use13" />&#10;&#10;&#10;<use
   xlink:href="#basekey"
   y="36"
   x="54"
   class="l5"
   id="use14" />&#10;<use
   xlink:href="#basekey"
   y="36"
   x="90"
   class="l4"
   id="use15" />&#10;<use
   xlink:href="#basekey"
   y="36"
   x="126"
   class="l3"
   id="use16" />&#10;<use
   xlink:href="#basekey"
   y="36"
   x="162"
   class="l2"
   id="use17" />&#10;<use
   xlink:href="#basekey"
   y="36"
   x="198"
   class="l2"
   id="use18" />&#10;&#10;<use
   xlink:href="#basekey"
   y="36"
   x="234"
   class="r2"
   id="use19" />&#10;<use
   xlink:href="#basekey"
   y="36"
   x="270"
   class="r2"
   id="use20" />&#10;<use
   xlink:href="#basekey"
   y="36"
   x="306"
   class="r3"
   id="use21" />&#10;<use
   xlink:href="#basekey"
   y="36"
   x="342"
   class="r4"
   id="use22" />&#10;<use
   xlink:href="#basekey"
   y="36"
   x="378"
   class="r5"
   id="use23" />&#10;<use
   xlink:href="#basekey"
   y="36"
   x="414"
   class="r5"
   id="use24" />&#10;<use
   xlink:href="#basekey"
   y="36"
   x="450"
   class="r5"
   id="use25" />&#10;&#10;&#10;<use
   xlink:href="#basekey"
   y="72"
   x="64"
   class="l5"
   id="use26" />&#10;<use
   xlink:href="#basekey"
   y="72"
   x="100"
   class="l4"
   id="use27" />&#10;<use
   xlink:href="#basekey"
   y="72"
   x="136"
   class="l3"
   id="use28" />&#10;<use
   xlink:href="#basekey"
   y="72"
   x="172"
   class="l2"
   id="use29" />&#10;<use
   xlink:href="#basekey"
   y="72"
   x="208"
   class="l2"
   id="use30" />&#10;&#10;<use
   xlink:href="#basekey"
   y="72"
   x="244"
   class="r2"
   id="use31" />&#10;<use
   xlink:href="#basekey"
   y="72"
   x="280"
   class="r2"
   id="use32" />&#10;<use
   xlink:href="#basekey"
   y="72"
   x="316"
   class="r3"
   id="use33" />&#10;<use
   xlink:href="#basekey"
   y="72"
   x="352"
   class="r4"
   id="use34" />&#10;<use
   xlink:href="#basekey"
   y="72"
   x="388"
   class="r5"
   id="use35" />&#10;&#10;    <use
   xlink:href="#basekey"
   y="72"
   x="460"
   class="r5"
   id="use36" />&#10;&#10;&#10;&#10;<use
   xlink:href="#basekey"
   y="108"
   x="82"
   class="l5"
   id="use37" />&#10;<use
   xlink:href="#basekey"
   y="108"
   x="118"
   class="l4"
   id="use38" />&#10;<use
   xlink:href="#basekey"
   y="108"
   x="154"
   class="l3"
   id="use39" />&#10;<use
   xlink:href="#basekey"
   y="108"
   x="190"
   class="l2"
   id="use40" />&#10;<use
   xlink:href="#basekey"
   y="108"
   x="226"
   class="l2"
   id="use41" />&#10;&#10;<use
   xlink:href="#basekey"
   y="108"
   x="262"
   class="r2"
   id="use42" />&#10;<use
   xlink:href="#basekey"
   y="108"
   x="298"
   class="r2"
   id="use43" />&#10;<use
   xlink:href="#basekey"
   y="108"
   x="334"
   class="r3"
   id="use44" />&#10;<use
   xlink:href="#basekey"
   y="108"
   x="370"
   class="r4"
   id="use45" />&#10;<use
   xlink:href="#basekey"
   y="108"
   x="406"
   class="r5"
   id="use46" />&#10;&#10;&#10;<rect
   id="backspace"
   y="0"
   x="468"
   width="60"
   height="32"
   rx="4"
   class="key grey" />&#10;&#10;<rect
   id="tab"
   x="0"
   y="36"
   width="50"
   height="32"
   rx="4"
   class="key grey" />&#10;&#10;<rect
   id="m3l"
   x="0"
   y="72"
   width="60"
   height="32"
   rx="4"
   class="key grey pressed" />&#10;&#10;<use
   id="m3r"
   xlink:href="#basekey"
   x="424"
   y="72"
   class="key grey pressed" />&#10;&#10;&#10;<rect
   id="shiftl"
   x="0"
   y="108"
   width="40"
   height="32"
   rx="4"
   class="key grey" />&#10;<rect
   id="m4l"
   x="44"
   y="108"
   width="34"
   height="32"
   rx="4"
   class="key grey pressed" />&#10;<rect
   id="shiftr"
   x="442"
   y="108"
   width="86"
   height="32"
   rx="4"
   class="key grey" />&#10;&#10;<rect
   id="ctrll"
   x="0"
   y="144"
   width="50"
   height="32"
   rx="4"
   class="key grey" />&#10;<rect
   id="altl"
   x="124"
   y="144"
   width="48"
   height="32"
   rx="4"
   class="key grey" />&#10;<rect
   id="space"
   x="176"
   y="144"
   width="168"
   height="32"
   rx="4"
   class="key grey" />&#10;<rect
   id="m4r"
   x="348"
   y="144"
   width="48"
   height="32"
   rx="4"
   class="key grey pressed" />&#10;<rect
   id="ctrlr"
   x="478"
   y="144"
   width="50"
   height="32"
   rx="4"
   class="key grey" />&#10;&#10;<use
   xlink:href="#basekey"
   y="0"
   x="542"
   class="key numpad"
   id="use47" />&#10;<use
   xlink:href="#basekey"
   y="0"
   x="578"
   class="key numpad"
   id="use48" />&#10;<use
   xlink:href="#basekey"
   y="0"
   x="614"
   class="key numpad"
   id="use49" />&#10;<use
   xlink:href="#basekey"
   y="0"
   x="650"
   class="key numpad"
   id="use50" />&#10;&#10;<use
   xlink:href="#basekey"
   y="36"
   x="542"
   class="key numpad"
   id="use51" />&#10;<use
   xlink:href="#basekey"
   y="36"
   x="578"
   class="key numpad"
   id="use52" />&#10;<use
   xlink:href="#basekey"
   y="36"
   x="614"
   class="key numpad"
   id="use53" />&#10;<rect
   id="kpplus"
   x="650"
   y="36"
   width="32"
   height="68"
   rx="4"
   class="key numpad" />&#10;&#10;<use
   xlink:href="#basekey"
   y="72"
   x="542"
   class="key numpad"
   id="use54" />&#10;<use
   xlink:href="#basekey"
   y="72"
   x="578"
   class="key numpad"
   id="use55" />&#10;<use
   xlink:href="#basekey"
   y="72"
   x="614"
   class="key numpad"
   id="use56" />&#10;&#10;<use
   xlink:href="#basekey"
   y="108"
   x="542"
   class="key numpad"
   id="use57" />&#10;<use
   xlink:href="#basekey"
   y="108"
   x="578"
   class="key numpad"
   id="use58" />&#10;<use
   xlink:href="#basekey"
   y="108"
   x="614"
   class="key numpad"
   id="use59" />&#10;<rect
   id="kppenter"
   x="650"
   y="108"
   width="32"
   height="68"
   rx="4"
   class="key numpad" />&#10;&#10;<rect
   id="kp0"
   x="542"
   y="144"
   width="68"
   height="32"
   rx="4"
   class="key numpad" />&#10;<use
   xlink:href="#basekey"
   y="144"
   x="614"
   class="key numpad"
   id="use60" />&#10;&#10;<path
   fill-rule="evenodd"
   clip-rule="evenodd"
   d="      M 10,32      l -6,0 a 4,4 0 0 1 -4,-4      l 0,-24 a 4,4 0 0 1 4,-4      l 34,0 a 4,4 0 0 1 4,4      l 0,60 a 4,4 0 0 1 -4,4      l -24,0 a 4,4 0 0 1 -4,-4      z"
   transform="translate(486,36)"
   id="return"
   class="key grey" />&#10;&#10;<rect
   y="101"
   x="181"
   width="14"
   height="1"
   rx="1"
   id="nub"
   style="fill:#111;" />&#10;<use
   y="0"
   x="108"
   xlink:href="#nub"
   id="use61" />&#10;</g>&#10;&#10;<g
   transform="translate(-0.5,-0.5)"
   id="g62">&#10;<path
   d="m 10.785156,90.167969 h 1.175782 l 1.488281,3.96875 1.496094,-3.96875 h 1.175781 V 96 h -0.769531 v -5.121094 l -1.503907,4 h -0.792968 l -1.503907,-4 V 96 h -0.765625 z m 8.566406,1.960937 q -0.578125,0 -0.914062,0.453125 -0.335938,0.449219 -0.335938,1.234375 0,0.785156 0.332032,1.238281 0.335937,0.449219 0.917968,0.449219 0.574219,0 0.910157,-0.453125 0.335937,-0.453125 0.335937,-1.234375 0,-0.777344 -0.335937,-1.230469 -0.335938,-0.457031 -0.910157,-0.457031 z m 0,-0.609375 q 0.9375,0 1.472657,0.609375 0.535156,0.609375 0.535156,1.6875 0,1.074219 -0.535156,1.6875 -0.535157,0.609375 -1.472657,0.609375 -0.941406,0 -1.476562,-0.609375 -0.53125,-0.613281 -0.53125,-1.6875 0,-1.078125 0.53125,-1.6875 0.535156,-0.609375 1.476562,-0.609375 z m 6.078125,0.769531 v -2.367187 h 0.71875 V 96 h -0.71875 v -0.65625 q -0.226562,0.390625 -0.574218,0.582031 -0.34375,0.1875 -0.828125,0.1875 -0.792969,0 -1.292969,-0.632812 -0.496094,-0.632813 -0.496094,-1.664063 0,-1.03125 0.496094,-1.664062 0.5,-0.632813 1.292969,-0.632813 0.484375,0 0.828125,0.191406 0.347656,0.1875 0.574218,0.578125 z m -2.449218,1.527344 q 0,0.792969 0.324218,1.246094 0.328125,0.449219 0.898438,0.449219 0.570312,0 0.898437,-0.449219 0.328125,-0.453125 0.328125,-1.246094 0,-0.792969 -0.328125,-1.242187 -0.328125,-0.453125 -0.898437,-0.453125 -0.570313,0 -0.898438,0.453125 -0.324218,0.449218 -0.324218,1.242187 z m 7.140625,-0.960937 q 0.566406,0.121093 0.882812,0.503906 0.320313,0.382812 0.320313,0.945312 0,0.863282 -0.59375,1.335938 -0.59375,0.472656 -1.6875,0.472656 -0.367188,0 -0.757813,-0.07422 -0.386719,-0.07031 -0.800781,-0.214843 V 95.0625 q 0.328125,0.191406 0.71875,0.289062 0.390625,0.09766 0.816406,0.09766 0.742188,0 1.128906,-0.292969 0.390625,-0.292969 0.390625,-0.851563 0,-0.515625 -0.363281,-0.804687 -0.359375,-0.292969 -1.003906,-0.292969 h -0.679688 v -0.648437 h 0.710938 q 0.582031,0 0.890625,-0.230469 0.308594,-0.234375 0.308594,-0.671875 0,-0.449219 -0.320313,-0.6875 -0.316406,-0.242188 -0.910156,-0.242188 -0.324219,0 -0.695313,0.07031 -0.371093,0.07031 -0.816406,0.21875 V 90.3125 Q 28.109375,90.1875 28.5,90.125 q 0.394531,-0.0625 0.742187,-0.0625 0.898438,0 1.421875,0.410156 0.523438,0.40625 0.523438,1.101563 0,0.484375 -0.277344,0.820312 -0.277344,0.332031 -0.789062,0.460938 z"
   id="m3ltxt"
   style="font-size:8px;line-height:0%;font-family:'DejaVu Sans';fill:#111111"
   class="mod"
   aria-label="Mod3" />&#10;<path
   d="m 16.585937,126.34375 -1.558593,-1.55859 -1.558594,1.55859 h 0.767578 v 6.07031 h 1.582031 v -6.07031 z m -4.535156,0.58594 2.976563,-2.97656 2.976562,2.97656 H 16.404297 V 133 h -2.753906 v -6.07031 z"
   id="shiftltxt"
   style="font-size:12px;line-height:0%;font-family:'DejaVu Sans';fill:#111111"
   class="mod big"
   aria-label="⇧" />&#10;<path
   d="m 14.28125,162.35937 v 0.76954 q -0.449219,-0.21485 -0.847656,-0.32032 -0.398438,-0.10547 -0.769531,-0.10547 -0.644532,0 -0.996094,0.25 -0.347656,0.25 -0.347656,0.71094 0,0.38672 0.230468,0.58594 0.234375,0.19531 0.882813,0.31641 l 0.476562,0.0977 q 0.882813,0.16797 1.300782,0.59375 0.421875,0.42188 0.421875,1.13281 0,0.84766 -0.570313,1.28516 -0.566406,0.4375 -1.664062,0.4375 -0.414063,0 -0.882813,-0.0937 -0.464844,-0.0937 -0.964844,-0.27734 v -0.8125 q 0.480469,0.26953 0.941407,0.40625 0.460937,0.13672 0.90625,0.13672 0.675781,0 1.042968,-0.26563 0.367188,-0.26562 0.367188,-0.75781 0,-0.42969 -0.265625,-0.67188 -0.261719,-0.24218 -0.863281,-0.36328 l -0.480469,-0.0937 q -0.882813,-0.17578 -1.277344,-0.55078 -0.394531,-0.375 -0.394531,-1.04297 0,-0.77344 0.542969,-1.21875 0.546875,-0.44531 1.503906,-0.44531 0.410156,0 0.835937,0.0742 0.425782,0.0742 0.871094,0.22265 z m 2.261719,0.0234 v 1.24219 h 1.480468 v 0.55859 h -1.480468 v 2.375 q 0,0.53516 0.144531,0.6875 0.148437,0.15235 0.597656,0.15235 h 0.738281 V 168 h -0.738281 q -0.832031,0 -1.148437,-0.30859 -0.316406,-0.3125 -0.316406,-1.13282 v -2.375 H 15.292969 V 163.625 h 0.527344 v -1.24219 z m 4.960937,1.91406 q -0.121094,-0.0703 -0.265625,-0.10156 -0.140625,-0.0352 -0.3125,-0.0352 -0.609375,0 -0.9375,0.39843 -0.324219,0.39453 -0.324219,1.13672 V 168 h -0.722656 v -4.375 h 0.722656 v 0.67969 q 0.226563,-0.39844 0.589844,-0.58985 0.363281,-0.19531 0.882813,-0.19531 0.07422,0 0.164062,0.0117 0.08984,0.008 0.199219,0.0273 z m 3.492188,1.46485 q 0,-0.78125 -0.324219,-1.21094 -0.320313,-0.42969 -0.902344,-0.42969 -0.578125,0 -0.902344,0.42969 -0.320312,0.42969 -0.320312,1.21094 0,0.77734 0.320312,1.20703 0.324219,0.42969 0.902344,0.42969 0.582031,0 0.902344,-0.42969 0.324219,-0.42969 0.324219,-1.20703 z m 0.71875,1.69531 q 0,1.11719 -0.496094,1.66016 -0.496094,0.54687 -1.519531,0.54687 -0.378907,0 -0.714844,-0.0586 -0.335938,-0.0547 -0.652344,-0.17188 v -0.69922 q 0.316406,0.17188 0.625,0.25391 0.308594,0.082 0.628906,0.082 0.707032,0 1.058594,-0.37109 0.351563,-0.36719 0.351563,-1.11328 v -0.35547 q -0.222657,0.38672 -0.570313,0.57812 Q 24.078125,168 23.59375,168 q -0.804688,0 -1.296875,-0.61328 -0.492188,-0.61328 -0.492188,-1.625 0,-1.01563 0.492188,-1.62891 0.492187,-0.61328 1.296875,-0.61328 0.484375,0 0.832031,0.19141 0.347656,0.1914 0.570313,0.57812 V 163.625 h 0.71875 z"
   id="ctrlltxt"
   style="font-size:8px;line-height:0%;font-family:'DejaVu Sans';fill:#111111"
   class="mod"
   aria-label="Strg" />&#10;&#10;<path
   d="m 56.785156,126.16797 h 1.175781 l 1.488282,3.96875 1.496093,-3.96875 h 1.175782 V 132 h -0.769532 v -5.12109 l -1.503906,4 h -0.792969 l -1.503906,-4 V 132 h -0.765625 z m 9.140625,0.6875 -1.992187,3.11328 h 1.992187 z m -0.207031,-0.6875 h 0.992187 v 3.80078 h 0.832032 V 130.625 H 66.710937 V 132 h -0.785156 v -1.375 h -2.632812 v -0.76172 z"
   id="m4ltxt"
   style="font-size:8px;line-height:0%;font-family:'DejaVu Sans';fill:#111111"
   class="mod"
   aria-label="M4" />&#10;<path
   d="m 137.73437,162.94531 -1.07031,2.90235 h 2.14453 z m -0.44531,-0.77734 h 0.89453 L 140.40625,168 h -0.82031 l -0.53125,-1.49609 h -2.62891 L 135.89453,168 h -0.83203 z m 3.9375,-0.2461 h 0.71875 V 168 h -0.71875 z m 2.9336,0.46094 v 1.24219 h 1.48046 v 0.55859 h -1.48046 v 2.375 q 0,0.53516 0.14453,0.6875 0.14843,0.15235 0.59765,0.15235 h 0.73828 V 168 h -0.73828 q -0.83203,0 -1.14843,-0.30859 -0.31641,-0.3125 -0.31641,-1.13282 v -2.375 h -0.52734 V 163.625 h 0.52734 v -1.24219 z"
   id="altltxt"
   style="font-size:8px;line-height:0%;font-family:'DejaVu Sans';fill:#111111"
   class="mod"
   aria-label="Alt" />&#10;&#10;&#10;<path
   d="m 436.78516,90.167969 h 1.17578 l 1.48828,3.96875 1.49609,-3.96875 h 1.17578 V 96 h -0.76953 v -5.121094 l -1.5039,4 h -0.79297 l -1.50391,-4 V 96 h -0.76562 z m 9.36328,2.6875 q 0.5664,0.121093 0.88281,0.503906 0.32031,0.382812 0.32031,0.945312 0,0.863282 -0.59375,1.335938 -0.59375,0.472656 -1.6875,0.472656 -0.36719,0 -0.75781,-0.07422 -0.38672,-0.07031 -0.80078,-0.214843 V 95.0625 q 0.32812,0.191406 0.71875,0.289062 0.39062,0.09766 0.8164,0.09766 0.74219,0 1.12891,-0.292969 0.39063,-0.292969 0.39063,-0.851563 0,-0.515625 -0.36329,-0.804687 -0.35937,-0.292969 -1.0039,-0.292969 h -0.67969 v -0.648437 h 0.71094 q 0.58203,0 0.89062,-0.230469 0.3086,-0.234375 0.3086,-0.671875 0,-0.449219 -0.32032,-0.6875 -0.3164,-0.242188 -0.91015,-0.242188 -0.32422,0 -0.69531,0.07031 -0.3711,0.07031 -0.81641,0.21875 V 90.3125 q 0.44922,-0.125 0.83984,-0.1875 0.39453,-0.0625 0.74219,-0.0625 0.89844,0 1.42188,0.410156 0.52343,0.40625 0.52343,1.101563 0,0.484375 -0.27734,0.820312 -0.27734,0.332031 -0.78906,0.460938 z"
   id="m3rtxt"
   style="font-size:8px;line-height:0%;font-family:'DejaVu Sans';fill:#111111"
   class="mod"
   aria-label="M3" />&#10;&#10;&#10;<path
   d="m 456.58594,126.34375 -1.5586,-1.55859 -1.55859,1.55859 h 0.76758 v 6.07031 h 1.58203 v -6.07031 z m -4.53516,0.58594 2.97656,-2.97656 2.97657,2.97656 H 456.4043 V 133 h -2.75391 v -6.07031 z"
   id="shiftrtxt"
   style="font-size:12px;line-height:0%;font-family:'DejaVu Sans';fill:#111111"
   class="mod big"
   aria-label="⇧" />&#10;<path
   d="m 494.28125,162.35937 v 0.76954 q -0.44922,-0.21485 -0.84766,-0.32032 -0.39843,-0.10547 -0.76953,-0.10547 -0.64453,0 -0.99609,0.25 -0.34766,0.25 -0.34766,0.71094 0,0.38672 0.23047,0.58594 0.23438,0.19531 0.88281,0.31641 l 0.47657,0.0977 q 0.88281,0.16797 1.30078,0.59375 0.42187,0.42188 0.42187,1.13281 0,0.84766 -0.57031,1.28516 -0.56641,0.4375 -1.66406,0.4375 -0.41407,0 -0.88282,-0.0937 -0.46484,-0.0937 -0.96484,-0.27734 v -0.8125 q 0.48047,0.26953 0.94141,0.40625 0.46093,0.13672 0.90625,0.13672 0.67578,0 1.04297,-0.26563 0.36718,-0.26562 0.36718,-0.75781 0,-0.42969 -0.26562,-0.67188 -0.26172,-0.24218 -0.86328,-0.36328 l -0.48047,-0.0937 q -0.88281,-0.17578 -1.27735,-0.55078 -0.39453,-0.375 -0.39453,-1.04297 0,-0.77344 0.54297,-1.21875 0.54688,-0.44531 1.50391,-0.44531 0.41015,0 0.83594,0.0742 0.42578,0.0742 0.87109,0.22265 z m 2.26172,0.0234 v 1.24219 h 1.48047 v 0.55859 h -1.48047 v 2.375 q 0,0.53516 0.14453,0.6875 0.14844,0.15235 0.59766,0.15235 h 0.73828 V 168 h -0.73828 q -0.83204,0 -1.14844,-0.30859 -0.31641,-0.3125 -0.31641,-1.13282 v -2.375 h -0.52734 V 163.625 h 0.52734 v -1.24219 z m 4.96094,1.91406 q -0.1211,-0.0703 -0.26563,-0.10156 -0.14062,-0.0352 -0.3125,-0.0352 -0.60937,0 -0.9375,0.39843 -0.32422,0.39453 -0.32422,1.13672 V 168 h -0.72265 v -4.375 h 0.72265 v 0.67969 q 0.22656,-0.39844 0.58985,-0.58985 0.36328,-0.19531 0.88281,-0.19531 0.0742,0 0.16406,0.0117 0.0898,0.008 0.19922,0.0273 z m 3.49218,1.46485 q 0,-0.78125 -0.32422,-1.21094 -0.32031,-0.42969 -0.90234,-0.42969 -0.57812,0 -0.90234,0.42969 -0.32032,0.42969 -0.32032,1.21094 0,0.77734 0.32032,1.20703 0.32422,0.42969 0.90234,0.42969 0.58203,0 0.90234,-0.42969 0.32422,-0.42969 0.32422,-1.20703 z m 0.71875,1.69531 q 0,1.11719 -0.49609,1.66016 -0.49609,0.54687 -1.51953,0.54687 -0.37891,0 -0.71485,-0.0586 -0.33593,-0.0547 -0.65234,-0.17188 v -0.69922 q 0.31641,0.17188 0.625,0.25391 0.30859,0.082 0.62891,0.082 0.70703,0 1.05859,-0.37109 0.35156,-0.36719 0.35156,-1.11328 v -0.35547 q -0.22265,0.38672 -0.57031,0.57812 Q 504.07812,168 503.59375,168 q -0.80469,0 -1.29688,-0.61328 -0.49218,-0.61328 -0.49218,-1.625 0,-1.01563 0.49218,-1.62891 0.49219,-0.61328 1.29688,-0.61328 0.48437,0 0.83203,0.19141 0.34766,0.1914 0.57031,0.57812 V 163.625 h 0.71875 z"
   id="ctrlrtxt"
   style="font-size:8px;line-height:0%;font-family:'DejaVu Sans';fill:#111111"
   class="mod"
   aria-label="Strg" />&#10;<path
   d="m 357.78516,162.16797 h 1.17578 l 1.48828,3.96875 1.49609,-3.96875 h 1.17578 V 168 h -0.76953 v -5.12109 l -1.5039,4 h -0.79297 l -1.50391,-4 V 168 h -0.76562 z m 8.5664,1.96094 q -0.57812,0 -0.91406,0.45312 -0.33594,0.44922 -0.33594,1.23438 0,0.78515 0.33203,1.23828 0.33594,0.44922 0.91797,0.44922 0.57422,0 0.91016,-0.45313 0.33594,-0.45312 0.33594,-1.23437 0,-0.77735 -0.33594,-1.23047 -0.33594,-0.45703 -0.91016,-0.45703 z m 0,-0.60938 q 0.9375,0 1.47266,0.60938 0.53515,0.60937 0.53515,1.6875 0,1.07421 -0.53515,1.6875 -0.53516,0.60937 -1.47266,0.60937 -0.9414,0 -1.47656,-0.60937 -0.53125,-0.61329 -0.53125,-1.6875 0,-1.07813 0.53125,-1.6875 0.53516,-0.60938 1.47656,-0.60938 z m 6.07813,0.76953 v -2.36719 h 0.71875 V 168 h -0.71875 v -0.65625 q -0.22657,0.39062 -0.57422,0.58203 -0.34375,0.1875 -0.82813,0.1875 -0.79297,0 -1.29297,-0.63281 -0.49609,-0.63281 -0.49609,-1.66406 0,-1.03125 0.49609,-1.66407 0.5,-0.63281 1.29297,-0.63281 0.48438,0 0.82813,0.19141 0.34765,0.1875 0.57422,0.57812 z m -2.44922,1.52735 q 0,0.79296 0.32422,1.24609 0.32812,0.44922 0.89843,0.44922 0.57032,0 0.89844,-0.44922 0.32813,-0.45313 0.32813,-1.24609 0,-0.79297 -0.32813,-1.24219 -0.32812,-0.45313 -0.89844,-0.45313 -0.57031,0 -0.89843,0.45313 -0.32422,0.44922 -0.32422,1.24219 z m 6.91797,-2.96094 -1.99219,3.11328 h 1.99219 z m -0.20703,-0.6875 h 0.99218 v 3.80078 h 0.83203 v 0.65625 h -0.83203 V 168 h -0.78515 v -1.375 h -2.63282 v -0.76172 z"
   id="m4rtxt"
   style="font-size:8px;line-height:0%;font-family:'DejaVu Sans';fill:#111111"
   class="mod"
   aria-label="Mod4" />&#10;<path
   d="m 226.82812,163.75391 v 0.67968 q -0.30468,-0.15625 -0.63281,-0.23437 -0.32812,-0.0781 -0.67969,-0.0781 -0.53515,0 -0.80468,0.16407 -0.26563,0.16406 -0.26563,0.49218 0,0.25 0.19141,0.39453 0.1914,0.14063 0.76953,0.26954 l 0.24609,0.0547 q 0.76563,0.16407 1.08594,0.46485 0.32422,0.29687 0.32422,0.83203 0,0.60937 -0.48438,0.96484 -0.48046,0.35547 -1.32421,0.35547 -0.35157,0 -0.73438,-0.0703 -0.37891,-0.0664 -0.80078,-0.20313 v -0.74218 q 0.39844,0.20703 0.78516,0.3125 0.38671,0.10156 0.76562,0.10156 0.50781,0 0.78125,-0.17188 0.27344,-0.17578 0.27344,-0.49218 0,-0.29297 -0.19922,-0.44922 -0.19531,-0.15625 -0.86328,-0.30078 l -0.25,-0.0586 q -0.66797,-0.14062 -0.96485,-0.42969 -0.29687,-0.29296 -0.29687,-0.80078 0,-0.61718 0.4375,-0.95312 0.4375,-0.33594 1.24219,-0.33594 0.39843,0 0.75,0.0586 0.35156,0.0586 0.64843,0.17579 z m 4.52735,0.0391 v 0.67187 q -0.30469,-0.16797 -0.61328,-0.25 -0.30469,-0.0859 -0.61719,-0.0859 -0.69922,0 -1.08594,0.44531 -0.38672,0.4414 -0.38672,1.24219 0,0.80078 0.38672,1.24609 0.38672,0.44141 1.08594,0.44141 0.3125,0 0.61719,-0.082 0.30859,-0.0859 0.61328,-0.2539 v 0.66406 q -0.30078,0.14063 -0.625,0.21094 -0.32031,0.0703 -0.6836,0.0703 -0.98828,0 -1.57031,-0.62109 -0.58203,-0.6211 -0.58203,-1.67578 0,-1.07032 0.58594,-1.6836 0.58984,-0.61328 1.61328,-0.61328 0.33203,0 0.64844,0.0703 0.3164,0.0664 0.61328,0.20313 z m 4.88672,1.5664 V 168 h -0.71875 v -2.61719 q 0,-0.62109 -0.24219,-0.92969 -0.24219,-0.30859 -0.72656,-0.30859 -0.58203,0 -0.91797,0.37109 -0.33594,0.3711 -0.33594,1.01172 V 168 h -0.72266 v -6.07813 h 0.72266 v 2.38282 q 0.25781,-0.39453 0.60547,-0.58985 0.35156,-0.19531 0.80859,-0.19531 0.75391,0 1.14063,0.46875 0.38672,0.46484 0.38672,1.37109 z m 4.83984,-0.89453 q 0.26953,-0.48437 0.64453,-0.71484 0.375,-0.23047 0.88281,-0.23047 0.6836,0 1.05469,0.48047 0.3711,0.47656 0.3711,1.35937 V 168 h -0.72266 v -2.61719 q 0,-0.6289 -0.22266,-0.93359 -0.22265,-0.30469 -0.67968,-0.30469 -0.5586,0 -0.88282,0.37109 -0.32422,0.3711 -0.32422,1.01172 V 168 h -0.72265 v -2.61719 q 0,-0.63281 -0.22266,-0.93359 -0.22265,-0.30469 -0.6875,-0.30469 -0.55078,0 -0.875,0.375 -0.32422,0.37109 -0.32422,1.00781 V 168 h -0.72265 v -4.375 h 0.72265 v 0.67969 q 0.2461,-0.40235 0.58985,-0.59375 0.34375,-0.19141 0.8164,-0.19141 0.47657,0 0.8086,0.24219 0.33593,0.24219 0.49609,0.70312 z m 4.48828,2.54297 h 0.82422 V 168 h -0.82422 z m 7.86328,-1.24609 q 0,-0.78125 -0.32422,-1.21094 -0.32031,-0.42969 -0.90234,-0.42969 -0.57812,0 -0.90234,0.42969 -0.32032,0.42969 -0.32032,1.21094 0,0.77734 0.32032,1.20703 0.32422,0.42969 0.90234,0.42969 0.58203,0 0.90234,-0.42969 0.32422,-0.42969 0.32422,-1.20703 z m 0.71875,1.69531 q 0,1.11719 -0.49609,1.66016 -0.49609,0.54687 -1.51953,0.54687 -0.37891,0 -0.71485,-0.0586 -0.33593,-0.0547 -0.65234,-0.17188 v -0.69922 q 0.31641,0.17188 0.625,0.25391 0.30859,0.082 0.62891,0.082 0.70703,0 1.05859,-0.37109 0.35156,-0.36719 0.35156,-1.11328 v -0.35547 q -0.22265,0.38672 -0.57031,0.57812 Q 252.51562,168 252.03125,168 q -0.80469,0 -1.29688,-0.61328 -0.49218,-0.61328 -0.49218,-1.625 0,-1.01563 0.49218,-1.62891 0.49219,-0.61328 1.29688,-0.61328 0.48437,0 0.83203,0.19141 0.34766,0.1914 0.57031,0.57812 V 163.625 h 0.71875 z m 5.22266,-1.82422 v 0.35156 h -3.30469 q 0.0469,0.74219 0.44531,1.13282 0.40235,0.38672 1.11719,0.38672 0.41406,0 0.80078,-0.10157 0.39063,-0.10156 0.77344,-0.30468 v 0.67968 q -0.38672,0.16407 -0.79297,0.25 -0.40625,0.0859 -0.82422,0.0859 -1.04687,0 -1.66015,-0.60937 -0.60938,-0.60938 -0.60938,-1.64844 0,-1.07422 0.57813,-1.70313 0.58203,-0.63281 1.5664,-0.63281 0.88282,0 1.39453,0.57031 0.51563,0.56641 0.51563,1.54297 z m -0.71875,-0.21094 q -0.008,-0.58984 -0.33203,-0.9414 -0.32031,-0.35156 -0.85156,-0.35156 -0.60157,0 -0.96485,0.33984 -0.35937,0.33984 -0.41406,0.95703 z m 4.6875,-1.66796 v 0.67968 q -0.30469,-0.15625 -0.63281,-0.23437 -0.32813,-0.0781 -0.67969,-0.0781 -0.53516,0 -0.80469,0.16407 -0.26562,0.16406 -0.26562,0.49218 0,0.25 0.1914,0.39453 0.19141,0.14063 0.76953,0.26954 l 0.2461,0.0547 q 0.76562,0.16407 1.08594,0.46485 0.32421,0.29687 0.32421,0.83203 0,0.60937 -0.48437,0.96484 -0.48047,0.35547 -1.32422,0.35547 -0.35156,0 -0.73437,-0.0703 -0.37891,-0.0664 -0.80079,-0.20313 v -0.74218 q 0.39844,0.20703 0.78516,0.3125 0.38672,0.10156 0.76563,0.10156 0.50781,0 0.78125,-0.17188 0.27343,-0.17578 0.27343,-0.49218 0,-0.29297 -0.19922,-0.44922 -0.19531,-0.15625 -0.86328,-0.30078 l -0.25,-0.0586 q -0.66797,-0.14062 -0.96484,-0.42969 -0.29688,-0.29296 -0.29688,-0.80078 0,-0.61718 0.4375,-0.95312 0.4375,-0.33594 1.24219,-0.33594 0.39844,0 0.75,0.0586 0.35156,0.0586 0.64844,0.17579 z m 4.52734,0.0391 v 0.67187 q -0.30468,-0.16797 -0.61328,-0.25 -0.30469,-0.0859 -0.61719,-0.0859 -0.69921,0 -1.08593,0.44531 -0.38672,0.4414 -0.38672,1.24219 0,0.80078 0.38672,1.24609 0.38672,0.44141 1.08593,0.44141 0.3125,0 0.61719,-0.082 0.3086,-0.0859 0.61328,-0.2539 v 0.66406 q -0.30078,0.14063 -0.625,0.21094 -0.32031,0.0703 -0.68359,0.0703 -0.98828,0 -1.57031,-0.62109 -0.58203,-0.6211 -0.58203,-1.67578 0,-1.07032 0.58593,-1.6836 0.58985,-0.61328 1.61328,-0.61328 0.33204,0 0.64844,0.0703 0.31641,0.0664 0.61328,0.20313 z m 4.88672,1.5664 V 168 h -0.71875 v -2.61719 q 0,-0.62109 -0.24219,-0.92969 -0.24218,-0.30859 -0.72656,-0.30859 -0.58203,0 -0.91797,0.37109 -0.33593,0.3711 -0.33593,1.01172 V 168 h -0.72266 v -6.07813 h 0.72266 v 2.38282 q 0.25781,-0.39453 0.60546,-0.58985 0.35157,-0.19531 0.8086,-0.19531 0.7539,0 1.14062,0.46875 0.38672,0.46484 0.38672,1.37109 z m 1.53516,1.64844 h 0.82422 V 168 h -0.82422 z m 5.01562,-4.83984 h 0.78907 v 5.16797 h 2.83984 V 168 h -3.62891 z m 8.02735,3.46484 v 0.35156 h -3.30469 q 0.0469,0.74219 0.44531,1.13282 0.40235,0.38672 1.11719,0.38672 0.41406,0 0.80078,-0.10157 0.39063,-0.10156 0.77344,-0.30468 v 0.67968 q -0.38672,0.16407 -0.79297,0.25 -0.40625,0.0859 -0.82422,0.0859 -1.04687,0 -1.66016,-0.60937 -0.60937,-0.60938 -0.60937,-1.64844 0,-1.07422 0.57812,-1.70313 0.58204,-0.63281 1.56641,-0.63281 0.88281,0 1.39453,0.57031 0.51563,0.56641 0.51563,1.54297 z m -0.71875,-0.21094 q -0.008,-0.58984 -0.33203,-0.9414 -0.32032,-0.35156 -0.85157,-0.35156 -0.60156,0 -0.96484,0.33984 -0.35938,0.33984 -0.41406,0.95703 z m 5.64062,0.21094 v 0.35156 h -3.30469 q 0.0469,0.74219 0.44532,1.13282 0.40234,0.38672 1.11718,0.38672 0.41407,0 0.80079,-0.10157 0.39062,-0.10156 0.77343,-0.30468 v 0.67968 q -0.38672,0.16407 -0.79297,0.25 -0.40625,0.0859 -0.82421,0.0859 -1.04688,0 -1.66016,-0.60937 -0.60938,-0.60938 -0.60938,-1.64844 0,-1.07422 0.57813,-1.70313 0.58203,-0.63281 1.56641,-0.63281 0.88281,0 1.39453,0.57031 0.51562,0.56641 0.51562,1.54297 z m -0.71875,-0.21094 q -0.008,-0.58984 -0.33203,-0.9414 -0.32031,-0.35156 -0.85156,-0.35156 -0.60156,0 -0.96485,0.33984 -0.35937,0.33984 -0.41406,0.95703 z m 4.4336,-1.125 q -0.1211,-0.0703 -0.26563,-0.10156 -0.14062,-0.0352 -0.3125,-0.0352 -0.60937,0 -0.9375,0.39843 -0.32422,0.39453 -0.32422,1.13672 V 168 h -0.72265 v -4.375 h 0.72265 v 0.67969 q 0.22656,-0.39844 0.58985,-0.58985 0.36328,-0.19531 0.88281,-0.19531 0.0742,0 0.16406,0.0117 0.0898,0.008 0.19922,0.0273 z m 0.4414,-0.67187 h 3.41406 v 0.65625 l -2.70312,3.14453 h 2.70312 V 168 h -3.51171 v -0.65625 l 2.70312,-3.14453 h -2.60547 z m 4.61328,3.38281 h 0.82422 V 168 h -0.82422 z"
   id="text61"
   style="font-size:8px;line-height:0%;font-family:'DejaVu Sans';text-align:center;text-anchor:middle;fill:#111111"
   class="mod space"
   aria-label="schm. gesch. Leerz." />&#10;&#10;<path
   d="m 498.29883,61.214844 -2.97656,-2.976563 2.97656,-2.976562 v 1.599609 h 3.32226 v -3.609375 h 2.75391 l -0.006,6.363281 h -6.07031 z m -0.58594,-3.767578 v -0.767579 l -1.55859,1.558594 1.55859,1.558594 v -0.767578 h 6.07031 l 0.006,-5.191406 h -1.58203 l -0.006,3.609375 z"
   id="returntxt"
   style="font-size:12px;line-height:0%;font-family:'DejaVu Sans';fill:#111111"
   class="mod big"
   aria-label="⏎" />&#10;<path
   d="m 490.70312,23 h -7.66015 l -3.03906,-3.039063 3.03906,-3.039062 h 7.66015 z M 490.125,17.5 h -0.55078 l -2.46094,2.460937 2.46094,2.460938 h 0.55078 z m -5.47656,0 2.05078,2.050781 L 488.75,17.5 Z m 4.10156,4.921875 -2.05078,-2.050781 -2.05078,2.050781 z M 483.83594,17.5 h -0.55469 l -2.46094,2.46875 2.46094,2.453125 h 0.55469 l 2.46093,-2.460938 z"
   id="backspacetxt"
   style="font-size:8px;line-height:0%;font-family:'DejaVu Sans';fill:#111111"
   class="mod"
   aria-label="⌫" />&#10;</g>&#10;&#10;<g
   transform="translate(55,26)"
   id="g72">&#10;	<path
   d="M -5.6337891,-7.5761719 H 5.6337891 v 5.053711 H 4.1572266 v -3.5595703 h -9.7910157 z"
   id="text62"
   style="font-size:18px;line-height:0%;font-family:'DejaVu Sans';text-align:center;text-anchor:middle;fill:#111111;stroke-width:0.75"
   class="key"
   aria-label="¬" />&#10;	<path
   d="m 31.73291,-10.423828 h 1.713867 l 2.557618,8.2617186 2.548828,-8.2617186 H 40.26709 L 37.103027,0 h -2.197265 z"
   id="text63"
   style="font-size:18px;line-height:0%;font-family:'DejaVu Sans';text-align:center;text-anchor:middle;fill:#111111;stroke-width:0.75"
   class="key"
   aria-label="∨" />&#10;	<path
   d="m 67.73291,0 3.172852,-10.423828 h 2.197265 L 76.26709,0 H 74.553223 L 72.004395,-8.2617188 69.446777,0 Z"
   id="text64"
   style="font-size:18px;line-height:0%;font-family:'DejaVu Sans';text-align:center;text-anchor:middle;fill:#111111;stroke-width:0.75"
   class="key"
   aria-label="∧" />&#10;	<path
   d="m 101.69824,0 v -1.1162109 h 5.73926 V -12.603516 h 1.125 v 11.4873051 h 5.73926 V 0 Z"
   id="text65"
   style="font-size:18px;line-height:0%;font-family:'DejaVu Sans';text-align:center;text-anchor:middle;fill:#111111;stroke-width:0.75"
   class="key"
   aria-label="⊥" />&#10;	<path
   d="m 145.77539,-1.7753906 q -0.34277,-1.2216797 -0.99316,-2.3994141 -0.57129,-1.0107422 -1.33594,-1.836914 l -2.68945,4.2363281 z m -3.02344,-6.4951172 3.09375,-4.8515622 h 2.12696 l -3.83204,6.0292966 q 0.99317,1.0107422 1.71387,2.3027343 0.81738,1.4677735 1.19531,3.0146485 h 3.02344 V 0 h -2.7334 q 0.0352,0.46582031 0.0352,0.94921875 h -1.23047 Q 146.14453,0.46582031 146.10059,0 h -8.63086 l 4.61425,-7.2246094 q -0.26367,-0.1845703 -0.53613,-0.3603515 l 0.70313,-1.0283204 q 0.25488,0.1669922 0.50097,0.3427735 z"
   id="text66"
   style="font-size:18px;line-height:0%;font-family:'DejaVu Sans';text-align:center;text-anchor:middle;fill:#111111;stroke-width:0.75"
   class="key"
   aria-label="∡" />&#10;&#10;	<path
   d="m 177.89062,-13.87793 h 1.40625 V 3.8496094 h -1.40625 z m 2.8125,0 h 1.40625 V 3.8496094 h -1.40625 z"
   id="text67"
   style="font-size:18px;line-height:0%;font-family:'DejaVu Sans';text-align:center;text-anchor:middle;fill:#111111;stroke-width:0.75"
   class="key"
   aria-label="∥" />&#10;	<path
   d="m 222.66211,-6.0380859 v 0.7910156 l -3.4541,3.4541016 -1.05469,-1.0546876 2.04785,-2.0478515 H 209.4873 v -1.4941406 h 10.71387 l -2.04785,-2.0478516 1.05469,-1.0546875 z"
   id="text68"
   style="font-size:18px;line-height:0%;font-family:'DejaVu Sans';text-align:center;text-anchor:middle;fill:#111111;stroke-width:0.75"
   class="key"
   aria-label="→" />&#10;	<path
   d="M 252.70312,-3.0673828 Q 252.43066,-3.3837891 252,-4.1220703 q -0.58887,1.0546875 -1.10742,1.5205078 -0.65039,0.5625 -1.66113,0.5625 -1.18653,0 -1.96875,-0.8876953 -0.82618,-0.9316406 -0.82618,-2.4697266 0,-1.4765625 0.82618,-2.4785156 0.73828,-0.8876953 1.98632,-0.8876953 0.6416,0 1.11621,0.2636719 0.55372,0.290039 0.93164,0.7910156 0.35157,0.4482422 0.70313,1.0546875 0.58887,-1.0546875 1.10742,-1.5205078 0.65039,-0.5625 1.66113,-0.5625 1.18653,0 1.96875,0.8876953 0.82618,0.9316406 0.82618,2.4697266 0,1.4765624 -0.82618,2.4785156 -0.73828,0.8876953 -1.98632,0.8876953 -0.64161,0 -1.11621,-0.2636719 -0.47461,-0.2373047 -0.93165,-0.7910156 z m -3.56835,-0.1230469 q 1.45019,0 2.32031,-2.109375 -1.11621,-2.3027344 -2.32031,-2.3027344 -0.87891,0 -1.32715,0.6328125 -0.4834,0.6767579 -0.4834,1.5732422 0,0.984375 0.4834,1.5908203 0.49218,0.6152344 1.32715,0.6152344 z m 5.73046,-4.3945312 q -1.30957,0 -2.32031,2.109375 1.10742,2.3027343 2.32031,2.3027343 0.87891,0 1.32715,-0.6328125 0.4834,-0.6767578 0.4834,-1.5732421 0,-0.984375 -0.4834,-1.5908204 -0.49218,-0.6152343 -1.32715,-0.6152343 z"
   id="text69"
   style="font-size:18px;line-height:0%;font-family:'DejaVu Sans';text-align:center;text-anchor:middle;fill:#111111;stroke-width:0.75"
   class="key"
   aria-label="∞" />&#10;	<path
   d="m 286.20264,-3.1904297 q 1.45019,0 2.32031,-2.109375 -1.11621,-2.3027344 -2.32031,-2.3027344 -0.87891,0 -1.32715,0.6328125 -0.47461,0.6767579 -0.47461,1.5732422 0,0.984375 0.47461,1.5908203 0.49219,0.6152344 1.32715,0.6152344 z m 6.29297,0.017578 v 1.1601563 h -0.67676 q -0.6416,0 -1.11621,-0.2636719 -0.47461,-0.2373047 -0.93164,-0.7910156 -0.27246,-0.3164063 -0.70313,-1.0546875 -0.58887,1.0546875 -1.10742,1.5205078 -0.6416,0.5625 -1.66113,0.5625 -1.18653,0 -1.96875,-0.8876953 -0.82618,-0.9316406 -0.82618,-2.4697266 0,-1.4765625 0.82618,-2.4785156 0.72949,-0.8876953 1.98632,-0.8876953 0.64161,0 1.11622,0.2636719 0.55371,0.290039 0.93164,0.7910156 0.35156,0.4482422 0.70312,1.0546875 0.58887,-1.0546875 1.10742,-1.5205078 0.6416,-0.5625 1.66114,-0.5625 h 0.65918 v 1.1513672 h -0.5625 q -1.30079,0 -2.32032,2.109375 1.11621,2.3027343 2.32032,2.3027343 z"
   id="text70"
   style="font-size:18px;line-height:0%;font-family:'DejaVu Sans';text-align:center;text-anchor:middle;fill:#111111;stroke-width:0.75"
   class="key"
   aria-label="∝" />&#10;	<path
   d="m 327.48047,-11.768555 0.78223,-0.966797 h 0.93164 l -1.125,1.379883 q 0.92285,0.729492 1.52929,1.8017581 0.87891,1.5644531 0.87891,3.2519531 0,1.6875 -0.87891,3.2519531 -0.8789,1.5556641 -2.42578,2.39062501 -1.54687,0.83496094 -3.17285,0.83496094 -1.64355,0 -3.19043,-0.83496094 -0.49219,-0.26367187 -0.91406,-0.60644531 l -1.10742,1.37109375 h -0.92286 l 1.49414,-1.84570315 q -0.55371,-0.5800781 -0.96679,-1.3183594 -0.87012,-1.555664 -0.87012,-3.243164 0,-1.6875 0.87012,-3.2431641 0.87012,-1.5644531 2.41699,-2.3994141 1.54688,-0.834961 3.19043,-0.834961 1.62598,0 3.17285,0.834961 0.1582,0.08789 0.30762,0.175781 z m -7.38281,9.1142581 6.64453,-8.2001951 q 0,0 -0.12305,-0.07031 -1.27441,-0.685547 -2.61914,-0.685547 -1.35352,0 -2.63672,0.694336 -1.27441,0.685547 -1.99512,1.9775394 -0.71191,1.2744141 -0.7207,2.6367188 0.009,1.3623047 0.7207,2.6367187 0.31641,0.5625 0.7295,1.0107422 z m 7.24218,-7.7958981 -6.70605,8.2792966 q 0.34277,0.2724609 0.73828,0.4833984 1.27441,0.69433594 2.62793,0.69433594 1.34473,0 2.61914,-0.68554684 1.27441,-0.694336 2.00391,-1.9863282 0.7207,-1.274414 0.72949,-2.6367187 -0.009,-1.3623047 -0.72949,-2.6367188 -0.50977,-0.9052734 -1.28321,-1.5117184 z"
   id="text71"
   style="font-size:18px;line-height:0%;font-family:'DejaVu Sans';text-align:center;text-anchor:middle;fill:#111111;stroke-width:0.75"
   class="key"
   aria-label="∅" />&#10;	<path
   d="m 357.63135,-5.6513672 h 4.7373 v 1.4414063 h -4.7373 z"
   id="text72"
   style="font-size:18px;line-height:0%;font-family:'DejaVu Sans';text-align:center;text-anchor:middle;fill:#111111;stroke-width:0.75"
   class="key"
   aria-label="-" />&#10;</g>&#10;&#10;&#10;<path
   d="m 10.685547,55.740234 h 6.105469 l -1.371094,-1.371093 0.703125,-0.703125 2.308594,2.308593 v -2.25 h 0.996093 v 5.039063 h -0.996093 v -2.261719 l -2.308594,2.308594 -0.703125,-0.703125 1.371094,-1.371094 h -6.105469 z"
   id="text73"
   style="font-size:12px;line-height:0%;font-family:'DejaVu Sans';fill:#111111"
   class="mod big"
   aria-label="⇥" />&#10;&#10;<g
   transform="translate(73,62)"
   id="g85">&#10;	<path
   d="M -2.6938477,-0.87890625 4.5483398,-12.243164 H 2.4916992 L -4.7504883,-0.87890625 Z M -5.690918,-13.12207 H 5.690918 v 0.878906 L -1.5512695,-0.87890625 H 5.8930664 V 0 H -5.8930664 V -0.87890625 L 1.3491211,-12.243164 H -5.690918 Z"
   id="text74"
   style="font-size:18px;line-height:0%;font-family:'DejaVu Sans';text-align:center;text-anchor:middle;fill:#111111;stroke-width:0.75"
   class="key"
   aria-label="ℤ" />&#10;	<path
   d="m 37.766602,-6.328125 3.471679,3.4716797 q 0.870117,0.8701172 0.870117,1.3007812 0,1.14257816 -1.265625,1.81054691 0,-0.72949219 -0.439453,-1.16894531 l -6.793945,-6.7939453 -1.362305,1.3710937 q -0.544922,0.553711 0.03516,1.1337891 l 1.511718,1.5117187 q 0.878907,0.8789063 0.878907,1.819336 0,0.94042967 -0.536133,1.32714843 Q 33.380859,0 32.774414,0 h -2.15332 v -0.4921875 q 1.722656,-0.5537109 1.722656,-1.3710937 0,-0.2548829 -0.413086,-0.6679688 l -0.861328,-0.8701172 q -0.46582,-0.4746094 -0.46582,-1.3007812 0,-0.8261719 1.230468,-2.0654297 L 33.1875,-8.1298828 31.069336,-10.248047 q -0.870117,-0.870117 -0.870117,-1.300781 0,-1.142578 1.265625,-1.810547 0,0.729492 0.439453,1.168945 l 5.449219,5.4316409 2.469726,-2.4697265 -1.019531,-1.0195314 q -0.870117,-0.870117 -0.870117,-1.300781 0,-1.142578 1.265625,-1.810547 0,0.729492 0.439453,1.168945 l 1.599609,1.59961 q 0.870117,0.8701169 0.870117,1.3007809 0,1.1425782 -1.265625,1.8105469 0,-0.7294922 -0.439453,-1.1689453 l -0.158203,-0.1582031 z"
   id="text75"
   style="font-size:18px;line-height:0%;font-family:'DejaVu Sans';text-align:center;text-anchor:middle;fill:#111111;stroke-width:0.75"
   class="key"
   aria-label="ℵ" />&#10;	<path
   d="m 77.080078,-9.6679688 -4.016601,4.0341797 4.016601,4.0166016 L 76.03418,-0.55371094 72,-4.5878906 67.96582,-0.55371094 66.928711,-1.6171875 70.936523,-5.6337891 66.928711,-9.6679688 67.96582,-10.731445 72,-6.6972656 76.03418,-10.731445 Z"
   id="text76"
   style="font-size:18px;line-height:0%;font-family:'DejaVu Sans';text-align:center;text-anchor:middle;fill:#111111;stroke-width:0.75"
   class="key"
   aria-label="×" />&#10;	<path
   d="m 107.99561,-1.7490234 2.41699,-6.5302735 h -4.8252 z M 106.99365,0 101.98389,-13.12207 h 1.87207 l 1.19531,3.3662106 h 5.91504 l 1.19531,-3.3662106 h 1.8457 L 109.00635,0 Z"
   id="text77"
   style="font-size:18px;line-height:0%;font-family:'DejaVu Sans';text-align:center;text-anchor:middle;fill:#111111;stroke-width:0.75"
   class="key"
   aria-label="∀" />&#10;	<path
   d="m 146.49609,-0.23730469 2.33789,2.55761719 h -2.14453 l -1.94238,-2.10058594 -0.44824,0.0263672 q -0.14942,0.008789 -0.29004,0.008789 -2.76856,0 -4.42969,-1.84570311 -1.65234,-1.8544922 -1.65234,-4.9570313 0,-3.1113281 1.65234,-4.9570314 1.66113,-1.854492 4.42969,-1.854492 2.75976,0 4.41211,1.854492 1.65234,1.8457033 1.65234,4.9570314 0,2.2851563 -0.92285,3.9111328 -0.91406,1.6259766 -2.6543,2.39941411 z m -4.63183,-0.87011721 q 0.94922,0.43945315 2.14453,0.43945315 1.19531,0 2.14453,-0.43945315 V -11.99707 q -0.94922,-0.439453 -2.14453,-0.439453 -1.19531,0 -2.14453,0.439453 z m -0.92285,-0.571289 v -9.7382811 q -0.31641,0.254883 -0.59766,0.580078 -1.3623,1.5996093 -1.3623,4.2890624 0,2.6894532 1.3623,4.2802735 0.28125,0.3251953 0.59766,0.5888672 z m 6.13476,-9.7294921 v 9.7119139 q 0.30762,-0.2548828 0.58008,-0.571289 1.3623,-1.5996094 1.3623,-4.2802735 0,-2.6894531 -1.3623,-4.2890624 -0.27246,-0.316406 -0.58008,-0.571289 z"
   id="text78"
   style="font-size:18px;line-height:0%;font-family:'DejaVu Sans';text-align:center;text-anchor:middle;fill:#111111;stroke-width:0.75"
   class="key"
   aria-label="ℚ" />&#10;&#10;	<path
   d="M 185.00098,-13.12207 V 0 h -1.77539 v -11.62793 h -6.45118 V 0 h -1.77539 v -13.12207 z"
   id="text79"
   style="font-size:18px;line-height:0%;font-family:'DejaVu Sans';text-align:center;text-anchor:middle;fill:#111111;stroke-width:0.75"
   class="key"
   aria-label="Π" />&#10;	<path
   d="m 215.18701,0.25488281 q -1.23926,0 -2.04785,-0.74707031 -0.95801,-0.8876953 -0.95801,-2.4960938 0,-1.6699218 0.84375,-2.9707031 0.87012,-1.3359375 2.43457,-1.3359375 1.02832,0 1.83692,0.6416016 0.47461,0.3779297 0.7998,1.0107422 0.11426,-0.7119141 0.11426,-1.5205078 0,-1.1865235 -0.28125,-1.8720704 -0.62402,-1.5205077 -2.27637,-1.5205077 -0.62402,0 -1.59082,0.386719 v -1.476563 q 1.01953,-0.272461 1.9336,-0.272461 2.35546,0 3.35742,2.1621096 0.46582,1.0195313 0.46582,2.5400391 0,0.9931641 -0.21973,2.1445312 -0.55371,2.8828125 -1.98633,4.25390629 -1.125,1.07226562 -2.42578,1.07226562 z m -1.50293,-2.97949221 q 0,0.8789063 0.38672,1.3535157 0.41309,0.50097651 1.0459,0.50097651 0.5625,0 1.01074,-0.39550781 0.63281,-0.5449219 1.09863,-1.4326172 0.38672,-0.7294922 0.58008,-1.5117187 -0.78222,-1.8896485 -2.13574,-1.8896485 -1.16016,0 -1.66992,1.5292969 -0.31641,0.9492187 -0.31641,1.8457031 z"
   id="text80"
   style="font-size:18px;line-height:0%;font-family:'DejaVu Sans';text-align:center;text-anchor:middle;fill:#111111;stroke-width:0.75"
   class="key"
   aria-label="∂" />&#10;	<path
   d="m 256.20117,-4.8955078 h -9.21972 v 3.0322266 H 245.4873 V -9.421875 h 1.49415 v 3.0322266 h 9.21972 l -2.04785,-2.0478516 1.05469,-1.0546875 3.4541,3.4541016 v 0.7910156 l -3.4541,3.4541016 -1.05469,-1.0546876 z"
   id="text81"
   style="font-size:18px;line-height:0%;font-family:'DejaVu Sans';text-align:center;text-anchor:middle;fill:#111111;stroke-width:0.75"
   class="key"
   aria-label="↦" />&#10;	<path
   d="m 283.85596,0 h -1.87207 l 5.00976,-13.12207 h 2.0127 L 294.00732,0 h -1.8457 l -4.16601,-11.373047 z"
   id="text82"
   style="font-size:18px;line-height:0%;font-family:'DejaVu Sans';text-align:center;text-anchor:middle;fill:#111111;stroke-width:0.75"
   class="key"
   aria-label="Λ" />&#10;	<path
   d="m 323.12109,-10.248047 q -1.31836,0.18457 -2.17968,0.9492189 -1.14258,1.0107422 -1.14258,2.7509765 0,1.7314454 1.14258,2.7421875 0.86132,0.7646485 2.17968,0.9492188 z m 1.77539,7.3916017 q 1.31836,-0.1845703 2.17969,-0.9492188 1.125,-1.0107421 1.125,-2.7421875 0,-1.7402343 -1.125,-2.7509765 -0.86133,-0.7646489 -2.17969,-0.9492189 z m -1.77539,1.4677734 q -2.14453,-0.1933593 -3.5332,-1.3710937 -1.66113,-1.40625 -1.66113,-3.788086 0,-2.3818359 1.66113,-3.7968754 1.37988,-1.186523 3.5332,-1.379882 v -1.397461 h 1.77539 v 1.397461 q 2.14454,0.202148 3.52442,1.379882 1.65234,1.4150395 1.65234,3.7968754 0,2.3730469 -1.65234,3.788086 -1.37988,1.1777344 -3.52442,1.3798828 V 0 h -1.77539 z"
   id="text83"
   style="font-size:18px;line-height:0%;font-family:'DejaVu Sans';text-align:center;text-anchor:middle;fill:#111111;stroke-width:0.75"
   class="key"
   aria-label="Φ" />&#10;	<path
   d="m 356.89746,-7.734375 h 6.20508 v 1.4941406 h -6.20508 z m 3.11133,-4.183594 q -1.93359,0 -3.06738,1.441406 -1.14258,1.4414067 -1.14258,3.9287114 0,2.4785157 1.13379,3.9199219 1.14258,1.4414063 3.07617,1.4414063 1.93359,0 3.06738,-1.4414063 1.125,-1.4414062 1.125,-3.9199219 0,-2.4873047 -1.125,-3.9287114 -1.13379,-1.441406 -3.06738,-1.441406 z m 0,-1.441406 q 2.75976,0 4.41211,1.854492 1.65234,1.8457033 1.65234,4.9570314 0,3.1025391 -1.65234,4.9482422 -1.65235,1.85449221 -4.41211,1.85449221 -2.76856,0 -4.4209,-1.84570311 -1.66113,-1.8457031 -1.66113,-4.9570313 0,-3.1113281 1.66113,-4.9658204 1.65234,-1.845703 4.4209,-1.845703 z"
   id="text84"
   style="font-size:18px;line-height:0%;font-family:'DejaVu Sans';text-align:center;text-anchor:middle;fill:#111111;stroke-width:0.75"
   class="key"
   aria-label="Θ" />&#10;&#10;  <path
   d="m 396,-7.3212891 q -0.70313,0 -1.18652,0.4921875 -0.4834,0.4833985 -0.4834,1.1865235 0,0.6943359 0.4834,1.1777344 0.48339,0.4746093 1.18652,0.4746093 0.70312,0 1.18652,-0.4746093 0.4834,-0.4833985 0.4834,-1.1777344 0,-0.694336 -0.49219,-1.1865235 Q 396.69434,-7.3212891 396,-7.3212891 Z m 0,-1.133789 q 0.5625,0 1.08105,0.2197265 0.51856,0.2109375 0.89649,0.6152344 0.4043,0.3955078 0.60644,0.8964844 0.20215,0.5009766 0.20215,1.0810547 0,1.1601562 -0.81738,1.96875 -0.80859,0.7998047 -1.98633,0.7998047 -1.18652,0 -1.97754,-0.7910157 -0.79101,-0.7910156 -0.79101,-1.977539 0,-1.1777344 0.80859,-1.9951172 0.80859,-0.8173828 1.97754,-0.8173828 z"
   id="text85"
   style="font-size:18px;line-height:0%;font-family:'DejaVu Sans';text-align:center;text-anchor:middle;fill:#111111;stroke-width:0.75"
   class="key"
   aria-label="∘" />&#10;&#10;</g>&#10;&#10;&#10;<g
   transform="translate(84,98)"
   id="g95">&#10;	<path
   d="m 5.3085937,-12.111328 v 1.037109 q -0.7822265,-0.571289 -1.8017578,-0.966797 -1.0195312,-0.395507 -2.3466797,-0.395507 -1.43261714,0 -2.4960937,0.457031 V -1.125 q 1.06347656,0.45703125 2.4960937,0.45703125 1.3271485,0 2.3466797,-0.39550785 1.0195313,-0.3955078 1.8017578,-0.9755859 v 1.0283203 q -0.9316406,0.63281251 -1.977539,0.94921876 -1.0371094,0.31640625 -2.1972656,0.31640625 -2.9794922,0 -4.6933594,-1.81933591 -1.7138672,-1.828125 -1.7138672,-4.9833985 0,-3.1640625 1.7138672,-4.9833984 1.7138672,-1.828125 4.6933594,-1.828125 1.1777343,0 2.2148437,0.316406 1.0458984,0.307617 1.9599609,0.931641 z m -7.5673828,10.4589843 v -9.7998043 q -0.3076172,0.237304 -0.5800781,0.527343 -1.3798828,1.5117191 -1.3798828,4.3769534 0,2.8564453 1.3798828,4.3681641 0.2724609,0.2900391 0.5800781,0.5273438 z"
   id="text86"
   style="font-size:18px;line-height:0%;font-family:'DejaVu Sans';text-align:center;text-anchor:middle;fill:#111111;stroke-width:0.75"
   class="key"
   aria-label="ℂ" />&#10;	<path
   d="m 34.119141,-1.4941406 h 6.416015 V 0 h -8.455078 v -1.4941406 l 4.209961,-5.484375 -4.209961,-4.6494144 v -1.49414 h 8.296875 v 1.49414 h -6.257812 l 4.209961,4.6142581 z"
   id="text87"
   style="font-size:18px;line-height:0%;font-family:'DejaVu Sans';text-align:center;text-anchor:middle;fill:#111111;stroke-width:0.75"
   class="key"
   aria-label="Σ" />&#10;	<path
   d="m 71.556152,-10.986328 q 0.07031,-1.467774 0.782227,-2.047852 0.711914,-0.588867 1.371094,-0.588867 0.667968,0 1.221679,0.553711 0.553711,0.544922 0.729493,1.775391 l -1.300782,0.131836 q -0.149414,-1.142579 -0.65039,-1.142579 -0.624024,0 -0.694336,1.538086 L 72.443848,1.1865234 q -0.07031,1.4677735 -0.782227,2.0478516 -0.711914,0.5888672 -1.379883,0.5888672 -0.659179,0 -1.21289,-0.5537109 -0.553711,-0.5449219 -0.729493,-1.7753907 l 1.300782,-0.1318359 q 0.149414,1.1425781 0.65039,1.1425781 0.624024,0 0.694336,-1.53808592 z"
   id="text88"
   style="font-size:18px;line-height:0%;font-family:'DejaVu Sans';text-align:center;text-anchor:middle;fill:#111111;stroke-width:0.75"
   class="key"
   aria-label="∫" />&#10;	<path
   d="M 112.53516,-13.12207 V 0 h -8.45508 v -1.4941406 h 6.67969 v -4.3242188 h -6.67969 V -7.3125 h 6.67969 v -4.31543 h -6.67969 v -1.49414 z"
   id="text89"
   style="font-size:18px;line-height:0%;font-family:'DejaVu Sans';text-align:center;text-anchor:middle;fill:#111111;stroke-width:0.75"
   class="key nubkey"
   aria-label="∃" />&#10;	<path
   d="m 139.1748,-5.5107422 q 0.0615,0.6503906 0.61524,1.7050781 0.65039,1.2216797 1.88086,1.9072266 1.2041,0.6679688 2.50488,0.6767578 h 6.12598 v 1.39746095 h -6.12598 q -1.6875,0 -3.25195,-0.87011719 -1.55567,-0.87011716 -2.39063,-2.41699216 -0.83496,-1.546875 -0.83496,-3.1904297 0,-1.6259766 0.83496,-3.1728516 0.83496,-1.5468746 2.39063,-2.4257816 1.56445,-0.878906 3.25195,-0.878906 h 6.12598 v 1.397461 h -6.12598 q -1.30078,0.0088 -2.50488,0.685547 -1.22168,0.694336 -1.88086,1.9072265 -0.5625,1.0546875 -0.6416,1.8720703 h 11.15332 v 1.40625 z"
   id="text90"
   style="font-size:18px;line-height:0%;font-family:'DejaVu Sans';text-align:center;text-anchor:middle;fill:#111111;stroke-width:0.75"
   class="key"
   aria-label="∈" />&#10;&#10;	<path
   d="m 179.99561,-11.373047 -3.60352,9.8964845 h 7.21582 z M 173.98389,0 l 5.00976,-13.12207 h 2.0127 L 186.00732,0 Z"
   id="text91"
   style="font-size:18px;line-height:0%;font-family:'DejaVu Sans';text-align:center;text-anchor:middle;fill:#111111;stroke-width:0.75"
   class="key"
   aria-label="Δ" />&#10;	<path
   d="m 215.99121,-1.8544922 3.67383,-9.5273438 h -7.34766 z M 215.01562,0 209.92676,-12.946289 h 12.14648 L 216.98437,0 Z"
   id="text92"
   style="font-size:18px;line-height:0%;font-family:'DejaVu Sans';text-align:center;text-anchor:middle;fill:#111111;stroke-width:0.75"
   class="key nubkey"
   aria-label="∇" />&#10;	<path
   d="M 256.32422,-0.87890625 249.76758,-12.243164 h -2.0918 l 6.55664,11.36425775 z M 246.5332,-13.12207 h 3.72657 l 6.32812,10.9775387 V -13.12207 h 0.87891 V 0 h -3.72657 l -6.32812,-10.977539 V 0 h -0.87891 z"
   id="text93"
   style="font-size:18px;line-height:0%;font-family:'DejaVu Sans';text-align:center;text-anchor:middle;fill:#111111;stroke-width:0.75"
   class="key"
   aria-label="ℕ" />&#10;	<path
   d="m 292.07812,-3.3662109 q -0.66796,-1.3271485 -1.26562,-1.7490235 -0.60645,-0.430664 -1.66113,-0.430664 h -0.39551 q 0.67676,0.4130859 1.56445,2.1796875 l 1.25684,2.48730465 h 1.74902 z m -1.07226,-2.7070313 q 0.46582,0.2197266 0.95801,0.7998047 0.50097,0.5800781 1.0459,1.6875 L 294.81152,0 h -3.86718 l -1.67872,-3.3662109 Q 288.61523,-4.6845703 288,-5.1152344 q -0.60645,-0.430664 -1.66113,-0.430664 h -0.17578 V 0 h -3.53321 v -13.12207 h 5.96778 q 2.25,0 3.35742,0.940429 1.10742,0.94043 1.10742,2.8388676 0,1.828125 -1.02832,2.6894531 -0.43066,0.3603516 -1.02832,0.5800781 z m -4.84277,-6.1699218 v 5.8183593 h 2.85644 q 0.21094,0 0.41309,-0.017578 v -5.7832032 q -0.20215,-0.01758 -0.41309,-0.01758 z m 4.19238,0.202148 v 5.4052738 q 0.57129,-0.1933594 0.94922,-0.5537109 0.79101,-0.7558594 0.79101,-2.1533203 0,-1.3974606 -0.78222,-2.1445316 -0.36914,-0.360351 -0.95801,-0.553711 z m -6.84668,-0.202148 v 11.36425775 h 1.77539 V -12.243164 Z"
   id="text94"
   style="font-size:18px;line-height:0%;font-family:'DejaVu Sans';text-align:center;text-anchor:middle;fill:#111111;stroke-width:0.75"
   class="key"
   aria-label="ℝ" />&#10;	<path
   d="m 323.12109,0 q 0.009,-1.1777344 0,-2.7246094 -1.88086,0 -3.5332,-1.8457031 -1.61719,-1.7929687 -1.66113,-4.9570313 V -13.12207 h 1.87207 v 3.5947262 q 0,2.4785157 1.14258,3.9199219 0.96679,1.2304688 2.17968,1.3535157 V -13.12207 h 1.77539 v 8.8681638 q 1.21289,-0.1230469 2.17969,-1.3535157 1.14258,-1.4414062 1.14258,-3.9199219 V -13.12207 h 1.87207 v 3.5947262 q -0.0439,3.1640626 -1.66113,4.9570313 -1.65235,1.8457031 -3.53321,1.8457031 -0.009,0.6328125 0,2.7246094 z"
   id="text95"
   style="font-size:18px;line-height:0%;font-family:'DejaVu Sans';text-align:center;text-anchor:middle;fill:#111111;stroke-width:0.75"
   class="key"
   aria-label="Ψ" />&#10;&#10;  &#10;&#10;</g>&#10;&#10;<g
   transform="translate(101,134)"
   id="g105">&#10;    <path
   d="m 4.0737305,-14.598633 h 1.6611328 v 0.84375 H 4.7241211 L -0.49658203,0.36035156 H -1.0766602 l -2.8037109,-7.76074216 -1.0986328,0.3955078 -0.2197266,-0.703125 2.4873047,-0.8613281 2.25000002,6.2314453 z"
   id="text96"
   style="font-size:18px;line-height:0%;font-family:'DejaVu Sans';text-align:center;text-anchor:middle;fill:#111111;stroke-width:0.75"
   class="key"
   aria-label="√" />&#10;    <path
   d="m 33.00293,-7.7431641 h 6.249023 v 1.4941407 H 33.00293 Z M 32.080078,-13.12207 h 8.094727 v 1.49414 h -8.094727 z m 0,11.6279294 h 8.094727 V 0 h -8.094727 z"
   id="text97"
   style="font-size:18px;line-height:0%;font-family:'DejaVu Sans';text-align:center;text-anchor:middle;fill:#111111;stroke-width:0.75"
   class="key"
   aria-label="Ξ" />&#10;    <path
   d="m 67.73291,-5.2207031 v -5.2031249 h 1.511719 v 4.9833983 q 0,2.1445313 0.650391,3.0761719 0.65039,0.9228516 2.109375,0.9228516 1.450195,0 2.100585,-0.9228516 0.650391,-0.9316406 0.650391,-3.0761719 v -4.9833983 h 1.511719 v 5.2031249 q 0,2.6015625 -1.081055,3.9111328 Q 74.11377,0 72.004395,0 69.88623,0 68.805176,-1.3095703 67.73291,-2.6191406 67.73291,-5.2207031 Z"
   id="text98"
   style="font-size:18px;line-height:0%;font-family:'DejaVu Sans';text-align:center;text-anchor:middle;fill:#111111;stroke-width:0.75"
   class="key"
   aria-label="∪" />&#10;    <path
   d="m 103.73291,-5.203125 q 0,-2.6015625 1.07227,-3.9111328 1.08105,-1.3095702 3.19921,-1.3095702 2.10938,0 3.18165,1.3095702 1.08105,1.3095703 1.08105,3.9111328 0,0 0,5.203125 h -1.51172 v -4.9833984 q 0,-2.1445313 -0.65039,-3.0673829 -0.65039,-0.9316406 -2.10059,-0.9316406 -1.45898,0 -2.10937,0.9316406 -0.65039,0.9228516 -0.65039,3.0673829 0,0 0,4.9833984 h -1.51172 z"
   id="text99"
   style="font-size:18px;line-height:0%;font-family:'DejaVu Sans';text-align:center;text-anchor:middle;fill:#111111;stroke-width:0.75"
   class="key"
   aria-label="∩" />&#10;&#10;    <path
   d="m 149.74805,-1.4326172 h -7.29493 q -1.77539,0 -2.98828,-1.2216797 -1.21289,-1.2216797 -1.21289,-2.9794922 0,-1.7402343 1.21289,-2.9794922 1.21289,-1.2216796 2.97071,-1.2216796 0,0 7.3125,0 v 1.3183593 h -7.3125 q -1.19532,0 -2.03028,0.84375 -0.83496,0.84375 -0.83496,2.0390625 0,1.2128907 0.82617,2.0390625 0.84375,0.84375 2.03907,0.84375 0,0 7.3125,0 z"
   id="text100"
   style="font-size:18px;line-height:0%;font-family:'DejaVu Sans';text-align:center;text-anchor:middle;fill:#111111;stroke-width:0.75"
   class="key"
   aria-label="⊂" />&#10;    <path
   d="M 186.19189,-1.5644531 V 0 h -5.27343 v -1.5644531 q 1.55566,-0.8525391 2.42578,-2.3115235 0.87012,-1.4589843 0.87012,-3.234375 0,-2.109375 -1.16016,-3.3837894 -1.16016,-1.274414 -3.05859,-1.274414 -1.89844,0 -3.06739,1.283203 -1.16015,1.2744145 -1.16015,3.3750004 0,1.7753907 0.87011,3.234375 0.87891,1.4589844 2.44336,2.3115235 V 0 h -5.27343 v -1.5644531 h 2.80371 q -1.38868,-1.2216797 -2.03028,-2.53125 -0.63281,-1.3095703 -0.63281,-2.9267578 0,-2.7949219 1.6875,-4.5263671 1.67871,-1.731445 4.35938,-1.731445 2.66308,0 4.35937,1.731445 1.6875,1.7226561 1.6875,4.4384764 0,1.7050782 -0.62402,3.0058594 -0.62403,1.3007813 -2.03907,2.5400391 z"
   id="text101"
   style="font-size:18px;line-height:0%;font-family:'DejaVu Sans';text-align:center;text-anchor:middle;fill:#111111;stroke-width:0.75"
   class="key"
   aria-label="Ω" />&#10;    <path
   d="m 212.75244,0 v -13.12207 h 8.16504 v 1.49414 h -6.38965 V 0 Z"
   id="text102"
   style="font-size:18px;line-height:0%;font-family:'DejaVu Sans';text-align:center;text-anchor:middle;fill:#111111;stroke-width:0.75"
   class="key"
   aria-label="Γ" />&#10;    <path
   d="m 247.97461,-4.7197266 h 10.53809 v 1.0546875 h -9.4834 l 0.81738,0.8173828 -1.05469,1.0546876 -3.4541,-3.4541016 v -0.7910156 l 3.4541,-3.4541016 1.05469,1.0546875 -0.81738,0.8173828 h 9.4834 v 1.0546875 h -10.53809 l -0.92285,0.9228516 z"
   id="text103"
   style="font-size:18px;line-height:0%;font-family:'DejaVu Sans';text-align:center;text-anchor:middle;fill:#111111;stroke-width:0.75"
   class="key"
   aria-label="⇐" />&#10;    <path
   d="m 283.97461,-4.7197266 h 8.05078 l 0.92285,-0.9228515 -0.92285,-0.9228516 h -8.05078 l -0.92285,0.9228516 z m 6.99609,1.0546875 h -5.9414 l 0.81738,0.8173828 -1.05469,1.0546876 -3.4541,-3.4541016 v -0.7910156 l 3.4541,-3.4541016 1.05469,1.0546875 -0.81738,0.8173828 h 5.9414 l -0.81738,-0.8173828 1.05469,-1.0546875 3.4541,3.4541016 v 0.7910156 l -3.4541,3.4541016 -1.05469,-1.0546876 z"
   id="text104"
   style="font-size:18px;line-height:0%;font-family:'DejaVu Sans';text-align:center;text-anchor:middle;fill:#111111;stroke-width:0.75"
   class="key"
   aria-label="⇔" />&#10;    <path
   d="m 328.02539,-4.7197266 0.92285,-0.9228515 -0.92285,-0.9228516 H 317.4873 v -1.0546875 h 9.4834 l -0.81738,-0.8173828 1.05469,-1.0546875 3.4541,3.4541016 v 0.7910156 l -3.4541,3.4541016 -1.05469,-1.0546876 0.81738,-0.8173828 h -9.4834 v -1.0546875 z"
   id="text105"
   style="font-size:18px;line-height:0%;font-family:'DejaVu Sans';text-align:center;text-anchor:middle;fill:#111111;stroke-width:0.75"
   class="key"
   aria-label="⇒" />&#10;</g>&#10;&#10;&#10;<g
   transform="translate(561,26)"
   id="g109">&#10;    <path
   d="M -5.6337891,-6.3896484 H 5.6337891 v 1.4941406 H -5.6337891 Z m 0,-3.2783204 H 5.6337891 v 1.4941407 H -5.6337891 Z m 0,6.5566407 H 5.6337891 v 1.4941406 H -5.6337891 Z"
   id="text106"
   style="font-size:18px;line-height:0%;font-family:'DejaVu Sans';text-align:center;text-anchor:middle;fill:#111111;stroke-width:0.75"
   class="key"
   aria-label="≡" />&#10;    <path
   d="m 35.296875,-13.87793 h 1.40625 V 3.8496094 h -1.40625 z"
   id="text107"
   style="font-size:18px;line-height:0%;font-family:'DejaVu Sans';text-align:center;text-anchor:middle;fill:#111111;stroke-width:0.75"
   class="key"
   aria-label="∣" />&#10;    <path
   d="M 73.757812,-9.9052734 Q 72.94043,-10.248047 72,-10.248047 q -0.94043,0 -1.757813,0.3427736 -0.808593,0.3427734 -1.476562,1.0107421 -0.676758,0.6767579 -1.010742,1.4853516 -0.333985,0.8085938 -0.333985,1.7666016 0,0.9316406 0.333985,1.7402343 0.333984,0.8085938 1.010742,1.4853516 0.667969,0.6679688 1.476562,1.0107422 0.817383,0.3427734 1.757813,0.3427734 0.94043,0 1.757812,-0.3427734 0.808594,-0.3427734 1.476563,-1.0107422 0.676758,-0.6767578 1.010742,-1.4853516 0.333985,-0.8085937 0.333985,-1.7402343 0,-0.9580078 -0.333985,-1.7666016 Q 75.911133,-8.2177734 75.234375,-8.8945313 74.566406,-9.5625 73.757812,-9.9052734 Z M 69.741211,-11.126953 Q 70.787109,-11.566406 72,-11.566406 q 1.212891,0 2.258789,0.439453 1.045898,0.439453 1.907227,1.3007811 0.870117,0.8701172 1.300781,1.9160157 0.430664,1.0371093 0.430664,2.2675781 0,1.2041015 -0.430664,2.25 -0.430664,1.0371093 -1.300781,1.9072265 -0.861329,0.86132816 -1.907227,1.30078129 Q 73.212891,0.25488281 72,0.25488281 q -1.212891,0 -2.258789,-0.43945312 -1.045899,-0.43945313 -1.907227,-1.30078129 -0.870117,-0.8701172 -1.300781,-1.9072265 -0.430664,-1.0458985 -0.430664,-2.25 0,-1.2304688 0.430664,-2.2675781 0.430664,-1.0458985 1.300781,-1.9160157 0.861328,-0.8613281 1.907227,-1.3007811 z m 5.537109,3.2695311 -2.223633,2.2148438 2.214844,2.2148437 -1.054687,1.0546875 L 72,-4.5878906 69.785156,-2.3642578 68.72168,-3.4277344 70.945312,-5.6425781 68.730469,-7.8574219 69.785156,-8.9121094 72,-6.6972656 74.214844,-8.9208984 Z"
   id="text108"
   style="font-size:18px;line-height:0%;font-family:'DejaVu Sans';text-align:center;text-anchor:middle;fill:#111111;stroke-width:0.75"
   class="key"
   aria-label="⊗" />&#10;    <path
   d="m 107.05957,-9.9316406 h 1.85449 v 2.2324219 h -1.85449 z m -4.69336,3.5419922 h 11.26758 v 1.4941406 h -11.26758 z"
   id="text109"
   style="font-size:18px;line-height:0%;font-family:'DejaVu Sans';text-align:center;text-anchor:middle;fill:#111111;stroke-width:0.75"
   class="key"
   aria-label="∸" />&#10;</g>&#10;<g
   transform="translate(561,62)"
   id="g112">&#10;    <path
   d="M -1.9643555,-13.675781 H 1.762207 v 1.256836 H -0.34716797 V 2.3730469 H -1.9643555 Z"
   id="text110"
   style="font-size:18px;line-height:0%;font-family:'DejaVu Sans';text-align:center;text-anchor:middle;fill:#111111;stroke-width:0.75"
   class="key"
   aria-label="⌈" />&#10;    <path
   d="m 36,-11.504883 q -1.924805,0 -3.27832,1.001953 -1.353516,0.9931644 -1.353516,3.2080081 V 3.4541016 h -1.520508 v -10.96875 q 0,-2.8300786 1.951172,-4.1308596 1.959961,-1.300781 4.201172,-1.300781 2.241211,0 4.192383,1.300781 1.959961,1.300781 1.959961,4.1308596 v 10.96875 H 40.631836 V -7.2949219 q 0,-2.1972656 -1.344727,-3.1992191 Q 37.951172,-11.504883 36,-11.504883 Z"
   id="text111"
   style="font-size:18px;line-height:0%;font-family:'DejaVu Sans';text-align:center;text-anchor:middle;fill:#111111;stroke-width:0.75"
   class="key"
   aria-label="⋂" />&#10;    <path
   d="M 73.964355,-13.675781 V 2.3730469 H 72.347168 V -12.418945 h -2.109375 v -1.256836 z"
   id="text112"
   style="font-size:18px;line-height:0%;font-family:'DejaVu Sans';text-align:center;text-anchor:middle;fill:#111111;stroke-width:0.75"
   class="key"
   aria-label="⌉" />&#10;</g>&#10;<g
   transform="translate(561,98)"
   id="g115">&#10;    <path
   d="M -5.4140625,-1.3183594 H 5.6337891 V 0 H -5.4140625 Z M 5.6337891,-2.6367188 h -7.303711 q -1.7666015,0 -2.9794922,-1.2216796 -1.2216796,-1.2216797 -1.2216796,-2.9794922 0,-1.7402344 1.2216796,-2.9794922 1.2128907,-1.2216802 2.9707032,-1.2216802 0,0 7.3125,0 v 1.3183599 h -7.3125 q -1.2041016,0 -2.0390625,0.84375 -0.834961,0.84375 -0.834961,2.0390625 0,1.2128906 0.834961,2.0390625 0.84375,0.84375 2.0390625,0.84375 0,0 7.3125,0 z"
   id="text113"
   style="font-size:18px;line-height:0%;font-family:'DejaVu Sans';text-align:center;text-anchor:middle;fill:#111111;stroke-width:0.75"
   class="key"
   aria-label="⊆" />&#10;    <path
   d="m 32.352539,-3.8847656 q -0.729492,0.7294922 -1.766602,0.7294922 -1.02832,0 -1.77539,-0.7382813 -0.74707,-0.7382812 -0.74707,-1.7841797 0,-1.0546875 0.729492,-1.7753906 0.738281,-0.7207031 1.801758,-0.7207031 1.063476,0 1.77539,0.711914 0.448242,0.4482422 0.615235,1.0371094 h 6.038085 q 0.175782,-0.5800781 0.624024,-1.0283203 0.738281,-0.7207031 1.801758,-0.7207031 1.063476,0 1.77539,0.711914 0.711914,0.7119141 0.711914,1.7753907 0,1.0634765 -0.729492,1.8017578 -0.729492,0.7294922 -1.766601,0.7294922 -1.028321,0 -1.792969,-0.7470704 -0.457031,-0.4570312 -0.624024,-1.0458984 h -6.038085 q -0.175782,0.5976563 -0.632813,1.0634766 z m 8.226563,-0.9404297 q 0.351562,0.3515625 0.852539,0.3515625 0.500976,0 0.84375,-0.3515625 0.351562,-0.3515625 0.351562,-0.8525391 0,-0.5009765 -0.351562,-0.84375 -0.342774,-0.3515625 -0.852539,-0.3515625 -0.500977,0 -0.85254,0.3515625 -0.342773,0.3427735 -0.342773,0.84375 0,0.4921875 0.351563,0.8525391 z"
   id="text114"
   style="font-size:18px;line-height:0%;font-family:'DejaVu Sans';text-align:center;text-anchor:middle;fill:#111111;stroke-width:0.75"
   class="key"
   aria-label="⊷" />&#10;    <path
   d="M 66.366211,-1.3183594 H 77.414062 V 0 H 66.366211 Z m 0,-1.3183594 v -1.3183593 h 7.3125 q 1.195312,0 2.039062,-0.84375 0.834961,-0.8261719 0.834961,-2.0390625 0,-1.1953125 -0.834961,-2.0390625 -0.834961,-0.84375 -2.039062,-0.84375 h -7.3125 v -1.3183599 h 7.3125 q 1.757812,0 2.970703,1.2216802 1.22168,1.2392578 1.22168,2.9794922 0,1.7578125 -1.22168,2.9794922 -1.212891,1.2216796 -2.979492,1.2216796 z"
   id="text115"
   style="font-size:18px;line-height:0%;font-family:'DejaVu Sans';text-align:center;text-anchor:middle;fill:#111111;stroke-width:0.75"
   class="key"
   aria-label="⊇" />&#10;</g>&#10;<g
   transform="translate(561,134)"
   id="g118">&#10;    <path
   d="M -1.9643555,2.3730469 V -13.675781 h 1.61718753 V 1.1162109 H 1.762207 v 1.256836 z"
   id="text116"
   style="font-size:18px;line-height:0%;font-family:'DejaVu Sans';text-align:center;text-anchor:middle;fill:#111111;stroke-width:0.75"
   class="key"
   aria-label="⌊" />&#10;    <path
   d="m 36,2.0126953 q 1.924805,0 3.27832,-1.0019531 1.353516,-0.99316407 1.353516,-3.2080078 V -12.946289 h 1.520508 v 10.9687499 q 0,2.83007816 -1.959961,4.1308594 Q 38.241211,3.4541016 36,3.4541016 q -2.241211,0 -4.201172,-1.3007813 -1.951172,-1.30078124 -1.951172,-4.1308594 V -12.946289 h 1.520508 V -2.1972656 Q 31.368164,0 32.704102,1.0019531 34.048828,2.0126953 36,2.0126953 Z"
   id="text117"
   style="font-size:18px;line-height:0%;font-family:'DejaVu Sans';text-align:center;text-anchor:middle;fill:#111111;stroke-width:0.75"
   class="key"
   aria-label="⋃" />&#10;    <path
   d="m 73.964355,2.3730469 h -3.726562 v -1.256836 h 2.109375 V -13.675781 h 1.617187 z"
   id="text118"
   style="font-size:18px;line-height:0%;font-family:'DejaVu Sans';text-align:center;text-anchor:middle;fill:#111111;stroke-width:0.75"
   class="key"
   aria-label="⌋" />&#10;</g>&#10;<g
   transform="translate(561,170)"
   id="g120">&#10;    <path
   d="M 12.133301,1.2128906 H 23.866699 V -10.564453 H 12.133301 Z M 11.131348,2.2148438 V -11.566406 H 24.868652 V 2.2148438 Z"
   id="text119"
   style="font-size:18px;line-height:0%;font-family:'DejaVu Sans';text-align:center;text-anchor:middle;fill:#111111;stroke-width:0.75"
   class="key"
   aria-label="□" />&#10;    <path
   d="m 68.989746,-9.84375 1.520508,-3.27832 h 1.78418 l -2.540039,3.27832 z m 2.636719,0 1.520508,-3.27832 h 1.784179 l -2.540039,3.27832 z"
   id="text120"
   style="font-size:18px;line-height:0%;font-family:'DejaVu Sans';text-align:center;text-anchor:middle;fill:#111111;stroke-width:0.75"
   class="key"
   aria-label="″" />&#10;</g>&#10;&#10;<g
   transform="translate(561,78)"
   id="g121">&#10;    <path
   d="m 108.73828,-10.40625 v 4.4560547 h 4.89551 v 1.4941406 h -4.89551 V 0 h -1.47656 v -4.4560547 h -4.89551 v -1.4941406 h 4.89551 V -10.40625 Z m -1.47656,-2.71582 h 1.47656 v 1.792968 h -1.47656 z"
   id="text121"
   style="font-size:18px;line-height:0%;font-family:'DejaVu Sans';text-align:center;text-anchor:middle;fill:#111111;stroke-width:0.75"
   class="key"
   aria-label="∔" />&#10;</g>&#10;<g
   transform="translate(561,150)"
   id="g122">&#10;    <path
   d="m 105.40723,-1.1777344 -4.46485,-4.4648437 4.46485,-4.4648439 v 2.3994142 h 4.9834 V -13.12207 h 4.13085 l -0.009,9.5449216 h -9.10547 z m -0.87891,-5.6513672 v -1.1513671 l -2.33789,2.3378906 2.33789,2.3378906 v -1.1513672 h 9.10547 l 0.009,-7.7871093 h -2.37305 l -0.009,5.4140624 z"
   id="text122"
   style="font-size:18px;line-height:0%;font-family:'DejaVu Sans';text-align:center;text-anchor:middle;fill:#111111;stroke-width:0.75"
   class="key"
   aria-label="⏎" />&#10;</g>&#10;&#10;<path
   d="m 18.998047,18.476562 q 0.03516,0.07031 0.03516,0.166993 0,0.166992 -0.114258,0.298828 -0.105468,0.123047 -0.28125,0.123047 -0.166992,0 -0.307617,-0.114258 -0.131836,-0.123047 -0.131836,-0.307617 0,-0.158203 0.123047,-0.290039 0.131836,-0.131836 0.307617,-0.131836 0.263672,0 0.369141,0.254882 z m 2.768555,6.670899 q 0.03516,0.105469 0.03516,0.158203 0,0.158203 -0.123047,0.290039 -0.123047,0.131836 -0.298828,0.131836 -0.158203,0 -0.290039,-0.123047 -0.131836,-0.123047 -0.131836,-0.307617 0,-0.149414 0.114258,-0.28125 0.114257,-0.131836 0.28125,-0.131836 0.28125,0 0.413086,0.263672 z m -4.03418,-6.020508 q 0.131836,0.114258 0.131836,0.290039 0,0.421875 -0.413086,0.421875 -0.175781,0 -0.298828,-0.114258 -0.123047,-0.123047 -0.123047,-0.290039 0,-0.175781 0.123047,-0.298828 0.123047,-0.131836 0.290039,-0.131836 0.166992,0 0.290039,0.123047 z m 5.115234,5.097656 q 0.123047,0.123047 0.123047,0.298828 0,0.166993 -0.123047,0.29004 -0.114258,0.123046 -0.298828,0.123046 -0.175781,0 -0.298828,-0.123046 -0.123047,-0.123047 -0.123047,-0.29004 0,-0.175781 0.114258,-0.290039 0.123047,-0.123046 0.290039,-0.123046 0.175781,0 0.316406,0.114257 z m -6.029297,-4.016601 q 0.272461,0.114258 0.272461,0.404297 0,0.166992 -0.140625,0.290039 -0.131836,0.114258 -0.290039,0.114258 -0.18457,0 -0.298828,-0.131836 -0.114258,-0.131836 -0.114258,-0.290039 0,-0.175782 0.123047,-0.298829 0.131836,-0.123046 0.290039,-0.123046 0.05273,0 0.158203,0.03516 z m 6.670899,2.759765 q 0.263672,0.114258 0.263672,0.386719 0,0.175781 -0.131836,0.298828 -0.123047,0.114258 -0.290039,0.114258 -0.19336,0 -0.307618,-0.123047 -0.114257,-0.131836 -0.114257,-0.290039 0,-0.202148 0.131836,-0.307617 0.140625,-0.105469 0.298828,-0.105469 0.08789,0 0.149414,0.02637 z m -7.101563,-1.40625 q 0.166992,0 0.298828,0.123047 0.131836,0.114258 0.131836,0.28125 0,0.175782 -0.131836,0.307617 -0.131836,0.123047 -0.290039,0.123047 h -0.01758 q -0.166992,0 -0.290039,-0.123047 -0.114258,-0.131835 -0.114258,-0.298828 0,-0.175781 0.114258,-0.290039 0.123047,-0.123047 0.298828,-0.123047 z m 7.215821,-0.0088 q 0.175781,0 0.298828,0.123047 0.123047,0.123047 0.123047,0.298828 0,0.166993 -0.123047,0.290039 -0.114258,0.123047 -0.290039,0.123047 h -0.03516 q -0.158203,0 -0.28125,-0.123047 -0.114257,-0.123046 -0.114257,-0.28125 0,-0.175781 0.131836,-0.298828 0.131835,-0.123047 0.290039,-0.131836 z m -7.101563,1.423828 q 0.07031,-0.03516 0.166992,-0.03516 0.175782,0 0.298828,0.114258 0.123047,0.114258 0.123047,0.290039 0,0.166992 -0.123047,0.298828 -0.123046,0.131836 -0.298828,0.131836 -0.166992,0 -0.298828,-0.123047 -0.123047,-0.131836 -0.123047,-0.307617 0,-0.272461 0.254883,-0.369141 z m 6.670899,-2.768554 q 0.105468,-0.03516 0.158203,-0.03516 0.158203,0 0.290039,0.123046 0.131836,0.123047 0.131836,0.298829 0,0.158203 -0.123047,0.290039 -0.123047,0.131836 -0.307617,0.131836 -0.158204,0 -0.28125,-0.123047 -0.123047,-0.123047 -0.123047,-0.290039 0,-0.28125 0.254883,-0.395508 z m -6.020508,4.034179 q 0.131836,-0.131835 0.28125,-0.131835 0.18457,0 0.307617,0.123046 0.123047,0.114258 0.123047,0.290039 0,0.166993 -0.123047,0.298829 -0.114258,0.123046 -0.290039,0.123046 -0.166992,0 -0.298828,-0.123046 -0.123047,-0.131836 -0.123047,-0.298829 0,-0.158203 0.123047,-0.28125 z M 22.25,19.126953 q 0.140625,-0.123047 0.298828,-0.123047 0.175781,0 0.290039,0.123047 0.123047,0.123047 0.123047,0.298828 0,0.166992 -0.123047,0.298828 -0.114258,0.123047 -0.290039,0.123047 -0.166992,0 -0.290039,-0.131836 -0.123047,-0.131836 -0.123047,-0.290039 0,-0.166992 0.114258,-0.298828 z m -4.016602,6.029297 q 0.05273,-0.123047 0.166993,-0.193359 0.123046,-0.07031 0.228515,-0.07031 0.175781,0 0.290039,0.131836 0.123047,0.131836 0.123047,0.290039 0,0.175781 -0.131836,0.298828 -0.131836,0.114258 -0.290039,0.114258 -0.166992,0 -0.298828,-0.131836 -0.123047,-0.131836 -0.123047,-0.28125 0,-0.05273 0.03516,-0.158203 z m 2.759766,-6.670898 q 0.114258,-0.263672 0.386719,-0.263672 0.175781,0 0.298828,0.131836 0.123047,0.131836 0.123047,0.298828 0,0.175781 -0.131836,0.298828 -0.131836,0.114258 -0.290039,0.114258 -0.175781,0 -0.298828,-0.131836 -0.114258,-0.140625 -0.114258,-0.298828 0,-0.07031 0.02637,-0.149414 z m -1.40625,7.101562 q 0,-0.175781 0.123047,-0.298828 Q 19.833008,25.165039 20,25.165039 q 0.175781,0 0.298828,0.123047 0.123047,0.123047 0.123047,0.298828 0,0.166992 -0.123047,0.290039 Q 20.175781,26 20,26 19.833008,26 19.709961,25.876953 19.586914,25.753906 19.586914,25.586914 Z m 0,-7.21582 q 0,-0.175782 0.123047,-0.298828 Q 19.833008,17.949219 20,17.949219 q 0.175781,0 0.298828,0.123047 0.123047,0.123046 0.123047,0.298828 0,0.166992 -0.123047,0.290039 Q 20.175781,18.78418 20,18.78418 q -0.166992,0 -0.290039,-0.123047 -0.123047,-0.123047 -0.123047,-0.290039 z m 1.291992,10.081054 q 0,0.492188 -0.290039,0.84375 -0.290039,0.360352 -0.729492,0.360352 -0.738281,0 -0.738281,-0.84375 0,-0.500977 0.298828,-0.852539 0.298828,-0.342774 0.711914,-0.342774 0.74707,0 0.74707,0.834961 z"
   id="t1"
   style="font-size:18px;line-height:0%;font-family:'Gentium Plus Compact';text-align:center;text-anchor:middle;fill:#111111"
   class="dead"
   aria-label="◌̣" />&#10;<path
   d="m 450.99805,18.476562 q 0.0352,0.07031 0.0352,0.166993 0,0.166992 -0.11425,0.298828 -0.10547,0.123047 -0.28125,0.123047 -0.167,0 -0.30762,-0.114258 -0.13184,-0.123047 -0.13184,-0.307617 0,-0.158203 0.12305,-0.290039 0.13183,-0.131836 0.30762,-0.131836 0.26367,0 0.36914,0.254882 z m 2.76855,6.670899 q 0.0352,0.105469 0.0352,0.158203 0,0.158203 -0.12305,0.290039 -0.12305,0.131836 -0.29883,0.131836 -0.1582,0 -0.29004,-0.123047 -0.13183,-0.123047 -0.13183,-0.307617 0,-0.149414 0.11426,-0.28125 0.11425,-0.131836 0.28125,-0.131836 0.28125,0 0.41308,0.263672 z m -4.03418,-6.020508 q 0.13184,0.114258 0.13184,0.290039 0,0.421875 -0.41309,0.421875 -0.17578,0 -0.29883,-0.114258 -0.12304,-0.123047 -0.12304,-0.290039 0,-0.175781 0.12304,-0.298828 0.12305,-0.131836 0.29004,-0.131836 0.16699,0 0.29004,0.123047 z m 5.11524,5.097656 q 0.12304,0.123047 0.12304,0.298828 0,0.166993 -0.12304,0.29004 -0.11426,0.123046 -0.29883,0.123046 -0.17578,0 -0.29883,-0.123046 -0.12305,-0.123047 -0.12305,-0.29004 0,-0.175781 0.11426,-0.290039 0.12305,-0.123046 0.29004,-0.123046 0.17578,0 0.31641,0.114257 z m -6.0293,-4.016601 q 0.27246,0.114258 0.27246,0.404297 0,0.166992 -0.14062,0.290039 -0.13184,0.114258 -0.29004,0.114258 -0.18457,0 -0.29883,-0.131836 -0.11426,-0.131836 -0.11426,-0.290039 0,-0.175782 0.12305,-0.298829 0.13183,-0.123046 0.29004,-0.123046 0.0527,0 0.1582,0.03516 z m 6.6709,2.759765 q 0.26367,0.114258 0.26367,0.386719 0,0.175781 -0.13184,0.298828 -0.12304,0.114258 -0.29004,0.114258 -0.19335,0 -0.30761,-0.123047 -0.11426,-0.131836 -0.11426,-0.290039 0,-0.202148 0.13184,-0.307617 0.14062,-0.105469 0.29882,-0.105469 0.0879,0 0.14942,0.02637 z m -7.10156,-1.40625 q 0.16699,0 0.29882,0.123047 0.13184,0.114258 0.13184,0.28125 0,0.175782 -0.13184,0.307617 -0.13183,0.123047 -0.29004,0.123047 h -0.0176 q -0.167,0 -0.29004,-0.123047 -0.11426,-0.131835 -0.11426,-0.298828 0,-0.175781 0.11426,-0.290039 0.12304,-0.123047 0.29883,-0.123047 z m 7.21582,-0.0088 q 0.17578,0 0.29882,0.123047 0.12305,0.123047 0.12305,0.298828 0,0.166993 -0.12305,0.290039 -0.11425,0.123047 -0.29004,0.123047 h -0.0351 q -0.1582,0 -0.28125,-0.123047 -0.11426,-0.123046 -0.11426,-0.28125 0,-0.175781 0.13184,-0.298828 0.13183,-0.123047 0.29004,-0.131836 z m -7.10157,1.423828 q 0.0703,-0.03516 0.167,-0.03516 0.17578,0 0.29882,0.114258 0.12305,0.114258 0.12305,0.290039 0,0.166992 -0.12305,0.298828 -0.12304,0.131836 -0.29882,0.131836 -0.167,0 -0.29883,-0.123047 -0.12305,-0.131836 -0.12305,-0.307617 0,-0.272461 0.25488,-0.369141 z m 6.6709,-2.768554 q 0.10547,-0.03516 0.1582,-0.03516 0.15821,0 0.29004,0.123046 0.13184,0.123047 0.13184,0.298829 0,0.158203 -0.12305,0.290039 -0.12304,0.131836 -0.30761,0.131836 -0.15821,0 -0.28125,-0.123047 -0.12305,-0.123047 -0.12305,-0.290039 0,-0.28125 0.25488,-0.395508 z m -6.02051,4.034179 q 0.13184,-0.131835 0.28125,-0.131835 0.18457,0 0.30762,0.123046 0.12305,0.114258 0.12305,0.290039 0,0.166993 -0.12305,0.298829 -0.11426,0.123046 -0.29004,0.123046 -0.16699,0 -0.29883,-0.123046 -0.12304,-0.131836 -0.12304,-0.298829 0,-0.158203 0.12304,-0.28125 z M 454.25,19.126953 q 0.14062,-0.123047 0.29883,-0.123047 0.17578,0 0.29004,0.123047 0.12304,0.123047 0.12304,0.298828 0,0.166992 -0.12304,0.298828 -0.11426,0.123047 -0.29004,0.123047 -0.16699,0 -0.29004,-0.131836 -0.12305,-0.131836 -0.12305,-0.290039 0,-0.166992 0.11426,-0.298828 z m -4.0166,6.029297 q 0.0527,-0.123047 0.16699,-0.193359 0.12305,-0.07031 0.22852,-0.07031 0.17578,0 0.29004,0.131836 0.12304,0.131836 0.12304,0.290039 0,0.175781 -0.13183,0.298828 -0.13184,0.114258 -0.29004,0.114258 -0.167,0 -0.29883,-0.131836 -0.12305,-0.131836 -0.12305,-0.28125 0,-0.05273 0.0352,-0.158203 z m 2.75976,-6.670898 q 0.11426,-0.263672 0.38672,-0.263672 0.17578,0 0.29883,0.131836 0.12305,0.131836 0.12305,0.298828 0,0.175781 -0.13184,0.298828 -0.13183,0.114258 -0.29004,0.114258 -0.17578,0 -0.29883,-0.131836 -0.11425,-0.140625 -0.11425,-0.298828 0,-0.07031 0.0264,-0.149414 z m -1.40625,7.101562 q 0,-0.175781 0.12305,-0.298828 0.12305,-0.123047 0.29004,-0.123047 0.17578,0 0.29883,0.123047 0.12304,0.123047 0.12304,0.298828 0,0.166992 -0.12304,0.290039 Q 452.17578,26 452,26 q -0.16699,0 -0.29004,-0.123047 -0.12305,-0.123047 -0.12305,-0.290039 z m 0,-7.21582 q 0,-0.175782 0.12305,-0.298828 0.12305,-0.123047 0.29004,-0.123047 0.17578,0 0.29883,0.123047 0.12304,0.123046 0.12304,0.298828 0,0.166992 -0.12304,0.290039 -0.12305,0.123047 -0.29883,0.123047 -0.16699,0 -0.29004,-0.123047 -0.12305,-0.123047 -0.12305,-0.290039 z m 3.47168,-3.629883 q -0.0351,0.193359 -0.14941,0.483398 -0.12305,0.28125 -0.19336,0.448243 h -5.40527 l -0.19336,-0.219727 q 0.0439,-0.193359 0.1582,-0.474609 0.11426,-0.28125 0.20215,-0.448243 h 5.38769 z"
   id="t2"
   style="font-size:18px;line-height:0%;font-family:'Gentium Plus Compact';text-align:center;text-anchor:middle;fill:#111111"
   class="dead"
   aria-label="◌̄" />&#10;&#10;<path
   d="m 478.99805,90.476562 q 0.0352,0.07031 0.0352,0.166993 0,0.166992 -0.11425,0.298828 -0.10547,0.123047 -0.28125,0.123047 -0.167,0 -0.30762,-0.114258 -0.13184,-0.123047 -0.13184,-0.307617 0,-0.158203 0.12305,-0.290039 0.13183,-0.131836 0.30762,-0.131836 0.26367,0 0.36914,0.254882 z m 2.76855,6.670899 q 0.0352,0.105469 0.0352,0.158203 0,0.158203 -0.12305,0.290039 -0.12305,0.131836 -0.29883,0.131836 -0.1582,0 -0.29004,-0.123047 -0.13183,-0.123047 -0.13183,-0.307617 0,-0.149414 0.11426,-0.28125 0.11425,-0.131836 0.28125,-0.131836 0.28125,0 0.41308,0.263672 z m -4.03418,-6.020508 q 0.13184,0.114258 0.13184,0.290039 0,0.421875 -0.41309,0.421875 -0.17578,0 -0.29883,-0.114258 -0.12304,-0.123047 -0.12304,-0.290039 0,-0.175781 0.12304,-0.298828 0.12305,-0.131836 0.29004,-0.131836 0.16699,0 0.29004,0.123047 z m 5.11524,5.097656 q 0.12304,0.123047 0.12304,0.298828 0,0.166993 -0.12304,0.29004 -0.11426,0.123046 -0.29883,0.123046 -0.17578,0 -0.29883,-0.123046 -0.12305,-0.123047 -0.12305,-0.29004 0,-0.175781 0.11426,-0.290039 0.12305,-0.123046 0.29004,-0.123046 0.17578,0 0.31641,0.114257 z m -6.0293,-4.016601 q 0.27246,0.114258 0.27246,0.404297 0,0.166992 -0.14062,0.290039 -0.13184,0.114258 -0.29004,0.114258 -0.18457,0 -0.29883,-0.131836 -0.11426,-0.131836 -0.11426,-0.290039 0,-0.175782 0.12305,-0.298829 0.13183,-0.123046 0.29004,-0.123046 0.0527,0 0.1582,0.03516 z m 6.6709,2.759765 q 0.26367,0.114258 0.26367,0.386719 0,0.175781 -0.13184,0.298828 -0.12304,0.114258 -0.29004,0.114258 -0.19335,0 -0.30761,-0.123047 -0.11426,-0.131836 -0.11426,-0.290039 0,-0.202148 0.13184,-0.307617 0.14062,-0.105469 0.29882,-0.105469 0.0879,0 0.14942,0.02637 z m -7.10156,-1.40625 q 0.16699,0 0.29882,0.123047 0.13184,0.114258 0.13184,0.28125 0,0.175782 -0.13184,0.307617 -0.13183,0.123047 -0.29004,0.123047 h -0.0176 q -0.167,0 -0.29004,-0.123047 -0.11426,-0.131835 -0.11426,-0.298828 0,-0.175781 0.11426,-0.290039 0.12304,-0.123047 0.29883,-0.123047 z m 7.21582,-0.0088 q 0.17578,0 0.29882,0.123047 0.12305,0.123047 0.12305,0.298828 0,0.166993 -0.12305,0.290039 -0.11425,0.123047 -0.29004,0.123047 h -0.0351 q -0.1582,0 -0.28125,-0.123047 -0.11426,-0.123046 -0.11426,-0.28125 0,-0.175781 0.13184,-0.298828 0.13183,-0.123047 0.29004,-0.131836 z m -7.10157,1.423828 q 0.0703,-0.03516 0.167,-0.03516 0.17578,0 0.29882,0.114258 0.12305,0.114258 0.12305,0.290039 0,0.166992 -0.12305,0.298828 -0.12304,0.131836 -0.29882,0.131836 -0.167,0 -0.29883,-0.123047 -0.12305,-0.131836 -0.12305,-0.307617 0,-0.272461 0.25488,-0.369141 z m 6.6709,-2.768554 q 0.10547,-0.03516 0.1582,-0.03516 0.15821,0 0.29004,0.123046 0.13184,0.123047 0.13184,0.298829 0,0.158203 -0.12305,0.290039 -0.12304,0.131836 -0.30761,0.131836 -0.15821,0 -0.28125,-0.123047 -0.12305,-0.123047 -0.12305,-0.290039 0,-0.28125 0.25488,-0.395508 z m -6.02051,4.034179 q 0.13184,-0.131835 0.28125,-0.131835 0.18457,0 0.30762,0.123046 0.12305,0.114258 0.12305,0.290039 0,0.166993 -0.12305,0.298829 -0.11426,0.123046 -0.29004,0.123046 -0.16699,0 -0.29883,-0.123046 -0.12304,-0.131836 -0.12304,-0.298829 0,-0.158203 0.12304,-0.28125 z M 482.25,91.126953 q 0.14062,-0.123047 0.29883,-0.123047 0.17578,0 0.29004,0.123047 0.12304,0.123047 0.12304,0.298828 0,0.166992 -0.12304,0.298828 -0.11426,0.123047 -0.29004,0.123047 -0.16699,0 -0.29004,-0.131836 -0.12305,-0.131836 -0.12305,-0.290039 0,-0.166992 0.11426,-0.298828 z m -4.0166,6.029297 q 0.0527,-0.123047 0.16699,-0.193359 0.12305,-0.07031 0.22852,-0.07031 0.17578,0 0.29004,0.131836 0.12304,0.131836 0.12304,0.290039 0,0.175781 -0.13183,0.298828 -0.13184,0.114258 -0.29004,0.114258 -0.167,0 -0.29883,-0.131836 -0.12305,-0.131836 -0.12305,-0.28125 0,-0.05273 0.0352,-0.158203 z m 2.75976,-6.670898 q 0.11426,-0.263672 0.38672,-0.263672 0.17578,0 0.29883,0.131836 0.12305,0.131836 0.12305,0.298828 0,0.175781 -0.13184,0.298828 -0.13183,0.114258 -0.29004,0.114258 -0.17578,0 -0.29883,-0.131836 -0.11425,-0.140625 -0.11425,-0.298828 0,-0.07031 0.0264,-0.149414 z m -1.40625,7.101562 q 0,-0.175781 0.12305,-0.298828 0.12305,-0.123047 0.29004,-0.123047 0.17578,0 0.29883,0.123047 0.12304,0.123047 0.12304,0.298828 0,0.166992 -0.12304,0.290039 Q 480.17578,98 480,98 q -0.16699,0 -0.29004,-0.123047 -0.12305,-0.123047 -0.12305,-0.290039 z m 0,-7.21582 q 0,-0.175782 0.12305,-0.298828 0.12305,-0.123047 0.29004,-0.123047 0.17578,0 0.29883,0.123047 0.12304,0.123046 0.12304,0.298828 0,0.166992 -0.12304,0.290039 -0.12305,0.123047 -0.29883,0.123047 -0.16699,0 -0.29004,-0.123047 -0.12305,-0.123047 -0.12305,-0.290039 z m 3.26954,-4.324219 q -0.52735,1.415039 -1.28321,1.986328 -0.76465,0.5625 -1.55566,0.5625 -0.86133,0 -1.59961,-0.5625 -0.74707,-0.571289 -1.27442,-1.986328 0.10547,-0.158203 0.21973,-0.246094 0.10547,-0.08789 0.24609,-0.149414 0.43946,1.001953 1.11622,1.397461 0.66796,0.386719 1.25683,0.386719 0.62403,0 1.30957,-0.386719 0.67676,-0.395508 1.09863,-1.397461 0.28125,0.123047 0.46583,0.395508 z"
   id="t3"
   style="font-size:18px;line-height:0%;font-family:'Gentium Plus Compact';text-align:center;text-anchor:middle;fill:#111111"
   class="dead"
   aria-label="◌̆" />&#10;&#10;</svg>
