<?xml version="1.0" encoding="UTF-8" standalone="no"?>
<svg
   version="1.1"
   id="Ebene_1"
   height="183"
   width="535"
   viewBox="0 0 535 183"
   enable-background="new 0 0 535 183"
   xml:space="preserve"
   inkscape:version="0.48.5 r10040"
   sodipodi:docname="noted-2-tkl.svg"
   inkscape:export-xdpi="90"
   inkscape:export-ydpi="90"
   xmlns:inkscape="http://www.inkscape.org/namespaces/inkscape"
   xmlns:sodipodi="http://sodipodi.sourceforge.net/DTD/sodipodi-0.dtd"
   xmlns:xlink="http://www.w3.org/1999/xlink"
   xmlns="http://www.w3.org/2000/svg"
   xmlns:svg="http://www.w3.org/2000/svg"
   xmlns:rdf="http://www.w3.org/1999/02/22-rdf-syntax-ns#"
   xmlns:cc="http://creativecommons.org/ns#"
   xmlns:dc="http://purl.org/dc/elements/1.1/">&#10;&#10;  <metadata
   id="metadata135">&#10;    <rdf:RDF>&#10;      <cc:Work
   rdf:about="">&#10;        <dc:format>image/svg+xml</dc:format>&#10;        <dc:type
   rdf:resource="http://purl.org/dc/dcmitype/StillImage" />&#10;        <dc:title />&#10;      </cc:Work>&#10;    </rdf:RDF>&#10;  </metadata>&#10;&#10;<defs
   id="defs">&#10;<style
   type="text/css"
   id="style46661">&#10;text.mod, text.key, text.dead {&#10;	fill:#111;&#10;	fill-opacity:1;&#10;    stroke:none;&#10;    font-style:normal;&#10;    font-variant:normal;&#10;    font-weight:normal;&#10;    font-stretch:normal;&#10;    display:inline;&#10;    font-family:Arial;&#10;    writing-mode:lr-tb;&#10;}&#10;&#10;text.key {&#10;    font-family:Arial;&#10;}&#10;&#10;text.dead {&#10;    font-family: Gentium Plus Compact; &#10;}&#10;&#10;text.mod {&#10;    text-align:start;&#10;    text-anchor:start;&#10;}&#10;&#10;text.space, text.dead, text.center, text.key {&#10;    text-align:center;&#10;    text-anchor:middle;&#10;}&#10;&#10;text.key { font-size:18px; }&#10;text.dead { font-size:18px; }&#10;text.mod { font-size:10px; }&#10;text.big { font-size:12px; }&#10;&#10;.key {&#10;stroke-width:0.75;&#10;}&#10;&#10;.grey { fill:#949494; stroke:#696969; }&#10;.grey { fill:#9f9f9f; stroke:#747474; }&#10;&#10;.numpad { fill:#afaa9f; stroke:#747474; }&#10;&#10;/* bootstrap colors */&#10;.l5, .r5 { fill:#93CCEA; }&#10;.l4, .r4 { fill:#7abeb3; }&#10;.l3, .r3 { fill:#63b280; }&#10;.l2, .r2 { fill:#4aa44a; }&#10;&#10;/* btn bg hover, unused */&#10;.l2, .r2 { stroke:#3071a9; }&#10;.l3, .r3 { stroke:#449d44; }&#10;.l4, .r4 { stroke:#c9302c; }&#10;.l5, .r5 { stroke:#ec971f; }&#10;&#10;/* btn border hover */&#10;.l2, .r2 { stroke:#204d74; }&#10;.l3, .r3 { stroke:#204d74; }&#10;.l4, .r4 { stroke:#204d74; }&#10;.l5, .r5 { stroke:#204d74; }&#10;&#10;<!-- text.nubkey { fill:#eee; } -->&#10;&#10;.pressed {&#10;	<!--opacity:0.5;-->&#10;	fill:#777;&#10;}&#10;    </style>&#10;&#10;    <g
   id="basekey">&#10;        <rect
   width="32"
   height="32"
   rx="4"
   class="key"
   id="rect1" />&#10;	<!--rect width="20" height="20" x="6" y="6" /-->&#10;        <!--rect width="2" height="2" fill="#000" x="15" y="15" /-->&#10;    </g>&#10;&#10;    </defs>&#10;<sodipodi:namedview
   pagecolor="#ffffff"
   bordercolor="#666666"
   borderopacity="1"
   objecttolerance="10"
   gridtolerance="10"
   guidetolerance="10"
   inkscape:pageopacity="0"
   inkscape:pageshadow="2"
   inkscape:window-width="1614"
   inkscape:window-height="969"
   id="base"
   showgrid="false"
   inkscape:zoom="0.70961538"
   inkscape:cx="685.32105"
   inkscape:cy="241.15395"
   inkscape:window-x="78"
   inkscape:window-y="71"
   inkscape:window-maximized="0"
   inkscape:current-layer="Ebene_1"
   inkscape:showpageshadow="2"
   inkscape:pagecheckerboard="0"
   inkscape:deskcolor="#d1d1d1" />&#10;&#10;<rect
   width="100%"
   height="100%"
   rx="4"
   style="fill:#eee"
   id="rect2" />&#10;&#10;<g
   transform="translate(3.5,3.5)"
   id="g62">&#10;<use
   xlink:href="#basekey"
   y="0"
   x="0"
   class="l5"
   id="use2" />&#10;<use
   xlink:href="#basekey"
   y="0"
   x="36"
   class="l5"
   id="use3" />&#10;<use
   xlink:href="#basekey"
   y="0"
   x="72"
   class="l5"
   id="use4" />&#10;<use
   xlink:href="#basekey"
   y="0"
   x="108"
   class="l4"
   id="use5" />&#10;<use
   xlink:href="#basekey"
   y="0"
   x="144"
   class="l3"
   id="use6" />&#10;<use
   xlink:href="#basekey"
   y="0"
   x="180"
   class="l2"
   id="use7" />&#10;<use
   xlink:href="#basekey"
   y="0"
   x="216"
   class="l2"
   id="use8" />&#10;&#10;<use
   xlink:href="#basekey"
   y="0"
   x="252"
   class="r2"
   id="use9" />&#10;<use
   xlink:href="#basekey"
   y="0"
   x="288"
   class="r2"
   id="use10" />&#10;<use
   xlink:href="#basekey"
   y="0"
   x="324"
   class="r3"
   id="use11" />&#10;<use
   xlink:href="#basekey"
   y="0"
   x="360"
   class="r4"
   id="use12" />&#10;<use
   xlink:href="#basekey"
   y="0"
   x="396"
   class="r5"
   id="use13" />&#10;<use
   xlink:href="#basekey"
   y="0"
   x="432"
   class="r5"
   id="use14" />&#10;&#10;&#10;<use
   xlink:href="#basekey"
   y="36"
   x="54"
   class="l5"
   id="use15" />&#10;<use
   xlink:href="#basekey"
   y="36"
   x="90"
   class="l4"
   id="use16" />&#10;<use
   xlink:href="#basekey"
   y="36"
   x="126"
   class="l3"
   id="use17" />&#10;<use
   xlink:href="#basekey"
   y="36"
   x="162"
   class="l2"
   id="use18" />&#10;<use
   xlink:href="#basekey"
   y="36"
   x="198"
   class="l2"
   id="use19" />&#10;&#10;<use
   xlink:href="#basekey"
   y="36"
   x="234"
   class="r2"
   id="use20" />&#10;<use
   xlink:href="#basekey"
   y="36"
   x="270"
   class="r2"
   id="use21" />&#10;<use
   xlink:href="#basekey"
   y="36"
   x="306"
   class="r3"
   id="use22" />&#10;<use
   xlink:href="#basekey"
   y="36"
   x="342"
   class="r4"
   id="use23" />&#10;<use
   xlink:href="#basekey"
   y="36"
   x="378"
   class="r5"
   id="use24" />&#10;<use
   xlink:href="#basekey"
   y="36"
   x="414"
   class="r5"
   id="use25" />&#10;<use
   xlink:href="#basekey"
   y="36"
   x="450"
   class="r5"
   id="use26" />&#10;&#10;&#10;<use
   xlink:href="#basekey"
   y="72"
   x="64"
   class="l5"
   id="use27" />&#10;<use
   xlink:href="#basekey"
   y="72"
   x="100"
   class="l4"
   id="use28" />&#10;<use
   xlink:href="#basekey"
   y="72"
   x="136"
   class="l3"
   id="use29" />&#10;<use
   xlink:href="#basekey"
   y="72"
   x="172"
   class="l2"
   id="use30" />&#10;<use
   xlink:href="#basekey"
   y="72"
   x="208"
   class="l2"
   id="use31" />&#10;&#10;<use
   xlink:href="#basekey"
   y="72"
   x="244"
   class="r2"
   id="use32" />&#10;<use
   xlink:href="#basekey"
   y="72"
   x="280"
   class="r2"
   id="use33" />&#10;<use
   xlink:href="#basekey"
   y="72"
   x="316"
   class="r3"
   id="use34" />&#10;<use
   xlink:href="#basekey"
   y="72"
   x="352"
   class="r4"
   id="use35" />&#10;<use
   xlink:href="#basekey"
   y="72"
   x="388"
   class="r5"
   id="use36" />&#10;&#10;    <use
   xlink:href="#basekey"
   y="72"
   x="460"
   class="r5"
   id="use37" />&#10;&#10;&#10;&#10;<use
   xlink:href="#basekey"
   y="108"
   x="82"
   class="l5"
   id="use38" />&#10;<use
   xlink:href="#basekey"
   y="108"
   x="118"
   class="l4"
   id="use39" />&#10;<use
   xlink:href="#basekey"
   y="108"
   x="154"
   class="l3"
   id="use40" />&#10;<use
   xlink:href="#basekey"
   y="108"
   x="190"
   class="l2"
   id="use41" />&#10;<use
   xlink:href="#basekey"
   y="108"
   x="226"
   class="l2"
   id="use42" />&#10;&#10;<use
   xlink:href="#basekey"
   y="108"
   x="262"
   class="r2"
   id="use43" />&#10;<use
   xlink:href="#basekey"
   y="108"
   x="298"
   class="r2"
   id="use44" />&#10;<use
   xlink:href="#basekey"
   y="108"
   x="334"
   class="r3"
   id="use45" />&#10;<use
   xlink:href="#basekey"
   y="108"
   x="370"
   class="r4"
   id="use46" />&#10;<use
   xlink:href="#basekey"
   y="108"
   x="406"
   class="r5"
   id="use47" />&#10;&#10;&#10;<rect
   id="backspace"
   y="0"
   x="468"
   width="60"
   height="32"
   rx="4"
   class="key grey" />&#10;&#10;<rect
   id="tab"
   x="0"
   y="36"
   width="50"
   height="32"
   rx="4"
   class="key grey" />&#10;&#10;<rect
   id="m3l"
   x="0"
   y="72"
   width="60"
   height="32"
   rx="4"
   class="key grey" />&#10;&#10;<use
   id="m3r"
   xlink:href="#basekey"
   x="424"
   y="72"
   class="key grey" />&#10;&#10;&#10;<rect
   id="shiftl"
   x="0"
   y="108"
   width="40"
   height="32"
   rx="4"
   class="key grey pressed" />&#10;<rect
   id="m4l"
   x="44"
   y="108"
   width="34"
   height="32"
   rx="4"
   class="key grey" />&#10;<rect
   id="shiftr"
   x="442"
   y="108"
   width="86"
   height="32"
   rx="4"
   class="key grey pressed" />&#10;&#10;<rect
   id="ctrll"
   x="0"
   y="144"
   width="50"
   height="32"
   rx="4"
   class="key grey" />&#10;<rect
   id="altl"
   x="124"
   y="144"
   width="48"
   height="32"
   rx="4"
   class="key grey" />&#10;<rect
   id="space"
   x="176"
   y="144"
   width="168"
   height="32"
   rx="4"
   class="key grey" />&#10;<rect
   id="m4r"
   x="348"
   y="144"
   width="48"
   height="32"
   rx="4"
   class="key grey" />&#10;<rect
   id="ctrlr"
   x="478"
   y="144"
   width="50"
   height="32"
   rx="4"
   class="key grey" />&#10;&#10;<use
   xlink:href="#basekey"
   y="0"
   x="542"
   class="key numpad"
   id="use48" />&#10;<use
   xlink:href="#basekey"
   y="0"
   x="578"
   class="key numpad"
   id="use49" />&#10;<use
   xlink:href="#basekey"
   y="0"
   x="614"
   class="key numpad"
   id="use50" />&#10;<use
   xlink:href="#basekey"
   y="0"
   x="650"
   class="key numpad"
   id="use51" />&#10;&#10;<use
   xlink:href="#basekey"
   y="36"
   x="542"
   class="key numpad"
   id="use52" />&#10;<use
   xlink:href="#basekey"
   y="36"
   x="578"
   class="key numpad"
   id="use53" />&#10;<use
   xlink:href="#basekey"
   y="36"
   x="614"
   class="key numpad"
   id="use54" />&#10;<rect
   id="kpplus"
   x="650"
   y="36"
   width="32"
   height="68"
   rx="4"
   class="key numpad" />&#10;&#10;<use
   xlink:href="#basekey"
   y="72"
   x="542"
   class="key numpad"
   id="use55" />&#10;<use
   xlink:href="#basekey"
   y="72"
   x="578"
   class="key numpad"
   id="use56" />&#10;<use
   xlink:href="#basekey"
   y="72"
   x="614"
   class="key numpad"
   id="use57" />&#10;&#10;<use
   xlink:href="#basekey"
   y="108"
   x="542"
   class="key numpad"
   id="use58" />&#10;<use
   xlink:href="#basekey"
   y="108"
   x="578"
   class="key numpad"
   id="use59" />&#10;<use
   xlink:href="#basekey"
   y="108"
   x="614"
   class="key numpad"
   id="use60" />&#10;<rect
   id="kppenter"
   x="650"
   y="108"
   width="32"
   height="68"
   rx="4"
   class="key numpad" />&#10;&#10;<rect
   id="kp0"
   x="542"
   y="144"
   width="68"
   height="32"
   rx="4"
   class="key numpad" />&#10;<use
   xlink:href="#basekey"
   y="144"
   x="614"
   class="key numpad"
   id="use61" />&#10;&#10;<path
   fill-rule="evenodd"
   clip-rule="evenodd"
   d="      M 10,32      l -6,0 a 4,4 0 0 1 -4,-4      l 0,-24 a 4,4 0 0 1 4,-4      l 34,0 a 4,4 0 0 1 4,4      l 0,60 a 4,4 0 0 1 -4,4      l -24,0 a 4,4 0 0 1 -4,-4      z"
   transform="translate(486,36)"
   id="return"
   class="key grey" />&#10;&#10;<rect
   y="101"
   x="181"
   width="14"
   height="1"
   rx="1"
   id="nub"
   style="fill:#111;" />&#10;<use
   y="0"
   x="108"
   xlink:href="#nub"
   id="use62" />&#10;</g>&#10;&#10;<g
   transform="translate(-0.5,-0.5)"
   id="g63">&#10;<path
   d="m 16.669922,96 v -4.589844 q 0,-0.761719 0.04395,-1.464844 -0.239258,0.874024 -0.429687,1.367188 L 14.506836,96 h -0.654297 l -1.801758,-4.6875 -0.273437,-0.830078 -0.161133,-0.53711 0.01465,0.541993 0.01953,0.922851 V 96 h -0.830078 v -6.879883 h 1.225585 l 1.831055,4.770508 q 0.09766,0.288086 0.185547,0.620117 0.09277,0.327149 0.12207,0.473633 0.03906,-0.195313 0.161133,-0.59082 0.126953,-0.400391 0.170899,-0.50293 l 1.796875,-4.770508 h 1.196289 V 96 Z m 6.801758,-2.646484 q 0,1.386718 -0.610352,2.065429 -0.610351,0.678711 -1.772461,0.678711 -1.157226,0 -1.748047,-0.703125 Q 18.75,94.686523 18.75,93.353516 q 0,-2.734375 2.368164,-2.734375 1.210938,0 1.782227,0.668945 0.571289,0.664062 0.571289,2.06543 z m -0.922852,0 q 0,-1.09375 -0.327148,-1.586914 -0.322266,-0.498047 -1.088868,-0.498047 -0.771484,0 -1.118164,0.507812 -0.341796,0.50293 -0.341796,1.577149 0,1.044921 0.336914,1.572265 0.341796,0.522461 1.069336,0.522461 0.791015,0 1.127929,-0.507812 0.341797,-0.507813 0.341797,-1.586914 z m 5.351563,1.796875 q -0.244141,0.507812 -0.649414,0.727539 -0.400391,0.219726 -0.996094,0.219726 -1.000977,0 -1.47461,-0.673828 -0.46875,-0.673828 -0.46875,-2.041016 0,-2.763671 1.94336,-2.763671 0.600586,0 1.000976,0.219726 0.400391,0.219727 0.644532,0.698242 h 0.0098 l -0.0098,-0.59082 v -2.192383 h 0.878906 v 6.157227 q 0,0.825195 0.0293,1.088867 H 27.96875 q -0.01465,-0.07813 -0.03418,-0.361328 -0.01465,-0.283203 -0.01465,-0.488281 z m -2.666016,-1.796875 q 0,1.108398 0.292969,1.586914 0.292968,0.478515 0.952148,0.478515 0.74707,0 1.083985,-0.517578 0.336914,-0.517578 0.336914,-1.606445 0,-1.049805 -0.336914,-1.538086 -0.336915,-0.488281 -1.074219,-0.488281 -0.664063,0 -0.961914,0.493164 -0.292969,0.488281 -0.292969,1.591797 z m 9.34082,0.74707 q 0,0.952148 -0.605468,1.474609 -0.605469,0.522461 -1.728516,0.522461 -1.044922,0 -1.669922,-0.46875 -0.620117,-0.473633 -0.737305,-1.396484 l 0.908203,-0.08301 q 0.175782,1.220703 1.499024,1.220703 0.664062,0 1.040039,-0.327148 0.380859,-0.327149 0.380859,-0.97168 0,-0.561523 -0.43457,-0.874023 -0.429687,-0.317383 -1.245117,-0.317383 h -0.498047 v -0.761719 h 0.478516 q 0.722656,0 1.118164,-0.3125 0.40039,-0.317383 0.40039,-0.874023 0,-0.551758 -0.327148,-0.869141 -0.322266,-0.322266 -0.961914,-0.322266 -0.581055,0 -0.942383,0.297852 -0.356445,0.297851 -0.415039,0.839844 l -0.883789,-0.06836 q 0.09766,-0.844726 0.698242,-1.318359 0.605469,-0.473633 1.552734,-0.473633 1.035157,0 1.606446,0.483399 0.576172,0.478515 0.576172,1.33789 0,0.65918 -0.371094,1.074219 -0.366211,0.410156 -1.069336,0.556641 v 0.01953 q 0.771484,0.08301 1.201172,0.517578 0.429687,0.43457 0.429687,1.09375 z"
   id="m3ltxt"
   style="font-size:10px;line-height:0%;font-family:Arial;fill:#111111"
   class="mod"
   aria-label="Mod3" />&#10;<path
   d="m 16.585937,126.34375 -1.558593,-1.55859 -1.558594,1.55859 h 0.767578 v 6.07031 h 1.582031 v -6.07031 z m -4.535156,0.58594 2.976563,-2.97656 2.976562,2.97656 H 16.404297 V 133 h -2.753906 v -6.07031 z"
   id="shiftltxt"
   style="font-size:12px;line-height:0%;font-family:Arial;fill:#111111"
   class="mod big"
   aria-label="⇧" />&#10;<path
   d="m 16.210937,166.10059 q 0,0.95214 -0.74707,1.47461 -0.742187,0.52246 -2.094726,0.52246 -2.514649,0 -2.915039,-1.74805 l 0.90332,-0.18066 q 0.15625,0.62011 0.664062,0.91308 0.507813,0.28809 1.381836,0.28809 0.903321,0 1.391602,-0.30762 0.493164,-0.3125 0.493164,-0.91309 0,-0.33691 -0.15625,-0.54687 -0.151367,-0.20996 -0.429688,-0.34668 -0.27832,-0.13672 -0.664062,-0.22949 -0.385742,-0.0928 -0.854492,-0.2002 -0.81543,-0.18066 -1.240235,-0.36133 -0.419921,-0.18066 -0.664062,-0.40039 -0.244141,-0.22461 -0.375977,-0.52246 -0.126953,-0.29785 -0.126953,-0.68359 0,-0.88379 0.673828,-1.36231 0.678711,-0.47851 1.938477,-0.47851 1.171875,0 1.791992,0.36133 0.620117,0.35644 0.869141,1.2207 l -0.917969,0.16113 q -0.151367,-0.54687 -0.576172,-0.79101 -0.424805,-0.24903 -1.176758,-0.24903 -0.825195,0 -1.259765,0.27344 -0.434571,0.27344 -0.434571,0.81543 0,0.31738 0.166016,0.52734 0.170898,0.20508 0.488281,0.35157 0.317383,0.1416 1.264649,0.35156 0.317382,0.0732 0.629882,0.15137 0.317383,0.0732 0.605469,0.18066 0.288086,0.10254 0.53711,0.24414 0.253906,0.1416 0.439453,0.34668 0.185547,0.20508 0.288086,0.4834 0.107421,0.27832 0.107421,0.6543 z m 3.164063,1.86035 q -0.43457,0.11718 -0.888672,0.11718 -1.054687,0 -1.054687,-1.19628 v -3.52539 h -0.610352 v -0.63965 h 0.644531 l 0.258789,-1.18164 h 0.585938 v 1.18164 h 0.976562 v 0.63965 h -0.976562 v 3.33496 q 0,0.38086 0.12207,0.53711 0.126953,0.15136 0.43457,0.15136 0.175782,0 0.507813,-0.0684 z M 20.141602,168 v -4.05273 q 0,-0.55665 -0.0293,-1.23047 h 0.830078 q 0.03906,0.89843 0.03906,1.0791 h 0.01953 q 0.20996,-0.67871 0.483398,-0.92774 0.273437,-0.24902 0.771484,-0.24902 0.175782,0 0.356446,0.0488 v 0.80566 q -0.175782,-0.0488 -0.46875,-0.0488 -0.546875,0 -0.834961,0.47364 -0.288086,0.46875 -0.288086,1.34765 V 168 Z m 5.3125,2.0752 q -0.864258,0 -1.376954,-0.3418 -0.512695,-0.33692 -0.659179,-0.96192 l 0.883789,-0.12695 q 0.08789,0.36621 0.385742,0.56152 0.302734,0.2002 0.791016,0.2002 1.313476,0 1.313476,-1.53809 v -0.84961 h -0.0098 q -0.249024,0.50782 -0.683594,0.76661 -0.434571,0.2539 -1.015625,0.2539 -0.97168,0 -1.430664,-0.64453 -0.454102,-0.64453 -0.454102,-2.02637 0,-1.40136 0.488281,-2.06543 0.493164,-0.66894 1.494141,-0.66894 0.561523,0 0.97168,0.25879 0.415039,0.2539 0.639648,0.72754 h 0.0098 q 0,-0.14649 0.01953,-0.50782 0.01953,-0.36132 0.03906,-0.3955 h 0.83496 q -0.0293,0.26367 -0.0293,1.09375 v 4.03808 q 0,2.22657 -2.211914,2.22657 z m 1.33789,-4.7168 q 0,-0.64453 -0.175781,-1.1084 -0.175781,-0.46875 -0.498047,-0.71289 -0.317383,-0.24902 -0.722656,-0.24902 -0.673828,0 -0.981446,0.48828 -0.307617,0.48828 -0.307617,1.58203 0,1.08398 0.288086,1.55762 0.288086,0.47363 0.986328,0.47363 0.415039,0 0.737305,-0.24414 0.322266,-0.24414 0.498047,-0.69824 0.175781,-0.45899 0.175781,-1.08887 z"
   id="ctrlltxt"
   style="font-size:10px;line-height:0%;font-family:Arial;fill:#111111"
   class="mod"
   aria-label="Strg" />&#10;&#10;<path
   d="m 62.669922,132 v -4.58984 q 0,-0.76172 0.04395,-1.46485 -0.239258,0.87403 -0.429687,1.36719 L 60.506836,132 h -0.654297 l -1.801758,-4.6875 -0.273437,-0.83008 -0.161133,-0.53711 0.01465,0.54199 0.01953,0.92286 V 132 h -0.830079 v -6.87988 h 1.225586 l 1.831055,4.7705 q 0.09766,0.28809 0.185547,0.62012 0.09277,0.32715 0.12207,0.47363 0.03906,-0.19531 0.161133,-0.59082 0.126953,-0.40039 0.170899,-0.50293 l 1.796875,-4.7705 h 1.196289 V 132 Z m 5.961914,-1.55762 V 132 h -0.830078 v -1.55762 H 64.55957 v -0.68359 l 3.149414,-4.63867 h 0.922852 v 4.6289 h 0.966797 v 0.69336 z m -0.830078,-4.33105 q -0.0098,0.0293 -0.136719,0.25879 -0.126953,0.22949 -0.19043,0.32226 l -1.762695,2.59766 -0.263672,0.36133 -0.07813,0.0977 h 2.431641 z"
   id="m4ltxt"
   style="font-size:10px;line-height:0%;font-family:Arial;fill:#111111"
   class="mod"
   aria-label="M4" />&#10;<path
   d="m 140.69824,168 -0.78613,-2.01172 h -3.13477 L 135.98633,168 h -0.9668 l 2.80762,-6.87988 h 1.05957 L 141.65039,168 Z m -2.35351,-6.17676 -0.0439,0.13672 q -0.12207,0.40527 -0.36133,1.04004 l -0.8789,2.26074 h 2.57324 L 138.75,162.99023 q -0.13672,-0.33691 -0.27344,-0.76171 z M 142.34375,168 v -7.24609 h 0.87891 V 168 Z m 4.25293,-0.0391 q -0.43457,0.11718 -0.88867,0.11718 -1.05469,0 -1.05469,-1.19628 v -3.52539 h -0.61035 v -0.63965 h 0.64453 l 0.25879,-1.18164 h 0.58594 v 1.18164 h 0.97656 v 0.63965 h -0.97656 v 3.33496 q 0,0.38086 0.12207,0.53711 0.12695,0.15136 0.43457,0.15136 0.17578,0 0.50781,-0.0684 z"
   id="altltxt"
   style="font-size:10px;line-height:0%;font-family:Arial;fill:#111111"
   class="mod"
   aria-label="Alt" />&#10;&#10;&#10;<path
   d="m 442.66992,96 v -4.589844 q 0,-0.761719 0.0439,-1.464844 -0.23926,0.874024 -0.42969,1.367188 L 440.50684,96 h -0.6543 l -1.80176,-4.6875 -0.27344,-0.830078 -0.16113,-0.53711 0.0146,0.541993 0.0195,0.922851 V 96 h -0.83008 v -6.879883 h 1.22559 l 1.83105,4.770508 q 0.0977,0.288086 0.18555,0.620117 0.0928,0.327149 0.12207,0.473633 0.0391,-0.195313 0.16113,-0.59082 0.12696,-0.400391 0.1709,-0.50293 l 1.79688,-4.770508 h 1.19629 V 96 Z m 6.78223,-1.899414 q 0,0.952148 -0.60547,1.474609 -0.60547,0.522461 -1.72852,0.522461 -1.04492,0 -1.66992,-0.46875 -0.62012,-0.473633 -0.7373,-1.396484 l 0.9082,-0.08301 q 0.17578,1.220703 1.49902,1.220703 0.66407,0 1.04004,-0.327148 0.38086,-0.327149 0.38086,-0.97168 0,-0.561523 -0.43457,-0.874023 -0.42969,-0.317383 -1.24512,-0.317383 h -0.49804 v -0.761719 h 0.47851 q 0.72266,0 1.11817,-0.3125 0.40039,-0.317383 0.40039,-0.874023 0,-0.551758 -0.32715,-0.869141 -0.32227,-0.322266 -0.96191,-0.322266 -0.58106,0 -0.94239,0.297852 -0.35644,0.297851 -0.41504,0.839844 l -0.88379,-0.06836 q 0.0977,-0.844726 0.69825,-1.318359 0.60547,-0.473633 1.55273,-0.473633 1.03516,0 1.60645,0.483399 0.57617,0.478515 0.57617,1.33789 0,0.65918 -0.3711,1.074219 -0.36621,0.410156 -1.06933,0.556641 v 0.01953 q 0.77148,0.08301 1.20117,0.517578 0.42969,0.43457 0.42969,1.09375 z"
   id="m3rtxt"
   style="font-size:10px;line-height:0%;font-family:Arial;fill:#111111"
   class="mod"
   aria-label="M3" />&#10;&#10;&#10;<path
   d="m 456.58594,126.34375 -1.5586,-1.55859 -1.55859,1.55859 h 0.76758 v 6.07031 h 1.58203 v -6.07031 z m -4.53516,0.58594 2.97656,-2.97656 2.97657,2.97656 H 456.4043 V 133 h -2.75391 v -6.07031 z"
   id="shiftrtxt"
   style="font-size:12px;line-height:0%;font-family:Arial;fill:#111111"
   class="mod big"
   aria-label="⇧" />&#10;<path
   d="m 496.21094,166.10059 q 0,0.95214 -0.74707,1.47461 -0.74219,0.52246 -2.09473,0.52246 -2.51465,0 -2.91504,-1.74805 l 0.90332,-0.18066 q 0.15625,0.62011 0.66406,0.91308 0.50782,0.28809 1.38184,0.28809 0.90332,0 1.3916,-0.30762 0.49317,-0.3125 0.49317,-0.91309 0,-0.33691 -0.15625,-0.54687 -0.15137,-0.20996 -0.42969,-0.34668 -0.27832,-0.13672 -0.66406,-0.22949 -0.38575,-0.0928 -0.8545,-0.2002 -0.81543,-0.18066 -1.24023,-0.36133 -0.41992,-0.18066 -0.66406,-0.40039 -0.24414,-0.22461 -0.37598,-0.52246 -0.12695,-0.29785 -0.12695,-0.68359 0,-0.88379 0.67383,-1.36231 0.67871,-0.47851 1.93847,-0.47851 1.17188,0 1.79199,0.36133 0.62012,0.35644 0.86914,1.2207 l -0.91796,0.16113 q -0.15137,-0.54687 -0.57618,-0.79101 -0.4248,-0.24903 -1.17675,-0.24903 -0.8252,0 -1.25977,0.27344 -0.43457,0.27344 -0.43457,0.81543 0,0.31738 0.16602,0.52734 0.17089,0.20508 0.48828,0.35157 0.31738,0.1416 1.26465,0.35156 0.31738,0.0732 0.62988,0.15137 0.31738,0.0732 0.60547,0.18066 0.28808,0.10254 0.53711,0.24414 0.2539,0.1416 0.43945,0.34668 0.18555,0.20508 0.28809,0.4834 0.10742,0.27832 0.10742,0.6543 z m 3.16406,1.86035 q -0.43457,0.11718 -0.88867,0.11718 -1.05469,0 -1.05469,-1.19628 v -3.52539 h -0.61035 v -0.63965 h 0.64453 l 0.25879,-1.18164 h 0.58594 v 1.18164 h 0.97656 v 0.63965 h -0.97656 v 3.33496 q 0,0.38086 0.12207,0.53711 0.12695,0.15136 0.43457,0.15136 0.17578,0 0.50781,-0.0684 z M 500.1416,168 v -4.05273 q 0,-0.55665 -0.0293,-1.23047 h 0.83008 q 0.0391,0.89843 0.0391,1.0791 h 0.0195 q 0.20996,-0.67871 0.48339,-0.92774 0.27344,-0.24902 0.77149,-0.24902 0.17578,0 0.35644,0.0488 v 0.80566 q -0.17578,-0.0488 -0.46875,-0.0488 -0.54687,0 -0.83496,0.47364 -0.28808,0.46875 -0.28808,1.34765 V 168 Z m 5.3125,2.0752 q -0.86426,0 -1.37695,-0.3418 -0.5127,-0.33692 -0.65918,-0.96192 l 0.88379,-0.12695 q 0.0879,0.36621 0.38574,0.56152 0.30273,0.2002 0.79102,0.2002 1.31347,0 1.31347,-1.53809 v -0.84961 h -0.01 q -0.24903,0.50782 -0.6836,0.76661 -0.43457,0.2539 -1.01562,0.2539 -0.97168,0 -1.43067,-0.64453 -0.4541,-0.64453 -0.4541,-2.02637 0,-1.40136 0.48828,-2.06543 0.49317,-0.66894 1.49414,-0.66894 0.56153,0 0.97168,0.25879 0.41504,0.2539 0.63965,0.72754 h 0.01 q 0,-0.14649 0.0195,-0.50782 0.0195,-0.36132 0.0391,-0.3955 h 0.83496 q -0.0293,0.26367 -0.0293,1.09375 v 4.03808 q 0,2.22657 -2.21192,2.22657 z m 1.33789,-4.7168 q 0,-0.64453 -0.17578,-1.1084 -0.17578,-0.46875 -0.49805,-0.71289 -0.31738,-0.24902 -0.72265,-0.24902 -0.67383,0 -0.98145,0.48828 -0.30761,0.48828 -0.30761,1.58203 0,1.08398 0.28808,1.55762 0.28809,0.47363 0.98633,0.47363 0.41504,0 0.7373,-0.24414 0.32227,-0.24414 0.49805,-0.69824 0.17578,-0.45899 0.17578,-1.08887 z"
   id="ctrlrtxt"
   style="font-size:10px;line-height:0%;font-family:Arial;fill:#111111"
   class="mod"
   aria-label="Strg" />&#10;<path
   d="m 363.66992,168 v -4.58984 q 0,-0.76172 0.0439,-1.46485 -0.23926,0.87403 -0.42969,1.36719 L 361.50684,168 h -0.6543 l -1.80176,-4.6875 -0.27344,-0.83008 -0.16113,-0.53711 0.0146,0.54199 0.0195,0.92286 V 168 h -0.83008 v -6.87988 h 1.22559 l 1.83105,4.7705 q 0.0977,0.28809 0.18555,0.62012 0.0928,0.32715 0.12207,0.47363 0.0391,-0.19531 0.16113,-0.59082 0.12696,-0.40039 0.1709,-0.50293 l 1.79688,-4.7705 h 1.19629 V 168 Z m 6.80176,-2.64648 q 0,1.38671 -0.61035,2.06543 -0.61035,0.67871 -1.77246,0.67871 -1.15723,0 -1.74805,-0.70313 -0.59082,-0.70801 -0.59082,-2.04101 0,-2.73438 2.36816,-2.73438 1.21094,0 1.78223,0.66895 0.57129,0.66406 0.57129,2.06543 z m -0.92285,0 q 0,-1.09375 -0.32715,-1.58692 -0.32227,-0.49805 -1.08887,-0.49805 -0.77148,0 -1.11816,0.50782 -0.3418,0.50293 -0.3418,1.57715 0,1.04492 0.33692,1.57226 0.34179,0.52246 1.06933,0.52246 0.79102,0 1.12793,-0.50781 0.3418,-0.50781 0.3418,-1.58691 z m 5.35156,1.79687 q -0.24414,0.50781 -0.64941,0.72754 -0.40039,0.21973 -0.9961,0.21973 -1.00097,0 -1.47461,-0.67383 -0.46875,-0.67383 -0.46875,-2.04102 0,-2.76367 1.94336,-2.76367 0.60059,0 1.00098,0.21973 0.40039,0.21972 0.64453,0.69824 h 0.01 l -0.01,-0.59082 v -2.19238 h 0.87891 v 6.15722 q 0,0.8252 0.0293,1.08887 h -0.83984 q -0.0147,-0.0781 -0.0342,-0.36133 -0.0147,-0.2832 -0.0147,-0.48828 z m -2.66602,-1.79687 q 0,1.10839 0.29297,1.58691 0.29297,0.47852 0.95215,0.47852 0.74707,0 1.08399,-0.51758 0.33691,-0.51758 0.33691,-1.60645 0,-1.0498 -0.33691,-1.53808 -0.33692,-0.48829 -1.07422,-0.48829 -0.66406,0 -0.96192,0.49317 -0.29297,0.48828 -0.29297,1.5918 z m 8.52051,1.08886 V 168 h -0.83008 v -1.55762 h -3.24218 v -0.68359 l 3.14941,-4.63867 h 0.92285 v 4.6289 h 0.9668 v 0.69336 z m -0.83008,-4.33105 q -0.01,0.0293 -0.13671,0.25879 -0.12696,0.22949 -0.19043,0.32226 l -1.7627,2.59766 -0.26367,0.36133 -0.0781,0.0977 h 2.43164 z"
   id="m4rtxt"
   style="font-size:10px;line-height:0%;font-family:Arial;fill:#111111"
   class="mod"
   aria-label="Mod4" />&#10;<path
   d="m 236.5791,168 v -6.87988 h 0.93262 v 6.11816 h 3.47656 V 168 Z m 6.08887,-2.45605 q 0,0.9082 0.37598,1.40136 0.37597,0.49317 1.09863,0.49317 0.57129,0 0.91308,-0.2295 0.34668,-0.22949 0.46875,-0.58105 l 0.77149,0.21973 q -0.47363,1.25 -2.15332,1.25 -1.17188,0 -1.78711,-0.69825 -0.61035,-0.69824 -0.61035,-2.07519 0,-1.3086 0.61035,-2.00684 0.61523,-0.69824 1.75293,-0.69824 2.3291,0 2.3291,2.80762 v 0.11719 z m 2.86133,-0.67383 q -0.0733,-0.83496 -0.42481,-1.21582 -0.35156,-0.38575 -1.01074,-0.38575 -0.63965,0 -1.01563,0.42969 -0.37109,0.42481 -0.40039,1.17188 z m 2.70019,0.67383 q 0,0.9082 0.37598,1.40136 0.37598,0.49317 1.09863,0.49317 0.57129,0 0.91309,-0.2295 0.34668,-0.22949 0.46875,-0.58105 l 0.77148,0.21973 q -0.47363,1.25 -2.15332,1.25 -1.17187,0 -1.78711,-0.69825 -0.61035,-0.69824 -0.61035,-2.07519 0,-1.3086 0.61035,-2.00684 0.61524,-0.69824 1.75293,-0.69824 2.3291,0 2.3291,2.80762 v 0.11719 z m 2.86133,-0.67383 q -0.0732,-0.83496 -0.4248,-1.21582 -0.35157,-0.38575 -1.01075,-0.38575 -0.63965,0 -1.01562,0.42969 -0.3711,0.42481 -0.40039,1.17188 z M 253.13672,168 v -4.05273 q 0,-0.55665 -0.0293,-1.23047 h 0.83008 q 0.0391,0.89843 0.0391,1.0791 h 0.0195 q 0.20996,-0.67871 0.4834,-0.92774 0.27344,-0.24902 0.77149,-0.24902 0.17578,0 0.35644,0.0488 v 0.80566 q -0.17578,-0.0488 -0.46875,-0.0488 -0.54687,0 -0.83496,0.47364 -0.28809,0.46875 -0.28809,1.34765 V 168 Z m 3.04199,0 v -0.66895 l 2.9541,-3.93554 h -2.78808 v -0.67871 h 3.82812 v 0.66894 l -2.95898,3.93555 h 3.06152 V 168 Z m 5.94238,-2.45605 q 0,0.9082 0.37598,1.40136 0.37598,0.49317 1.09863,0.49317 0.57129,0 0.91309,-0.2295 0.34668,-0.22949 0.46875,-0.58105 l 0.77148,0.21973 q -0.47363,1.25 -2.15332,1.25 -1.17187,0 -1.78711,-0.69825 -0.61035,-0.69824 -0.61035,-2.07519 0,-1.3086 0.61035,-2.00684 0.61524,-0.69824 1.75293,-0.69824 2.3291,0 2.3291,2.80762 v 0.11719 z m 2.86133,-0.67383 q -0.0732,-0.83496 -0.4248,-1.21582 -0.35157,-0.38575 -1.01075,-0.38575 -0.63964,0 -1.01562,0.42969 -0.37109,0.42481 -0.40039,1.17188 z m 2.02149,-3.27637 v -0.83984 h 0.8789 v 0.83984 z m 0,6.40625 v -5.2832 h 0.8789 V 168 Z m 2.8955,-2.66602 q 0,1.05469 0.33204,1.5625 0.33203,0.50782 1.00097,0.50782 0.46875,0 0.78125,-0.25391 0.31738,-0.25391 0.39063,-0.78125 l 0.88867,0.0586 q -0.10254,0.76172 -0.64942,1.21582 -0.54687,0.45411 -1.38671,0.45411 -1.1084,0 -1.69434,-0.69825 -0.58105,-0.70312 -0.58105,-2.04589 0,-1.33301 0.58593,-2.03125 0.58594,-0.70313 1.67969,-0.70313 0.81055,0 1.34277,0.41992 0.53711,0.41992 0.67383,1.15723 l -0.90332,0.0684 q -0.0684,-0.43945 -0.34668,-0.69824 -0.27832,-0.25879 -0.79101,-0.25879 -0.69825,0 -1.01075,0.46386 -0.3125,0.46387 -0.3125,1.5625 z m 5.20508,-1.71386 q 0.28321,-0.51758 0.67871,-0.75684 0.40039,-0.24414 1.01075,-0.24414 0.85937,0 1.26464,0.42969 0.41016,0.4248 0.41016,1.43066 V 168 h -0.88379 v -3.34961 q 0,-0.55664 -0.10254,-0.82519 -0.10254,-0.27344 -0.33691,-0.4004 -0.23438,-0.12695 -0.64942,-0.12695 -0.62011,0 -0.99609,0.42969 -0.37109,0.42969 -0.37109,1.15723 V 168 H 274.25 v -7.24609 h 0.87891 v 1.88476 q 0,0.29785 -0.0195,0.61524 -0.0146,0.31738 -0.0195,0.36621 z m 5.36133,1.92383 q 0,0.9082 0.37598,1.40136 0.37597,0.49317 1.09863,0.49317 0.57129,0 0.91309,-0.2295 0.34668,-0.22949 0.46875,-0.58105 l 0.77148,0.21973 q -0.47363,1.25 -2.15332,1.25 -1.17188,0 -1.78711,-0.69825 -0.61035,-0.69824 -0.61035,-2.07519 0,-1.3086 0.61035,-2.00684 0.61523,-0.69824 1.75293,-0.69824 2.3291,0 2.3291,2.80762 v 0.11719 z m 2.86133,-0.67383 q -0.0732,-0.83496 -0.42481,-1.21582 -0.35156,-0.38575 -1.01074,-0.38575 -0.63965,0 -1.01562,0.42969 -0.3711,0.42481 -0.40039,1.17188 z M 288.70801,168 v -3.34961 q 0,-0.52246 -0.10254,-0.81055 -0.10254,-0.28808 -0.32715,-0.41504 -0.22461,-0.12695 -0.65918,-0.12695 -0.63477,0 -1.00098,0.43457 -0.36621,0.43457 -0.36621,1.20606 V 168 h -0.8789 v -4.15527 q 0,-0.92286 -0.0293,-1.12793 h 0.83008 q 0.005,0.0244 0.01,0.13183 0.005,0.10742 0.01,0.24903 0.01,0.13671 0.0195,0.52246 h 0.0146 q 0.30273,-0.54688 0.69824,-0.77149 0.40039,-0.22949 0.99121,-0.22949 0.86914,0 1.26953,0.43457 0.40528,0.42969 0.40528,1.42578 V 168 Z"
   id="text62"
   style="font-size:10px;line-height:0%;font-family:Arial;text-align:center;text-anchor:middle;fill:#111111"
   class="mod space"
   aria-label="Leerzeichen" />&#10;&#10;<path
   d="m 498.29883,61.214844 -2.97656,-2.976563 2.97656,-2.976562 v 1.599609 h 3.32226 v -3.609375 h 2.75391 l -0.006,6.363281 h -6.07031 z m -0.58594,-3.767578 v -0.767579 l -1.55859,1.558594 1.55859,1.558594 v -0.767578 h 6.07031 l 0.006,-5.191406 h -1.58203 l -0.006,3.609375 z"
   id="returntxt"
   style="font-size:12px;line-height:0%;font-family:Arial;fill:#111111"
   class="mod big"
   aria-label="⏎" />&#10;<path
   d="m 493.37891,23 h -9.5752 l -3.79883,-3.798828 3.79883,-3.798828 h 9.5752 z m -0.72266,-6.875 h -0.68848 l -3.07617,3.076172 3.07617,3.076172 h 0.68848 z m -6.8457,0 2.56347,2.563477 2.56348,-2.563477 z m 5.12695,6.152344 -2.56348,-2.563477 -2.56347,2.563477 z M 484.79492,16.125 h -0.69336 l -3.07617,3.085937 3.07617,3.066407 h 0.69336 l 3.07617,-3.076172 z"
   id="backspacetxt"
   style="font-size:10px;line-height:0%;font-family:Arial;fill:#111111"
   class="mod"
   aria-label="⌫" />&#10;</g>&#10;&#10;<g
   transform="translate(55,26)"
   id="g73">&#10;	<path
   d="m 2.5180664,-10.063477 q 0,1.0458989 -0.7470703,1.7753911 -0.7382813,0.7294922 -1.77539063,0.7294922 -1.03710937,0 -1.78417967,-0.7382813 -0.7382813,-0.7382813 -0.7382813,-1.766602 0,-1.02832 0.7294922,-1.766601 0.7382813,-0.738281 1.79296877,-0.738281 1.05468753,0 1.78417973,0.729492 0.7382812,0.729492 0.7382812,1.77539 z m -0.9580078,0 q 0,-0.667968 -0.4570313,-1.125 -0.44824214,-0.457031 -1.10742183,-0.457031 -0.65917969,0 -1.11621097,0.46582 -0.4482422,0.465821 -0.4482422,1.116211 0,0.6503911 0.4570313,1.1162114 0.46582031,0.4658203 1.10742187,0.4658203 0.65039062,0 1.10742183,-0.4570313 0.4570313,-0.4658203 0.4570313,-1.1250004 z"
   id="text63"
   style="font-size:18px;line-height:0%;font-family:Arial;text-align:center;text-anchor:middle;fill:#111111;stroke-width:0.75"
   class="key"
   aria-label="°" />&#10;	<path
   d="m 36.162598,-13.042969 q 1.520507,0 2.452148,0.588867 0.94043,0.580079 1.177734,1.696289 l -1.415039,0.175782 q -0.237304,-1.31836 -2.214843,-1.31836 -1.098633,0 -1.669922,0.351563 -0.5625,0.342773 -0.5625,0.966797 0,0.421875 0.263672,0.7294919 0.263672,0.3076172 0.74707,0.5361328 0.492187,0.2285157 1.634766,0.5009766 1.291992,0.3076172 1.977539,0.6767578 0.685547,0.3603516 1.063476,0.8789063 0.37793,0.5185547 0.37793,1.2304687 0,0.8701172 -0.527344,1.5292969 -0.518555,0.6591797 -1.397461,0.8701172 0.984375,0.421875 1.423828,0.993164 0.448243,0.5625 0.448243,1.3623047 0,1.30078129 -1.019532,2.03906254 -1.010742,0.74707026 -2.856445,0.74707026 -1.836914,0 -2.803711,-0.58886714 -0.958008,-0.58007812 -1.256836,-1.80175781 L 33.42041,-1.1513672 Q 33.596191,-0.36035156 34.193848,0 q 0.597656,0.36035156 1.87207,0.36035156 1.195312,0 1.828125,-0.38671875 0.641602,-0.38671875 0.641602,-1.10742191 0,-0.5009765 -0.29004,-0.8349609 -0.290039,-0.3427734 -0.83496,-0.5976563 -0.536133,-0.2548828 -1.863282,-0.5800781 -1.705078,-0.3955078 -2.460937,-1.0810547 -0.747071,-0.6855468 -0.747071,-1.6699218 0,-0.7822266 0.536133,-1.4326172 0.544922,-0.6503906 1.467774,-0.9140625 -0.84375,-0.28125 -1.335938,-0.8701172 -0.483398,-0.5888672 -0.483398,-1.3447262 0,-1.22168 0.922851,-1.898438 0.931641,-0.685547 2.715821,-0.685547 z m 2.443359,7.2158206 q 0,-0.6328125 -0.615234,-1.0898438 -0.606446,-0.4570312 -2.153321,-0.8173828 -0.958007,0.052734 -1.529297,0.5185547 -0.5625,0.4658203 -0.5625,1.2041016 0,0.430664 0.254883,0.7558593 0.263672,0.3164063 0.747071,0.553711 0.492187,0.2373047 1.625976,0.5273437 1.045899,-0.017578 1.634766,-0.4570312 0.597656,-0.4482422 0.597656,-1.1953125 z"
   id="text64"
   style="font-size:18px;line-height:0%;font-family:Arial;text-align:center;text-anchor:middle;fill:#111111;stroke-width:0.75"
   class="key"
   aria-label="§" />&#10;	<path
   d="m 72.896484,-0.68554687 q 0.905274,0 1.195313,-1.87207033 h 0.606445 q -0.175781,1.3535156 -0.703125,2.04785158 -0.527344,0.68554687 -1.485351,0.68554687 -0.975586,0 -1.538086,-0.69433594 -0.553711,-0.70312501 -0.553711,-2.06542971 v -1.5380859 q -0.448242,0.2373047 -1.160157,0.5097656 v -0.6416015 q 0.694336,-0.272461 1.160157,-0.5185547 v -5.1591797 q 0,-1.2832034 0.571289,-1.9511724 0.580078,-0.676757 1.661133,-0.676757 0.887695,0 1.371093,0.685547 0.483399,0.685546 0.483399,1.9511714 0,1.6699219 -0.711914,3.0673829 -0.703125,1.3974609 -1.916016,2.0917968 v 2.1445313 q 0,0.8964844 0.28125,1.415039 0.28125,0.51855473 0.738281,0.51855473 z m 0.808594,-9.17578123 q 0,-0.9316409 -0.246094,-1.4765629 -0.246093,-0.553711 -0.694336,-0.553711 -0.448242,0 -0.667968,0.465821 -0.219727,0.457031 -0.219727,1.5029294 v 4.4560547 q 0.834961,-0.5625 1.327149,-1.7490234 0.500976,-1.1953125 0.500976,-2.6455078 z"
   id="text65"
   style="font-size:18px;line-height:0%;font-family:Arial;text-align:center;text-anchor:middle;fill:#111111;stroke-width:0.75"
   class="key"
   aria-label="ℓ" />&#10;	<path
   d="m 109.30518,-1.2392578 h -1.47657 v -0.2548828 l 2.97071,-3.225586 -2.95313,-3.2695312 v -0.272461 h 1.45899 l 2.9707,3.2607422 v 0.553711 z m -4.08692,0 h -1.49414 v -0.2548828 l 2.9707,-3.225586 -2.95312,-3.2695312 v -0.272461 h 1.47656 l 2.94434,3.2607422 v 0.553711 z"
   id="text66"
   style="font-size:18px;line-height:0%;font-family:Arial;text-align:center;text-anchor:middle;fill:#111111;stroke-width:0.75"
   class="key"
   aria-label="»" />&#10;	<path
   d="m 146.78174,-1.2392578 -2.9707,-3.2080078 v -0.553711 l 2.9707,-3.2607422 h 1.47656 v 0.272461 l -2.9707,3.2695312 2.98828,3.225586 v 0.2548828 z m -4.10449,0 -2.95313,-3.2080078 v -0.553711 l 2.95313,-3.2607422 h 1.46777 v 0.272461 l -2.94434,3.2695312 2.96192,3.225586 v 0.2548828 z"
   id="text67"
   style="font-size:18px;line-height:0%;font-family:Arial;text-align:center;text-anchor:middle;fill:#111111;stroke-width:0.75"
   class="key"
   aria-label="«" />&#10;&#10;	<path
   d="m 179.54736,-0.17578125 q -3.74414,-0.15820313 -4.35937,-3.15527345 l 1.49414,-0.3251953 q 0.21973,1.0458984 0.91406,1.5732422 0.70313,0.5273437 1.95117,0.6064453 v -4.359375 q -1.55566,-0.3867187 -2.15332,-0.6943359 -0.58886,-0.3076172 -0.958,-0.703125 -0.36036,-0.4042969 -0.52735,-0.8613282 -0.1582,-0.4570312 -0.1582,-1.0986328 0,-1.3623046 0.98437,-2.1269536 0.99317,-0.773437 2.8125,-0.852539 v -1.151367 h 1.08985 v 1.151367 q 1.64355,0.0791 2.54004,0.747071 0.89648,0.659179 1.26562,2.0654294 l -1.5293,0.2900391 q -0.17578,-0.8261719 -0.71191,-1.2832035 -0.53613,-0.46582 -1.56445,-0.5625 v 3.9111332 q 1.57324,0.3691406 2.23242,0.6767578 0.66797,0.3076172 1.05469,0.6943359 0.38672,0.3867188 0.58886,0.9140625 0.20215,0.5273438 0.20215,1.2392578 0,1.4501954 -1.06347,2.3291016 -1.06348,0.87890626 -3.01465,0.97558595 V 1.2480469 h -1.08985 z m 3.65625,-3.28710935 q 0,-0.5712891 -0.22851,-0.9404297 -0.22852,-0.3691406 -0.65918,-0.6064453 -0.43067,-0.2460938 -1.67871,-0.5712891 v 4.1132813 q 1.23925,-0.079102 1.89843,-0.5888672 0.66797,-0.5097657 0.66797,-1.40625 z m -5.9414,-5.7480469 q 0,0.5185547 0.21972,0.8789062 0.21973,0.3603516 0.65039,0.6064454 0.43946,0.2460937 1.41504,0.4921875 v -3.7001956 q -2.28515,0.123047 -2.28515,1.7226565 z"
   id="text68"
   style="font-size:18px;line-height:0%;font-family:Arial;text-align:center;text-anchor:middle;fill:#111111;stroke-width:0.75"
   class="key"
   aria-label="$" />&#10;	<path
   d="m 217.06787,-1.1074219 q 0.87891,0 1.40625,-0.4394531 0.52734,-0.4394531 0.65039,-1.2392578 l 1.62598,0.1230469 q -0.26367,1.3623047 -1.23047,2.1005859 -0.95801,0.73828125 -2.48731,0.73828125 -1.90722,0 -3.02343,-1.15136719 -1.10742,-1.15136716 -1.3711,-3.43652346 h -1.50293 l 0.35157,-1.133789 h 1.05468 l -0.0264,-0.6855469 0.0264,-0.7558594 h -1.40625 l 0.35157,-1.1162109 h 1.13379 q 0.28125,-2.2587894 1.37109,-3.3574224 1.08984,-1.107421 3.01465,-1.107421 1.53808,0 2.49609,0.74707 0.9668,0.738281 1.22168,2.0917968 l -1.62598,0.1230469 q -0.12304,-0.7998047 -0.65918,-1.2392577 -0.52734,-0.439453 -1.45898,-0.439453 -1.24805,0 -1.91602,0.764648 -0.65917,0.7646486 -0.84375,2.4169924 h 3.91993 l -0.35157,1.1162109 h -3.62988 q -0.0264,0.2109375 -0.0264,0.7558594 0,0.3515625 0.0352,0.6855469 h 3.97266 l -0.35157,1.133789 h -3.55078 q 0.19336,1.7138672 0.90528,2.5136719 0.71191,0.7910156 1.9248,0.7910156 z"
   id="text69"
   style="font-size:18px;line-height:0%;font-family:Arial;text-align:center;text-anchor:middle;fill:#111111;stroke-width:0.75"
   class="key"
   aria-label="€" />&#10;	<path
   d="m 254.33789,-0.44824219 q 0,0.83496094 -0.1582,1.47656249 -0.14942,0.6503906 -0.53614,1.2744141 h -1.06347 Q 253.40625,1.1074219 253.40625,0 h -0.77344 v -1.7138672 h 1.70508 z m -2.90918,0 q 0,0.93164063 -0.16699,1.55566409 -0.16699,0.6240234 -0.51856,1.1953125 h -1.08105 Q 250.48828,1.1074219 250.48828,0 h -0.77344 v -1.7138672 h 1.71387 z"
   id="text70"
   style="font-size:18px;line-height:0%;font-family:Arial;text-align:center;text-anchor:middle;fill:#111111;stroke-width:0.75"
   class="key"
   aria-label="„" />&#10;	<path
   d="m 288.58008,-8.3671875 v -1.2832031 q 0,-0.8349614 0.1582,-1.4853514 0.1582,-0.65918 0.52734,-1.248047 h 1.07227 q -0.82617,1.195312 -0.82617,2.302734 h 0.77344 v 1.7138675 z m -2.91797,0 v -1.2832031 q 0,-0.8525394 0.1582,-1.4941404 0.16699,-0.650391 0.54492,-1.239258 h 1.06348 q -0.83496,1.204101 -0.83496,2.302734 h 0.78223 v 1.7138675 z"
   id="text71"
   style="font-size:18px;line-height:0%;font-family:Arial;text-align:center;text-anchor:middle;fill:#111111;stroke-width:0.75"
   class="key"
   aria-label="“" />&#10;	<path
   d="m 326.33789,-11.109375 q 0,0.817383 -0.14941,1.4589844 -0.14942,0.6416015 -0.54493,1.2832031 h -1.06347 q 0.82617,-1.1953125 0.82617,-2.3027345 h -0.77344 v -1.713867 h 1.70508 z m -2.90918,0 q 0,0.922852 -0.16699,1.5556641 -0.16699,0.6240234 -0.51856,1.1865234 h -1.08105 q 0.82617,-1.1953125 0.82617,-2.3027345 h -0.77344 v -1.713867 h 1.71387 z"
   id="text72"
   style="font-size:18px;line-height:0%;font-family:Arial;text-align:center;text-anchor:middle;fill:#111111;stroke-width:0.75"
   class="key"
   aria-label="”" />&#10;	<path
   d="m 351,-3.9638672 v -1.2041015 h 18 v 1.2041015 z"
   id="text73"
   style="font-size:18px;line-height:0%;font-family:Arial;text-align:center;text-anchor:middle;fill:#111111;stroke-width:0.75"
   class="key"
   aria-label="—" />&#10;</g>&#10;&#10;&#10;<path
   d="m 10.685547,55.740234 h 6.105469 l -1.371094,-1.371093 0.703125,-0.703125 2.308594,2.308593 v -2.25 h 0.996093 v 5.039063 h -0.996093 v -2.261719 l -2.308594,2.308594 -0.703125,-0.703125 1.371094,-1.371094 h -6.105469 z"
   id="text74"
   style="font-size:12px;line-height:0%;font-family:Arial;fill:#111111"
   class="mod big"
   aria-label="⇥" />&#10;&#10;<g
   transform="translate(73,62)"
   id="g86">&#10;	<path
   d="M 4.9350586,0 H -4.9262695 V -1.2568359 L 2.6147461,-11.012695 H -4.284668 v -1.371094 h 8.8066407 v 1.22168 l -7.5410157,9.7910153 h 7.9541016 z"
   id="text75"
   style="font-size:18px;line-height:0%;font-family:Arial;text-align:center;text-anchor:middle;fill:#111111;stroke-width:0.75"
   class="key"
   aria-label="Z" />&#10;	<path
   d="M 36.826172,-5.1328125 V 0 H 35.15625 v -5.1328125 l -4.763672,-7.2509765 h 1.845703 l 3.770508,5.8974609 3.75293,-5.8974609 h 1.845703 z"
   id="text76"
   style="font-size:18px;line-height:0%;font-family:Arial;text-align:center;text-anchor:middle;fill:#111111;stroke-width:0.75"
   class="key"
   aria-label="Y" />&#10;	<path
   d="m 71.925293,0.17578125 q -1.520508,0 -2.654297,-0.55371094 Q 68.137207,-0.93164063 67.513184,-1.9863281 66.88916,-3.0410156 66.88916,-4.5 v -7.883789 h 1.678711 v 7.743164 q 0,1.6962891 0.861328,2.5751953 0.861328,0.8789063 2.487305,0.8789063 1.669922,0 2.592773,-0.9052735 0.931641,-0.9140625 0.931641,-2.6630859 v -7.6289062 h 1.669922 v 7.7255859 q 0,1.5029297 -0.641602,2.5927734 -0.632812,1.08984376 -1.801758,1.66992189 -1.160156,0.57128906 -2.742187,0.57128906 z"
   id="text77"
   style="font-size:18px;line-height:0%;font-family:Arial;text-align:center;text-anchor:middle;fill:#111111;stroke-width:0.75"
   class="key"
   aria-label="U" />&#10;	<path
   d="m 112.25391,0 -1.41504,-3.6210938 h -5.64258 L 103.77246,0 h -1.74023 l 5.05371,-12.383789 h 1.90722 L 113.96777,0 Z m -4.23633,-11.118164 -0.0791,0.246094 Q 107.71875,-10.142578 107.28809,-9 l -1.58204,4.0693359 h 4.63184 l -1.59082,-4.086914 q -0.24609,-0.6064453 -0.49219,-1.3710939 z"
   id="text78"
   style="font-size:18px;line-height:0%;font-family:Arial;text-align:center;text-anchor:middle;fill:#111111;stroke-width:0.75"
   class="key"
   aria-label="A" />&#10;	<path
   d="m 150.13916,-6.2490234 q 0,2.6191406 -1.31836,4.3066406 -1.31836,1.68749999 -3.66504,1.99511717 0.36035,1.10742183 0.94043,1.59960933 0.58887,0.4921876 1.48535,0.4921876 0.4834,0 1.01075,-0.1142579 v 1.1777344 q -0.81739,0.1933594 -1.56446,0.1933594 -1.32715,0 -2.18847,-0.7558594 -0.85254,-0.7470703 -1.39747,-2.5048828 -1.74023,-0.08789063 -3.00585,-0.87890625 -1.25684,-0.79980465 -1.92481,-2.21484375 -0.65918,-1.4238281 -0.65918,-3.2958984 0,-2.9707032 1.62598,-4.6406246 1.62597,-1.678711 4.52636,-1.678711 1.88965,0 3.27832,0.755859 1.38868,0.74707 2.11817,2.1796875 0.73828,1.4326172 0.73828,3.3837891 z m -1.71387,0 q 0,-2.3115235 -1.16015,-3.6298829 -1.15137,-1.3183597 -3.26075,-1.3183597 -2.12695,0 -3.2871,1.3007816 -1.16016,1.3007813 -1.16016,3.647461 0,2.3291015 1.16894,3.7001953 1.17774,1.3623047 3.26075,1.3623047 2.14453,0 3.28711,-1.3183594 1.15136,-1.3271485 1.15136,-3.7441406 z"
   id="text79"
   style="font-size:18px;line-height:0%;font-family:Arial;text-align:center;text-anchor:middle;fill:#111111;stroke-width:0.75"
   class="key"
   aria-label="Q" />&#10;&#10;	<path
   d="m 185.05371,-8.6572266 q 0,1.7578125 -1.15137,2.7949219 -1.14257,1.0371094 -3.11132,1.0371094 h -3.63868 V 0 h -1.67871 v -12.383789 h 5.21192 q 2.083,0 3.22558,0.975586 1.14258,0.975586 1.14258,2.7509764 z m -1.6875,0.017578 q 0,-2.3994146 -2.88281,-2.3994146 h -3.33106 v 4.8867193 h 3.40137 q 2.8125,0 2.8125,-2.4873047 z"
   id="text80"
   style="font-size:18px;line-height:0%;font-family:Arial;text-align:center;text-anchor:middle;fill:#111111;stroke-width:0.75"
   class="key"
   aria-label="P" />&#10;	<path
   d="m 221.05371,-3.4892578 q 0,1.6523437 -1.2041,2.5751953 Q 218.64551,0 216.50098,0 h -5.02735 v -12.383789 h 4.5 q 4.35938,0 4.35938,3.0058593 0,1.0986328 -0.61524,1.8457031 -0.61523,0.7470704 -1.74023,1.0019532 1.47656,0.1757812 2.27637,0.993164 0.7998,0.8085938 0.7998,2.0478516 z m -2.4082,-5.6865235 q 0,-1.0019527 -0.68555,-1.4326167 -0.68555,-0.430665 -1.98633,-0.430665 h -2.82129 v 3.9199224 h 2.82129 q 1.34473,0 2.00391,-0.5009766 0.66797,-0.5097656 0.66797,-1.5556641 z m 0.71191,5.5546875 q 0,-2.1884765 -3.07617,-2.1884765 h -3.12891 v 4.4648437 h 3.26075 q 1.53808,0 2.24121,-0.571289 0.70312,-0.5712891 0.70312,-1.7050782 z"
   id="text81"
   style="font-size:18px;line-height:0%;font-family:Arial;text-align:center;text-anchor:middle;fill:#111111;stroke-width:0.75"
   class="key"
   aria-label="B" />&#10;	<path
   d="m 256.50879,0 v -8.2617188 q 0,-1.3710937 0.0791,-2.6367192 -0.43066,1.5732427 -0.77344,2.460938 L 252.61523,0 h -1.17773 l -3.24316,-8.4375 -0.49219,-1.4941406 -0.29004,-0.9667974 0.0264,0.9755864 0.0352,1.6611328 V 0 h -1.49414 v -12.383789 h 2.20606 l 3.2959,8.586914 q 0.17578,0.5185547 0.33398,1.1162109 0.16699,0.5888672 0.21973,0.8525391 0.0703,-0.3515625 0.29004,-1.0634766 0.22851,-0.7207031 0.30761,-0.9052734 l 3.23438,-8.586914 h 2.15332 V 0 Z"
   id="text82"
   style="font-size:18px;line-height:0%;font-family:Arial;text-align:center;text-anchor:middle;fill:#111111;stroke-width:0.75"
   class="key"
   aria-label="M" />&#10;	<path
   d="m 284.47119,0 v -12.383789 h 1.67871 v 11.0126953 h 6.25781 V 0 Z"
   id="text83"
   style="font-size:18px;line-height:0%;font-family:Arial;text-align:center;text-anchor:middle;fill:#111111;stroke-width:0.75"
   class="key"
   aria-label="L" />&#10;	<path
   d="m 321.65771,-11.012695 v 4.6054684 h 6.90821 v 1.3886719 h -6.90821 V 0 H 319.979 v -12.383789 h 8.79786 v 1.371094 z"
   id="text84"
   style="font-size:18px;line-height:0%;font-family:Arial;text-align:center;text-anchor:middle;fill:#111111;stroke-width:0.75"
   class="key"
   aria-label="F" />&#10;	<path
   d="m 359.5166,0.17578125 q -3.14648,0 -3.73535,-3.25195315 l 1.64355,-0.2724609 q 0.15821,1.0195312 0.71192,1.5908203 0.55371,0.5712891 1.38867,0.5712891 0.91406,0 1.44141,-0.6240235 0.52734,-0.6328125 0.52734,-1.8457031 v -7.356445 h -2.38184 v -1.371094 h 4.05176 v 8.6923827 q 0,1.8017579 -0.97558,2.83886724 -0.97559,1.02832031 -2.67188,1.02832031 z"
   id="text85"
   style="font-size:18px;line-height:0%;font-family:Arial;text-align:center;text-anchor:middle;fill:#111111;stroke-width:0.75"
   class="key"
   aria-label="J" />&#10;&#10;  <path
   d="m 401.51514,-3.515625 q 0,1.125 -0.52735,1.9599609 -0.51855,0.83496098 -1.49414,1.28320316 -0.96679,0.44824219 -2.21484,0.44824219 -1.38867,0 -2.53125,-0.28125 l 0.2373,-1.38867185 q 0.94043,0.3427734 2.18848,0.3427734 1.35352,0 2.00391,-0.6240234 0.65039,-0.6240235 0.65039,-1.7402344 0,-1.2304687 -0.73828,-1.7666016 -0.73829,-0.5449218 -2.58399,-0.5449218 h -0.60644 v -1.2304688 l 2.71582,-3.0849608 q -0.43946,-0.483399 -1.19532,-0.764649 -0.75586,-0.290039 -1.51172,-0.290039 -0.87011,0 -1.45898,0.202149 -0.58887,0.202148 -0.94043,0.615234 -0.35156,0.4130861 -0.51855,1.1074221 -0.15821,0.6943359 -0.15821,2.0126953 V 0 h -1.67871 v -7.1015625 q 0,-2.8916016 1.13379,-4.1748045 1.14258,-1.291992 3.63867,-1.291992 3.12891,0 4.79883,2.364257 l -2.90918,3.1201176 q 1.75781,0.1230469 2.72461,1.0546875 0.97559,0.9316407 0.97559,2.5136719 z"
   id="text86"
   style="font-size:18px;line-height:0%;font-family:Arial;text-align:center;text-anchor:middle;fill:#111111;stroke-width:0.75"
   class="key"
   aria-label="ẞ" />&#10;&#10;</g>&#10;&#10;&#10;<g
   transform="translate(84,98)"
   id="g96">&#10;	<path
   d="m 0.46142578,-11.197266 q -2.05664058,0 -3.19921878,1.3271488 -1.1425781,1.3183594 -1.1425781,3.6210938 0,2.2763671 1.1865234,3.665039 1.1953125,1.3798828 3.22558598,1.3798828 2.60156252,0 3.91113282,-2.5751953 L 5.8139648,-3.09375 q -0.7646484,1.5996094 -2.1533203,2.43457031 -1.3798828,0.83496094 -3.20800778,0.83496094 -1.87207032,0 -3.24316402,-0.7734375 -1.3623047,-0.78222655 -2.0830079,-2.22363285 -0.711914,-1.4501953 -0.711914,-3.4277343 0,-2.9619141 1.5996094,-4.6406246 1.5996093,-1.678711 4.42968746,-1.678711 1.97753904,0 3.30468754,0.773437 1.3271484,0.773438 1.9511718,2.2939454 L 4.1088867,-8.9736328 Q 3.6782227,-10.054688 2.7202148,-10.625977 1.7709961,-11.197266 0.46142578,-11.197266 Z"
   id="text87"
   style="font-size:18px;line-height:0%;font-family:Arial;text-align:center;text-anchor:middle;fill:#111111;stroke-width:0.75"
   class="key"
   aria-label="C" />&#10;	<path
   d="m 41.176758,-3.4189453 q 0,1.7138672 -1.344727,2.65429686 -1.335937,0.94042969 -3.770508,0.94042969 -4.526367,0 -5.24707,-3.14648435 l 1.625977,-0.3251953 q 0.28125,1.1162109 1.195312,1.6435547 0.914063,0.5185546 2.487305,0.5185546 1.625976,0 2.504883,-0.5537109 0.887695,-0.5625 0.887695,-1.6435547 0,-0.6064453 -0.28125,-0.984375 -0.272461,-0.3779297 -0.773438,-0.6240234 -0.500976,-0.2460938 -1.195312,-0.413086 -0.694336,-0.1669921 -1.538086,-0.3603515 -1.467773,-0.3251953 -2.232422,-0.6503906 -0.755859,-0.3251954 -1.195312,-0.7207032 -0.439453,-0.4042968 -0.676758,-0.9404297 -0.228516,-0.5361328 -0.228516,-1.2304687 0,-1.5908202 1.212891,-2.4521482 1.22168,-0.861328 3.489258,-0.861328 2.109375,0 3.225586,0.65039 1.116211,0.641602 1.564453,2.1972659 l -1.652344,0.290039 q -0.272461,-0.9843749 -1.037109,-1.4238279 -0.764649,-0.448242 -2.118164,-0.448242 -1.485352,0 -2.267579,0.492187 -0.782226,0.492188 -0.782226,1.4677736 0,0.571289 0.298828,0.9492187 0.307617,0.3691406 0.878906,0.6328125 0.571289,0.2548828 2.276367,0.6328125 0.571289,0.131836 1.133789,0.272461 0.57129,0.1318359 1.089844,0.3251953 0.518555,0.1845703 0.966797,0.4394531 0.457031,0.2548828 0.791016,0.6240234 0.333984,0.3691407 0.518554,0.8701172 0.19336,0.5009766 0.19336,1.1777344 z"
   id="text88"
   style="font-size:18px;line-height:0%;font-family:Arial;text-align:center;text-anchor:middle;fill:#111111;stroke-width:0.75"
   class="key"
   aria-label="S" />&#10;	<path
   d="m 71.160645,0 v -12.383789 h 1.67871 V 0 Z"
   id="text89"
   style="font-size:18px;line-height:0%;font-family:Arial;text-align:center;text-anchor:middle;fill:#111111;stroke-width:0.75"
   class="key"
   aria-label="I" />&#10;	<path
   d="m 103.47363,0 v -12.383789 h 9.39551 v 1.371094 h -7.7168 v 3.9726559 h 7.18946 v 1.3535157 h -7.18946 v 4.3154297 h 8.07715 V 0 Z"
   id="text90"
   style="font-size:18px;line-height:0%;font-family:Arial;text-align:center;text-anchor:middle;fill:#111111;stroke-width:0.75"
   class="key nubkey"
   aria-label="E" />&#10;	<path
   d="m 150.13916,-6.2490234 q 0,1.9423828 -0.74707,3.4013671 -0.73828,1.4589844 -2.12695,2.24121099 -1.38868,0.78222656 -3.27832,0.78222656 -1.90723,0 -3.2959,-0.7734375 -1.37988,-0.77343745 -2.10938,-2.23242185 -0.72949,-1.4677735 -0.72949,-3.4189453 0,-2.9707032 1.62598,-4.6406246 1.62597,-1.678711 4.52636,-1.678711 1.88965,0 3.27832,0.755859 1.38868,0.74707 2.11817,2.1796875 0.73828,1.4326172 0.73828,3.3837891 z m -1.71387,0 q 0,-2.3115235 -1.16015,-3.6298829 -1.15137,-1.3183597 -3.26075,-1.3183597 -2.12695,0 -3.2871,1.3007816 -1.16016,1.3007813 -1.16016,3.647461 0,2.3291015 1.16894,3.7001953 1.17774,1.3623047 3.26075,1.3623047 2.14453,0 3.28711,-1.3183594 1.15136,-1.3271485 1.15136,-3.7441406 z"
   id="text91"
   style="font-size:18px;line-height:0%;font-family:Arial;text-align:center;text-anchor:middle;fill:#111111;stroke-width:0.75"
   class="key"
   aria-label="O" />&#10;&#10;	<path
   d="m 185.63818,-6.3193359 q 0,1.9160156 -0.74707,3.3574218 -0.74707,1.4326172 -2.11816,2.19726566 Q 181.40186,0 179.60889,0 h -4.63184 v -12.383789 h 4.0957 q 3.14649,0 4.85157,1.582031 1.71386,1.5732424 1.71386,4.4824221 z m -1.6875,0 q 0,-2.3027344 -1.26562,-3.506836 -1.25684,-1.2128911 -3.64746,-1.2128911 h -2.38184 v 9.6943364 h 2.75977 q 1.3623,0 2.39062,-0.5976562 1.03711,-0.5976563 1.59082,-1.7226563 0.55371,-1.125 0.55371,-2.6542968 z"
   id="text92"
   style="font-size:18px;line-height:0%;font-family:Arial;text-align:center;text-anchor:middle;fill:#111111;stroke-width:0.75"
   class="key"
   aria-label="D" />&#10;	<path
   d="M 216.83057,-11.012695 V 0 h -1.66993 v -11.012695 h -4.2539 v -1.371094 h 10.17773 v 1.371094 z"
   id="text93"
   style="font-size:18px;line-height:0%;font-family:Arial;text-align:center;text-anchor:middle;fill:#111111;stroke-width:0.75"
   class="key nubkey"
   aria-label="T" />&#10;	<path
   d="m 255.01025,0 -6.62695,-10.546875 0.0439,0.8525391 0.0439,1.4677734 V 0 h -1.49414 v -12.383789 h 1.95117 l 6.69727,10.6171874 q -0.10547,-1.7226562 -0.10547,-2.4960937 v -8.1210937 h 1.51172 V 0 Z"
   id="text94"
   style="font-size:18px;line-height:0%;font-family:Arial;text-align:center;text-anchor:middle;fill:#111111;stroke-width:0.75"
   class="key"
   aria-label="N" />&#10;	<path
   d="m 291.73096,0 -3.2168,-5.1416016 h -3.8584 V 0 h -1.67871 v -12.383789 h 5.82715 q 2.0918,0 3.22559,0.94043 1.14257,0.93164 1.14257,2.6015621 0,1.3798828 -0.80859,2.3203125 -0.79981,0.9404297 -2.21484,1.1865235 L 293.66455,0 Z m -0.2461,-8.8242188 q 0,-1.0810546 -0.73828,-1.6435542 -0.72949,-0.57129 -2.10937,-0.57129 h -3.98145 v 4.570313 h 4.05176 q 1.32715,0 2.04785,-0.6152344 0.72949,-0.6240234 0.72949,-1.7402344 z"
   id="text95"
   style="font-size:18px;line-height:0%;font-family:Arial;text-align:center;text-anchor:middle;fill:#111111;stroke-width:0.75"
   class="key"
   aria-label="R" />&#10;	<path
   d="m 327.35303,0 v -5.7392578 h -6.69727 V 0 h -1.67871 v -12.383789 h 1.67871 v 5.2382812 h 6.69727 v -5.2382812 h 1.67871 V 0 Z"
   id="text96"
   style="font-size:18px;line-height:0%;font-family:Arial;text-align:center;text-anchor:middle;fill:#111111;stroke-width:0.75"
   class="key"
   aria-label="H" />&#10;&#10;  &#10;&#10;</g>&#10;&#10;<g
   transform="translate(101,134)"
   id="g106">&#10;    <path
   d="M 0.87011719,0 H -0.87011719 L -5.9238281,-12.383789 h 1.7666015 l 3.42773441,8.7187499 0.73828125,2.1884766 0.73828125,-2.1884766 3.41015629,-8.7187499 h 1.7666015 z"
   id="text97"
   style="font-size:18px;line-height:0%;font-family:Arial;text-align:center;text-anchor:middle;fill:#111111;stroke-width:0.75"
   class="key"
   aria-label="V" />&#10;    <path
   d="M 39.770508,0 36.052734,-5.4140625 32.255859,0 h -1.854492 l 4.710938,-6.4335937 -4.350586,-5.9501953 h 1.854492 l 3.445312,4.8603515 3.348633,-4.8603515 h 1.854492 L 37.02832,-6.4951172 41.625,0 Z"
   id="text98"
   style="font-size:18px;line-height:0%;font-family:Arial;text-align:center;text-anchor:middle;fill:#111111;stroke-width:0.75"
   class="key"
   aria-label="X" />&#10;    <path
   d="m 71.925293,0.17578125 q -1.520508,0 -2.654297,-0.55371094 Q 68.137207,-0.93164063 67.513184,-1.9863281 66.88916,-3.0410156 66.88916,-4.5 v -7.883789 h 1.678711 v 7.743164 q 0,1.6962891 0.861328,2.5751953 0.861328,0.8789063 2.487305,0.8789063 1.669922,0 2.592773,-0.9052735 0.931641,-0.9140625 0.931641,-2.6630859 v -7.6289062 h 1.669922 v 7.7255859 q 0,1.5029297 -0.641602,2.5927734 -0.632812,1.08984376 -1.801758,1.66992189 -1.160156,0.57128906 -2.742187,0.57128906 z M 72.997559,-13.447266 v -1.617187 h 1.432617 v 1.617187 z m -3.462891,0 v -1.617187 h 1.450195 v 1.617187 z"
   id="text99"
   style="font-size:18px;line-height:0%;font-family:Arial;text-align:center;text-anchor:middle;fill:#111111;stroke-width:0.75"
   class="key"
   aria-label="Ü" />&#10;    <path
   d="m 112.25391,0 -1.41504,-3.6210938 h -5.64258 L 103.77246,0 h -1.74023 l 5.05371,-12.383789 h 1.90722 L 113.96777,0 Z m -4.23633,-11.118164 -0.0791,0.246094 Q 107.71875,-10.142578 107.28809,-9 l -1.58204,4.0693359 h 4.63184 l -1.59082,-4.086914 q -0.24609,-0.6064453 -0.49219,-1.3710939 z m 1.03711,-2.329102 v -1.617187 h 1.43261 v 1.617187 z m -3.46289,0 v -1.617187 h 1.45019 v 1.617187 z"
   id="text100"
   style="font-size:18px;line-height:0%;font-family:Arial;text-align:center;text-anchor:middle;fill:#111111;stroke-width:0.75"
   class="key"
   aria-label="Ä" />&#10;&#10;    <path
   d="m 150.13916,-6.2490234 q 0,1.9423828 -0.74707,3.4013671 -0.73828,1.4589844 -2.12695,2.24121099 -1.38868,0.78222656 -3.27832,0.78222656 -1.90723,0 -3.2959,-0.7734375 -1.37988,-0.77343745 -2.10938,-2.23242185 -0.72949,-1.4677735 -0.72949,-3.4189453 0,-2.9707032 1.62598,-4.6406246 1.62597,-1.678711 4.52636,-1.678711 1.88965,0 3.27832,0.755859 1.38868,0.74707 2.11817,2.1796875 0.73828,1.4326172 0.73828,3.3837891 z m -1.71387,0 q 0,-2.3115235 -1.16015,-3.6298829 -1.15137,-1.3183597 -3.26075,-1.3183597 -2.12695,0 -3.2871,1.3007816 -1.16016,1.3007813 -1.16016,3.647461 0,2.3291015 1.16894,3.7001953 1.17774,1.3623047 3.26075,1.3623047 2.14453,0 3.28711,-1.3183594 1.15136,-1.3271485 1.15136,-3.7441406 z m -3.42773,-7.1982426 v -1.617187 h 1.43262 v 1.617187 z m -3.46289,0 v -1.617187 h 1.45019 v 1.617187 z"
   id="text101"
   style="font-size:18px;line-height:0%;font-family:Arial;text-align:center;text-anchor:middle;fill:#111111;stroke-width:0.75"
   class="key"
   aria-label="Ö" />&#10;    <path
   d="m 184.78564,0 h -2.0039 l -2.14453,-7.8662109 q -0.21094,-0.7382813 -0.61524,-2.6455081 -0.22851,1.0195315 -0.38672,1.7050784 Q 179.47705,-8.1210938 177.23584,0 h -2.00391 l -3.64746,-12.383789 h 1.74903 l 2.22363,7.8662109 q 0.39551,1.4765625 0.72949,3.0410156 0.21094,-0.9667969 0.4834,-2.109375 0.28125,-1.1425781 2.44336,-8.7978515 h 1.6084 l 2.15332,7.7080078 q 0.49219,1.8896484 0.77344,3.1992187 l 0.0791,-0.3076172 q 0.2373,-1.0107422 0.38672,-1.6435547 0.14941,-0.6416015 2.46972,-8.9560546 h 1.74903 z"
   id="text102"
   style="font-size:18px;line-height:0%;font-family:Arial;text-align:center;text-anchor:middle;fill:#111111;stroke-width:0.75"
   class="key"
   aria-label="W" />&#10;    <path
   d="m 209.90479,-6.2490234 q 0,-3.0146485 1.61718,-4.6669926 1.61719,-1.652343 4.54395,-1.652343 2.05664,0 3.33984,0.694336 1.2832,0.694335 1.97754,2.2236324 l -1.59961,0.4746093 q -0.52734,-1.0546877 -1.45898,-1.5380857 -0.92285,-0.483399 -2.30274,-0.483399 -2.14453,0 -3.27832,1.3007816 -1.13379,1.2919922 -1.13379,3.647461 0,2.3466796 1.2041,3.7089843 1.20411,1.3535157 3.33106,1.3535157 1.21289,0 2.25879,-0.3691407 1.05469,-0.3691406 1.70508,-1.0019531 v -2.2324219 h -3.7002 v -1.40625 h 5.24707 v 4.2714844 q -0.98437,1.00195314 -2.41699,1.55566407 -1.42383,0.54492188 -3.09375,0.54492188 -1.94238,0 -3.34863,-0.7734375 -1.40625,-0.77343745 -2.15332,-2.22363285 -0.73828,-1.4589843 -0.73828,-3.4277343 z"
   id="text103"
   style="font-size:18px;line-height:0%;font-family:Arial;text-align:center;text-anchor:middle;fill:#111111;stroke-width:0.75"
   class="key"
   aria-label="G" />&#10;    <path
   d="m 246.99463,-3.9638672 v -1.2041015 h 10.00195 v 1.2041015 z"
   id="text104"
   style="font-size:18px;line-height:0%;font-family:Arial;text-align:center;text-anchor:middle;fill:#111111;stroke-width:0.75"
   class="key"
   aria-label="–" />&#10;    <path
   d="m 290.43896,-5.9941406 q 0,0.993164 -0.7207,1.7314453 -0.71191,0.7382812 -1.74902,0.7382812 -0.99317,0 -1.70508,-0.7294921 -0.70312,-0.7294922 -0.70312,-1.7402344 0,-1.0107422 0.71191,-1.7050781 0.71191,-0.7031251 1.69629,-0.7031251 1.01953,0 1.74023,0.7119141 0.72949,0.703125 0.72949,1.6962891 z"
   id="text105"
   style="font-size:18px;line-height:0%;font-family:Arial;text-align:center;text-anchor:middle;fill:#111111;stroke-width:0.75"
   class="key"
   aria-label="•" />&#10;    <path
   d="m 327.71777,0 -4.94824,-5.9765625 -1.61719,1.2304688 V 0 h -1.67871 v -12.383789 h 1.67871 v 6.2050781 l 5.96778,-6.2050781 h 1.97754 L 323.82422,-7.0048828 329.80078,0 Z"
   id="text106"
   style="font-size:18px;line-height:0%;font-family:Arial;text-align:center;text-anchor:middle;fill:#111111;stroke-width:0.75"
   class="key"
   aria-label="K" />&#10;</g>&#10;&#10;&#10;<g
   transform="translate(561,26)"
   id="g110">&#10;    <path
   d="m 6.5126953,-6.3896484 v 1.4941406 h -9.1582031 l 2.05664061,2.0566406 -1.05468751,1.0546875 -3.4628906,-3.4628906 v 3.3925781 h -1.4941406 v -7.5585937 h 1.4941406 v 3.375 l 3.4628906,-3.4628907 1.05468751,1.0546875 -2.05664061,2.0566407 z"
   id="text107"
   style="font-size:18px;line-height:0%;font-family:Arial;text-align:center;text-anchor:middle;fill:#111111;stroke-width:0.75"
   class="key"
   aria-label="⇤" />&#10;    <path
   d="M 33.499512,0.17578125 37.111816,-13.042969 h 1.388672 L 34.92334,0.17578125 Z"
   id="text108"
   style="font-size:18px;line-height:0%;font-family:Arial;text-align:center;text-anchor:middle;fill:#111111;stroke-width:0.75"
   class="key"
   aria-label="/" />&#10;    <path
   d="m 72.505371,-9.7910156 2.320313,-0.9052734 0.395507,1.1601562 -2.478515,0.6416015 1.625976,2.1972657 -1.045898,0.6328125 -1.318359,-2.2675782 -1.371094,2.2500001 -1.045899,-0.6328125 1.661133,-2.1796876 -2.460937,-0.6416015 0.395507,-1.1777342 2.34668,0.9404295 -0.105469,-2.6103515 h 1.195313 z"
   id="text109"
   style="font-size:18px;line-height:0%;font-family:Arial;text-align:center;text-anchor:middle;fill:#111111;stroke-width:0.75"
   class="key"
   aria-label="*" />&#10;    <path
   d="m 105.80273,-4.078125 v -1.40625 h 4.39454 v 1.40625 z"
   id="text110"
   style="font-size:18px;line-height:0%;font-family:Arial;text-align:center;text-anchor:middle;fill:#111111;stroke-width:0.75"
   class="key"
   aria-label="-" />&#10;</g>&#10;<g
   transform="translate(561,62)"
   id="g113">&#10;    <path
   d="m -3.5595703,-6.9785156 q 0.3427734,0 0.5185547,0.5625 0.3515625,1.0546875 0.5009765,1.0546875 0.1142578,0 0.2373047,-0.1757813 2.46972659,-3.6298828 4.5703125,-5.1679686 0.8876953,-0.650391 1.7314453,-0.650391 1.116211,0 1.3447266,0.07031 0.09668,0.02637 0.09668,0.219726 0,0.158203 -0.2021485,0.395508 -5.65136714,6.4863283 -6.7324218,8.4375001 -0.3691406,0.6679688 -1.7050782,0.6679688 -0.4394531,0 -0.9228515,-0.2285156 -0.2021484,-0.1054688 -0.703125,-1.3447266 -0.6328125,-1.5644531 -0.6328125,-2.7421875 0,-0.4306641 0.6152344,-0.7119141 0.84375,-0.3867187 1.265625,-0.3867187 z"
   id="text111"
   style="font-size:18px;line-height:0%;font-family:Arial;text-align:center;text-anchor:middle;fill:#111111;stroke-width:0.75"
   class="key"
   aria-label="✔" />&#10;    <path
   d="m 40.447266,-13.306641 q 0.254882,0 0.492187,0.263672 0.175781,0.19336 0.246094,0.703125 0.228515,-0.0088 0.316406,0.03516 0.28125,0.105469 0.404297,0.228516 0.123047,0.114258 0.123047,0.298828 0,0.351563 -0.140625,0.492188 -2.118164,1.9248044 -4.183594,4.675781 1.300781,1.7929688 2.601563,3.2167969 0.149414,0.1582031 0.149414,0.3691406 0,0.4306641 -0.263672,0.6591797 -0.175781,0.149414 -0.500977,0.1669922 -0.01758,0.149414 -0.140625,0.4570312 -0.210937,0.5097657 -0.492187,0.5097657 -0.316407,0 -0.580078,-0.2109375 -0.07031,0.1582031 -0.19336,0.2548828 -0.316406,0.23730465 -0.553711,0.23730465 -0.202148,0 -0.430664,-0.24609375 -0.782226,-0.8349609 -1.845703,-2.5136719 -2.021484,2.2939453 -2.794922,3.48046877 Q 32.510742,0 32.326172,0 q 0,0 -0.01758,0 -0.158203,0 -0.307617,-0.31640625 -0.131836,-0.27246094 -0.149415,-0.38671875 -0.175781,0.10546875 -0.333984,0.10546875 -0.219726,0 -0.474609,-0.26367188 -0.316407,-0.30761717 -0.316407,-0.45703127 0,-0.2373047 0.263672,-0.6328125 -0.0791,-0.026367 -0.158203,-0.140625 -0.158203,-0.2109375 -0.158203,-0.421875 0,-0.1845703 0.210938,-0.4570312 1.142578,-1.546875 2.865234,-3.4101563 -1.072266,-1.6611328 -1.942383,-4.0078126 -0.193359,-0.536133 -0.193359,-0.782226 0,-0.228516 0.202148,-0.65918 0.140625,-0.28125 0.333985,-0.28125 0.228515,0 0.65039,0.342773 0.0088,-0.123047 0.105469,-0.342773 0.202148,-0.439453 0.351562,-0.439453 0.37793,0 0.492188,0.228515 0.931641,1.722657 2.25,3.3574222 2.030273,-2.3203122 4.21875,-4.2363282 0.105469,-0.105469 0.228516,-0.105469 z"
   id="text112"
   style="font-size:18px;line-height:0%;font-family:Arial;text-align:center;text-anchor:middle;fill:#111111;stroke-width:0.75"
   class="key"
   aria-label="✘" />&#10;    <path
   d="M 72.69873,-8.7890625 72.505371,1.2128906 H 71.494629 L 71.30127,-8.7890625 68.20752,-8.5517578 v -1.4414063 l 3.09375,0.2548828 -0.246094,-3.3046877 h 1.889648 l -0.246094,3.3046877 3.10254,-0.2548828 v 1.4414063 z"
   id="text113"
   style="font-size:18px;line-height:0%;font-family:Arial;text-align:center;text-anchor:middle;fill:#111111;stroke-width:0.75"
   class="key"
   aria-label="†" />&#10;</g>&#10;<g
   transform="translate(561,98)"
   id="g116">&#10;    <path
   d="m 3.7089844,0 h -7.4003907 l 0.070312,-0.30761719 q 1.1865235,-0.23730468 1.7050782,-0.47460937 0.5273437,-0.23730464 0.94042966,-0.76464844 0.421875,-0.5273438 0.65039063,-1.1777344 0.23730469,-0.6591797 0.23730469,-1.3271484 l -0.01757813,-0.4130859 q -0.50097656,1.0546874 -1.28320315,1.5732421 -0.7822265,0.5185547 -1.5644531,0.5185547 -0.6767578,0 -1.2480469,-0.3339844 -0.5625,-0.3339843 -0.8701172,-0.8876953 -0.3076171,-0.5537109 -0.3076171,-1.2304687 0,-1.0107422 0.6416015,-1.7050781 0.6416016,-0.694336 1.4589844,-0.703125 0.5449219,0 1.4238281,0.4482422 -0.3339844,-0.5712891 -0.4833984,-0.9228516 -0.09668,-0.3251953 -0.09668,-0.6591797 0,-1.0634766 0.7119141,-1.7226565 0.711914,-0.659179 1.70507807,-0.659179 1.01953123,0 1.72265623,0.703125 0.703125,0.7031246 0.703125,1.6435542 0,0.7558594 -0.6064453,1.6171876 0.7382813,-0.3515625 0.8789063,-0.3779297 0.1933593,-0.070312 0.5361328,-0.070312 0.9228515,0 1.5205078,0.6855468 0.6416015,0.6679688 0.6416015,1.6875 0,1.0195313 -0.6855468,1.7490235 -0.6855469,0.7207031 -1.7050781,0.7207031 -0.4921875,0 -1.0107422,-0.2109375 Q 1.4589844,-2.8212891 1.0371094,-3.1816406 0.62402344,-3.5419922 0.08789062,-4.4648437 0.13183594,-3.3574219 0.34277344,-2.6806641 0.5625,-2.0126953 1.0371094,-1.4853516 q 0.4833984,0.52734379 1.0371094,0.76464848 0.5625,0.22851562 1.5644531,0.41308593 z"
   id="text114"
   style="font-size:18px;line-height:0%;font-family:Arial;text-align:center;text-anchor:middle;fill:#111111;stroke-width:0.75"
   class="key"
   aria-label="♣" />&#10;    <path
   d="m 37.067871,-1.1074219 q 0.878906,0 1.40625,-0.4394531 0.527344,-0.4394531 0.650391,-1.2392578 l 1.625976,0.1230469 q -0.263672,1.3623047 -1.230468,2.1005859 -0.958008,0.73828125 -2.487305,0.73828125 -1.907227,0 -3.023438,-1.15136719 -1.107422,-1.15136716 -1.371093,-3.43652346 h -1.50293 l 0.351562,-1.133789 h 1.054688 l -0.02637,-0.6855469 0.02637,-0.7558594 h -1.40625 l 0.351562,-1.1162109 h 1.133789 q 0.28125,-2.2587894 1.371094,-3.3574224 1.089844,-1.107421 3.014649,-1.107421 1.538086,0 2.496093,0.74707 0.966797,0.738281 1.22168,2.0917968 l -1.625976,0.1230469 q -0.123047,-0.7998047 -0.65918,-1.2392577 -0.527344,-0.439453 -1.458985,-0.439453 -1.248046,0 -1.916015,0.764648 -0.65918,0.7646486 -0.84375,2.4169924 h 3.919922 l -0.351563,1.1162109 h -3.629883 q -0.02637,0.2109375 -0.02637,0.7558594 0,0.3515625 0.03516,0.6855469 h 3.972657 l -0.351563,1.133789 h -3.550781 q 0.193359,1.7138672 0.905273,2.5136719 0.711914,0.7910156 1.924805,0.7910156 z"
   id="text115"
   style="font-size:18px;line-height:0%;font-family:Arial;text-align:center;text-anchor:middle;fill:#111111;stroke-width:0.75"
   class="key"
   aria-label="€" />&#10;    <path
   d="m 69.389648,-3.3837891 q 0,0 0,-6.609375 0,0 5.923829,3.3046875 z"
   id="text116"
   style="font-size:18px;line-height:0%;font-family:Arial;text-align:center;text-anchor:middle;fill:#111111;stroke-width:0.75"
   class="key"
   aria-label="‣" />&#10;</g>&#10;<g
   transform="translate(561,134)"
   id="g119">&#10;    <path
   d="m -0.03076172,-10.749023 q 0.6328125,1.0986324 1.79296872,2.6894527 1.1689453,1.5820312 2.241211,2.7861328 -0.5976563,0.6152344 -1.9423828,2.4082031 -1.34472661,1.7841797 -2.07421879,3.08496096 -0.32519532,-0.62402344 -1.14257811,-1.76660156 -0.8085938,-1.1513672 -1.4589844,-1.9863281 -0.6503906,-0.84375 -1.3974609,-1.7402344 1.0195312,-1.2041016 2.1533203,-2.7158203 1.14257811,-1.5205078 1.82812498,-2.7597652 z"
   id="text117"
   style="font-size:18px;line-height:0%;font-family:Arial;text-align:center;text-anchor:middle;fill:#111111;stroke-width:0.75"
   class="key"
   aria-label="♦" />&#10;    <path
   d="M 36.017578,0.20214844 Q 35.824219,-0.55371094 35.419922,-1.3535156 35.024414,-2.1533203 33.477539,-4.2275391 L 32.686523,-5.3085937 Q 32.027344,-6.1875 31.790039,-6.75 q -0.237305,-0.5712891 -0.237305,-1.1513672 0,-0.9404297 0.606446,-1.5380859 0.615234,-0.6064449 1.502929,-0.6064449 0.764649,0 1.388672,0.5009761 0.632813,0.5009766 0.966797,1.5556641 0.298828,-1.0458985 0.922852,-1.5556641 0.624023,-0.5185551 1.397461,-0.5185551 0.852539,0 1.476562,0.5976567 0.632813,0.5976562 0.632813,1.4589844 0,0.7558593 -0.386719,1.5908203 -0.386719,0.8349609 -1.362305,2.0390625 -1.230469,1.5732422 -1.801758,2.5136719 -0.5625,0.93164057 -0.878906,2.06542964 z"
   id="text118"
   style="font-size:18px;line-height:0%;font-family:Arial;text-align:center;text-anchor:middle;fill:#111111;stroke-width:0.75"
   class="key"
   aria-label="♥" />&#10;    <path
   d="m 72,-10.819336 q 0.219727,0.8437501 0.641602,1.5908204 0.421875,0.7382812 1.749023,1.9599609 1.239258,1.1074219 1.546875,1.6875 0.307617,0.5800781 0.325195,1.2041016 0,0.84375 -0.571289,1.40625 -0.571289,0.5625 -1.335937,0.5625 -1.379883,0 -2.25,-1.678711 0.02637,1.397461 0.36914,2.1269532 0.351563,0.7294922 1.063477,1.14257809 0.720703,0.41308593 1.880859,0.4921875 L 75.489258,0 H 68.52832 l 0.05274,-0.32519531 q 1.089843,0 1.845703,-0.421875 0.755859,-0.43066409 1.133789,-1.18652339 0.386719,-0.7558594 0.386719,-2.0302735 v -0.1230469 q -0.791016,1.678711 -2.285157,1.678711 -0.782226,0 -1.353515,-0.5625 -0.571289,-0.5625 -0.571289,-1.3710938 0,-0.7822265 0.386718,-1.3798828 0.395508,-0.5976562 1.265625,-1.3183594 1.22168,-1.0458984 1.801758,-1.8632812 Q 71.771484,-9.7207031 72,-10.819336 Z"
   id="text119"
   style="font-size:18px;line-height:0%;font-family:Arial;text-align:center;text-anchor:middle;fill:#111111;stroke-width:0.75"
   class="key"
   aria-label="♠" />&#10;</g>&#10;<g
   transform="translate(561,170)"
   id="g121">&#10;    <path
   d="m 15.046875,2.6015625 h 5.90625 V -1.828125 h 1.476562 V 4.0957031 H 13.570313 V -1.828125 h 1.476562 z"
   id="text120"
   style="font-size:18px;line-height:0%;font-family:Arial;text-align:center;text-anchor:middle;fill:#111111;stroke-width:0.75"
   class="key"
   aria-label="␣" />&#10;    <path
   d="m 71.143066,0 v -1.9248047 h 1.713868 V 0 Z"
   id="text121"
   style="font-size:18px;line-height:0%;font-family:Arial;text-align:center;text-anchor:middle;fill:#111111;stroke-width:0.75"
   class="key"
   aria-label="." />&#10;</g>&#10;&#10;<g
   transform="translate(561,78)"
   id="g122">&#10;    <path
   d="m 108.6416,-5.34375 v 3.7617188 h -1.29199 V -5.34375 h -3.72656 v -1.2832031 h 3.72656 v -3.7617189 h 1.29199 v 3.7617189 h 3.72656 V -5.34375 Z"
   id="text122"
   style="font-size:18px;line-height:0%;font-family:Arial;text-align:center;text-anchor:middle;fill:#111111;stroke-width:0.75"
   class="key"
   aria-label="+" />&#10;</g>&#10;<g
   transform="translate(561,150)"
   id="g123">&#10;    <path
   d="m 105.40723,-1.1777344 -4.46485,-4.4648437 4.46485,-4.4648439 v 2.3994142 h 4.9834 V -13.12207 h 4.13085 l -0.009,9.5449216 h -9.10547 z m -0.87891,-5.6513672 v -1.1513671 l -2.33789,2.3378906 2.33789,2.3378906 v -1.1513672 h 9.10547 l 0.009,-7.7871093 h -2.37305 l -0.009,5.4140624 z"
   id="text123"
   style="font-size:18px;line-height:0%;font-family:Arial;text-align:center;text-anchor:middle;fill:#111111;stroke-width:0.75"
   class="key"
   aria-label="⏎" />&#10;</g>&#10;&#10;<path
   d="m 18.998047,18.476562 q 0.03516,0.07031 0.03516,0.166993 0,0.166992 -0.114258,0.298828 -0.105468,0.123047 -0.28125,0.123047 -0.166992,0 -0.307617,-0.114258 -0.131836,-0.123047 -0.131836,-0.307617 0,-0.158203 0.123047,-0.290039 0.131836,-0.131836 0.307617,-0.131836 0.263672,0 0.369141,0.254882 z m 2.768555,6.670899 q 0.03516,0.105469 0.03516,0.158203 0,0.158203 -0.123047,0.290039 -0.123047,0.131836 -0.298828,0.131836 -0.158203,0 -0.290039,-0.123047 -0.131836,-0.123047 -0.131836,-0.307617 0,-0.149414 0.114258,-0.28125 0.114257,-0.131836 0.28125,-0.131836 0.28125,0 0.413086,0.263672 z m -4.03418,-6.020508 q 0.131836,0.114258 0.131836,0.290039 0,0.421875 -0.413086,0.421875 -0.175781,0 -0.298828,-0.114258 -0.123047,-0.123047 -0.123047,-0.290039 0,-0.175781 0.123047,-0.298828 0.123047,-0.131836 0.290039,-0.131836 0.166992,0 0.290039,0.123047 z m 5.115234,5.097656 q 0.123047,0.123047 0.123047,0.298828 0,0.166993 -0.123047,0.29004 -0.114258,0.123046 -0.298828,0.123046 -0.175781,0 -0.298828,-0.123046 -0.123047,-0.123047 -0.123047,-0.29004 0,-0.175781 0.114258,-0.290039 0.123047,-0.123046 0.290039,-0.123046 0.175781,0 0.316406,0.114257 z m -6.029297,-4.016601 q 0.272461,0.114258 0.272461,0.404297 0,0.166992 -0.140625,0.290039 -0.131836,0.114258 -0.290039,0.114258 -0.18457,0 -0.298828,-0.131836 -0.114258,-0.131836 -0.114258,-0.290039 0,-0.175782 0.123047,-0.298829 0.131836,-0.123046 0.290039,-0.123046 0.05273,0 0.158203,0.03516 z m 6.670899,2.759765 q 0.263672,0.114258 0.263672,0.386719 0,0.175781 -0.131836,0.298828 -0.123047,0.114258 -0.290039,0.114258 -0.19336,0 -0.307618,-0.123047 -0.114257,-0.131836 -0.114257,-0.290039 0,-0.202148 0.131836,-0.307617 0.140625,-0.105469 0.298828,-0.105469 0.08789,0 0.149414,0.02637 z m -7.101563,-1.40625 q 0.166992,0 0.298828,0.123047 0.131836,0.114258 0.131836,0.28125 0,0.175782 -0.131836,0.307617 -0.131836,0.123047 -0.290039,0.123047 h -0.01758 q -0.166992,0 -0.290039,-0.123047 -0.114258,-0.131835 -0.114258,-0.298828 0,-0.175781 0.114258,-0.290039 0.123047,-0.123047 0.298828,-0.123047 z m 7.215821,-0.0088 q 0.175781,0 0.298828,0.123047 0.123047,0.123047 0.123047,0.298828 0,0.166993 -0.123047,0.290039 -0.114258,0.123047 -0.290039,0.123047 h -0.03516 q -0.158203,0 -0.28125,-0.123047 -0.114257,-0.123046 -0.114257,-0.28125 0,-0.175781 0.131836,-0.298828 0.131835,-0.123047 0.290039,-0.131836 z m -7.101563,1.423828 q 0.07031,-0.03516 0.166992,-0.03516 0.175782,0 0.298828,0.114258 0.123047,0.114258 0.123047,0.290039 0,0.166992 -0.123047,0.298828 -0.123046,0.131836 -0.298828,0.131836 -0.166992,0 -0.298828,-0.123047 -0.123047,-0.131836 -0.123047,-0.307617 0,-0.272461 0.254883,-0.369141 z m 6.670899,-2.768554 q 0.105468,-0.03516 0.158203,-0.03516 0.158203,0 0.290039,0.123046 0.131836,0.123047 0.131836,0.298829 0,0.158203 -0.123047,0.290039 -0.123047,0.131836 -0.307617,0.131836 -0.158204,0 -0.28125,-0.123047 -0.123047,-0.123047 -0.123047,-0.290039 0,-0.28125 0.254883,-0.395508 z m -6.020508,4.034179 q 0.131836,-0.131835 0.28125,-0.131835 0.18457,0 0.307617,0.123046 0.123047,0.114258 0.123047,0.290039 0,0.166993 -0.123047,0.298829 -0.114258,0.123046 -0.290039,0.123046 -0.166992,0 -0.298828,-0.123046 -0.123047,-0.131836 -0.123047,-0.298829 0,-0.158203 0.123047,-0.28125 z M 22.25,19.126953 q 0.140625,-0.123047 0.298828,-0.123047 0.175781,0 0.290039,0.123047 0.123047,0.123047 0.123047,0.298828 0,0.166992 -0.123047,0.298828 -0.114258,0.123047 -0.290039,0.123047 -0.166992,0 -0.290039,-0.131836 -0.123047,-0.131836 -0.123047,-0.290039 0,-0.166992 0.114258,-0.298828 z m -4.016602,6.029297 q 0.05273,-0.123047 0.166993,-0.193359 0.123046,-0.07031 0.228515,-0.07031 0.175781,0 0.290039,0.131836 0.123047,0.131836 0.123047,0.290039 0,0.175781 -0.131836,0.298828 -0.131836,0.114258 -0.290039,0.114258 -0.166992,0 -0.298828,-0.131836 -0.123047,-0.131836 -0.123047,-0.28125 0,-0.05273 0.03516,-0.158203 z m 2.759766,-6.670898 q 0.114258,-0.263672 0.386719,-0.263672 0.175781,0 0.298828,0.131836 0.123047,0.131836 0.123047,0.298828 0,0.175781 -0.131836,0.298828 -0.131836,0.114258 -0.290039,0.114258 -0.175781,0 -0.298828,-0.131836 -0.114258,-0.140625 -0.114258,-0.298828 0,-0.07031 0.02637,-0.149414 z m -1.40625,7.101562 q 0,-0.175781 0.123047,-0.298828 Q 19.833008,25.165039 20,25.165039 q 0.175781,0 0.298828,0.123047 0.123047,0.123047 0.123047,0.298828 0,0.166992 -0.123047,0.290039 Q 20.175781,26 20,26 19.833008,26 19.709961,25.876953 19.586914,25.753906 19.586914,25.586914 Z m 0,-7.21582 q 0,-0.175782 0.123047,-0.298828 Q 19.833008,17.949219 20,17.949219 q 0.175781,0 0.298828,0.123047 0.123047,0.123046 0.123047,0.298828 0,0.166992 -0.123047,0.290039 Q 20.175781,18.78418 20,18.78418 q -0.166992,0 -0.290039,-0.123047 -0.123047,-0.123047 -0.123047,-0.290039 z m 0.887695,-1.78418 H 19.53418 l -2.320313,-3.137695 q 0.123047,-0.175781 0.19336,-0.254883 0.06152,-0.0791 0.202148,-0.158203 l 2.416992,2.206055 2.373047,-2.206055 q 0.149414,0.0791 0.210938,0.158203 0.06152,0.0791 0.166992,0.254883 z"
   id="t1"
   style="font-size:18px;line-height:0%;font-family:'Gentium Plus Compact';text-align:center;text-anchor:middle;fill:#111111"
   class="dead"
   aria-label="◌̌" />&#10;<path
   d="m 450.99805,18.476562 q 0.0352,0.07031 0.0352,0.166993 0,0.166992 -0.11425,0.298828 -0.10547,0.123047 -0.28125,0.123047 -0.167,0 -0.30762,-0.114258 -0.13184,-0.123047 -0.13184,-0.307617 0,-0.158203 0.12305,-0.290039 0.13183,-0.131836 0.30762,-0.131836 0.26367,0 0.36914,0.254882 z m 2.76855,6.670899 q 0.0352,0.105469 0.0352,0.158203 0,0.158203 -0.12305,0.290039 -0.12305,0.131836 -0.29883,0.131836 -0.1582,0 -0.29004,-0.123047 -0.13183,-0.123047 -0.13183,-0.307617 0,-0.149414 0.11426,-0.28125 0.11425,-0.131836 0.28125,-0.131836 0.28125,0 0.41308,0.263672 z m -4.03418,-6.020508 q 0.13184,0.114258 0.13184,0.290039 0,0.421875 -0.41309,0.421875 -0.17578,0 -0.29883,-0.114258 -0.12304,-0.123047 -0.12304,-0.290039 0,-0.175781 0.12304,-0.298828 0.12305,-0.131836 0.29004,-0.131836 0.16699,0 0.29004,0.123047 z m 5.11524,5.097656 q 0.12304,0.123047 0.12304,0.298828 0,0.166993 -0.12304,0.29004 -0.11426,0.123046 -0.29883,0.123046 -0.17578,0 -0.29883,-0.123046 -0.12305,-0.123047 -0.12305,-0.29004 0,-0.175781 0.11426,-0.290039 0.12305,-0.123046 0.29004,-0.123046 0.17578,0 0.31641,0.114257 z m -6.0293,-4.016601 q 0.27246,0.114258 0.27246,0.404297 0,0.166992 -0.14062,0.290039 -0.13184,0.114258 -0.29004,0.114258 -0.18457,0 -0.29883,-0.131836 -0.11426,-0.131836 -0.11426,-0.290039 0,-0.175782 0.12305,-0.298829 0.13183,-0.123046 0.29004,-0.123046 0.0527,0 0.1582,0.03516 z m 6.6709,2.759765 q 0.26367,0.114258 0.26367,0.386719 0,0.175781 -0.13184,0.298828 -0.12304,0.114258 -0.29004,0.114258 -0.19335,0 -0.30761,-0.123047 -0.11426,-0.131836 -0.11426,-0.290039 0,-0.202148 0.13184,-0.307617 0.14062,-0.105469 0.29882,-0.105469 0.0879,0 0.14942,0.02637 z m -7.10156,-1.40625 q 0.16699,0 0.29882,0.123047 0.13184,0.114258 0.13184,0.28125 0,0.175782 -0.13184,0.307617 -0.13183,0.123047 -0.29004,0.123047 h -0.0176 q -0.167,0 -0.29004,-0.123047 -0.11426,-0.131835 -0.11426,-0.298828 0,-0.175781 0.11426,-0.290039 0.12304,-0.123047 0.29883,-0.123047 z m 7.21582,-0.0088 q 0.17578,0 0.29882,0.123047 0.12305,0.123047 0.12305,0.298828 0,0.166993 -0.12305,0.290039 -0.11425,0.123047 -0.29004,0.123047 h -0.0351 q -0.1582,0 -0.28125,-0.123047 -0.11426,-0.123046 -0.11426,-0.28125 0,-0.175781 0.13184,-0.298828 0.13183,-0.123047 0.29004,-0.131836 z m -7.10157,1.423828 q 0.0703,-0.03516 0.167,-0.03516 0.17578,0 0.29882,0.114258 0.12305,0.114258 0.12305,0.290039 0,0.166992 -0.12305,0.298828 -0.12304,0.131836 -0.29882,0.131836 -0.167,0 -0.29883,-0.123047 -0.12305,-0.131836 -0.12305,-0.307617 0,-0.272461 0.25488,-0.369141 z m 6.6709,-2.768554 q 0.10547,-0.03516 0.1582,-0.03516 0.15821,0 0.29004,0.123046 0.13184,0.123047 0.13184,0.298829 0,0.158203 -0.12305,0.290039 -0.12304,0.131836 -0.30761,0.131836 -0.15821,0 -0.28125,-0.123047 -0.12305,-0.123047 -0.12305,-0.290039 0,-0.28125 0.25488,-0.395508 z m -6.02051,4.034179 q 0.13184,-0.131835 0.28125,-0.131835 0.18457,0 0.30762,0.123046 0.12305,0.114258 0.12305,0.290039 0,0.166993 -0.12305,0.298829 -0.11426,0.123046 -0.29004,0.123046 -0.16699,0 -0.29883,-0.123046 -0.12304,-0.131836 -0.12304,-0.298829 0,-0.158203 0.12304,-0.28125 z M 454.25,19.126953 q 0.14062,-0.123047 0.29883,-0.123047 0.17578,0 0.29004,0.123047 0.12304,0.123047 0.12304,0.298828 0,0.166992 -0.12304,0.298828 -0.11426,0.123047 -0.29004,0.123047 -0.16699,0 -0.29004,-0.131836 -0.12305,-0.131836 -0.12305,-0.290039 0,-0.166992 0.11426,-0.298828 z m -4.0166,6.029297 q 0.0527,-0.123047 0.16699,-0.193359 0.12305,-0.07031 0.22852,-0.07031 0.17578,0 0.29004,0.131836 0.12304,0.131836 0.12304,0.290039 0,0.175781 -0.13183,0.298828 -0.13184,0.114258 -0.29004,0.114258 -0.167,0 -0.29883,-0.131836 -0.12305,-0.131836 -0.12305,-0.28125 0,-0.05273 0.0352,-0.158203 z m 2.75976,-6.670898 q 0.11426,-0.263672 0.38672,-0.263672 0.17578,0 0.29883,0.131836 0.12305,0.131836 0.12305,0.298828 0,0.175781 -0.13184,0.298828 -0.13183,0.114258 -0.29004,0.114258 -0.17578,0 -0.29883,-0.131836 -0.11425,-0.140625 -0.11425,-0.298828 0,-0.07031 0.0264,-0.149414 z m -1.40625,7.101562 q 0,-0.175781 0.12305,-0.298828 0.12305,-0.123047 0.29004,-0.123047 0.17578,0 0.29883,0.123047 0.12304,0.123047 0.12304,0.298828 0,0.166992 -0.12304,0.290039 Q 452.17578,26 452,26 q -0.16699,0 -0.29004,-0.123047 -0.12305,-0.123047 -0.12305,-0.290039 z m 0,-7.21582 q 0,-0.175782 0.12305,-0.298828 0.12305,-0.123047 0.29004,-0.123047 0.17578,0 0.29883,0.123047 0.12304,0.123046 0.12304,0.298828 0,0.166992 -0.12304,0.290039 -0.12305,0.123047 -0.29883,0.123047 -0.16699,0 -0.29004,-0.123047 -0.12305,-0.123047 -0.12305,-0.290039 z m 1.86329,9.641601 q 0,0.650391 -0.63282,1.160157 -0.63281,0.518554 -2.07422,0.729492 L 450.5498,29.47168 q 0.91407,-0.158203 1.30079,-0.465821 0.38671,-0.298828 0.38671,-0.580078 0,-0.298828 -0.22851,-0.421875 -0.22852,-0.114258 -0.77344,-0.166992 0,0 0.0615,-0.166992 0.0527,-0.166992 0.21973,-0.65918 0.1582,-0.492187 0.46582,-1.467773 l 0.68555,0.01758 -0.44824,1.353515 q 0.46582,0.09668 0.85254,0.351563 0.37793,0.254883 0.37793,0.74707 z"
   id="t2"
   style="font-size:18px;line-height:0%;font-family:'Gentium Plus Compact';text-align:center;text-anchor:middle;fill:#111111"
   class="dead"
   aria-label="◌̧" />&#10;&#10;<path
   d="m 478.99805,90.476562 q 0.0352,0.07031 0.0352,0.166993 0,0.166992 -0.11425,0.298828 -0.10547,0.123047 -0.28125,0.123047 -0.167,0 -0.30762,-0.114258 -0.13184,-0.123047 -0.13184,-0.307617 0,-0.158203 0.12305,-0.290039 0.13183,-0.131836 0.30762,-0.131836 0.26367,0 0.36914,0.254882 z m 2.76855,6.670899 q 0.0352,0.105469 0.0352,0.158203 0,0.158203 -0.12305,0.290039 -0.12305,0.131836 -0.29883,0.131836 -0.1582,0 -0.29004,-0.123047 -0.13183,-0.123047 -0.13183,-0.307617 0,-0.149414 0.11426,-0.28125 0.11425,-0.131836 0.28125,-0.131836 0.28125,0 0.41308,0.263672 z m -4.03418,-6.020508 q 0.13184,0.114258 0.13184,0.290039 0,0.421875 -0.41309,0.421875 -0.17578,0 -0.29883,-0.114258 -0.12304,-0.123047 -0.12304,-0.290039 0,-0.175781 0.12304,-0.298828 0.12305,-0.131836 0.29004,-0.131836 0.16699,0 0.29004,0.123047 z m 5.11524,5.097656 q 0.12304,0.123047 0.12304,0.298828 0,0.166993 -0.12304,0.29004 -0.11426,0.123046 -0.29883,0.123046 -0.17578,0 -0.29883,-0.123046 -0.12305,-0.123047 -0.12305,-0.29004 0,-0.175781 0.11426,-0.290039 0.12305,-0.123046 0.29004,-0.123046 0.17578,0 0.31641,0.114257 z m -6.0293,-4.016601 q 0.27246,0.114258 0.27246,0.404297 0,0.166992 -0.14062,0.290039 -0.13184,0.114258 -0.29004,0.114258 -0.18457,0 -0.29883,-0.131836 -0.11426,-0.131836 -0.11426,-0.290039 0,-0.175782 0.12305,-0.298829 0.13183,-0.123046 0.29004,-0.123046 0.0527,0 0.1582,0.03516 z m 6.6709,2.759765 q 0.26367,0.114258 0.26367,0.386719 0,0.175781 -0.13184,0.298828 -0.12304,0.114258 -0.29004,0.114258 -0.19335,0 -0.30761,-0.123047 -0.11426,-0.131836 -0.11426,-0.290039 0,-0.202148 0.13184,-0.307617 0.14062,-0.105469 0.29882,-0.105469 0.0879,0 0.14942,0.02637 z m -7.10156,-1.40625 q 0.16699,0 0.29882,0.123047 0.13184,0.114258 0.13184,0.28125 0,0.175782 -0.13184,0.307617 -0.13183,0.123047 -0.29004,0.123047 h -0.0176 q -0.167,0 -0.29004,-0.123047 -0.11426,-0.131835 -0.11426,-0.298828 0,-0.175781 0.11426,-0.290039 0.12304,-0.123047 0.29883,-0.123047 z m 7.21582,-0.0088 q 0.17578,0 0.29882,0.123047 0.12305,0.123047 0.12305,0.298828 0,0.166993 -0.12305,0.290039 -0.11425,0.123047 -0.29004,0.123047 h -0.0351 q -0.1582,0 -0.28125,-0.123047 -0.11426,-0.123046 -0.11426,-0.28125 0,-0.175781 0.13184,-0.298828 0.13183,-0.123047 0.29004,-0.131836 z m -7.10157,1.423828 q 0.0703,-0.03516 0.167,-0.03516 0.17578,0 0.29882,0.114258 0.12305,0.114258 0.12305,0.290039 0,0.166992 -0.12305,0.298828 -0.12304,0.131836 -0.29882,0.131836 -0.167,0 -0.29883,-0.123047 -0.12305,-0.131836 -0.12305,-0.307617 0,-0.272461 0.25488,-0.369141 z m 6.6709,-2.768554 q 0.10547,-0.03516 0.1582,-0.03516 0.15821,0 0.29004,0.123046 0.13184,0.123047 0.13184,0.298829 0,0.158203 -0.12305,0.290039 -0.12304,0.131836 -0.30761,0.131836 -0.15821,0 -0.28125,-0.123047 -0.12305,-0.123047 -0.12305,-0.290039 0,-0.28125 0.25488,-0.395508 z m -6.02051,4.034179 q 0.13184,-0.131835 0.28125,-0.131835 0.18457,0 0.30762,0.123046 0.12305,0.114258 0.12305,0.290039 0,0.166993 -0.12305,0.298829 -0.11426,0.123046 -0.29004,0.123046 -0.16699,0 -0.29883,-0.123046 -0.12304,-0.131836 -0.12304,-0.298829 0,-0.158203 0.12304,-0.28125 z M 482.25,91.126953 q 0.14062,-0.123047 0.29883,-0.123047 0.17578,0 0.29004,0.123047 0.12304,0.123047 0.12304,0.298828 0,0.166992 -0.12304,0.298828 -0.11426,0.123047 -0.29004,0.123047 -0.16699,0 -0.29004,-0.131836 -0.12305,-0.131836 -0.12305,-0.290039 0,-0.166992 0.11426,-0.298828 z m -4.0166,6.029297 q 0.0527,-0.123047 0.16699,-0.193359 0.12305,-0.07031 0.22852,-0.07031 0.17578,0 0.29004,0.131836 0.12304,0.131836 0.12304,0.290039 0,0.175781 -0.13183,0.298828 -0.13184,0.114258 -0.29004,0.114258 -0.167,0 -0.29883,-0.131836 -0.12305,-0.131836 -0.12305,-0.28125 0,-0.05273 0.0352,-0.158203 z m 2.75976,-6.670898 q 0.11426,-0.263672 0.38672,-0.263672 0.17578,0 0.29883,0.131836 0.12305,0.131836 0.12305,0.298828 0,0.175781 -0.13184,0.298828 -0.13183,0.114258 -0.29004,0.114258 -0.17578,0 -0.29883,-0.131836 -0.11425,-0.140625 -0.11425,-0.298828 0,-0.07031 0.0264,-0.149414 z m -1.40625,7.101562 q 0,-0.175781 0.12305,-0.298828 0.12305,-0.123047 0.29004,-0.123047 0.17578,0 0.29883,0.123047 0.12304,0.123047 0.12304,0.298828 0,0.166992 -0.12304,0.290039 Q 480.17578,98 480,98 q -0.16699,0 -0.29004,-0.123047 -0.12305,-0.123047 -0.12305,-0.290039 z m 0,-7.21582 q 0,-0.175782 0.12305,-0.298828 0.12305,-0.123047 0.29004,-0.123047 0.17578,0 0.29883,0.123047 0.12304,0.123046 0.12304,0.298828 0,0.166992 -0.12304,0.290039 -0.12305,0.123047 -0.29883,0.123047 -0.16699,0 -0.29004,-0.123047 -0.12305,-0.123047 -0.12305,-0.290039 z m 3.41016,-4.201172 q -0.20215,0.474609 -0.51855,0.93164 -0.3252,0.457032 -0.7295,0.75586 -0.40429,0.290039 -0.86132,0.290039 -0.4043,0 -0.76465,-0.246094 -0.36914,-0.254883 -0.71192,-0.500976 -0.34277,-0.246094 -0.68554,-0.246094 -0.35157,0 -0.64161,0.290039 -0.29003,0.28125 -0.61523,0.773437 l -0.46582,-0.175781 q 0.21094,-0.483398 0.52734,-0.93164 0.31641,-0.457032 0.72071,-0.75586 0.3955,-0.298828 0.85254,-0.298828 0.44824,0 0.82617,0.246094 0.37793,0.246094 0.71191,0.500976 0.3252,0.246094 0.60645,0.246094 0.33398,0 0.65918,-0.28125 0.3164,-0.290039 0.61523,-0.799805 z"
   id="t3"
   style="font-size:18px;line-height:0%;font-family:'Gentium Plus Compact';text-align:center;text-anchor:middle;fill:#111111"
   class="dead"
   aria-label="◌̃" />&#10;&#10;</svg>
