<?xml version="1.0" encoding="UTF-8" standalone="no"?>
<svg
   version="1.1"
   id="Ebene_1"
   height="183"
   width="535"
   viewBox="0 0 535 183"
   enable-background="new 0 0 535 183"
   xml:space="preserve"
   inkscape:version="0.48.5 r10040"
   sodipodi:docname="noted-3-tkl.svg"
   inkscape:export-xdpi="90"
   inkscape:export-ydpi="90"
   xmlns:inkscape="http://www.inkscape.org/namespaces/inkscape"
   xmlns:sodipodi="http://sodipodi.sourceforge.net/DTD/sodipodi-0.dtd"
   xmlns:xlink="http://www.w3.org/1999/xlink"
   xmlns="http://www.w3.org/2000/svg"
   xmlns:svg="http://www.w3.org/2000/svg"
   xmlns:rdf="http://www.w3.org/1999/02/22-rdf-syntax-ns#"
   xmlns:cc="http://creativecommons.org/ns#"
   xmlns:dc="http://purl.org/dc/elements/1.1/">

  <metadata
   id="metadata135">
    <rdf:RDF>
      <cc:Work
   rdf:about="">
        <dc:format>image/svg+xml</dc:format>
        <dc:type
   rdf:resource="http://purl.org/dc/dcmitype/StillImage" />
        <dc:title />
      </cc:Work>
    </rdf:RDF>
  </metadata>

<defs
   id="defs">
<style
   type="text/css"
   id="style46661">
text.mod, text.key, text.dead {
	fill:#111;
	fill-opacity:1;
    stroke:none;
    font-style:normal;
    font-variant:normal;
    font-weight:normal;
    font-stretch:normal;
    display:inline;
    font-family:DejaVu Sans;
    writing-mode:lr-tb;
}

text.key {
    font-family:Linux Libertine;
}

text.dead {
    font-family: Gentium Plus Compact; 
}

text.mod {
    text-align:start;
    text-anchor:start;
}

text.space, text.dead, text.center, text.key {
    text-align:center;
    text-anchor:middle;
}

text.key { font-size:20px; }
text.dead { font-size:20px; }
text.mod { font-size:10px; }
text.big { font-size:14px; }

.key {
stroke-width:1.25;
}

.grey { fill:#949494; stroke:#696969; }
.grey { fill:#9f9f9f; stroke:#747474; }

.numpad { fill:#afaa9f; stroke:#747474; }

/* bootstrap colors */
.l5, .r5 { fill:#93CCEA; }
.l4, .r4 { fill:#7abeb3; }
.l3, .r3 { fill:#63b280; }
.l2, .r2 { fill:#4aa44a; }

/* btn bg hover, unused */
.l2, .r2 { stroke:#3071a9; }
.l3, .r3 { stroke:#449d44; }
.l4, .r4 { stroke:#c9302c; }
.l5, .r5 { stroke:#ec971f; }

/* btn border hover */
.l2, .r2 { stroke:#204d74; }
.l3, .r3 { stroke:#204d74; }
.l4, .r4 { stroke:#204d74; }
.l5, .r5 { stroke:#204d74; }

text.nubkey { fill:#eee; }

.pressed {
	<!--opacity:0.5;-->
	fill:#777;
}
    </style>

    <g
   id="basekey">
        <rect
   width="32"
   height="32"
   rx="4"
   class="key"
   id="rect4" />
	<!--rect width="20" height="20" x="6" y="6" /-->
        <!--rect width="2" height="2" fill="#000" x="15" y="15" /-->
    </g>

    </defs>
<sodipodi:namedview
   pagecolor="#ffffff"
   bordercolor="#666666"
   borderopacity="1"
   objecttolerance="10"
   gridtolerance="10"
   guidetolerance="10"
   inkscape:pageopacity="0"
   inkscape:pageshadow="2"
   inkscape:window-width="1614"
   inkscape:window-height="969"
   id="base"
   showgrid="false"
   inkscape:zoom="0.70961538"
   inkscape:cx="685.32105"
   inkscape:cy="241.15395"
   inkscape:window-x="78"
   inkscape:window-y="71"
   inkscape:window-maximized="0"
   inkscape:current-layer="Ebene_1"
   inkscape:showpageshadow="2"
   inkscape:pagecheckerboard="0"
   inkscape:deskcolor="#d1d1d1" />

<g
   transform="translate(3.5,3.5)"
   id="g148">
<use
   xlink:href="#basekey"
   y="0"
   x="0"
   class="l5"
   id="use9" />
<use
   xlink:href="#basekey"
   y="0"
   x="36"
   class="l5"
   id="use11" />
<use
   xlink:href="#basekey"
   y="0"
   x="72"
   class="l5"
   id="use13" />
<use
   xlink:href="#basekey"
   y="0"
   x="108"
   class="l4"
   id="use15" />
<use
   xlink:href="#basekey"
   y="0"
   x="144"
   class="l3"
   id="use17" />
<use
   xlink:href="#basekey"
   y="0"
   x="180"
   class="l2"
   id="use19" />
<use
   xlink:href="#basekey"
   y="0"
   x="216"
   class="l2"
   id="use21" />

<use
   xlink:href="#basekey"
   y="0"
   x="252"
   class="r2"
   id="use23" />
<use
   xlink:href="#basekey"
   y="0"
   x="288"
   class="r2"
   id="use25" />
<use
   xlink:href="#basekey"
   y="0"
   x="324"
   class="r3"
   id="use27" />
<use
   xlink:href="#basekey"
   y="0"
   x="360"
   class="r4"
   id="use29" />
<use
   xlink:href="#basekey"
   y="0"
   x="396"
   class="r5"
   id="use31" />
<use
   xlink:href="#basekey"
   y="0"
   x="432"
   class="r5"
   id="use33" />


<use
   xlink:href="#basekey"
   y="36"
   x="54"
   class="l5"
   id="use35" />
<use
   xlink:href="#basekey"
   y="36"
   x="90"
   class="l4"
   id="use37" />
<use
   xlink:href="#basekey"
   y="36"
   x="126"
   class="l3"
   id="use39" />
<use
   xlink:href="#basekey"
   y="36"
   x="162"
   class="l2"
   id="use41" />
<use
   xlink:href="#basekey"
   y="36"
   x="198"
   class="l2"
   id="use43" />

<use
   xlink:href="#basekey"
   y="36"
   x="234"
   class="r2"
   id="use45" />
<use
   xlink:href="#basekey"
   y="36"
   x="270"
   class="r2"
   id="use47" />
<use
   xlink:href="#basekey"
   y="36"
   x="306"
   class="r3"
   id="use49" />
<use
   xlink:href="#basekey"
   y="36"
   x="342"
   class="r4"
   id="use51" />
<use
   xlink:href="#basekey"
   y="36"
   x="378"
   class="r5"
   id="use53" />
<use
   xlink:href="#basekey"
   y="36"
   x="414"
   class="r5"
   id="use55" />
<use
   xlink:href="#basekey"
   y="36"
   x="450"
   class="r5"
   id="use57" />


<use
   xlink:href="#basekey"
   y="72"
   x="64"
   class="l5"
   id="use59" />
<use
   xlink:href="#basekey"
   y="72"
   x="100"
   class="l4"
   id="use61" />
<use
   xlink:href="#basekey"
   y="72"
   x="136"
   class="l3"
   id="use63" />
<use
   xlink:href="#basekey"
   y="72"
   x="172"
   class="l2"
   id="use65" />
<use
   xlink:href="#basekey"
   y="72"
   x="208"
   class="l2"
   id="use67" />

<use
   xlink:href="#basekey"
   y="72"
   x="244"
   class="r2"
   id="use69" />
<use
   xlink:href="#basekey"
   y="72"
   x="280"
   class="r2"
   id="use71" />
<use
   xlink:href="#basekey"
   y="72"
   x="316"
   class="r3"
   id="use73" />
<use
   xlink:href="#basekey"
   y="72"
   x="352"
   class="r4"
   id="use75" />
<use
   xlink:href="#basekey"
   y="72"
   x="388"
   class="r5"
   id="use77" />

    <use
   xlink:href="#basekey"
   y="72"
   x="460"
   class="r5"
   id="use79" />



<use
   xlink:href="#basekey"
   y="108"
   x="82"
   class="l5"
   id="use81" />
<use
   xlink:href="#basekey"
   y="108"
   x="118"
   class="l4"
   id="use83" />
<use
   xlink:href="#basekey"
   y="108"
   x="154"
   class="l3"
   id="use85" />
<use
   xlink:href="#basekey"
   y="108"
   x="190"
   class="l2"
   id="use87" />
<use
   xlink:href="#basekey"
   y="108"
   x="226"
   class="l2"
   id="use89" />

<use
   xlink:href="#basekey"
   y="108"
   x="262"
   class="r2"
   id="use91" />
<use
   xlink:href="#basekey"
   y="108"
   x="298"
   class="r2"
   id="use93" />
<use
   xlink:href="#basekey"
   y="108"
   x="334"
   class="r3"
   id="use95" />
<use
   xlink:href="#basekey"
   y="108"
   x="370"
   class="r4"
   id="use97" />
<use
   xlink:href="#basekey"
   y="108"
   x="406"
   class="r5"
   id="use99" />


<path
   id="backspace"
   class="key grey"
   style="fill:#9f9f9f;stroke:#747474;stroke-width:1.25"
   d="m 472,0 h 52 c 2.216,0 4,1.784 4,4 v 24 c 0,2.216 -1.784,4 -4,4 h -52 c -2.216,0 -4,-1.784 -4,-4 V 4 c 0,-2.216 1.784,-4 4,-4 z" />

<path
   id="tab"
   class="key grey"
   style="fill:#9f9f9f;stroke:#747474;stroke-width:1.25"
   d="m 4,36 h 42 c 2.216,0 4,1.784 4,4 v 24 c 0,2.216 -1.784,4 -4,4 H 4 C 1.784,68 0,66.216 0,64 V 40 c 0,-2.216 1.784,-4 4,-4 z" />

<path
   id="m3l"
   class="key grey pressed"
   style="fill:#777777;stroke:#747474;stroke-width:1.25"
   d="m 4,72 h 52 c 2.216,0 4,1.784 4,4 v 24 c 0,2.216 -1.784,4 -4,4 H 4 c -2.216,0 -4,-1.784 -4,-4 V 76 c 0,-2.216 1.784,-4 4,-4 z" />

<use
   id="m3r"
   xlink:href="#basekey"
   x="424"
   y="72"
   class="key grey pressed" />


<path
   id="shiftl"
   class="key grey"
   style="fill:#9f9f9f;stroke:#747474;stroke-width:1.25"
   d="m 4,108 h 32 c 2.216,0 4,1.784 4,4 v 24 c 0,2.216 -1.784,4 -4,4 H 4 c -2.216,0 -4,-1.784 -4,-4 v -24 c 0,-2.216 1.784,-4 4,-4 z" />
<path
   id="m4l"
   class="key grey"
   style="fill:#9f9f9f;stroke:#747474;stroke-width:1.25"
   d="m 48,108 h 26 c 2.216,0 4,1.784 4,4 v 24 c 0,2.216 -1.784,4 -4,4 H 48 c -2.216,0 -4,-1.784 -4,-4 v -24 c 0,-2.216 1.784,-4 4,-4 z" />
<path
   id="shiftr"
   class="key grey"
   style="fill:#9f9f9f;stroke:#747474;stroke-width:1.25"
   d="m 446,108 h 78 c 2.216,0 4,1.784 4,4 v 24 c 0,2.216 -1.784,4 -4,4 h -78 c -2.216,0 -4,-1.784 -4,-4 v -24 c 0,-2.216 1.784,-4 4,-4 z" />

<path
   id="ctrll"
   class="key grey"
   style="fill:#9f9f9f;stroke:#747474;stroke-width:1.25"
   d="m 4,144 h 42 c 2.216,0 4,1.784 4,4 v 24 c 0,2.216 -1.784,4 -4,4 H 4 c -2.216,0 -4,-1.784 -4,-4 v -24 c 0,-2.216 1.784,-4 4,-4 z" />
<path
   id="altl"
   class="key grey"
   style="fill:#9f9f9f;stroke:#747474;stroke-width:1.25"
   d="m 128,144 h 40 c 2.216,0 4,1.784 4,4 v 24 c 0,2.216 -1.784,4 -4,4 h -40 c -2.216,0 -4,-1.784 -4,-4 v -24 c 0,-2.216 1.784,-4 4,-4 z" />
<path
   id="space"
   class="key grey"
   style="fill:#9f9f9f;stroke:#747474;stroke-width:1.25"
   d="m 180,144 h 160 c 2.216,0 4,1.784 4,4 v 24 c 0,2.216 -1.784,4 -4,4 H 180 c -2.216,0 -4,-1.784 -4,-4 v -24 c 0,-2.216 1.784,-4 4,-4 z" />
<path
   id="m4r"
   class="key grey"
   style="fill:#9f9f9f;stroke:#747474;stroke-width:1.25"
   d="m 352,144 h 40 c 2.216,0 4,1.784 4,4 v 24 c 0,2.216 -1.784,4 -4,4 h -40 c -2.216,0 -4,-1.784 -4,-4 v -24 c 0,-2.216 1.784,-4 4,-4 z" />
<path
   id="ctrlr"
   class="key grey"
   style="fill:#9f9f9f;stroke:#747474;stroke-width:1.25"
   d="m 482,144 h 42 c 2.216,0 4,1.784 4,4 v 24 c 0,2.216 -1.784,4 -4,4 h -42 c -2.216,0 -4,-1.784 -4,-4 v -24 c 0,-2.216 1.784,-4 4,-4 z" />

<use
   xlink:href="#basekey"
   y="0"
   x="542"
   class="key numpad"
   id="use113" />
<use
   xlink:href="#basekey"
   y="0"
   x="578"
   class="key numpad"
   id="use115" />
<use
   xlink:href="#basekey"
   y="0"
   x="614"
   class="key numpad"
   id="use117" />
<use
   xlink:href="#basekey"
   y="0"
   x="650"
   class="key numpad"
   id="use119" />

<use
   xlink:href="#basekey"
   y="36"
   x="542"
   class="key numpad"
   id="use121" />
<use
   xlink:href="#basekey"
   y="36"
   x="578"
   class="key numpad"
   id="use123" />
<use
   xlink:href="#basekey"
   y="36"
   x="614"
   class="key numpad"
   id="use125" />
<path
   id="kpplus"
   class="key numpad"
   style="fill:#afaa9f;stroke:#747474;stroke-width:1.25"
   d="m 654,36 h 24 c 2.216,0 4,1.784 4,4 v 60 c 0,2.216 -1.784,4 -4,4 h -24 c -2.216,0 -4,-1.784 -4,-4 V 40 c 0,-2.216 1.784,-4 4,-4 z" />

<use
   xlink:href="#basekey"
   y="72"
   x="542"
   class="key numpad"
   id="use128" />
<use
   xlink:href="#basekey"
   y="72"
   x="578"
   class="key numpad"
   id="use130" />
<use
   xlink:href="#basekey"
   y="72"
   x="614"
   class="key numpad"
   id="use132" />

<use
   xlink:href="#basekey"
   y="108"
   x="542"
   class="key numpad"
   id="use134" />
<use
   xlink:href="#basekey"
   y="108"
   x="578"
   class="key numpad"
   id="use136" />
<use
   xlink:href="#basekey"
   y="108"
   x="614"
   class="key numpad"
   id="use138" />
<path
   id="kppenter"
   class="key numpad"
   style="fill:#afaa9f;stroke:#747474;stroke-width:1.25"
   d="m 654,108 h 24 c 2.216,0 4,1.784 4,4 v 60 c 0,2.216 -1.784,4 -4,4 h -24 c -2.216,0 -4,-1.784 -4,-4 v -60 c 0,-2.216 1.784,-4 4,-4 z" />

<path
   id="kp0"
   class="key numpad"
   style="fill:#afaa9f;stroke:#747474;stroke-width:1.25"
   d="m 546,144 h 60 c 2.216,0 4,1.784 4,4 v 24 c 0,2.216 -1.784,4 -4,4 h -60 c -2.216,0 -4,-1.784 -4,-4 v -24 c 0,-2.216 1.784,-4 4,-4 z" />
<use
   xlink:href="#basekey"
   y="144"
   x="614"
   class="key numpad"
   id="use142" />

<path
   fill-rule="evenodd"
   clip-rule="evenodd"
   d="M 10,32 H 4 A 4,4 0 0 1 0,28 V 4 A 4,4 0 0 1 4,0 h 34 a 4,4 0 0 1 4,4 v 60 a 4,4 0 0 1 -4,4 H 14 a 4,4 0 0 1 -4,-4 z"
   transform="translate(486,36)"
   id="return"
   class="key grey" />

<path
   id="nub"
   style="fill:#eeeeee"
   d="m 182,101 h 12 c 0.554,0 1,0.223 1,0.5 0,0.277 -0.446,0.5 -1,0.5 h -12 c -0.554,0 -1,-0.223 -1,-0.5 0,-0.277 0.446,-0.5 1,-0.5 z" />
<use
   y="0"
   x="108"
   xlink:href="#nub"
   id="use146" />
</g>

<g
   transform="translate(-0.5,-0.5)"
   id="g163">
<g
   aria-label="Mod3"
   id="m3ltxt"
   style="font-size:10px;line-height:0%;font-family:'DejaVu Sans';display:inline;fill:#111111"
   class="mod"><path
     d="m 10.981445,88.709961 h 1.469727 l 1.860351,4.960937 1.870118,-4.960937 h 1.469726 V 96 h -0.961914 v -6.401367 l -1.879883,5 h -0.991211 l -1.879882,-5 V 96 h -0.957032 z"
     id="path328" /><path
     d="m 21.689453,91.161133 q -0.722656,0 -1.142578,0.566406 -0.419922,0.561523 -0.419922,1.542969 0,0.981445 0.415039,1.547851 0.419922,0.561524 1.147461,0.561524 0.717774,0 1.137695,-0.566406 0.419922,-0.566407 0.419922,-1.542969 0,-0.97168 -0.419922,-1.538086 -0.419921,-0.571289 -1.137695,-0.571289 z m 0,-0.761719 q 1.171875,0 1.84082,0.761719 0.668946,0.761719 0.668946,2.109375 0,1.342773 -0.668946,2.109375 -0.668945,0.761719 -1.84082,0.761719 -1.176758,0 -1.845703,-0.761719 -0.664063,-0.766602 -0.664063,-2.109375 0,-1.347656 0.664063,-2.109375 0.668945,-0.761719 1.845703,-0.761719 z"
     id="path330" /><path
     d="m 29.287109,91.361328 v -2.958984 h 0.898438 V 96 h -0.898438 v -0.820313 q -0.283203,0.488282 -0.717773,0.72754 -0.429688,0.234375 -1.035156,0.234375 -0.991211,0 -1.616211,-0.791016 -0.620117,-0.791016 -0.620117,-2.080078 0,-1.289063 0.620117,-2.080078 0.625,-0.791016 1.616211,-0.791016 0.605468,0 1.035156,0.239258 0.43457,0.234375 0.717773,0.722656 z m -3.061523,1.90918 q 0,0.991211 0.405273,1.557617 0.410157,0.561523 1.123047,0.561523 0.712891,0 1.123047,-0.561523 0.410156,-0.566406 0.410156,-1.557617 0,-0.991211 -0.410156,-1.552735 -0.410156,-0.566406 -1.123047,-0.566406 -0.71289,0 -1.123047,0.566406 -0.405273,0.561524 -0.405273,1.552735 z"
     id="path332" /><path
     d="m 35.151367,92.069336 q 0.708008,0.151367 1.103516,0.629883 0.40039,0.478515 0.40039,1.18164 0,1.079102 -0.742187,1.669922 -0.742188,0.590821 -2.109375,0.590821 -0.458984,0 -0.947266,-0.09277 -0.483398,-0.08789 -1.000976,-0.268555 v -0.952148 q 0.410156,0.239258 0.898437,0.361328 0.488281,0.12207 1.020508,0.12207 0.927734,0 1.411133,-0.366211 0.488281,-0.36621 0.488281,-1.064453 0,-0.644531 -0.454101,-1.005859 -0.449219,-0.366211 -1.254883,-0.366211 h -0.84961 v -0.810547 h 0.888672 q 0.727539,0 1.113281,-0.288086 0.385743,-0.292969 0.385743,-0.839844 0,-0.561523 -0.400391,-0.859375 -0.395508,-0.302734 -1.137695,-0.302734 -0.405274,0 -0.869141,0.08789 -0.463867,0.08789 -1.020508,0.273437 v -0.878906 q 0.561524,-0.15625 1.049805,-0.234375 0.493164,-0.07813 0.927734,-0.07813 1.123047,0 1.777344,0.512695 0.654297,0.507813 0.654297,1.376953 0,0.605469 -0.34668,1.025391 -0.346679,0.415039 -0.986328,0.576172 z"
     id="path334" /></g>
<g
   aria-label="⇧"
   id="shiftltxt"
   style="font-size:14px;line-height:0%;font-family:'DejaVu Sans';display:inline;fill:#111111"
   class="mod big"><path
     d="m 17.683594,125.23438 -1.81836,-1.81836 -1.818359,1.81836 h 0.895508 v 7.08203 h 1.845703 v -7.08203 z m -5.291016,0.68359 3.472656,-3.47266 3.472657,3.47266 H 17.47168 V 133 h -3.212891 v -7.08203 z"
     id="path337" /></g>
<g
   aria-label="Strg"
   id="ctrlltxt"
   style="font-size:10px;line-height:0%;font-family:'DejaVu Sans';display:inline;fill:#111111"
   class="mod"><path
     d="m 15.351563,160.94922 v 0.96191 q -0.561524,-0.26855 -1.059571,-0.40039 -0.498047,-0.13183 -0.961914,-0.13183 -0.805664,0 -1.245117,0.3125 -0.43457,0.3125 -0.43457,0.88867 0,0.4834 0.288086,0.73242 0.292968,0.24414 1.103515,0.39551 l 0.595703,0.12207 q 1.103516,0.20996 1.625977,0.74219 0.527344,0.52734 0.527344,1.41601 0,1.05957 -0.712891,1.60645 -0.708008,0.54687 -2.080078,0.54687 -0.517578,0 -1.103516,-0.11719 -0.581054,-0.11718 -1.206054,-0.34668 v -1.01562 q 0.600586,0.33691 1.176757,0.50781 0.576172,0.1709 1.132813,0.1709 0.844726,0 1.303711,-0.33203 0.458984,-0.33203 0.458984,-0.94727 0,-0.53711 -0.332031,-0.83984 -0.327148,-0.30273 -1.079102,-0.4541 l -0.600586,-0.11719 q -1.103515,-0.21973 -1.596679,-0.68848 -0.493164,-0.46875 -0.493164,-1.30371 0,-0.96679 0.678711,-1.52343 0.683593,-0.55665 1.879882,-0.55665 0.512696,0 1.044922,0.0928 0.532227,0.0928 1.088868,0.27832 z"
     id="path340" /><path
     d="m 18.178711,160.97852 v 1.55273 h 1.850586 v 0.69824 h -1.850586 v 2.96875 q 0,0.66895 0.180664,0.85938 0.185547,0.19043 0.74707,0.19043 h 0.922852 V 168 h -0.922852 q -1.040039,0 -1.435547,-0.38574 -0.395507,-0.39063 -0.395507,-1.41602 v -2.96875 h -0.65918 v -0.69824 h 0.65918 v -1.55273 z"
     id="path342" /><path
     d="m 24.379883,163.37109 q -0.151367,-0.0879 -0.332031,-0.12695 -0.175782,-0.0439 -0.390625,-0.0439 -0.761719,0 -1.171875,0.49804 -0.405274,0.49317 -0.405274,1.4209 V 168 h -0.90332 v -5.46875 h 0.90332 v 0.84961 q 0.283203,-0.49805 0.737305,-0.73731 0.454101,-0.24414 1.103515,-0.24414 0.09277,0 0.205079,0.0147 0.112304,0.01 0.249023,0.0342 z"
     id="path344" /><path
     d="m 28.745117,165.20215 q 0,-0.97656 -0.405273,-1.51367 -0.400391,-0.53711 -1.12793,-0.53711 -0.722656,0 -1.12793,0.53711 -0.40039,0.53711 -0.40039,1.51367 0,0.97168 0.40039,1.50879 0.405274,0.53711 1.12793,0.53711 0.727539,0 1.12793,-0.53711 0.405273,-0.53711 0.405273,-1.50879 z m 0.898438,2.11914 q 0,1.39648 -0.620118,2.07519 -0.620117,0.6836 -1.899414,0.6836 -0.473632,0 -0.893554,-0.0732 -0.419922,-0.0684 -0.81543,-0.21485 v -0.87402 q 0.395508,0.21484 0.78125,0.31738 0.385742,0.10254 0.786133,0.10254 0.883789,0 1.323242,-0.46387 0.439453,-0.45898 0.439453,-1.3916 v -0.44433 q -0.27832,0.48339 -0.71289,0.72265 Q 27.597656,168 26.992187,168 q -1.005859,0 -1.621093,-0.7666 -0.615235,-0.7666 -0.615235,-2.03125 0,-1.26953 0.615235,-2.03613 0.615234,-0.76661 1.621093,-0.76661 0.605469,0 1.04004,0.23926 0.43457,0.23926 0.71289,0.72266 v -0.83008 h 0.898438 z"
     id="path346" /></g>

<g
   aria-label="M4"
   id="m4ltxt"
   style="font-size:10px;line-height:0%;font-family:'DejaVu Sans';display:inline;fill:#111111"
   class="mod"><path
     d="m 56.981445,124.70996 h 1.469727 l 1.860351,4.96094 1.870118,-4.96094 h 1.469726 V 132 h -0.961914 v -6.40137 l -1.879883,5 h -0.991211 l -1.879882,-5 V 132 h -0.957032 z"
     id="path349" /><path
     d="m 68.407227,125.56934 -2.490235,3.8916 h 2.490235 z m -0.25879,-0.85938 h 1.240235 v 4.75098 h 1.040039 v 0.82031 H 69.388672 V 132 h -0.981445 v -1.71875 h -3.291016 v -0.95215 z"
     id="path351" /></g>
<g
   aria-label="Alt"
   id="altltxt"
   style="font-size:10px;line-height:0%;font-family:'DejaVu Sans';display:inline;fill:#111111"
   class="mod"><path
     d="m 138.41797,161.68164 -1.33789,3.62793 h 2.68066 z m -0.55664,-0.97168 h 1.11816 L 141.75781,168 h -1.02539 l -0.66406,-1.87012 h -3.28613 L 136.11816,168 h -1.04004 z"
     id="path354" /><path
     d="m 142.7832,160.40234 h 0.89844 V 168 h -0.89844 z"
     id="path356" /><path
     d="m 146.4502,160.97852 v 1.55273 h 1.85058 v 0.69824 h -1.85058 v 2.96875 q 0,0.66895 0.18066,0.85938 0.18555,0.19043 0.74707,0.19043 h 0.92285 V 168 h -0.92285 q -1.04004,0 -1.43555,-0.38574 -0.39551,-0.39063 -0.39551,-1.41602 v -2.96875 h -0.65917 v -0.69824 h 0.65917 v -1.55273 z"
     id="path358" /></g>


<g
   aria-label="M3"
   id="m3rtxt"
   style="font-size:10px;line-height:0%;font-family:'DejaVu Sans';display:inline;fill:#111111"
   class="mod"><path
     d="m 436.98145,88.709961 h 1.46972 l 1.86035,4.960937 1.87012,-4.960937 h 1.46973 V 96 h -0.96192 v -6.401367 l -1.87988,5 h -0.99121 l -1.87988,-5 V 96 h -0.95703 z"
     id="path361" /><path
     d="m 448.68555,92.069336 q 0.708,0.151367 1.10351,0.629883 0.40039,0.478515 0.40039,1.18164 0,1.079102 -0.74218,1.669922 -0.74219,0.590821 -2.10938,0.590821 -0.45898,0 -0.94727,-0.09277 -0.48339,-0.08789 -1.00097,-0.268555 v -0.952148 q 0.41015,0.239258 0.89844,0.361328 0.48828,0.12207 1.0205,0.12207 0.92774,0 1.41114,-0.366211 0.48828,-0.36621 0.48828,-1.064453 0,-0.644531 -0.4541,-1.005859 -0.44922,-0.366211 -1.25489,-0.366211 h -0.84961 v -0.810547 h 0.88868 q 0.72753,0 1.11328,-0.288086 0.38574,-0.292969 0.38574,-0.839844 0,-0.561523 -0.40039,-0.859375 -0.39551,-0.302734 -1.1377,-0.302734 -0.40527,0 -0.86914,0.08789 -0.46386,0.08789 -1.02051,0.273437 v -0.878906 q 0.56153,-0.15625 1.04981,-0.234375 0.49316,-0.07813 0.92773,-0.07813 1.12305,0 1.77735,0.512695 0.65429,0.507813 0.65429,1.376953 0,0.605469 -0.34668,1.025391 -0.34667,0.415039 -0.98632,0.576172 z"
     id="path363" /></g>


<g
   aria-label="⇧"
   id="shiftrtxt"
   style="font-size:14px;line-height:0%;font-family:'DejaVu Sans';display:inline;fill:#111111"
   class="mod big"><path
     d="m 457.68359,125.23438 -1.81836,-1.81836 -1.81836,1.81836 h 0.89551 v 7.08203 h 1.84571 v -7.08203 z m -5.29101,0.68359 3.47265,-3.47266 3.47266,3.47266 h -1.86621 V 133 h -3.21289 v -7.08203 z"
     id="path366" /></g>
<g
   aria-label="Strg"
   id="ctrlrtxt"
   style="font-size:10px;line-height:0%;font-family:'DejaVu Sans';display:inline;fill:#111111"
   class="mod"><path
     d="m 495.35156,160.94922 v 0.96191 q -0.56152,-0.26855 -1.05957,-0.40039 -0.49804,-0.13183 -0.96191,-0.13183 -0.80567,0 -1.24512,0.3125 -0.43457,0.3125 -0.43457,0.88867 0,0.4834 0.28809,0.73242 0.29297,0.24414 1.10351,0.39551 l 0.59571,0.12207 q 1.10351,0.20996 1.62597,0.74219 0.52735,0.52734 0.52735,1.41601 0,1.05957 -0.7129,1.60645 -0.708,0.54687 -2.08007,0.54687 -0.51758,0 -1.10352,-0.11719 -0.58105,-0.11718 -1.20605,-0.34668 v -1.01562 q 0.60058,0.33691 1.17675,0.50781 0.57618,0.1709 1.13282,0.1709 0.84472,0 1.30371,-0.33203 0.45898,-0.33203 0.45898,-0.94727 0,-0.53711 -0.33203,-0.83984 -0.32715,-0.30273 -1.0791,-0.4541 l -0.60059,-0.11719 q -1.10351,-0.21973 -1.59668,-0.68848 -0.49316,-0.46875 -0.49316,-1.30371 0,-0.96679 0.67871,-1.52343 0.68359,-0.55665 1.87988,-0.55665 0.5127,0 1.04493,0.0928 0.53222,0.0928 1.08886,0.27832 z"
     id="path369" /><path
     d="m 498.17871,160.97852 v 1.55273 h 1.85059 v 0.69824 h -1.85059 v 2.96875 q 0,0.66895 0.18066,0.85938 0.18555,0.19043 0.74708,0.19043 h 0.92285 V 168 h -0.92285 q -1.04004,0 -1.43555,-0.38574 -0.39551,-0.39063 -0.39551,-1.41602 v -2.96875 h -0.65918 v -0.69824 h 0.65918 v -1.55273 z"
     id="path371" /><path
     d="m 504.37988,163.37109 q -0.15136,-0.0879 -0.33203,-0.12695 -0.17578,-0.0439 -0.39062,-0.0439 -0.76172,0 -1.17188,0.49804 -0.40527,0.49317 -0.40527,1.4209 V 168 h -0.90332 v -5.46875 h 0.90332 v 0.84961 q 0.2832,-0.49805 0.7373,-0.73731 0.4541,-0.24414 1.10352,-0.24414 0.0928,0 0.20508,0.0147 0.1123,0.01 0.24902,0.0342 z"
     id="path373" /><path
     d="m 508.74512,165.20215 q 0,-0.97656 -0.40528,-1.51367 -0.40039,-0.53711 -1.12793,-0.53711 -0.72265,0 -1.12793,0.53711 -0.40039,0.53711 -0.40039,1.51367 0,0.97168 0.40039,1.50879 0.40528,0.53711 1.12793,0.53711 0.72754,0 1.12793,-0.53711 0.40528,-0.53711 0.40528,-1.50879 z m 0.89843,2.11914 q 0,1.39648 -0.62011,2.07519 -0.62012,0.6836 -1.89942,0.6836 -0.47363,0 -0.89355,-0.0732 -0.41992,-0.0684 -0.81543,-0.21485 v -0.87402 q 0.39551,0.21484 0.78125,0.31738 0.38574,0.10254 0.78613,0.10254 0.88379,0 1.32324,-0.46387 0.43946,-0.45898 0.43946,-1.3916 v -0.44433 q -0.27832,0.48339 -0.71289,0.72265 Q 507.59766,168 506.99219,168 q -1.00586,0 -1.6211,-0.7666 -0.61523,-0.7666 -0.61523,-2.03125 0,-1.26953 0.61523,-2.03613 0.61524,-0.76661 1.6211,-0.76661 0.60547,0 1.04004,0.23926 0.43457,0.23926 0.71289,0.72266 v -0.83008 h 0.89843 z"
     id="path375" /></g>
<g
   aria-label="Mod4"
   id="m4rtxt"
   style="font-size:10px;line-height:0%;font-family:'DejaVu Sans';display:inline;fill:#111111"
   class="mod"><path
     d="m 357.98145,160.70996 h 1.46972 l 1.86035,4.96094 1.87012,-4.96094 h 1.46973 V 168 h -0.96192 v -6.40137 l -1.87988,5 h -0.99121 l -1.87988,-5 V 168 h -0.95703 z"
     id="path378" /><path
     d="m 368.68945,163.16113 q -0.72265,0 -1.14258,0.56641 -0.41992,0.56152 -0.41992,1.54297 0,0.98144 0.41504,1.54785 0.41992,0.56152 1.14746,0.56152 0.71778,0 1.1377,-0.5664 0.41992,-0.56641 0.41992,-1.54297 0,-0.97168 -0.41992,-1.53809 -0.41992,-0.57129 -1.1377,-0.57129 z m 0,-0.76172 q 1.17188,0 1.84082,0.76172 0.66895,0.76172 0.66895,2.10938 0,1.34277 -0.66895,2.10937 -0.66894,0.76172 -1.84082,0.76172 -1.17675,0 -1.8457,-0.76172 -0.66406,-0.7666 -0.66406,-2.10937 0,-1.34766 0.66406,-2.10938 0.66895,-0.76172 1.8457,-0.76172 z"
     id="path380" /><path
     d="m 376.28711,163.36133 v -2.95899 h 0.89844 V 168 h -0.89844 v -0.82031 q -0.2832,0.48828 -0.71777,0.72754 -0.42969,0.23437 -1.03516,0.23437 -0.99121,0 -1.61621,-0.79101 -0.62012,-0.79102 -0.62012,-2.08008 0,-1.28906 0.62012,-2.08008 0.625,-0.79102 1.61621,-0.79102 0.60547,0 1.03516,0.23926 0.43457,0.23438 0.71777,0.72266 z m -3.06152,1.90918 q 0,0.99121 0.40527,1.55761 0.41016,0.56153 1.12305,0.56153 0.71289,0 1.12304,-0.56153 0.41016,-0.5664 0.41016,-1.55761 0,-0.99121 -0.41016,-1.55274 -0.41015,-0.5664 -1.12304,-0.5664 -0.71289,0 -1.12305,0.5664 -0.40527,0.56153 -0.40527,1.55274 z"
     id="path382" /><path
     d="m 381.87305,161.56934 -2.49024,3.8916 h 2.49024 z m -0.25879,-0.85938 h 1.24023 v 4.75098 h 1.04004 v 0.82031 h -1.04004 V 168 h -0.98144 v -1.71875 h -3.29102 v -0.95215 z"
     id="path384" /></g>
<g
   aria-label="Leerzeichen"
   id="text159"
   style="font-size:10px;line-height:0%;font-family:'DejaVu Sans';text-align:center;text-anchor:middle;display:inline;fill:#111111"
   class="mod space"><path
     d="m 233.82275,160.70996 h 0.98633 v 6.45996 h 3.54981 V 168 h -4.53614 z"
     id="path387" /><path
     d="m 243.85693,165.04102 v 0.43945 h -4.13086 q 0.0586,0.92773 0.55664,1.41601 0.50293,0.4834 1.39649,0.4834 0.51758,0 1.00098,-0.12695 0.48828,-0.12695 0.96679,-0.38086 v 0.84961 q -0.4834,0.20508 -0.99121,0.3125 -0.50781,0.10742 -1.03027,0.10742 -1.3086,0 -2.0752,-0.76172 -0.76172,-0.76172 -0.76172,-2.06054 0,-1.34278 0.72266,-2.12891 0.72754,-0.79102 1.95801,-0.79102 1.10351,0 1.74316,0.71289 0.64453,0.70801 0.64453,1.92872 z m -0.89843,-0.26368 q -0.01,-0.7373 -0.41504,-1.17675 -0.40039,-0.43946 -1.06446,-0.43946 -0.75195,0 -1.20605,0.42481 -0.44922,0.4248 -0.51758,1.19629 z"
     id="path389" /><path
     d="m 250.00928,165.04102 v 0.43945 h -4.13086 q 0.0586,0.92773 0.55664,1.41601 0.50293,0.4834 1.39648,0.4834 0.51758,0 1.00098,-0.12695 0.48828,-0.12695 0.9668,-0.38086 v 0.84961 q -0.4834,0.20508 -0.99121,0.3125 -0.50782,0.10742 -1.03028,0.10742 -1.30859,0 -2.07519,-0.76172 -0.76172,-0.76172 -0.76172,-2.06054 0,-1.34278 0.72265,-2.12891 0.72754,-0.79102 1.95801,-0.79102 1.10352,0 1.74317,0.71289 0.64453,0.70801 0.64453,1.92872 z m -0.89844,-0.26368 q -0.01,-0.7373 -0.41504,-1.17675 -0.40039,-0.43946 -1.06445,-0.43946 -0.75196,0 -1.20606,0.42481 -0.44922,0.4248 -0.51758,1.19629 z"
     id="path391" /><path
     d="m 254.65283,163.37109 q -0.15137,-0.0879 -0.33203,-0.12695 -0.17578,-0.0439 -0.39062,-0.0439 -0.76172,0 -1.17188,0.49804 -0.40527,0.49317 -0.40527,1.4209 V 168 h -0.90332 v -5.46875 h 0.90332 v 0.84961 q 0.2832,-0.49805 0.7373,-0.73731 0.4541,-0.24414 1.10352,-0.24414 0.0928,0 0.20508,0.0147 0.1123,0.01 0.24902,0.0342 z"
     id="path393" /><path
     d="m 255.20459,162.53125 h 4.26758 v 0.82031 l -3.37891,3.93067 h 3.37891 V 168 h -4.38965 v -0.82031 l 3.37891,-3.93067 h -3.25684 z"
     id="path395" /><path
     d="m 265.52197,165.04102 v 0.43945 h -4.13086 q 0.0586,0.92773 0.55664,1.41601 0.50293,0.4834 1.39649,0.4834 0.51758,0 1.00097,-0.12695 0.48829,-0.12695 0.9668,-0.38086 v 0.84961 q -0.4834,0.20508 -0.99121,0.3125 -0.50781,0.10742 -1.03027,0.10742 -1.3086,0 -2.0752,-0.76172 -0.76172,-0.76172 -0.76172,-2.06054 0,-1.34278 0.72266,-2.12891 0.72754,-0.79102 1.95801,-0.79102 1.10351,0 1.74316,0.71289 0.64453,0.70801 0.64453,1.92872 z m -0.89843,-0.26368 q -0.01,-0.7373 -0.41504,-1.17675 -0.40039,-0.43946 -1.06446,-0.43946 -0.75195,0 -1.20605,0.42481 -0.44922,0.4248 -0.51758,1.19629 z"
     id="path397" /><path
     d="m 266.99658,162.53125 h 0.89844 V 168 h -0.89844 z m 0,-2.12891 h 0.89844 v 1.1377 h -0.89844 z"
     id="path399" /><path
     d="m 273.71045,162.74121 v 0.83984 q -0.38086,-0.20996 -0.7666,-0.3125 -0.38086,-0.10742 -0.77149,-0.10742 -0.87402,0 -1.35742,0.55664 -0.4834,0.55176 -0.4834,1.55274 0,1.00097 0.4834,1.55761 0.4834,0.55176 1.35742,0.55176 0.39063,0 0.77149,-0.10254 0.38574,-0.10742 0.7666,-0.31738 v 0.83008 q -0.37598,0.17578 -0.78125,0.26367 -0.40039,0.0879 -0.85449,0.0879 -1.23535,0 -1.96289,-0.77637 -0.72754,-0.77636 -0.72754,-2.09472 0,-1.33789 0.73242,-2.10449 0.7373,-0.76661 2.0166,-0.76661 0.41504,0 0.81055,0.0879 0.39551,0.083 0.7666,0.25391 z"
     id="path401" /><path
     d="M 279.81885,164.69922 V 168 h -0.89844 v -3.27148 q 0,-0.77637 -0.30273,-1.16211 -0.30274,-0.38575 -0.90821,-0.38575 -0.72754,0 -1.14746,0.46387 -0.41992,0.46387 -0.41992,1.26465 V 168 h -0.90332 v -7.59766 h 0.90332 v 2.97852 q 0.32227,-0.49316 0.75684,-0.73731 0.43945,-0.24414 1.01074,-0.24414 0.94238,0 1.42578,0.58594 0.4834,0.58106 0.4834,1.71387 z"
     id="path403" /><path
     d="m 286.28857,165.04102 v 0.43945 h -4.13086 q 0.0586,0.92773 0.55665,1.41601 0.50293,0.4834 1.39648,0.4834 0.51758,0 1.00098,-0.12695 0.48828,-0.12695 0.96679,-0.38086 v 0.84961 q -0.4834,0.20508 -0.99121,0.3125 -0.50781,0.10742 -1.03027,0.10742 -1.30859,0 -2.0752,-0.76172 -0.76172,-0.76172 -0.76172,-2.06054 0,-1.34278 0.72266,-2.12891 0.72754,-0.79102 1.95801,-0.79102 1.10351,0 1.74316,0.71289 0.64453,0.70801 0.64453,1.92872 z m -0.89843,-0.26368 q -0.01,-0.7373 -0.41504,-1.17675 -0.40039,-0.43946 -1.06446,-0.43946 -0.75195,0 -1.20605,0.42481 -0.44922,0.4248 -0.51758,1.19629 z"
     id="path405" /><path
     d="M 292.30908,164.69922 V 168 h -0.89844 v -3.27148 q 0,-0.77637 -0.30273,-1.16211 -0.30273,-0.38575 -0.9082,-0.38575 -0.72754,0 -1.14746,0.46387 -0.41993,0.46387 -0.41993,1.26465 V 168 H 287.729 v -5.46875 h 0.90332 v 0.84961 q 0.32227,-0.49316 0.75684,-0.73731 0.43945,-0.24414 1.01074,-0.24414 0.94239,0 1.42578,0.58594 0.4834,0.58106 0.4834,1.71387 z"
     id="path407" /></g>

<g
   aria-label="⏎"
   id="returntxt"
   style="font-size:14px;line-height:0%;font-family:'DejaVu Sans';display:inline;fill:#111111"
   class="mod big"><path
     d="m 498.84863,61.083984 -3.47265,-3.472656 3.47265,-3.472656 v 1.866211 h 3.87598 v -4.210938 h 3.21289 l -0.007,7.423828 h -7.08203 z m -0.68359,-4.395507 v -0.895508 l -1.81836,1.818359 1.81836,1.818359 V 58.53418 h 7.08203 l 0.007,-6.056641 h -1.84571 l -0.007,4.210938 z"
     id="path410" /></g>
<g
   aria-label="⌫"
   id="backspacetxt"
   style="font-size:10px;line-height:0%;font-family:'DejaVu Sans';display:inline;fill:#111111"
   class="mod"><path
     d="m 493.37891,23 h -9.5752 l -3.79883,-3.798828 3.79883,-3.798828 h 9.5752 z m -0.72266,-6.875 h -0.68848 l -3.07617,3.076172 3.07617,3.076172 h 0.68848 z m -6.8457,0 2.56347,2.563477 2.56348,-2.563477 z m 5.12695,6.152344 -2.56348,-2.563477 -2.56347,2.563477 z M 484.79492,16.125 h -0.69336 l -3.07617,3.085937 3.07617,3.066407 h 0.69336 l 3.07617,-3.076172 z"
     id="path413" /></g>
</g>

<g
   transform="translate(55,26)"
   id="g187">
	<g
   aria-label="¹"
   id="text165"
   style="font-size:20px;line-height:0%;font-family:'Linux Libertine';text-align:center;text-anchor:middle;display:inline;fill:#111111;stroke-width:1.25"
   class="key"><path
     d="m 1.2999962,-16.88 v 8.56 h -1.42000001 v -5.52 q 0,-0.52 0.02,-0.94 0.04,-0.42 0.06,-0.84 -0.2,0.18 -0.44,0.4 -0.24,0.2 -0.5,0.38 l -1.07999999,0.78 -0.7,-0.98 2.59999999,-1.84 z"
     id="path416" /></g>
	<g
   aria-label="²"
   id="text167"
   style="font-size:20px;line-height:0%;font-family:'Linux Libertine';text-align:center;text-anchor:middle;display:inline;fill:#111111;stroke-width:1.25"
   class="key"><path
     d="m 38.619996,-8.32 h -5.64 V -9.4 l 2.3,-2.24 q 0.82,-0.78 1.22,-1.26 0.42,-0.5 0.56,-0.88 0.16,-0.4 0.16,-0.84 0,-0.64 -0.38,-0.96 -0.36,-0.32 -0.96,-0.32 -0.6,0 -1.1,0.24 -0.48,0.22 -1,0.62 l -0.7,-0.92 q 0.58,-0.5 1.26,-0.8 0.7,-0.3 1.56,-0.3 1.28,0 2,0.64 0.74,0.62 0.74,1.72 0,0.98 -0.6,1.76 -0.58,0.78 -1.7,1.84 l -1.62,1.54 h 3.9 z"
     id="path419" /></g>
	<g
   aria-label="³"
   id="text169"
   style="font-size:20px;line-height:0%;font-family:'Linux Libertine';text-align:center;text-anchor:middle;display:inline;fill:#111111;stroke-width:1.25"
   class="key"><path
     d="m 71.799996,-17.06 q 1.42,0 2.14,0.62 0.72,0.62 0.72,1.58 0,0.8 -0.44,1.32 -0.42,0.52 -1.02,0.72 v 0.06 q 0.78,0.14 1.24,0.66 0.48,0.5 0.48,1.32 0,1.16 -0.84,1.9 -0.84,0.72 -2.62,0.72 -0.74,0 -1.38,-0.12 -0.64,-0.14 -1.24,-0.44 v -1.26 q 1.4,0.68 2.64,0.68 1.04,0 1.52,-0.4 0.48,-0.42 0.48,-1.12 0,-0.72 -0.58,-1.04 -0.58,-0.34 -1.62,-0.34 h -1.14 v -1.1 h 1.14 q 1,0 1.46,-0.38 0.48,-0.4 0.48,-1.02 0,-0.64 -0.42,-0.92 -0.4,-0.3 -0.98,-0.3 -0.62,0 -1.16,0.22 -0.52,0.2 -1.06,0.54 l -0.72,-0.92 q 0.62,-0.46 1.3,-0.72 0.7,-0.26 1.62,-0.26 z"
     id="path422" /></g>
	<g
   aria-label="›"
   id="text171"
   style="font-size:20px;line-height:0%;font-family:'Linux Libertine';text-align:center;text-anchor:middle;display:inline;fill:#111111;stroke-width:1.25"
   class="key"><path
     d="m 106.92001,-9.42 3.38,4.02 v 0.26 l -3.38,4.02 -1.24,-0.74 2.8,-3.42 -2.8,-3.42 z"
     id="path425" /></g>
	<g
   aria-label="‹"
   id="text173"
   style="font-size:20px;line-height:0%;font-family:'Linux Libertine';text-align:center;text-anchor:middle;display:inline;fill:#111111;stroke-width:1.25"
   class="key"><path
     d="m 141.70001,-5.4 3.36,-4.02 1.26,0.72 -2.8,3.42 2.8,3.42 -1.26,0.74 -3.36,-4.02 z"
     id="path428" /></g>

	<g
   aria-label="¢"
   id="text175"
   style="font-size:20px;line-height:0%;font-family:'Linux Libertine';text-align:center;text-anchor:middle;display:inline;fill:#111111;stroke-width:1.25"
   class="key"><path
     d="m 181.33999,-12.88 q 0.76,0.02 1.44,0.2 0.7,0.16 1.2,0.38 l -0.52,1.46 q -0.52,-0.2 -1.18,-0.36 -0.66,-0.16 -1.2,-0.16 -1.64,0 -2.42,1.02 -0.76,1 -0.76,3.08 0,2.08 0.78,3.04 0.8,0.94 2.32,0.94 0.88,0 1.52,-0.16 0.66,-0.18 1.28,-0.44 v 1.54 q -0.54,0.26 -1.12,0.42 -0.58,0.14 -1.36,0.18 V 0.2 h -1.34 v -2 q -1.18,-0.18 -2.06,-0.78 -0.86,-0.6 -1.34,-1.74 -0.48,-1.14 -0.48,-2.92 0,-1.82 0.48,-2.98 0.48,-1.16 1.36,-1.78 0.88,-0.62 2.04,-0.8 v -1.68 h 1.36 z"
     id="path431" /></g>
	<g
   aria-label="¥"
   id="text177"
   style="font-size:20px;line-height:0%;font-family:'Linux Libertine';text-align:center;text-anchor:middle;display:inline;fill:#111111;stroke-width:1.25"
   class="key"><path
     d="m 215.97999,-7.3 3.58,-6.98 h 1.84 l -4.02,7.5 h 2.48 v 1.28 h -3.02 v 1.64 h 3.02 v 1.28 h -3.02 V 0 h -1.72 v -2.58 h -3.02 v -1.28 h 3.02 V -5.5 h -3.02 v -1.28 h 2.44 l -3.98,-7.5 h 1.86 z"
     id="path434" /></g>
	<g
   aria-label="‚"
   id="text179"
   style="font-size:20px;line-height:0%;font-family:'Linux Libertine';text-align:center;text-anchor:middle;display:inline;fill:#111111;stroke-width:1.25"
   class="key"><path
     d="m 253.14,-2.1 q -0.26,1.04 -0.76,2.32 -0.48,1.3 -0.96,2.36 h -1.3 q 0.2,-0.76 0.38,-1.64 0.2,-0.86 0.36,-1.7 0.16,-0.86 0.26,-1.56 H 253 Z"
     id="path437" /></g>
	<g
   aria-label="‘"
   id="text181"
   style="font-size:20px;line-height:0%;font-family:'Linux Libertine';text-align:center;text-anchor:middle;display:inline;fill:#111111;stroke-width:1.25"
   class="key"><path
     d="m 286.49001,-9.6 q 0.28,-1.06 0.76,-2.34 0.48,-1.28 0.96,-2.34 h 1.3 q -0.18,0.76 -0.38,1.64 -0.2,0.86 -0.36,1.72 -0.16,0.84 -0.26,1.54 h -1.9 z"
     id="path440" /></g>
	<g
   aria-label="’"
   id="text183"
   style="font-size:20px;line-height:0%;font-family:'Linux Libertine';text-align:center;text-anchor:middle;display:inline;fill:#111111;stroke-width:1.25"
   class="key"><path
     d="m 325.51001,-14.06 q -0.26,1.04 -0.76,2.34 -0.48,1.28 -0.96,2.34 h -1.3 q 0.2,-0.76 0.38,-1.62 0.2,-0.88 0.36,-1.72 0.16,-0.86 0.26,-1.56 h 1.88 z"
     id="path443" /></g>
	<g
   id="text185"
   class="key"
   style="font-size:20px;font-family:'Linux Libertine';text-align:center;text-anchor:middle;display:inline;fill:#111111;stroke-width:1.25" />
</g>


<g
   aria-label="⇥"
   id="text189"
   style="font-size:14px;line-height:0%;font-family:'DejaVu Sans';display:inline;fill:#111111"
   class="mod big"><path
     d="m 10.799805,55.030273 h 7.123047 l -1.59961,-1.599609 0.820313,-0.820312 2.693359,2.693359 v -2.625 h 1.162109 v 5.878906 h -1.162109 v -2.638672 l -2.693359,2.69336 -0.820313,-0.820313 1.59961,-1.599609 h -7.123047 z"
     id="path447" /></g>

<g
   transform="translate(73,62)"
   id="g213">
	<g
   aria-label="…"
   id="text191"
   style="font-size:20px;line-height:0%;font-family:'Linux Libertine';text-align:center;text-anchor:middle;display:inline;fill:#111111;stroke-width:1.25"
   class="key"><path
     d="m -6.4700037,-1.08 q 0,-0.74 0.36,-1.04 0.36,-0.3 0.86,-0.3 0.52,0 0.88,0.3 0.38,0.3 0.38,1.04 0,0.72 -0.38,1.04 -0.36,0.32 -0.88,0.32 -0.5,0 -0.86,-0.32 -0.36,-0.32 -0.36,-1.04 z m 5.24,0 q 0,-0.74 0.36000004,-1.04 0.36,-0.3 0.86,-0.3 0.52,0 0.88,0.3 0.37999996,0.3 0.37999996,1.04 0,0.72 -0.37999996,1.04 -0.36,0.32 -0.88,0.32 -0.5,0 -0.86,-0.32 -0.36000004,-0.32 -0.36000004,-1.04 z m 5.22,0 q 0,-0.74 0.36,-1.04 0.36,-0.3 0.86,-0.3 0.52,0 0.88,0.3 0.38,0.3 0.38,1.04 0,0.72 -0.38,1.04 -0.36,0.32 -0.88,0.32 -0.5,0 -0.86,-0.32 -0.36,-0.32 -0.36,-1.04 z"
     id="path450" /></g>
	<g
   aria-label="_"
   id="text193"
   style="font-size:20px;line-height:0%;font-family:'Linux Libertine';text-align:center;text-anchor:middle;display:inline;fill:#111111;stroke-width:1.25"
   class="key"><path
     d="m 40.479998,3.08 h -8.96 V 1.8 h 8.96 z"
     id="path453" /></g>
	<g
   aria-label="["
   id="text195"
   style="font-size:20px;line-height:0%;font-family:'Linux Libertine';text-align:center;text-anchor:middle;display:inline;fill:#111111;stroke-width:1.25"
   class="key"><path
     d="m 74.789995,3.16 h -4.48 v -17.44 h 4.48 v 1.44 h -2.76 V 1.72 h 2.76 z"
     id="path456" /></g>
	<g
   aria-label="]"
   id="text197"
   style="font-size:20px;line-height:0%;font-family:'Linux Libertine';text-align:center;text-anchor:middle;display:inline;fill:#111111;stroke-width:1.25"
   class="key"><path
     d="m 105.21,1.72 h 2.76 v -14.56 h -2.76 v -1.44 h 4.48 V 3.16 h -4.48 z"
     id="path459" /></g>
	<g
   aria-label="^"
   id="text199"
   style="font-size:20px;line-height:0%;font-family:'Linux Libertine';text-align:center;text-anchor:middle;display:inline;fill:#111111;stroke-width:1.25"
   class="key"><path
     d="m 139.03999,-5.34 4.24,-9.04 h 1 l 4.68,9.04 h -1.56 l -3.6,-7.18 -3.2,7.18 z"
     id="path462" /></g>

	<g
   aria-label="!"
   id="text201"
   style="font-size:20px;line-height:0%;font-family:'Linux Libertine';text-align:center;text-anchor:middle;display:inline;fill:#111111;stroke-width:1.25"
   class="key"><path
     d="m 180.57001,-4.02 h -1.14 l -0.5,-10.26 h 2.14 z m -1.82,2.94 q 0,-0.74 0.36,-1.04 0.36,-0.3 0.88,-0.3 0.5,0 0.86,0.3 0.38,0.3 0.38,1.04 0,0.72 -0.38,1.04 -0.36,0.32 -0.86,0.32 -0.52,0 -0.88,-0.32 -0.36,-0.32 -0.36,-1.04 z"
     id="path465" /></g>
	<g
   aria-label="&lt;"
   id="text203"
   style="font-size:20px;line-height:0%;font-family:'Linux Libertine';text-align:center;text-anchor:middle;display:inline;fill:#111111;stroke-width:1.25"
   class="key"><path
     d="m 220.69999,-2.32 -9.42,-4.14 v -1 l 9.42,-4.7 v 1.56 l -7.54,3.56 7.54,3.16 z"
     id="path468" /></g>
	<g
   aria-label="&gt;"
   id="text205"
   style="font-size:20px;line-height:0%;font-family:'Linux Libertine';text-align:center;text-anchor:middle;display:inline;fill:#111111;stroke-width:1.25"
   class="key"><path
     d="m 247.27999,-3.88 7.54,-3.14 -7.54,-3.58 v -1.56 l 9.42,4.7 v 1 l -9.42,4.14 z"
     id="path471" /></g>
	<g
   aria-label="="
   id="text207"
   style="font-size:20px;line-height:0%;font-family:'Linux Libertine';text-align:center;text-anchor:middle;display:inline;fill:#111111;stroke-width:1.25"
   class="key"><path
     d="m 283.39999,-8.32 v -1.42 h 9.16 v 1.42 z m 0,3.98 v -1.42 h 9.16 v 1.42 z"
     id="path474" /></g>
	<g
   aria-label="&amp;"
   id="text209"
   style="font-size:20px;line-height:0%;font-family:'Linux Libertine';text-align:center;text-anchor:middle;display:inline;fill:#111111;stroke-width:1.25"
   class="key"><path
     d="m 322.76,-14.5 q 1.6,0 2.52,0.82 0.94,0.8 0.94,2.26 0,1.26 -0.82,2.14 -0.8,0.88 -2.04,1.6 l 3.86,3.72 q 0.52,-0.62 0.84,-1.42 0.34,-0.82 0.56,-1.76 h 1.78 q -0.32,1.28 -0.8,2.38 -0.48,1.1 -1.24,1.92 L 331.28,0 h -2.38 l -1.74,-1.68 q -0.94,0.84 -2.1,1.36 -1.16,0.52 -2.82,0.52 -2.06,0 -3.28,-1.02 -1.22,-1.02 -1.22,-2.9 0,-1.54 0.82,-2.46 0.84,-0.94 2.26,-1.74 -0.64,-0.72 -1.2,-1.54 -0.54,-0.82 -0.54,-1.92 0,-1.48 0.98,-2.3 1,-0.82 2.7,-0.82 z m -0.06,1.44 q -0.84,0 -1.38,0.44 -0.52,0.44 -0.52,1.22 0,0.72 0.38,1.34 0.38,0.6 1.1,1.34 1.18,-0.68 1.68,-1.28 0.52,-0.62 0.52,-1.42 0,-0.72 -0.48,-1.18 -0.48,-0.46 -1.3,-0.46 z m -0.82,6.24 q -1.08,0.64 -1.7,1.3 -0.6,0.66 -0.6,1.74 0,1.1 0.74,1.76 0.74,0.66 1.98,0.66 1.28,0 2.2,-0.42 0.92,-0.42 1.54,-1 z"
     id="path477" /></g>
	<g
   aria-label="@"
   id="text211"
   style="font-size:20px;line-height:0%;font-family:'Linux Libertine';text-align:center;text-anchor:middle;display:inline;fill:#111111;stroke-width:1.25"
   class="key"><path
     d="m 367.83,-7.14 q 0,0.92 -0.22,1.8 -0.2,0.88 -0.64,1.6 -0.44,0.7 -1.08,1.14 -0.64,0.42 -1.52,0.42 -0.92,0 -1.46,-0.52 -0.52,-0.54 -0.64,-1.22 h -0.1 q -0.36,0.74 -1.06,1.24 -0.7,0.5 -1.76,0.5 -1.52,0 -2.36,-1.02 -0.82,-1.02 -0.82,-2.7 0,-1.32 0.52,-2.32 0.52,-1.02 1.46,-1.6 0.96,-0.58 2.26,-0.58 0.88,0 1.72,0.16 0.86,0.14 1.34,0.32 l -0.2,4.06 q -0.02,0.36 -0.02,0.52 0,0.14 0,0.2 0,1.04 0.36,1.38 0.38,0.34 0.88,0.34 0.62,0 1.04,-0.5 0.44,-0.52 0.66,-1.36 0.24,-0.86 0.24,-1.88 0,-1.86 -0.76,-3.14 -0.74,-1.3 -2.06,-1.98 -1.3,-0.68 -2.96,-0.68 -2.28,0 -3.86,0.94 -1.56,0.94 -2.38,2.6 -0.8,1.64 -0.8,3.76 0,2.96 1.56,4.54 1.56,1.58 4.5,1.58 1.22,0 2.32,-0.28 1.12,-0.26 1.98,-0.58 v 1.36 q -0.86,0.36 -1.94,0.58 -1.06,0.24 -2.36,0.24 -2.36,0 -4.04,-0.88 -1.68,-0.88 -2.58,-2.52 -0.88,-1.66 -0.88,-3.98 0,-1.86 0.58,-3.44 0.58,-1.6 1.68,-2.76 1.1,-1.18 2.66,-1.82 1.58,-0.66 3.56,-0.66 2.08,0 3.7,0.86 1.62,0.86 2.54,2.46 0.94,1.6 0.94,3.82 z m -10.1,1.28 q 0,1.28 0.5,1.86 0.52,0.58 1.38,0.58 1.12,0 1.6,-0.84 0.5,-0.84 0.58,-2.18 l 0.12,-2.5 q -0.26,-0.08 -0.66,-0.14 -0.4,-0.06 -0.82,-0.06 -0.98,0 -1.58,0.48 -0.6,0.48 -0.86,1.24 -0.26,0.74 -0.26,1.56 z"
     id="path480" /></g>
</g>


<g
   transform="translate(84,98)"
   id="g235">
	<g
   aria-label="\"
   id="text215"
   style="font-size:20px;line-height:0%;font-family:'Linux Libertine';text-align:center;text-anchor:middle;display:inline;fill:#111111;stroke-width:1.25"
   class="key"><path
     d="m -1.7999974,-14.28 5.34,14.28 h -1.74 l -5.32,-14.28 z"
     id="path483" /></g>
	<g
   aria-label="/"
   id="text217"
   style="font-size:20px;line-height:0%;font-family:'Linux Libertine';text-align:center;text-anchor:middle;display:inline;fill:#111111;stroke-width:1.25"
   class="key"><path
     d="m 39.520003,-14.28 -5.32,14.28 h -1.72 l 5.32,-14.28 z"
     id="path486" /></g>
	<g
   aria-label="{"
   id="text219"
   style="font-size:20px;line-height:0%;font-family:'Linux Libertine';text-align:center;text-anchor:middle;display:inline;fill:#111111;stroke-width:1.25"
   class="key"><path
     d="m 75.160008,3.16 q -1.84,-0.02 -2.9,-0.8 -1.06,-0.78 -1.06,-2.38 v -2.94 q 0,-1.02 -0.64,-1.44 -0.62,-0.44 -1.8,-0.44 V -6.3 q 1.18,-0.02 1.8,-0.44 0.64,-0.42 0.64,-1.42 v -2.96 q 0,-1.6 1.1,-2.38 1.1,-0.78 2.86,-0.78 v 1.44 q -1.04,0.02 -1.64,0.46 -0.58,0.44 -0.58,1.42 v 2.88 q 0,2.06 -2.18,2.44 v 0.12 q 2.18,0.38 2.18,2.44 v 2.94 q 0,0.98 0.58,1.4 0.58,0.44 1.64,0.46 z"
     id="path489" /></g>
	<g
   aria-label="}"
   id="text221"
   style="font-size:20px;line-height:0%;font-family:'Linux Libertine';text-align:center;text-anchor:middle;display:inline;fill:#eeeeee;stroke-width:1.25"
   class="key nubkey"><path
     d="m 104.84001,1.72 q 1.04,-0.04 1.62,-0.48 0.6,-0.42 0.6,-1.4 v -2.9 q 0,-2.06 2.18,-2.44 v -0.12 q -2.18,-0.38 -2.18,-2.44 v -2.92 q 0,-0.98 -0.58,-1.4 -0.58,-0.44 -1.64,-0.46 v -1.44 q 1.84,0.02 2.9,0.8 1.06,0.78 1.06,2.38 v 2.92 q 0,1.02 0.62,1.46 0.64,0.42 1.82,0.42 v 1.46 q -1.18,0.02 -1.82,0.44 -0.62,0.42 -0.62,1.42 V 0 q 0,1.58 -1.1,2.36 -1.1,0.8 -2.86,0.8 z"
     id="path492" /></g>
	<g
   aria-label="*"
   id="text223"
   style="font-size:20px;line-height:0%;font-family:'Linux Libertine';text-align:center;text-anchor:middle;display:inline;fill:#111111;stroke-width:1.25"
   class="key"><path
     d="m 144.92999,-15.2 -0.4,3.84 3.84,-1.08 0.28,1.84 -3.68,0.3 2.38,3.16 -1.72,0.94 -1.7,-3.5 -1.54,3.5 -1.78,-0.94 2.34,-3.16 -3.64,-0.3 0.28,-1.84 3.8,1.08 -0.42,-3.84 z"
     id="path495" /></g>

	<g
   aria-label="?"
   id="text225"
   style="font-size:20px;line-height:0%;font-family:'Linux Libertine';text-align:center;text-anchor:middle;display:inline;fill:#111111;stroke-width:1.25"
   class="key"><path
     d="m 178.46,-4.56 q 0,-0.76 0.14,-1.3 0.16,-0.56 0.52,-1.06 0.38,-0.5 1.02,-1.04 0.78,-0.66 1.2,-1.1 0.44,-0.44 0.62,-0.86 0.18,-0.42 0.18,-1.02 0,-0.96 -0.62,-1.48 -0.62,-0.52 -1.8,-0.52 -0.98,0 -1.74,0.26 -0.76,0.24 -1.46,0.58 l -0.62,-1.4 q 0.8,-0.42 1.76,-0.7 0.98,-0.28 2.18,-0.28 1.9,0 2.94,0.94 1.04,0.94 1.04,2.56 0,0.9 -0.3,1.54 -0.28,0.62 -0.82,1.16 -0.52,0.52 -1.24,1.12 -0.66,0.56 -1.02,0.98 -0.34,0.42 -0.46,0.84 -0.12,0.4 -0.12,0.98 v 0.34 h -1.4 z M 178,-1.08 q 0,-0.74 0.34,-1.04 0.36,-0.3 0.9,-0.3 0.5,0 0.86,0.3 0.36,0.3 0.36,1.04 0,0.72 -0.36,1.04 -0.36,0.32 -0.86,0.32 -0.54,0 -0.9,-0.32 Q 178,-0.36 178,-1.08 Z"
     id="path498" /></g>
	<g
   aria-label="("
   id="text227"
   style="font-size:20px;line-height:0%;font-family:'Linux Libertine';text-align:center;text-anchor:middle;display:inline;fill:#eeeeee;stroke-width:1.25"
   class="key nubkey"><path
     d="m 213.80001,-5.48 q 0,-2.44 0.7,-4.7 0.72,-2.28 2.24,-4.1 h 1.66 q -1.4,1.88 -2.12,4.14 -0.7,2.26 -0.7,4.64 0,2.32 0.7,4.56 0.72,2.22 2.1,4.1 h -1.64 q -1.52,-1.76 -2.24,-3.98 -0.7,-2.24 -0.7,-4.66 z"
     id="path501" /></g>
	<g
   aria-label=")"
   id="text229"
   style="font-size:20px;line-height:0%;font-family:'Linux Libertine';text-align:center;text-anchor:middle;display:inline;fill:#111111;stroke-width:1.25"
   class="key"><path
     d="m 254.20001,-5.48 q 0,2.42 -0.72,4.66 -0.7,2.22 -2.22,3.98 h -1.64 q 1.38,-1.88 2.08,-4.1 0.72,-2.24 0.72,-4.56 0,-2.38 -0.72,-4.64 -0.7,-2.26 -2.1,-4.14 h 1.66 q 1.52,1.82 2.22,4.1 0.72,2.26 0.72,4.7 z"
     id="path504" /></g>
	<g
   aria-label="-"
   id="text231"
   style="font-size:20px;line-height:0%;font-family:'Linux Libertine';text-align:center;text-anchor:middle;display:inline;fill:#111111;stroke-width:1.25"
   class="key"><path
     d="m 285.57999,-4.58 v -1.56 h 4.84 v 1.56 z"
     id="path507" /></g>
	<g
   aria-label=":"
   id="text233"
   style="font-size:20px;line-height:0%;font-family:'Linux Libertine';text-align:center;text-anchor:middle;display:inline;fill:#111111;stroke-width:1.25"
   class="key"><path
     d="m 322.76,-9.64 q 0,-0.76 0.36,-1.06 0.36,-0.3 0.86,-0.3 0.52,0 0.88,0.3 0.38,0.3 0.38,1.06 0,0.72 -0.38,1.04 -0.36,0.32 -0.88,0.32 -0.5,0 -0.86,-0.32 -0.36,-0.32 -0.36,-1.04 z m 0,8.56 q 0,-0.74 0.36,-1.04 0.36,-0.3 0.86,-0.3 0.52,0 0.88,0.3 0.38,0.3 0.38,1.04 0,0.72 -0.38,1.04 -0.36,0.32 -0.88,0.32 -0.5,0 -0.86,-0.32 -0.36,-0.32 -0.36,-1.04 z"
     id="path510" /></g>


</g>

<g
   transform="translate(101,134)"
   id="g257">
    <g
   aria-label="#"
   id="text237"
   style="font-size:20px;line-height:0%;font-family:'Linux Libertine';text-align:center;text-anchor:middle;display:inline;fill:#111111;stroke-width:1.25"
   class="key"><path
     d="m 3.1400009,-8.72 -0.62,3.2 h 2.74 v 1.34 h -3 l -0.82,4.18 H 0.02000092 l 0.82,-4.18 H -2.0199991 l -0.78,4.18 h -1.4 l 0.76,-4.18 h -2.52 v -1.34 h 2.78 l 0.64,-3.2 h -2.68 v -1.32 h 2.92 l 0.8,-4.24 h 1.44000002 l -0.8,4.24 H 2.0200009 l 0.8,-4.24 h 1.38 l -0.8,4.24 h 2.54 v 1.32 z m -4.9,3.2 h 2.86 l 0.62,-3.2 h -2.86 z"
     id="path513" /></g>
    <g
   aria-label="$"
   id="text239"
   style="font-size:20px;line-height:0%;font-family:'Linux Libertine';text-align:center;text-anchor:middle;display:inline;fill:#111111;stroke-width:1.25"
   class="key"><path
     d="m 35.339995,-0.98 q -1.1,-0.02 -2.14,-0.18 -1.04,-0.18 -1.68,-0.48 v -1.7 q 0.68,0.32 1.74,0.56 1.06,0.24 2.08,0.26 v -4.04 q -1.98,-0.54 -2.9,-1.36 -0.92,-0.82 -0.92,-2.24 0,-1.48 1.02,-2.32 1.04,-0.84 2.8,-0.94 v -1.76 h 1.28 v 1.74 q 1.06,0.02 1.92,0.24 0.88,0.2 1.6,0.5 l -0.54,1.48 q -0.64,-0.26 -1.42,-0.44 -0.76,-0.2 -1.56,-0.26 v 4.02 q 1.32,0.38 2.2,0.82 0.88,0.42 1.32,1.06 0.46,0.62 0.46,1.62 0,1.4 -1.04,2.28 -1.04,0.86 -2.94,1.06 v 2.22 h -1.28 z m 0,-10.9 q -1.08,0.08 -1.6,0.5 -0.5,0.42 -0.5,1.08 0,0.8 0.44,1.24 0.46,0.42 1.66,0.72 z m 1.28,9.26 q 1.18,-0.12 1.72,-0.54 0.54,-0.44 0.54,-1.12 0,-0.76 -0.48,-1.14 -0.48,-0.4 -1.78,-0.72 z"
     id="path516" /></g>
    <g
   aria-label="|"
   id="text241"
   style="font-size:20px;line-height:0%;font-family:'Linux Libertine';text-align:center;text-anchor:middle;display:inline;fill:#111111;stroke-width:1.25"
   class="key"><path
     d="m 71.269994,-15.2 h 1.46 V 4.82 h -1.46 z"
     id="path519" /></g>
    <g
   aria-label="~"
   id="text243"
   style="font-size:20px;line-height:0%;font-family:'Linux Libertine';text-align:center;text-anchor:middle;display:inline;fill:#111111;stroke-width:1.25"
   class="key"><path
     d="m 107.65999,-6.38 q -0.72,-0.32 -1.2,-0.42 -0.46,-0.12 -0.9,-0.12 -0.56,0 -1.18,0.34 -0.62,0.34 -1.1,0.84 V -7.3 q 0.96,-1.06 2.4,-1.06 0.58,0 1.14,0.12 0.58,0.12 1.5,0.52 0.72,0.32 1.18,0.44 0.48,0.1 0.9,0.1 0.58,0 1.2,-0.34 0.62,-0.34 1.1,-0.84 v 1.54 q -0.98,1.08 -2.4,1.08 -0.56,0 -1.16,-0.12 -0.58,-0.14 -1.48,-0.52 z"
     id="path522" /></g>

    <g
   aria-label="`"
   id="text245"
   style="font-size:20px;line-height:0%;font-family:'Linux Libertine';text-align:center;text-anchor:middle;display:inline;fill:#111111;stroke-width:1.25"
   class="key"><path
     d="m 144.09,-15.32 q 0.22,0.44 0.54,1 0.34,0.54 0.7,1.06 0.38,0.52 0.68,0.9 v 0.24 h -1.18 q -0.46,-0.36 -1.04,-0.92 -0.58,-0.58 -1.08,-1.14 -0.48,-0.58 -0.72,-0.94 v -0.2 z"
     id="path525" /></g>
    <g
   aria-label="+"
   id="text247"
   style="font-size:20px;line-height:0%;font-family:'Linux Libertine';text-align:center;text-anchor:middle;display:inline;fill:#111111;stroke-width:1.25"
   class="key"><path
     d="m 180.69999,-7.76 h 3.98 v 1.42 h -3.98 v 4.12 h -1.44 v -4.12 h -3.98 v -1.42 h 3.98 v -4.14 h 1.44 z"
     id="path528" /></g>
    <g
   aria-label="%"
   id="text249"
   style="font-size:20px;line-height:0%;font-family:'Linux Libertine';text-align:center;text-anchor:middle;display:inline;fill:#111111;stroke-width:1.25"
   class="key"><path
     d="m 211.59001,-14.48 q 1.48,0 2.24,1.18 0.76,1.16 0.76,3.28 0,2.12 -0.74,3.32 -0.72,1.18 -2.26,1.18 -1.42,0 -2.18,-1.18 -0.74,-1.2 -0.74,-3.32 0,-2.12 0.7,-3.28 0.7,-1.18 2.22,-1.18 z m 9.14,0.2 -7.92,14.28 h -1.54 l 7.92,-14.28 z m -9.14,1.04 q -0.76,0 -1.12,0.82 -0.34,0.8 -0.34,2.4 0,1.6 0.34,2.42 0.36,0.82 1.12,0.82 1.54,0 1.54,-3.24 0,-3.22 -1.54,-3.22 z m 8.74,4.48 q 1.46,0 2.22,1.18 0.78,1.16 0.78,3.28 0,2.12 -0.74,3.32 -0.72,1.18 -2.26,1.18 -1.42,0 -2.18,-1.18 -0.74,-1.2 -0.74,-3.32 0,-2.12 0.7,-3.28 0.7,-1.18 2.22,-1.18 z m 0,1.26 q -0.76,0 -1.12,0.8 -0.34,0.8 -0.34,2.4 0,1.62 0.34,2.44 0.36,0.8 1.12,0.8 1.54,0 1.54,-3.24 0,-3.2 -1.54,-3.2 z"
     id="path531" /></g>
    <g
   aria-label="&quot;"
   id="text251"
   style="font-size:20px;line-height:0%;font-family:'Linux Libertine';text-align:center;text-anchor:middle;display:inline;fill:#111111;stroke-width:1.25"
   class="key"><path
     d="m 251.11999,-14.28 -0.4,5.16 h -1.1 l -0.4,-5.16 z m 3.66,0 -0.4,5.16 h -1.1 l -0.4,-5.16 z"
     id="path534" /></g>
    <g
   aria-label="'"
   id="text253"
   style="font-size:20px;line-height:0%;font-family:'Linux Libertine';text-align:center;text-anchor:middle;display:inline;fill:#111111;stroke-width:1.25"
   class="key"><path
     d="m 288.95,-14.28 -0.4,5.16 h -1.1 l -0.4,-5.16 z"
     id="path537" /></g>
    <g
   aria-label=";"
   id="text255"
   style="font-size:20px;line-height:0%;font-family:'Linux Libertine';text-align:center;text-anchor:middle;display:inline;fill:#111111;stroke-width:1.25"
   class="key"><path
     d="m 322.72,-9.64 q 0,-0.76 0.36,-1.06 0.36,-0.3 0.86,-0.3 0.52,0 0.88,0.3 0.38,0.3 0.38,1.06 0,0.72 -0.38,1.04 -0.36,0.32 -0.88,0.32 -0.5,0 -0.86,-0.32 -0.36,-0.32 -0.36,-1.04 z m 2.26,7.54 q -0.26,1.04 -0.76,2.32 -0.48,1.3 -0.96,2.36 h -1.32 q 0.2,-0.76 0.38,-1.64 0.2,-0.86 0.36,-1.7 0.18,-0.86 0.28,-1.56 h 1.88 z"
     id="path540" /></g>
</g>


<g
   transform="translate(561,26)"
   id="g267">
    <g
   aria-label="="
   id="text259"
   style="font-size:20px;line-height:0%;font-family:'Linux Libertine';text-align:center;text-anchor:middle;display:inline;fill:#111111;stroke-width:1.25"
   class="key"><path
     d="m -4.600005,-8.32 v -1.42 h 9.16 v 1.42 z m 0,3.98 v -1.42 h 9.16 v 1.42 z"
     id="path543" /></g>
    <g
   aria-label="÷"
   id="text261"
   style="font-size:20px;line-height:0%;font-family:'Linux Libertine';text-align:center;text-anchor:middle;display:inline;fill:#111111;stroke-width:1.25"
   class="key"><path
     d="m 35.979995,-9.24 q -0.46,0 -0.8,-0.28 -0.32,-0.3 -0.32,-0.94 0,-0.68 0.32,-0.94 0.34,-0.26 0.8,-0.26 0.46,0 0.78,0.26 0.32,0.26 0.32,0.94 0,0.64 -0.32,0.94 -0.32,0.28 -0.78,0.28 z m -4.7,2.9 v -1.42 h 9.42 v 1.42 z m 4.7,3.92 q -0.46,0 -0.8,-0.28 -0.32,-0.3 -0.32,-0.94 0,-0.68 0.32,-0.94 0.34,-0.26 0.8,-0.26 0.46,0 0.78,0.26 0.32,0.26 0.32,0.94 0,0.64 -0.32,0.94 -0.32,0.28 -0.78,0.28 z"
     id="path546" /></g>
    <g
   aria-label="⋅"
   id="text263"
   style="font-size:20px;line-height:0%;font-family:'Linux Libertine';text-align:center;text-anchor:middle;display:inline;fill:#111111;stroke-width:1.25"
   class="key"><path
     d="m 70.959961,-8.1835938 h 2.060547 v 2.4804688 h -2.060547 z"
     id="path549" /></g>
    <g
   aria-label="−"
   id="text265"
   style="font-size:20px;line-height:0%;font-family:'Linux Libertine';text-align:center;text-anchor:middle;display:inline;fill:#111111;stroke-width:1.25"
   class="key"><path
     d="m 101.74023,-7.0996094 h 12.51954 v 1.6601563 h -12.51954 z"
     id="path552" /></g>
</g>
<g
   transform="translate(561,62)"
   id="g275">
    <g
   aria-label="↕"
   id="text269"
   style="font-size:20px;line-height:0%;font-family:'Linux Libertine';text-align:center;text-anchor:middle;display:inline;fill:#111111;stroke-width:1.25"
   class="key"><path
     d="m -0.43945313,-14.648438 h 0.87890626 l 3.82812497,3.847657 -1.171875,1.1718747 -2.26562497,-2.2851567 v 9.3457036 l 2.26562497,-2.2851562 1.171875,1.171875 -3.82812497,3.84765622 h -0.87890626 l -3.84765627,-3.84765622 1.171875,-1.171875 2.28515627,2.2851562 v -9.3457036 l -2.28515627,2.2851567 -1.171875,-1.1718747 z"
     id="path555" /></g>
    <g
   aria-label="↑"
   id="text271"
   style="font-size:20px;line-height:0%;font-family:'Linux Libertine';text-align:center;text-anchor:middle;display:inline;fill:#111111;stroke-width:1.25"
   class="key"><path
     d="m 35.560547,-14.648438 h 0.878906 l 3.828125,3.847657 -1.171875,1.1718747 -2.265625,-2.2851567 V 0 h -1.660156 v -11.914063 l -2.285156,2.2851567 -1.171875,-1.1718747 z"
     id="path558" /></g>
    <g
   aria-label="⃗"
   id="text273"
   style="font-size:20px;line-height:0%;font-family:'Linux Libertine';text-align:center;text-anchor:middle;display:inline;fill:#111111;stroke-width:1.25"
   class="key"><path
     d="m 66.672852,-1.3964844 q 0.419921,0.58593752 0.996093,1.06445315 0.449219,0.37109375 0.996094,0.68359375 L 68.186523,1.3867187 Q 67.50293,0.99609375 66.946289,0.52734375 q -0.732422,-0.59570312 -1.25,-1.31835937 z m 8.652343,1.7480469 q 0.546875,-0.3125 0.996094,-0.68359375 0.507813,-0.4296875 0.996094,-1.06445315 l 0.976562,0.59570315 q -0.576172,0.76171875 -1.25,1.328125 -0.55664,0.46875 -1.25,0.85937495 z m 1.992188,-9.3457031 q -0.429688,-0.5859375 -0.996094,-1.0644534 -0.449219,-0.371094 -0.996094,-0.683594 l 0.46875,-1.035156 q 0.69336,0.390625 1.25,0.859375 0.722657,0.595703 1.25,1.3183596 z m -8.652344,-1.7480474 q -0.546875,0.3125 -0.996094,0.683594 -0.576172,0.4785159 -0.996093,1.0644534 l -0.976563,-0.6054688 q 0.478516,-0.6738286 1.25,-1.3183596 0.556641,-0.46875 1.240234,-0.859375 z m 1.835938,11.8945317 q 0.742187,0.2148438 1.49414,0.2148438 0.751953,0 1.494141,-0.2148438 l 0.371094,1.0742188 q -0.927735,0.2636719 -1.865235,0.2636719 -0.9375,0 -1.875,-0.2636719 z m 7.841796,-4.8535156 q 0.15625,-0.7128906 0.15625,-1.4941406 0,-0.78125 -0.15625,-1.4941406 l 1.074219,-0.3808594 q 0.195313,0.8886719 0.195313,1.875 0,0.9863281 -0.195313,1.875 z m -4.853515,-7.8417971 q -0.742188,-0.214844 -1.494141,-0.214844 -0.751953,0 -1.49414,0.214844 l -0.38086,-1.074219 q 0.9375,-0.263671 1.875,-0.263671 0.9375,0 1.865235,0.263671 z m -7.832031,4.8535159 q -0.15625,0.7128906 -0.15625,1.4941406 0,0.78125 0.15625,1.4941406 l -1.074219,0.3808594 q -0.195313,-0.8886719 -0.195313,-1.875 0,-0.9863281 0.195313,-1.875 z"
     id="path561" /><path
     d="m 71.321289,-12.705078 v -0.976563 h 7.236328 l -1.289062,-1.513672 h 1.230468 l 1.708985,2.001954 -1.708985,2.001953 h -1.230468 l 1.289062,-1.513672 z"
     id="path563" /></g>
</g>
<g
   transform="translate(561,98)"
   id="g283">
    <g
   aria-label="←"
   id="text277"
   style="font-size:20px;line-height:0%;font-family:'Linux Libertine';text-align:center;text-anchor:middle;display:inline;fill:#111111;stroke-width:1.25"
   class="key"><path
     d="m -7.4023437,-5.8300781 v -0.8789063 l 3.8378906,-3.8378906 1.171875,1.171875 -2.2753906,2.2753906 H 7.2363281 v 1.6601563 H -4.6679687 l 2.2753906,2.2753906 -1.171875,1.171875 z"
     id="path566" /></g>
    <g
   aria-label=":"
   id="text279"
   style="font-size:20px;line-height:0%;font-family:'Linux Libertine';text-align:center;text-anchor:middle;display:inline;fill:#111111;stroke-width:1.25"
   class="key"><path
     d="m 34.760004,-9.64 q 0,-0.76 0.36,-1.06 0.36,-0.3 0.86,-0.3 0.52,0 0.88,0.3 0.38,0.3 0.38,1.06 0,0.72 -0.38,1.04 -0.36,0.32 -0.88,0.32 -0.5,0 -0.86,-0.32 -0.36,-0.32 -0.36,-1.04 z m 0,8.56 q 0,-0.74 0.36,-1.04 0.36,-0.3 0.86,-0.3 0.52,0 0.88,0.3 0.38,0.3 0.38,1.04 0,0.72 -0.38,1.04 -0.36,0.32 -0.88,0.32 -0.5,0 -0.86,-0.32 -0.36,-0.32 -0.36,-1.04 z"
     id="path569" /></g>
    <g
   aria-label="→"
   id="text281"
   style="font-size:20px;line-height:0%;font-family:'Linux Libertine';text-align:center;text-anchor:middle;display:inline;fill:#111111;stroke-width:1.25"
   class="key"><path
     d="m 79.402344,-6.7089844 v 0.8789063 l -3.837891,3.8378906 -1.171875,-1.171875 2.275391,-2.2753906 H 64.763672 V -7.0996094 H 76.667969 L 74.392578,-9.375 l 1.171875,-1.171875 z"
     id="path572" /></g>
</g>
<g
   transform="translate(561,134)"
   id="g291">
    <g
   aria-label="↔"
   id="text285"
   style="font-size:20px;line-height:0%;font-family:'Linux Libertine';text-align:center;text-anchor:middle;display:inline;fill:#111111;stroke-width:1.25"
   class="key"><path
     d="m -7.4023437,-5.8300781 v -0.8789063 l 3.8378906,-3.8378906 1.171875,1.171875 -2.2753906,2.2753906 H 4.6679687 L 2.3925781,-9.375 l 1.171875,-1.171875 3.8378906,3.8378906 v 0.8789063 l -3.8378906,3.8378906 -1.171875,-1.171875 2.2753906,-2.2753906 h -9.3359374 l 2.2753906,2.2753906 -1.171875,1.171875 z"
     id="path575" /></g>
    <g
   aria-label="↓"
   id="text287"
   style="font-size:20px;line-height:0%;font-family:'Linux Libertine';text-align:center;text-anchor:middle;display:inline;fill:#111111;stroke-width:1.25"
   class="key"><path
     d="m 36.439453,0.06835937 h -0.878906 l -3.847656,-3.84765627 1.171875,-1.171875 2.285156,2.2851563 V -14.580078 h 1.660156 v 11.9140624 l 2.265625,-2.2851563 1.171875,1.171875 z"
     id="path578" /></g>
    <g
   aria-label="⇌"
   id="text289"
   style="font-size:20px;line-height:0%;font-family:'Linux Libertine';text-align:center;text-anchor:middle;display:inline;fill:#111111;stroke-width:1.25"
   class="key"><path
     d="m 64.597656,-5.2441406 h 14.638672 v 1.6601562 H 67.332031 l 2.275391,2.2753907 -1.171875,1.17187495 -3.837891,-3.83789065 z M 79.402344,-7.2949219 H 64.763672 v -1.6601562 h 11.904297 l -2.275391,-2.2753909 1.171875,-1.171875 3.837891,3.8378909 z"
     id="path581" /></g>
</g>
<g
   transform="translate(561,170)"
   id="g297">
    <g
   aria-label="%"
   id="text293"
   style="font-size:20px;line-height:0%;font-family:'Linux Libertine';text-align:center;text-anchor:middle;display:inline;fill:#111111;stroke-width:1.25"
   class="key"><path
     d="m 13.590006,-14.48 q 1.48,0 2.24,1.18 0.76,1.16 0.76,3.28 0,2.12 -0.74,3.32 -0.72,1.18 -2.26,1.18 -1.42,0 -2.18,-1.18 -0.74,-1.2 -0.74,-3.32 0,-2.12 0.7,-3.28 0.7,-1.18 2.22,-1.18 z m 9.14,0.2 -7.92,14.28 h -1.54 l 7.92,-14.28 z m -9.14,1.04 q -0.76,0 -1.12,0.82 -0.34,0.8 -0.34,2.4 0,1.6 0.34,2.42 0.36,0.82 1.12,0.82 1.54,0 1.54,-3.24 0,-3.22 -1.54,-3.22 z m 8.74,4.48 q 1.46,0 2.22,1.18 0.78,1.16 0.78,3.28 0,2.12 -0.74,3.32 -0.72,1.18 -2.26,1.18 -1.42,0 -2.18,-1.18 -0.74,-1.2 -0.74,-3.32 0,-2.12 0.7,-3.28 0.7,-1.18 2.22,-1.18 z m 0,1.26 q -0.76,0 -1.12,0.8 -0.34,0.8 -0.34,2.4 0,1.62 0.34,2.44 0.36,0.8 1.12,0.8 1.54,0 1.54,-3.24 0,-3.2 -1.54,-3.2 z"
     id="path584" /></g>
    <g
   aria-label=","
   id="text295"
   style="font-size:20px;line-height:0%;font-family:'Linux Libertine';text-align:center;text-anchor:middle;display:inline;fill:#111111;stroke-width:1.25"
   class="key"><path
     d="m 73.160004,-2.1 q -0.26,1.06 -0.76,2.32 -0.48,1.28 -0.96,2.36 h -1.3 q 0.28,-1.14 0.56,-2.5 0.3,-1.36 0.44,-2.4 h 1.88 z"
     id="path587" /></g>
</g>

<g
   transform="translate(561,78)"
   id="g301">
    <g
   aria-label="±"
   id="text299"
   style="font-size:20px;line-height:0%;font-family:'Linux Libertine';text-align:center;text-anchor:middle;display:inline;fill:#111111;stroke-width:1.25"
   class="key"><path
     d="m 108.69999,-7.82 h 3.98 v 1.42 h -3.98 v 4.12 h -1.44 V -6.4 h -3.98 v -1.42 h 3.98 v -4.14 h 1.44 z m -5.42,7.82 v -1.42 h 9.42 V 0 Z"
     id="path590" /></g>
</g>
<g
   transform="translate(561,150)"
   id="g305">
    <g
   aria-label="⏎"
   id="text303"
   style="font-size:20px;line-height:0%;font-family:'Linux Libertine';text-align:center;text-anchor:middle;display:inline;fill:#111111;stroke-width:1.25"
   class="key"><path
     d="m 105.11914,-1.3085937 -4.96094,-4.9609375 4.96094,-4.9609378 v 2.6660159 h 5.53711 v -6.0156249 h 4.58984 l -0.01,10.6054686 h -10.11719 z m -0.97656,-6.2792969 v -1.2792969 l -2.59766,2.5976563 2.59766,2.5976562 v -1.2792969 h 10.11719 l 0.01,-8.6523441 h -2.63672 l -0.01,6.0156254 z"
     id="path593" /></g>
</g>

<g
   aria-label="↻"
   id="t1"
   style="font-size:20px;line-height:0%;font-family:'Gentium Plus Compact';text-align:center;text-anchor:middle;display:inline;fill:#111111"
   class="dead"><path
     d="m 23.378906,15.580078 1.171875,-1.171875 q 0.898438,0.927735 1.337891,1.972656 0.449219,1.09375 0.449219,2.333985 0,1.210937 -0.449219,2.304687 -0.46875,1.103516 -1.337891,1.972656 -0.859375,0.84961 -1.953125,1.31836 -1.054687,0.449219 -2.304687,0.449219 -1.298828,0 -2.304688,-0.449219 -1.132812,-0.507813 -1.953125,-1.31836 -0.86914,-0.86914 -1.33789,-1.972656 -0.449219,-1.09375 -0.449219,-2.304687 0,-1.240235 0.449219,-2.333985 0.458984,-1.09375 1.33789,-1.972656 l 0.341797,-0.341797 H 13.154297 V 12.40625 h 5.429687 l 0.625,0.625 v 5.429687 h -1.660156 v -3.222656 l -0.341797,0.341797 q -0.644531,0.644531 -0.976562,1.435547 -0.322266,0.791016 -0.322266,1.699219 0,0.878906 0.322266,1.669922 0.322265,0.791015 0.966797,1.435546 0.625,0.615235 1.425781,0.957032 0.761719,0.322265 1.689453,0.322265 0.927734,0 1.650391,-0.322265 0.839843,-0.38086 1.425781,-0.957032 0.644531,-0.644531 0.966797,-1.435546 0.322265,-0.791016 0.322265,-1.669922 0,-0.908203 -0.322265,-1.699219 -0.3125,-0.791016 -0.976563,-1.435547 z"
     id="path596" /></g>
<g
   aria-label="◌̊"
   id="t2"
   style="font-size:20px;line-height:0%;font-family:'Gentium Plus Compact';text-align:center;text-anchor:middle;display:inline;fill:#111111"
   class="dead"><path
     d="m 452,15.2 q 0.22,0 0.36,0.16 0.16,0.14 0.16,0.36 0,0.2 -0.16,0.36 -0.14,0.16 -0.36,0.16 -0.2,0 -0.36,-0.16 -0.16,-0.16 -0.16,-0.36 0,-0.22 0.16,-0.36 0.16,-0.16 0.36,-0.16 z m -1.68,0.36 q 0.22,0 0.36,0.16 0.16,0.14 0.16,0.36 0,0.2 -0.16,0.36 -0.14,0.16 -0.36,0.16 -0.2,0 -0.36,-0.16 -0.16,-0.16 -0.16,-0.36 0,-0.22 0.16,-0.36 0.16,-0.16 0.36,-0.16 z m 3.36,0 q 0.22,0 0.36,0.16 0.16,0.14 0.16,0.36 0,0.2 -0.16,0.36 -0.14,0.16 -0.36,0.16 -0.2,0 -0.36,-0.16 -0.16,-0.16 -0.16,-0.36 0,-0.22 0.16,-0.36 0.16,-0.16 0.36,-0.16 z m -5.36,1.46 q 0,-0.22 0.16,-0.36 0.16,-0.16 0.36,-0.16 0.22,0 0.36,0.16 0.16,0.14 0.16,0.36 0,0.2 -0.16,0.36 -0.14,0.16 -0.36,0.16 -0.2,0 -0.36,-0.16 -0.16,-0.16 -0.16,-0.36 z m 6.32,0 q 0,-0.22 0.16,-0.36 0.16,-0.16 0.36,-0.16 0.22,0 0.36,0.16 0.16,0.14 0.16,0.36 0,0.2 -0.16,0.36 -0.14,0.16 -0.36,0.16 -0.2,0 -0.36,-0.16 -0.16,-0.16 -0.16,-0.36 z m -7.26,1.48 q 0,-0.22 0.16,-0.36 0.16,-0.16 0.36,-0.16 0.22,0 0.36,0.16 0.16,0.14 0.16,0.36 0,0.2 -0.16,0.36 -0.14,0.16 -0.36,0.16 -0.2,0 -0.36,-0.16 -0.16,-0.16 -0.16,-0.36 z m 8.2,0 q 0,-0.22 0.16,-0.36 0.16,-0.16 0.36,-0.16 0.22,0 0.36,0.16 0.16,0.14 0.16,0.36 0,0.2 -0.16,0.36 -0.14,0.16 -0.36,0.16 -0.2,0 -0.36,-0.16 -0.16,-0.16 -0.16,-0.36 z m -8.56,1.68 q 0,-0.22 0.16,-0.36 0.16,-0.16 0.36,-0.16 0.22,0 0.36,0.16 0.16,0.14 0.16,0.36 0,0.2 -0.16,0.36 -0.14,0.16 -0.36,0.16 -0.2,0 -0.36,-0.16 -0.16,-0.16 -0.16,-0.36 z m 8.92,0 q 0,-0.22 0.16,-0.36 0.16,-0.16 0.36,-0.16 0.22,0 0.36,0.16 0.16,0.14 0.16,0.36 0,0.2 -0.16,0.36 -0.14,0.16 -0.36,0.16 -0.2,0 -0.36,-0.16 -0.16,-0.16 -0.16,-0.36 z m -8.56,1.68 q 0,-0.22 0.16,-0.36 0.16,-0.16 0.36,-0.16 0.22,0 0.36,0.16 0.16,0.14 0.16,0.36 0,0.2 -0.16,0.36 -0.14,0.16 -0.36,0.16 -0.2,0 -0.36,-0.16 -0.16,-0.16 -0.16,-0.36 z m 8.2,0 q 0,-0.22 0.16,-0.36 0.16,-0.16 0.36,-0.16 0.22,0 0.36,0.16 0.16,0.14 0.16,0.36 0,0.2 -0.16,0.36 -0.14,0.16 -0.36,0.16 -0.2,0 -0.36,-0.16 -0.16,-0.16 -0.16,-0.36 z m -7.26,1.48 q 0,-0.22 0.16,-0.36 0.16,-0.16 0.36,-0.16 0.22,0 0.36,0.16 0.16,0.14 0.16,0.36 0,0.2 -0.16,0.36 -0.14,0.16 -0.36,0.16 -0.2,0 -0.36,-0.16 -0.16,-0.16 -0.16,-0.36 z m 6.32,0 q 0,-0.22 0.16,-0.36 0.16,-0.16 0.36,-0.16 0.22,0 0.36,0.16 0.16,0.14 0.16,0.36 0,0.2 -0.16,0.36 -0.14,0.16 -0.36,0.16 -0.2,0 -0.36,-0.16 -0.16,-0.16 -0.16,-0.36 z m -4.32,0.42 q 0.22,0 0.36,0.16 0.16,0.14 0.16,0.36 0,0.2 -0.16,0.36 -0.14,0.16 -0.36,0.16 -0.2,0 -0.36,-0.16 -0.16,-0.16 -0.16,-0.36 0,-0.22 0.16,-0.36 0.16,-0.16 0.36,-0.16 z m 3.36,0 q 0.22,0 0.36,0.16 0.16,0.14 0.16,0.36 0,0.2 -0.16,0.36 -0.14,0.16 -0.36,0.16 -0.2,0 -0.36,-0.16 -0.16,-0.16 -0.16,-0.36 0,-0.22 0.16,-0.36 0.16,-0.16 0.36,-0.16 z M 452,24.12 q 0.22,0 0.36,0.16 0.16,0.14 0.16,0.36 0,0.2 -0.16,0.36 -0.14,0.16 -0.36,0.16 -0.2,0 -0.36,-0.16 -0.16,-0.16 -0.16,-0.36 0,-0.22 0.16,-0.36 0.16,-0.16 0.36,-0.16 z"
     id="path599" /><path
     d="m 451.98,13.800006 q -0.98,0 -1.58,-0.56 -0.6,-0.56 -0.6,-1.56 0,-1 0.6,-1.54 0.6,-0.5600002 1.58,-0.5600002 0.94,0 1.58,0.5600002 0.64,0.54 0.64,1.52 0,1.02 -0.64,1.58 -0.62,0.56 -1.58,0.56 z m 0,-1 q 0.5,0 0.8,-0.3 0.32,-0.3 0.32,-0.82 0,-0.52 -0.32,-0.82 -0.32,-0.3 -0.8,-0.3 -0.48,0 -0.8,0.3 -0.32,0.3 -0.32,0.82 0,0.52 0.3,0.82 0.28,0.3 0.82,0.3 z"
     id="path601" /></g>

<g
   aria-label="◌̸"
   id="t3"
   style="font-size:20px;line-height:0%;font-family:'Gentium Plus Compact';text-align:center;text-anchor:middle;display:inline;fill:#111111"
   class="dead"><path
     d="m 480,87.2 q 0.22,0 0.36,0.16 0.16,0.14 0.16,0.36 0,0.2 -0.16,0.36 -0.14,0.16 -0.36,0.16 -0.2,0 -0.36,-0.16 -0.16,-0.16 -0.16,-0.36 0,-0.22 0.16,-0.36 0.16,-0.16 0.36,-0.16 z m -1.68,0.36 q 0.22,0 0.36,0.16 0.16,0.14 0.16,0.36 0,0.2 -0.16,0.36 -0.14,0.16 -0.36,0.16 -0.2,0 -0.36,-0.16 -0.16,-0.16 -0.16,-0.36 0,-0.22 0.16,-0.36 0.16,-0.16 0.36,-0.16 z m 3.36,0 q 0.22,0 0.36,0.16 0.16,0.14 0.16,0.36 0,0.2 -0.16,0.36 -0.14,0.16 -0.36,0.16 -0.2,0 -0.36,-0.16 -0.16,-0.16 -0.16,-0.36 0,-0.22 0.16,-0.36 0.16,-0.16 0.36,-0.16 z m -5.36,1.46 q 0,-0.22 0.16,-0.36 0.16,-0.16 0.36,-0.16 0.22,0 0.36,0.16 0.16,0.14 0.16,0.36 0,0.2 -0.16,0.36 -0.14,0.16 -0.36,0.16 -0.2,0 -0.36,-0.16 -0.16,-0.16 -0.16,-0.36 z m 6.32,0 q 0,-0.22 0.16,-0.36 0.16,-0.16 0.36,-0.16 0.22,0 0.36,0.16 0.16,0.14 0.16,0.36 0,0.2 -0.16,0.36 -0.14,0.16 -0.36,0.16 -0.2,0 -0.36,-0.16 -0.16,-0.16 -0.16,-0.36 z m -7.26,1.48 q 0,-0.22 0.16,-0.36 0.16,-0.16 0.36,-0.16 0.22,0 0.36,0.16 0.16,0.14 0.16,0.36 0,0.2 -0.16,0.36 -0.14,0.16 -0.36,0.16 -0.2,0 -0.36,-0.16 -0.16,-0.16 -0.16,-0.36 z m 8.2,0 q 0,-0.22 0.16,-0.36 0.16,-0.16 0.36,-0.16 0.22,0 0.36,0.16 0.16,0.14 0.16,0.36 0,0.2 -0.16,0.36 -0.14,0.16 -0.36,0.16 -0.2,0 -0.36,-0.16 -0.16,-0.16 -0.16,-0.36 z m -8.56,1.68 q 0,-0.22 0.16,-0.36 0.16,-0.16 0.36,-0.16 0.22,0 0.36,0.16 0.16,0.14 0.16,0.36 0,0.2 -0.16,0.36 -0.14,0.16 -0.36,0.16 -0.2,0 -0.36,-0.16 -0.16,-0.16 -0.16,-0.36 z m 8.92,0 q 0,-0.22 0.16,-0.36 0.16,-0.16 0.36,-0.16 0.22,0 0.36,0.16 0.16,0.14 0.16,0.36 0,0.2 -0.16,0.36 -0.14,0.16 -0.36,0.16 -0.2,0 -0.36,-0.16 -0.16,-0.16 -0.16,-0.36 z m -8.56,1.68 q 0,-0.22 0.16,-0.36 0.16,-0.16 0.36,-0.16 0.22,0 0.36,0.16 0.16,0.14 0.16,0.36 0,0.2 -0.16,0.36 -0.14,0.16 -0.36,0.16 -0.2,0 -0.36,-0.16 -0.16,-0.16 -0.16,-0.36 z m 8.2,0 q 0,-0.22 0.16,-0.36 0.16,-0.16 0.36,-0.16 0.22,0 0.36,0.16 0.16,0.14 0.16,0.36 0,0.2 -0.16,0.36 -0.14,0.16 -0.36,0.16 -0.2,0 -0.36,-0.16 -0.16,-0.16 -0.16,-0.36 z m -7.26,1.48 q 0,-0.22 0.16,-0.36 0.16,-0.16 0.36,-0.16 0.22,0 0.36,0.16 0.16,0.14 0.16,0.36 0,0.2 -0.16,0.36 -0.14,0.16 -0.36,0.16 -0.2,0 -0.36,-0.16 -0.16,-0.16 -0.16,-0.36 z m 6.32,0 q 0,-0.22 0.16,-0.36 0.16,-0.16 0.36,-0.16 0.22,0 0.36,0.16 0.16,0.14 0.16,0.36 0,0.2 -0.16,0.36 -0.14,0.16 -0.36,0.16 -0.2,0 -0.36,-0.16 -0.16,-0.16 -0.16,-0.36 z m -4.32,0.42 q 0.22,0 0.36,0.16 0.16,0.14 0.16,0.36 0,0.2 -0.16,0.36 -0.14,0.16 -0.36,0.16 -0.2,0 -0.36,-0.16 -0.16,-0.16 -0.16,-0.36 0,-0.22 0.16,-0.36 0.16,-0.16 0.36,-0.16 z m 3.36,0 q 0.22,0 0.36,0.16 0.16,0.14 0.16,0.36 0,0.2 -0.16,0.36 -0.14,0.16 -0.36,0.16 -0.2,0 -0.36,-0.16 -0.16,-0.16 -0.16,-0.36 0,-0.22 0.16,-0.36 0.16,-0.16 0.36,-0.16 z M 480,96.12 q 0.22,0 0.36,0.16 0.16,0.14 0.16,0.36 0,0.2 -0.16,0.36 -0.14,0.16 -0.36,0.16 -0.2,0 -0.36,-0.16 -0.16,-0.16 -0.16,-0.36 0,-0.22 0.16,-0.36 0.16,-0.16 0.36,-0.16 z"
     id="path604" /><path
     d="m 489.9,82.84 -6.4,16.32 h -1.52 l 6.4,-16.32 z"
     id="path606" /></g>
<g
   aria-label="ſ"
   id="text310"
   style="font-size:20px;line-height:0%;font-family:'Linux Libertine';text-align:center;text-anchor:middle;display:inline;fill:#111111;stroke-width:1.25"
   class="key"><path
     d="m 471.96,48.16 q -0.82,0 -1.3,0.52 -0.46,0.52 -0.46,1.78 V 62 h -1.76 V 50.46 q 0,-2.06 0.96,-2.9 0.98,-0.86 2.58,-0.86 0.62,0 1.12,0.12 0.5,0.1 0.88,0.26 l -0.46,1.38 q -0.32,-0.1 -0.74,-0.2 -0.42,-0.1 -0.82,-0.1 z"
     id="path609" /></g>

</svg>
