<?xml version="1.0" encoding="UTF-8" standalone="no"?>
<svg
   version="1.1"
   id="Ebene_1"
   height="183"
   width="535"
   viewBox="0 0 535 183"
   enable-background="new 0 0 535 183"
   xml:space="preserve"
   inkscape:version="0.48.5 r10040"
   sodipodi:docname="noted-4-tkl.svg"
   inkscape:export-xdpi="90"
   inkscape:export-ydpi="90"
   xmlns:inkscape="http://www.inkscape.org/namespaces/inkscape"
   xmlns:sodipodi="http://sodipodi.sourceforge.net/DTD/sodipodi-0.dtd"
   xmlns:xlink="http://www.w3.org/1999/xlink"
   xmlns="http://www.w3.org/2000/svg"
   xmlns:svg="http://www.w3.org/2000/svg"
   xmlns:rdf="http://www.w3.org/1999/02/22-rdf-syntax-ns#"
   xmlns:cc="http://creativecommons.org/ns#"
   xmlns:dc="http://purl.org/dc/elements/1.1/">&#10;&#10;  <metadata
   id="metadata135">&#10;    <rdf:RDF>&#10;      <cc:Work
   rdf:about="">&#10;        <dc:format>image/svg+xml</dc:format>&#10;        <dc:type
   rdf:resource="http://purl.org/dc/dcmitype/StillImage" />&#10;        <dc:title />&#10;      </cc:Work>&#10;    </rdf:RDF>&#10;  </metadata>&#10;&#10;<defs
   id="defs">&#10;<style
   type="text/css"
   id="style46661">&#10;text.mod, text.key, text.dead {&#10;	fill:#111;&#10;	fill-opacity:1;&#10;    stroke:none;&#10;    font-style:normal;&#10;    font-variant:normal;&#10;    font-weight:normal;&#10;    font-stretch:normal;&#10;    display:inline;&#10;    font-family:DejaVu Sans;&#10;    writing-mode:lr-tb;&#10;}&#10;&#10;text.key {&#10;    font-family:DejaVu Sans;&#10;}&#10;&#10;text.dead {&#10;    font-family: Gentium Plus Compact;&#10;}&#10;&#10;text.mod {&#10;    text-align:start;&#10;    text-anchor:start;&#10;}&#10;&#10;text.space, text.dead, text.center, text.key {&#10;    text-align:center;&#10;    text-anchor:middle;&#10;}&#10;&#10;text.key { font-size:18px; }&#10;text.dead { font-size:18px; }&#10;text.mod { font-size:8px; }&#10;text.big { font-size:12px; }&#10;&#10;.key {&#10;stroke-width:0.75;&#10;}&#10;&#10;.grey { fill:#949494; stroke:#696969; }&#10;.grey { fill:#9f9f9f; stroke:#747474; }&#10;&#10;.numpad { fill:#afaa9f; stroke:#747474; }&#10;&#10;/* bootstrap colors */&#10;.l5, .r5 { fill:#93CCEA; }&#10;.l4, .r4 { fill:#7abeb3; }&#10;.l3, .r3 { fill:#63b280; }&#10;.l2, .r2 { fill:#4aa44a; }&#10;&#10;/* btn bg hover, unused */&#10;.l2, .r2 { stroke:#3071a9; }&#10;.l3, .r3 { stroke:#449d44; }&#10;.l4, .r4 { stroke:#c9302c; }&#10;.l5, .r5 { stroke:#ec971f; }&#10;&#10;/* btn border hover */&#10;.l2, .r2 { stroke:#204d74; }&#10;.l3, .r3 { stroke:#204d74; }&#10;.l4, .r4 { stroke:#204d74; }&#10;.l5, .r5 { stroke:#204d74; }&#10;&#10;<!-- text.nubkey { fill:#eee; } -->&#10;&#10;.pressed {&#10;	<!--opacity:0.5;-->&#10;	fill:#777;&#10;}&#10;    </style>&#10;&#10;    <g
   id="basekey">&#10;        <rect
   width="32"
   height="32"
   rx="4"
   class="key"
   id="rect1" />&#10;	<!--rect width="20" height="20" x="6" y="6" /-->&#10;        <!--rect width="2" height="2" fill="#000" x="15" y="15" /-->&#10;    </g>&#10;&#10;    </defs>&#10;<sodipodi:namedview
   pagecolor="#ffffff"
   bordercolor="#666666"
   borderopacity="1"
   objecttolerance="10"
   gridtolerance="10"
   guidetolerance="10"
   inkscape:pageopacity="0"
   inkscape:pageshadow="2"
   inkscape:window-width="1614"
   inkscape:window-height="969"
   id="base"
   showgrid="false"
   inkscape:zoom="0.70961538"
   inkscape:cx="685.32105"
   inkscape:cy="241.15395"
   inkscape:window-x="78"
   inkscape:window-y="71"
   inkscape:window-maximized="0"
   inkscape:current-layer="Ebene_1"
   inkscape:showpageshadow="2"
   inkscape:pagecheckerboard="0"
   inkscape:deskcolor="#d1d1d1" />&#10;&#10;<g
   transform="translate(3.5,3.5)"
   id="g61">&#10;<use
   xlink:href="#basekey"
   y="0"
   x="0"
   class="l5"
   id="use1" />&#10;<use
   xlink:href="#basekey"
   y="0"
   x="36"
   class="l5"
   id="use2" />&#10;<use
   xlink:href="#basekey"
   y="0"
   x="72"
   class="l5"
   id="use3" />&#10;<use
   xlink:href="#basekey"
   y="0"
   x="108"
   class="l4"
   id="use4" />&#10;<use
   xlink:href="#basekey"
   y="0"
   x="144"
   class="l3"
   id="use5" />&#10;<use
   xlink:href="#basekey"
   y="0"
   x="180"
   class="l2"
   id="use6" />&#10;<use
   xlink:href="#basekey"
   y="0"
   x="216"
   class="l2"
   id="use7" />&#10;&#10;<use
   xlink:href="#basekey"
   y="0"
   x="252"
   class="r2"
   id="use8" />&#10;<use
   xlink:href="#basekey"
   y="0"
   x="288"
   class="r2"
   id="use9" />&#10;<use
   xlink:href="#basekey"
   y="0"
   x="324"
   class="r3"
   id="use10" />&#10;<use
   xlink:href="#basekey"
   y="0"
   x="360"
   class="r4"
   id="use11" />&#10;<use
   xlink:href="#basekey"
   y="0"
   x="396"
   class="r5"
   id="use12" />&#10;<use
   xlink:href="#basekey"
   y="0"
   x="432"
   class="r5"
   id="use13" />&#10;&#10;&#10;<use
   xlink:href="#basekey"
   y="36"
   x="54"
   class="l5"
   id="use14" />&#10;<use
   xlink:href="#basekey"
   y="36"
   x="90"
   class="l4"
   id="use15" />&#10;<use
   xlink:href="#basekey"
   y="36"
   x="126"
   class="l3"
   id="use16" />&#10;<use
   xlink:href="#basekey"
   y="36"
   x="162"
   class="l2"
   id="use17" />&#10;<use
   xlink:href="#basekey"
   y="36"
   x="198"
   class="l2"
   id="use18" />&#10;&#10;<use
   xlink:href="#basekey"
   y="36"
   x="234"
   class="r2"
   id="use19" />&#10;<use
   xlink:href="#basekey"
   y="36"
   x="270"
   class="r2"
   id="use20" />&#10;<use
   xlink:href="#basekey"
   y="36"
   x="306"
   class="r3"
   id="use21" />&#10;<use
   xlink:href="#basekey"
   y="36"
   x="342"
   class="r4"
   id="use22" />&#10;<use
   xlink:href="#basekey"
   y="36"
   x="378"
   class="r5"
   id="use23" />&#10;<use
   xlink:href="#basekey"
   y="36"
   x="414"
   class="r5"
   id="use24" />&#10;<use
   xlink:href="#basekey"
   y="36"
   x="450"
   class="r5"
   id="use25" />&#10;&#10;&#10;<use
   xlink:href="#basekey"
   y="72"
   x="64"
   class="l5"
   id="use26" />&#10;<use
   xlink:href="#basekey"
   y="72"
   x="100"
   class="l4"
   id="use27" />&#10;<use
   xlink:href="#basekey"
   y="72"
   x="136"
   class="l3"
   id="use28" />&#10;<use
   xlink:href="#basekey"
   y="72"
   x="172"
   class="l2"
   id="use29" />&#10;<use
   xlink:href="#basekey"
   y="72"
   x="208"
   class="l2"
   id="use30" />&#10;&#10;<use
   xlink:href="#basekey"
   y="72"
   x="244"
   class="r2"
   id="use31" />&#10;<use
   xlink:href="#basekey"
   y="72"
   x="280"
   class="r2"
   id="use32" />&#10;<use
   xlink:href="#basekey"
   y="72"
   x="316"
   class="r3"
   id="use33" />&#10;<use
   xlink:href="#basekey"
   y="72"
   x="352"
   class="r4"
   id="use34" />&#10;<use
   xlink:href="#basekey"
   y="72"
   x="388"
   class="r5"
   id="use35" />&#10;&#10;    <use
   xlink:href="#basekey"
   y="72"
   x="460"
   class="r5"
   id="use36" />&#10;&#10;&#10;&#10;<use
   xlink:href="#basekey"
   y="108"
   x="82"
   class="l5"
   id="use37" />&#10;<use
   xlink:href="#basekey"
   y="108"
   x="118"
   class="l4"
   id="use38" />&#10;<use
   xlink:href="#basekey"
   y="108"
   x="154"
   class="l3"
   id="use39" />&#10;<use
   xlink:href="#basekey"
   y="108"
   x="190"
   class="l2"
   id="use40" />&#10;<use
   xlink:href="#basekey"
   y="108"
   x="226"
   class="l2"
   id="use41" />&#10;&#10;<use
   xlink:href="#basekey"
   y="108"
   x="262"
   class="r2"
   id="use42" />&#10;<use
   xlink:href="#basekey"
   y="108"
   x="298"
   class="r2"
   id="use43" />&#10;<use
   xlink:href="#basekey"
   y="108"
   x="334"
   class="r3"
   id="use44" />&#10;<use
   xlink:href="#basekey"
   y="108"
   x="370"
   class="r4"
   id="use45" />&#10;<use
   xlink:href="#basekey"
   y="108"
   x="406"
   class="r5"
   id="use46" />&#10;&#10;&#10;<rect
   id="backspace"
   y="0"
   x="468"
   width="60"
   height="32"
   rx="4"
   class="key grey" />&#10;&#10;<rect
   id="tab"
   x="0"
   y="36"
   width="50"
   height="32"
   rx="4"
   class="key grey" />&#10;&#10;<rect
   id="m3l"
   x="0"
   y="72"
   width="60"
   height="32"
   rx="4"
   class="key grey" />&#10;&#10;<use
   id="m3r"
   xlink:href="#basekey"
   x="424"
   y="72"
   class="key grey" />&#10;&#10;&#10;<rect
   id="shiftl"
   x="0"
   y="108"
   width="40"
   height="32"
   rx="4"
   class="key grey" />&#10;<rect
   id="m4l"
   x="44"
   y="108"
   width="34"
   height="32"
   rx="4"
   class="key grey pressed" />&#10;<rect
   id="shiftr"
   x="442"
   y="108"
   width="86"
   height="32"
   rx="4"
   class="key grey" />&#10;&#10;<rect
   id="ctrll"
   x="0"
   y="144"
   width="50"
   height="32"
   rx="4"
   class="key grey" />&#10;<rect
   id="altl"
   x="124"
   y="144"
   width="48"
   height="32"
   rx="4"
   class="key grey" />&#10;<rect
   id="space"
   x="176"
   y="144"
   width="168"
   height="32"
   rx="4"
   class="key grey" />&#10;<rect
   id="m4r"
   x="348"
   y="144"
   width="48"
   height="32"
   rx="4"
   class="key grey pressed" />&#10;<rect
   id="ctrlr"
   x="478"
   y="144"
   width="50"
   height="32"
   rx="4"
   class="key grey" />&#10;&#10;<use
   xlink:href="#basekey"
   y="0"
   x="542"
   class="key numpad"
   id="use47" />&#10;<use
   xlink:href="#basekey"
   y="0"
   x="578"
   class="key numpad"
   id="use48" />&#10;<use
   xlink:href="#basekey"
   y="0"
   x="614"
   class="key numpad"
   id="use49" />&#10;<use
   xlink:href="#basekey"
   y="0"
   x="650"
   class="key numpad"
   id="use50" />&#10;&#10;<use
   xlink:href="#basekey"
   y="36"
   x="542"
   class="key numpad"
   id="use51" />&#10;<use
   xlink:href="#basekey"
   y="36"
   x="578"
   class="key numpad"
   id="use52" />&#10;<use
   xlink:href="#basekey"
   y="36"
   x="614"
   class="key numpad"
   id="use53" />&#10;<rect
   id="kpplus"
   x="650"
   y="36"
   width="32"
   height="68"
   rx="4"
   class="key numpad" />&#10;&#10;<use
   xlink:href="#basekey"
   y="72"
   x="542"
   class="key numpad"
   id="use54" />&#10;<use
   xlink:href="#basekey"
   y="72"
   x="578"
   class="key numpad"
   id="use55" />&#10;<use
   xlink:href="#basekey"
   y="72"
   x="614"
   class="key numpad"
   id="use56" />&#10;&#10;<use
   xlink:href="#basekey"
   y="108"
   x="542"
   class="key numpad"
   id="use57" />&#10;<use
   xlink:href="#basekey"
   y="108"
   x="578"
   class="key numpad"
   id="use58" />&#10;<use
   xlink:href="#basekey"
   y="108"
   x="614"
   class="key numpad"
   id="use59" />&#10;<rect
   id="kppenter"
   x="650"
   y="108"
   width="32"
   height="68"
   rx="4"
   class="key numpad" />&#10;&#10;<rect
   id="kp0"
   x="542"
   y="144"
   width="68"
   height="32"
   rx="4"
   class="key numpad" />&#10;<use
   xlink:href="#basekey"
   y="144"
   x="614"
   class="key numpad"
   id="use60" />&#10;&#10;<path
   fill-rule="evenodd"
   clip-rule="evenodd"
   d="      M 10,32      l -6,0 a 4,4 0 0 1 -4,-4      l 0,-24 a 4,4 0 0 1 4,-4      l 34,0 a 4,4 0 0 1 4,4      l 0,60 a 4,4 0 0 1 -4,4      l -24,0 a 4,4 0 0 1 -4,-4      z"
   transform="translate(486,36)"
   id="return"
   class="key grey" />&#10;&#10;<rect
   y="101"
   x="181"
   width="14"
   height="1"
   rx="1"
   id="nub"
   style="fill:#111;" />&#10;<use
   y="0"
   x="108"
   xlink:href="#nub"
   id="use61" />&#10;</g>&#10;&#10;<g
   transform="translate(-0.5,-0.5)"
   id="g62">&#10;<path
   d="m 10.785156,90.167969 h 1.175782 l 1.488281,3.96875 1.496094,-3.96875 h 1.175781 V 96 h -0.769531 v -5.121094 l -1.503907,4 h -0.792968 l -1.503907,-4 V 96 h -0.765625 z m 8.566406,1.960937 q -0.578125,0 -0.914062,0.453125 -0.335938,0.449219 -0.335938,1.234375 0,0.785156 0.332032,1.238281 0.335937,0.449219 0.917968,0.449219 0.574219,0 0.910157,-0.453125 0.335937,-0.453125 0.335937,-1.234375 0,-0.777344 -0.335937,-1.230469 -0.335938,-0.457031 -0.910157,-0.457031 z m 0,-0.609375 q 0.9375,0 1.472657,0.609375 0.535156,0.609375 0.535156,1.6875 0,1.074219 -0.535156,1.6875 -0.535157,0.609375 -1.472657,0.609375 -0.941406,0 -1.476562,-0.609375 -0.53125,-0.613281 -0.53125,-1.6875 0,-1.078125 0.53125,-1.6875 0.535156,-0.609375 1.476562,-0.609375 z m 6.078125,0.769531 v -2.367187 h 0.71875 V 96 h -0.71875 v -0.65625 q -0.226562,0.390625 -0.574218,0.582031 -0.34375,0.1875 -0.828125,0.1875 -0.792969,0 -1.292969,-0.632812 -0.496094,-0.632813 -0.496094,-1.664063 0,-1.03125 0.496094,-1.664062 0.5,-0.632813 1.292969,-0.632813 0.484375,0 0.828125,0.191406 0.347656,0.1875 0.574218,0.578125 z m -2.449218,1.527344 q 0,0.792969 0.324218,1.246094 0.328125,0.449219 0.898438,0.449219 0.570312,0 0.898437,-0.449219 0.328125,-0.453125 0.328125,-1.246094 0,-0.792969 -0.328125,-1.242187 -0.328125,-0.453125 -0.898437,-0.453125 -0.570313,0 -0.898438,0.453125 -0.324218,0.449218 -0.324218,1.242187 z m 7.140625,-0.960937 q 0.566406,0.121093 0.882812,0.503906 0.320313,0.382812 0.320313,0.945312 0,0.863282 -0.59375,1.335938 -0.59375,0.472656 -1.6875,0.472656 -0.367188,0 -0.757813,-0.07422 -0.386719,-0.07031 -0.800781,-0.214843 V 95.0625 q 0.328125,0.191406 0.71875,0.289062 0.390625,0.09766 0.816406,0.09766 0.742188,0 1.128906,-0.292969 0.390625,-0.292969 0.390625,-0.851563 0,-0.515625 -0.363281,-0.804687 -0.359375,-0.292969 -1.003906,-0.292969 h -0.679688 v -0.648437 h 0.710938 q 0.582031,0 0.890625,-0.230469 0.308594,-0.234375 0.308594,-0.671875 0,-0.449219 -0.320313,-0.6875 -0.316406,-0.242188 -0.910156,-0.242188 -0.324219,0 -0.695313,0.07031 -0.371093,0.07031 -0.816406,0.21875 V 90.3125 Q 28.109375,90.1875 28.5,90.125 q 0.394531,-0.0625 0.742187,-0.0625 0.898438,0 1.421875,0.410156 0.523438,0.40625 0.523438,1.101563 0,0.484375 -0.277344,0.820312 -0.277344,0.332031 -0.789062,0.460938 z"
   id="m3ltxt"
   style="font-size:8px;line-height:0%;font-family:'DejaVu Sans';fill:#111111"
   class="mod"
   aria-label="Mod3" />&#10;<path
   d="m 16.585937,126.34375 -1.558593,-1.55859 -1.558594,1.55859 h 0.767578 v 6.07031 h 1.582031 v -6.07031 z m -4.535156,0.58594 2.976563,-2.97656 2.976562,2.97656 H 16.404297 V 133 h -2.753906 v -6.07031 z"
   id="shiftltxt"
   style="font-size:12px;line-height:0%;font-family:'DejaVu Sans';fill:#111111"
   class="mod big"
   aria-label="⇧" />&#10;<path
   d="m 14.28125,162.35937 v 0.76954 q -0.449219,-0.21485 -0.847656,-0.32032 -0.398438,-0.10547 -0.769531,-0.10547 -0.644532,0 -0.996094,0.25 -0.347656,0.25 -0.347656,0.71094 0,0.38672 0.230468,0.58594 0.234375,0.19531 0.882813,0.31641 l 0.476562,0.0977 q 0.882813,0.16797 1.300782,0.59375 0.421875,0.42188 0.421875,1.13281 0,0.84766 -0.570313,1.28516 -0.566406,0.4375 -1.664062,0.4375 -0.414063,0 -0.882813,-0.0937 -0.464844,-0.0937 -0.964844,-0.27734 v -0.8125 q 0.480469,0.26953 0.941407,0.40625 0.460937,0.13672 0.90625,0.13672 0.675781,0 1.042968,-0.26563 0.367188,-0.26562 0.367188,-0.75781 0,-0.42969 -0.265625,-0.67188 -0.261719,-0.24218 -0.863281,-0.36328 l -0.480469,-0.0937 q -0.882813,-0.17578 -1.277344,-0.55078 -0.394531,-0.375 -0.394531,-1.04297 0,-0.77344 0.542969,-1.21875 0.546875,-0.44531 1.503906,-0.44531 0.410156,0 0.835937,0.0742 0.425782,0.0742 0.871094,0.22265 z m 2.261719,0.0234 v 1.24219 h 1.480468 v 0.55859 h -1.480468 v 2.375 q 0,0.53516 0.144531,0.6875 0.148437,0.15235 0.597656,0.15235 h 0.738281 V 168 h -0.738281 q -0.832031,0 -1.148437,-0.30859 -0.316406,-0.3125 -0.316406,-1.13282 v -2.375 H 15.292969 V 163.625 h 0.527344 v -1.24219 z m 4.960937,1.91406 q -0.121094,-0.0703 -0.265625,-0.10156 -0.140625,-0.0352 -0.3125,-0.0352 -0.609375,0 -0.9375,0.39843 -0.324219,0.39453 -0.324219,1.13672 V 168 h -0.722656 v -4.375 h 0.722656 v 0.67969 q 0.226563,-0.39844 0.589844,-0.58985 0.363281,-0.19531 0.882813,-0.19531 0.07422,0 0.164062,0.0117 0.08984,0.008 0.199219,0.0273 z m 3.492188,1.46485 q 0,-0.78125 -0.324219,-1.21094 -0.320313,-0.42969 -0.902344,-0.42969 -0.578125,0 -0.902344,0.42969 -0.320312,0.42969 -0.320312,1.21094 0,0.77734 0.320312,1.20703 0.324219,0.42969 0.902344,0.42969 0.582031,0 0.902344,-0.42969 0.324219,-0.42969 0.324219,-1.20703 z m 0.71875,1.69531 q 0,1.11719 -0.496094,1.66016 -0.496094,0.54687 -1.519531,0.54687 -0.378907,0 -0.714844,-0.0586 -0.335938,-0.0547 -0.652344,-0.17188 v -0.69922 q 0.316406,0.17188 0.625,0.25391 0.308594,0.082 0.628906,0.082 0.707032,0 1.058594,-0.37109 0.351563,-0.36719 0.351563,-1.11328 v -0.35547 q -0.222657,0.38672 -0.570313,0.57812 Q 24.078125,168 23.59375,168 q -0.804688,0 -1.296875,-0.61328 -0.492188,-0.61328 -0.492188,-1.625 0,-1.01563 0.492188,-1.62891 0.492187,-0.61328 1.296875,-0.61328 0.484375,0 0.832031,0.19141 0.347656,0.1914 0.570313,0.57812 V 163.625 h 0.71875 z"
   id="ctrlltxt"
   style="font-size:8px;line-height:0%;font-family:'DejaVu Sans';fill:#111111"
   class="mod"
   aria-label="Strg" />&#10;&#10;<path
   d="m 56.785156,126.16797 h 1.175781 l 1.488282,3.96875 1.496093,-3.96875 h 1.175782 V 132 h -0.769532 v -5.12109 l -1.503906,4 h -0.792969 l -1.503906,-4 V 132 h -0.765625 z m 9.140625,0.6875 -1.992187,3.11328 h 1.992187 z m -0.207031,-0.6875 h 0.992187 v 3.80078 h 0.832032 V 130.625 H 66.710937 V 132 h -0.785156 v -1.375 h -2.632812 v -0.76172 z"
   id="m4ltxt"
   style="font-size:8px;line-height:0%;font-family:'DejaVu Sans';fill:#111111"
   class="mod"
   aria-label="M4" />&#10;<path
   d="m 137.73437,162.94531 -1.07031,2.90235 h 2.14453 z m -0.44531,-0.77734 h 0.89453 L 140.40625,168 h -0.82031 l -0.53125,-1.49609 h -2.62891 L 135.89453,168 h -0.83203 z m 3.9375,-0.2461 h 0.71875 V 168 h -0.71875 z m 2.9336,0.46094 v 1.24219 h 1.48046 v 0.55859 h -1.48046 v 2.375 q 0,0.53516 0.14453,0.6875 0.14843,0.15235 0.59765,0.15235 h 0.73828 V 168 h -0.73828 q -0.83203,0 -1.14843,-0.30859 -0.31641,-0.3125 -0.31641,-1.13282 v -2.375 h -0.52734 V 163.625 h 0.52734 v -1.24219 z"
   id="altltxt"
   style="font-size:8px;line-height:0%;font-family:'DejaVu Sans';fill:#111111"
   class="mod"
   aria-label="Alt" />&#10;&#10;&#10;<path
   d="m 436.78516,90.167969 h 1.17578 l 1.48828,3.96875 1.49609,-3.96875 h 1.17578 V 96 h -0.76953 v -5.121094 l -1.5039,4 h -0.79297 l -1.50391,-4 V 96 h -0.76562 z m 9.36328,2.6875 q 0.5664,0.121093 0.88281,0.503906 0.32031,0.382812 0.32031,0.945312 0,0.863282 -0.59375,1.335938 -0.59375,0.472656 -1.6875,0.472656 -0.36719,0 -0.75781,-0.07422 -0.38672,-0.07031 -0.80078,-0.214843 V 95.0625 q 0.32812,0.191406 0.71875,0.289062 0.39062,0.09766 0.8164,0.09766 0.74219,0 1.12891,-0.292969 0.39063,-0.292969 0.39063,-0.851563 0,-0.515625 -0.36329,-0.804687 -0.35937,-0.292969 -1.0039,-0.292969 h -0.67969 v -0.648437 h 0.71094 q 0.58203,0 0.89062,-0.230469 0.3086,-0.234375 0.3086,-0.671875 0,-0.449219 -0.32032,-0.6875 -0.3164,-0.242188 -0.91015,-0.242188 -0.32422,0 -0.69531,0.07031 -0.3711,0.07031 -0.81641,0.21875 V 90.3125 q 0.44922,-0.125 0.83984,-0.1875 0.39453,-0.0625 0.74219,-0.0625 0.89844,0 1.42188,0.410156 0.52343,0.40625 0.52343,1.101563 0,0.484375 -0.27734,0.820312 -0.27734,0.332031 -0.78906,0.460938 z"
   id="m3rtxt"
   style="font-size:8px;line-height:0%;font-family:'DejaVu Sans';fill:#111111"
   class="mod"
   aria-label="M3" />&#10;&#10;&#10;<path
   d="m 456.58594,126.34375 -1.5586,-1.55859 -1.55859,1.55859 h 0.76758 v 6.07031 h 1.58203 v -6.07031 z m -4.53516,0.58594 2.97656,-2.97656 2.97657,2.97656 H 456.4043 V 133 h -2.75391 v -6.07031 z"
   id="shiftrtxt"
   style="font-size:12px;line-height:0%;font-family:'DejaVu Sans';fill:#111111"
   class="mod big"
   aria-label="⇧" />&#10;<path
   d="m 494.28125,162.35937 v 0.76954 q -0.44922,-0.21485 -0.84766,-0.32032 -0.39843,-0.10547 -0.76953,-0.10547 -0.64453,0 -0.99609,0.25 -0.34766,0.25 -0.34766,0.71094 0,0.38672 0.23047,0.58594 0.23438,0.19531 0.88281,0.31641 l 0.47657,0.0977 q 0.88281,0.16797 1.30078,0.59375 0.42187,0.42188 0.42187,1.13281 0,0.84766 -0.57031,1.28516 -0.56641,0.4375 -1.66406,0.4375 -0.41407,0 -0.88282,-0.0937 -0.46484,-0.0937 -0.96484,-0.27734 v -0.8125 q 0.48047,0.26953 0.94141,0.40625 0.46093,0.13672 0.90625,0.13672 0.67578,0 1.04297,-0.26563 0.36718,-0.26562 0.36718,-0.75781 0,-0.42969 -0.26562,-0.67188 -0.26172,-0.24218 -0.86328,-0.36328 l -0.48047,-0.0937 q -0.88281,-0.17578 -1.27735,-0.55078 -0.39453,-0.375 -0.39453,-1.04297 0,-0.77344 0.54297,-1.21875 0.54688,-0.44531 1.50391,-0.44531 0.41015,0 0.83594,0.0742 0.42578,0.0742 0.87109,0.22265 z m 2.26172,0.0234 v 1.24219 h 1.48047 v 0.55859 h -1.48047 v 2.375 q 0,0.53516 0.14453,0.6875 0.14844,0.15235 0.59766,0.15235 h 0.73828 V 168 h -0.73828 q -0.83204,0 -1.14844,-0.30859 -0.31641,-0.3125 -0.31641,-1.13282 v -2.375 h -0.52734 V 163.625 h 0.52734 v -1.24219 z m 4.96094,1.91406 q -0.1211,-0.0703 -0.26563,-0.10156 -0.14062,-0.0352 -0.3125,-0.0352 -0.60937,0 -0.9375,0.39843 -0.32422,0.39453 -0.32422,1.13672 V 168 h -0.72265 v -4.375 h 0.72265 v 0.67969 q 0.22656,-0.39844 0.58985,-0.58985 0.36328,-0.19531 0.88281,-0.19531 0.0742,0 0.16406,0.0117 0.0898,0.008 0.19922,0.0273 z m 3.49218,1.46485 q 0,-0.78125 -0.32422,-1.21094 -0.32031,-0.42969 -0.90234,-0.42969 -0.57812,0 -0.90234,0.42969 -0.32032,0.42969 -0.32032,1.21094 0,0.77734 0.32032,1.20703 0.32422,0.42969 0.90234,0.42969 0.58203,0 0.90234,-0.42969 0.32422,-0.42969 0.32422,-1.20703 z m 0.71875,1.69531 q 0,1.11719 -0.49609,1.66016 -0.49609,0.54687 -1.51953,0.54687 -0.37891,0 -0.71485,-0.0586 -0.33593,-0.0547 -0.65234,-0.17188 v -0.69922 q 0.31641,0.17188 0.625,0.25391 0.30859,0.082 0.62891,0.082 0.70703,0 1.05859,-0.37109 0.35156,-0.36719 0.35156,-1.11328 v -0.35547 q -0.22265,0.38672 -0.57031,0.57812 Q 504.07812,168 503.59375,168 q -0.80469,0 -1.29688,-0.61328 -0.49218,-0.61328 -0.49218,-1.625 0,-1.01563 0.49218,-1.62891 0.49219,-0.61328 1.29688,-0.61328 0.48437,0 0.83203,0.19141 0.34766,0.1914 0.57031,0.57812 V 163.625 h 0.71875 z"
   id="ctrlrtxt"
   style="font-size:8px;line-height:0%;font-family:'DejaVu Sans';fill:#111111"
   class="mod"
   aria-label="Strg" />&#10;<path
   d="m 357.78516,162.16797 h 1.17578 l 1.48828,3.96875 1.49609,-3.96875 h 1.17578 V 168 h -0.76953 v -5.12109 l -1.5039,4 h -0.79297 l -1.50391,-4 V 168 h -0.76562 z m 8.5664,1.96094 q -0.57812,0 -0.91406,0.45312 -0.33594,0.44922 -0.33594,1.23438 0,0.78515 0.33203,1.23828 0.33594,0.44922 0.91797,0.44922 0.57422,0 0.91016,-0.45313 0.33594,-0.45312 0.33594,-1.23437 0,-0.77735 -0.33594,-1.23047 -0.33594,-0.45703 -0.91016,-0.45703 z m 0,-0.60938 q 0.9375,0 1.47266,0.60938 0.53515,0.60937 0.53515,1.6875 0,1.07421 -0.53515,1.6875 -0.53516,0.60937 -1.47266,0.60937 -0.9414,0 -1.47656,-0.60937 -0.53125,-0.61329 -0.53125,-1.6875 0,-1.07813 0.53125,-1.6875 0.53516,-0.60938 1.47656,-0.60938 z m 6.07813,0.76953 v -2.36719 h 0.71875 V 168 h -0.71875 v -0.65625 q -0.22657,0.39062 -0.57422,0.58203 -0.34375,0.1875 -0.82813,0.1875 -0.79297,0 -1.29297,-0.63281 -0.49609,-0.63281 -0.49609,-1.66406 0,-1.03125 0.49609,-1.66407 0.5,-0.63281 1.29297,-0.63281 0.48438,0 0.82813,0.19141 0.34765,0.1875 0.57422,0.57812 z m -2.44922,1.52735 q 0,0.79296 0.32422,1.24609 0.32812,0.44922 0.89843,0.44922 0.57032,0 0.89844,-0.44922 0.32813,-0.45313 0.32813,-1.24609 0,-0.79297 -0.32813,-1.24219 -0.32812,-0.45313 -0.89844,-0.45313 -0.57031,0 -0.89843,0.45313 -0.32422,0.44922 -0.32422,1.24219 z m 6.91797,-2.96094 -1.99219,3.11328 h 1.99219 z m -0.20703,-0.6875 h 0.99218 v 3.80078 h 0.83203 v 0.65625 h -0.83203 V 168 h -0.78515 v -1.375 h -2.63282 v -0.76172 z"
   id="m4rtxt"
   style="font-size:8px;line-height:0%;font-family:'DejaVu Sans';fill:#111111"
   class="mod"
   aria-label="Mod4" />&#10;<path
   d="m 262.99805,162.6875 q -0.60938,0 -0.91797,0.60156 -0.30469,0.59766 -0.30469,1.80078 0,1.19922 0.30469,1.80078 0.30859,0.59766 0.91797,0.59766 0.61328,0 0.91797,-0.59766 0.30859,-0.60156 0.30859,-1.80078 0,-1.20312 -0.30859,-1.80078 -0.30469,-0.60156 -0.91797,-0.60156 z m 0,-0.625 q 0.98047,0 1.49609,0.77734 0.51953,0.77344 0.51953,2.25 0,1.47266 -0.51953,2.25 -0.51562,0.77344 -1.49609,0.77344 -0.98047,0 -1.5,-0.77344 -0.51563,-0.77734 -0.51563,-2.25 0,-1.47656 0.51563,-2.25 0.51953,-0.77734 1.5,-0.77734 z"
   id="text61"
   style="font-size:8px;line-height:0%;font-family:'DejaVu Sans';text-align:center;text-anchor:middle;fill:#111111"
   class="mod space"
   aria-label="0" />&#10;&#10;<path
   d="m 498.29883,61.214844 -2.97656,-2.976563 2.97656,-2.976562 v 1.599609 h 3.32226 v -3.609375 h 2.75391 l -0.006,6.363281 h -6.07031 z m -0.58594,-3.767578 v -0.767579 l -1.55859,1.558594 1.55859,1.558594 v -0.767578 h 6.07031 l 0.006,-5.191406 h -1.58203 l -0.006,3.609375 z"
   id="returntxt"
   style="font-size:12px;line-height:0%;font-family:'DejaVu Sans';fill:#111111"
   class="mod big"
   aria-label="⏎" />&#10;<path
   d="m 490.70312,23 h -7.66015 l -3.03906,-3.039063 3.03906,-3.039062 h 7.66015 z M 490.125,17.5 h -0.55078 l -2.46094,2.460937 2.46094,2.460938 h 0.55078 z m -5.47656,0 2.05078,2.050781 L 488.75,17.5 Z m 4.10156,4.921875 -2.05078,-2.050781 -2.05078,2.050781 z M 483.83594,17.5 h -0.55469 l -2.46094,2.46875 2.46094,2.453125 h 0.55469 l 2.46093,-2.460938 z"
   id="backspacetxt"
   style="font-size:8px;line-height:0%;font-family:'DejaVu Sans';fill:#111111"
   class="mod"
   aria-label="⌫" />&#10;</g>&#10;&#10;<g
   transform="translate(55,26)"
   id="g72">&#10;	<path
   d="m -3.019043,-5.203125 h 6.046875 v 1.0810547 h -6.046875 z m 6.0292969,-5.036133 v 3.9375002 H 1.7006836 v -0.984375 q -0.3867188,0.5537109 -1.01953126,0.8525391 -0.6328125,0.2988281 -1.45019531,0.2988281 -1.12500003,0 -1.79296873,-0.5888672 -0.6679688,-0.5976563 -0.6679688,-1.5908203 0,-1.1865235 0.834961,-1.7929689 0.84375,-0.606445 2.49609372,-0.606445 H 1.7006836 v -0.03516 q 0,-0.799805 -0.5185547,-1.195313 -0.50976562,-0.404297 -1.53808593,-0.404297 -0.54492188,0 -1.14257817,0.149414 -0.5976562,0.149414 -1.1953125,0.448242 v -1.116211 q 0.6416016,-0.246093 1.2744141,-0.36914 0.64160157,-0.123047 1.24804688,-0.123047 1.60839842,0 2.39062502,0.773437 0.7910156,0.773438 0.7910156,2.34668 z m -2.42578124,0.536133 q -1.41503907,0 -1.96874996,0.2988281 -0.553711,0.2900391 -0.553711,0.984375 0,0.5625 0.4306641,0.9052735 0.430664,0.3339843 1.15136717,0.3339843 0.9140625,0 1.48535153,-0.6328125 0.5712891,-0.6328125 0.5712891,-1.6347656 V -9.703125 Z"
   id="text62"
   style="font-size:18px;line-height:0%;font-family:'DejaVu Sans';text-align:center;text-anchor:middle;fill:#111111;stroke-width:0.75"
   class="key"
   aria-label="ª" />&#10;	<path
   d="m 32.980957,-5.203125 h 6.046875 v 1.0810547 h -6.046875 z m 3.023438,-8.15625 q 1.573242,0 2.478515,0.975586 0.905274,0.966797 0.905274,2.6455077 0,1.678711 -0.905274,2.6455079 -0.905273,0.9580078 -2.478515,0.9580078 -1.573243,0 -2.487305,-0.9667969 -0.914063,-0.9667969 -0.914063,-2.6367188 0,-1.6787107 0.914063,-2.6455077 0.914062,-0.975586 2.487305,-0.975586 z m 0,1.010742 q -0.922852,0 -1.476563,0.711914 -0.553711,0.703125 -0.553711,1.8984377 0,1.1689454 0.553711,1.8720704 0.5625,0.703125 1.476563,0.703125 0.922851,0 1.467773,-0.703125 0.553711,-0.703125 0.553711,-1.8720704 0,-1.2041017 -0.544922,-1.9072267 -0.544922,-0.703125 -1.476562,-0.703125 z"
   id="text63"
   style="font-size:18px;line-height:0%;font-family:'DejaVu Sans';text-align:center;text-anchor:middle;fill:#111111;stroke-width:0.75"
   class="key"
   aria-label="º" />&#10;	<path
   d="m 63.114258,0 v -1.4941406 q 1.291992,0 1.291992,-0.9404297 V -13.12207 h 2.390625 l 5.818359,10.9775387 V -10.6875 q 0,-1.125 0.685547,-1.775391 0.694336,-0.659179 2.329102,-0.659179 v 1.49414 q -1.291992,0 -1.291992,0.94043 V 0 h -2.390625 l -5.81836,-10.977539 v 8.5429687 q 0,1.125 -0.694336,1.78417968 Q 64.749023,0 63.114258,0 Z m 12.629883,-5.4667969 q 0,-1.2128906 0.632812,-2.0478515 0.632813,-0.84375 1.538086,-0.84375 0.905273,0 1.538086,0.84375 0.632812,0.8349609 0.632812,2.0478515 0,1.2128907 -0.632812,2.0566406 -0.632813,0.834961 -1.538086,0.834961 -0.905273,0 -1.538086,-0.834961 -0.632812,-0.8437499 -0.632812,-2.0566406 z m 1.230468,0 q 0,0.6855469 0.246094,1.1425782 0.254883,0.4482421 0.694336,0.4482421 0.439453,0 0.685547,-0.4482421 0.254883,-0.4570313 0.254883,-1.1425782 0,-0.6855468 -0.254883,-1.133789 -0.246094,-0.4570313 -0.685547,-0.4570313 -0.439453,0 -0.694336,0.4570313 -0.246094,0.4482422 -0.246094,1.133789 z M 75.744141,0 v -1.0810547 h 4.341796 V 0 Z"
   id="text64"
   style="font-size:18px;line-height:0%;font-family:'DejaVu Sans';text-align:center;text-anchor:middle;fill:#111111;stroke-width:0.75"
   class="key"
   aria-label="№" />&#10;	<text
   x="108"
   class="key"
   id="text65" />&#10;	<path
   d="m 143.06396,-7.3652344 h 1.8545 v 2.2324219 h -1.8545 z"
   id="text66"
   style="font-size:18px;line-height:0%;font-family:'DejaVu Sans';text-align:center;text-anchor:middle;fill:#111111;stroke-width:0.75"
   class="key"
   aria-label="·" />&#10;&#10;	<path
   d="m 183.95947,-12.832031 v 1.599609 q -0.66797,-0.360351 -1.26562,-0.536133 -0.59766,-0.18457 -1.13379,-0.18457 -1.30078,0 -1.81055,0.685547 -0.50976,0.676758 -0.50976,2.5400389 v 1.8896485 h 3.43652 v 1.2568359 h -3.43652 v 4.0869141 h 4.8955 V 0 h -8.72754 v -1.4941406 h 2.07422 v -4.0869141 h -1.74902 v -1.2568359 h 1.74902 v -2.0917969 q 0,-2.2939455 0.94043,-3.3574215 0.94043,-1.072266 2.9795,-1.072266 0.53613,0 1.19531,0.140625 0.66797,0.131836 1.3623,0.386719 z"
   id="text67"
   style="font-size:18px;line-height:0%;font-family:'DejaVu Sans';text-align:center;text-anchor:middle;fill:#111111;stroke-width:0.75"
   class="key"
   aria-label="£" />&#10;	<path
   d="m 218.10498,-8.7275391 1.81934,-1.8369139 1.00195,1.0107421 -1.81055,1.8105468 q 0.3252,0.5185547 0.4834,1.0458985 0.1582,0.5185547 0.1582,1.0634765 0,0.553711 -0.16699,1.0634766 -0.16699,0.5009766 -0.51855,1.0019531 l 1.83691,1.819336 -1.00195,0.99316403 -1.81934,-1.81933593 q -0.51855,0.3515625 -1.02832,0.5185547 -0.50976,0.1669922 -1.0459,0.1669922 -0.50976,0 -1.03711,-0.1582032 -0.52734,-0.1669922 -1.06347,-0.4921875 l -1.81934,1.81933598 -0.99316,-1.01074218 1.81933,-1.8105469 q -0.32519,-0.5449219 -0.49218,-1.0634765 -0.15821,-0.5185547 -0.15821,-1.0283204 0,-0.5625 0.167,-1.0722656 0.16699,-0.5097656 0.50097,-1.0019531 l -1.81933,-1.8105469 1.01074,-1.0107423 1.81933,1.8193361 q 0.4834,-0.3427735 0.99317,-0.5009766 0.50976,-0.1669922 1.07226,-0.1669922 0.52735,0 1.03711,0.1582031 0.51856,0.1582032 1.05469,0.4921875 z m 0.27246,3.0761719 q 0,-0.984375 -0.68555,-1.6611328 -0.67675,-0.6767578 -1.67871,-0.6767578 -0.98437,0 -1.67871,0.6767578 -0.69433,0.6767578 -0.69433,1.6611328 0,1.0019531 0.68554,1.6875 0.69434,0.6855469 1.6875,0.6855469 0.99317,0 1.67871,-0.6855469 0.68555,-0.6943359 0.68555,-1.6875 z"
   id="text68"
   style="font-size:18px;line-height:0%;font-family:'DejaVu Sans';text-align:center;text-anchor:middle;fill:#111111;stroke-width:0.75"
   class="key"
   aria-label="¤" />&#10;	<path
   d="m 245.4873,-6.3896484 h 9.15821 l -2.05664,-2.0566407 1.05468,-1.0546875 3.4629,3.4628907 v -3.375 h 1.49414 v 7.5585937 h -1.49414 v -3.3925781 l -3.4629,3.4628906 -1.05468,-1.0546875 2.05664,-2.0566406 h -9.15821 z"
   id="text69"
   style="font-size:18px;line-height:0%;font-family:'DejaVu Sans';text-align:center;text-anchor:middle;fill:#111111;stroke-width:0.75"
   class="key"
   aria-label="⇥" />&#10;	<path
   d="m 289.53809,-13.12207 h 1.49414 l -4.57032,14.7919919 h -1.49414 z"
   id="text70"
   style="font-size:18px;line-height:0%;font-family:'DejaVu Sans';text-align:center;text-anchor:middle;fill:#111111;stroke-width:0.75"
   class="key"
   aria-label="/" />&#10;	<path
   d="m 327.96387,-10.959961 -3.15528,1.7050782 3.15528,1.7138672 -0.50977,0.8613281 -2.95312,-1.7841797 v 3.3134766 h -1.00196 v -3.3134766 l -2.95312,1.7841797 -0.50977,-0.8613281 3.15528,-1.7138672 -3.15528,-1.7050782 0.50977,-0.870117 2.95312,1.78418 v -3.313477 h 1.00196 v 3.313477 l 2.95312,-1.78418 z"
   id="text71"
   style="font-size:18px;line-height:0%;font-family:'DejaVu Sans';text-align:center;text-anchor:middle;fill:#111111;stroke-width:0.75"
   class="key"
   aria-label="*" />&#10;	<path
   d="m 357.63135,-5.6513672 h 4.7373 v 1.4414063 h -4.7373 z"
   id="text72"
   style="font-size:18px;line-height:0%;font-family:'DejaVu Sans';text-align:center;text-anchor:middle;fill:#111111;stroke-width:0.75"
   class="key"
   aria-label="-" />&#10;</g>&#10;&#10;&#10;<path
   d="m 10.685547,55.740234 h 6.105469 l -1.371094,-1.371093 0.703125,-0.703125 2.308594,2.308593 v -2.25 h 0.996093 v 5.039063 h -0.996093 v -2.261719 l -2.308594,2.308594 -0.703125,-0.703125 1.371094,-1.371094 h -6.105469 z"
   id="text73"
   style="font-size:12px;line-height:0%;font-family:'DejaVu Sans';fill:#111111"
   class="mod big"
   aria-label="⇥" />&#10;&#10;<g
   transform="translate(73,62)"
   id="g85">&#10;	<path
   d="M -0.39550781,-13.183594 H 0.39550781 L 3.8408203,-9.7207031 2.7861328,-8.6660156 0.74707031,-10.722656 v 3.2519529 H 3.3486328 v 1.4941406 H 0.74707031 v 1.4941406 H 3.3486328 v 1.4941406 H 0.74707031 V 0 H -0.74707031 V -2.9882813 H -3.3310547 v -1.4941406 h 2.58398439 V -5.9765625 H -3.3310547 v -1.4941406 h 2.58398439 v -3.2519529 l -2.05664059,2.0566404 -1.0546875,-1.0546875 z"
   id="text74"
   style="font-size:18px;line-height:0%;font-family:'DejaVu Sans';text-align:center;text-anchor:middle;fill:#111111;stroke-width:0.75"
   class="key"
   aria-label="⇞" />&#10;	<path
   d="M 47.355469,0 H 30.120117 l -6.83789,-6.8378906 6.83789,-6.8378904 H 47.355469 Z M 46.054687,-12.375 H 44.81543 l -5.53711,5.5371094 5.53711,5.5371094 h 1.239257 z m -12.322265,0 4.614258,4.6142578 4.614257,-4.6142578 z m 9.228515,11.0742188 -4.614257,-4.6142579 -4.614258,4.6142579 z M 31.904297,-12.375 H 30.65625 l -5.537109,5.5546875 5.537109,5.5195313 h 1.248047 l 5.537109,-5.5371094 z"
   id="text75"
   style="font-size:18px;line-height:0%;font-family:'DejaVu Sans';text-align:center;text-anchor:middle;fill:#111111;stroke-width:0.75"
   class="key"
   aria-label="⌫" />&#10;	<path
   d="m 71.604492,-13.183594 h 0.791016 l 3.46289,3.4628909 -1.054687,1.0546875 -2.056641,-2.0566404 v 3.2519529 h -1.49414 v -3.2519529 l -2.056641,2.0566404 -1.054687,-1.0546875 z m -0.351562,7.2070315 h 1.49414 v 2.2324219 h -1.49414 z m 0,3.7265625 h 1.49414 V 0 h -1.49414 z"
   id="text76"
   style="font-size:18px;line-height:0%;font-family:'DejaVu Sans';text-align:center;text-anchor:middle;fill:#111111;stroke-width:0.75"
   class="key"
   aria-label="⇡" />&#10;	<path
   d="m 96.644531,0 v -13.675781 h 17.235349 l 6.83789,6.8378904 L 113.87988,0 Z m 1.300781,-12.375 V -1.3007812 H 99.18457 L 104.72168,-6.8378906 99.18457,-12.375 Z m 12.322268,0 h -9.22852 l 4.61426,4.6142578 z m -9.22852,11.0742188 h 9.22852 l -4.61426,-4.6142579 z M 112.0957,-12.375 l -5.53711,5.5371094 5.53711,5.5371094 h 1.24805 l 5.53711,-5.5195313 -5.53711,-5.5546875 z"
   id="text77"
   style="font-size:18px;line-height:0%;font-family:'DejaVu Sans';text-align:center;text-anchor:middle;fill:#111111;stroke-width:0.75"
   class="key"
   aria-label="⌦" />&#10;	<path
   d="m 144.37793,0.06152344 h -0.79102 l -3.44531,-3.46289064 1.05469,-1.0546875 2.03906,2.0566406 v -3.2519531 h -2.60156 v -1.4941406 h 2.60156 v -1.4941406 h -2.60156 v -1.4941406 h 2.60156 v -2.988281 h 1.49414 v 2.988281 h 2.58399 v 1.4941406 h -2.58399 v 1.4941406 h 2.58399 v 1.4941406 h -2.58399 v 3.2519531 l 2.05664,-2.0566406 1.05469,1.0546875 z"
   id="text78"
   style="font-size:18px;line-height:0%;font-family:'DejaVu Sans';text-align:center;text-anchor:middle;fill:#111111;stroke-width:0.75"
   class="key"
   aria-label="⇟" />&#10;&#10;	<path
   d="m 180.89209,-7.6113281 h -1.78418 V -9.84375 h 1.78418 z m 0,10.8896484 h -1.78418 v -5.7568359 l 0.18457,-3.1376953 h 1.42383 l 0.17578,3.1376953 z"
   id="text79"
   style="font-size:18px;line-height:0%;font-family:'DejaVu Sans';text-align:center;text-anchor:middle;fill:#111111;stroke-width:0.75"
   class="key"
   aria-label="¡" />&#10;	<path
   d="m 211.75049,-13.12207 h 8.4375 v 0.755859 L 215.42432,0 h -1.8545 l 4.48243,-11.62793 h -6.30176 z"
   id="text80"
   style="font-size:18px;line-height:0%;font-family:'DejaVu Sans';text-align:center;text-anchor:middle;fill:#111111;stroke-width:0.75"
   class="key"
   aria-label="7" />&#10;	<path
   d="m 251.99561,-6.2314453 q -1.26563,0 -1.99512,0.6767578 -0.7207,0.6767578 -0.7207,1.8632812 0,1.1865235 0.7207,1.8632813 0.72949,0.6767578 1.99512,0.6767578 1.26562,0 1.99511,-0.6767578 0.72949,-0.6855469 0.72949,-1.8632813 0,-1.1865234 -0.72949,-1.8632812 -0.7207,-0.6767578 -1.99511,-0.6767578 z m -1.7754,-0.7558594 q -1.14257,-0.28125 -1.78417,-1.0634766 -0.63282,-0.7822265 -0.63282,-1.9072265 0,-1.5732422 1.11621,-2.4873052 1.125,-0.914062 3.07618,-0.914062 1.95996,0 3.07617,0.914062 1.11621,0.914063 1.11621,2.4873052 0,1.125 -0.6416,1.9072265 -0.63282,0.7822266 -1.7666,1.0634766 1.2832,0.2988281 1.99511,1.1689453 0.72071,0.8701172 0.72071,2.1269531 0,1.9072266 -1.16895,2.92675786 -1.16016,1.01953125 -3.33105,1.01953125 -2.1709,0 -3.33985,-1.01953125 -1.16015,-1.01953126 -1.16015,-2.92675786 0,-1.2568359 0.7207,-2.1269531 0.7207,-0.8701172 2.0039,-1.1689453 z m -0.65039,-2.8037109 q 0,1.0195312 0.63282,1.5908203 0.6416,0.5712891 1.79297,0.5712891 1.14257,0 1.78418,-0.5712891 0.65039,-0.5712891 0.65039,-1.5908203 0,-1.0195314 -0.65039,-1.5908204 -0.64161,-0.571289 -1.78418,-0.571289 -1.15137,0 -1.79297,0.571289 -0.63282,0.571289 -0.63282,1.5908204 z"
   id="text81"
   style="font-size:18px;line-height:0%;font-family:'DejaVu Sans';text-align:center;text-anchor:middle;fill:#111111;stroke-width:0.75"
   class="key"
   aria-label="8" />&#10;	<path
   d="M 284.25146,-0.27246094 V -1.8896484 q 0.66797,0.3164062 1.35352,0.4833984 0.68555,0.1669922 1.34473,0.1669922 1.75781,0 2.68066,-1.1777344 0.93164,-1.1865234 1.06348,-3.5947265 -0.50977,0.7558593 -1.29199,1.1601562 -0.78223,0.4042969 -1.73145,0.4042969 -1.96875,0 -3.12012,-1.1865235 -1.14258,-1.1953125 -1.14258,-3.2607422 0,-2.0214847 1.19532,-3.2431637 1.19531,-1.22168 3.18164,-1.22168 2.27637,0 3.47168,1.749023 1.2041,1.7402348 1.2041,5.0625004 0,3.1025391 -1.47656,4.9570313 -1.46778,1.84570311 -3.95508,1.84570311 -0.66797,0 -1.35352,-0.13183594 -0.68554,-0.13183593 -1.42383,-0.39550781 z m 3.53321,-5.56347656 q 1.19531,0 1.88965,-0.8173828 0.70312,-0.8173828 0.70312,-2.241211 0,-1.4150387 -0.70312,-2.2324217 -0.69434,-0.826172 -1.88965,-0.826172 -1.19531,0 -1.89844,0.826172 -0.69434,0.817383 -0.69434,2.2324217 0,1.4238282 0.69434,2.241211 0.70313,0.8173828 1.89844,0.8173828 z"
   id="text82"
   style="font-size:18px;line-height:0%;font-family:'DejaVu Sans';text-align:center;text-anchor:middle;fill:#111111;stroke-width:0.75"
   class="key"
   aria-label="9" />&#10;	<path
   d="m 324.73828,-11.285156 v 4.8955076 h 4.89551 v 1.4941406 h -4.89551 V 0 h -1.47656 v -4.8955078 h -4.89551 v -1.4941406 h 4.89551 v -4.8955076 z"
   id="text83"
   style="font-size:18px;line-height:0%;font-family:'DejaVu Sans';text-align:center;text-anchor:middle;fill:#111111;stroke-width:0.75"
   class="key"
   aria-label="+" />&#10;	<path
   d="m 354.36621,-6.3896484 h 11.26758 v 1.4941406 h -11.26758 z"
   id="text84"
   style="font-size:18px;line-height:0%;font-family:'DejaVu Sans';text-align:center;text-anchor:middle;fill:#111111;stroke-width:0.75"
   class="key"
   aria-label="−" />&#10;&#10;  <path
   d="m 395.07715,-9.3076172 h 1.85449 v 2.2324219 h -1.85449 z m 0,7.0751953 h 1.85449 v 1.51171878 l -1.44141,2.81250002 h -1.13378 l 0.7207,-2.81250002 z"
   id="text85"
   style="font-size:18px;line-height:0%;font-family:'DejaVu Sans';text-align:center;text-anchor:middle;fill:#111111;stroke-width:0.75"
   class="key"
   aria-label=";" />&#10;&#10;</g>&#10;&#10;&#10;<g
   transform="translate(84,98)"
   id="g95">&#10;	<path
   d="m 6.6357422,-13.12207 v 0.870117 H -5.5986328 V 0 H -6.46875 v -13.12207 z m -10.5556641,3.102539 0.553711,-0.553711 h 4.8867187 v 1.4853514 h -2.9003906 l 7.5761719,7.5761719 -1.0546875,1.05468745 -7.5761719,-7.57617185 v 2.9003906 h -1.4853516 z"
   id="text86"
   style="font-size:18px;line-height:0%;font-family:'DejaVu Sans';text-align:center;text-anchor:middle;fill:#111111;stroke-width:0.75"
   class="key"
   aria-label="⇱" />&#10;	<path
   d="m 29.337891,-5.2470703 v -0.7910156 l 3.454101,-3.4541016 1.054688,1.0546875 -2.047852,2.0478516 h 3.243164 v 1.4941406 h -3.243164 l 2.047852,2.0478515 -1.054688,1.0546876 z m 7.198242,0.3515625 v -1.4941406 h 2.241211 v 1.4941406 z m 3.735351,0 v -1.4941406 h 2.241211 v 1.4941406 z"
   id="text87"
   style="font-size:18px;line-height:0%;font-family:'DejaVu Sans';text-align:center;text-anchor:middle;fill:#111111;stroke-width:0.75"
   class="key"
   aria-label="⇠" />&#10;	<path
   d="m 71.604492,0.06152344 -3.46289,-3.46289064 1.054687,-1.0546875 2.056641,2.0566406 v -3.2519531 h 1.49414 v 3.2519531 l 2.056641,-2.0566406 1.054687,1.0546875 -3.46289,3.46289064 z M 71.25293,-7.1455078 v -2.2324219 h 1.49414 v 2.2324219 z m 0,-3.7265622 v -2.25 h 1.49414 v 2.25 z"
   id="text88"
   style="font-size:18px;line-height:0%;font-family:'DejaVu Sans';text-align:center;text-anchor:middle;fill:#111111;stroke-width:0.75"
   class="key"
   aria-label="⇣" />&#10;	<path
   d="m 114.66211,-5.2470703 -3.4541,3.4541016 -1.05469,-1.0546876 2.04785,-2.0478515 h -3.24316 v -1.4941406 h 3.24316 l -2.04785,-2.0478516 1.05469,-1.0546875 3.4541,3.4541016 z m -9.43945,-1.1425781 h 2.24121 v 1.4941406 h -2.24121 z m -1.49414,0 v 1.4941406 h -2.24122 v -1.4941406 z"
   id="text89"
   style="font-size:18px;line-height:0%;font-family:'DejaVu Sans';text-align:center;text-anchor:middle;fill:#111111;stroke-width:0.75"
   class="key nubkey"
   aria-label="⇢" />&#10;	<path
   d="m 137.53125,0 v -0.87011719 h 12.23437 V -13.12207 h 0.87012 V 0 Z m 10.55566,-3.1025391 -0.55371,0.553711 h -4.88672 v -1.4853516 h 2.90039 l -7.57617,-7.5761723 1.05469,-1.054687 7.57617,7.5761718 v -2.9003906 h 1.48535 z"
   id="text90"
   style="font-size:18px;line-height:0%;font-family:'DejaVu Sans';text-align:center;text-anchor:middle;fill:#111111;stroke-width:0.75"
   class="key"
   aria-label="⇲" />&#10;&#10;	<path
   d="m 179.61768,-6.3193359 h 1.66992 v 1.3710937 q 0,0.8876953 -0.2461,1.4589844 -0.2373,0.571289 -1.02832,1.3359375 l -0.79101,0.7734375 q -0.50977,0.4658203 -0.73828,0.87890624 -0.21973,0.41308594 -0.21973,0.84375 0,0.78222656 0.57129,1.26562496 0.58008,0.4833985 1.53809,0.4833985 0.68554,0 1.47656,-0.3076172 0.79101,-0.3076172 1.63476,-0.89648439 V 2.5400391 q -0.82617,0.5009765 -1.66992,0.7470703 -0.84375,0.2460937 -1.74902,0.2460937 -1.61719,0 -2.60156,-0.852539 -0.98438,-0.8525391 -0.98438,-2.25000004 0,-0.66796875 0.31641,-1.265625 0.32519,-0.60644526 1.10742,-1.36230466 l 0.77344,-0.7558594 q 0.42187,-0.4130859 0.58886,-0.6416016 0.167,-0.2373047 0.23731,-0.4570312 0.0615,-0.1845703 0.0879,-0.4482422 0.0264,-0.2636719 0.0264,-0.7382812 z m 1.72265,-1.2919922 h -1.77539 V -9.84375 h 1.77539 z"
   id="text91"
   style="font-size:18px;line-height:0%;font-family:'DejaVu Sans';text-align:center;text-anchor:middle;fill:#111111;stroke-width:0.75"
   class="key"
   aria-label="¿" />&#10;	<path
   d="m 217.07666,-11.575195 -4.48242,7.0048825 h 4.48242 z m -0.46582,-1.546875 h 2.23242 v 8.5517575 h 1.87207 V -3.09375 h -1.87207 V 0 h -1.7666 v -3.09375 h -5.92383 v -1.7138672 z"
   id="text92"
   style="font-size:18px;line-height:0%;font-family:'DejaVu Sans';text-align:center;text-anchor:middle;fill:#111111;stroke-width:0.75"
   class="key nubkey"
   aria-label="4" />&#10;	<path
   d="m 248.21631,-13.12207 h 6.96973 v 1.49414 h -5.34375 v 3.2167972 q 0.38671,-0.131836 0.77343,-0.1933594 0.38672,-0.070312 0.77344,-0.070312 2.19727,0 3.48047,1.2041016 1.2832,1.2041015 1.2832,3.2607422 0,2.118164 -1.31836,3.2958984 -1.31836,1.16894531 -3.71777,1.16894531 -0.82617,0 -1.6875,-0.140625 -0.85254,-0.140625 -1.7666,-0.421875 V -2.0917969 q 0.79101,0.4306641 1.63476,0.6416016 0.84375,0.2109375 1.78418,0.2109375 1.52051,0 2.40821,-0.7998047 0.88769,-0.7998047 0.88769,-2.1708984 0,-1.3710938 -0.88769,-2.1708985 -0.8877,-0.7998047 -2.40821,-0.7998047 -0.71191,0 -1.42383,0.1582032 -0.70312,0.1582031 -1.4414,0.4921875 z"
   id="text93"
   style="font-size:18px;line-height:0%;font-family:'DejaVu Sans';text-align:center;text-anchor:middle;fill:#111111;stroke-width:0.75"
   class="key"
   aria-label="5" />&#10;	<path
   d="m 288.21533,-7.2685547 q -1.19531,0 -1.89844,0.8173828 -0.69433,0.8173828 -0.69433,2.241211 0,1.415039 0.69433,2.2412109 0.70313,0.8173828 1.89844,0.8173828 1.19531,0 1.88965,-0.8173828 0.70313,-0.8261719 0.70313,-2.2412109 0,-1.4238282 -0.70313,-2.241211 -0.69434,-0.8173828 -1.88965,-0.8173828 z m 3.52442,-5.5634763 v 1.617187 q -0.66797,-0.316406 -1.35352,-0.483398 -0.67676,-0.166992 -1.34473,-0.166992 -1.75781,0 -2.68945,1.186523 -0.92285,1.1865235 -1.05469,3.5859376 0.51856,-0.7646485 1.30078,-1.1689454 0.78223,-0.4130859 1.72266,-0.4130859 1.97754,0 3.12012,1.2041016 1.15137,1.1953125 1.15137,3.2607422 0,2.0214843 -1.19532,3.24316402 -1.19531,1.22167969 -3.18164,1.22167969 -2.27637,0 -3.48047,-1.74023441 -1.2041,-1.7490234 -1.2041,-5.0625 0,-3.1113281 1.47656,-4.9570314 1.47657,-1.854492 3.96387,-1.854492 0.66797,0 1.34473,0.131836 0.68554,0.131836 1.42383,0.395508 z"
   id="text94"
   style="font-size:18px;line-height:0%;font-family:'DejaVu Sans';text-align:center;text-anchor:middle;fill:#111111;stroke-width:0.75"
   class="key"
   aria-label="6" />&#10;	<path
   d="m 323.06396,-2.2324219 h 1.8545 V 0 h -1.8545 z"
   id="text95"
   style="font-size:18px;line-height:0%;font-family:'DejaVu Sans';text-align:center;text-anchor:middle;fill:#111111;stroke-width:0.75"
   class="key"
   aria-label="." />&#10;&#10;  &#10;&#10;</g>&#10;&#10;<g
   transform="translate(101,134)"
   id="g105">&#10;    <path
   d="M -9,0 V -13.675781 H 9 V 0 Z m 1.3007813,-12.375 v 11.0742188 h 1.2392578 L -0.92285156,-6.8378906 -6.4599609,-12.375 Z m 12.3222656,0 h -9.2285156 l 4.61425776,4.6142578 z M -4.6054687,-1.3007812 H 4.6230469 L 0.00878906,-5.9150391 Z M 6.4511719,-12.375 0.9140625,-6.8378906 6.4511719,-1.3007812 H 7.6992187 V -12.375 Z"
   id="text96"
   style="font-size:18px;line-height:0%;font-family:'DejaVu Sans';text-align:center;text-anchor:middle;fill:#111111;stroke-width:0.75"
   class="key"
   aria-label="⌧" />&#10;    <path
   d="m 29.487305,-6.3896484 h 9.158203 l -2.056641,-2.0566407 1.054688,-1.0546875 3.46289,3.4628907 v -3.375 h 1.494141 v 7.5585937 h -1.494141 v -3.3925781 l -3.46289,3.4628906 -1.054688,-1.0546875 2.056641,-2.0566406 h -9.158203 z"
   id="text97"
   style="font-size:18px;line-height:0%;font-family:'DejaVu Sans';text-align:center;text-anchor:middle;fill:#111111;stroke-width:0.75"
   class="key"
   aria-label="⇥" />&#10;    <path
   d="m 71.774998,-11.214 c -0.63,0 -1.386,0.306 -1.71,0.468 l 0.216,0.774 c 0.522,-0.324 0.81,-0.45 1.422,-0.45 0.684,0 1.17,0.432 1.17,1.098 h -0.954 c -1.098,0 -1.998,0.558 -1.998,1.638 0,0.99 0.576,1.566 1.512,1.566 0.648,0 1.116,-0.144 1.44,-0.414 v 0.342 h 0.864 V -9 c 0,-1.422 -0.594,-2.214 -1.962,-2.214 z m -0.162,4.266 c -0.468,0 -0.828,-0.27 -0.828,-0.792 0,-0.594 0.63,-0.792 1.422,-0.792 h 0.666 c 0,1.35 -0.792,1.584 -1.26,1.584 z m 0.432,6.354 c -0.738,-1.584 -2.322,-3.978 -3.726,-5.814 l -0.648,0.288 c 1.476,2.034 2.88,4.158 3.996,6.336 h 0.756 c 0.972,-1.998 2.448,-4.248 3.906,-6.228 l -0.576,-0.396 c -1.368,1.8 -2.988,4.284 -3.708,5.814 z"
   id="text98"
   style="font-size:18px;line-height:0%;font-family:'DejaVu Sans';text-align:center;text-anchor:middle;fill:#111111;stroke-width:0.75"
   class="key"
   aria-label="⎀" />&#10;    <path
   d="m 105.40723,-1.1777344 -4.46485,-4.4648437 4.46485,-4.4648439 v 2.3994142 h 4.9834 V -13.12207 h 4.13085 l -0.009,9.5449216 h -9.10547 z m -0.87891,-5.6513672 v -1.1513671 l -2.33789,2.3378906 2.33789,2.3378906 v -1.1513672 h 9.10547 l 0.009,-7.7871093 h -2.37305 l -0.009,5.4140624 z"
   id="text99"
   style="font-size:18px;line-height:0%;font-family:'DejaVu Sans';text-align:center;text-anchor:middle;fill:#111111;stroke-width:0.75"
   class="key"
   aria-label="⏎" />&#10;&#10;    <path
   d="m 141.45996,-6.1171875 2.03906,-2.0566406 1.05469,1.0546875 -3.44531,3.4628906 h -0.79102 l -3.46289,-3.4628906 1.05469,-1.0546875 2.05664,2.0566406 v -0.4394531 q 0,-1.116211 0.4043,-2.100586 0.3955,-0.9404297 1.2041,-1.7753904 0.79101,-0.75586 1.75781,-1.186524 0.94922,-0.404297 2.07422,-0.404297 1.125,0 2.07422,0.404297 0.9668,0.430664 1.75781,1.186524 0.80859,0.8349607 1.2041,1.7753904 0.4043,0.984375 0.4043,2.100586 h -1.49414 q 0,-0.8173828 -0.29004,-1.5292969 -0.29004,-0.7119141 -0.87012,-1.2919922 -0.52734,-0.5185547 -1.2832,-0.8613283 -0.65039,-0.290039 -1.48535,-0.290039 -0.83496,0 -1.52051,0.290039 -0.7207,0.3076174 -1.2832,0.8613283 -0.5625,0.5625 -0.87012,1.2919922 -0.29004,0.7119141 -0.29004,1.5292969 z"
   id="text100"
   style="font-size:18px;line-height:0%;font-family:'DejaVu Sans';text-align:center;text-anchor:middle;fill:#111111;stroke-width:0.75"
   class="key"
   aria-label="↶" />&#10;    <path
   d="m 179.07715,-2.2324219 h 1.85449 V 0 h -1.85449 z m 0,-7.0751953 h 1.85449 v 2.2324219 h -1.85449 z"
   id="text101"
   style="font-size:18px;line-height:0%;font-family:'DejaVu Sans';text-align:center;text-anchor:middle;fill:#111111;stroke-width:0.75"
   class="key"
   aria-label=":" />&#10;    <path
   d="m 212.50635,-1.4941406 h 2.90039 V -11.504883 l -3.15528,0.632813 v -1.617188 l 3.1377,-0.632812 h 1.77539 v 11.6279294 h 2.90039 V 0 h -7.55859 z"
   id="text102"
   style="font-size:18px;line-height:0%;font-family:'DejaVu Sans';text-align:center;text-anchor:middle;fill:#111111;stroke-width:0.75"
   class="key"
   aria-label="1" />&#10;    <path
   d="m 249.72803,-1.4941406 h 6.19629 V 0 h -8.33203 v -1.4941406 q 1.01074,-1.0458985 2.75097,-2.803711 1.74903,-1.7666015 2.19727,-2.2763671 0.85254,-0.9580079 1.18652,-1.6171876 0.34277,-0.6679687 0.34277,-1.3095703 0,-1.0458984 -0.73828,-1.7050784 -0.72949,-0.659179 -1.90722,-0.659179 -0.83496,0 -1.76661,0.290039 -0.92285,0.290039 -1.97753,0.878906 v -1.792969 q 1.07226,-0.430664 2.0039,-0.65039 0.93164,-0.219727 1.70508,-0.219727 2.03906,0 3.25195,1.019531 1.21289,1.019531 1.21289,2.7246096 0,0.8085938 -0.30761,1.538086 -0.29883,0.7207031 -1.09864,1.7050781 -0.21972,0.2548828 -1.39746,1.4765625 -1.17773,1.2128906 -3.32226,3.4013672 z"
   id="text103"
   style="font-size:18px;line-height:0%;font-family:'DejaVu Sans';text-align:center;text-anchor:middle;fill:#111111;stroke-width:0.75"
   class="key"
   aria-label="2" />&#10;    <path
   d="m 289.57764,-7.0751953 q 1.27441,0.2724609 1.98632,1.1337891 0.72071,0.8613281 0.72071,2.1269531 0,1.9423828 -1.33594,3.00585935 -1.33594,1.06347656 -3.79687,1.06347656 -0.82618,0 -1.70508,-0.16699219 -0.87012,-0.15820312 -1.80176,-0.48339843 V -2.109375 q 0.73828,0.4306641 1.61719,0.6503906 0.8789,0.2197266 1.83691,0.2197266 1.66992,0 2.54004,-0.6591797 0.87891,-0.6591797 0.87891,-1.9160156 0,-1.1601563 -0.81739,-1.8105469 -0.80859,-0.6591797 -2.25879,-0.6591797 h -1.52929 v -1.4589844 h 1.59961 q 1.30957,0 2.0039,-0.5185547 0.69434,-0.5273437 0.69434,-1.5117187 0,-1.0107425 -0.7207,-1.5468755 -0.71192,-0.544921 -2.04786,-0.544921 -0.72949,0 -1.56445,0.158203 -0.83496,0.158203 -1.83691,0.492187 v -1.582031 q 1.01074,-0.28125 1.88965,-0.421875 0.88769,-0.140625 1.66992,-0.140625 2.02148,0 3.19922,0.922852 1.17773,0.914062 1.17773,2.4785152 0,1.0898437 -0.62402,1.8457031 -0.62403,0.7470703 -1.77539,1.0371094 z"
   id="text104"
   style="font-size:18px;line-height:0%;font-family:'DejaVu Sans';text-align:center;text-anchor:middle;fill:#111111;stroke-width:0.75"
   class="key"
   aria-label="3" />&#10;    <path
   d="m 323.24854,-2.2324219 h 1.85449 v 1.51171878 l -1.44141,2.81250002 h -1.13379 l 0.72071,-2.81250002 z"
   id="text105"
   style="font-size:18px;line-height:0%;font-family:'DejaVu Sans';text-align:center;text-anchor:middle;fill:#111111;stroke-width:0.75"
   class="key"
   aria-label="," />&#10;</g>&#10;&#10;&#10;<g
   transform="translate(561,26)"
   id="g109">&#10;    <path
   d="m -5.6337891,-8.1738281 h 6.7851563 l 2.25,-2.7685549 L 4.5,-10.045898 2.9707031,-8.1738281 h 2.663086 v 1.4765625 H 1.7666016 l -1.71386723,2.109375 H 5.6337891 V -3.09375 H -1.1689453 L -3.4365234,-0.34277344 -4.5351562,-1.2392578 -3.0058594,-3.09375 h -2.6279297 v -1.4941406 h 3.8496094 l 1.7138672,-2.109375 h -5.5634766 z"
   id="text106"
   style="font-size:18px;line-height:0%;font-family:'DejaVu Sans';text-align:center;text-anchor:middle;fill:#111111;stroke-width:0.75"
   class="key"
   aria-label="≠" />&#10;    <path
   d="m 39.392578,-13.359375 h 1.40625 L 32.607422,0.25488281 h -1.40625 z"
   id="text107"
   style="font-size:18px;line-height:0%;font-family:'DejaVu Sans';text-align:center;text-anchor:middle;fill:#111111;stroke-width:0.75"
   class="key"
   aria-label="⁄" />&#10;    <path
   d="m 77.080078,-9.6679688 -4.016601,4.0341797 4.016601,4.0166016 L 76.03418,-0.55371094 72,-4.5878906 67.96582,-0.55371094 66.928711,-1.6171875 70.936523,-5.6337891 66.928711,-9.6679688 67.96582,-10.731445 72,-6.6972656 76.03418,-10.731445 Z"
   id="text108"
   style="font-size:18px;line-height:0%;font-family:'DejaVu Sans';text-align:center;text-anchor:middle;fill:#111111;stroke-width:0.75"
   class="key"
   aria-label="×" />&#10;    <path
   d="m 107.22656,-13.825195 4.57032,14.79199188 h -1.49415 L 105.73242,-13.825195 Z"
   id="text109"
   style="font-size:18px;line-height:0%;font-family:'DejaVu Sans';text-align:center;text-anchor:middle;fill:#111111;stroke-width:0.75"
   class="key"
   aria-label="∖" />&#10;</g>&#10;<g
   transform="translate(561,62)"
   id="g112">&#10;    <path
   d="m 6.6357422,-13.12207 v 0.870117 H -5.5986328 V 0 H -6.46875 v -13.12207 z m -10.5556641,3.102539 0.553711,-0.553711 h 4.8867187 v 1.4853514 h -2.9003906 l 7.5761719,7.5761719 -1.0546875,1.05468745 -7.5761719,-7.57617185 v 2.9003906 h -1.4853516 z"
   id="text110"
   style="font-size:18px;line-height:0%;font-family:'DejaVu Sans';text-align:center;text-anchor:middle;fill:#111111;stroke-width:0.75"
   class="key"
   aria-label="⇱" />&#10;    <path
   d="m 35.604492,-13.183594 h 0.791016 l 3.46289,3.4628909 -1.054687,1.0546875 -2.056641,-2.0566404 v 3.2519529 h -1.49414 v -3.2519529 l -2.056641,2.0566404 -1.054687,-1.0546875 z m -0.351562,7.2070315 h 1.49414 v 2.2324219 h -1.49414 z m 0,3.7265625 h 1.49414 V 0 h -1.49414 z"
   id="text111"
   style="font-size:18px;line-height:0%;font-family:'DejaVu Sans';text-align:center;text-anchor:middle;fill:#111111;stroke-width:0.75"
   class="key"
   aria-label="⇡" />&#10;    <path
   d="m 71.604492,-13.183594 h 0.791016 l 3.445312,3.4628909 -1.054687,1.0546875 -2.039063,-2.0566404 v 3.2519529 h 2.601563 v 1.4941406 H 72.74707 v 1.4941406 h 2.601563 v 1.4941406 H 72.74707 V 0 h -1.49414 v -2.9882813 h -2.583985 v -1.4941406 h 2.583985 v -1.4941406 h -2.583985 v -1.4941406 h 2.583985 v -3.2519529 l -2.056641,2.0566404 -1.054687,-1.0546875 z"
   id="text112"
   style="font-size:18px;line-height:0%;font-family:'DejaVu Sans';text-align:center;text-anchor:middle;fill:#111111;stroke-width:0.75"
   class="key"
   aria-label="⇞" />&#10;</g>&#10;<g
   transform="translate(561,98)"
   id="g115">&#10;    <path
   d="m -6.6621094,-5.2470703 v -0.7910156 l 3.4541016,-3.4541016 1.0546875,1.0546875 -2.0478516,2.0478516 h 3.24316409 v 1.4941406 H -4.2011719 l 2.0478516,2.0478515 -1.0546875,1.0546876 z m 7.19824221,0.3515625 V -6.3896484 H 2.7773438 v 1.4941406 z m 3.73535159,0 v -1.4941406 h 2.2412109 v 1.4941406 z"
   id="text113"
   style="font-size:18px;line-height:0%;font-family:'DejaVu Sans';text-align:center;text-anchor:middle;fill:#111111;stroke-width:0.75"
   class="key"
   aria-label="⇠" />&#10;    <text
   x="36"
   class="key"
   id="text114" />&#10;    <path
   d="m 78.662109,-5.2470703 -3.454101,3.4541016 -1.054688,-1.0546876 2.047852,-2.0478515 h -3.243164 v -1.4941406 h 3.243164 L 74.15332,-8.4375 l 1.054688,-1.0546875 3.454101,3.4541016 z m -9.439453,-1.1425781 h 2.241211 v 1.4941406 h -2.241211 z m -1.49414,0 v 1.4941406 h -2.241211 v -1.4941406 z"
   id="text115"
   style="font-size:18px;line-height:0%;font-family:'DejaVu Sans';text-align:center;text-anchor:middle;fill:#111111;stroke-width:0.75"
   class="key"
   aria-label="⇢" />&#10;</g>&#10;<g
   transform="translate(561,134)"
   id="g118">&#10;    <path
   d="M -6.46875,0 V -0.87011719 H 5.765625 V -13.12207 H 6.6357422 V 0 Z m 10.5556641,-3.1025391 -0.553711,0.553711 H -1.3535156 V -4.0341797 H 1.546875 l -7.5761719,-7.5761723 1.0546875,-1.054687 7.5761719,7.5761718 v -2.9003906 h 1.4853516 z"
   id="text116"
   style="font-size:18px;line-height:0%;font-family:'DejaVu Sans';text-align:center;text-anchor:middle;fill:#111111;stroke-width:0.75"
   class="key"
   aria-label="⇲" />&#10;    <path
   d="m 35.604492,0.06152344 -3.46289,-3.46289064 1.054687,-1.0546875 2.056641,2.0566406 v -3.2519531 h 1.49414 v 3.2519531 l 2.056641,-2.0566406 1.054687,1.0546875 -3.46289,3.46289064 z M 35.25293,-7.1455078 v -2.2324219 h 1.49414 v 2.2324219 z m 0,-3.7265622 v -2.25 h 1.49414 v 2.25 z"
   id="text117"
   style="font-size:18px;line-height:0%;font-family:'DejaVu Sans';text-align:center;text-anchor:middle;fill:#111111;stroke-width:0.75"
   class="key"
   aria-label="⇣" />&#10;    <path
   d="m 72.37793,0.06152344 h -0.791016 l -3.445312,-3.46289064 1.054687,-1.0546875 2.039063,2.0566406 v -3.2519531 h -2.601563 v -1.4941406 h 2.601563 v -1.4941406 h -2.601563 v -1.4941406 h 2.601563 v -2.988281 h 1.49414 v 2.988281 h 2.583985 v 1.4941406 h -2.583985 v 1.4941406 h 2.583985 v 1.4941406 h -2.583985 v 3.2519531 l 2.056641,-2.0566406 1.054687,1.0546875 z"
   id="text118"
   style="font-size:18px;line-height:0%;font-family:'DejaVu Sans';text-align:center;text-anchor:middle;fill:#111111;stroke-width:0.75"
   class="key"
   aria-label="⇟" />&#10;</g>&#10;<g
   transform="translate(561,170)"
   id="g120">&#10;    <path
   d="m 17.774998,-11.214 c -0.63,0 -1.386,0.306 -1.71,0.468 l 0.216,0.774 c 0.522,-0.324 0.81,-0.45 1.422,-0.45 0.684,0 1.17,0.432 1.17,1.098 h -0.954 c -1.098,0 -1.998,0.558 -1.998,1.638 0,0.99 0.576,1.566 1.512,1.566 0.648,0 1.116,-0.144 1.44,-0.414 v 0.342 h 0.864 V -9 c 0,-1.422 -0.594,-2.214 -1.962,-2.214 z m -0.162,4.266 c -0.468,0 -0.828,-0.27 -0.828,-0.792 0,-0.594 0.63,-0.792 1.422,-0.792 h 0.666 c 0,1.35 -0.792,1.584 -1.26,1.584 z m 0.432,6.354 c -0.738,-1.584 -2.322,-3.978 -3.726,-5.814 l -0.648,0.288 c 1.476,2.034 2.88,4.158 3.996,6.336 h 0.756 c 0.972,-1.998 2.448,-4.248 3.906,-6.228 l -0.576,-0.396 c -1.368,1.8 -2.988,4.284 -3.708,5.814 z"
   id="text119"
   style="font-size:18px;line-height:0%;font-family:'DejaVu Sans';text-align:center;text-anchor:middle;fill:#111111;stroke-width:0.75"
   class="key"
   aria-label="⎀" />&#10;    <path
   d="m 60.644531,0 v -13.675781 h 17.235352 l 6.83789,6.8378904 L 77.879883,0 Z m 1.300781,-12.375 V -1.3007812 H 63.18457 L 68.72168,-6.8378906 63.18457,-12.375 Z m 12.322266,0 h -9.228516 l 4.614258,4.6142578 z m -9.228516,11.0742188 h 9.228516 L 69.65332,-5.9150391 Z M 76.095703,-12.375 l -5.537109,5.5371094 5.537109,5.5371094 H 77.34375 L 82.880859,-6.8203125 77.34375,-12.375 Z"
   id="text120"
   style="font-size:18px;line-height:0%;font-family:'DejaVu Sans';text-align:center;text-anchor:middle;fill:#111111;stroke-width:0.75"
   class="key"
   aria-label="⌦" />&#10;</g>&#10;&#10;<g
   transform="translate(561,78)"
   id="g121">&#10;    <path
   d="m 108.73828,0 h -1.47656 v -3.4013672 h -4.89551 v -1.4941406 h 4.89551 V -8.296875 h 1.47656 v 3.4013672 h 4.89551 v 1.4941406 h -4.89551 z m -6.37207,-9.7910156 v -1.4941404 h 11.26758 v 1.4941404 z"
   id="text121"
   style="font-size:18px;line-height:0%;font-family:'DejaVu Sans';text-align:center;text-anchor:middle;fill:#111111;stroke-width:0.75"
   class="key"
   aria-label="∓" />&#10;</g>&#10;<g
   transform="translate(561,150)"
   id="g122">&#10;    <path
   d="m 105.40723,-1.1777344 -4.46485,-4.4648437 4.46485,-4.4648439 v 2.3994142 h 4.9834 V -13.12207 h 4.13085 l -0.009,9.5449216 h -9.10547 z m -0.87891,-5.6513672 v -1.1513671 l -2.33789,2.3378906 2.33789,2.3378906 v -1.1513672 h 9.10547 l 0.009,-7.7871093 h -2.37305 l -0.009,5.4140624 z"
   id="text122"
   style="font-size:18px;line-height:0%;font-family:'DejaVu Sans';text-align:center;text-anchor:middle;fill:#111111;stroke-width:0.75"
   class="key"
   aria-label="⏎" />&#10;</g>&#10;&#10;<path
   d="m 18.998047,18.476562 q 0.03516,0.07031 0.03516,0.166993 0,0.166992 -0.114258,0.298828 -0.105468,0.123047 -0.28125,0.123047 -0.166992,0 -0.307617,-0.114258 -0.131836,-0.123047 -0.131836,-0.307617 0,-0.158203 0.123047,-0.290039 0.131836,-0.131836 0.307617,-0.131836 0.263672,0 0.369141,0.254882 z m 2.768555,6.670899 q 0.03516,0.105469 0.03516,0.158203 0,0.158203 -0.123047,0.290039 -0.123047,0.131836 -0.298828,0.131836 -0.158203,0 -0.290039,-0.123047 -0.131836,-0.123047 -0.131836,-0.307617 0,-0.149414 0.114258,-0.28125 0.114257,-0.131836 0.28125,-0.131836 0.28125,0 0.413086,0.263672 z m -4.03418,-6.020508 q 0.131836,0.114258 0.131836,0.290039 0,0.421875 -0.413086,0.421875 -0.175781,0 -0.298828,-0.114258 -0.123047,-0.123047 -0.123047,-0.290039 0,-0.175781 0.123047,-0.298828 0.123047,-0.131836 0.290039,-0.131836 0.166992,0 0.290039,0.123047 z m 5.115234,5.097656 q 0.123047,0.123047 0.123047,0.298828 0,0.166993 -0.123047,0.29004 -0.114258,0.123046 -0.298828,0.123046 -0.175781,0 -0.298828,-0.123046 -0.123047,-0.123047 -0.123047,-0.29004 0,-0.175781 0.114258,-0.290039 0.123047,-0.123046 0.290039,-0.123046 0.175781,0 0.316406,0.114257 z m -6.029297,-4.016601 q 0.272461,0.114258 0.272461,0.404297 0,0.166992 -0.140625,0.290039 -0.131836,0.114258 -0.290039,0.114258 -0.18457,0 -0.298828,-0.131836 -0.114258,-0.131836 -0.114258,-0.290039 0,-0.175782 0.123047,-0.298829 0.131836,-0.123046 0.290039,-0.123046 0.05273,0 0.158203,0.03516 z m 6.670899,2.759765 q 0.263672,0.114258 0.263672,0.386719 0,0.175781 -0.131836,0.298828 -0.123047,0.114258 -0.290039,0.114258 -0.19336,0 -0.307618,-0.123047 -0.114257,-0.131836 -0.114257,-0.290039 0,-0.202148 0.131836,-0.307617 0.140625,-0.105469 0.298828,-0.105469 0.08789,0 0.149414,0.02637 z m -7.101563,-1.40625 q 0.166992,0 0.298828,0.123047 0.131836,0.114258 0.131836,0.28125 0,0.175782 -0.131836,0.307617 -0.131836,0.123047 -0.290039,0.123047 h -0.01758 q -0.166992,0 -0.290039,-0.123047 -0.114258,-0.131835 -0.114258,-0.298828 0,-0.175781 0.114258,-0.290039 0.123047,-0.123047 0.298828,-0.123047 z m 7.215821,-0.0088 q 0.175781,0 0.298828,0.123047 0.123047,0.123047 0.123047,0.298828 0,0.166993 -0.123047,0.290039 -0.114258,0.123047 -0.290039,0.123047 h -0.03516 q -0.158203,0 -0.28125,-0.123047 -0.114257,-0.123046 -0.114257,-0.28125 0,-0.175781 0.131836,-0.298828 0.131835,-0.123047 0.290039,-0.131836 z m -7.101563,1.423828 q 0.07031,-0.03516 0.166992,-0.03516 0.175782,0 0.298828,0.114258 0.123047,0.114258 0.123047,0.290039 0,0.166992 -0.123047,0.298828 -0.123046,0.131836 -0.298828,0.131836 -0.166992,0 -0.298828,-0.123047 -0.123047,-0.131836 -0.123047,-0.307617 0,-0.272461 0.254883,-0.369141 z m 6.670899,-2.768554 q 0.105468,-0.03516 0.158203,-0.03516 0.158203,0 0.290039,0.123046 0.131836,0.123047 0.131836,0.298829 0,0.158203 -0.123047,0.290039 -0.123047,0.131836 -0.307617,0.131836 -0.158204,0 -0.28125,-0.123047 -0.123047,-0.123047 -0.123047,-0.290039 0,-0.28125 0.254883,-0.395508 z m -6.020508,4.034179 q 0.131836,-0.131835 0.28125,-0.131835 0.18457,0 0.307617,0.123046 0.123047,0.114258 0.123047,0.290039 0,0.166993 -0.123047,0.298829 -0.114258,0.123046 -0.290039,0.123046 -0.166992,0 -0.298828,-0.123046 -0.123047,-0.131836 -0.123047,-0.298829 0,-0.158203 0.123047,-0.28125 z M 22.25,19.126953 q 0.140625,-0.123047 0.298828,-0.123047 0.175781,0 0.290039,0.123047 0.123047,0.123047 0.123047,0.298828 0,0.166992 -0.123047,0.298828 -0.114258,0.123047 -0.290039,0.123047 -0.166992,0 -0.290039,-0.131836 -0.123047,-0.131836 -0.123047,-0.290039 0,-0.166992 0.114258,-0.298828 z m -4.016602,6.029297 q 0.05273,-0.123047 0.166993,-0.193359 0.123046,-0.07031 0.228515,-0.07031 0.175781,0 0.290039,0.131836 0.123047,0.131836 0.123047,0.290039 0,0.175781 -0.131836,0.298828 -0.131836,0.114258 -0.290039,0.114258 -0.166992,0 -0.298828,-0.131836 -0.123047,-0.131836 -0.123047,-0.28125 0,-0.05273 0.03516,-0.158203 z m 2.759766,-6.670898 q 0.114258,-0.263672 0.386719,-0.263672 0.175781,0 0.298828,0.131836 0.123047,0.131836 0.123047,0.298828 0,0.175781 -0.131836,0.298828 -0.131836,0.114258 -0.290039,0.114258 -0.175781,0 -0.298828,-0.131836 -0.114258,-0.140625 -0.114258,-0.298828 0,-0.07031 0.02637,-0.149414 z m -1.40625,7.101562 q 0,-0.175781 0.123047,-0.298828 Q 19.833008,25.165039 20,25.165039 q 0.175781,0 0.298828,0.123047 0.123047,0.123047 0.123047,0.298828 0,0.166992 -0.123047,0.290039 Q 20.175781,26 20,26 19.833008,26 19.709961,25.876953 19.586914,25.753906 19.586914,25.586914 Z m 0,-7.21582 q 0,-0.175782 0.123047,-0.298828 Q 19.833008,17.949219 20,17.949219 q 0.175781,0 0.298828,0.123047 0.123047,0.123046 0.123047,0.298828 0,0.166992 -0.123047,0.290039 Q 20.175781,18.78418 20,18.78418 q -0.166992,0 -0.290039,-0.123047 -0.123047,-0.123047 -0.123047,-0.290039 z m 1.291992,-3.454102 q 0,0.492188 -0.290039,0.852539 -0.290039,0.351563 -0.729492,0.351563 -0.738281,0 -0.738281,-0.84375 0,-0.500977 0.298828,-0.84375 0.298828,-0.351563 0.711914,-0.351563 0.74707,0 0.74707,0.834961 z"
   id="t1"
   style="font-size:18px;line-height:0%;font-family:'Gentium Plus Compact';text-align:center;text-anchor:middle;fill:#111111"
   class="dead"
   aria-label="◌̇" />&#10;<path
   d="m 450.99805,18.476562 q 0.0352,0.07031 0.0352,0.166993 0,0.166992 -0.11425,0.298828 -0.10547,0.123047 -0.28125,0.123047 -0.167,0 -0.30762,-0.114258 -0.13184,-0.123047 -0.13184,-0.307617 0,-0.158203 0.12305,-0.290039 0.13183,-0.131836 0.30762,-0.131836 0.26367,0 0.36914,0.254882 z m 2.76855,6.670899 q 0.0352,0.105469 0.0352,0.158203 0,0.158203 -0.12305,0.290039 -0.12305,0.131836 -0.29883,0.131836 -0.1582,0 -0.29004,-0.123047 -0.13183,-0.123047 -0.13183,-0.307617 0,-0.149414 0.11426,-0.28125 0.11425,-0.131836 0.28125,-0.131836 0.28125,0 0.41308,0.263672 z m -4.03418,-6.020508 q 0.13184,0.114258 0.13184,0.290039 0,0.421875 -0.41309,0.421875 -0.17578,0 -0.29883,-0.114258 -0.12304,-0.123047 -0.12304,-0.290039 0,-0.175781 0.12304,-0.298828 0.12305,-0.131836 0.29004,-0.131836 0.16699,0 0.29004,0.123047 z m 5.11524,5.097656 q 0.12304,0.123047 0.12304,0.298828 0,0.166993 -0.12304,0.29004 -0.11426,0.123046 -0.29883,0.123046 -0.17578,0 -0.29883,-0.123046 -0.12305,-0.123047 -0.12305,-0.29004 0,-0.175781 0.11426,-0.290039 0.12305,-0.123046 0.29004,-0.123046 0.17578,0 0.31641,0.114257 z m -6.0293,-4.016601 q 0.27246,0.114258 0.27246,0.404297 0,0.166992 -0.14062,0.290039 -0.13184,0.114258 -0.29004,0.114258 -0.18457,0 -0.29883,-0.131836 -0.11426,-0.131836 -0.11426,-0.290039 0,-0.175782 0.12305,-0.298829 0.13183,-0.123046 0.29004,-0.123046 0.0527,0 0.1582,0.03516 z m 6.6709,2.759765 q 0.26367,0.114258 0.26367,0.386719 0,0.175781 -0.13184,0.298828 -0.12304,0.114258 -0.29004,0.114258 -0.19335,0 -0.30761,-0.123047 -0.11426,-0.131836 -0.11426,-0.290039 0,-0.202148 0.13184,-0.307617 0.14062,-0.105469 0.29882,-0.105469 0.0879,0 0.14942,0.02637 z m -7.10156,-1.40625 q 0.16699,0 0.29882,0.123047 0.13184,0.114258 0.13184,0.28125 0,0.175782 -0.13184,0.307617 -0.13183,0.123047 -0.29004,0.123047 h -0.0176 q -0.167,0 -0.29004,-0.123047 -0.11426,-0.131835 -0.11426,-0.298828 0,-0.175781 0.11426,-0.290039 0.12304,-0.123047 0.29883,-0.123047 z m 7.21582,-0.0088 q 0.17578,0 0.29882,0.123047 0.12305,0.123047 0.12305,0.298828 0,0.166993 -0.12305,0.290039 -0.11425,0.123047 -0.29004,0.123047 h -0.0351 q -0.1582,0 -0.28125,-0.123047 -0.11426,-0.123046 -0.11426,-0.28125 0,-0.175781 0.13184,-0.298828 0.13183,-0.123047 0.29004,-0.131836 z m -7.10157,1.423828 q 0.0703,-0.03516 0.167,-0.03516 0.17578,0 0.29882,0.114258 0.12305,0.114258 0.12305,0.290039 0,0.166992 -0.12305,0.298828 -0.12304,0.131836 -0.29882,0.131836 -0.167,0 -0.29883,-0.123047 -0.12305,-0.131836 -0.12305,-0.307617 0,-0.272461 0.25488,-0.369141 z m 6.6709,-2.768554 q 0.10547,-0.03516 0.1582,-0.03516 0.15821,0 0.29004,0.123046 0.13184,0.123047 0.13184,0.298829 0,0.158203 -0.12305,0.290039 -0.12304,0.131836 -0.30761,0.131836 -0.15821,0 -0.28125,-0.123047 -0.12305,-0.123047 -0.12305,-0.290039 0,-0.28125 0.25488,-0.395508 z m -6.02051,4.034179 q 0.13184,-0.131835 0.28125,-0.131835 0.18457,0 0.30762,0.123046 0.12305,0.114258 0.12305,0.290039 0,0.166993 -0.12305,0.298829 -0.11426,0.123046 -0.29004,0.123046 -0.16699,0 -0.29883,-0.123046 -0.12304,-0.131836 -0.12304,-0.298829 0,-0.158203 0.12304,-0.28125 z M 454.25,19.126953 q 0.14062,-0.123047 0.29883,-0.123047 0.17578,0 0.29004,0.123047 0.12304,0.123047 0.12304,0.298828 0,0.166992 -0.12304,0.298828 -0.11426,0.123047 -0.29004,0.123047 -0.16699,0 -0.29004,-0.131836 -0.12305,-0.131836 -0.12305,-0.290039 0,-0.166992 0.11426,-0.298828 z m -4.0166,6.029297 q 0.0527,-0.123047 0.16699,-0.193359 0.12305,-0.07031 0.22852,-0.07031 0.17578,0 0.29004,0.131836 0.12304,0.131836 0.12304,0.290039 0,0.175781 -0.13183,0.298828 -0.13184,0.114258 -0.29004,0.114258 -0.167,0 -0.29883,-0.131836 -0.12305,-0.131836 -0.12305,-0.28125 0,-0.05273 0.0352,-0.158203 z m 2.75976,-6.670898 q 0.11426,-0.263672 0.38672,-0.263672 0.17578,0 0.29883,0.131836 0.12305,0.131836 0.12305,0.298828 0,0.175781 -0.13184,0.298828 -0.13183,0.114258 -0.29004,0.114258 -0.17578,0 -0.29883,-0.131836 -0.11425,-0.140625 -0.11425,-0.298828 0,-0.07031 0.0264,-0.149414 z m -1.40625,7.101562 q 0,-0.175781 0.12305,-0.298828 0.12305,-0.123047 0.29004,-0.123047 0.17578,0 0.29883,0.123047 0.12304,0.123047 0.12304,0.298828 0,0.166992 -0.12304,0.290039 Q 452.17578,26 452,26 q -0.16699,0 -0.29004,-0.123047 -0.12305,-0.123047 -0.12305,-0.290039 z m 0,-7.21582 q 0,-0.175782 0.12305,-0.298828 0.12305,-0.123047 0.29004,-0.123047 0.17578,0 0.29883,0.123047 0.12304,0.123046 0.12304,0.298828 0,0.166992 -0.12304,0.290039 -0.12305,0.123047 -0.29883,0.123047 -0.16699,0 -0.29004,-0.123047 -0.12305,-0.123047 -0.12305,-0.290039 z m -0.46582,-3.454102 q 0,0.492188 -0.29004,0.852539 -0.29003,0.351563 -0.72949,0.351563 -0.73828,0 -0.73828,-0.84375 0,-0.500977 0.29883,-0.84375 0.29883,-0.351563 0.71191,-0.351563 0.74707,0 0.74707,0.834961 z m 3.51563,0 q 0,0.492188 -0.29004,0.852539 -0.29004,0.351563 -0.72949,0.351563 -0.73828,0 -0.73828,-0.84375 0,-0.500977 0.29882,-0.84375 0.29883,-0.351563 0.71192,-0.351563 0.74707,0 0.74707,0.834961 z"
   id="t2"
   style="font-size:18px;line-height:0%;font-family:'Gentium Plus Compact';text-align:center;text-anchor:middle;fill:#111111"
   class="dead"
   aria-label="◌̈" />&#10;&#10;<path
   d="m 478.99805,90.476562 q 0.0352,0.07031 0.0352,0.166993 0,0.166992 -0.11425,0.298828 -0.10547,0.123047 -0.28125,0.123047 -0.167,0 -0.30762,-0.114258 -0.13184,-0.123047 -0.13184,-0.307617 0,-0.158203 0.12305,-0.290039 0.13183,-0.131836 0.30762,-0.131836 0.26367,0 0.36914,0.254882 z m 2.76855,6.670899 q 0.0352,0.105469 0.0352,0.158203 0,0.158203 -0.12305,0.290039 -0.12305,0.131836 -0.29883,0.131836 -0.1582,0 -0.29004,-0.123047 -0.13183,-0.123047 -0.13183,-0.307617 0,-0.149414 0.11426,-0.28125 0.11425,-0.131836 0.28125,-0.131836 0.28125,0 0.41308,0.263672 z m -4.03418,-6.020508 q 0.13184,0.114258 0.13184,0.290039 0,0.421875 -0.41309,0.421875 -0.17578,0 -0.29883,-0.114258 -0.12304,-0.123047 -0.12304,-0.290039 0,-0.175781 0.12304,-0.298828 0.12305,-0.131836 0.29004,-0.131836 0.16699,0 0.29004,0.123047 z m 5.11524,5.097656 q 0.12304,0.123047 0.12304,0.298828 0,0.166993 -0.12304,0.29004 -0.11426,0.123046 -0.29883,0.123046 -0.17578,0 -0.29883,-0.123046 -0.12305,-0.123047 -0.12305,-0.29004 0,-0.175781 0.11426,-0.290039 0.12305,-0.123046 0.29004,-0.123046 0.17578,0 0.31641,0.114257 z m -6.0293,-4.016601 q 0.27246,0.114258 0.27246,0.404297 0,0.166992 -0.14062,0.290039 -0.13184,0.114258 -0.29004,0.114258 -0.18457,0 -0.29883,-0.131836 -0.11426,-0.131836 -0.11426,-0.290039 0,-0.175782 0.12305,-0.298829 0.13183,-0.123046 0.29004,-0.123046 0.0527,0 0.1582,0.03516 z m 6.6709,2.759765 q 0.26367,0.114258 0.26367,0.386719 0,0.175781 -0.13184,0.298828 -0.12304,0.114258 -0.29004,0.114258 -0.19335,0 -0.30761,-0.123047 -0.11426,-0.131836 -0.11426,-0.290039 0,-0.202148 0.13184,-0.307617 0.14062,-0.105469 0.29882,-0.105469 0.0879,0 0.14942,0.02637 z m -7.10156,-1.40625 q 0.16699,0 0.29882,0.123047 0.13184,0.114258 0.13184,0.28125 0,0.175782 -0.13184,0.307617 -0.13183,0.123047 -0.29004,0.123047 h -0.0176 q -0.167,0 -0.29004,-0.123047 -0.11426,-0.131835 -0.11426,-0.298828 0,-0.175781 0.11426,-0.290039 0.12304,-0.123047 0.29883,-0.123047 z m 7.21582,-0.0088 q 0.17578,0 0.29882,0.123047 0.12305,0.123047 0.12305,0.298828 0,0.166993 -0.12305,0.290039 -0.11425,0.123047 -0.29004,0.123047 h -0.0351 q -0.1582,0 -0.28125,-0.123047 -0.11426,-0.123046 -0.11426,-0.28125 0,-0.175781 0.13184,-0.298828 0.13183,-0.123047 0.29004,-0.131836 z m -7.10157,1.423828 q 0.0703,-0.03516 0.167,-0.03516 0.17578,0 0.29882,0.114258 0.12305,0.114258 0.12305,0.290039 0,0.166992 -0.12305,0.298828 -0.12304,0.131836 -0.29882,0.131836 -0.167,0 -0.29883,-0.123047 -0.12305,-0.131836 -0.12305,-0.307617 0,-0.272461 0.25488,-0.369141 z m 6.6709,-2.768554 q 0.10547,-0.03516 0.1582,-0.03516 0.15821,0 0.29004,0.123046 0.13184,0.123047 0.13184,0.298829 0,0.158203 -0.12305,0.290039 -0.12304,0.131836 -0.30761,0.131836 -0.15821,0 -0.28125,-0.123047 -0.12305,-0.123047 -0.12305,-0.290039 0,-0.28125 0.25488,-0.395508 z m -6.02051,4.034179 q 0.13184,-0.131835 0.28125,-0.131835 0.18457,0 0.30762,0.123046 0.12305,0.114258 0.12305,0.290039 0,0.166993 -0.12305,0.298829 -0.11426,0.123046 -0.29004,0.123046 -0.16699,0 -0.29883,-0.123046 -0.12304,-0.131836 -0.12304,-0.298829 0,-0.158203 0.12304,-0.28125 z M 482.25,91.126953 q 0.14062,-0.123047 0.29883,-0.123047 0.17578,0 0.29004,0.123047 0.12304,0.123047 0.12304,0.298828 0,0.166992 -0.12304,0.298828 -0.11426,0.123047 -0.29004,0.123047 -0.16699,0 -0.29004,-0.131836 -0.12305,-0.131836 -0.12305,-0.290039 0,-0.166992 0.11426,-0.298828 z m -4.0166,6.029297 q 0.0527,-0.123047 0.16699,-0.193359 0.12305,-0.07031 0.22852,-0.07031 0.17578,0 0.29004,0.131836 0.12304,0.131836 0.12304,0.290039 0,0.175781 -0.13183,0.298828 -0.13184,0.114258 -0.29004,0.114258 -0.167,0 -0.29883,-0.131836 -0.12305,-0.131836 -0.12305,-0.28125 0,-0.05273 0.0352,-0.158203 z m 2.75976,-6.670898 q 0.11426,-0.263672 0.38672,-0.263672 0.17578,0 0.29883,0.131836 0.12305,0.131836 0.12305,0.298828 0,0.175781 -0.13184,0.298828 -0.13183,0.114258 -0.29004,0.114258 -0.17578,0 -0.29883,-0.131836 -0.11425,-0.140625 -0.11425,-0.298828 0,-0.07031 0.0264,-0.149414 z m -1.40625,7.101562 q 0,-0.175781 0.12305,-0.298828 0.12305,-0.123047 0.29004,-0.123047 0.17578,0 0.29883,0.123047 0.12304,0.123047 0.12304,0.298828 0,0.166992 -0.12304,0.290039 Q 480.17578,98 480,98 q -0.16699,0 -0.29004,-0.123047 -0.12305,-0.123047 -0.12305,-0.290039 z m 0,-7.21582 q 0,-0.175782 0.12305,-0.298828 0.12305,-0.123047 0.29004,-0.123047 0.17578,0 0.29883,0.123047 0.12304,0.123046 0.12304,0.298828 0,0.166992 -0.12304,0.290039 -0.12305,0.123047 -0.29883,0.123047 -0.16699,0 -0.29004,-0.123047 -0.12305,-0.123047 -0.12305,-0.290039 z m 1.53809,-1.573242 q -0.16699,-0.03516 -0.25488,-0.0791 -0.0967,-0.05273 -0.2461,-0.158203 l 1.54688,-3.647461 q 0.21972,0.02637 0.53613,0.08789 0.31641,0.06152 0.50977,0.131835 l 0.19336,0.360352 z m -2.55762,0 q -0.14062,-0.03516 -0.2373,-0.0791 -0.0967,-0.05273 -0.26367,-0.158203 l 1.54687,-3.647461 q 0.21973,0.02637 0.54492,0.08789 0.3252,0.06152 0.50098,0.131835 l 0.19336,0.360352 z"
   id="t3"
   style="font-size:18px;line-height:0%;font-family:'Gentium Plus Compact';text-align:center;text-anchor:middle;fill:#111111"
   class="dead"
   aria-label="◌̋" />&#10;&#10;</svg>
