<?xml version="1.0" encoding="UTF-8" standalone="no"?>
<svg
   version="1.1"
   id="Ebene_1"
   height="183"
   width="535"
   viewBox="0 0 535 183"
   enable-background="new 0 0 535 183"
   xml:space="preserve"
   inkscape:version="0.48.5 r10040"
   sodipodi:docname="noted-6-tkl.svg"
   inkscape:export-xdpi="90"
   inkscape:export-ydpi="90"
   xmlns:inkscape="http://www.inkscape.org/namespaces/inkscape"
   xmlns:sodipodi="http://sodipodi.sourceforge.net/DTD/sodipodi-0.dtd"
   xmlns:xlink="http://www.w3.org/1999/xlink"
   xmlns="http://www.w3.org/2000/svg"
   xmlns:svg="http://www.w3.org/2000/svg"
   xmlns:rdf="http://www.w3.org/1999/02/22-rdf-syntax-ns#"
   xmlns:cc="http://creativecommons.org/ns#"
   xmlns:dc="http://purl.org/dc/elements/1.1/">

  <metadata
   id="metadata135">
    <rdf:RDF>
      <cc:Work
   rdf:about="">
        <dc:format>image/svg+xml</dc:format>
        <dc:type
   rdf:resource="http://purl.org/dc/dcmitype/StillImage" />
        <dc:title />
      </cc:Work>
    </rdf:RDF>
  </metadata>

<defs
   id="defs">
<style
   type="text/css"
   id="style46661">
text.mod, text.key, text.dead {
	fill:#111;
	fill-opacity:1;
    stroke:none;
    font-style:normal;
    font-variant:normal;
    font-weight:normal;
    font-stretch:normal;
    display:inline;
    font-family:DejaVu Sans;
    writing-mode:lr-tb;
}

text.key {
    font-family:Linux Libertine;
}

text.dead {
    font-family: Gentium Plus Compact; 
}

text.mod {
    text-align:start;
    text-anchor:start;
}

text.space, text.dead, text.center, text.key {
    text-align:center;
    text-anchor:middle;
}

text.key { font-size:20px; }
text.dead { font-size:20px; }
text.mod { font-size:10px; }
text.big { font-size:14px; }

.key {
stroke-width:1.25;
}

.grey { fill:#949494; stroke:#696969; }
.grey { fill:#9f9f9f; stroke:#747474; }

.numpad { fill:#afaa9f; stroke:#747474; }

/* bootstrap colors */
.l5, .r5 { fill:#93CCEA; }
.l4, .r4 { fill:#7abeb3; }
.l3, .r3 { fill:#63b280; }
.l2, .r2 { fill:#4aa44a; }

/* btn bg hover, unused */
.l2, .r2 { stroke:#3071a9; }
.l3, .r3 { stroke:#449d44; }
.l4, .r4 { stroke:#c9302c; }
.l5, .r5 { stroke:#ec971f; }

/* btn border hover */
.l2, .r2 { stroke:#204d74; }
.l3, .r3 { stroke:#204d74; }
.l4, .r4 { stroke:#204d74; }
.l5, .r5 { stroke:#204d74; }

text.nubkey { fill:#eee; }

.pressed {
	<!--opacity:0.5;-->
	fill:#777;
}
    </style>

    <g
   id="basekey">
        <rect
   width="32"
   height="32"
   rx="4"
   class="key"
   id="rect4" />
	<!--rect width="20" height="20" x="6" y="6" /-->
        <!--rect width="2" height="2" fill="#000" x="15" y="15" /-->
    </g>

    </defs>
<sodipodi:namedview
   pagecolor="#ffffff"
   bordercolor="#666666"
   borderopacity="1"
   objecttolerance="10"
   gridtolerance="10"
   guidetolerance="10"
   inkscape:pageopacity="0"
   inkscape:pageshadow="2"
   inkscape:window-width="1614"
   inkscape:window-height="969"
   id="base"
   showgrid="false"
   inkscape:zoom="0.70961538"
   inkscape:cx="685.32105"
   inkscape:cy="241.15395"
   inkscape:window-x="78"
   inkscape:window-y="71"
   inkscape:window-maximized="0"
   inkscape:current-layer="Ebene_1"
   inkscape:showpageshadow="2"
   inkscape:pagecheckerboard="0"
   inkscape:deskcolor="#d1d1d1" />

<g
   transform="translate(3.5,3.5)"
   id="g148">
<use
   xlink:href="#basekey"
   y="0"
   x="0"
   class="l5"
   id="use9" />
<use
   xlink:href="#basekey"
   y="0"
   x="36"
   class="l5"
   id="use11" />
<use
   xlink:href="#basekey"
   y="0"
   x="72"
   class="l5"
   id="use13" />
<use
   xlink:href="#basekey"
   y="0"
   x="108"
   class="l4"
   id="use15" />
<use
   xlink:href="#basekey"
   y="0"
   x="144"
   class="l3"
   id="use17" />
<use
   xlink:href="#basekey"
   y="0"
   x="180"
   class="l2"
   id="use19" />
<use
   xlink:href="#basekey"
   y="0"
   x="216"
   class="l2"
   id="use21" />

<use
   xlink:href="#basekey"
   y="0"
   x="252"
   class="r2"
   id="use23" />
<use
   xlink:href="#basekey"
   y="0"
   x="288"
   class="r2"
   id="use25" />
<use
   xlink:href="#basekey"
   y="0"
   x="324"
   class="r3"
   id="use27" />
<use
   xlink:href="#basekey"
   y="0"
   x="360"
   class="r4"
   id="use29" />
<use
   xlink:href="#basekey"
   y="0"
   x="396"
   class="r5"
   id="use31" />
<use
   xlink:href="#basekey"
   y="0"
   x="432"
   class="r5"
   id="use33" />


<use
   xlink:href="#basekey"
   y="36"
   x="54"
   class="l5"
   id="use35" />
<use
   xlink:href="#basekey"
   y="36"
   x="90"
   class="l4"
   id="use37" />
<use
   xlink:href="#basekey"
   y="36"
   x="126"
   class="l3"
   id="use39" />
<use
   xlink:href="#basekey"
   y="36"
   x="162"
   class="l2"
   id="use41" />
<use
   xlink:href="#basekey"
   y="36"
   x="198"
   class="l2"
   id="use43" />

<use
   xlink:href="#basekey"
   y="36"
   x="234"
   class="r2"
   id="use45" />
<use
   xlink:href="#basekey"
   y="36"
   x="270"
   class="r2"
   id="use47" />
<use
   xlink:href="#basekey"
   y="36"
   x="306"
   class="r3"
   id="use49" />
<use
   xlink:href="#basekey"
   y="36"
   x="342"
   class="r4"
   id="use51" />
<use
   xlink:href="#basekey"
   y="36"
   x="378"
   class="r5"
   id="use53" />
<use
   xlink:href="#basekey"
   y="36"
   x="414"
   class="r5"
   id="use55" />
<use
   xlink:href="#basekey"
   y="36"
   x="450"
   class="r5"
   id="use57" />


<use
   xlink:href="#basekey"
   y="72"
   x="64"
   class="l5"
   id="use59" />
<use
   xlink:href="#basekey"
   y="72"
   x="100"
   class="l4"
   id="use61" />
<use
   xlink:href="#basekey"
   y="72"
   x="136"
   class="l3"
   id="use63" />
<use
   xlink:href="#basekey"
   y="72"
   x="172"
   class="l2"
   id="use65" />
<use
   xlink:href="#basekey"
   y="72"
   x="208"
   class="l2"
   id="use67" />

<use
   xlink:href="#basekey"
   y="72"
   x="244"
   class="r2"
   id="use69" />
<use
   xlink:href="#basekey"
   y="72"
   x="280"
   class="r2"
   id="use71" />
<use
   xlink:href="#basekey"
   y="72"
   x="316"
   class="r3"
   id="use73" />
<use
   xlink:href="#basekey"
   y="72"
   x="352"
   class="r4"
   id="use75" />
<use
   xlink:href="#basekey"
   y="72"
   x="388"
   class="r5"
   id="use77" />

    <use
   xlink:href="#basekey"
   y="72"
   x="460"
   class="r5"
   id="use79" />



<use
   xlink:href="#basekey"
   y="108"
   x="82"
   class="l5"
   id="use81" />
<use
   xlink:href="#basekey"
   y="108"
   x="118"
   class="l4"
   id="use83" />
<use
   xlink:href="#basekey"
   y="108"
   x="154"
   class="l3"
   id="use85" />
<use
   xlink:href="#basekey"
   y="108"
   x="190"
   class="l2"
   id="use87" />
<use
   xlink:href="#basekey"
   y="108"
   x="226"
   class="l2"
   id="use89" />

<use
   xlink:href="#basekey"
   y="108"
   x="262"
   class="r2"
   id="use91" />
<use
   xlink:href="#basekey"
   y="108"
   x="298"
   class="r2"
   id="use93" />
<use
   xlink:href="#basekey"
   y="108"
   x="334"
   class="r3"
   id="use95" />
<use
   xlink:href="#basekey"
   y="108"
   x="370"
   class="r4"
   id="use97" />
<use
   xlink:href="#basekey"
   y="108"
   x="406"
   class="r5"
   id="use99" />


<path
   id="backspace"
   class="key grey"
   style="fill:#9f9f9f;stroke:#747474;stroke-width:1.25"
   d="m 472,0 h 52 c 2.216,0 4,1.784 4,4 v 24 c 0,2.216 -1.784,4 -4,4 h -52 c -2.216,0 -4,-1.784 -4,-4 V 4 c 0,-2.216 1.784,-4 4,-4 z" />

<path
   id="tab"
   class="key grey"
   style="fill:#9f9f9f;stroke:#747474;stroke-width:1.25"
   d="m 4,36 h 42 c 2.216,0 4,1.784 4,4 v 24 c 0,2.216 -1.784,4 -4,4 H 4 C 1.784,68 0,66.216 0,64 V 40 c 0,-2.216 1.784,-4 4,-4 z" />

<path
   id="m3l"
   class="key grey pressed"
   style="fill:#777777;stroke:#747474;stroke-width:1.25"
   d="m 4,72 h 52 c 2.216,0 4,1.784 4,4 v 24 c 0,2.216 -1.784,4 -4,4 H 4 c -2.216,0 -4,-1.784 -4,-4 V 76 c 0,-2.216 1.784,-4 4,-4 z" />

<use
   id="m3r"
   xlink:href="#basekey"
   x="424"
   y="72"
   class="key grey pressed" />


<path
   id="shiftl"
   class="key grey"
   style="fill:#9f9f9f;stroke:#747474;stroke-width:1.25"
   d="m 4,108 h 32 c 2.216,0 4,1.784 4,4 v 24 c 0,2.216 -1.784,4 -4,4 H 4 c -2.216,0 -4,-1.784 -4,-4 v -24 c 0,-2.216 1.784,-4 4,-4 z" />
<path
   id="m4l"
   class="key grey pressed"
   style="fill:#777777;stroke:#747474;stroke-width:1.25"
   d="m 48,108 h 26 c 2.216,0 4,1.784 4,4 v 24 c 0,2.216 -1.784,4 -4,4 H 48 c -2.216,0 -4,-1.784 -4,-4 v -24 c 0,-2.216 1.784,-4 4,-4 z" />
<path
   id="shiftr"
   class="key grey"
   style="fill:#9f9f9f;stroke:#747474;stroke-width:1.25"
   d="m 446,108 h 78 c 2.216,0 4,1.784 4,4 v 24 c 0,2.216 -1.784,4 -4,4 h -78 c -2.216,0 -4,-1.784 -4,-4 v -24 c 0,-2.216 1.784,-4 4,-4 z" />

<path
   id="ctrll"
   class="key grey"
   style="fill:#9f9f9f;stroke:#747474;stroke-width:1.25"
   d="m 4,144 h 42 c 2.216,0 4,1.784 4,4 v 24 c 0,2.216 -1.784,4 -4,4 H 4 c -2.216,0 -4,-1.784 -4,-4 v -24 c 0,-2.216 1.784,-4 4,-4 z" />
<path
   id="altl"
   class="key grey"
   style="fill:#9f9f9f;stroke:#747474;stroke-width:1.25"
   d="m 128,144 h 40 c 2.216,0 4,1.784 4,4 v 24 c 0,2.216 -1.784,4 -4,4 h -40 c -2.216,0 -4,-1.784 -4,-4 v -24 c 0,-2.216 1.784,-4 4,-4 z" />
<path
   id="space"
   class="key grey"
   style="fill:#9f9f9f;stroke:#747474;stroke-width:1.25"
   d="m 180,144 h 160 c 2.216,0 4,1.784 4,4 v 24 c 0,2.216 -1.784,4 -4,4 H 180 c -2.216,0 -4,-1.784 -4,-4 v -24 c 0,-2.216 1.784,-4 4,-4 z" />
<path
   id="m4r"
   class="key grey pressed"
   style="fill:#777777;stroke:#747474;stroke-width:1.25"
   d="m 352,144 h 40 c 2.216,0 4,1.784 4,4 v 24 c 0,2.216 -1.784,4 -4,4 h -40 c -2.216,0 -4,-1.784 -4,-4 v -24 c 0,-2.216 1.784,-4 4,-4 z" />
<path
   id="ctrlr"
   class="key grey"
   style="fill:#9f9f9f;stroke:#747474;stroke-width:1.25"
   d="m 482,144 h 42 c 2.216,0 4,1.784 4,4 v 24 c 0,2.216 -1.784,4 -4,4 h -42 c -2.216,0 -4,-1.784 -4,-4 v -24 c 0,-2.216 1.784,-4 4,-4 z" />

<use
   xlink:href="#basekey"
   y="0"
   x="542"
   class="key numpad"
   id="use113" />
<use
   xlink:href="#basekey"
   y="0"
   x="578"
   class="key numpad"
   id="use115" />
<use
   xlink:href="#basekey"
   y="0"
   x="614"
   class="key numpad"
   id="use117" />
<use
   xlink:href="#basekey"
   y="0"
   x="650"
   class="key numpad"
   id="use119" />

<use
   xlink:href="#basekey"
   y="36"
   x="542"
   class="key numpad"
   id="use121" />
<use
   xlink:href="#basekey"
   y="36"
   x="578"
   class="key numpad"
   id="use123" />
<use
   xlink:href="#basekey"
   y="36"
   x="614"
   class="key numpad"
   id="use125" />
<path
   id="kpplus"
   class="key numpad"
   style="fill:#afaa9f;stroke:#747474;stroke-width:1.25"
   d="m 654,36 h 24 c 2.216,0 4,1.784 4,4 v 60 c 0,2.216 -1.784,4 -4,4 h -24 c -2.216,0 -4,-1.784 -4,-4 V 40 c 0,-2.216 1.784,-4 4,-4 z" />

<use
   xlink:href="#basekey"
   y="72"
   x="542"
   class="key numpad"
   id="use128" />
<use
   xlink:href="#basekey"
   y="72"
   x="578"
   class="key numpad"
   id="use130" />
<use
   xlink:href="#basekey"
   y="72"
   x="614"
   class="key numpad"
   id="use132" />

<use
   xlink:href="#basekey"
   y="108"
   x="542"
   class="key numpad"
   id="use134" />
<use
   xlink:href="#basekey"
   y="108"
   x="578"
   class="key numpad"
   id="use136" />
<use
   xlink:href="#basekey"
   y="108"
   x="614"
   class="key numpad"
   id="use138" />
<path
   id="kppenter"
   class="key numpad"
   style="fill:#afaa9f;stroke:#747474;stroke-width:1.25"
   d="m 654,108 h 24 c 2.216,0 4,1.784 4,4 v 60 c 0,2.216 -1.784,4 -4,4 h -24 c -2.216,0 -4,-1.784 -4,-4 v -60 c 0,-2.216 1.784,-4 4,-4 z" />

<path
   id="kp0"
   class="key numpad"
   style="fill:#afaa9f;stroke:#747474;stroke-width:1.25"
   d="m 546,144 h 60 c 2.216,0 4,1.784 4,4 v 24 c 0,2.216 -1.784,4 -4,4 h -60 c -2.216,0 -4,-1.784 -4,-4 v -24 c 0,-2.216 1.784,-4 4,-4 z" />
<use
   xlink:href="#basekey"
   y="144"
   x="614"
   class="key numpad"
   id="use142" />

<path
   fill-rule="evenodd"
   clip-rule="evenodd"
   d="M 10,32 H 4 A 4,4 0 0 1 0,28 V 4 A 4,4 0 0 1 4,0 h 34 a 4,4 0 0 1 4,4 v 60 a 4,4 0 0 1 -4,4 H 14 a 4,4 0 0 1 -4,-4 z"
   transform="translate(486,36)"
   id="return"
   class="key grey" />

<path
   id="nub"
   style="fill:#eeeeee"
   d="m 182,101 h 12 c 0.554,0 1,0.223 1,0.5 0,0.277 -0.446,0.5 -1,0.5 h -12 c -0.554,0 -1,-0.223 -1,-0.5 0,-0.277 0.446,-0.5 1,-0.5 z" />
<use
   y="0"
   x="108"
   xlink:href="#nub"
   id="use146" />
</g>

<g
   transform="translate(-0.5,-0.5)"
   id="g163">
<g
   aria-label="Mod3"
   id="m3ltxt"
   style="font-size:10px;line-height:0%;font-family:'DejaVu Sans';display:inline;fill:#111111"
   class="mod"><path
     d="m 10.981445,88.709961 h 1.469727 l 1.860351,4.960937 1.870118,-4.960937 h 1.469726 V 96 h -0.961914 v -6.401367 l -1.879883,5 h -0.991211 l -1.879882,-5 V 96 h -0.957032 z"
     id="path328" /><path
     d="m 21.689453,91.161133 q -0.722656,0 -1.142578,0.566406 -0.419922,0.561523 -0.419922,1.542969 0,0.981445 0.415039,1.547851 0.419922,0.561524 1.147461,0.561524 0.717774,0 1.137695,-0.566406 0.419922,-0.566407 0.419922,-1.542969 0,-0.97168 -0.419922,-1.538086 -0.419921,-0.571289 -1.137695,-0.571289 z m 0,-0.761719 q 1.171875,0 1.84082,0.761719 0.668946,0.761719 0.668946,2.109375 0,1.342773 -0.668946,2.109375 -0.668945,0.761719 -1.84082,0.761719 -1.176758,0 -1.845703,-0.761719 -0.664063,-0.766602 -0.664063,-2.109375 0,-1.347656 0.664063,-2.109375 0.668945,-0.761719 1.845703,-0.761719 z"
     id="path330" /><path
     d="m 29.287109,91.361328 v -2.958984 h 0.898438 V 96 h -0.898438 v -0.820313 q -0.283203,0.488282 -0.717773,0.72754 -0.429688,0.234375 -1.035156,0.234375 -0.991211,0 -1.616211,-0.791016 -0.620117,-0.791016 -0.620117,-2.080078 0,-1.289063 0.620117,-2.080078 0.625,-0.791016 1.616211,-0.791016 0.605468,0 1.035156,0.239258 0.43457,0.234375 0.717773,0.722656 z m -3.061523,1.90918 q 0,0.991211 0.405273,1.557617 0.410157,0.561523 1.123047,0.561523 0.712891,0 1.123047,-0.561523 0.410156,-0.566406 0.410156,-1.557617 0,-0.991211 -0.410156,-1.552735 -0.410156,-0.566406 -1.123047,-0.566406 -0.71289,0 -1.123047,0.566406 -0.405273,0.561524 -0.405273,1.552735 z"
     id="path332" /><path
     d="m 35.151367,92.069336 q 0.708008,0.151367 1.103516,0.629883 0.40039,0.478515 0.40039,1.18164 0,1.079102 -0.742187,1.669922 -0.742188,0.590821 -2.109375,0.590821 -0.458984,0 -0.947266,-0.09277 -0.483398,-0.08789 -1.000976,-0.268555 v -0.952148 q 0.410156,0.239258 0.898437,0.361328 0.488281,0.12207 1.020508,0.12207 0.927734,0 1.411133,-0.366211 0.488281,-0.36621 0.488281,-1.064453 0,-0.644531 -0.454101,-1.005859 -0.449219,-0.366211 -1.254883,-0.366211 h -0.84961 v -0.810547 h 0.888672 q 0.727539,0 1.113281,-0.288086 0.385743,-0.292969 0.385743,-0.839844 0,-0.561523 -0.400391,-0.859375 -0.395508,-0.302734 -1.137695,-0.302734 -0.405274,0 -0.869141,0.08789 -0.463867,0.08789 -1.020508,0.273437 v -0.878906 q 0.561524,-0.15625 1.049805,-0.234375 0.493164,-0.07813 0.927734,-0.07813 1.123047,0 1.777344,0.512695 0.654297,0.507813 0.654297,1.376953 0,0.605469 -0.34668,1.025391 -0.346679,0.415039 -0.986328,0.576172 z"
     id="path334" /></g>
<g
   aria-label="⇧"
   id="shiftltxt"
   style="font-size:14px;line-height:0%;font-family:'DejaVu Sans';display:inline;fill:#111111"
   class="mod big"><path
     d="m 17.683594,125.23438 -1.81836,-1.81836 -1.818359,1.81836 h 0.895508 v 7.08203 h 1.845703 v -7.08203 z m -5.291016,0.68359 3.472656,-3.47266 3.472657,3.47266 H 17.47168 V 133 h -3.212891 v -7.08203 z"
     id="path337" /></g>
<g
   aria-label="Strg"
   id="ctrlltxt"
   style="font-size:10px;line-height:0%;font-family:'DejaVu Sans';display:inline;fill:#111111"
   class="mod"><path
     d="m 15.351563,160.94922 v 0.96191 q -0.561524,-0.26855 -1.059571,-0.40039 -0.498047,-0.13183 -0.961914,-0.13183 -0.805664,0 -1.245117,0.3125 -0.43457,0.3125 -0.43457,0.88867 0,0.4834 0.288086,0.73242 0.292968,0.24414 1.103515,0.39551 l 0.595703,0.12207 q 1.103516,0.20996 1.625977,0.74219 0.527344,0.52734 0.527344,1.41601 0,1.05957 -0.712891,1.60645 -0.708008,0.54687 -2.080078,0.54687 -0.517578,0 -1.103516,-0.11719 -0.581054,-0.11718 -1.206054,-0.34668 v -1.01562 q 0.600586,0.33691 1.176757,0.50781 0.576172,0.1709 1.132813,0.1709 0.844726,0 1.303711,-0.33203 0.458984,-0.33203 0.458984,-0.94727 0,-0.53711 -0.332031,-0.83984 -0.327148,-0.30273 -1.079102,-0.4541 l -0.600586,-0.11719 q -1.103515,-0.21973 -1.596679,-0.68848 -0.493164,-0.46875 -0.493164,-1.30371 0,-0.96679 0.678711,-1.52343 0.683593,-0.55665 1.879882,-0.55665 0.512696,0 1.044922,0.0928 0.532227,0.0928 1.088868,0.27832 z"
     id="path340" /><path
     d="m 18.178711,160.97852 v 1.55273 h 1.850586 v 0.69824 h -1.850586 v 2.96875 q 0,0.66895 0.180664,0.85938 0.185547,0.19043 0.74707,0.19043 h 0.922852 V 168 h -0.922852 q -1.040039,0 -1.435547,-0.38574 -0.395507,-0.39063 -0.395507,-1.41602 v -2.96875 h -0.65918 v -0.69824 h 0.65918 v -1.55273 z"
     id="path342" /><path
     d="m 24.379883,163.37109 q -0.151367,-0.0879 -0.332031,-0.12695 -0.175782,-0.0439 -0.390625,-0.0439 -0.761719,0 -1.171875,0.49804 -0.405274,0.49317 -0.405274,1.4209 V 168 h -0.90332 v -5.46875 h 0.90332 v 0.84961 q 0.283203,-0.49805 0.737305,-0.73731 0.454101,-0.24414 1.103515,-0.24414 0.09277,0 0.205079,0.0147 0.112304,0.01 0.249023,0.0342 z"
     id="path344" /><path
     d="m 28.745117,165.20215 q 0,-0.97656 -0.405273,-1.51367 -0.400391,-0.53711 -1.12793,-0.53711 -0.722656,0 -1.12793,0.53711 -0.40039,0.53711 -0.40039,1.51367 0,0.97168 0.40039,1.50879 0.405274,0.53711 1.12793,0.53711 0.727539,0 1.12793,-0.53711 0.405273,-0.53711 0.405273,-1.50879 z m 0.898438,2.11914 q 0,1.39648 -0.620118,2.07519 -0.620117,0.6836 -1.899414,0.6836 -0.473632,0 -0.893554,-0.0732 -0.419922,-0.0684 -0.81543,-0.21485 v -0.87402 q 0.395508,0.21484 0.78125,0.31738 0.385742,0.10254 0.786133,0.10254 0.883789,0 1.323242,-0.46387 0.439453,-0.45898 0.439453,-1.3916 v -0.44433 q -0.27832,0.48339 -0.71289,0.72265 Q 27.597656,168 26.992187,168 q -1.005859,0 -1.621093,-0.7666 -0.615235,-0.7666 -0.615235,-2.03125 0,-1.26953 0.615235,-2.03613 0.615234,-0.76661 1.621093,-0.76661 0.605469,0 1.04004,0.23926 0.43457,0.23926 0.71289,0.72266 v -0.83008 h 0.898438 z"
     id="path346" /></g>

<g
   aria-label="M4"
   id="m4ltxt"
   style="font-size:10px;line-height:0%;font-family:'DejaVu Sans';display:inline;fill:#111111"
   class="mod"><path
     d="m 56.981445,124.70996 h 1.469727 l 1.860351,4.96094 1.870118,-4.96094 h 1.469726 V 132 h -0.961914 v -6.40137 l -1.879883,5 h -0.991211 l -1.879882,-5 V 132 h -0.957032 z"
     id="path349" /><path
     d="m 68.407227,125.56934 -2.490235,3.8916 h 2.490235 z m -0.25879,-0.85938 h 1.240235 v 4.75098 h 1.040039 v 0.82031 H 69.388672 V 132 h -0.981445 v -1.71875 h -3.291016 v -0.95215 z"
     id="path351" /></g>
<g
   aria-label="Alt"
   id="altltxt"
   style="font-size:10px;line-height:0%;font-family:'DejaVu Sans';display:inline;fill:#111111"
   class="mod"><path
     d="m 138.41797,161.68164 -1.33789,3.62793 h 2.68066 z m -0.55664,-0.97168 h 1.11816 L 141.75781,168 h -1.02539 l -0.66406,-1.87012 h -3.28613 L 136.11816,168 h -1.04004 z"
     id="path354" /><path
     d="m 142.7832,160.40234 h 0.89844 V 168 h -0.89844 z"
     id="path356" /><path
     d="m 146.4502,160.97852 v 1.55273 h 1.85058 v 0.69824 h -1.85058 v 2.96875 q 0,0.66895 0.18066,0.85938 0.18555,0.19043 0.74707,0.19043 h 0.92285 V 168 h -0.92285 q -1.04004,0 -1.43555,-0.38574 -0.39551,-0.39063 -0.39551,-1.41602 v -2.96875 h -0.65917 v -0.69824 h 0.65917 v -1.55273 z"
     id="path358" /></g>


<g
   aria-label="M3"
   id="m3rtxt"
   style="font-size:10px;line-height:0%;font-family:'DejaVu Sans';display:inline;fill:#111111"
   class="mod"><path
     d="m 436.98145,88.709961 h 1.46972 l 1.86035,4.960937 1.87012,-4.960937 h 1.46973 V 96 h -0.96192 v -6.401367 l -1.87988,5 h -0.99121 l -1.87988,-5 V 96 h -0.95703 z"
     id="path361" /><path
     d="m 448.68555,92.069336 q 0.708,0.151367 1.10351,0.629883 0.40039,0.478515 0.40039,1.18164 0,1.079102 -0.74218,1.669922 -0.74219,0.590821 -2.10938,0.590821 -0.45898,0 -0.94727,-0.09277 -0.48339,-0.08789 -1.00097,-0.268555 v -0.952148 q 0.41015,0.239258 0.89844,0.361328 0.48828,0.12207 1.0205,0.12207 0.92774,0 1.41114,-0.366211 0.48828,-0.36621 0.48828,-1.064453 0,-0.644531 -0.4541,-1.005859 -0.44922,-0.366211 -1.25489,-0.366211 h -0.84961 v -0.810547 h 0.88868 q 0.72753,0 1.11328,-0.288086 0.38574,-0.292969 0.38574,-0.839844 0,-0.561523 -0.40039,-0.859375 -0.39551,-0.302734 -1.1377,-0.302734 -0.40527,0 -0.86914,0.08789 -0.46386,0.08789 -1.02051,0.273437 v -0.878906 q 0.56153,-0.15625 1.04981,-0.234375 0.49316,-0.07813 0.92773,-0.07813 1.12305,0 1.77735,0.512695 0.65429,0.507813 0.65429,1.376953 0,0.605469 -0.34668,1.025391 -0.34667,0.415039 -0.98632,0.576172 z"
     id="path363" /></g>


<g
   aria-label="⇧"
   id="shiftrtxt"
   style="font-size:14px;line-height:0%;font-family:'DejaVu Sans';display:inline;fill:#111111"
   class="mod big"><path
     d="m 457.68359,125.23438 -1.81836,-1.81836 -1.81836,1.81836 h 0.89551 v 7.08203 h 1.84571 v -7.08203 z m -5.29101,0.68359 3.47265,-3.47266 3.47266,3.47266 h -1.86621 V 133 h -3.21289 v -7.08203 z"
     id="path366" /></g>
<g
   aria-label="Strg"
   id="ctrlrtxt"
   style="font-size:10px;line-height:0%;font-family:'DejaVu Sans';display:inline;fill:#111111"
   class="mod"><path
     d="m 495.35156,160.94922 v 0.96191 q -0.56152,-0.26855 -1.05957,-0.40039 -0.49804,-0.13183 -0.96191,-0.13183 -0.80567,0 -1.24512,0.3125 -0.43457,0.3125 -0.43457,0.88867 0,0.4834 0.28809,0.73242 0.29297,0.24414 1.10351,0.39551 l 0.59571,0.12207 q 1.10351,0.20996 1.62597,0.74219 0.52735,0.52734 0.52735,1.41601 0,1.05957 -0.7129,1.60645 -0.708,0.54687 -2.08007,0.54687 -0.51758,0 -1.10352,-0.11719 -0.58105,-0.11718 -1.20605,-0.34668 v -1.01562 q 0.60058,0.33691 1.17675,0.50781 0.57618,0.1709 1.13282,0.1709 0.84472,0 1.30371,-0.33203 0.45898,-0.33203 0.45898,-0.94727 0,-0.53711 -0.33203,-0.83984 -0.32715,-0.30273 -1.0791,-0.4541 l -0.60059,-0.11719 q -1.10351,-0.21973 -1.59668,-0.68848 -0.49316,-0.46875 -0.49316,-1.30371 0,-0.96679 0.67871,-1.52343 0.68359,-0.55665 1.87988,-0.55665 0.5127,0 1.04493,0.0928 0.53222,0.0928 1.08886,0.27832 z"
     id="path369" /><path
     d="m 498.17871,160.97852 v 1.55273 h 1.85059 v 0.69824 h -1.85059 v 2.96875 q 0,0.66895 0.18066,0.85938 0.18555,0.19043 0.74708,0.19043 h 0.92285 V 168 h -0.92285 q -1.04004,0 -1.43555,-0.38574 -0.39551,-0.39063 -0.39551,-1.41602 v -2.96875 h -0.65918 v -0.69824 h 0.65918 v -1.55273 z"
     id="path371" /><path
     d="m 504.37988,163.37109 q -0.15136,-0.0879 -0.33203,-0.12695 -0.17578,-0.0439 -0.39062,-0.0439 -0.76172,0 -1.17188,0.49804 -0.40527,0.49317 -0.40527,1.4209 V 168 h -0.90332 v -5.46875 h 0.90332 v 0.84961 q 0.2832,-0.49805 0.7373,-0.73731 0.4541,-0.24414 1.10352,-0.24414 0.0928,0 0.20508,0.0147 0.1123,0.01 0.24902,0.0342 z"
     id="path373" /><path
     d="m 508.74512,165.20215 q 0,-0.97656 -0.40528,-1.51367 -0.40039,-0.53711 -1.12793,-0.53711 -0.72265,0 -1.12793,0.53711 -0.40039,0.53711 -0.40039,1.51367 0,0.97168 0.40039,1.50879 0.40528,0.53711 1.12793,0.53711 0.72754,0 1.12793,-0.53711 0.40528,-0.53711 0.40528,-1.50879 z m 0.89843,2.11914 q 0,1.39648 -0.62011,2.07519 -0.62012,0.6836 -1.89942,0.6836 -0.47363,0 -0.89355,-0.0732 -0.41992,-0.0684 -0.81543,-0.21485 v -0.87402 q 0.39551,0.21484 0.78125,0.31738 0.38574,0.10254 0.78613,0.10254 0.88379,0 1.32324,-0.46387 0.43946,-0.45898 0.43946,-1.3916 v -0.44433 q -0.27832,0.48339 -0.71289,0.72265 Q 507.59766,168 506.99219,168 q -1.00586,0 -1.6211,-0.7666 -0.61523,-0.7666 -0.61523,-2.03125 0,-1.26953 0.61523,-2.03613 0.61524,-0.76661 1.6211,-0.76661 0.60547,0 1.04004,0.23926 0.43457,0.23926 0.71289,0.72266 v -0.83008 h 0.89843 z"
     id="path375" /></g>
<g
   aria-label="Mod4"
   id="m4rtxt"
   style="font-size:10px;line-height:0%;font-family:'DejaVu Sans';display:inline;fill:#111111"
   class="mod"><path
     d="m 357.98145,160.70996 h 1.46972 l 1.86035,4.96094 1.87012,-4.96094 h 1.46973 V 168 h -0.96192 v -6.40137 l -1.87988,5 h -0.99121 l -1.87988,-5 V 168 h -0.95703 z"
     id="path378" /><path
     d="m 368.68945,163.16113 q -0.72265,0 -1.14258,0.56641 -0.41992,0.56152 -0.41992,1.54297 0,0.98144 0.41504,1.54785 0.41992,0.56152 1.14746,0.56152 0.71778,0 1.1377,-0.5664 0.41992,-0.56641 0.41992,-1.54297 0,-0.97168 -0.41992,-1.53809 -0.41992,-0.57129 -1.1377,-0.57129 z m 0,-0.76172 q 1.17188,0 1.84082,0.76172 0.66895,0.76172 0.66895,2.10938 0,1.34277 -0.66895,2.10937 -0.66894,0.76172 -1.84082,0.76172 -1.17675,0 -1.8457,-0.76172 -0.66406,-0.7666 -0.66406,-2.10937 0,-1.34766 0.66406,-2.10938 0.66895,-0.76172 1.8457,-0.76172 z"
     id="path380" /><path
     d="m 376.28711,163.36133 v -2.95899 h 0.89844 V 168 h -0.89844 v -0.82031 q -0.2832,0.48828 -0.71777,0.72754 -0.42969,0.23437 -1.03516,0.23437 -0.99121,0 -1.61621,-0.79101 -0.62012,-0.79102 -0.62012,-2.08008 0,-1.28906 0.62012,-2.08008 0.625,-0.79102 1.61621,-0.79102 0.60547,0 1.03516,0.23926 0.43457,0.23438 0.71777,0.72266 z m -3.06152,1.90918 q 0,0.99121 0.40527,1.55761 0.41016,0.56153 1.12305,0.56153 0.71289,0 1.12304,-0.56153 0.41016,-0.5664 0.41016,-1.55761 0,-0.99121 -0.41016,-1.55274 -0.41015,-0.5664 -1.12304,-0.5664 -0.71289,0 -1.12305,0.5664 -0.40527,0.56153 -0.40527,1.55274 z"
     id="path382" /><path
     d="m 381.87305,161.56934 -2.49024,3.8916 h 2.49024 z m -0.25879,-0.85938 h 1.24023 v 4.75098 h 1.04004 v 0.82031 h -1.04004 V 168 h -0.98144 v -1.71875 h -3.29102 v -0.95215 z"
     id="path384" /></g>
<g
   aria-label="schm. gesch. Leerz."
   id="text159"
   style="font-size:10px;line-height:0%;font-family:'DejaVu Sans';text-align:center;text-anchor:middle;display:inline;fill:#111111"
   class="mod space"><path
     d="m 217.78516,162.69238 v 0.84961 q -0.38086,-0.19531 -0.79102,-0.29297 -0.41016,-0.0977 -0.84961,-0.0977 -0.66894,0 -1.00586,0.20508 -0.33203,0.20507 -0.33203,0.61523 0,0.3125 0.23926,0.49316 0.23926,0.17578 0.96191,0.33692 l 0.30762,0.0684 q 0.95703,0.20508 1.35742,0.58105 0.40527,0.3711 0.40527,1.04004 0,0.76172 -0.60546,1.20606 -0.60059,0.44433 -1.65528,0.44433 -0.43945,0 -0.91797,-0.0879 -0.47363,-0.083 -1.00097,-0.25391 v -0.92773 q 0.49804,0.25879 0.98144,0.39063 0.4834,0.12695 0.95703,0.12695 0.63477,0 0.97657,-0.21485 0.34179,-0.21972 0.34179,-0.61523 0,-0.36621 -0.24902,-0.56152 -0.24414,-0.19532 -1.0791,-0.37598 l -0.3125,-0.0732 q -0.83496,-0.17578 -1.20606,-0.53711 -0.37109,-0.36621 -0.37109,-1.00098 0,-0.77148 0.54687,-1.1914 0.54688,-0.41993 1.55274,-0.41993 0.49805,0 0.9375,0.0733 0.43945,0.0732 0.81055,0.21972 z"
     id="path387" /><path
     d="m 223.44434,162.74121 v 0.83984 q -0.38086,-0.20996 -0.76661,-0.3125 -0.38086,-0.10742 -0.77148,-0.10742 -0.87402,0 -1.35742,0.55664 -0.4834,0.55176 -0.4834,1.55274 0,1.00097 0.4834,1.55761 0.4834,0.55176 1.35742,0.55176 0.39062,0 0.77148,-0.10254 0.38575,-0.10742 0.76661,-0.31738 v 0.83008 q -0.37598,0.17578 -0.78125,0.26367 -0.40039,0.0879 -0.8545,0.0879 -1.23535,0 -1.96289,-0.77637 -0.72754,-0.77636 -0.72754,-2.09472 0,-1.33789 0.73243,-2.10449 0.7373,-0.76661 2.0166,-0.76661 0.41504,0 0.81054,0.0879 0.39551,0.083 0.76661,0.25391 z"
     id="path389" /><path
     d="M 229.55273,164.69922 V 168 h -0.89843 v -3.27148 q 0,-0.77637 -0.30274,-1.16211 -0.30273,-0.38575 -0.9082,-0.38575 -0.72754,0 -1.14746,0.46387 -0.41992,0.46387 -0.41992,1.26465 V 168 h -0.90332 v -7.59766 h 0.90332 v 2.97852 q 0.32226,-0.49316 0.75683,-0.73731 0.43946,-0.24414 1.01074,-0.24414 0.94239,0 1.42579,0.58594 0.48339,0.58106 0.48339,1.71387 z"
     id="path391" /><path
     d="m 235.60254,163.58105 q 0.33691,-0.60546 0.80566,-0.89355 0.46875,-0.28809 1.10352,-0.28809 0.85449,0 1.31836,0.60059 0.46387,0.5957 0.46387,1.69922 V 168 h -0.90333 v -3.27148 q 0,-0.78614 -0.27832,-1.167 -0.27832,-0.38086 -0.8496,-0.38086 -0.69825,0 -1.10352,0.46387 -0.40527,0.46387 -0.40527,1.26465 V 168 h -0.90332 v -3.27148 q 0,-0.79102 -0.27832,-1.167 -0.27832,-0.38086 -0.85938,-0.38086 -0.68848,0 -1.09375,0.46875 -0.40527,0.46387 -0.40527,1.25977 V 168 h -0.90332 v -5.46875 h 0.90332 v 0.84961 q 0.30761,-0.50293 0.7373,-0.74219 0.42969,-0.23926 1.02051,-0.23926 0.5957,0 1.01074,0.30274 0.41992,0.30273 0.62012,0.8789 z"
     id="path393" /><path
     d="m 241.21289,166.75977 h 1.03027 V 168 h -1.03027 z"
     id="path395" /><path
     d="m 251.04199,165.20215 q 0,-0.97656 -0.40527,-1.51367 -0.40039,-0.53711 -1.12793,-0.53711 -0.72266,0 -1.12793,0.53711 -0.40039,0.53711 -0.40039,1.51367 0,0.97168 0.40039,1.50879 0.40527,0.53711 1.12793,0.53711 0.72754,0 1.12793,-0.53711 0.40527,-0.53711 0.40527,-1.50879 z m 0.89844,2.11914 q 0,1.39648 -0.62012,2.07519 -0.62011,0.6836 -1.89941,0.6836 -0.47363,0 -0.89356,-0.0732 -0.41992,-0.0684 -0.81543,-0.21485 v -0.87402 q 0.39551,0.21484 0.78125,0.31738 0.38575,0.10254 0.78614,0.10254 0.88379,0 1.32324,-0.46387 0.43945,-0.45898 0.43945,-1.3916 v -0.44433 q -0.27832,0.48339 -0.71289,0.72265 Q 249.89453,168 249.28906,168 q -1.00586,0 -1.62109,-0.7666 -0.61524,-0.7666 -0.61524,-2.03125 0,-1.26953 0.61524,-2.03613 0.61523,-0.76661 1.62109,-0.76661 0.60547,0 1.04004,0.23926 0.43457,0.23926 0.71289,0.72266 v -0.83008 h 0.89844 z"
     id="path397" /><path
     d="m 258.46875,165.04102 v 0.43945 h -4.13086 q 0.0586,0.92773 0.55664,1.41601 0.50293,0.4834 1.39649,0.4834 0.51757,0 1.00097,-0.12695 0.48828,-0.12695 0.9668,-0.38086 v 0.84961 q -0.4834,0.20508 -0.99121,0.3125 -0.50781,0.10742 -1.03028,0.10742 -1.30859,0 -2.07519,-0.76172 -0.76172,-0.76172 -0.76172,-2.06054 0,-1.34278 0.72266,-2.12891 0.72754,-0.79102 1.958,-0.79102 1.10352,0 1.74317,0.71289 0.64453,0.70801 0.64453,1.92872 z m -0.89844,-0.26368 q -0.01,-0.7373 -0.41504,-1.17675 -0.40039,-0.43946 -1.06445,-0.43946 -0.75195,0 -1.20605,0.42481 -0.44922,0.4248 -0.51758,1.19629 z"
     id="path399" /><path
     d="m 263.42969,162.69238 v 0.84961 q -0.38086,-0.19531 -0.79102,-0.29297 -0.41015,-0.0977 -0.84961,-0.0977 -0.66894,0 -1.00586,0.20508 -0.33203,0.20507 -0.33203,0.61523 0,0.3125 0.23926,0.49316 0.23926,0.17578 0.96191,0.33692 l 0.30762,0.0684 q 0.95703,0.20508 1.35742,0.58105 0.40528,0.3711 0.40528,1.04004 0,0.76172 -0.60547,1.20606 -0.60059,0.44433 -1.65528,0.44433 -0.43945,0 -0.91796,-0.0879 -0.47364,-0.083 -1.00098,-0.25391 v -0.92773 q 0.49805,0.25879 0.98144,0.39063 0.4834,0.12695 0.95704,0.12695 0.63476,0 0.97656,-0.21485 0.34179,-0.21972 0.34179,-0.61523 0,-0.36621 -0.24902,-0.56152 -0.24414,-0.19532 -1.0791,-0.37598 l -0.3125,-0.0732 q -0.83496,-0.17578 -1.20606,-0.53711 -0.37109,-0.36621 -0.37109,-1.00098 0,-0.77148 0.54688,-1.1914 0.54687,-0.41993 1.55273,-0.41993 0.49805,0 0.9375,0.0733 0.43945,0.0732 0.81055,0.21972 z"
     id="path401" /><path
     d="m 269.08887,162.74121 v 0.83984 q -0.38086,-0.20996 -0.7666,-0.3125 -0.38086,-0.10742 -0.77149,-0.10742 -0.87402,0 -1.35742,0.55664 -0.4834,0.55176 -0.4834,1.55274 0,1.00097 0.4834,1.55761 0.4834,0.55176 1.35742,0.55176 0.39063,0 0.77149,-0.10254 0.38574,-0.10742 0.7666,-0.31738 v 0.83008 q -0.37598,0.17578 -0.78125,0.26367 -0.40039,0.0879 -0.8545,0.0879 -1.23535,0 -1.96289,-0.77637 -0.72753,-0.77636 -0.72753,-2.09472 0,-1.33789 0.73242,-2.10449 0.7373,-0.76661 2.0166,-0.76661 0.41504,0 0.81055,0.0879 0.3955,0.083 0.7666,0.25391 z"
     id="path403" /><path
     d="M 275.19727,164.69922 V 168 h -0.89844 v -3.27148 q 0,-0.77637 -0.30274,-1.16211 -0.30273,-0.38575 -0.9082,-0.38575 -0.72754,0 -1.14746,0.46387 -0.41992,0.46387 -0.41992,1.26465 V 168 h -0.90332 v -7.59766 h 0.90332 v 2.97852 q 0.32226,-0.49316 0.75683,-0.73731 0.43946,-0.24414 1.01075,-0.24414 0.94238,0 1.42578,0.58594 0.4834,0.58106 0.4834,1.71387 z"
     id="path405" /><path
     d="m 277.11621,166.75977 h 1.03027 V 168 h -1.03027 z"
     id="path407" /><path
     d="m 283.38574,160.70996 h 0.98633 v 6.45996 h 3.5498 V 168 h -4.53613 z"
     id="path409" /><path
     d="m 293.41992,165.04102 v 0.43945 h -4.13086 q 0.0586,0.92773 0.55664,1.41601 0.50293,0.4834 1.39649,0.4834 0.51758,0 1.00097,-0.12695 0.48829,-0.12695 0.9668,-0.38086 v 0.84961 q -0.4834,0.20508 -0.99121,0.3125 -0.50781,0.10742 -1.03027,0.10742 -1.3086,0 -2.0752,-0.76172 -0.76172,-0.76172 -0.76172,-2.06054 0,-1.34278 0.72266,-2.12891 0.72754,-0.79102 1.95801,-0.79102 1.10351,0 1.74316,0.71289 0.64453,0.70801 0.64453,1.92872 z m -0.89844,-0.26368 q -0.01,-0.7373 -0.41503,-1.17675 -0.4004,-0.43946 -1.06446,-0.43946 -0.75195,0 -1.20605,0.42481 -0.44922,0.4248 -0.51758,1.19629 z"
     id="path411" /><path
     d="m 299.57227,165.04102 v 0.43945 h -4.13086 q 0.0586,0.92773 0.55664,1.41601 0.50293,0.4834 1.39648,0.4834 0.51758,0 1.00098,-0.12695 0.48828,-0.12695 0.96679,-0.38086 v 0.84961 q -0.48339,0.20508 -0.99121,0.3125 -0.50781,0.10742 -1.03027,0.10742 -1.30859,0 -2.0752,-0.76172 -0.76171,-0.76172 -0.76171,-2.06054 0,-1.34278 0.72265,-2.12891 0.72754,-0.79102 1.95801,-0.79102 1.10352,0 1.74316,0.71289 0.64454,0.70801 0.64454,1.92872 z m -0.89844,-0.26368 q -0.01,-0.7373 -0.41504,-1.17675 -0.40039,-0.43946 -1.06445,-0.43946 -0.75196,0 -1.20606,0.42481 -0.44922,0.4248 -0.51758,1.19629 z"
     id="path413" /><path
     d="m 304.21582,163.37109 q -0.15137,-0.0879 -0.33203,-0.12695 -0.17578,-0.0439 -0.39063,-0.0439 -0.76171,0 -1.17187,0.49804 -0.40527,0.49317 -0.40527,1.4209 V 168 h -0.90332 v -5.46875 h 0.90332 v 0.84961 q 0.2832,-0.49805 0.7373,-0.73731 0.4541,-0.24414 1.10352,-0.24414 0.0928,0 0.20507,0.0147 0.11231,0.01 0.24903,0.0342 z"
     id="path415" /><path
     d="m 304.76758,162.53125 h 4.26758 v 0.82031 l -3.37891,3.93067 h 3.37891 V 168 h -4.38965 v -0.82031 l 3.3789,-3.93067 h -3.25683 z"
     id="path417" /><path
     d="m 310.53418,166.75977 h 1.03027 V 168 h -1.03027 z"
     id="path419" /></g>

<g
   aria-label="⏎"
   id="returntxt"
   style="font-size:14px;line-height:0%;font-family:'DejaVu Sans';display:inline;fill:#111111"
   class="mod big"><path
     d="m 498.84863,61.083984 -3.47265,-3.472656 3.47265,-3.472656 v 1.866211 h 3.87598 v -4.210938 h 3.21289 l -0.007,7.423828 h -7.08203 z m -0.68359,-4.395507 v -0.895508 l -1.81836,1.818359 1.81836,1.818359 V 58.53418 h 7.08203 l 0.007,-6.056641 h -1.84571 l -0.007,4.210938 z"
     id="path422" /></g>
<g
   aria-label="⌫"
   id="backspacetxt"
   style="font-size:10px;line-height:0%;font-family:'DejaVu Sans';display:inline;fill:#111111"
   class="mod"><path
     d="m 493.37891,23 h -9.5752 l -3.79883,-3.798828 3.79883,-3.798828 h 9.5752 z m -0.72266,-6.875 h -0.68848 l -3.07617,3.076172 3.07617,3.076172 h 0.68848 z m -6.8457,0 2.56347,2.563477 2.56348,-2.563477 z m 5.12695,6.152344 -2.56348,-2.563477 -2.56347,2.563477 z M 484.79492,16.125 h -0.69336 l -3.07617,3.085937 3.07617,3.066407 h 0.69336 l 3.07617,-3.076172 z"
     id="path425" /></g>
</g>

<g
   transform="translate(55,26)"
   id="g187">
	<g
   aria-label="¬"
   id="text165"
   style="font-size:20px;line-height:0%;font-family:'Linux Libertine';text-align:center;text-anchor:middle;display:inline;fill:#111111;stroke-width:1.25"
   class="key"><path
     d="m 4.679995,-7.76 v 5.2 h -1.42 v -3.78 h -7.98 v -1.42 z"
     id="path428" /></g>
	<g
   aria-label="∨"
   id="text167"
   style="font-size:20px;line-height:0%;font-family:'Linux Libertine';text-align:center;text-anchor:middle;display:inline;fill:#111111;stroke-width:1.25"
   class="key"><path
     d="m 31.258789,-11.582031 h 1.904297 l 2.841797,9.1796872 2.832031,-9.1796872 h 1.904297 L 37.225586,0 H 34.78418 Z"
     id="path431" /></g>
	<g
   aria-label="∧"
   id="text169"
   style="font-size:20px;line-height:0%;font-family:'Linux Libertine';text-align:center;text-anchor:middle;display:inline;fill:#111111;stroke-width:1.25"
   class="key"><path
     d="m 67.258789,0 3.525391,-11.582031 h 2.441406 L 76.741211,0 H 74.836914 L 72.004883,-9.1796875 69.163086,0 Z"
     id="path434" /></g>
	<g
   aria-label="⊥"
   id="text171"
   style="font-size:20px;line-height:0%;font-family:'Linux Libertine';text-align:center;text-anchor:middle;display:inline;fill:#111111;stroke-width:1.25"
   class="key"><path
     d="M 100.99805,0 V -1.2402344 H 107.375 V -14.003906 h 1.25 v 12.7636716 h 6.37695 V 0 Z"
     id="path437" /></g>
	<g
   aria-label="∡"
   id="text173"
   style="font-size:20px;line-height:0%;font-family:'Linux Libertine';text-align:center;text-anchor:middle;display:inline;fill:#111111;stroke-width:1.25"
   class="key"><path
     d="m 145.97266,-1.9726562 q -0.38086,-1.3574219 -1.10352,-2.6660157 -0.63477,-1.1230468 -1.48437,-2.0410156 l -2.98829,4.7070313 z m -3.35938,-7.2167969 3.4375,-5.3906249 h 2.36328 l -4.25781,6.6992186 q 1.10352,1.1230469 1.9043,2.5585938 0.9082,1.6308593 1.32812,3.3496094 h 3.35938 V 0 h -3.03711 q 0.0391,0.51757812 0.0391,1.0546875 h -1.36719 q 0,-0.53710938 -0.0488,-1.0546875 h -9.58984 l 5.12695,-8.0273438 q -0.29297,-0.2050781 -0.5957,-0.4003906 l 0.78125,-1.1425781 q 0.2832,0.1855469 0.55664,0.3808594 z"
     id="path440" /></g>

	<g
   aria-label="∥"
   id="text175"
   style="font-size:20px;line-height:0%;font-family:'Linux Libertine';text-align:center;text-anchor:middle;display:inline;fill:#111111;stroke-width:1.25"
   class="key"><path
     d="m 177.65625,-15.419922 h 1.5625 V 4.2773437 h -1.5625 z m 3.125,0 h 1.5625 V 4.2773437 h -1.5625 z"
     id="path443" /></g>
	<g
   aria-label="→"
   id="text177"
   style="font-size:20px;line-height:0%;font-family:'Linux Libertine';text-align:center;text-anchor:middle;display:inline;fill:#111111;stroke-width:1.25"
   class="key"><path
     d="m 223.40234,-6.7089844 v 0.8789063 l -3.83789,3.8378906 -1.17187,-1.171875 2.27539,-2.2753906 h -11.9043 v -1.6601563 h 11.9043 L 218.39258,-9.375 l 1.17187,-1.171875 z"
     id="path446" /></g>
	<g
   aria-label="∞"
   id="text179"
   style="font-size:20px;line-height:0%;font-family:'Linux Libertine';text-align:center;text-anchor:middle;display:inline;fill:#111111;stroke-width:1.25"
   class="key"><path
     d="M 252.78125,-3.4082031 Q 252.47852,-3.7597656 252,-4.5800781 q -0.6543,1.171875 -1.23047,1.6894531 -0.72266,0.625 -1.8457,0.625 -1.31836,0 -2.1875,-0.9863281 -0.91797,-1.0351563 -0.91797,-2.7441406 0,-1.640625 0.91797,-2.7539063 0.82031,-0.9863281 2.20703,-0.9863281 0.71289,0 1.24023,0.2929687 0.61524,0.3222656 1.03516,0.8789063 0.39062,0.4980468 0.78125,1.171875 0.6543,-1.171875 1.23047,-1.6894532 0.72265,-0.625 1.8457,-0.625 1.31836,0 2.1875,0.9863282 0.91797,1.0351562 0.91797,2.7441406 0,1.640625 -0.91797,2.7539062 -0.82031,0.9863282 -2.20703,0.9863282 -0.71289,0 -1.24023,-0.2929688 -0.52735,-0.2636719 -1.03516,-0.8789062 z m -3.96484,-0.1367188 q 1.61132,0 2.57812,-2.34375 -1.24023,-2.5585937 -2.57812,-2.5585937 -0.97657,0 -1.47461,0.703125 -0.53711,0.7519531 -0.53711,1.7480469 0,1.09375 0.53711,1.7675781 0.54687,0.6835937 1.47461,0.6835937 z m 6.36718,-4.8828125 q -1.45507,0 -2.57812,2.34375 1.23047,2.5585938 2.57812,2.5585938 0.97657,0 1.47461,-0.703125 0.53711,-0.7519531 0.53711,-1.7480469 0,-1.09375 -0.53711,-1.7675781 -0.54687,-0.6835938 -1.47461,-0.6835938 z"
     id="path449" /></g>
	<g
   aria-label="∝"
   id="text181"
   style="font-size:20px;line-height:0%;font-family:'Linux Libertine';text-align:center;text-anchor:middle;display:inline;fill:#111111;stroke-width:1.25"
   class="key"><path
     d="m 286.00293,-3.5449219 q 1.61133,0 2.57812,-2.34375 -1.24023,-2.5585937 -2.57812,-2.5585937 -0.97656,0 -1.47461,0.703125 -0.52734,0.7519531 -0.52734,1.7480469 0,1.09375 0.52734,1.7675781 0.54688,0.6835937 1.47461,0.6835937 z m 6.99219,0.019531 v 1.2890625 h -0.75196 q -0.71289,0 -1.24023,-0.2929688 -0.52734,-0.2636719 -1.03516,-0.8789062 -0.30273,-0.3515625 -0.78125,-1.171875 -0.65429,1.171875 -1.23047,1.6894531 -0.71289,0.625 -1.8457,0.625 -1.31836,0 -2.1875,-0.9863281 -0.91797,-1.0351563 -0.91797,-2.7441406 0,-1.640625 0.91797,-2.7539063 0.81055,-0.9863281 2.20703,-0.9863281 0.71289,0 1.24024,0.2929687 0.61523,0.3222656 1.03515,0.8789063 0.39063,0.4980468 0.78125,1.171875 0.6543,-1.171875 1.23047,-1.6894532 0.71289,-0.625 1.84571,-0.625 h 0.73242 v 1.2792969 h -0.625 q -1.44532,0 -2.57813,2.34375 1.24024,2.5585938 2.57813,2.5585938 z"
     id="path452" /></g>
	<g
   aria-label="∅"
   id="text183"
   style="font-size:20px;line-height:0%;font-family:'Linux Libertine';text-align:center;text-anchor:middle;display:inline;fill:#111111;stroke-width:1.25"
   class="key"><path
     d="m 327.86719,-13.076172 0.86914,-1.074219 h 1.03515 l -1.25,1.533203 q 1.02539,0.810547 1.69922,2.001954 0.97657,1.7382809 0.97657,3.6132809 0,1.875 -0.97657,3.6132812 -0.97656,1.7285157 -2.69531,2.65625003 Q 325.80664,0.1953125 324,0.1953125 q -1.82617,0 -3.54492,-0.92773437 Q 319.9082,-1.0253906 319.43945,-1.40625 l -1.23047,1.5234375 h -1.02539 l 1.66016,-2.0507812 q -0.61523,-0.6445313 -1.07422,-1.4648438 -0.9668,-1.7285156 -0.9668,-3.6035156 0,-1.875 0.9668,-3.6035159 0.9668,-1.738281 2.68555,-2.666015 1.71875,-0.927735 3.54492,-0.927735 1.80664,0 3.52539,0.927735 0.17578,0.09766 0.3418,0.195312 z m -8.20313,10.1269532 7.38281,-9.1113282 -0.13671,-0.07813 q -1.41602,-0.761719 -2.91016,-0.761719 -1.50391,0 -2.92969,0.771485 -1.41601,0.761718 -2.21679,2.1972654 -0.79102,1.4160156 -0.80079,2.9296875 0.01,1.5136719 0.80079,2.9296875 0.35156,0.625 0.81054,1.1230468 z m 8.04688,-8.6621092 -7.45117,9.1992186 q 0.38085,0.3027344 0.82031,0.5371094 1.41601,0.7714844 2.91992,0.7714844 1.49414,0 2.91016,-0.7617188 1.41601,-0.7714844 2.22656,-2.2070312 0.80078,-1.4160156 0.81055,-2.9296875 -0.01,-1.5136719 -0.81055,-2.9296875 -0.56641,-1.0058594 -1.42578,-1.6796874 z"
     id="path455" /></g>
	<g
   aria-label="-"
   id="text185"
   style="font-size:20px;line-height:0%;font-family:'Linux Libertine';text-align:center;text-anchor:middle;display:inline;fill:#111111;stroke-width:1.25"
   class="key"><path
     d="m 357.57999,-4.58 v -1.56 h 4.84 v 1.56 z"
     id="path458" /></g>
</g>


<g
   aria-label="⇥"
   id="text189"
   style="font-size:14px;line-height:0%;font-family:'DejaVu Sans';display:inline;fill:#111111"
   class="mod big"><path
     d="m 10.799805,55.030273 h 7.123047 l -1.59961,-1.599609 0.820313,-0.820312 2.693359,2.693359 v -2.625 h 1.162109 v 5.878906 h -1.162109 v -2.638672 l -2.693359,2.69336 -0.820313,-0.820313 1.59961,-1.599609 h -7.123047 z"
     id="path461" /></g>

<g
   transform="translate(73,62)"
   id="g213">
	<g
   aria-label="ℤ"
   id="text191"
   style="font-size:20px;line-height:0%;font-family:'Linux Libertine';text-align:center;text-anchor:middle;display:inline;fill:#111111;stroke-width:1.25"
   class="key"><path
     d="m -5.5399916,0 v -1.06 l 7.32,-12.16 h -6.68 v -1.06 h 10.42 v 1.06 l -7.18,12.16 h 6.98 V 0 Z m 1.2,-1.06 h 1.46 l 7.24,-12.16 h -1.42 z"
     id="path464" /></g>
	<g
   aria-label="∇"
   id="text193"
   style="font-size:20px;line-height:0%;font-family:'Linux Libertine';text-align:center;text-anchor:middle;display:inline;fill:#111111;stroke-width:1.25"
   class="key"><path
     d="M 35.990234,-2.0605469 40.072266,-12.646484 H 31.908203 Z M 34.90625,0 29.251953,-14.384766 H 42.748047 L 37.09375,0 Z"
     id="path467" /></g>
	<g
   aria-label="⊂"
   id="text195"
   style="font-size:20px;line-height:0%;font-family:'Linux Libertine';text-align:center;text-anchor:middle;display:inline;fill:#111111;stroke-width:1.25"
   class="key"><path
     d="M 78.386719,-1.5917969 H 70.28125 q -1.972656,0 -3.320313,-1.3574219 -1.347656,-1.3574218 -1.347656,-3.3105468 0,-1.9335938 1.347656,-3.3105469 1.347657,-1.3574215 3.300782,-1.3574215 h 8.125 v 1.4648434 h -8.125 q -1.328125,0 -2.25586,0.9375 -0.927734,0.9375 -0.927734,2.265625 0,1.3476562 0.917969,2.265625 0.9375,0.9375 2.265625,0.9375 h 8.125 z"
     id="path470" /></g>
	<g
   aria-label="∀"
   id="text197"
   style="font-size:20px;line-height:0%;font-family:'Linux Libertine';text-align:center;text-anchor:middle;display:inline;fill:#111111;stroke-width:1.25"
   class="key"><path
     d="m 107.99512,-1.9433594 2.68554,-7.2558594 h -5.36132 z M 106.88184,0 101.31543,-14.580078 h 2.08008 l 1.32812,3.740234 h 6.57227 l 1.32812,-3.740234 h 2.05078 L 109.11816,0 Z"
     id="path473" /></g>
	<g
   aria-label="ℚ"
   id="text199"
   style="font-size:20px;line-height:0%;font-family:'Linux Libertine';text-align:center;text-anchor:middle;display:inline;fill:#111111;stroke-width:1.25"
   class="key"><path
     d="m 143.65,0.2 q -3.1,-0.16 -4.68,-2.1 -1.56,-1.96 -1.56,-5.28 0,-2.2 0.74,-3.84 0.76,-1.64 2.22,-2.56 1.48,-0.92 3.66,-0.92 2.14,0 3.6,0.92 1.46,0.92 2.2,2.58 0.76,1.64 0.76,3.84 0,2.62 -0.92,4.26 -0.9,1.62 -2.36,2.38 l 4.24,3.92 h -5.76 z m 0.36,-0.96 q 1.54,0 2.64,-0.54 v -11.68 q -0.56,-0.28 -1.22,-0.42 -0.64,-0.14 -1.4,-0.14 -1.56,0 -2.68,0.58 v 11.64 q 1.1,0.56 2.66,0.56 z m 3.7,-1.26 q 0.9,-0.82 1.36,-2.12 0.46,-1.32 0.46,-3.02 0,-1.7 -0.46,-3 -0.44,-1.3 -1.36,-2.12 z m -7.42,-10.22 q -0.92,0.82 -1.38,2.12 -0.44,1.3 -0.44,2.96 0,1.68 0.44,3 0.46,1.3 1.38,2.12 z m 6.2,14.68 h 2.48 l -2.72,-2.52 q -0.26,0.08 -0.66,0.14 -0.4,0.08 -0.7,0.1 z"
     id="path476" /></g>

	<g
   aria-label="Π"
   id="text201"
   style="font-size:20px;line-height:0%;font-family:'Linux Libertine';text-align:center;text-anchor:middle;display:inline;fill:#111111;stroke-width:1.25"
   class="key"><path
     d="m 174.62999,0 v -14.28 h 10.72 V 0 h -1.78 v -12.7 h -7.14 V 0 Z"
     id="path479" /></g>
	<g
   aria-label="⇐"
   id="text203"
   style="font-size:20px;line-height:0%;font-family:'Linux Libertine';text-align:center;text-anchor:middle;display:inline;fill:#111111;stroke-width:1.25"
   class="key"><path
     d="m 211.52734,-5.2441406 h 11.70899 v 1.171875 h -10.53711 l 0.9082,0.9082031 -1.17187,1.171875 -3.83789,-3.8378906 v -0.8789063 l 3.83789,-3.8378906 1.17187,1.171875 -0.9082,0.9082031 h 10.53711 v 1.171875 h -11.70899 l -1.02539,1.0253907 z"
     id="path482" /></g>
	<g
   aria-label="⇔"
   id="text205"
   style="font-size:20px;line-height:0%;font-family:'Linux Libertine';text-align:center;text-anchor:middle;display:inline;fill:#111111;stroke-width:1.25"
   class="key"><path
     d="m 247.52734,-5.2441406 h 8.94532 l 1.02539,-1.0253906 -1.02539,-1.0253907 h -8.94532 l -1.02539,1.0253907 z m 7.77344,1.171875 h -6.60156 l 0.9082,0.9082031 -1.17187,1.171875 -3.83789,-3.8378906 v -0.8789063 l 3.83789,-3.8378906 1.17187,1.171875 -0.9082,0.9082031 h 6.60156 l -0.9082,-0.9082031 1.17187,-1.171875 3.83789,3.8378906 v 0.8789063 l -3.83789,3.8378906 -1.17187,-1.171875 z"
     id="path485" /></g>
	<g
   aria-label="Λ"
   id="text207"
   style="font-size:20px;line-height:0%;font-family:'Linux Libertine';text-align:center;text-anchor:middle;display:inline;fill:#111111;stroke-width:1.25"
   class="key"><path
     d="m 281.91001,0 5.28,-14.34 h 1.62 l 5.26,14.34 h -1.86 l -3.56,-10.34 q -0.06,-0.16 -0.2,-0.58 -0.14,-0.42 -0.28,-0.86 -0.12,-0.46 -0.2,-0.7 -0.14,0.62 -0.32,1.22 -0.18,0.58 -0.3,0.92 l -3.62,10.34 z"
     id="path488" /></g>
	<g
   aria-label="Φ"
   id="text209"
   style="font-size:20px;line-height:0%;font-family:'Linux Libertine';text-align:center;text-anchor:middle;display:inline;fill:#111111;stroke-width:1.25"
   class="key"><path
     d="m 323.11,0 v -1.8 q -1.98,-0.04 -3.26,-0.56 -1.26,-0.52 -1.98,-1.34 -0.7,-0.84 -1,-1.8 -0.28,-0.98 -0.28,-1.9 0,-1.06 0.32,-2.04 0.32,-0.98 1.06,-1.74 0.74,-0.78 2,-1.24 1.26,-0.48 3.14,-0.5 v -1.36 h 1.78 v 1.36 q 1.9,0.02 3.16,0.48 1.26,0.46 1.98,1.22 0.74,0.76 1.06,1.76 0.32,0.98 0.32,2.06 0,0.96 -0.3,1.94 -0.3,0.98 -1.04,1.8 -0.72,0.8 -2,1.32 -1.26,0.5 -3.18,0.54 V 0 Z m 0,-3.28 v -8.12 q -1.8,0.04 -2.84,0.58 -1.02,0.52 -1.44,1.4 -0.42,0.88 -0.42,2 0,1.18 0.46,2.1 0.48,0.92 1.5,1.46 1.04,0.52 2.74,0.58 z m 1.78,0 q 1.74,-0.06 2.76,-0.6 1.04,-0.56 1.48,-1.48 0.46,-0.92 0.46,-2.06 0,-1.14 -0.42,-2.02 -0.42,-0.88 -1.44,-1.4 -1.02,-0.52 -2.84,-0.56 z"
     id="path491" /></g>
	<g
   aria-label="Θ"
   id="text211"
   style="font-size:20px;line-height:0%;font-family:'Linux Libertine';text-align:center;text-anchor:middle;display:inline;fill:#111111;stroke-width:1.25"
   class="key"><path
     d="m 366.59,-7.16 q 0,2.22 -0.76,3.88 -0.74,1.64 -2.2,2.56 -1.46,0.92 -3.62,0.92 -2.22,0 -3.7,-0.92 -1.46,-0.92 -2.18,-2.58 -0.72,-1.66 -0.72,-3.88 0,-2.2 0.72,-3.84 0.72,-1.64 2.18,-2.56 1.48,-0.92 3.72,-0.92 2.14,0 3.6,0.92 1.46,0.9 2.2,2.56 0.76,1.64 0.76,3.86 z m -11.28,0 q 0,2.7 1.14,4.26 1.14,1.54 3.56,1.54 2.44,0 3.56,-1.54 1.12,-1.56 1.12,-4.26 0,-2.7 -1.12,-4.22 -1.12,-1.54 -3.54,-1.54 -2.42,0 -3.58,1.54 -1.14,1.52 -1.14,4.22 z m 1.68,0.68 v -1.56 h 6.04 v 1.56 z"
     id="path494" /></g>
</g>


<g
   transform="translate(84,98)"
   id="g235">
	<g
   aria-label="ℂ"
   id="text215"
   style="font-size:20px;line-height:0%;font-family:'Linux Libertine';text-align:center;text-anchor:middle;display:inline;fill:#111111;stroke-width:1.25"
   class="key"><path
     d="m 1.3200003,0.2 q -2.21999999,0 -3.7,-0.9 -1.48,-0.9 -2.22,-2.56 -0.72,-1.66 -0.72,-3.9 0,-2.16 0.78,-3.82 0.8,-1.66 2.34,-2.58 1.54000001,-0.94 3.74,-0.94 0.96,0 1.88,0.12 0.94,0.12 1.9,0.5 l -0.52,1.12 q -1.6,-0.68 -3.3,-0.68 -0.85999999,0 -1.61999999,0.2 -0.74,0.18 -1.36000001,0.52 v 11.24 q 1.24000001,0.62 2.98,0.62 0.82,0 1.7,-0.12 0.88,-0.14 1.72,-0.36 v 1.18 q -0.94,0.2 -1.8,0.28 -0.86,0.08 -1.8,0.08 z m -3.86,-12.12 q -1.66,1.66 -1.66,4.82 0,1.58 0.4,2.82 0.42,1.22 1.26,2.04 z"
     id="path497" /></g>
	<g
   aria-label="Σ"
   id="text217"
   style="font-size:20px;line-height:0%;font-family:'Linux Libertine';text-align:center;text-anchor:middle;display:inline;fill:#111111;stroke-width:1.25"
   class="key"><path
     d="m 31.039995,0 v -1.48 l 4.72,-5.9 -4.52,-5.4 v -1.5 h 9.46 v 1.6 h -5.14 q -0.44,0 -1.08,0 -0.62,0 -0.94,-0.02 l 4.1,4.86 v 0.54 l -4.54,5.7 q 0.76,0 1.46,0 0.72,-0.02 1.52,-0.02 h 4.86 V 0 Z"
     id="path500" /></g>
	<g
   aria-label="∫"
   id="text219"
   style="font-size:20px;line-height:0%;font-family:'Linux Libertine';text-align:center;text-anchor:middle;display:inline;fill:#111111;stroke-width:1.25"
   class="key"><path
     d="m 71.506836,-12.207031 q 0.07813,-1.63086 0.869141,-2.275391 0.791015,-0.654297 1.523437,-0.654297 0.742188,0 1.357422,0.615235 0.615234,0.605468 0.810547,1.972656 l -1.445313,0.146484 q -0.166015,-1.269531 -0.722656,-1.269531 -0.693359,0 -0.771484,1.708984 L 72.493164,1.3183594 q -0.07813,1.6308594 -0.869141,2.2753906 -0.791015,0.6542969 -1.533203,0.6542969 -0.732422,0 -1.347656,-0.6152344 Q 68.12793,3.0273438 67.932617,1.6601562 L 69.37793,1.5136719 q 0.166015,1.2695312 0.722656,1.2695312 0.693359,0 0.771484,-1.7089844 z"
     id="path503" /></g>
	<g
   aria-label="∃"
   id="text221"
   style="font-size:20px;line-height:0%;font-family:'Linux Libertine';text-align:center;text-anchor:middle;display:inline;fill:#eeeeee;stroke-width:1.25"
   class="key nubkey"><path
     d="M 113.03906,-14.580078 V 0 h -9.39453 v -1.6601562 h 7.42188 v -4.8046875 h -7.42188 V -8.125 h 7.42188 v -4.794922 h -7.42188 v -1.660156 z"
     id="path506" /></g>
	<g
   aria-label="∈"
   id="text223"
   style="font-size:20px;line-height:0%;font-family:'Linux Libertine';text-align:center;text-anchor:middle;display:inline;fill:#111111;stroke-width:1.25"
   class="key"><path
     d="m 138.63867,-6.1230469 q 0.0684,0.7226563 0.6836,1.8945313 0.72265,1.3574218 2.08984,2.1191406 1.33789,0.7421875 2.7832,0.7519531 h 6.80664 v 1.5527344 h -6.80664 q -1.875,0 -3.61328,-0.96679687 -1.72851,-0.96679683 -2.65625,-2.68554693 -0.92773,-1.7187499 -0.92773,-3.5449218 0,-1.8066407 0.92773,-3.5253909 0.92774,-1.71875 2.65625,-2.695312 1.73828,-0.976563 3.61328,-0.976563 h 6.80664 v 1.552735 h -6.80664 q -1.44531,0.0098 -2.7832,0.761718 -1.35742,0.771485 -2.08984,2.119141 -0.625,1.171875 -0.7129,2.0800781 h 12.39258 v 1.5625 z"
     id="path509" /></g>

	<g
   aria-label="Δ"
   id="text225"
   style="font-size:20px;line-height:0%;font-family:'Linux Libertine';text-align:center;text-anchor:middle;display:inline;fill:#111111;stroke-width:1.25"
   class="key"><path
     d="m 173.81,0 v -1 l 5.38,-13.34 h 1.62 L 186.17,-1 v 1 z m 2.06,-1.62 h 8.22 l -3.34,-8.72 q -0.06,-0.16 -0.22,-0.58 -0.16,-0.42 -0.32,-0.86 -0.14,-0.46 -0.22,-0.7 -0.14,0.62 -0.36,1.22 -0.22,0.58 -0.34,0.92 z"
     id="path512" /></g>
	<g
   aria-label="∂"
   id="text227"
   style="font-size:20px;line-height:0%;font-family:'Linux Libertine';text-align:center;text-anchor:middle;display:inline;fill:#eeeeee;stroke-width:1.25"
   class="key nubkey"><path
     d="m 215.09668,0.28320313 q -1.37695,0 -2.27539,-0.83007813 -1.06445,-0.9863281 -1.06445,-2.7734375 0,-1.8554687 0.9375,-3.3007812 0.96679,-1.4843751 2.70507,-1.4843751 1.14258,0 2.04102,0.7128907 0.52734,0.4199219 0.88867,1.1230469 0.12695,-0.7910157 0.12695,-1.6894532 0,-1.3183594 -0.3125,-2.0800786 -0.69335,-1.689453 -2.52929,-1.689453 -0.69336,0 -1.76758,0.429688 v -1.640625 q 1.13281,-0.302735 2.14844,-0.302735 2.61718,0 3.73047,2.402344 0.51757,1.1328127 0.51757,2.8222659 0,1.1035156 -0.24414,2.3828125 -0.61523,3.203125 -2.20703,4.72656247 -1.25,1.19140626 -2.69531,1.19140626 z m -1.66992,-3.31054693 q 0,0.9765625 0.42969,1.5039063 0.45898,0.55664062 1.1621,0.55664062 0.625,0 1.12305,-0.43945312 0.70313,-0.6054688 1.2207,-1.5917969 0.42969,-0.8105469 0.64454,-1.6796875 -0.86914,-2.0996093 -2.37305,-2.0996093 -1.28906,0 -1.85547,1.6992187 -0.35156,1.0546875 -0.35156,2.0507812 z"
     id="path515" /></g>
	<g
   aria-label="ℕ"
   id="text229"
   style="font-size:20px;line-height:0%;font-family:'Linux Libertine';text-align:center;text-anchor:middle;display:inline;fill:#111111;stroke-width:1.25"
   class="key"><path
     d="m 246.16,0 v -14.28 h 1.52 l 9.1,9.8 v -9.8 h 1.06 V 0 h -1.54 l -9.08,-9.82 V 0 Z m 10.62,-1.06 v -1.96 l -9.56,-10.2 v 1.98 z"
     id="path518" /></g>
	<g
   aria-label="ℝ"
   id="text231"
   style="font-size:20px;line-height:0%;font-family:'Linux Libertine';text-align:center;text-anchor:middle;display:inline;fill:#111111;stroke-width:1.25"
   class="key"><path
     d="m 282.79999,0 v -14.28 h 5.18 q 2.56,0 3.76,1 1.2,0.98 1.2,2.8 0,1.32 -0.68,2.26 -0.66,0.92 -1.88,1.38 l 4.46,6.84 h -3.9 l -3.82,-6.34 h -0.86 V 0 Z m 1.06,-1.06 h 1.34 v -12.16 h -1.34 z m 2.4,-6.34 h 2.78 v -5.82 h -2.78 z m 3.86,-0.34 q 0.72,-0.34 1.18,-0.94 0.48,-0.6 0.48,-1.8 0,-1.1 -0.42,-1.66 -0.42,-0.58 -1.24,-0.84 z m 1.36,6.7 h 1.48 l -3.5,-5.5 q -0.6,0.12 -1.22,0.16 z"
     id="path521" /></g>
	<g
   aria-label="Ψ"
   id="text233"
   style="font-size:20px;line-height:0%;font-family:'Linux Libertine';text-align:center;text-anchor:middle;display:inline;fill:#111111;stroke-width:1.25"
   class="key"><path
     d="m 323.11001,0 v -3.74 q -2.72,-0.14 -4.12,-1.6 -1.4,-1.48 -1.4,-4.44 v -4.5 h 1.84 v 4.52 q 0,1.72 0.46,2.7 0.46,0.98 1.28,1.38 0.84,0.4 1.94,0.4 v -9 h 1.76 v 9 q 1.1,0 1.92,-0.4 0.84,-0.4 1.3,-1.38 0.46,-0.98 0.46,-2.7 v -4.52 h 1.84 v 4.5 q 0,2.96 -1.4,4.44 -1.38,1.46 -4.12,1.6 V 0 Z"
     id="path524" /></g>


</g>

<g
   transform="translate(101,134)"
   id="g257">
    <g
   aria-label="√"
   id="text237"
   style="font-size:20px;line-height:0%;font-family:'Linux Libertine';text-align:center;text-anchor:middle;display:inline;fill:#111111;stroke-width:1.25"
   class="key"><path
     d="m 4.5263672,-16.220703 h 1.8457031 v 0.9375 H 5.2490234 L -0.55175781,0.40039063 H -1.1962891 l -3.1152343,-8.62304693 -1.2207032,0.4394532 -0.2441406,-0.78125 2.7636719,-0.9570313 2.49999999,6.9238281 z"
     id="path527" /></g>
    <g
   aria-label="Ξ"
   id="text239"
   style="font-size:20px;line-height:0%;font-family:'Linux Libertine';text-align:center;text-anchor:middle;display:inline;fill:#111111;stroke-width:1.25"
   class="key"><path
     d="m 31.359995,-12.66 v -1.62 h 9.28 v 1.62 z m 0.8,6 v -1.62 h 7.68 v 1.62 z m -1.2,6.66 v -1.62 h 10.08 V 0 Z"
     id="path530" /></g>
    <g
   aria-label="∪"
   id="text241"
   style="font-size:20px;line-height:0%;font-family:'Linux Libertine';text-align:center;text-anchor:middle;display:inline;fill:#111111;stroke-width:1.25"
   class="key"><path
     d="m 67.258789,-5.8007812 v -5.7812498 h 1.679688 v 5.5371091 q 0,2.3828125 0.722656,3.4179688 0.722656,1.0253906 2.34375,1.0253906 1.611328,0 2.333984,-1.0253906 0.722656,-1.0351563 0.722656,-3.4179688 v -5.5371091 h 1.679688 v 5.7812498 q 0,2.8906249 -1.201172,4.3457031 Q 74.348633,0 72.004883,0 69.651367,0 68.450195,-1.4550781 67.258789,-2.9101563 67.258789,-5.8007812 Z"
     id="path533" /></g>
    <g
   aria-label="ℵ"
   id="text243"
   style="font-size:20px;line-height:0%;font-family:'Linux Libertine';text-align:center;text-anchor:middle;display:inline;fill:#111111;stroke-width:1.25"
   class="key"><path
     d="m 112.37001,0.52 q -0.76,-1.06 -1.72,-2.32 -0.94,-1.28 -2,-2.62 -1.04,-1.36 -2.14,-2.64 -1.28,1.76 -1.8,3.62 -0.52,1.86 -0.6,3.46 h -1.46 q 0.06,-1.88 0.72,-4 0.68,-2.12 2.26,-4.1 -0.76,-0.86 -1.5,-1.58 -0.72,-0.74 -1.36,-1.32 l 1.08,-1.04 q 1.3,1.22 2.76,2.88 1.46,1.66 2.8,3.38 0.78,-0.92 1.26,-1.98 0.5,-1.06 0.74,-2.08 0.26,-1.04 0.26,-1.84 h 1.56 q -0.08,1.1 -0.44,2.34 -0.36,1.24 -1,2.44 -0.64,1.2 -1.56,2.18 0.94,1.2 1.74,2.3 0.8,1.08 1.46,2 z"
     id="path536" /></g>

    <g
   aria-label="∩"
   id="text245"
   style="font-size:20px;line-height:0%;font-family:'Linux Libertine';text-align:center;text-anchor:middle;display:inline;fill:#111111;stroke-width:1.25"
   class="key"><path
     d="m 139.25879,-5.78125 q 0,-2.890625 1.19141,-4.345703 1.20117,-1.455078 3.55468,-1.455078 2.34375,0 3.53516,1.455078 1.20117,1.455078 1.20117,4.345703 V 0 h -1.67969 v -5.5371094 q 0,-2.3828125 -0.72265,-3.4082031 -0.72266,-1.0351563 -2.33399,-1.0351563 -1.62109,0 -2.34375,1.0351563 -0.72265,1.0253906 -0.72265,3.4082031 V 0 h -1.67969 z"
     id="path539" /></g>
    <g
   aria-label="Ω"
   id="text247"
   style="font-size:20px;line-height:0%;font-family:'Linux Libertine';text-align:center;text-anchor:middle;display:inline;fill:#111111;stroke-width:1.25"
   class="key"><path
     d="m 173.32999,0 v -1.58 h 3.16 q -0.74,-0.56 -1.44,-1.4 -0.7,-0.86 -1.16,-2.04 -0.44,-1.18 -0.44,-2.66 0,-1.96 0.76,-3.5 0.76,-1.54 2.22,-2.42 1.46,-0.9 3.56,-0.9 2.12,0 3.58,0.88 1.46,0.88 2.22,2.42 0.76,1.54 0.76,3.5 0,1.5 -0.44,2.68 -0.44,1.18 -1.14,2.04 -0.68,0.84 -1.44,1.4 h 3.14 V 0 h -5.36 v -1.44 q 1.24,-0.88 1.98,-1.8 0.74,-0.92 1.06,-1.98 0.32,-1.08 0.32,-2.4 0,-1.52 -0.5,-2.72 -0.5,-1.2 -1.54,-1.88 -1.02,-0.7 -2.64,-0.7 -1.6,0 -2.64,0.7 -1.02,0.68 -1.52,1.88 -0.48,1.2 -0.48,2.72 0,1.32 0.32,2.4 0.32,1.06 1.04,1.98 0.74,0.9 1.98,1.8 V 0 Z"
     id="path542" /></g>
    <g
   aria-label="Γ"
   id="text249"
   style="font-size:20px;line-height:0%;font-family:'Linux Libertine';text-align:center;text-anchor:middle;display:inline;fill:#111111;stroke-width:1.25"
   class="key"><path
     d="m 212.94999,0 v -14.28 h 7.58 v 1.58 h -5.78 V 0 Z"
     id="path545" /></g>
    <g
   aria-label="⇒"
   id="text251"
   style="font-size:20px;line-height:0%;font-family:'Linux Libertine';text-align:center;text-anchor:middle;display:inline;fill:#111111;stroke-width:1.25"
   class="key"><path
     d="m 256.47266,-5.2441406 1.02539,-1.0253906 -1.02539,-1.0253907 h -11.70899 v -1.171875 h 10.53711 l -0.9082,-0.9082031 1.17187,-1.171875 3.83789,3.8378906 v 0.8789063 l -3.83789,3.8378906 -1.17187,-1.171875 0.9082,-0.9082031 h -10.53711 v -1.171875 z"
     id="path548" /></g>
    <g
   aria-label="↦"
   id="text253"
   style="font-size:20px;line-height:0%;font-family:'Linux Libertine';text-align:center;text-anchor:middle;display:inline;fill:#111111;stroke-width:1.25"
   class="key"><path
     d="m 292.66797,-5.4394531 h -10.24414 v 3.3691406 h -1.66016 V -10.46875 h 1.66016 v 3.3691406 h 10.24414 L 290.39258,-9.375 l 1.17187,-1.171875 3.83789,3.8378906 v 0.8789063 l -3.83789,3.8378906 -1.17187,-1.171875 z"
     id="path551" /></g>
    <g
   aria-label="×"
   id="text255"
   style="font-size:20px;line-height:0%;font-family:'Linux Libertine';text-align:center;text-anchor:middle;display:inline;fill:#111111;stroke-width:1.25"
   class="key"><path
     d="m 327.39999,-11.48 1,1.02 -3.4,3.4 3.38,3.4 -1,1.02 -3.42,-3.38 -3.34,3.38 -1.04,-1.02 3.38,-3.4 -3.4,-3.38 1.04,-1.04 3.38,3.42 z"
     id="path554" /></g>
</g>


<g
   transform="translate(561,26)"
   id="g267">
    <g
   aria-label="≡"
   id="text259"
   style="font-size:20px;line-height:0%;font-family:'Linux Libertine';text-align:center;text-anchor:middle;display:inline;fill:#111111;stroke-width:1.25"
   class="key"><path
     d="M -6.2597656,-7.0996094 H 6.2597656 v 1.6601563 H -6.2597656 Z m 0,-3.6425786 H 6.2597656 v 1.6601567 H -6.2597656 Z m 0,7.2851567 H 6.2597656 V -1.796875 H -6.2597656 Z"
     id="path557" /></g>
    <g
   aria-label="∣"
   id="text261"
   style="font-size:20px;line-height:0%;font-family:'Linux Libertine';text-align:center;text-anchor:middle;display:inline;fill:#111111;stroke-width:1.25"
   class="key"><path
     d="m 35.21875,-15.419922 h 1.5625 V 4.2773437 h -1.5625 z"
     id="path560" /></g>
    <g
   aria-label="⊗"
   id="text263"
   style="font-size:20px;line-height:0%;font-family:'Linux Libertine';text-align:center;text-anchor:middle;display:inline;fill:#111111;stroke-width:1.25"
   class="key"><path
     d="M 73.953125,-11.005859 Q 73.044922,-11.386719 72,-11.386719 q -1.044922,0 -1.953125,0.38086 -0.898438,0.380859 -1.640625,1.1230465 -0.751953,0.7519531 -1.123047,1.6503906 -0.371094,0.8984375 -0.371094,1.9628907 0,1.0351562 0.371094,1.9335937 0.371094,0.8984375 1.123047,1.6503906 0.742187,0.7421875 1.640625,1.1230469 0.908203,0.3808594 1.953125,0.3808594 1.044922,0 1.953125,-0.3808594 0.898437,-0.3808594 1.640625,-1.1230469 0.751953,-0.7519531 1.123047,-1.6503906 0.371094,-0.8984375 0.371094,-1.9335937 0,-1.0644532 -0.371094,-1.9628907 Q 76.345703,-9.1308594 75.59375,-9.8828125 74.851562,-10.625 73.953125,-11.005859 Z m -4.462891,-1.357422 q 1.16211,-0.488282 2.509766,-0.488282 1.347656,0 2.509766,0.488282 1.162109,0.488281 2.11914,1.445312 0.966797,0.9667971 1.445313,2.1289065 0.478515,1.1523438 0.478515,2.5195313 0,1.3378906 -0.478515,2.4999999 -0.478516,1.1523438 -1.445313,2.1191407 -0.957031,0.95703123 -2.11914,1.44531247 Q 73.347656,0.28320313 72,0.28320313 q -1.347656,0 -2.509766,-0.48828126 -1.162109,-0.48828124 -2.11914,-1.44531247 -0.966797,-0.9667969 -1.445313,-2.1191407 -0.478515,-1.1621093 -0.478515,-2.4999999 0,-1.3671875 0.478515,-2.5195313 0.478516,-1.1621094 1.445313,-2.1289065 0.957031,-0.957031 2.11914,-1.445312 z m 6.152344,3.6328122 -2.470703,2.4609376 2.460937,2.4609374 -1.171875,1.171875 L 72,-5.0976562 l -2.460938,2.4707031 -1.18164,-1.1816407 2.470703,-2.4609374 -2.460938,-2.4609376 1.171875,-1.171875 L 72,-7.4414062 74.460937,-9.9121094 Z"
     id="path563" /></g>
    <g
   aria-label="∸"
   id="text265"
   style="font-size:20px;line-height:0%;font-family:'Linux Libertine';text-align:center;text-anchor:middle;display:inline;fill:#111111;stroke-width:1.25"
   class="key"><path
     d="m 106.95508,-11.035156 h 2.06055 v 2.4804685 h -2.06055 z m -5.21485,3.9355466 h 12.51954 v 1.6601563 h -12.51954 z"
     id="path566" /></g>
</g>
<g
   transform="translate(561,62)"
   id="g275">
    <g
   aria-label="⌈"
   id="text269"
   style="font-size:20px;line-height:0%;font-family:'Linux Libertine';text-align:center;text-anchor:middle;display:inline;fill:#111111;stroke-width:1.25"
   class="key"><path
     d="m -2.1826172,-15.195313 h 4.140625 v 1.396485 H -0.38574219 V 2.6367188 H -2.1826172 Z"
     id="path569" /></g>
    <g
   aria-label="⋂"
   id="text271"
   style="font-size:20px;line-height:0%;font-family:'Linux Libertine';text-align:center;text-anchor:middle;display:inline;fill:#111111;stroke-width:1.25"
   class="key"><path
     d="m 36,-12.783203 q -2.138672,0 -3.642578,1.113281 -1.503906,1.103516 -1.503906,3.5644532 V 3.8378906 h -1.689454 v -12.1875 q 0,-3.1445316 2.167969,-4.5898436 2.177735,-1.445313 4.667969,-1.445313 2.490234,0 4.658203,1.445313 2.177734,1.445312 2.177734,4.5898436 v 12.1875 H 41.146484 V -8.1054688 q 0,-2.4414062 -1.49414,-3.5546872 Q 38.167969,-12.783203 36,-12.783203 Z"
     id="path572" /></g>
    <g
   aria-label="⌉"
   id="text273"
   style="font-size:20px;line-height:0%;font-family:'Linux Libertine';text-align:center;text-anchor:middle;display:inline;fill:#111111;stroke-width:1.25"
   class="key"><path
     d="M 74.182617,-15.195313 V 2.6367188 H 72.385742 V -13.798828 h -2.34375 v -1.396485 z"
     id="path575" /></g>
</g>
<g
   transform="translate(561,98)"
   id="g283">
    <g
   aria-label="⊆"
   id="text277"
   style="font-size:20px;line-height:0%;font-family:'Linux Libertine';text-align:center;text-anchor:middle;display:inline;fill:#111111;stroke-width:1.25"
   class="key"><path
     d="M -6.015625,-1.4648437 H 6.2597656 V 0 H -6.015625 Z M 6.2597656,-2.9296875 h -8.1152343 q -1.9628907,0 -3.3105469,-1.3574219 -1.3574219,-1.3574218 -1.3574219,-3.3105468 0,-1.9335938 1.3574219,-3.3105468 1.3476562,-1.357422 3.3007812,-1.357422 h 8.125 v 1.464844 h -8.125 q -1.3378906,0 -2.265625,0.9374997 -0.9277343,0.9375 -0.9277343,2.2656251 0,1.3476562 0.9277343,2.265625 0.9375,0.9375 2.265625,0.9375 h 8.125 z"
     id="path578" /></g>
    <g
   aria-label="⊷"
   id="text279"
   style="font-size:20px;line-height:0%;font-family:'Linux Libertine';text-align:center;text-anchor:middle;display:inline;fill:#111111;stroke-width:1.25"
   class="key"><path
     d="m 31.947266,-4.3164062 q -0.810547,0.8105468 -1.962891,0.8105468 -1.142578,0 -1.972656,-0.8203125 -0.830078,-0.8203125 -0.830078,-1.9824218 0,-1.171875 0.810546,-1.9726563 0.820313,-0.8007813 2.001954,-0.8007813 1.18164,0 1.972656,0.7910157 0.498047,0.4980469 0.683594,1.1523437 h 6.708984 q 0.195312,-0.6445312 0.693359,-1.1425781 0.820313,-0.8007813 2.001953,-0.8007813 1.181641,0 1.972657,0.7910157 0.791015,0.7910156 0.791015,1.9726562 0,1.1816407 -0.810547,2.0019532 -0.810546,0.8105468 -1.96289,0.8105468 -1.142578,0 -1.992188,-0.8300781 -0.507812,-0.5078125 -0.693359,-1.1621094 h -6.708984 q -0.195313,0.6640625 -0.703125,1.1816407 z m 9.140625,-1.0449219 q 0.390625,0.390625 0.947265,0.390625 0.556641,0 0.9375,-0.390625 0.390625,-0.390625 0.390625,-0.9472656 0,-0.5566407 -0.390625,-0.9375 -0.380859,-0.390625 -0.947265,-0.390625 -0.556641,0 -0.947266,0.390625 -0.380859,0.3808593 -0.380859,0.9375 0,0.546875 0.390625,0.9472656 z"
     id="path581" /></g>
    <g
   aria-label="⊇"
   id="text281"
   style="font-size:20px;line-height:0%;font-family:'Linux Libertine';text-align:center;text-anchor:middle;display:inline;fill:#111111;stroke-width:1.25"
   class="key"><path
     d="M 65.740234,-1.4648437 H 78.015625 V 0 H 65.740234 Z m 0,-1.4648438 v -1.4648437 h 8.125 q 1.328125,0 2.265625,-0.9375 0.927735,-0.9179688 0.927735,-2.265625 0,-1.3281251 -0.927735,-2.2656251 -0.927734,-0.9374997 -2.265625,-0.9374997 h -8.125 v -1.464844 h 8.125 q 1.953125,0 3.300782,1.357422 1.357421,1.376953 1.357421,3.3105468 0,1.953125 -1.357421,3.3105468 -1.347657,1.3574219 -3.310547,1.3574219 z"
     id="path584" /></g>
</g>
<g
   transform="translate(561,134)"
   id="g291">
    <g
   aria-label="⌊"
   id="text285"
   style="font-size:20px;line-height:0%;font-family:'Linux Libertine';text-align:center;text-anchor:middle;display:inline;fill:#111111;stroke-width:1.25"
   class="key"><path
     d="M -2.1826172,2.6367188 V -15.195313 h 1.79687501 V 1.2402344 H 1.9580078 v 1.3964844 z"
     id="path587" /></g>
    <g
   aria-label="⋃"
   id="text287"
   style="font-size:20px;line-height:0%;font-family:'Linux Libertine';text-align:center;text-anchor:middle;display:inline;fill:#111111;stroke-width:1.25"
   class="key"><path
     d="m 36,2.2363281 q 2.138672,0 3.642578,-1.1132812 1.503906,-1.10351565 1.503906,-3.5644532 V -14.384766 h 1.689453 v 12.1875004 q 0,3.14453123 -2.177734,4.5898437 Q 38.490234,3.8378906 36,3.8378906 q -2.490234,0 -4.667969,-1.4453125 -2.167969,-1.44531247 -2.167969,-4.5898437 V -14.384766 h 1.689454 V -2.4414063 Q 30.853516,0 32.337891,1.1132812 33.832031,2.2363281 36,2.2363281 Z"
     id="path590" /></g>
    <g
   aria-label="⌋"
   id="text289"
   style="font-size:20px;line-height:0%;font-family:'Linux Libertine';text-align:center;text-anchor:middle;display:inline;fill:#111111;stroke-width:1.25"
   class="key"><path
     d="M 74.182617,2.6367188 H 70.041992 V 1.2402344 h 2.34375 V -15.195313 h 1.796875 z"
     id="path593" /></g>
</g>
<g
   transform="translate(561,170)"
   id="g297">
    <g
   aria-label="□"
   id="text293"
   style="font-size:20px;line-height:0%;font-family:'Linux Libertine';text-align:center;text-anchor:middle;display:inline;fill:#111111;stroke-width:1.25"
   class="key"><path
     d="m 11.481445,1.3476562 h 13.03711 V -11.738281 H 11.481445 Z M 10.368164,2.4609375 V -12.851563 H 25.631836 V 2.4609375 Z"
     id="path596" /></g>
    <g
   aria-label="″"
   id="text295"
   style="font-size:20px;line-height:0%;font-family:'Linux Libertine';text-align:center;text-anchor:middle;display:inline;fill:#111111;stroke-width:1.25"
   class="key"><path
     d="m 74.799991,-14.28 h 1.8 l -3.22,5.16 h -1.16 z m -3.52,0 h 1.8 l -3.22,5.16 h -1.16 z"
     id="path599" /></g>
</g>

<g
   transform="translate(561,78)"
   id="g301">
    <g
   aria-label="∔"
   id="text299"
   style="font-size:20px;line-height:0%;font-family:'Linux Libertine';text-align:center;text-anchor:middle;display:inline;fill:#111111;stroke-width:1.25"
   class="key"><path
     d="m 108.82031,-11.5625 v 4.9511719 h 5.43946 v 1.6601562 h -5.43946 V 0 h -1.64062 v -4.9511719 h -5.43946 v -1.6601562 h 5.43946 V -11.5625 Z m -1.64062,-3.017578 h 1.64062 v 1.992187 h -1.64062 z"
     id="path602" /></g>
</g>
<g
   transform="translate(561,150)"
   id="g305">
    <g
   aria-label="⏎"
   id="text303"
   style="font-size:20px;line-height:0%;font-family:'Linux Libertine';text-align:center;text-anchor:middle;display:inline;fill:#111111;stroke-width:1.25"
   class="key"><path
     d="m 105.11914,-1.3085937 -4.96094,-4.9609375 4.96094,-4.9609378 v 2.6660159 h 5.53711 v -6.0156249 h 4.58984 l -0.01,10.6054686 h -10.11719 z m -0.97656,-6.2792969 v -1.2792969 l -2.59766,2.5976563 2.59766,2.5976562 v -1.2792969 h 10.11719 l 0.01,-8.6523441 h -2.63672 l -0.01,6.0156254 z"
     id="path605" /></g>
</g>

<g
   aria-label="◌̣"
   id="t1"
   style="font-size:20px;line-height:0%;font-family:'Gentium Plus Compact';text-align:center;text-anchor:middle;display:inline;fill:#111111"
   class="dead"><path
     d="m 20.000001,15.2 q 0.22,0 0.36,0.16 0.16,0.14 0.16,0.36 0,0.2 -0.16,0.36 -0.14,0.16 -0.36,0.16 -0.2,0 -0.36,-0.16 -0.16,-0.16 -0.16,-0.36 0,-0.22 0.16,-0.36 0.16,-0.16 0.36,-0.16 z m -1.68,0.36 q 0.22,0 0.36,0.16 0.16,0.14 0.16,0.36 0,0.2 -0.16,0.36 -0.14,0.16 -0.36,0.16 -0.2,0 -0.36,-0.16 -0.16,-0.16 -0.16,-0.36 0,-0.22 0.16,-0.36 0.16,-0.16 0.36,-0.16 z m 3.36,0 q 0.22,0 0.36,0.16 0.16,0.14 0.16,0.36 0,0.2 -0.16,0.36 -0.14,0.16 -0.36,0.16 -0.2,0 -0.36,-0.16 -0.16,-0.16 -0.16,-0.36 0,-0.22 0.16,-0.36 0.16,-0.16 0.36,-0.16 z m -5.36,1.46 q 0,-0.22 0.16,-0.36 0.16,-0.16 0.36,-0.16 0.22,0 0.36,0.16 0.16,0.14 0.16,0.36 0,0.2 -0.16,0.36 -0.14,0.16 -0.36,0.16 -0.2,0 -0.36,-0.16 -0.16,-0.16 -0.16,-0.36 z m 6.32,0 q 0,-0.22 0.16,-0.36 0.16,-0.16 0.36,-0.16 0.22,0 0.36,0.16 0.16,0.14 0.16,0.36 0,0.2 -0.16,0.36 -0.14,0.16 -0.36,0.16 -0.2,0 -0.36,-0.16 -0.16,-0.16 -0.16,-0.36 z m -7.26,1.48 q 0,-0.22 0.16,-0.36 0.16,-0.16 0.36,-0.16 0.22,0 0.36,0.16 0.16,0.14 0.16,0.36 0,0.2 -0.16,0.36 -0.14,0.16 -0.36,0.16 -0.2,0 -0.36,-0.16 -0.16,-0.16 -0.16,-0.36 z m 8.2,0 q 0,-0.22 0.16,-0.36 0.16,-0.16 0.36,-0.16 0.22,0 0.36,0.16 0.16,0.14 0.16,0.36 0,0.2 -0.16,0.36 -0.14,0.16 -0.36,0.16 -0.2,0 -0.36,-0.16 -0.16,-0.16 -0.16,-0.36 z m -8.56,1.68 q 0,-0.22 0.16,-0.36 0.16,-0.16 0.36,-0.16 0.22,0 0.36,0.16 0.16,0.14 0.16,0.36 0,0.2 -0.16,0.36 -0.14,0.16 -0.36,0.16 -0.2,0 -0.36,-0.16 -0.16,-0.16 -0.16,-0.36 z m 8.92,0 q 0,-0.22 0.16,-0.36 0.16,-0.16 0.36,-0.16 0.22,0 0.36,0.16 0.16,0.14 0.16,0.36 0,0.2 -0.16,0.36 -0.14,0.16 -0.36,0.16 -0.2,0 -0.36,-0.16 -0.16,-0.16 -0.16,-0.36 z m -8.56,1.68 q 0,-0.22 0.16,-0.36 0.16,-0.16 0.36,-0.16 0.22,0 0.36,0.16 0.16,0.14 0.16,0.36 0,0.2 -0.16,0.36 -0.14,0.16 -0.36,0.16 -0.2,0 -0.36,-0.16 -0.16,-0.16 -0.16,-0.36 z m 8.2,0 q 0,-0.22 0.16,-0.36 0.16,-0.16 0.36,-0.16 0.22,0 0.36,0.16 0.16,0.14 0.16,0.36 0,0.2 -0.16,0.36 -0.14,0.16 -0.36,0.16 -0.2,0 -0.36,-0.16 -0.16,-0.16 -0.16,-0.36 z m -7.26,1.48 q 0,-0.22 0.16,-0.36 0.16,-0.16 0.36,-0.16 0.22,0 0.36,0.16 0.16,0.14 0.16,0.36 0,0.2 -0.16,0.36 -0.14,0.16 -0.36,0.16 -0.2,0 -0.36,-0.16 -0.16,-0.16 -0.16,-0.36 z m 6.32,0 q 0,-0.22 0.16,-0.36 0.16,-0.16 0.36,-0.16 0.22,0 0.36,0.16 0.16,0.14 0.16,0.36 0,0.2 -0.16,0.36 -0.14,0.16 -0.36,0.16 -0.2,0 -0.36,-0.16 -0.16,-0.16 -0.16,-0.36 z m -4.32,0.42 q 0.22,0 0.36,0.16 0.16,0.14 0.16,0.36 0,0.2 -0.16,0.36 -0.14,0.16 -0.36,0.16 -0.2,0 -0.36,-0.16 -0.16,-0.16 -0.16,-0.36 0,-0.22 0.16,-0.36 0.16,-0.16 0.36,-0.16 z m 3.36,0 q 0.22,0 0.36,0.16 0.16,0.14 0.16,0.36 0,0.2 -0.16,0.36 -0.14,0.16 -0.36,0.16 -0.2,0 -0.36,-0.16 -0.16,-0.16 -0.16,-0.36 0,-0.22 0.16,-0.36 0.16,-0.16 0.36,-0.16 z m -1.68,0.36 q 0.22,0 0.36,0.16 0.16,0.14 0.16,0.36 0,0.2 -0.16,0.36 -0.14,0.16 -0.36,0.16 -0.2,0 -0.36,-0.16 -0.16,-0.16 -0.16,-0.36 0,-0.22 0.16,-0.36 0.16,-0.16 0.36,-0.16 z"
     id="path608" /><path
     d="m 19.979988,28.680004 q -0.42,0 -0.72,-0.28 -0.32,-0.28 -0.32,-0.84 0,-0.58 0.32,-0.86 0.3,-0.26 0.72,-0.26 0.42,0 0.74,0.26 0.3,0.28 0.3,0.86 0,0.56 -0.3,0.84 -0.32,0.28 -0.74,0.28 z"
     id="path610" /></g>
<g
   aria-label="◌̄"
   id="t2"
   style="font-size:20px;line-height:0%;font-family:'Gentium Plus Compact';text-align:center;text-anchor:middle;display:inline;fill:#111111"
   class="dead"><path
     d="m 452,15.2 q 0.22,0 0.36,0.16 0.16,0.14 0.16,0.36 0,0.2 -0.16,0.36 -0.14,0.16 -0.36,0.16 -0.2,0 -0.36,-0.16 -0.16,-0.16 -0.16,-0.36 0,-0.22 0.16,-0.36 0.16,-0.16 0.36,-0.16 z m -1.68,0.36 q 0.22,0 0.36,0.16 0.16,0.14 0.16,0.36 0,0.2 -0.16,0.36 -0.14,0.16 -0.36,0.16 -0.2,0 -0.36,-0.16 -0.16,-0.16 -0.16,-0.36 0,-0.22 0.16,-0.36 0.16,-0.16 0.36,-0.16 z m 3.36,0 q 0.22,0 0.36,0.16 0.16,0.14 0.16,0.36 0,0.2 -0.16,0.36 -0.14,0.16 -0.36,0.16 -0.2,0 -0.36,-0.16 -0.16,-0.16 -0.16,-0.36 0,-0.22 0.16,-0.36 0.16,-0.16 0.36,-0.16 z m -5.36,1.46 q 0,-0.22 0.16,-0.36 0.16,-0.16 0.36,-0.16 0.22,0 0.36,0.16 0.16,0.14 0.16,0.36 0,0.2 -0.16,0.36 -0.14,0.16 -0.36,0.16 -0.2,0 -0.36,-0.16 -0.16,-0.16 -0.16,-0.36 z m 6.32,0 q 0,-0.22 0.16,-0.36 0.16,-0.16 0.36,-0.16 0.22,0 0.36,0.16 0.16,0.14 0.16,0.36 0,0.2 -0.16,0.36 -0.14,0.16 -0.36,0.16 -0.2,0 -0.36,-0.16 -0.16,-0.16 -0.16,-0.36 z m -7.26,1.48 q 0,-0.22 0.16,-0.36 0.16,-0.16 0.36,-0.16 0.22,0 0.36,0.16 0.16,0.14 0.16,0.36 0,0.2 -0.16,0.36 -0.14,0.16 -0.36,0.16 -0.2,0 -0.36,-0.16 -0.16,-0.16 -0.16,-0.36 z m 8.2,0 q 0,-0.22 0.16,-0.36 0.16,-0.16 0.36,-0.16 0.22,0 0.36,0.16 0.16,0.14 0.16,0.36 0,0.2 -0.16,0.36 -0.14,0.16 -0.36,0.16 -0.2,0 -0.36,-0.16 -0.16,-0.16 -0.16,-0.36 z m -8.56,1.68 q 0,-0.22 0.16,-0.36 0.16,-0.16 0.36,-0.16 0.22,0 0.36,0.16 0.16,0.14 0.16,0.36 0,0.2 -0.16,0.36 -0.14,0.16 -0.36,0.16 -0.2,0 -0.36,-0.16 -0.16,-0.16 -0.16,-0.36 z m 8.92,0 q 0,-0.22 0.16,-0.36 0.16,-0.16 0.36,-0.16 0.22,0 0.36,0.16 0.16,0.14 0.16,0.36 0,0.2 -0.16,0.36 -0.14,0.16 -0.36,0.16 -0.2,0 -0.36,-0.16 -0.16,-0.16 -0.16,-0.36 z m -8.56,1.68 q 0,-0.22 0.16,-0.36 0.16,-0.16 0.36,-0.16 0.22,0 0.36,0.16 0.16,0.14 0.16,0.36 0,0.2 -0.16,0.36 -0.14,0.16 -0.36,0.16 -0.2,0 -0.36,-0.16 -0.16,-0.16 -0.16,-0.36 z m 8.2,0 q 0,-0.22 0.16,-0.36 0.16,-0.16 0.36,-0.16 0.22,0 0.36,0.16 0.16,0.14 0.16,0.36 0,0.2 -0.16,0.36 -0.14,0.16 -0.36,0.16 -0.2,0 -0.36,-0.16 -0.16,-0.16 -0.16,-0.36 z m -7.26,1.48 q 0,-0.22 0.16,-0.36 0.16,-0.16 0.36,-0.16 0.22,0 0.36,0.16 0.16,0.14 0.16,0.36 0,0.2 -0.16,0.36 -0.14,0.16 -0.36,0.16 -0.2,0 -0.36,-0.16 -0.16,-0.16 -0.16,-0.36 z m 6.32,0 q 0,-0.22 0.16,-0.36 0.16,-0.16 0.36,-0.16 0.22,0 0.36,0.16 0.16,0.14 0.16,0.36 0,0.2 -0.16,0.36 -0.14,0.16 -0.36,0.16 -0.2,0 -0.36,-0.16 -0.16,-0.16 -0.16,-0.36 z m -4.32,0.42 q 0.22,0 0.36,0.16 0.16,0.14 0.16,0.36 0,0.2 -0.16,0.36 -0.14,0.16 -0.36,0.16 -0.2,0 -0.36,-0.16 -0.16,-0.16 -0.16,-0.36 0,-0.22 0.16,-0.36 0.16,-0.16 0.36,-0.16 z m 3.36,0 q 0.22,0 0.36,0.16 0.16,0.14 0.16,0.36 0,0.2 -0.16,0.36 -0.14,0.16 -0.36,0.16 -0.2,0 -0.36,-0.16 -0.16,-0.16 -0.16,-0.36 0,-0.22 0.16,-0.36 0.16,-0.16 0.36,-0.16 z M 452,24.12 q 0.22,0 0.36,0.16 0.16,0.14 0.16,0.36 0,0.2 -0.16,0.36 -0.14,0.16 -0.36,0.16 -0.2,0 -0.36,-0.16 -0.16,-0.16 -0.16,-0.36 0,-0.22 0.16,-0.36 0.16,-0.16 0.36,-0.16 z"
     id="path613" /><path
     d="m 454.95999,12.380006 v 1.42 h -5.94 v -1.42 z"
     id="path615" /></g>

<g
   aria-label="◌̆"
   id="t3"
   style="font-size:20px;line-height:0%;font-family:'Gentium Plus Compact';text-align:center;text-anchor:middle;display:inline;fill:#111111"
   class="dead"><path
     d="m 480,87.2 q 0.22,0 0.36,0.16 0.16,0.14 0.16,0.36 0,0.2 -0.16,0.36 -0.14,0.16 -0.36,0.16 -0.2,0 -0.36,-0.16 -0.16,-0.16 -0.16,-0.36 0,-0.22 0.16,-0.36 0.16,-0.16 0.36,-0.16 z m -1.68,0.36 q 0.22,0 0.36,0.16 0.16,0.14 0.16,0.36 0,0.2 -0.16,0.36 -0.14,0.16 -0.36,0.16 -0.2,0 -0.36,-0.16 -0.16,-0.16 -0.16,-0.36 0,-0.22 0.16,-0.36 0.16,-0.16 0.36,-0.16 z m 3.36,0 q 0.22,0 0.36,0.16 0.16,0.14 0.16,0.36 0,0.2 -0.16,0.36 -0.14,0.16 -0.36,0.16 -0.2,0 -0.36,-0.16 -0.16,-0.16 -0.16,-0.36 0,-0.22 0.16,-0.36 0.16,-0.16 0.36,-0.16 z m -5.36,1.46 q 0,-0.22 0.16,-0.36 0.16,-0.16 0.36,-0.16 0.22,0 0.36,0.16 0.16,0.14 0.16,0.36 0,0.2 -0.16,0.36 -0.14,0.16 -0.36,0.16 -0.2,0 -0.36,-0.16 -0.16,-0.16 -0.16,-0.36 z m 6.32,0 q 0,-0.22 0.16,-0.36 0.16,-0.16 0.36,-0.16 0.22,0 0.36,0.16 0.16,0.14 0.16,0.36 0,0.2 -0.16,0.36 -0.14,0.16 -0.36,0.16 -0.2,0 -0.36,-0.16 -0.16,-0.16 -0.16,-0.36 z m -7.26,1.48 q 0,-0.22 0.16,-0.36 0.16,-0.16 0.36,-0.16 0.22,0 0.36,0.16 0.16,0.14 0.16,0.36 0,0.2 -0.16,0.36 -0.14,0.16 -0.36,0.16 -0.2,0 -0.36,-0.16 -0.16,-0.16 -0.16,-0.36 z m 8.2,0 q 0,-0.22 0.16,-0.36 0.16,-0.16 0.36,-0.16 0.22,0 0.36,0.16 0.16,0.14 0.16,0.36 0,0.2 -0.16,0.36 -0.14,0.16 -0.36,0.16 -0.2,0 -0.36,-0.16 -0.16,-0.16 -0.16,-0.36 z m -8.56,1.68 q 0,-0.22 0.16,-0.36 0.16,-0.16 0.36,-0.16 0.22,0 0.36,0.16 0.16,0.14 0.16,0.36 0,0.2 -0.16,0.36 -0.14,0.16 -0.36,0.16 -0.2,0 -0.36,-0.16 -0.16,-0.16 -0.16,-0.36 z m 8.92,0 q 0,-0.22 0.16,-0.36 0.16,-0.16 0.36,-0.16 0.22,0 0.36,0.16 0.16,0.14 0.16,0.36 0,0.2 -0.16,0.36 -0.14,0.16 -0.36,0.16 -0.2,0 -0.36,-0.16 -0.16,-0.16 -0.16,-0.36 z m -8.56,1.68 q 0,-0.22 0.16,-0.36 0.16,-0.16 0.36,-0.16 0.22,0 0.36,0.16 0.16,0.14 0.16,0.36 0,0.2 -0.16,0.36 -0.14,0.16 -0.36,0.16 -0.2,0 -0.36,-0.16 -0.16,-0.16 -0.16,-0.36 z m 8.2,0 q 0,-0.22 0.16,-0.36 0.16,-0.16 0.36,-0.16 0.22,0 0.36,0.16 0.16,0.14 0.16,0.36 0,0.2 -0.16,0.36 -0.14,0.16 -0.36,0.16 -0.2,0 -0.36,-0.16 -0.16,-0.16 -0.16,-0.36 z m -7.26,1.48 q 0,-0.22 0.16,-0.36 0.16,-0.16 0.36,-0.16 0.22,0 0.36,0.16 0.16,0.14 0.16,0.36 0,0.2 -0.16,0.36 -0.14,0.16 -0.36,0.16 -0.2,0 -0.36,-0.16 -0.16,-0.16 -0.16,-0.36 z m 6.32,0 q 0,-0.22 0.16,-0.36 0.16,-0.16 0.36,-0.16 0.22,0 0.36,0.16 0.16,0.14 0.16,0.36 0,0.2 -0.16,0.36 -0.14,0.16 -0.36,0.16 -0.2,0 -0.36,-0.16 -0.16,-0.16 -0.16,-0.36 z m -4.32,0.42 q 0.22,0 0.36,0.16 0.16,0.14 0.16,0.36 0,0.2 -0.16,0.36 -0.14,0.16 -0.36,0.16 -0.2,0 -0.36,-0.16 -0.16,-0.16 -0.16,-0.36 0,-0.22 0.16,-0.36 0.16,-0.16 0.36,-0.16 z m 3.36,0 q 0.22,0 0.36,0.16 0.16,0.14 0.16,0.36 0,0.2 -0.16,0.36 -0.14,0.16 -0.36,0.16 -0.2,0 -0.36,-0.16 -0.16,-0.16 -0.16,-0.36 0,-0.22 0.16,-0.36 0.16,-0.16 0.36,-0.16 z M 480,96.12 q 0.22,0 0.36,0.16 0.16,0.14 0.16,0.36 0,0.2 -0.16,0.36 -0.14,0.16 -0.36,0.16 -0.2,0 -0.36,-0.16 -0.16,-0.16 -0.16,-0.36 0,-0.22 0.16,-0.36 0.16,-0.16 0.36,-0.16 z"
     id="path618" /><path
     d="m 483.09999,83.120006 q -0.1,1.2 -0.92,1.94 -0.8,0.74 -2.24,0.74 -1.48,0 -2.22,-0.72 -0.76,-0.74 -0.84,-1.96 h 1.08 q 0.1,0.82 0.6,1.04 0.5,0.22 1.42,0.22 0.78,0 1.34,-0.24 0.58,-0.24 0.68,-1.02 z"
     id="path620" /></g>
<g
   aria-label="∘"
   id="text310"
   style="font-size:20px;line-height:0%;font-family:'Linux Libertine';text-align:center;text-anchor:middle;display:inline;fill:#111111;stroke-width:1.25"
   class="key"><path
     d="m 470,53.865234 q -0.78125,0 -1.31836,0.546875 -0.53711,0.53711 -0.53711,1.31836 0,0.771484 0.53711,1.308593 0.53711,0.527344 1.31836,0.527344 0.78125,0 1.31836,-0.527344 0.53711,-0.537109 0.53711,-1.308593 0,-0.771485 -0.54688,-1.31836 Q 470.77148,53.865234 470,53.865234 Z m 0,-1.259765 q 0.625,0 1.20117,0.24414 0.57617,0.234375 0.9961,0.683594 0.44921,0.439453 0.67382,0.996094 0.22461,0.55664 0.22461,1.201172 0,1.289062 -0.9082,2.1875 -0.89844,0.888672 -2.20703,0.888672 -1.31836,0 -2.19727,-0.878907 -0.8789,-0.878906 -0.8789,-2.197265 0,-1.308594 0.89843,-2.216797 0.89844,-0.908203 2.19727,-0.908203 z"
     id="path623" /></g>

</svg>
