<?xml version="1.0" encoding="UTF-8" standalone="no"?>
<svg
   version="1.1"
   id="Ebene_1"
   height="183"
   width="535"
   viewBox="0 0 535 183"
   enable-background="new 0 0 535 183"
   xml:space="preserve"
   inkscape:version="0.48.5 r10040"
   sodipodi:docname="noted-5-tkl.svg"
   inkscape:export-xdpi="90"
   inkscape:export-ydpi="90"
   xmlns:inkscape="http://www.inkscape.org/namespaces/inkscape"
   xmlns:sodipodi="http://sodipodi.sourceforge.net/DTD/sodipodi-0.dtd"
   xmlns:xlink="http://www.w3.org/1999/xlink"
   xmlns="http://www.w3.org/2000/svg"
   xmlns:svg="http://www.w3.org/2000/svg"
   xmlns:rdf="http://www.w3.org/1999/02/22-rdf-syntax-ns#"
   xmlns:cc="http://creativecommons.org/ns#"
   xmlns:dc="http://purl.org/dc/elements/1.1/">&#10;&#10;  <metadata
   id="metadata135">&#10;    <rdf:RDF>&#10;      <cc:Work
   rdf:about="">&#10;        <dc:format>image/svg+xml</dc:format>&#10;        <dc:type
   rdf:resource="http://purl.org/dc/dcmitype/StillImage" />&#10;        <dc:title />&#10;      </cc:Work>&#10;    </rdf:RDF>&#10;  </metadata>&#10;&#10;<defs
   id="defs">&#10;<style
   type="text/css"
   id="style46661">&#10;text.mod, text.key, text.dead {&#10;	fill:#111;&#10;	fill-opacity:1;&#10;    stroke:none;&#10;    font-style:normal;&#10;    font-variant:normal;&#10;    font-weight:normal;&#10;    font-stretch:normal;&#10;    display:inline;&#10;    font-family:DejaVu Sans;&#10;    writing-mode:lr-tb;&#10;}&#10;&#10;text.key {&#10;    font-family:DejaVu Sans;&#10;}&#10;&#10;text.dead {&#10;    font-family: Gentium Plus Compact;&#10;}&#10;&#10;text.mod {&#10;    text-align:start;&#10;    text-anchor:start;&#10;}&#10;&#10;text.space, text.dead, text.center, text.key {&#10;    text-align:center;&#10;    text-anchor:middle;&#10;}&#10;&#10;text.key { font-size:18px; }&#10;text.dead { font-size:18px; }&#10;text.mod { font-size:8px; }&#10;text.big { font-size:12px; }&#10;&#10;.key {&#10;stroke-width:0.75;&#10;}&#10;&#10;.grey { fill:#949494; stroke:#696969; }&#10;.grey { fill:#9f9f9f; stroke:#747474; }&#10;&#10;.numpad { fill:#afaa9f; stroke:#747474; }&#10;&#10;/* bootstrap colors */&#10;.l5, .r5 { fill:#93CCEA; }&#10;.l4, .r4 { fill:#7abeb3; }&#10;.l3, .r3 { fill:#63b280; }&#10;.l2, .r2 { fill:#4aa44a; }&#10;&#10;/* btn bg hover, unused */&#10;.l2, .r2 { stroke:#3071a9; }&#10;.l3, .r3 { stroke:#449d44; }&#10;.l4, .r4 { stroke:#c9302c; }&#10;.l5, .r5 { stroke:#ec971f; }&#10;&#10;/* btn border hover */&#10;.l2, .r2 { stroke:#204d74; }&#10;.l3, .r3 { stroke:#204d74; }&#10;.l4, .r4 { stroke:#204d74; }&#10;.l5, .r5 { stroke:#204d74; }&#10;&#10;<!-- text.nubkey { fill:#eee; } -->&#10;&#10;.pressed {&#10;	<!--opacity:0.5;-->&#10;	fill:#777;&#10;}&#10;    </style>&#10;&#10;    <g
   id="basekey">&#10;        <rect
   width="32"
   height="32"
   rx="4"
   class="key"
   id="rect1" />&#10;	<!--rect width="20" height="20" x="6" y="6" /-->&#10;        <!--rect width="2" height="2" fill="#000" x="15" y="15" /-->&#10;    </g>&#10;&#10;    </defs>&#10;<sodipodi:namedview
   pagecolor="#ffffff"
   bordercolor="#666666"
   borderopacity="1"
   objecttolerance="10"
   gridtolerance="10"
   guidetolerance="10"
   inkscape:pageopacity="0"
   inkscape:pageshadow="2"
   inkscape:window-width="1614"
   inkscape:window-height="969"
   id="base"
   showgrid="false"
   inkscape:zoom="0.70961538"
   inkscape:cx="685.32105"
   inkscape:cy="241.15395"
   inkscape:window-x="78"
   inkscape:window-y="71"
   inkscape:window-maximized="0"
   inkscape:current-layer="Ebene_1"
   inkscape:showpageshadow="2"
   inkscape:pagecheckerboard="0"
   inkscape:deskcolor="#d1d1d1" />&#10;&#10;<g
   transform="translate(3.5,3.5)"
   id="g61">&#10;<use
   xlink:href="#basekey"
   y="0"
   x="0"
   class="l5"
   id="use1" />&#10;<use
   xlink:href="#basekey"
   y="0"
   x="36"
   class="l5"
   id="use2" />&#10;<use
   xlink:href="#basekey"
   y="0"
   x="72"
   class="l5"
   id="use3" />&#10;<use
   xlink:href="#basekey"
   y="0"
   x="108"
   class="l4"
   id="use4" />&#10;<use
   xlink:href="#basekey"
   y="0"
   x="144"
   class="l3"
   id="use5" />&#10;<use
   xlink:href="#basekey"
   y="0"
   x="180"
   class="l2"
   id="use6" />&#10;<use
   xlink:href="#basekey"
   y="0"
   x="216"
   class="l2"
   id="use7" />&#10;&#10;<use
   xlink:href="#basekey"
   y="0"
   x="252"
   class="r2"
   id="use8" />&#10;<use
   xlink:href="#basekey"
   y="0"
   x="288"
   class="r2"
   id="use9" />&#10;<use
   xlink:href="#basekey"
   y="0"
   x="324"
   class="r3"
   id="use10" />&#10;<use
   xlink:href="#basekey"
   y="0"
   x="360"
   class="r4"
   id="use11" />&#10;<use
   xlink:href="#basekey"
   y="0"
   x="396"
   class="r5"
   id="use12" />&#10;<use
   xlink:href="#basekey"
   y="0"
   x="432"
   class="r5"
   id="use13" />&#10;&#10;&#10;<use
   xlink:href="#basekey"
   y="36"
   x="54"
   class="l5"
   id="use14" />&#10;<use
   xlink:href="#basekey"
   y="36"
   x="90"
   class="l4"
   id="use15" />&#10;<use
   xlink:href="#basekey"
   y="36"
   x="126"
   class="l3"
   id="use16" />&#10;<use
   xlink:href="#basekey"
   y="36"
   x="162"
   class="l2"
   id="use17" />&#10;<use
   xlink:href="#basekey"
   y="36"
   x="198"
   class="l2"
   id="use18" />&#10;&#10;<use
   xlink:href="#basekey"
   y="36"
   x="234"
   class="r2"
   id="use19" />&#10;<use
   xlink:href="#basekey"
   y="36"
   x="270"
   class="r2"
   id="use20" />&#10;<use
   xlink:href="#basekey"
   y="36"
   x="306"
   class="r3"
   id="use21" />&#10;<use
   xlink:href="#basekey"
   y="36"
   x="342"
   class="r4"
   id="use22" />&#10;<use
   xlink:href="#basekey"
   y="36"
   x="378"
   class="r5"
   id="use23" />&#10;<use
   xlink:href="#basekey"
   y="36"
   x="414"
   class="r5"
   id="use24" />&#10;<use
   xlink:href="#basekey"
   y="36"
   x="450"
   class="r5"
   id="use25" />&#10;&#10;&#10;<use
   xlink:href="#basekey"
   y="72"
   x="64"
   class="l5"
   id="use26" />&#10;<use
   xlink:href="#basekey"
   y="72"
   x="100"
   class="l4"
   id="use27" />&#10;<use
   xlink:href="#basekey"
   y="72"
   x="136"
   class="l3"
   id="use28" />&#10;<use
   xlink:href="#basekey"
   y="72"
   x="172"
   class="l2"
   id="use29" />&#10;<use
   xlink:href="#basekey"
   y="72"
   x="208"
   class="l2"
   id="use30" />&#10;&#10;<use
   xlink:href="#basekey"
   y="72"
   x="244"
   class="r2"
   id="use31" />&#10;<use
   xlink:href="#basekey"
   y="72"
   x="280"
   class="r2"
   id="use32" />&#10;<use
   xlink:href="#basekey"
   y="72"
   x="316"
   class="r3"
   id="use33" />&#10;<use
   xlink:href="#basekey"
   y="72"
   x="352"
   class="r4"
   id="use34" />&#10;<use
   xlink:href="#basekey"
   y="72"
   x="388"
   class="r5"
   id="use35" />&#10;&#10;    <use
   xlink:href="#basekey"
   y="72"
   x="460"
   class="r5"
   id="use36" />&#10;&#10;&#10;&#10;<use
   xlink:href="#basekey"
   y="108"
   x="82"
   class="l5"
   id="use37" />&#10;<use
   xlink:href="#basekey"
   y="108"
   x="118"
   class="l4"
   id="use38" />&#10;<use
   xlink:href="#basekey"
   y="108"
   x="154"
   class="l3"
   id="use39" />&#10;<use
   xlink:href="#basekey"
   y="108"
   x="190"
   class="l2"
   id="use40" />&#10;<use
   xlink:href="#basekey"
   y="108"
   x="226"
   class="l2"
   id="use41" />&#10;&#10;<use
   xlink:href="#basekey"
   y="108"
   x="262"
   class="r2"
   id="use42" />&#10;<use
   xlink:href="#basekey"
   y="108"
   x="298"
   class="r2"
   id="use43" />&#10;<use
   xlink:href="#basekey"
   y="108"
   x="334"
   class="r3"
   id="use44" />&#10;<use
   xlink:href="#basekey"
   y="108"
   x="370"
   class="r4"
   id="use45" />&#10;<use
   xlink:href="#basekey"
   y="108"
   x="406"
   class="r5"
   id="use46" />&#10;&#10;&#10;<rect
   id="backspace"
   y="0"
   x="468"
   width="60"
   height="32"
   rx="4"
   class="key grey" />&#10;&#10;<rect
   id="tab"
   x="0"
   y="36"
   width="50"
   height="32"
   rx="4"
   class="key grey" />&#10;&#10;<rect
   id="m3l"
   x="0"
   y="72"
   width="60"
   height="32"
   rx="4"
   class="key grey pressed" />&#10;&#10;<use
   id="m3r"
   xlink:href="#basekey"
   x="424"
   y="72"
   class="key grey pressed" />&#10;&#10;&#10;<rect
   id="shiftl"
   x="0"
   y="108"
   width="40"
   height="32"
   rx="4"
   class="key grey pressed" />&#10;<rect
   id="m4l"
   x="44"
   y="108"
   width="34"
   height="32"
   rx="4"
   class="key grey" />&#10;<rect
   id="shiftr"
   x="442"
   y="108"
   width="86"
   height="32"
   rx="4"
   class="key grey pressed" />&#10;&#10;<rect
   id="ctrll"
   x="0"
   y="144"
   width="50"
   height="32"
   rx="4"
   class="key grey" />&#10;<rect
   id="altl"
   x="124"
   y="144"
   width="48"
   height="32"
   rx="4"
   class="key grey" />&#10;<rect
   id="space"
   x="176"
   y="144"
   width="168"
   height="32"
   rx="4"
   class="key grey" />&#10;<rect
   id="m4r"
   x="348"
   y="144"
   width="48"
   height="32"
   rx="4"
   class="key grey" />&#10;<rect
   id="ctrlr"
   x="478"
   y="144"
   width="50"
   height="32"
   rx="4"
   class="key grey" />&#10;&#10;<use
   xlink:href="#basekey"
   y="0"
   x="542"
   class="key numpad"
   id="use47" />&#10;<use
   xlink:href="#basekey"
   y="0"
   x="578"
   class="key numpad"
   id="use48" />&#10;<use
   xlink:href="#basekey"
   y="0"
   x="614"
   class="key numpad"
   id="use49" />&#10;<use
   xlink:href="#basekey"
   y="0"
   x="650"
   class="key numpad"
   id="use50" />&#10;&#10;<use
   xlink:href="#basekey"
   y="36"
   x="542"
   class="key numpad"
   id="use51" />&#10;<use
   xlink:href="#basekey"
   y="36"
   x="578"
   class="key numpad"
   id="use52" />&#10;<use
   xlink:href="#basekey"
   y="36"
   x="614"
   class="key numpad"
   id="use53" />&#10;<rect
   id="kpplus"
   x="650"
   y="36"
   width="32"
   height="68"
   rx="4"
   class="key numpad" />&#10;&#10;<use
   xlink:href="#basekey"
   y="72"
   x="542"
   class="key numpad"
   id="use54" />&#10;<use
   xlink:href="#basekey"
   y="72"
   x="578"
   class="key numpad"
   id="use55" />&#10;<use
   xlink:href="#basekey"
   y="72"
   x="614"
   class="key numpad"
   id="use56" />&#10;&#10;<use
   xlink:href="#basekey"
   y="108"
   x="542"
   class="key numpad"
   id="use57" />&#10;<use
   xlink:href="#basekey"
   y="108"
   x="578"
   class="key numpad"
   id="use58" />&#10;<use
   xlink:href="#basekey"
   y="108"
   x="614"
   class="key numpad"
   id="use59" />&#10;<rect
   id="kppenter"
   x="650"
   y="108"
   width="32"
   height="68"
   rx="4"
   class="key numpad" />&#10;&#10;<rect
   id="kp0"
   x="542"
   y="144"
   width="68"
   height="32"
   rx="4"
   class="key numpad" />&#10;<use
   xlink:href="#basekey"
   y="144"
   x="614"
   class="key numpad"
   id="use60" />&#10;&#10;<path
   fill-rule="evenodd"
   clip-rule="evenodd"
   d="      M 10,32      l -6,0 a 4,4 0 0 1 -4,-4      l 0,-24 a 4,4 0 0 1 4,-4      l 34,0 a 4,4 0 0 1 4,4      l 0,60 a 4,4 0 0 1 -4,4      l -24,0 a 4,4 0 0 1 -4,-4      z"
   transform="translate(486,36)"
   id="return"
   class="key grey" />&#10;&#10;<rect
   y="101"
   x="181"
   width="14"
   height="1"
   rx="1"
   id="nub"
   style="fill:#111;" />&#10;<use
   y="0"
   x="108"
   xlink:href="#nub"
   id="use61" />&#10;</g>&#10;&#10;<g
   transform="translate(-0.5,-0.5)"
   id="g62">&#10;<path
   d="m 10.785156,90.167969 h 1.175782 l 1.488281,3.96875 1.496094,-3.96875 h 1.175781 V 96 h -0.769531 v -5.121094 l -1.503907,4 h -0.792968 l -1.503907,-4 V 96 h -0.765625 z m 8.566406,1.960937 q -0.578125,0 -0.914062,0.453125 -0.335938,0.449219 -0.335938,1.234375 0,0.785156 0.332032,1.238281 0.335937,0.449219 0.917968,0.449219 0.574219,0 0.910157,-0.453125 0.335937,-0.453125 0.335937,-1.234375 0,-0.777344 -0.335937,-1.230469 -0.335938,-0.457031 -0.910157,-0.457031 z m 0,-0.609375 q 0.9375,0 1.472657,0.609375 0.535156,0.609375 0.535156,1.6875 0,1.074219 -0.535156,1.6875 -0.535157,0.609375 -1.472657,0.609375 -0.941406,0 -1.476562,-0.609375 -0.53125,-0.613281 -0.53125,-1.6875 0,-1.078125 0.53125,-1.6875 0.535156,-0.609375 1.476562,-0.609375 z m 6.078125,0.769531 v -2.367187 h 0.71875 V 96 h -0.71875 v -0.65625 q -0.226562,0.390625 -0.574218,0.582031 -0.34375,0.1875 -0.828125,0.1875 -0.792969,0 -1.292969,-0.632812 -0.496094,-0.632813 -0.496094,-1.664063 0,-1.03125 0.496094,-1.664062 0.5,-0.632813 1.292969,-0.632813 0.484375,0 0.828125,0.191406 0.347656,0.1875 0.574218,0.578125 z m -2.449218,1.527344 q 0,0.792969 0.324218,1.246094 0.328125,0.449219 0.898438,0.449219 0.570312,0 0.898437,-0.449219 0.328125,-0.453125 0.328125,-1.246094 0,-0.792969 -0.328125,-1.242187 -0.328125,-0.453125 -0.898437,-0.453125 -0.570313,0 -0.898438,0.453125 -0.324218,0.449218 -0.324218,1.242187 z m 7.140625,-0.960937 q 0.566406,0.121093 0.882812,0.503906 0.320313,0.382812 0.320313,0.945312 0,0.863282 -0.59375,1.335938 -0.59375,0.472656 -1.6875,0.472656 -0.367188,0 -0.757813,-0.07422 -0.386719,-0.07031 -0.800781,-0.214843 V 95.0625 q 0.328125,0.191406 0.71875,0.289062 0.390625,0.09766 0.816406,0.09766 0.742188,0 1.128906,-0.292969 0.390625,-0.292969 0.390625,-0.851563 0,-0.515625 -0.363281,-0.804687 -0.359375,-0.292969 -1.003906,-0.292969 h -0.679688 v -0.648437 h 0.710938 q 0.582031,0 0.890625,-0.230469 0.308594,-0.234375 0.308594,-0.671875 0,-0.449219 -0.320313,-0.6875 -0.316406,-0.242188 -0.910156,-0.242188 -0.324219,0 -0.695313,0.07031 -0.371093,0.07031 -0.816406,0.21875 V 90.3125 Q 28.109375,90.1875 28.5,90.125 q 0.394531,-0.0625 0.742187,-0.0625 0.898438,0 1.421875,0.410156 0.523438,0.40625 0.523438,1.101563 0,0.484375 -0.277344,0.820312 -0.277344,0.332031 -0.789062,0.460938 z"
   id="m3ltxt"
   style="font-size:8px;line-height:0%;font-family:'DejaVu Sans';fill:#111111"
   class="mod"
   aria-label="Mod3" />&#10;<path
   d="m 16.585937,126.34375 -1.558593,-1.55859 -1.558594,1.55859 h 0.767578 v 6.07031 h 1.582031 v -6.07031 z m -4.535156,0.58594 2.976563,-2.97656 2.976562,2.97656 H 16.404297 V 133 h -2.753906 v -6.07031 z"
   id="shiftltxt"
   style="font-size:12px;line-height:0%;font-family:'DejaVu Sans';fill:#111111"
   class="mod big"
   aria-label="⇧" />&#10;<path
   d="m 14.28125,162.35937 v 0.76954 q -0.449219,-0.21485 -0.847656,-0.32032 -0.398438,-0.10547 -0.769531,-0.10547 -0.644532,0 -0.996094,0.25 -0.347656,0.25 -0.347656,0.71094 0,0.38672 0.230468,0.58594 0.234375,0.19531 0.882813,0.31641 l 0.476562,0.0977 q 0.882813,0.16797 1.300782,0.59375 0.421875,0.42188 0.421875,1.13281 0,0.84766 -0.570313,1.28516 -0.566406,0.4375 -1.664062,0.4375 -0.414063,0 -0.882813,-0.0937 -0.464844,-0.0937 -0.964844,-0.27734 v -0.8125 q 0.480469,0.26953 0.941407,0.40625 0.460937,0.13672 0.90625,0.13672 0.675781,0 1.042968,-0.26563 0.367188,-0.26562 0.367188,-0.75781 0,-0.42969 -0.265625,-0.67188 -0.261719,-0.24218 -0.863281,-0.36328 l -0.480469,-0.0937 q -0.882813,-0.17578 -1.277344,-0.55078 -0.394531,-0.375 -0.394531,-1.04297 0,-0.77344 0.542969,-1.21875 0.546875,-0.44531 1.503906,-0.44531 0.410156,0 0.835937,0.0742 0.425782,0.0742 0.871094,0.22265 z m 2.261719,0.0234 v 1.24219 h 1.480468 v 0.55859 h -1.480468 v 2.375 q 0,0.53516 0.144531,0.6875 0.148437,0.15235 0.597656,0.15235 h 0.738281 V 168 h -0.738281 q -0.832031,0 -1.148437,-0.30859 -0.316406,-0.3125 -0.316406,-1.13282 v -2.375 H 15.292969 V 163.625 h 0.527344 v -1.24219 z m 4.960937,1.91406 q -0.121094,-0.0703 -0.265625,-0.10156 -0.140625,-0.0352 -0.3125,-0.0352 -0.609375,0 -0.9375,0.39843 -0.324219,0.39453 -0.324219,1.13672 V 168 h -0.722656 v -4.375 h 0.722656 v 0.67969 q 0.226563,-0.39844 0.589844,-0.58985 0.363281,-0.19531 0.882813,-0.19531 0.07422,0 0.164062,0.0117 0.08984,0.008 0.199219,0.0273 z m 3.492188,1.46485 q 0,-0.78125 -0.324219,-1.21094 -0.320313,-0.42969 -0.902344,-0.42969 -0.578125,0 -0.902344,0.42969 -0.320312,0.42969 -0.320312,1.21094 0,0.77734 0.320312,1.20703 0.324219,0.42969 0.902344,0.42969 0.582031,0 0.902344,-0.42969 0.324219,-0.42969 0.324219,-1.20703 z m 0.71875,1.69531 q 0,1.11719 -0.496094,1.66016 -0.496094,0.54687 -1.519531,0.54687 -0.378907,0 -0.714844,-0.0586 -0.335938,-0.0547 -0.652344,-0.17188 v -0.69922 q 0.316406,0.17188 0.625,0.25391 0.308594,0.082 0.628906,0.082 0.707032,0 1.058594,-0.37109 0.351563,-0.36719 0.351563,-1.11328 v -0.35547 q -0.222657,0.38672 -0.570313,0.57812 Q 24.078125,168 23.59375,168 q -0.804688,0 -1.296875,-0.61328 -0.492188,-0.61328 -0.492188,-1.625 0,-1.01563 0.492188,-1.62891 0.492187,-0.61328 1.296875,-0.61328 0.484375,0 0.832031,0.19141 0.347656,0.1914 0.570313,0.57812 V 163.625 h 0.71875 z"
   id="ctrlltxt"
   style="font-size:8px;line-height:0%;font-family:'DejaVu Sans';fill:#111111"
   class="mod"
   aria-label="Strg" />&#10;&#10;<path
   d="m 56.785156,126.16797 h 1.175781 l 1.488282,3.96875 1.496093,-3.96875 h 1.175782 V 132 h -0.769532 v -5.12109 l -1.503906,4 h -0.792969 l -1.503906,-4 V 132 h -0.765625 z m 9.140625,0.6875 -1.992187,3.11328 h 1.992187 z m -0.207031,-0.6875 h 0.992187 v 3.80078 h 0.832032 V 130.625 H 66.710937 V 132 h -0.785156 v -1.375 h -2.632812 v -0.76172 z"
   id="m4ltxt"
   style="font-size:8px;line-height:0%;font-family:'DejaVu Sans';fill:#111111"
   class="mod"
   aria-label="M4" />&#10;<path
   d="m 137.73437,162.94531 -1.07031,2.90235 h 2.14453 z m -0.44531,-0.77734 h 0.89453 L 140.40625,168 h -0.82031 l -0.53125,-1.49609 h -2.62891 L 135.89453,168 h -0.83203 z m 3.9375,-0.2461 h 0.71875 V 168 h -0.71875 z m 2.9336,0.46094 v 1.24219 h 1.48046 v 0.55859 h -1.48046 v 2.375 q 0,0.53516 0.14453,0.6875 0.14843,0.15235 0.59765,0.15235 h 0.73828 V 168 h -0.73828 q -0.83203,0 -1.14843,-0.30859 -0.31641,-0.3125 -0.31641,-1.13282 v -2.375 h -0.52734 V 163.625 h 0.52734 v -1.24219 z"
   id="altltxt"
   style="font-size:8px;line-height:0%;font-family:'DejaVu Sans';fill:#111111"
   class="mod"
   aria-label="Alt" />&#10;&#10;&#10;<path
   d="m 436.78516,90.167969 h 1.17578 l 1.48828,3.96875 1.49609,-3.96875 h 1.17578 V 96 h -0.76953 v -5.121094 l -1.5039,4 h -0.79297 l -1.50391,-4 V 96 h -0.76562 z m 9.36328,2.6875 q 0.5664,0.121093 0.88281,0.503906 0.32031,0.382812 0.32031,0.945312 0,0.863282 -0.59375,1.335938 -0.59375,0.472656 -1.6875,0.472656 -0.36719,0 -0.75781,-0.07422 -0.38672,-0.07031 -0.80078,-0.214843 V 95.0625 q 0.32812,0.191406 0.71875,0.289062 0.39062,0.09766 0.8164,0.09766 0.74219,0 1.12891,-0.292969 0.39063,-0.292969 0.39063,-0.851563 0,-0.515625 -0.36329,-0.804687 -0.35937,-0.292969 -1.0039,-0.292969 h -0.67969 v -0.648437 h 0.71094 q 0.58203,0 0.89062,-0.230469 0.3086,-0.234375 0.3086,-0.671875 0,-0.449219 -0.32032,-0.6875 -0.3164,-0.242188 -0.91015,-0.242188 -0.32422,0 -0.69531,0.07031 -0.3711,0.07031 -0.81641,0.21875 V 90.3125 q 0.44922,-0.125 0.83984,-0.1875 0.39453,-0.0625 0.74219,-0.0625 0.89844,0 1.42188,0.410156 0.52343,0.40625 0.52343,1.101563 0,0.484375 -0.27734,0.820312 -0.27734,0.332031 -0.78906,0.460938 z"
   id="m3rtxt"
   style="font-size:8px;line-height:0%;font-family:'DejaVu Sans';fill:#111111"
   class="mod"
   aria-label="M3" />&#10;&#10;&#10;<path
   d="m 456.58594,126.34375 -1.5586,-1.55859 -1.55859,1.55859 h 0.76758 v 6.07031 h 1.58203 v -6.07031 z m -4.53516,0.58594 2.97656,-2.97656 2.97657,2.97656 H 456.4043 V 133 h -2.75391 v -6.07031 z"
   id="shiftrtxt"
   style="font-size:12px;line-height:0%;font-family:'DejaVu Sans';fill:#111111"
   class="mod big"
   aria-label="⇧" />&#10;<path
   d="m 494.28125,162.35937 v 0.76954 q -0.44922,-0.21485 -0.84766,-0.32032 -0.39843,-0.10547 -0.76953,-0.10547 -0.64453,0 -0.99609,0.25 -0.34766,0.25 -0.34766,0.71094 0,0.38672 0.23047,0.58594 0.23438,0.19531 0.88281,0.31641 l 0.47657,0.0977 q 0.88281,0.16797 1.30078,0.59375 0.42187,0.42188 0.42187,1.13281 0,0.84766 -0.57031,1.28516 -0.56641,0.4375 -1.66406,0.4375 -0.41407,0 -0.88282,-0.0937 -0.46484,-0.0937 -0.96484,-0.27734 v -0.8125 q 0.48047,0.26953 0.94141,0.40625 0.46093,0.13672 0.90625,0.13672 0.67578,0 1.04297,-0.26563 0.36718,-0.26562 0.36718,-0.75781 0,-0.42969 -0.26562,-0.67188 -0.26172,-0.24218 -0.86328,-0.36328 l -0.48047,-0.0937 q -0.88281,-0.17578 -1.27735,-0.55078 -0.39453,-0.375 -0.39453,-1.04297 0,-0.77344 0.54297,-1.21875 0.54688,-0.44531 1.50391,-0.44531 0.41015,0 0.83594,0.0742 0.42578,0.0742 0.87109,0.22265 z m 2.26172,0.0234 v 1.24219 h 1.48047 v 0.55859 h -1.48047 v 2.375 q 0,0.53516 0.14453,0.6875 0.14844,0.15235 0.59766,0.15235 h 0.73828 V 168 h -0.73828 q -0.83204,0 -1.14844,-0.30859 -0.31641,-0.3125 -0.31641,-1.13282 v -2.375 h -0.52734 V 163.625 h 0.52734 v -1.24219 z m 4.96094,1.91406 q -0.1211,-0.0703 -0.26563,-0.10156 -0.14062,-0.0352 -0.3125,-0.0352 -0.60937,0 -0.9375,0.39843 -0.32422,0.39453 -0.32422,1.13672 V 168 h -0.72265 v -4.375 h 0.72265 v 0.67969 q 0.22656,-0.39844 0.58985,-0.58985 0.36328,-0.19531 0.88281,-0.19531 0.0742,0 0.16406,0.0117 0.0898,0.008 0.19922,0.0273 z m 3.49218,1.46485 q 0,-0.78125 -0.32422,-1.21094 -0.32031,-0.42969 -0.90234,-0.42969 -0.57812,0 -0.90234,0.42969 -0.32032,0.42969 -0.32032,1.21094 0,0.77734 0.32032,1.20703 0.32422,0.42969 0.90234,0.42969 0.58203,0 0.90234,-0.42969 0.32422,-0.42969 0.32422,-1.20703 z m 0.71875,1.69531 q 0,1.11719 -0.49609,1.66016 -0.49609,0.54687 -1.51953,0.54687 -0.37891,0 -0.71485,-0.0586 -0.33593,-0.0547 -0.65234,-0.17188 v -0.69922 q 0.31641,0.17188 0.625,0.25391 0.30859,0.082 0.62891,0.082 0.70703,0 1.05859,-0.37109 0.35156,-0.36719 0.35156,-1.11328 v -0.35547 q -0.22265,0.38672 -0.57031,0.57812 Q 504.07812,168 503.59375,168 q -0.80469,0 -1.29688,-0.61328 -0.49218,-0.61328 -0.49218,-1.625 0,-1.01563 0.49218,-1.62891 0.49219,-0.61328 1.29688,-0.61328 0.48437,0 0.83203,0.19141 0.34766,0.1914 0.57031,0.57812 V 163.625 h 0.71875 z"
   id="ctrlrtxt"
   style="font-size:8px;line-height:0%;font-family:'DejaVu Sans';fill:#111111"
   class="mod"
   aria-label="Strg" />&#10;<path
   d="m 357.78516,162.16797 h 1.17578 l 1.48828,3.96875 1.49609,-3.96875 h 1.17578 V 168 h -0.76953 v -5.12109 l -1.5039,4 h -0.79297 l -1.50391,-4 V 168 h -0.76562 z m 8.5664,1.96094 q -0.57812,0 -0.91406,0.45312 -0.33594,0.44922 -0.33594,1.23438 0,0.78515 0.33203,1.23828 0.33594,0.44922 0.91797,0.44922 0.57422,0 0.91016,-0.45313 0.33594,-0.45312 0.33594,-1.23437 0,-0.77735 -0.33594,-1.23047 -0.33594,-0.45703 -0.91016,-0.45703 z m 0,-0.60938 q 0.9375,0 1.47266,0.60938 0.53515,0.60937 0.53515,1.6875 0,1.07421 -0.53515,1.6875 -0.53516,0.60937 -1.47266,0.60937 -0.9414,0 -1.47656,-0.60937 -0.53125,-0.61329 -0.53125,-1.6875 0,-1.07813 0.53125,-1.6875 0.53516,-0.60938 1.47656,-0.60938 z m 6.07813,0.76953 v -2.36719 h 0.71875 V 168 h -0.71875 v -0.65625 q -0.22657,0.39062 -0.57422,0.58203 -0.34375,0.1875 -0.82813,0.1875 -0.79297,0 -1.29297,-0.63281 -0.49609,-0.63281 -0.49609,-1.66406 0,-1.03125 0.49609,-1.66407 0.5,-0.63281 1.29297,-0.63281 0.48438,0 0.82813,0.19141 0.34765,0.1875 0.57422,0.57812 z m -2.44922,1.52735 q 0,0.79296 0.32422,1.24609 0.32812,0.44922 0.89843,0.44922 0.57032,0 0.89844,-0.44922 0.32813,-0.45313 0.32813,-1.24609 0,-0.79297 -0.32813,-1.24219 -0.32812,-0.45313 -0.89844,-0.45313 -0.57031,0 -0.89843,0.45313 -0.32422,0.44922 -0.32422,1.24219 z m 6.91797,-2.96094 -1.99219,3.11328 h 1.99219 z m -0.20703,-0.6875 h 0.99218 v 3.80078 h 0.83203 v 0.65625 h -0.83203 V 168 h -0.78515 v -1.375 h -2.63282 v -0.76172 z"
   id="m4rtxt"
   style="font-size:8px;line-height:0%;font-family:'DejaVu Sans';fill:#111111"
   class="mod"
   aria-label="Mod4" />&#10;<path
   d="m 217.09961,165.76172 q 0,-0.78125 -0.32422,-1.21094 -0.32031,-0.42969 -0.90234,-0.42969 -0.57813,0 -0.90235,0.42969 -0.32031,0.42969 -0.32031,1.21094 0,0.77734 0.32031,1.20703 0.32422,0.42969 0.90235,0.42969 0.58203,0 0.90234,-0.42969 0.32422,-0.42969 0.32422,-1.20703 z m 0.71875,1.69531 q 0,1.11719 -0.49609,1.66016 -0.4961,0.54687 -1.51954,0.54687 -0.3789,0 -0.71484,-0.0586 -0.33594,-0.0547 -0.65234,-0.17188 v -0.69922 q 0.3164,0.17188 0.625,0.25391 0.30859,0.082 0.6289,0.082 0.70703,0 1.0586,-0.37109 0.35156,-0.36719 0.35156,-1.11328 v -0.35547 q -0.22266,0.38672 -0.57031,0.57812 Q 216.18164,168 215.69727,168 q -0.80469,0 -1.29688,-0.61328 -0.49219,-0.61328 -0.49219,-1.625 0,-1.01563 0.49219,-1.62891 0.49219,-0.61328 1.29688,-0.61328 0.48437,0 0.83203,0.19141 0.34765,0.1914 0.57031,0.57812 V 163.625 h 0.71875 z m 5.22266,-1.82422 v 0.35156 h -3.30469 q 0.0469,0.74219 0.44531,1.13282 0.40234,0.38672 1.11719,0.38672 0.41406,0 0.80078,-0.10157 0.39062,-0.10156 0.77344,-0.30468 v 0.67968 q -0.38672,0.16407 -0.79297,0.25 -0.40625,0.0859 -0.82422,0.0859 -1.04688,0 -1.66016,-0.60937 -0.60937,-0.60938 -0.60937,-1.64844 0,-1.07422 0.57812,-1.70313 0.58203,-0.63281 1.56641,-0.63281 0.88281,0 1.39453,0.57031 0.51563,0.56641 0.51563,1.54297 z m -0.71875,-0.21094 q -0.008,-0.58984 -0.33204,-0.9414 -0.32031,-0.35156 -0.85156,-0.35156 -0.60156,0 -0.96484,0.33984 -0.35938,0.33984 -0.41406,0.95703 z m 4.6875,-1.66796 v 0.67968 q -0.30469,-0.15625 -0.63282,-0.23437 -0.32812,-0.0781 -0.67968,-0.0781 -0.53516,0 -0.80469,0.16407 -0.26563,0.16406 -0.26563,0.49218 0,0.25 0.19141,0.39453 0.19141,0.14063 0.76953,0.26954 l 0.24609,0.0547 q 0.76563,0.16407 1.08594,0.46485 0.32422,0.29687 0.32422,0.83203 0,0.60937 -0.48437,0.96484 -0.48047,0.35547 -1.32422,0.35547 -0.35157,0 -0.73438,-0.0703 -0.3789,-0.0664 -0.80078,-0.20313 v -0.74218 q 0.39844,0.20703 0.78516,0.3125 0.38672,0.10156 0.76562,0.10156 0.50781,0 0.78125,-0.17188 0.27344,-0.17578 0.27344,-0.49218 0,-0.29297 -0.19922,-0.44922 -0.19531,-0.15625 -0.86328,-0.30078 l -0.25,-0.0586 q -0.66797,-0.14062 -0.96484,-0.42969 -0.29688,-0.29296 -0.29688,-0.80078 0,-0.61718 0.4375,-0.95312 0.4375,-0.33594 1.24219,-0.33594 0.39844,0 0.75,0.0586 0.35156,0.0586 0.64844,0.17579 z m 4.52734,0.0391 v 0.67187 q -0.30469,-0.16797 -0.61328,-0.25 -0.30469,-0.0859 -0.61719,-0.0859 -0.69922,0 -1.08594,0.44531 -0.38672,0.4414 -0.38672,1.24219 0,0.80078 0.38672,1.24609 0.38672,0.44141 1.08594,0.44141 0.3125,0 0.61719,-0.082 0.30859,-0.0859 0.61328,-0.2539 v 0.66406 q -0.30078,0.14063 -0.625,0.21094 -0.32031,0.0703 -0.68359,0.0703 -0.98829,0 -1.57032,-0.62109 -0.58203,-0.6211 -0.58203,-1.67578 0,-1.07032 0.58594,-1.6836 0.58984,-0.61328 1.61328,-0.61328 0.33203,0 0.64844,0.0703 0.3164,0.0664 0.61328,0.20313 z m 4.88672,1.5664 V 168 h -0.71875 v -2.61719 q 0,-0.62109 -0.24219,-0.92969 -0.24219,-0.30859 -0.72656,-0.30859 -0.58203,0 -0.91797,0.37109 -0.33594,0.3711 -0.33594,1.01172 V 168 h -0.72265 v -6.07813 h 0.72265 v 2.38282 q 0.25781,-0.39453 0.60547,-0.58985 0.35156,-0.19531 0.80859,-0.19531 0.75391,0 1.14063,0.46875 0.38672,0.46484 0.38672,1.37109 z m 1.35937,0.91407 V 163.625 h 0.71875 v 2.62109 q 0,0.6211 0.24219,0.9336 0.24219,0.30859 0.72656,0.30859 0.58203,0 0.91797,-0.37109 0.33985,-0.3711 0.33985,-1.01172 V 163.625 h 0.71875 V 168 h -0.71875 v -0.67188 q -0.26172,0.39844 -0.60938,0.59375 -0.34375,0.19141 -0.80078,0.19141 -0.75391,0 -1.14453,-0.46875 -0.39063,-0.46875 -0.39063,-1.37109 z m 1.8086,-2.75391 z m 0.35937,-1.58203 h 0.79297 v 0.78906 h -0.79297 z m -1.52734,0 h 0.79297 v 0.78906 h -0.79297 z m 5.21484,0.44531 v 1.24219 h 1.48047 v 0.55859 h -1.48047 v 2.375 q 0,0.53516 0.14453,0.6875 0.14844,0.15235 0.59766,0.15235 h 0.73828 V 168 h -0.73828 q -0.83203,0 -1.14844,-0.30859 -0.3164,-0.3125 -0.3164,-1.13282 v -2.375 h -0.52735 V 163.625 h 0.52735 v -1.24219 z m 2.11328,1.24219 h 3.41407 v 0.65625 l -2.70313,3.14453 h 2.70313 V 168 h -3.51172 v -0.65625 l 2.70312,-3.14453 h -2.60547 z m 5.22266,-1.24219 v 1.24219 h 1.48047 v 0.55859 h -1.48047 v 2.375 q 0,0.53516 0.14453,0.6875 0.14844,0.15235 0.59766,0.15235 h 0.73828 V 168 h -0.73828 q -0.83203,0 -1.14844,-0.30859 -0.31641,-0.3125 -0.31641,-1.13282 v -2.375 h -0.52734 V 163.625 h 0.52734 v -1.24219 z m 6.16797,3.25 v 0.35156 h -3.30469 q 0.0469,0.74219 0.44531,1.13282 0.40235,0.38672 1.11719,0.38672 0.41406,0 0.80078,-0.10157 0.39063,-0.10156 0.77344,-0.30468 v 0.67968 q -0.38672,0.16407 -0.79297,0.25 -0.40625,0.0859 -0.82422,0.0859 -1.04687,0 -1.66015,-0.60937 -0.60938,-0.60938 -0.60938,-1.64844 0,-1.07422 0.57813,-1.70313 0.58203,-0.63281 1.5664,-0.63281 0.88281,0 1.39453,0.57031 0.51563,0.56641 0.51563,1.54297 z m -0.71875,-0.21094 q -0.008,-0.58984 -0.33203,-0.9414 -0.32032,-0.35156 -0.85157,-0.35156 -0.60156,0 -0.96484,0.33984 -0.35937,0.33984 -0.41406,0.95703 z m 4.6875,-1.66796 v 0.67968 q -0.30469,-0.15625 -0.63281,-0.23437 -0.32813,-0.0781 -0.67969,-0.0781 -0.53516,0 -0.80469,0.16407 -0.26562,0.16406 -0.26562,0.49218 0,0.25 0.1914,0.39453 0.19141,0.14063 0.76953,0.26954 l 0.2461,0.0547 q 0.76562,0.16407 1.08593,0.46485 0.32422,0.29687 0.32422,0.83203 0,0.60937 -0.48437,0.96484 -0.48047,0.35547 -1.32422,0.35547 -0.35156,0 -0.73438,-0.0703 -0.3789,-0.0664 -0.80078,-0.20313 v -0.74218 q 0.39844,0.20703 0.78516,0.3125 0.38672,0.10156 0.76562,0.10156 0.50782,0 0.78125,-0.17188 0.27344,-0.17578 0.27344,-0.49218 0,-0.29297 -0.19922,-0.44922 -0.19531,-0.15625 -0.86328,-0.30078 l -0.25,-0.0586 q -0.66797,-0.14062 -0.96484,-0.42969 -0.29688,-0.29296 -0.29688,-0.80078 0,-0.61718 0.4375,-0.95312 0.4375,-0.33594 1.24219,-0.33594 0.39844,0 0.75,0.0586 0.35156,0.0586 0.64844,0.17579 z m 3.95312,-1.58594 h 0.78907 v 5.16797 h 2.83984 V 168 h -3.62891 z m 8.02735,3.46484 v 0.35156 h -3.30469 q 0.0469,0.74219 0.44531,1.13282 0.40235,0.38672 1.11719,0.38672 0.41406,0 0.80078,-0.10157 0.39063,-0.10156 0.77344,-0.30468 v 0.67968 q -0.38672,0.16407 -0.79297,0.25 -0.40625,0.0859 -0.82422,0.0859 -1.04687,0 -1.66016,-0.60937 -0.60937,-0.60938 -0.60937,-1.64844 0,-1.07422 0.57812,-1.70313 0.58204,-0.63281 1.56641,-0.63281 0.88281,0 1.39453,0.57031 0.51563,0.56641 0.51563,1.54297 z m -0.71875,-0.21094 q -0.008,-0.58984 -0.33203,-0.9414 -0.32032,-0.35156 -0.85157,-0.35156 -0.60156,0 -0.96484,0.33984 -0.35938,0.33984 -0.41406,0.95703 z m 5.64062,0.21094 v 0.35156 h -3.30469 q 0.0469,0.74219 0.44532,1.13282 0.40234,0.38672 1.11718,0.38672 0.41407,0 0.80079,-0.10157 0.39062,-0.10156 0.77343,-0.30468 v 0.67968 q -0.38672,0.16407 -0.79297,0.25 -0.40625,0.0859 -0.82421,0.0859 -1.04688,0 -1.66016,-0.60937 -0.60938,-0.60938 -0.60938,-1.64844 0,-1.07422 0.57813,-1.70313 0.58203,-0.63281 1.56641,-0.63281 0.88281,0 1.39453,0.57031 0.51562,0.56641 0.51562,1.54297 z m -0.71875,-0.21094 q -0.008,-0.58984 -0.33203,-0.9414 -0.32031,-0.35156 -0.85156,-0.35156 -0.60156,0 -0.96485,0.33984 -0.35937,0.33984 -0.41406,0.95703 z m 4.4336,-1.125 q -0.1211,-0.0703 -0.26563,-0.10156 -0.14062,-0.0352 -0.3125,-0.0352 -0.60937,0 -0.9375,0.39843 -0.32422,0.39453 -0.32422,1.13672 V 168 h -0.72265 v -4.375 h 0.72265 v 0.67969 q 0.22656,-0.39844 0.58985,-0.58985 0.36328,-0.19531 0.88281,-0.19531 0.0742,0 0.16406,0.0117 0.0898,0.008 0.19922,0.0273 z m 0.4414,-0.67187 h 3.41406 v 0.65625 l -2.70312,3.14453 h 2.70312 V 168 h -3.51171 v -0.65625 l 2.70312,-3.14453 h -2.60547 z m 8.25391,2.00781 v 0.35156 h -3.30469 q 0.0469,0.74219 0.44531,1.13282 0.40235,0.38672 1.11719,0.38672 0.41406,0 0.80078,-0.10157 0.39063,-0.10156 0.77344,-0.30468 v 0.67968 q -0.38672,0.16407 -0.79297,0.25 -0.40625,0.0859 -0.82422,0.0859 -1.04687,0 -1.66015,-0.60937 -0.60938,-0.60938 -0.60938,-1.64844 0,-1.07422 0.57813,-1.70313 0.58203,-0.63281 1.5664,-0.63281 0.88281,0 1.39453,0.57031 0.51563,0.56641 0.51563,1.54297 z m -0.71875,-0.21094 q -0.008,-0.58984 -0.33203,-0.9414 -0.32032,-0.35156 -0.85157,-0.35156 -0.60156,0 -0.96484,0.33984 -0.35937,0.33984 -0.41406,0.95703 z m 1.89844,-1.79687 h 0.71875 V 168 h -0.71875 z m 0,-1.70313 h 0.71875 v 0.91016 h -0.71875 z m 5.37109,1.8711 v 0.67187 q -0.30469,-0.16797 -0.61328,-0.25 -0.30469,-0.0859 -0.61719,-0.0859 -0.69922,0 -1.08594,0.44531 -0.38672,0.4414 -0.38672,1.24219 0,0.80078 0.38672,1.24609 0.38672,0.44141 1.08594,0.44141 0.3125,0 0.61719,-0.082 0.30859,-0.0859 0.61328,-0.2539 v 0.66406 q -0.30078,0.14063 -0.625,0.21094 -0.32031,0.0703 -0.68359,0.0703 -0.98829,0 -1.57032,-0.62109 -0.58203,-0.6211 -0.58203,-1.67578 0,-1.07032 0.58594,-1.6836 0.58984,-0.61328 1.61328,-0.61328 0.33203,0 0.64844,0.0703 0.3164,0.0664 0.61328,0.20313 z m 4.88672,1.5664 V 168 h -0.71875 v -2.61719 q 0,-0.62109 -0.24219,-0.92969 -0.24219,-0.30859 -0.72656,-0.30859 -0.58203,0 -0.91797,0.37109 -0.33594,0.3711 -0.33594,1.01172 V 168 h -0.72265 v -6.07813 h 0.72265 v 2.38282 q 0.25781,-0.39453 0.60547,-0.58985 0.35156,-0.19531 0.80859,-0.19531 0.75391,0 1.14063,0.46875 0.38672,0.46484 0.38672,1.37109 z m 5.17578,0.27344 v 0.35156 h -3.30469 q 0.0469,0.74219 0.44531,1.13282 0.40235,0.38672 1.11719,0.38672 0.41406,0 0.80078,-0.10157 0.39063,-0.10156 0.77344,-0.30468 v 0.67968 q -0.38672,0.16407 -0.79297,0.25 -0.40625,0.0859 -0.82422,0.0859 -1.04687,0 -1.66015,-0.60937 -0.60938,-0.60938 -0.60938,-1.64844 0,-1.07422 0.57813,-1.70313 0.58203,-0.63281 1.5664,-0.63281 0.88282,0 1.39453,0.57031 0.51563,0.56641 0.51563,1.54297 z m -0.71875,-0.21094 q -0.008,-0.58984 -0.33203,-0.9414 -0.32031,-0.35156 -0.85156,-0.35156 -0.60157,0 -0.96485,0.33984 -0.35937,0.33984 -0.41406,0.95703 z m 5.53516,-0.0625 V 168 h -0.71875 v -2.61719 q 0,-0.62109 -0.24219,-0.92969 -0.24219,-0.30859 -0.72656,-0.30859 -0.58204,0 -0.91797,0.37109 -0.33594,0.3711 -0.33594,1.01172 V 168 h -0.72266 v -4.375 h 0.72266 v 0.67969 q 0.25781,-0.39453 0.60547,-0.58985 0.35156,-0.19531 0.80859,-0.19531 0.75391,0 1.14063,0.46875 0.38672,0.46484 0.38672,1.37109 z"
   id="text61"
   style="font-size:8px;line-height:0%;font-family:'DejaVu Sans';text-align:center;text-anchor:middle;fill:#111111"
   class="mod space"
   aria-label="geschütztes Leerzeichen" />&#10;&#10;<path
   d="m 498.29883,61.214844 -2.97656,-2.976563 2.97656,-2.976562 v 1.599609 h 3.32226 v -3.609375 h 2.75391 l -0.006,6.363281 h -6.07031 z m -0.58594,-3.767578 v -0.767579 l -1.55859,1.558594 1.55859,1.558594 v -0.767578 h 6.07031 l 0.006,-5.191406 h -1.58203 l -0.006,3.609375 z"
   id="returntxt"
   style="font-size:12px;line-height:0%;font-family:'DejaVu Sans';fill:#111111"
   class="mod big"
   aria-label="⏎" />&#10;<path
   d="m 490.70312,23 h -7.66015 l -3.03906,-3.039063 3.03906,-3.039062 h 7.66015 z M 490.125,17.5 h -0.55078 l -2.46094,2.460937 2.46094,2.460938 h 0.55078 z m -5.47656,0 2.05078,2.050781 L 488.75,17.5 Z m 4.10156,4.921875 -2.05078,-2.050781 -2.05078,2.050781 z M 483.83594,17.5 h -0.55469 l -2.46094,2.46875 2.46094,2.453125 h 0.55469 l 2.46093,-2.460938 z"
   id="backspacetxt"
   style="font-size:8px;line-height:0%;font-family:'DejaVu Sans';fill:#111111"
   class="mod"
   aria-label="⌫" />&#10;</g>&#10;&#10;<g
   transform="translate(55,26)"
   id="g72">&#10;	<path
   d="m -2.2368164,-0.96679688 h 1.79296874 V -6.3369141 l -1.95996094,0.3603516 v -1.0195312 l 2.02148438,-0.3427735 h 1.20410156 v 6.37207032 H 2.6235352 V 0 h -4.8603516 z"
   id="text62"
   style="font-size:18px;line-height:0%;font-family:'DejaVu Sans';text-align:center;text-anchor:middle;fill:#111111;stroke-width:0.75"
   class="key"
   aria-label="₁" />&#10;	<path
   d="m 34.747559,-1.0019531 h 3.726562 V 0 h -5.255859 v -0.96679688 q 0.298828,-0.27246092 0.852539,-0.76464842 3.023437,-2.6806641 3.023437,-3.5068359 0,-0.5800782 -0.457031,-0.9316407 -0.457031,-0.3603515 -1.204102,-0.3603515 -0.457031,0 -0.993164,0.1582031 -0.536132,0.1494141 -1.168945,0.4570312 v -1.0810546 q 0.676758,-0.2460938 1.256836,-0.3691407 0.588867,-0.1230468 1.089844,-0.1230468 1.274414,0 2.039062,0.5800781 0.764649,0.5800781 0.764649,1.5292969 0,1.2216796 -2.90918,3.7177734 -0.492187,0.421875 -0.764648,0.6591797 z"
   id="text63"
   style="font-size:18px;line-height:0%;font-family:'DejaVu Sans';text-align:center;text-anchor:middle;fill:#111111;stroke-width:0.75"
   class="key"
   aria-label="₂" />&#10;	<path
   d="m 72.997559,-3.9726563 q 0.808593,0.1582032 1.248046,0.6416016 0.448243,0.4746094 0.448243,1.1953125 0,1.0898438 -0.834961,1.67871095 -0.834961,0.58886719 -2.390625,0.58886719 -0.500977,0 -1.054688,-0.09667969 -0.544922,-0.08789062 -1.160156,-0.26367188 V -1.2919922 q 0.457031,0.2373047 0.975586,0.35156251 0.527344,0.11425781 1.116211,0.11425781 0.958008,0 1.485351,-0.34277342 0.527344,-0.3515625 0.527344,-0.9667969 0,-0.6503906 -0.492187,-0.984375 -0.483399,-0.3339844 -1.432618,-0.3339844 h -0.755859 v -0.9492187 h 0.826172 q 0.826172,0 1.248047,-0.2724609 0.430664,-0.28125 0.430664,-0.8085938 0,-0.5097656 -0.439453,-0.7734375 -0.439453,-0.2724609 -1.274414,-0.2724609 -0.351563,0 -0.799805,0.079101 -0.448242,0.079102 -1.160156,0.28125 v -1.0107422 q 0.641601,-0.149414 1.204101,-0.2285156 0.5625,-0.079102 1.045899,-0.079102 1.265625,0 2.003906,0.5185546 0.74707,0.5185547 0.74707,1.3886719 0,0.6064453 -0.395507,1.0283203 -0.395508,0.421875 -1.116211,0.5800781 z"
   id="text64"
   style="font-size:18px;line-height:0%;font-family:'DejaVu Sans';text-align:center;text-anchor:middle;fill:#111111;stroke-width:0.75"
   class="key"
   aria-label="₃" />&#10;	<path
   d="m 108,-11.592773 q -1.44141,0 -2.46094,1.001953 -1.01074,1.0019528 -1.01074,2.4433591 0,1.4326172 1.01074,2.3818359 1.01953,0.9492188 2.46094,0.9492188 1.41504,0 2.44336,-0.9492188 1.02832,-0.9492187 1.02832,-2.3818359 0,-1.4414063 -1.02832,-2.4433591 -1.02832,-1.001953 -2.44336,-1.001953 z m -3.56836,6.9169918 q -1.48535,-1.3798829 -1.48535,-3.4716797 0,-2.1005861 1.47656,-3.5595701 1.47656,-1.458985 3.57715,-1.458985 2.07422,0 3.55957,1.458985 1.49414,1.458984 1.49414,3.5595701 0,2.1005859 -1.48535,3.4716797 -1.19531,1.1074218 -2.77734,1.2656249 v 2.3203126 h 2.39062 V 0 h -2.39062 v 2.2587891 h -1.58204 V 0 h -2.39062 v -1.0898437 h 2.39062 v -2.3291016 q -1.59082,-0.1494141 -2.77734,-1.2568359 z"
   id="text65"
   style="font-size:18px;line-height:0%;font-family:'DejaVu Sans';text-align:center;text-anchor:middle;fill:#111111;stroke-width:0.75"
   class="key"
   aria-label="♀" />&#10;	<path
   d="m 142.40918,-8.0683594 q -1.44141,0 -2.46094,1.0019532 -1.01074,1.0019531 -1.01074,2.4433593 0,1.4414063 1.01074,2.390625 1.01953,0.9492188 2.46094,0.9492188 1.41504,0 2.44336,-0.9492188 1.02832,-0.9492187 1.02832,-2.390625 0,-1.4414062 -1.02832,-2.4433593 -1.02832,-1.0019532 -2.44336,-1.0019532 z m 3.62109,6.881836 q -1.47656,1.44140621 -3.62109,1.44140621 -2.06543,0 -3.55957,-1.38867191 -1.49414,-1.3974609 -1.49414,-3.4892578 0,-2.0917968 1.51172,-3.5859375 1.52051,-1.5029297 3.54199,-1.4238281 2.00391,0.070312 2.98828,0.9755859 l 3.17285,-3.0585934 h -3.26074 l 1.23047,-1.248047 h 4.3418 v 4.3242186 l -1.25684,1.2568359 v -3.2783205 l -3.14648,3.0585939 q 0.98437,1.2832032 0.98437,2.9794922 0,2.0390625 -1.43262,3.4365235 z"
   id="text66"
   style="font-size:18px;line-height:0%;font-family:'DejaVu Sans';text-align:center;text-anchor:middle;fill:#111111;stroke-width:0.75"
   class="key"
   aria-label="♂" />&#10;&#10;	<path
   d="m 181.93799,-8.1474609 q 0,-1.4414063 -1.02832,-2.4433591 -1.02832,-1.001953 -2.46094,-1.001953 -1.42383,0 -2.44336,1.001953 -1.01074,1.0019528 -1.01074,2.4433591 0,1.4326172 1.01074,2.3818359 1.01953,0.9492188 2.44336,0.9492188 1.43262,0 2.46094,-0.9492188 1.02832,-0.9492187 1.02832,-2.3818359 z m -7.04004,3.4716797 q -1.48535,-1.3798829 -1.48535,-3.4716797 0,-2.1005861 1.47656,-3.5595701 1.47656,-1.458985 3.57715,-1.458985 1.6875,0 2.99707,0.966797 l 3.16406,-3.049804 h -3.26074 l 1.23047,-1.248047 h 4.34179 v 4.324218 l -1.25683,1.256836 v -3.27832 l -3.14649,3.058594 q 0.98438,1.2832029 0.98438,2.9882811 0,2.1005859 -1.48535,3.4716797 -1.19531,1.1074218 -2.77735,1.2656249 v 2.3203126 h 2.39063 V 0 h -2.39063 v 2.2587891 h -1.58203 V 0 h -2.39062 v -1.0898437 h 2.39062 v -2.3291016 q -1.59082,-0.1494141 -2.77734,-1.2568359 z"
   id="text67"
   style="font-size:18px;line-height:0%;font-family:'DejaVu Sans';text-align:center;text-anchor:middle;fill:#111111;stroke-width:0.75"
   class="key"
   aria-label="⚥" />&#10;	<path
   d="m 214.87939,-3.5947266 q -0.84375,2.3291016 -2.60156,3.41894535 -0.4834,0.29882812 -0.78222,0.29882812 -0.4834,0 -0.4834,-0.69433593 0,-1.35351564 2.5664,-3.68261714 0.54493,-1.2128907 0.54493,-2.2851563 0,-0.5097656 -0.12305,-0.984375 -0.22852,-0.9140625 -1.47656,-0.9140625 -0.50098,0 -1.30079,0.9492188 v -1.9687501 q 0.5625,-0.421875 1.36231,-0.421875 0.22851,0 0.46582,0.035156 2.50488,0.3251953 2.50488,3.1289063 0,0.7998046 -0.25488,1.4765625 L 216.9624,-6.1875 q 0.84375,-2.3291016 2.60156,-3.4189453 0.4834,-0.2988281 0.78223,-0.2988281 0.4834,0 0.4834,0.6943359 0,1.3535156 -2.56641,3.6826172 -0.54492,1.2128906 -0.54492,2.2851562 0,0.5097657 0.12305,0.984375 0.22851,0.9140625 1.47656,0.9140625 0.50098,0 1.30078,-0.9492187 v 1.96874999 q -0.5625,0.421875 -1.3623,0.421875 -0.22852,0 -0.46582,-0.03515625 -2.50489,-0.32519532 -2.50489,-3.12890624 0,-0.7998047 0.25489,-1.4765625 z"
   id="text68"
   style="font-size:18px;line-height:0%;font-family:'DejaVu Sans';text-align:center;text-anchor:middle;fill:#111111;stroke-width:0.75"
   class="key"
   aria-label="ϰ" />&#10;	<path
   d="m 250.09717,-5.6425781 2.47851,-8.0156249 h 1.49414 l -2.47851,8.0156249 2.47851,8.015625 h -1.49414 z"
   id="text69"
   style="font-size:18px;line-height:0%;font-family:'DejaVu Sans';text-align:center;text-anchor:middle;fill:#111111;stroke-width:0.75"
   class="key"
   aria-label="⟨" />&#10;	<path
   d="m 289.90283,-5.6425781 -2.47851,8.015625 h -1.49414 l 2.47851,-8.015625 -2.47851,-8.0156249 h 1.49414 z"
   id="text70"
   style="font-size:18px;line-height:0%;font-family:'DejaVu Sans';text-align:center;text-anchor:middle;fill:#111111;stroke-width:0.75"
   class="key"
   aria-label="⟩" />&#10;	<path
   d="m 325.40186,-5.9501953 q -0.43946,-0.7558594 -1.32715,-0.7558594 -0.8877,0 -1.32715,0.7558594 -0.44824,0.7558594 -0.44824,2.2675781 0,1.5205078 0.44824,2.2763672 0.43945,0.75585938 1.32715,0.75585938 0.88769,0 1.32715,-0.75585938 0.44824,-0.7558594 0.44824,-2.2763672 0,-1.5117187 -0.44824,-2.2675781 z m -1.32715,-1.5380859 q 1.41504,0 2.16211,0.9755859 0.74707,0.9755859 0.74707,2.8300781 0,1.8632813 -0.74707,2.8388672 -0.74707,0.97558594 -2.16211,0.97558594 -1.42383,0 -2.1709,-0.97558594 -0.74707,-0.9755859 -0.74707,-2.8388672 0,-1.8544922 0.74707,-2.8300781 0.74707,-0.9755859 2.1709,-0.9755859 z"
   id="text71"
   style="font-size:18px;line-height:0%;font-family:'DejaVu Sans';text-align:center;text-anchor:middle;fill:#111111;stroke-width:0.75"
   class="key"
   aria-label="₀" />&#10;	<path
   d="m 357.63135,-5.6513672 h 4.7373 v 1.4414063 h -4.7373 z"
   id="text72"
   style="font-size:18px;line-height:0%;font-family:'DejaVu Sans';text-align:center;text-anchor:middle;fill:#111111;stroke-width:0.75"
   class="key"
   aria-label="‑" />&#10;</g>&#10;&#10;&#10;<path
   d="m 10.685547,55.740234 h 6.105469 l -1.371094,-1.371093 0.703125,-0.703125 2.308594,2.308593 v -2.25 h 0.996093 v 5.039063 h -0.996093 v -2.261719 l -2.308594,2.308594 -0.703125,-0.703125 1.371094,-1.371094 h -6.105469 z"
   id="text73"
   style="font-size:12px;line-height:0%;font-family:'DejaVu Sans';fill:#111111"
   class="mod big"
   aria-label="⇥" />&#10;&#10;<g
   transform="translate(73,62)"
   id="g85">&#10;	<path
   d="m 1.3798828,-1.1162109 q 1.1601563,0.00879 1.8544922,0.66796871 0.7382813,0.69433594 0.7382813,1.74902339 0,1.0107422 -0.6503907,1.7138672 -0.703125,0.7646485 -2.1357422,0.7646485 0,-0.6591797 0,-1.3271485 0.6064453,0.043945 0.975586,-0.3427734 0.28125,-0.3076172 0.28125,-0.6328125 0,-0.4658203 -0.28125,-0.85253906 -0.272461,-0.36914063 -0.7822266,-0.36914063 -5.3261719,0 -5.3349609,-4.94824221 0,-4.3242187 5.0185547,-7.3564456 h -4.6757813 v -1.625976 h 7.6464844 v 1.625976 q -6.3632813,3.1992191 -6.3632813,7.3564456 0,3.5771485 3.7089844,3.5771485 z"
   id="text74"
   style="font-size:18px;line-height:0%;font-family:'DejaVu Sans';text-align:center;text-anchor:middle;fill:#111111;stroke-width:0.75"
   class="key"
   aria-label="ζ" />&#10;	<path
   d="m 33.763184,-9.84375 v 6.3720703 q 0,1.1865234 0.439453,1.7490235 0.483398,0.6064453 1.423828,0.6064453 1.318359,0 2.241211,-1.828125 0.518554,-1.0371094 0.65039,-2.6806641 0.07031,-0.8964844 -0.193359,-2.0214844 -0.246094,-1.0458984 -1.177734,-2.1972656 h 1.634765 v 0 q 0.615235,0.7910156 1.010742,1.8720703 0.369141,1.0107422 0.369141,2.3642578 0,2.2236328 -1.125,3.8671875 -1.371094,2.00390628 -3.603516,1.99511721 -1.573242,0 -2.460937,-1.0546875 Q 32.11084,-1.8369141 32.11084,-3.5683594 l -0.0088,-6.2753906 z"
   id="text75"
   style="font-size:18px;line-height:0%;font-family:'DejaVu Sans';text-align:center;text-anchor:middle;fill:#111111;stroke-width:0.75"
   class="key"
   aria-label="υ" />&#10;	<text
   x="72"
   class="key"
   id="text76" />&#10;	<path
   d="m 109.50293,-4.5791016 -0.38672,-2.0302734 q -0.39551,-2.0830078 -1.95996,-2.0830078 -1.17773,0 -1.71387,0.9667969 -0.67675,1.2128906 -0.67675,2.8125 0,1.9335937 0.65917,2.8564453 0.66797,0.9404297 1.73145,0.9404297 1.17773,0 1.81055,-1.8720704 z m 0.90527,-2.6894531 0.87012,-2.5751953 h 1.44141 l -1.80176,5.3349609 0.35156,1.9248047 q 0.0791,0.4306641 0.38672,0.7910157 0.36035,0.421875 0.6416,0.421875 h 0.77344 V 0 h -0.9668 q -0.82617,0 -1.56445,-0.73828125 -0.36035,-0.36914065 -0.50977,-1.14257815 -0.40429,0.97558596 -1.23047,1.7402344 -0.38671,0.36035156 -1.64355,0.36035156 -2.06543,0 -3.06738,-1.33593746 -1.02832,-1.3798829 -1.02832,-3.796875 0,-2.5839844 1.11621,-3.796875 1.23926,-1.3535161 2.97949,-1.3535161 2.7334,0 3.25195,2.7949223 z"
   id="text77"
   style="font-size:18px;line-height:0%;font-family:'DejaVu Sans';text-align:center;text-anchor:middle;fill:#111111;stroke-width:0.75"
   class="key"
   aria-label="α" />&#10;	<path
   d="m 144.77783,-13.675781 v 3.629883 q 1.74903,0 2.91797,1.3447261 1.2041,1.3710938 1.2041,3.788086 0,2.4169921 -1.2041,3.7880859 -1.16894,1.34472656 -2.91797,1.34472656 V 3.7441406 h -1.6084 V 0.21972656 q -1.74902,0 -2.92675,-1.34472656 -1.19532,-1.3710938 -1.19532,-3.7880859 0,-2.4169922 1.19532,-3.788086 1.17773,-1.3447261 2.92675,-1.3447261 v -3.629883 z m 0,12.4541013 q 0.99317,0 1.66992,-0.9052734 0.73829,-1.0107422 0.74707,-2.7861328 0.009,-1.7578125 -0.74707,-2.7861328 -0.67675,-0.9052735 -1.66992,-0.9052735 z m -1.6084,0 v -7.3828125 q -0.99316,0 -1.66113,0.9052735 -0.76465,1.0283203 -0.75586,2.7861328 0.009,1.7753906 0.75586,2.7861328 0.66797,0.9052734 1.66113,0.9052734 z"
   id="text78"
   style="font-size:18px;line-height:0%;font-family:'DejaVu Sans';text-align:center;text-anchor:middle;fill:#111111;stroke-width:0.75"
   class="key"
   aria-label="ϕ" />&#10;&#10;	<path
   d="m 175.23193,-9.84375 h 9.43067 v 1.6171875 h -1.23926 v 6.046875 q 0,0.6328125 0.21094,0.9140625 0.21972,0.27246094 0.70312,0.27246094 0.13184,0 0.3252,-0.0175781 0.19336,-0.026367 0.25488,-0.035156 v 1.16894527 q -0.30762,0.11425782 -0.63281,0.16699219 -0.3252,0.0527344 -0.65039,0.0527344 -1.05469,0 -1.45899,-0.57128907 Q 181.771,-0.80859375 181.771,-2.3554688 v -5.8710937 h -3.62989 V 0 h -1.65234 v -8.2265625 h -1.25684 z"
   id="text79"
   style="font-size:18px;line-height:0%;font-family:'DejaVu Sans';text-align:center;text-anchor:middle;fill:#111111;stroke-width:0.75"
   class="key"
   aria-label="π" />&#10;	<path
   d="M 213.56982,-0.60644531 V 3.7441406 h -1.62597 V -9.7822266 q 0,-4.0078124 3.74414,-4.0078124 3.81445,0 3.81445,3.383789 0,2.4082031 -1.51172,3.2871094 2.46094,0.7910156 2.46094,3.1376953 0,4.16601561 -4.23633,4.16601561 -1.86328,0 -2.64551,-0.79101562 z m 0,-2.10937499 q 0.97559,1.5205078 2.70704,1.5205078 2.53125,0 2.53125,-2.7597656 0,-2.4785156 -4.07813,-2.2851563 V -7.734375 q 3.19043,0 3.19043,-2.8125 0,-1.924805 -2.05664,-1.924805 -2.29395,0 -2.29395,2.7421878 z"
   id="text80"
   style="font-size:18px;line-height:0%;font-family:'DejaVu Sans';text-align:center;text-anchor:middle;fill:#111111;stroke-width:0.75"
   class="key"
   aria-label="β" />&#10;	<path
   d="M 247.80322,3.7441406 V -9.84375 h 1.61719 v 6.1171875 q 0,1.2744141 0.60645,1.9248047 0.60644,0.6503906 1.79296,0.6503906 1.30079,0 1.95118,-0.7382812 0.65918,-0.7382813 0.65918,-2.2148438 V -9.84375 h 1.61718 v 7.5761719 q 0,0.5273437 0.14942,0.7822265 0.1582,0.2460938 0.4834,0.2460938 0.0791,0 0.21972,-0.043945 0.14063,-0.052734 0.38672,-0.1582031 v 1.3007812 q -0.36035,0.20214844 -0.68555,0.29882812 -0.3164,0.0966797 -0.62402,0.0966797 -0.60644,0 -0.9668,-0.34277343 -0.36035,-0.34277344 -0.49218,-1.04589848 -0.43946,0.69433597 -1.08106,1.04589848 -0.63281,0.34277343 -1.49414,0.34277343 -0.89648,0 -1.5293,-0.34277343 -0.62402,-0.34277344 -0.99316,-1.02832028 v 4.8603515 z"
   id="text81"
   style="font-size:18px;line-height:0%;font-family:'DejaVu Sans';text-align:center;text-anchor:middle;fill:#111111;stroke-width:0.75"
   class="key"
   aria-label="μ" />&#10;	<path
   d="M 288.24609,-12.137695 292.79004,0 h -1.71387 L 288.31641,-7.2773437 284.92383,0 h -1.71387 l 4.31543,-9.4394531 -0.65039,-1.7402349 q -0.41309,-1.107421 -1.35352,-1.107421 h -0.84375 v -1.388672 l 1.02832,0.01758 q 1.98633,0.02637 2.54004,1.520508 z"
   id="text82"
   style="font-size:18px;line-height:0%;font-family:'DejaVu Sans';text-align:center;text-anchor:middle;fill:#111111;stroke-width:0.75"
   class="key"
   aria-label="λ" />&#10;	<path
   d="m 325.34912,-8.5341797 q -0.57129,0 -0.57129,1.2744141 v 6.0292969 q 0.83496,0 1.66992,-0.9140626 0.74707,-0.8173828 0.74707,-2.7773437 0,-1.828125 -0.75586,-2.8125 -0.61523,-0.7998047 -1.08984,-0.7998047 z m 0,-1.3798828 q 1.23047,0 2.34668,1.1601562 1.2041,1.2392579 1.2041,3.8320313 0,2.3818359 -1.2041,3.796875 -1.13379,1.3359375 -2.91797,1.3359375 v 3.5332031 h -1.6084 V 0.21972656 q -1.74902,0 -2.92675,-1.34472656 -1.19532,-1.3710938 -1.19532,-3.7880859 0,-2.5136719 1.19532,-3.796875 0.89648,-0.9580079 2.35546,-1.2041016 v 1.4326172 q -0.58007,0.2021484 -1.08984,0.8876953 -0.75586,1.0107422 -0.75586,2.6806641 0,1.7753906 0.75586,2.7861328 0.67676,0.9052734 1.66113,0.9052734 v -6.0380859 q 0,-2.6542969 2.17969,-2.6542969 z"
   id="text83"
   style="font-size:18px;line-height:0%;font-family:'DejaVu Sans';text-align:center;text-anchor:middle;fill:#111111;stroke-width:0.75"
   class="key"
   aria-label="φ" />&#10;	<path
   d="m 362.79932,-6.2402344 h -5.59864 q 0.13184,2.6279297 0.73828,3.7441406 0.75586,1.3710938 2.06543,1.3710938 1.31836,0 2.04786,-1.3798828 0.6416,-1.2128906 0.74707,-3.7353516 z m -0.0264,-1.4941406 q -0.24609,-2.496094 -0.7207,-3.375 -0.75586,-1.388672 -2.04786,-1.388672 -1.34472,0 -2.05664,1.371094 -0.5625,1.107422 -0.72949,3.392578 z m -2.76856,-6.082031 q 2.10938,0 3.31348,1.863281 1.2041,1.854492 1.2041,5.1416016 0,3.2783203 -1.2041,5.1416015 -1.2041,1.87207034 -3.31348,1.87207034 -2.11816,0 -3.31347,-1.87207034 -1.2041,-1.8632812 -1.2041,-5.1416015 0,-3.2871096 1.2041,-5.1416016 1.19531,-1.863281 3.31347,-1.863281 z"
   id="text84"
   style="font-size:18px;line-height:0%;font-family:'DejaVu Sans';text-align:center;text-anchor:middle;fill:#111111;stroke-width:0.75"
   class="key"
   aria-label="θ" />&#10;&#10;  <path
   d="m 396.69434,0.25488281 q -2.36426,0 -3.67383,-1.39746091 -1.30957,-1.397461 -1.30957,-3.7705078 0,-2.4082032 1.31836,-3.788086 1.32715,-1.3798831 3.62988,-1.3798831 0.74707,0 1.45898,0.1582034 0.71192,0.1494141 1.37989,0.4570313 v 1.5117187 q -0.68555,-0.3779297 -1.37989,-0.5625 -0.68554,-0.1933593 -1.38867,-0.1933593 -1.57324,0 -2.44336,1.0019531 -0.87011,0.9931641 -0.87011,2.7949219 0,1.8017578 0.87011,2.8037109 0.87012,0.9931641 2.40821,0.9931641 1.15136,0 1.85449,0.66796871 0.73828,0.69433594 0.73828,1.74902339 0,1.0107422 -0.65039,1.7138672 -0.70313,0.7646485 -2.13574,0.7646485 0,-0.6591797 0,-1.3271485 0.60644,0.043945 0.97558,-0.3427734 0.28125,-0.3076172 0.28125,-0.6328125 0,-0.4658203 -0.28125,-0.85253906 -0.27246,-0.36914063 -0.78222,-0.36914063 z"
   id="text85"
   style="font-size:18px;line-height:0%;font-family:'DejaVu Sans';text-align:center;text-anchor:middle;fill:#111111;stroke-width:0.75"
   class="key"
   aria-label="ς" />&#10;&#10;</g>&#10;&#10;&#10;<g
   transform="translate(84,98)"
   id="g95">&#10;	<path
   d="M 1.2348633,2.1972656 -0.07470703,-1.1689453 -2.7729492,3.7529297 H -4.6801758 L -0.86572266,-3.2080078 -2.465332,-7.3476562 Q -2.8959961,-8.4550781 -4.2495117,-8.4550781 H -4.6801758 V -9.84375 l 0.6152344,0.017578 q 2.2675781,0.061523 2.8388672,1.5292969 l 1.30078123,3.3662109 2.69824217,-4.921875 H 4.6801758 L 0.86572266,-2.8916016 2.465332,1.2480469 Q 2.8959961,2.3554688 4.2495117,2.3554688 H 4.6801758 V 3.7441406 L 4.0649414,3.7265625 Q 1.7973633,3.6650391 1.2348633,2.1972656 Z"
   id="text86"
   style="font-size:18px;line-height:0%;font-family:'DejaVu Sans';text-align:center;text-anchor:middle;fill:#111111;stroke-width:0.75"
   class="key"
   aria-label="χ" />&#10;	<path
   d="m 35.806641,-8.5605469 q -1.335938,0 -2.056641,0.9667969 -0.755859,1.0107422 -0.755859,2.6806641 0,1.7666015 0.74707,2.7861328 0.755859,1.0107422 2.06543,1.0107422 1.291992,0 2.047851,-1.0195313 0.75586,-1.0195312 0.75586,-2.7773437 0,-1.6083985 -0.75586,-2.6806641 -0.694336,-0.9667969 -2.047851,-0.9667969 z m 0,-1.2832031 h 5.370117 v 1.6171875 h -1.810547 q 0.958008,1.3710938 0.958008,3.3134766 0,2.4169921 -1.204102,3.7880859 -1.204101,1.37988281 -3.313476,1.37988281 -2.118164,0 -3.313477,-1.37988281 -1.204102,-1.3710938 -1.204102,-3.7880859 0,-2.4345703 1.204102,-3.796875 0.993164,-1.1337891 3.313477,-1.1337891 z"
   id="text87"
   style="font-size:18px;line-height:0%;font-family:'DejaVu Sans';text-align:center;text-anchor:middle;fill:#111111;stroke-width:0.75"
   class="key"
   aria-label="σ" />&#10;	<path
   d="m 72.074707,-9.84375 v 6.3720703 q 0,1.2744141 0.298828,1.678711 0.316406,0.421875 1.265625,0.421875 h 0.782227 V 0 H 73.445801 Q 71.86377,0 71.143066,-0.84375 70.422363,-1.7050781 70.422363,-3.5683594 l -0.0088,-6.2753906 z"
   id="text88"
   style="font-size:18px;line-height:0%;font-family:'DejaVu Sans';text-align:center;text-anchor:middle;fill:#111111;stroke-width:0.75"
   class="key"
   aria-label="ι" />&#10;	<path
   d="m 106.60693,-5.3085937 q -0.98437,-0.2109375 -1.51172,-0.7822266 -0.52734,-0.5625 -0.52734,-1.3798828 0,-1.2392578 1.00195,-1.9335938 0.99317,-0.6855471 2.71582,-0.6855471 0.66797,0 1.41504,0.105469 0.74707,0.1054687 1.6084,0.3164062 v 1.4677735 q -0.85254,-0.2548828 -1.55566,-0.3691406 -0.71192,-0.1142579 -1.33594,-0.1142579 -1.0459,0 -1.65234,0.4042969 Q 106.1499,-7.875 106.1499,-7.3125 q 0,0.6152344 0.59766,1.0107422 0.58887,0.3867187 1.6084,0.3867187 h 1.3623 v 1.3359375 h -1.30078 q -1.2041,0 -1.83691,0.4482422 -0.68555,0.4921875 -0.68555,1.265625 0,0.7910156 0.73828,1.2832032 0.74707,0.4921875 2.07422,0.4921875 0.81738,0 1.56445,-0.1582032 0.74707,-0.1669922 1.3711,-0.4921875 v 1.50292971 q -0.79102,0.24609375 -1.5293,0.36914063 -0.74707,0.12304687 -1.4502,0.12304687 -2.09179,0 -3.22558,-0.79980468 -1.13379,-0.79980473 -1.13379,-2.32031253 0,-0.9492187 0.60644,-1.5908203 0.60645,-0.6416015 1.69629,-0.852539 z"
   id="text89"
   style="font-size:18px;line-height:0%;font-family:'DejaVu Sans';text-align:center;text-anchor:middle;fill:#111111;stroke-width:0.75"
   class="key nubkey"
   aria-label="ε" />&#10;	<path
   d="m 144.00439,-8.7099609 q -1.30078,0 -2.05664,1.0195312 -0.75586,1.0107422 -0.75586,2.7773438 0,1.7666015 0.74707,2.7861328 0.75586,1.0107422 2.06543,1.0107422 1.292,0 2.04786,-1.0195313 0.75586,-1.0195312 0.75586,-2.7773437 0,-1.7490235 -0.75586,-2.7685547 -0.75586,-1.0283203 -2.04786,-1.0283203 z m 0,-1.3710941 q 2.10938,0 3.31348,1.3710941 1.2041,1.3710937 1.2041,3.796875 0,2.4169921 -1.2041,3.796875 -1.2041,1.37109371 -3.31348,1.37109371 -2.11816,0 -3.32226,-1.37109371 -1.19531,-1.3798829 -1.19531,-3.796875 0,-2.4257813 1.19531,-3.796875 1.2041,-1.3710941 3.32226,-1.3710941 z"
   id="text90"
   style="font-size:18px;line-height:0%;font-family:'DejaVu Sans';text-align:center;text-anchor:middle;fill:#111111;stroke-width:0.75"
   class="key"
   aria-label="ο" />&#10;&#10;	<path
   d="m 183.31787,-11.399414 q -0.89648,-0.615234 -2.99707,-0.615234 -2.22363,0 -2.22363,1.02832 0,0.808594 2.32031,1.2304686 1.82813,0.3251953 2.85645,1.3095703 1.24804,1.1865235 1.24804,3.6210938 0,2.3291015 -1.2041,3.7001953 -1.2041,1.37988281 -3.31348,1.37988281 -2.10058,0 -3.31347,-1.37988281 -1.2041,-1.3710938 -1.2041,-3.7880859 0,-1.7929688 1.2041,-3.2431641 0.46582,-0.5625 1.125,-0.8789063 -1.3711,-0.6943359 -1.3711,-1.9335937 0,-2.390625 3.87598,-2.390625 1.94238,0 2.99707,0.615234 z m -4.28906,2.8037109 q -0.59766,0.2548828 -1.08106,0.8964844 -0.75586,0.993164 -0.75586,2.7861328 0,1.7841796 0.74707,2.7861328 0.75586,1.0107422 2.06543,1.0107422 1.292,0 2.04786,-1.0195313 0.75586,-1.0195312 0.75586,-2.6894531 0,-1.7490234 -0.79981,-2.5927734 -0.85254,-0.9052735 -1.95996,-1.0019532 -0.5625,-0.052734 -1.01953,-0.1757812 z"
   id="text91"
   style="font-size:18px;line-height:0%;font-family:'DejaVu Sans';text-align:center;text-anchor:middle;fill:#111111;stroke-width:0.75"
   class="key"
   aria-label="δ" />&#10;	<path
   d="m 217.10303,-1.7929687 q 0.3164,0.421875 1.26562,0.421875 h 0.78223 V 0 h -0.97559 q -1.58203,0 -2.30273,-0.84375 -0.7207,-0.8613281 -0.7207,-2.7246094 v -4.6582031 h -3.69141 V -9.84375 h 9.0791 v 1.6171875 h -3.73535 v 4.7548828 q 0,1.2744141 0.29883,1.678711 z"
   id="text92"
   style="font-size:18px;line-height:0%;font-family:'DejaVu Sans';text-align:center;text-anchor:middle;fill:#111111;stroke-width:0.75"
   class="key nubkey"
   aria-label="τ" />&#10;	<path
   d="m 250.62891,0 -3.00586,-9.84375 h 1.74023 l 2.54004,8.2617188 q 1.05469,-1.0898438 1.93359,-2.6015625 0.66797,-1.1337891 0.70313,-2.1181641 0.0176,-0.4658203 -0.19336,-1.3447266 -0.24609,-1.0458984 -1.17773,-2.1972656 h 1.63476 v 0 q 0.60645,0.7822266 1.01074,1.8720703 0.36914,1.0019531 0.36914,1.6875 0,1.7226563 -1.19531,3.2607422 Q 253.43262,-1.0195312 252.35156,0 Z"
   id="text93"
   style="font-size:18px;line-height:0%;font-family:'DejaVu Sans';text-align:center;text-anchor:middle;fill:#111111;stroke-width:0.75"
   class="key"
   aria-label="ν" />&#10;	<path
   d="m 284.71289,-8.0859375 q 0.53613,-0.8964844 1.86328,-1.6875 0.51856,-0.3076175 2.11817,-0.3076175 1.79296,0 2.90918,1.4238284 1.125,1.4238282 1.125,3.7441407 0,2.3203125 -1.125,3.7441406 -1.11622,1.42382811 -2.90918,1.42382811 -1.08106,0 -1.86329,-0.421875 -0.77343,-0.43066406 -1.2832,-1.30957031 v 5.2207031 h -1.62598 v -8.5693359 q 0,-2.0302734 0.79102,-3.2607422 z m 6.33691,3.1728516 q 0,-1.7841797 -0.73828,-2.7949219 -0.72949,-1.0195313 -2.01269,-1.0195313 -1.28321,0 -2.02149,1.0195313 -0.72949,1.0107422 -0.72949,2.7949219 0,1.7841796 0.72949,2.8037109 0.73828,1.0107422 2.02149,1.0107422 1.2832,0 2.01269,-1.0107422 0.73828,-1.0195313 0.73828,-2.8037109 z"
   id="text94"
   style="font-size:18px;line-height:0%;font-family:'DejaVu Sans';text-align:center;text-anchor:middle;fill:#111111;stroke-width:0.75"
   class="key"
   aria-label="ρ" />&#10;	<path
   d="m 323.16943,0.21972656 q -2.03027,-0.32519531 -2.9707,-1.17773437 -1.15137,-1.04589849 -1.15137,-3.18164059 V -9.84375 h 1.63477 v 5.6425781 q 0,1.6083985 0.74707,2.2763672 0.65039,0.5800781 1.74023,0.703125 V -9.84375 h 1.6084 v 8.6132813 q 1.15137,-0.1230469 1.74024,-0.703125 0.74707,-0.7382813 0.74707,-2.2763672 V -9.84375 h 1.63476 v 5.6953125 q 0,2.2148438 -1.15136,3.18164062 -1.03711,0.87011719 -2.97071,1.17773438 v 3.5332031 h -1.6084 z"
   id="text95"
   style="font-size:18px;line-height:0%;font-family:'DejaVu Sans';text-align:center;text-anchor:middle;fill:#111111;stroke-width:0.75"
   class="key"
   aria-label="ψ" />&#10;&#10;  &#10;&#10;</g>&#10;&#10;<g
   transform="translate(101,134)"
   id="g105">&#10;    <text
   x="0"
   class="key"
   id="text96" />&#10;    <path
   d="m 37.397461,-1.1162109 q 1.160156,0.00879 1.854492,0.66796871 0.738281,0.69433594 0.738281,1.74902339 0,1.0107422 -0.65039,1.7138672 -0.703125,0.7646485 -2.135742,0.7646485 0,-0.6591797 0,-1.3271485 0.606445,0.043945 0.975585,-0.3427734 0.28125,-0.3076172 0.28125,-0.6328125 0,-0.4658203 -0.28125,-0.85253906 -0.27246,-0.36914063 -0.782226,-0.36914063 -5.475586,0 -5.475586,-3.84082031 0,-2.6367187 2.926758,-3.4101562 -2.460938,-0.3164063 -2.460938,-2.6015626 0,-1.7314457 1.933594,-2.4521487 h -1.828125 v -1.625976 h 6.93457 v 1.625976 q -5.52832,0 -5.52832,2.5576175 0,1.6787109 4.640625,1.7578125 v 1.4941406 q -5.009766,-0.1933593 -4.992187,2.6542969 0.0088,2.3818359 3.849609,2.4697266 z"
   id="text97"
   style="font-size:18px;line-height:0%;font-family:'DejaVu Sans';text-align:center;text-anchor:middle;fill:#111111;stroke-width:0.75"
   class="key"
   aria-label="ξ" />&#10;    <text
   x="72"
   class="key"
   id="text98" />&#10;    <path
   d="m 112.1748,-5.9414062 v 9.6855468 h -1.61718 v -9.6328125 q 0,-1.3974609 -0.54492,-2.0917968 -0.54493,-0.694336 -1.63477,-0.694336 -1.30957,0 -2.06543,0.834961 -0.75586,0.8349609 -0.75586,2.2763671 V 0 h -1.62598 v -9.84375 h 1.62598 v 1.5292969 q 0.58008,-0.8876953 1.36231,-1.3271485 0.79101,-0.4394534 1.81933,-0.4394534 1.69629,0 2.56641,1.0458987 0.87011,1.0546876 0.87011,3.0937501 z"
   id="text99"
   style="font-size:18px;line-height:0%;font-family:'DejaVu Sans';text-align:center;text-anchor:middle;fill:#111111;stroke-width:0.75"
   class="key"
   aria-label="η" />&#10;&#10;    <path
   d="m 147.11133,-8.2792969 q -0.3252,-0.1142578 -0.65039,-0.2021484 -0.87012,-0.2285156 -1.80176,-0.2285156 -1.6084,0 -2.50488,0.8701172 -0.83496,0.8085937 -0.99317,2.2939453 h 5.9502 v 1.265625 h -5.9502 q 0.15821,1.4853515 0.99317,2.2939453 0.89648,0.8701172 2.50488,0.8701172 1.125,0 1.80176,-0.2285157 l 0.65039,-0.2197265 v 1.46777341 l -0.69434,0.15820313 q -0.91406,0.19335937 -1.85449,0.19335937 -2.35547,0 -3.72656,-1.37109371 -1.37989,-1.3710938 -1.37989,-3.796875 0,-2.4257813 1.37989,-3.796875 1.37109,-1.3710941 3.72656,-1.3710941 0.8877,0 1.85449,0.1933597 0.35156,0.070312 0.69434,0.1757812 z"
   id="text100"
   style="font-size:18px;line-height:0%;font-family:'DejaVu Sans';text-align:center;text-anchor:middle;fill:#111111;stroke-width:0.75"
   class="key"
   aria-label="ϵ" />&#10;    <path
   d="m 177.29736,0.25488281 q -3.64746,0 -3.64746,-5.22070311 0,-2.0654297 1.36231,-4.8779297 h 1.74023 q -1.25683,2.8125 -1.25683,4.921875 0,3.8056641 1.95117,3.8056641 1.78418,0 1.78418,-4.7285157 h 1.49414 q 0,4.7285157 1.78418,4.7285157 1.95117,0 1.95117,-3.8056641 0,-2.109375 -1.25684,-4.921875 h 1.74024 q 1.3623,2.8125 1.3623,4.8779297 0,5.22070311 -3.64746,5.22070311 -2.39062,0 -2.68066,-2.62792971 -0.36035,2.62792971 -2.68067,2.62792971 z"
   id="text101"
   style="font-size:18px;line-height:0%;font-family:'DejaVu Sans';text-align:center;text-anchor:middle;fill:#111111;stroke-width:0.75"
   class="key"
   aria-label="ω" />&#10;    <path
   d="M 213.84668,-8.296875 216,-2.2148438 219.07617,-9.84375 h 1.71387 L 216.80859,0 v 3.7441406 h -1.61718 V 0 l -2.58399,-7.3476562 q -0.38672,-1.1074219 -1.22168,-1.1074219 h -0.43066 V -9.84375 h 0.61523 q 1.73145,0 2.27637,1.546875 z"
   id="text102"
   style="font-size:18px;line-height:0%;font-family:'DejaVu Sans';text-align:center;text-anchor:middle;fill:#111111;stroke-width:0.75"
   class="key"
   aria-label="γ" />&#10;    <path
   d="m 247.92187,-4.8251953 q 0,-1.828125 0.79102,-3.2607422 0.47461,-0.8613281 1.86328,-1.6875 0.51856,-0.3076175 2.11817,-0.3076175 1.79296,0 2.90918,1.4238284 1.125,1.4238282 1.125,3.7441407 0,2.3203125 -1.125,3.7441406 -1.11622,1.42382811 -2.90918,1.42382811 -1.05469,0 -1.8545,-0.43066406 -0.78222,-0.421875 -1.29199,-1.30078125 Q 249.5918,2.25 252.12305,2.25 h 4.39453 v 1.4941406 h -4.25391 q -4.3418,0 -4.3418,-6.4160156 z m 6.39844,2.7158203 q 0.72949,-1.0195313 0.72949,-2.8037109 0,-1.7841797 -0.72949,-2.803711 -0.73828,-1.0107422 -2.02148,-1.0107422 -1.28321,0 -2.02149,1.0107422 -0.72949,1.0195313 -0.72949,2.803711 0,1.7841796 0.72949,2.8037109 0.73828,1.0107422 2.02149,1.0107422 1.2832,0 2.02148,-1.0107422 z"
   id="text103"
   style="font-size:18px;line-height:0%;font-family:'DejaVu Sans';text-align:center;text-anchor:middle;fill:#111111;stroke-width:0.75"
   class="key"
   aria-label="ϱ" />&#10;    <path
   d="m 290.70703,-7.734375 q 0,-2.1621094 -0.43066,-3.269531 -0.58008,-1.494141 -1.88965,-1.494141 -0.72949,0 -1.25684,0.606445 -0.52734,0.597657 -0.52734,1.388672 0,1.4941409 1.06348,2.2851566 0.65039,0.4833984 3.04101,0.4833984 z m 0.0264,1.4941406 q -2.70703,0 -3.8584,-0.571289 -1.85449,-0.9228516 -1.85449,-3.6474606 0,-1.40625 0.91406,-2.381836 0.91406,-0.975586 2.45215,-0.975586 1.91601,0 2.98828,1.810547 1.08105,1.810546 1.08105,5.2031246 0,3.3925781 -1.24804,5.203125 -1.24805,1.80175784 -3.34864,1.80175784 -2.09179,0 -3.26953,-1.92480464 -1.16894,-1.9248047 -1.16894,-6.0205079 l 1.65234,0.00879 v 1.40625 q 0,2.3642578 0.77344,3.7880859 0.77344,1.4150391 2.10059,1.4150391 1.33593,0 2.05664,-1.4150391 0.72949,-1.415039 0.72949,-3.7001953 z"
   id="text104"
   style="font-size:18px;line-height:0%;font-family:'DejaVu Sans';text-align:center;text-anchor:middle;fill:#111111;stroke-width:0.75"
   class="key"
   aria-label="ϑ" />&#10;    <path
   d="m 320.37451,-9.84375 h 1.66992 v 4.0869141 l 4.24512,-4.0869141 h 1.96875 L 324.38232,-6.1347656 328.86475,0 h -1.97754 l -3.63867,-5.0800781 -1.20411,1.133789 V 0 h -1.66992 z"
   id="text105"
   style="font-size:18px;line-height:0%;font-family:'DejaVu Sans';text-align:center;text-anchor:middle;fill:#111111;stroke-width:0.75"
   class="key"
   aria-label="κ" />&#10;</g>&#10;&#10;&#10;<g
   transform="translate(561,26)"
   id="g109">&#10;    <path
   d="m 5.6337891,-5.4755859 v 1.5732421 q -0.9228516,0.6855469 -1.7138672,0.9931641 -0.7822266,0.2988281 -1.6347656,0.2988281 -0.9667969,0 -2.25000005,-0.5185547 -0.08789062,-0.035156 -0.14941406,-0.061523 -0.0527344,-0.017578 -0.18457032,-0.070312 -1.36230467,-0.5361328 -2.18847657,-0.5361328 -0.7734375,0 -1.5292969,0.3339844 -0.7558593,0.3339843 -1.6171875,1.0722656 v -1.5732422 q 0.9228516,-0.6855469 1.7050782,-0.984375 0.7910156,-0.3076172 1.6435546,-0.3076172 0.9667969,0 2.25878911,0.5185547 0.09667969,0.043945 0.140625,0.061523 0.0527344,0.017578 0.18457032,0.070312 1.36230467,0.5361328 2.18847657,0.5361328 0.7558594,0 1.4941406,-0.3251953 0.7470703,-0.3339844 1.6523438,-1.0810547 z m 0,-3.4189454 v 1.5644532 q -0.9228516,0.6943359 -1.7138672,1.0019531 -0.7822266,0.2988281 -1.6347656,0.2988281 -0.9667969,0 -2.25000005,-0.5185547 -0.08789062,-0.035156 -0.14941406,-0.061523 -0.0527344,-0.017578 -0.18457032,-0.070312 -1.36230467,-0.5361328 -2.18847657,-0.5361328 -0.7734375,0 -1.5292969,0.3339844 -0.7558593,0.3339843 -1.6171875,1.0634765 v -1.5644531 q 0.9228516,-0.6855469 1.7050782,-0.984375 0.7910156,-0.3076172 1.6435546,-0.3076172 0.9667969,0 2.25878911,0.5185547 0.08789063,0.035156 0.13183594,0.052734 0.0615234,0.026367 0.19335938,0.079102 1.36230467,0.5361329 2.18847657,0.5361329 0.7558594,0 1.4941406,-0.3251954 0.7470703,-0.3339843 1.6523438,-1.0810547 z"
   id="text106"
   style="font-size:18px;line-height:0%;font-family:'DejaVu Sans';text-align:center;text-anchor:middle;fill:#111111;stroke-width:0.75"
   class="key"
   aria-label="≈" />&#10;    <path
   d="m 35.995605,-9.2021484 q 1.634766,0 2.891602,0.993164 l 1.02832,-1.0371094 0.870118,0.8701172 -1.03711,1.0371094 q 0.966797,1.2392578 0.966797,2.8740235 0,1.9423828 -1.388672,3.3310546 -1.388672,1.38867191 -3.331055,1.38867191 -1.617187,0 -2.856445,-0.97558593 l -1.037109,1.03710937 -0.870117,-0.87011719 1.02832,-1.03710936 q -0.975586,-1.2392578 -0.975586,-2.8740234 0,-1.959961 1.388672,-3.3486329 1.388672,-1.3886718 3.322265,-1.3886718 z m 2.003907,1.8720703 q -0.878907,-0.6328125 -2.003907,-0.6328125 -1.423828,0 -2.452148,1.0283203 -1.019531,1.0195312 -1.019531,2.4697266 0,1.1249999 0.624023,1.9951171 z m -3.981446,5.7216797 q 0.870118,0.6240234 1.977539,0.6240234 1.432618,0 2.452149,-1.0195313 1.02832,-1.0283203 1.02832,-2.4609374 0,-1.125 -0.606445,-1.9863282 z"
   id="text107"
   style="font-size:18px;line-height:0%;font-family:'DejaVu Sans';text-align:center;text-anchor:middle;fill:#111111;stroke-width:0.75"
   class="key"
   aria-label="⌀" />&#10;    <path
   d="m 71.068359,-6.7587891 h 1.863282 v 2.2324219 h -1.863282 z m 2.689453,-3.1464843 Q 72.94043,-10.248047 72,-10.248047 q -0.94043,0 -1.757813,0.3427736 -0.808593,0.3427734 -1.476562,1.0107421 -0.676758,0.6767579 -1.010742,1.4853516 -0.333985,0.8085938 -0.333985,1.7666016 0,0.9316406 0.333985,1.7402343 0.333984,0.8085938 1.010742,1.4853516 0.667969,0.6679688 1.476562,1.0107422 0.817383,0.3427734 1.757813,0.3427734 0.94043,0 1.757812,-0.3427734 0.808594,-0.3427734 1.476563,-1.0107422 0.676758,-0.6767578 1.010742,-1.4853516 0.333985,-0.8085937 0.333985,-1.7402343 0,-0.9580078 -0.333985,-1.7666016 Q 75.911133,-8.2177734 75.234375,-8.8945313 74.566406,-9.5625 73.757812,-9.9052734 Z M 69.741211,-11.126953 Q 70.787109,-11.566406 72,-11.566406 q 1.212891,0 2.258789,0.439453 1.045898,0.439453 1.907227,1.3007811 0.870117,0.8701172 1.300781,1.9160157 0.430664,1.0371093 0.430664,2.2675781 0,1.2041015 -0.430664,2.25 -0.430664,1.0371093 -1.300781,1.9072265 -0.861329,0.86132816 -1.907227,1.30078129 Q 73.212891,0.25488281 72,0.25488281 q -1.212891,0 -2.258789,-0.43945312 -1.045899,-0.43945313 -1.907227,-1.30078129 -0.870117,-0.8701172 -1.300781,-1.9072265 -0.430664,-1.0458985 -0.430664,-2.25 0,-1.2304688 0.430664,-2.2675781 0.430664,-1.0458985 1.300781,-1.9160157 0.861328,-0.8613281 1.907227,-1.3007811 z"
   id="text108"
   style="font-size:18px;line-height:0%;font-family:'DejaVu Sans';text-align:center;text-anchor:middle;fill:#111111;stroke-width:0.75"
   class="key"
   aria-label="⊙" />&#10;    <path
   d="m 104.12402,-6.3896484 h 7.75196 v 1.4941406 h -7.75196 z m 5.63379,-3.515625 Q 108.94043,-10.248047 108,-10.248047 q -0.94043,0 -1.75781,0.3427736 -0.8086,0.3427734 -1.47656,1.0107421 -0.67676,0.6767579 -1.01075,1.4853516 -0.33398,0.8085938 -0.33398,1.7666016 0,0.9316406 0.33398,1.7402343 0.33399,0.8085938 1.01075,1.4853516 0.66796,0.6679688 1.47656,1.0107422 0.81738,0.3427734 1.75781,0.3427734 0.94043,0 1.75781,-0.3427734 0.8086,-0.3427734 1.47657,-1.0107422 0.67675,-0.6767578 1.01074,-1.4853516 0.33398,-0.8085937 0.33398,-1.7402343 0,-0.9580078 -0.33398,-1.7666016 -0.33399,-0.8085937 -1.01074,-1.4853516 -0.66797,-0.6679687 -1.47657,-1.0107421 z m -4.0166,-1.2216796 q 1.0459,-0.439453 2.25879,-0.439453 1.21289,0 2.25879,0.439453 1.0459,0.439453 1.90723,1.3007811 0.87011,0.8701172 1.30078,1.9160157 0.43066,1.0371093 0.43066,2.2675781 0,1.2041015 -0.43066,2.25 -0.43067,1.0371093 -1.30078,1.9072265 -0.86133,0.86132816 -1.90723,1.30078129 -1.0459,0.43945312 -2.25879,0.43945312 -1.21289,0 -2.25879,-0.43945312 -1.0459,-0.43945313 -1.90723,-1.30078129 -0.87011,-0.8701172 -1.30078,-1.9072265 -0.43066,-1.0458985 -0.43066,-2.25 0,-1.2304688 0.43066,-2.2675781 0.43067,-1.0458985 1.30078,-1.9160157 0.86133,-0.8613281 1.90723,-1.3007811 z"
   id="text109"
   style="font-size:18px;line-height:0%;font-family:'DejaVu Sans';text-align:center;text-anchor:middle;fill:#111111;stroke-width:0.75"
   class="key"
   aria-label="⊖" />&#10;</g>&#10;<g
   transform="translate(561,62)"
   id="g112">&#10;    <path
   d="m 8.1210938,-9.1494141 -7.25976567,3.515625 7.25976567,3.4980469 v 1.73144532 L -1.3535156,-4.9746094 v -1.3974609 l 9.4746094,-4.5878907 z m -6.7675782,0 -7.2597656,3.515625 7.2597656,3.4980469 v 1.73144532 L -8.1210938,-4.9746094 v -1.3974609 l 9.4746094,-4.5878907 z"
   id="text110"
   style="font-size:18px;line-height:0%;font-family:'DejaVu Sans';text-align:center;text-anchor:middle;fill:#111111;stroke-width:0.75"
   class="key"
   aria-label="≪" />&#10;    <path
   d="m 31.73291,-5.203125 q 0,-2.6015625 1.072266,-3.9111328 1.081054,-1.3095702 3.199219,-1.3095702 2.109375,0 3.18164,1.3095702 1.081055,1.3095703 1.081055,3.9111328 0,0 0,5.203125 h -1.511719 v -4.9833984 q 0,-2.1445313 -0.650391,-3.0673829 -0.65039,-0.9316406 -2.100585,-0.9316406 -1.458985,0 -2.109375,0.9316406 -0.650391,0.9228516 -0.650391,3.0673829 0,0 0,4.9833984 H 31.73291 Z"
   id="text111"
   style="font-size:18px;line-height:0%;font-family:'DejaVu Sans';text-align:center;text-anchor:middle;fill:#111111;stroke-width:0.75"
   class="key"
   aria-label="∩" />&#10;    <path
   d="m 63.878906,-9.1494141 v -1.8105469 l 9.47461,4.5878907 v 1.3974609 l -9.47461,4.57031252 V -2.1357422 l 7.259766,-3.4980469 z m 6.767578,0 v -1.8105469 l 9.47461,4.5878907 v 1.3974609 l -9.47461,4.57031252 V -2.1357422 l 7.259766,-3.4980469 z"
   id="text112"
   style="font-size:18px;line-height:0%;font-family:'DejaVu Sans';text-align:center;text-anchor:middle;fill:#111111;stroke-width:0.75"
   class="key"
   aria-label="≫" />&#10;</g>&#10;<g
   transform="translate(561,98)"
   id="g115">&#10;    <path
   d="M 5.7480469,-1.4326172 H -1.546875 q -1.7753906,0 -2.9882812,-1.2216797 -1.2128907,-1.2216797 -1.2128907,-2.9794922 0,-1.7402343 1.2128907,-2.9794922 1.2128906,-1.2216796 2.9707031,-1.2216796 0,0 7.3125,0 v 1.3183593 h -7.3125 q -1.1953125,0 -2.0302735,0.84375 -0.8349609,0.84375 -0.8349609,2.0390625 0,1.2128907 0.8261719,2.0390625 0.84375,0.84375 2.0390625,0.84375 0,0 7.3125,0 z"
   id="text113"
   style="font-size:18px;line-height:0%;font-family:'DejaVu Sans';text-align:center;text-anchor:middle;fill:#111111;stroke-width:0.75"
   class="key"
   aria-label="⊂" />&#10;    <path
   d="m 39.647461,-7.4443359 q 0.729492,-0.7294922 1.757812,-0.7294922 1.03711,0 1.78418,0.7382812 0.74707,0.7382813 0.74707,1.7929688 0,1.0458984 -0.738281,1.7666015 -0.729492,0.7207032 -1.792969,0.7207032 -1.063476,0 -1.77539,-0.7119141 -0.448242,-0.4482422 -0.615235,-1.0371094 h -6.038086 q -0.175781,0.5800782 -0.624023,1.0283203 -0.738281,0.7207032 -1.801758,0.7207032 -1.063476,0 -1.77539,-0.7119141 -0.711914,-0.7119141 -0.711914,-1.7753906 0,-1.0634766 0.729492,-1.7929688 0.729492,-0.7382812 1.757812,-0.7382812 1.03711,0 1.801758,0.7470703 0.457031,0.4570312 0.624023,1.0458984 h 6.038086 q 0.175782,-0.5976562 0.632813,-1.0634765 z m -8.226563,0.9492187 q -0.351562,-0.3603515 -0.852539,-0.3603515 -0.500976,0 -0.852539,0.3515625 -0.342773,0.3515625 -0.342773,0.852539 0,0.5009766 0.342773,0.8525391 0.351563,0.3427734 0.852539,0.3427734 0.509766,0 0.852539,-0.3427734 0.351563,-0.3515625 0.351563,-0.84375 0,-0.5009766 -0.351563,-0.8525391 z"
   id="text114"
   style="font-size:18px;line-height:0%;font-family:'DejaVu Sans';text-align:center;text-anchor:middle;fill:#111111;stroke-width:0.75"
   class="key"
   aria-label="⊶" />&#10;    <path
   d="m 66.251953,-1.4326172 v -1.3183594 h 7.3125 q 1.195313,0 2.039063,-0.84375 0.826171,-0.8261718 0.826171,-2.0390625 0,-1.1953125 -0.83496,-2.0390625 -0.834961,-0.84375 -2.030274,-0.84375 h -7.3125 v -1.3183593 h 7.3125 q 1.757813,0 2.970703,1.2216796 1.212891,1.2392579 1.212891,2.9794922 0,1.7578125 -1.212891,2.9794922 -1.21289,1.2216797 -2.988281,1.2216797 z"
   id="text115"
   style="font-size:18px;line-height:0%;font-family:'DejaVu Sans';text-align:center;text-anchor:middle;fill:#111111;stroke-width:0.75"
   class="key"
   aria-label="⊃" />&#10;</g>&#10;<g
   transform="translate(561,134)"
   id="g118">&#10;    <path
   d="m 5.6337891,-8.9296875 -8.4375,2.4345703 8.4375,2.4082031 v 1.5644532 L -5.6337891,-5.7568359 V -7.2509766 L 5.6337891,-10.476563 Z M -5.6337891,-1.4941406 H 5.6337891 V 0 H -5.6337891 Z"
   id="text116"
   style="font-size:18px;line-height:0%;font-family:'DejaVu Sans';text-align:center;text-anchor:middle;fill:#111111;stroke-width:0.75"
   class="key"
   aria-label="≤" />&#10;    <path
   d="m 31.73291,-5.2207031 v -5.2031249 h 1.511719 v 4.9833983 q 0,2.1445313 0.650391,3.0761719 0.65039,0.9228516 2.109375,0.9228516 1.450195,0 2.100585,-0.9228516 0.650391,-0.9316406 0.650391,-3.0761719 v -4.9833983 h 1.511719 v 5.2031249 q 0,2.6015625 -1.081055,3.9111328 Q 38.11377,0 36.004395,0 33.88623,0 32.805176,-1.3095703 31.73291,-2.6191406 31.73291,-5.2207031 Z"
   id="text117"
   style="font-size:18px;line-height:0%;font-family:'DejaVu Sans';text-align:center;text-anchor:middle;fill:#111111;stroke-width:0.75"
   class="key"
   aria-label="∪" />&#10;    <path
   d="m 66.366211,-8.9296875 v -1.5468755 l 11.267578,3.2255864 v 1.4941407 l -11.267578,3.234375 V -4.0869141 L 74.8125,-6.4951172 Z m 11.267578,7.4355469 V 0 H 66.366211 v -1.4941406 z"
   id="text118"
   style="font-size:18px;line-height:0%;font-family:'DejaVu Sans';text-align:center;text-anchor:middle;fill:#111111;stroke-width:0.75"
   class="key"
   aria-label="≥" />&#10;</g>&#10;<g
   transform="translate(561,170)"
   id="g120">&#10;    <path
   d="m 26.068359,-5.7744141 q -0.764648,0 -1.204101,0.6503907 -0.439453,0.6503906 -0.439453,1.8105468 0,1.1425782 0.439453,1.8017579 0.439453,0.65039057 1.204101,0.65039057 0.747071,0 1.177735,-0.65039057 0.439453,-0.6591797 0.439453,-1.8017579 0,-1.1513671 -0.439453,-1.8017578 -0.430664,-0.6591797 -1.177735,-0.6591797 z m 0,-1.1162109 q 1.388672,0 2.206055,0.9667969 0.817383,0.9667969 0.817383,2.6103515 0,1.6435547 -0.826172,2.6103516 -0.817383,0.95800781 -2.197266,0.95800781 -1.40625,0 -2.223632,-0.95800781 -0.817383,-0.9667969 -0.817383,-2.6103516 0,-1.6523437 0.817383,-2.6103515 0.826171,-0.9667969 2.223632,-0.9667969 z m -16.1279293,-6.46875 q 1.3886723,0 2.2148433,0.966797 0.826172,0.958008 0.826172,2.6015624 0,1.6611328 -0.826172,2.6191406 -0.817382,0.9580078 -2.2148433,0.9580078 -1.3974609,0 -2.2148438,-0.9580078 -0.8085937,-0.9667969 -0.8085937,-2.6191406 0,-1.6347654 0.8173828,-2.6015624 0.8173828,-0.966797 2.2060547,-0.966797 z m 7.9365233,0 h 1.40625 L 11.074219,0.25488281 H 9.6679688 Z m -7.9365233,1.116211 q -0.7558594,0 -1.1953125,0.65918 -0.4306641,0.65039 -0.4306641,1.7929684 0,1.1601562 0.4306641,1.8105469 0.4306641,0.6503906 1.1953125,0.6503906 0.7646483,0 1.1953123,-0.6503906 0.439453,-0.6503907 0.439453,-1.8105469 0,-1.1337894 -0.439453,-1.7929684 -0.439453,-0.65918 -1.1953123,-0.65918 z m 9.0703123,5.352539 q 1.388672,0 2.206055,0.9667969 0.817383,0.9667969 0.817383,2.6103515 0,1.6435547 -0.826172,2.6103516 -0.817383,0.95800781 -2.197266,0.95800781 -1.40625,0 -2.223633,-0.95800781 -0.817382,-0.9667969 -0.817382,-2.6103516 0,-1.6523437 0.817382,-2.6103515 0.826172,-0.9667969 2.223633,-0.9667969 z m 0,1.1162109 q -0.764648,0 -1.204101,0.6503907 -0.430664,0.6503906 -0.430664,1.8105468 0,1.1425782 0.430664,1.8017579 0.439453,0.65039057 1.204101,0.65039057 0.74707,0 1.177735,-0.65039057 0.439453,-0.6591797 0.439453,-1.8017579 0,-1.1513671 -0.439453,-1.8017578 -0.430665,-0.6591797 -1.177735,-0.6591797 z"
   id="text119"
   style="font-size:18px;line-height:0%;font-family:'DejaVu Sans';text-align:center;text-anchor:middle;fill:#111111;stroke-width:0.75"
   class="key"
   aria-label="‰" />&#10;    <path
   d="m 70.308105,-9.84375 1.520508,-3.27832 h 1.78418 l -2.540039,3.27832 z"
   id="text120"
   style="font-size:18px;line-height:0%;font-family:'DejaVu Sans';text-align:center;text-anchor:middle;fill:#111111;stroke-width:0.75"
   class="key"
   aria-label="′" />&#10;</g>&#10;&#10;<g
   transform="translate(561,78)"
   id="g121">&#10;    <path
   d="M 109.75781,-9.9052734 Q 108.94043,-10.248047 108,-10.248047 q -0.94043,0 -1.75781,0.3427736 -0.8086,0.3427734 -1.47656,1.0107421 -0.67676,0.6767579 -1.01075,1.4853516 -0.33398,0.8085938 -0.33398,1.7666016 0,0.9316406 0.33398,1.7402343 0.33399,0.8085938 1.01075,1.4853516 0.66796,0.6679688 1.47656,1.0107422 0.81738,0.3427734 1.75781,0.3427734 0.94043,0 1.75781,-0.3427734 0.8086,-0.3427734 1.47657,-1.0107422 0.67675,-0.6767578 1.01074,-1.4853516 0.33398,-0.8085937 0.33398,-1.7402343 0,-0.9580078 -0.33398,-1.7666016 -0.33399,-0.8085937 -1.01074,-1.4853516 -0.66797,-0.6679687 -1.47657,-1.0107421 z m -4.0166,-1.2216796 q 1.0459,-0.439453 2.25879,-0.439453 1.21289,0 2.25879,0.439453 1.0459,0.439453 1.90723,1.3007811 0.87011,0.8701172 1.30078,1.9160157 0.43066,1.0371093 0.43066,2.2675781 0,1.2041015 -0.43066,2.25 -0.43067,1.0371093 -1.30078,1.9072265 -0.86133,0.86132816 -1.90723,1.30078129 -1.0459,0.43945312 -2.25879,0.43945312 -1.21289,0 -2.25879,-0.43945312 -1.0459,-0.43945313 -1.90723,-1.30078129 -0.87011,-0.8701172 -1.30078,-1.9072265 -0.43066,-1.0458985 -0.43066,-2.25 0,-1.2304688 0.43066,-2.2675781 0.43067,-1.0458985 1.30078,-1.9160157 0.86133,-0.8613281 1.90723,-1.3007811 z m 3.00586,1.5996092 v 3.1376954 h 3.12891 v 1.4941406 h -3.12891 v 3.1376953 h -1.49414 v -3.1376953 h -3.12891 v -1.4941406 h 3.12891 v -3.1376954 z"
   id="text121"
   style="font-size:18px;line-height:0%;font-family:'DejaVu Sans';text-align:center;text-anchor:middle;fill:#111111;stroke-width:0.75"
   class="key"
   aria-label="⊕" />&#10;</g>&#10;<g
   transform="translate(561,150)"
   id="g122">&#10;    <path
   d="m 105.40723,-1.1777344 -4.46485,-4.4648437 4.46485,-4.4648439 v 2.3994142 h 4.9834 V -13.12207 h 4.13085 l -0.009,9.5449216 h -9.10547 z m -0.87891,-5.6513672 v -1.1513671 l -2.33789,2.3378906 2.33789,2.3378906 v -1.1513672 h 9.10547 l 0.009,-7.7871093 h -2.37305 l -0.009,5.4140624 z"
   id="text122"
   style="font-size:18px;line-height:0%;font-family:'DejaVu Sans';text-align:center;text-anchor:middle;fill:#111111;stroke-width:0.75"
   class="key"
   aria-label="⏎" />&#10;</g>&#10;&#10;<path
   d="m 17.820312,18.476562 q 0.03516,0.07031 0.03516,0.166993 0,0.166992 -0.114258,0.298828 -0.105469,0.123047 -0.28125,0.123047 -0.166992,0 -0.307617,-0.114258 -0.131836,-0.123047 -0.131836,-0.307617 0,-0.158203 0.123047,-0.290039 0.131836,-0.131836 0.307617,-0.131836 0.263672,0 0.36914,0.254882 z m 2.768555,6.670899 q 0.03516,0.105469 0.03516,0.158203 0,0.158203 -0.123046,0.290039 -0.123047,0.131836 -0.298829,0.131836 -0.158203,0 -0.290039,-0.123047 -0.131836,-0.123047 -0.131836,-0.307617 0,-0.149414 0.114258,-0.28125 0.114258,-0.131836 0.28125,-0.131836 0.28125,0 0.413086,0.263672 z m -4.03418,-6.020508 q 0.131836,0.114258 0.131836,0.290039 0,0.421875 -0.413086,0.421875 -0.175781,0 -0.298828,-0.114258 -0.123046,-0.123047 -0.123046,-0.290039 0,-0.175781 0.123046,-0.298828 0.123047,-0.131836 0.290039,-0.131836 0.166993,0 0.290039,0.123047 z m 5.115235,5.097656 q 0.123047,0.123047 0.123047,0.298828 0,0.166993 -0.123047,0.29004 -0.114258,0.123046 -0.298828,0.123046 -0.175782,0 -0.298828,-0.123046 -0.123047,-0.123047 -0.123047,-0.29004 0,-0.175781 0.114258,-0.290039 0.123046,-0.123046 0.290039,-0.123046 0.175781,0 0.316406,0.114257 z m -6.029297,-4.016601 q 0.272461,0.114258 0.272461,0.404297 0,0.166992 -0.140625,0.290039 -0.131836,0.114258 -0.290039,0.114258 -0.18457,0 -0.298828,-0.131836 -0.114258,-0.131836 -0.114258,-0.290039 0,-0.175782 0.123047,-0.298829 0.131836,-0.123046 0.290039,-0.123046 0.05273,0 0.158203,0.03516 z m 6.670898,2.759765 q 0.263672,0.114258 0.263672,0.386719 0,0.175781 -0.131836,0.298828 -0.123047,0.114258 -0.290039,0.114258 -0.193359,0 -0.307617,-0.123047 -0.114258,-0.131836 -0.114258,-0.290039 0,-0.202148 0.131836,-0.307617 0.140625,-0.105469 0.298828,-0.105469 0.08789,0 0.149414,0.02637 z m -7.101562,-1.40625 q 0.166992,0 0.298828,0.123047 0.131836,0.114258 0.131836,0.28125 0,0.175782 -0.131836,0.307617 -0.131836,0.123047 -0.290039,0.123047 h -0.01758 q -0.166992,0 -0.290039,-0.123047 -0.114258,-0.131835 -0.114258,-0.298828 0,-0.175781 0.114258,-0.290039 0.123047,-0.123047 0.298828,-0.123047 z m 7.21582,-0.0088 q 0.175781,0 0.298828,0.123047 0.123047,0.123047 0.123047,0.298828 0,0.166993 -0.123047,0.290039 -0.114257,0.123047 -0.290039,0.123047 h -0.03516 q -0.158203,0 -0.28125,-0.123047 -0.114258,-0.123046 -0.114258,-0.28125 0,-0.175781 0.131836,-0.298828 0.131836,-0.123047 0.290039,-0.131836 z m -7.101562,1.423828 q 0.07031,-0.03516 0.166992,-0.03516 0.175781,0 0.298828,0.114258 0.123047,0.114258 0.123047,0.290039 0,0.166992 -0.123047,0.298828 -0.123047,0.131836 -0.298828,0.131836 -0.166992,0 -0.298828,-0.123047 -0.123047,-0.131836 -0.123047,-0.307617 0,-0.272461 0.254883,-0.369141 z m 6.670898,-2.768554 q 0.105469,-0.03516 0.158203,-0.03516 0.158203,0 0.290039,0.123046 0.131836,0.123047 0.131836,0.298829 0,0.158203 -0.123047,0.290039 -0.123046,0.131836 -0.307617,0.131836 -0.158203,0 -0.28125,-0.123047 -0.123047,-0.123047 -0.123047,-0.290039 0,-0.28125 0.254883,-0.395508 z m -6.020508,4.034179 q 0.131836,-0.131835 0.28125,-0.131835 0.184571,0 0.307618,0.123046 0.123046,0.114258 0.123046,0.290039 0,0.166993 -0.123046,0.298829 -0.114258,0.123046 -0.29004,0.123046 -0.166992,0 -0.298828,-0.123046 -0.123046,-0.131836 -0.123046,-0.298829 0,-0.158203 0.123046,-0.28125 z m 5.097657,-5.115234 q 0.140625,-0.123047 0.298828,-0.123047 0.175781,0 0.290039,0.123047 0.123047,0.123047 0.123047,0.298828 0,0.166992 -0.123047,0.298828 -0.114258,0.123047 -0.290039,0.123047 -0.166992,0 -0.290039,-0.131836 -0.123047,-0.131836 -0.123047,-0.290039 0,-0.166992 0.114258,-0.298828 z m -4.016602,6.029297 q 0.05273,-0.123047 0.166992,-0.193359 0.123047,-0.07031 0.228516,-0.07031 0.175781,0 0.290039,0.131836 0.123047,0.131836 0.123047,0.290039 0,0.175781 -0.131836,0.298828 -0.131836,0.114258 -0.290039,0.114258 -0.166992,0 -0.298828,-0.131836 -0.123047,-0.131836 -0.123047,-0.28125 0,-0.05273 0.03516,-0.158203 z m 2.759766,-6.670898 q 0.114257,-0.263672 0.386718,-0.263672 0.175782,0 0.298829,0.131836 0.123046,0.131836 0.123046,0.298828 0,0.175781 -0.131836,0.298828 -0.131835,0.114258 -0.290039,0.114258 -0.175781,0 -0.298828,-0.131836 -0.114258,-0.140625 -0.114258,-0.298828 0,-0.07031 0.02637,-0.149414 z m -1.40625,7.101562 q 0,-0.175781 0.123047,-0.298828 0.123046,-0.123047 0.290039,-0.123047 0.175781,0 0.298828,0.123047 0.123047,0.123047 0.123047,0.298828 0,0.166992 -0.123047,0.290039 Q 18.998047,26 18.822266,26 18.655273,26 18.532227,25.876953 18.40918,25.753906 18.40918,25.586914 Z m 0,-7.21582 q 0,-0.175782 0.123047,-0.298828 0.123046,-0.123047 0.290039,-0.123047 0.175781,0 0.298828,0.123047 0.123047,0.123046 0.123047,0.298828 0,0.166992 -0.123047,0.290039 -0.123047,0.123047 -0.298828,0.123047 -0.166993,0 -0.290039,-0.123047 -0.123047,-0.123047 -0.123047,-0.290039 z m 6.591797,-0.615235 q -0.351563,0.483399 -0.465821,0.870118 -0.105469,0.386718 -0.114258,0.632812 -0.01758,0.685547 0.465821,0.667969 0.175781,-0.0088 0.404297,-0.07031 0.237304,-0.06152 0.641601,-0.254883 l 0.105469,0.37793 q -0.632813,0.483399 -1.019531,0.676758 -0.37793,0.193359 -0.720703,0.193359 -0.219727,0 -0.457032,-0.237304 -0.237304,-0.237305 -0.237304,-0.817383 0,-0.202149 0.04395,-0.37793 0.04395,-0.175781 0.105469,-0.325195 -0.448243,0.09668 -1.028321,0.360351 -0.588867,0.254883 -1.089843,0.544922 l -0.246094,-0.729492 q 1.098633,-0.386719 1.977539,-0.834961 0.878906,-0.457031 1.388672,-0.870117 z"
   id="t1"
   style="font-size:18px;line-height:0%;font-family:'Gentium Plus Compact';text-align:center;text-anchor:middle;fill:#111111"
   class="dead"
   aria-label="◌˞" />&#10;<path
   d="m 450.99805,18.476562 q 0.0352,0.07031 0.0352,0.166993 0,0.166992 -0.11425,0.298828 -0.10547,0.123047 -0.28125,0.123047 -0.167,0 -0.30762,-0.114258 -0.13184,-0.123047 -0.13184,-0.307617 0,-0.158203 0.12305,-0.290039 0.13183,-0.131836 0.30762,-0.131836 0.26367,0 0.36914,0.254882 z m 2.76855,6.670899 q 0.0352,0.105469 0.0352,0.158203 0,0.158203 -0.12305,0.290039 -0.12305,0.131836 -0.29883,0.131836 -0.1582,0 -0.29004,-0.123047 -0.13183,-0.123047 -0.13183,-0.307617 0,-0.149414 0.11426,-0.28125 0.11425,-0.131836 0.28125,-0.131836 0.28125,0 0.41308,0.263672 z m -4.03418,-6.020508 q 0.13184,0.114258 0.13184,0.290039 0,0.421875 -0.41309,0.421875 -0.17578,0 -0.29883,-0.114258 -0.12304,-0.123047 -0.12304,-0.290039 0,-0.175781 0.12304,-0.298828 0.12305,-0.131836 0.29004,-0.131836 0.16699,0 0.29004,0.123047 z m 5.11524,5.097656 q 0.12304,0.123047 0.12304,0.298828 0,0.166993 -0.12304,0.29004 -0.11426,0.123046 -0.29883,0.123046 -0.17578,0 -0.29883,-0.123046 -0.12305,-0.123047 -0.12305,-0.29004 0,-0.175781 0.11426,-0.290039 0.12305,-0.123046 0.29004,-0.123046 0.17578,0 0.31641,0.114257 z m -6.0293,-4.016601 q 0.27246,0.114258 0.27246,0.404297 0,0.166992 -0.14062,0.290039 -0.13184,0.114258 -0.29004,0.114258 -0.18457,0 -0.29883,-0.131836 -0.11426,-0.131836 -0.11426,-0.290039 0,-0.175782 0.12305,-0.298829 0.13183,-0.123046 0.29004,-0.123046 0.0527,0 0.1582,0.03516 z m 6.6709,2.759765 q 0.26367,0.114258 0.26367,0.386719 0,0.175781 -0.13184,0.298828 -0.12304,0.114258 -0.29004,0.114258 -0.19335,0 -0.30761,-0.123047 -0.11426,-0.131836 -0.11426,-0.290039 0,-0.202148 0.13184,-0.307617 0.14062,-0.105469 0.29882,-0.105469 0.0879,0 0.14942,0.02637 z m -7.10156,-1.40625 q 0.16699,0 0.29882,0.123047 0.13184,0.114258 0.13184,0.28125 0,0.175782 -0.13184,0.307617 -0.13183,0.123047 -0.29004,0.123047 h -0.0176 q -0.167,0 -0.29004,-0.123047 -0.11426,-0.131835 -0.11426,-0.298828 0,-0.175781 0.11426,-0.290039 0.12304,-0.123047 0.29883,-0.123047 z m 7.21582,-0.0088 q 0.17578,0 0.29882,0.123047 0.12305,0.123047 0.12305,0.298828 0,0.166993 -0.12305,0.290039 -0.11425,0.123047 -0.29004,0.123047 h -0.0351 q -0.1582,0 -0.28125,-0.123047 -0.11426,-0.123046 -0.11426,-0.28125 0,-0.175781 0.13184,-0.298828 0.13183,-0.123047 0.29004,-0.131836 z m -7.10157,1.423828 q 0.0703,-0.03516 0.167,-0.03516 0.17578,0 0.29882,0.114258 0.12305,0.114258 0.12305,0.290039 0,0.166992 -0.12305,0.298828 -0.12304,0.131836 -0.29882,0.131836 -0.167,0 -0.29883,-0.123047 -0.12305,-0.131836 -0.12305,-0.307617 0,-0.272461 0.25488,-0.369141 z m 6.6709,-2.768554 q 0.10547,-0.03516 0.1582,-0.03516 0.15821,0 0.29004,0.123046 0.13184,0.123047 0.13184,0.298829 0,0.158203 -0.12305,0.290039 -0.12304,0.131836 -0.30761,0.131836 -0.15821,0 -0.28125,-0.123047 -0.12305,-0.123047 -0.12305,-0.290039 0,-0.28125 0.25488,-0.395508 z m -6.02051,4.034179 q 0.13184,-0.131835 0.28125,-0.131835 0.18457,0 0.30762,0.123046 0.12305,0.114258 0.12305,0.290039 0,0.166993 -0.12305,0.298829 -0.11426,0.123046 -0.29004,0.123046 -0.16699,0 -0.29883,-0.123046 -0.12304,-0.131836 -0.12304,-0.298829 0,-0.158203 0.12304,-0.28125 z M 454.25,19.126953 q 0.14062,-0.123047 0.29883,-0.123047 0.17578,0 0.29004,0.123047 0.12304,0.123047 0.12304,0.298828 0,0.166992 -0.12304,0.298828 -0.11426,0.123047 -0.29004,0.123047 -0.16699,0 -0.29004,-0.131836 -0.12305,-0.131836 -0.12305,-0.290039 0,-0.166992 0.11426,-0.298828 z m -4.0166,6.029297 q 0.0527,-0.123047 0.16699,-0.193359 0.12305,-0.07031 0.22852,-0.07031 0.17578,0 0.29004,0.131836 0.12304,0.131836 0.12304,0.290039 0,0.175781 -0.13183,0.298828 -0.13184,0.114258 -0.29004,0.114258 -0.167,0 -0.29883,-0.131836 -0.12305,-0.131836 -0.12305,-0.28125 0,-0.05273 0.0352,-0.158203 z m 2.75976,-6.670898 q 0.11426,-0.263672 0.38672,-0.263672 0.17578,0 0.29883,0.131836 0.12305,0.131836 0.12305,0.298828 0,0.175781 -0.13184,0.298828 -0.13183,0.114258 -0.29004,0.114258 -0.17578,0 -0.29883,-0.131836 -0.11425,-0.140625 -0.11425,-0.298828 0,-0.07031 0.0264,-0.149414 z m -1.40625,7.101562 q 0,-0.175781 0.12305,-0.298828 0.12305,-0.123047 0.29004,-0.123047 0.17578,0 0.29883,0.123047 0.12304,0.123047 0.12304,0.298828 0,0.166992 -0.12304,0.290039 Q 452.17578,26 452,26 q -0.16699,0 -0.29004,-0.123047 -0.12305,-0.123047 -0.12305,-0.290039 z m 0,-7.21582 q 0,-0.175782 0.12305,-0.298828 0.12305,-0.123047 0.29004,-0.123047 0.17578,0 0.29883,0.123047 0.12304,0.123046 0.12304,0.298828 0,0.166992 -0.12304,0.290039 -0.12305,0.123047 -0.29883,0.123047 -0.16699,0 -0.29004,-0.123047 -0.12305,-0.123047 -0.12305,-0.290039 z m -0.80859,-3.770508 q -0.0352,-0.483398 0.13184,-0.958008 0.16699,-0.474609 0.62402,-0.791015 0.30762,-0.01758 0.84375,0.114257 0.52734,0.123047 0.93164,0.290039 l -0.10547,0.360352 q -0.54492,0.105469 -0.80859,0.351562 -0.26367,0.246094 -0.33399,0.544922 -0.0791,0.290039 -0.0615,0.536133 0.0264,0.404297 0.2373,0.711914 0.20215,0.307617 0.62403,0.632813 l -0.34278,0.290039 q -0.85253,-0.351563 -1.26562,-0.852539 -0.41309,-0.509766 -0.47461,-1.230469 z"
   id="t2"
   style="font-size:18px;line-height:0%;font-family:'Gentium Plus Compact';text-align:center;text-anchor:middle;fill:#111111"
   class="dead"
   aria-label="◌̔" />&#10;&#10;<path
   d="m 478.99805,90.476562 q 0.0352,0.07031 0.0352,0.166993 0,0.166992 -0.11425,0.298828 -0.10547,0.123047 -0.28125,0.123047 -0.167,0 -0.30762,-0.114258 -0.13184,-0.123047 -0.13184,-0.307617 0,-0.158203 0.12305,-0.290039 0.13183,-0.131836 0.30762,-0.131836 0.26367,0 0.36914,0.254882 z m 2.76855,6.670899 q 0.0352,0.105469 0.0352,0.158203 0,0.158203 -0.12305,0.290039 -0.12305,0.131836 -0.29883,0.131836 -0.1582,0 -0.29004,-0.123047 -0.13183,-0.123047 -0.13183,-0.307617 0,-0.149414 0.11426,-0.28125 0.11425,-0.131836 0.28125,-0.131836 0.28125,0 0.41308,0.263672 z m -4.03418,-6.020508 q 0.13184,0.114258 0.13184,0.290039 0,0.421875 -0.41309,0.421875 -0.17578,0 -0.29883,-0.114258 -0.12304,-0.123047 -0.12304,-0.290039 0,-0.175781 0.12304,-0.298828 0.12305,-0.131836 0.29004,-0.131836 0.16699,0 0.29004,0.123047 z m 5.11524,5.097656 q 0.12304,0.123047 0.12304,0.298828 0,0.166993 -0.12304,0.29004 -0.11426,0.123046 -0.29883,0.123046 -0.17578,0 -0.29883,-0.123046 -0.12305,-0.123047 -0.12305,-0.29004 0,-0.175781 0.11426,-0.290039 0.12305,-0.123046 0.29004,-0.123046 0.17578,0 0.31641,0.114257 z m -6.0293,-4.016601 q 0.27246,0.114258 0.27246,0.404297 0,0.166992 -0.14062,0.290039 -0.13184,0.114258 -0.29004,0.114258 -0.18457,0 -0.29883,-0.131836 -0.11426,-0.131836 -0.11426,-0.290039 0,-0.175782 0.12305,-0.298829 0.13183,-0.123046 0.29004,-0.123046 0.0527,0 0.1582,0.03516 z m 6.6709,2.759765 q 0.26367,0.114258 0.26367,0.386719 0,0.175781 -0.13184,0.298828 -0.12304,0.114258 -0.29004,0.114258 -0.19335,0 -0.30761,-0.123047 -0.11426,-0.131836 -0.11426,-0.290039 0,-0.202148 0.13184,-0.307617 0.14062,-0.105469 0.29882,-0.105469 0.0879,0 0.14942,0.02637 z m -7.10156,-1.40625 q 0.16699,0 0.29882,0.123047 0.13184,0.114258 0.13184,0.28125 0,0.175782 -0.13184,0.307617 -0.13183,0.123047 -0.29004,0.123047 h -0.0176 q -0.167,0 -0.29004,-0.123047 -0.11426,-0.131835 -0.11426,-0.298828 0,-0.175781 0.11426,-0.290039 0.12304,-0.123047 0.29883,-0.123047 z m 7.21582,-0.0088 q 0.17578,0 0.29882,0.123047 0.12305,0.123047 0.12305,0.298828 0,0.166993 -0.12305,0.290039 -0.11425,0.123047 -0.29004,0.123047 h -0.0351 q -0.1582,0 -0.28125,-0.123047 -0.11426,-0.123046 -0.11426,-0.28125 0,-0.175781 0.13184,-0.298828 0.13183,-0.123047 0.29004,-0.131836 z m -7.10157,1.423828 q 0.0703,-0.03516 0.167,-0.03516 0.17578,0 0.29882,0.114258 0.12305,0.114258 0.12305,0.290039 0,0.166992 -0.12305,0.298828 -0.12304,0.131836 -0.29882,0.131836 -0.167,0 -0.29883,-0.123047 -0.12305,-0.131836 -0.12305,-0.307617 0,-0.272461 0.25488,-0.369141 z m 6.6709,-2.768554 q 0.10547,-0.03516 0.1582,-0.03516 0.15821,0 0.29004,0.123046 0.13184,0.123047 0.13184,0.298829 0,0.158203 -0.12305,0.290039 -0.12304,0.131836 -0.30761,0.131836 -0.15821,0 -0.28125,-0.123047 -0.12305,-0.123047 -0.12305,-0.290039 0,-0.28125 0.25488,-0.395508 z m -6.02051,4.034179 q 0.13184,-0.131835 0.28125,-0.131835 0.18457,0 0.30762,0.123046 0.12305,0.114258 0.12305,0.290039 0,0.166993 -0.12305,0.298829 -0.11426,0.123046 -0.29004,0.123046 -0.16699,0 -0.29883,-0.123046 -0.12304,-0.131836 -0.12304,-0.298829 0,-0.158203 0.12304,-0.28125 z M 482.25,91.126953 q 0.14062,-0.123047 0.29883,-0.123047 0.17578,0 0.29004,0.123047 0.12304,0.123047 0.12304,0.298828 0,0.166992 -0.12304,0.298828 -0.11426,0.123047 -0.29004,0.123047 -0.16699,0 -0.29004,-0.131836 -0.12305,-0.131836 -0.12305,-0.290039 0,-0.166992 0.11426,-0.298828 z m -4.0166,6.029297 q 0.0527,-0.123047 0.16699,-0.193359 0.12305,-0.07031 0.22852,-0.07031 0.17578,0 0.29004,0.131836 0.12304,0.131836 0.12304,0.290039 0,0.175781 -0.13183,0.298828 -0.13184,0.114258 -0.29004,0.114258 -0.167,0 -0.29883,-0.131836 -0.12305,-0.131836 -0.12305,-0.28125 0,-0.05273 0.0352,-0.158203 z m 2.75976,-6.670898 q 0.11426,-0.263672 0.38672,-0.263672 0.17578,0 0.29883,0.131836 0.12305,0.131836 0.12305,0.298828 0,0.175781 -0.13184,0.298828 -0.13183,0.114258 -0.29004,0.114258 -0.17578,0 -0.29883,-0.131836 -0.11425,-0.140625 -0.11425,-0.298828 0,-0.07031 0.0264,-0.149414 z m -1.40625,7.101562 q 0,-0.175781 0.12305,-0.298828 0.12305,-0.123047 0.29004,-0.123047 0.17578,0 0.29883,0.123047 0.12304,0.123047 0.12304,0.298828 0,0.166992 -0.12304,0.290039 Q 480.17578,98 480,98 q -0.16699,0 -0.29004,-0.123047 -0.12305,-0.123047 -0.12305,-0.290039 z m 0,-7.21582 q 0,-0.175782 0.12305,-0.298828 0.12305,-0.123047 0.29004,-0.123047 0.17578,0 0.29883,0.123047 0.12304,0.123046 0.12304,0.298828 0,0.166992 -0.12304,0.290039 -0.12305,0.123047 -0.29883,0.123047 -0.16699,0 -0.29004,-0.123047 -0.12305,-0.123047 -0.12305,-0.290039 z m 1.76661,-4.042969 q -0.0439,0.606445 -0.43067,1.212891 -0.39551,0.606445 -1.24805,1.142578 l -0.34277,-0.290039 q 0.72949,-0.667969 0.78223,-1.441407 0.0351,-0.46582 -0.2461,-0.808593 -0.29004,-0.351563 -0.98437,-0.360352 l -0.0967,-0.369141 q 0.0967,-0.114257 0.45703,-0.254882 0.36035,-0.140625 0.75586,-0.237305 0.38672,-0.105469 0.57129,-0.0791 0.4834,0.202149 0.65039,0.624024 0.16699,0.413086 0.13184,0.861328 z"
   id="t3"
   style="font-size:18px;line-height:0%;font-family:'Gentium Plus Compact';text-align:center;text-anchor:middle;fill:#111111"
   class="dead"
   aria-label="◌̓" />&#10;&#10;</svg>
