<?xml version="1.0" encoding="UTF-8" standalone="no"?>
<svg
   version="1.1"
   id="Ebene_1"
   height="183"
   width="535"
   viewBox="0 0 535 183"
   enable-background="new 0 0 535 183"
   xml:space="preserve"
   inkscape:version="0.48.5 r10040"
   sodipodi:docname="noted-3-tkl.svg"
   inkscape:export-xdpi="90"
   inkscape:export-ydpi="90"
   xmlns:inkscape="http://www.inkscape.org/namespaces/inkscape"
   xmlns:sodipodi="http://sodipodi.sourceforge.net/DTD/sodipodi-0.dtd"
   xmlns:xlink="http://www.w3.org/1999/xlink"
   xmlns="http://www.w3.org/2000/svg"
   xmlns:svg="http://www.w3.org/2000/svg"
   xmlns:rdf="http://www.w3.org/1999/02/22-rdf-syntax-ns#"
   xmlns:cc="http://creativecommons.org/ns#"
   xmlns:dc="http://purl.org/dc/elements/1.1/">&#10;&#10;  <metadata
   id="metadata135">&#10;    <rdf:RDF>&#10;      <cc:Work
   rdf:about="">&#10;        <dc:format>image/svg+xml</dc:format>&#10;        <dc:type
   rdf:resource="http://purl.org/dc/dcmitype/StillImage" />&#10;        <dc:title />&#10;      </cc:Work>&#10;    </rdf:RDF>&#10;  </metadata>&#10;&#10;<defs
   id="defs">&#10;<style
   type="text/css"
   id="style46661">&#10;text.mod, text.key, text.dead {&#10;	fill:#111;&#10;	fill-opacity:1;&#10;    stroke:none;&#10;    font-style:normal;&#10;    font-variant:normal;&#10;    font-weight:normal;&#10;    font-stretch:normal;&#10;    display:inline;&#10;    font-family:DejaVu Sans;&#10;    writing-mode:lr-tb;&#10;}&#10;&#10;text.key {&#10;    font-family:DejaVu Sans;&#10;}&#10;&#10;text.dead {&#10;    font-family: Gentium Plus Compact;&#10;}&#10;&#10;text.mod {&#10;    text-align:start;&#10;    text-anchor:start;&#10;}&#10;&#10;text.space, text.dead, text.center, text.key {&#10;    text-align:center;&#10;    text-anchor:middle;&#10;}&#10;&#10;text.key { font-size:18px; }&#10;text.dead { font-size:18px; }&#10;text.mod { font-size:8px; }&#10;text.big { font-size:12px; }&#10;&#10;.key {&#10;stroke-width:0.75;&#10;}&#10;&#10;.grey { fill:#949494; stroke:#696969; }&#10;.grey { fill:#9f9f9f; stroke:#747474; }&#10;&#10;.numpad { fill:#afaa9f; stroke:#747474; }&#10;&#10;/* bootstrap colors */&#10;.l5, .r5 { fill:#93CCEA; }&#10;.l4, .r4 { fill:#7abeb3; }&#10;.l3, .r3 { fill:#63b280; }&#10;.l2, .r2 { fill:#4aa44a; }&#10;&#10;/* btn bg hover, unused */&#10;.l2, .r2 { stroke:#3071a9; }&#10;.l3, .r3 { stroke:#449d44; }&#10;.l4, .r4 { stroke:#c9302c; }&#10;.l5, .r5 { stroke:#ec971f; }&#10;&#10;/* btn border hover */&#10;.l2, .r2 { stroke:#204d74; }&#10;.l3, .r3 { stroke:#204d74; }&#10;.l4, .r4 { stroke:#204d74; }&#10;.l5, .r5 { stroke:#204d74; }&#10;&#10;<!-- text.nubkey { fill:#eee; } -->&#10;&#10;.pressed {&#10;	<!--opacity:0.5;-->&#10;	fill:#777;&#10;}&#10;    </style>&#10;&#10;    <g
   id="basekey">&#10;        <rect
   width="32"
   height="32"
   rx="4"
   class="key"
   id="rect1" />&#10;	<!--rect width="20" height="20" x="6" y="6" /-->&#10;        <!--rect width="2" height="2" fill="#000" x="15" y="15" /-->&#10;    </g>&#10;&#10;    </defs>&#10;<sodipodi:namedview
   pagecolor="#ffffff"
   bordercolor="#666666"
   borderopacity="1"
   objecttolerance="10"
   gridtolerance="10"
   guidetolerance="10"
   inkscape:pageopacity="0"
   inkscape:pageshadow="2"
   inkscape:window-width="1614"
   inkscape:window-height="969"
   id="base"
   showgrid="false"
   inkscape:zoom="0.70961538"
   inkscape:cx="685.32105"
   inkscape:cy="241.15395"
   inkscape:window-x="78"
   inkscape:window-y="71"
   inkscape:window-maximized="0"
   inkscape:current-layer="Ebene_1"
   inkscape:showpageshadow="2"
   inkscape:pagecheckerboard="0"
   inkscape:deskcolor="#d1d1d1" />&#10;&#10;<g
   transform="translate(3.5,3.5)"
   id="g61">&#10;<use
   xlink:href="#basekey"
   y="0"
   x="0"
   class="l5"
   id="use1" />&#10;<use
   xlink:href="#basekey"
   y="0"
   x="36"
   class="l5"
   id="use2" />&#10;<use
   xlink:href="#basekey"
   y="0"
   x="72"
   class="l5"
   id="use3" />&#10;<use
   xlink:href="#basekey"
   y="0"
   x="108"
   class="l4"
   id="use4" />&#10;<use
   xlink:href="#basekey"
   y="0"
   x="144"
   class="l3"
   id="use5" />&#10;<use
   xlink:href="#basekey"
   y="0"
   x="180"
   class="l2"
   id="use6" />&#10;<use
   xlink:href="#basekey"
   y="0"
   x="216"
   class="l2"
   id="use7" />&#10;&#10;<use
   xlink:href="#basekey"
   y="0"
   x="252"
   class="r2"
   id="use8" />&#10;<use
   xlink:href="#basekey"
   y="0"
   x="288"
   class="r2"
   id="use9" />&#10;<use
   xlink:href="#basekey"
   y="0"
   x="324"
   class="r3"
   id="use10" />&#10;<use
   xlink:href="#basekey"
   y="0"
   x="360"
   class="r4"
   id="use11" />&#10;<use
   xlink:href="#basekey"
   y="0"
   x="396"
   class="r5"
   id="use12" />&#10;<use
   xlink:href="#basekey"
   y="0"
   x="432"
   class="r5"
   id="use13" />&#10;&#10;&#10;<use
   xlink:href="#basekey"
   y="36"
   x="54"
   class="l5"
   id="use14" />&#10;<use
   xlink:href="#basekey"
   y="36"
   x="90"
   class="l4"
   id="use15" />&#10;<use
   xlink:href="#basekey"
   y="36"
   x="126"
   class="l3"
   id="use16" />&#10;<use
   xlink:href="#basekey"
   y="36"
   x="162"
   class="l2"
   id="use17" />&#10;<use
   xlink:href="#basekey"
   y="36"
   x="198"
   class="l2"
   id="use18" />&#10;&#10;<use
   xlink:href="#basekey"
   y="36"
   x="234"
   class="r2"
   id="use19" />&#10;<use
   xlink:href="#basekey"
   y="36"
   x="270"
   class="r2"
   id="use20" />&#10;<use
   xlink:href="#basekey"
   y="36"
   x="306"
   class="r3"
   id="use21" />&#10;<use
   xlink:href="#basekey"
   y="36"
   x="342"
   class="r4"
   id="use22" />&#10;<use
   xlink:href="#basekey"
   y="36"
   x="378"
   class="r5"
   id="use23" />&#10;<use
   xlink:href="#basekey"
   y="36"
   x="414"
   class="r5"
   id="use24" />&#10;<use
   xlink:href="#basekey"
   y="36"
   x="450"
   class="r5"
   id="use25" />&#10;&#10;&#10;<use
   xlink:href="#basekey"
   y="72"
   x="64"
   class="l5"
   id="use26" />&#10;<use
   xlink:href="#basekey"
   y="72"
   x="100"
   class="l4"
   id="use27" />&#10;<use
   xlink:href="#basekey"
   y="72"
   x="136"
   class="l3"
   id="use28" />&#10;<use
   xlink:href="#basekey"
   y="72"
   x="172"
   class="l2"
   id="use29" />&#10;<use
   xlink:href="#basekey"
   y="72"
   x="208"
   class="l2"
   id="use30" />&#10;&#10;<use
   xlink:href="#basekey"
   y="72"
   x="244"
   class="r2"
   id="use31" />&#10;<use
   xlink:href="#basekey"
   y="72"
   x="280"
   class="r2"
   id="use32" />&#10;<use
   xlink:href="#basekey"
   y="72"
   x="316"
   class="r3"
   id="use33" />&#10;<use
   xlink:href="#basekey"
   y="72"
   x="352"
   class="r4"
   id="use34" />&#10;<use
   xlink:href="#basekey"
   y="72"
   x="388"
   class="r5"
   id="use35" />&#10;&#10;    <use
   xlink:href="#basekey"
   y="72"
   x="460"
   class="r5"
   id="use36" />&#10;&#10;&#10;&#10;<use
   xlink:href="#basekey"
   y="108"
   x="82"
   class="l5"
   id="use37" />&#10;<use
   xlink:href="#basekey"
   y="108"
   x="118"
   class="l4"
   id="use38" />&#10;<use
   xlink:href="#basekey"
   y="108"
   x="154"
   class="l3"
   id="use39" />&#10;<use
   xlink:href="#basekey"
   y="108"
   x="190"
   class="l2"
   id="use40" />&#10;<use
   xlink:href="#basekey"
   y="108"
   x="226"
   class="l2"
   id="use41" />&#10;&#10;<use
   xlink:href="#basekey"
   y="108"
   x="262"
   class="r2"
   id="use42" />&#10;<use
   xlink:href="#basekey"
   y="108"
   x="298"
   class="r2"
   id="use43" />&#10;<use
   xlink:href="#basekey"
   y="108"
   x="334"
   class="r3"
   id="use44" />&#10;<use
   xlink:href="#basekey"
   y="108"
   x="370"
   class="r4"
   id="use45" />&#10;<use
   xlink:href="#basekey"
   y="108"
   x="406"
   class="r5"
   id="use46" />&#10;&#10;&#10;<rect
   id="backspace"
   y="0"
   x="468"
   width="60"
   height="32"
   rx="4"
   class="key grey" />&#10;&#10;<rect
   id="tab"
   x="0"
   y="36"
   width="50"
   height="32"
   rx="4"
   class="key grey" />&#10;&#10;<rect
   id="m3l"
   x="0"
   y="72"
   width="60"
   height="32"
   rx="4"
   class="key grey pressed" />&#10;&#10;<use
   id="m3r"
   xlink:href="#basekey"
   x="424"
   y="72"
   class="key grey pressed" />&#10;&#10;&#10;<rect
   id="shiftl"
   x="0"
   y="108"
   width="40"
   height="32"
   rx="4"
   class="key grey" />&#10;<rect
   id="m4l"
   x="44"
   y="108"
   width="34"
   height="32"
   rx="4"
   class="key grey" />&#10;<rect
   id="shiftr"
   x="442"
   y="108"
   width="86"
   height="32"
   rx="4"
   class="key grey" />&#10;&#10;<rect
   id="ctrll"
   x="0"
   y="144"
   width="50"
   height="32"
   rx="4"
   class="key grey" />&#10;<rect
   id="altl"
   x="124"
   y="144"
   width="48"
   height="32"
   rx="4"
   class="key grey" />&#10;<rect
   id="space"
   x="176"
   y="144"
   width="168"
   height="32"
   rx="4"
   class="key grey" />&#10;<rect
   id="m4r"
   x="348"
   y="144"
   width="48"
   height="32"
   rx="4"
   class="key grey" />&#10;<rect
   id="ctrlr"
   x="478"
   y="144"
   width="50"
   height="32"
   rx="4"
   class="key grey" />&#10;&#10;<use
   xlink:href="#basekey"
   y="0"
   x="542"
   class="key numpad"
   id="use47" />&#10;<use
   xlink:href="#basekey"
   y="0"
   x="578"
   class="key numpad"
   id="use48" />&#10;<use
   xlink:href="#basekey"
   y="0"
   x="614"
   class="key numpad"
   id="use49" />&#10;<use
   xlink:href="#basekey"
   y="0"
   x="650"
   class="key numpad"
   id="use50" />&#10;&#10;<use
   xlink:href="#basekey"
   y="36"
   x="542"
   class="key numpad"
   id="use51" />&#10;<use
   xlink:href="#basekey"
   y="36"
   x="578"
   class="key numpad"
   id="use52" />&#10;<use
   xlink:href="#basekey"
   y="36"
   x="614"
   class="key numpad"
   id="use53" />&#10;<rect
   id="kpplus"
   x="650"
   y="36"
   width="32"
   height="68"
   rx="4"
   class="key numpad" />&#10;&#10;<use
   xlink:href="#basekey"
   y="72"
   x="542"
   class="key numpad"
   id="use54" />&#10;<use
   xlink:href="#basekey"
   y="72"
   x="578"
   class="key numpad"
   id="use55" />&#10;<use
   xlink:href="#basekey"
   y="72"
   x="614"
   class="key numpad"
   id="use56" />&#10;&#10;<use
   xlink:href="#basekey"
   y="108"
   x="542"
   class="key numpad"
   id="use57" />&#10;<use
   xlink:href="#basekey"
   y="108"
   x="578"
   class="key numpad"
   id="use58" />&#10;<use
   xlink:href="#basekey"
   y="108"
   x="614"
   class="key numpad"
   id="use59" />&#10;<rect
   id="kppenter"
   x="650"
   y="108"
   width="32"
   height="68"
   rx="4"
   class="key numpad" />&#10;&#10;<rect
   id="kp0"
   x="542"
   y="144"
   width="68"
   height="32"
   rx="4"
   class="key numpad" />&#10;<use
   xlink:href="#basekey"
   y="144"
   x="614"
   class="key numpad"
   id="use60" />&#10;&#10;<path
   fill-rule="evenodd"
   clip-rule="evenodd"
   d="      M 10,32      l -6,0 a 4,4 0 0 1 -4,-4      l 0,-24 a 4,4 0 0 1 4,-4      l 34,0 a 4,4 0 0 1 4,4      l 0,60 a 4,4 0 0 1 -4,4      l -24,0 a 4,4 0 0 1 -4,-4      z"
   transform="translate(486,36)"
   id="return"
   class="key grey" />&#10;&#10;<rect
   y="101"
   x="181"
   width="14"
   height="1"
   rx="1"
   id="nub"
   style="fill:#111;" />&#10;<use
   y="0"
   x="108"
   xlink:href="#nub"
   id="use61" />&#10;</g>&#10;&#10;<g
   transform="translate(-0.5,-0.5)"
   id="g62">&#10;<path
   d="m 10.785156,90.167969 h 1.175782 l 1.488281,3.96875 1.496094,-3.96875 h 1.175781 V 96 h -0.769531 v -5.121094 l -1.503907,4 h -0.792968 l -1.503907,-4 V 96 h -0.765625 z m 8.566406,1.960937 q -0.578125,0 -0.914062,0.453125 -0.335938,0.449219 -0.335938,1.234375 0,0.785156 0.332032,1.238281 0.335937,0.449219 0.917968,0.449219 0.574219,0 0.910157,-0.453125 0.335937,-0.453125 0.335937,-1.234375 0,-0.777344 -0.335937,-1.230469 -0.335938,-0.457031 -0.910157,-0.457031 z m 0,-0.609375 q 0.9375,0 1.472657,0.609375 0.535156,0.609375 0.535156,1.6875 0,1.074219 -0.535156,1.6875 -0.535157,0.609375 -1.472657,0.609375 -0.941406,0 -1.476562,-0.609375 -0.53125,-0.613281 -0.53125,-1.6875 0,-1.078125 0.53125,-1.6875 0.535156,-0.609375 1.476562,-0.609375 z m 6.078125,0.769531 v -2.367187 h 0.71875 V 96 h -0.71875 v -0.65625 q -0.226562,0.390625 -0.574218,0.582031 -0.34375,0.1875 -0.828125,0.1875 -0.792969,0 -1.292969,-0.632812 -0.496094,-0.632813 -0.496094,-1.664063 0,-1.03125 0.496094,-1.664062 0.5,-0.632813 1.292969,-0.632813 0.484375,0 0.828125,0.191406 0.347656,0.1875 0.574218,0.578125 z m -2.449218,1.527344 q 0,0.792969 0.324218,1.246094 0.328125,0.449219 0.898438,0.449219 0.570312,0 0.898437,-0.449219 0.328125,-0.453125 0.328125,-1.246094 0,-0.792969 -0.328125,-1.242187 -0.328125,-0.453125 -0.898437,-0.453125 -0.570313,0 -0.898438,0.453125 -0.324218,0.449218 -0.324218,1.242187 z m 7.140625,-0.960937 q 0.566406,0.121093 0.882812,0.503906 0.320313,0.382812 0.320313,0.945312 0,0.863282 -0.59375,1.335938 -0.59375,0.472656 -1.6875,0.472656 -0.367188,0 -0.757813,-0.07422 -0.386719,-0.07031 -0.800781,-0.214843 V 95.0625 q 0.328125,0.191406 0.71875,0.289062 0.390625,0.09766 0.816406,0.09766 0.742188,0 1.128906,-0.292969 0.390625,-0.292969 0.390625,-0.851563 0,-0.515625 -0.363281,-0.804687 -0.359375,-0.292969 -1.003906,-0.292969 h -0.679688 v -0.648437 h 0.710938 q 0.582031,0 0.890625,-0.230469 0.308594,-0.234375 0.308594,-0.671875 0,-0.449219 -0.320313,-0.6875 -0.316406,-0.242188 -0.910156,-0.242188 -0.324219,0 -0.695313,0.07031 -0.371093,0.07031 -0.816406,0.21875 V 90.3125 Q 28.109375,90.1875 28.5,90.125 q 0.394531,-0.0625 0.742187,-0.0625 0.898438,0 1.421875,0.410156 0.523438,0.40625 0.523438,1.101563 0,0.484375 -0.277344,0.820312 -0.277344,0.332031 -0.789062,0.460938 z"
   id="m3ltxt"
   style="font-size:8px;line-height:0%;font-family:'DejaVu Sans';fill:#111111"
   class="mod"
   aria-label="Mod3" />&#10;<path
   d="m 16.585937,126.34375 -1.558593,-1.55859 -1.558594,1.55859 h 0.767578 v 6.07031 h 1.582031 v -6.07031 z m -4.535156,0.58594 2.976563,-2.97656 2.976562,2.97656 H 16.404297 V 133 h -2.753906 v -6.07031 z"
   id="shiftltxt"
   style="font-size:12px;line-height:0%;font-family:'DejaVu Sans';fill:#111111"
   class="mod big"
   aria-label="⇧" />&#10;<path
   d="m 14.28125,162.35937 v 0.76954 q -0.449219,-0.21485 -0.847656,-0.32032 -0.398438,-0.10547 -0.769531,-0.10547 -0.644532,0 -0.996094,0.25 -0.347656,0.25 -0.347656,0.71094 0,0.38672 0.230468,0.58594 0.234375,0.19531 0.882813,0.31641 l 0.476562,0.0977 q 0.882813,0.16797 1.300782,0.59375 0.421875,0.42188 0.421875,1.13281 0,0.84766 -0.570313,1.28516 -0.566406,0.4375 -1.664062,0.4375 -0.414063,0 -0.882813,-0.0937 -0.464844,-0.0937 -0.964844,-0.27734 v -0.8125 q 0.480469,0.26953 0.941407,0.40625 0.460937,0.13672 0.90625,0.13672 0.675781,0 1.042968,-0.26563 0.367188,-0.26562 0.367188,-0.75781 0,-0.42969 -0.265625,-0.67188 -0.261719,-0.24218 -0.863281,-0.36328 l -0.480469,-0.0937 q -0.882813,-0.17578 -1.277344,-0.55078 -0.394531,-0.375 -0.394531,-1.04297 0,-0.77344 0.542969,-1.21875 0.546875,-0.44531 1.503906,-0.44531 0.410156,0 0.835937,0.0742 0.425782,0.0742 0.871094,0.22265 z m 2.261719,0.0234 v 1.24219 h 1.480468 v 0.55859 h -1.480468 v 2.375 q 0,0.53516 0.144531,0.6875 0.148437,0.15235 0.597656,0.15235 h 0.738281 V 168 h -0.738281 q -0.832031,0 -1.148437,-0.30859 -0.316406,-0.3125 -0.316406,-1.13282 v -2.375 H 15.292969 V 163.625 h 0.527344 v -1.24219 z m 4.960937,1.91406 q -0.121094,-0.0703 -0.265625,-0.10156 -0.140625,-0.0352 -0.3125,-0.0352 -0.609375,0 -0.9375,0.39843 -0.324219,0.39453 -0.324219,1.13672 V 168 h -0.722656 v -4.375 h 0.722656 v 0.67969 q 0.226563,-0.39844 0.589844,-0.58985 0.363281,-0.19531 0.882813,-0.19531 0.07422,0 0.164062,0.0117 0.08984,0.008 0.199219,0.0273 z m 3.492188,1.46485 q 0,-0.78125 -0.324219,-1.21094 -0.320313,-0.42969 -0.902344,-0.42969 -0.578125,0 -0.902344,0.42969 -0.320312,0.42969 -0.320312,1.21094 0,0.77734 0.320312,1.20703 0.324219,0.42969 0.902344,0.42969 0.582031,0 0.902344,-0.42969 0.324219,-0.42969 0.324219,-1.20703 z m 0.71875,1.69531 q 0,1.11719 -0.496094,1.66016 -0.496094,0.54687 -1.519531,0.54687 -0.378907,0 -0.714844,-0.0586 -0.335938,-0.0547 -0.652344,-0.17188 v -0.69922 q 0.316406,0.17188 0.625,0.25391 0.308594,0.082 0.628906,0.082 0.707032,0 1.058594,-0.37109 0.351563,-0.36719 0.351563,-1.11328 v -0.35547 q -0.222657,0.38672 -0.570313,0.57812 Q 24.078125,168 23.59375,168 q -0.804688,0 -1.296875,-0.61328 -0.492188,-0.61328 -0.492188,-1.625 0,-1.01563 0.492188,-1.62891 0.492187,-0.61328 1.296875,-0.61328 0.484375,0 0.832031,0.19141 0.347656,0.1914 0.570313,0.57812 V 163.625 h 0.71875 z"
   id="ctrlltxt"
   style="font-size:8px;line-height:0%;font-family:'DejaVu Sans';fill:#111111"
   class="mod"
   aria-label="Strg" />&#10;&#10;<path
   d="m 56.785156,126.16797 h 1.175781 l 1.488282,3.96875 1.496093,-3.96875 h 1.175782 V 132 h -0.769532 v -5.12109 l -1.503906,4 h -0.792969 l -1.503906,-4 V 132 h -0.765625 z m 9.140625,0.6875 -1.992187,3.11328 h 1.992187 z m -0.207031,-0.6875 h 0.992187 v 3.80078 h 0.832032 V 130.625 H 66.710937 V 132 h -0.785156 v -1.375 h -2.632812 v -0.76172 z"
   id="m4ltxt"
   style="font-size:8px;line-height:0%;font-family:'DejaVu Sans';fill:#111111"
   class="mod"
   aria-label="M4" />&#10;<path
   d="m 137.73437,162.94531 -1.07031,2.90235 h 2.14453 z m -0.44531,-0.77734 h 0.89453 L 140.40625,168 h -0.82031 l -0.53125,-1.49609 h -2.62891 L 135.89453,168 h -0.83203 z m 3.9375,-0.2461 h 0.71875 V 168 h -0.71875 z m 2.9336,0.46094 v 1.24219 h 1.48046 v 0.55859 h -1.48046 v 2.375 q 0,0.53516 0.14453,0.6875 0.14843,0.15235 0.59765,0.15235 h 0.73828 V 168 h -0.73828 q -0.83203,0 -1.14843,-0.30859 -0.31641,-0.3125 -0.31641,-1.13282 v -2.375 h -0.52734 V 163.625 h 0.52734 v -1.24219 z"
   id="altltxt"
   style="font-size:8px;line-height:0%;font-family:'DejaVu Sans';fill:#111111"
   class="mod"
   aria-label="Alt" />&#10;&#10;&#10;<path
   d="m 436.78516,90.167969 h 1.17578 l 1.48828,3.96875 1.49609,-3.96875 h 1.17578 V 96 h -0.76953 v -5.121094 l -1.5039,4 h -0.79297 l -1.50391,-4 V 96 h -0.76562 z m 9.36328,2.6875 q 0.5664,0.121093 0.88281,0.503906 0.32031,0.382812 0.32031,0.945312 0,0.863282 -0.59375,1.335938 -0.59375,0.472656 -1.6875,0.472656 -0.36719,0 -0.75781,-0.07422 -0.38672,-0.07031 -0.80078,-0.214843 V 95.0625 q 0.32812,0.191406 0.71875,0.289062 0.39062,0.09766 0.8164,0.09766 0.74219,0 1.12891,-0.292969 0.39063,-0.292969 0.39063,-0.851563 0,-0.515625 -0.36329,-0.804687 -0.35937,-0.292969 -1.0039,-0.292969 h -0.67969 v -0.648437 h 0.71094 q 0.58203,0 0.89062,-0.230469 0.3086,-0.234375 0.3086,-0.671875 0,-0.449219 -0.32032,-0.6875 -0.3164,-0.242188 -0.91015,-0.242188 -0.32422,0 -0.69531,0.07031 -0.3711,0.07031 -0.81641,0.21875 V 90.3125 q 0.44922,-0.125 0.83984,-0.1875 0.39453,-0.0625 0.74219,-0.0625 0.89844,0 1.42188,0.410156 0.52343,0.40625 0.52343,1.101563 0,0.484375 -0.27734,0.820312 -0.27734,0.332031 -0.78906,0.460938 z"
   id="m3rtxt"
   style="font-size:8px;line-height:0%;font-family:'DejaVu Sans';fill:#111111"
   class="mod"
   aria-label="M3" />&#10;&#10;&#10;<path
   d="m 456.58594,126.34375 -1.5586,-1.55859 -1.55859,1.55859 h 0.76758 v 6.07031 h 1.58203 v -6.07031 z m -4.53516,0.58594 2.97656,-2.97656 2.97657,2.97656 H 456.4043 V 133 h -2.75391 v -6.07031 z"
   id="shiftrtxt"
   style="font-size:12px;line-height:0%;font-family:'DejaVu Sans';fill:#111111"
   class="mod big"
   aria-label="⇧" />&#10;<path
   d="m 494.28125,162.35937 v 0.76954 q -0.44922,-0.21485 -0.84766,-0.32032 -0.39843,-0.10547 -0.76953,-0.10547 -0.64453,0 -0.99609,0.25 -0.34766,0.25 -0.34766,0.71094 0,0.38672 0.23047,0.58594 0.23438,0.19531 0.88281,0.31641 l 0.47657,0.0977 q 0.88281,0.16797 1.30078,0.59375 0.42187,0.42188 0.42187,1.13281 0,0.84766 -0.57031,1.28516 -0.56641,0.4375 -1.66406,0.4375 -0.41407,0 -0.88282,-0.0937 -0.46484,-0.0937 -0.96484,-0.27734 v -0.8125 q 0.48047,0.26953 0.94141,0.40625 0.46093,0.13672 0.90625,0.13672 0.67578,0 1.04297,-0.26563 0.36718,-0.26562 0.36718,-0.75781 0,-0.42969 -0.26562,-0.67188 -0.26172,-0.24218 -0.86328,-0.36328 l -0.48047,-0.0937 q -0.88281,-0.17578 -1.27735,-0.55078 -0.39453,-0.375 -0.39453,-1.04297 0,-0.77344 0.54297,-1.21875 0.54688,-0.44531 1.50391,-0.44531 0.41015,0 0.83594,0.0742 0.42578,0.0742 0.87109,0.22265 z m 2.26172,0.0234 v 1.24219 h 1.48047 v 0.55859 h -1.48047 v 2.375 q 0,0.53516 0.14453,0.6875 0.14844,0.15235 0.59766,0.15235 h 0.73828 V 168 h -0.73828 q -0.83204,0 -1.14844,-0.30859 -0.31641,-0.3125 -0.31641,-1.13282 v -2.375 h -0.52734 V 163.625 h 0.52734 v -1.24219 z m 4.96094,1.91406 q -0.1211,-0.0703 -0.26563,-0.10156 -0.14062,-0.0352 -0.3125,-0.0352 -0.60937,0 -0.9375,0.39843 -0.32422,0.39453 -0.32422,1.13672 V 168 h -0.72265 v -4.375 h 0.72265 v 0.67969 q 0.22656,-0.39844 0.58985,-0.58985 0.36328,-0.19531 0.88281,-0.19531 0.0742,0 0.16406,0.0117 0.0898,0.008 0.19922,0.0273 z m 3.49218,1.46485 q 0,-0.78125 -0.32422,-1.21094 -0.32031,-0.42969 -0.90234,-0.42969 -0.57812,0 -0.90234,0.42969 -0.32032,0.42969 -0.32032,1.21094 0,0.77734 0.32032,1.20703 0.32422,0.42969 0.90234,0.42969 0.58203,0 0.90234,-0.42969 0.32422,-0.42969 0.32422,-1.20703 z m 0.71875,1.69531 q 0,1.11719 -0.49609,1.66016 -0.49609,0.54687 -1.51953,0.54687 -0.37891,0 -0.71485,-0.0586 -0.33593,-0.0547 -0.65234,-0.17188 v -0.69922 q 0.31641,0.17188 0.625,0.25391 0.30859,0.082 0.62891,0.082 0.70703,0 1.05859,-0.37109 0.35156,-0.36719 0.35156,-1.11328 v -0.35547 q -0.22265,0.38672 -0.57031,0.57812 Q 504.07812,168 503.59375,168 q -0.80469,0 -1.29688,-0.61328 -0.49218,-0.61328 -0.49218,-1.625 0,-1.01563 0.49218,-1.62891 0.49219,-0.61328 1.29688,-0.61328 0.48437,0 0.83203,0.19141 0.34766,0.1914 0.57031,0.57812 V 163.625 h 0.71875 z"
   id="ctrlrtxt"
   style="font-size:8px;line-height:0%;font-family:'DejaVu Sans';fill:#111111"
   class="mod"
   aria-label="Strg" />&#10;<path
   d="m 357.78516,162.16797 h 1.17578 l 1.48828,3.96875 1.49609,-3.96875 h 1.17578 V 168 h -0.76953 v -5.12109 l -1.5039,4 h -0.79297 l -1.50391,-4 V 168 h -0.76562 z m 8.5664,1.96094 q -0.57812,0 -0.91406,0.45312 -0.33594,0.44922 -0.33594,1.23438 0,0.78515 0.33203,1.23828 0.33594,0.44922 0.91797,0.44922 0.57422,0 0.91016,-0.45313 0.33594,-0.45312 0.33594,-1.23437 0,-0.77735 -0.33594,-1.23047 -0.33594,-0.45703 -0.91016,-0.45703 z m 0,-0.60938 q 0.9375,0 1.47266,0.60938 0.53515,0.60937 0.53515,1.6875 0,1.07421 -0.53515,1.6875 -0.53516,0.60937 -1.47266,0.60937 -0.9414,0 -1.47656,-0.60937 -0.53125,-0.61329 -0.53125,-1.6875 0,-1.07813 0.53125,-1.6875 0.53516,-0.60938 1.47656,-0.60938 z m 6.07813,0.76953 v -2.36719 h 0.71875 V 168 h -0.71875 v -0.65625 q -0.22657,0.39062 -0.57422,0.58203 -0.34375,0.1875 -0.82813,0.1875 -0.79297,0 -1.29297,-0.63281 -0.49609,-0.63281 -0.49609,-1.66406 0,-1.03125 0.49609,-1.66407 0.5,-0.63281 1.29297,-0.63281 0.48438,0 0.82813,0.19141 0.34765,0.1875 0.57422,0.57812 z m -2.44922,1.52735 q 0,0.79296 0.32422,1.24609 0.32812,0.44922 0.89843,0.44922 0.57032,0 0.89844,-0.44922 0.32813,-0.45313 0.32813,-1.24609 0,-0.79297 -0.32813,-1.24219 -0.32812,-0.45313 -0.89844,-0.45313 -0.57031,0 -0.89843,0.45313 -0.32422,0.44922 -0.32422,1.24219 z m 6.91797,-2.96094 -1.99219,3.11328 h 1.99219 z m -0.20703,-0.6875 h 0.99218 v 3.80078 h 0.83203 v 0.65625 h -0.83203 V 168 h -0.78515 v -1.375 h -2.63282 v -0.76172 z"
   id="m4rtxt"
   style="font-size:8px;line-height:0%;font-family:'DejaVu Sans';fill:#111111"
   class="mod"
   aria-label="Mod4" />&#10;<path
   d="m 239.6582,162.16797 h 0.78907 v 5.16797 h 2.83984 V 168 h -3.62891 z m 8.02735,3.46484 v 0.35156 h -3.30469 q 0.0469,0.74219 0.44531,1.13282 0.40235,0.38672 1.11719,0.38672 0.41406,0 0.80078,-0.10157 0.39063,-0.10156 0.77344,-0.30468 v 0.67968 q -0.38672,0.16407 -0.79297,0.25 -0.40625,0.0859 -0.82422,0.0859 -1.04687,0 -1.66016,-0.60937 -0.60937,-0.60938 -0.60937,-1.64844 0,-1.07422 0.57812,-1.70313 0.58204,-0.63281 1.56641,-0.63281 0.88281,0 1.39453,0.57031 0.51563,0.56641 0.51563,1.54297 z m -0.71875,-0.21094 q -0.008,-0.58984 -0.33203,-0.9414 -0.32032,-0.35156 -0.85157,-0.35156 -0.60156,0 -0.96484,0.33984 -0.35938,0.33984 -0.41406,0.95703 z m 5.64062,0.21094 v 0.35156 h -3.30469 q 0.0469,0.74219 0.44532,1.13282 0.40234,0.38672 1.11718,0.38672 0.41407,0 0.80079,-0.10157 0.39062,-0.10156 0.77343,-0.30468 v 0.67968 q -0.38672,0.16407 -0.79297,0.25 -0.40625,0.0859 -0.82421,0.0859 -1.04688,0 -1.66016,-0.60937 -0.60938,-0.60938 -0.60938,-1.64844 0,-1.07422 0.57813,-1.70313 0.58203,-0.63281 1.56641,-0.63281 0.88281,0 1.39453,0.57031 0.51562,0.56641 0.51562,1.54297 z m -0.71875,-0.21094 q -0.008,-0.58984 -0.33203,-0.9414 -0.32031,-0.35156 -0.85156,-0.35156 -0.60156,0 -0.96485,0.33984 -0.35937,0.33984 -0.41406,0.95703 z m 4.4336,-1.125 q -0.1211,-0.0703 -0.26563,-0.10156 -0.14062,-0.0352 -0.3125,-0.0352 -0.60937,0 -0.9375,0.39843 -0.32422,0.39453 -0.32422,1.13672 V 168 h -0.72265 v -4.375 h 0.72265 v 0.67969 q 0.22656,-0.39844 0.58985,-0.58985 0.36328,-0.19531 0.88281,-0.19531 0.0742,0 0.16406,0.0117 0.0898,0.008 0.19922,0.0273 z m 0.4414,-0.67187 h 3.41406 v 0.65625 l -2.70312,3.14453 h 2.70312 V 168 h -3.51171 v -0.65625 l 2.70312,-3.14453 h -2.60547 z m 8.25391,2.00781 v 0.35156 h -3.30469 q 0.0469,0.74219 0.44531,1.13282 0.40235,0.38672 1.11719,0.38672 0.41406,0 0.80078,-0.10157 0.39063,-0.10156 0.77344,-0.30468 v 0.67968 q -0.38672,0.16407 -0.79297,0.25 -0.40625,0.0859 -0.82422,0.0859 -1.04687,0 -1.66015,-0.60937 -0.60938,-0.60938 -0.60938,-1.64844 0,-1.07422 0.57813,-1.70313 0.58203,-0.63281 1.5664,-0.63281 0.88281,0 1.39453,0.57031 0.51563,0.56641 0.51563,1.54297 z m -0.71875,-0.21094 q -0.008,-0.58984 -0.33203,-0.9414 -0.32032,-0.35156 -0.85157,-0.35156 -0.60156,0 -0.96484,0.33984 -0.35937,0.33984 -0.41406,0.95703 z m 1.89844,-1.79687 h 0.71875 V 168 h -0.71875 z m 0,-1.70313 h 0.71875 v 0.91016 h -0.71875 z m 5.37109,1.8711 v 0.67187 q -0.30469,-0.16797 -0.61328,-0.25 -0.30469,-0.0859 -0.61719,-0.0859 -0.69922,0 -1.08594,0.44531 -0.38672,0.4414 -0.38672,1.24219 0,0.80078 0.38672,1.24609 0.38672,0.44141 1.08594,0.44141 0.3125,0 0.61719,-0.082 0.30859,-0.0859 0.61328,-0.2539 v 0.66406 q -0.30078,0.14063 -0.625,0.21094 -0.32031,0.0703 -0.68359,0.0703 -0.98829,0 -1.57032,-0.62109 -0.58203,-0.6211 -0.58203,-1.67578 0,-1.07032 0.58594,-1.6836 0.58984,-0.61328 1.61328,-0.61328 0.33203,0 0.64844,0.0703 0.3164,0.0664 0.61328,0.20313 z m 4.88672,1.5664 V 168 h -0.71875 v -2.61719 q 0,-0.62109 -0.24219,-0.92969 -0.24219,-0.30859 -0.72656,-0.30859 -0.58203,0 -0.91797,0.37109 -0.33594,0.3711 -0.33594,1.01172 V 168 h -0.72265 v -6.07813 h 0.72265 v 2.38282 q 0.25781,-0.39453 0.60547,-0.58985 0.35156,-0.19531 0.80859,-0.19531 0.75391,0 1.14063,0.46875 0.38672,0.46484 0.38672,1.37109 z m 5.17578,0.27344 v 0.35156 h -3.30469 q 0.0469,0.74219 0.44531,1.13282 0.40235,0.38672 1.11719,0.38672 0.41406,0 0.80078,-0.10157 0.39063,-0.10156 0.77344,-0.30468 v 0.67968 q -0.38672,0.16407 -0.79297,0.25 -0.40625,0.0859 -0.82422,0.0859 -1.04687,0 -1.66015,-0.60937 -0.60938,-0.60938 -0.60938,-1.64844 0,-1.07422 0.57813,-1.70313 0.58203,-0.63281 1.5664,-0.63281 0.88282,0 1.39453,0.57031 0.51563,0.56641 0.51563,1.54297 z m -0.71875,-0.21094 q -0.008,-0.58984 -0.33203,-0.9414 -0.32031,-0.35156 -0.85156,-0.35156 -0.60157,0 -0.96485,0.33984 -0.35937,0.33984 -0.41406,0.95703 z m 5.53516,-0.0625 V 168 h -0.71875 v -2.61719 q 0,-0.62109 -0.24219,-0.92969 -0.24219,-0.30859 -0.72656,-0.30859 -0.58204,0 -0.91797,0.37109 -0.33594,0.3711 -0.33594,1.01172 V 168 h -0.72266 v -4.375 h 0.72266 v 0.67969 q 0.25781,-0.39453 0.60547,-0.58985 0.35156,-0.19531 0.80859,-0.19531 0.75391,0 1.14063,0.46875 0.38672,0.46484 0.38672,1.37109 z"
   id="text61"
   style="font-size:8px;line-height:0%;font-family:'DejaVu Sans';text-align:center;text-anchor:middle;fill:#111111"
   class="mod space"
   aria-label="Leerzeichen" />&#10;&#10;<path
   d="m 498.29883,61.214844 -2.97656,-2.976563 2.97656,-2.976562 v 1.599609 h 3.32226 v -3.609375 h 2.75391 l -0.006,6.363281 h -6.07031 z m -0.58594,-3.767578 v -0.767579 l -1.55859,1.558594 1.55859,1.558594 v -0.767578 h 6.07031 l 0.006,-5.191406 h -1.58203 l -0.006,3.609375 z"
   id="returntxt"
   style="font-size:12px;line-height:0%;font-family:'DejaVu Sans';fill:#111111"
   class="mod big"
   aria-label="⏎" />&#10;<path
   d="m 490.70312,23 h -7.66015 l -3.03906,-3.039063 3.03906,-3.039062 h 7.66015 z M 490.125,17.5 h -0.55078 l -2.46094,2.460937 2.46094,2.460938 h 0.55078 z m -5.47656,0 2.05078,2.050781 L 488.75,17.5 Z m 4.10156,4.921875 -2.05078,-2.050781 -2.05078,2.050781 z M 483.83594,17.5 h -0.55469 l -2.46094,2.46875 2.46094,2.453125 h 0.55469 l 2.46093,-2.460938 z"
   id="backspacetxt"
   style="font-size:8px;line-height:0%;font-family:'DejaVu Sans';fill:#111111"
   class="mod"
   aria-label="⌫" />&#10;</g>&#10;&#10;<g
   transform="translate(55,26)"
   id="g72">&#10;	<path
   d="m -2.2368164,-6.8378906 h 1.79296874 v -5.3701174 l -1.95996094,0.360352 v -1.019532 l 2.02148438,-0.342773 h 1.20410156 v 6.3720704 H 2.6235352 v 0.9667969 h -4.8603516 z"
   id="text62"
   style="font-size:18px;line-height:0%;font-family:'DejaVu Sans';text-align:center;text-anchor:middle;fill:#111111;stroke-width:0.75"
   class="key"
   aria-label="¹" />&#10;	<path
   d="m 34.747559,-6.8730469 h 3.726562 v 1.0019532 h -5.255859 v -0.9667969 q 0.298828,-0.272461 0.852539,-0.7646485 3.023437,-2.6806639 3.023437,-3.5068359 0,-0.580078 -0.457031,-0.931641 -0.457031,-0.360351 -1.204102,-0.360351 -0.457031,0 -0.993164,0.158203 -0.536132,0.149414 -1.168945,0.457031 v -1.081055 q 0.676758,-0.246093 1.256836,-0.36914 0.588867,-0.123047 1.089844,-0.123047 1.274414,0 2.039062,0.580078 0.764649,0.580078 0.764649,1.529297 0,1.22168 -2.90918,3.7177734 -0.492187,0.421875 -0.764648,0.6591797 z"
   id="text63"
   style="font-size:18px;line-height:0%;font-family:'DejaVu Sans';text-align:center;text-anchor:middle;fill:#111111;stroke-width:0.75"
   class="key"
   aria-label="²" />&#10;	<path
   d="m 72.997559,-9.84375 q 0.808593,0.1582031 1.248046,0.6416016 0.448243,0.4746093 0.448243,1.1953125 0,1.0898437 -0.834961,1.6787109 -0.834961,0.5888672 -2.390625,0.5888672 -0.500977,0 -1.054688,-0.087891 -0.544922,-0.09668 -1.160156,-0.272461 v -1.0634765 q 0.457031,0.2373047 0.975586,0.3515625 0.527344,0.1142578 1.116211,0.1142578 0.958008,0 1.485351,-0.3427735 0.527344,-0.3515625 0.527344,-0.9667968 0,-0.6503907 -0.492187,-0.984375 -0.483399,-0.3339844 -1.432618,-0.3339844 h -0.755859 v -0.9492187 h 0.826172 q 0.826172,0 1.248047,-0.272461 0.430664,-0.28125 0.430664,-0.808594 0,-0.509765 -0.439453,-0.773437 -0.439453,-0.272461 -1.274414,-0.272461 -0.351563,0 -0.799805,0.0791 -0.448242,0.0791 -1.160156,0.28125 v -1.010742 q 0.641601,-0.149414 1.204101,-0.228515 0.5625,-0.0791 1.045899,-0.0791 1.265625,0 2.003906,0.518555 0.74707,0.518554 0.74707,1.388672 0,0.606445 -0.395507,1.02832 -0.395508,0.421875 -1.116211,0.580078 z"
   id="text64"
   style="font-size:18px;line-height:0%;font-family:'DejaVu Sans';text-align:center;text-anchor:middle;fill:#111111;stroke-width:0.75"
   class="key"
   aria-label="³" />&#10;	<path
   d="m 106.09717,-9.3076172 4.12207,3.6738281 v 0.7207032 l -4.12207,3.6738281 v -1.678711 l 2.64551,-2.3554687 -2.64551,-2.3554687 z"
   id="text65"
   style="font-size:18px;line-height:0%;font-family:'DejaVu Sans';text-align:center;text-anchor:middle;fill:#111111;stroke-width:0.75"
   class="key"
   aria-label="›" />&#10;	<path
   d="m 145.91162,-9.3076172 v 1.678711 l -2.64551,2.3554687 2.64551,2.3554687 v 1.678711 l -4.12207,-3.6738281 v -0.7207032 z"
   id="text66"
   style="font-size:18px;line-height:0%;font-family:'DejaVu Sans';text-align:center;text-anchor:middle;fill:#111111;stroke-width:0.75"
   class="key"
   aria-label="‹" />&#10;&#10;	<path
   d="m 180.23291,-1.1513672 v -7.5234375 q -1.29199,0.1582031 -2.0127,1.1513672 -0.7207,0.9931641 -0.7207,2.6103516 0,1.6259765 0.7207,2.6191406 0.72071,0.9931641 2.0127,1.1425781 z m 3.34863,-8.3144531 v 1.5117187 q -0.65039,-0.3603515 -1.24804,-0.5449218 -0.59766,-0.1845704 -1.19532,-0.2109375 l -0.009,7.59375 q 0.61524,-0.043945 1.2129,-0.2285157 0.60644,-0.1845703 1.23925,-0.5273437 v 1.49414061 q -0.57129,0.26367188 -1.17773,0.41308594 -0.59766,0.15820312 -1.27442,0.21972656 V 2.7509766 h -0.89648 V 0.21972656 q -2.11816,-0.17578125 -3.28711,-1.52050776 -1.16016,-1.3535157 -1.16016,-3.6123047 0,-2.2675782 1.16016,-3.6123047 1.16895,-1.3447266 3.28711,-1.5380864 v -2.522461 h 0.89648 l 0.009,2.522461 q 0.64161,0.03516 1.23926,0.1845707 0.60645,0.140625 1.2041,0.413086 z"
   id="text67"
   style="font-size:18px;line-height:0%;font-family:'DejaVu Sans';text-align:center;text-anchor:middle;fill:#111111;stroke-width:0.75"
   class="key"
   aria-label="¢" />&#10;	<path
   d="M 220.51318,-3.9990234 H 216.8833 V 0 h -1.7666 v -3.9990234 h -3.65625 v -1.0810547 h 3.65625 v -0.4482422 l -0.73828,-1.3623047 h -2.91797 v -1.0810547 h 2.32031 l -2.78613,-5.1503903 h 1.66992 l 3.33106,6.1523434 3.31347,-6.1523434 h 1.67871 l -2.79492,5.1503903 h 2.32031 V -6.890625 H 217.604 l -0.73828,1.3623047 v 0.4482422 h 3.64746 z"
   id="text68"
   style="font-size:18px;line-height:0%;font-family:'DejaVu Sans';text-align:center;text-anchor:middle;fill:#111111;stroke-width:0.75"
   class="key"
   aria-label="¥" />&#10;	<path
   d="m 251.38916,-2.2324219 h 1.85449 v 1.51171878 l -1.4414,2.81250002 h -1.13379 l 0.7207,-2.81250002 z"
   id="text69"
   style="font-size:18px;line-height:0%;font-family:'DejaVu Sans';text-align:center;text-anchor:middle;fill:#111111;stroke-width:0.75"
   class="key"
   aria-label="‚" />&#10;	<path
   d="m 288.52295,-8.7978516 h -1.85449 v -1.5205074 l 1.4414,-2.803711 h 1.13379 l -0.7207,2.803711 z"
   id="text70"
   style="font-size:18px;line-height:0%;font-family:'DejaVu Sans';text-align:center;text-anchor:middle;fill:#111111;stroke-width:0.75"
   class="key"
   aria-label="‘" />&#10;	<path
   d="m 323.42432,-13.12207 h 1.85449 v 1.335937 l -1.44141,2.8037111 h -1.13379 l 0.72071,-2.8037111 z"
   id="text71"
   style="font-size:18px;line-height:0%;font-family:'DejaVu Sans';text-align:center;text-anchor:middle;fill:#111111;stroke-width:0.75"
   class="key"
   aria-label="’" />&#10;	<text
   x="360"
   class="key"
   id="text72" />&#10;</g>&#10;&#10;&#10;<path
   d="m 10.685547,55.740234 h 6.105469 l -1.371094,-1.371093 0.703125,-0.703125 2.308594,2.308593 v -2.25 h 0.996093 v 5.039063 h -0.996093 v -2.261719 l -2.308594,2.308594 -0.703125,-0.703125 1.371094,-1.371094 h -6.105469 z"
   id="text73"
   style="font-size:12px;line-height:0%;font-family:'DejaVu Sans';fill:#111111"
   class="mod big"
   aria-label="⇥" />&#10;&#10;<g
   transform="translate(73,62)"
   id="g85">&#10;	<path
   d="M -0.93164063,-2.2324219 H 0.93164063 V 0 h -1.86328126 z m 5.98535153,0 H 6.9257812 V 0 H 5.0537109 Z m -11.9794921,0 h 1.8720703 V 0 h -1.8720703 z"
   id="text74"
   style="font-size:18px;line-height:0%;font-family:'DejaVu Sans';text-align:center;text-anchor:middle;fill:#111111;stroke-width:0.75"
   class="key"
   aria-label="…" />&#10;	<path
   d="M 40.675781,2.9882813 V 4.2451172 H 31.324219 V 2.9882813 Z"
   id="text75"
   style="font-size:18px;line-height:0%;font-family:'DejaVu Sans';text-align:center;text-anchor:middle;fill:#111111;stroke-width:0.75"
   class="key"
   aria-label="_" />&#10;	<path
   d="m 70.035645,-13.675781 h 3.726562 v 1.256836 H 71.652832 V 1.1162109 h 2.109375 v 1.256836 h -3.726562 z"
   id="text76"
   style="font-size:18px;line-height:0%;font-family:'DejaVu Sans';text-align:center;text-anchor:middle;fill:#111111;stroke-width:0.75"
   class="key"
   aria-label="[" />&#10;	<path
   d="M 109.96436,-13.675781 V 2.3730469 h -3.72657 v -1.256836 h 2.10059 V -12.418945 h -2.10059 v -1.256836 z"
   id="text77"
   style="font-size:18px;line-height:0%;font-family:'DejaVu Sans';text-align:center;text-anchor:middle;fill:#111111;stroke-width:0.75"
   class="key"
   aria-label="]" />&#10;	<path
   d="m 144.86133,-13.12207 4.77246,4.8955075 h -1.7666 L 144,-11.698242 l -3.86719,3.4716795 h -1.7666 l 4.77246,-4.8955075 z"
   id="text78"
   style="font-size:18px;line-height:0%;font-family:'DejaVu Sans';text-align:center;text-anchor:middle;fill:#111111;stroke-width:0.75"
   class="key"
   aria-label="^" />&#10;&#10;	<path
   d="m 179.10791,-2.2324219 h 1.78418 V 0 h -1.78418 z m 0,-10.8896481 h 1.78418 v 5.7568356 l -0.17578,3.1376953 h -1.42383 l -0.18457,-3.1376953 z"
   id="text79"
   style="font-size:18px;line-height:0%;font-family:'DejaVu Sans';text-align:center;text-anchor:middle;fill:#111111;stroke-width:0.75"
   class="key"
   aria-label="!" />&#10;	<path
   d="m 221.63379,-8.859375 -9.07031,3.2255859 9.07031,3.2080078 v 1.59960942 L 210.36621,-4.9130859 v -1.4589844 l 11.26758,-4.0869137 z"
   id="text80"
   style="font-size:18px;line-height:0%;font-family:'DejaVu Sans';text-align:center;text-anchor:middle;fill:#111111;stroke-width:0.75"
   class="key"
   aria-label="&lt;" />&#10;	<path
   d="m 246.36621,-8.859375 v -1.599609 l 11.26758,4.0869137 v 1.4589844 l -11.26758,4.08691402 V -2.4257813 l 9.05274,-3.2080078 z"
   id="text81"
   style="font-size:18px;line-height:0%;font-family:'DejaVu Sans';text-align:center;text-anchor:middle;fill:#111111;stroke-width:0.75"
   class="key"
   aria-label="&gt;" />&#10;	<path
   d="m 282.36621,-8.1738281 h 11.26758 v 1.4765625 h -11.26758 z m 0,3.5859375 h 11.26758 V -3.09375 h -11.26758 z"
   id="text82"
   style="font-size:18px;line-height:0%;font-family:'DejaVu Sans';text-align:center;text-anchor:middle;fill:#111111;stroke-width:0.75"
   class="key"
   aria-label="=" />&#10;	<path
   d="m 321.35889,-7.0576172 q -0.79981,0.7119141 -1.17774,1.4238281 -0.36914,0.703125 -0.36914,1.4765625 0,1.2832032 0.93164,2.1357422 0.93164,0.8525391 2.33789,0.8525391 0.83496,0 1.56446,-0.2724609 0.72949,-0.28125 1.37109,-0.8437501 z m 1.23925,-0.984375 4.46485,4.5703125 q 0.51855,-0.7822265 0.80859,-1.6699219 0.29004,-0.8964843 0.34278,-1.8984375 h 1.63476 q -0.10547,1.1601563 -0.5625,2.2939454 -0.45703,1.133789 -1.27441,2.2412109 L 330.46436,0 h -2.21485 l -1.25683,-1.2919922 q -0.91407,0.78222658 -1.91602,1.16894533 -1.00195,0.37792968 -2.15332,0.37792968 -2.11816,0 -3.46289,-1.20410156 -1.34473,-1.21289065 -1.34473,-3.10253905 0,-1.125 0.58887,-2.109375 0.58887,-0.9931641 1.7666,-1.8632813 -0.42187,-0.5537109 -0.6416,-1.0986328 -0.21973,-0.5537109 -0.21973,-1.0810551 0,-1.423828 0.97559,-2.285156 0.97559,-0.870117 2.59277,-0.870117 0.72949,0 1.4502,0.158203 0.72949,0.158203 1.47656,0.474609 v 1.59961 q -0.76465,-0.413086 -1.45898,-0.624024 -0.69434,-0.219726 -1.292,-0.219726 -0.92285,0 -1.50293,0.492187 -0.57128,0.483399 -0.57128,1.256836 0,0.4482425 0.25488,0.9052737 0.26367,0.4482422 1.06347,1.2744141 z"
   id="text83"
   style="font-size:18px;line-height:0%;font-family:'DejaVu Sans';text-align:center;text-anchor:middle;fill:#111111;stroke-width:0.75"
   class="key"
   aria-label="&amp;" />&#10;	<path
   d="m 357.69727,-4.7197266 q 0,1.256836 0.62402,1.9775391 0.62402,0.7119141 1.71387,0.7119141 1.08105,0 1.69629,-0.7207032 0.62402,-0.7207031 0.62402,-1.96875 0,-1.2304687 -0.63281,-1.9511718 -0.63282,-0.7294922 -1.70508,-0.7294922 -1.06348,0 -1.69629,0.7207031 -0.62402,0.7207031 -0.62402,1.9599609 z m 4.79003,2.6279297 q -0.52734,0.6767578 -1.21289,1.0019532 -0.67675,0.3164062 -1.58203,0.3164062 -1.51172,0 -2.46093,-1.0898437 -0.94043,-1.0986329 -0.94043,-2.8564454 0,-1.7578125 0.94921,-2.8564453 0.94922,-1.0986328 2.45215,-1.0986328 0.90528,0 1.59082,0.3339844 0.68555,0.3251953 1.2041,0.9931641 v -1.1513672 h 1.25684 v 6.46875 q 1.2832,-0.1933594 2.00391,-1.1689454 0.72949,-0.9843749 0.72949,-2.540039 0,-0.9404297 -0.28125,-1.7666016 -0.27246,-0.8261719 -0.83496,-1.5292969 -0.91406,-1.1513667 -2.23242,-1.7578127 -1.30957,-0.615234 -2.85645,-0.615234 -1.08105,0 -2.07422,0.290039 -0.99316,0.28125 -1.83691,0.84375 -1.37988,0.8964843 -2.16211,2.3554687 -0.77344,1.4501953 -0.77344,3.1464844 0,1.3974609 0.50098,2.6191406 0.50976,1.22167967 1.46777,2.1533203 0.92285,0.9140625 2.13574,1.3886719 1.21289,0.4833984 2.59278,0.4833984 1.13379,0 2.22363,-0.3867187 1.09863,-0.3779297 2.01269,-1.08984379 l 0.79102,0.97558589 q -1.09863,0.8525391 -2.39941,1.3007813 -1.292,0.4570313 -2.62793,0.4570313 -1.62598,0 -3.06739,-0.5800782 -1.4414,-0.571289 -2.5664,-1.66992185 -1.125,-1.09863281 -1.71387,-2.54003905 -0.58887,-1.4501953 -0.58887,-3.1113281 0,-1.5996094 0.59766,-3.0498047 0.59766,-1.4501953 1.70508,-2.5488284 1.13379,-1.116211 2.61914,-1.705078 1.48535,-0.597656 3.14648,-0.597656 1.86328,0 3.4541,0.764648 1.59961,0.764649 2.68067,2.1708987 0.65918,0.8613282 1.00195,1.8720704 0.35156,1.0107422 0.35156,2.0917968 0,2.3115235 -1.39746,3.647461 -1.39746,1.33593748 -3.8584,1.38867185 z"
   id="text84"
   style="font-size:18px;line-height:0%;font-family:'DejaVu Sans';text-align:center;text-anchor:middle;fill:#111111;stroke-width:0.75"
   class="key"
   aria-label="@" />&#10;&#10;  <path
   d="m 396.41748,0 h -1.62598 v -8.5869141 h -1.54687 V -9.84375 h 1.54687 v -0.685547 q 0,-1.643555 0.76465,-2.390625 0.76465,-0.755859 2.42578,-0.755859 h 1.5293 v 1.344726 h -1.54687 q -0.87012,0 -1.2129,0.351563 -0.33398,0.360351 -0.33398,1.265625 z"
   id="text85"
   style="font-size:18px;line-height:0%;font-family:'DejaVu Sans';text-align:center;text-anchor:middle;fill:#111111;stroke-width:0.75"
   class="key"
   aria-label="ſ" />&#10;&#10;</g>&#10;&#10;&#10;<g
   transform="translate(84,98)"
   id="g95">&#10;	<path
   d="M -1.5380859,-13.12207 3.0322266,1.6699219 H 1.5380859 L -3.0322266,-13.12207 Z"
   id="text86"
   style="font-size:18px;line-height:0%;font-family:'DejaVu Sans';text-align:center;text-anchor:middle;fill:#111111;stroke-width:0.75"
   class="key"
   aria-label="\" />&#10;	<path
   d="m 37.538086,-13.12207 h 1.494141 L 34.461914,1.6699219 h -1.494141 z"
   id="text87"
   style="font-size:18px;line-height:0%;font-family:'DejaVu Sans';text-align:center;text-anchor:middle;fill:#111111;stroke-width:0.75"
   class="key"
   aria-label="/" />&#10;	<path
   d="m 75.476074,1.6699219 v 1.265625 h -0.544922 q -2.188476,0 -2.935547,-0.6503906 -0.738281,-0.6503907 -0.738281,-2.59277349 V -2.4082031 q 0,-1.3271485 -0.474609,-1.8369141 -0.47461,-0.5097656 -1.722656,-0.5097656 h -0.536133 v -1.2568359 h 0.536133 q 1.256836,0 1.722656,-0.5009766 0.474609,-0.5097656 0.474609,-1.819336 v -2.1093747 q 0,-1.942383 0.738281,-2.583985 0.747071,-0.65039 2.935547,-0.65039 h 0.544922 v 1.256836 h -0.597656 q -1.239258,0 -1.617188,0.386718 -0.377929,0.386719 -0.377929,1.625977 v 2.1796875 q 0,1.3798828 -0.404297,2.0039063 -0.395508,0.6240234 -1.362305,0.84375 0.975586,0.2373046 1.371094,0.8613281 0.395508,0.6240234 0.395508,1.9951172 v 2.17968746 q 0,1.23925782 0.377929,1.62597654 0.37793,0.3867188 1.617188,0.3867188 z"
   id="text88"
   style="font-size:18px;line-height:0%;font-family:'DejaVu Sans';text-align:center;text-anchor:middle;fill:#111111;stroke-width:0.75"
   class="key"
   aria-label="{" />&#10;	<path
   d="m 104.52393,1.6699219 h 0.61523 q 1.23047,0 1.59961,-0.3779297 0.37793,-0.3779297 0.37793,-1.63476564 V -2.5224609 q 0,-1.3710938 0.39551,-1.9951172 0.3955,-0.6240235 1.37109,-0.8613281 -0.97559,-0.2197266 -1.37109,-0.84375 -0.39551,-0.6240235 -0.39551,-2.0039063 V -10.40625 q 0,-1.248047 -0.37793,-1.625977 -0.36914,-0.386718 -1.59961,-0.386718 h -0.61523 v -1.256836 h 0.55371 q 2.18847,0 2.91797,0.65039 0.73828,0.641602 0.73828,2.583985 v 2.1093747 q 0,1.3095704 0.47461,1.819336 0.47461,0.5009766 1.72265,0.5009766 h 0.54492 v 1.2568359 h -0.54492 q -1.24804,0 -1.72265,0.5097656 -0.47461,0.5097656 -0.47461,1.8369141 v 2.10058591 q 0,1.94238279 -0.73828,2.59277349 -0.7295,0.6503906 -2.91797,0.6503906 h -0.55371 z"
   id="text89"
   style="font-size:18px;line-height:0%;font-family:'DejaVu Sans';text-align:center;text-anchor:middle;fill:#111111;stroke-width:0.75"
   class="key nubkey"
   aria-label="}" />&#10;	<path
   d="m 147.96387,-10.959961 -3.15528,1.7050782 3.15528,1.7138672 -0.50977,0.8613281 -2.95312,-1.7841797 v 3.3134766 h -1.00196 v -3.3134766 l -2.95312,1.7841797 -0.50977,-0.8613281 3.15528,-1.7138672 -3.15528,-1.7050782 0.50977,-0.870117 2.95312,1.78418 v -3.313477 h 1.00196 v 3.313477 l 2.95312,-1.78418 z"
   id="text90"
   style="font-size:18px;line-height:0%;font-family:'DejaVu Sans';text-align:center;text-anchor:middle;fill:#111111;stroke-width:0.75"
   class="key"
   aria-label="*" />&#10;&#10;	<path
   d="m 178.65967,-2.2324219 h 1.78418 V 0 h -1.78418 z m 1.73144,-1.2919922 h -1.67871 v -1.3535156 q 0,-0.8876953 0.2461,-1.4589844 0.24609,-0.571289 1.03711,-1.3271484 l 0.79101,-0.7822266 q 0.50098,-0.4658203 0.7207,-0.8789062 0.22852,-0.413086 0.22852,-0.8437497 0,-0.782227 -0.58008,-1.265625 -0.57129,-0.483399 -1.52051,-0.483399 -0.69433,0 -1.48535,0.307617 -0.78222,0.307618 -1.63476,0.896485 v -1.652344 q 0.82617,-0.500977 1.66992,-0.74707 0.85254,-0.246094 1.75781,-0.246094 1.61719,0 2.59277,0.852539 0.98438,0.852539 0.98438,2.25 0,0.6679688 -0.31641,1.2744141 -0.3164,0.5976563 -1.10742,1.3535157 l -0.77344,0.7558593 q -0.41308,0.413086 -0.58886,0.6503907 -0.167,0.2285156 -0.23731,0.4482421 -0.0527,0.1845704 -0.0791,0.4482422 -0.0264,0.2636719 -0.0264,0.7207032 z"
   id="text91"
   style="font-size:18px;line-height:0%;font-family:'DejaVu Sans';text-align:center;text-anchor:middle;fill:#111111;stroke-width:0.75"
   class="key"
   aria-label="?" />&#10;	<path
   d="m 218.06982,-13.658203 q -1.17773,2.021484 -1.74902,3.9990233 -0.57129,1.9775391 -0.57129,4.0078125 0,2.0302734 0.57129,4.0253906 0.58008,1.98632816 1.74902,3.9990235 h -1.40625 q -1.31836,-2.06542971 -1.97753,-4.0605469 -0.6504,-1.9951172 -0.6504,-3.9638672 0,-1.9599609 0.6504,-3.9462891 0.65039,-1.9863277 1.97753,-4.0605467 z"
   id="text92"
   style="font-size:18px;line-height:0%;font-family:'DejaVu Sans';text-align:center;text-anchor:middle;fill:#111111;stroke-width:0.75"
   class="key nubkey"
   aria-label="(" />&#10;	<path
   d="m 249.93018,-13.658203 h 1.40625 q 1.31836,2.074219 1.96875,4.0605467 0.65918,1.9863282 0.65918,3.9462891 0,1.96875 -0.65918,3.9638672 -0.65039,1.99511719 -1.96875,4.0605469 h -1.40625 q 1.16894,-2.01269534 1.74023,-3.9990235 0.58008,-1.9951172 0.58008,-4.0253906 0,-2.0302734 -0.58008,-4.0078125 -0.57129,-1.9775393 -1.74023,-3.9990233 z"
   id="text93"
   style="font-size:18px;line-height:0%;font-family:'DejaVu Sans';text-align:center;text-anchor:middle;fill:#111111;stroke-width:0.75"
   class="key"
   aria-label=")" />&#10;	<path
   d="m 285.63135,-5.6513672 h 4.7373 v 1.4414063 h -4.7373 z"
   id="text94"
   style="font-size:18px;line-height:0%;font-family:'DejaVu Sans';text-align:center;text-anchor:middle;fill:#111111;stroke-width:0.75"
   class="key"
   aria-label="-" />&#10;	<path
   d="m 323.07715,-2.2324219 h 1.85449 V 0 h -1.85449 z m 0,-7.0751953 h 1.85449 v 2.2324219 h -1.85449 z"
   id="text95"
   style="font-size:18px;line-height:0%;font-family:'DejaVu Sans';text-align:center;text-anchor:middle;fill:#111111;stroke-width:0.75"
   class="key"
   aria-label=":" />&#10;&#10;  &#10;&#10;</g>&#10;&#10;<g
   transform="translate(101,134)"
   id="g105">&#10;    <path
   d="m 1.6611328,-7.9189453 h -2.55761718 l -0.73828122,2.9355469 h 2.57519529 z m -1.31835936,-5.0009767 -0.9140625,3.6474611 H 1.9951172 l 0.9228516,-3.6474611 h 1.4062499 l -0.9052734,3.6474611 h 2.7421875 v 1.3535156 H 3.0761719 l -0.7207031,2.9355469 h 2.7949218 v 1.3447265 H 2.0126953 L 1.0986328,0 H -0.30761719 L 0.59765625,-3.6386719 H -1.9775391 L -2.8828125,0 h -1.4150391 l 0.9140625,-3.6386719 h -2.7685546 v -1.3447265 h 3.0937499 l 0.7382813,-2.9355469 h -2.8300781 v -1.3535156 h 3.1728515 l 0.8964844,-3.6474611 z"
   id="text96"
   style="font-size:18px;line-height:0%;font-family:'DejaVu Sans';text-align:center;text-anchor:middle;fill:#111111;stroke-width:0.75"
   class="key"
   aria-label="#" />&#10;    <path
   d="M 36.355957,2.6455078 H 35.477051 L 35.468262,0 Q 34.54541,-0.01757813 33.622559,-0.2109375 32.699707,-0.41308594 31.768066,-0.80859375 V -2.390625 q 0.896485,0.5625 1.810547,0.8525391 0.922852,0.28125 1.898438,0.290039 v -4.0078125 q -1.942383,-0.3164062 -2.830078,-1.0722656 -0.878907,-0.7558594 -0.878907,-2.0742188 0,-1.4326171 0.958008,-2.2587892 0.958008,-0.826172 2.750977,-0.949219 v -2.065429 h 0.878906 v 2.039062 q 0.817383,0.03516 1.582031,0.175781 0.764649,0.131836 1.494141,0.369141 v 1.5380861 q -0.729492,-0.3691407 -1.50293,-0.5712891 -0.764648,-0.202148 -1.573242,-0.237305 v 3.75293 q 1.995117,0.3076172 2.935547,1.0986328 0.94043,0.7910156 0.94043,2.1621094 0,1.4853516 -1.001954,2.3466797 -0.993164,0.85253904 -2.874023,0.98437497 z m -0.878906,-9.4130859 v -3.6035159 q -1.019531,0.114258 -1.555664,0.5800784 -0.536133,0.4658203 -0.536133,1.2392578 0,0.7558594 0.492187,1.1777344 0.500977,0.421875 1.59961,0.6064453 z m 0.878906,1.6875 v 3.805664 q 1.116211,-0.149414 1.678711,-0.6328125 0.571289,-0.4833984 0.571289,-1.274414 0,-0.7734375 -0.544922,-1.2304688 -0.536133,-0.4570312 -1.705078,-0.6679687 z"
   id="text97"
   style="font-size:18px;line-height:0%;font-family:'DejaVu Sans';text-align:center;text-anchor:middle;fill:#111111;stroke-width:0.75"
   class="key"
   aria-label="$" />&#10;    <path
   d="M 72.74707,-13.754883 V 4.2451172 H 71.25293 V -13.754883 Z"
   id="text98"
   style="font-size:18px;line-height:0%;font-family:'DejaVu Sans';text-align:center;text-anchor:middle;fill:#111111;stroke-width:0.75"
   class="key"
   aria-label="|" />&#10;    <path
   d="m 113.63379,-7.1806641 v 1.5644532 q -0.92285,0.6943359 -1.71387,0.993164 -0.78222,0.2988282 -1.63476,0.2988282 -0.9668,0 -2.25,-0.5185547 -0.0967,-0.035156 -0.14063,-0.052734 -0.0615,-0.026367 -0.19336,-0.070312 -1.3623,-0.5449219 -2.18847,-0.5449219 -0.77344,0 -1.5293,0.3427735 -0.75586,0.3339843 -1.61719,1.0634765 v -1.5644531 q 0.92285,-0.6943359 1.70508,-0.9931641 0.79101,-0.3076172 1.64355,-0.3076172 0.9668,0 2.25879,0.5273438 0.0879,0.035156 0.13184,0.052734 0.0703,0.026367 0.19336,0.070312 1.3623,0.5449218 2.18847,0.5449218 0.75586,0 1.49415,-0.3339843 0.74707,-0.3339844 1.65234,-1.0722657 z"
   id="text99"
   style="font-size:18px;line-height:0%;font-family:'DejaVu Sans';text-align:center;text-anchor:middle;fill:#111111;stroke-width:0.75"
   class="key"
   aria-label="~" />&#10;&#10;    <path
   d="m 142.72559,-14.396484 2.47851,3.287109 h -1.34473 l -2.86523,-3.287109 z"
   id="text100"
   style="font-size:18px;line-height:0%;font-family:'DejaVu Sans';text-align:center;text-anchor:middle;fill:#111111;stroke-width:0.75"
   class="key"
   aria-label="`" />&#10;    <path
   d="m 180.73828,-11.285156 v 4.8955076 h 4.89551 v 1.4941406 h -4.89551 V 0 h -1.47656 v -4.8955078 h -4.89551 v -1.4941406 h 4.89551 v -4.8955076 z"
   id="text101"
   style="font-size:18px;line-height:0%;font-family:'DejaVu Sans';text-align:center;text-anchor:middle;fill:#111111;stroke-width:0.75"
   class="key"
   aria-label="+" />&#10;    <path
   d="m 220.53516,-5.7744141 q -0.76465,0 -1.20411,0.6503907 -0.43066,0.6503906 -0.43066,1.8105468 0,1.1425782 0.43066,1.8017579 0.43946,0.65039057 1.20411,0.65039057 0.74707,0 1.17773,-0.65039057 0.43945,-0.6591797 0.43945,-1.8017579 0,-1.1513671 -0.43945,-1.8017578 -0.43066,-0.6591797 -1.17773,-0.6591797 z m 0,-1.1162109 q 1.38867,0 2.20605,0.9667969 0.81738,0.9667969 0.81738,2.6103515 0,1.6435547 -0.82617,2.6103516 -0.81738,0.95800781 -2.19726,0.95800781 -1.40625,0 -2.22364,-0.95800781 -0.81738,-0.9667969 -0.81738,-2.6103516 0,-1.6523437 0.81738,-2.6103515 0.82618,-0.9667969 2.22364,-0.9667969 z m -9.07032,-5.352539 q -0.75586,0 -1.19531,0.65918 -0.43066,0.65039 -0.43066,1.7929684 0,1.1601562 0.43066,1.8105469 0.43067,0.6503906 1.19531,0.6503906 0.76465,0 1.19532,-0.6503906 0.43945,-0.6503907 0.43945,-1.8105469 0,-1.1337894 -0.43945,-1.7929684 -0.43946,-0.65918 -1.19532,-0.65918 z m 7.93653,-1.116211 h 1.40625 l -8.20899,13.61425781 h -1.40625 z m -7.93653,0 q 1.38868,0 2.21485,0.966797 0.82617,0.958008 0.82617,2.6015624 0,1.6611328 -0.82617,2.6191406 -0.81739,0.9580078 -2.21485,0.9580078 -1.39746,0 -2.21484,-0.9580078 -0.80859,-0.9667969 -0.80859,-2.6191406 0,-1.6347654 0.81738,-2.6015624 0.81738,-0.966797 2.20605,-0.966797 z"
   id="text102"
   style="font-size:18px;line-height:0%;font-family:'DejaVu Sans';text-align:center;text-anchor:middle;fill:#111111;stroke-width:0.75"
   class="key"
   aria-label="%" />&#10;    <path
   d="m 251.08594,-13.12207 v 4.8779294 H 249.5918 V -13.12207 Z m 3.32226,0 v 4.8779294 h -1.49414 V -13.12207 Z"
   id="text103"
   style="font-size:18px;line-height:0%;font-family:'DejaVu Sans';text-align:center;text-anchor:middle;fill:#111111;stroke-width:0.75"
   class="key"
   aria-label="&quot;" />&#10;    <path
   d="m 288.75146,-13.12207 v 4.8779294 h -1.49414 V -13.12207 Z"
   id="text104"
   style="font-size:18px;line-height:0%;font-family:'DejaVu Sans';text-align:center;text-anchor:middle;fill:#111111;stroke-width:0.75"
   class="key"
   aria-label="'" />&#10;    <path
   d="m 323.07715,-9.3076172 h 1.85449 v 2.2324219 h -1.85449 z m 0,7.0751953 h 1.85449 v 1.51171878 l -1.44141,2.81250002 h -1.13378 l 0.7207,-2.81250002 z"
   id="text105"
   style="font-size:18px;line-height:0%;font-family:'DejaVu Sans';text-align:center;text-anchor:middle;fill:#111111;stroke-width:0.75"
   class="key"
   aria-label=";" />&#10;</g>&#10;&#10;&#10;<g
   transform="translate(561,26)"
   id="g109">&#10;    <path
   d="M -5.6337891,-8.1738281 H 5.6337891 v 1.4765625 H -5.6337891 Z m 0,3.5859375 H 5.6337891 V -3.09375 H -5.6337891 Z"
   id="text106"
   style="font-size:18px;line-height:0%;font-family:'DejaVu Sans';text-align:center;text-anchor:middle;fill:#111111;stroke-width:0.75"
   class="key"
   aria-label="=" />&#10;    <path
   d="m 34.918945,-9.9755859 h 2.16211 v 2.1621093 h -2.16211 z m 0,6.5039062 h 2.16211 v 2.1533203 h -2.16211 z m -4.552734,-2.9179687 h 11.267578 v 1.4941406 H 30.366211 Z"
   id="text107"
   style="font-size:18px;line-height:0%;font-family:'DejaVu Sans';text-align:center;text-anchor:middle;fill:#111111;stroke-width:0.75"
   class="key"
   aria-label="÷" />&#10;    <path
   d="m 71.063965,-7.3652344 h 1.854492 v 2.2324219 h -1.854492 z"
   id="text108"
   style="font-size:18px;line-height:0%;font-family:'DejaVu Sans';text-align:center;text-anchor:middle;fill:#111111;stroke-width:0.75"
   class="key"
   aria-label="⋅" />&#10;    <path
   d="m 102.36621,-6.3896484 h 11.26758 v 1.4941406 h -11.26758 z"
   id="text109"
   style="font-size:18px;line-height:0%;font-family:'DejaVu Sans';text-align:center;text-anchor:middle;fill:#111111;stroke-width:0.75"
   class="key"
   aria-label="−" />&#10;</g>&#10;<g
   transform="translate(561,62)"
   id="g112">&#10;    <path
   d="M -0.39550781,-13.183594 H 0.39550781 L 3.8408203,-9.7207031 2.7861328,-8.6660156 0.74707031,-10.722656 v 8.4111326 L 2.7861328,-4.3681641 3.8408203,-3.3134766 0.39550781,0.14941406 h -0.79101562 l -3.46289059,-3.46289066 1.0546875,-1.0546875 2.05664059,2.0566407 v -8.4111326 l -2.05664059,2.0566404 -1.0546875,-1.0546875 z"
   id="text110"
   style="font-size:18px;line-height:0%;font-family:'DejaVu Sans';text-align:center;text-anchor:middle;fill:#111111;stroke-width:0.75"
   class="key"
   aria-label="↕" />&#10;    <path
   d="m 35.604492,-13.183594 h 0.791016 l 3.445312,3.4628909 -1.054687,1.0546875 -2.039063,-2.0566404 V 0 h -1.49414 v -10.722656 l -2.056641,2.0566404 -1.054687,-1.0546875 z"
   id="text111"
   style="font-size:18px;line-height:0%;font-family:'DejaVu Sans';text-align:center;text-anchor:middle;fill:#111111;stroke-width:0.75"
   class="key"
   aria-label="↑" />&#10;    <path
   d="m 67.205566,-1.2568359 q 0.37793,0.52734371 0.896485,0.95800777 0.404297,0.33398438 0.896484,0.61523438 0,0 -0.430664,0.93164065 -0.615234,-0.35156252 -1.116211,-0.77343752 -0.65918,-0.53613282 -1.125,-1.18652344 z m 7.78711,1.57324215 q 0.492187,-0.28125 0.896484,-0.61523438 0.457031,-0.38671874 0.896485,-0.95800777 0,0 0.878906,0.53613278 -0.518555,0.68554687 -1.125,1.1953125 -0.500977,0.421875 -1.125,0.77343752 z m 1.792969,-8.41113285 q -0.386719,-0.5273437 -0.896485,-0.9580078 -0.404297,-0.3339844 -0.896484,-0.6152344 0,0 0.421875,-0.9316402 0.624023,0.351562 1.125,0.7734371 0.65039,0.5361328 1.125,1.1865235 z m -7.78711,-1.5732422 q -0.492187,0.28125 -0.896484,0.6152344 -0.518555,0.4306641 -0.896485,0.9580078 0,0 -0.878906,-0.5449218 0.430664,-0.6064454 1.125,-1.1865235 0.500977,-0.4218751 1.116211,-0.7734371 z m 1.652344,10.7050782 q 0.667969,0.1933593 1.344726,0.1933593 0.676758,0 1.344727,-0.1933593 0,0 0.333984,0.9667969 -0.834961,0.2373046 -1.678711,0.2373046 -0.84375,0 -1.6875,-0.2373046 z m 7.057617,-4.3681641 q 0.140625,-0.6416016 0.140625,-1.3447265 0,-0.703125 -0.140625,-1.3447266 0,0 0.966797,-0.3427734 0.175781,0.7998046 0.175781,1.6875 0,0.8876953 -0.175781,1.6874999 z m -4.368164,-7.0576173 q -0.667969,-0.193359 -1.344727,-0.193359 -0.676757,0 -1.344726,0.193359 0,0 -0.342774,-0.966797 0.84375,-0.237304 1.6875,-0.237304 0.84375,0 1.678711,0.237304 z m -7.048828,4.3681642 q -0.140625,0.6416016 -0.140625,1.3447266 0,0.7031249 0.140625,1.3447265 0,0 -0.966797,0.3427734 -0.175781,-0.7998046 -0.175781,-1.6874999 0,-0.8876954 0.175781,-1.6875 z M 71.38916,-11.43457 v -0.878907 h 6.512695 l -1.160156,-1.362304 h 1.107422 l 1.538086,1.801758 -1.538086,1.801757 h -1.107422 l 1.160156,-1.362304 z"
   id="text112"
   style="font-size:18px;line-height:0%;font-family:'DejaVu Sans';text-align:center;text-anchor:middle;fill:#111111;stroke-width:0.75"
   class="key"
   aria-label="⃗" />&#10;</g>&#10;<g
   transform="translate(561,98)"
   id="g115">&#10;    <path
   d="m -6.6621094,-5.2470703 v -0.7910156 l 3.4541016,-3.4541016 1.0546875,1.0546875 -2.0478516,2.0478516 H 6.5126953 v 1.4941406 H -4.2011719 l 2.0478516,2.0478515 -1.0546875,1.0546876 z"
   id="text113"
   style="font-size:18px;line-height:0%;font-family:'DejaVu Sans';text-align:center;text-anchor:middle;fill:#111111;stroke-width:0.75"
   class="key"
   aria-label="←" />&#10;    <path
   d="m 35.077148,-2.2324219 h 1.854493 V 0 h -1.854493 z m 0,-7.0751953 h 1.854493 v 2.2324219 h -1.854493 z"
   id="text114"
   style="font-size:18px;line-height:0%;font-family:'DejaVu Sans';text-align:center;text-anchor:middle;fill:#111111;stroke-width:0.75"
   class="key"
   aria-label=":" />&#10;    <path
   d="m 78.662109,-6.0380859 v 0.7910156 l -3.454101,3.4541016 -1.054688,-1.0546876 2.047852,-2.0478515 H 65.487305 V -6.3896484 H 76.201172 L 74.15332,-8.4375 75.208008,-9.4921875 Z"
   id="text115"
   style="font-size:18px;line-height:0%;font-family:'DejaVu Sans';text-align:center;text-anchor:middle;fill:#111111;stroke-width:0.75"
   class="key"
   aria-label="→" />&#10;</g>&#10;<g
   transform="translate(561,134)"
   id="g118">&#10;    <path
   d="m -6.6621094,-5.2470703 v -0.7910156 l 3.4541016,-3.4541016 1.0546875,1.0546875 -2.0478516,2.0478516 H 4.2011719 L 2.1533203,-8.4375 3.2080078,-9.4921875 6.6621094,-6.0380859 v 0.7910156 L 3.2080078,-1.7929687 2.1533203,-2.8476563 4.2011719,-4.8955078 h -8.4023438 l 2.0478516,2.0478515 -1.0546875,1.0546876 z"
   id="text116"
   style="font-size:18px;line-height:0%;font-family:'DejaVu Sans';text-align:center;text-anchor:middle;fill:#111111;stroke-width:0.75"
   class="key"
   aria-label="↔" />&#10;    <path
   d="m 36.395508,0.06152344 h -0.791016 l -3.46289,-3.46289064 1.054687,-1.0546875 2.056641,2.0566406 V -13.12207 h 1.49414 v 10.7226559 l 2.039063,-2.0566406 1.054687,1.0546875 z"
   id="text117"
   style="font-size:18px;line-height:0%;font-family:'DejaVu Sans';text-align:center;text-anchor:middle;fill:#111111;stroke-width:0.75"
   class="key"
   aria-label="↓" />&#10;    <path
   d="m 65.337891,-4.7197266 h 13.174804 v 1.4941407 H 67.798828 l 2.047852,2.0478515 -1.054688,1.05468753 -3.454101,-3.45410153 z M 78.662109,-6.5654297 H 65.487305 v -1.4941406 h 10.713867 l -2.047852,-2.0478517 1.054688,-1.054687 3.454101,3.4541012 z"
   id="text118"
   style="font-size:18px;line-height:0%;font-family:'DejaVu Sans';text-align:center;text-anchor:middle;fill:#111111;stroke-width:0.75"
   class="key"
   aria-label="⇌" />&#10;</g>&#10;<g
   transform="translate(561,170)"
   id="g120">&#10;    <path
   d="m 22.535156,-5.7744141 q -0.764648,0 -1.204101,0.6503907 -0.430664,0.6503906 -0.430664,1.8105468 0,1.1425782 0.430664,1.8017579 0.439453,0.65039057 1.204101,0.65039057 0.747071,0 1.177735,-0.65039057 0.439453,-0.6591797 0.439453,-1.8017579 0,-1.1513671 -0.439453,-1.8017578 -0.430664,-0.6591797 -1.177735,-0.6591797 z m 0,-1.1162109 q 1.388672,0 2.206055,0.9667969 0.817383,0.9667969 0.817383,2.6103515 0,1.6435547 -0.826172,2.6103516 -0.817383,0.95800781 -2.197266,0.95800781 -1.40625,0 -2.223633,-0.95800781 -0.817382,-0.9667969 -0.817382,-2.6103516 0,-1.6523437 0.817382,-2.6103515 0.826172,-0.9667969 2.223633,-0.9667969 z m -9.070312,-5.352539 q -0.75586,0 -1.195313,0.65918 -0.430664,0.65039 -0.430664,1.7929684 0,1.1601562 0.430664,1.8105469 0.430664,0.6503906 1.195313,0.6503906 0.764648,0 1.195312,-0.6503906 0.439453,-0.6503907 0.439453,-1.8105469 0,-1.1337894 -0.439453,-1.7929684 -0.439453,-0.65918 -1.195312,-0.65918 z m 7.936523,-1.116211 h 1.40625 L 14.598633,0.25488281 h -1.40625 z m -7.936523,0 q 1.388672,0 2.214844,0.966797 0.826171,0.958008 0.826171,2.6015624 0,1.6611328 -0.826171,2.6191406 -0.817383,0.9580078 -2.214844,0.9580078 -1.397461,0 -2.214844,-0.9580078 -0.808594,-0.9667969 -0.808594,-2.6191406 0,-1.6347654 0.817383,-2.6015624 0.817383,-0.966797 2.206055,-0.966797 z"
   id="text119"
   style="font-size:18px;line-height:0%;font-family:'DejaVu Sans';text-align:center;text-anchor:middle;fill:#111111;stroke-width:0.75"
   class="key"
   aria-label="%" />&#10;    <path
   d="m 71.248535,-2.2324219 h 1.854492 v 1.51171878 L 71.661621,2.0917969 h -1.133789 l 0.720703,-2.81250002 z"
   id="text120"
   style="font-size:18px;line-height:0%;font-family:'DejaVu Sans';text-align:center;text-anchor:middle;fill:#111111;stroke-width:0.75"
   class="key"
   aria-label="," />&#10;</g>&#10;&#10;<g
   transform="translate(561,78)"
   id="g121">&#10;    <path
   d="m 108.73828,-11.285156 v 3.4013669 h 4.89551 v 1.4941407 h -4.89551 v 3.4013671 h -1.47656 v -3.4013671 h -4.89551 v -1.4941407 h 4.89551 v -3.4013669 z m -6.37207,9.7910154 h 11.26758 V 0 h -11.26758 z"
   id="text121"
   style="font-size:18px;line-height:0%;font-family:'DejaVu Sans';text-align:center;text-anchor:middle;fill:#111111;stroke-width:0.75"
   class="key"
   aria-label="±" />&#10;</g>&#10;<g
   transform="translate(561,150)"
   id="g122">&#10;    <path
   d="m 105.40723,-1.1777344 -4.46485,-4.4648437 4.46485,-4.4648439 v 2.3994142 h 4.9834 V -13.12207 h 4.13085 l -0.009,9.5449216 h -9.10547 z m -0.87891,-5.6513672 v -1.1513671 l -2.33789,2.3378906 2.33789,2.3378906 v -1.1513672 h 9.10547 l 0.009,-7.7871093 h -2.37305 l -0.009,5.4140624 z"
   id="text122"
   style="font-size:18px;line-height:0%;font-family:'DejaVu Sans';text-align:center;text-anchor:middle;fill:#111111;stroke-width:0.75"
   class="key"
   aria-label="⏎" />&#10;</g>&#10;&#10;<path
   d="m 21.116211,26.263672 q -1.643555,0 -2.891602,-0.74707 -1.248047,-0.75586 -1.951172,-2.074219 -0.694335,-1.31836 -0.694335,-3.014649 0,-0.703125 0.140625,-1.520507 0.149414,-0.817383 0.65039,-1.749024 l 0.817383,0.413086 q -0.430664,0.834961 -0.5625,1.538086 -0.123047,0.703125 -0.123047,1.327148 0,1.458985 0.580078,2.566407 0.588867,1.098632 1.625977,1.713867 1.045898,0.615234 2.408203,0.615234 1.335937,0 2.311523,-0.606445 0.984375,-0.606445 1.520508,-1.696289 0.544922,-1.089844 0.544922,-2.53125 0,-0.509766 -0.08789,-0.958008 l 0.887696,-0.219727 q 0.123047,0.632813 0.123047,1.248047 0,1.652344 -0.65918,2.944336 -0.65918,1.283203 -1.854492,2.021485 -1.186524,0.729492 -2.786133,0.729492 z m -2.900391,-5.458008 -1.327148,-3.111328 -0.369141,-0.149414 -3.049804,1.423828 -0.413086,-0.852539 4.174804,-1.907227 1.845703,4.201172 z"
   id="t1"
   style="font-size:18px;line-height:0%;font-family:'Gentium Plus Compact';text-align:center;text-anchor:middle;fill:#111111"
   class="dead"
   aria-label="↻" />&#10;<path
   d="m 450.99805,18.476562 q 0.0352,0.07031 0.0352,0.166993 0,0.166992 -0.11425,0.298828 -0.10547,0.123047 -0.28125,0.123047 -0.167,0 -0.30762,-0.114258 -0.13184,-0.123047 -0.13184,-0.307617 0,-0.158203 0.12305,-0.290039 0.13183,-0.131836 0.30762,-0.131836 0.26367,0 0.36914,0.254882 z m 2.76855,6.670899 q 0.0352,0.105469 0.0352,0.158203 0,0.158203 -0.12305,0.290039 -0.12305,0.131836 -0.29883,0.131836 -0.1582,0 -0.29004,-0.123047 -0.13183,-0.123047 -0.13183,-0.307617 0,-0.149414 0.11426,-0.28125 0.11425,-0.131836 0.28125,-0.131836 0.28125,0 0.41308,0.263672 z m -4.03418,-6.020508 q 0.13184,0.114258 0.13184,0.290039 0,0.421875 -0.41309,0.421875 -0.17578,0 -0.29883,-0.114258 -0.12304,-0.123047 -0.12304,-0.290039 0,-0.175781 0.12304,-0.298828 0.12305,-0.131836 0.29004,-0.131836 0.16699,0 0.29004,0.123047 z m 5.11524,5.097656 q 0.12304,0.123047 0.12304,0.298828 0,0.166993 -0.12304,0.29004 -0.11426,0.123046 -0.29883,0.123046 -0.17578,0 -0.29883,-0.123046 -0.12305,-0.123047 -0.12305,-0.29004 0,-0.175781 0.11426,-0.290039 0.12305,-0.123046 0.29004,-0.123046 0.17578,0 0.31641,0.114257 z m -6.0293,-4.016601 q 0.27246,0.114258 0.27246,0.404297 0,0.166992 -0.14062,0.290039 -0.13184,0.114258 -0.29004,0.114258 -0.18457,0 -0.29883,-0.131836 -0.11426,-0.131836 -0.11426,-0.290039 0,-0.175782 0.12305,-0.298829 0.13183,-0.123046 0.29004,-0.123046 0.0527,0 0.1582,0.03516 z m 6.6709,2.759765 q 0.26367,0.114258 0.26367,0.386719 0,0.175781 -0.13184,0.298828 -0.12304,0.114258 -0.29004,0.114258 -0.19335,0 -0.30761,-0.123047 -0.11426,-0.131836 -0.11426,-0.290039 0,-0.202148 0.13184,-0.307617 0.14062,-0.105469 0.29882,-0.105469 0.0879,0 0.14942,0.02637 z m -7.10156,-1.40625 q 0.16699,0 0.29882,0.123047 0.13184,0.114258 0.13184,0.28125 0,0.175782 -0.13184,0.307617 -0.13183,0.123047 -0.29004,0.123047 h -0.0176 q -0.167,0 -0.29004,-0.123047 -0.11426,-0.131835 -0.11426,-0.298828 0,-0.175781 0.11426,-0.290039 0.12304,-0.123047 0.29883,-0.123047 z m 7.21582,-0.0088 q 0.17578,0 0.29882,0.123047 0.12305,0.123047 0.12305,0.298828 0,0.166993 -0.12305,0.290039 -0.11425,0.123047 -0.29004,0.123047 h -0.0351 q -0.1582,0 -0.28125,-0.123047 -0.11426,-0.123046 -0.11426,-0.28125 0,-0.175781 0.13184,-0.298828 0.13183,-0.123047 0.29004,-0.131836 z m -7.10157,1.423828 q 0.0703,-0.03516 0.167,-0.03516 0.17578,0 0.29882,0.114258 0.12305,0.114258 0.12305,0.290039 0,0.166992 -0.12305,0.298828 -0.12304,0.131836 -0.29882,0.131836 -0.167,0 -0.29883,-0.123047 -0.12305,-0.131836 -0.12305,-0.307617 0,-0.272461 0.25488,-0.369141 z m 6.6709,-2.768554 q 0.10547,-0.03516 0.1582,-0.03516 0.15821,0 0.29004,0.123046 0.13184,0.123047 0.13184,0.298829 0,0.158203 -0.12305,0.290039 -0.12304,0.131836 -0.30761,0.131836 -0.15821,0 -0.28125,-0.123047 -0.12305,-0.123047 -0.12305,-0.290039 0,-0.28125 0.25488,-0.395508 z m -6.02051,4.034179 q 0.13184,-0.131835 0.28125,-0.131835 0.18457,0 0.30762,0.123046 0.12305,0.114258 0.12305,0.290039 0,0.166993 -0.12305,0.298829 -0.11426,0.123046 -0.29004,0.123046 -0.16699,0 -0.29883,-0.123046 -0.12304,-0.131836 -0.12304,-0.298829 0,-0.158203 0.12304,-0.28125 z M 454.25,19.126953 q 0.14062,-0.123047 0.29883,-0.123047 0.17578,0 0.29004,0.123047 0.12304,0.123047 0.12304,0.298828 0,0.166992 -0.12304,0.298828 -0.11426,0.123047 -0.29004,0.123047 -0.16699,0 -0.29004,-0.131836 -0.12305,-0.131836 -0.12305,-0.290039 0,-0.166992 0.11426,-0.298828 z m -4.0166,6.029297 q 0.0527,-0.123047 0.16699,-0.193359 0.12305,-0.07031 0.22852,-0.07031 0.17578,0 0.29004,0.131836 0.12304,0.131836 0.12304,0.290039 0,0.175781 -0.13183,0.298828 -0.13184,0.114258 -0.29004,0.114258 -0.167,0 -0.29883,-0.131836 -0.12305,-0.131836 -0.12305,-0.28125 0,-0.05273 0.0352,-0.158203 z m 2.75976,-6.670898 q 0.11426,-0.263672 0.38672,-0.263672 0.17578,0 0.29883,0.131836 0.12305,0.131836 0.12305,0.298828 0,0.175781 -0.13184,0.298828 -0.13183,0.114258 -0.29004,0.114258 -0.17578,0 -0.29883,-0.131836 -0.11425,-0.140625 -0.11425,-0.298828 0,-0.07031 0.0264,-0.149414 z m -1.40625,7.101562 q 0,-0.175781 0.12305,-0.298828 0.12305,-0.123047 0.29004,-0.123047 0.17578,0 0.29883,0.123047 0.12304,0.123047 0.12304,0.298828 0,0.166992 -0.12304,0.290039 Q 452.17578,26 452,26 q -0.16699,0 -0.29004,-0.123047 -0.12305,-0.123047 -0.12305,-0.290039 z m 0,-7.21582 q 0,-0.175782 0.12305,-0.298828 0.12305,-0.123047 0.29004,-0.123047 0.17578,0 0.29883,0.123047 0.12304,0.123046 0.12304,0.298828 0,0.166992 -0.12304,0.290039 -0.12305,0.123047 -0.29883,0.123047 -0.16699,0 -0.29004,-0.123047 -0.12305,-0.123047 -0.12305,-0.290039 z m 2.04786,-3.65625 q 0,0.588867 -0.29004,1.054687 -0.29004,0.465821 -0.7295,0.738281 -0.44824,0.263672 -0.88769,0.263672 -0.58887,0 -0.97559,-0.395507 -0.38672,-0.404297 -0.38672,-0.958008 0,-0.606446 0.29004,-1.072266 0.29004,-0.46582 0.7295,-0.729492 0.43945,-0.272461 0.88769,-0.272461 0.57129,0 0.9668,0.413086 0.39551,0.404297 0.39551,0.958008 z m -0.79102,0.360351 q 0,-0.421875 -0.20215,-0.738281 -0.20215,-0.325195 -0.55371,-0.325195 -0.36035,0 -0.6416,0.290039 -0.29004,0.28125 -0.29004,0.755859 0,0.404297 0.20215,0.729492 0.20215,0.316407 0.55371,0.316407 0.35156,0 0.6416,-0.263672 0.29004,-0.263672 0.29004,-0.764649 z"
   id="t2"
   style="font-size:18px;line-height:0%;font-family:'Gentium Plus Compact';text-align:center;text-anchor:middle;fill:#111111"
   class="dead"
   aria-label="◌̊" />&#10;&#10;<path
   d="m 478.99805,90.476562 q 0.0352,0.07031 0.0352,0.166993 0,0.166992 -0.11425,0.298828 -0.10547,0.123047 -0.28125,0.123047 -0.167,0 -0.30762,-0.114258 -0.13184,-0.123047 -0.13184,-0.307617 0,-0.158203 0.12305,-0.290039 0.13183,-0.131836 0.30762,-0.131836 0.26367,0 0.36914,0.254882 z m 2.76855,6.670899 q 0.0352,0.105469 0.0352,0.158203 0,0.158203 -0.12305,0.290039 -0.12305,0.131836 -0.29883,0.131836 -0.1582,0 -0.29004,-0.123047 -0.13183,-0.123047 -0.13183,-0.307617 0,-0.149414 0.11426,-0.28125 0.11425,-0.131836 0.28125,-0.131836 0.28125,0 0.41308,0.263672 z m -4.03418,-6.020508 q 0.13184,0.114258 0.13184,0.290039 0,0.421875 -0.41309,0.421875 -0.17578,0 -0.29883,-0.114258 -0.12304,-0.123047 -0.12304,-0.290039 0,-0.175781 0.12304,-0.298828 0.12305,-0.131836 0.29004,-0.131836 0.16699,0 0.29004,0.123047 z m 5.11524,5.097656 q 0.12304,0.123047 0.12304,0.298828 0,0.166993 -0.12304,0.29004 -0.11426,0.123046 -0.29883,0.123046 -0.17578,0 -0.29883,-0.123046 -0.12305,-0.123047 -0.12305,-0.29004 0,-0.175781 0.11426,-0.290039 0.12305,-0.123046 0.29004,-0.123046 0.17578,0 0.31641,0.114257 z m -6.0293,-4.016601 q 0.27246,0.114258 0.27246,0.404297 0,0.166992 -0.14062,0.290039 -0.13184,0.114258 -0.29004,0.114258 -0.18457,0 -0.29883,-0.131836 -0.11426,-0.131836 -0.11426,-0.290039 0,-0.175782 0.12305,-0.298829 0.13183,-0.123046 0.29004,-0.123046 0.0527,0 0.1582,0.03516 z m 6.6709,2.759765 q 0.26367,0.114258 0.26367,0.386719 0,0.175781 -0.13184,0.298828 -0.12304,0.114258 -0.29004,0.114258 -0.19335,0 -0.30761,-0.123047 -0.11426,-0.131836 -0.11426,-0.290039 0,-0.202148 0.13184,-0.307617 0.14062,-0.105469 0.29882,-0.105469 0.0879,0 0.14942,0.02637 z m -7.10156,-1.40625 q 0.16699,0 0.29882,0.123047 0.13184,0.114258 0.13184,0.28125 0,0.175782 -0.13184,0.307617 -0.13183,0.123047 -0.29004,0.123047 h -0.0176 q -0.167,0 -0.29004,-0.123047 -0.11426,-0.131835 -0.11426,-0.298828 0,-0.175781 0.11426,-0.290039 0.12304,-0.123047 0.29883,-0.123047 z m 7.21582,-0.0088 q 0.17578,0 0.29882,0.123047 0.12305,0.123047 0.12305,0.298828 0,0.166993 -0.12305,0.290039 -0.11425,0.123047 -0.29004,0.123047 h -0.0351 q -0.1582,0 -0.28125,-0.123047 -0.11426,-0.123046 -0.11426,-0.28125 0,-0.175781 0.13184,-0.298828 0.13183,-0.123047 0.29004,-0.131836 z m -7.10157,1.423828 q 0.0703,-0.03516 0.167,-0.03516 0.17578,0 0.29882,0.114258 0.12305,0.114258 0.12305,0.290039 0,0.166992 -0.12305,0.298828 -0.12304,0.131836 -0.29882,0.131836 -0.167,0 -0.29883,-0.123047 -0.12305,-0.131836 -0.12305,-0.307617 0,-0.272461 0.25488,-0.369141 z m 6.6709,-2.768554 q 0.10547,-0.03516 0.1582,-0.03516 0.15821,0 0.29004,0.123046 0.13184,0.123047 0.13184,0.298829 0,0.158203 -0.12305,0.290039 -0.12304,0.131836 -0.30761,0.131836 -0.15821,0 -0.28125,-0.123047 -0.12305,-0.123047 -0.12305,-0.290039 0,-0.28125 0.25488,-0.395508 z m -6.02051,4.034179 q 0.13184,-0.131835 0.28125,-0.131835 0.18457,0 0.30762,0.123046 0.12305,0.114258 0.12305,0.290039 0,0.166993 -0.12305,0.298829 -0.11426,0.123046 -0.29004,0.123046 -0.16699,0 -0.29883,-0.123046 -0.12304,-0.131836 -0.12304,-0.298829 0,-0.158203 0.12304,-0.28125 z M 482.25,91.126953 q 0.14062,-0.123047 0.29883,-0.123047 0.17578,0 0.29004,0.123047 0.12304,0.123047 0.12304,0.298828 0,0.166992 -0.12304,0.298828 -0.11426,0.123047 -0.29004,0.123047 -0.16699,0 -0.29004,-0.131836 -0.12305,-0.131836 -0.12305,-0.290039 0,-0.166992 0.11426,-0.298828 z m -4.0166,6.029297 q 0.0527,-0.123047 0.16699,-0.193359 0.12305,-0.07031 0.22852,-0.07031 0.17578,0 0.29004,0.131836 0.12304,0.131836 0.12304,0.290039 0,0.175781 -0.13183,0.298828 -0.13184,0.114258 -0.29004,0.114258 -0.167,0 -0.29883,-0.131836 -0.12305,-0.131836 -0.12305,-0.28125 0,-0.05273 0.0352,-0.158203 z m 2.75976,-6.670898 q 0.11426,-0.263672 0.38672,-0.263672 0.17578,0 0.29883,0.131836 0.12305,0.131836 0.12305,0.298828 0,0.175781 -0.13184,0.298828 -0.13183,0.114258 -0.29004,0.114258 -0.17578,0 -0.29883,-0.131836 -0.11425,-0.140625 -0.11425,-0.298828 0,-0.07031 0.0264,-0.149414 z m -1.40625,7.101562 q 0,-0.175781 0.12305,-0.298828 0.12305,-0.123047 0.29004,-0.123047 0.17578,0 0.29883,0.123047 0.12304,0.123047 0.12304,0.298828 0,0.166992 -0.12304,0.290039 Q 480.17578,98 480,98 q -0.16699,0 -0.29004,-0.123047 -0.12305,-0.123047 -0.12305,-0.290039 z m 0,-7.21582 q 0,-0.175782 0.12305,-0.298828 0.12305,-0.123047 0.29004,-0.123047 0.17578,0 0.29883,0.123047 0.12304,0.123046 0.12304,0.298828 0,0.166992 -0.12304,0.290039 -0.12305,0.123047 -0.29883,0.123047 -0.16699,0 -0.29004,-0.123047 -0.12305,-0.123047 -0.12305,-0.290039 z m 4.42969,-3.348633 -6.43359,13.209959 q -0.14063,0.14942 -0.44824,0.42188 -0.30762,0.28125 -0.50977,0.3955 l -0.30762,-0.2373 6.44239,-13.21875 q 0.20214,-0.193359 0.45703,-0.439453 0.25488,-0.254883 0.47461,-0.360352 z"
   id="t3"
   style="font-size:18px;line-height:0%;font-family:'Gentium Plus Compact';text-align:center;text-anchor:middle;fill:#111111"
   class="dead"
   aria-label="◌̸" />&#10;&#10;</svg>
