<?xml version="1.0" encoding="UTF-8" standalone="no"?>
<svg
   version="1.1"
   id="Ebene_1"
   height="183"
   width="535"
   viewBox="0 0 535 183"
   enable-background="new 0 0 535 183"
   xml:space="preserve"
   inkscape:version="0.48.5 r10040"
   sodipodi:docname="noted-1-tkl.svg"
   inkscape:export-xdpi="90"
   inkscape:export-ydpi="90"
   xmlns:inkscape="http://www.inkscape.org/namespaces/inkscape"
   xmlns:sodipodi="http://sodipodi.sourceforge.net/DTD/sodipodi-0.dtd"
   xmlns:xlink="http://www.w3.org/1999/xlink"
   xmlns="http://www.w3.org/2000/svg"
   xmlns:svg="http://www.w3.org/2000/svg"
   xmlns:rdf="http://www.w3.org/1999/02/22-rdf-syntax-ns#"
   xmlns:cc="http://creativecommons.org/ns#"
   xmlns:dc="http://purl.org/dc/elements/1.1/">&#10;&#10;  <metadata
   id="metadata135">&#10;    <rdf:RDF>&#10;      <cc:Work
   rdf:about="">&#10;        <dc:format>image/svg+xml</dc:format>&#10;        <dc:type
   rdf:resource="http://purl.org/dc/dcmitype/StillImage" />&#10;        <dc:title />&#10;      </cc:Work>&#10;    </rdf:RDF>&#10;  </metadata>&#10;&#10;<defs
   id="defs">&#10;<style
   type="text/css"
   id="style46661">&#10;text.mod, text.key, text.dead {&#10;	fill:#111;&#10;	fill-opacity:1;&#10;    stroke:none;&#10;    font-style:normal;&#10;    font-variant:normal;&#10;    font-weight:normal;&#10;    font-stretch:normal;&#10;    display:inline;&#10;    font-family:DejaVu Sans;&#10;    writing-mode:lr-tb;&#10;}&#10;&#10;text.key {&#10;    font-family:DejaVu Sans;&#10;}&#10;&#10;text.dead {&#10;    font-family: Gentium Plus Compact;&#10;}&#10;&#10;text.mod {&#10;    text-align:start;&#10;    text-anchor:start;&#10;}&#10;&#10;text.space, text.dead, text.center, text.key {&#10;    text-align:center;&#10;    text-anchor:middle;&#10;}&#10;&#10;text.key { font-size:18px; }&#10;text.dead { font-size:18px; }&#10;text.mod { font-size:8px; }&#10;text.big { font-size:12px; }&#10;&#10;.key {&#10;stroke-width:0.75;&#10;}&#10;&#10;.grey { fill:#949494; stroke:#696969; }&#10;.grey { fill:#9f9f9f; stroke:#747474; }&#10;&#10;.numpad { fill:#afaa9f; stroke:#747474; }&#10;&#10;/* bootstrap colors */&#10;.l5, .r5 { fill:#93CCEA; }&#10;.l4, .r4 { fill:#7abeb3; }&#10;.l3, .r3 { fill:#63b280; }&#10;.l2, .r2 { fill:#4aa44a; }&#10;&#10;/* btn bg hover, unused */&#10;.l2, .r2 { stroke:#3071a9; }&#10;.l3, .r3 { stroke:#449d44; }&#10;.l4, .r4 { stroke:#c9302c; }&#10;.l5, .r5 { stroke:#ec971f; }&#10;&#10;/* btn border hover */&#10;.l2, .r2 { stroke:#204d74; }&#10;.l3, .r3 { stroke:#204d74; }&#10;.l4, .r4 { stroke:#204d74; }&#10;.l5, .r5 { stroke:#204d74; }&#10;&#10;<!-- text.nubkey { fill:#eee; } -->&#10;&#10;.pressed {&#10;	<!--opacity:0.5;-->&#10;	fill:#777;&#10;}&#10;    </style>&#10;&#10;    <g
   id="basekey">&#10;        <rect
   width="32"
   height="32"
   rx="4"
   class="key"
   id="rect1" />&#10;	<!--rect width="20" height="20" x="6" y="6" /-->&#10;        <!--rect width="2" height="2" fill="#000" x="15" y="15" /-->&#10;    </g>&#10;&#10;    </defs>&#10;<sodipodi:namedview
   pagecolor="#ffffff"
   bordercolor="#666666"
   borderopacity="1"
   objecttolerance="10"
   gridtolerance="10"
   guidetolerance="10"
   inkscape:pageopacity="0"
   inkscape:pageshadow="2"
   inkscape:window-width="1614"
   inkscape:window-height="969"
   id="base"
   showgrid="false"
   inkscape:zoom="0.70961538"
   inkscape:cx="685.32105"
   inkscape:cy="241.15395"
   inkscape:window-x="78"
   inkscape:window-y="71"
   inkscape:window-maximized="0"
   inkscape:current-layer="Ebene_1"
   inkscape:showpageshadow="2"
   inkscape:pagecheckerboard="0"
   inkscape:deskcolor="#d1d1d1" />&#10;&#10;<g
   transform="translate(3.5,3.5)"
   id="g61">&#10;<use
   xlink:href="#basekey"
   y="0"
   x="0"
   class="l5"
   id="use1" />&#10;<use
   xlink:href="#basekey"
   y="0"
   x="36"
   class="l5"
   id="use2" />&#10;<use
   xlink:href="#basekey"
   y="0"
   x="72"
   class="l5"
   id="use3" />&#10;<use
   xlink:href="#basekey"
   y="0"
   x="108"
   class="l4"
   id="use4" />&#10;<use
   xlink:href="#basekey"
   y="0"
   x="144"
   class="l3"
   id="use5" />&#10;<use
   xlink:href="#basekey"
   y="0"
   x="180"
   class="l2"
   id="use6" />&#10;<use
   xlink:href="#basekey"
   y="0"
   x="216"
   class="l2"
   id="use7" />&#10;&#10;<use
   xlink:href="#basekey"
   y="0"
   x="252"
   class="r2"
   id="use8" />&#10;<use
   xlink:href="#basekey"
   y="0"
   x="288"
   class="r2"
   id="use9" />&#10;<use
   xlink:href="#basekey"
   y="0"
   x="324"
   class="r3"
   id="use10" />&#10;<use
   xlink:href="#basekey"
   y="0"
   x="360"
   class="r4"
   id="use11" />&#10;<use
   xlink:href="#basekey"
   y="0"
   x="396"
   class="r5"
   id="use12" />&#10;<use
   xlink:href="#basekey"
   y="0"
   x="432"
   class="r5"
   id="use13" />&#10;&#10;&#10;<use
   xlink:href="#basekey"
   y="36"
   x="54"
   class="l5"
   id="use14" />&#10;<use
   xlink:href="#basekey"
   y="36"
   x="90"
   class="l4"
   id="use15" />&#10;<use
   xlink:href="#basekey"
   y="36"
   x="126"
   class="l3"
   id="use16" />&#10;<use
   xlink:href="#basekey"
   y="36"
   x="162"
   class="l2"
   id="use17" />&#10;<use
   xlink:href="#basekey"
   y="36"
   x="198"
   class="l2"
   id="use18" />&#10;&#10;<use
   xlink:href="#basekey"
   y="36"
   x="234"
   class="r2"
   id="use19" />&#10;<use
   xlink:href="#basekey"
   y="36"
   x="270"
   class="r2"
   id="use20" />&#10;<use
   xlink:href="#basekey"
   y="36"
   x="306"
   class="r3"
   id="use21" />&#10;<use
   xlink:href="#basekey"
   y="36"
   x="342"
   class="r4"
   id="use22" />&#10;<use
   xlink:href="#basekey"
   y="36"
   x="378"
   class="r5"
   id="use23" />&#10;<use
   xlink:href="#basekey"
   y="36"
   x="414"
   class="r5"
   id="use24" />&#10;<use
   xlink:href="#basekey"
   y="36"
   x="450"
   class="r5"
   id="use25" />&#10;&#10;&#10;<use
   xlink:href="#basekey"
   y="72"
   x="64"
   class="l5"
   id="use26" />&#10;<use
   xlink:href="#basekey"
   y="72"
   x="100"
   class="l4"
   id="use27" />&#10;<use
   xlink:href="#basekey"
   y="72"
   x="136"
   class="l3"
   id="use28" />&#10;<use
   xlink:href="#basekey"
   y="72"
   x="172"
   class="l2"
   id="use29" />&#10;<use
   xlink:href="#basekey"
   y="72"
   x="208"
   class="l2"
   id="use30" />&#10;&#10;<use
   xlink:href="#basekey"
   y="72"
   x="244"
   class="r2"
   id="use31" />&#10;<use
   xlink:href="#basekey"
   y="72"
   x="280"
   class="r2"
   id="use32" />&#10;<use
   xlink:href="#basekey"
   y="72"
   x="316"
   class="r3"
   id="use33" />&#10;<use
   xlink:href="#basekey"
   y="72"
   x="352"
   class="r4"
   id="use34" />&#10;<use
   xlink:href="#basekey"
   y="72"
   x="388"
   class="r5"
   id="use35" />&#10;&#10;    <use
   xlink:href="#basekey"
   y="72"
   x="460"
   class="r5"
   id="use36" />&#10;&#10;&#10;&#10;<use
   xlink:href="#basekey"
   y="108"
   x="82"
   class="l5"
   id="use37" />&#10;<use
   xlink:href="#basekey"
   y="108"
   x="118"
   class="l4"
   id="use38" />&#10;<use
   xlink:href="#basekey"
   y="108"
   x="154"
   class="l3"
   id="use39" />&#10;<use
   xlink:href="#basekey"
   y="108"
   x="190"
   class="l2"
   id="use40" />&#10;<use
   xlink:href="#basekey"
   y="108"
   x="226"
   class="l2"
   id="use41" />&#10;&#10;<use
   xlink:href="#basekey"
   y="108"
   x="262"
   class="r2"
   id="use42" />&#10;<use
   xlink:href="#basekey"
   y="108"
   x="298"
   class="r2"
   id="use43" />&#10;<use
   xlink:href="#basekey"
   y="108"
   x="334"
   class="r3"
   id="use44" />&#10;<use
   xlink:href="#basekey"
   y="108"
   x="370"
   class="r4"
   id="use45" />&#10;<use
   xlink:href="#basekey"
   y="108"
   x="406"
   class="r5"
   id="use46" />&#10;&#10;&#10;<rect
   id="backspace"
   y="0"
   x="468"
   width="60"
   height="32"
   rx="4"
   class="key grey" />&#10;&#10;<rect
   id="tab"
   x="0"
   y="36"
   width="50"
   height="32"
   rx="4"
   class="key grey" />&#10;&#10;<rect
   id="m3l"
   x="0"
   y="72"
   width="60"
   height="32"
   rx="4"
   class="key grey" />&#10;&#10;<use
   id="m3r"
   xlink:href="#basekey"
   x="424"
   y="72"
   class="key grey" />&#10;&#10;&#10;<rect
   id="shiftl"
   x="0"
   y="108"
   width="40"
   height="32"
   rx="4"
   class="key grey" />&#10;<rect
   id="m4l"
   x="44"
   y="108"
   width="34"
   height="32"
   rx="4"
   class="key grey" />&#10;<rect
   id="shiftr"
   x="442"
   y="108"
   width="86"
   height="32"
   rx="4"
   class="key grey" />&#10;&#10;<rect
   id="ctrll"
   x="0"
   y="144"
   width="50"
   height="32"
   rx="4"
   class="key grey" />&#10;<rect
   id="altl"
   x="124"
   y="144"
   width="48"
   height="32"
   rx="4"
   class="key grey" />&#10;<rect
   id="space"
   x="176"
   y="144"
   width="168"
   height="32"
   rx="4"
   class="key grey" />&#10;<rect
   id="m4r"
   x="348"
   y="144"
   width="48"
   height="32"
   rx="4"
   class="key grey" />&#10;<rect
   id="ctrlr"
   x="478"
   y="144"
   width="50"
   height="32"
   rx="4"
   class="key grey" />&#10;&#10;<use
   xlink:href="#basekey"
   y="0"
   x="542"
   class="key numpad"
   id="use47" />&#10;<use
   xlink:href="#basekey"
   y="0"
   x="578"
   class="key numpad"
   id="use48" />&#10;<use
   xlink:href="#basekey"
   y="0"
   x="614"
   class="key numpad"
   id="use49" />&#10;<use
   xlink:href="#basekey"
   y="0"
   x="650"
   class="key numpad"
   id="use50" />&#10;&#10;<use
   xlink:href="#basekey"
   y="36"
   x="542"
   class="key numpad"
   id="use51" />&#10;<use
   xlink:href="#basekey"
   y="36"
   x="578"
   class="key numpad"
   id="use52" />&#10;<use
   xlink:href="#basekey"
   y="36"
   x="614"
   class="key numpad"
   id="use53" />&#10;<rect
   id="kpplus"
   x="650"
   y="36"
   width="32"
   height="68"
   rx="4"
   class="key numpad" />&#10;&#10;<use
   xlink:href="#basekey"
   y="72"
   x="542"
   class="key numpad"
   id="use54" />&#10;<use
   xlink:href="#basekey"
   y="72"
   x="578"
   class="key numpad"
   id="use55" />&#10;<use
   xlink:href="#basekey"
   y="72"
   x="614"
   class="key numpad"
   id="use56" />&#10;&#10;<use
   xlink:href="#basekey"
   y="108"
   x="542"
   class="key numpad"
   id="use57" />&#10;<use
   xlink:href="#basekey"
   y="108"
   x="578"
   class="key numpad"
   id="use58" />&#10;<use
   xlink:href="#basekey"
   y="108"
   x="614"
   class="key numpad"
   id="use59" />&#10;<rect
   id="kppenter"
   x="650"
   y="108"
   width="32"
   height="68"
   rx="4"
   class="key numpad" />&#10;&#10;<rect
   id="kp0"
   x="542"
   y="144"
   width="68"
   height="32"
   rx="4"
   class="key numpad" />&#10;<use
   xlink:href="#basekey"
   y="144"
   x="614"
   class="key numpad"
   id="use60" />&#10;&#10;<path
   fill-rule="evenodd"
   clip-rule="evenodd"
   d="      M 10,32      l -6,0 a 4,4 0 0 1 -4,-4      l 0,-24 a 4,4 0 0 1 4,-4      l 34,0 a 4,4 0 0 1 4,4      l 0,60 a 4,4 0 0 1 -4,4      l -24,0 a 4,4 0 0 1 -4,-4      z"
   transform="translate(486,36)"
   id="return"
   class="key grey" />&#10;&#10;<rect
   y="101"
   x="181"
   width="14"
   height="1"
   rx="1"
   id="nub"
   style="fill:#111;" />&#10;<use
   y="0"
   x="108"
   xlink:href="#nub"
   id="use61" />&#10;</g>&#10;&#10;<g
   transform="translate(-0.5,-0.5)"
   id="g62">&#10;<path
   d="m 10.785156,90.167969 h 1.175782 l 1.488281,3.96875 1.496094,-3.96875 h 1.175781 V 96 h -0.769531 v -5.121094 l -1.503907,4 h -0.792968 l -1.503907,-4 V 96 h -0.765625 z m 8.566406,1.960937 q -0.578125,0 -0.914062,0.453125 -0.335938,0.449219 -0.335938,1.234375 0,0.785156 0.332032,1.238281 0.335937,0.449219 0.917968,0.449219 0.574219,0 0.910157,-0.453125 0.335937,-0.453125 0.335937,-1.234375 0,-0.777344 -0.335937,-1.230469 -0.335938,-0.457031 -0.910157,-0.457031 z m 0,-0.609375 q 0.9375,0 1.472657,0.609375 0.535156,0.609375 0.535156,1.6875 0,1.074219 -0.535156,1.6875 -0.535157,0.609375 -1.472657,0.609375 -0.941406,0 -1.476562,-0.609375 -0.53125,-0.613281 -0.53125,-1.6875 0,-1.078125 0.53125,-1.6875 0.535156,-0.609375 1.476562,-0.609375 z m 6.078125,0.769531 v -2.367187 h 0.71875 V 96 h -0.71875 v -0.65625 q -0.226562,0.390625 -0.574218,0.582031 -0.34375,0.1875 -0.828125,0.1875 -0.792969,0 -1.292969,-0.632812 -0.496094,-0.632813 -0.496094,-1.664063 0,-1.03125 0.496094,-1.664062 0.5,-0.632813 1.292969,-0.632813 0.484375,0 0.828125,0.191406 0.347656,0.1875 0.574218,0.578125 z m -2.449218,1.527344 q 0,0.792969 0.324218,1.246094 0.328125,0.449219 0.898438,0.449219 0.570312,0 0.898437,-0.449219 0.328125,-0.453125 0.328125,-1.246094 0,-0.792969 -0.328125,-1.242187 -0.328125,-0.453125 -0.898437,-0.453125 -0.570313,0 -0.898438,0.453125 -0.324218,0.449218 -0.324218,1.242187 z m 7.140625,-0.960937 q 0.566406,0.121093 0.882812,0.503906 0.320313,0.382812 0.320313,0.945312 0,0.863282 -0.59375,1.335938 -0.59375,0.472656 -1.6875,0.472656 -0.367188,0 -0.757813,-0.07422 -0.386719,-0.07031 -0.800781,-0.214843 V 95.0625 q 0.328125,0.191406 0.71875,0.289062 0.390625,0.09766 0.816406,0.09766 0.742188,0 1.128906,-0.292969 0.390625,-0.292969 0.390625,-0.851563 0,-0.515625 -0.363281,-0.804687 -0.359375,-0.292969 -1.003906,-0.292969 h -0.679688 v -0.648437 h 0.710938 q 0.582031,0 0.890625,-0.230469 0.308594,-0.234375 0.308594,-0.671875 0,-0.449219 -0.320313,-0.6875 -0.316406,-0.242188 -0.910156,-0.242188 -0.324219,0 -0.695313,0.07031 -0.371093,0.07031 -0.816406,0.21875 V 90.3125 Q 28.109375,90.1875 28.5,90.125 q 0.394531,-0.0625 0.742187,-0.0625 0.898438,0 1.421875,0.410156 0.523438,0.40625 0.523438,1.101563 0,0.484375 -0.277344,0.820312 -0.277344,0.332031 -0.789062,0.460938 z"
   id="m3ltxt"
   style="font-size:8px;line-height:0%;font-family:'DejaVu Sans';fill:#111111"
   class="mod"
   aria-label="Mod3" />&#10;<path
   d="m 16.585937,126.34375 -1.558593,-1.55859 -1.558594,1.55859 h 0.767578 v 6.07031 h 1.582031 v -6.07031 z m -4.535156,0.58594 2.976563,-2.97656 2.976562,2.97656 H 16.404297 V 133 h -2.753906 v -6.07031 z"
   id="shiftltxt"
   style="font-size:12px;line-height:0%;font-family:'DejaVu Sans';fill:#111111"
   class="mod big"
   aria-label="⇧" />&#10;<path
   d="m 14.28125,162.35937 v 0.76954 q -0.449219,-0.21485 -0.847656,-0.32032 -0.398438,-0.10547 -0.769531,-0.10547 -0.644532,0 -0.996094,0.25 -0.347656,0.25 -0.347656,0.71094 0,0.38672 0.230468,0.58594 0.234375,0.19531 0.882813,0.31641 l 0.476562,0.0977 q 0.882813,0.16797 1.300782,0.59375 0.421875,0.42188 0.421875,1.13281 0,0.84766 -0.570313,1.28516 -0.566406,0.4375 -1.664062,0.4375 -0.414063,0 -0.882813,-0.0937 -0.464844,-0.0937 -0.964844,-0.27734 v -0.8125 q 0.480469,0.26953 0.941407,0.40625 0.460937,0.13672 0.90625,0.13672 0.675781,0 1.042968,-0.26563 0.367188,-0.26562 0.367188,-0.75781 0,-0.42969 -0.265625,-0.67188 -0.261719,-0.24218 -0.863281,-0.36328 l -0.480469,-0.0937 q -0.882813,-0.17578 -1.277344,-0.55078 -0.394531,-0.375 -0.394531,-1.04297 0,-0.77344 0.542969,-1.21875 0.546875,-0.44531 1.503906,-0.44531 0.410156,0 0.835937,0.0742 0.425782,0.0742 0.871094,0.22265 z m 2.261719,0.0234 v 1.24219 h 1.480468 v 0.55859 h -1.480468 v 2.375 q 0,0.53516 0.144531,0.6875 0.148437,0.15235 0.597656,0.15235 h 0.738281 V 168 h -0.738281 q -0.832031,0 -1.148437,-0.30859 -0.316406,-0.3125 -0.316406,-1.13282 v -2.375 H 15.292969 V 163.625 h 0.527344 v -1.24219 z m 4.960937,1.91406 q -0.121094,-0.0703 -0.265625,-0.10156 -0.140625,-0.0352 -0.3125,-0.0352 -0.609375,0 -0.9375,0.39843 -0.324219,0.39453 -0.324219,1.13672 V 168 h -0.722656 v -4.375 h 0.722656 v 0.67969 q 0.226563,-0.39844 0.589844,-0.58985 0.363281,-0.19531 0.882813,-0.19531 0.07422,0 0.164062,0.0117 0.08984,0.008 0.199219,0.0273 z m 3.492188,1.46485 q 0,-0.78125 -0.324219,-1.21094 -0.320313,-0.42969 -0.902344,-0.42969 -0.578125,0 -0.902344,0.42969 -0.320312,0.42969 -0.320312,1.21094 0,0.77734 0.320312,1.20703 0.324219,0.42969 0.902344,0.42969 0.582031,0 0.902344,-0.42969 0.324219,-0.42969 0.324219,-1.20703 z m 0.71875,1.69531 q 0,1.11719 -0.496094,1.66016 -0.496094,0.54687 -1.519531,0.54687 -0.378907,0 -0.714844,-0.0586 -0.335938,-0.0547 -0.652344,-0.17188 v -0.69922 q 0.316406,0.17188 0.625,0.25391 0.308594,0.082 0.628906,0.082 0.707032,0 1.058594,-0.37109 0.351563,-0.36719 0.351563,-1.11328 v -0.35547 q -0.222657,0.38672 -0.570313,0.57812 Q 24.078125,168 23.59375,168 q -0.804688,0 -1.296875,-0.61328 -0.492188,-0.61328 -0.492188,-1.625 0,-1.01563 0.492188,-1.62891 0.492187,-0.61328 1.296875,-0.61328 0.484375,0 0.832031,0.19141 0.347656,0.1914 0.570313,0.57812 V 163.625 h 0.71875 z"
   id="ctrlltxt"
   style="font-size:8px;line-height:0%;font-family:'DejaVu Sans';fill:#111111"
   class="mod"
   aria-label="Strg" />&#10;&#10;<path
   d="m 56.785156,126.16797 h 1.175781 l 1.488282,3.96875 1.496093,-3.96875 h 1.175782 V 132 h -0.769532 v -5.12109 l -1.503906,4 h -0.792969 l -1.503906,-4 V 132 h -0.765625 z m 9.140625,0.6875 -1.992187,3.11328 h 1.992187 z m -0.207031,-0.6875 h 0.992187 v 3.80078 h 0.832032 V 130.625 H 66.710937 V 132 h -0.785156 v -1.375 h -2.632812 v -0.76172 z"
   id="m4ltxt"
   style="font-size:8px;line-height:0%;font-family:'DejaVu Sans';fill:#111111"
   class="mod"
   aria-label="M4" />&#10;<path
   d="m 137.73437,162.94531 -1.07031,2.90235 h 2.14453 z m -0.44531,-0.77734 h 0.89453 L 140.40625,168 h -0.82031 l -0.53125,-1.49609 h -2.62891 L 135.89453,168 h -0.83203 z m 3.9375,-0.2461 h 0.71875 V 168 h -0.71875 z m 2.9336,0.46094 v 1.24219 h 1.48046 v 0.55859 h -1.48046 v 2.375 q 0,0.53516 0.14453,0.6875 0.14843,0.15235 0.59765,0.15235 h 0.73828 V 168 h -0.73828 q -0.83203,0 -1.14843,-0.30859 -0.31641,-0.3125 -0.31641,-1.13282 v -2.375 h -0.52734 V 163.625 h 0.52734 v -1.24219 z"
   id="altltxt"
   style="font-size:8px;line-height:0%;font-family:'DejaVu Sans';fill:#111111"
   class="mod"
   aria-label="Alt" />&#10;&#10;&#10;<path
   d="m 436.78516,90.167969 h 1.17578 l 1.48828,3.96875 1.49609,-3.96875 h 1.17578 V 96 h -0.76953 v -5.121094 l -1.5039,4 h -0.79297 l -1.50391,-4 V 96 h -0.76562 z m 9.36328,2.6875 q 0.5664,0.121093 0.88281,0.503906 0.32031,0.382812 0.32031,0.945312 0,0.863282 -0.59375,1.335938 -0.59375,0.472656 -1.6875,0.472656 -0.36719,0 -0.75781,-0.07422 -0.38672,-0.07031 -0.80078,-0.214843 V 95.0625 q 0.32812,0.191406 0.71875,0.289062 0.39062,0.09766 0.8164,0.09766 0.74219,0 1.12891,-0.292969 0.39063,-0.292969 0.39063,-0.851563 0,-0.515625 -0.36329,-0.804687 -0.35937,-0.292969 -1.0039,-0.292969 h -0.67969 v -0.648437 h 0.71094 q 0.58203,0 0.89062,-0.230469 0.3086,-0.234375 0.3086,-0.671875 0,-0.449219 -0.32032,-0.6875 -0.3164,-0.242188 -0.91015,-0.242188 -0.32422,0 -0.69531,0.07031 -0.3711,0.07031 -0.81641,0.21875 V 90.3125 q 0.44922,-0.125 0.83984,-0.1875 0.39453,-0.0625 0.74219,-0.0625 0.89844,0 1.42188,0.410156 0.52343,0.40625 0.52343,1.101563 0,0.484375 -0.27734,0.820312 -0.27734,0.332031 -0.78906,0.460938 z"
   id="m3rtxt"
   style="font-size:8px;line-height:0%;font-family:'DejaVu Sans';fill:#111111"
   class="mod"
   aria-label="M3" />&#10;&#10;&#10;<path
   d="m 456.58594,126.34375 -1.5586,-1.55859 -1.55859,1.55859 h 0.76758 v 6.07031 h 1.58203 v -6.07031 z m -4.53516,0.58594 2.97656,-2.97656 2.97657,2.97656 H 456.4043 V 133 h -2.75391 v -6.07031 z"
   id="shiftrtxt"
   style="font-size:12px;line-height:0%;font-family:'DejaVu Sans';fill:#111111"
   class="mod big"
   aria-label="⇧" />&#10;<path
   d="m 494.28125,162.35937 v 0.76954 q -0.44922,-0.21485 -0.84766,-0.32032 -0.39843,-0.10547 -0.76953,-0.10547 -0.64453,0 -0.99609,0.25 -0.34766,0.25 -0.34766,0.71094 0,0.38672 0.23047,0.58594 0.23438,0.19531 0.88281,0.31641 l 0.47657,0.0977 q 0.88281,0.16797 1.30078,0.59375 0.42187,0.42188 0.42187,1.13281 0,0.84766 -0.57031,1.28516 -0.56641,0.4375 -1.66406,0.4375 -0.41407,0 -0.88282,-0.0937 -0.46484,-0.0937 -0.96484,-0.27734 v -0.8125 q 0.48047,0.26953 0.94141,0.40625 0.46093,0.13672 0.90625,0.13672 0.67578,0 1.04297,-0.26563 0.36718,-0.26562 0.36718,-0.75781 0,-0.42969 -0.26562,-0.67188 -0.26172,-0.24218 -0.86328,-0.36328 l -0.48047,-0.0937 q -0.88281,-0.17578 -1.27735,-0.55078 -0.39453,-0.375 -0.39453,-1.04297 0,-0.77344 0.54297,-1.21875 0.54688,-0.44531 1.50391,-0.44531 0.41015,0 0.83594,0.0742 0.42578,0.0742 0.87109,0.22265 z m 2.26172,0.0234 v 1.24219 h 1.48047 v 0.55859 h -1.48047 v 2.375 q 0,0.53516 0.14453,0.6875 0.14844,0.15235 0.59766,0.15235 h 0.73828 V 168 h -0.73828 q -0.83204,0 -1.14844,-0.30859 -0.31641,-0.3125 -0.31641,-1.13282 v -2.375 h -0.52734 V 163.625 h 0.52734 v -1.24219 z m 4.96094,1.91406 q -0.1211,-0.0703 -0.26563,-0.10156 -0.14062,-0.0352 -0.3125,-0.0352 -0.60937,0 -0.9375,0.39843 -0.32422,0.39453 -0.32422,1.13672 V 168 h -0.72265 v -4.375 h 0.72265 v 0.67969 q 0.22656,-0.39844 0.58985,-0.58985 0.36328,-0.19531 0.88281,-0.19531 0.0742,0 0.16406,0.0117 0.0898,0.008 0.19922,0.0273 z m 3.49218,1.46485 q 0,-0.78125 -0.32422,-1.21094 -0.32031,-0.42969 -0.90234,-0.42969 -0.57812,0 -0.90234,0.42969 -0.32032,0.42969 -0.32032,1.21094 0,0.77734 0.32032,1.20703 0.32422,0.42969 0.90234,0.42969 0.58203,0 0.90234,-0.42969 0.32422,-0.42969 0.32422,-1.20703 z m 0.71875,1.69531 q 0,1.11719 -0.49609,1.66016 -0.49609,0.54687 -1.51953,0.54687 -0.37891,0 -0.71485,-0.0586 -0.33593,-0.0547 -0.65234,-0.17188 v -0.69922 q 0.31641,0.17188 0.625,0.25391 0.30859,0.082 0.62891,0.082 0.70703,0 1.05859,-0.37109 0.35156,-0.36719 0.35156,-1.11328 v -0.35547 q -0.22265,0.38672 -0.57031,0.57812 Q 504.07812,168 503.59375,168 q -0.80469,0 -1.29688,-0.61328 -0.49218,-0.61328 -0.49218,-1.625 0,-1.01563 0.49218,-1.62891 0.49219,-0.61328 1.29688,-0.61328 0.48437,0 0.83203,0.19141 0.34766,0.1914 0.57031,0.57812 V 163.625 h 0.71875 z"
   id="ctrlrtxt"
   style="font-size:8px;line-height:0%;font-family:'DejaVu Sans';fill:#111111"
   class="mod"
   aria-label="Strg" />&#10;<path
   d="m 357.78516,162.16797 h 1.17578 l 1.48828,3.96875 1.49609,-3.96875 h 1.17578 V 168 h -0.76953 v -5.12109 l -1.5039,4 h -0.79297 l -1.50391,-4 V 168 h -0.76562 z m 8.5664,1.96094 q -0.57812,0 -0.91406,0.45312 -0.33594,0.44922 -0.33594,1.23438 0,0.78515 0.33203,1.23828 0.33594,0.44922 0.91797,0.44922 0.57422,0 0.91016,-0.45313 0.33594,-0.45312 0.33594,-1.23437 0,-0.77735 -0.33594,-1.23047 -0.33594,-0.45703 -0.91016,-0.45703 z m 0,-0.60938 q 0.9375,0 1.47266,0.60938 0.53515,0.60937 0.53515,1.6875 0,1.07421 -0.53515,1.6875 -0.53516,0.60937 -1.47266,0.60937 -0.9414,0 -1.47656,-0.60937 -0.53125,-0.61329 -0.53125,-1.6875 0,-1.07813 0.53125,-1.6875 0.53516,-0.60938 1.47656,-0.60938 z m 6.07813,0.76953 v -2.36719 h 0.71875 V 168 h -0.71875 v -0.65625 q -0.22657,0.39062 -0.57422,0.58203 -0.34375,0.1875 -0.82813,0.1875 -0.79297,0 -1.29297,-0.63281 -0.49609,-0.63281 -0.49609,-1.66406 0,-1.03125 0.49609,-1.66407 0.5,-0.63281 1.29297,-0.63281 0.48438,0 0.82813,0.19141 0.34765,0.1875 0.57422,0.57812 z m -2.44922,1.52735 q 0,0.79296 0.32422,1.24609 0.32812,0.44922 0.89843,0.44922 0.57032,0 0.89844,-0.44922 0.32813,-0.45313 0.32813,-1.24609 0,-0.79297 -0.32813,-1.24219 -0.32812,-0.45313 -0.89844,-0.45313 -0.57031,0 -0.89843,0.45313 -0.32422,0.44922 -0.32422,1.24219 z m 6.91797,-2.96094 -1.99219,3.11328 h 1.99219 z m -0.20703,-0.6875 h 0.99218 v 3.80078 h 0.83203 v 0.65625 h -0.83203 V 168 h -0.78515 v -1.375 h -2.63282 v -0.76172 z"
   id="m4rtxt"
   style="font-size:8px;line-height:0%;font-family:'DejaVu Sans';fill:#111111"
   class="mod"
   aria-label="Mod4" />&#10;<path
   d="m 239.6582,162.16797 h 0.78907 v 5.16797 h 2.83984 V 168 h -3.62891 z m 8.02735,3.46484 v 0.35156 h -3.30469 q 0.0469,0.74219 0.44531,1.13282 0.40235,0.38672 1.11719,0.38672 0.41406,0 0.80078,-0.10157 0.39063,-0.10156 0.77344,-0.30468 v 0.67968 q -0.38672,0.16407 -0.79297,0.25 -0.40625,0.0859 -0.82422,0.0859 -1.04687,0 -1.66016,-0.60937 -0.60937,-0.60938 -0.60937,-1.64844 0,-1.07422 0.57812,-1.70313 0.58204,-0.63281 1.56641,-0.63281 0.88281,0 1.39453,0.57031 0.51563,0.56641 0.51563,1.54297 z m -0.71875,-0.21094 q -0.008,-0.58984 -0.33203,-0.9414 -0.32032,-0.35156 -0.85157,-0.35156 -0.60156,0 -0.96484,0.33984 -0.35938,0.33984 -0.41406,0.95703 z m 5.64062,0.21094 v 0.35156 h -3.30469 q 0.0469,0.74219 0.44532,1.13282 0.40234,0.38672 1.11718,0.38672 0.41407,0 0.80079,-0.10157 0.39062,-0.10156 0.77343,-0.30468 v 0.67968 q -0.38672,0.16407 -0.79297,0.25 -0.40625,0.0859 -0.82421,0.0859 -1.04688,0 -1.66016,-0.60937 -0.60938,-0.60938 -0.60938,-1.64844 0,-1.07422 0.57813,-1.70313 0.58203,-0.63281 1.56641,-0.63281 0.88281,0 1.39453,0.57031 0.51562,0.56641 0.51562,1.54297 z m -0.71875,-0.21094 q -0.008,-0.58984 -0.33203,-0.9414 -0.32031,-0.35156 -0.85156,-0.35156 -0.60156,0 -0.96485,0.33984 -0.35937,0.33984 -0.41406,0.95703 z m 4.4336,-1.125 q -0.1211,-0.0703 -0.26563,-0.10156 -0.14062,-0.0352 -0.3125,-0.0352 -0.60937,0 -0.9375,0.39843 -0.32422,0.39453 -0.32422,1.13672 V 168 h -0.72265 v -4.375 h 0.72265 v 0.67969 q 0.22656,-0.39844 0.58985,-0.58985 0.36328,-0.19531 0.88281,-0.19531 0.0742,0 0.16406,0.0117 0.0898,0.008 0.19922,0.0273 z m 0.4414,-0.67187 h 3.41406 v 0.65625 l -2.70312,3.14453 h 2.70312 V 168 h -3.51171 v -0.65625 l 2.70312,-3.14453 h -2.60547 z m 8.25391,2.00781 v 0.35156 h -3.30469 q 0.0469,0.74219 0.44531,1.13282 0.40235,0.38672 1.11719,0.38672 0.41406,0 0.80078,-0.10157 0.39063,-0.10156 0.77344,-0.30468 v 0.67968 q -0.38672,0.16407 -0.79297,0.25 -0.40625,0.0859 -0.82422,0.0859 -1.04687,0 -1.66015,-0.60937 -0.60938,-0.60938 -0.60938,-1.64844 0,-1.07422 0.57813,-1.70313 0.58203,-0.63281 1.5664,-0.63281 0.88281,0 1.39453,0.57031 0.51563,0.56641 0.51563,1.54297 z m -0.71875,-0.21094 q -0.008,-0.58984 -0.33203,-0.9414 -0.32032,-0.35156 -0.85157,-0.35156 -0.60156,0 -0.96484,0.33984 -0.35937,0.33984 -0.41406,0.95703 z m 1.89844,-1.79687 h 0.71875 V 168 h -0.71875 z m 0,-1.70313 h 0.71875 v 0.91016 h -0.71875 z m 5.37109,1.8711 v 0.67187 q -0.30469,-0.16797 -0.61328,-0.25 -0.30469,-0.0859 -0.61719,-0.0859 -0.69922,0 -1.08594,0.44531 -0.38672,0.4414 -0.38672,1.24219 0,0.80078 0.38672,1.24609 0.38672,0.44141 1.08594,0.44141 0.3125,0 0.61719,-0.082 0.30859,-0.0859 0.61328,-0.2539 v 0.66406 q -0.30078,0.14063 -0.625,0.21094 -0.32031,0.0703 -0.68359,0.0703 -0.98829,0 -1.57032,-0.62109 -0.58203,-0.6211 -0.58203,-1.67578 0,-1.07032 0.58594,-1.6836 0.58984,-0.61328 1.61328,-0.61328 0.33203,0 0.64844,0.0703 0.3164,0.0664 0.61328,0.20313 z m 4.88672,1.5664 V 168 h -0.71875 v -2.61719 q 0,-0.62109 -0.24219,-0.92969 -0.24219,-0.30859 -0.72656,-0.30859 -0.58203,0 -0.91797,0.37109 -0.33594,0.3711 -0.33594,1.01172 V 168 h -0.72265 v -6.07813 h 0.72265 v 2.38282 q 0.25781,-0.39453 0.60547,-0.58985 0.35156,-0.19531 0.80859,-0.19531 0.75391,0 1.14063,0.46875 0.38672,0.46484 0.38672,1.37109 z m 5.17578,0.27344 v 0.35156 h -3.30469 q 0.0469,0.74219 0.44531,1.13282 0.40235,0.38672 1.11719,0.38672 0.41406,0 0.80078,-0.10157 0.39063,-0.10156 0.77344,-0.30468 v 0.67968 q -0.38672,0.16407 -0.79297,0.25 -0.40625,0.0859 -0.82422,0.0859 -1.04687,0 -1.66015,-0.60937 -0.60938,-0.60938 -0.60938,-1.64844 0,-1.07422 0.57813,-1.70313 0.58203,-0.63281 1.5664,-0.63281 0.88282,0 1.39453,0.57031 0.51563,0.56641 0.51563,1.54297 z m -0.71875,-0.21094 q -0.008,-0.58984 -0.33203,-0.9414 -0.32031,-0.35156 -0.85156,-0.35156 -0.60157,0 -0.96485,0.33984 -0.35937,0.33984 -0.41406,0.95703 z m 5.53516,-0.0625 V 168 h -0.71875 v -2.61719 q 0,-0.62109 -0.24219,-0.92969 -0.24219,-0.30859 -0.72656,-0.30859 -0.58204,0 -0.91797,0.37109 -0.33594,0.3711 -0.33594,1.01172 V 168 h -0.72266 v -4.375 h 0.72266 v 0.67969 q 0.25781,-0.39453 0.60547,-0.58985 0.35156,-0.19531 0.80859,-0.19531 0.75391,0 1.14063,0.46875 0.38672,0.46484 0.38672,1.37109 z"
   id="text61"
   style="font-size:8px;line-height:0%;font-family:'DejaVu Sans';text-align:center;text-anchor:middle;fill:#111111"
   class="mod space"
   aria-label="Leerzeichen" />&#10;&#10;<path
   d="m 498.29883,61.214844 -2.97656,-2.976563 2.97656,-2.976562 v 1.599609 h 3.32226 v -3.609375 h 2.75391 l -0.006,6.363281 h -6.07031 z m -0.58594,-3.767578 v -0.767579 l -1.55859,1.558594 1.55859,1.558594 v -0.767578 h 6.07031 l 0.006,-5.191406 h -1.58203 l -0.006,3.609375 z"
   id="returntxt"
   style="font-size:12px;line-height:0%;font-family:'DejaVu Sans';fill:#111111"
   class="mod big"
   aria-label="⏎" />&#10;<path
   d="m 490.70312,23 h -7.66015 l -3.03906,-3.039063 3.03906,-3.039062 h 7.66015 z M 490.125,17.5 h -0.55078 l -2.46094,2.460937 2.46094,2.460938 h 0.55078 z m -5.47656,0 2.05078,2.050781 L 488.75,17.5 Z m 4.10156,4.921875 -2.05078,-2.050781 -2.05078,2.050781 z M 483.83594,17.5 h -0.55469 l -2.46094,2.46875 2.46094,2.453125 h 0.55469 l 2.46093,-2.460938 z"
   id="backspacetxt"
   style="font-size:8px;line-height:0%;font-family:'DejaVu Sans';fill:#111111"
   class="mod"
   aria-label="⌫" />&#10;</g>&#10;&#10;<g
   transform="translate(55,26)"
   id="g72">&#10;	<path
   d="m -3.4936523,-1.4941406 h 2.90039058 V -11.504883 l -3.15527348,0.632813 v -1.617188 l 3.13769536,-0.632812 H 1.1645508 V -1.4941406 H 4.0649414 V 0 h -7.5585937 z"
   id="text62"
   style="font-size:18px;line-height:0%;font-family:'DejaVu Sans';text-align:center;text-anchor:middle;fill:#111111;stroke-width:0.75"
   class="key"
   aria-label="1" />&#10;	<path
   d="m 33.728027,-1.4941406 h 6.196289 V 0 h -8.332031 v -1.4941406 q 1.010742,-1.0458985 2.750977,-2.803711 1.749023,-1.7666015 2.197265,-2.2763671 0.852539,-0.9580079 1.186524,-1.6171876 0.342773,-0.6679687 0.342773,-1.3095703 0,-1.0458984 -0.738281,-1.7050784 -0.729492,-0.659179 -1.907227,-0.659179 -0.834961,0 -1.766601,0.290039 -0.922852,0.290039 -1.977539,0.878906 v -1.792969 q 1.072265,-0.430664 2.003906,-0.65039 0.931641,-0.219727 1.705078,-0.219727 2.039063,0 3.251953,1.019531 1.212891,1.019531 1.212891,2.7246096 0,0.8085938 -0.307617,1.538086 -0.298828,0.7207031 -1.098633,1.7050781 -0.219727,0.2548828 -1.397461,1.4765625 -1.177734,1.2128906 -3.322266,3.4013672 z"
   id="text63"
   style="font-size:18px;line-height:0%;font-family:'DejaVu Sans';text-align:center;text-anchor:middle;fill:#111111;stroke-width:0.75"
   class="key"
   aria-label="2" />&#10;	<path
   d="m 73.577637,-7.0751953 q 1.274414,0.2724609 1.986328,1.1337891 0.720703,0.8613281 0.720703,2.1269531 0,1.9423828 -1.335938,3.00585935 -1.335937,1.06347656 -3.796875,1.06347656 -0.826171,0 -1.705078,-0.16699219 Q 68.57666,-0.0703125 67.64502,-0.39550781 V -2.109375 q 0.738281,0.4306641 1.617187,0.6503906 0.878906,0.2197266 1.836914,0.2197266 1.669922,0 2.540039,-0.6591797 0.878906,-0.6591797 0.878906,-1.9160156 0,-1.1601563 -0.817382,-1.8105469 -0.808594,-0.6591797 -2.258789,-0.6591797 h -1.529297 v -1.4589844 h 1.599609 q 1.30957,0 2.003906,-0.5185547 0.694336,-0.5273437 0.694336,-1.5117187 0,-1.0107425 -0.720703,-1.5468755 -0.711914,-0.544921 -2.047851,-0.544921 -0.729493,0 -1.564454,0.158203 -0.834961,0.158203 -1.836914,0.492187 v -1.582031 q 1.010743,-0.28125 1.889649,-0.421875 0.887695,-0.140625 1.669922,-0.140625 2.021484,0 3.199218,0.922852 1.177735,0.914062 1.177735,2.4785152 0,1.0898437 -0.624024,1.8457031 -0.624023,0.7470703 -1.77539,1.0371094 z"
   id="text64"
   style="font-size:18px;line-height:0%;font-family:'DejaVu Sans';text-align:center;text-anchor:middle;fill:#111111;stroke-width:0.75"
   class="key"
   aria-label="3" />&#10;	<path
   d="m 109.07666,-11.575195 -4.48242,7.0048825 h 4.48242 z m -0.46582,-1.546875 h 2.23242 v 8.5517575 h 1.87207 V -3.09375 h -1.87207 V 0 h -1.7666 v -3.09375 h -5.92383 v -1.7138672 z"
   id="text65"
   style="font-size:18px;line-height:0%;font-family:'DejaVu Sans';text-align:center;text-anchor:middle;fill:#111111;stroke-width:0.75"
   class="key"
   aria-label="4" />&#10;	<path
   d="m 140.21631,-13.12207 h 6.96973 v 1.49414 h -5.34375 v 3.2167972 q 0.38671,-0.131836 0.77343,-0.1933594 0.38672,-0.070312 0.77344,-0.070312 2.19727,0 3.48047,1.2041016 1.2832,1.2041015 1.2832,3.2607422 0,2.118164 -1.31836,3.2958984 -1.31836,1.16894531 -3.71777,1.16894531 -0.82617,0 -1.6875,-0.140625 -0.85254,-0.140625 -1.7666,-0.421875 V -2.0917969 q 0.79101,0.4306641 1.63476,0.6416016 0.84375,0.2109375 1.78418,0.2109375 1.52051,0 2.40821,-0.7998047 0.88769,-0.7998047 0.88769,-2.1708984 0,-1.3710938 -0.88769,-2.1708985 -0.8877,-0.7998047 -2.40821,-0.7998047 -0.71191,0 -1.42383,0.1582032 -0.70312,0.1582031 -1.4414,0.4921875 z"
   id="text66"
   style="font-size:18px;line-height:0%;font-family:'DejaVu Sans';text-align:center;text-anchor:middle;fill:#111111;stroke-width:0.75"
   class="key"
   aria-label="5" />&#10;&#10;	<path
   d="m 180.21533,-7.2685547 q -1.19531,0 -1.89844,0.8173828 -0.69433,0.8173828 -0.69433,2.241211 0,1.415039 0.69433,2.2412109 0.70313,0.8173828 1.89844,0.8173828 1.19531,0 1.88965,-0.8173828 0.70313,-0.8261719 0.70313,-2.2412109 0,-1.4238282 -0.70313,-2.241211 -0.69434,-0.8173828 -1.88965,-0.8173828 z m 3.52442,-5.5634763 v 1.617187 q -0.66797,-0.316406 -1.35352,-0.483398 -0.67676,-0.166992 -1.34473,-0.166992 -1.75781,0 -2.68945,1.186523 -0.92285,1.1865235 -1.05469,3.5859376 0.51856,-0.7646485 1.30078,-1.1689454 0.78223,-0.4130859 1.72266,-0.4130859 1.97754,0 3.12012,1.2041016 1.15137,1.1953125 1.15137,3.2607422 0,2.0214843 -1.19532,3.24316402 -1.19531,1.22167969 -3.18164,1.22167969 -2.27637,0 -3.48047,-1.74023441 -1.2041,-1.7490234 -1.2041,-5.0625 0,-3.1113281 1.47656,-4.9570314 1.47657,-1.854492 3.96387,-1.854492 0.66797,0 1.34473,0.131836 0.68554,0.131836 1.42383,0.395508 z"
   id="text67"
   style="font-size:18px;line-height:0%;font-family:'DejaVu Sans';text-align:center;text-anchor:middle;fill:#111111;stroke-width:0.75"
   class="key"
   aria-label="6" />&#10;	<path
   d="m 211.75049,-13.12207 h 8.4375 v 0.755859 L 215.42432,0 h -1.8545 l 4.48243,-11.62793 h -6.30176 z"
   id="text68"
   style="font-size:18px;line-height:0%;font-family:'DejaVu Sans';text-align:center;text-anchor:middle;fill:#111111;stroke-width:0.75"
   class="key"
   aria-label="7" />&#10;	<path
   d="m 251.99561,-6.2314453 q -1.26563,0 -1.99512,0.6767578 -0.7207,0.6767578 -0.7207,1.8632812 0,1.1865235 0.7207,1.8632813 0.72949,0.6767578 1.99512,0.6767578 1.26562,0 1.99511,-0.6767578 0.72949,-0.6855469 0.72949,-1.8632813 0,-1.1865234 -0.72949,-1.8632812 -0.7207,-0.6767578 -1.99511,-0.6767578 z m -1.7754,-0.7558594 q -1.14257,-0.28125 -1.78417,-1.0634766 -0.63282,-0.7822265 -0.63282,-1.9072265 0,-1.5732422 1.11621,-2.4873052 1.125,-0.914062 3.07618,-0.914062 1.95996,0 3.07617,0.914062 1.11621,0.914063 1.11621,2.4873052 0,1.125 -0.6416,1.9072265 -0.63282,0.7822266 -1.7666,1.0634766 1.2832,0.2988281 1.99511,1.1689453 0.72071,0.8701172 0.72071,2.1269531 0,1.9072266 -1.16895,2.92675786 -1.16016,1.01953125 -3.33105,1.01953125 -2.1709,0 -3.33985,-1.01953125 -1.16015,-1.01953126 -1.16015,-2.92675786 0,-1.2568359 0.7207,-2.1269531 0.7207,-0.8701172 2.0039,-1.1689453 z m -0.65039,-2.8037109 q 0,1.0195312 0.63282,1.5908203 0.6416,0.5712891 1.79297,0.5712891 1.14257,0 1.78418,-0.5712891 0.65039,-0.5712891 0.65039,-1.5908203 0,-1.0195314 -0.65039,-1.5908204 -0.64161,-0.571289 -1.78418,-0.571289 -1.15137,0 -1.79297,0.571289 -0.63282,0.571289 -0.63282,1.5908204 z"
   id="text69"
   style="font-size:18px;line-height:0%;font-family:'DejaVu Sans';text-align:center;text-anchor:middle;fill:#111111;stroke-width:0.75"
   class="key"
   aria-label="8" />&#10;	<path
   d="M 284.25146,-0.27246094 V -1.8896484 q 0.66797,0.3164062 1.35352,0.4833984 0.68555,0.1669922 1.34473,0.1669922 1.75781,0 2.68066,-1.1777344 0.93164,-1.1865234 1.06348,-3.5947265 -0.50977,0.7558593 -1.29199,1.1601562 -0.78223,0.4042969 -1.73145,0.4042969 -1.96875,0 -3.12012,-1.1865235 -1.14258,-1.1953125 -1.14258,-3.2607422 0,-2.0214847 1.19532,-3.2431637 1.19531,-1.22168 3.18164,-1.22168 2.27637,0 3.47168,1.749023 1.2041,1.7402348 1.2041,5.0625004 0,3.1025391 -1.47656,4.9570313 -1.46778,1.84570311 -3.95508,1.84570311 -0.66797,0 -1.35352,-0.13183594 -0.68554,-0.13183593 -1.42383,-0.39550781 z m 3.53321,-5.56347656 q 1.19531,0 1.88965,-0.8173828 0.70312,-0.8173828 0.70312,-2.241211 0,-1.4150387 -0.70312,-2.2324217 -0.69434,-0.826172 -1.88965,-0.826172 -1.19531,0 -1.89844,0.826172 -0.69434,0.817383 -0.69434,2.2324217 0,1.4238282 0.69434,2.241211 0.70313,0.8173828 1.89844,0.8173828 z"
   id="text70"
   style="font-size:18px;line-height:0%;font-family:'DejaVu Sans';text-align:center;text-anchor:middle;fill:#111111;stroke-width:0.75"
   class="key"
   aria-label="9" />&#10;	<path
   d="m 323.99561,-11.953125 q -1.3711,0 -2.06543,1.353516 -0.68555,1.3447262 -0.68555,4.0517574 0,2.6982422 0.68555,4.0517578 0.69433,1.3447266 2.06543,1.3447266 1.37988,0 2.06543,-1.3447266 0.69433,-1.3535156 0.69433,-4.0517578 0,-2.7070312 -0.69433,-4.0517574 -0.68555,-1.353516 -2.06543,-1.353516 z m 0,-1.40625 q 2.20605,0 3.36621,1.749023 1.16894,1.7402348 1.16894,5.0625004 0,3.3134766 -1.16894,5.0625 -1.16016,1.74023441 -3.36621,1.74023441 -2.20606,0 -3.375,-1.74023441 -1.16016,-1.7490234 -1.16016,-5.0625 0,-3.3222656 1.16016,-5.0625004 1.16894,-1.749023 3.375,-1.749023 z"
   id="text71"
   style="font-size:18px;line-height:0%;font-family:'DejaVu Sans';text-align:center;text-anchor:middle;fill:#111111;stroke-width:0.75"
   class="key"
   aria-label="0" />&#10;	<path
   d="m 357.63135,-5.6513672 h 4.7373 v 1.4414063 h -4.7373 z"
   id="text72"
   style="font-size:18px;line-height:0%;font-family:'DejaVu Sans';text-align:center;text-anchor:middle;fill:#111111;stroke-width:0.75"
   class="key"
   aria-label="-" />&#10;</g>&#10;&#10;&#10;<path
   d="m 10.685547,55.740234 h 6.105469 l -1.371094,-1.371093 0.703125,-0.703125 2.308594,2.308593 v -2.25 h 0.996093 v 5.039063 h -0.996093 v -2.261719 l -2.308594,2.308594 -0.703125,-0.703125 1.371094,-1.371094 h -6.105469 z"
   id="text73"
   style="font-size:12px;line-height:0%;font-family:'DejaVu Sans';fill:#111111"
   class="mod big"
   aria-label="⇥" />&#10;&#10;<g
   transform="translate(73,62)"
   id="g85">&#10;	<path
   d="m -3.730957,-9.84375 h 7.6816406 v 1.4765625 l -6.0820313,7.0751953 H 3.9506836 V 0 H -3.9506836 V -1.4765625 L 2.1313477,-8.5517578 H -3.730957 Z"
   id="text74"
   style="font-size:18px;line-height:0%;font-family:'DejaVu Sans';text-align:center;text-anchor:middle;fill:#111111;stroke-width:0.75"
   class="key"
   aria-label="z" />&#10;	<path
   d="M 36.46582,0.9140625 Q 35.780273,2.671875 35.129883,3.2080078 34.479492,3.7441406 33.389648,3.7441406 H 32.097656 V 2.390625 h 0.949219 q 0.667969,0 1.037109,-0.3164062 0.369141,-0.3164063 0.817383,-1.49414068 L 35.191406,-0.15820312 31.209961,-9.84375 h 1.713867 L 36,-2.1445313 39.076172,-9.84375 h 1.713867 z"
   id="text75"
   style="font-size:18px;line-height:0%;font-family:'DejaVu Sans';text-align:center;text-anchor:middle;fill:#111111;stroke-width:0.75"
   class="key"
   aria-label="y" />&#10;	<path
   d="M 67.825195,-3.8847656 V -9.84375 h 1.617188 v 5.8974609 q 0,1.397461 0.544922,2.100586 0.544922,0.6943359 1.634765,0.6943359 1.309571,0 2.06543,-0.8349609 0.764648,-0.834961 0.764648,-2.2763672 V -9.84375 h 1.617188 V 0 h -1.617188 v -1.5117187 q -0.588867,0.89648433 -1.371093,1.33593745 -0.773438,0.43066406 -1.801758,0.43066406 -1.696289,0 -2.575195,-1.0546875 -0.878907,-1.05468751 -0.878907,-3.08496091 z m 4.069336,-6.1962894 z"
   id="text76"
   style="font-size:18px;line-height:0%;font-family:'DejaVu Sans';text-align:center;text-anchor:middle;fill:#111111;stroke-width:0.75"
   class="key"
   aria-label="u" />&#10;	<path
   d="m 108.65479,-4.9482422 q -1.95997,0 -2.71583,0.4482422 -0.75585,0.4482422 -0.75585,1.5292969 0,0.8613281 0.5625,1.3710937 0.57128,0.5009766 1.54687,0.5009766 1.34473,0 2.15332,-0.9492188 0.81738,-0.9580078 0.81738,-2.540039 v -0.3603516 z m 3.22558,-0.6679687 V 0 h -1.61719 v -1.4941406 q -0.55371,0.89648435 -1.37988,1.32714841 -0.82617,0.421875 -2.02148,0.421875 -1.51172,0 -2.40821,-0.84375 -0.88769,-0.85253901 -0.88769,-2.27636721 0,-1.6611328 1.10742,-2.5048828 1.11621,-0.84375 3.32227,-0.84375 h 2.26757 v -0.1582031 q 0,-1.1162109 -0.73828,-1.7226563 -0.72949,-0.6152343 -2.05664,-0.6152343 -0.84375,0 -1.64355,0.2021484 -0.79981,0.2021484 -1.53809,0.6064453 v -1.4941406 q 0.8877,-0.3427735 1.72266,-0.5097656 0.83496,-0.1757816 1.62597,-0.1757816 2.13575,0 3.19043,1.1074222 1.05469,1.1074219 1.05469,3.3574219 z"
   id="text77"
   style="font-size:18px;line-height:0%;font-family:'DejaVu Sans';text-align:center;text-anchor:middle;fill:#111111;stroke-width:0.75"
   class="key"
   aria-label="a" />&#10;	<path
   d="m 140.9502,-4.9130859 q 0,1.7841796 0.72949,2.8037109 0.73828,1.0107422 2.02148,1.0107422 1.2832,0 2.02149,-1.0107422 0.73828,-1.0195313 0.73828,-2.8037109 0,-1.7841797 -0.73828,-2.7949219 -0.73829,-1.0195313 -2.02149,-1.0195313 -1.2832,0 -2.02148,1.0195313 -0.72949,1.0107422 -0.72949,2.7949219 z m 5.51074,3.4365234 q -0.50977,0.87890625 -1.29199,1.30957031 -0.77344,0.421875 -1.86329,0.421875 -1.78418,0 -2.90918,-1.42382811 -1.11621,-1.4238281 -1.11621,-3.7441406 0,-2.3203125 1.11621,-3.7441407 1.125,-1.4238284 2.90918,-1.4238284 1.08985,0 1.86329,0.4306644 0.78222,0.421875 1.29199,1.3007812 V -9.84375 h 1.61718 V 3.7441406 h -1.61718 z"
   id="text78"
   style="font-size:18px;line-height:0%;font-family:'DejaVu Sans';text-align:center;text-anchor:middle;fill:#111111;stroke-width:0.75"
   class="key"
   aria-label="q" />&#10;&#10;	<path
   d="m 177.54785,-1.4765625 v 5.2207031 h -1.62598 V -9.84375 h 1.62598 v 1.4941406 q 0.50977,-0.8789062 1.2832,-1.3007812 0.78223,-0.4306644 1.86329,-0.4306644 1.79296,0 2.90918,1.4238284 1.125,1.4238282 1.125,3.7441407 0,2.3203125 -1.125,3.7441406 -1.11622,1.42382811 -2.90918,1.42382811 -1.08106,0 -1.86329,-0.421875 -0.77343,-0.43066406 -1.2832,-1.30957031 z m 5.50195,-3.4365234 q 0,-1.7841797 -0.73828,-2.7949219 -0.72949,-1.0195313 -2.01269,-1.0195313 -1.28321,0 -2.02149,1.0195313 -0.72949,1.0107422 -0.72949,2.7949219 0,1.7841796 0.72949,2.8037109 0.73828,1.0107422 2.02149,1.0107422 1.2832,0 2.01269,-1.0107422 0.73828,-1.0195313 0.73828,-2.8037109 z"
   id="text79"
   style="font-size:18px;line-height:0%;font-family:'DejaVu Sans';text-align:center;text-anchor:middle;fill:#111111;stroke-width:0.75"
   class="key"
   aria-label="p" />&#10;	<path
   d="m 219.0498,-4.9130859 q 0,-1.7841797 -0.73828,-2.7949219 -0.72949,-1.0195313 -2.01269,-1.0195313 -1.28321,0 -2.02149,1.0195313 -0.72949,1.0107422 -0.72949,2.7949219 0,1.7841796 0.72949,2.8037109 0.73828,1.0107422 2.02149,1.0107422 1.2832,0 2.01269,-1.0107422 0.73828,-1.0195313 0.73828,-2.8037109 z m -5.50195,-3.4365235 q 0.50977,-0.8789062 1.2832,-1.3007812 0.78223,-0.4306644 1.86329,-0.4306644 1.79296,0 2.90918,1.4238284 1.125,1.4238282 1.125,3.7441407 0,2.3203125 -1.125,3.7441406 -1.11622,1.42382811 -2.90918,1.42382811 -1.08106,0 -1.86329,-0.421875 -0.77343,-0.43066406 -1.2832,-1.30957031 V 0 h -1.62598 v -13.675781 h 1.62598 z"
   id="text80"
   style="font-size:18px;line-height:0%;font-family:'DejaVu Sans';text-align:center;text-anchor:middle;fill:#111111;stroke-width:0.75"
   class="key"
   aria-label="b" />&#10;	<path
   d="m 252.59326,-7.9541016 q 0.60645,-1.0898437 1.4502,-1.6083984 0.84375,-0.518555 1.98633,-0.518555 1.53808,0 2.37304,1.081055 0.83496,1.0722656 0.83496,3.0585938 V 0 h -1.62597 v -5.8886719 q 0,-1.415039 -0.50098,-2.1005859 -0.50098,-0.6855469 -1.5293,-0.6855469 -1.25683,0 -1.98633,0.834961 -0.72949,0.8349609 -0.72949,2.2763671 V 0 h -1.62597 v -5.8886719 q 0,-1.4238281 -0.50098,-2.1005859 -0.50098,-0.6855469 -1.54688,-0.6855469 -1.23925,0 -1.96875,0.84375 -0.72949,0.834961 -0.72949,2.2675781 V 0 h -1.62597 v -9.84375 h 1.62597 v 1.5292969 q 0.55371,-0.9052735 1.32715,-1.3359375 0.77344,-0.4306644 1.83691,-0.4306644 1.07227,0 1.81934,0.5449222 0.75586,0.5449219 1.11621,1.5820312 z"
   id="text81"
   style="font-size:18px;line-height:0%;font-family:'DejaVu Sans';text-align:center;text-anchor:middle;fill:#111111;stroke-width:0.75"
   class="key"
   aria-label="m" />&#10;	<path
   d="m 287.1958,-13.675781 h 1.61719 V 0 h -1.61719 z"
   id="text82"
   style="font-size:18px;line-height:0%;font-family:'DejaVu Sans';text-align:center;text-anchor:middle;fill:#111111;stroke-width:0.75"
   class="key"
   aria-label="l" />&#10;	<path
   d="m 327.51123,-13.675781 v 1.344726 h -1.54687 q -0.87012,0 -1.2129,0.351563 -0.33398,0.351562 -0.33398,1.265625 v 0.870117 h 2.66309 v 1.2568359 h -2.66309 V 0 h -1.62598 v -8.5869141 h -1.54687 V -9.84375 h 1.54687 v -0.685547 q 0,-1.643555 0.76465,-2.390625 0.76465,-0.755859 2.42578,-0.755859 z"
   id="text83"
   style="font-size:18px;line-height:0%;font-family:'DejaVu Sans';text-align:center;text-anchor:middle;fill:#111111;stroke-width:0.75"
   class="key"
   aria-label="f" />&#10;	<path
   d="m 359.1958,-9.84375 h 1.61719 V 0.17578125 q 0,1.88085935 -0.7207,2.72460935 -0.71192,0.84375 -2.30274,0.84375 h -0.61523 V 2.3730469 h 0.43066 q 0.92285,0 1.25684,-0.4306641 0.33398,-0.421875 0.33398,-1.76660155 z m 0,-3.832031 h 1.61719 v 2.047851 h -1.61719 z"
   id="text84"
   style="font-size:18px;line-height:0%;font-family:'DejaVu Sans';text-align:center;text-anchor:middle;fill:#111111;stroke-width:0.75"
   class="key"
   aria-label="j" />&#10;&#10;  <path
   d="m 391.96582,-9.9931641 q 0,-1.7578129 1.0459,-2.7158199 1.05469,-0.966797 2.9707,-0.966797 1.82813,0 2.78613,1.019531 0.9668,1.019531 0.99317,2.9882812 -1.32715,0.070312 -2.06543,0.5800782 -0.73828,0.5009765 -0.73828,1.3447265 0,0.413086 0.25488,0.7734375 0.25488,0.3515625 0.82617,0.7207032 l 0.50098,0.3251953 q 1.45898,0.9316406 1.88086,1.555664 0.42187,0.6240235 0.42187,1.5029297 0,1.5117188 -0.99316,2.32031253 -0.98438,0.79980468 -2.83887,0.79980468 -0.5625,0 -1.16015,-0.11425781 -0.59766,-0.10546875 -1.23926,-0.31640625 V -1.6171875 q 0.70312,0.2636719 1.31836,0.3955078 0.61523,0.1230469 1.18652,0.1230469 1.01953,0 1.54688,-0.4130859 0.52734,-0.421875 0.52734,-1.2216797 0,-0.553711 -0.26367,-0.9228516 -0.25489,-0.3691406 -1.14258,-0.9140625 l -0.80859,-0.4833984 q -0.84375,-0.5185547 -1.23047,-1.1074219 -0.37793,-0.5976563 -0.37793,-1.3974609 0,-1.116211 0.72949,-1.8720704 0.73828,-0.7558589 2.06543,-1.0107419 -0.0703,-0.905274 -0.65039,-1.397461 -0.57129,-0.492188 -1.56445,-0.492188 -1.14258,0 -1.74024,0.615235 -0.59766,0.606445 -0.59766,1.7578122 V 0 h -1.64355 z"
   id="text85"
   style="font-size:18px;line-height:0%;font-family:'DejaVu Sans';text-align:center;text-anchor:middle;fill:#111111;stroke-width:0.75"
   class="key"
   aria-label="ß" />&#10;&#10;</g>&#10;&#10;&#10;<g
   transform="translate(84,98)"
   id="g95">&#10;	<path
   d="m 3.8320313,-9.4658203 v 1.5117187 q -0.6855469,-0.3779297 -1.3798829,-0.5625 -0.6855468,-0.1933593 -1.3886718,-0.1933593 -1.57324222,0 -2.4433594,1.0019531 Q -2.25,-6.7148437 -2.25,-4.9130859 q 0,1.8017578 0.8701172,2.8037109 0.87011718,0.9931641 2.4433594,0.9931641 0.703125,0 1.3886718,-0.1845703 0.694336,-0.1933594 1.3798829,-0.5712891 v 1.49414061 q -0.6767579,0.31640625 -1.40625,0.47460938 -0.7207032,0.15820312 -1.53808599,0.15820312 -2.22363281,0 -3.53320311,-1.39746091 -1.3095703,-1.397461 -1.3095703,-3.7705078 0,-2.4082032 1.3183593,-3.788086 1.3271485,-1.3798831 3.62988286,-1.3798831 0.74707034,0 1.45898434,0.1582034 0.7119141,0.1494141 1.3798829,0.4570313 z"
   id="text86"
   style="font-size:18px;line-height:0%;font-family:'DejaVu Sans';text-align:center;text-anchor:middle;fill:#111111;stroke-width:0.75"
   class="key"
   aria-label="c" />&#10;	<path
   d="m 39.282715,-9.5537109 v 1.5292968 q -0.685547,-0.3515625 -1.423828,-0.5273437 -0.738282,-0.1757813 -1.529297,-0.1757813 -1.204102,0 -1.810547,0.3691407 -0.597656,0.3691406 -0.597656,1.1074218 0,0.5625 0.430664,0.8876954 0.430664,0.3164062 1.731445,0.6064453 l 0.553711,0.1230468 q 1.722656,0.3691407 2.443359,1.0458985 0.729493,0.6679687 0.729493,1.8720703 0,1.3710937 -1.089844,2.17089843 -1.081055,0.79980468 -2.979492,0.79980468 -0.791016,0 -1.652344,-0.15820312 -0.852539,-0.14941406 -1.801758,-0.45703125 V -2.0302734 q 0.896484,0.4658203 1.766602,0.703125 0.870117,0.2285156 1.722656,0.2285156 1.142578,0 1.757812,-0.3867188 0.615235,-0.3955078 0.615235,-1.1074218 0,-0.6591797 -0.448242,-1.0107422 -0.439454,-0.3515625 -1.942383,-0.6767578 l -0.5625,-0.131836 q -1.50293,-0.3164062 -2.170899,-0.9667968 -0.667968,-0.6591797 -0.667968,-1.8017579 0,-1.3886718 0.984375,-2.1445312 0.984375,-0.7558597 2.794921,-0.7558597 0.896485,0 1.6875,0.1318362 0.791016,0.131836 1.458985,0.3955079 z"
   id="text87"
   style="font-size:18px;line-height:0%;font-family:'DejaVu Sans';text-align:center;text-anchor:middle;fill:#111111;stroke-width:0.75"
   class="key"
   aria-label="s" />&#10;	<path
   d="m 71.195801,-9.84375 h 1.617187 V 0 h -1.617187 z m 0,-3.832031 h 1.617187 v 2.047851 h -1.617187 z"
   id="text88"
   style="font-size:18px;line-height:0%;font-family:'DejaVu Sans';text-align:center;text-anchor:middle;fill:#111111;stroke-width:0.75"
   class="key"
   aria-label="i" />&#10;	<path
   d="m 112.5791,-5.3261719 v 0.7910157 h -7.43555 q 0.10547,1.6699218 1.00196,2.5488281 0.90527,0.8701172 2.51367,0.8701172 0.93164,0 1.80176,-0.2285157 0.8789,-0.2285156 1.74023,-0.6855468 v 1.52929684 q -0.87012,0.36914062 -1.78418,0.5625 -0.91406,0.19335937 -1.85449,0.19335937 -2.35547,0 -3.73535,-1.37109371 -1.3711,-1.3710938 -1.3711,-3.7089844 0,-2.4169922 1.30079,-3.8320313 1.30957,-1.4238284 3.52441,-1.4238284 1.98633,0 3.1377,1.2832034 1.16015,1.2744141 1.16015,3.4716797 z m -1.61719,-0.4746093 q -0.0176,-1.3271485 -0.74707,-2.1181641 -0.7207,-0.7910156 -1.91601,-0.7910156 -1.35352,0 -2.1709,0.7646484 -0.80859,0.7646484 -0.93164,2.1533203 z"
   id="text89"
   style="font-size:18px;line-height:0%;font-family:'DejaVu Sans';text-align:center;text-anchor:middle;fill:#111111;stroke-width:0.75"
   class="key nubkey"
   aria-label="e" />&#10;	<path
   d="m 144.00439,-8.7099609 q -1.30078,0 -2.05664,1.0195312 -0.75586,1.0107422 -0.75586,2.7773438 0,1.7666015 0.74707,2.7861328 0.75586,1.0107422 2.06543,1.0107422 1.292,0 2.04786,-1.0195313 0.75586,-1.0195312 0.75586,-2.7773437 0,-1.7490235 -0.75586,-2.7685547 -0.75586,-1.0283203 -2.04786,-1.0283203 z m 0,-1.3710941 q 2.10938,0 3.31348,1.3710941 1.2041,1.3710937 1.2041,3.796875 0,2.4169921 -1.2041,3.796875 -1.2041,1.37109371 -3.31348,1.37109371 -2.11816,0 -3.32226,-1.37109371 -1.19531,-1.3798829 -1.19531,-3.796875 0,-2.4257813 1.19531,-3.796875 1.2041,-1.3710941 3.32226,-1.3710941 z"
   id="text90"
   style="font-size:18px;line-height:0%;font-family:'DejaVu Sans';text-align:center;text-anchor:middle;fill:#111111;stroke-width:0.75"
   class="key"
   aria-label="o" />&#10;&#10;	<path
   d="m 182.46094,-8.3496094 v -5.3261716 h 1.61718 V 0 h -1.61718 v -1.4765625 q -0.50977,0.87890625 -1.29199,1.30957031 -0.77344,0.421875 -1.86329,0.421875 -1.78418,0 -2.90918,-1.42382811 -1.11621,-1.4238281 -1.11621,-3.7441406 0,-2.3203125 1.11621,-3.7441407 1.125,-1.4238284 2.90918,-1.4238284 1.08985,0 1.86329,0.4306644 0.78222,0.421875 1.29199,1.3007812 z m -5.51074,3.4365235 q 0,1.7841796 0.72949,2.8037109 0.73828,1.0107422 2.02148,1.0107422 1.2832,0 2.02149,-1.0107422 0.73828,-1.0195313 0.73828,-2.8037109 0,-1.7841797 -0.73828,-2.7949219 -0.73829,-1.0195313 -2.02149,-1.0195313 -1.2832,0 -2.02148,1.0195313 -0.72949,1.0107422 -0.72949,2.7949219 z"
   id="text91"
   style="font-size:18px;line-height:0%;font-family:'DejaVu Sans';text-align:center;text-anchor:middle;fill:#111111;stroke-width:0.75"
   class="key"
   aria-label="d" />&#10;	<path
   d="m 215.76709,-12.638672 v 2.794922 h 3.33105 v 1.2568359 h -3.33105 v 5.34375 q 0,1.2041016 0.3252,1.546875 0.33398,0.3427735 1.34472,0.3427735 h 1.66113 V 0 h -1.66113 q -1.87207,0 -2.58398,-0.69433594 -0.71192,-0.70312496 -0.71192,-2.54882816 v -5.34375 h -1.18652 V -9.84375 h 1.18652 v -2.794922 z"
   id="text92"
   style="font-size:18px;line-height:0%;font-family:'DejaVu Sans';text-align:center;text-anchor:middle;fill:#111111;stroke-width:0.75"
   class="key nubkey"
   aria-label="t" />&#10;	<path
   d="M 256.1748,-5.9414062 V 0 h -1.61718 v -5.8886719 q 0,-1.3974609 -0.54492,-2.0917968 -0.54493,-0.694336 -1.63477,-0.694336 -1.30957,0 -2.06543,0.834961 -0.75586,0.8349609 -0.75586,2.2763671 V 0 h -1.62598 v -9.84375 h 1.62598 v 1.5292969 q 0.58008,-0.8876953 1.36231,-1.3271485 0.79101,-0.4394534 1.81933,-0.4394534 1.69629,0 2.56641,1.0546878 0.87011,1.0458985 0.87011,3.084961 z"
   id="text93"
   style="font-size:18px;line-height:0%;font-family:'DejaVu Sans';text-align:center;text-anchor:middle;fill:#111111;stroke-width:0.75"
   class="key"
   aria-label="n" />&#10;	<path
   d="m 291.7002,-8.3320313 q -0.27247,-0.1582031 -0.59766,-0.2285156 -0.31641,-0.079102 -0.70313,-0.079102 -1.37109,0 -2.10937,0.8964843 -0.72949,0.8876954 -0.72949,2.5576172 V 0 h -1.62598 v -9.84375 h 1.62598 v 1.5292969 q 0.50976,-0.8964844 1.32715,-1.3271485 0.81738,-0.4394534 1.98632,-0.4394534 0.167,0 0.36914,0.02637 0.20215,0.01758 0.44825,0.061524 z"
   id="text94"
   style="font-size:18px;line-height:0%;font-family:'DejaVu Sans';text-align:center;text-anchor:middle;fill:#111111;stroke-width:0.75"
   class="key"
   aria-label="r" />&#10;	<path
   d="M 328.1748,-5.9414062 V 0 h -1.61718 v -5.8886719 q 0,-1.3974609 -0.54492,-2.0917968 -0.54493,-0.694336 -1.63477,-0.694336 -1.30957,0 -2.06543,0.834961 -0.75586,0.8349609 -0.75586,2.2763671 V 0 h -1.62598 v -13.675781 h 1.62598 v 5.3613279 q 0.58008,-0.8876953 1.36231,-1.3271485 0.79101,-0.4394534 1.81933,-0.4394534 1.69629,0 2.56641,1.0546878 0.87011,1.0458985 0.87011,3.084961 z"
   id="text95"
   style="font-size:18px;line-height:0%;font-family:'DejaVu Sans';text-align:center;text-anchor:middle;fill:#111111;stroke-width:0.75"
   class="key"
   aria-label="h" />&#10;&#10;  &#10;&#10;</g>&#10;&#10;<g
   transform="translate(101,134)"
   id="g105">&#10;    <path
   d="m -4.7900391,-9.84375 h 1.7138672 L 0,-1.5820312 3.0761719,-9.84375 H 4.7900391 L 1.0986328,0 h -2.1972656 z"
   id="text96"
   style="font-size:18px;line-height:0%;font-family:'DejaVu Sans';text-align:center;text-anchor:middle;fill:#111111;stroke-width:0.75"
   class="key"
   aria-label="v" />&#10;    <path
   d="M 40.552734,-9.84375 36.993164,-5.0537109 40.737305,0 H 38.830078 L 35.964844,-3.8671875 33.099609,0 H 31.192383 L 35.015625,-5.1503906 31.517578,-9.84375 h 1.907227 l 2.610351,3.5068359 2.610352,-3.5068359 z"
   id="text97"
   style="font-size:18px;line-height:0%;font-family:'DejaVu Sans';text-align:center;text-anchor:middle;fill:#111111;stroke-width:0.75"
   class="key"
   aria-label="x" />&#10;    <path
   d="M 67.825195,-3.8847656 V -9.84375 h 1.617188 v 5.8974609 q 0,1.397461 0.544922,2.100586 0.544922,0.6943359 1.634765,0.6943359 1.309571,0 2.06543,-0.8349609 0.764648,-0.834961 0.764648,-2.2763672 V -9.84375 h 1.617188 V 0 h -1.617188 v -1.5117187 q -0.588867,0.89648433 -1.371093,1.33593745 -0.773438,0.43066406 -1.801758,0.43066406 -1.696289,0 -2.575195,-1.0546875 -0.878907,-1.05468751 -0.878907,-3.08496091 z m 4.069336,-6.1962894 z m 0.808594,-3.55957 h 1.78418 v 1.775391 h -1.78418 z m -3.436523,0 h 1.784179 v 1.775391 h -1.784179 z"
   id="text98"
   style="font-size:18px;line-height:0%;font-family:'DejaVu Sans';text-align:center;text-anchor:middle;fill:#111111;stroke-width:0.75"
   class="key"
   aria-label="ü" />&#10;    <path
   d="m 108.65479,-4.9482422 q -1.95997,0 -2.71583,0.4482422 -0.75585,0.4482422 -0.75585,1.5292969 0,0.8613281 0.5625,1.3710937 0.57128,0.5009766 1.54687,0.5009766 1.34473,0 2.15332,-0.9492188 0.81738,-0.9580078 0.81738,-2.540039 v -0.3603516 z m 3.22558,-0.6679687 V 0 h -1.61719 v -1.4941406 q -0.55371,0.89648435 -1.37988,1.32714841 -0.82617,0.421875 -2.02148,0.421875 -1.51172,0 -2.40821,-0.84375 -0.88769,-0.85253901 -0.88769,-2.27636721 0,-1.6611328 1.10742,-2.5048828 1.11621,-0.84375 3.32227,-0.84375 h 2.26757 v -0.1582031 q 0,-1.1162109 -0.73828,-1.7226563 -0.72949,-0.6152343 -2.05664,-0.6152343 -0.84375,0 -1.64355,0.2021484 -0.79981,0.2021484 -1.53809,0.6064453 v -1.4941406 q 0.8877,-0.3427735 1.72266,-0.5097656 0.83496,-0.1757816 1.62597,-0.1757816 2.13575,0 3.19043,1.1074222 1.05469,1.1074219 1.05469,3.3574219 z m -3.34863,-8.0244141 h 1.78418 v 1.775391 h -1.78418 z m -3.43653,0 h 1.78418 v 1.775391 h -1.78418 z"
   id="text99"
   style="font-size:18px;line-height:0%;font-family:'DejaVu Sans';text-align:center;text-anchor:middle;fill:#111111;stroke-width:0.75"
   class="key"
   aria-label="ä" />&#10;&#10;    <path
   d="m 144.00439,-8.7099609 q -1.30078,0 -2.05664,1.0195312 -0.75586,1.0107422 -0.75586,2.7773438 0,1.7666015 0.74707,2.7861328 0.75586,1.0107422 2.06543,1.0107422 1.292,0 2.04786,-1.0195313 0.75586,-1.0195312 0.75586,-2.7773437 0,-1.7490235 -0.75586,-2.7685547 -0.75586,-1.0283203 -2.04786,-1.0283203 z m 0,-1.3710941 q 2.10938,0 3.31348,1.3710941 1.2041,1.3710937 1.2041,3.796875 0,2.4169921 -1.2041,3.796875 -1.2041,1.37109371 -3.31348,1.37109371 -2.11816,0 -3.32226,-1.37109371 -1.19531,-1.3798829 -1.19531,-3.796875 0,-2.4257813 1.19531,-3.796875 1.2041,-1.3710941 3.32226,-1.3710941 z m 0.82618,-3.55957 h 1.78418 v 1.775391 h -1.78418 z m -3.43653,0 h 1.78418 v 1.775391 h -1.78418 z"
   id="text100"
   style="font-size:18px;line-height:0%;font-family:'DejaVu Sans';text-align:center;text-anchor:middle;fill:#111111;stroke-width:0.75"
   class="key"
   aria-label="ö" />&#10;    <path
   d="m 173.39502,-9.84375 h 1.61719 l 2.02148,7.6816406 2.0127,-7.6816406 h 1.90722 l 2.02149,7.6816406 2.01269,-7.6816406 h 1.61719 L 184.02979,0 h -1.90723 L 180.00439,-8.0683594 177.87744,0 h -1.90723 z"
   id="text101"
   style="font-size:18px;line-height:0%;font-family:'DejaVu Sans';text-align:center;text-anchor:middle;fill:#111111;stroke-width:0.75"
   class="key"
   aria-label="w" />&#10;    <path
   d="m 218.46094,-5.0361328 q 0,-1.7578125 -0.72949,-2.7246094 -0.72071,-0.9667969 -2.03028,-0.9667969 -1.30078,0 -2.03027,0.9667969 -0.7207,0.9667969 -0.7207,2.7246094 0,1.7490234 0.7207,2.7158203 0.72949,0.9667969 2.03027,0.9667969 1.30957,0 2.03028,-0.9667969 0.72949,-0.9667969 0.72949,-2.7158203 z m 1.61718,3.8144531 q 0,2.5136719 -1.11621,3.7353516 -1.11621,1.2304687 -3.41894,1.2304687 -0.85254,0 -1.6084,-0.1318359 -0.75586,-0.1230469 -1.46777,-0.3867188 V 1.6523437 q 0.71191,0.3867188 1.40625,0.5712891 0.69433,0.1845703 1.41504,0.1845703 1.59082,0 2.38183,-0.8349609 0.79102,-0.82617189 0.79102,-2.50488283 V -1.7314453 q -0.50098,0.87011717 -1.28321,1.30078124 Q 216.39551,0 215.30566,0 q -1.81054,0 -2.91796,-1.3798828 -1.10743,-1.3798828 -1.10743,-3.65625 0,-2.2851563 1.10743,-3.6650391 1.10742,-1.3798831 2.91796,-1.3798831 1.08985,0 1.87207,0.4306644 0.78223,0.430664 1.28321,1.3007812 V -9.84375 h 1.61718 z"
   id="text102"
   style="font-size:18px;line-height:0%;font-family:'DejaVu Sans';text-align:center;text-anchor:middle;fill:#111111;stroke-width:0.75"
   class="key"
   aria-label="g" />&#10;    <path
   d="m 251.24854,-2.2324219 h 1.85449 v 1.51171878 l -1.44141,2.81250002 h -1.13379 l 0.72071,-2.81250002 z"
   id="text103"
   style="font-size:18px;line-height:0%;font-family:'DejaVu Sans';text-align:center;text-anchor:middle;fill:#111111;stroke-width:0.75"
   class="key"
   aria-label="," />&#10;    <path
   d="m 287.06396,-2.2324219 h 1.8545 V 0 h -1.8545 z"
   id="text104"
   style="font-size:18px;line-height:0%;font-family:'DejaVu Sans';text-align:center;text-anchor:middle;fill:#111111;stroke-width:0.75"
   class="key"
   aria-label="." />&#10;    <path
   d="m 320.42285,-13.675781 h 1.62598 v 8.0771482 l 4.82519,-4.2451172 h 2.06543 l -5.2207,4.6054688 L 329.15918,0 h -2.10938 l -5.00097,-4.8076172 V 0 h -1.62598 z"
   id="text105"
   style="font-size:18px;line-height:0%;font-family:'DejaVu Sans';text-align:center;text-anchor:middle;fill:#111111;stroke-width:0.75"
   class="key"
   aria-label="k" />&#10;</g>&#10;&#10;&#10;<g
   transform="translate(561,26)"
   id="g109">&#10;    <path
   d="M -6.5126953,-6.3896484 H 2.6455078 L 0.58886719,-8.4462891 1.6435547,-9.5009766 5.1064453,-6.0380859 v -3.375 h 1.4941406 v 7.5585937 H 5.1064453 V -5.2470703 L 1.6435547,-1.7841797 0.58886719,-2.8388672 2.6455078,-4.8955078 h -9.1582031 z"
   id="text106"
   style="font-size:18px;line-height:0%;font-family:'DejaVu Sans';text-align:center;text-anchor:middle;fill:#111111;stroke-width:0.75"
   class="key"
   aria-label="⇥" />&#10;    <path
   d="m 37.538086,-13.12207 h 1.494141 L 34.461914,1.6699219 h -1.494141 z"
   id="text107"
   style="font-size:18px;line-height:0%;font-family:'DejaVu Sans';text-align:center;text-anchor:middle;fill:#111111;stroke-width:0.75"
   class="key"
   aria-label="/" />&#10;    <path
   d="m 75.963867,-10.959961 -3.155273,1.7050782 3.155273,1.7138672 -0.509765,0.8613281 -2.953125,-1.7841797 v 3.3134766 h -1.001954 v -3.3134766 l -2.953125,1.7841797 -0.509765,-0.8613281 3.155273,-1.7138672 -3.155273,-1.7050782 0.509765,-0.870117 2.953125,1.78418 v -3.313477 h 1.001954 v 3.313477 l 2.953125,-1.78418 z"
   id="text108"
   style="font-size:18px;line-height:0%;font-family:'DejaVu Sans';text-align:center;text-anchor:middle;fill:#111111;stroke-width:0.75"
   class="key"
   aria-label="*" />&#10;    <path
   d="m 105.63135,-5.6513672 h 4.7373 v 1.4414063 h -4.7373 z"
   id="text109"
   style="font-size:18px;line-height:0%;font-family:'DejaVu Sans';text-align:center;text-anchor:middle;fill:#111111;stroke-width:0.75"
   class="key"
   aria-label="-" />&#10;</g>&#10;<g
   transform="translate(561,62)"
   id="g112">&#10;    <path
   d="m -4.2495117,-13.12207 h 8.4375 v 0.755859 L -0.57568359,0 H -2.4301758 l 4.4824219,-11.62793 h -6.3017578 z"
   id="text110"
   style="font-size:18px;line-height:0%;font-family:'DejaVu Sans';text-align:center;text-anchor:middle;fill:#111111;stroke-width:0.75"
   class="key"
   aria-label="7" />&#10;    <path
   d="m 35.995605,-6.2314453 q -1.265625,0 -1.995117,0.6767578 -0.720703,0.6767578 -0.720703,1.8632812 0,1.1865235 0.720703,1.8632813 0.729492,0.6767578 1.995117,0.6767578 1.265625,0 1.995118,-0.6767578 0.729492,-0.6855469 0.729492,-1.8632813 0,-1.1865234 -0.729492,-1.8632812 -0.720703,-0.6767578 -1.995118,-0.6767578 z m -1.77539,-0.7558594 q -1.142578,-0.28125 -1.78418,-1.0634766 -0.632812,-0.7822265 -0.632812,-1.9072265 0,-1.5732422 1.116211,-2.4873052 1.125,-0.914062 3.076171,-0.914062 1.959961,0 3.076172,0.914062 1.116211,0.914063 1.116211,2.4873052 0,1.125 -0.641601,1.9072265 -0.632813,0.7822266 -1.766602,1.0634766 1.283203,0.2988281 1.995117,1.1689453 0.720703,0.8701172 0.720703,2.1269531 0,1.9072266 -1.168945,2.92675786 -1.160156,1.01953125 -3.331055,1.01953125 -2.170898,0 -3.339843,-1.01953125 -1.160157,-1.01953126 -1.160157,-2.92675786 0,-1.2568359 0.720704,-2.1269531 0.720703,-0.8701172 2.003906,-1.1689453 z m -0.650391,-2.8037109 q 0,1.0195312 0.632813,1.5908203 0.641601,0.5712891 1.792968,0.5712891 1.142579,0 1.78418,-0.5712891 0.650391,-0.5712891 0.650391,-1.5908203 0,-1.0195314 -0.650391,-1.5908204 -0.641601,-0.571289 -1.78418,-0.571289 -1.151367,0 -1.792968,0.571289 -0.632813,0.571289 -0.632813,1.5908204 z"
   id="text111"
   style="font-size:18px;line-height:0%;font-family:'DejaVu Sans';text-align:center;text-anchor:middle;fill:#111111;stroke-width:0.75"
   class="key"
   aria-label="8" />&#10;    <path
   d="M 68.251465,-0.27246094 V -1.8896484 q 0.667969,0.3164062 1.353515,0.4833984 0.685547,0.1669922 1.344727,0.1669922 1.757813,0 2.680664,-1.1777344 0.931641,-1.1865234 1.063477,-3.5947265 -0.509766,0.7558593 -1.291993,1.1601562 -0.782226,0.4042969 -1.731445,0.4042969 -1.96875,0 -3.120117,-1.1865235 -1.142578,-1.1953125 -1.142578,-3.2607422 0,-2.0214847 1.195312,-3.2431637 1.195313,-1.22168 3.181641,-1.22168 2.276367,0 3.47168,1.749023 1.204101,1.7402348 1.204101,5.0625004 0,3.1025391 -1.476562,4.9570313 -1.467774,1.84570311 -3.955078,1.84570311 -0.667969,0 -1.353516,-0.13183594 -0.685547,-0.13183593 -1.423828,-0.39550781 z m 3.533203,-5.56347656 q 1.195312,0 1.889648,-0.8173828 0.703125,-0.8173828 0.703125,-2.241211 0,-1.4150387 -0.703125,-2.2324217 -0.694336,-0.826172 -1.889648,-0.826172 -1.195313,0 -1.898438,0.826172 -0.694335,0.817383 -0.694335,2.2324217 0,1.4238282 0.694335,2.241211 0.703125,0.8173828 1.898438,0.8173828 z"
   id="text112"
   style="font-size:18px;line-height:0%;font-family:'DejaVu Sans';text-align:center;text-anchor:middle;fill:#111111;stroke-width:0.75"
   class="key"
   aria-label="9" />&#10;</g>&#10;<g
   transform="translate(561,98)"
   id="g115">&#10;    <path
   d="m 1.0766602,-11.575195 -4.4824219,7.0048825 H 1.0766602 Z M 0.61083984,-13.12207 H 2.8432617 v 8.5517575 H 4.715332 V -3.09375 H 2.8432617 V 0 H 1.0766602 V -3.09375 H -4.847168 v -1.7138672 z"
   id="text113"
   style="font-size:18px;line-height:0%;font-family:'DejaVu Sans';text-align:center;text-anchor:middle;fill:#111111;stroke-width:0.75"
   class="key"
   aria-label="4" />&#10;    <path
   d="m 32.216309,-13.12207 h 6.969726 v 1.49414 h -5.34375 v 3.2167972 q 0.386719,-0.131836 0.773438,-0.1933594 0.386718,-0.070312 0.773437,-0.070312 2.197266,0 3.480469,1.2041016 1.283203,1.2041015 1.283203,3.2607422 0,2.118164 -1.318359,3.2958984 -1.31836,1.16894531 -3.717774,1.16894531 -0.826172,0 -1.6875,-0.140625 -0.852539,-0.140625 -1.766601,-0.421875 V -2.0917969 q 0.791015,0.4306641 1.634765,0.6416016 0.84375,0.2109375 1.78418,0.2109375 1.520508,0 2.408203,-0.7998047 0.887695,-0.7998047 0.887695,-2.1708984 0,-1.3710938 -0.887695,-2.1708985 -0.887695,-0.7998047 -2.408203,-0.7998047 -0.711914,0 -1.423828,0.1582032 -0.703125,0.1582031 -1.441406,0.4921875 z"
   id="text114"
   style="font-size:18px;line-height:0%;font-family:'DejaVu Sans';text-align:center;text-anchor:middle;fill:#111111;stroke-width:0.75"
   class="key"
   aria-label="5" />&#10;    <path
   d="m 72.215332,-7.2685547 q -1.195312,0 -1.898437,0.8173828 -0.694336,0.8173828 -0.694336,2.241211 0,1.415039 0.694336,2.2412109 0.703125,0.8173828 1.898437,0.8173828 1.195313,0 1.889648,-0.8173828 0.703125,-0.8261719 0.703125,-2.2412109 0,-1.4238282 -0.703125,-2.241211 -0.694335,-0.8173828 -1.889648,-0.8173828 z m 3.524414,-5.5634763 v 1.617187 q -0.667969,-0.316406 -1.353516,-0.483398 -0.676757,-0.166992 -1.344726,-0.166992 -1.757813,0 -2.689453,1.186523 -0.922852,1.1865235 -1.054688,3.5859376 0.518555,-0.7646485 1.300782,-1.1689454 0.782226,-0.4130859 1.722656,-0.4130859 1.977539,0 3.120117,1.2041016 1.151367,1.1953125 1.151367,3.2607422 0,2.0214843 -1.195312,3.24316402 -1.195313,1.22167969 -3.181641,1.22167969 -2.276367,0 -3.480469,-1.74023441 -1.204101,-1.7490234 -1.204101,-5.0625 0,-3.1113281 1.476562,-4.9570314 1.476563,-1.854492 3.963867,-1.854492 0.667969,0 1.344727,0.131836 0.685547,0.131836 1.423828,0.395508 z"
   id="text115"
   style="font-size:18px;line-height:0%;font-family:'DejaVu Sans';text-align:center;text-anchor:middle;fill:#111111;stroke-width:0.75"
   class="key"
   aria-label="6" />&#10;</g>&#10;<g
   transform="translate(561,134)"
   id="g118">&#10;    <path
   d="m -3.4936523,-1.4941406 h 2.90039058 V -11.504883 l -3.15527348,0.632813 v -1.617188 l 3.13769536,-0.632812 H 1.1645508 V -1.4941406 H 4.0649414 V 0 h -7.5585937 z"
   id="text116"
   style="font-size:18px;line-height:0%;font-family:'DejaVu Sans';text-align:center;text-anchor:middle;fill:#111111;stroke-width:0.75"
   class="key"
   aria-label="1" />&#10;    <path
   d="m 33.728027,-1.4941406 h 6.196289 V 0 h -8.332031 v -1.4941406 q 1.010742,-1.0458985 2.750977,-2.803711 1.749023,-1.7666015 2.197265,-2.2763671 0.852539,-0.9580079 1.186524,-1.6171876 0.342773,-0.6679687 0.342773,-1.3095703 0,-1.0458984 -0.738281,-1.7050784 -0.729492,-0.659179 -1.907227,-0.659179 -0.834961,0 -1.766601,0.290039 -0.922852,0.290039 -1.977539,0.878906 v -1.792969 q 1.072265,-0.430664 2.003906,-0.65039 0.931641,-0.219727 1.705078,-0.219727 2.039063,0 3.251953,1.019531 1.212891,1.019531 1.212891,2.7246096 0,0.8085938 -0.307617,1.538086 -0.298828,0.7207031 -1.098633,1.7050781 -0.219727,0.2548828 -1.397461,1.4765625 -1.177734,1.2128906 -3.322266,3.4013672 z"
   id="text117"
   style="font-size:18px;line-height:0%;font-family:'DejaVu Sans';text-align:center;text-anchor:middle;fill:#111111;stroke-width:0.75"
   class="key"
   aria-label="2" />&#10;    <path
   d="m 73.577637,-7.0751953 q 1.274414,0.2724609 1.986328,1.1337891 0.720703,0.8613281 0.720703,2.1269531 0,1.9423828 -1.335938,3.00585935 -1.335937,1.06347656 -3.796875,1.06347656 -0.826171,0 -1.705078,-0.16699219 Q 68.57666,-0.0703125 67.64502,-0.39550781 V -2.109375 q 0.738281,0.4306641 1.617187,0.6503906 0.878906,0.2197266 1.836914,0.2197266 1.669922,0 2.540039,-0.6591797 0.878906,-0.6591797 0.878906,-1.9160156 0,-1.1601563 -0.817382,-1.8105469 -0.808594,-0.6591797 -2.258789,-0.6591797 h -1.529297 v -1.4589844 h 1.599609 q 1.30957,0 2.003906,-0.5185547 0.694336,-0.5273437 0.694336,-1.5117187 0,-1.0107425 -0.720703,-1.5468755 -0.711914,-0.544921 -2.047851,-0.544921 -0.729493,0 -1.564454,0.158203 -0.834961,0.158203 -1.836914,0.492187 v -1.582031 q 1.010743,-0.28125 1.889649,-0.421875 0.887695,-0.140625 1.669922,-0.140625 2.021484,0 3.199218,0.922852 1.177735,0.914062 1.177735,2.4785152 0,1.0898437 -0.624024,1.8457031 -0.624023,0.7470703 -1.77539,1.0371094 z"
   id="text118"
   style="font-size:18px;line-height:0%;font-family:'DejaVu Sans';text-align:center;text-anchor:middle;fill:#111111;stroke-width:0.75"
   class="key"
   aria-label="3" />&#10;</g>&#10;<g
   transform="translate(561,170)"
   id="g120">&#10;    <path
   d="m 17.995605,-11.953125 q -1.371093,0 -2.065429,1.353516 -0.685547,1.3447262 -0.685547,4.0517574 0,2.6982422 0.685547,4.0517578 0.694336,1.3447266 2.065429,1.3447266 1.379883,0 2.06543,-1.3447266 0.694336,-1.3535156 0.694336,-4.0517578 0,-2.7070312 -0.694336,-4.0517574 -0.685547,-1.353516 -2.06543,-1.353516 z m 0,-1.40625 q 2.206055,0 3.366211,1.749023 1.168946,1.7402348 1.168946,5.0625004 0,3.3134766 -1.168946,5.0625 -1.160156,1.74023441 -3.366211,1.74023441 -2.206054,0 -3.375,-1.74023441 -1.160156,-1.7490234 -1.160156,-5.0625 0,-3.3222656 1.160156,-5.0625004 1.168946,-1.749023 3.375,-1.749023 z"
   id="text119"
   style="font-size:18px;line-height:0%;font-family:'DejaVu Sans';text-align:center;text-anchor:middle;fill:#111111;stroke-width:0.75"
   class="key"
   aria-label="0" />&#10;    <path
   d="m 71.248535,-2.2324219 h 1.854492 v 1.51171878 L 71.661621,2.0917969 h -1.133789 l 0.720703,-2.81250002 z"
   id="text120"
   style="font-size:18px;line-height:0%;font-family:'DejaVu Sans';text-align:center;text-anchor:middle;fill:#111111;stroke-width:0.75"
   class="key"
   aria-label="," />&#10;</g>&#10;&#10;<g
   transform="translate(561,78)"
   id="g121">&#10;    <path
   d="m 108.73828,-11.285156 v 4.8955076 h 4.89551 v 1.4941406 h -4.89551 V 0 h -1.47656 v -4.8955078 h -4.89551 v -1.4941406 h 4.89551 v -4.8955076 z"
   id="text121"
   style="font-size:18px;line-height:0%;font-family:'DejaVu Sans';text-align:center;text-anchor:middle;fill:#111111;stroke-width:0.75"
   class="key"
   aria-label="+" />&#10;</g>&#10;<g
   transform="translate(561,150)"
   id="g122">&#10;    <path
   d="m 105.40723,-1.1777344 -4.46485,-4.4648437 4.46485,-4.4648439 v 2.3994142 h 4.9834 V -13.12207 h 4.13085 l -0.009,9.5449216 h -9.10547 z m -0.87891,-5.6513672 v -1.1513671 l -2.33789,2.3378906 2.33789,2.3378906 v -1.1513672 h 9.10547 l 0.009,-7.7871093 h -2.37305 l -0.009,5.4140624 z"
   id="text122"
   style="font-size:18px;line-height:0%;font-family:'DejaVu Sans';text-align:center;text-anchor:middle;fill:#111111;stroke-width:0.75"
   class="key"
   aria-label="⏎" />&#10;</g>&#10;&#10;<path
   d="m 18.998047,18.476562 q 0.03516,0.07031 0.03516,0.166993 0,0.166992 -0.114258,0.298828 -0.105468,0.123047 -0.28125,0.123047 -0.166992,0 -0.307617,-0.114258 -0.131836,-0.123047 -0.131836,-0.307617 0,-0.158203 0.123047,-0.290039 0.131836,-0.131836 0.307617,-0.131836 0.263672,0 0.369141,0.254882 z m 2.768555,6.670899 q 0.03516,0.105469 0.03516,0.158203 0,0.158203 -0.123047,0.290039 -0.123047,0.131836 -0.298828,0.131836 -0.158203,0 -0.290039,-0.123047 -0.131836,-0.123047 -0.131836,-0.307617 0,-0.149414 0.114258,-0.28125 0.114257,-0.131836 0.28125,-0.131836 0.28125,0 0.413086,0.263672 z m -4.03418,-6.020508 q 0.131836,0.114258 0.131836,0.290039 0,0.421875 -0.413086,0.421875 -0.175781,0 -0.298828,-0.114258 -0.123047,-0.123047 -0.123047,-0.290039 0,-0.175781 0.123047,-0.298828 0.123047,-0.131836 0.290039,-0.131836 0.166992,0 0.290039,0.123047 z m 5.115234,5.097656 q 0.123047,0.123047 0.123047,0.298828 0,0.166993 -0.123047,0.29004 -0.114258,0.123046 -0.298828,0.123046 -0.175781,0 -0.298828,-0.123046 -0.123047,-0.123047 -0.123047,-0.29004 0,-0.175781 0.114258,-0.290039 0.123047,-0.123046 0.290039,-0.123046 0.175781,0 0.316406,0.114257 z m -6.029297,-4.016601 q 0.272461,0.114258 0.272461,0.404297 0,0.166992 -0.140625,0.290039 -0.131836,0.114258 -0.290039,0.114258 -0.18457,0 -0.298828,-0.131836 -0.114258,-0.131836 -0.114258,-0.290039 0,-0.175782 0.123047,-0.298829 0.131836,-0.123046 0.290039,-0.123046 0.05273,0 0.158203,0.03516 z m 6.670899,2.759765 q 0.263672,0.114258 0.263672,0.386719 0,0.175781 -0.131836,0.298828 -0.123047,0.114258 -0.290039,0.114258 -0.19336,0 -0.307618,-0.123047 -0.114257,-0.131836 -0.114257,-0.290039 0,-0.202148 0.131836,-0.307617 0.140625,-0.105469 0.298828,-0.105469 0.08789,0 0.149414,0.02637 z m -7.101563,-1.40625 q 0.166992,0 0.298828,0.123047 0.131836,0.114258 0.131836,0.28125 0,0.175782 -0.131836,0.307617 -0.131836,0.123047 -0.290039,0.123047 h -0.01758 q -0.166992,0 -0.290039,-0.123047 -0.114258,-0.131835 -0.114258,-0.298828 0,-0.175781 0.114258,-0.290039 0.123047,-0.123047 0.298828,-0.123047 z m 7.215821,-0.0088 q 0.175781,0 0.298828,0.123047 0.123047,0.123047 0.123047,0.298828 0,0.166993 -0.123047,0.290039 -0.114258,0.123047 -0.290039,0.123047 h -0.03516 q -0.158203,0 -0.28125,-0.123047 -0.114257,-0.123046 -0.114257,-0.28125 0,-0.175781 0.131836,-0.298828 0.131835,-0.123047 0.290039,-0.131836 z m -7.101563,1.423828 q 0.07031,-0.03516 0.166992,-0.03516 0.175782,0 0.298828,0.114258 0.123047,0.114258 0.123047,0.290039 0,0.166992 -0.123047,0.298828 -0.123046,0.131836 -0.298828,0.131836 -0.166992,0 -0.298828,-0.123047 -0.123047,-0.131836 -0.123047,-0.307617 0,-0.272461 0.254883,-0.369141 z m 6.670899,-2.768554 q 0.105468,-0.03516 0.158203,-0.03516 0.158203,0 0.290039,0.123046 0.131836,0.123047 0.131836,0.298829 0,0.158203 -0.123047,0.290039 -0.123047,0.131836 -0.307617,0.131836 -0.158204,0 -0.28125,-0.123047 -0.123047,-0.123047 -0.123047,-0.290039 0,-0.28125 0.254883,-0.395508 z m -6.020508,4.034179 q 0.131836,-0.131835 0.28125,-0.131835 0.18457,0 0.307617,0.123046 0.123047,0.114258 0.123047,0.290039 0,0.166993 -0.123047,0.298829 -0.114258,0.123046 -0.290039,0.123046 -0.166992,0 -0.298828,-0.123046 -0.123047,-0.131836 -0.123047,-0.298829 0,-0.158203 0.123047,-0.28125 z M 22.25,19.126953 q 0.140625,-0.123047 0.298828,-0.123047 0.175781,0 0.290039,0.123047 0.123047,0.123047 0.123047,0.298828 0,0.166992 -0.123047,0.298828 -0.114258,0.123047 -0.290039,0.123047 -0.166992,0 -0.290039,-0.131836 -0.123047,-0.131836 -0.123047,-0.290039 0,-0.166992 0.114258,-0.298828 z m -4.016602,6.029297 q 0.05273,-0.123047 0.166993,-0.193359 0.123046,-0.07031 0.228515,-0.07031 0.175781,0 0.290039,0.131836 0.123047,0.131836 0.123047,0.290039 0,0.175781 -0.131836,0.298828 -0.131836,0.114258 -0.290039,0.114258 -0.166992,0 -0.298828,-0.131836 -0.123047,-0.131836 -0.123047,-0.28125 0,-0.05273 0.03516,-0.158203 z m 2.759766,-6.670898 q 0.114258,-0.263672 0.386719,-0.263672 0.175781,0 0.298828,0.131836 0.123047,0.131836 0.123047,0.298828 0,0.175781 -0.131836,0.298828 -0.131836,0.114258 -0.290039,0.114258 -0.175781,0 -0.298828,-0.131836 -0.114258,-0.140625 -0.114258,-0.298828 0,-0.07031 0.02637,-0.149414 z m -1.40625,7.101562 q 0,-0.175781 0.123047,-0.298828 Q 19.833008,25.165039 20,25.165039 q 0.175781,0 0.298828,0.123047 0.123047,0.123047 0.123047,0.298828 0,0.166992 -0.123047,0.290039 Q 20.175781,26 20,26 19.833008,26 19.709961,25.876953 19.586914,25.753906 19.586914,25.586914 Z m 0,-7.21582 q 0,-0.175782 0.123047,-0.298828 Q 19.833008,17.949219 20,17.949219 q 0.175781,0 0.298828,0.123047 0.123047,0.123046 0.123047,0.298828 0,0.166992 -0.123047,0.290039 Q 20.175781,18.78418 20,18.78418 q -0.166992,0 -0.290039,-0.123047 -0.123047,-0.123047 -0.123047,-0.290039 z m 3.19043,-1.96875 q -0.105469,0.166992 -0.166992,0.246093 -0.06152,0.0791 -0.210938,0.149415 l -2.408203,-2.355469 -2.381836,2.355469 q -0.140625,-0.07031 -0.202148,-0.149415 -0.07031,-0.0791 -0.19336,-0.246093 l 2.320313,-3.331055 h 0.940429 z"
   id="t1"
   style="font-size:18px;line-height:0%;font-family:'Gentium Plus Compact';text-align:center;text-anchor:middle;fill:#111111"
   class="dead"
   aria-label="◌̂" />&#10;<path
   d="m 450.99805,18.476562 q 0.0352,0.07031 0.0352,0.166993 0,0.166992 -0.11425,0.298828 -0.10547,0.123047 -0.28125,0.123047 -0.167,0 -0.30762,-0.114258 -0.13184,-0.123047 -0.13184,-0.307617 0,-0.158203 0.12305,-0.290039 0.13183,-0.131836 0.30762,-0.131836 0.26367,0 0.36914,0.254882 z m 2.76855,6.670899 q 0.0352,0.105469 0.0352,0.158203 0,0.158203 -0.12305,0.290039 -0.12305,0.131836 -0.29883,0.131836 -0.1582,0 -0.29004,-0.123047 -0.13183,-0.123047 -0.13183,-0.307617 0,-0.149414 0.11426,-0.28125 0.11425,-0.131836 0.28125,-0.131836 0.28125,0 0.41308,0.263672 z m -4.03418,-6.020508 q 0.13184,0.114258 0.13184,0.290039 0,0.421875 -0.41309,0.421875 -0.17578,0 -0.29883,-0.114258 -0.12304,-0.123047 -0.12304,-0.290039 0,-0.175781 0.12304,-0.298828 0.12305,-0.131836 0.29004,-0.131836 0.16699,0 0.29004,0.123047 z m 5.11524,5.097656 q 0.12304,0.123047 0.12304,0.298828 0,0.166993 -0.12304,0.29004 -0.11426,0.123046 -0.29883,0.123046 -0.17578,0 -0.29883,-0.123046 -0.12305,-0.123047 -0.12305,-0.29004 0,-0.175781 0.11426,-0.290039 0.12305,-0.123046 0.29004,-0.123046 0.17578,0 0.31641,0.114257 z m -6.0293,-4.016601 q 0.27246,0.114258 0.27246,0.404297 0,0.166992 -0.14062,0.290039 -0.13184,0.114258 -0.29004,0.114258 -0.18457,0 -0.29883,-0.131836 -0.11426,-0.131836 -0.11426,-0.290039 0,-0.175782 0.12305,-0.298829 0.13183,-0.123046 0.29004,-0.123046 0.0527,0 0.1582,0.03516 z m 6.6709,2.759765 q 0.26367,0.114258 0.26367,0.386719 0,0.175781 -0.13184,0.298828 -0.12304,0.114258 -0.29004,0.114258 -0.19335,0 -0.30761,-0.123047 -0.11426,-0.131836 -0.11426,-0.290039 0,-0.202148 0.13184,-0.307617 0.14062,-0.105469 0.29882,-0.105469 0.0879,0 0.14942,0.02637 z m -7.10156,-1.40625 q 0.16699,0 0.29882,0.123047 0.13184,0.114258 0.13184,0.28125 0,0.175782 -0.13184,0.307617 -0.13183,0.123047 -0.29004,0.123047 h -0.0176 q -0.167,0 -0.29004,-0.123047 -0.11426,-0.131835 -0.11426,-0.298828 0,-0.175781 0.11426,-0.290039 0.12304,-0.123047 0.29883,-0.123047 z m 7.21582,-0.0088 q 0.17578,0 0.29882,0.123047 0.12305,0.123047 0.12305,0.298828 0,0.166993 -0.12305,0.290039 -0.11425,0.123047 -0.29004,0.123047 h -0.0351 q -0.1582,0 -0.28125,-0.123047 -0.11426,-0.123046 -0.11426,-0.28125 0,-0.175781 0.13184,-0.298828 0.13183,-0.123047 0.29004,-0.131836 z m -7.10157,1.423828 q 0.0703,-0.03516 0.167,-0.03516 0.17578,0 0.29882,0.114258 0.12305,0.114258 0.12305,0.290039 0,0.166992 -0.12305,0.298828 -0.12304,0.131836 -0.29882,0.131836 -0.167,0 -0.29883,-0.123047 -0.12305,-0.131836 -0.12305,-0.307617 0,-0.272461 0.25488,-0.369141 z m 6.6709,-2.768554 q 0.10547,-0.03516 0.1582,-0.03516 0.15821,0 0.29004,0.123046 0.13184,0.123047 0.13184,0.298829 0,0.158203 -0.12305,0.290039 -0.12304,0.131836 -0.30761,0.131836 -0.15821,0 -0.28125,-0.123047 -0.12305,-0.123047 -0.12305,-0.290039 0,-0.28125 0.25488,-0.395508 z m -6.02051,4.034179 q 0.13184,-0.131835 0.28125,-0.131835 0.18457,0 0.30762,0.123046 0.12305,0.114258 0.12305,0.290039 0,0.166993 -0.12305,0.298829 -0.11426,0.123046 -0.29004,0.123046 -0.16699,0 -0.29883,-0.123046 -0.12304,-0.131836 -0.12304,-0.298829 0,-0.158203 0.12304,-0.28125 z M 454.25,19.126953 q 0.14062,-0.123047 0.29883,-0.123047 0.17578,0 0.29004,0.123047 0.12304,0.123047 0.12304,0.298828 0,0.166992 -0.12304,0.298828 -0.11426,0.123047 -0.29004,0.123047 -0.16699,0 -0.29004,-0.131836 -0.12305,-0.131836 -0.12305,-0.290039 0,-0.166992 0.11426,-0.298828 z m -4.0166,6.029297 q 0.0527,-0.123047 0.16699,-0.193359 0.12305,-0.07031 0.22852,-0.07031 0.17578,0 0.29004,0.131836 0.12304,0.131836 0.12304,0.290039 0,0.175781 -0.13183,0.298828 -0.13184,0.114258 -0.29004,0.114258 -0.167,0 -0.29883,-0.131836 -0.12305,-0.131836 -0.12305,-0.28125 0,-0.05273 0.0352,-0.158203 z m 2.75976,-6.670898 q 0.11426,-0.263672 0.38672,-0.263672 0.17578,0 0.29883,0.131836 0.12305,0.131836 0.12305,0.298828 0,0.175781 -0.13184,0.298828 -0.13183,0.114258 -0.29004,0.114258 -0.17578,0 -0.29883,-0.131836 -0.11425,-0.140625 -0.11425,-0.298828 0,-0.07031 0.0264,-0.149414 z m -1.40625,7.101562 q 0,-0.175781 0.12305,-0.298828 0.12305,-0.123047 0.29004,-0.123047 0.17578,0 0.29883,0.123047 0.12304,0.123047 0.12304,0.298828 0,0.166992 -0.12304,0.290039 Q 452.17578,26 452,26 q -0.16699,0 -0.29004,-0.123047 -0.12305,-0.123047 -0.12305,-0.290039 z m 0,-7.21582 q 0,-0.175782 0.12305,-0.298828 0.12305,-0.123047 0.29004,-0.123047 0.17578,0 0.29883,0.123047 0.12304,0.123046 0.12304,0.298828 0,0.166992 -0.12304,0.290039 -0.12305,0.123047 -0.29883,0.123047 -0.16699,0 -0.29004,-0.123047 -0.12305,-0.123047 -0.12305,-0.290039 z m 1.41504,-1.845703 q -0.19336,0.18457 -0.49218,0.272461 l -3.09375,-3.313477 0.19335,-0.360352 q 0.11426,-0.03516 0.36915,-0.0791 0.24609,-0.04394 0.50976,-0.0791 0.26367,-0.04395 0.4043,-0.05273 z"
   id="t2"
   style="font-size:18px;line-height:0%;font-family:'Gentium Plus Compact';text-align:center;text-anchor:middle;fill:#111111"
   class="dead"
   aria-label="◌̀" />&#10;&#10;<path
   d="m 478.99805,90.476562 q 0.0352,0.07031 0.0352,0.166993 0,0.166992 -0.11425,0.298828 -0.10547,0.123047 -0.28125,0.123047 -0.167,0 -0.30762,-0.114258 -0.13184,-0.123047 -0.13184,-0.307617 0,-0.158203 0.12305,-0.290039 0.13183,-0.131836 0.30762,-0.131836 0.26367,0 0.36914,0.254882 z m 2.76855,6.670899 q 0.0352,0.105469 0.0352,0.158203 0,0.158203 -0.12305,0.290039 -0.12305,0.131836 -0.29883,0.131836 -0.1582,0 -0.29004,-0.123047 -0.13183,-0.123047 -0.13183,-0.307617 0,-0.149414 0.11426,-0.28125 0.11425,-0.131836 0.28125,-0.131836 0.28125,0 0.41308,0.263672 z m -4.03418,-6.020508 q 0.13184,0.114258 0.13184,0.290039 0,0.421875 -0.41309,0.421875 -0.17578,0 -0.29883,-0.114258 -0.12304,-0.123047 -0.12304,-0.290039 0,-0.175781 0.12304,-0.298828 0.12305,-0.131836 0.29004,-0.131836 0.16699,0 0.29004,0.123047 z m 5.11524,5.097656 q 0.12304,0.123047 0.12304,0.298828 0,0.166993 -0.12304,0.29004 -0.11426,0.123046 -0.29883,0.123046 -0.17578,0 -0.29883,-0.123046 -0.12305,-0.123047 -0.12305,-0.29004 0,-0.175781 0.11426,-0.290039 0.12305,-0.123046 0.29004,-0.123046 0.17578,0 0.31641,0.114257 z m -6.0293,-4.016601 q 0.27246,0.114258 0.27246,0.404297 0,0.166992 -0.14062,0.290039 -0.13184,0.114258 -0.29004,0.114258 -0.18457,0 -0.29883,-0.131836 -0.11426,-0.131836 -0.11426,-0.290039 0,-0.175782 0.12305,-0.298829 0.13183,-0.123046 0.29004,-0.123046 0.0527,0 0.1582,0.03516 z m 6.6709,2.759765 q 0.26367,0.114258 0.26367,0.386719 0,0.175781 -0.13184,0.298828 -0.12304,0.114258 -0.29004,0.114258 -0.19335,0 -0.30761,-0.123047 -0.11426,-0.131836 -0.11426,-0.290039 0,-0.202148 0.13184,-0.307617 0.14062,-0.105469 0.29882,-0.105469 0.0879,0 0.14942,0.02637 z m -7.10156,-1.40625 q 0.16699,0 0.29882,0.123047 0.13184,0.114258 0.13184,0.28125 0,0.175782 -0.13184,0.307617 -0.13183,0.123047 -0.29004,0.123047 h -0.0176 q -0.167,0 -0.29004,-0.123047 -0.11426,-0.131835 -0.11426,-0.298828 0,-0.175781 0.11426,-0.290039 0.12304,-0.123047 0.29883,-0.123047 z m 7.21582,-0.0088 q 0.17578,0 0.29882,0.123047 0.12305,0.123047 0.12305,0.298828 0,0.166993 -0.12305,0.290039 -0.11425,0.123047 -0.29004,0.123047 h -0.0351 q -0.1582,0 -0.28125,-0.123047 -0.11426,-0.123046 -0.11426,-0.28125 0,-0.175781 0.13184,-0.298828 0.13183,-0.123047 0.29004,-0.131836 z m -7.10157,1.423828 q 0.0703,-0.03516 0.167,-0.03516 0.17578,0 0.29882,0.114258 0.12305,0.114258 0.12305,0.290039 0,0.166992 -0.12305,0.298828 -0.12304,0.131836 -0.29882,0.131836 -0.167,0 -0.29883,-0.123047 -0.12305,-0.131836 -0.12305,-0.307617 0,-0.272461 0.25488,-0.369141 z m 6.6709,-2.768554 q 0.10547,-0.03516 0.1582,-0.03516 0.15821,0 0.29004,0.123046 0.13184,0.123047 0.13184,0.298829 0,0.158203 -0.12305,0.290039 -0.12304,0.131836 -0.30761,0.131836 -0.15821,0 -0.28125,-0.123047 -0.12305,-0.123047 -0.12305,-0.290039 0,-0.28125 0.25488,-0.395508 z m -6.02051,4.034179 q 0.13184,-0.131835 0.28125,-0.131835 0.18457,0 0.30762,0.123046 0.12305,0.114258 0.12305,0.290039 0,0.166993 -0.12305,0.298829 -0.11426,0.123046 -0.29004,0.123046 -0.16699,0 -0.29883,-0.123046 -0.12304,-0.131836 -0.12304,-0.298829 0,-0.158203 0.12304,-0.28125 z M 482.25,91.126953 q 0.14062,-0.123047 0.29883,-0.123047 0.17578,0 0.29004,0.123047 0.12304,0.123047 0.12304,0.298828 0,0.166992 -0.12304,0.298828 -0.11426,0.123047 -0.29004,0.123047 -0.16699,0 -0.29004,-0.131836 -0.12305,-0.131836 -0.12305,-0.290039 0,-0.166992 0.11426,-0.298828 z m -4.0166,6.029297 q 0.0527,-0.123047 0.16699,-0.193359 0.12305,-0.07031 0.22852,-0.07031 0.17578,0 0.29004,0.131836 0.12304,0.131836 0.12304,0.290039 0,0.175781 -0.13183,0.298828 -0.13184,0.114258 -0.29004,0.114258 -0.167,0 -0.29883,-0.131836 -0.12305,-0.131836 -0.12305,-0.28125 0,-0.05273 0.0352,-0.158203 z m 2.75976,-6.670898 q 0.11426,-0.263672 0.38672,-0.263672 0.17578,0 0.29883,0.131836 0.12305,0.131836 0.12305,0.298828 0,0.175781 -0.13184,0.298828 -0.13183,0.114258 -0.29004,0.114258 -0.17578,0 -0.29883,-0.131836 -0.11425,-0.140625 -0.11425,-0.298828 0,-0.07031 0.0264,-0.149414 z m -1.40625,7.101562 q 0,-0.175781 0.12305,-0.298828 0.12305,-0.123047 0.29004,-0.123047 0.17578,0 0.29883,0.123047 0.12304,0.123047 0.12304,0.298828 0,0.166992 -0.12304,0.290039 Q 480.17578,98 480,98 q -0.16699,0 -0.29004,-0.123047 -0.12305,-0.123047 -0.12305,-0.290039 z m 0,-7.21582 q 0,-0.175782 0.12305,-0.298828 0.12305,-0.123047 0.29004,-0.123047 0.17578,0 0.29883,0.123047 0.12304,0.123046 0.12304,0.298828 0,0.166992 -0.12304,0.290039 -0.12305,0.123047 -0.29883,0.123047 -0.16699,0 -0.29004,-0.123047 -0.12305,-0.123047 -0.12305,-0.290039 z m 0.0352,-1.573242 q -0.1582,-0.02637 -0.28125,-0.09668 -0.12305,-0.07031 -0.21973,-0.149414 l 2.05664,-3.638672 q 0.20215,0.0088 0.64161,0.0791 0.43945,0.06152 0.63281,0.123047 l 0.20215,0.342774 z"
   id="t3"
   style="font-size:18px;line-height:0%;font-family:'Gentium Plus Compact';text-align:center;text-anchor:middle;fill:#111111"
   class="dead"
   aria-label="◌́" />&#10;&#10;</svg>
