<?xml version="1.0" encoding="UTF-8" standalone="no"?>
<svg
   version="1.1"
   id="Ebene_1"
   height="183"
   width="535"
   viewBox="0 0 535 183"
   enable-background="new 0 0 535 183"
   xml:space="preserve"
   inkscape:version="0.48.5 r10040"
   sodipodi:docname="noted-6-tkl.svg"
   inkscape:export-xdpi="90"
   inkscape:export-ydpi="90"
   xmlns:inkscape="http://www.inkscape.org/namespaces/inkscape"
   xmlns:sodipodi="http://sodipodi.sourceforge.net/DTD/sodipodi-0.dtd"
   xmlns:xlink="http://www.w3.org/1999/xlink"
   xmlns="http://www.w3.org/2000/svg"
   xmlns:svg="http://www.w3.org/2000/svg"
   xmlns:rdf="http://www.w3.org/1999/02/22-rdf-syntax-ns#"
   xmlns:cc="http://creativecommons.org/ns#"
   xmlns:dc="http://purl.org/dc/elements/1.1/">&#10;&#10;  <metadata
   id="metadata135">&#10;    <rdf:RDF>&#10;      <cc:Work
   rdf:about="">&#10;        <dc:format>image/svg+xml</dc:format>&#10;        <dc:type
   rdf:resource="http://purl.org/dc/dcmitype/StillImage" />&#10;        <dc:title />&#10;      </cc:Work>&#10;    </rdf:RDF>&#10;  </metadata>&#10;&#10;<defs
   id="defs">&#10;<style
   type="text/css"
   id="style46661">&#10;text.mod, text.key, text.dead {&#10;	fill:#111;&#10;	fill-opacity:1;&#10;    stroke:none;&#10;    font-style:normal;&#10;    font-variant:normal;&#10;    font-weight:normal;&#10;    font-stretch:normal;&#10;    display:inline;&#10;    font-family:Arial;&#10;    writing-mode:lr-tb;&#10;}&#10;&#10;text.key {&#10;    font-family:Arial;&#10;}&#10;&#10;text.dead {&#10;    font-family: Gentium Plus Compact; &#10;}&#10;&#10;text.mod {&#10;    text-align:start;&#10;    text-anchor:start;&#10;}&#10;&#10;text.space, text.dead, text.center, text.key {&#10;    text-align:center;&#10;    text-anchor:middle;&#10;}&#10;&#10;text.key { font-size:18px; }&#10;text.dead { font-size:18px; }&#10;text.mod { font-size:10px; }&#10;text.big { font-size:12px; }&#10;&#10;.key {&#10;stroke-width:0.75;&#10;}&#10;&#10;.grey { fill:#949494; stroke:#696969; }&#10;.grey { fill:#9f9f9f; stroke:#747474; }&#10;&#10;.numpad { fill:#afaa9f; stroke:#747474; }&#10;&#10;/* bootstrap colors */&#10;.l5, .r5 { fill:#93CCEA; }&#10;.l4, .r4 { fill:#7abeb3; }&#10;.l3, .r3 { fill:#63b280; }&#10;.l2, .r2 { fill:#4aa44a; }&#10;&#10;/* btn bg hover, unused */&#10;.l2, .r2 { stroke:#3071a9; }&#10;.l3, .r3 { stroke:#449d44; }&#10;.l4, .r4 { stroke:#c9302c; }&#10;.l5, .r5 { stroke:#ec971f; }&#10;&#10;/* btn border hover */&#10;.l2, .r2 { stroke:#204d74; }&#10;.l3, .r3 { stroke:#204d74; }&#10;.l4, .r4 { stroke:#204d74; }&#10;.l5, .r5 { stroke:#204d74; }&#10;&#10;<!-- text.nubkey { fill:#eee; } -->&#10;&#10;.pressed {&#10;	<!--opacity:0.5;-->&#10;	fill:#777;&#10;}&#10;    </style>&#10;&#10;    <g
   id="basekey">&#10;        <rect
   width="32"
   height="32"
   rx="4"
   class="key"
   id="rect1" />&#10;	<!--rect width="20" height="20" x="6" y="6" /-->&#10;        <!--rect width="2" height="2" fill="#000" x="15" y="15" /-->&#10;    </g>&#10;&#10;    </defs>&#10;<sodipodi:namedview
   pagecolor="#ffffff"
   bordercolor="#666666"
   borderopacity="1"
   objecttolerance="10"
   gridtolerance="10"
   guidetolerance="10"
   inkscape:pageopacity="0"
   inkscape:pageshadow="2"
   inkscape:window-width="1614"
   inkscape:window-height="969"
   id="base"
   showgrid="false"
   inkscape:zoom="0.70961538"
   inkscape:cx="685.32105"
   inkscape:cy="241.15395"
   inkscape:window-x="78"
   inkscape:window-y="71"
   inkscape:window-maximized="0"
   inkscape:current-layer="Ebene_1"
   inkscape:showpageshadow="2"
   inkscape:pagecheckerboard="0"
   inkscape:deskcolor="#d1d1d1" />&#10;&#10;<rect
   width="100%"
   height="100%"
   rx="4"
   style="fill:#eee"
   id="rect2" />&#10;&#10;<g
   transform="translate(3.5,3.5)"
   id="g62">&#10;<use
   xlink:href="#basekey"
   y="0"
   x="0"
   class="l5"
   id="use2" />&#10;<use
   xlink:href="#basekey"
   y="0"
   x="36"
   class="l5"
   id="use3" />&#10;<use
   xlink:href="#basekey"
   y="0"
   x="72"
   class="l5"
   id="use4" />&#10;<use
   xlink:href="#basekey"
   y="0"
   x="108"
   class="l4"
   id="use5" />&#10;<use
   xlink:href="#basekey"
   y="0"
   x="144"
   class="l3"
   id="use6" />&#10;<use
   xlink:href="#basekey"
   y="0"
   x="180"
   class="l2"
   id="use7" />&#10;<use
   xlink:href="#basekey"
   y="0"
   x="216"
   class="l2"
   id="use8" />&#10;&#10;<use
   xlink:href="#basekey"
   y="0"
   x="252"
   class="r2"
   id="use9" />&#10;<use
   xlink:href="#basekey"
   y="0"
   x="288"
   class="r2"
   id="use10" />&#10;<use
   xlink:href="#basekey"
   y="0"
   x="324"
   class="r3"
   id="use11" />&#10;<use
   xlink:href="#basekey"
   y="0"
   x="360"
   class="r4"
   id="use12" />&#10;<use
   xlink:href="#basekey"
   y="0"
   x="396"
   class="r5"
   id="use13" />&#10;<use
   xlink:href="#basekey"
   y="0"
   x="432"
   class="r5"
   id="use14" />&#10;&#10;&#10;<use
   xlink:href="#basekey"
   y="36"
   x="54"
   class="l5"
   id="use15" />&#10;<use
   xlink:href="#basekey"
   y="36"
   x="90"
   class="l4"
   id="use16" />&#10;<use
   xlink:href="#basekey"
   y="36"
   x="126"
   class="l3"
   id="use17" />&#10;<use
   xlink:href="#basekey"
   y="36"
   x="162"
   class="l2"
   id="use18" />&#10;<use
   xlink:href="#basekey"
   y="36"
   x="198"
   class="l2"
   id="use19" />&#10;&#10;<use
   xlink:href="#basekey"
   y="36"
   x="234"
   class="r2"
   id="use20" />&#10;<use
   xlink:href="#basekey"
   y="36"
   x="270"
   class="r2"
   id="use21" />&#10;<use
   xlink:href="#basekey"
   y="36"
   x="306"
   class="r3"
   id="use22" />&#10;<use
   xlink:href="#basekey"
   y="36"
   x="342"
   class="r4"
   id="use23" />&#10;<use
   xlink:href="#basekey"
   y="36"
   x="378"
   class="r5"
   id="use24" />&#10;<use
   xlink:href="#basekey"
   y="36"
   x="414"
   class="r5"
   id="use25" />&#10;<use
   xlink:href="#basekey"
   y="36"
   x="450"
   class="r5"
   id="use26" />&#10;&#10;&#10;<use
   xlink:href="#basekey"
   y="72"
   x="64"
   class="l5"
   id="use27" />&#10;<use
   xlink:href="#basekey"
   y="72"
   x="100"
   class="l4"
   id="use28" />&#10;<use
   xlink:href="#basekey"
   y="72"
   x="136"
   class="l3"
   id="use29" />&#10;<use
   xlink:href="#basekey"
   y="72"
   x="172"
   class="l2"
   id="use30" />&#10;<use
   xlink:href="#basekey"
   y="72"
   x="208"
   class="l2"
   id="use31" />&#10;&#10;<use
   xlink:href="#basekey"
   y="72"
   x="244"
   class="r2"
   id="use32" />&#10;<use
   xlink:href="#basekey"
   y="72"
   x="280"
   class="r2"
   id="use33" />&#10;<use
   xlink:href="#basekey"
   y="72"
   x="316"
   class="r3"
   id="use34" />&#10;<use
   xlink:href="#basekey"
   y="72"
   x="352"
   class="r4"
   id="use35" />&#10;<use
   xlink:href="#basekey"
   y="72"
   x="388"
   class="r5"
   id="use36" />&#10;&#10;    <use
   xlink:href="#basekey"
   y="72"
   x="460"
   class="r5"
   id="use37" />&#10;&#10;&#10;&#10;<use
   xlink:href="#basekey"
   y="108"
   x="82"
   class="l5"
   id="use38" />&#10;<use
   xlink:href="#basekey"
   y="108"
   x="118"
   class="l4"
   id="use39" />&#10;<use
   xlink:href="#basekey"
   y="108"
   x="154"
   class="l3"
   id="use40" />&#10;<use
   xlink:href="#basekey"
   y="108"
   x="190"
   class="l2"
   id="use41" />&#10;<use
   xlink:href="#basekey"
   y="108"
   x="226"
   class="l2"
   id="use42" />&#10;&#10;<use
   xlink:href="#basekey"
   y="108"
   x="262"
   class="r2"
   id="use43" />&#10;<use
   xlink:href="#basekey"
   y="108"
   x="298"
   class="r2"
   id="use44" />&#10;<use
   xlink:href="#basekey"
   y="108"
   x="334"
   class="r3"
   id="use45" />&#10;<use
   xlink:href="#basekey"
   y="108"
   x="370"
   class="r4"
   id="use46" />&#10;<use
   xlink:href="#basekey"
   y="108"
   x="406"
   class="r5"
   id="use47" />&#10;&#10;&#10;<rect
   id="backspace"
   y="0"
   x="468"
   width="60"
   height="32"
   rx="4"
   class="key grey" />&#10;&#10;<rect
   id="tab"
   x="0"
   y="36"
   width="50"
   height="32"
   rx="4"
   class="key grey" />&#10;&#10;<rect
   id="m3l"
   x="0"
   y="72"
   width="60"
   height="32"
   rx="4"
   class="key grey pressed" />&#10;&#10;<use
   id="m3r"
   xlink:href="#basekey"
   x="424"
   y="72"
   class="key grey pressed" />&#10;&#10;&#10;<rect
   id="shiftl"
   x="0"
   y="108"
   width="40"
   height="32"
   rx="4"
   class="key grey" />&#10;<rect
   id="m4l"
   x="44"
   y="108"
   width="34"
   height="32"
   rx="4"
   class="key grey pressed" />&#10;<rect
   id="shiftr"
   x="442"
   y="108"
   width="86"
   height="32"
   rx="4"
   class="key grey" />&#10;&#10;<rect
   id="ctrll"
   x="0"
   y="144"
   width="50"
   height="32"
   rx="4"
   class="key grey" />&#10;<rect
   id="altl"
   x="124"
   y="144"
   width="48"
   height="32"
   rx="4"
   class="key grey" />&#10;<rect
   id="space"
   x="176"
   y="144"
   width="168"
   height="32"
   rx="4"
   class="key grey" />&#10;<rect
   id="m4r"
   x="348"
   y="144"
   width="48"
   height="32"
   rx="4"
   class="key grey pressed" />&#10;<rect
   id="ctrlr"
   x="478"
   y="144"
   width="50"
   height="32"
   rx="4"
   class="key grey" />&#10;&#10;<use
   xlink:href="#basekey"
   y="0"
   x="542"
   class="key numpad"
   id="use48" />&#10;<use
   xlink:href="#basekey"
   y="0"
   x="578"
   class="key numpad"
   id="use49" />&#10;<use
   xlink:href="#basekey"
   y="0"
   x="614"
   class="key numpad"
   id="use50" />&#10;<use
   xlink:href="#basekey"
   y="0"
   x="650"
   class="key numpad"
   id="use51" />&#10;&#10;<use
   xlink:href="#basekey"
   y="36"
   x="542"
   class="key numpad"
   id="use52" />&#10;<use
   xlink:href="#basekey"
   y="36"
   x="578"
   class="key numpad"
   id="use53" />&#10;<use
   xlink:href="#basekey"
   y="36"
   x="614"
   class="key numpad"
   id="use54" />&#10;<rect
   id="kpplus"
   x="650"
   y="36"
   width="32"
   height="68"
   rx="4"
   class="key numpad" />&#10;&#10;<use
   xlink:href="#basekey"
   y="72"
   x="542"
   class="key numpad"
   id="use55" />&#10;<use
   xlink:href="#basekey"
   y="72"
   x="578"
   class="key numpad"
   id="use56" />&#10;<use
   xlink:href="#basekey"
   y="72"
   x="614"
   class="key numpad"
   id="use57" />&#10;&#10;<use
   xlink:href="#basekey"
   y="108"
   x="542"
   class="key numpad"
   id="use58" />&#10;<use
   xlink:href="#basekey"
   y="108"
   x="578"
   class="key numpad"
   id="use59" />&#10;<use
   xlink:href="#basekey"
   y="108"
   x="614"
   class="key numpad"
   id="use60" />&#10;<rect
   id="kppenter"
   x="650"
   y="108"
   width="32"
   height="68"
   rx="4"
   class="key numpad" />&#10;&#10;<rect
   id="kp0"
   x="542"
   y="144"
   width="68"
   height="32"
   rx="4"
   class="key numpad" />&#10;<use
   xlink:href="#basekey"
   y="144"
   x="614"
   class="key numpad"
   id="use61" />&#10;&#10;<path
   fill-rule="evenodd"
   clip-rule="evenodd"
   d="      M 10,32      l -6,0 a 4,4 0 0 1 -4,-4      l 0,-24 a 4,4 0 0 1 4,-4      l 34,0 a 4,4 0 0 1 4,4      l 0,60 a 4,4 0 0 1 -4,4      l -24,0 a 4,4 0 0 1 -4,-4      z"
   transform="translate(486,36)"
   id="return"
   class="key grey" />&#10;&#10;<rect
   y="101"
   x="181"
   width="14"
   height="1"
   rx="1"
   id="nub"
   style="fill:#111;" />&#10;<use
   y="0"
   x="108"
   xlink:href="#nub"
   id="use62" />&#10;</g>&#10;&#10;<g
   transform="translate(-0.5,-0.5)"
   id="g63">&#10;<path
   d="m 16.669922,96 v -4.589844 q 0,-0.761719 0.04395,-1.464844 -0.239258,0.874024 -0.429687,1.367188 L 14.506836,96 h -0.654297 l -1.801758,-4.6875 -0.273437,-0.830078 -0.161133,-0.53711 0.01465,0.541993 0.01953,0.922851 V 96 h -0.830078 v -6.879883 h 1.225585 l 1.831055,4.770508 q 0.09766,0.288086 0.185547,0.620117 0.09277,0.327149 0.12207,0.473633 0.03906,-0.195313 0.161133,-0.59082 0.126953,-0.400391 0.170899,-0.50293 l 1.796875,-4.770508 h 1.196289 V 96 Z m 6.801758,-2.646484 q 0,1.386718 -0.610352,2.065429 -0.610351,0.678711 -1.772461,0.678711 -1.157226,0 -1.748047,-0.703125 Q 18.75,94.686523 18.75,93.353516 q 0,-2.734375 2.368164,-2.734375 1.210938,0 1.782227,0.668945 0.571289,0.664062 0.571289,2.06543 z m -0.922852,0 q 0,-1.09375 -0.327148,-1.586914 -0.322266,-0.498047 -1.088868,-0.498047 -0.771484,0 -1.118164,0.507812 -0.341796,0.50293 -0.341796,1.577149 0,1.044921 0.336914,1.572265 0.341796,0.522461 1.069336,0.522461 0.791015,0 1.127929,-0.507812 0.341797,-0.507813 0.341797,-1.586914 z m 5.351563,1.796875 q -0.244141,0.507812 -0.649414,0.727539 -0.400391,0.219726 -0.996094,0.219726 -1.000977,0 -1.47461,-0.673828 -0.46875,-0.673828 -0.46875,-2.041016 0,-2.763671 1.94336,-2.763671 0.600586,0 1.000976,0.219726 0.400391,0.219727 0.644532,0.698242 h 0.0098 l -0.0098,-0.59082 v -2.192383 h 0.878906 v 6.157227 q 0,0.825195 0.0293,1.088867 H 27.96875 q -0.01465,-0.07813 -0.03418,-0.361328 -0.01465,-0.283203 -0.01465,-0.488281 z m -2.666016,-1.796875 q 0,1.108398 0.292969,1.586914 0.292968,0.478515 0.952148,0.478515 0.74707,0 1.083985,-0.517578 0.336914,-0.517578 0.336914,-1.606445 0,-1.049805 -0.336914,-1.538086 -0.336915,-0.488281 -1.074219,-0.488281 -0.664063,0 -0.961914,0.493164 -0.292969,0.488281 -0.292969,1.591797 z m 9.34082,0.74707 q 0,0.952148 -0.605468,1.474609 -0.605469,0.522461 -1.728516,0.522461 -1.044922,0 -1.669922,-0.46875 -0.620117,-0.473633 -0.737305,-1.396484 l 0.908203,-0.08301 q 0.175782,1.220703 1.499024,1.220703 0.664062,0 1.040039,-0.327148 0.380859,-0.327149 0.380859,-0.97168 0,-0.561523 -0.43457,-0.874023 -0.429687,-0.317383 -1.245117,-0.317383 h -0.498047 v -0.761719 h 0.478516 q 0.722656,0 1.118164,-0.3125 0.40039,-0.317383 0.40039,-0.874023 0,-0.551758 -0.327148,-0.869141 -0.322266,-0.322266 -0.961914,-0.322266 -0.581055,0 -0.942383,0.297852 -0.356445,0.297851 -0.415039,0.839844 l -0.883789,-0.06836 q 0.09766,-0.844726 0.698242,-1.318359 0.605469,-0.473633 1.552734,-0.473633 1.035157,0 1.606446,0.483399 0.576172,0.478515 0.576172,1.33789 0,0.65918 -0.371094,1.074219 -0.366211,0.410156 -1.069336,0.556641 v 0.01953 q 0.771484,0.08301 1.201172,0.517578 0.429687,0.43457 0.429687,1.09375 z"
   id="m3ltxt"
   style="font-size:10px;line-height:0%;font-family:Arial;fill:#111111"
   class="mod"
   aria-label="Mod3" />&#10;<path
   d="m 16.585937,126.34375 -1.558593,-1.55859 -1.558594,1.55859 h 0.767578 v 6.07031 h 1.582031 v -6.07031 z m -4.535156,0.58594 2.976563,-2.97656 2.976562,2.97656 H 16.404297 V 133 h -2.753906 v -6.07031 z"
   id="shiftltxt"
   style="font-size:12px;line-height:0%;font-family:Arial;fill:#111111"
   class="mod big"
   aria-label="⇧" />&#10;<path
   d="m 16.210937,166.10059 q 0,0.95214 -0.74707,1.47461 -0.742187,0.52246 -2.094726,0.52246 -2.514649,0 -2.915039,-1.74805 l 0.90332,-0.18066 q 0.15625,0.62011 0.664062,0.91308 0.507813,0.28809 1.381836,0.28809 0.903321,0 1.391602,-0.30762 0.493164,-0.3125 0.493164,-0.91309 0,-0.33691 -0.15625,-0.54687 -0.151367,-0.20996 -0.429688,-0.34668 -0.27832,-0.13672 -0.664062,-0.22949 -0.385742,-0.0928 -0.854492,-0.2002 -0.81543,-0.18066 -1.240235,-0.36133 -0.419921,-0.18066 -0.664062,-0.40039 -0.244141,-0.22461 -0.375977,-0.52246 -0.126953,-0.29785 -0.126953,-0.68359 0,-0.88379 0.673828,-1.36231 0.678711,-0.47851 1.938477,-0.47851 1.171875,0 1.791992,0.36133 0.620117,0.35644 0.869141,1.2207 l -0.917969,0.16113 q -0.151367,-0.54687 -0.576172,-0.79101 -0.424805,-0.24903 -1.176758,-0.24903 -0.825195,0 -1.259765,0.27344 -0.434571,0.27344 -0.434571,0.81543 0,0.31738 0.166016,0.52734 0.170898,0.20508 0.488281,0.35157 0.317383,0.1416 1.264649,0.35156 0.317382,0.0732 0.629882,0.15137 0.317383,0.0732 0.605469,0.18066 0.288086,0.10254 0.53711,0.24414 0.253906,0.1416 0.439453,0.34668 0.185547,0.20508 0.288086,0.4834 0.107421,0.27832 0.107421,0.6543 z m 3.164063,1.86035 q -0.43457,0.11718 -0.888672,0.11718 -1.054687,0 -1.054687,-1.19628 v -3.52539 h -0.610352 v -0.63965 h 0.644531 l 0.258789,-1.18164 h 0.585938 v 1.18164 h 0.976562 v 0.63965 h -0.976562 v 3.33496 q 0,0.38086 0.12207,0.53711 0.126953,0.15136 0.43457,0.15136 0.175782,0 0.507813,-0.0684 z M 20.141602,168 v -4.05273 q 0,-0.55665 -0.0293,-1.23047 h 0.830078 q 0.03906,0.89843 0.03906,1.0791 h 0.01953 q 0.20996,-0.67871 0.483398,-0.92774 0.273437,-0.24902 0.771484,-0.24902 0.175782,0 0.356446,0.0488 v 0.80566 q -0.175782,-0.0488 -0.46875,-0.0488 -0.546875,0 -0.834961,0.47364 -0.288086,0.46875 -0.288086,1.34765 V 168 Z m 5.3125,2.0752 q -0.864258,0 -1.376954,-0.3418 -0.512695,-0.33692 -0.659179,-0.96192 l 0.883789,-0.12695 q 0.08789,0.36621 0.385742,0.56152 0.302734,0.2002 0.791016,0.2002 1.313476,0 1.313476,-1.53809 v -0.84961 h -0.0098 q -0.249024,0.50782 -0.683594,0.76661 -0.434571,0.2539 -1.015625,0.2539 -0.97168,0 -1.430664,-0.64453 -0.454102,-0.64453 -0.454102,-2.02637 0,-1.40136 0.488281,-2.06543 0.493164,-0.66894 1.494141,-0.66894 0.561523,0 0.97168,0.25879 0.415039,0.2539 0.639648,0.72754 h 0.0098 q 0,-0.14649 0.01953,-0.50782 0.01953,-0.36132 0.03906,-0.3955 h 0.83496 q -0.0293,0.26367 -0.0293,1.09375 v 4.03808 q 0,2.22657 -2.211914,2.22657 z m 1.33789,-4.7168 q 0,-0.64453 -0.175781,-1.1084 -0.175781,-0.46875 -0.498047,-0.71289 -0.317383,-0.24902 -0.722656,-0.24902 -0.673828,0 -0.981446,0.48828 -0.307617,0.48828 -0.307617,1.58203 0,1.08398 0.288086,1.55762 0.288086,0.47363 0.986328,0.47363 0.415039,0 0.737305,-0.24414 0.322266,-0.24414 0.498047,-0.69824 0.175781,-0.45899 0.175781,-1.08887 z"
   id="ctrlltxt"
   style="font-size:10px;line-height:0%;font-family:Arial;fill:#111111"
   class="mod"
   aria-label="Strg" />&#10;&#10;<path
   d="m 62.669922,132 v -4.58984 q 0,-0.76172 0.04395,-1.46485 -0.239258,0.87403 -0.429687,1.36719 L 60.506836,132 h -0.654297 l -1.801758,-4.6875 -0.273437,-0.83008 -0.161133,-0.53711 0.01465,0.54199 0.01953,0.92286 V 132 h -0.830079 v -6.87988 h 1.225586 l 1.831055,4.7705 q 0.09766,0.28809 0.185547,0.62012 0.09277,0.32715 0.12207,0.47363 0.03906,-0.19531 0.161133,-0.59082 0.126953,-0.40039 0.170899,-0.50293 l 1.796875,-4.7705 h 1.196289 V 132 Z m 5.961914,-1.55762 V 132 h -0.830078 v -1.55762 H 64.55957 v -0.68359 l 3.149414,-4.63867 h 0.922852 v 4.6289 h 0.966797 v 0.69336 z m -0.830078,-4.33105 q -0.0098,0.0293 -0.136719,0.25879 -0.126953,0.22949 -0.19043,0.32226 l -1.762695,2.59766 -0.263672,0.36133 -0.07813,0.0977 h 2.431641 z"
   id="m4ltxt"
   style="font-size:10px;line-height:0%;font-family:Arial;fill:#111111"
   class="mod"
   aria-label="M4" />&#10;<path
   d="m 140.69824,168 -0.78613,-2.01172 h -3.13477 L 135.98633,168 h -0.9668 l 2.80762,-6.87988 h 1.05957 L 141.65039,168 Z m -2.35351,-6.17676 -0.0439,0.13672 q -0.12207,0.40527 -0.36133,1.04004 l -0.8789,2.26074 h 2.57324 L 138.75,162.99023 q -0.13672,-0.33691 -0.27344,-0.76171 z M 142.34375,168 v -7.24609 h 0.87891 V 168 Z m 4.25293,-0.0391 q -0.43457,0.11718 -0.88867,0.11718 -1.05469,0 -1.05469,-1.19628 v -3.52539 h -0.61035 v -0.63965 h 0.64453 l 0.25879,-1.18164 h 0.58594 v 1.18164 h 0.97656 v 0.63965 h -0.97656 v 3.33496 q 0,0.38086 0.12207,0.53711 0.12695,0.15136 0.43457,0.15136 0.17578,0 0.50781,-0.0684 z"
   id="altltxt"
   style="font-size:10px;line-height:0%;font-family:Arial;fill:#111111"
   class="mod"
   aria-label="Alt" />&#10;&#10;&#10;<path
   d="m 442.66992,96 v -4.589844 q 0,-0.761719 0.0439,-1.464844 -0.23926,0.874024 -0.42969,1.367188 L 440.50684,96 h -0.6543 l -1.80176,-4.6875 -0.27344,-0.830078 -0.16113,-0.53711 0.0146,0.541993 0.0195,0.922851 V 96 h -0.83008 v -6.879883 h 1.22559 l 1.83105,4.770508 q 0.0977,0.288086 0.18555,0.620117 0.0928,0.327149 0.12207,0.473633 0.0391,-0.195313 0.16113,-0.59082 0.12696,-0.400391 0.1709,-0.50293 l 1.79688,-4.770508 h 1.19629 V 96 Z m 6.78223,-1.899414 q 0,0.952148 -0.60547,1.474609 -0.60547,0.522461 -1.72852,0.522461 -1.04492,0 -1.66992,-0.46875 -0.62012,-0.473633 -0.7373,-1.396484 l 0.9082,-0.08301 q 0.17578,1.220703 1.49902,1.220703 0.66407,0 1.04004,-0.327148 0.38086,-0.327149 0.38086,-0.97168 0,-0.561523 -0.43457,-0.874023 -0.42969,-0.317383 -1.24512,-0.317383 h -0.49804 v -0.761719 h 0.47851 q 0.72266,0 1.11817,-0.3125 0.40039,-0.317383 0.40039,-0.874023 0,-0.551758 -0.32715,-0.869141 -0.32227,-0.322266 -0.96191,-0.322266 -0.58106,0 -0.94239,0.297852 -0.35644,0.297851 -0.41504,0.839844 l -0.88379,-0.06836 q 0.0977,-0.844726 0.69825,-1.318359 0.60547,-0.473633 1.55273,-0.473633 1.03516,0 1.60645,0.483399 0.57617,0.478515 0.57617,1.33789 0,0.65918 -0.3711,1.074219 -0.36621,0.410156 -1.06933,0.556641 v 0.01953 q 0.77148,0.08301 1.20117,0.517578 0.42969,0.43457 0.42969,1.09375 z"
   id="m3rtxt"
   style="font-size:10px;line-height:0%;font-family:Arial;fill:#111111"
   class="mod"
   aria-label="M3" />&#10;&#10;&#10;<path
   d="m 456.58594,126.34375 -1.5586,-1.55859 -1.55859,1.55859 h 0.76758 v 6.07031 h 1.58203 v -6.07031 z m -4.53516,0.58594 2.97656,-2.97656 2.97657,2.97656 H 456.4043 V 133 h -2.75391 v -6.07031 z"
   id="shiftrtxt"
   style="font-size:12px;line-height:0%;font-family:Arial;fill:#111111"
   class="mod big"
   aria-label="⇧" />&#10;<path
   d="m 496.21094,166.10059 q 0,0.95214 -0.74707,1.47461 -0.74219,0.52246 -2.09473,0.52246 -2.51465,0 -2.91504,-1.74805 l 0.90332,-0.18066 q 0.15625,0.62011 0.66406,0.91308 0.50782,0.28809 1.38184,0.28809 0.90332,0 1.3916,-0.30762 0.49317,-0.3125 0.49317,-0.91309 0,-0.33691 -0.15625,-0.54687 -0.15137,-0.20996 -0.42969,-0.34668 -0.27832,-0.13672 -0.66406,-0.22949 -0.38575,-0.0928 -0.8545,-0.2002 -0.81543,-0.18066 -1.24023,-0.36133 -0.41992,-0.18066 -0.66406,-0.40039 -0.24414,-0.22461 -0.37598,-0.52246 -0.12695,-0.29785 -0.12695,-0.68359 0,-0.88379 0.67383,-1.36231 0.67871,-0.47851 1.93847,-0.47851 1.17188,0 1.79199,0.36133 0.62012,0.35644 0.86914,1.2207 l -0.91796,0.16113 q -0.15137,-0.54687 -0.57618,-0.79101 -0.4248,-0.24903 -1.17675,-0.24903 -0.8252,0 -1.25977,0.27344 -0.43457,0.27344 -0.43457,0.81543 0,0.31738 0.16602,0.52734 0.17089,0.20508 0.48828,0.35157 0.31738,0.1416 1.26465,0.35156 0.31738,0.0732 0.62988,0.15137 0.31738,0.0732 0.60547,0.18066 0.28808,0.10254 0.53711,0.24414 0.2539,0.1416 0.43945,0.34668 0.18555,0.20508 0.28809,0.4834 0.10742,0.27832 0.10742,0.6543 z m 3.16406,1.86035 q -0.43457,0.11718 -0.88867,0.11718 -1.05469,0 -1.05469,-1.19628 v -3.52539 h -0.61035 v -0.63965 h 0.64453 l 0.25879,-1.18164 h 0.58594 v 1.18164 h 0.97656 v 0.63965 h -0.97656 v 3.33496 q 0,0.38086 0.12207,0.53711 0.12695,0.15136 0.43457,0.15136 0.17578,0 0.50781,-0.0684 z M 500.1416,168 v -4.05273 q 0,-0.55665 -0.0293,-1.23047 h 0.83008 q 0.0391,0.89843 0.0391,1.0791 h 0.0195 q 0.20996,-0.67871 0.48339,-0.92774 0.27344,-0.24902 0.77149,-0.24902 0.17578,0 0.35644,0.0488 v 0.80566 q -0.17578,-0.0488 -0.46875,-0.0488 -0.54687,0 -0.83496,0.47364 -0.28808,0.46875 -0.28808,1.34765 V 168 Z m 5.3125,2.0752 q -0.86426,0 -1.37695,-0.3418 -0.5127,-0.33692 -0.65918,-0.96192 l 0.88379,-0.12695 q 0.0879,0.36621 0.38574,0.56152 0.30273,0.2002 0.79102,0.2002 1.31347,0 1.31347,-1.53809 v -0.84961 h -0.01 q -0.24903,0.50782 -0.6836,0.76661 -0.43457,0.2539 -1.01562,0.2539 -0.97168,0 -1.43067,-0.64453 -0.4541,-0.64453 -0.4541,-2.02637 0,-1.40136 0.48828,-2.06543 0.49317,-0.66894 1.49414,-0.66894 0.56153,0 0.97168,0.25879 0.41504,0.2539 0.63965,0.72754 h 0.01 q 0,-0.14649 0.0195,-0.50782 0.0195,-0.36132 0.0391,-0.3955 h 0.83496 q -0.0293,0.26367 -0.0293,1.09375 v 4.03808 q 0,2.22657 -2.21192,2.22657 z m 1.33789,-4.7168 q 0,-0.64453 -0.17578,-1.1084 -0.17578,-0.46875 -0.49805,-0.71289 -0.31738,-0.24902 -0.72265,-0.24902 -0.67383,0 -0.98145,0.48828 -0.30761,0.48828 -0.30761,1.58203 0,1.08398 0.28808,1.55762 0.28809,0.47363 0.98633,0.47363 0.41504,0 0.7373,-0.24414 0.32227,-0.24414 0.49805,-0.69824 0.17578,-0.45899 0.17578,-1.08887 z"
   id="ctrlrtxt"
   style="font-size:10px;line-height:0%;font-family:Arial;fill:#111111"
   class="mod"
   aria-label="Strg" />&#10;<path
   d="m 363.66992,168 v -4.58984 q 0,-0.76172 0.0439,-1.46485 -0.23926,0.87403 -0.42969,1.36719 L 361.50684,168 h -0.6543 l -1.80176,-4.6875 -0.27344,-0.83008 -0.16113,-0.53711 0.0146,0.54199 0.0195,0.92286 V 168 h -0.83008 v -6.87988 h 1.22559 l 1.83105,4.7705 q 0.0977,0.28809 0.18555,0.62012 0.0928,0.32715 0.12207,0.47363 0.0391,-0.19531 0.16113,-0.59082 0.12696,-0.40039 0.1709,-0.50293 l 1.79688,-4.7705 h 1.19629 V 168 Z m 6.80176,-2.64648 q 0,1.38671 -0.61035,2.06543 -0.61035,0.67871 -1.77246,0.67871 -1.15723,0 -1.74805,-0.70313 -0.59082,-0.70801 -0.59082,-2.04101 0,-2.73438 2.36816,-2.73438 1.21094,0 1.78223,0.66895 0.57129,0.66406 0.57129,2.06543 z m -0.92285,0 q 0,-1.09375 -0.32715,-1.58692 -0.32227,-0.49805 -1.08887,-0.49805 -0.77148,0 -1.11816,0.50782 -0.3418,0.50293 -0.3418,1.57715 0,1.04492 0.33692,1.57226 0.34179,0.52246 1.06933,0.52246 0.79102,0 1.12793,-0.50781 0.3418,-0.50781 0.3418,-1.58691 z m 5.35156,1.79687 q -0.24414,0.50781 -0.64941,0.72754 -0.40039,0.21973 -0.9961,0.21973 -1.00097,0 -1.47461,-0.67383 -0.46875,-0.67383 -0.46875,-2.04102 0,-2.76367 1.94336,-2.76367 0.60059,0 1.00098,0.21973 0.40039,0.21972 0.64453,0.69824 h 0.01 l -0.01,-0.59082 v -2.19238 h 0.87891 v 6.15722 q 0,0.8252 0.0293,1.08887 h -0.83984 q -0.0147,-0.0781 -0.0342,-0.36133 -0.0147,-0.2832 -0.0147,-0.48828 z m -2.66602,-1.79687 q 0,1.10839 0.29297,1.58691 0.29297,0.47852 0.95215,0.47852 0.74707,0 1.08399,-0.51758 0.33691,-0.51758 0.33691,-1.60645 0,-1.0498 -0.33691,-1.53808 -0.33692,-0.48829 -1.07422,-0.48829 -0.66406,0 -0.96192,0.49317 -0.29297,0.48828 -0.29297,1.5918 z m 8.52051,1.08886 V 168 h -0.83008 v -1.55762 h -3.24218 v -0.68359 l 3.14941,-4.63867 h 0.92285 v 4.6289 h 0.9668 v 0.69336 z m -0.83008,-4.33105 q -0.01,0.0293 -0.13671,0.25879 -0.12696,0.22949 -0.19043,0.32226 l -1.7627,2.59766 -0.26367,0.36133 -0.0781,0.0977 h 2.43164 z"
   id="m4rtxt"
   style="font-size:10px;line-height:0%;font-family:Arial;fill:#111111"
   class="mod"
   aria-label="Mod4" />&#10;<path
   d="m 222.89746,166.54004 q 0,0.74707 -0.56641,1.15234 -0.56152,0.40528 -1.57714,0.40528 -0.98633,0 -1.52344,-0.32227 -0.53223,-0.32715 -0.69336,-1.01562 l 0.77637,-0.15137 q 0.1123,0.4248 0.46386,0.625 0.35157,0.19531 0.97657,0.19531 0.66894,0 0.97656,-0.20508 0.3125,-0.20508 0.3125,-0.61523 0,-0.3125 -0.21485,-0.50781 -0.21484,-0.19532 -0.69335,-0.32227 l -0.62989,-0.16602 q -0.75683,-0.19531 -1.0791,-0.38085 -0.31738,-0.19043 -0.49805,-0.45899 -0.18066,-0.26855 -0.18066,-0.65918 0,-0.72266 0.5127,-1.09863 0.51757,-0.38086 1.5039,-0.38086 0.87403,0 1.38672,0.30762 0.51758,0.30761 0.6543,0.98632 l -0.79102,0.0977 q -0.0732,-0.35156 -0.39551,-0.53711 -0.31738,-0.19043 -0.85449,-0.19043 -0.5957,0 -0.8789,0.18067 -0.28321,0.18066 -0.28321,0.54687 0,0.22461 0.11719,0.37109 0.11719,0.14649 0.34668,0.24903 0.22949,0.10254 0.9668,0.2832 0.69824,0.17578 1.00586,0.32715 0.30761,0.14648 0.48339,0.32715 0.18067,0.18066 0.27832,0.41992 0.0977,0.23437 0.0977,0.53711 z m 1.7041,-1.20606 q 0,1.05469 0.33203,1.5625 0.33203,0.50782 1.00098,0.50782 0.46875,0 0.78125,-0.25391 0.31738,-0.25391 0.39063,-0.78125 l 0.88867,0.0586 q -0.10254,0.76172 -0.64942,1.21582 -0.54687,0.45411 -1.38672,0.45411 -1.10839,0 -1.69433,-0.69825 -0.58106,-0.70312 -0.58106,-2.04589 0,-1.33301 0.58594,-2.03125 0.58594,-0.70313 1.67969,-0.70313 0.81055,0 1.34277,0.41992 0.53711,0.41992 0.67383,1.15723 l -0.90332,0.0684 q -0.0684,-0.43945 -0.34668,-0.69824 -0.27832,-0.25879 -0.79102,-0.25879 -0.69824,0 -1.01074,0.46386 -0.3125,0.46387 -0.3125,1.5625 z m 5.20508,-1.71386 q 0.2832,-0.51758 0.67871,-0.75684 0.40039,-0.24414 1.01074,-0.24414 0.85938,0 1.26465,0.42969 0.41016,0.4248 0.41016,1.43066 V 168 h -0.88379 v -3.34961 q 0,-0.55664 -0.10254,-0.82519 -0.10254,-0.27344 -0.33691,-0.4004 -0.23438,-0.12695 -0.64942,-0.12695 -0.62012,0 -0.99609,0.42969 -0.3711,0.42969 -0.3711,1.15723 V 168 h -0.8789 v -7.24609 h 0.8789 v 1.88476 q 0,0.29785 -0.0195,0.61524 -0.0146,0.31738 -0.0195,0.36621 z M 237.57031,168 v -3.34961 q 0,-0.7666 -0.20996,-1.05957 -0.20996,-0.29297 -0.75683,-0.29297 -0.56153,0 -0.88868,0.42969 -0.32714,0.42969 -0.32714,1.21094 V 168 h -0.87403 v -4.15527 q 0,-0.92286 -0.0293,-1.12793 h 0.83008 q 0.005,0.0244 0.01,0.13183 0.005,0.10742 0.01,0.24903 0.01,0.13671 0.0195,0.52246 h 0.0146 q 0.28321,-0.56153 0.64942,-0.78125 0.36621,-0.21973 0.89355,-0.21973 0.60059,0 0.94727,0.23926 0.35156,0.23926 0.48828,0.76172 h 0.0147 q 0.27344,-0.53223 0.65918,-0.7666 0.39062,-0.23438 0.94238,-0.23438 0.80078,0 1.16211,0.43457 0.36621,0.43457 0.36621,1.42578 V 168 h -0.86914 v -3.34961 q 0,-0.7666 -0.20996,-1.05957 -0.20996,-0.29297 -0.75684,-0.29297 -0.57617,0 -0.89843,0.42969 -0.31739,0.4248 -0.31739,1.21094 V 168 Z m 5.49317,0 v -1.06934 h 0.95214 V 168 Z m 7.31933,2.0752 q -0.86426,0 -1.37695,-0.3418 -0.5127,-0.33692 -0.65918,-0.96192 l 0.88379,-0.12695 q 0.0879,0.36621 0.38574,0.56152 0.30274,0.2002 0.79102,0.2002 1.31347,0 1.31347,-1.53809 v -0.84961 h -0.01 q -0.24903,0.50782 -0.6836,0.76661 -0.43457,0.2539 -1.01562,0.2539 -0.97168,0 -1.43067,-0.64453 -0.4541,-0.64453 -0.4541,-2.02637 0,-1.40136 0.48828,-2.06543 0.49317,-0.66894 1.49414,-0.66894 0.56153,0 0.97168,0.25879 0.41504,0.2539 0.63965,0.72754 h 0.01 q 0,-0.14649 0.0195,-0.50782 0.0195,-0.36132 0.0391,-0.3955 h 0.83496 q -0.0293,0.26367 -0.0293,1.09375 v 4.03808 q 0,2.22657 -2.21192,2.22657 z m 1.33789,-4.7168 q 0,-0.64453 -0.17578,-1.1084 -0.17578,-0.46875 -0.49805,-0.71289 -0.31738,-0.24902 -0.72265,-0.24902 -0.67383,0 -0.98145,0.48828 -0.30761,0.48828 -0.30761,1.58203 0,1.08398 0.28808,1.55762 0.28809,0.47363 0.98633,0.47363 0.41504,0 0.7373,-0.24414 0.32227,-0.24414 0.49805,-0.69824 0.17578,-0.45899 0.17578,-1.08887 z m 2.89551,0.18555 q 0,0.9082 0.37598,1.40136 0.37597,0.49317 1.09863,0.49317 0.57129,0 0.91309,-0.2295 0.34668,-0.22949 0.46875,-0.58105 l 0.77148,0.21973 q -0.47363,1.25 -2.15332,1.25 -1.17187,0 -1.78711,-0.69825 -0.61035,-0.69824 -0.61035,-2.07519 0,-1.3086 0.61035,-2.00684 0.61524,-0.69824 1.75293,-0.69824 2.3291,0 2.3291,2.80762 v 0.11719 z m 2.86133,-0.67383 q -0.0732,-0.83496 -0.42481,-1.21582 -0.35156,-0.38575 -1.01074,-0.38575 -0.63965,0 -1.01562,0.42969 -0.3711,0.42481 -0.40039,1.17188 z m 5.99121,1.66992 q 0,0.74707 -0.56641,1.15234 -0.56152,0.40528 -1.57714,0.40528 -0.98633,0 -1.52344,-0.32227 -0.53223,-0.32715 -0.69336,-1.01562 l 0.77637,-0.15137 q 0.1123,0.4248 0.46386,0.625 0.35157,0.19531 0.97657,0.19531 0.66894,0 0.97656,-0.20508 0.3125,-0.20508 0.3125,-0.61523 0,-0.3125 -0.21485,-0.50781 -0.21484,-0.19532 -0.69336,-0.32227 l -0.62988,-0.16602 q -0.75683,-0.19531 -1.0791,-0.38085 -0.31738,-0.19043 -0.49805,-0.45899 -0.18066,-0.26855 -0.18066,-0.65918 0,-0.72266 0.51269,-1.09863 0.51758,-0.38086 1.50391,-0.38086 0.87402,0 1.38672,0.30762 0.51758,0.30761 0.6543,0.98632 l -0.79102,0.0977 q -0.0732,-0.35156 -0.39551,-0.53711 -0.31738,-0.19043 -0.85449,-0.19043 -0.5957,0 -0.87891,0.18067 -0.2832,0.18066 -0.2832,0.54687 0,0.22461 0.11719,0.37109 0.11719,0.14649 0.34668,0.24903 0.22949,0.10254 0.9668,0.2832 0.69824,0.17578 1.00585,0.32715 0.30762,0.14648 0.4834,0.32715 0.18067,0.18066 0.27832,0.41992 0.0977,0.23437 0.0977,0.53711 z m 1.7041,-1.20606 q 0,1.05469 0.33203,1.5625 0.33203,0.50782 1.00098,0.50782 0.46875,0 0.78125,-0.25391 0.31738,-0.25391 0.39062,-0.78125 l 0.88868,0.0586 q -0.10254,0.76172 -0.64942,1.21582 -0.54687,0.45411 -1.38672,0.45411 -1.1084,0 -1.69433,-0.69825 -0.58106,-0.70312 -0.58106,-2.04589 0,-1.33301 0.58594,-2.03125 0.58594,-0.70313 1.67969,-0.70313 0.81054,0 1.34277,0.41992 0.53711,0.41992 0.67383,1.15723 l -0.90332,0.0684 q -0.0684,-0.43945 -0.34668,-0.69824 -0.27832,-0.25879 -0.79102,-0.25879 -0.69824,0 -1.01074,0.46386 -0.3125,0.46387 -0.3125,1.5625 z m 5.20508,-1.71386 q 0.2832,-0.51758 0.67871,-0.75684 0.40039,-0.24414 1.01074,-0.24414 0.85938,0 1.26465,0.42969 0.41016,0.4248 0.41016,1.43066 V 168 h -0.88379 v -3.34961 q 0,-0.55664 -0.10254,-0.82519 -0.10254,-0.27344 -0.33691,-0.4004 -0.23438,-0.12695 -0.64942,-0.12695 -0.62012,0 -0.99609,0.42969 -0.3711,0.42969 -0.3711,1.15723 V 168 h -0.8789 v -7.24609 h 0.8789 v 1.88476 q 0,0.29785 -0.0195,0.61524 -0.0147,0.31738 -0.0195,0.36621 z M 275.30469,168 v -1.06934 h 0.95215 V 168 Z m 5.46386,0 v -6.87988 h 0.93262 v 6.11816 h 3.47656 V 168 Z m 6.08887,-2.45605 q 0,0.9082 0.37598,1.40136 0.37597,0.49317 1.09863,0.49317 0.57129,0 0.91309,-0.2295 0.34668,-0.22949 0.46875,-0.58105 l 0.77148,0.21973 q -0.47363,1.25 -2.15332,1.25 -1.17187,0 -1.78711,-0.69825 -0.61035,-0.69824 -0.61035,-2.07519 0,-1.3086 0.61035,-2.00684 0.61524,-0.69824 1.75293,-0.69824 2.3291,0 2.3291,2.80762 v 0.11719 z m 2.86133,-0.67383 q -0.0732,-0.83496 -0.4248,-1.21582 -0.35157,-0.38575 -1.01075,-0.38575 -0.63965,0 -1.01562,0.42969 -0.3711,0.42481 -0.40039,1.17188 z m 2.7002,0.67383 q 0,0.9082 0.37597,1.40136 0.37598,0.49317 1.09863,0.49317 0.57129,0 0.91309,-0.2295 0.34668,-0.22949 0.46875,-0.58105 l 0.77148,0.21973 q -0.47363,1.25 -2.15332,1.25 -1.17187,0 -1.7871,-0.69825 -0.61036,-0.69824 -0.61036,-2.07519 0,-1.3086 0.61036,-2.00684 0.61523,-0.69824 1.75292,-0.69824 2.32911,0 2.32911,2.80762 v 0.11719 z m 2.86132,-0.67383 q -0.0732,-0.83496 -0.4248,-1.21582 -0.35156,-0.38575 -1.01074,-0.38575 -0.63965,0 -1.01563,0.42969 -0.37109,0.42481 -0.40039,1.17188 z M 297.32617,168 v -4.05273 q 0,-0.55665 -0.0293,-1.23047 h 0.83008 q 0.0391,0.89843 0.0391,1.0791 h 0.0195 q 0.20996,-0.67871 0.4834,-0.92774 0.27343,-0.24902 0.77148,-0.24902 0.17578,0 0.35644,0.0488 v 0.80566 q -0.17578,-0.0488 -0.46875,-0.0488 -0.54687,0 -0.83496,0.47364 -0.28808,0.46875 -0.28808,1.34765 V 168 Z m 3.04199,0 v -0.66895 l 2.95411,-3.93554 h -2.78809 v -0.67871 h 3.82812 v 0.66894 l -2.95898,3.93555 h 3.06152 V 168 Z m 5.50782,0 v -1.06934 h 0.95214 V 168 Z"
   id="text62"
   style="font-size:10px;line-height:0%;font-family:Arial;text-align:center;text-anchor:middle;fill:#111111"
   class="mod space"
   aria-label="schm. gesch. Leerz." />&#10;&#10;<path
   d="m 498.29883,61.214844 -2.97656,-2.976563 2.97656,-2.976562 v 1.599609 h 3.32226 v -3.609375 h 2.75391 l -0.006,6.363281 h -6.07031 z m -0.58594,-3.767578 v -0.767579 l -1.55859,1.558594 1.55859,1.558594 v -0.767578 h 6.07031 l 0.006,-5.191406 h -1.58203 l -0.006,3.609375 z"
   id="returntxt"
   style="font-size:12px;line-height:0%;font-family:Arial;fill:#111111"
   class="mod big"
   aria-label="⏎" />&#10;<path
   d="m 493.37891,23 h -9.5752 l -3.79883,-3.798828 3.79883,-3.798828 h 9.5752 z m -0.72266,-6.875 h -0.68848 l -3.07617,3.076172 3.07617,3.076172 h 0.68848 z m -6.8457,0 2.56347,2.563477 2.56348,-2.563477 z m 5.12695,6.152344 -2.56348,-2.563477 -2.56347,2.563477 z M 484.79492,16.125 h -0.69336 l -3.07617,3.085937 3.07617,3.066407 h 0.69336 l 3.07617,-3.076172 z"
   id="backspacetxt"
   style="font-size:10px;line-height:0%;font-family:Arial;fill:#111111"
   class="mod"
   aria-label="⌫" />&#10;</g>&#10;&#10;<g
   transform="translate(55,26)"
   id="g73">&#10;	<path
   d="M 3.09375,-1.5820312 V -5.34375 h -7.4707031 v -1.2832031 h 8.7451172 v 5.0449219 z"
   id="text63"
   style="font-size:18px;line-height:0%;font-family:Arial;text-align:center;text-anchor:middle;fill:#111111;stroke-width:0.75"
   class="key"
   aria-label="¬" />&#10;	<path
   d="m 36.594,0 4.032,-9.234 h -1.44 L 36,-1.872 32.814,-9.234 h -1.44 L 35.406,0 Z"
   id="text64"
   style="font-size:18px;line-height:0%;font-family:Arial;text-align:center;text-anchor:middle;fill:#111111;stroke-width:0.75"
   class="key"
   aria-label="∨" />&#10;	<path
   d="M 72.594,-9.234 H 71.406 L 67.374,0 h 1.44 L 72,-7.362 75.186,0 h 1.44 z"
   id="text65"
   style="font-size:18px;line-height:0%;font-family:Arial;text-align:center;text-anchor:middle;fill:#111111;stroke-width:0.75"
   class="key"
   aria-label="∧" />&#10;	<path
   d="m 107.46,-10.764 v 9.666 h -4.842 V 0 h 10.764 v -1.098 h -4.824 v -9.666 z"
   id="text66"
   style="font-size:18px;line-height:0%;font-family:Arial;text-align:center;text-anchor:middle;fill:#111111;stroke-width:0.75"
   class="key"
   aria-label="⊥" />&#10;	<path
   d="m 145.77539,-1.7753906 q -0.34277,-1.2216797 -0.99316,-2.3994141 -0.57129,-1.0107422 -1.33594,-1.836914 l -2.68945,4.2363281 z m -3.02344,-6.4951172 3.09375,-4.8515622 h 2.12696 l -3.83204,6.0292966 q 0.99317,1.0107422 1.71387,2.3027343 0.81738,1.4677735 1.19531,3.0146485 h 3.02344 V 0 h -2.7334 q 0.0352,0.46582031 0.0352,0.94921875 h -1.23047 Q 146.14453,0.46582031 146.10059,0 h -8.63086 l 4.61425,-7.2246094 q -0.26367,-0.1845703 -0.53613,-0.3603515 l 0.70313,-1.0283204 q 0.25488,0.1669922 0.50097,0.3427735 z"
   id="text67"
   style="font-size:18px;line-height:0%;font-family:Arial;text-align:center;text-anchor:middle;fill:#111111;stroke-width:0.75"
   class="key"
   aria-label="∡" />&#10;&#10;	<path
   d="M 178.065,-15.948 V 4.59 h 1.044 v -20.538 z m 2.826,0 V 4.59 h 1.044 v -20.538 z"
   id="text68"
   style="font-size:18px;line-height:0%;font-family:Arial;text-align:center;text-anchor:middle;fill:#111111;stroke-width:0.75"
   class="key"
   aria-label="∥" />&#10;	<path
   d="m 219.36621,-3.3662109 q -0.50098,-0.5888672 -1.0459,-1.7314453 h 0.63281 q 1.11622,1.3095703 2.37305,1.9511718 v 0.3164063 q -1.25683,0.6416015 -2.37305,1.95117185 h -0.63281 q 0.54492,-1.14257815 1.0459,-1.73144535 h -8.69238 v -0.7558593 z"
   id="text69"
   style="font-size:18px;line-height:0%;font-family:Arial;text-align:center;text-anchor:middle;fill:#111111;stroke-width:0.75"
   class="key"
   aria-label="→" />&#10;	<path
   d="m 257.65137,-5.1855469 q 0,1.4589844 -0.78223,2.4345703 -0.78223,0.9667969 -1.95117,0.9667969 -1.78418,0 -2.94434,-2.4785156 -0.59765,1.1689453 -1.35351,1.8017578 -0.74707,0.6240234 -1.52051,0.6240234 -1.22168,0 -1.98633,-0.9228515 -0.76465,-0.9316407 -0.76465,-2.4785156 0,-1.5029297 0.77344,-2.4521485 0.78223,-0.9492187 1.97754,-0.9492187 1.7666,0 2.8916,2.4873047 0.57129,-1.1425782 1.32715,-1.7841797 0.76465,-0.6503907 1.61719,-0.6503907 1.23047,0 1.96875,0.9404297 0.74707,0.9404297 0.74707,2.4609375 z m -2.92676,-2.25 q -0.61524,0 -1.14258,0.553711 -0.51855,0.5537109 -1.01074,1.696289 0.44824,1.125 0.9668,1.6875 0.52734,0.5625 1.2041,0.5625 0.72949,0 1.2041,-0.6328125 0.4834,-0.6416015 0.4834,-1.6347656 0,-0.9404297 -0.4834,-1.5820312 -0.47461,-0.6503907 -1.22168,-0.6503907 z m -3.30469,2.1972657 q -0.44824,-1.125 -0.97558,-1.6875 -0.51856,-0.5625 -1.20411,-0.5625 -0.73828,0 -1.2041,0.6503906 -0.45703,0.6416015 -0.45703,1.6171875 0,0.984375 0.45703,1.6083984 0.45703,0.6240234 1.22168,0.6240234 0.61524,0 1.14258,-0.5537109 0.52734,-0.5537109 1.01953,-1.696289 z"
   id="text70"
   style="font-size:18px;line-height:0%;font-family:Arial;text-align:center;text-anchor:middle;fill:#111111;stroke-width:0.75"
   class="key"
   aria-label="∞" />&#10;	<path
   d="m 291.276,-3.006 c -0.882,-0.018 -1.422,-0.324 -2.376,-1.368 0.828,-0.954 1.494,-1.35 2.268,-1.35 h 0.108 v -1.098 h -0.216 c -1.08,0 -2.124,0.648 -3.024,1.836 -0.972,-1.224 -2.016,-1.836 -3.078,-1.836 -1.404,0 -2.412,1.026 -2.412,2.484 0,1.44 0.954,2.43 2.358,2.43 0.936,0 1.89,-0.45 2.61,-1.26 0.144,-0.144 0.234,-0.234 0.522,-0.576 1.008,1.242 2.16,1.908 3.24,1.854 z m -4.122,-1.368 c -0.072,0.09 -0.072,0.09 -0.18,0.198 -0.828,0.846 -1.422,1.17 -2.16,1.17 -0.72,0 -1.206,-0.54 -1.206,-1.368 0,-0.828 0.504,-1.35 1.314,-1.35 0.612,0 1.026,0.216 1.89,1.026 0.18,0.162 0.18,0.162 0.342,0.324 z"
   id="text71"
   style="font-size:18px;line-height:0%;font-family:Arial;text-align:center;text-anchor:middle;fill:#111111;stroke-width:0.75"
   class="key"
   aria-label="∝" />&#10;	<path
   d="m 316.71,-0.828 0.72,0.864 2.16,-1.8 c 1.206,1.296 2.808,1.998 4.536,1.998 3.438,0 6.228,-2.844 6.228,-6.336 0,-1.35 -0.396,-2.61 -1.134,-3.69 l 1.998,-1.674 -0.72,-0.864 -2.016,1.674 c -1.35,-1.278 -2.664,-1.818 -4.356,-1.818 -3.438,0 -6.228,2.844 -6.228,6.336 0,1.278 0.324,2.376 1.008,3.492 z m 3.06,-2.556 c -0.504,-0.9 -0.72,-1.746 -0.72,-2.736 0,-2.934 2.286,-5.31 5.076,-5.31 1.368,0 2.43,0.45 3.528,1.476 z m 8.586,-5.706 c 0.558,0.9 0.846,1.908 0.846,2.988 0,2.916 -2.286,5.292 -5.076,5.292 -1.422,0 -2.736,-0.594 -3.69,-1.656 z"
   id="text72"
   style="font-size:18px;line-height:0%;font-family:Arial;text-align:center;text-anchor:middle;fill:#111111;stroke-width:0.75"
   class="key"
   aria-label="∅" />&#10;	<path
   d="m 357.80273,-4.078125 v -1.40625 h 4.39454 v 1.40625 z"
   id="text73"
   style="font-size:18px;line-height:0%;font-family:Arial;text-align:center;text-anchor:middle;fill:#111111;stroke-width:0.75"
   class="key"
   aria-label="-" />&#10;</g>&#10;&#10;&#10;<path
   d="m 10.685547,55.740234 h 6.105469 l -1.371094,-1.371093 0.703125,-0.703125 2.308594,2.308593 v -2.25 h 0.996093 v 5.039063 h -0.996093 v -2.261719 l -2.308594,2.308594 -0.703125,-0.703125 1.371094,-1.371094 h -6.105469 z"
   id="text74"
   style="font-size:12px;line-height:0%;font-family:Arial;fill:#111111"
   class="mod big"
   aria-label="⇥" />&#10;&#10;<g
   transform="translate(73,62)"
   id="g86">&#10;	<path
   d="M -2.6938477,-0.87890625 4.5483398,-12.243164 H 2.4916992 L -4.7504883,-0.87890625 Z M -5.690918,-13.12207 H 5.690918 v 0.878906 L -1.5512695,-0.87890625 H 5.8930664 V 0 H -5.8930664 V -0.87890625 L 1.3491211,-12.243164 H -5.690918 Z"
   id="text75"
   style="font-size:18px;line-height:0%;font-family:Arial;text-align:center;text-anchor:middle;fill:#111111;stroke-width:0.75"
   class="key"
   aria-label="ℤ" />&#10;	<path
   d="m 36.882,-5.256 -4.608,-5.85 c -0.18,0.396 -0.27,0.756 -0.27,1.134 0,0.342 0.126,0.63 0.486,1.08 l 1.26,1.566 -1.008,1.89 c -0.324,0.594 -0.504,1.116 -0.504,1.458 0,0.36 0.162,0.774 0.522,1.404 0.468,0.774 0.468,0.774 0.468,0.972 0,0.324 -0.234,0.504 -0.63,0.504 H 32.274 V 0 h 1.476 c 1.584,0 1.98,-0.27 1.98,-1.332 0,-0.72 -0.162,-1.062 -1.152,-2.394 -0.612,-0.828 -0.828,-1.314 -0.828,-1.854 0,-0.342 0.072,-0.558 0.414,-1.188 L 39.546,0 c 0.18,-0.378 0.27,-0.702 0.27,-1.062 0,-0.378 -0.144,-0.702 -0.594,-1.278 L 38.52,-3.222 c -0.666,-0.846 -0.846,-1.224 -0.846,-1.818 0,-0.324 0.054,-0.576 0.27,-1.152 L 38.736,-8.1 h 0.396 c 0.396,0 0.576,0.18 0.648,0.63 0.162,-0.558 0.234,-1.026 0.234,-1.548 0,-0.918 -0.306,-1.278 -1.098,-1.278 h -1.224 c -0.684,0 -0.936,-0.198 -0.936,-0.774 v -0.288 c -0.522,0.558 -0.774,1.152 -0.774,1.854 0,0.486 0.144,0.936 0.396,1.152 0.18,0.198 0.432,0.252 0.99,0.252 h 0.72 z"
   id="text76"
   style="font-size:18px;line-height:0%;font-family:Arial;text-align:center;text-anchor:middle;fill:#111111;stroke-width:0.75"
   class="key"
   aria-label="ℵ" />&#10;	<path
   d="m 67.992187,-2.9003906 3.111329,-3.1113281 -3.09375,-3.0937501 0.914062,-0.9052732 L 72,-6.9082031 l 3.076172,-3.084961 0.922851,0.9228516 -3.076171,3.0585938 3.09375,3.0937499 -0.896485,0.9228516 -3.102539,-3.102539 -3.128906,3.1201171 z"
   id="text77"
   style="font-size:18px;line-height:0%;font-family:Arial;text-align:center;text-anchor:middle;fill:#111111;stroke-width:0.75"
   class="key"
   aria-label="×" />&#10;	<path
   d="m 109.917,-7.056 h -3.834 l -1.332,-3.33 h -1.692 L 107.253,0 h 1.494 l 4.194,-10.386 h -1.692 z m -0.558,1.44 -1.368,3.24 -1.35,-3.24 z"
   id="text78"
   style="font-size:18px;line-height:0%;font-family:Arial;text-align:center;text-anchor:middle;fill:#111111;stroke-width:0.75"
   class="key"
   aria-label="∀" />&#10;	<path
   d="m 146.49609,-0.23730469 2.33789,2.55761719 h -2.14453 l -1.94238,-2.10058594 -0.44824,0.0263672 q -0.14942,0.008789 -0.29004,0.008789 -2.76856,0 -4.42969,-1.84570311 -1.65234,-1.8544922 -1.65234,-4.9570313 0,-3.1113281 1.65234,-4.9570314 1.66113,-1.854492 4.42969,-1.854492 2.75976,0 4.41211,1.854492 1.65234,1.8457033 1.65234,4.9570314 0,2.2851563 -0.92285,3.9111328 -0.91406,1.6259766 -2.6543,2.39941411 z m -4.63183,-0.87011721 q 0.94922,0.43945315 2.14453,0.43945315 1.19531,0 2.14453,-0.43945315 V -11.99707 q -0.94922,-0.439453 -2.14453,-0.439453 -1.19531,0 -2.14453,0.439453 z m -0.92285,-0.571289 v -9.7382811 q -0.31641,0.254883 -0.59766,0.580078 -1.3623,1.5996093 -1.3623,4.2890624 0,2.6894532 1.3623,4.2802735 0.28125,0.3251953 0.59766,0.5888672 z m 6.13476,-9.7294921 v 9.7119139 q 0.30762,-0.2548828 0.58008,-0.571289 1.3623,-1.5996094 1.3623,-4.2802735 0,-2.6894531 -1.3623,-4.2890624 -0.27246,-0.316406 -0.58008,-0.571289 z"
   id="text79"
   style="font-size:18px;line-height:0%;font-family:Arial;text-align:center;text-anchor:middle;fill:#111111;stroke-width:0.75"
   class="key"
   aria-label="ℚ" />&#10;&#10;	<path
   d="m 183.35303,0 v -10.96875 h -6.69727 V 0 h -1.67871 v -12.383789 h 10.05469 V 0 Z"
   id="text80"
   style="font-size:18px;line-height:0%;font-family:Arial;text-align:center;text-anchor:middle;fill:#111111;stroke-width:0.75"
   class="key"
   aria-label="Π" />&#10;	<path
   d="m 219.9375,-8.2441406 q 0,1.3886719 -0.31641,3.0498047 -0.3164,1.6523437 -0.96679,2.9003906 -0.6416,1.2392578 -1.58203,1.88964842 -0.94043,0.64160157 -2.10059,0.64160157 -1.41504,0 -2.1709,-0.88769531 -0.75586,-0.89648438 -0.75586,-2.47851568 0,-1.4589843 0.55371,-2.8564453 0.5625,-1.3974609 1.46778,-2.118164 0.90527,-0.7207032 2.01269,-0.7207032 0.73828,0 1.31836,0.4394532 0.58887,0.430664 0.87012,1.1689453 h 0.0351 l 0.0352,-1.0283203 q 0,-1.7226563 -0.57129,-2.6367184 -0.57129,-0.922852 -1.70508,-0.922852 -0.46582,0 -1.01074,0.175781 -0.53613,0.175782 -0.94043,0.483399 l 0.31641,-1.291992 q 0.99316,-0.544922 1.97754,-0.544922 1.71386,0 2.61914,1.230468 0.91406,1.230469 0.91406,3.5068364 z m -1.85449,2.2675781 Q 217.93359,-6.75 217.4502,-7.2509766 q -0.47461,-0.5097656 -1.08106,-0.5097656 -0.71191,0 -1.30078,0.5800781 -0.58887,0.5800782 -0.97559,1.7314454 -0.37793,1.1425781 -0.37793,2.3027343 0,1.0107422 0.39551,1.5996094 0.39551,0.58886719 1.11621,0.58886719 0.68555,0 1.27442,-0.65917969 0.59765,-0.6679688 1.01074,-1.8369141 0.42187,-1.1777343 0.57129,-2.5224609 z"
   id="text81"
   style="font-size:18px;line-height:0%;font-family:Arial;text-align:center;text-anchor:middle;fill:#111111;stroke-width:0.75"
   class="key"
   aria-label="∂" />&#10;	<path
   d="m 256.20117,-4.8955078 h -9.21972 v 3.0322266 H 245.4873 V -9.421875 h 1.49415 v 3.0322266 h 9.21972 l -2.04785,-2.0478516 1.05469,-1.0546875 3.4541,3.4541016 v 0.7910156 l -3.4541,3.4541016 -1.05469,-1.0546876 z"
   id="text82"
   style="font-size:18px;line-height:0%;font-family:Arial;text-align:center;text-anchor:middle;fill:#111111;stroke-width:0.75"
   class="key"
   aria-label="↦" />&#10;	<path
   d="m 293.92383,-0.00878906 h -1.7666 l -3.41016,-8.71875004 -0.73828,-2.1884769 -0.73828,2.1884769 -3.42774,8.71875004 h -1.7666 l 5.05371,-12.38378894 h 1.74024 z"
   id="text83"
   style="font-size:18px;line-height:0%;font-family:Arial;text-align:center;text-anchor:middle;fill:#111111;stroke-width:0.75"
   class="key"
   aria-label="Λ" />&#10;	<path
   d="m 330.16113,-6.46875 q 0,1.3447266 -0.5625,2.390625 -0.55371,1.0371094 -1.59961,1.6083984 -1.0459,0.5712891 -2.45215,0.5712891 h -0.72949 v 1.99511719 h -1.62597 V -1.8984375 h -0.7295 q -1.41504,0 -2.46093,-0.5712891 -1.0459,-0.5800781 -1.59961,-1.6171875 -0.55371,-1.0458984 -0.55371,-2.3818359 0,-2.0917969 1.22168,-3.2431641 1.23046,-1.1601559 3.48925,-1.1601559 h 0.63282 v -1.59961 h 1.62597 v 1.59961 h 0.62403 q 2.26757,0 3.48925,1.1601559 1.23047,1.1601563 1.23047,3.2431641 z m -1.6875,0.035156 q 0,-3.225586 -3.23437,-3.225586 h -0.42188 v 6.5566406 h 0.49219 q 1.5293,0 2.34668,-0.84375 0.81738,-0.84375 0.81738,-2.4873046 z m -8.93847,0 q 0,1.6435546 0.81738,2.4873046 0.81738,0.84375 2.34668,0.84375 h 0.49219 v -6.5566406 h -0.45704 q -1.5996,0 -2.39941,0.7910156 -0.7998,0.7910157 -0.7998,2.4345704 z"
   id="text84"
   style="font-size:18px;line-height:0%;font-family:Arial;text-align:center;text-anchor:middle;fill:#111111;stroke-width:0.75"
   class="key"
   aria-label="Φ" />&#10;	<path
   d="m 366.13916,-6.2490234 q 0,1.9423828 -0.74707,3.4013671 -0.73828,1.4589844 -2.12695,2.24121099 -1.38868,0.78222656 -3.27832,0.78222656 -1.90723,0 -3.2959,-0.7734375 -1.37988,-0.77343745 -2.10938,-2.23242185 -0.72949,-1.4677735 -0.72949,-3.4189453 0,-2.9707032 1.62598,-4.6406246 1.62597,-1.678711 4.52636,-1.678711 1.88965,0 3.27832,0.755859 1.38868,0.74707 2.11817,2.1796875 0.73828,1.4326172 0.73828,3.3837891 z m -1.71387,0 q 0,-2.3115235 -1.16015,-3.6298829 -1.15137,-1.3183597 -3.26075,-1.3183597 -2.12695,0 -3.2871,1.3007816 -1.16016,1.3007813 -1.16016,3.647461 0,2.3291015 1.16894,3.7001953 1.17774,1.3623047 3.26075,1.3623047 2.14453,0 3.28711,-1.3183594 1.15136,-1.3271485 1.15136,-3.7441406 z m -7.01367,-0.7294922 h 5.15918 v 1.40625 h -5.15918 z"
   id="text85"
   style="font-size:18px;line-height:0%;font-family:Arial;text-align:center;text-anchor:middle;fill:#111111;stroke-width:0.75"
   class="key"
   aria-label="Θ" />&#10;&#10;  <path
   d="m 396,-7.3212891 q -0.70313,0 -1.18652,0.4921875 -0.4834,0.4833985 -0.4834,1.1865235 0,0.6943359 0.4834,1.1777344 0.48339,0.4746093 1.18652,0.4746093 0.70312,0 1.18652,-0.4746093 0.4834,-0.4833985 0.4834,-1.1777344 0,-0.694336 -0.49219,-1.1865235 Q 396.69434,-7.3212891 396,-7.3212891 Z m 0,-1.133789 q 0.5625,0 1.08105,0.2197265 0.51856,0.2109375 0.89649,0.6152344 0.4043,0.3955078 0.60644,0.8964844 0.20215,0.5009766 0.20215,1.0810547 0,1.1601562 -0.81738,1.96875 -0.80859,0.7998047 -1.98633,0.7998047 -1.18652,0 -1.97754,-0.7910157 -0.79101,-0.7910156 -0.79101,-1.977539 0,-1.1777344 0.80859,-1.9951172 0.80859,-0.8173828 1.97754,-0.8173828 z"
   id="text86"
   style="font-size:18px;line-height:0%;font-family:Arial;text-align:center;text-anchor:middle;fill:#111111;stroke-width:0.75"
   class="key"
   aria-label="∘" />&#10;&#10;</g>&#10;&#10;&#10;<g
   transform="translate(84,98)"
   id="g96">&#10;	<path
   d="m 5.3085937,-12.111328 v 1.037109 q -0.7822265,-0.571289 -1.8017578,-0.966797 -1.0195312,-0.395507 -2.3466797,-0.395507 -1.43261714,0 -2.4960937,0.457031 V -1.125 q 1.06347656,0.45703125 2.4960937,0.45703125 1.3271485,0 2.3466797,-0.39550785 1.0195313,-0.3955078 1.8017578,-0.9755859 v 1.0283203 q -0.9316406,0.63281251 -1.977539,0.94921876 -1.0371094,0.31640625 -2.1972656,0.31640625 -2.9794922,0 -4.6933594,-1.81933591 -1.7138672,-1.828125 -1.7138672,-4.9833985 0,-3.1640625 1.7138672,-4.9833984 1.7138672,-1.828125 4.6933594,-1.828125 1.1777343,0 2.2148437,0.316406 1.0458984,0.307617 1.9599609,0.931641 z m -7.5673828,10.4589843 v -9.7998043 q -0.3076172,0.237304 -0.5800781,0.527343 -1.3798828,1.5117191 -1.3798828,4.3769534 0,2.8564453 1.3798828,4.3681641 0.2724609,0.2900391 0.5800781,0.5273438 z"
   id="text87"
   style="font-size:18px;line-height:0%;font-family:Arial;text-align:center;text-anchor:middle;fill:#111111;stroke-width:0.75"
   class="key"
   aria-label="ℂ" />&#10;	<path
   d="m 31.385742,0 v -1.4238281 l 4.728516,-5.0888672 -4.579102,-4.4560547 v -1.415039 h 8.780274 v 1.371094 h -6.890625 l 4.02539,3.9111325 v 1.0898438 l -4.30664,4.640625 h 7.708007 V 0 Z"
   id="text88"
   style="font-size:18px;line-height:0%;font-family:Arial;text-align:center;text-anchor:middle;fill:#111111;stroke-width:0.75"
   class="key"
   aria-label="Σ" />&#10;	<path
   d="m 69.851074,3.8144531 q -0.694336,0 -1.177734,-0.1669922 V 2.3554688 q 0.527344,0.2109375 1.02832,0.2109375 1.511719,0 1.511719,-2.04785161 L 71.195801,-10.133789 q 0,-1.511719 0.764648,-2.311524 0.764649,-0.799804 2.223633,-0.799804 0.764648,0 1.151367,0.158203 v 1.300781 q -0.430664,-0.237305 -1.010742,-0.237305 -0.729492,0 -1.125,0.527344 -0.386719,0.518555 -0.386719,1.5205081 V 0.69433594 q 0,1.51171876 -0.764648,2.31152346 -0.764649,0.8085937 -2.197266,0.8085937 z"
   id="text89"
   style="font-size:18px;line-height:0%;font-family:Arial;text-align:center;text-anchor:middle;fill:#111111;stroke-width:0.75"
   class="key"
   aria-label="∫" />&#10;	<path
   d="m 105.102,0 h 5.85 v -10.386 h -5.85 v 1.512 h 4.338 v 2.916 h -4.338 v 1.512 h 4.338 v 2.934 h -4.338 z"
   id="text90"
   style="font-size:18px;line-height:0%;font-family:Arial;text-align:center;text-anchor:middle;fill:#111111;stroke-width:0.75"
   class="key nubkey"
   aria-label="∃" />&#10;	<path
   d="m 148.806,-3.888 v -1.098 h -8.316 c 0.108,-1.926 1.116,-2.826 3.078,-2.79 h 5.238 v -1.116 h -5.04 c -1.494,0 -2.124,0.126 -2.79,0.576 -1.17,0.774 -1.782,2.088 -1.782,3.798 0,2.088 0.81,3.582 2.232,4.194 0.612,0.252 1.098,0.324 2.34,0.324 h 5.04 v -1.116 h -5.238 c -1.962,0.036 -2.97,-0.864 -3.078,-2.772 z"
   id="text91"
   style="font-size:18px;line-height:0%;font-family:Arial;text-align:center;text-anchor:middle;fill:#111111;stroke-width:0.75"
   class="key"
   aria-label="∈" />&#10;&#10;	<path
   d="m 179.07715,-12.383789 h 1.90722 l 4.48243,11.1445312 V 0 h -10.94239 l 0.009,-1.2392578 z m 4.63183,11.0126953 -2.9707,-7.5761719 q -0.26367,-0.6503907 -0.49219,-1.3535154 -0.21972,-0.711914 -0.2373,-0.817383 l -0.0791,0.28125 q -0.27246,0.9755859 -0.65039,1.9072265 l -2.9795,7.5585938 z"
   id="text92"
   style="font-size:18px;line-height:0%;font-family:Arial;text-align:center;text-anchor:middle;fill:#111111;stroke-width:0.75"
   class="key"
   aria-label="Δ" />&#10;	<path
   d="m 210.57301,-11.34 4.626,11.34 h 1.584 l 4.662,-11.34 z m 5.418,9.504 -3.276,-8.19 h 6.57 z"
   id="text93"
   style="font-size:18px;line-height:0%;font-family:Arial;text-align:center;text-anchor:middle;fill:#111111;stroke-width:0.75"
   class="key nubkey"
   aria-label="∇" />&#10;	<path
   d="M 256.32422,-0.87890625 249.76758,-12.243164 h -2.0918 l 6.55664,11.36425775 z M 246.5332,-13.12207 h 3.72657 l 6.32812,10.9775387 V -13.12207 h 0.87891 V 0 h -3.72657 l -6.32812,-10.977539 V 0 h -0.87891 z"
   id="text94"
   style="font-size:18px;line-height:0%;font-family:Arial;text-align:center;text-anchor:middle;fill:#111111;stroke-width:0.75"
   class="key"
   aria-label="ℕ" />&#10;	<path
   d="m 292.07812,-3.3662109 q -0.66796,-1.3271485 -1.26562,-1.7490235 -0.60645,-0.430664 -1.66113,-0.430664 h -0.39551 q 0.67676,0.4130859 1.56445,2.1796875 l 1.25684,2.48730465 h 1.74902 z m -1.07226,-2.7070313 q 0.46582,0.2197266 0.95801,0.7998047 0.50097,0.5800781 1.0459,1.6875 L 294.81152,0 h -3.86718 l -1.67872,-3.3662109 Q 288.61523,-4.6845703 288,-5.1152344 q -0.60645,-0.430664 -1.66113,-0.430664 h -0.17578 V 0 h -3.53321 v -13.12207 h 5.96778 q 2.25,0 3.35742,0.940429 1.10742,0.94043 1.10742,2.8388676 0,1.828125 -1.02832,2.6894531 -0.43066,0.3603516 -1.02832,0.5800781 z m -4.84277,-6.1699218 v 5.8183593 h 2.85644 q 0.21094,0 0.41309,-0.017578 v -5.7832032 q -0.20215,-0.01758 -0.41309,-0.01758 z m 4.19238,0.202148 v 5.4052738 q 0.57129,-0.1933594 0.94922,-0.5537109 0.79101,-0.7558594 0.79101,-2.1533203 0,-1.3974606 -0.78222,-2.1445316 -0.36914,-0.360351 -0.95801,-0.553711 z m -6.84668,-0.202148 v 11.36425775 h 1.77539 V -12.243164 Z"
   id="text95"
   style="font-size:18px;line-height:0%;font-family:Arial;text-align:center;text-anchor:middle;fill:#111111;stroke-width:0.75"
   class="key"
   aria-label="ℝ" />&#10;	<path
   d="m 323.18701,0 v -3.7529297 h -0.72949 q -1.41504,0 -2.48731,-0.571289 -1.07226,-0.5800782 -1.64355,-1.6171875 -0.57129,-1.0458985 -0.57129,-2.3730469 v -4.0693359 h 1.67871 v 4.1044921 q 0,1.5117188 0.87012,2.3994141 0.87891,0.8876953 2.39062,0.8876953 h 0.49219 v -7.3916015 h 1.62598 v 7.3916015 h 0.49219 q 1.54687,0 2.39941,-0.8701172 0.86133,-0.8789062 0.86133,-2.4169922 v -4.1044921 h 1.67871 v 4.0693359 q 0,1.3095703 -0.58008,2.3554687 -0.57129,1.0458985 -1.64355,1.6259766 -1.06348,0.5800781 -2.47852,0.5800781 h -0.72949 V 0 Z"
   id="text96"
   style="font-size:18px;line-height:0%;font-family:Arial;text-align:center;text-anchor:middle;fill:#111111;stroke-width:0.75"
   class="key"
   aria-label="Ψ" />&#10;&#10;  &#10;&#10;</g>&#10;&#10;<g
   transform="translate(101,134)"
   id="g106">&#10;    <path
   d="M 0.52734375,0.12304687 H -0.40429688 L -2.8916016,-6.8378906 h -1.5996093 v -1.0283203 h 2.3730468 L 0.00878906,-1.8017578 3.7880859,-14.238281 H 4.921875 Z"
   id="text97"
   style="font-size:18px;line-height:0%;font-family:Arial;text-align:center;text-anchor:middle;fill:#111111;stroke-width:0.75"
   class="key"
   aria-label="√" />&#10;    <path
   d="m 31.249512,-12.383789 h 9.500976 v 1.371094 h -9.500976 z m 9.808593,11.0126953 V 0 h -10.11621 v -1.3710937 z m -1.362304,-5.6689454 v 1.3535157 h -7.391602 v -1.3535157 z"
   id="text98"
   style="font-size:18px;line-height:0%;font-family:Arial;text-align:center;text-anchor:middle;fill:#111111;stroke-width:0.75"
   class="key"
   aria-label="Ξ" />&#10;    <path
   d="m 76.311001,-10.998 h -1.26 v 4.896 c 0,2.034 -0.09,2.826 -0.378,3.402 -0.486,0.954 -1.548,1.602 -2.682,1.602 -0.99,0 -1.98,-0.504 -2.502,-1.296 -0.432,-0.666 -0.558,-1.458 -0.558,-3.708 v -4.896 h -1.26 v 4.842 c 0,2.682 0.09,3.366 0.576,4.158 0.756,1.26 2.124,1.998 3.744,1.998 1.494,0 2.754,-0.594 3.564,-1.71 0.648,-0.882 0.756,-1.53 0.756,-4.446 z"
   id="text99"
   style="font-size:18px;line-height:0%;font-family:Arial;text-align:center;text-anchor:middle;fill:#111111;stroke-width:0.75"
   class="key"
   aria-label="∪" />&#10;    <path
   d="M 103.97461,0.01757813 V -4.4824219 q 0,-1.3183593 0.50977,-2.3642578 0.50976,-1.0546875 1.42382,-1.6347656 0.92285,-0.5888672 2.06543,-0.5888672 1.15137,0 2.07422,0.5800781 0.93164,0.5800782 1.4502,1.6435547 0.52734,1.0634766 0.52734,2.3642578 v 4.50000003 h -0.90527 V -4.5 q 0,-1.6699219 -0.86133,-2.671875 -0.86133,-1.0019531 -2.26758,-1.0019531 -1.42383,0 -2.26758,0.993164 -0.84375,0.9931641 -0.84375,2.6982422 v 4.50000003 z"
   id="text100"
   style="font-size:18px;line-height:0%;font-family:Arial;text-align:center;text-anchor:middle;fill:#111111;stroke-width:0.75"
   class="key"
   aria-label="∩" />&#10;&#10;    <path
   d="m 148.806,-1.116 h -5.238 c -2.178,0 -3.114,-0.99 -3.114,-3.33 0,-2.322 0.936,-3.33 3.114,-3.33 h 5.238 v -1.116 h -5.04 c -1.494,0 -2.124,0.126 -2.79,0.576 -1.17,0.774 -1.782,2.07 -1.782,3.798 0,2.07 0.81,3.582 2.232,4.194 0.612,0.252 1.098,0.324 2.34,0.324 h 5.04 z"
   id="text101"
   style="font-size:18px;line-height:0%;font-family:Arial;text-align:center;text-anchor:middle;fill:#111111;stroke-width:0.75"
   class="key"
   aria-label="⊂" />&#10;    <path
   d="m 179.99561,-12.568359 q 2.66308,0 4.18359,1.476562 1.5293,1.4677736 1.5293,4.0517579 0,1.7666016 -0.94922,3.2607422 -0.94043,1.4941406 -2.77735,2.5048828 l 0.71192,-0.043945 1.11621,-0.052734 h 2.14453 V 0 h -5.17676 v -1.96875 q 1.57324,-0.8349609 2.39063,-2.0830078 0.82617,-1.2568359 0.82617,-2.8740234 0,-2.0390626 -1.0459,-3.1552738 -1.0459,-1.116211 -2.94434,-1.116211 -1.91601,0 -2.96191,1.116211 -1.0459,1.1162112 -1.0459,3.1552738 0,1.6083984 0.81738,2.8652343 0.81739,1.2480469 2.39942,2.0917969 V 0 h -5.17676 v -1.3710937 h 2.14453 l 1.11621,0.052734 0.71192,0.043945 q -1.82813,-0.993164 -2.77735,-2.4873047 -0.94922,-1.5029296 -0.94922,-3.2783203 0,-2.5839843 1.52051,-4.0517579 1.5293,-1.476562 4.19239,-1.476562 z"
   id="text102"
   style="font-size:18px;line-height:0%;font-family:Arial;text-align:center;text-anchor:middle;fill:#111111;stroke-width:0.75"
   class="key"
   aria-label="Ω" />&#10;    <path
   d="m 220.45605,-12.392578 v 1.371094 h -6.25781 v 11.01269494 h -1.67871 V -12.392578 Z"
   id="text103"
   style="font-size:18px;line-height:0%;font-family:Arial;text-align:center;text-anchor:middle;fill:#111111;stroke-width:0.75"
   class="key"
   aria-label="Γ" />&#10;    <path
   d="m 246.924,-5.31 1.476,-1.278 h 9.936 v -0.756 h -9.054 l 1.08,-0.936 v -1.044 l -4.716,4.014 4.716,3.996 V -2.34 l -1.08,-0.936 h 9.054 V -4.032 H 248.4 Z"
   id="text104"
   style="font-size:18px;line-height:0%;font-family:Arial;text-align:center;text-anchor:middle;fill:#111111;stroke-width:0.75"
   class="key"
   aria-label="⇐" />&#10;    <path
   d="m 283.92187,-4.2451172 0.81739,0.7294922 h 6.66211 l 0.82617,-0.7470703 -0.87891,-0.7119141 -6.63574,0.026367 z m 1.15137,1.2832031 q 0.30762,0.4306641 0.60645,0.8525391 h -0.63282 q -1.11621,-1.3095703 -2.37304,-1.9511719 v -0.3164062 q 1.25683,-0.6416016 2.37304,-1.9511719 h 0.63282 q -0.29883,0.421875 -0.60645,0.8525391 h 5.85352 Q 290.61914,-5.90625 290.32031,-6.328125 h 0.63281 q 1.11622,1.3095703 2.37305,1.9511719 v 0.3164062 q -1.25683,0.6416016 -2.37305,1.9511719 h -0.63281 q 0.35156,-0.421875 0.69434,-0.8525391 z"
   id="text105"
   style="font-size:18px;line-height:0%;font-family:Arial;text-align:center;text-anchor:middle;fill:#111111;stroke-width:0.75"
   class="key"
   aria-label="⇔" />&#10;    <path
   d="m 329.076,-5.31 -1.476,1.278 h -9.936 v 0.756 h 9.054 l -1.08,0.936 v 1.026 l 4.716,-3.996 -4.716,-4.014 v 1.044 l 1.08,0.936 h -9.054 v 0.756 h 9.936 z"
   id="text106"
   style="font-size:18px;line-height:0%;font-family:Arial;text-align:center;text-anchor:middle;fill:#111111;stroke-width:0.75"
   class="key"
   aria-label="⇒" />&#10;</g>&#10;&#10;&#10;<g
   transform="translate(561,26)"
   id="g110">&#10;    <path
   d="M -4.3725586,-8.4023438 V -9.703125 h 8.7451172 v 1.3007812 z m 0,6.2578125 v -1.3007812 h 8.7451172 v 1.3007812 z m 0,-3.1289062 v -1.3007812 h 8.7451172 v 1.3007812 z"
   id="text107"
   style="font-size:18px;line-height:0%;font-family:Arial;text-align:center;text-anchor:middle;fill:#111111;stroke-width:0.75"
   class="key"
   aria-label="≡" />&#10;    <path
   d="m 36.611999,-13.5 h -1.206 v 18 h 1.206 z"
   id="text108"
   style="font-size:18px;line-height:0%;font-family:Arial;text-align:center;text-anchor:middle;fill:#111111;stroke-width:0.75"
   class="key"
   aria-label="∣" />&#10;    <path
   d="m 72.054,-12.51 c -3.6,0 -6.516,2.898 -6.516,6.498 0,3.528 2.916,6.444 6.426,6.444 3.546,0 6.48,-2.934 6.48,-6.444 0,-3.528 -2.916,-6.498 -6.39,-6.498 z m -0.072,5.688 -3.42,-3.384 c 0.99,-0.81 2.16,-1.224 3.42,-1.224 1.242,0 2.394,0.414 3.42,1.188 z m 4.14,-2.7 c 0.864,1.026 1.278,2.16 1.278,3.474 0,1.296 -0.414,2.448 -1.242,3.456 l -3.456,-3.51 z m -0.684,7.65 c -0.99,0.792 -2.196,1.224 -3.456,1.224 -1.26,0 -2.412,-0.414 -3.474,-1.26 l 3.474,-3.474 z m -7.65,-0.756 c -0.792,-0.972 -1.206,-2.124 -1.206,-3.384 0,-1.296 0.414,-2.448 1.26,-3.474 l 3.42,3.384 z"
   id="text109"
   style="font-size:18px;line-height:0%;font-family:Arial;text-align:center;text-anchor:middle;fill:#111111;stroke-width:0.75"
   class="key"
   aria-label="⊗" />&#10;    <path
   d="m 107.05957,-9.9316406 h 1.85449 v 2.2324219 h -1.85449 z m -4.69336,3.5419922 h 11.26758 v 1.4941406 h -11.26758 z"
   id="text110"
   style="font-size:18px;line-height:0%;font-family:Arial;text-align:center;text-anchor:middle;fill:#111111;stroke-width:0.75"
   class="key"
   aria-label="∸" />&#10;</g>&#10;<g
   transform="translate(561,62)"
   id="g113">&#10;    <path
   d="M -1.9643555,-13.675781 H 1.762207 v 1.256836 H -0.34716797 V 2.3730469 H -1.9643555 Z"
   id="text111"
   style="font-size:18px;line-height:0%;font-family:Arial;text-align:center;text-anchor:middle;fill:#111111;stroke-width:0.75"
   class="key"
   aria-label="⌈" />&#10;    <path
   d="m 36,-11.504883 q -1.924805,0 -3.27832,1.001953 -1.353516,0.9931644 -1.353516,3.2080081 V 3.4541016 h -1.520508 v -10.96875 q 0,-2.8300786 1.951172,-4.1308596 1.959961,-1.300781 4.201172,-1.300781 2.241211,0 4.192383,1.300781 1.959961,1.300781 1.959961,4.1308596 v 10.96875 H 40.631836 V -7.2949219 q 0,-2.1972656 -1.344727,-3.1992191 Q 37.951172,-11.504883 36,-11.504883 Z"
   id="text112"
   style="font-size:18px;line-height:0%;font-family:Arial;text-align:center;text-anchor:middle;fill:#111111;stroke-width:0.75"
   class="key"
   aria-label="⋂" />&#10;    <path
   d="M 73.964355,-13.675781 V 2.3730469 H 72.347168 V -12.418945 h -2.109375 v -1.256836 z"
   id="text113"
   style="font-size:18px;line-height:0%;font-family:Arial;text-align:center;text-anchor:middle;fill:#111111;stroke-width:0.75"
   class="key"
   aria-label="⌉" />&#10;</g>&#10;<g
   transform="translate(561,98)"
   id="g116">&#10;    <path
   d="m 4.806,-2.988 h -5.238 c -2.178,0 -3.114,-1.008 -3.114,-3.348 0,-2.322 0.936,-3.33 3.114,-3.33 h 5.238 v -1.116 h -5.04 c -1.494,0 -2.124,0.126 -2.79,0.576 -1.17,0.774 -1.782,2.088 -1.782,3.816 0,1.746 0.504,2.952 1.566,3.78 0.72,0.576 1.386,0.738 3.006,0.738 h 5.04 z m 0,1.998 H -4.806 V 0 h 9.612 z"
   id="text114"
   style="font-size:18px;line-height:0%;font-family:Arial;text-align:center;text-anchor:middle;fill:#111111;stroke-width:0.75"
   class="key"
   aria-label="⊆" />&#10;    <path
   d="m 32.352539,-3.8847656 q -0.729492,0.7294922 -1.766602,0.7294922 -1.02832,0 -1.77539,-0.7382813 -0.74707,-0.7382812 -0.74707,-1.7841797 0,-1.0546875 0.729492,-1.7753906 0.738281,-0.7207031 1.801758,-0.7207031 1.063476,0 1.77539,0.711914 0.448242,0.4482422 0.615235,1.0371094 h 6.038085 q 0.175782,-0.5800781 0.624024,-1.0283203 0.738281,-0.7207031 1.801758,-0.7207031 1.063476,0 1.77539,0.711914 0.711914,0.7119141 0.711914,1.7753907 0,1.0634765 -0.729492,1.8017578 -0.729492,0.7294922 -1.766601,0.7294922 -1.028321,0 -1.792969,-0.7470704 -0.457031,-0.4570312 -0.624024,-1.0458984 h -6.038085 q -0.175782,0.5976563 -0.632813,1.0634766 z m 8.226563,-0.9404297 q 0.351562,0.3515625 0.852539,0.3515625 0.500976,0 0.84375,-0.3515625 0.351562,-0.3515625 0.351562,-0.8525391 0,-0.5009765 -0.351562,-0.84375 -0.342774,-0.3515625 -0.852539,-0.3515625 -0.500977,0 -0.85254,0.3515625 -0.342773,0.3427735 -0.342773,0.84375 0,0.4921875 0.351563,0.8525391 z"
   id="text115"
   style="font-size:18px;line-height:0%;font-family:Arial;text-align:center;text-anchor:middle;fill:#111111;stroke-width:0.75"
   class="key"
   aria-label="⊷" />&#10;    <path
   d="m 67.194,-2.988 v 1.116 h 5.04 c 1.494,0 2.124,-0.126 2.808,-0.576 1.17,-0.774 1.764,-2.088 1.764,-3.87 0,-2.016 -0.828,-3.546 -2.232,-4.14 -0.612,-0.252 -1.098,-0.324 -2.34,-0.324 h -5.04 v 1.116 h 5.238 c 2.178,0 3.114,0.99 3.114,3.33 0,2.34 -0.936,3.348 -3.114,3.348 z m 9.612,1.998 H 67.194 V 0 h 9.612 z"
   id="text116"
   style="font-size:18px;line-height:0%;font-family:Arial;text-align:center;text-anchor:middle;fill:#111111;stroke-width:0.75"
   class="key"
   aria-label="⊇" />&#10;</g>&#10;<g
   transform="translate(561,134)"
   id="g119">&#10;    <path
   d="M -1.9643555,2.3730469 V -13.675781 h 1.61718753 V 1.1162109 H 1.762207 v 1.256836 z"
   id="text117"
   style="font-size:18px;line-height:0%;font-family:Arial;text-align:center;text-anchor:middle;fill:#111111;stroke-width:0.75"
   class="key"
   aria-label="⌊" />&#10;    <path
   d="m 36,2.0126953 q 1.924805,0 3.27832,-1.0019531 1.353516,-0.99316407 1.353516,-3.2080078 V -12.946289 h 1.520508 v 10.9687499 q 0,2.83007816 -1.959961,4.1308594 Q 38.241211,3.4541016 36,3.4541016 q -2.241211,0 -4.201172,-1.3007813 -1.951172,-1.30078124 -1.951172,-4.1308594 V -12.946289 h 1.520508 V -2.1972656 Q 31.368164,0 32.704102,1.0019531 34.048828,2.0126953 36,2.0126953 Z"
   id="text118"
   style="font-size:18px;line-height:0%;font-family:Arial;text-align:center;text-anchor:middle;fill:#111111;stroke-width:0.75"
   class="key"
   aria-label="⋃" />&#10;    <path
   d="m 73.964355,2.3730469 h -3.726562 v -1.256836 h 2.109375 V -13.675781 h 1.617187 z"
   id="text119"
   style="font-size:18px;line-height:0%;font-family:Arial;text-align:center;text-anchor:middle;fill:#111111;stroke-width:0.75"
   class="key"
   aria-label="⌋" />&#10;</g>&#10;<g
   transform="translate(561,170)"
   id="g121">&#10;    <path
   d="M 12.616699,-10.766602 H 23.383301 V 0 H 12.616699 Z m 0.667969,0.667969 v 9.43066425 h 9.430664 V -10.098633 Z"
   id="text120"
   style="font-size:18px;line-height:0%;font-family:Arial;text-align:center;text-anchor:middle;fill:#111111;stroke-width:0.75"
   class="key"
   aria-label="□" />&#10;    <path
   d="m 69.561035,-7.8222656 0.5625,-4.5615234 h 1.722656 l -1.388671,4.5615234 z m 3.00586,0 0.5625,-4.5615234 h 1.722656 l -1.388672,4.5615234 z"
   id="text121"
   style="font-size:18px;line-height:0%;font-family:Arial;text-align:center;text-anchor:middle;fill:#111111;stroke-width:0.75"
   class="key"
   aria-label="″" />&#10;</g>&#10;&#10;<g
   transform="translate(561,78)"
   id="g122">&#10;    <path
   d="m 108.73828,-10.40625 v 4.4560547 h 4.89551 v 1.4941406 h -4.89551 V 0 h -1.47656 v -4.4560547 h -4.89551 v -1.4941406 h 4.89551 V -10.40625 Z m -1.47656,-2.71582 h 1.47656 v 1.792968 h -1.47656 z"
   id="text122"
   style="font-size:18px;line-height:0%;font-family:Arial;text-align:center;text-anchor:middle;fill:#111111;stroke-width:0.75"
   class="key"
   aria-label="∔" />&#10;</g>&#10;<g
   transform="translate(561,150)"
   id="g123">&#10;    <path
   d="m 105.40723,-1.1777344 -4.46485,-4.4648437 4.46485,-4.4648439 v 2.3994142 h 4.9834 V -13.12207 h 4.13085 l -0.009,9.5449216 h -9.10547 z m -0.87891,-5.6513672 v -1.1513671 l -2.33789,2.3378906 2.33789,2.3378906 v -1.1513672 h 9.10547 l 0.009,-7.7871093 h -2.37305 l -0.009,5.4140624 z"
   id="text123"
   style="font-size:18px;line-height:0%;font-family:Arial;text-align:center;text-anchor:middle;fill:#111111;stroke-width:0.75"
   class="key"
   aria-label="⏎" />&#10;</g>&#10;&#10;<path
   d="m 18.998047,18.476562 q 0.03516,0.07031 0.03516,0.166993 0,0.166992 -0.114258,0.298828 -0.105468,0.123047 -0.28125,0.123047 -0.166992,0 -0.307617,-0.114258 -0.131836,-0.123047 -0.131836,-0.307617 0,-0.158203 0.123047,-0.290039 0.131836,-0.131836 0.307617,-0.131836 0.263672,0 0.369141,0.254882 z m 2.768555,6.670899 q 0.03516,0.105469 0.03516,0.158203 0,0.158203 -0.123047,0.290039 -0.123047,0.131836 -0.298828,0.131836 -0.158203,0 -0.290039,-0.123047 -0.131836,-0.123047 -0.131836,-0.307617 0,-0.149414 0.114258,-0.28125 0.114257,-0.131836 0.28125,-0.131836 0.28125,0 0.413086,0.263672 z m -4.03418,-6.020508 q 0.131836,0.114258 0.131836,0.290039 0,0.421875 -0.413086,0.421875 -0.175781,0 -0.298828,-0.114258 -0.123047,-0.123047 -0.123047,-0.290039 0,-0.175781 0.123047,-0.298828 0.123047,-0.131836 0.290039,-0.131836 0.166992,0 0.290039,0.123047 z m 5.115234,5.097656 q 0.123047,0.123047 0.123047,0.298828 0,0.166993 -0.123047,0.29004 -0.114258,0.123046 -0.298828,0.123046 -0.175781,0 -0.298828,-0.123046 -0.123047,-0.123047 -0.123047,-0.29004 0,-0.175781 0.114258,-0.290039 0.123047,-0.123046 0.290039,-0.123046 0.175781,0 0.316406,0.114257 z m -6.029297,-4.016601 q 0.272461,0.114258 0.272461,0.404297 0,0.166992 -0.140625,0.290039 -0.131836,0.114258 -0.290039,0.114258 -0.18457,0 -0.298828,-0.131836 -0.114258,-0.131836 -0.114258,-0.290039 0,-0.175782 0.123047,-0.298829 0.131836,-0.123046 0.290039,-0.123046 0.05273,0 0.158203,0.03516 z m 6.670899,2.759765 q 0.263672,0.114258 0.263672,0.386719 0,0.175781 -0.131836,0.298828 -0.123047,0.114258 -0.290039,0.114258 -0.19336,0 -0.307618,-0.123047 -0.114257,-0.131836 -0.114257,-0.290039 0,-0.202148 0.131836,-0.307617 0.140625,-0.105469 0.298828,-0.105469 0.08789,0 0.149414,0.02637 z m -7.101563,-1.40625 q 0.166992,0 0.298828,0.123047 0.131836,0.114258 0.131836,0.28125 0,0.175782 -0.131836,0.307617 -0.131836,0.123047 -0.290039,0.123047 h -0.01758 q -0.166992,0 -0.290039,-0.123047 -0.114258,-0.131835 -0.114258,-0.298828 0,-0.175781 0.114258,-0.290039 0.123047,-0.123047 0.298828,-0.123047 z m 7.215821,-0.0088 q 0.175781,0 0.298828,0.123047 0.123047,0.123047 0.123047,0.298828 0,0.166993 -0.123047,0.290039 -0.114258,0.123047 -0.290039,0.123047 h -0.03516 q -0.158203,0 -0.28125,-0.123047 -0.114257,-0.123046 -0.114257,-0.28125 0,-0.175781 0.131836,-0.298828 0.131835,-0.123047 0.290039,-0.131836 z m -7.101563,1.423828 q 0.07031,-0.03516 0.166992,-0.03516 0.175782,0 0.298828,0.114258 0.123047,0.114258 0.123047,0.290039 0,0.166992 -0.123047,0.298828 -0.123046,0.131836 -0.298828,0.131836 -0.166992,0 -0.298828,-0.123047 -0.123047,-0.131836 -0.123047,-0.307617 0,-0.272461 0.254883,-0.369141 z m 6.670899,-2.768554 q 0.105468,-0.03516 0.158203,-0.03516 0.158203,0 0.290039,0.123046 0.131836,0.123047 0.131836,0.298829 0,0.158203 -0.123047,0.290039 -0.123047,0.131836 -0.307617,0.131836 -0.158204,0 -0.28125,-0.123047 -0.123047,-0.123047 -0.123047,-0.290039 0,-0.28125 0.254883,-0.395508 z m -6.020508,4.034179 q 0.131836,-0.131835 0.28125,-0.131835 0.18457,0 0.307617,0.123046 0.123047,0.114258 0.123047,0.290039 0,0.166993 -0.123047,0.298829 -0.114258,0.123046 -0.290039,0.123046 -0.166992,0 -0.298828,-0.123046 -0.123047,-0.131836 -0.123047,-0.298829 0,-0.158203 0.123047,-0.28125 z M 22.25,19.126953 q 0.140625,-0.123047 0.298828,-0.123047 0.175781,0 0.290039,0.123047 0.123047,0.123047 0.123047,0.298828 0,0.166992 -0.123047,0.298828 -0.114258,0.123047 -0.290039,0.123047 -0.166992,0 -0.290039,-0.131836 -0.123047,-0.131836 -0.123047,-0.290039 0,-0.166992 0.114258,-0.298828 z m -4.016602,6.029297 q 0.05273,-0.123047 0.166993,-0.193359 0.123046,-0.07031 0.228515,-0.07031 0.175781,0 0.290039,0.131836 0.123047,0.131836 0.123047,0.290039 0,0.175781 -0.131836,0.298828 -0.131836,0.114258 -0.290039,0.114258 -0.166992,0 -0.298828,-0.131836 -0.123047,-0.131836 -0.123047,-0.28125 0,-0.05273 0.03516,-0.158203 z m 2.759766,-6.670898 q 0.114258,-0.263672 0.386719,-0.263672 0.175781,0 0.298828,0.131836 0.123047,0.131836 0.123047,0.298828 0,0.175781 -0.131836,0.298828 -0.131836,0.114258 -0.290039,0.114258 -0.175781,0 -0.298828,-0.131836 -0.114258,-0.140625 -0.114258,-0.298828 0,-0.07031 0.02637,-0.149414 z m -1.40625,7.101562 q 0,-0.175781 0.123047,-0.298828 Q 19.833008,25.165039 20,25.165039 q 0.175781,0 0.298828,0.123047 0.123047,0.123047 0.123047,0.298828 0,0.166992 -0.123047,0.290039 Q 20.175781,26 20,26 19.833008,26 19.709961,25.876953 19.586914,25.753906 19.586914,25.586914 Z m 0,-7.21582 q 0,-0.175782 0.123047,-0.298828 Q 19.833008,17.949219 20,17.949219 q 0.175781,0 0.298828,0.123047 0.123047,0.123046 0.123047,0.298828 0,0.166992 -0.123047,0.290039 Q 20.175781,18.78418 20,18.78418 q -0.166992,0 -0.290039,-0.123047 -0.123047,-0.123047 -0.123047,-0.290039 z m 1.291992,10.081054 q 0,0.492188 -0.290039,0.84375 -0.290039,0.360352 -0.729492,0.360352 -0.738281,0 -0.738281,-0.84375 0,-0.500977 0.298828,-0.852539 0.298828,-0.342774 0.711914,-0.342774 0.74707,0 0.74707,0.834961 z"
   id="t1"
   style="font-size:18px;line-height:0%;font-family:'Gentium Plus Compact';text-align:center;text-anchor:middle;fill:#111111"
   class="dead"
   aria-label="◌̣" />&#10;<path
   d="m 450.99805,18.476562 q 0.0352,0.07031 0.0352,0.166993 0,0.166992 -0.11425,0.298828 -0.10547,0.123047 -0.28125,0.123047 -0.167,0 -0.30762,-0.114258 -0.13184,-0.123047 -0.13184,-0.307617 0,-0.158203 0.12305,-0.290039 0.13183,-0.131836 0.30762,-0.131836 0.26367,0 0.36914,0.254882 z m 2.76855,6.670899 q 0.0352,0.105469 0.0352,0.158203 0,0.158203 -0.12305,0.290039 -0.12305,0.131836 -0.29883,0.131836 -0.1582,0 -0.29004,-0.123047 -0.13183,-0.123047 -0.13183,-0.307617 0,-0.149414 0.11426,-0.28125 0.11425,-0.131836 0.28125,-0.131836 0.28125,0 0.41308,0.263672 z m -4.03418,-6.020508 q 0.13184,0.114258 0.13184,0.290039 0,0.421875 -0.41309,0.421875 -0.17578,0 -0.29883,-0.114258 -0.12304,-0.123047 -0.12304,-0.290039 0,-0.175781 0.12304,-0.298828 0.12305,-0.131836 0.29004,-0.131836 0.16699,0 0.29004,0.123047 z m 5.11524,5.097656 q 0.12304,0.123047 0.12304,0.298828 0,0.166993 -0.12304,0.29004 -0.11426,0.123046 -0.29883,0.123046 -0.17578,0 -0.29883,-0.123046 -0.12305,-0.123047 -0.12305,-0.29004 0,-0.175781 0.11426,-0.290039 0.12305,-0.123046 0.29004,-0.123046 0.17578,0 0.31641,0.114257 z m -6.0293,-4.016601 q 0.27246,0.114258 0.27246,0.404297 0,0.166992 -0.14062,0.290039 -0.13184,0.114258 -0.29004,0.114258 -0.18457,0 -0.29883,-0.131836 -0.11426,-0.131836 -0.11426,-0.290039 0,-0.175782 0.12305,-0.298829 0.13183,-0.123046 0.29004,-0.123046 0.0527,0 0.1582,0.03516 z m 6.6709,2.759765 q 0.26367,0.114258 0.26367,0.386719 0,0.175781 -0.13184,0.298828 -0.12304,0.114258 -0.29004,0.114258 -0.19335,0 -0.30761,-0.123047 -0.11426,-0.131836 -0.11426,-0.290039 0,-0.202148 0.13184,-0.307617 0.14062,-0.105469 0.29882,-0.105469 0.0879,0 0.14942,0.02637 z m -7.10156,-1.40625 q 0.16699,0 0.29882,0.123047 0.13184,0.114258 0.13184,0.28125 0,0.175782 -0.13184,0.307617 -0.13183,0.123047 -0.29004,0.123047 h -0.0176 q -0.167,0 -0.29004,-0.123047 -0.11426,-0.131835 -0.11426,-0.298828 0,-0.175781 0.11426,-0.290039 0.12304,-0.123047 0.29883,-0.123047 z m 7.21582,-0.0088 q 0.17578,0 0.29882,0.123047 0.12305,0.123047 0.12305,0.298828 0,0.166993 -0.12305,0.290039 -0.11425,0.123047 -0.29004,0.123047 h -0.0351 q -0.1582,0 -0.28125,-0.123047 -0.11426,-0.123046 -0.11426,-0.28125 0,-0.175781 0.13184,-0.298828 0.13183,-0.123047 0.29004,-0.131836 z m -7.10157,1.423828 q 0.0703,-0.03516 0.167,-0.03516 0.17578,0 0.29882,0.114258 0.12305,0.114258 0.12305,0.290039 0,0.166992 -0.12305,0.298828 -0.12304,0.131836 -0.29882,0.131836 -0.167,0 -0.29883,-0.123047 -0.12305,-0.131836 -0.12305,-0.307617 0,-0.272461 0.25488,-0.369141 z m 6.6709,-2.768554 q 0.10547,-0.03516 0.1582,-0.03516 0.15821,0 0.29004,0.123046 0.13184,0.123047 0.13184,0.298829 0,0.158203 -0.12305,0.290039 -0.12304,0.131836 -0.30761,0.131836 -0.15821,0 -0.28125,-0.123047 -0.12305,-0.123047 -0.12305,-0.290039 0,-0.28125 0.25488,-0.395508 z m -6.02051,4.034179 q 0.13184,-0.131835 0.28125,-0.131835 0.18457,0 0.30762,0.123046 0.12305,0.114258 0.12305,0.290039 0,0.166993 -0.12305,0.298829 -0.11426,0.123046 -0.29004,0.123046 -0.16699,0 -0.29883,-0.123046 -0.12304,-0.131836 -0.12304,-0.298829 0,-0.158203 0.12304,-0.28125 z M 454.25,19.126953 q 0.14062,-0.123047 0.29883,-0.123047 0.17578,0 0.29004,0.123047 0.12304,0.123047 0.12304,0.298828 0,0.166992 -0.12304,0.298828 -0.11426,0.123047 -0.29004,0.123047 -0.16699,0 -0.29004,-0.131836 -0.12305,-0.131836 -0.12305,-0.290039 0,-0.166992 0.11426,-0.298828 z m -4.0166,6.029297 q 0.0527,-0.123047 0.16699,-0.193359 0.12305,-0.07031 0.22852,-0.07031 0.17578,0 0.29004,0.131836 0.12304,0.131836 0.12304,0.290039 0,0.175781 -0.13183,0.298828 -0.13184,0.114258 -0.29004,0.114258 -0.167,0 -0.29883,-0.131836 -0.12305,-0.131836 -0.12305,-0.28125 0,-0.05273 0.0352,-0.158203 z m 2.75976,-6.670898 q 0.11426,-0.263672 0.38672,-0.263672 0.17578,0 0.29883,0.131836 0.12305,0.131836 0.12305,0.298828 0,0.175781 -0.13184,0.298828 -0.13183,0.114258 -0.29004,0.114258 -0.17578,0 -0.29883,-0.131836 -0.11425,-0.140625 -0.11425,-0.298828 0,-0.07031 0.0264,-0.149414 z m -1.40625,7.101562 q 0,-0.175781 0.12305,-0.298828 0.12305,-0.123047 0.29004,-0.123047 0.17578,0 0.29883,0.123047 0.12304,0.123047 0.12304,0.298828 0,0.166992 -0.12304,0.290039 Q 452.17578,26 452,26 q -0.16699,0 -0.29004,-0.123047 -0.12305,-0.123047 -0.12305,-0.290039 z m 0,-7.21582 q 0,-0.175782 0.12305,-0.298828 0.12305,-0.123047 0.29004,-0.123047 0.17578,0 0.29883,0.123047 0.12304,0.123046 0.12304,0.298828 0,0.166992 -0.12304,0.290039 -0.12305,0.123047 -0.29883,0.123047 -0.16699,0 -0.29004,-0.123047 -0.12305,-0.123047 -0.12305,-0.290039 z m 3.47168,-3.629883 q -0.0351,0.193359 -0.14941,0.483398 -0.12305,0.28125 -0.19336,0.448243 h -5.40527 l -0.19336,-0.219727 q 0.0439,-0.193359 0.1582,-0.474609 0.11426,-0.28125 0.20215,-0.448243 h 5.38769 z"
   id="t2"
   style="font-size:18px;line-height:0%;font-family:'Gentium Plus Compact';text-align:center;text-anchor:middle;fill:#111111"
   class="dead"
   aria-label="◌̄" />&#10;&#10;<path
   d="m 478.99805,90.476562 q 0.0352,0.07031 0.0352,0.166993 0,0.166992 -0.11425,0.298828 -0.10547,0.123047 -0.28125,0.123047 -0.167,0 -0.30762,-0.114258 -0.13184,-0.123047 -0.13184,-0.307617 0,-0.158203 0.12305,-0.290039 0.13183,-0.131836 0.30762,-0.131836 0.26367,0 0.36914,0.254882 z m 2.76855,6.670899 q 0.0352,0.105469 0.0352,0.158203 0,0.158203 -0.12305,0.290039 -0.12305,0.131836 -0.29883,0.131836 -0.1582,0 -0.29004,-0.123047 -0.13183,-0.123047 -0.13183,-0.307617 0,-0.149414 0.11426,-0.28125 0.11425,-0.131836 0.28125,-0.131836 0.28125,0 0.41308,0.263672 z m -4.03418,-6.020508 q 0.13184,0.114258 0.13184,0.290039 0,0.421875 -0.41309,0.421875 -0.17578,0 -0.29883,-0.114258 -0.12304,-0.123047 -0.12304,-0.290039 0,-0.175781 0.12304,-0.298828 0.12305,-0.131836 0.29004,-0.131836 0.16699,0 0.29004,0.123047 z m 5.11524,5.097656 q 0.12304,0.123047 0.12304,0.298828 0,0.166993 -0.12304,0.29004 -0.11426,0.123046 -0.29883,0.123046 -0.17578,0 -0.29883,-0.123046 -0.12305,-0.123047 -0.12305,-0.29004 0,-0.175781 0.11426,-0.290039 0.12305,-0.123046 0.29004,-0.123046 0.17578,0 0.31641,0.114257 z m -6.0293,-4.016601 q 0.27246,0.114258 0.27246,0.404297 0,0.166992 -0.14062,0.290039 -0.13184,0.114258 -0.29004,0.114258 -0.18457,0 -0.29883,-0.131836 -0.11426,-0.131836 -0.11426,-0.290039 0,-0.175782 0.12305,-0.298829 0.13183,-0.123046 0.29004,-0.123046 0.0527,0 0.1582,0.03516 z m 6.6709,2.759765 q 0.26367,0.114258 0.26367,0.386719 0,0.175781 -0.13184,0.298828 -0.12304,0.114258 -0.29004,0.114258 -0.19335,0 -0.30761,-0.123047 -0.11426,-0.131836 -0.11426,-0.290039 0,-0.202148 0.13184,-0.307617 0.14062,-0.105469 0.29882,-0.105469 0.0879,0 0.14942,0.02637 z m -7.10156,-1.40625 q 0.16699,0 0.29882,0.123047 0.13184,0.114258 0.13184,0.28125 0,0.175782 -0.13184,0.307617 -0.13183,0.123047 -0.29004,0.123047 h -0.0176 q -0.167,0 -0.29004,-0.123047 -0.11426,-0.131835 -0.11426,-0.298828 0,-0.175781 0.11426,-0.290039 0.12304,-0.123047 0.29883,-0.123047 z m 7.21582,-0.0088 q 0.17578,0 0.29882,0.123047 0.12305,0.123047 0.12305,0.298828 0,0.166993 -0.12305,0.290039 -0.11425,0.123047 -0.29004,0.123047 h -0.0351 q -0.1582,0 -0.28125,-0.123047 -0.11426,-0.123046 -0.11426,-0.28125 0,-0.175781 0.13184,-0.298828 0.13183,-0.123047 0.29004,-0.131836 z m -7.10157,1.423828 q 0.0703,-0.03516 0.167,-0.03516 0.17578,0 0.29882,0.114258 0.12305,0.114258 0.12305,0.290039 0,0.166992 -0.12305,0.298828 -0.12304,0.131836 -0.29882,0.131836 -0.167,0 -0.29883,-0.123047 -0.12305,-0.131836 -0.12305,-0.307617 0,-0.272461 0.25488,-0.369141 z m 6.6709,-2.768554 q 0.10547,-0.03516 0.1582,-0.03516 0.15821,0 0.29004,0.123046 0.13184,0.123047 0.13184,0.298829 0,0.158203 -0.12305,0.290039 -0.12304,0.131836 -0.30761,0.131836 -0.15821,0 -0.28125,-0.123047 -0.12305,-0.123047 -0.12305,-0.290039 0,-0.28125 0.25488,-0.395508 z m -6.02051,4.034179 q 0.13184,-0.131835 0.28125,-0.131835 0.18457,0 0.30762,0.123046 0.12305,0.114258 0.12305,0.290039 0,0.166993 -0.12305,0.298829 -0.11426,0.123046 -0.29004,0.123046 -0.16699,0 -0.29883,-0.123046 -0.12304,-0.131836 -0.12304,-0.298829 0,-0.158203 0.12304,-0.28125 z M 482.25,91.126953 q 0.14062,-0.123047 0.29883,-0.123047 0.17578,0 0.29004,0.123047 0.12304,0.123047 0.12304,0.298828 0,0.166992 -0.12304,0.298828 -0.11426,0.123047 -0.29004,0.123047 -0.16699,0 -0.29004,-0.131836 -0.12305,-0.131836 -0.12305,-0.290039 0,-0.166992 0.11426,-0.298828 z m -4.0166,6.029297 q 0.0527,-0.123047 0.16699,-0.193359 0.12305,-0.07031 0.22852,-0.07031 0.17578,0 0.29004,0.131836 0.12304,0.131836 0.12304,0.290039 0,0.175781 -0.13183,0.298828 -0.13184,0.114258 -0.29004,0.114258 -0.167,0 -0.29883,-0.131836 -0.12305,-0.131836 -0.12305,-0.28125 0,-0.05273 0.0352,-0.158203 z m 2.75976,-6.670898 q 0.11426,-0.263672 0.38672,-0.263672 0.17578,0 0.29883,0.131836 0.12305,0.131836 0.12305,0.298828 0,0.175781 -0.13184,0.298828 -0.13183,0.114258 -0.29004,0.114258 -0.17578,0 -0.29883,-0.131836 -0.11425,-0.140625 -0.11425,-0.298828 0,-0.07031 0.0264,-0.149414 z m -1.40625,7.101562 q 0,-0.175781 0.12305,-0.298828 0.12305,-0.123047 0.29004,-0.123047 0.17578,0 0.29883,0.123047 0.12304,0.123047 0.12304,0.298828 0,0.166992 -0.12304,0.290039 Q 480.17578,98 480,98 q -0.16699,0 -0.29004,-0.123047 -0.12305,-0.123047 -0.12305,-0.290039 z m 0,-7.21582 q 0,-0.175782 0.12305,-0.298828 0.12305,-0.123047 0.29004,-0.123047 0.17578,0 0.29883,0.123047 0.12304,0.123046 0.12304,0.298828 0,0.166992 -0.12304,0.290039 -0.12305,0.123047 -0.29883,0.123047 -0.16699,0 -0.29004,-0.123047 -0.12305,-0.123047 -0.12305,-0.290039 z m 3.26954,-4.324219 q -0.52735,1.415039 -1.28321,1.986328 -0.76465,0.5625 -1.55566,0.5625 -0.86133,0 -1.59961,-0.5625 -0.74707,-0.571289 -1.27442,-1.986328 0.10547,-0.158203 0.21973,-0.246094 0.10547,-0.08789 0.24609,-0.149414 0.43946,1.001953 1.11622,1.397461 0.66796,0.386719 1.25683,0.386719 0.62403,0 1.30957,-0.386719 0.67676,-0.395508 1.09863,-1.397461 0.28125,0.123047 0.46583,0.395508 z"
   id="t3"
   style="font-size:18px;line-height:0%;font-family:'Gentium Plus Compact';text-align:center;text-anchor:middle;fill:#111111"
   class="dead"
   aria-label="◌̆" />&#10;&#10;</svg>
