<?xml version="1.0" encoding="UTF-8" standalone="no"?>
<svg
   version="1.1"
   id="Ebene_1"
   height="183"
   width="535"
   viewBox="0 0 535 183"
   enable-background="new 0 0 535 183"
   xml:space="preserve"
   inkscape:version="0.48.5 r10040"
   sodipodi:docname="noted-5-tkl.svg"
   inkscape:export-xdpi="90"
   inkscape:export-ydpi="90"
   xmlns:inkscape="http://www.inkscape.org/namespaces/inkscape"
   xmlns:sodipodi="http://sodipodi.sourceforge.net/DTD/sodipodi-0.dtd"
   xmlns:xlink="http://www.w3.org/1999/xlink"
   xmlns="http://www.w3.org/2000/svg"
   xmlns:svg="http://www.w3.org/2000/svg"
   xmlns:rdf="http://www.w3.org/1999/02/22-rdf-syntax-ns#"
   xmlns:cc="http://creativecommons.org/ns#"
   xmlns:dc="http://purl.org/dc/elements/1.1/">

  <metadata
   id="metadata135">
    <rdf:RDF>
      <cc:Work
   rdf:about="">
        <dc:format>image/svg+xml</dc:format>
        <dc:type
   rdf:resource="http://purl.org/dc/dcmitype/StillImage" />
        <dc:title />
      </cc:Work>
    </rdf:RDF>
  </metadata>

<defs
   id="defs">
<style
   type="text/css"
   id="style46661">
text.mod, text.key, text.dead {
	fill:#111;
	fill-opacity:1;
    stroke:none;
    font-style:normal;
    font-variant:normal;
    font-weight:normal;
    font-stretch:normal;
    display:inline;
    font-family:DejaVu Sans;
    writing-mode:lr-tb;
}

text.key {
    font-family:Linux Libertine;
}

text.dead {
    font-family: Gentium Plus Compact; 
}

text.mod {
    text-align:start;
    text-anchor:start;
}

text.space, text.dead, text.center, text.key {
    text-align:center;
    text-anchor:middle;
}

text.key { font-size:20px; }
text.dead { font-size:20px; }
text.mod { font-size:10px; }
text.big { font-size:14px; }

.key {
stroke-width:1.25;
}

.grey { fill:#949494; stroke:#696969; }
.grey { fill:#9f9f9f; stroke:#747474; }

.numpad { fill:#afaa9f; stroke:#747474; }

/* bootstrap colors */
.l5, .r5 { fill:#93CCEA; }
.l4, .r4 { fill:#7abeb3; }
.l3, .r3 { fill:#63b280; }
.l2, .r2 { fill:#4aa44a; }

/* btn bg hover, unused */
.l2, .r2 { stroke:#3071a9; }
.l3, .r3 { stroke:#449d44; }
.l4, .r4 { stroke:#c9302c; }
.l5, .r5 { stroke:#ec971f; }

/* btn border hover */
.l2, .r2 { stroke:#204d74; }
.l3, .r3 { stroke:#204d74; }
.l4, .r4 { stroke:#204d74; }
.l5, .r5 { stroke:#204d74; }

text.nubkey { fill:#eee; }

.pressed {
	<!--opacity:0.5;-->
	fill:#777;
}
    </style>

    <g
   id="basekey">
        <rect
   width="32"
   height="32"
   rx="4"
   class="key"
   id="rect4" />
	<!--rect width="20" height="20" x="6" y="6" /-->
        <!--rect width="2" height="2" fill="#000" x="15" y="15" /-->
    </g>

    </defs>
<sodipodi:namedview
   pagecolor="#ffffff"
   bordercolor="#666666"
   borderopacity="1"
   objecttolerance="10"
   gridtolerance="10"
   guidetolerance="10"
   inkscape:pageopacity="0"
   inkscape:pageshadow="2"
   inkscape:window-width="1614"
   inkscape:window-height="969"
   id="base"
   showgrid="false"
   inkscape:zoom="0.70961538"
   inkscape:cx="685.32105"
   inkscape:cy="241.15395"
   inkscape:window-x="78"
   inkscape:window-y="71"
   inkscape:window-maximized="0"
   inkscape:current-layer="Ebene_1"
   inkscape:showpageshadow="2"
   inkscape:pagecheckerboard="0"
   inkscape:deskcolor="#d1d1d1" />

<g
   transform="translate(3.5,3.5)"
   id="g148">
<use
   xlink:href="#basekey"
   y="0"
   x="0"
   class="l5"
   id="use9" />
<use
   xlink:href="#basekey"
   y="0"
   x="36"
   class="l5"
   id="use11" />
<use
   xlink:href="#basekey"
   y="0"
   x="72"
   class="l5"
   id="use13" />
<use
   xlink:href="#basekey"
   y="0"
   x="108"
   class="l4"
   id="use15" />
<use
   xlink:href="#basekey"
   y="0"
   x="144"
   class="l3"
   id="use17" />
<use
   xlink:href="#basekey"
   y="0"
   x="180"
   class="l2"
   id="use19" />
<use
   xlink:href="#basekey"
   y="0"
   x="216"
   class="l2"
   id="use21" />

<use
   xlink:href="#basekey"
   y="0"
   x="252"
   class="r2"
   id="use23" />
<use
   xlink:href="#basekey"
   y="0"
   x="288"
   class="r2"
   id="use25" />
<use
   xlink:href="#basekey"
   y="0"
   x="324"
   class="r3"
   id="use27" />
<use
   xlink:href="#basekey"
   y="0"
   x="360"
   class="r4"
   id="use29" />
<use
   xlink:href="#basekey"
   y="0"
   x="396"
   class="r5"
   id="use31" />
<use
   xlink:href="#basekey"
   y="0"
   x="432"
   class="r5"
   id="use33" />


<use
   xlink:href="#basekey"
   y="36"
   x="54"
   class="l5"
   id="use35" />
<use
   xlink:href="#basekey"
   y="36"
   x="90"
   class="l4"
   id="use37" />
<use
   xlink:href="#basekey"
   y="36"
   x="126"
   class="l3"
   id="use39" />
<use
   xlink:href="#basekey"
   y="36"
   x="162"
   class="l2"
   id="use41" />
<use
   xlink:href="#basekey"
   y="36"
   x="198"
   class="l2"
   id="use43" />

<use
   xlink:href="#basekey"
   y="36"
   x="234"
   class="r2"
   id="use45" />
<use
   xlink:href="#basekey"
   y="36"
   x="270"
   class="r2"
   id="use47" />
<use
   xlink:href="#basekey"
   y="36"
   x="306"
   class="r3"
   id="use49" />
<use
   xlink:href="#basekey"
   y="36"
   x="342"
   class="r4"
   id="use51" />
<use
   xlink:href="#basekey"
   y="36"
   x="378"
   class="r5"
   id="use53" />
<use
   xlink:href="#basekey"
   y="36"
   x="414"
   class="r5"
   id="use55" />
<use
   xlink:href="#basekey"
   y="36"
   x="450"
   class="r5"
   id="use57" />


<use
   xlink:href="#basekey"
   y="72"
   x="64"
   class="l5"
   id="use59" />
<use
   xlink:href="#basekey"
   y="72"
   x="100"
   class="l4"
   id="use61" />
<use
   xlink:href="#basekey"
   y="72"
   x="136"
   class="l3"
   id="use63" />
<use
   xlink:href="#basekey"
   y="72"
   x="172"
   class="l2"
   id="use65" />
<use
   xlink:href="#basekey"
   y="72"
   x="208"
   class="l2"
   id="use67" />

<use
   xlink:href="#basekey"
   y="72"
   x="244"
   class="r2"
   id="use69" />
<use
   xlink:href="#basekey"
   y="72"
   x="280"
   class="r2"
   id="use71" />
<use
   xlink:href="#basekey"
   y="72"
   x="316"
   class="r3"
   id="use73" />
<use
   xlink:href="#basekey"
   y="72"
   x="352"
   class="r4"
   id="use75" />
<use
   xlink:href="#basekey"
   y="72"
   x="388"
   class="r5"
   id="use77" />

    <use
   xlink:href="#basekey"
   y="72"
   x="460"
   class="r5"
   id="use79" />



<use
   xlink:href="#basekey"
   y="108"
   x="82"
   class="l5"
   id="use81" />
<use
   xlink:href="#basekey"
   y="108"
   x="118"
   class="l4"
   id="use83" />
<use
   xlink:href="#basekey"
   y="108"
   x="154"
   class="l3"
   id="use85" />
<use
   xlink:href="#basekey"
   y="108"
   x="190"
   class="l2"
   id="use87" />
<use
   xlink:href="#basekey"
   y="108"
   x="226"
   class="l2"
   id="use89" />

<use
   xlink:href="#basekey"
   y="108"
   x="262"
   class="r2"
   id="use91" />
<use
   xlink:href="#basekey"
   y="108"
   x="298"
   class="r2"
   id="use93" />
<use
   xlink:href="#basekey"
   y="108"
   x="334"
   class="r3"
   id="use95" />
<use
   xlink:href="#basekey"
   y="108"
   x="370"
   class="r4"
   id="use97" />
<use
   xlink:href="#basekey"
   y="108"
   x="406"
   class="r5"
   id="use99" />


<path
   id="backspace"
   class="key grey"
   style="fill:#9f9f9f;stroke:#747474;stroke-width:1.25"
   d="m 472,0 h 52 c 2.216,0 4,1.784 4,4 v 24 c 0,2.216 -1.784,4 -4,4 h -52 c -2.216,0 -4,-1.784 -4,-4 V 4 c 0,-2.216 1.784,-4 4,-4 z" />

<path
   id="tab"
   class="key grey"
   style="fill:#9f9f9f;stroke:#747474;stroke-width:1.25"
   d="m 4,36 h 42 c 2.216,0 4,1.784 4,4 v 24 c 0,2.216 -1.784,4 -4,4 H 4 C 1.784,68 0,66.216 0,64 V 40 c 0,-2.216 1.784,-4 4,-4 z" />

<path
   id="m3l"
   class="key grey pressed"
   style="fill:#777777;stroke:#747474;stroke-width:1.25"
   d="m 4,72 h 52 c 2.216,0 4,1.784 4,4 v 24 c 0,2.216 -1.784,4 -4,4 H 4 c -2.216,0 -4,-1.784 -4,-4 V 76 c 0,-2.216 1.784,-4 4,-4 z" />

<use
   id="m3r"
   xlink:href="#basekey"
   x="424"
   y="72"
   class="key grey pressed" />


<path
   id="shiftl"
   class="key grey pressed"
   style="fill:#777777;stroke:#747474;stroke-width:1.25"
   d="m 4,108 h 32 c 2.216,0 4,1.784 4,4 v 24 c 0,2.216 -1.784,4 -4,4 H 4 c -2.216,0 -4,-1.784 -4,-4 v -24 c 0,-2.216 1.784,-4 4,-4 z" />
<path
   id="m4l"
   class="key grey"
   style="fill:#9f9f9f;stroke:#747474;stroke-width:1.25"
   d="m 48,108 h 26 c 2.216,0 4,1.784 4,4 v 24 c 0,2.216 -1.784,4 -4,4 H 48 c -2.216,0 -4,-1.784 -4,-4 v -24 c 0,-2.216 1.784,-4 4,-4 z" />
<path
   id="shiftr"
   class="key grey pressed"
   style="fill:#777777;stroke:#747474;stroke-width:1.25"
   d="m 446,108 h 78 c 2.216,0 4,1.784 4,4 v 24 c 0,2.216 -1.784,4 -4,4 h -78 c -2.216,0 -4,-1.784 -4,-4 v -24 c 0,-2.216 1.784,-4 4,-4 z" />

<path
   id="ctrll"
   class="key grey"
   style="fill:#9f9f9f;stroke:#747474;stroke-width:1.25"
   d="m 4,144 h 42 c 2.216,0 4,1.784 4,4 v 24 c 0,2.216 -1.784,4 -4,4 H 4 c -2.216,0 -4,-1.784 -4,-4 v -24 c 0,-2.216 1.784,-4 4,-4 z" />
<path
   id="altl"
   class="key grey"
   style="fill:#9f9f9f;stroke:#747474;stroke-width:1.25"
   d="m 128,144 h 40 c 2.216,0 4,1.784 4,4 v 24 c 0,2.216 -1.784,4 -4,4 h -40 c -2.216,0 -4,-1.784 -4,-4 v -24 c 0,-2.216 1.784,-4 4,-4 z" />
<path
   id="space"
   class="key grey"
   style="fill:#9f9f9f;stroke:#747474;stroke-width:1.25"
   d="m 180,144 h 160 c 2.216,0 4,1.784 4,4 v 24 c 0,2.216 -1.784,4 -4,4 H 180 c -2.216,0 -4,-1.784 -4,-4 v -24 c 0,-2.216 1.784,-4 4,-4 z" />
<path
   id="m4r"
   class="key grey"
   style="fill:#9f9f9f;stroke:#747474;stroke-width:1.25"
   d="m 352,144 h 40 c 2.216,0 4,1.784 4,4 v 24 c 0,2.216 -1.784,4 -4,4 h -40 c -2.216,0 -4,-1.784 -4,-4 v -24 c 0,-2.216 1.784,-4 4,-4 z" />
<path
   id="ctrlr"
   class="key grey"
   style="fill:#9f9f9f;stroke:#747474;stroke-width:1.25"
   d="m 482,144 h 42 c 2.216,0 4,1.784 4,4 v 24 c 0,2.216 -1.784,4 -4,4 h -42 c -2.216,0 -4,-1.784 -4,-4 v -24 c 0,-2.216 1.784,-4 4,-4 z" />

<use
   xlink:href="#basekey"
   y="0"
   x="542"
   class="key numpad"
   id="use113" />
<use
   xlink:href="#basekey"
   y="0"
   x="578"
   class="key numpad"
   id="use115" />
<use
   xlink:href="#basekey"
   y="0"
   x="614"
   class="key numpad"
   id="use117" />
<use
   xlink:href="#basekey"
   y="0"
   x="650"
   class="key numpad"
   id="use119" />

<use
   xlink:href="#basekey"
   y="36"
   x="542"
   class="key numpad"
   id="use121" />
<use
   xlink:href="#basekey"
   y="36"
   x="578"
   class="key numpad"
   id="use123" />
<use
   xlink:href="#basekey"
   y="36"
   x="614"
   class="key numpad"
   id="use125" />
<path
   id="kpplus"
   class="key numpad"
   style="fill:#afaa9f;stroke:#747474;stroke-width:1.25"
   d="m 654,36 h 24 c 2.216,0 4,1.784 4,4 v 60 c 0,2.216 -1.784,4 -4,4 h -24 c -2.216,0 -4,-1.784 -4,-4 V 40 c 0,-2.216 1.784,-4 4,-4 z" />

<use
   xlink:href="#basekey"
   y="72"
   x="542"
   class="key numpad"
   id="use128" />
<use
   xlink:href="#basekey"
   y="72"
   x="578"
   class="key numpad"
   id="use130" />
<use
   xlink:href="#basekey"
   y="72"
   x="614"
   class="key numpad"
   id="use132" />

<use
   xlink:href="#basekey"
   y="108"
   x="542"
   class="key numpad"
   id="use134" />
<use
   xlink:href="#basekey"
   y="108"
   x="578"
   class="key numpad"
   id="use136" />
<use
   xlink:href="#basekey"
   y="108"
   x="614"
   class="key numpad"
   id="use138" />
<path
   id="kppenter"
   class="key numpad"
   style="fill:#afaa9f;stroke:#747474;stroke-width:1.25"
   d="m 654,108 h 24 c 2.216,0 4,1.784 4,4 v 60 c 0,2.216 -1.784,4 -4,4 h -24 c -2.216,0 -4,-1.784 -4,-4 v -60 c 0,-2.216 1.784,-4 4,-4 z" />

<path
   id="kp0"
   class="key numpad"
   style="fill:#afaa9f;stroke:#747474;stroke-width:1.25"
   d="m 546,144 h 60 c 2.216,0 4,1.784 4,4 v 24 c 0,2.216 -1.784,4 -4,4 h -60 c -2.216,0 -4,-1.784 -4,-4 v -24 c 0,-2.216 1.784,-4 4,-4 z" />
<use
   xlink:href="#basekey"
   y="144"
   x="614"
   class="key numpad"
   id="use142" />

<path
   fill-rule="evenodd"
   clip-rule="evenodd"
   d="M 10,32 H 4 A 4,4 0 0 1 0,28 V 4 A 4,4 0 0 1 4,0 h 34 a 4,4 0 0 1 4,4 v 60 a 4,4 0 0 1 -4,4 H 14 a 4,4 0 0 1 -4,-4 z"
   transform="translate(486,36)"
   id="return"
   class="key grey" />

<path
   id="nub"
   style="fill:#eeeeee"
   d="m 182,101 h 12 c 0.554,0 1,0.223 1,0.5 0,0.277 -0.446,0.5 -1,0.5 h -12 c -0.554,0 -1,-0.223 -1,-0.5 0,-0.277 0.446,-0.5 1,-0.5 z" />
<use
   y="0"
   x="108"
   xlink:href="#nub"
   id="use146" />
</g>

<g
   transform="translate(-0.5,-0.5)"
   id="g163">
<g
   aria-label="Mod3"
   id="m3ltxt"
   style="font-size:10px;line-height:0%;font-family:'DejaVu Sans';display:inline;fill:#111111"
   class="mod"><path
     d="m 10.981445,88.709961 h 1.469727 l 1.860351,4.960937 1.870118,-4.960937 h 1.469726 V 96 h -0.961914 v -6.401367 l -1.879883,5 h -0.991211 l -1.879882,-5 V 96 h -0.957032 z"
     id="path328" /><path
     d="m 21.689453,91.161133 q -0.722656,0 -1.142578,0.566406 -0.419922,0.561523 -0.419922,1.542969 0,0.981445 0.415039,1.547851 0.419922,0.561524 1.147461,0.561524 0.717774,0 1.137695,-0.566406 0.419922,-0.566407 0.419922,-1.542969 0,-0.97168 -0.419922,-1.538086 -0.419921,-0.571289 -1.137695,-0.571289 z m 0,-0.761719 q 1.171875,0 1.84082,0.761719 0.668946,0.761719 0.668946,2.109375 0,1.342773 -0.668946,2.109375 -0.668945,0.761719 -1.84082,0.761719 -1.176758,0 -1.845703,-0.761719 -0.664063,-0.766602 -0.664063,-2.109375 0,-1.347656 0.664063,-2.109375 0.668945,-0.761719 1.845703,-0.761719 z"
     id="path330" /><path
     d="m 29.287109,91.361328 v -2.958984 h 0.898438 V 96 h -0.898438 v -0.820313 q -0.283203,0.488282 -0.717773,0.72754 -0.429688,0.234375 -1.035156,0.234375 -0.991211,0 -1.616211,-0.791016 -0.620117,-0.791016 -0.620117,-2.080078 0,-1.289063 0.620117,-2.080078 0.625,-0.791016 1.616211,-0.791016 0.605468,0 1.035156,0.239258 0.43457,0.234375 0.717773,0.722656 z m -3.061523,1.90918 q 0,0.991211 0.405273,1.557617 0.410157,0.561523 1.123047,0.561523 0.712891,0 1.123047,-0.561523 0.410156,-0.566406 0.410156,-1.557617 0,-0.991211 -0.410156,-1.552735 -0.410156,-0.566406 -1.123047,-0.566406 -0.71289,0 -1.123047,0.566406 -0.405273,0.561524 -0.405273,1.552735 z"
     id="path332" /><path
     d="m 35.151367,92.069336 q 0.708008,0.151367 1.103516,0.629883 0.40039,0.478515 0.40039,1.18164 0,1.079102 -0.742187,1.669922 -0.742188,0.590821 -2.109375,0.590821 -0.458984,0 -0.947266,-0.09277 -0.483398,-0.08789 -1.000976,-0.268555 v -0.952148 q 0.410156,0.239258 0.898437,0.361328 0.488281,0.12207 1.020508,0.12207 0.927734,0 1.411133,-0.366211 0.488281,-0.36621 0.488281,-1.064453 0,-0.644531 -0.454101,-1.005859 -0.449219,-0.366211 -1.254883,-0.366211 h -0.84961 v -0.810547 h 0.888672 q 0.727539,0 1.113281,-0.288086 0.385743,-0.292969 0.385743,-0.839844 0,-0.561523 -0.400391,-0.859375 -0.395508,-0.302734 -1.137695,-0.302734 -0.405274,0 -0.869141,0.08789 -0.463867,0.08789 -1.020508,0.273437 v -0.878906 q 0.561524,-0.15625 1.049805,-0.234375 0.493164,-0.07813 0.927734,-0.07813 1.123047,0 1.777344,0.512695 0.654297,0.507813 0.654297,1.376953 0,0.605469 -0.34668,1.025391 -0.346679,0.415039 -0.986328,0.576172 z"
     id="path334" /></g>
<g
   aria-label="⇧"
   id="shiftltxt"
   style="font-size:14px;line-height:0%;font-family:'DejaVu Sans';display:inline;fill:#111111"
   class="mod big"><path
     d="m 17.683594,125.23438 -1.81836,-1.81836 -1.818359,1.81836 h 0.895508 v 7.08203 h 1.845703 v -7.08203 z m -5.291016,0.68359 3.472656,-3.47266 3.472657,3.47266 H 17.47168 V 133 h -3.212891 v -7.08203 z"
     id="path337" /></g>
<g
   aria-label="Strg"
   id="ctrlltxt"
   style="font-size:10px;line-height:0%;font-family:'DejaVu Sans';display:inline;fill:#111111"
   class="mod"><path
     d="m 15.351563,160.94922 v 0.96191 q -0.561524,-0.26855 -1.059571,-0.40039 -0.498047,-0.13183 -0.961914,-0.13183 -0.805664,0 -1.245117,0.3125 -0.43457,0.3125 -0.43457,0.88867 0,0.4834 0.288086,0.73242 0.292968,0.24414 1.103515,0.39551 l 0.595703,0.12207 q 1.103516,0.20996 1.625977,0.74219 0.527344,0.52734 0.527344,1.41601 0,1.05957 -0.712891,1.60645 -0.708008,0.54687 -2.080078,0.54687 -0.517578,0 -1.103516,-0.11719 -0.581054,-0.11718 -1.206054,-0.34668 v -1.01562 q 0.600586,0.33691 1.176757,0.50781 0.576172,0.1709 1.132813,0.1709 0.844726,0 1.303711,-0.33203 0.458984,-0.33203 0.458984,-0.94727 0,-0.53711 -0.332031,-0.83984 -0.327148,-0.30273 -1.079102,-0.4541 l -0.600586,-0.11719 q -1.103515,-0.21973 -1.596679,-0.68848 -0.493164,-0.46875 -0.493164,-1.30371 0,-0.96679 0.678711,-1.52343 0.683593,-0.55665 1.879882,-0.55665 0.512696,0 1.044922,0.0928 0.532227,0.0928 1.088868,0.27832 z"
     id="path340" /><path
     d="m 18.178711,160.97852 v 1.55273 h 1.850586 v 0.69824 h -1.850586 v 2.96875 q 0,0.66895 0.180664,0.85938 0.185547,0.19043 0.74707,0.19043 h 0.922852 V 168 h -0.922852 q -1.040039,0 -1.435547,-0.38574 -0.395507,-0.39063 -0.395507,-1.41602 v -2.96875 h -0.65918 v -0.69824 h 0.65918 v -1.55273 z"
     id="path342" /><path
     d="m 24.379883,163.37109 q -0.151367,-0.0879 -0.332031,-0.12695 -0.175782,-0.0439 -0.390625,-0.0439 -0.761719,0 -1.171875,0.49804 -0.405274,0.49317 -0.405274,1.4209 V 168 h -0.90332 v -5.46875 h 0.90332 v 0.84961 q 0.283203,-0.49805 0.737305,-0.73731 0.454101,-0.24414 1.103515,-0.24414 0.09277,0 0.205079,0.0147 0.112304,0.01 0.249023,0.0342 z"
     id="path344" /><path
     d="m 28.745117,165.20215 q 0,-0.97656 -0.405273,-1.51367 -0.400391,-0.53711 -1.12793,-0.53711 -0.722656,0 -1.12793,0.53711 -0.40039,0.53711 -0.40039,1.51367 0,0.97168 0.40039,1.50879 0.405274,0.53711 1.12793,0.53711 0.727539,0 1.12793,-0.53711 0.405273,-0.53711 0.405273,-1.50879 z m 0.898438,2.11914 q 0,1.39648 -0.620118,2.07519 -0.620117,0.6836 -1.899414,0.6836 -0.473632,0 -0.893554,-0.0732 -0.419922,-0.0684 -0.81543,-0.21485 v -0.87402 q 0.395508,0.21484 0.78125,0.31738 0.385742,0.10254 0.786133,0.10254 0.883789,0 1.323242,-0.46387 0.439453,-0.45898 0.439453,-1.3916 v -0.44433 q -0.27832,0.48339 -0.71289,0.72265 Q 27.597656,168 26.992187,168 q -1.005859,0 -1.621093,-0.7666 -0.615235,-0.7666 -0.615235,-2.03125 0,-1.26953 0.615235,-2.03613 0.615234,-0.76661 1.621093,-0.76661 0.605469,0 1.04004,0.23926 0.43457,0.23926 0.71289,0.72266 v -0.83008 h 0.898438 z"
     id="path346" /></g>

<g
   aria-label="M4"
   id="m4ltxt"
   style="font-size:10px;line-height:0%;font-family:'DejaVu Sans';display:inline;fill:#111111"
   class="mod"><path
     d="m 56.981445,124.70996 h 1.469727 l 1.860351,4.96094 1.870118,-4.96094 h 1.469726 V 132 h -0.961914 v -6.40137 l -1.879883,5 h -0.991211 l -1.879882,-5 V 132 h -0.957032 z"
     id="path349" /><path
     d="m 68.407227,125.56934 -2.490235,3.8916 h 2.490235 z m -0.25879,-0.85938 h 1.240235 v 4.75098 h 1.040039 v 0.82031 H 69.388672 V 132 h -0.981445 v -1.71875 h -3.291016 v -0.95215 z"
     id="path351" /></g>
<g
   aria-label="Alt"
   id="altltxt"
   style="font-size:10px;line-height:0%;font-family:'DejaVu Sans';display:inline;fill:#111111"
   class="mod"><path
     d="m 138.41797,161.68164 -1.33789,3.62793 h 2.68066 z m -0.55664,-0.97168 h 1.11816 L 141.75781,168 h -1.02539 l -0.66406,-1.87012 h -3.28613 L 136.11816,168 h -1.04004 z"
     id="path354" /><path
     d="m 142.7832,160.40234 h 0.89844 V 168 h -0.89844 z"
     id="path356" /><path
     d="m 146.4502,160.97852 v 1.55273 h 1.85058 v 0.69824 h -1.85058 v 2.96875 q 0,0.66895 0.18066,0.85938 0.18555,0.19043 0.74707,0.19043 h 0.92285 V 168 h -0.92285 q -1.04004,0 -1.43555,-0.38574 -0.39551,-0.39063 -0.39551,-1.41602 v -2.96875 h -0.65917 v -0.69824 h 0.65917 v -1.55273 z"
     id="path358" /></g>


<g
   aria-label="M3"
   id="m3rtxt"
   style="font-size:10px;line-height:0%;font-family:'DejaVu Sans';display:inline;fill:#111111"
   class="mod"><path
     d="m 436.98145,88.709961 h 1.46972 l 1.86035,4.960937 1.87012,-4.960937 h 1.46973 V 96 h -0.96192 v -6.401367 l -1.87988,5 h -0.99121 l -1.87988,-5 V 96 h -0.95703 z"
     id="path361" /><path
     d="m 448.68555,92.069336 q 0.708,0.151367 1.10351,0.629883 0.40039,0.478515 0.40039,1.18164 0,1.079102 -0.74218,1.669922 -0.74219,0.590821 -2.10938,0.590821 -0.45898,0 -0.94727,-0.09277 -0.48339,-0.08789 -1.00097,-0.268555 v -0.952148 q 0.41015,0.239258 0.89844,0.361328 0.48828,0.12207 1.0205,0.12207 0.92774,0 1.41114,-0.366211 0.48828,-0.36621 0.48828,-1.064453 0,-0.644531 -0.4541,-1.005859 -0.44922,-0.366211 -1.25489,-0.366211 h -0.84961 v -0.810547 h 0.88868 q 0.72753,0 1.11328,-0.288086 0.38574,-0.292969 0.38574,-0.839844 0,-0.561523 -0.40039,-0.859375 -0.39551,-0.302734 -1.1377,-0.302734 -0.40527,0 -0.86914,0.08789 -0.46386,0.08789 -1.02051,0.273437 v -0.878906 q 0.56153,-0.15625 1.04981,-0.234375 0.49316,-0.07813 0.92773,-0.07813 1.12305,0 1.77735,0.512695 0.65429,0.507813 0.65429,1.376953 0,0.605469 -0.34668,1.025391 -0.34667,0.415039 -0.98632,0.576172 z"
     id="path363" /></g>


<g
   aria-label="⇧"
   id="shiftrtxt"
   style="font-size:14px;line-height:0%;font-family:'DejaVu Sans';display:inline;fill:#111111"
   class="mod big"><path
     d="m 457.68359,125.23438 -1.81836,-1.81836 -1.81836,1.81836 h 0.89551 v 7.08203 h 1.84571 v -7.08203 z m -5.29101,0.68359 3.47265,-3.47266 3.47266,3.47266 h -1.86621 V 133 h -3.21289 v -7.08203 z"
     id="path366" /></g>
<g
   aria-label="Strg"
   id="ctrlrtxt"
   style="font-size:10px;line-height:0%;font-family:'DejaVu Sans';display:inline;fill:#111111"
   class="mod"><path
     d="m 495.35156,160.94922 v 0.96191 q -0.56152,-0.26855 -1.05957,-0.40039 -0.49804,-0.13183 -0.96191,-0.13183 -0.80567,0 -1.24512,0.3125 -0.43457,0.3125 -0.43457,0.88867 0,0.4834 0.28809,0.73242 0.29297,0.24414 1.10351,0.39551 l 0.59571,0.12207 q 1.10351,0.20996 1.62597,0.74219 0.52735,0.52734 0.52735,1.41601 0,1.05957 -0.7129,1.60645 -0.708,0.54687 -2.08007,0.54687 -0.51758,0 -1.10352,-0.11719 -0.58105,-0.11718 -1.20605,-0.34668 v -1.01562 q 0.60058,0.33691 1.17675,0.50781 0.57618,0.1709 1.13282,0.1709 0.84472,0 1.30371,-0.33203 0.45898,-0.33203 0.45898,-0.94727 0,-0.53711 -0.33203,-0.83984 -0.32715,-0.30273 -1.0791,-0.4541 l -0.60059,-0.11719 q -1.10351,-0.21973 -1.59668,-0.68848 -0.49316,-0.46875 -0.49316,-1.30371 0,-0.96679 0.67871,-1.52343 0.68359,-0.55665 1.87988,-0.55665 0.5127,0 1.04493,0.0928 0.53222,0.0928 1.08886,0.27832 z"
     id="path369" /><path
     d="m 498.17871,160.97852 v 1.55273 h 1.85059 v 0.69824 h -1.85059 v 2.96875 q 0,0.66895 0.18066,0.85938 0.18555,0.19043 0.74708,0.19043 h 0.92285 V 168 h -0.92285 q -1.04004,0 -1.43555,-0.38574 -0.39551,-0.39063 -0.39551,-1.41602 v -2.96875 h -0.65918 v -0.69824 h 0.65918 v -1.55273 z"
     id="path371" /><path
     d="m 504.37988,163.37109 q -0.15136,-0.0879 -0.33203,-0.12695 -0.17578,-0.0439 -0.39062,-0.0439 -0.76172,0 -1.17188,0.49804 -0.40527,0.49317 -0.40527,1.4209 V 168 h -0.90332 v -5.46875 h 0.90332 v 0.84961 q 0.2832,-0.49805 0.7373,-0.73731 0.4541,-0.24414 1.10352,-0.24414 0.0928,0 0.20508,0.0147 0.1123,0.01 0.24902,0.0342 z"
     id="path373" /><path
     d="m 508.74512,165.20215 q 0,-0.97656 -0.40528,-1.51367 -0.40039,-0.53711 -1.12793,-0.53711 -0.72265,0 -1.12793,0.53711 -0.40039,0.53711 -0.40039,1.51367 0,0.97168 0.40039,1.50879 0.40528,0.53711 1.12793,0.53711 0.72754,0 1.12793,-0.53711 0.40528,-0.53711 0.40528,-1.50879 z m 0.89843,2.11914 q 0,1.39648 -0.62011,2.07519 -0.62012,0.6836 -1.89942,0.6836 -0.47363,0 -0.89355,-0.0732 -0.41992,-0.0684 -0.81543,-0.21485 v -0.87402 q 0.39551,0.21484 0.78125,0.31738 0.38574,0.10254 0.78613,0.10254 0.88379,0 1.32324,-0.46387 0.43946,-0.45898 0.43946,-1.3916 v -0.44433 q -0.27832,0.48339 -0.71289,0.72265 Q 507.59766,168 506.99219,168 q -1.00586,0 -1.6211,-0.7666 -0.61523,-0.7666 -0.61523,-2.03125 0,-1.26953 0.61523,-2.03613 0.61524,-0.76661 1.6211,-0.76661 0.60547,0 1.04004,0.23926 0.43457,0.23926 0.71289,0.72266 v -0.83008 h 0.89843 z"
     id="path375" /></g>
<g
   aria-label="Mod4"
   id="m4rtxt"
   style="font-size:10px;line-height:0%;font-family:'DejaVu Sans';display:inline;fill:#111111"
   class="mod"><path
     d="m 357.98145,160.70996 h 1.46972 l 1.86035,4.96094 1.87012,-4.96094 h 1.46973 V 168 h -0.96192 v -6.40137 l -1.87988,5 h -0.99121 l -1.87988,-5 V 168 h -0.95703 z"
     id="path378" /><path
     d="m 368.68945,163.16113 q -0.72265,0 -1.14258,0.56641 -0.41992,0.56152 -0.41992,1.54297 0,0.98144 0.41504,1.54785 0.41992,0.56152 1.14746,0.56152 0.71778,0 1.1377,-0.5664 0.41992,-0.56641 0.41992,-1.54297 0,-0.97168 -0.41992,-1.53809 -0.41992,-0.57129 -1.1377,-0.57129 z m 0,-0.76172 q 1.17188,0 1.84082,0.76172 0.66895,0.76172 0.66895,2.10938 0,1.34277 -0.66895,2.10937 -0.66894,0.76172 -1.84082,0.76172 -1.17675,0 -1.8457,-0.76172 -0.66406,-0.7666 -0.66406,-2.10937 0,-1.34766 0.66406,-2.10938 0.66895,-0.76172 1.8457,-0.76172 z"
     id="path380" /><path
     d="m 376.28711,163.36133 v -2.95899 h 0.89844 V 168 h -0.89844 v -0.82031 q -0.2832,0.48828 -0.71777,0.72754 -0.42969,0.23437 -1.03516,0.23437 -0.99121,0 -1.61621,-0.79101 -0.62012,-0.79102 -0.62012,-2.08008 0,-1.28906 0.62012,-2.08008 0.625,-0.79102 1.61621,-0.79102 0.60547,0 1.03516,0.23926 0.43457,0.23438 0.71777,0.72266 z m -3.06152,1.90918 q 0,0.99121 0.40527,1.55761 0.41016,0.56153 1.12305,0.56153 0.71289,0 1.12304,-0.56153 0.41016,-0.5664 0.41016,-1.55761 0,-0.99121 -0.41016,-1.55274 -0.41015,-0.5664 -1.12304,-0.5664 -0.71289,0 -1.12305,0.5664 -0.40527,0.56153 -0.40527,1.55274 z"
     id="path382" /><path
     d="m 381.87305,161.56934 -2.49024,3.8916 h 2.49024 z m -0.25879,-0.85938 h 1.24023 v 4.75098 h 1.04004 v 0.82031 h -1.04004 V 168 h -0.98144 v -1.71875 h -3.29102 v -0.95215 z"
     id="path384" /></g>
<g
   aria-label="geschütztes Leerzeichen"
   id="text159"
   style="font-size:10px;line-height:0%;font-family:'DejaVu Sans';text-align:center;text-anchor:middle;display:inline;fill:#111111"
   class="mod space"><path
     d="m 205.62451,165.20215 q 0,-0.97656 -0.40527,-1.51367 -0.40039,-0.53711 -1.12793,-0.53711 -0.72266,0 -1.12793,0.53711 -0.40039,0.53711 -0.40039,1.51367 0,0.97168 0.40039,1.50879 0.40527,0.53711 1.12793,0.53711 0.72754,0 1.12793,-0.53711 0.40527,-0.53711 0.40527,-1.50879 z m 0.89844,2.11914 q 0,1.39648 -0.62012,2.07519 -0.62012,0.6836 -1.89941,0.6836 -0.47363,0 -0.89356,-0.0732 -0.41992,-0.0684 -0.81543,-0.21485 v -0.87402 q 0.39551,0.21484 0.78125,0.31738 0.38575,0.10254 0.78614,0.10254 0.88379,0 1.32324,-0.46387 0.43945,-0.45898 0.43945,-1.3916 v -0.44433 q -0.27832,0.48339 -0.71289,0.72265 Q 204.47705,168 203.87158,168 q -1.00586,0 -1.62109,-0.7666 -0.61524,-0.7666 -0.61524,-2.03125 0,-1.26953 0.61524,-2.03613 0.61523,-0.76661 1.62109,-0.76661 0.60547,0 1.04004,0.23926 0.43457,0.23926 0.71289,0.72266 v -0.83008 h 0.89844 z"
     id="path387" /><path
     d="m 213.05127,165.04102 v 0.43945 h -4.13086 q 0.0586,0.92773 0.55664,1.41601 0.50293,0.4834 1.39649,0.4834 0.51757,0 1.00097,-0.12695 0.48828,-0.12695 0.9668,-0.38086 v 0.84961 q -0.4834,0.20508 -0.99121,0.3125 -0.50781,0.10742 -1.03028,0.10742 -1.30859,0 -2.07519,-0.76172 -0.76172,-0.76172 -0.76172,-2.06054 0,-1.34278 0.72266,-2.12891 0.72754,-0.79102 1.958,-0.79102 1.10352,0 1.74317,0.71289 0.64453,0.70801 0.64453,1.92872 z m -0.89844,-0.26368 q -0.01,-0.7373 -0.41504,-1.17675 -0.40039,-0.43946 -1.06445,-0.43946 -0.75195,0 -1.20605,0.42481 -0.44922,0.4248 -0.51758,1.19629 z"
     id="path389" /><path
     d="m 218.01221,162.69238 v 0.84961 q -0.38086,-0.19531 -0.79102,-0.29297 -0.41015,-0.0977 -0.84961,-0.0977 -0.66894,0 -1.00586,0.20508 -0.33203,0.20507 -0.33203,0.61523 0,0.3125 0.23926,0.49316 0.23926,0.17578 0.96191,0.33692 l 0.30762,0.0684 q 0.95703,0.20508 1.35742,0.58105 0.40528,0.3711 0.40528,1.04004 0,0.76172 -0.60547,1.20606 -0.60059,0.44433 -1.65528,0.44433 -0.43945,0 -0.91797,-0.0879 -0.47363,-0.083 -1.00097,-0.25391 v -0.92773 q 0.49805,0.25879 0.98144,0.39063 0.4834,0.12695 0.95703,0.12695 0.63477,0 0.97657,-0.21485 0.34179,-0.21972 0.34179,-0.61523 0,-0.36621 -0.24902,-0.56152 -0.24414,-0.19532 -1.0791,-0.37598 l -0.3125,-0.0732 q -0.83496,-0.17578 -1.20606,-0.53711 -0.37109,-0.36621 -0.37109,-1.00098 0,-0.77148 0.54688,-1.1914 0.54687,-0.41993 1.55273,-0.41993 0.49805,0 0.9375,0.0733 0.43945,0.0732 0.81055,0.21972 z"
     id="path391" /><path
     d="m 223.67139,162.74121 v 0.83984 q -0.38086,-0.20996 -0.7666,-0.3125 -0.38086,-0.10742 -0.77149,-0.10742 -0.87402,0 -1.35742,0.55664 -0.4834,0.55176 -0.4834,1.55274 0,1.00097 0.4834,1.55761 0.4834,0.55176 1.35742,0.55176 0.39063,0 0.77149,-0.10254 0.38574,-0.10742 0.7666,-0.31738 v 0.83008 q -0.37598,0.17578 -0.78125,0.26367 -0.40039,0.0879 -0.8545,0.0879 -1.23535,0 -1.96289,-0.77637 -0.72754,-0.77636 -0.72754,-2.09472 0,-1.33789 0.73243,-2.10449 0.7373,-0.76661 2.0166,-0.76661 0.41504,0 0.81055,0.0879 0.3955,0.083 0.7666,0.25391 z"
     id="path393" /><path
     d="M 229.77979,164.69922 V 168 h -0.89844 v -3.27148 q 0,-0.77637 -0.30274,-1.16211 -0.30273,-0.38575 -0.9082,-0.38575 -0.72754,0 -1.14746,0.46387 -0.41992,0.46387 -0.41992,1.26465 V 168 h -0.90332 v -7.59766 h 0.90332 v 2.97852 q 0.32226,-0.49316 0.75683,-0.73731 0.43946,-0.24414 1.01075,-0.24414 0.94238,0 1.42578,0.58594 0.4834,0.58106 0.4834,1.71387 z"
     id="path395" /><path
     d="m 231.479,165.8418 v -3.31055 h 0.89844 v 3.27637 q 0,0.77636 0.30274,1.16699 0.30273,0.38574 0.9082,0.38574 0.72754,0 1.14746,-0.46387 0.4248,-0.46386 0.4248,-1.26464 v -3.10059 h 0.89844 V 168 h -0.89844 v -0.83984 q -0.32714,0.49804 -0.76171,0.74218 -0.42969,0.23926 -1.00098,0.23926 -0.94238,0 -1.43066,-0.58594 -0.48829,-0.58593 -0.48829,-1.71386 z m 2.26075,-3.44239 z m 0.44921,-1.97754 h 0.99122 v 0.98633 h -0.99122 z m -1.90917,0 h 0.99121 v 0.98633 h -0.99121 z"
     id="path397" /><path
     d="m 238.79834,160.97852 v 1.55273 h 1.85059 v 0.69824 h -1.85059 v 2.96875 q 0,0.66895 0.18066,0.85938 0.18555,0.19043 0.74707,0.19043 h 0.92286 V 168 h -0.92286 q -1.04003,0 -1.43554,-0.38574 -0.39551,-0.39063 -0.39551,-1.41602 v -2.96875 h -0.65918 v -0.69824 h 0.65918 v -1.55273 z"
     id="path399" /><path
     d="m 241.43994,162.53125 h 4.26758 v 0.82031 l -3.37891,3.93067 h 3.37891 V 168 h -4.38965 v -0.82031 l 3.37891,-3.93067 h -3.25684 z"
     id="path401" /><path
     d="m 247.96826,160.97852 v 1.55273 h 1.85059 v 0.69824 h -1.85059 v 2.96875 q 0,0.66895 0.18067,0.85938 0.18554,0.19043 0.74707,0.19043 h 0.92285 V 168 H 248.896 q -1.04004,0 -1.43555,-0.38574 -0.39551,-0.39063 -0.39551,-1.41602 v -2.96875 h -0.65918 v -0.69824 h 0.65918 v -1.55273 z"
     id="path403" /><path
     d="m 255.67822,165.04102 v 0.43945 h -4.13086 q 0.0586,0.92773 0.55664,1.41601 0.50293,0.4834 1.39649,0.4834 0.51758,0 1.00097,-0.12695 0.48829,-0.12695 0.9668,-0.38086 v 0.84961 q -0.4834,0.20508 -0.99121,0.3125 -0.50781,0.10742 -1.03027,0.10742 -1.3086,0 -2.0752,-0.76172 -0.76172,-0.76172 -0.76172,-2.06054 0,-1.34278 0.72266,-2.12891 0.72754,-0.79102 1.95801,-0.79102 1.10351,0 1.74316,0.71289 0.64453,0.70801 0.64453,1.92872 z m -0.89843,-0.26368 q -0.01,-0.7373 -0.41504,-1.17675 -0.40039,-0.43946 -1.06446,-0.43946 -0.75195,0 -1.20605,0.42481 -0.44922,0.4248 -0.51758,1.19629 z"
     id="path405" /><path
     d="m 260.63916,162.69238 v 0.84961 q -0.38086,-0.19531 -0.79102,-0.29297 -0.41015,-0.0977 -0.8496,-0.0977 -0.66895,0 -1.00586,0.20508 -0.33204,0.20507 -0.33204,0.61523 0,0.3125 0.23926,0.49316 0.23926,0.17578 0.96192,0.33692 l 0.30761,0.0684 q 0.95703,0.20508 1.35743,0.58105 0.40527,0.3711 0.40527,1.04004 0,0.76172 -0.60547,1.20606 -0.60059,0.44433 -1.65527,0.44433 -0.43946,0 -0.91797,-0.0879 -0.47363,-0.083 -1.00098,-0.25391 v -0.92773 q 0.49805,0.25879 0.98145,0.39063 0.4834,0.12695 0.95703,0.12695 0.63476,0 0.97656,-0.21485 0.3418,-0.21972 0.3418,-0.61523 0,-0.36621 -0.24903,-0.56152 -0.24414,-0.19532 -1.0791,-0.37598 l -0.3125,-0.0732 q -0.83496,-0.17578 -1.20605,-0.53711 -0.3711,-0.36621 -0.3711,-1.00098 0,-0.77148 0.54688,-1.1914 0.54687,-0.41993 1.55273,-0.41993 0.49805,0 0.9375,0.0733 0.43946,0.0732 0.81055,0.21972 z"
     id="path407" /><path
     d="m 265.58057,160.70996 h 0.98632 v 6.45996 h 3.54981 V 168 h -4.53613 z"
     id="path409" /><path
     d="m 275.61475,165.04102 v 0.43945 h -4.13086 q 0.0586,0.92773 0.55664,1.41601 0.50293,0.4834 1.39648,0.4834 0.51758,0 1.00098,-0.12695 0.48828,-0.12695 0.9668,-0.38086 v 0.84961 q -0.4834,0.20508 -0.99122,0.3125 -0.50781,0.10742 -1.03027,0.10742 -1.30859,0 -2.07519,-0.76172 -0.76172,-0.76172 -0.76172,-2.06054 0,-1.34278 0.72265,-2.12891 0.72754,-0.79102 1.95801,-0.79102 1.10352,0 1.74316,0.71289 0.64454,0.70801 0.64454,1.92872 z m -0.89844,-0.26368 q -0.01,-0.7373 -0.41504,-1.17675 -0.40039,-0.43946 -1.06445,-0.43946 -0.75196,0 -1.20606,0.42481 -0.44922,0.4248 -0.51758,1.19629 z"
     id="path411" /><path
     d="m 281.76709,165.04102 v 0.43945 h -4.13086 q 0.0586,0.92773 0.55664,1.41601 0.50293,0.4834 1.39649,0.4834 0.51757,0 1.00097,-0.12695 0.48828,-0.12695 0.9668,-0.38086 v 0.84961 q -0.4834,0.20508 -0.99121,0.3125 -0.50781,0.10742 -1.03028,0.10742 -1.30859,0 -2.07519,-0.76172 -0.76172,-0.76172 -0.76172,-2.06054 0,-1.34278 0.72266,-2.12891 0.72754,-0.79102 1.958,-0.79102 1.10352,0 1.74317,0.71289 0.64453,0.70801 0.64453,1.92872 z m -0.89844,-0.26368 q -0.01,-0.7373 -0.41504,-1.17675 -0.40039,-0.43946 -1.06445,-0.43946 -0.75195,0 -1.20605,0.42481 -0.44922,0.4248 -0.51758,1.19629 z"
     id="path413" /><path
     d="m 286.41064,163.37109 q -0.15136,-0.0879 -0.33203,-0.12695 -0.17578,-0.0439 -0.39062,-0.0439 -0.76172,0 -1.17188,0.49804 -0.40527,0.49317 -0.40527,1.4209 V 168 h -0.90332 v -5.46875 h 0.90332 v 0.84961 q 0.2832,-0.49805 0.7373,-0.73731 0.45411,-0.24414 1.10352,-0.24414 0.0928,0 0.20508,0.0147 0.1123,0.01 0.24902,0.0342 z"
     id="path415" /><path
     d="m 286.9624,162.53125 h 4.26758 v 0.82031 l -3.37891,3.93067 h 3.37891 V 168 h -4.38965 v -0.82031 l 3.37891,-3.93067 h -3.25684 z"
     id="path417" /><path
     d="m 297.27979,165.04102 v 0.43945 h -4.13086 q 0.0586,0.92773 0.55664,1.41601 0.50293,0.4834 1.39648,0.4834 0.51758,0 1.00098,-0.12695 0.48828,-0.12695 0.96679,-0.38086 v 0.84961 q -0.48339,0.20508 -0.99121,0.3125 -0.50781,0.10742 -1.03027,0.10742 -1.30859,0 -2.0752,-0.76172 -0.76171,-0.76172 -0.76171,-2.06054 0,-1.34278 0.72265,-2.12891 0.72754,-0.79102 1.95801,-0.79102 1.10352,0 1.74316,0.71289 0.64454,0.70801 0.64454,1.92872 z m -0.89844,-0.26368 q -0.01,-0.7373 -0.41504,-1.17675 -0.40039,-0.43946 -1.06445,-0.43946 -0.75196,0 -1.20606,0.42481 -0.44922,0.4248 -0.51758,1.19629 z"
     id="path419" /><path
     d="m 298.75439,162.53125 h 0.89844 V 168 h -0.89844 z m 0,-2.12891 h 0.89844 v 1.1377 h -0.89844 z"
     id="path421" /><path
     d="m 305.46826,162.74121 v 0.83984 q -0.38086,-0.20996 -0.7666,-0.3125 -0.38086,-0.10742 -0.77148,-0.10742 -0.87403,0 -1.35743,0.55664 -0.48339,0.55176 -0.48339,1.55274 0,1.00097 0.48339,1.55761 0.4834,0.55176 1.35743,0.55176 0.39062,0 0.77148,-0.10254 0.38574,-0.10742 0.7666,-0.31738 v 0.83008 q -0.37597,0.17578 -0.78125,0.26367 -0.40039,0.0879 -0.85449,0.0879 -1.23535,0 -1.96289,-0.77637 -0.72754,-0.77636 -0.72754,-2.09472 0,-1.33789 0.73242,-2.10449 0.73731,-0.76661 2.0166,-0.76661 0.41504,0 0.81055,0.0879 0.39551,0.083 0.7666,0.25391 z"
     id="path423" /><path
     d="M 311.57666,164.69922 V 168 h -0.89844 v -3.27148 q 0,-0.77637 -0.30273,-1.16211 -0.30274,-0.38575 -0.9082,-0.38575 -0.72754,0 -1.14747,0.46387 -0.41992,0.46387 -0.41992,1.26465 V 168 h -0.90332 v -7.59766 h 0.90332 v 2.97852 q 0.32227,-0.49316 0.75684,-0.73731 0.43945,-0.24414 1.01074,-0.24414 0.94238,0 1.42578,0.58594 0.4834,0.58106 0.4834,1.71387 z"
     id="path425" /><path
     d="m 318.04639,165.04102 v 0.43945 h -4.13086 q 0.0586,0.92773 0.55664,1.41601 0.50293,0.4834 1.39648,0.4834 0.51758,0 1.00098,-0.12695 0.48828,-0.12695 0.9668,-0.38086 v 0.84961 q -0.4834,0.20508 -0.99122,0.3125 -0.50781,0.10742 -1.03027,0.10742 -1.30859,0 -2.07519,-0.76172 -0.76172,-0.76172 -0.76172,-2.06054 0,-1.34278 0.72265,-2.12891 0.72754,-0.79102 1.95801,-0.79102 1.10352,0 1.74317,0.71289 0.64453,0.70801 0.64453,1.92872 z m -0.89844,-0.26368 q -0.01,-0.7373 -0.41504,-1.17675 -0.40039,-0.43946 -1.06445,-0.43946 -0.75196,0 -1.20606,0.42481 -0.44922,0.4248 -0.51758,1.19629 z"
     id="path427" /><path
     d="M 324.06689,164.69922 V 168 h -0.89843 v -3.27148 q 0,-0.77637 -0.30274,-1.16211 -0.30273,-0.38575 -0.9082,-0.38575 -0.72754,0 -1.14746,0.46387 -0.41992,0.46387 -0.41992,1.26465 V 168 h -0.90332 v -5.46875 h 0.90332 v 0.84961 q 0.32226,-0.49316 0.75683,-0.73731 0.43946,-0.24414 1.01074,-0.24414 0.94239,0 1.42579,0.58594 0.48339,0.58106 0.48339,1.71387 z"
     id="path429" /></g>

<g
   aria-label="⏎"
   id="returntxt"
   style="font-size:14px;line-height:0%;font-family:'DejaVu Sans';display:inline;fill:#111111"
   class="mod big"><path
     d="m 498.84863,61.083984 -3.47265,-3.472656 3.47265,-3.472656 v 1.866211 h 3.87598 v -4.210938 h 3.21289 l -0.007,7.423828 h -7.08203 z m -0.68359,-4.395507 v -0.895508 l -1.81836,1.818359 1.81836,1.818359 V 58.53418 h 7.08203 l 0.007,-6.056641 h -1.84571 l -0.007,4.210938 z"
     id="path432" /></g>
<g
   aria-label="⌫"
   id="backspacetxt"
   style="font-size:10px;line-height:0%;font-family:'DejaVu Sans';display:inline;fill:#111111"
   class="mod"><path
     d="m 493.37891,23 h -9.5752 l -3.79883,-3.798828 3.79883,-3.798828 h 9.5752 z m -0.72266,-6.875 h -0.68848 l -3.07617,3.076172 3.07617,3.076172 h 0.68848 z m -6.8457,0 2.56347,2.563477 2.56348,-2.563477 z m 5.12695,6.152344 -2.56348,-2.563477 -2.56347,2.563477 z M 484.79492,16.125 h -0.69336 l -3.07617,3.085937 3.07617,3.066407 h 0.69336 l 3.07617,-3.076172 z"
     id="path435" /></g>
</g>

<g
   transform="translate(55,26)"
   id="g187">
	<g
   aria-label="₁"
   id="text165"
   style="font-size:20px;line-height:0%;font-family:'Linux Libertine';text-align:center;text-anchor:middle;display:inline;fill:#111111;stroke-width:1.25"
   class="key"><path
     d="M 1.2999962,-5.96 V 2.6 h -1.42000001 v -5.52 q 0,-0.52 0.02,-0.94 0.04,-0.42 0.06,-0.84 -0.2,0.18 -0.44,0.4 -0.24,0.2 -0.5,0.38 l -1.07999999,0.78 -0.7,-0.98 2.59999999,-1.84 z"
     id="path438" /></g>
	<g
   aria-label="₂"
   id="text167"
   style="font-size:20px;line-height:0%;font-family:'Linux Libertine';text-align:center;text-anchor:middle;display:inline;fill:#111111;stroke-width:1.25"
   class="key"><path
     d="m 38.619996,2.6 h -5.64 V 1.52 l 2.3,-2.24 q 0.82,-0.78 1.22,-1.26 0.42,-0.5 0.56,-0.88 0.16,-0.4 0.16,-0.84 0,-0.64 -0.38,-0.96 -0.36,-0.32 -0.96,-0.32 -0.6,0 -1.1,0.24 -0.48,0.22 -1,0.62 l -0.7,-0.92 q 0.58,-0.5 1.26,-0.8 0.7,-0.3 1.56,-0.3 1.28,0 2,0.64 0.74,0.62 0.74,1.72 0,0.98 -0.6,1.76 -0.58,0.78 -1.7,1.84 l -1.62,1.54 h 3.9 z"
     id="path441" /></g>
	<g
   aria-label="₃"
   id="text169"
   style="font-size:20px;line-height:0%;font-family:'Linux Libertine';text-align:center;text-anchor:middle;display:inline;fill:#111111;stroke-width:1.25"
   class="key"><path
     d="m 71.799996,-6.14 q 1.42,0 2.14,0.62 0.72,0.62 0.72,1.58 0,0.8 -0.44,1.32 -0.42,0.52 -1.02,0.72 v 0.06 q 0.78,0.14 1.24,0.66 0.48,0.5 0.48,1.32 0,1.16 -0.84,1.88 -0.84,0.74 -2.62,0.74 -0.74,0 -1.38,-0.14 -0.64,-0.12 -1.24,-0.42 V 0.94 q 1.4,0.68 2.64,0.68 1.04,0 1.52,-0.42 0.48,-0.4 0.48,-1.1 0,-0.72 -0.58,-1.04 -0.58,-0.34 -1.62,-0.34 h -1.14 v -1.1 h 1.14 q 1,0 1.46,-0.38 0.48,-0.4 0.48,-1.02 0,-0.64 -0.42,-0.92 -0.4,-0.3 -0.98,-0.3 -0.62,0 -1.16,0.22 -0.52,0.2 -1.06,0.54 l -0.72,-0.92 q 0.62,-0.46 1.3,-0.72 0.7,-0.26 1.62,-0.26 z"
     id="path444" /></g>
	<g
   aria-label="♀"
   id="text171"
   style="font-size:20px;line-height:0%;font-family:'Linux Libertine';text-align:center;text-anchor:middle;display:inline;fill:#111111;stroke-width:1.25"
   class="key"><path
     d="m 108,-12.880859 q -1.60156,0 -2.73437,1.113281 -1.12305,1.113281 -1.12305,2.7148436 0,1.5917969 1.12305,2.6464844 1.13281,1.0546875 2.73437,1.0546875 1.57227,0 2.71484,-1.0546875 1.14258,-1.0546875 1.14258,-2.6464844 0,-1.6015626 -1.14258,-2.7148436 -1.14257,-1.113281 -2.71484,-1.113281 z m -3.96484,7.6855465 q -1.65039,-1.5332031 -1.65039,-3.8574219 0,-2.3339846 1.64062,-3.9550786 1.64063,-1.621093 3.97461,-1.621093 2.30469,0 3.95508,1.621093 1.66015,1.621094 1.66015,3.9550786 0,2.3339844 -1.65039,3.8574219 -1.32812,1.2304687 -3.08593,1.40625 v 2.578125 h 2.65625 V 0 h -2.65625 v 2.5097656 h -1.75782 V 0 h -2.65625 v -1.2109375 h 2.65625 v -2.5878906 q -1.76757,-0.1660157 -3.08593,-1.3964844 z"
     id="path447" /></g>
	<g
   aria-label="♂"
   id="text173"
   style="font-size:20px;line-height:0%;font-family:'Linux Libertine';text-align:center;text-anchor:middle;display:inline;fill:#111111;stroke-width:1.25"
   class="key"><path
     d="m 142.23242,-8.9648438 q -1.60156,0 -2.73437,1.1132813 -1.12305,1.1132813 -1.12305,2.7148438 0,1.6015624 1.12305,2.6562499 1.13281,1.0546876 2.73437,1.0546876 1.57227,0 2.71485,-1.0546876 1.14257,-1.0546875 1.14257,-2.6562499 0,-1.6015625 -1.14257,-2.7148438 -1.14258,-1.1132813 -2.71485,-1.1132813 z m 4.02344,7.6464844 q -1.64063,1.60156253 -4.02344,1.60156253 -2.29492,0 -3.95508,-1.54296873 -1.66015,-1.5527344 -1.66015,-3.8769531 0,-2.3242188 1.67968,-3.9843751 1.68946,-1.6699222 3.93555,-1.5820312 2.22656,0.07813 3.32031,1.0839844 l 3.52539,-3.3984374 h -3.62304 l 1.36719,-1.386719 h 4.82421 v 4.8046876 L 150.25,-8.203125 v -3.642578 l -3.49609,3.3984374 q 1.09375,1.4257812 1.09375,3.3105469 0,2.2656249 -1.5918,3.8183593 z"
     id="path450" /></g>

	<g
   aria-label="⚥"
   id="text175"
   style="font-size:20px;line-height:0%;font-family:'Linux Libertine';text-align:center;text-anchor:middle;display:inline;fill:#111111;stroke-width:1.25"
   class="key"><path
     d="m 182.15332,-9.0527344 q 0,-1.6015626 -1.14258,-2.7148436 -1.14258,-1.113281 -2.73437,-1.113281 -1.58203,0 -2.71485,1.113281 -1.12304,1.113281 -1.12304,2.7148436 0,1.5917969 1.12304,2.6464844 1.13282,1.0546875 2.71485,1.0546875 1.59179,0 2.73437,-1.0546875 1.14258,-1.0546875 1.14258,-2.6464844 z m -7.82227,3.8574219 q -1.65039,-1.5332031 -1.65039,-3.8574219 0,-2.3339846 1.64063,-3.9550786 1.64062,-1.621093 3.97461,-1.621093 1.875,0 3.33008,1.074218 l 3.51562,-3.388671 h -3.62305 l 1.36719,-1.386719 h 4.82422 v 4.804687 l -1.39648,1.396485 v -3.642578 l -3.4961,3.398437 q 1.09375,1.425781 1.09375,3.3203126 0,2.3339844 -1.65039,3.8574219 -1.32812,1.2304687 -3.08594,1.40625 v 2.578125 h 2.65625 V 0 h -2.65625 v 2.5097656 h -1.75781 V 0 h -2.65625 v -1.2109375 h 2.65625 v -2.5878906 q -1.76758,-0.1660157 -3.08594,-1.3964844 z"
     id="path453" /></g>
	<g
   aria-label="ϰ"
   id="text177"
   style="font-size:20px;line-height:0%;font-family:'Linux Libertine';text-align:center;text-anchor:middle;display:inline;fill:#111111;stroke-width:1.25"
   class="key"><path
     d="m 211.11,0 q 0.36,-0.74 0.7,-1.74 0.34,-1.02 0.54,-2.2 0.22,-1.2 0.22,-2.46 0,-1.68 -0.54,-2.36 -0.52,-0.7 -1.22,-0.7 -0.26,0 -0.46,0.06 -0.18,0.04 -0.32,0.1 l -0.48,-1.38 q 0.28,-0.1 0.64,-0.16 0.38,-0.08 0.88,-0.08 1.56,0 2.4,1.12 0.86,1.1 0.86,3.48 0,0.62 -0.08,1.3 -0.08,0.66 -0.28,1.3 l 5.54,-7 h 1.76 q -0.36,0.74 -0.7,1.76 -0.34,1 -0.56,2.2 -0.22,1.18 -0.22,2.44 0,1.76 0.48,2.42 0.5,0.64 1.3,0.64 0.24,0 0.48,-0.04 0.26,-0.06 0.4,-0.12 v 1.38 q -0.26,0.1 -0.58,0.16 -0.3,0.08 -0.7,0.08 -1.5,0 -2.32,-1.12 -0.82,-1.12 -0.82,-3.48 0,-0.62 0.08,-1.3 0.08,-0.68 0.28,-1.3 l -5.48,7 z"
     id="path456" /></g>
	<g
   aria-label="⟨"
   id="text179"
   style="font-size:20px;line-height:0%;font-family:'Linux Libertine';text-align:center;text-anchor:middle;display:inline;fill:#111111;stroke-width:1.25"
   class="key"><path
     d="m 249.88574,-6.2695312 2.75391,-8.9062498 h 1.66015 l -2.7539,8.9062498 2.7539,8.90625 h -1.66015 z"
     id="path459" /></g>
	<g
   aria-label="⟩"
   id="text181"
   style="font-size:20px;line-height:0%;font-family:'Linux Libertine';text-align:center;text-anchor:middle;display:inline;fill:#111111;stroke-width:1.25"
   class="key"><path
     d="m 290.11426,-6.2695312 -2.75391,8.90625 h -1.66015 l 2.7539,-8.90625 -2.7539,-8.9062498 h 1.66015 z"
     id="path462" /></g>
	<g
   aria-label="₀"
   id="text183"
   style="font-size:20px;line-height:0%;font-family:'Linux Libertine';text-align:center;text-anchor:middle;display:inline;fill:#111111;stroke-width:1.25"
   class="key"><path
     d="m 323.98,2.76 q -1.54,0 -2.32,-1.16 -0.78,-1.14 -0.78,-3.3 0,-2.12 0.74,-3.26 0.74,-1.16 2.36,-1.16 1.54,0 2.32,1.14 0.8,1.14 0.8,3.28 0,2.12 -0.74,3.28 -0.72,1.18 -2.38,1.18 z m 0,-1.26 q 1.68,0 1.68,-3.2 0,-3.18 -1.68,-3.18 -0.86,0 -1.26,0.8 -0.38,0.78 -0.38,2.4 0,1.58 0.38,2.38 0.4,0.8 1.26,0.8 z"
     id="path465" /></g>
	<g
   aria-label="‑"
   id="text185"
   style="font-size:20px;line-height:0%;font-family:'Linux Libertine';text-align:center;text-anchor:middle;display:inline;fill:#111111;stroke-width:1.25"
   class="key"><path
     d="m 357.57999,-4.58 v -1.56 h 4.84 v 1.56 z"
     id="path468" /></g>
</g>


<g
   aria-label="⇥"
   id="text189"
   style="font-size:14px;line-height:0%;font-family:'DejaVu Sans';display:inline;fill:#111111"
   class="mod big"><path
     d="m 10.799805,55.030273 h 7.123047 l -1.59961,-1.599609 0.820313,-0.820312 2.693359,2.693359 v -2.625 h 1.162109 v 5.878906 h -1.162109 v -2.638672 l -2.693359,2.69336 -0.820313,-0.820313 1.59961,-1.599609 h -7.123047 z"
     id="path471" /></g>

<g
   transform="translate(73,62)"
   id="g213">
	<g
   aria-label="ζ"
   id="text191"
   style="font-size:20px;line-height:0%;font-family:'Linux Libertine';text-align:center;text-anchor:middle;display:inline;fill:#111111;stroke-width:1.25"
   class="key"><path
     d="m 1.8800092,4.04 q 0.34,-0.64 0.58,-1.3 0.26,-0.66 0.26,-1.1 0,-0.38 -0.12,-0.64 -0.1,-0.24 -0.48,-0.44 -0.36,-0.18 -1.12,-0.34 -1.72000004,-0.38 -2.7,-0.92 -0.98,-0.56 -1.4,-1.32 -0.4,-0.78 -0.4,-1.8 0,-1.14 0.48,-2.26 0.5,-1.12 1.38,-2.34 0.87999996,-1.24 1.99999996,-2.7 l 2.18000004,-2.82 q -0.08,0 -0.56,0.02 -0.46,0.02 -1.14000004,0.04 -0.66,0.02 -1.34,0.02 H -2.8999908 v -1.34 h 7.44 v 1.06 l -3,3.98 q -1.16000004,1.56 -1.88000004,2.62 -0.69999996,1.06 -1.01999996,1.88 -0.32,0.8 -0.32,1.6 0,0.68 0.24,1.18 0.24,0.5 0.93999996,0.88 0.72,0.38 2.16000004,0.72 1.56,0.36 2.18,0.88 0.64,0.5 0.64,1.54 0,0.88 -0.26,1.56 -0.26,0.7 -0.6,1.34 z"
     id="path474" /></g>
	<g
   aria-label="υ"
   id="text193"
   style="font-size:20px;line-height:0%;font-family:'Linux Libertine';text-align:center;text-anchor:middle;display:inline;fill:#111111;stroke-width:1.25"
   class="key"><path
     d="m 35.660004,0.2 q -1.34,0 -2.16,-0.34 -0.8,-0.36 -1.22,-1 -0.4,-0.66 -0.54,-1.54 -0.14,-0.9 -0.14,-1.98 v -6.06 h 1.76 v 6 q 0,1.14 0.18,1.92 0.18,0.76 0.7,1.16 0.54,0.4 1.56,0.4 1.44,0 2.22,-1.14 0.8,-1.14 0.8,-3.54 0,-1.4 -0.16,-2.5 -0.16,-1.1 -0.46,-2.3 h 1.76 q 0.32,1.18 0.48,2.3 0.16,1.1 0.16,2.58 0,3.1 -1.3,4.58 -1.3,1.46 -3.64,1.46 z"
     id="path477" /></g>
	<g
   aria-label="λ"
   id="text195"
   style="font-size:20px;line-height:0%;font-family:'Linux Libertine';text-align:center;text-anchor:middle;display:inline;fill:#111111;stroke-width:1.25"
   class="key"><path
     d="m 76.050009,0.2 q -0.58,0 -0.96,-0.26 -0.36,-0.26 -0.62,-1 l -1.58,-4.46 q -0.16,-0.48 -0.4,-1.14 -0.22,-0.66 -0.42,-1.3 -0.2,-0.64 -0.3,-1.06 h -0.08 q -0.14,0.72 -0.44,1.66 -0.28,0.94 -0.54,1.74 l -1.84,5.62 h -1.88 l 3.92,-10.76 -0.52,-1.34 q -0.32,-0.88 -0.92,-1.32 -0.58,-0.44 -1.54,-0.44 -0.36,0 -0.64,0.04 -0.26,0.04 -0.48,0.08 v -1.4 q 0.28,-0.08 0.6,-0.12 0.34,-0.04 0.74,-0.04 1.54,0 2.48,0.78 0.94,0.76 1.58,2.48 l 3.8,10.1 q 0.16,0.42 0.28,0.56 0.14,0.14 0.36,0.14 0.16,0 0.3,-0.04 0.14,-0.04 0.24,-0.06 v 1.3 q -0.22,0.1 -0.52,0.16 -0.28,0.08 -0.62,0.08 z"
     id="path480" /></g>
	<g
   aria-label="α"
   id="text197"
   style="font-size:20px;line-height:0%;font-family:'Linux Libertine';text-align:center;text-anchor:middle;display:inline;fill:#111111;stroke-width:1.25"
   class="key"><path
     d="m 107.23001,0.2 q -1.92,0 -3.14,-1.38 -1.22,-1.4 -1.22,-4.14 0,-2.72 1.18,-4.16 1.2,-1.44 3.26,-1.44 1.12,0 1.96,0.46 0.84,0.46 1.36,1.2 h 0.08 l 0.26,-1.46 h 1.4 v 8.36 q 0,0.62 0.24,0.88 0.24,0.24 0.58,0.24 0.16,0 0.34,-0.04 0.18,-0.04 0.26,-0.06 v 1.28 q -0.14,0.08 -0.46,0.16 -0.32,0.1 -0.66,0.1 -0.74,0 -1.24,-0.36 -0.48,-0.36 -0.7,-1.28 h -0.14 q -0.5,0.72 -1.34,1.18 -0.82,0.46 -2.02,0.46 z m 0.36,-1.46 q 1.66,0 2.34,-0.94 0.7,-0.96 0.7,-3.02 v -0.12 q 0,-2 -0.68,-3.06 -0.66,-1.06 -2.38,-1.06 -1.46,0 -2.18,1.08 -0.7,1.06 -0.7,3.08 0,4.04 2.9,4.04 z"
     id="path483" /></g>
	<g
   aria-label="ϕ"
   id="text199"
   style="font-size:20px;line-height:0%;font-family:'Linux Libertine';text-align:center;text-anchor:middle;display:inline;fill:#111111;stroke-width:1.25"
   class="key"><path
     d="M 143.15,4.8 V 0.16 q -1.58,-0.14 -2.78,-0.82 -1.2,-0.7 -1.86,-1.88 -0.66,-1.2 -0.66,-2.82 0,-2.44 1.38,-3.88 1.38,-1.44 3.92,-1.64 v -4.32 h 1.72 v 4.32 q 1.6,0.14 2.78,0.84 1.2,0.7 1.86,1.88 0.66,1.18 0.66,2.8 0,2.42 -1.42,3.86 -1.4,1.44 -3.88,1.66 V 4.8 Z m 0,-6.04 v -8.22 q -1.84,0.18 -2.66,1.22 -0.8,1.04 -0.8,2.88 0,1.84 0.82,2.9 0.82,1.04 2.64,1.22 z m 1.72,0 q 1.8,-0.2 2.64,-1.24 0.84,-1.06 0.84,-2.88 0,-3.7 -3.48,-4.08 z"
     id="path486" /></g>

	<g
   aria-label="π"
   id="text201"
   style="font-size:20px;line-height:0%;font-family:'Linux Libertine';text-align:center;text-anchor:middle;display:inline;fill:#111111;stroke-width:1.25"
   class="key"><path
     d="m 184.47,0.2 q -2.22,0 -2.22,-2.56 v -7 h -4.54 V 0 h -1.74 v -9.36 h -2.18 v -1.36 h 12.3 v 1.36 h -2.1 v 6.88 q 0,0.7 0.26,0.98 0.26,0.26 0.66,0.26 0.28,0 0.5,-0.06 0.24,-0.06 0.38,-0.14 v 1.38 q -0.16,0.08 -0.52,0.16 -0.34,0.1 -0.8,0.1 z"
     id="path489" /></g>
	<g
   aria-label="β"
   id="text203"
   style="font-size:20px;line-height:0%;font-family:'Linux Libertine';text-align:center;text-anchor:middle;display:inline;fill:#111111;stroke-width:1.25"
   class="key"><path
     d="m 211.56999,4.8 v -15.38 q 0,-1.72 0.6,-2.74 0.62,-1.04 1.66,-1.5 1.04,-0.48 2.32,-0.48 2.04,0 3.14,1 1.1,0.98 1.1,2.82 0,1.44 -0.84,2.28 -0.82,0.84 -2,1.08 v 0.08 q 1.52,0.2 2.5,1.18 0.98,0.98 0.98,2.8 0,1.36 -0.62,2.32 -0.6,0.96 -1.66,1.46 -1.04,0.48 -2.36,0.48 -1.08,0 -1.76,-0.18 -0.66,-0.18 -1.3,-0.5 V 4.8 Z m 4.66,-6.04 q 1.4,0 2.22,-0.76 0.82,-0.78 0.82,-2.18 0,-1.06 -0.42,-1.74 -0.4,-0.7 -1.08,-1.04 -0.66,-0.36 -1.42,-0.36 h -1.66 v -1.36 h 1.46 q 1.14,0 1.78,-0.74 0.66,-0.76 0.66,-1.98 0,-1.24 -0.74,-1.84 -0.72,-0.6 -1.74,-0.6 -0.7,0 -1.34,0.28 -0.64,0.26 -1.04,0.98 -0.4,0.72 -0.4,2.08 v 8.44 q 0.7,0.36 1.34,0.6 0.64,0.22 1.56,0.22 z"
     id="path492" /></g>
	<g
   aria-label="μ"
   id="text205"
   style="font-size:20px;line-height:0%;font-family:'Linux Libertine';text-align:center;text-anchor:middle;display:inline;fill:#111111;stroke-width:1.25"
   class="key"><path
     d="m 247.44001,4.8 v -15.52 h 1.76 v 6.92 q 0,2.54 2.44,2.54 1.64,0 2.32,-1 0.68,-1 0.68,-2.88 v -5.58 h 1.76 v 8.36 q 0,0.62 0.24,0.88 0.24,0.24 0.58,0.24 0.16,0 0.34,-0.04 0.18,-0.04 0.26,-0.06 v 1.28 q -0.14,0.08 -0.46,0.16 -0.32,0.1 -0.66,0.1 -0.74,0 -1.24,-0.36 -0.48,-0.36 -0.7,-1.28 h -0.14 q -0.5,0.8 -1.24,1.22 -0.74,0.42 -1.86,0.42 -0.78,0 -1.36,-0.24 -0.58,-0.26 -0.98,-0.66 h -0.08 q 0.04,0.36 0.06,0.96 0.04,0.6 0.04,1.42 V 4.8 Z"
     id="path495" /></g>
	<g
   aria-label="λ"
   id="text207"
   style="font-size:20px;line-height:0%;font-family:'Linux Libertine';text-align:center;text-anchor:middle;display:inline;fill:#111111;stroke-width:1.25"
   class="key"><path
     d="m 292.05001,0.2 q -0.58,0 -0.96,-0.26 -0.36,-0.26 -0.62,-1 l -1.58,-4.46 q -0.16,-0.48 -0.4,-1.14 -0.22,-0.66 -0.42,-1.3 -0.2,-0.64 -0.3,-1.06 h -0.08 q -0.14,0.72 -0.44,1.66 -0.28,0.94 -0.54,1.74 l -1.84,5.62 h -1.88 l 3.92,-10.76 -0.52,-1.34 q -0.32,-0.88 -0.92,-1.32 -0.58,-0.44 -1.54,-0.44 -0.36,0 -0.64,0.04 -0.26,0.04 -0.48,0.08 v -1.4 q 0.28,-0.08 0.6,-0.12 0.34,-0.04 0.74,-0.04 1.54,0 2.48,0.78 0.94,0.76 1.58,2.48 l 3.8,10.1 q 0.16,0.42 0.28,0.56 0.14,0.14 0.36,0.14 0.16,0 0.3,-0.04 0.14,-0.04 0.24,-0.06 v 1.3 q -0.22,0.1 -0.52,0.16 -0.28,0.08 -0.62,0.08 z"
     id="path498" /></g>
	<g
   aria-label="φ"
   id="text209"
   style="font-size:20px;line-height:0%;font-family:'Linux Libertine';text-align:center;text-anchor:middle;display:inline;fill:#111111;stroke-width:1.25"
   class="key"><path
     d="M 323.15,4.8 V 0.16 q -1.58,-0.14 -2.78,-0.82 -1.2,-0.7 -1.86,-1.88 -0.66,-1.2 -0.66,-2.82 0,-2.44 1.38,-3.88 1.38,-1.44 3.92,-1.64 v -4.32 h 1.72 v 4.32 q 1.6,0.14 2.78,0.84 1.2,0.7 1.86,1.88 0.66,1.18 0.66,2.8 0,2.42 -1.42,3.86 -1.4,1.44 -3.88,1.66 V 4.8 Z m 0,-6.04 v -8.22 q -1.84,0.18 -2.66,1.22 -0.8,1.04 -0.8,2.88 0,1.84 0.82,2.9 0.82,1.04 2.64,1.22 z m 1.72,0 q 1.8,-0.2 2.64,-1.24 0.84,-1.06 0.84,-2.88 0,-3.7 -3.48,-4.08 z"
     id="path501" /></g>
	<g
   aria-label="θ"
   id="text211"
   style="font-size:20px;line-height:0%;font-family:'Linux Libertine';text-align:center;text-anchor:middle;display:inline;fill:#111111;stroke-width:1.25"
   class="key"><path
     d="m 359.98,0.2 q -2.48,0 -3.66,-2.06 -1.16,-2.06 -1.16,-5.68 0,-2.44 0.48,-4.18 0.48,-1.74 1.54,-2.66 1.08,-0.92 2.8,-0.92 2.5,0 3.68,2.04 1.2,2.02 1.2,5.72 0,2.42 -0.5,4.16 -0.48,1.72 -1.56,2.66 -1.06,0.92 -2.82,0.92 z m -3.04,-8.64 h 6.12 q -0.1,-2.72 -0.82,-4.04 -0.72,-1.34 -2.26,-1.34 -1.52,0 -2.24,1.34 -0.7,1.32 -0.8,4.04 z m 3.04,7.18 q 1.56,0 2.3,-1.36 0.74,-1.38 0.8,-4.46 h -6.14 q 0.04,3.06 0.74,4.44 0.72,1.38 2.3,1.38 z"
     id="path504" /></g>
</g>


<g
   transform="translate(84,98)"
   id="g235">
	<g
   aria-label="χ"
   id="text215"
   style="font-size:20px;line-height:0%;font-family:'Linux Libertine';text-align:center;text-anchor:middle;display:inline;fill:#111111;stroke-width:1.25"
   class="key"><path
     d="m -5.5799986,4.8 4.73999997,-7.46 -2.37999997,-5 q -0.38,-0.78 -0.68,-1.24 -0.28,-0.46 -0.8,-0.46 -0.38,0 -0.66,0.12 v -1.38 q 0.22,-0.06 0.42,-0.1 0.2,-0.06 0.62,-0.06 0.6,0 0.98,0.18 0.4,0.18 0.72,0.62 0.34,0.42 0.7,1.2 l 2.21999997,4.6 3.60000003,-6.54 h 1.88 l -4.74,8.1 2,4.14 q 0.44,0.9 0.76,1.36 0.34,0.48 1.08,0.48 0.26,0 0.48,-0.04 0.24,-0.02 0.42,-0.04 v 1.36 q -0.22,0.06 -0.52,0.1 -0.3,0.06 -0.72,0.06 -0.78,0 -1.28,-0.24 -0.5,-0.22 -0.88,-0.72 -0.36,-0.5 -0.74,-1.3 L -0.09999863,-1.1 -3.6999986,4.8 Z"
     id="path507" /></g>
	<g
   aria-label="σ"
   id="text217"
   style="font-size:20px;line-height:0%;font-family:'Linux Libertine';text-align:center;text-anchor:middle;display:inline;fill:#111111;stroke-width:1.25"
   class="key"><path
     d="m 35.779997,0.2 q -2.18,0 -3.5,-1.36 -1.32,-1.36 -1.32,-3.96 0,-2.02 0.7,-3.24 0.7,-1.24 1.98,-1.8 1.28,-0.56 3.02,-0.56 h 4.84 v 1.36 h -2.44 q 0.76,0.74 1.18,1.78 0.42,1.02 0.42,2.46 0,1.44 -0.56,2.66 -0.54,1.2 -1.62,1.94 -1.08,0.72 -2.7,0.72 z m 0.04,-1.46 q 1.08,0 1.76,-0.52 0.68,-0.52 1,-1.38 0.32,-0.88 0.32,-1.92 0,-2.56 -1.54,-4.28 h -0.7 q -1.96,0 -2.94,1 -0.98,0.98 -0.98,3.24 0,1.7 0.72,2.78 0.72,1.08 2.36,1.08 z"
     id="path510" /></g>
	<g
   aria-label="ι"
   id="text219"
   style="font-size:20px;line-height:0%;font-family:'Linux Libertine';text-align:center;text-anchor:middle;display:inline;fill:#111111;stroke-width:1.25"
   class="key"><path
     d="m 73.339993,0.2 q -1.58,0 -2.3,-0.84 -0.72,-0.86 -0.72,-2.36 v -7.72 h 1.76 v 7.78 q 0,0.98 0.42,1.34 0.42,0.34 1.06,0.34 0.4,0 0.7,-0.06 0.32,-0.06 0.62,-0.14 v 1.42 q -0.26,0.1 -0.64,0.16 -0.38,0.08 -0.9,0.08 z"
     id="path513" /></g>
	<g
   aria-label="ε"
   id="text221"
   style="font-size:20px;line-height:0%;font-family:'Linux Libertine';text-align:center;text-anchor:middle;display:inline;fill:#eeeeee;stroke-width:1.25"
   class="key nubkey"><path
     d="m 108.66001,0.2 q -2.32,0 -3.4,-0.88 -1.06,-0.9 -1.06,-2.24 0,-1.2 0.66,-1.78 0.68,-0.58 1.6,-0.84 v -0.1 q -0.86,-0.28 -1.38,-0.86 -0.52,-0.6 -0.52,-1.56 0,-1.36 1.04,-2.1 1.04,-0.76 2.92,-0.76 1.12,0 2.02,0.24 0.92,0.22 1.5,0.54 l -0.56,1.46 q -0.64,-0.36 -1.38,-0.56 -0.72,-0.22 -1.58,-0.22 -1.2,0 -1.72,0.42 -0.5,0.4 -0.5,1.1 0,0.92 0.72,1.3 0.74,0.36 1.7,0.36 h 1.38 v 1.36 h -1.38 q -1.32,0 -2.02,0.5 -0.68,0.48 -0.68,1.4 0,0.86 0.68,1.3 0.7,0.42 1.96,0.42 1.04,0 1.8,-0.16 0.78,-0.16 1.4,-0.48 v 1.56 q -0.62,0.32 -1.44,0.44 -0.82,0.14 -1.76,0.14 z"
     id="path516" /></g>
	<g
   aria-label="ο"
   id="text223"
   style="font-size:20px;line-height:0%;font-family:'Linux Libertine';text-align:center;text-anchor:middle;display:inline;fill:#111111;stroke-width:1.25"
   class="key"><path
     d="m 148.97,-5.38 q 0,2.66 -1.36,4.12 -1.34,1.46 -3.64,1.46 -1.42,0 -2.54,-0.64 -1.1,-0.66 -1.74,-1.9 -0.64,-1.26 -0.64,-3.04 0,-2.66 1.34,-4.1 1.34,-1.44 3.64,-1.44 1.46,0 2.56,0.66 1.12,0.64 1.74,1.88 0.64,1.22 0.64,3 z m -8.1,0 q 0,1.9 0.74,3.02 0.76,1.1 2.4,1.1 1.62,0 2.38,-1.1 0.76,-1.12 0.76,-3.02 0,-1.9 -0.76,-2.98 -0.76,-1.08 -2.4,-1.08 -1.64,0 -2.38,1.08 -0.74,1.08 -0.74,2.98 z"
     id="path519" /></g>

	<g
   aria-label="δ"
   id="text225"
   style="font-size:20px;line-height:0%;font-family:'Linux Libertine';text-align:center;text-anchor:middle;display:inline;fill:#111111;stroke-width:1.25"
   class="key"><path
     d="m 179.94001,0.2 q -1.42,0 -2.54,-0.58 -1.12,-0.58 -1.76,-1.64 -0.62,-1.06 -0.62,-2.48 0,-1.92 0.94,-3.1 0.96,-1.18 2.68,-1.86 -0.46,-0.3 -0.9,-0.66 -0.44,-0.36 -0.72,-0.88 -0.28,-0.54 -0.28,-1.3 0,-0.72 0.4,-1.4 0.4,-0.7 1.26,-1.14 0.86,-0.46 2.22,-0.46 1,0 1.74,0.22 0.74,0.22 1.24,0.52 0.52,0.28 0.76,0.5 l -0.76,1.38 q -0.62,-0.48 -1.38,-0.82 -0.74,-0.36 -1.62,-0.36 -0.84,0 -1.32,0.24 -0.46,0.24 -0.64,0.6 -0.18,0.34 -0.18,0.66 0,0.34 0.16,0.68 0.16,0.34 0.64,0.74 0.5,0.38 1.48,0.9 1.78,0.94 2.64,1.86 0.86,0.9 1.14,1.78 0.28,0.86 0.28,1.7 0,1.7 -0.68,2.78 -0.68,1.08 -1.8,1.6 -1.1,0.52 -2.38,0.52 z m 0.04,-1.44 q 1.48,0 2.28,-0.96 0.82,-0.98 0.82,-2.46 0,-1.48 -0.8,-2.46 -0.8,-0.98 -2.16,-1.62 -1.52,0.52 -2.42,1.48 -0.88,0.94 -0.88,2.6 0,1.54 0.86,2.48 0.86,0.94 2.3,0.94 z"
     id="path522" /></g>
	<g
   aria-label="τ"
   id="text227"
   style="font-size:20px;line-height:0%;font-family:'Linux Libertine';text-align:center;text-anchor:middle;display:inline;fill:#eeeeee;stroke-width:1.25"
   class="key nubkey"><path
     d="m 217.74,0.22 q -0.92,0 -1.7,-0.26 -0.78,-0.28 -1.26,-1 -0.48,-0.72 -0.48,-2.06 v -6.26 h -2.88 v -1.36 h 8.84 v 1.36 h -4.18 v 6.08 q 0,1.16 0.52,1.62 0.54,0.46 1.4,0.46 0.44,0 0.9,-0.06 0.48,-0.08 0.8,-0.16 v 1.32 q -0.28,0.12 -0.84,0.22 -0.54,0.1 -1.12,0.1 z"
     id="path525" /></g>
	<g
   aria-label="ν"
   id="text229"
   style="font-size:20px;line-height:0%;font-family:'Linux Libertine';text-align:center;text-anchor:middle;display:inline;fill:#111111;stroke-width:1.25"
   class="key"><path
     d="m 250.63999,0 -3.8,-10.72 h 1.82 l 1.94,5.78 q 0.16,0.48 0.4,1.14 0.24,0.66 0.44,1.3 0.22,0.62 0.32,1.02 h 0.08 q 1.7,-1.88 2.34,-4.1 0.64,-2.24 0.64,-5.14 h 1.74 q 0,2.1 -0.36,3.92 -0.36,1.8 -1.24,3.48 -0.86,1.66 -2.42,3.32 z"
     id="path528" /></g>
	<g
   aria-label="ρ"
   id="text231"
   style="font-size:20px;line-height:0%;font-family:'Linux Libertine';text-align:center;text-anchor:middle;display:inline;fill:#111111;stroke-width:1.25"
   class="key"><path
     d="M 283.4,4.8 V -5.5 q 0,-2.74 1.26,-4.08 1.28,-1.34 3.3,-1.34 2.34,0 3.64,1.48 1.3,1.48 1.3,4.18 0,1.7 -0.62,2.94 -0.62,1.22 -1.72,1.88 -1.08,0.64 -2.48,0.64 -0.8,0 -1.56,-0.22 -0.76,-0.24 -1.34,-0.68 h -0.1 q 0.04,0.32 0.06,1.04 0.02,0.72 0.02,1.62 V 4.8 Z m 4.66,-6.06 q 1.44,0 2.22,-1.02 0.8,-1.04 0.8,-2.98 0,-2.14 -0.82,-3.16 -0.8,-1.02 -2.34,-1.02 -2.74,0 -2.74,3.96 v 3.24 q 0.58,0.5 1.32,0.74 0.76,0.24 1.56,0.24 z"
     id="path531" /></g>
	<g
   aria-label="ψ"
   id="text233"
   style="font-size:20px;line-height:0%;font-family:'Linux Libertine';text-align:center;text-anchor:middle;display:inline;fill:#111111;stroke-width:1.25"
   class="key"><path
     d="M 323.10999,4.8 V 0.18 q -1.52,-0.06 -2.66,-0.56 -1.12,-0.52 -1.74,-1.68 -0.62,-1.16 -0.62,-3.14 v -5.52 h 1.74 v 5.58 q 0,1.5 0.42,2.32 0.44,0.82 1.18,1.14 0.76,0.32 1.68,0.4 V -15.2 h 1.72 v 13.9 q 1.7,-0.16 2.62,-1.16 0.94,-1.02 0.94,-3.14 0,-1.38 -0.16,-2.54 -0.16,-1.18 -0.48,-2.58 h 1.74 q 0.32,1.34 0.46,2.54 0.16,1.2 0.16,2.52 0,2.06 -0.7,3.32 -0.68,1.24 -1.88,1.84 -1.18,0.58 -2.7,0.68 V 4.8 Z"
     id="path534" /></g>


</g>

<g
   transform="translate(101,134)"
   id="g257">
    <g
   id="text237"
   class="key"
   style="font-size:20px;font-family:'Linux Libertine';text-align:center;text-anchor:middle;display:inline;fill:#111111;stroke-width:1.25" />
    <g
   aria-label="ξ"
   id="text239"
   style="font-size:20px;line-height:0%;font-family:'Linux Libertine';text-align:center;text-anchor:middle;display:inline;fill:#111111;stroke-width:1.25"
   class="key"><path
     d="m 37.580002,4.04 q 0.32,-0.64 0.58,-1.28 0.26,-0.62 0.26,-1.18 0,-0.3 -0.1,-0.54 -0.1,-0.24 -0.46,-0.46 -0.34,-0.2 -1.14,-0.36 -1.46,-0.32 -2.48,-0.82 -1,-0.5 -1.52,-1.3 -0.52,-0.82 -0.52,-2.06 0,-1.62 0.86,-2.6 0.88,-1 2.14,-1.34 v -0.12 q -2.32,-0.58 -2.32,-2.82 0,-0.94 0.4,-1.54 0.42,-0.62 1.08,-1 0.68,-0.38 1.48,-0.6 -0.38,0.04 -1.06,0.08 -0.68,0.04 -1.36,0.04 h -0.62 v -1.34 h 7.44 v 1.24 h -0.52 q -1.38,0 -2.56,0.28 -1.16,0.26 -1.88,0.9 -0.7,0.64 -0.7,1.8 0,1.02 0.74,1.68 0.74,0.64 2.52,0.64 h 2.16 v 1.34 h -2.22 q -1.4,0 -2.24,0.44 -0.82,0.42 -1.18,1.12 -0.36,0.7 -0.36,1.56 0,0.94 0.36,1.48 0.36,0.54 1.16,0.86 0.8,0.32 2.1,0.64 1.06,0.24 1.6,0.58 0.56,0.34 0.76,0.78 0.2,0.44 0.2,0.98 0,0.88 -0.26,1.54 -0.24,0.68 -0.6,1.38 z"
     id="path538" /></g>
    <g
   aria-label="η"
   id="text241"
   style="font-size:20px;line-height:0%;font-family:'Linux Libertine';text-align:center;text-anchor:middle;display:inline;fill:#111111;stroke-width:1.25"
   class="key"><path
     d="M 74.720002,4.8 V -6.86 q 0,-2.58 -2.3,-2.58 -1.7,0 -2.38,1 -0.66,1 -0.66,2.88 V 0 h -1.76 v -10.72 h 1.42 l 0.26,1.46 h 0.1 q 0.52,-0.84 1.38,-1.24 0.88,-0.42 1.9,-0.42 1.84,0 2.8,0.94 0.98,0.92 0.98,3 V 4.8 Z"
     id="path541" /></g>
    <g
   aria-label="η"
   id="text243"
   style="font-size:20px;line-height:0%;font-family:'Linux Libertine';text-align:center;text-anchor:middle;display:inline;fill:#111111;stroke-width:1.25"
   class="key"><path
     d="M 110.72,4.8 V -6.86 q 0,-2.58 -2.3,-2.58 -1.7,0 -2.38,1 -0.66,1 -0.66,2.88 V 0 h -1.76 v -10.72 h 1.42 l 0.26,1.46 h 0.1 q 0.52,-0.84 1.38,-1.24 0.88,-0.42 1.9,-0.42 1.84,0 2.8,0.94 0.98,0.92 0.98,3 V 4.8 Z"
     id="path544" /></g>

    <g
   aria-label="ϵ"
   id="text245"
   style="font-size:20px;line-height:0%;font-family:'Linux Libertine';text-align:center;text-anchor:middle;display:inline;fill:#111111;stroke-width:1.25"
   class="key"><path
     d="m 145.24999,0.2 q -1.48,0 -2.64,-0.56 -1.14,-0.58 -1.8,-1.8 -0.66,-1.22 -0.66,-3.14 0,-2 0.68,-3.24 0.68,-1.24 1.84,-1.8 1.18,-0.58 2.64,-0.58 0.82,0 1.6,0.16 0.8,0.16 1.36,0.42 l -0.52,1.44 q -0.56,-0.22 -1.24,-0.36 -0.66,-0.14 -1.24,-0.14 -1.54,0 -2.34,0.78 -0.8,0.78 -0.96,2.38 h 5.26 v 1.44 h -5.28 q 0.1,1.78 0.9,2.64 0.8,0.86 2.36,0.86 0.9,0 1.6,-0.18 0.7,-0.18 1.3,-0.42 v 1.52 q -0.56,0.28 -1.24,0.42 -0.68,0.16 -1.62,0.16 z"
     id="path547" /></g>
    <g
   aria-label="ω"
   id="text247"
   style="font-size:20px;line-height:0%;font-family:'Linux Libertine';text-align:center;text-anchor:middle;display:inline;fill:#111111;stroke-width:1.25"
   class="key"><path
     d="m 177.13,0.2 q -1.24,0 -2.1,-0.68 -0.84,-0.68 -1.28,-1.9 -0.44,-1.22 -0.44,-2.82 0,-1.9 0.52,-3.28 0.52,-1.38 1.26,-2.24 h 1.8 q -0.74,0.86 -1.28,2.22 -0.54,1.36 -0.54,3.32 0,1.94 0.6,2.94 0.6,0.98 1.58,0.98 1,0 1.46,-0.74 0.46,-0.74 0.46,-1.86 v -3.22 h 1.68 v 3.22 q 0,1.24 0.5,1.92 0.5,0.68 1.4,0.68 1,0 1.6,-0.98 0.6,-1 0.6,-2.94 0,-1.9 -0.5,-3.22 -0.48,-1.34 -1.32,-2.32 h 1.8 q 0.8,0.92 1.28,2.3 0.5,1.36 0.5,3.22 0,1.6 -0.44,2.82 -0.44,1.22 -1.3,1.9 -0.84,0.68 -2.08,0.68 -1.1,0 -1.8,-0.5 -0.7,-0.52 -1.04,-1.7 h -0.1 q -0.32,1.18 -1.02,1.7 -0.68,0.5 -1.8,0.5 z"
     id="path550" /></g>
    <g
   aria-label="γ"
   id="text249"
   style="font-size:20px;line-height:0%;font-family:'Linux Libertine';text-align:center;text-anchor:middle;display:inline;fill:#111111;stroke-width:1.25"
   class="key"><path
     d="M 214.69999,4.2 V 0.14 l -3.86,-10.86 h 1.82 l 1.94,5.78 q 0.16,0.48 0.4,1.14 0.24,0.66 0.44,1.3 0.22,0.62 0.32,1.02 h 0.08 q 1.7,-1.88 2.34,-4.1 0.64,-2.24 0.64,-5.14 h 1.74 q 0,2.06 -0.36,3.88 -0.36,1.8 -1.26,3.5 -0.88,1.68 -2.48,3.42 V 4.2 Z"
     id="path553" /></g>
    <g
   aria-label="ϱ"
   id="text251"
   style="font-size:20px;line-height:0%;font-family:'Linux Libertine';text-align:center;text-anchor:middle;display:inline;fill:#111111;stroke-width:1.25"
   class="key"><path
     d="m 253.7,4.8 q 0.04,-0.22 0.06,-0.42 0.02,-0.2 0.02,-0.32 0,-0.3 -0.18,-0.46 -0.16,-0.16 -0.62,-0.18 -1.58,-0.04 -2.66,-0.26 -1.06,-0.2 -1.7,-0.7 -0.64,-0.5 -0.94,-1.38 -0.28,-0.86 -0.28,-2.24 V -5.5 q 0,-2.74 1.26,-4.08 1.28,-1.34 3.3,-1.34 2.34,0 3.64,1.48 1.3,1.46 1.3,4.08 0,1.56 -0.62,2.72 -0.62,1.16 -1.72,1.8 -1.08,0.64 -2.48,0.64 -0.8,0 -1.56,-0.22 -0.76,-0.24 -1.34,-0.68 h -0.1 q 0,0.94 0.14,1.5 0.14,0.58 0.56,0.9 0.42,0.32 1.24,0.46 0.84,0.14 2.22,0.2 1.24,0.06 1.72,0.42 0.48,0.36 0.48,1.28 0,0.24 -0.06,0.6 -0.04,0.38 -0.14,0.54 z m -1.64,-6.46 q 1.44,0 2.22,-0.98 0.8,-1 0.8,-2.72 0,-2.06 -0.82,-3.06 -0.8,-1.02 -2.34,-1.02 -2.74,0 -2.74,3.96 v 2.84 q 0.58,0.5 1.32,0.74 0.76,0.24 1.56,0.24 z"
     id="path556" /></g>
    <g
   aria-label="ϑ"
   id="text253"
   style="font-size:20px;line-height:0%;font-family:'Linux Libertine';text-align:center;text-anchor:middle;display:inline;fill:#111111;stroke-width:1.25"
   class="key"><path
     d="m 287.23001,0.2 q -1.42,0 -2.24,-0.5 -0.8,-0.52 -1.12,-1.32 -0.32,-0.82 -0.32,-1.72 0,-0.82 0.14,-1.58 0.14,-0.78 0.14,-1.28 0,-0.46 -0.18,-0.62 -0.16,-0.18 -0.48,-0.18 -0.24,0 -0.5,0.08 -0.24,0.08 -0.4,0.18 l -0.38,-1.24 q 0.36,-0.16 0.84,-0.28 0.5,-0.14 1.02,-0.14 1,0 1.38,0.52 0.4,0.52 0.4,1.3 0,0.68 -0.14,1.5 -0.14,0.8 -0.14,1.7 0,0.84 0.46,1.5 0.48,0.66 1.58,0.66 1.78,0 2.7,-1.46 0.92,-1.48 0.92,-4.44 0,-0.22 -0.02,-0.5 0,-0.3 -0.02,-0.5 -2.48,-0.04 -3.98,-0.6 -1.5,-0.56 -2.18,-1.5 -0.66,-0.94 -0.66,-2.1 0,-1.26 0.82,-2.12 0.84,-0.86 2.66,-0.86 2.2,0 3.42,1.54 1.22,1.54 1.58,4.18 h 1.4 v 1.46 h -1.28 q 0.02,0.22 0.02,0.5 0.02,0.26 0.02,0.56 0,2.1 -0.6,3.74 -0.58,1.64 -1.8,2.58 -1.2,0.94 -3.06,0.94 z m 3.52,-9.78 q -0.26,-2.06 -1.14,-3.16 -0.88,-1.12 -2.14,-1.12 -0.86,0 -1.3,0.44 -0.42,0.44 -0.42,1.2 0,0.74 0.48,1.34 0.48,0.58 1.58,0.94 1.1,0.34 2.94,0.36 z"
     id="path559" /></g>
    <g
   aria-label="κ"
   id="text255"
   style="font-size:20px;line-height:0%;font-family:'Linux Libertine';text-align:center;text-anchor:middle;display:inline;fill:#111111;stroke-width:1.25"
   class="key"><path
     d="m 328.84,-10.72 -4.06,4.74 4.38,5.98 h -2.1 l -3.52,-4.84 -1.32,1.08 V 0 h -1.86 v -10.72 h 1.86 v 2.78 q 0,0.8 -0.04,1.56 -0.04,0.76 -0.08,1.16 h 0.04 q 0.18,-0.26 0.38,-0.52 0.22,-0.28 0.4,-0.5 l 3.8,-4.48 z"
     id="path562" /></g>
</g>


<g
   transform="translate(561,26)"
   id="g267">
    <g
   aria-label="≈"
   id="text259"
   style="font-size:20px;line-height:0%;font-family:'Linux Libertine';text-align:center;text-anchor:middle;display:inline;fill:#111111;stroke-width:1.25"
   class="key"><path
     d="m 6.2597656,-6.0839844 v 1.7480469 q -1.0253906,0.7617187 -1.9042969,1.1035156 -0.8691406,0.3320313 -1.8164062,0.3320313 -1.0742188,0 -2.5,-0.5761719 -0.09765625,-0.039063 -0.16601562,-0.068359 -0.0585938,-0.019531 -0.20507813,-0.078125 Q -1.8457031,-4.21875 -2.7636719,-4.21875 q -0.859375,0 -1.6992187,0.3710937 -0.8398438,0.3710938 -1.796875,1.1914063 v -1.7480469 q 1.0253906,-0.7617187 1.8945312,-1.09375 0.8789063,-0.3417968 1.8261719,-0.3417968 1.0742188,0 2.50976562,0.5761718 0.10742188,0.048828 0.15625,0.068359 0.0585938,0.019531 0.20507813,0.078125 1.51367185,0.5957031 2.43164065,0.5957031 0.8398437,0 1.6601562,-0.3613281 0.8300781,-0.3710937 1.8359375,-1.2011719 z m 0,-3.7988281 v 1.7382812 Q 5.234375,-7.3730469 4.3554687,-7.03125 q -0.8691406,0.3320313 -1.8164062,0.3320313 -1.0742188,0 -2.5,-0.5761719 -0.09765625,-0.039063 -0.16601562,-0.068359 -0.0585938,-0.019531 -0.20507813,-0.078125 -1.51367185,-0.5957031 -2.43164065,-0.5957031 -0.859375,0 -1.6992187,0.3710937 -0.8398438,0.3710938 -1.796875,1.1816407 V -8.203125 q 1.0253906,-0.7617188 1.8945312,-1.09375 0.8789063,-0.3417969 1.8261719,-0.3417969 1.0742188,0 2.50976562,0.5761719 0.09765625,0.039063 0.14648438,0.058594 0.0683594,0.029297 0.21484375,0.087891 1.51367185,0.5957031 2.43164065,0.5957031 0.8398437,0 1.6601562,-0.3613281 0.8300781,-0.3710938 1.8359375,-1.2011719 z"
     id="path565" /></g>
    <g
   aria-label="⌀"
   id="text261"
   style="font-size:20px;line-height:0%;font-family:'Linux Libertine';text-align:center;text-anchor:middle;display:inline;fill:#111111;stroke-width:1.25"
   class="key"><path
     d="m 35.995117,-10.224609 q 1.816406,0 3.212891,1.1035152 l 1.142578,-1.1523442 0.966797,0.9667974 -1.152344,1.1523437 q 1.074219,1.3769532 1.074219,3.1933594 0,2.1582031 -1.542969,3.7011719 -1.542969,1.54296873 -3.701172,1.54296873 -1.796875,0 -3.173828,-1.08398438 L 31.668945,0.3515625 30.702148,-0.61523437 31.844727,-1.7675781 q -1.083985,-1.3769532 -1.083985,-3.1933594 0,-2.1777344 1.542969,-3.7207031 1.542969,-1.5429684 3.691406,-1.5429684 z m 2.226563,2.0800777 q -0.976563,-0.703125 -2.226563,-0.703125 -1.582031,0 -2.724609,1.1425782 -1.132813,1.1328125 -1.132813,2.7441406 0,1.25 0.69336,2.2167969 z m -4.423828,6.3574219 q 0.966796,0.6933594 2.197265,0.6933594 1.591797,0 2.72461,-1.1328125 1.142578,-1.1425781 1.142578,-2.734375 0,-1.25 -0.673828,-2.2070312 z"
     id="path568" /></g>
    <g
   aria-label="⊙"
   id="text263"
   style="font-size:20px;line-height:0%;font-family:'Linux Libertine';text-align:center;text-anchor:middle;display:inline;fill:#111111;stroke-width:1.25"
   class="key"><path
     d="m 70.964844,-7.5097656 h 2.070312 v 2.4804687 h -2.070312 z m 2.988281,-3.4960934 Q 73.044922,-11.386719 72,-11.386719 q -1.044922,0 -1.953125,0.38086 -0.898438,0.380859 -1.640625,1.1230465 -0.751953,0.7519531 -1.123047,1.6503906 -0.371094,0.8984375 -0.371094,1.9628907 0,1.0351562 0.371094,1.9335937 0.371094,0.8984375 1.123047,1.6503906 0.742187,0.7421875 1.640625,1.1230469 0.908203,0.3808594 1.953125,0.3808594 1.044922,0 1.953125,-0.3808594 0.898437,-0.3808594 1.640625,-1.1230469 0.751953,-0.7519531 1.123047,-1.6503906 0.371094,-0.8984375 0.371094,-1.9335937 0,-1.0644532 -0.371094,-1.9628907 Q 76.345703,-9.1308594 75.59375,-9.8828125 74.851562,-10.625 73.953125,-11.005859 Z m -4.462891,-1.357422 q 1.16211,-0.488282 2.509766,-0.488282 1.347656,0 2.509766,0.488282 1.162109,0.488281 2.11914,1.445312 0.966797,0.9667971 1.445313,2.1289065 0.478515,1.1523438 0.478515,2.5195313 0,1.3378906 -0.478515,2.4999999 -0.478516,1.1523438 -1.445313,2.1191407 -0.957031,0.95703123 -2.11914,1.44531247 Q 73.347656,0.28320313 72,0.28320313 q -1.347656,0 -2.509766,-0.48828126 -1.162109,-0.48828124 -2.11914,-1.44531247 -0.966797,-0.9667969 -1.445313,-2.1191407 -0.478515,-1.1621093 -0.478515,-2.4999999 0,-1.3671875 0.478515,-2.5195313 0.478516,-1.1621094 1.445313,-2.1289065 0.957031,-0.957031 2.11914,-1.445312 z"
     id="path571" /></g>
    <g
   aria-label="⊖"
   id="text265"
   style="font-size:20px;line-height:0%;font-family:'Linux Libertine';text-align:center;text-anchor:middle;display:inline;fill:#111111;stroke-width:1.25"
   class="key"><path
     d="m 103.69336,-7.0996094 h 8.61328 v 1.6601563 h -8.61328 z m 6.25977,-3.9062496 q -0.90821,-0.38086 -1.95313,-0.38086 -1.04492,0 -1.95312,0.38086 -0.89844,0.380859 -1.64063,1.1230465 -0.75195,0.7519531 -1.12305,1.6503906 -0.37109,0.8984375 -0.37109,1.9628907 0,1.0351562 0.37109,1.9335937 0.3711,0.8984375 1.12305,1.6503906 0.74219,0.7421875 1.64063,1.1230469 0.9082,0.3808594 1.95312,0.3808594 1.04492,0 1.95313,-0.3808594 0.89843,-0.3808594 1.64062,-1.1230469 0.75195,-0.7519531 1.12305,-1.6503906 0.37109,-0.8984375 0.37109,-1.9335937 0,-1.0644532 -0.37109,-1.9628907 -0.3711,-0.8984375 -1.12305,-1.6503906 -0.74219,-0.7421875 -1.64062,-1.1230465 z m -4.4629,-1.357422 q 1.16211,-0.488282 2.50977,-0.488282 1.34766,0 2.50977,0.488282 1.16211,0.488281 2.11914,1.445312 0.96679,0.9667971 1.44531,2.1289065 0.47851,1.1523438 0.47851,2.5195313 0,1.3378906 -0.47851,2.4999999 -0.47852,1.1523438 -1.44531,2.1191407 -0.95703,0.95703123 -2.11914,1.44531247 -1.16211,0.48828126 -2.50977,0.48828126 -1.34766,0 -2.50977,-0.48828126 -1.1621,-0.48828124 -2.11914,-1.44531247 -0.96679,-0.9667969 -1.44531,-2.1191407 -0.47851,-1.1621093 -0.47851,-2.4999999 0,-1.3671875 0.47851,-2.5195313 0.47852,-1.1621094 1.44531,-2.1289065 0.95704,-0.957031 2.11914,-1.445312 z"
     id="path574" /></g>
</g>
<g
   transform="translate(561,62)"
   id="g275">
    <g
   aria-label="≪"
   id="text269"
   style="font-size:20px;line-height:0%;font-family:'Linux Libertine';text-align:center;text-anchor:middle;display:inline;fill:#111111;stroke-width:1.25"
   class="key"><path
     d="m 9.0234375,-10.166016 -8.06640625,3.9062504 8.06640625,3.8867187 v 1.92382815 L -1.5039062,-5.5273437 V -7.0800781 L 9.0234375,-12.177734 Z m -7.5195313,0 -8.0664062,3.9062504 8.0664062,3.8867187 v 1.92382815 L -9.0234375,-5.5273437 V -7.0800781 L 1.5039062,-12.177734 Z"
     id="path577" /></g>
    <g
   aria-label="∩"
   id="text271"
   style="font-size:20px;line-height:0%;font-family:'Linux Libertine';text-align:center;text-anchor:middle;display:inline;fill:#111111;stroke-width:1.25"
   class="key"><path
     d="m 31.258789,-5.78125 q 0,-2.890625 1.191406,-4.345703 1.201172,-1.455078 3.554688,-1.455078 2.34375,0 3.535156,1.455078 1.201172,1.455078 1.201172,4.345703 V 0 h -1.679688 v -5.5371094 q 0,-2.3828125 -0.722656,-3.4082031 -0.722656,-1.0351563 -2.333984,-1.0351563 -1.621094,0 -2.34375,1.0351563 -0.722656,1.0253906 -0.722656,3.4082031 V 0 h -1.679688 z"
     id="path580" /></g>
    <g
   aria-label="≫"
   id="text273"
   style="font-size:20px;line-height:0%;font-family:'Linux Libertine';text-align:center;text-anchor:middle;display:inline;fill:#111111;stroke-width:1.25"
   class="key"><path
     d="m 62.976562,-10.166016 v -2.011718 l 10.527344,5.0976559 v 1.5527344 L 62.976562,-0.44921875 V -2.3730469 l 8.066407,-3.8867187 z m 7.519532,0 v -2.011718 l 10.527343,5.0976559 v 1.5527344 L 70.496094,-0.44921875 V -2.3730469 L 78.5625,-6.2597656 Z"
     id="path583" /></g>
</g>
<g
   transform="translate(561,98)"
   id="g283">
    <g
   aria-label="⊂"
   id="text277"
   style="font-size:20px;line-height:0%;font-family:'Linux Libertine';text-align:center;text-anchor:middle;display:inline;fill:#111111;stroke-width:1.25"
   class="key"><path
     d="M 6.3867187,-1.5917969 H -1.71875 q -1.9726563,0 -3.3203125,-1.3574219 -1.3476562,-1.3574218 -1.3476562,-3.3105468 0,-1.9335938 1.3476562,-3.3105469 1.3476562,-1.3574215 3.3007813,-1.3574215 h 8.1249999 v 1.4648434 h -8.1249999 q -1.3281251,0 -2.2558594,0.9375 -0.9277344,0.9375 -0.9277344,2.265625 0,1.3476562 0.9179688,2.265625 0.9374999,0.9375 2.265625,0.9375 h 8.1249999 z"
     id="path586" /></g>
    <g
   aria-label="⊶"
   id="text279"
   style="font-size:20px;line-height:0%;font-family:'Linux Libertine';text-align:center;text-anchor:middle;display:inline;fill:#111111;stroke-width:1.25"
   class="key"><path
     d="m 40.052734,-8.2714844 q 0.810547,-0.8105469 1.953125,-0.8105469 1.152344,0 1.982422,0.8203125 0.830078,0.8203126 0.830078,1.9921876 0,1.1621093 -0.820312,1.9628906 -0.810547,0.8007812 -1.992188,0.8007812 -1.18164,0 -1.972656,-0.7910156 -0.498047,-0.4980469 -0.683594,-1.1523437 h -6.708984 q -0.195313,0.6445312 -0.693359,1.1425781 -0.820313,0.8007812 -2.001954,0.8007812 -1.18164,0 -1.972656,-0.7910156 -0.791015,-0.7910156 -0.791015,-1.9726562 0,-1.1816407 0.810546,-1.9921876 0.810547,-0.8203125 1.953125,-0.8203125 1.152344,0 2.001954,0.8300782 0.507812,0.5078125 0.693359,1.1621094 h 6.708984 q 0.195313,-0.6640625 0.703125,-1.1816407 z m -9.140625,1.0546875 q -0.390625,-0.4003906 -0.947265,-0.4003906 -0.556641,0 -0.947266,0.390625 -0.380859,0.390625 -0.380859,0.9472656 0,0.5566407 0.380859,0.9472657 0.390625,0.3808593 0.947266,0.3808593 0.566406,0 0.947265,-0.3808593 0.390625,-0.390625 0.390625,-0.9375 0,-0.5566407 -0.390625,-0.9472657 z"
     id="path589" /></g>
    <g
   aria-label="⊃"
   id="text281"
   style="font-size:20px;line-height:0%;font-family:'Linux Libertine';text-align:center;text-anchor:middle;display:inline;fill:#111111;stroke-width:1.25"
   class="key"><path
     d="m 65.613281,-1.5917969 v -1.4648437 h 8.125 q 1.328125,0 2.265625,-0.9375 0.917969,-0.9179688 0.917969,-2.265625 0,-1.328125 -0.927734,-2.265625 -0.927735,-0.9375 -2.25586,-0.9375 h -8.125 v -1.4648434 h 8.125 q 1.953125,0 3.300781,1.3574215 1.347657,1.3769531 1.347657,3.3105469 0,1.953125 -1.347657,3.3105468 -1.347656,1.3574219 -3.320312,1.3574219 z"
     id="path592" /></g>
</g>
<g
   transform="translate(561,134)"
   id="g291">
    <g
   aria-label="≤"
   id="text285"
   style="font-size:20px;line-height:0%;font-family:'Linux Libertine';text-align:center;text-anchor:middle;display:inline;fill:#111111;stroke-width:1.25"
   class="key"><path
     d="m 6.2597656,-9.921875 -9.375,2.7050781 9.375,2.6757813 v 1.7382812 l -12.5195312,-3.59375 V -8.0566406 L 6.2597656,-11.640625 Z M -6.2597656,-1.6601562 H 6.2597656 V 0 H -6.2597656 Z"
     id="path595" /></g>
    <g
   aria-label="∪"
   id="text287"
   style="font-size:20px;line-height:0%;font-family:'Linux Libertine';text-align:center;text-anchor:middle;display:inline;fill:#111111;stroke-width:1.25"
   class="key"><path
     d="m 31.258789,-5.8007812 v -5.7812498 h 1.679688 v 5.5371091 q 0,2.3828125 0.722656,3.4179688 0.722656,1.0253906 2.34375,1.0253906 1.611328,0 2.333984,-1.0253906 0.722656,-1.0351563 0.722656,-3.4179688 v -5.5371091 h 1.679688 v 5.7812498 q 0,2.8906249 -1.201172,4.3457031 Q 38.348633,0 36.004883,0 33.651367,0 32.450195,-1.4550781 31.258789,-2.9101563 31.258789,-5.8007812 Z"
     id="path598" /></g>
    <g
   aria-label="≥"
   id="text289"
   style="font-size:20px;line-height:0%;font-family:'Linux Libertine';text-align:center;text-anchor:middle;display:inline;fill:#111111;stroke-width:1.25"
   class="key"><path
     d="m 65.740234,-9.921875 v -1.71875 l 12.519532,3.5839844 v 1.6601562 l -12.519532,3.59375 V -4.5410156 L 75.125,-7.2167969 Z m 12.519532,8.2617188 V 0 H 65.740234 v -1.6601562 z"
     id="path601" /></g>
</g>
<g
   transform="translate(561,170)"
   id="g297">
    <g
   aria-label="‰"
   id="text293"
   style="font-size:20px;line-height:0%;font-family:'Linux Libertine';text-align:center;text-anchor:middle;display:inline;fill:#111111;stroke-width:1.25"
   class="key"><path
     d="m 10.13,-14.48 q 1.48,0 2.24,1.18 0.76,1.16 0.76,3.28 0,2.12 -0.74,3.32 -0.72,1.18 -2.26,1.18 -1.4200005,0 -2.1800005,-1.18 -0.74,-1.2 -0.74,-3.32 0,-2.12 0.7,-3.28 0.7,-1.18 2.2200005,-1.18 z m 9.14,0.2 L 11.35,0 H 9.8099995 L 17.73,-14.28 Z m -9.14,1.04 q -0.7600005,0 -1.1200005,0.82 -0.34,0.8 -0.34,2.4 0,1.6 0.34,2.42 0.36,0.82 1.1200005,0.82 1.54,0 1.54,-3.24 0,-3.22 -1.54,-3.22 z m 8.74,4.48 q 1.46,0 2.22,1.18 0.78,1.16 0.78,3.28 0,2.12 -0.74,3.32 -0.72,1.18 -2.26,1.18 -1.42,0 -2.18,-1.18 -0.74,-1.2 -0.74,-3.32 0,-2.12 0.7,-3.28 0.7,-1.18 2.22,-1.18 z m 6.92,0 q 1.46,0 2.22,1.18 0.78,1.16 0.78,3.28 0,2.12 -0.74,3.32 -0.72,1.18 -2.26,1.18 -1.42,0 -2.18,-1.18 -0.74,-1.2 -0.74,-3.32 0,-2.12 0.7,-3.28 0.7,-1.18 2.22,-1.18 z m -6.92,1.26 q -0.76,0 -1.12,0.8 -0.34,0.8 -0.34,2.4 0,1.62 0.34,2.44 0.36,0.8 1.12,0.8 1.54,0 1.54,-3.24 0,-3.2 -1.54,-3.2 z m 6.92,0 q -0.76,0 -1.12,0.8 -0.34,0.8 -0.34,2.4 0,1.62 0.34,2.44 0.36,0.8 1.12,0.8 1.54,0 1.54,-3.24 0,-3.2 -1.54,-3.2 z"
     id="path604" /></g>
    <g
   aria-label="′"
   id="text295"
   style="font-size:20px;line-height:0%;font-family:'Linux Libertine';text-align:center;text-anchor:middle;display:inline;fill:#111111;stroke-width:1.25"
   class="key"><path
     d="m 73.039996,-14.28 h 1.8 l -3.22,5.16 h -1.16 z"
     id="path607" /></g>
</g>

<g
   transform="translate(561,78)"
   id="g301">
    <g
   aria-label="⊕"
   id="text299"
   style="font-size:20px;line-height:0%;font-family:'Linux Libertine';text-align:center;text-anchor:middle;display:inline;fill:#111111;stroke-width:1.25"
   class="key"><path
     d="m 109.95313,-11.005859 q -0.90821,-0.38086 -1.95313,-0.38086 -1.04492,0 -1.95312,0.38086 -0.89844,0.380859 -1.64063,1.1230465 -0.75195,0.7519531 -1.12305,1.6503906 -0.37109,0.8984375 -0.37109,1.9628907 0,1.0351562 0.37109,1.9335937 0.3711,0.8984375 1.12305,1.6503906 0.74219,0.7421875 1.64063,1.1230469 0.9082,0.3808594 1.95312,0.3808594 1.04492,0 1.95313,-0.3808594 0.89843,-0.3808594 1.64062,-1.1230469 0.75195,-0.7519531 1.12305,-1.6503906 0.37109,-0.8984375 0.37109,-1.9335937 0,-1.0644532 -0.37109,-1.9628907 -0.3711,-0.8984375 -1.12305,-1.6503906 -0.74219,-0.7421875 -1.64062,-1.1230465 z m -4.4629,-1.357422 q 1.16211,-0.488282 2.50977,-0.488282 1.34766,0 2.50977,0.488282 1.16211,0.488281 2.11914,1.445312 0.96679,0.9667971 1.44531,2.1289065 0.47851,1.1523438 0.47851,2.5195313 0,1.3378906 -0.47851,2.4999999 -0.47852,1.1523438 -1.44531,2.1191407 -0.95703,0.95703123 -2.11914,1.44531247 -1.16211,0.48828126 -2.50977,0.48828126 -1.34766,0 -2.50977,-0.48828126 -1.1621,-0.48828124 -2.11914,-1.44531247 -0.96679,-0.9667969 -1.44531,-2.1191407 -0.47851,-1.1621093 -0.47851,-2.4999999 0,-1.3671875 0.47851,-2.5195313 0.47852,-1.1621094 1.44531,-2.1289065 0.95704,-0.957031 2.11914,-1.445312 z m 3.33985,1.777343 v 3.4863286 h 3.47656 v 1.6601563 h -3.47656 v 3.4863281 h -1.66016 v -3.4863281 h -3.47656 v -1.6601563 h 3.47656 v -3.4863286 z"
     id="path610" /></g>
</g>
<g
   transform="translate(561,150)"
   id="g305">
    <g
   aria-label="⏎"
   id="text303"
   style="font-size:20px;line-height:0%;font-family:'Linux Libertine';text-align:center;text-anchor:middle;display:inline;fill:#111111;stroke-width:1.25"
   class="key"><path
     d="m 105.11914,-1.3085937 -4.96094,-4.9609375 4.96094,-4.9609378 v 2.6660159 h 5.53711 v -6.0156249 h 4.58984 l -0.01,10.6054686 h -10.11719 z m -0.97656,-6.2792969 v -1.2792969 l -2.59766,2.5976563 2.59766,2.5976562 v -1.2792969 h 10.11719 l 0.01,-8.6523441 h -2.63672 l -0.01,6.0156254 z"
     id="path613" /></g>
</g>

<g
   aria-label="◌˞"
   id="t1"
   style="font-size:20px;line-height:0%;font-family:'Gentium Plus Compact';text-align:center;text-anchor:middle;display:inline;fill:#111111"
   class="dead"><path
     d="m 17.539998,15.2 q 0.22,0 0.36,0.16 0.16,0.14 0.16,0.36 0,0.2 -0.16,0.36 -0.14,0.16 -0.36,0.16 -0.2,0 -0.36,-0.16 -0.16,-0.16 -0.16,-0.36 0,-0.22 0.16,-0.36 0.16,-0.16 0.36,-0.16 z m -1.68,0.36 q 0.22,0 0.36,0.16 0.16,0.14 0.16,0.36 0,0.2 -0.16,0.36 -0.14,0.16 -0.36,0.16 -0.2,0 -0.36,-0.16 -0.16,-0.16 -0.16,-0.36 0,-0.22 0.16,-0.36 0.16,-0.16 0.36,-0.16 z m 3.36,0 q 0.22,0 0.36,0.16 0.16,0.14 0.16,0.36 0,0.2 -0.16,0.36 -0.14,0.16 -0.36,0.16 -0.2,0 -0.36,-0.16 -0.16,-0.16 -0.16,-0.36 0,-0.22 0.16,-0.36 0.16,-0.16 0.36,-0.16 z m -5.36,1.46 q 0,-0.22 0.16,-0.36 0.16,-0.16 0.36,-0.16 0.22,0 0.36,0.16 0.16,0.14 0.16,0.36 0,0.2 -0.16,0.36 -0.14,0.16 -0.36,0.16 -0.2,0 -0.36,-0.16 -0.16,-0.16 -0.16,-0.36 z m 6.32,0 q 0,-0.22 0.16,-0.36 0.16,-0.16 0.36,-0.16 0.22,0 0.36,0.16 0.16,0.14 0.16,0.36 0,0.2 -0.16,0.36 -0.14,0.16 -0.36,0.16 -0.2,0 -0.36,-0.16 -0.16,-0.16 -0.16,-0.36 z m -7.26,1.48 q 0,-0.22 0.16,-0.36 0.16,-0.16 0.36,-0.16 0.22,0 0.36,0.16 0.16,0.14 0.16,0.36 0,0.2 -0.16,0.36 -0.14,0.16 -0.36,0.16 -0.2,0 -0.36,-0.16 -0.16,-0.16 -0.16,-0.36 z m 8.2,0 q 0,-0.22 0.16,-0.36 0.16,-0.16 0.36,-0.16 0.22,0 0.36,0.16 0.16,0.14 0.16,0.36 0,0.2 -0.16,0.36 -0.14,0.16 -0.36,0.16 -0.2,0 -0.36,-0.16 -0.16,-0.16 -0.16,-0.36 z m -8.56,1.68 q 0,-0.22 0.16,-0.36 0.16,-0.16 0.36,-0.16 0.22,0 0.36,0.16 0.16,0.14 0.16,0.36 0,0.2 -0.16,0.36 -0.14,0.16 -0.36,0.16 -0.2,0 -0.36,-0.16 -0.16,-0.16 -0.16,-0.36 z m 8.92,0 q 0,-0.22 0.16,-0.36 0.16,-0.16 0.36,-0.16 0.22,0 0.36,0.16 0.16,0.14 0.16,0.36 0,0.2 -0.16,0.36 -0.14,0.16 -0.36,0.16 -0.2,0 -0.36,-0.16 -0.16,-0.16 -0.16,-0.36 z m -8.56,1.68 q 0,-0.22 0.16,-0.36 0.16,-0.16 0.36,-0.16 0.22,0 0.36,0.16 0.16,0.14 0.16,0.36 0,0.2 -0.16,0.36 -0.14,0.16 -0.36,0.16 -0.2,0 -0.36,-0.16 -0.16,-0.16 -0.16,-0.36 z m 8.2,0 q 0,-0.22 0.16,-0.36 0.16,-0.16 0.36,-0.16 0.22,0 0.36,0.16 0.16,0.14 0.16,0.36 0,0.2 -0.16,0.36 -0.14,0.16 -0.36,0.16 -0.2,0 -0.36,-0.16 -0.16,-0.16 -0.16,-0.36 z m -7.26,1.48 q 0,-0.22 0.16,-0.36 0.16,-0.16 0.36,-0.16 0.22,0 0.36,0.16 0.16,0.14 0.16,0.36 0,0.2 -0.16,0.36 -0.14,0.16 -0.36,0.16 -0.2,0 -0.36,-0.16 -0.16,-0.16 -0.16,-0.36 z m 6.32,0 q 0,-0.22 0.16,-0.36 0.16,-0.16 0.36,-0.16 0.22,0 0.36,0.16 0.16,0.14 0.16,0.36 0,0.2 -0.16,0.36 -0.14,0.16 -0.36,0.16 -0.2,0 -0.36,-0.16 -0.16,-0.16 -0.16,-0.36 z m -4.32,0.42 q 0.22,0 0.36,0.16 0.16,0.14 0.16,0.36 0,0.2 -0.16,0.36 -0.14,0.16 -0.36,0.16 -0.2,0 -0.36,-0.16 -0.16,-0.16 -0.16,-0.36 0,-0.22 0.16,-0.36 0.16,-0.16 0.36,-0.16 z m 3.36,0 q 0.22,0 0.36,0.16 0.16,0.14 0.16,0.36 0,0.2 -0.16,0.36 -0.14,0.16 -0.36,0.16 -0.2,0 -0.36,-0.16 -0.16,-0.16 -0.16,-0.36 0,-0.22 0.16,-0.36 0.16,-0.16 0.36,-0.16 z m -1.68,0.36 q 0.22,0 0.36,0.16 0.16,0.14 0.16,0.36 0,0.2 -0.16,0.36 -0.14,0.16 -0.36,0.16 -0.2,0 -0.36,-0.16 -0.16,-0.16 -0.16,-0.36 0,-0.22 0.16,-0.36 0.16,-0.16 0.36,-0.16 z"
     id="path616" /><path
     d="m 26.079996,22.6 q -0.8,0 -1.46,-0.56 -0.64,-0.56 -1.06,-1.96 l -1.96,0.5 -0.36,-1.36 3.56,-0.92 0.34,1.2 q 0.26,0.88 0.56,1.22 0.3,0.34 0.72,0.34 0.4,0 0.82,-0.14 0.42,-0.16 0.8,-0.4 l 0.36,1.32 q -0.48,0.32 -1.08,0.54 -0.6,0.22 -1.24,0.22 z"
     id="path618" /></g>
<g
   aria-label="◌̔"
   id="t2"
   style="font-size:20px;line-height:0%;font-family:'Gentium Plus Compact';text-align:center;text-anchor:middle;display:inline;fill:#111111"
   class="dead"><path
     d="m 452,15.2 q 0.22,0 0.36,0.16 0.16,0.14 0.16,0.36 0,0.2 -0.16,0.36 -0.14,0.16 -0.36,0.16 -0.2,0 -0.36,-0.16 -0.16,-0.16 -0.16,-0.36 0,-0.22 0.16,-0.36 0.16,-0.16 0.36,-0.16 z m -1.68,0.36 q 0.22,0 0.36,0.16 0.16,0.14 0.16,0.36 0,0.2 -0.16,0.36 -0.14,0.16 -0.36,0.16 -0.2,0 -0.36,-0.16 -0.16,-0.16 -0.16,-0.36 0,-0.22 0.16,-0.36 0.16,-0.16 0.36,-0.16 z m 3.36,0 q 0.22,0 0.36,0.16 0.16,0.14 0.16,0.36 0,0.2 -0.16,0.36 -0.14,0.16 -0.36,0.16 -0.2,0 -0.36,-0.16 -0.16,-0.16 -0.16,-0.36 0,-0.22 0.16,-0.36 0.16,-0.16 0.36,-0.16 z m -5.36,1.46 q 0,-0.22 0.16,-0.36 0.16,-0.16 0.36,-0.16 0.22,0 0.36,0.16 0.16,0.14 0.16,0.36 0,0.2 -0.16,0.36 -0.14,0.16 -0.36,0.16 -0.2,0 -0.36,-0.16 -0.16,-0.16 -0.16,-0.36 z m 6.32,0 q 0,-0.22 0.16,-0.36 0.16,-0.16 0.36,-0.16 0.22,0 0.36,0.16 0.16,0.14 0.16,0.36 0,0.2 -0.16,0.36 -0.14,0.16 -0.36,0.16 -0.2,0 -0.36,-0.16 -0.16,-0.16 -0.16,-0.36 z m -7.26,1.48 q 0,-0.22 0.16,-0.36 0.16,-0.16 0.36,-0.16 0.22,0 0.36,0.16 0.16,0.14 0.16,0.36 0,0.2 -0.16,0.36 -0.14,0.16 -0.36,0.16 -0.2,0 -0.36,-0.16 -0.16,-0.16 -0.16,-0.36 z m 8.2,0 q 0,-0.22 0.16,-0.36 0.16,-0.16 0.36,-0.16 0.22,0 0.36,0.16 0.16,0.14 0.16,0.36 0,0.2 -0.16,0.36 -0.14,0.16 -0.36,0.16 -0.2,0 -0.36,-0.16 -0.16,-0.16 -0.16,-0.36 z m -8.56,1.68 q 0,-0.22 0.16,-0.36 0.16,-0.16 0.36,-0.16 0.22,0 0.36,0.16 0.16,0.14 0.16,0.36 0,0.2 -0.16,0.36 -0.14,0.16 -0.36,0.16 -0.2,0 -0.36,-0.16 -0.16,-0.16 -0.16,-0.36 z m 8.92,0 q 0,-0.22 0.16,-0.36 0.16,-0.16 0.36,-0.16 0.22,0 0.36,0.16 0.16,0.14 0.16,0.36 0,0.2 -0.16,0.36 -0.14,0.16 -0.36,0.16 -0.2,0 -0.36,-0.16 -0.16,-0.16 -0.16,-0.36 z m -8.56,1.68 q 0,-0.22 0.16,-0.36 0.16,-0.16 0.36,-0.16 0.22,0 0.36,0.16 0.16,0.14 0.16,0.36 0,0.2 -0.16,0.36 -0.14,0.16 -0.36,0.16 -0.2,0 -0.36,-0.16 -0.16,-0.16 -0.16,-0.36 z m 8.2,0 q 0,-0.22 0.16,-0.36 0.16,-0.16 0.36,-0.16 0.22,0 0.36,0.16 0.16,0.14 0.16,0.36 0,0.2 -0.16,0.36 -0.14,0.16 -0.36,0.16 -0.2,0 -0.36,-0.16 -0.16,-0.16 -0.16,-0.36 z m -7.26,1.48 q 0,-0.22 0.16,-0.36 0.16,-0.16 0.36,-0.16 0.22,0 0.36,0.16 0.16,0.14 0.16,0.36 0,0.2 -0.16,0.36 -0.14,0.16 -0.36,0.16 -0.2,0 -0.36,-0.16 -0.16,-0.16 -0.16,-0.36 z m 6.32,0 q 0,-0.22 0.16,-0.36 0.16,-0.16 0.36,-0.16 0.22,0 0.36,0.16 0.16,0.14 0.16,0.36 0,0.2 -0.16,0.36 -0.14,0.16 -0.36,0.16 -0.2,0 -0.36,-0.16 -0.16,-0.16 -0.16,-0.36 z m -4.32,0.42 q 0.22,0 0.36,0.16 0.16,0.14 0.16,0.36 0,0.2 -0.16,0.36 -0.14,0.16 -0.36,0.16 -0.2,0 -0.36,-0.16 -0.16,-0.16 -0.16,-0.36 0,-0.22 0.16,-0.36 0.16,-0.16 0.36,-0.16 z m 3.36,0 q 0.22,0 0.36,0.16 0.16,0.14 0.16,0.36 0,0.2 -0.16,0.36 -0.14,0.16 -0.36,0.16 -0.2,0 -0.36,-0.16 -0.16,-0.16 -0.16,-0.36 0,-0.22 0.16,-0.36 0.16,-0.16 0.36,-0.16 z M 452,24.12 q 0.22,0 0.36,0.16 0.16,0.14 0.16,0.36 0,0.2 -0.16,0.36 -0.14,0.16 -0.36,0.16 -0.2,0 -0.36,-0.16 -0.16,-0.16 -0.16,-0.36 0,-0.22 0.16,-0.36 0.16,-0.16 0.36,-0.16 z"
     id="path621" /><path
     d="m 452.51999,8.9200122 q 0.1,0.7 0.26,1.5599998 0.16,0.84 0.36,1.72 0.2,0.86 0.38,1.62 h -1.3 q -0.5,-1.06 -0.98,-2.34 -0.48,-1.3 -0.76,-2.3399998 l 0.14,-0.22 z"
     id="path623" /></g>

<g
   aria-label="◌̓"
   id="t3"
   style="font-size:20px;line-height:0%;font-family:'Gentium Plus Compact';text-align:center;text-anchor:middle;display:inline;fill:#111111"
   class="dead"><path
     d="m 480,87.2 q 0.22,0 0.36,0.16 0.16,0.14 0.16,0.36 0,0.2 -0.16,0.36 -0.14,0.16 -0.36,0.16 -0.2,0 -0.36,-0.16 -0.16,-0.16 -0.16,-0.36 0,-0.22 0.16,-0.36 0.16,-0.16 0.36,-0.16 z m -1.68,0.36 q 0.22,0 0.36,0.16 0.16,0.14 0.16,0.36 0,0.2 -0.16,0.36 -0.14,0.16 -0.36,0.16 -0.2,0 -0.36,-0.16 -0.16,-0.16 -0.16,-0.36 0,-0.22 0.16,-0.36 0.16,-0.16 0.36,-0.16 z m 3.36,0 q 0.22,0 0.36,0.16 0.16,0.14 0.16,0.36 0,0.2 -0.16,0.36 -0.14,0.16 -0.36,0.16 -0.2,0 -0.36,-0.16 -0.16,-0.16 -0.16,-0.36 0,-0.22 0.16,-0.36 0.16,-0.16 0.36,-0.16 z m -5.36,1.46 q 0,-0.22 0.16,-0.36 0.16,-0.16 0.36,-0.16 0.22,0 0.36,0.16 0.16,0.14 0.16,0.36 0,0.2 -0.16,0.36 -0.14,0.16 -0.36,0.16 -0.2,0 -0.36,-0.16 -0.16,-0.16 -0.16,-0.36 z m 6.32,0 q 0,-0.22 0.16,-0.36 0.16,-0.16 0.36,-0.16 0.22,0 0.36,0.16 0.16,0.14 0.16,0.36 0,0.2 -0.16,0.36 -0.14,0.16 -0.36,0.16 -0.2,0 -0.36,-0.16 -0.16,-0.16 -0.16,-0.36 z m -7.26,1.48 q 0,-0.22 0.16,-0.36 0.16,-0.16 0.36,-0.16 0.22,0 0.36,0.16 0.16,0.14 0.16,0.36 0,0.2 -0.16,0.36 -0.14,0.16 -0.36,0.16 -0.2,0 -0.36,-0.16 -0.16,-0.16 -0.16,-0.36 z m 8.2,0 q 0,-0.22 0.16,-0.36 0.16,-0.16 0.36,-0.16 0.22,0 0.36,0.16 0.16,0.14 0.16,0.36 0,0.2 -0.16,0.36 -0.14,0.16 -0.36,0.16 -0.2,0 -0.36,-0.16 -0.16,-0.16 -0.16,-0.36 z m -8.56,1.68 q 0,-0.22 0.16,-0.36 0.16,-0.16 0.36,-0.16 0.22,0 0.36,0.16 0.16,0.14 0.16,0.36 0,0.2 -0.16,0.36 -0.14,0.16 -0.36,0.16 -0.2,0 -0.36,-0.16 -0.16,-0.16 -0.16,-0.36 z m 8.92,0 q 0,-0.22 0.16,-0.36 0.16,-0.16 0.36,-0.16 0.22,0 0.36,0.16 0.16,0.14 0.16,0.36 0,0.2 -0.16,0.36 -0.14,0.16 -0.36,0.16 -0.2,0 -0.36,-0.16 -0.16,-0.16 -0.16,-0.36 z m -8.56,1.68 q 0,-0.22 0.16,-0.36 0.16,-0.16 0.36,-0.16 0.22,0 0.36,0.16 0.16,0.14 0.16,0.36 0,0.2 -0.16,0.36 -0.14,0.16 -0.36,0.16 -0.2,0 -0.36,-0.16 -0.16,-0.16 -0.16,-0.36 z m 8.2,0 q 0,-0.22 0.16,-0.36 0.16,-0.16 0.36,-0.16 0.22,0 0.36,0.16 0.16,0.14 0.16,0.36 0,0.2 -0.16,0.36 -0.14,0.16 -0.36,0.16 -0.2,0 -0.36,-0.16 -0.16,-0.16 -0.16,-0.36 z m -7.26,1.48 q 0,-0.22 0.16,-0.36 0.16,-0.16 0.36,-0.16 0.22,0 0.36,0.16 0.16,0.14 0.16,0.36 0,0.2 -0.16,0.36 -0.14,0.16 -0.36,0.16 -0.2,0 -0.36,-0.16 -0.16,-0.16 -0.16,-0.36 z m 6.32,0 q 0,-0.22 0.16,-0.36 0.16,-0.16 0.36,-0.16 0.22,0 0.36,0.16 0.16,0.14 0.16,0.36 0,0.2 -0.16,0.36 -0.14,0.16 -0.36,0.16 -0.2,0 -0.36,-0.16 -0.16,-0.16 -0.16,-0.36 z m -4.32,0.42 q 0.22,0 0.36,0.16 0.16,0.14 0.16,0.36 0,0.2 -0.16,0.36 -0.14,0.16 -0.36,0.16 -0.2,0 -0.36,-0.16 -0.16,-0.16 -0.16,-0.36 0,-0.22 0.16,-0.36 0.16,-0.16 0.36,-0.16 z m 3.36,0 q 0.22,0 0.36,0.16 0.16,0.14 0.16,0.36 0,0.2 -0.16,0.36 -0.14,0.16 -0.36,0.16 -0.2,0 -0.36,-0.16 -0.16,-0.16 -0.16,-0.36 0,-0.22 0.16,-0.36 0.16,-0.16 0.36,-0.16 z M 480,96.12 q 0.22,0 0.36,0.16 0.16,0.14 0.16,0.36 0,0.2 -0.16,0.36 -0.14,0.16 -0.36,0.16 -0.2,0 -0.36,-0.16 -0.16,-0.16 -0.16,-0.36 0,-0.22 0.16,-0.36 0.16,-0.16 0.36,-0.16 z"
     id="path626" /><path
     d="m 481.50002,81.140012 q -0.26,1.04 -0.76,2.34 -0.48,1.28 -0.96,2.34 h -1.3 q 0.2,-0.76 0.4,-1.62 0.18,-0.88 0.34,-1.72 0.16,-0.86 0.26,-1.56 h 1.88 z"
     id="path628" /></g>
<g
   aria-label="ς"
   id="text310"
   style="font-size:20px;line-height:0%;font-family:'Linux Libertine';text-align:center;text-anchor:middle;display:inline;fill:#111111;stroke-width:1.25"
   class="key"><path
     d="m 471.61,66.04 q 0.28,-0.52 0.56,-1.22 0.28,-0.7 0.28,-1.14 0,-0.68 -0.36,-0.96 -0.34,-0.28 -1.46,-0.52 -1.3,-0.3 -2.3,-0.9 -0.98,-0.6 -1.54,-1.7 -0.56,-1.1 -0.56,-2.86 0,-2.88 1.36,-4.26 1.36,-1.4 3.64,-1.4 0.8,0 1.54,0.16 0.74,0.14 1.3,0.42 l -0.54,1.46 q -0.52,-0.2 -1.08,-0.34 -0.56,-0.16 -1.22,-0.16 -1.74,0 -2.46,1.06 -0.72,1.04 -0.72,2.72 0,1.12 0.22,1.98 0.24,0.84 0.92,1.42 0.7,0.56 2.04,0.88 0.86,0.2 1.52,0.46 0.68,0.24 1.06,0.72 0.4,0.46 0.4,1.32 0,0.74 -0.26,1.5 -0.24,0.76 -0.62,1.36 z"
     id="path631" /></g>

</svg>
