<?xml version="1.0" encoding="UTF-8" standalone="no"?>
<svg
   version="1.1"
   id="Ebene_1"
   height="183"
   width="535"
   viewBox="0 0 535 183"
   enable-background="new 0 0 535 183"
   xml:space="preserve"
   inkscape:version="0.48.5 r10040"
   sodipodi:docname="noted-6-tkl.svg"
   inkscape:export-xdpi="90"
   inkscape:export-ydpi="90"
   xmlns:inkscape="http://www.inkscape.org/namespaces/inkscape"
   xmlns:sodipodi="http://sodipodi.sourceforge.net/DTD/sodipodi-0.dtd"
   xmlns:xlink="http://www.w3.org/1999/xlink"
   xmlns="http://www.w3.org/2000/svg"
   xmlns:svg="http://www.w3.org/2000/svg"
   xmlns:rdf="http://www.w3.org/1999/02/22-rdf-syntax-ns#"
   xmlns:cc="http://creativecommons.org/ns#"
   xmlns:dc="http://purl.org/dc/elements/1.1/">&#10;&#10;  <metadata
   id="metadata135">&#10;    <rdf:RDF>&#10;      <cc:Work
   rdf:about="">&#10;        <dc:format>image/svg+xml</dc:format>&#10;        <dc:type
   rdf:resource="http://purl.org/dc/dcmitype/StillImage" />&#10;        <dc:title />&#10;      </cc:Work>&#10;    </rdf:RDF>&#10;  </metadata>&#10;&#10;<defs
   id="defs">&#10;<style
   type="text/css"
   id="style46661">&#10;text.mod, text.key, text.dead {&#10;	fill:#111;&#10;	fill-opacity:1;&#10;    stroke:none;&#10;    font-style:normal;&#10;    font-variant:normal;&#10;    font-weight:normal;&#10;    font-stretch:normal;&#10;    display:inline;&#10;    font-family:DejaVu Sans;&#10;    writing-mode:lr-tb;&#10;}&#10;&#10;text.key {&#10;    font-family:Linux Libertine;&#10;}&#10;&#10;text.dead {&#10;    font-family: Gentium Plus Compact;&#10;}&#10;&#10;text.mod {&#10;    text-align:start;&#10;    text-anchor:start;&#10;}&#10;&#10;text.space, text.dead, text.center, text.key {&#10;    text-align:center;&#10;    text-anchor:middle;&#10;}&#10;&#10;text.key { font-size:20px; }&#10;text.dead { font-size:20px; }&#10;text.mod { font-size:10px; }&#10;text.big { font-size:14px; }&#10;&#10;.key {&#10;stroke-width:1.25;&#10;}&#10;&#10;.grey { fill:#949494; stroke:#696969; }&#10;.grey { fill:#9f9f9f; stroke:#747474; }&#10;&#10;.numpad { fill:#afaa9f; stroke:#747474; }&#10;&#10;/* bootstrap colors */&#10;.l5, .r5 { fill:#93CCEA; }&#10;.l4, .r4 { fill:#7abeb3; }&#10;.l3, .r3 { fill:#63b280; }&#10;.l2, .r2 { fill:#4aa44a; }&#10;&#10;/* btn bg hover, unused */&#10;.l2, .r2 { stroke:#3071a9; }&#10;.l3, .r3 { stroke:#449d44; }&#10;.l4, .r4 { stroke:#c9302c; }&#10;.l5, .r5 { stroke:#ec971f; }&#10;&#10;/* btn border hover */&#10;.l2, .r2 { stroke:#204d74; }&#10;.l3, .r3 { stroke:#204d74; }&#10;.l4, .r4 { stroke:#204d74; }&#10;.l5, .r5 { stroke:#204d74; }&#10;&#10;text.nubkey { fill:#eee; }&#10;&#10;.pressed {&#10;	<!--opacity:0.5;-->&#10;	fill:#777;&#10;}&#10;    </style>&#10;&#10;    <g
   id="basekey">&#10;        <rect
   width="32"
   height="32"
   rx="4"
   class="key"
   id="rect1" />&#10;	<!--rect width="20" height="20" x="6" y="6" /-->&#10;        <!--rect width="2" height="2" fill="#000" x="15" y="15" /-->&#10;    </g>&#10;&#10;    </defs>&#10;<sodipodi:namedview
   pagecolor="#ffffff"
   bordercolor="#666666"
   borderopacity="1"
   objecttolerance="10"
   gridtolerance="10"
   guidetolerance="10"
   inkscape:pageopacity="0"
   inkscape:pageshadow="2"
   inkscape:window-width="1614"
   inkscape:window-height="969"
   id="base"
   showgrid="false"
   inkscape:zoom="0.70961538"
   inkscape:cx="685.32105"
   inkscape:cy="241.15395"
   inkscape:window-x="78"
   inkscape:window-y="71"
   inkscape:window-maximized="0"
   inkscape:current-layer="Ebene_1"
   inkscape:showpageshadow="2"
   inkscape:pagecheckerboard="0"
   inkscape:deskcolor="#d1d1d1" />&#10;&#10;<g
   transform="translate(3.5,3.5)"
   id="g61">&#10;<use
   xlink:href="#basekey"
   y="0"
   x="0"
   class="l5"
   id="use1" />&#10;<use
   xlink:href="#basekey"
   y="0"
   x="36"
   class="l5"
   id="use2" />&#10;<use
   xlink:href="#basekey"
   y="0"
   x="72"
   class="l5"
   id="use3" />&#10;<use
   xlink:href="#basekey"
   y="0"
   x="108"
   class="l4"
   id="use4" />&#10;<use
   xlink:href="#basekey"
   y="0"
   x="144"
   class="l3"
   id="use5" />&#10;<use
   xlink:href="#basekey"
   y="0"
   x="180"
   class="l2"
   id="use6" />&#10;<use
   xlink:href="#basekey"
   y="0"
   x="216"
   class="l2"
   id="use7" />&#10;&#10;<use
   xlink:href="#basekey"
   y="0"
   x="252"
   class="r2"
   id="use8" />&#10;<use
   xlink:href="#basekey"
   y="0"
   x="288"
   class="r2"
   id="use9" />&#10;<use
   xlink:href="#basekey"
   y="0"
   x="324"
   class="r3"
   id="use10" />&#10;<use
   xlink:href="#basekey"
   y="0"
   x="360"
   class="r4"
   id="use11" />&#10;<use
   xlink:href="#basekey"
   y="0"
   x="396"
   class="r5"
   id="use12" />&#10;<use
   xlink:href="#basekey"
   y="0"
   x="432"
   class="r5"
   id="use13" />&#10;&#10;&#10;<use
   xlink:href="#basekey"
   y="36"
   x="54"
   class="l5"
   id="use14" />&#10;<use
   xlink:href="#basekey"
   y="36"
   x="90"
   class="l4"
   id="use15" />&#10;<use
   xlink:href="#basekey"
   y="36"
   x="126"
   class="l3"
   id="use16" />&#10;<use
   xlink:href="#basekey"
   y="36"
   x="162"
   class="l2"
   id="use17" />&#10;<use
   xlink:href="#basekey"
   y="36"
   x="198"
   class="l2"
   id="use18" />&#10;&#10;<use
   xlink:href="#basekey"
   y="36"
   x="234"
   class="r2"
   id="use19" />&#10;<use
   xlink:href="#basekey"
   y="36"
   x="270"
   class="r2"
   id="use20" />&#10;<use
   xlink:href="#basekey"
   y="36"
   x="306"
   class="r3"
   id="use21" />&#10;<use
   xlink:href="#basekey"
   y="36"
   x="342"
   class="r4"
   id="use22" />&#10;<use
   xlink:href="#basekey"
   y="36"
   x="378"
   class="r5"
   id="use23" />&#10;<use
   xlink:href="#basekey"
   y="36"
   x="414"
   class="r5"
   id="use24" />&#10;<use
   xlink:href="#basekey"
   y="36"
   x="450"
   class="r5"
   id="use25" />&#10;&#10;&#10;<use
   xlink:href="#basekey"
   y="72"
   x="64"
   class="l5"
   id="use26" />&#10;<use
   xlink:href="#basekey"
   y="72"
   x="100"
   class="l4"
   id="use27" />&#10;<use
   xlink:href="#basekey"
   y="72"
   x="136"
   class="l3"
   id="use28" />&#10;<use
   xlink:href="#basekey"
   y="72"
   x="172"
   class="l2"
   id="use29" />&#10;<use
   xlink:href="#basekey"
   y="72"
   x="208"
   class="l2"
   id="use30" />&#10;&#10;<use
   xlink:href="#basekey"
   y="72"
   x="244"
   class="r2"
   id="use31" />&#10;<use
   xlink:href="#basekey"
   y="72"
   x="280"
   class="r2"
   id="use32" />&#10;<use
   xlink:href="#basekey"
   y="72"
   x="316"
   class="r3"
   id="use33" />&#10;<use
   xlink:href="#basekey"
   y="72"
   x="352"
   class="r4"
   id="use34" />&#10;<use
   xlink:href="#basekey"
   y="72"
   x="388"
   class="r5"
   id="use35" />&#10;&#10;    <use
   xlink:href="#basekey"
   y="72"
   x="460"
   class="r5"
   id="use36" />&#10;&#10;&#10;&#10;<use
   xlink:href="#basekey"
   y="108"
   x="82"
   class="l5"
   id="use37" />&#10;<use
   xlink:href="#basekey"
   y="108"
   x="118"
   class="l4"
   id="use38" />&#10;<use
   xlink:href="#basekey"
   y="108"
   x="154"
   class="l3"
   id="use39" />&#10;<use
   xlink:href="#basekey"
   y="108"
   x="190"
   class="l2"
   id="use40" />&#10;<use
   xlink:href="#basekey"
   y="108"
   x="226"
   class="l2"
   id="use41" />&#10;&#10;<use
   xlink:href="#basekey"
   y="108"
   x="262"
   class="r2"
   id="use42" />&#10;<use
   xlink:href="#basekey"
   y="108"
   x="298"
   class="r2"
   id="use43" />&#10;<use
   xlink:href="#basekey"
   y="108"
   x="334"
   class="r3"
   id="use44" />&#10;<use
   xlink:href="#basekey"
   y="108"
   x="370"
   class="r4"
   id="use45" />&#10;<use
   xlink:href="#basekey"
   y="108"
   x="406"
   class="r5"
   id="use46" />&#10;&#10;&#10;<rect
   id="backspace"
   y="0"
   x="468"
   width="60"
   height="32"
   rx="4"
   class="key grey" />&#10;&#10;<rect
   id="tab"
   x="0"
   y="36"
   width="50"
   height="32"
   rx="4"
   class="key grey" />&#10;&#10;<rect
   id="m3l"
   x="0"
   y="72"
   width="60"
   height="32"
   rx="4"
   class="key grey pressed" />&#10;&#10;<use
   id="m3r"
   xlink:href="#basekey"
   x="424"
   y="72"
   class="key grey pressed" />&#10;&#10;&#10;<rect
   id="shiftl"
   x="0"
   y="108"
   width="40"
   height="32"
   rx="4"
   class="key grey" />&#10;<rect
   id="m4l"
   x="44"
   y="108"
   width="34"
   height="32"
   rx="4"
   class="key grey pressed" />&#10;<rect
   id="shiftr"
   x="442"
   y="108"
   width="86"
   height="32"
   rx="4"
   class="key grey" />&#10;&#10;<rect
   id="ctrll"
   x="0"
   y="144"
   width="50"
   height="32"
   rx="4"
   class="key grey" />&#10;<rect
   id="altl"
   x="124"
   y="144"
   width="48"
   height="32"
   rx="4"
   class="key grey" />&#10;<rect
   id="space"
   x="176"
   y="144"
   width="168"
   height="32"
   rx="4"
   class="key grey" />&#10;<rect
   id="m4r"
   x="348"
   y="144"
   width="48"
   height="32"
   rx="4"
   class="key grey pressed" />&#10;<rect
   id="ctrlr"
   x="478"
   y="144"
   width="50"
   height="32"
   rx="4"
   class="key grey" />&#10;&#10;<use
   xlink:href="#basekey"
   y="0"
   x="542"
   class="key numpad"
   id="use47" />&#10;<use
   xlink:href="#basekey"
   y="0"
   x="578"
   class="key numpad"
   id="use48" />&#10;<use
   xlink:href="#basekey"
   y="0"
   x="614"
   class="key numpad"
   id="use49" />&#10;<use
   xlink:href="#basekey"
   y="0"
   x="650"
   class="key numpad"
   id="use50" />&#10;&#10;<use
   xlink:href="#basekey"
   y="36"
   x="542"
   class="key numpad"
   id="use51" />&#10;<use
   xlink:href="#basekey"
   y="36"
   x="578"
   class="key numpad"
   id="use52" />&#10;<use
   xlink:href="#basekey"
   y="36"
   x="614"
   class="key numpad"
   id="use53" />&#10;<rect
   id="kpplus"
   x="650"
   y="36"
   width="32"
   height="68"
   rx="4"
   class="key numpad" />&#10;&#10;<use
   xlink:href="#basekey"
   y="72"
   x="542"
   class="key numpad"
   id="use54" />&#10;<use
   xlink:href="#basekey"
   y="72"
   x="578"
   class="key numpad"
   id="use55" />&#10;<use
   xlink:href="#basekey"
   y="72"
   x="614"
   class="key numpad"
   id="use56" />&#10;&#10;<use
   xlink:href="#basekey"
   y="108"
   x="542"
   class="key numpad"
   id="use57" />&#10;<use
   xlink:href="#basekey"
   y="108"
   x="578"
   class="key numpad"
   id="use58" />&#10;<use
   xlink:href="#basekey"
   y="108"
   x="614"
   class="key numpad"
   id="use59" />&#10;<rect
   id="kppenter"
   x="650"
   y="108"
   width="32"
   height="68"
   rx="4"
   class="key numpad" />&#10;&#10;<rect
   id="kp0"
   x="542"
   y="144"
   width="68"
   height="32"
   rx="4"
   class="key numpad" />&#10;<use
   xlink:href="#basekey"
   y="144"
   x="614"
   class="key numpad"
   id="use60" />&#10;&#10;<path
   fill-rule="evenodd"
   clip-rule="evenodd"
   d="      M 10,32      l -6,0 a 4,4 0 0 1 -4,-4      l 0,-24 a 4,4 0 0 1 4,-4      l 34,0 a 4,4 0 0 1 4,4      l 0,60 a 4,4 0 0 1 -4,4      l -24,0 a 4,4 0 0 1 -4,-4      z"
   transform="translate(486,36)"
   id="return"
   class="key grey" />&#10;&#10;<rect
   y="101"
   x="181"
   width="14"
   height="1"
   rx="1"
   id="nub"
   style="fill:#eee;" />&#10;<use
   y="0"
   x="108"
   xlink:href="#nub"
   id="use61" />&#10;</g>&#10;&#10;<g
   transform="translate(-0.5,-0.5)"
   id="g62">&#10;<path
   d="m 10.981445,88.709961 h 1.469727 l 1.860351,4.960937 1.870118,-4.960937 h 1.469726 V 96 h -0.961914 v -6.401367 l -1.879883,5 h -0.991211 l -1.879882,-5 V 96 h -0.957032 z m 10.708008,2.451172 q -0.722656,0 -1.142578,0.566406 -0.419922,0.561523 -0.419922,1.542969 0,0.981445 0.415039,1.547851 0.419922,0.561524 1.147461,0.561524 0.717774,0 1.137695,-0.566406 0.419922,-0.566407 0.419922,-1.542969 0,-0.97168 -0.419922,-1.538086 -0.419921,-0.571289 -1.137695,-0.571289 z m 0,-0.761719 q 1.171875,0 1.84082,0.761719 0.668946,0.761719 0.668946,2.109375 0,1.342773 -0.668946,2.109375 -0.668945,0.761719 -1.84082,0.761719 -1.176758,0 -1.845703,-0.761719 -0.664063,-0.766602 -0.664063,-2.109375 0,-1.347656 0.664063,-2.109375 0.668945,-0.761719 1.845703,-0.761719 z m 7.597656,0.961914 v -2.958984 h 0.898438 V 96 h -0.898438 v -0.820313 q -0.283203,0.488282 -0.717773,0.72754 -0.429688,0.234375 -1.035156,0.234375 -0.991211,0 -1.616211,-0.791016 -0.620117,-0.791016 -0.620117,-2.080078 0,-1.289063 0.620117,-2.080078 0.625,-0.791016 1.616211,-0.791016 0.605468,0 1.035156,0.239258 0.43457,0.234375 0.717773,0.722656 z m -3.061523,1.90918 q 0,0.991211 0.405273,1.557617 0.410157,0.561523 1.123047,0.561523 0.712891,0 1.123047,-0.561523 0.410156,-0.566406 0.410156,-1.557617 0,-0.991211 -0.410156,-1.552735 -0.410156,-0.566406 -1.123047,-0.566406 -0.71289,0 -1.123047,0.566406 -0.405273,0.561524 -0.405273,1.552735 z m 8.925781,-1.201172 q 0.708008,0.151367 1.103516,0.629883 0.40039,0.478515 0.40039,1.18164 0,1.079102 -0.742187,1.669922 -0.742188,0.590821 -2.109375,0.590821 -0.458984,0 -0.947266,-0.09277 -0.483398,-0.08789 -1.000976,-0.268555 v -0.952148 q 0.410156,0.239258 0.898437,0.361328 0.488281,0.12207 1.020508,0.12207 0.927734,0 1.411133,-0.366211 0.488281,-0.36621 0.488281,-1.064453 0,-0.644531 -0.454101,-1.005859 -0.449219,-0.366211 -1.254883,-0.366211 h -0.84961 v -0.810547 h 0.888672 q 0.727539,0 1.113281,-0.288086 0.385743,-0.292969 0.385743,-0.839844 0,-0.561523 -0.400391,-0.859375 -0.395508,-0.302734 -1.137695,-0.302734 -0.405274,0 -0.869141,0.08789 -0.463867,0.08789 -1.020508,0.273437 v -0.878906 q 0.561524,-0.15625 1.049805,-0.234375 0.493164,-0.07813 0.927734,-0.07813 1.123047,0 1.777344,0.512695 0.654297,0.507813 0.654297,1.376953 0,0.605469 -0.34668,1.025391 -0.346679,0.415039 -0.986328,0.576172 z"
   id="m3ltxt"
   style="font-size:10px;line-height:0%;font-family:'DejaVu Sans';fill:#111111"
   class="mod"
   aria-label="Mod3" />&#10;<path
   d="m 17.683594,125.23438 -1.81836,-1.81836 -1.818359,1.81836 h 0.895508 v 7.08203 h 1.845703 v -7.08203 z m -5.291016,0.68359 3.472656,-3.47266 3.472657,3.47266 H 17.47168 V 133 h -3.212891 v -7.08203 z"
   id="shiftltxt"
   style="font-size:14px;line-height:0%;font-family:'DejaVu Sans';fill:#111111"
   class="mod big"
   aria-label="⇧" />&#10;<path
   d="m 15.351563,160.94922 v 0.96191 q -0.561524,-0.26855 -1.059571,-0.40039 -0.498047,-0.13183 -0.961914,-0.13183 -0.805664,0 -1.245117,0.3125 -0.43457,0.3125 -0.43457,0.88867 0,0.4834 0.288086,0.73242 0.292968,0.24414 1.103515,0.39551 l 0.595703,0.12207 q 1.103516,0.20996 1.625977,0.74219 0.527344,0.52734 0.527344,1.41601 0,1.05957 -0.712891,1.60645 -0.708008,0.54687 -2.080078,0.54687 -0.517578,0 -1.103516,-0.11719 -0.581054,-0.11718 -1.206054,-0.34668 v -1.01562 q 0.600586,0.33691 1.176757,0.50781 0.576172,0.1709 1.132813,0.1709 0.844726,0 1.303711,-0.33203 0.458984,-0.33203 0.458984,-0.94727 0,-0.53711 -0.332031,-0.83984 -0.327148,-0.30273 -1.079102,-0.4541 l -0.600586,-0.11719 q -1.103515,-0.21973 -1.596679,-0.68848 -0.493164,-0.46875 -0.493164,-1.30371 0,-0.96679 0.678711,-1.52343 0.683593,-0.55665 1.879882,-0.55665 0.512696,0 1.044922,0.0928 0.532227,0.0928 1.088868,0.27832 z m 2.827148,0.0293 v 1.55273 h 1.850586 v 0.69824 h -1.850586 v 2.96875 q 0,0.66895 0.180664,0.85938 0.185547,0.19043 0.74707,0.19043 h 0.922852 V 168 h -0.922852 q -1.040039,0 -1.435547,-0.38574 -0.395507,-0.39063 -0.395507,-1.41602 v -2.96875 h -0.65918 v -0.69824 h 0.65918 v -1.55273 z m 6.201172,2.39257 q -0.151367,-0.0879 -0.332031,-0.12695 -0.175782,-0.0439 -0.390625,-0.0439 -0.761719,0 -1.171875,0.49804 -0.405274,0.49317 -0.405274,1.4209 V 168 h -0.90332 v -5.46875 h 0.90332 v 0.84961 q 0.283203,-0.49805 0.737305,-0.73731 0.454101,-0.24414 1.103515,-0.24414 0.09277,0 0.205079,0.0147 0.112304,0.01 0.249023,0.0342 z m 4.365234,1.83106 q 0,-0.97656 -0.405273,-1.51367 -0.400391,-0.53711 -1.12793,-0.53711 -0.722656,0 -1.12793,0.53711 -0.40039,0.53711 -0.40039,1.51367 0,0.97168 0.40039,1.50879 0.405274,0.53711 1.12793,0.53711 0.727539,0 1.12793,-0.53711 0.405273,-0.53711 0.405273,-1.50879 z m 0.898438,2.11914 q 0,1.39648 -0.620118,2.07519 -0.620117,0.6836 -1.899414,0.6836 -0.473632,0 -0.893554,-0.0732 -0.419922,-0.0684 -0.81543,-0.21485 v -0.87402 q 0.395508,0.21484 0.78125,0.31738 0.385742,0.10254 0.786133,0.10254 0.883789,0 1.323242,-0.46387 0.439453,-0.45898 0.439453,-1.3916 v -0.44433 q -0.27832,0.48339 -0.71289,0.72265 Q 27.597656,168 26.992187,168 q -1.005859,0 -1.621093,-0.7666 -0.615235,-0.7666 -0.615235,-2.03125 0,-1.26953 0.615235,-2.03613 0.615234,-0.76661 1.621093,-0.76661 0.605469,0 1.04004,0.23926 0.43457,0.23926 0.71289,0.72266 v -0.83008 h 0.898438 z"
   id="ctrlltxt"
   style="font-size:10px;line-height:0%;font-family:'DejaVu Sans';fill:#111111"
   class="mod"
   aria-label="Strg" />&#10;&#10;<path
   d="m 56.981445,124.70996 h 1.469727 l 1.860351,4.96094 1.870118,-4.96094 h 1.469726 V 132 h -0.961914 v -6.40137 l -1.879883,5 h -0.991211 l -1.879882,-5 V 132 h -0.957032 z m 11.425782,0.85938 -2.490235,3.8916 h 2.490235 z m -0.25879,-0.85938 h 1.240235 v 4.75098 h 1.040039 v 0.82031 H 69.388672 V 132 h -0.981445 v -1.71875 h -3.291016 v -0.95215 z"
   id="m4ltxt"
   style="font-size:10px;line-height:0%;font-family:'DejaVu Sans';fill:#111111"
   class="mod"
   aria-label="M4" />&#10;<path
   d="m 138.41797,161.68164 -1.33789,3.62793 h 2.68066 z m -0.55664,-0.97168 h 1.11816 L 141.75781,168 h -1.02539 l -0.66406,-1.87012 h -3.28613 L 136.11816,168 h -1.04004 z m 4.92187,-0.30762 h 0.89844 V 168 h -0.89844 z m 3.667,0.57618 v 1.55273 h 1.85058 v 0.69824 h -1.85058 v 2.96875 q 0,0.66895 0.18066,0.85938 0.18555,0.19043 0.74707,0.19043 h 0.92285 V 168 h -0.92285 q -1.04004,0 -1.43555,-0.38574 -0.39551,-0.39063 -0.39551,-1.41602 v -2.96875 h -0.65917 v -0.69824 h 0.65917 v -1.55273 z"
   id="altltxt"
   style="font-size:10px;line-height:0%;font-family:'DejaVu Sans';fill:#111111"
   class="mod"
   aria-label="Alt" />&#10;&#10;&#10;<path
   d="m 436.98145,88.709961 h 1.46972 l 1.86035,4.960937 1.87012,-4.960937 h 1.46973 V 96 h -0.96192 v -6.401367 l -1.87988,5 h -0.99121 l -1.87988,-5 V 96 h -0.95703 z m 11.7041,3.359375 q 0.708,0.151367 1.10351,0.629883 0.40039,0.478515 0.40039,1.18164 0,1.079102 -0.74218,1.669922 -0.74219,0.590821 -2.10938,0.590821 -0.45898,0 -0.94727,-0.09277 -0.48339,-0.08789 -1.00097,-0.268555 v -0.952148 q 0.41015,0.239258 0.89844,0.361328 0.48828,0.12207 1.0205,0.12207 0.92774,0 1.41114,-0.366211 0.48828,-0.36621 0.48828,-1.064453 0,-0.644531 -0.4541,-1.005859 -0.44922,-0.366211 -1.25489,-0.366211 h -0.84961 v -0.810547 h 0.88868 q 0.72753,0 1.11328,-0.288086 0.38574,-0.292969 0.38574,-0.839844 0,-0.561523 -0.40039,-0.859375 -0.39551,-0.302734 -1.1377,-0.302734 -0.40527,0 -0.86914,0.08789 -0.46386,0.08789 -1.02051,0.273437 v -0.878906 q 0.56153,-0.15625 1.04981,-0.234375 0.49316,-0.07813 0.92773,-0.07813 1.12305,0 1.77735,0.512695 0.65429,0.507813 0.65429,1.376953 0,0.605469 -0.34668,1.025391 -0.34667,0.415039 -0.98632,0.576172 z"
   id="m3rtxt"
   style="font-size:10px;line-height:0%;font-family:'DejaVu Sans';fill:#111111"
   class="mod"
   aria-label="M3" />&#10;&#10;&#10;<path
   d="m 457.68359,125.23438 -1.81836,-1.81836 -1.81836,1.81836 h 0.89551 v 7.08203 h 1.84571 v -7.08203 z m -5.29101,0.68359 3.47265,-3.47266 3.47266,3.47266 h -1.86621 V 133 h -3.21289 v -7.08203 z"
   id="shiftrtxt"
   style="font-size:14px;line-height:0%;font-family:'DejaVu Sans';fill:#111111"
   class="mod big"
   aria-label="⇧" />&#10;<path
   d="m 495.35156,160.94922 v 0.96191 q -0.56152,-0.26855 -1.05957,-0.40039 -0.49804,-0.13183 -0.96191,-0.13183 -0.80567,0 -1.24512,0.3125 -0.43457,0.3125 -0.43457,0.88867 0,0.4834 0.28809,0.73242 0.29297,0.24414 1.10351,0.39551 l 0.59571,0.12207 q 1.10351,0.20996 1.62597,0.74219 0.52735,0.52734 0.52735,1.41601 0,1.05957 -0.7129,1.60645 -0.708,0.54687 -2.08007,0.54687 -0.51758,0 -1.10352,-0.11719 -0.58105,-0.11718 -1.20605,-0.34668 v -1.01562 q 0.60058,0.33691 1.17675,0.50781 0.57618,0.1709 1.13282,0.1709 0.84472,0 1.30371,-0.33203 0.45898,-0.33203 0.45898,-0.94727 0,-0.53711 -0.33203,-0.83984 -0.32715,-0.30273 -1.0791,-0.4541 l -0.60059,-0.11719 q -1.10351,-0.21973 -1.59668,-0.68848 -0.49316,-0.46875 -0.49316,-1.30371 0,-0.96679 0.67871,-1.52343 0.68359,-0.55665 1.87988,-0.55665 0.5127,0 1.04493,0.0928 0.53222,0.0928 1.08886,0.27832 z m 2.82715,0.0293 v 1.55273 h 1.85059 v 0.69824 h -1.85059 v 2.96875 q 0,0.66895 0.18066,0.85938 0.18555,0.19043 0.74708,0.19043 h 0.92285 V 168 h -0.92285 q -1.04004,0 -1.43555,-0.38574 -0.39551,-0.39063 -0.39551,-1.41602 v -2.96875 h -0.65918 v -0.69824 h 0.65918 v -1.55273 z m 6.20117,2.39257 q -0.15136,-0.0879 -0.33203,-0.12695 -0.17578,-0.0439 -0.39062,-0.0439 -0.76172,0 -1.17188,0.49804 -0.40527,0.49317 -0.40527,1.4209 V 168 h -0.90332 v -5.46875 h 0.90332 v 0.84961 q 0.2832,-0.49805 0.7373,-0.73731 0.4541,-0.24414 1.10352,-0.24414 0.0928,0 0.20508,0.0147 0.1123,0.01 0.24902,0.0342 z m 4.36524,1.83106 q 0,-0.97656 -0.40528,-1.51367 -0.40039,-0.53711 -1.12793,-0.53711 -0.72265,0 -1.12793,0.53711 -0.40039,0.53711 -0.40039,1.51367 0,0.97168 0.40039,1.50879 0.40528,0.53711 1.12793,0.53711 0.72754,0 1.12793,-0.53711 0.40528,-0.53711 0.40528,-1.50879 z m 0.89843,2.11914 q 0,1.39648 -0.62011,2.07519 -0.62012,0.6836 -1.89942,0.6836 -0.47363,0 -0.89355,-0.0732 -0.41992,-0.0684 -0.81543,-0.21485 v -0.87402 q 0.39551,0.21484 0.78125,0.31738 0.38574,0.10254 0.78613,0.10254 0.88379,0 1.32324,-0.46387 0.43946,-0.45898 0.43946,-1.3916 v -0.44433 q -0.27832,0.48339 -0.71289,0.72265 Q 507.59766,168 506.99219,168 q -1.00586,0 -1.6211,-0.7666 -0.61523,-0.7666 -0.61523,-2.03125 0,-1.26953 0.61523,-2.03613 0.61524,-0.76661 1.6211,-0.76661 0.60547,0 1.04004,0.23926 0.43457,0.23926 0.71289,0.72266 v -0.83008 h 0.89843 z"
   id="ctrlrtxt"
   style="font-size:10px;line-height:0%;font-family:'DejaVu Sans';fill:#111111"
   class="mod"
   aria-label="Strg" />&#10;<path
   d="m 357.98145,160.70996 h 1.46972 l 1.86035,4.96094 1.87012,-4.96094 h 1.46973 V 168 h -0.96192 v -6.40137 l -1.87988,5 h -0.99121 l -1.87988,-5 V 168 h -0.95703 z m 10.708,2.45117 q -0.72265,0 -1.14258,0.56641 -0.41992,0.56152 -0.41992,1.54297 0,0.98144 0.41504,1.54785 0.41992,0.56152 1.14746,0.56152 0.71778,0 1.1377,-0.5664 0.41992,-0.56641 0.41992,-1.54297 0,-0.97168 -0.41992,-1.53809 -0.41992,-0.57129 -1.1377,-0.57129 z m 0,-0.76172 q 1.17188,0 1.84082,0.76172 0.66895,0.76172 0.66895,2.10938 0,1.34277 -0.66895,2.10937 -0.66894,0.76172 -1.84082,0.76172 -1.17675,0 -1.8457,-0.76172 -0.66406,-0.7666 -0.66406,-2.10937 0,-1.34766 0.66406,-2.10938 0.66895,-0.76172 1.8457,-0.76172 z m 7.59766,0.96192 v -2.95899 h 0.89844 V 168 h -0.89844 v -0.82031 q -0.2832,0.48828 -0.71777,0.72754 -0.42969,0.23437 -1.03516,0.23437 -0.99121,0 -1.61621,-0.79101 -0.62012,-0.79102 -0.62012,-2.08008 0,-1.28906 0.62012,-2.08008 0.625,-0.79102 1.61621,-0.79102 0.60547,0 1.03516,0.23926 0.43457,0.23438 0.71777,0.72266 z m -3.06152,1.90918 q 0,0.99121 0.40527,1.55761 0.41016,0.56153 1.12305,0.56153 0.71289,0 1.12304,-0.56153 0.41016,-0.5664 0.41016,-1.55761 0,-0.99121 -0.41016,-1.55274 -0.41015,-0.5664 -1.12304,-0.5664 -0.71289,0 -1.12305,0.5664 -0.40527,0.56153 -0.40527,1.55274 z m 8.64746,-3.70117 -2.49024,3.8916 h 2.49024 z m -0.25879,-0.85938 h 1.24023 v 4.75098 h 1.04004 v 0.82031 h -1.04004 V 168 h -0.98144 v -1.71875 h -3.29102 v -0.95215 z"
   id="m4rtxt"
   style="font-size:10px;line-height:0%;font-family:'DejaVu Sans';fill:#111111"
   class="mod"
   aria-label="Mod4" />&#10;<path
   d="m 217.78516,162.69238 v 0.84961 q -0.38086,-0.19531 -0.79102,-0.29297 -0.41016,-0.0977 -0.84961,-0.0977 -0.66894,0 -1.00586,0.20508 -0.33203,0.20507 -0.33203,0.61523 0,0.3125 0.23926,0.49316 0.23926,0.17578 0.96191,0.33692 l 0.30762,0.0684 q 0.95703,0.20508 1.35742,0.58105 0.40527,0.3711 0.40527,1.04004 0,0.76172 -0.60546,1.20606 -0.60059,0.44433 -1.65528,0.44433 -0.43945,0 -0.91797,-0.0879 -0.47363,-0.083 -1.00097,-0.25391 v -0.92773 q 0.49804,0.25879 0.98144,0.39063 0.4834,0.12695 0.95703,0.12695 0.63477,0 0.97657,-0.21485 0.34179,-0.21972 0.34179,-0.61523 0,-0.36621 -0.24902,-0.56152 -0.24414,-0.19532 -1.0791,-0.37598 l -0.3125,-0.0732 q -0.83496,-0.17578 -1.20606,-0.53711 -0.37109,-0.36621 -0.37109,-1.00098 0,-0.77148 0.54687,-1.1914 0.54688,-0.41993 1.55274,-0.41993 0.49805,0 0.9375,0.0733 0.43945,0.0732 0.81055,0.21972 z m 5.65918,0.0488 v 0.83984 q -0.38086,-0.20996 -0.76661,-0.3125 -0.38086,-0.10742 -0.77148,-0.10742 -0.87402,0 -1.35742,0.55664 -0.4834,0.55176 -0.4834,1.55274 0,1.00097 0.4834,1.55761 0.4834,0.55176 1.35742,0.55176 0.39062,0 0.77148,-0.10254 0.38575,-0.10742 0.76661,-0.31738 v 0.83008 q -0.37598,0.17578 -0.78125,0.26367 -0.40039,0.0879 -0.8545,0.0879 -1.23535,0 -1.96289,-0.77637 -0.72754,-0.77636 -0.72754,-2.09472 0,-1.33789 0.73243,-2.10449 0.7373,-0.76661 2.0166,-0.76661 0.41504,0 0.81054,0.0879 0.39551,0.083 0.76661,0.25391 z m 6.10839,1.95801 V 168 h -0.89843 v -3.27148 q 0,-0.77637 -0.30274,-1.16211 -0.30273,-0.38575 -0.9082,-0.38575 -0.72754,0 -1.14746,0.46387 -0.41992,0.46387 -0.41992,1.26465 V 168 h -0.90332 v -7.59766 h 0.90332 v 2.97852 q 0.32226,-0.49316 0.75683,-0.73731 0.43946,-0.24414 1.01074,-0.24414 0.94239,0 1.42579,0.58594 0.48339,0.58106 0.48339,1.71387 z m 6.04981,-1.11817 q 0.33691,-0.60546 0.80566,-0.89355 0.46875,-0.28809 1.10352,-0.28809 0.85449,0 1.31836,0.60059 0.46387,0.5957 0.46387,1.69922 V 168 h -0.90333 v -3.27148 q 0,-0.78614 -0.27832,-1.167 -0.27832,-0.38086 -0.8496,-0.38086 -0.69825,0 -1.10352,0.46387 -0.40527,0.46387 -0.40527,1.26465 V 168 h -0.90332 v -3.27148 q 0,-0.79102 -0.27832,-1.167 -0.27832,-0.38086 -0.85938,-0.38086 -0.68848,0 -1.09375,0.46875 -0.40527,0.46387 -0.40527,1.25977 V 168 h -0.90332 v -5.46875 h 0.90332 v 0.84961 q 0.30761,-0.50293 0.7373,-0.74219 0.42969,-0.23926 1.02051,-0.23926 0.5957,0 1.01074,0.30274 0.41992,0.30273 0.62012,0.8789 z m 5.61035,3.17872 h 1.03027 V 168 h -1.03027 z m 9.8291,-1.55762 q 0,-0.97656 -0.40527,-1.51367 -0.40039,-0.53711 -1.12793,-0.53711 -0.72266,0 -1.12793,0.53711 -0.40039,0.53711 -0.40039,1.51367 0,0.97168 0.40039,1.50879 0.40527,0.53711 1.12793,0.53711 0.72754,0 1.12793,-0.53711 0.40527,-0.53711 0.40527,-1.50879 z m 0.89844,2.11914 q 0,1.39648 -0.62012,2.07519 -0.62011,0.6836 -1.89941,0.6836 -0.47363,0 -0.89356,-0.0732 -0.41992,-0.0684 -0.81543,-0.21485 v -0.87402 q 0.39551,0.21484 0.78125,0.31738 0.38575,0.10254 0.78614,0.10254 0.88379,0 1.32324,-0.46387 0.43945,-0.45898 0.43945,-1.3916 v -0.44433 q -0.27832,0.48339 -0.71289,0.72265 Q 249.89453,168 249.28906,168 q -1.00586,0 -1.62109,-0.7666 -0.61524,-0.7666 -0.61524,-2.03125 0,-1.26953 0.61524,-2.03613 0.61523,-0.76661 1.62109,-0.76661 0.60547,0 1.04004,0.23926 0.43457,0.23926 0.71289,0.72266 v -0.83008 h 0.89844 z m 6.52832,-2.28027 v 0.43945 h -4.13086 q 0.0586,0.92773 0.55664,1.41601 0.50293,0.4834 1.39649,0.4834 0.51757,0 1.00097,-0.12695 0.48828,-0.12695 0.9668,-0.38086 v 0.84961 q -0.4834,0.20508 -0.99121,0.3125 -0.50781,0.10742 -1.03028,0.10742 -1.30859,0 -2.07519,-0.76172 -0.76172,-0.76172 -0.76172,-2.06054 0,-1.34278 0.72266,-2.12891 0.72754,-0.79102 1.958,-0.79102 1.10352,0 1.74317,0.71289 0.64453,0.70801 0.64453,1.92872 z m -0.89844,-0.26368 q -0.01,-0.7373 -0.41504,-1.17675 -0.40039,-0.43946 -1.06445,-0.43946 -0.75195,0 -1.20605,0.42481 -0.44922,0.4248 -0.51758,1.19629 z m 5.85938,-2.08496 v 0.84961 q -0.38086,-0.19531 -0.79102,-0.29297 -0.41015,-0.0977 -0.84961,-0.0977 -0.66894,0 -1.00586,0.20508 -0.33203,0.20507 -0.33203,0.61523 0,0.3125 0.23926,0.49316 0.23926,0.17578 0.96191,0.33692 l 0.30762,0.0684 q 0.95703,0.20508 1.35742,0.58105 0.40528,0.3711 0.40528,1.04004 0,0.76172 -0.60547,1.20606 -0.60059,0.44433 -1.65528,0.44433 -0.43945,0 -0.91796,-0.0879 -0.47364,-0.083 -1.00098,-0.25391 v -0.92773 q 0.49805,0.25879 0.98144,0.39063 0.4834,0.12695 0.95704,0.12695 0.63476,0 0.97656,-0.21485 0.34179,-0.21972 0.34179,-0.61523 0,-0.36621 -0.24902,-0.56152 -0.24414,-0.19532 -1.0791,-0.37598 l -0.3125,-0.0732 q -0.83496,-0.17578 -1.20606,-0.53711 -0.37109,-0.36621 -0.37109,-1.00098 0,-0.77148 0.54688,-1.1914 0.54687,-0.41993 1.55273,-0.41993 0.49805,0 0.9375,0.0733 0.43945,0.0732 0.81055,0.21972 z m 5.65918,0.0488 v 0.83984 q -0.38086,-0.20996 -0.7666,-0.3125 -0.38086,-0.10742 -0.77149,-0.10742 -0.87402,0 -1.35742,0.55664 -0.4834,0.55176 -0.4834,1.55274 0,1.00097 0.4834,1.55761 0.4834,0.55176 1.35742,0.55176 0.39063,0 0.77149,-0.10254 0.38574,-0.10742 0.7666,-0.31738 v 0.83008 q -0.37598,0.17578 -0.78125,0.26367 -0.40039,0.0879 -0.8545,0.0879 -1.23535,0 -1.96289,-0.77637 -0.72753,-0.77636 -0.72753,-2.09472 0,-1.33789 0.73242,-2.10449 0.7373,-0.76661 2.0166,-0.76661 0.41504,0 0.81055,0.0879 0.3955,0.083 0.7666,0.25391 z m 6.1084,1.95801 V 168 h -0.89844 v -3.27148 q 0,-0.77637 -0.30274,-1.16211 -0.30273,-0.38575 -0.9082,-0.38575 -0.72754,0 -1.14746,0.46387 -0.41992,0.46387 -0.41992,1.26465 V 168 h -0.90332 v -7.59766 h 0.90332 v 2.97852 q 0.32226,-0.49316 0.75683,-0.73731 0.43946,-0.24414 1.01075,-0.24414 0.94238,0 1.42578,0.58594 0.4834,0.58106 0.4834,1.71387 z m 1.91894,2.06055 h 1.03027 V 168 h -1.03027 z m 6.26953,-6.04981 h 0.98633 v 6.45996 h 3.5498 V 168 h -4.53613 z m 10.03418,4.33106 v 0.43945 h -4.13086 q 0.0586,0.92773 0.55664,1.41601 0.50293,0.4834 1.39649,0.4834 0.51758,0 1.00097,-0.12695 0.48829,-0.12695 0.9668,-0.38086 v 0.84961 q -0.4834,0.20508 -0.99121,0.3125 -0.50781,0.10742 -1.03027,0.10742 -1.3086,0 -2.0752,-0.76172 -0.76172,-0.76172 -0.76172,-2.06054 0,-1.34278 0.72266,-2.12891 0.72754,-0.79102 1.95801,-0.79102 1.10351,0 1.74316,0.71289 0.64453,0.70801 0.64453,1.92872 z m -0.89844,-0.26368 q -0.01,-0.7373 -0.41503,-1.17675 -0.4004,-0.43946 -1.06446,-0.43946 -0.75195,0 -1.20605,0.42481 -0.44922,0.4248 -0.51758,1.19629 z m 7.05079,0.26368 v 0.43945 h -4.13086 q 0.0586,0.92773 0.55664,1.41601 0.50293,0.4834 1.39648,0.4834 0.51758,0 1.00098,-0.12695 0.48828,-0.12695 0.96679,-0.38086 v 0.84961 q -0.48339,0.20508 -0.99121,0.3125 -0.50781,0.10742 -1.03027,0.10742 -1.30859,0 -2.0752,-0.76172 -0.76171,-0.76172 -0.76171,-2.06054 0,-1.34278 0.72265,-2.12891 0.72754,-0.79102 1.95801,-0.79102 1.10352,0 1.74316,0.71289 0.64454,0.70801 0.64454,1.92872 z m -0.89844,-0.26368 q -0.01,-0.7373 -0.41504,-1.17675 -0.40039,-0.43946 -1.06445,-0.43946 -0.75196,0 -1.20606,0.42481 -0.44922,0.4248 -0.51758,1.19629 z m 5.54199,-1.40625 q -0.15137,-0.0879 -0.33203,-0.12695 -0.17578,-0.0439 -0.39063,-0.0439 -0.76171,0 -1.17187,0.49804 -0.40527,0.49317 -0.40527,1.4209 V 168 h -0.90332 v -5.46875 h 0.90332 v 0.84961 q 0.2832,-0.49805 0.7373,-0.73731 0.4541,-0.24414 1.10352,-0.24414 0.0928,0 0.20507,0.0147 0.11231,0.01 0.24903,0.0342 z m 0.55176,-0.83984 h 4.26758 v 0.82031 l -3.37891,3.93067 h 3.37891 V 168 h -4.38965 v -0.82031 l 3.3789,-3.93067 h -3.25683 z m 5.7666,4.22852 h 1.03027 V 168 h -1.03027 z"
   id="text61"
   style="font-size:10px;line-height:0%;font-family:'DejaVu Sans';text-align:center;text-anchor:middle;fill:#111111"
   class="mod space"
   aria-label="schm. gesch. Leerz." />&#10;&#10;<path
   d="m 498.84863,61.083984 -3.47265,-3.472656 3.47265,-3.472656 v 1.866211 h 3.87598 v -4.210938 h 3.21289 l -0.007,7.423828 h -7.08203 z m -0.68359,-4.395507 v -0.895508 l -1.81836,1.818359 1.81836,1.818359 V 58.53418 h 7.08203 l 0.007,-6.056641 h -1.84571 l -0.007,4.210938 z"
   id="returntxt"
   style="font-size:14px;line-height:0%;font-family:'DejaVu Sans';fill:#111111"
   class="mod big"
   aria-label="⏎" />&#10;<path
   d="m 493.37891,23 h -9.5752 l -3.79883,-3.798828 3.79883,-3.798828 h 9.5752 z m -0.72266,-6.875 h -0.68848 l -3.07617,3.076172 3.07617,3.076172 h 0.68848 z m -6.8457,0 2.56347,2.563477 2.56348,-2.563477 z m 5.12695,6.152344 -2.56348,-2.563477 -2.56347,2.563477 z M 484.79492,16.125 h -0.69336 l -3.07617,3.085937 3.07617,3.066407 h 0.69336 l 3.07617,-3.076172 z"
   id="backspacetxt"
   style="font-size:10px;line-height:0%;font-family:'DejaVu Sans';fill:#111111"
   class="mod"
   aria-label="⌫" />&#10;</g>&#10;&#10;<g
   transform="translate(55,26)"
   id="g72">&#10;	<path
   d="m 3.9941406,-1.9824219 v -4.4824218 h -9.1796875 q -0.1367187,-0.4980469 0,-0.8789063 H 5.078125 v 5.3613281 q -0.6054688,0.2246094 -1.0839844,0 z"
   id="text62"
   style="font-size:20px;line-height:0%;font-family:'Linux Libertine';text-align:center;text-anchor:middle;fill:#111111;stroke-width:1.25"
   class="key"
   aria-label="¬" />&#10;	<path
   d="m 35.96582,-0.91796875 h 0.04883 l 3.4375,-7.76367185 h 1.054688 l -3.994141,8.8769531 h -1.044922 l -3.974609,-8.8769531 h 1.054688 z"
   id="text63"
   style="font-size:20px;line-height:0%;font-family:'Linux Libertine';text-align:center;text-anchor:middle;fill:#111111;stroke-width:1.25"
   class="key"
   aria-label="∨" />&#10;	<path
   d="m 72.03418,-7.7246094 h -0.03906 l -3.447265,7.7636719 h -1.054688 l 3.994141,-8.8769531 h 1.044922 l 3.974609,8.8769531 h -1.054688 z"
   id="text64"
   style="font-size:20px;line-height:0%;font-family:'Linux Libertine';text-align:center;text-anchor:middle;fill:#111111;stroke-width:1.25"
   class="key"
   aria-label="∧" />&#10;	<path
   d="m 107.49219,-11.5625 h 1.01562 v 10.6640625 h 5.38086 V 0 h -11.77734 v -0.8984375 h 5.38086 z"
   id="text65"
   style="font-size:20px;line-height:0%;font-family:'Linux Libertine';text-align:center;text-anchor:middle;fill:#111111;stroke-width:1.25"
   class="key"
   aria-label="⊥" />&#10;	<path
   d="m 144.39551,0.1953125 q 0.3125,-0.99609375 0.3125,-2.03125 0,0 0,-0.048828 h -6.76758 l 4.35547,-5.1171875 q -0.82031,-0.6835938 -1.80664,-1.0839844 l 0.63476,-0.8007813 q 0.97657,0.4394532 1.79688,1.1425782 l 3.19336,-3.7597654 0.75195,0.634765 -3.23242,3.7988285 q 1.67969,1.8359375 1.94336,4.3066406 h 3.78906 v 0.8789063 h -3.74023 q -0.01,1.0644531 -0.30274,2.0800781 z m 0.24414,-2.9589844 q -0.27344,-2.0214843 -1.64063,-3.5546875 l -3.02734,3.5546875 z"
   id="text66"
   style="font-size:20px;line-height:0%;font-family:'Linux Libertine';text-align:center;text-anchor:middle;fill:#111111;stroke-width:1.25"
   class="key"
   aria-label="∡" />&#10;&#10;	<path
   d="m 181.75781,0.24414063 h -0.8789 V -11.5625 h 0.8789 z m -2.63672,0 h -0.8789 V -11.5625 h 0.8789 z"
   id="text67"
   style="font-size:20px;line-height:0%;font-family:'Linux Libertine';text-align:center;text-anchor:middle;fill:#111111;stroke-width:1.25"
   class="key"
   aria-label="∥" />&#10;	<path
   d="m 221.82031,-1.640625 h -0.76172 q 0.70313,-1.6601563 2.22657,-3.1347656 h -17.40235 v -1.0449219 h 17.40235 q -1.29883,-1.0644531 -2.26563,-3.1445313 h 0.80078 q 0,0.039063 0.59571,0.6835938 0.60546,0.6445313 1.67968,1.5136719 1.08399,0.8691406 2.04102,1.2695312 v 0.4589844 q -1.875,0.6542969 -4.31641,3.3984375 z"
   id="text68"
   style="font-size:20px;line-height:0%;font-family:'Linux Libertine';text-align:center;text-anchor:middle;fill:#111111;stroke-width:1.25"
   class="key"
   aria-label="→" />&#10;	<path
   d="m 251.31152,-4.8242187 q -0.51757,-0.9960938 -1.47461,-2.0214844 -0.94726,-1.0351563 -1.76757,-1.0351563 -0.91797,0 -1.41602,0.625 -0.49805,0.6152344 -0.49805,1.5917969 0,1.1035156 0.57618,2.0410156 0.58593,0.9277344 1.58203,0.9277344 0.70312,0 1.64062,-0.7128906 0.9375,-0.7128906 1.35742,-1.4160156 z m 6.60157,0.1464843 q 0,-1.0351562 -0.60547,-2.0019531 -0.59571,-0.9765625 -1.5918,-0.9765625 -0.70312,0 -1.61133,0.7324219 -0.9082,0.7226562 -1.36719,1.4453125 0.4004,0.5566406 0.6543,0.8886719 0.26367,0.3320312 0.76172,0.9179687 0.49805,0.5761719 0.97656,0.8789062 Q 255.61816,-2.5 256.00879,-2.5 q 0.91797,0 1.40625,-0.6054688 0.49805,-0.6152343 0.49805,-1.5722656 z m 1.2207,-0.859375 q 0,1.5234375 -0.95703,2.7441406 -0.94727,1.2109376 -2.42188,1.2109376 -2.13867,0 -3.98437,-2.6953125 -0.72266,1.0156249 -1.85547,1.8652343 -1.12305,0.8496094 -2.13867,0.8496094 -1.20117,0 -2.04102,-0.8203125 -0.83984,-0.8203125 -0.83984,-2.3730469 0,-1.5234375 0.95703,-2.7441406 0.95703,-1.2207031 2.46094,-1.2207031 1.12304,0 2.19726,0.7910156 1.08399,0.7910156 1.75781,1.8652344 2.19727,-2.65625 4.02344,-2.65625 1.33789,0 2.08985,0.9082031 0.75195,0.8984375 0.75195,2.2753906 z"
   id="text69"
   style="font-size:20px;line-height:0%;font-family:'Linux Libertine';text-align:center;text-anchor:middle;fill:#111111;stroke-width:1.25"
   class="key"
   aria-label="∞" />&#10;	<path
   d="m 288.45898,-4.8242187 q -0.51757,-0.9960938 -1.47461,-2.0214844 -0.94726,-1.0351563 -1.76757,-1.0351563 -0.91797,0 -1.41602,0.625 -0.49805,0.6152344 -0.49805,1.5917969 0,1.1035156 0.57618,2.0410156 0.58593,0.9277344 1.58203,0.9277344 0.70312,0 1.64062,-0.7128906 0.9375,-0.7128906 1.35742,-1.4160156 z M 293.53711,-7.5 q -0.32227,-0.15625 -0.67383,-0.15625 -0.70312,0 -1.61133,0.7324219 -0.9082,0.7226562 -1.36718,1.4453125 0.40039,0.5566406 0.65429,0.8886719 0.26367,0.3320312 0.76172,0.9179687 0.49805,0.5761719 0.97656,0.8789062 Q 292.76562,-2.5 293.15625,-2.5 q 0.26367,0 0.38086,-0.019531 v 0.8789063 q -0.30274,0.058594 -0.63477,0.058594 -2.13867,0 -3.98437,-2.6953125 -0.72266,1.0156249 -1.85547,1.8652343 -1.12305,0.8496094 -2.13867,0.8496094 -1.20117,0 -2.04102,-0.8203125 -0.83984,-0.8203125 -0.83984,-2.3730469 0,-1.5234375 0.95703,-2.7441406 0.95703,-1.2207031 2.46094,-1.2207031 1.12304,0 2.19726,0.7910156 1.08399,0.7910156 1.75782,1.8652344 2.19726,-2.65625 4.02343,-2.65625 h 0.0977 z"
   id="text70"
   style="font-size:20px;line-height:0%;font-family:'Linux Libertine';text-align:center;text-anchor:middle;fill:#111111;stroke-width:1.25"
   class="key"
   aria-label="∝" />&#10;	<path
   d="m 324,-10.761719 q -2.00195,0 -3.4375,1.5039065 -1.43555,1.4941406 -1.43555,3.5351563 0,1.2792968 0.61524,2.4121093 0.61523,1.1328125 1.65039,1.8261719 l 4.95117,-8.652344 q -1.09375,-0.625 -2.34375,-0.625 z m -3.06641,10.07812525 q -1.29882,-0.79101565 -2.07031,-2.11914065 -0.76172,-1.3378906 -0.76172,-2.9199218 0,-2.4414063 1.72852,-4.1699219 1.73828,-1.7285159 4.16992,-1.7285159 1.49414,0 2.80273,0.703125 l 0.74219,-1.298828 0.6836,0.332031 -0.79102,1.367188 q 1.14258,0.8203124 1.80664,2.080078 0.66406,1.2597656 0.66406,2.7148438 0,2.4414062 -1.72851,4.1699218 -1.71875,1.72851565 -4.17969,1.72851565 -1.25977,0 -2.40234,-0.5078125 l -0.95704,1.66992185 -0.65429,-0.3613281 z m 1.12305,-0.42968745 q 0.9375,0.42968745 1.94336,0.42968745 2.02148,0 3.44727,-1.49414065 1.43554,-1.5039062 1.43554,-3.5449218 0,-1.171875 -0.51758,-2.2167969 -0.50781,-1.0546875 -1.38671,-1.7578125 z"
   id="text71"
   style="font-size:20px;line-height:0%;font-family:'Linux Libertine';text-align:center;text-anchor:middle;fill:#111111;stroke-width:1.25"
   class="key"
   aria-label="∅" />&#10;	<path
   d="m 362.04102,-4.4628906 h -4.31641 q -0.30274,0 -0.30274,-0.3808594 0,-0.2832031 0.15625,-0.546875 0.16602,-0.2734375 0.3418,-0.2734375 h 4.38477 q 0.2832,0 0.27343,0.4003906 0,0.1953125 -0.18554,0.4980469 -0.17578,0.3027344 -0.35156,0.3027344 z"
   id="text72"
   style="font-size:20px;line-height:0%;font-family:'Linux Libertine';text-align:center;text-anchor:middle;fill:#111111;stroke-width:1.25"
   class="key"
   aria-label="-" />&#10;</g>&#10;&#10;&#10;<path
   d="m 10.799805,55.030273 h 7.123047 l -1.59961,-1.599609 0.820313,-0.820312 2.693359,2.693359 v -2.625 h 1.162109 v 5.878906 h -1.162109 v -2.638672 l -2.693359,2.69336 -0.820313,-0.820313 1.59961,-1.599609 h -7.123047 z"
   id="text73"
   style="font-size:14px;line-height:0%;font-family:'DejaVu Sans';fill:#111111"
   class="mod big"
   aria-label="⇥" />&#10;&#10;<g
   transform="translate(73,62)"
   id="g84">&#10;	<path
   d="M -2.1777344,-0.76171875 5.9277344,-12.099609 H 4.3066406 l -8.046875,11.33789025 z M 6.6601562,0 H -5.6933594 q -0.3808593,0 -0.3808593,-0.30273438 0,-0.1953125 0.15625,-0.45898437 L 1.8652344,-11.582031 q 0.15625,-0.22461 0.15625,-0.38086 0,-0.15625 -0.1953125,-0.15625 h -4.4628907 q -1.015625,0 -1.4550781,0.576172 -0.4394531,0.566406 -0.8203125,1.8261721 l -0.6054687,-0.1074219 q 0.3222656,-1.6015622 0.4394531,-3.3398442 0.3027344,0.01953 0.703125,0.136719 0.4003906,0.107422 0.9179687,0.107422 h 8.7988282 q 0.8203125,-0.07813 1.2597656,-0.07813 0.4394531,0 0.4394531,0.195313 0,0.302734 -0.4785156,0.986328 L -0.91796875,-1.4355469 Q -1.09375,-1.1523437 -1.09375,-1.0351562 q 0,0.26367183 0.49804688,0.2539062 H 4.0625 q 1.0644531,0 1.6210937,-0.6738281 0.5566407,-0.6835938 0.8984375,-1.9433594 L 7.1875,-3.3007813 Q 6.7578125,-1.2792969 6.6601562,0 Z"
   id="text74"
   style="font-size:20px;line-height:0%;font-family:'Linux Libertine';text-align:center;text-anchor:middle;fill:#111111;stroke-width:1.25"
   class="key"
   aria-label="ℤ" />&#10;	<path
   d="m 40.25293,-8.8378906 q 0,0.2832031 -0.08789,0.6835937 -0.07813,0.390625 -0.166016,0.6738282 -0.08789,0.2832031 -0.126953,0.2832031 -0.07813,0 -0.322265,-0.390625 -0.244141,-0.390625 -0.517578,-0.4101563 -1.083985,1.4160157 -1.083985,2.5195313 0,0.5078125 0.253906,0.9667969 l 1.308594,1.4160156 q 0.761719,0.8789062 0.761719,1.796875 0,0.53710935 -0.253906,1.00585935 -0.244141,0.46875 -0.683594,0.46875 -0.05859,-0.7421875 -0.527344,-1.25976565 l -5.166015,-5.703125 q -0.410157,0.2832032 -0.605469,0.8496094 -0.185547,0.5566406 -0.185547,1.0546875 0,0.5957031 0.986328,1.8164062 0.996094,1.2109376 0.996094,1.8261719 0,0.47851565 -0.3125,0.85937502 Q 34.208008,0 33.84668,0 h -2.011719 q -0.03906,-0.078125 -0.04883,-0.1171875 0,-0.13671875 0.146484,-0.18554688 0.244141,-0.0390625 0.449219,-0.22460937 0.205078,-0.1953125 0.205078,-0.41015625 0,-0.2636719 -0.371094,-1.2695313 -0.361328,-1.015625 -0.361328,-1.4746093 0,-0.8984375 0.38086,-1.8554688 0.380859,-0.9570312 1.18164,-1.4941406 l -0.605469,-0.6640625 q -0.761718,-0.8789063 -0.761718,-1.8066406 0,-0.8398439 0.683593,-1.5820309 h 0.253907 q 0.01953,0.839843 0.507812,1.3867184 l 3.710938,4.1210937 0.0293,0.019531 q 0.332031,-1.5234375 1.152343,-2.5585938 -1.435547,-0.3613281 -1.435547,-1.5234375 0,-0.6152341 0.15625,-0.9960941 0.166016,-0.380859 0.332032,-0.46875 l 0.166015,-0.07813 q 0.136719,0.09766 0.136719,0.292969 0.0098,0.185547 0.244141,0.371094 0.24414,0.175781 0.986328,0.419922 1.279297,0.3417966 1.279297,1.2597654 z"
   id="text75"
   style="font-size:20px;line-height:0%;font-family:'Linux Libertine';text-align:center;text-anchor:middle;fill:#111111;stroke-width:1.25"
   class="key"
   aria-label="ℵ" />&#10;	<path
   d="M 72.664062,-5.8007812 75.125,-3.359375 74.421875,-2.65625 71.980469,-5.0976562 69.539062,-2.65625 l -0.71289,-0.703125 2.451172,-2.4414062 -2.451172,-2.4609376 0.71289,-0.703125 2.441407,2.4609376 2.441406,-2.4609376 0.703125,0.703125 z"
   id="text76"
   style="font-size:20px;line-height:0%;font-family:'Linux Libertine';text-align:center;text-anchor:middle;fill:#111111;stroke-width:1.25"
   class="key"
   aria-label="×" />&#10;	<path
   d="m 108.80566,0.0390625 h -1.58203 l -3.92578,-11.4355465 h 1.46485 l 0.91796,2.9394527 h 4.63868 l 0.94726,-2.9394527 h 1.45508 z m -0.76171,-1.5234375 1.85546,-5.6933594 h -3.79882 z"
   id="text77"
   style="font-size:20px;line-height:0%;font-family:'Linux Libertine';text-align:center;text-anchor:middle;fill:#111111;stroke-width:1.25"
   class="key"
   aria-label="∀" />&#10;	<path
   d="m 150.20117,-6.5820312 q 0,2.5 -1.24023,4.2578124 -1.40625,2.00195317 -3.89649,2.43164067 -1.31836,0.37109376 -2.61718,1.31835933 0.21484,-0.029297 0.39062,-0.029297 1.25977,0 3.0957,0.8886719 1.58203,0.7617187 2.49024,0.7519531 1.14258,0 1.73828,-0.7324219 l 0.3418,0.234375 q -1.14258,1.640625 -2.88086,1.640625 -0.66407,0 -1.31836,-0.1757813 -0.64453,-0.1757812 -1.05469,-0.3710937 -0.40039,-0.1855469 -0.98633,-0.5273437 -1.45508,-0.8300782 -2.36328,-0.8300782 -0.32227,0 -0.70312,0.2539063 -0.41016,0.4394531 -0.75196,0.9277344 l -0.78125,-0.4003907 q 0.13672,-0.234375 0.35156,-0.4589843 1.25,-1.5039063 3.04688,-2.4414063 -2.35352,-0.28320312 -3.89648,-2.0019531 -1.54297,-1.71875 -1.54297,-4.3554688 0,-2.9980469 1.66015,-4.9804691 1.66016,-1.982422 4.48242,-1.982422 2.78321,0 4.60938,1.78711 1.82617,1.7773436 1.82617,4.7949218 z m -9.25781,4.4238281 v -9.1015629 q -1.39649,1.5820316 -1.40625,4.7167973 0.01,2.6953124 1.40625,4.3847656 z m 0.67383,0.6738281 q 1.1914,0.96679688 2.66601,0.96679688 1.75782,0 2.8711,-1.53320318 1.12304,-1.5332031 1.12304,-4.1503906 0,-2.9199219 -1.35742,-4.5800781 -1.35742,-1.660156 -3.41797,-1.660156 -1.02539,0 -1.88476,0.576172 z"
   id="text78"
   style="font-size:20px;line-height:0%;font-family:'Linux Libertine';text-align:center;text-anchor:middle;fill:#111111;stroke-width:1.25"
   class="key"
   aria-label="ℚ" />&#10;&#10;	<path
   d="m 183.75,-12.900391 q 0.57617,0 2.57812,-0.03906 0.0781,0.09766 0.0781,0.341797 0,0.234375 -0.0781,0.322265 -1.12304,0.03906 -1.43554,0.332032 -0.30274,0.283203 -0.30274,1.484375 v 8.0175777 q 0,1.2011719 0.3125,1.49414067 0.3125,0.28320313 1.42578,0.33203126 0.0781,0.0976563 0.0781,0.34179687 0,0.234375 -0.0781,0.3125 Q 184.80469,0 183.73047,0 q -1.06445,0 -2.57813,0.0390625 -0.0977,-0.078125 -0.0977,-0.3125 0,-0.24414062 0.0977,-0.34179687 1.12305,-0.0390625 1.42578,-0.33203126 0.3125,-0.29296877 0.3125,-1.49414067 v -8.1738277 q 0,-1.484375 -0.91796,-1.484375 h -3.94532 q -0.91797,0 -0.91797,1.484375 v 8.1738277 q 0,1.2011719 0.3125,1.49414067 0.3125,0.28320313 1.42579,0.33203126 0.0781,0.0976563 0.0781,0.34179687 0,0.234375 -0.0781,0.3125 Q 177.24609,0 176.26953,0 q -1.03516,0 -2.59766,0.0390625 -0.0977,-0.078125 -0.0977,-0.3125 0,-0.24414062 0.0977,-0.34179687 1.12305,-0.0390625 1.42579,-0.33203126 0.3125,-0.29296877 0.3125,-1.49414067 v -8.0175777 q 0,-1.201172 -0.3125,-1.484375 -0.30274,-0.292969 -1.42579,-0.332032 -0.0977,-0.07813 -0.0977,-0.322265 0,-0.244141 0.0977,-0.341797 2.00196,0.03906 2.57813,0.03906 z"
   id="text79"
   style="font-size:20px;line-height:0%;font-family:'Linux Libertine';text-align:center;text-anchor:middle;fill:#111111;stroke-width:1.25"
   class="key"
   aria-label="Π" />&#10;	<path
   d="m 218.41211,-6.3867187 q 0.0684,-0.7714844 0.0684,-1.4160157 0,-1.6601562 -0.45899,-2.7636716 -0.45898,-1.113282 -1.39648,-1.113282 -0.74219,0 -1.24023,0.302735 -0.19532,0.117187 -0.49805,0.361328 -0.30274,0.234375 -0.52735,0.390625 -0.21484,0.146484 -0.40039,0.146484 -0.2832,0 -0.44921,-0.15625 -0.16602,-0.166015 -0.16602,-0.449218 0,-0.722657 1.11328,-0.9375 1.60156,-0.322266 2.46094,-0.322266 1.46484,0 2.30469,1.347656 0.83984,1.3378909 0.83984,3.3203128 0,0.7421875 -0.11719,1.6308593 -0.10742,0.8886719 -0.44922,2.03125 -0.33203,1.1328125 -0.85937,2.0410157 -0.51758,0.9082031 -1.44531,1.5429687 -0.92774,0.625 -2.10938,0.625 -1.39648,0 -2.39258,-0.86914062 -0.98633,-0.86914058 -0.98633,-2.26562498 0,-1.7578125 1.24024,-3.1054688 1.24023,-1.3574218 3.13476,-1.3574218 1.24024,0 2.33399,1.015625 z M 218.33398,-5.625 q -1.29882,-1.015625 -2.49023,-1.015625 -1.14258,0 -1.83594,1.0742188 -0.68359,1.0644531 -0.68359,2.4902343 0,1.1425782 0.53711,1.8847657 0.53711,0.73242182 1.52344,0.73242182 0.67382,0 1.20117,-0.46875 0.53711,-0.46875002 0.8789,-1.26953122 0.3418,-0.8007813 0.54688,-1.6308594 0.20508,-0.8398437 0.32226,-1.796875 z"
   id="text80"
   style="font-size:20px;line-height:0%;font-family:'Linux Libertine';text-align:center;text-anchor:middle;fill:#111111;stroke-width:1.25"
   class="key"
   aria-label="∂" />&#10;	<path
   d="m 242.83984,-8.9648438 h 1.00586 v 3.1445313 h 15.43946 Q 257.9668,-6.9042969 257,-8.9648438 h 0.80078 q 0.24414,0.3027344 0.66406,0.7519532 0.41993,0.4492187 1.5625,1.3964844 1.15235,0.9375 2.10938,1.3378906 v 0.4589844 q -0.82031,0.2832031 -1.98242,1.1523437 -1.15235,0.8691406 -2.33399,2.2265625 h -0.78125 q 0.74219,-1.7382813 2.2461,-3.1347656 H 243.8457 v 3.1347656 h -1.00586 z"
   id="text81"
   style="font-size:20px;line-height:0%;font-family:'Linux Libertine';text-align:center;text-anchor:middle;fill:#111111;stroke-width:1.25"
   class="key"
   aria-label="↦" />&#10;	<path
   d="m 285.52441,-0.61523437 q 0.0977,0.0976563 0.0977,0.34179687 0,0.234375 -0.0977,0.3125 Q 283.88379,0 283.34668,0 q -0.55664,0 -1.76758,0.0390625 -0.0781,-0.078125 -0.0781,-0.3125 0,-0.24414062 0.0781,-0.34179687 0.44922,-0.0488281 0.77149,-0.19531251 0.33203,-0.15625 0.55664,-0.44921872 0.22461,-0.3027344 0.34179,-0.5273438 0.11719,-0.234375 0.30274,-0.6933594 l 4.13086,-10.1953122 q 0.17578,-0.458985 0.47851,-0.46875 0.28321,0 0.45899,0.46875 l 3.95508,10.2343747 q 0.42968,1.1035157 0.71289,1.4257813 0.29296,0.32226563 1.07421,0.40039063 0.0977,0.0976563 0.0977,0.33203124 0,0.22460938 -0.0781,0.32226563 Q 293.06348,0 292.30176,0 q -0.82031,0 -2.42188,0.0390625 -0.0976,-0.078125 -0.0976,-0.3125 0,-0.24414062 0.0976,-0.34179687 1.00586,-0.10742188 1.19141,-0.41015623 0.18555,-0.3027344 -0.17578,-1.1914063 l -3.1836,-8.1445311 h -0.0879 l -3.16406,8.017578 q -0.38086,0.8203125 -0.17578,1.2402344 0.20508,0.41015623 1.24023,0.48828123 z"
   id="text82"
   style="font-size:20px;line-height:0%;font-family:'Linux Libertine';text-align:center;text-anchor:middle;fill:#111111;stroke-width:1.25"
   class="key"
   aria-label="Λ" />&#10;	<path
   d="m 323.15039,-2.8222656 v -7.2949224 q -3.30078,0.2441411 -3.30078,3.4960943 0,3.3789062 3.30078,3.7988281 z m 1.69922,-7.9003904 q 2.30469,0.175781 3.70117,1.3281247 1.40625,1.1523438 1.40625,2.7734376 0,1.5820312 -1.40625,2.8710937 -1.39648,1.2890625 -3.70117,1.5136719 0.0195,1.0644531 0.3418,1.31835935 0.32226,0.25390625 1.40625,0.30273438 0.0976,0.0976563 0.0976,0.34179687 0,0.234375 -0.0976,0.3125 Q 324.5957,0 324.00977,0 q -0.64454,0 -2.59766,0.0390625 -0.0781,-0.078125 -0.0781,-0.3125 0,-0.24414062 0.0781,-0.34179687 1.08398,-0.0390625 1.39648,-0.30273438 0.32227,-0.26367185 0.3418,-1.31835935 -1.33789,-0.097656 -2.33398,-0.4785157 -0.98633,-0.3808593 -1.49414,-0.8398437 -0.50782,-0.46875 -0.82032,-1.0742187 -0.3125,-0.6152344 -0.38086,-1.0253907 -0.0684,-0.4101562 -0.0684,-0.8300781 0,-1.4160156 1.25977,-2.6953125 1.25977,-1.2792965 3.83789,-1.5234375 -0.0195,-1.015625 -0.3418,-1.269531 -0.3125,-0.263672 -1.39648,-0.302735 -0.0781,-0.07813 -0.0781,-0.322265 0,-0.244141 0.0781,-0.341797 2.00195,0.03906 2.57812,0.03906 0.64454,0 2.60743,-0.03906 0.0976,0.09766 0.0976,0.341797 0,0.234375 -0.0976,0.322265 -1.06446,0.03906 -1.39649,0.292969 -0.33203,0.244141 -0.35156,1.259766 z m 0,0.625 v 7.2753904 q 1.12305,-0.1171875 1.8457,-0.4882813 0.72266,-0.3710937 1.00586,-0.9570312 0.29297,-0.5957031 0.38086,-1.0644531 0.0879,-0.46875 0.0879,-1.1523438 0,-1.796875 -0.86914,-2.6269531 -0.86914,-0.8300782 -2.45117,-0.9863279 z"
   id="text83"
   style="font-size:20px;line-height:0%;font-family:'Linux Libertine';text-align:center;text-anchor:middle;fill:#111111;stroke-width:1.25"
   class="key"
   aria-label="Φ" />&#10;	<path
   d="m 359.36035,-6.9628906 h 1.20117 q 1.20118,0 1.48438,-0.2148438 0.29297,-0.2246093 0.3418,-0.9375 0.0781,-0.078125 0.3125,-0.078125 0.24414,-0.00977 0.34179,0.078125 -0.0391,1.2011719 -0.0391,1.6796875 0,0.3613282 0.0391,1.7578125 -0.0976,0.078125 -0.34179,0.078125 -0.23438,0 -0.3125,-0.078125 -0.0391,-0.4199218 -0.12696,-0.6152343 -0.0781,-0.2050782 -0.48828,-0.3710938 -0.41016,-0.1757812 -1.21094,-0.1757812 h -1.20117 q -1.20117,0 -1.49414,0.2246093 -0.2832,0.2148438 -0.32226,0.9375 -0.0781,0.078125 -0.32227,0.078125 -0.23438,0 -0.3418,-0.078125 0.0391,-1.2011718 0.0391,-1.6796875 0,-0.3613281 -0.0391,-1.7578125 0.0977,-0.078125 0.3418,-0.078125 0.24414,-0.00977 0.32227,0.078125 0.0391,0.4199219 0.11718,0.6152344 0.0781,0.1953125 0.48828,0.3710938 0.41016,0.1660156 1.21094,0.1660156 z m 0.24414,-5.4785154 q -1.64062,0 -2.80273,1.484375 -1.16211,1.4746091 -1.16211,4.4140623 0,2.7636718 1.39648,4.3945312 1.40625,1.63085938 3.34961,1.63085938 1.75781,0 2.8711,-1.53320318 1.12304,-1.5332031 1.12304,-4.1503906 0,-2.9199219 -1.35742,-4.5800781 -1.35742,-1.660156 -3.41797,-1.660156 z m 6.69922,5.8593748 q 0,2.5 -1.24023,4.2578124 -0.83985,1.2011719 -2.14844,1.86523442 -1.29883,0.65429688 -2.92969,0.65429688 -2.63672,0 -4.45312,-1.7578125 -1.80664,-1.7578125 -1.80664,-4.6386719 0,-2.9980469 1.66015,-4.9804691 1.66016,-1.982422 4.48242,-1.982422 2.78321,0 4.60938,1.78711 1.82617,1.7773436 1.82617,4.7949218 z"
   id="text84"
   style="font-size:20px;line-height:0%;font-family:'Linux Libertine';text-align:center;text-anchor:middle;fill:#111111;stroke-width:1.25"
   class="key"
   aria-label="Θ" />&#10;</g>&#10;&#10;&#10;<g
   transform="translate(84,98)"
   id="g94">&#10;	<path
   d="m -2.2216797,-1.8457031 v -9.3359379 q -0.2441406,0.234375 -0.4882812,0.53711 -1.1914063,1.4648435 -1.1914063,3.9648435 0,1.3964844 0.4296875,2.6855469 0.4296875,1.2890625 1.25,2.1484375 z m 2.90039064,2.0410156 q -2.06054684,0 -3.55468754,-0.96679687 -1.484375,-0.96679683 -2.1679687,-2.40234373 -0.6738281,-1.4453125 -0.6738281,-3.125 0,-3.2226563 2.1191406,-5.1660159 1.8554687,-1.699219 4.29687499,-1.699219 1.43554691,0 2.80273441,0.449219 1.3769531,0.439453 1.5820312,0.458985 0.3417969,2.099609 0.4394531,3.0957027 -0.3808593,0.1953125 -0.6640625,0.097656 -1.015625,-3.359375 -4.37499996,-3.359375 -1.015625,0 -2.02148434,0.683594 v 10.4687498 q 0.96679684,0.65429683 2.19726559,0.65429683 1.39648441,0 2.49023441,-0.50781253 1.09375,-0.5175781 2.1484375,-1.6796875 0.3027343,0 0.4589843,0.3027344 -2.0605468,2.6953125 -5.07812496,2.6953125 z"
   id="text85"
   style="font-size:20px;line-height:0%;font-family:'Linux Libertine';text-align:center;text-anchor:middle;fill:#111111;stroke-width:1.25"
   class="key"
   aria-label="ℂ" />&#10;	<path
   d="m 37.704102,-12.060547 h -4.521485 l 4.355469,5.498047 -0.01953,0.097656 -5.195313,5.6054687 h 5.53711 q 1.064453,0 1.591796,-0.6347656 0.527344,-0.6445313 0.869141,-1.9042969 0.380859,-0.058594 0.664063,0.097656 Q 40.790039,-1.1230469 40.458008,0 h -8.359375 l -1.416016,0.0390625 q -0.05859,-0.09765625 -0.04883,-0.32226563 0.0098,-0.23437499 0.04883,-0.33203124 0.302735,-0.078125 0.576172,-0.41992183 l 4.423828,-5.1464844 0.03906,-0.019531 -3.896485,-5.3222661 q -0.478515,-0.664062 -1.123047,-0.751953 -0.05859,-0.09766 -0.05859,-0.332031 0,-0.234375 0.05859,-0.3125 l 2.021485,0.01953 h 7.460937 q 0.244141,1.16211 0.419922,3.0957035 -0.322265,0.1367187 -0.664062,0.1074219 -0.22461,-0.6835934 -0.341797,-0.9765624 -0.117188,-0.302735 -0.371094,-0.69336 -0.244141,-0.390625 -0.615234,-0.537109 -0.371094,-0.15625 -0.908203,-0.15625 z"
   id="text86"
   style="font-size:20px;line-height:0%;font-family:'Linux Libertine';text-align:center;text-anchor:middle;fill:#111111;stroke-width:1.25"
   class="key"
   aria-label="Σ" />&#10;	<path
   d="m 71.155273,-0.45898438 q 0,-0.80078122 -0.01953,-1.85546872 -0.01953,-1.0644532 -0.01953,-1.8652344 V -6.796875 q 0,-7.158203 3.271484,-7.167969 0.439453,0 0.751953,0.253906 0.3125,0.253907 0.3125,0.615235 0,0.322265 -0.263671,0.546875 -0.253907,0.224609 -0.615235,0.224609 -0.341797,0 -0.644531,-0.322265 -0.292969,-0.332032 -0.517578,-0.332032 -0.820313,0 -0.820313,3.3984379 0,0.4589843 0.03906,1.7480469 0.03906,1.2890625 0.03906,1.953125 v 2.3828124 q 0,2.95898443 -0.419922,4.7460938 -0.419921,1.7871094 -1.103515,2.4804688 -0.673828,0.6933593 -1.708985,0.6933593 -0.478515,0 -0.78125,-0.2441406 -0.302734,-0.2441406 -0.302734,-0.6152344 0,-0.3027343 0.234375,-0.5273437 0.244141,-0.2148438 0.546875,-0.2148438 0.302734,0 0.654297,0.3027344 0.361328,0.3125 0.507812,0.3125 0.38086,0 0.615235,-1.2792969 0.24414,-1.27929685 0.24414,-2.61718748 z"
   id="text87"
   style="font-size:20px;line-height:0%;font-family:'Linux Libertine';text-align:center;text-anchor:middle;fill:#111111;stroke-width:1.25"
   class="key"
   aria-label="∫" />&#10;	<path
   d="M 111.3252,-11.435547 V 0 h -6.6211 v -1.2988281 h 5.23438 v -4.140625 h -4.92188 v -1.2988281 h 4.92188 v -3.3984378 h -5.11719 v -1.298828 z"
   id="text88"
   style="font-size:20px;line-height:0%;font-family:'Linux Libertine';text-align:center;text-anchor:middle;fill:#eeeeee;stroke-width:1.25"
   class="key nubkey"
   aria-label="∃" />&#10;	<path
   d="m 148.17969,0 h -2.99805 q -2.36328,0 -4.01367,-1.6894531 -1.65039,-1.6894532 -1.65039,-4.0234375 0,-2.34375 1.66015,-4.0332032 1.66016,-1.6894532 4.00391,-1.6894532 h 2.99805 v 1.132813 h -3.09571 q -1.67968,0 -2.82226,1.1718746 -1.14258,1.171875 -1.33789,2.8515625 h 7.08008 V -5.15625 h -7.08008 q 0.22461,1.71875 1.40625,2.8710937 1.1914,1.1425782 2.7539,1.1425782 h 3.09571 z"
   id="text89"
   style="font-size:20px;line-height:0%;font-family:'Linux Libertine';text-align:center;text-anchor:middle;fill:#111111;stroke-width:1.25"
   class="key"
   aria-label="∈" />&#10;&#10;	<path
   d="m 179.63867,-11.142578 -4.05273,10.45898425 h 8.05664 L 179.67773,-11.142578 Z m 1.04492,-2.021485 4.88282,12.76367237 q 0.0781,0.24414063 0.0781,0.28320313 Q 185.64453,0 185.22461,0 H 174.6582 q -0.41992,0 -0.41992,-0.13671875 0,-0.0195313 0.10742,-0.26367188 l 5.09766,-12.76367237 z"
   id="text90"
   style="font-size:20px;line-height:0%;font-family:'Linux Libertine';text-align:center;text-anchor:middle;fill:#111111;stroke-width:1.25"
   class="key"
   aria-label="Δ" />&#10;	<path
   d="m 216.49805,-1.6015625 4.10156,-10.1953125 h -8.35938 z M 216.70312,0 h -1.1621 q 0,0 -5.0586,-12.021484 -0.0781,-0.15625 -0.0781,-0.214844 0,-0.06836 0.0781,-0.08789 h 0.23438 10.66406 q 0.32226,0 0.32226,0.08789 0,0.05859 -0.0781,0.214844 Q 218.62695,-4.6777344 216.70312,0 Z"
   id="text91"
   style="font-size:20px;line-height:0%;font-family:'Linux Libertine';text-align:center;text-anchor:middle;fill:#eeeeee;stroke-width:1.25"
   class="key nubkey"
   aria-label="∇" />&#10;	<path
   d="m 255.64258,-10.244141 q 0,-0.703125 -0.0684,-1.064453 -0.0586,-0.371094 -0.30274,-0.576172 -0.23437,-0.214843 -0.49804,-0.273437 -0.25391,-0.05859 -0.86914,-0.117188 -0.0977,-0.07813 -0.10743,-0.322265 0,-0.244141 0.10743,-0.341797 2.00195,0.03906 2.21679,0.03906 l 2.23633,-0.03906 q 0.0781,0.09766 0.0781,0.341797 0,0.234375 -0.0781,0.322265 -1.12305,0.117188 -1.43555,0.439453 -0.30273,0.3125 -0.30273,1.591797 v 9.66796913 q 0,0.61523437 -0.45898,0.61523437 -0.38086,0 -0.78125,-0.51757813 l -7.00196,-8.79882817 q -0.0781,-0.097656 -0.19531,-0.2539062 -0.11719,-0.1660156 -0.19531,-0.2441406 -0.0684,-0.087891 -0.14649,-0.1855469 -0.0781,-0.097656 -0.12695,-0.1367185 -0.0488,-0.03906 -0.0684,-0.01953 -0.0977,0.05859 -0.10742,1.2402349 V -2.65625 q 0,0.703125 0.0586,1.0742188 0.0684,0.3613281 0.30274,0.5761718 0.24414,0.20507815 0.49804,0.2636719 0.26368,0.0585938 0.87891,0.12695313 0.0781,0.0976563 0.0781,0.34179687 0.01,0.234375 -0.0781,0.3125 Q 247.27344,0 245.81836,0 q -1.5625,0 -3.51563,0.0390625 -0.0976,-0.078125 -0.10742,-0.3125 0,-0.24414062 0.10742,-0.34179687 1.12305,-0.1171875 1.42579,-0.43945313 0.3125,-0.3222656 0.3125,-1.6015625 v -8.339844 q -0.0977,-0.439453 -0.53711,-0.839844 -0.43946,-0.40039 -1.04493,-0.439453 -0.0976,-0.07813 -0.0976,-0.322265 0,-0.244141 0.0976,-0.341797 l 5.22461,0.03906 6.85547,8.837891 q 0.13672,0.1757812 0.29297,0.4003906 0.16602,0.2246094 0.24414,0.3222656 0.0879,0.097656 0.17578,0.2050782 0.0879,0.097656 0.14649,0.1367187 0.0586,0.039063 0.0977,0.039063 0.13672,0 0.14649,-0.6054687 z m -8.70117,9.462891 q -0.0195,-5 0,-11.318359 h -1.29883 V -0.78125 Z"
   id="text92"
   style="font-size:20px;line-height:0%;font-family:'Linux Libertine';text-align:center;text-anchor:middle;fill:#111111;stroke-width:1.25"
   class="key"
   aria-label="ℕ" />&#10;	<path
   d="m 291.00293,-9.5605469 q 0,-0.8398441 -0.27344,-1.4453121 -0.26367,-0.615235 -0.70312,-0.917969 -0.43946,-0.3125 -0.91797,-0.449219 -0.46875,-0.146484 -0.9668,-0.146484 -0.97656,0 -1.73828,0.15625 v 5.9277341 h 1.01563 q 2.19726,0 2.91992,-1.0253906 0.66406,-0.9179688 0.66406,-2.0996094 z m 1.62109,-0.019531 q 0,1.3769531 -0.91797,2.3046875 -0.9082,0.9179687 -1.8457,1.2109375 l 2.13867,4.1015625 q 0.80078,1.54296872 1.86524,1.54296872 L 293.94238,0 q -0.30273,0.1171875 -0.85937,0.1171875 -0.83985,0 -1.51367,-0.46875 -0.66407,-0.46875 -1.06446,-1.2304687 l -2.06054,-3.8378907 q -0.17579,-0.2636718 -2.04102,-0.2636718 v 4.2480468 q 0,0.4589844 0.24414,0.67382815 0.25391,0.20507813 0.85938,0.20507813 h 0.51757 q 0.15625,0 0.15625,0.15624999 v 0.38085938 l -0.0391,0.0390625 q -1.71875,-0.0390625 -2.51953,-0.0390625 l -3.79883,0.0390625 -0.0391,-0.0390625 v -0.38085938 q 0,-0.15624999 0.15625,-0.15624999 h 1.12305 V -12.34375 l -0.83985,0.01953 q -0.15625,0 -0.16601,-0.136719 v -0.380859 q 0.32226,-0.07813 2.23633,-0.15625 1.92382,-0.07813 3.63281,-0.07813 2.57812,0 3.63281,0.996094 1.06445,0.996094 1.06445,2.4999999 z m -8.87695,9.02343748 h 0.19531 q 0.40039,0 0.58594,-0.1171875 0.19531,-0.12695313 0.22461,-0.27343751 0.0293,-0.15624997 0.0293,-0.48828127 V -11.484375 q 0,-0.498047 -0.11719,-0.703125 -0.10742,-0.214844 -0.45899,-0.214844 -0.0976,0 -0.14648,0.01953 l -0.3125,0.0098 z"
   id="text93"
   style="font-size:20px;line-height:0%;font-family:'Linux Libertine';text-align:center;text-anchor:middle;fill:#111111;stroke-width:1.25"
   class="key"
   aria-label="ℝ" />&#10;	<path
   d="m 324.84961,-2.4414063 q 0,1.2011719 0.3125,1.49414067 0.3125,0.28320313 1.43555,0.33203126 0.0976,0.0976563 0.0976,0.34179687 0,0.234375 -0.0976,0.3125 Q 324.5957,0 324.00977,0 q -0.64454,0 -2.59766,0.0390625 -0.0781,-0.078125 -0.0781,-0.3125 0,-0.24414062 0.0781,-0.34179687 1.12305,-0.0390625 1.42578,-0.33203126 0.3125,-0.29296877 0.3125,-1.49414067 v -2.6562499 q -0.66406,0 -1.18164,-0.068359 -0.51758,-0.078125 -1.11328,-0.3222656 -0.58594,-0.2539063 -0.98633,-0.6542969 -0.40039,-0.4003906 -0.66406,-1.1230469 -0.25391,-0.7324219 -0.25391,-1.7382813 0,-1.3378907 -0.40039,-2.0507817 -0.40039,-0.722656 -0.83984,-0.849609 -0.26367,-0.05859 -0.25391,-0.175781 0,-0.244141 0.40039,-0.244141 h 0.61524 q 0.78125,0 1.35742,0.800781 0.58594,0.800782 0.58594,2.2070317 0,1.7968751 0.80078,2.6660157 0.80078,0.8691406 1.93359,0.8886719 v -4.6972653 q 0,-1.201172 -0.3125,-1.484375 -0.30273,-0.292969 -1.42578,-0.332032 -0.0781,-0.07813 -0.0781,-0.322265 0,-0.244141 0.0781,-0.341797 2.00195,0.03906 2.57812,0.03906 0.64454,0 2.60743,-0.03906 0.0976,0.09766 0.0976,0.341797 0,0.234375 -0.0976,0.322265 -1.12305,0.03906 -1.43555,0.332032 -0.3125,0.283203 -0.3125,1.484375 v 4.6972653 q 1.29883,-0.019531 2.03125,-0.9472657 0.73242,-0.9277343 0.73242,-2.8320312 0,-1.1816404 0.55664,-1.9824224 0.56641,-0.800781 1.36719,-0.800781 h 0.57617 q 0.43945,0 0.43945,0.244141 0,0.136719 -0.2832,0.224609 -1.20117,0.341797 -1.20117,2.3925784 0,1.1035156 -0.26367,1.9238281 -0.25391,0.8203125 -0.64453,1.2792969 -0.39063,0.4589844 -0.97657,0.7324219 -0.58593,0.2636718 -1.12304,0.3515625 -0.52735,0.078125 -1.21094,0.078125 z"
   id="text94"
   style="font-size:20px;line-height:0%;font-family:'Linux Libertine';text-align:center;text-anchor:middle;fill:#111111;stroke-width:1.25"
   class="key"
   aria-label="Ψ" />&#10;&#10;&#10;</g>&#10;&#10;<g
   transform="translate(101,134)"
   id="g104">&#10;    <path
   d="M 4.1064453,-14.658203 0.51269531,0 -0.24902344,0.40039063 -3.0517578,-4.4238281 -4.3310547,-3.8964844 -4.5849609,-4.4628906 q 1.2207031,-0.6445313 2.2558593,-1.4160156 l 2.44140629,4.21875 3.30078121,-13.6816408 v -0.09766 h 2.2558594 v 0.78125 z"
   id="text95"
   style="font-size:20px;line-height:0%;font-family:'Linux Libertine';text-align:center;text-anchor:middle;fill:#111111;stroke-width:1.25"
   class="key"
   aria-label="√" />&#10;    <path
   d="m 34.842773,-6.9628906 h 2.236329 q 1.201171,0 1.484375,-0.2148438 0.292968,-0.2246093 0.341796,-0.9375 0.09766,-0.078125 0.332032,-0.078125 0.24414,-0.00977 0.322265,0.078125 -0.03906,1.2011719 -0.03906,1.6796875 0,0.3613282 0.03906,1.7578125 -0.07813,0.078125 -0.322265,0.078125 -0.234375,0 -0.332032,-0.078125 -0.03906,-0.4199218 -0.126953,-0.6152343 -0.07813,-0.2050782 -0.488281,-0.3710938 -0.410156,-0.1757812 -1.210937,-0.1757812 h -2.236329 q -1.201171,0 -1.49414,0.2246093 -0.292969,0.2148438 -0.332031,0.9375 -0.09766,0.078125 -0.341797,0.078125 -0.234375,0 -0.3125,-0.078125 0.03906,-1.2011718 0.03906,-1.6796875 0,-0.3613281 -0.03906,-1.7578125 0.07813,-0.078125 0.3125,-0.078125 0.24414,-0.00977 0.341797,0.078125 0.03906,0.4199219 0.117187,0.6152344 0.08789,0.1953125 0.498047,0.3710938 0.410156,0.1660156 1.210937,0.1660156 z m -3.125,-5.9375004 h 8.486329 q 0.517578,0 0.976562,-0.07813 0.07813,0 0.07813,0.05859 0.03906,0.15625 0.136719,1.240234 0.107422,1.083985 0.107422,1.660157 -0.283203,0.1562497 -0.664063,0.097656 -0.361328,-1.123047 -0.683594,-1.416016 -0.3125,-0.302734 -1.376953,-0.302734 h -5.634765 q -1.064453,0 -1.386719,0.302734 -0.3125,0.302735 -0.673828,1.416016 -0.38086,0.058594 -0.664063,-0.097656 0,-0.53711 0.09766,-1.640625 0.107421,-1.103516 0.146484,-1.259766 0,-0.05859 0.07813,-0.05859 0.458984,0.07813 0.976562,0.07813 z M 40.204102,0 h -8.486329 q -0.517578,0 -0.976562,0.078125 -0.07813,0 -0.07813,-0.05859375 -0.03906,-0.15625 -0.146484,-1.24023435 -0.09766,-1.0839844 -0.09766,-1.6601563 0.283203,-0.15625 0.664063,-0.097656 0.361328,1.1230469 0.673828,1.4257812 0.322266,0.2929688 1.386719,0.2929688 h 5.634765 q 1.064453,0 1.376953,-0.2929688 0.322266,-0.3027343 0.683594,-1.4257812 0.38086,-0.058594 0.664063,0.097656 0,0.5371094 -0.107422,1.640625 -0.09766,1.10351565 -0.136719,1.25976565 0,0.05859375 -0.07813,0.05859375 Q 40.72168,0 40.204102,0 Z"
   id="text96"
   style="font-size:20px;line-height:0%;font-family:'Linux Libertine';text-align:center;text-anchor:middle;fill:#111111;stroke-width:1.25"
   class="key"
   aria-label="Ξ" />&#10;    <path
   d="m 74.53418,-8.5839844 h 1.015625 v 4.2480469 q 0,2.1386719 -0.800782,3.33984375 -0.800781,1.19140625 -2.861328,1.19140625 -1.96289,0 -2.705078,-1.18164063 -0.732422,-1.19140627 -0.732422,-3.34960937 v -4.2480469 h 1.025391 v 4.2480469 q 0,1.1425781 0.166016,1.8945312 0.166015,0.7421876 0.71289,1.2597657 0.556641,0.5175781 1.494141,0.5175781 1.542969,0 2.109375,-0.9667969 0.576172,-0.9667969 0.576172,-2.7050781 z"
   id="text97"
   style="font-size:20px;line-height:0%;font-family:'Linux Libertine';text-align:center;text-anchor:middle;fill:#111111;stroke-width:1.25"
   class="key"
   aria-label="∪" />&#10;    <path
   d="m 105.47559,0 h -1.02539 v -4.2382812 q 0,-2.1386719 0.80078,-3.3398438 0.80078,-1.2011719 2.86132,-1.2011719 1.9629,0 2.69532,1.1914063 0.74218,1.1914062 0.74218,3.3496094 V 0 h -1.01562 v -4.2382812 q 0,-1.1425782 -0.17578,-1.8945313 -0.16602,-0.7519531 -0.72266,-1.2695312 -0.54687,-0.5175782 -1.48437,-0.5175782 -1.54297,0 -2.10938,0.9765625 -0.5664,0.9667969 -0.5664,2.7050782 z"
   id="text98"
   style="font-size:20px;line-height:0%;font-family:'Linux Libertine';text-align:center;text-anchor:middle;fill:#111111;stroke-width:1.25"
   class="key"
   aria-label="∩" />&#10;&#10;    <path
   d="m 148.43848,-1.6992187 v 0.8398437 h -4.23828 q -0.78125,0 -1.40625,-0.078125 -0.61524,-0.078125 -1.25,-0.3222656 -0.625,-0.2441406 -1.05469,-0.625 -0.42969,-0.390625 -0.70313,-1.0644532 -0.26367,-0.6738281 -0.26367,-1.5722656 0,-0.8398437 0.27344,-1.4648437 0.2832,-0.6347656 0.71289,-1.0058594 0.42969,-0.3710937 1.07422,-0.5761719 0.65429,-0.2148437 1.25,-0.2832031 0.60547,-0.068359 1.36719,-0.068359 h 4.23828 v 0.8398438 h -4.23828 q -3.72071,0 -3.72071,2.5390625 0,1.6210937 0.97656,2.2363281 0.98633,0.6054688 2.74415,0.6054688 z"
   id="text99"
   style="font-size:20px;line-height:0%;font-family:'Linux Libertine';text-align:center;text-anchor:middle;fill:#111111;stroke-width:1.25"
   class="key"
   aria-label="⊂" />&#10;    <path
   d="m 182.17285,-2.34375 -0.0586,0.9667969 h 1.93359 q 0.0977,0 0.3418,0 0.24414,0 0.30273,0 0.0586,0 0.22461,-0.019531 0.17578,-0.019531 0.22461,-0.058594 0.0488,-0.048828 0.14649,-0.1171875 0.10742,-0.068359 0.14648,-0.1757813 0.0391,-0.1074218 0.0781,-0.2539062 0.0391,-0.15625 0.0586,-0.3808594 0.30273,-0.1171875 0.51758,0 0,1.1816406 -0.13672,2.3828125 h -4.16016 q -0.34179,0 -0.34179,-0.28320313 l 0.16601,-2.57812497 q 1.37695,-0.8007813 2.00195,-1.9238281 0.63477,-1.1328125 0.63477,-2.7539063 0,-2.1582031 -1.14258,-3.5449215 -1.14258,-1.396485 -3.05664,-1.396485 -1.98242,0 -3.08594,1.435547 -1.09375,1.4257814 -1.09375,3.4863283 0,1.640625 0.59571,2.6953125 0.60547,1.0449218 2.02148,2.0019531 l 0.15625,2.55859372 Q 178.64746,0 178.31543,0 h -4.26758 q -0.13672,-1.1425781 -0.13672,-2.3828125 0.22461,-0.1171875 0.49805,0 0.0586,0.703125 0.32227,0.859375 0.26367,0.1464844 1.05468,0.1464844 0.0977,0 0.16602,0 h 2.06055 l -0.0781,-0.9667969 q -1.69922,-0.5761719 -2.80273,-1.9628906 -1.10352,-1.3964844 -1.10352,-3.2324219 0,-1.3769531 0.66406,-2.6269535 0.66407,-1.25 2.07032,-2.11914 1.40625,-0.878907 3.29101,-0.878907 2.8418,0 4.42383,1.63086 1.5918,1.6308592 1.5918,3.9941405 0,1.7578125 -1.10352,3.203125 -1.09375,1.4355469 -2.79297,1.9921875 z"
   id="text100"
   style="font-size:20px;line-height:0%;font-family:'Linux Libertine';text-align:center;text-anchor:middle;fill:#111111;stroke-width:1.25"
   class="key"
   aria-label="Ω" />&#10;    <path
   d="m 213.97363,-12.900391 h 4.10157 q 1.62109,-0.01953 2.40234,-0.03906 0.22461,1.298828 0.29297,3.1347655 -0.26367,0.1171875 -0.57617,0.087891 -0.19532,-0.6640621 -0.33204,-0.9765621 -0.12695,-0.322266 -0.38085,-0.712891 -0.24415,-0.390625 -0.61524,-0.537109 -0.37109,-0.15625 -0.9082,-0.15625 h -2.40235 q -0.72265,0 -0.72265,0.683593 v 8.9746097 q 0,1.2011719 0.3125,1.49414067 0.3125,0.28320313 1.42578,0.33203126 0.0977,0.0976563 0.0977,0.34179687 0.01,0.234375 -0.0977,0.3125 Q 214.96973,0 213.99316,0 q -1.03515,0 -2.59765,0.0390625 -0.0781,-0.078125 -0.0781,-0.3125 0,-0.24414062 0.0781,-0.34179687 1.12304,-0.0390625 1.42578,-0.33203126 0.3125,-0.29296877 0.3125,-1.49414067 v -8.0175777 q 0,-1.201172 -0.3125,-1.484375 -0.30274,-0.292969 -1.42578,-0.332032 -0.0781,-0.07813 -0.0781,-0.322265 0,-0.244141 0.0781,-0.341797 z"
   id="text101"
   style="font-size:20px;line-height:0%;font-family:'Linux Libertine';text-align:center;text-anchor:middle;fill:#111111;stroke-width:1.25"
   class="key"
   aria-label="Γ" />&#10;    <path
   d="m 246.7998,-7.5390625 h 14.80469 V -6.5625 h -15.49804 q -0.49805,0.6445313 -1.24024,1.2207031 0.70313,0.5175782 1.2793,1.2402344 h 15.45898 v 0.9863281 h -14.78515 q 0.34179,0.5761719 0.74218,1.4355469 h -0.80078 q -0.95703,-1.1425781 -2.13867,-2.0996094 -1.18164,-0.9570312 -2.17773,-1.3183593 v -0.4589844 q 0.99609,-0.3613281 2.00195,-1.1621094 1.01562,-0.8007812 2.31445,-2.265625 h 0.76172 q -0.33203,0.78125 -0.72266,1.4453125 z"
   id="text102"
   style="font-size:20px;line-height:0%;font-family:'Linux Libertine';text-align:center;text-anchor:middle;fill:#111111;stroke-width:1.25"
   class="key"
   aria-label="⇐" />&#10;    <path
   d="m 280.36816,-6.5625 q -0.49804,0.6445313 -1.24023,1.2207031 0.70312,0.5175782 1.2793,1.2402344 h 15.19531 q 0.57617,-0.7226562 1.2793,-1.2402344 -0.74219,-0.5761718 -1.24024,-1.2207031 z m 0.69336,-0.9765625 h 13.88672 q -0.39062,-0.6640625 -0.72265,-1.4453125 h 0.76171 q 1.29883,1.4648438 2.30469,2.265625 1.01563,0.8007813 2.01172,1.1621094 v 0.4589844 q -0.99609,0.3613281 -2.17773,1.3183593 -1.18164,0.9570313 -2.13868,2.0996094 h -0.80078 q 0.40039,-0.859375 0.74219,-1.4355469 h -13.84766 q 0.3418,0.5761719 0.74219,1.4355469 h -0.80078 q -0.95703,-1.1425781 -2.13867,-2.0996094 -1.18164,-0.9570312 -2.17774,-1.3183593 v -0.4589844 q 0.9961,-0.3613281 2.00196,-1.1621094 1.01562,-0.8007812 2.31445,-2.265625 h 0.76172 q -0.33203,0.78125 -0.72266,1.4453125 z"
   id="text103"
   style="font-size:20px;line-height:0%;font-family:'Linux Libertine';text-align:center;text-anchor:middle;fill:#111111;stroke-width:1.25"
   class="key"
   aria-label="⇔" />&#10;    <path
   d="m 328.78027,-3.0566406 h -14.79492 v -0.9863281 h 15.49805 q 0.49805,-0.6445313 1.24023,-1.2207032 -0.70312,-0.5175781 -1.27929,-1.2402343 h -15.45899 v -0.9765625 h 14.77539 q -0.34179,-0.5761719 -0.74219,-1.4355469 h 0.80079 q 0.95703,1.1425781 2.13867,2.0996094 1.18164,0.9570312 2.1875,1.3183593 v 0.4589844 q -0.9961,0.3613281 -2.01172,1.1621094 -1.01563,0.8007812 -2.31445,2.2558594 h -0.75196 q 0.32227,-0.7714844 0.71289,-1.4355469 z"
   id="text104"
   style="font-size:20px;line-height:0%;font-family:'Linux Libertine';text-align:center;text-anchor:middle;fill:#111111;stroke-width:1.25"
   class="key"
   aria-label="⇒" />&#10;</g>&#10;&#10;&#10;<g
   transform="translate(561,26)"
   id="g108">&#10;    <path
   d="m 3.9501953,-7.2753906 v 0.8789062 h -7.9003906 v -0.8789062 z m 0,2.1582031 v 0.8789063 h -7.9003906 v -0.8789063 z m 0,2.1386719 v 0.8789062 h -7.9003906 v -0.8789062 z"
   id="text105"
   style="font-size:20px;line-height:0%;font-family:'Linux Libertine';text-align:center;text-anchor:middle;fill:#111111;stroke-width:1.25"
   class="key"
   aria-label="≡" />&#10;    <path
   d="M 36.444336,0.24414063 H 35.56543 V -11.5625 h 0.878906 z"
   id="text106"
   style="font-size:20px;line-height:0%;font-family:'Linux Libertine';text-align:center;text-anchor:middle;fill:#111111;stroke-width:1.25"
   class="key"
   aria-label="∣" />&#10;    <path
   d="m 75.178711,-1.1132812 q -1.337891,1.3085937 -3.203125,1.3085937 -1.855469,0 -3.173828,-1.3183594 -1.31836,-1.3183594 -1.31836,-3.1542968 0,-1.8457032 1.328125,-3.1738282 1.328125,-1.328125 3.164063,-1.328125 1.855469,0 3.193359,1.328125 1.347657,1.328125 1.347657,3.1738282 0,1.8554687 -1.337891,3.1640625 z m -0.302734,-5.4589844 -2.197266,2.1875 2.285156,2.265625 q 0.683594,-0.9667969 0.673828,-2.1582031 0,-1.2890625 -0.761718,-2.2949219 z m -0.703125,-0.703125 q -0.966797,-0.7324219 -2.197266,-0.7226563 -1.210938,0 -2.158203,0.7226563 l 2.1875,2.1972656 z m -5.058594,0.703125 q -0.751953,1.0058594 -0.751953,2.2949219 0,1.2011718 0.664062,2.1582031 l 2.275391,-2.265625 z m 0.585937,5.1855469 q 0.986328,0.8007812 2.275391,0.81054683 1.308594,0 2.314453,-0.82031253 l -2.285156,-2.2851562 z"
   id="text107"
   style="font-size:20px;line-height:0%;font-family:'Linux Libertine';text-align:center;text-anchor:middle;fill:#111111;stroke-width:1.25"
   class="key"
   aria-label="⊗" />&#10;    <path
   d="m 106.95508,-11.035156 h 2.06055 v 2.4804685 h -2.06055 z m -5.21485,3.9355466 h 12.51954 v 1.6601563 h -12.51954 z"
   id="text108"
   style="font-size:20px;line-height:0%;font-family:'Linux Libertine';text-align:center;text-anchor:middle;fill:#111111;stroke-width:1.25"
   class="key"
   aria-label="∸" />&#10;</g>&#10;<g
   transform="translate(561,62)"
   id="g111">&#10;    <path
   d="m -2.1826172,-15.195313 h 4.140625 v 1.396485 H -0.38574219 V 2.6367188 H -2.1826172 Z"
   id="text109"
   style="font-size:20px;line-height:0%;font-family:'Linux Libertine';text-align:center;text-anchor:middle;fill:#111111;stroke-width:1.25"
   class="key"
   aria-label="⌈" />&#10;    <path
   d="m 36,-12.783203 q -2.138672,0 -3.642578,1.113281 -1.503906,1.103516 -1.503906,3.5644532 V 3.8378906 h -1.689454 v -12.1875 q 0,-3.1445316 2.167969,-4.5898436 2.177735,-1.445313 4.667969,-1.445313 2.490234,0 4.658203,1.445313 2.177734,1.445312 2.177734,4.5898436 v 12.1875 H 41.146484 V -8.1054688 q 0,-2.4414062 -1.49414,-3.5546872 Q 38.167969,-12.783203 36,-12.783203 Z"
   id="text110"
   style="font-size:20px;line-height:0%;font-family:'Linux Libertine';text-align:center;text-anchor:middle;fill:#111111;stroke-width:1.25"
   class="key"
   aria-label="⋂" />&#10;    <path
   d="M 74.182617,-15.195313 V 2.6367188 H 72.385742 V -13.798828 h -2.34375 v -1.396485 z"
   id="text111"
   style="font-size:20px;line-height:0%;font-family:'Linux Libertine';text-align:center;text-anchor:middle;fill:#111111;stroke-width:1.25"
   class="key"
   aria-label="⌉" />&#10;</g>&#10;<g
   transform="translate(561,98)"
   id="g114">&#10;    <path
   d="M -6.015625,-1.4648437 H 6.2597656 V 0 H -6.015625 Z M 6.2597656,-2.9296875 h -8.1152343 q -1.9628907,0 -3.3105469,-1.3574219 -1.3574219,-1.3574218 -1.3574219,-3.3105468 0,-1.9335938 1.3574219,-3.3105468 1.3476562,-1.357422 3.3007812,-1.357422 0,0 8.125,0 v 1.464844 h -8.125 q -1.3378906,0 -2.265625,0.9374997 -0.9277343,0.9375 -0.9277343,2.2656251 0,1.3476562 0.9277343,2.265625 0.9375,0.9375 2.265625,0.9375 0,0 8.125,0 z"
   id="text112"
   style="font-size:20px;line-height:0%;font-family:'Linux Libertine';text-align:center;text-anchor:middle;fill:#111111;stroke-width:1.25"
   class="key"
   aria-label="⊆" />&#10;    <path
   d="m 39.798828,-5.4296875 q -0.302734,0.2929688 -0.302734,0.7128906 0,0.4199219 0.302734,0.7226563 0.302734,0.2929687 0.742188,0.2929687 0.419921,0 0.703125,-0.2929687 0.292968,-0.3027344 0.292968,-0.703125 0,-0.4394531 -0.302734,-0.7324219 -0.292969,-0.2929687 -0.712891,-0.2929687 -0.419922,0 -0.722656,0.2929687 z m -6.259766,1.25 q -0.517578,1.5625 -2.041015,1.5625 -0.859375,0 -1.494141,-0.6054688 -0.625,-0.6152343 -0.625,-1.4941406 0,-0.859375 0.605469,-1.4648437 0.615234,-0.6152344 1.513672,-0.6152344 1.621094,0 2.041015,1.5332031 h 4.980469 q 0.361328,-1.5429687 2.021485,-1.5332031 0.878906,0 1.474609,0.5761719 0.605469,0.5761719 0.605469,1.5039062 0,0.9179688 -0.615235,1.5136719 -0.605468,0.5859375 -1.464843,0.5859375 -0.78125,0 -1.328125,-0.4199219 -0.53711,-0.4199219 -0.69336,-1.1425781 z"
   id="text113"
   style="font-size:20px;line-height:0%;font-family:'Linux Libertine';text-align:center;text-anchor:middle;fill:#111111;stroke-width:1.25"
   class="key"
   aria-label="⊷" />&#10;    <path
   d="M 65.740234,-1.4648437 H 78.015625 V 0 H 65.740234 Z m 0,-1.4648438 v -1.4648437 h 8.125 q 1.328125,0 2.265625,-0.9375 0.927735,-0.9179688 0.927735,-2.265625 0,-1.3281251 -0.927735,-2.2656251 -0.927734,-0.9374997 -2.265625,-0.9374997 h -8.125 v -1.464844 h 8.125 q 1.953125,0 3.300782,1.357422 1.357421,1.376953 1.357421,3.3105468 0,1.953125 -1.357421,3.3105468 -1.347657,1.3574219 -3.310547,1.3574219 z"
   id="text114"
   style="font-size:20px;line-height:0%;font-family:'Linux Libertine';text-align:center;text-anchor:middle;fill:#111111;stroke-width:1.25"
   class="key"
   aria-label="⊇" />&#10;</g>&#10;<g
   transform="translate(561,134)"
   id="g117">&#10;    <path
   d="M -2.1826172,2.6367188 V -15.195313 h 1.79687501 V 1.2402344 H 1.9580078 v 1.3964844 z"
   id="text115"
   style="font-size:20px;line-height:0%;font-family:'Linux Libertine';text-align:center;text-anchor:middle;fill:#111111;stroke-width:1.25"
   class="key"
   aria-label="⌊" />&#10;    <path
   d="m 36,2.2363281 q 2.138672,0 3.642578,-1.1132812 1.503906,-1.10351565 1.503906,-3.5644532 V -14.384766 h 1.689453 v 12.1875004 q 0,3.14453123 -2.177734,4.5898437 Q 38.490234,3.8378906 36,3.8378906 q -2.490234,0 -4.667969,-1.4453125 -2.167969,-1.44531247 -2.167969,-4.5898437 V -14.384766 h 1.689454 V -2.4414063 Q 30.853516,0 32.337891,1.1132812 33.832031,2.2363281 36,2.2363281 Z"
   id="text116"
   style="font-size:20px;line-height:0%;font-family:'Linux Libertine';text-align:center;text-anchor:middle;fill:#111111;stroke-width:1.25"
   class="key"
   aria-label="⋃" />&#10;    <path
   d="M 74.182617,2.6367188 H 70.041992 V 1.2402344 h 2.34375 V -15.195313 h 1.796875 z"
   id="text117"
   style="font-size:20px;line-height:0%;font-family:'Linux Libertine';text-align:center;text-anchor:middle;fill:#111111;stroke-width:1.25"
   class="key"
   aria-label="⌋" />&#10;</g>&#10;<g
   transform="translate(561,170)"
   id="g119">&#10;    <path
   d="m 14.479492,-7.9199219 v 7.23632815 h 7.041016 V -7.9199219 Z m -0.771484,-0.6835937 h 8.59375 V 0 h -8.59375 z"
   id="text118"
   style="font-size:20px;line-height:0%;font-family:'Linux Libertine';text-align:center;text-anchor:middle;fill:#111111;stroke-width:1.25"
   class="key"
   aria-label="□" />&#10;    <path
   d="m 73.933594,-13.164063 q 0.322265,0 0.576172,0.214844 0.263671,0.205078 0.263671,0.488281 0,0.22461 -0.117187,0.361329 l -1.845703,2.4414059 q -0.117188,0.15625 -0.234375,0.15625 -0.283203,0 -0.283203,-0.2539063 0,-0.078125 0.03906,-0.2050781 l 1.035156,-2.8613285 q 0.126954,-0.341797 0.566407,-0.341797 z m -2.646485,0 q 0.322266,0 0.576172,0.214844 0.263672,0.205078 0.263672,0.488281 0,0.22461 -0.117187,0.361329 l -1.835938,2.4414059 q -0.117187,0.15625 -0.244141,0.15625 -0.283203,0 -0.273437,-0.2539063 0,-0.078125 0.03906,-0.2050781 l 1.035157,-2.8613285 q 0.117187,-0.341797 0.55664,-0.341797 z"
   id="text119"
   style="font-size:20px;line-height:0%;font-family:'Linux Libertine';text-align:center;text-anchor:middle;fill:#111111;stroke-width:1.25"
   class="key"
   aria-label="″" />&#10;</g>&#10;&#10;<g
   transform="translate(561,78)"
   id="g120">&#10;    <path
   d="m 107.28711,-9.8144531 q -0.26367,-0.2832029 -0.26367,-0.6835939 0,-0.400391 0.2832,-0.693359 0.29297,-0.292969 0.69336,-0.292969 0.38086,0 0.67383,0.292969 0.29297,0.292968 0.29297,0.693359 0,0.400391 -0.27344,0.6835939 -0.27344,0.2734375 -0.69336,0.2734375 -0.43945,0 -0.71289,-0.2734375 z m 0.21484,1.796875 q 0,-0.1757813 0.24414,-0.3613282 0.25391,-0.1855468 0.41993,-0.1855468 0.34179,0 0.33203,0.2832031 v 3.4375 h 3.52539 q 0.2832,0 0.2832,0.3417969 0,0.15625 -0.18555,0.4101562 -0.17578,0.2539063 -0.36132,0.2539063 h -3.26172 v 3.19335935 q 0,0.17578125 -0.23438,0.34179687 -0.22461,0.16601563 -0.43945,0.16601563 -0.32227,0 -0.32227,-0.30273438 V -3.8378906 h -3.49609 q -0.30273,0 -0.30273,-0.3222656 0,-0.2246094 0.15625,-0.4492188 0.16601,-0.234375 0.34179,-0.234375 h 3.30078 z"
   id="text120"
   style="font-size:20px;line-height:0%;font-family:'Linux Libertine';text-align:center;text-anchor:middle;fill:#111111;stroke-width:1.25"
   class="key"
   aria-label="∔" />&#10;</g>&#10;<g
   transform="translate(561,150)"
   id="g121">&#10;    <path
   d="m 105.11914,-1.3085937 -4.96094,-4.9609375 4.96094,-4.9609378 v 2.6660159 h 5.53711 v -6.0156249 h 4.58984 l -0.01,10.6054686 h -10.11719 z m -0.97656,-6.2792969 v -1.2792969 l -2.59766,2.5976563 2.59766,2.5976562 v -1.2792969 h 10.11719 l 0.01,-8.6523441 h -2.63672 l -0.01,6.0156254 z"
   id="text121"
   style="font-size:20px;line-height:0%;font-family:'Linux Libertine';text-align:center;text-anchor:middle;fill:#111111;stroke-width:1.25"
   class="key"
   aria-label="⏎" />&#10;</g>&#10;&#10;<path
   d="m 18.886719,17.640625 q 0.03906,0.07813 0.03906,0.185547 0,0.185547 -0.126953,0.332031 -0.117187,0.136719 -0.3125,0.136719 -0.185547,0 -0.341797,-0.126953 -0.146484,-0.136719 -0.146484,-0.341797 0,-0.175781 0.136719,-0.322266 0.146484,-0.146484 0.341796,-0.146484 0.292969,0 0.410157,0.283203 z m 3.076172,7.412109 q 0.03906,0.117188 0.03906,0.175782 0,0.175781 -0.136719,0.322265 -0.136718,0.146485 -0.332031,0.146485 -0.175781,0 -0.322266,-0.136719 -0.146484,-0.136719 -0.146484,-0.341797 0,-0.166016 0.126953,-0.3125 0.126953,-0.146484 0.3125,-0.146484 0.3125,0 0.458985,0.292968 z m -4.482422,-6.689453 q 0.146484,0.126953 0.146484,0.322266 0,0.46875 -0.458984,0.46875 -0.195313,0 -0.332032,-0.126953 -0.136718,-0.136719 -0.136718,-0.322266 0,-0.195312 0.136718,-0.332031 0.136719,-0.146485 0.322266,-0.146485 0.185547,0 0.322266,0.136719 z m 5.683593,5.664063 q 0.136719,0.136718 0.136719,0.332031 0,0.185547 -0.136719,0.322266 -0.126953,0.136718 -0.332031,0.136718 -0.195312,0 -0.332031,-0.136718 -0.136719,-0.136719 -0.136719,-0.322266 0,-0.195313 0.126953,-0.322266 0.136719,-0.136718 0.322266,-0.136718 0.195312,0 0.351562,0.126953 z m -6.699218,-4.462891 q 0.302734,0.126953 0.302734,0.449219 0,0.185547 -0.15625,0.322265 -0.146484,0.126954 -0.322266,0.126954 -0.205078,0 -0.332031,-0.146485 -0.126953,-0.146484 -0.126953,-0.322265 0,-0.195313 0.136719,-0.332032 0.146484,-0.136718 0.322265,-0.136718 0.05859,0 0.175782,0.03906 z m 7.412109,3.066406 q 0.292969,0.126953 0.292969,0.429688 0,0.195312 -0.146485,0.332031 -0.136718,0.126953 -0.322265,0.126953 -0.214844,0 -0.341797,-0.136719 -0.126953,-0.146484 -0.126953,-0.322265 0,-0.22461 0.146484,-0.341797 0.15625,-0.117188 0.332031,-0.117188 0.09766,0 0.166016,0.0293 z m -7.890625,-1.5625 q 0.185547,0 0.332031,0.136719 0.146485,0.126953 0.146485,0.3125 0,0.195313 -0.146485,0.341797 -0.146484,0.136719 -0.322265,0.136719 h -0.01953 q -0.185547,0 -0.322266,-0.136719 -0.126953,-0.146484 -0.126953,-0.332031 0,-0.195313 0.126953,-0.322266 0.136719,-0.136719 0.332031,-0.136719 z m 8.017578,-0.0098 q 0.195313,0 0.332031,0.136718 0.136719,0.136719 0.136719,0.332032 0,0.185547 -0.136719,0.322265 -0.126953,0.136719 -0.322265,0.136719 h -0.03906 q -0.175781,0 -0.3125,-0.136719 -0.126953,-0.136718 -0.126953,-0.3125 0,-0.195312 0.146485,-0.332031 0.146484,-0.136719 0.322265,-0.146484 z m -7.890625,1.582031 q 0.07813,-0.03906 0.185547,-0.03906 0.195313,0 0.332031,0.126954 0.136719,0.126953 0.136719,0.322265 0,0.185547 -0.136719,0.332031 -0.136718,0.146485 -0.332031,0.146485 -0.185547,0 -0.332031,-0.136719 -0.136719,-0.146484 -0.136719,-0.341797 0,-0.302734 0.283203,-0.410156 z m 7.41211,-3.076172 q 0.117187,-0.03906 0.175781,-0.03906 0.175781,0 0.322265,0.136718 0.146485,0.136719 0.146485,0.332032 0,0.175781 -0.136719,0.322265 -0.136719,0.146485 -0.341797,0.146485 -0.175781,0 -0.3125,-0.136719 -0.136719,-0.136719 -0.136719,-0.322266 0,-0.3125 0.283204,-0.439453 z m -6.689454,4.482422 q 0.146485,-0.146484 0.3125,-0.146484 0.205079,0 0.341797,0.136718 0.136719,0.126953 0.136719,0.322266 0,0.185547 -0.136719,0.332031 -0.126953,0.136719 -0.322265,0.136719 -0.185547,0 -0.332032,-0.136719 -0.136718,-0.146484 -0.136718,-0.332031 0,-0.175781 0.136718,-0.3125 z M 22.5,18.363281 q 0.15625,-0.136719 0.332031,-0.136719 0.195313,0 0.322266,0.136719 0.136719,0.136719 0.136719,0.332031 0,0.185547 -0.136719,0.332032 -0.126953,0.136718 -0.322266,0.136718 -0.185547,0 -0.322265,-0.146484 -0.136719,-0.146484 -0.136719,-0.322266 0,-0.185546 0.126953,-0.332031 z M 18.037109,25.0625 q 0.05859,-0.136719 0.185547,-0.214844 0.136719,-0.07813 0.253906,-0.07813 0.195313,0 0.322266,0.146485 0.136719,0.146484 0.136719,0.322265 0,0.195313 -0.146485,0.332031 -0.146484,0.126954 -0.322265,0.126954 -0.185547,0 -0.332031,-0.146485 -0.136719,-0.146484 -0.136719,-0.3125 0,-0.05859 0.03906,-0.175781 z m 3.066407,-7.412109 q 0.126953,-0.292969 0.429687,-0.292969 0.195313,0 0.332031,0.146484 0.136719,0.146485 0.136719,0.332031 0,0.195313 -0.146484,0.332032 -0.146485,0.126953 -0.322266,0.126953 -0.195312,0 -0.332031,-0.146485 -0.126953,-0.15625 -0.126953,-0.332031 0,-0.07813 0.0293,-0.166015 z m -1.5625,7.890625 q 0,-0.195313 0.136718,-0.332032 Q 19.814453,25.072266 20,25.072266 q 0.195312,0 0.332031,0.136718 0.136719,0.136719 0.136719,0.332032 0,0.185546 -0.136719,0.322265 Q 20.195312,26 20,26 19.814453,26 19.677734,25.863281 19.541016,25.726562 19.541016,25.541016 Z m 0,-8.017579 q 0,-0.195312 0.136718,-0.332031 Q 19.814453,17.054687 20,17.054687 q 0.195312,0 0.332031,0.136719 0.136719,0.136719 0.136719,0.332031 0,0.185547 -0.136719,0.322266 Q 20.195312,17.982422 20,17.982422 q -0.185547,0 -0.322266,-0.136719 -0.136718,-0.136719 -0.136718,-0.322266 z m 1.435546,11.201172 q 0,0.546875 -0.322265,0.9375 -0.322266,0.400391 -0.810547,0.400391 -0.820313,0 -0.820313,-0.9375 0,-0.556641 0.332032,-0.947266 0.332031,-0.380859 0.791015,-0.380859 0.830078,0 0.830078,0.927734 z"
   id="t1"
   style="font-size:20px;line-height:0%;font-family:'Gentium Plus Compact';text-align:center;text-anchor:middle;fill:#111111"
   class="dead"
   aria-label="◌̣" />&#10;<path
   d="m 450.88672,17.640625 q 0.0391,0.07813 0.0391,0.185547 0,0.185547 -0.12695,0.332031 -0.11719,0.136719 -0.3125,0.136719 -0.18555,0 -0.3418,-0.126953 -0.14648,-0.136719 -0.14648,-0.341797 0,-0.175781 0.13672,-0.322266 0.14648,-0.146484 0.34179,-0.146484 0.29297,0 0.41016,0.283203 z m 3.07617,7.412109 q 0.0391,0.117188 0.0391,0.175782 0,0.175781 -0.13672,0.322265 -0.13671,0.146485 -0.33203,0.146485 -0.17578,0 -0.32226,-0.136719 -0.14649,-0.136719 -0.14649,-0.341797 0,-0.166016 0.12696,-0.3125 0.12695,-0.146484 0.3125,-0.146484 0.3125,0 0.45898,0.292968 z m -4.48242,-6.689453 q 0.14648,0.126953 0.14648,0.322266 0,0.46875 -0.45898,0.46875 -0.19531,0 -0.33203,-0.126953 -0.13672,-0.136719 -0.13672,-0.322266 0,-0.195312 0.13672,-0.332031 0.13672,-0.146485 0.32226,-0.146485 0.18555,0 0.32227,0.136719 z m 5.68359,5.664063 q 0.13672,0.136718 0.13672,0.332031 0,0.185547 -0.13672,0.322266 -0.12695,0.136718 -0.33203,0.136718 -0.19531,0 -0.33203,-0.136718 -0.13672,-0.136719 -0.13672,-0.322266 0,-0.195313 0.12695,-0.322266 0.13672,-0.136718 0.32227,-0.136718 0.19531,0 0.35156,0.126953 z m -6.69922,-4.462891 q 0.30274,0.126953 0.30274,0.449219 0,0.185547 -0.15625,0.322265 -0.14649,0.126954 -0.32227,0.126954 -0.20508,0 -0.33203,-0.146485 -0.12695,-0.146484 -0.12695,-0.322265 0,-0.195313 0.13672,-0.332032 0.14648,-0.136718 0.32226,-0.136718 0.0586,0 0.17578,0.03906 z m 7.41211,3.066406 q 0.29297,0.126953 0.29297,0.429688 0,0.195312 -0.14648,0.332031 -0.13672,0.126953 -0.32227,0.126953 -0.21484,0 -0.3418,-0.136719 -0.12695,-0.146484 -0.12695,-0.322265 0,-0.22461 0.14649,-0.341797 0.15625,-0.117188 0.33203,-0.117188 0.0976,0 0.16601,0.0293 z m -7.89062,-1.5625 q 0.18554,0 0.33203,0.136719 0.14648,0.126953 0.14648,0.3125 0,0.195313 -0.14648,0.341797 -0.14649,0.136719 -0.32227,0.136719 h -0.0195 q -0.18554,0 -0.32226,-0.136719 -0.12696,-0.146484 -0.12696,-0.332031 0,-0.195313 0.12696,-0.322266 0.13672,-0.136719 0.33203,-0.136719 z m 8.01758,-0.0098 q 0.19531,0 0.33203,0.136718 0.13672,0.136719 0.13672,0.332032 0,0.185547 -0.13672,0.322265 -0.12696,0.136719 -0.32227,0.136719 h -0.0391 q -0.17578,0 -0.3125,-0.136719 -0.12695,-0.136718 -0.12695,-0.3125 0,-0.195312 0.14648,-0.332031 0.14648,-0.136719 0.32227,-0.146484 z m -7.89063,1.582031 q 0.0781,-0.03906 0.18555,-0.03906 0.19531,0 0.33203,0.126954 0.13672,0.126953 0.13672,0.322265 0,0.185547 -0.13672,0.332031 -0.13672,0.146485 -0.33203,0.146485 -0.18555,0 -0.33203,-0.136719 -0.13672,-0.146484 -0.13672,-0.341797 0,-0.302734 0.2832,-0.410156 z m 7.41211,-3.076172 q 0.11719,-0.03906 0.17578,-0.03906 0.17578,0 0.32227,0.136718 0.14648,0.136719 0.14648,0.332032 0,0.175781 -0.13672,0.322265 -0.13672,0.146485 -0.34179,0.146485 -0.17579,0 -0.3125,-0.136719 -0.13672,-0.136719 -0.13672,-0.322266 0,-0.3125 0.2832,-0.439453 z m -6.68945,4.482422 q 0.14648,-0.146484 0.3125,-0.146484 0.20508,0 0.34179,0.136718 0.13672,0.126953 0.13672,0.322266 0,0.185547 -0.13672,0.332031 -0.12695,0.136719 -0.32226,0.136719 -0.18555,0 -0.33203,-0.136719 -0.13672,-0.146484 -0.13672,-0.332031 0,-0.175781 0.13672,-0.3125 z M 454.5,18.363281 q 0.15625,-0.136719 0.33203,-0.136719 0.19531,0 0.32227,0.136719 0.13672,0.136719 0.13672,0.332031 0,0.185547 -0.13672,0.332032 -0.12696,0.136718 -0.32227,0.136718 -0.18555,0 -0.32226,-0.146484 -0.13672,-0.146484 -0.13672,-0.322266 0,-0.185546 0.12695,-0.332031 z m -4.46289,6.699219 q 0.0586,-0.136719 0.18555,-0.214844 0.13671,-0.07813 0.2539,-0.07813 0.19531,0 0.32227,0.146485 0.13672,0.146484 0.13672,0.322265 0,0.195313 -0.14649,0.332031 -0.14648,0.126954 -0.32226,0.126954 -0.18555,0 -0.33203,-0.146485 -0.13672,-0.146484 -0.13672,-0.3125 0,-0.05859 0.0391,-0.175781 z m 3.06641,-7.412109 q 0.12695,-0.292969 0.42968,-0.292969 0.19532,0 0.33203,0.146484 0.13672,0.146485 0.13672,0.332031 0,0.195313 -0.14648,0.332032 -0.14649,0.126953 -0.32227,0.126953 -0.19531,0 -0.33203,-0.146485 -0.12695,-0.15625 -0.12695,-0.332031 0,-0.07813 0.0293,-0.166015 z m -1.5625,7.890625 q 0,-0.195313 0.13671,-0.332032 0.13672,-0.136718 0.32227,-0.136718 0.19531,0 0.33203,0.136718 0.13672,0.136719 0.13672,0.332032 0,0.185546 -0.13672,0.322265 Q 452.19531,26 452,26 q -0.18555,0 -0.32227,-0.136719 -0.13671,-0.136719 -0.13671,-0.322265 z m 0,-8.017579 q 0,-0.195312 0.13671,-0.332031 0.13672,-0.136719 0.32227,-0.136719 0.19531,0 0.33203,0.136719 0.13672,0.136719 0.13672,0.332031 0,0.185547 -0.13672,0.322266 -0.13672,0.136719 -0.33203,0.136719 -0.18555,0 -0.32227,-0.136719 -0.13671,-0.136719 -0.13671,-0.322266 z m 3.85742,-4.033203 q -0.0391,0.214844 -0.16602,0.53711 -0.13672,0.3125 -0.21484,0.498047 h -6.00586 l -0.21485,-0.244141 q 0.0488,-0.214844 0.17579,-0.527344 0.12695,-0.3125 0.22461,-0.498047 h 5.98632 z"
   id="t2"
   style="font-size:20px;line-height:0%;font-family:'Gentium Plus Compact';text-align:center;text-anchor:middle;fill:#111111"
   class="dead"
   aria-label="◌̄" />&#10;&#10;<path
   d="m 478.88672,89.640625 q 0.0391,0.07813 0.0391,0.185547 0,0.185547 -0.12695,0.332031 -0.11719,0.136719 -0.3125,0.136719 -0.18555,0 -0.3418,-0.126953 -0.14648,-0.136719 -0.14648,-0.341797 0,-0.175781 0.13672,-0.322266 0.14648,-0.146484 0.34179,-0.146484 0.29297,0 0.41016,0.283203 z m 3.07617,7.412109 q 0.0391,0.117188 0.0391,0.175782 0,0.175781 -0.13672,0.322265 -0.13671,0.146485 -0.33203,0.146485 -0.17578,0 -0.32226,-0.136719 -0.14649,-0.136719 -0.14649,-0.341797 0,-0.166016 0.12696,-0.3125 0.12695,-0.146484 0.3125,-0.146484 0.3125,0 0.45898,0.292968 z m -4.48242,-6.689453 q 0.14648,0.126953 0.14648,0.322266 0,0.46875 -0.45898,0.46875 -0.19531,0 -0.33203,-0.126953 -0.13672,-0.136719 -0.13672,-0.322266 0,-0.195312 0.13672,-0.332031 0.13672,-0.146485 0.32226,-0.146485 0.18555,0 0.32227,0.136719 z m 5.68359,5.664063 q 0.13672,0.136718 0.13672,0.332031 0,0.185547 -0.13672,0.322266 -0.12695,0.136718 -0.33203,0.136718 -0.19531,0 -0.33203,-0.136718 -0.13672,-0.136719 -0.13672,-0.322266 0,-0.195313 0.12695,-0.322266 0.13672,-0.136718 0.32227,-0.136718 0.19531,0 0.35156,0.126953 z m -6.69922,-4.462891 q 0.30274,0.126953 0.30274,0.449219 0,0.185547 -0.15625,0.322265 -0.14649,0.126954 -0.32227,0.126954 -0.20508,0 -0.33203,-0.146485 -0.12695,-0.146484 -0.12695,-0.322265 0,-0.195313 0.13672,-0.332032 0.14648,-0.136718 0.32226,-0.136718 0.0586,0 0.17578,0.03906 z m 7.41211,3.066406 q 0.29297,0.126953 0.29297,0.429688 0,0.195312 -0.14648,0.332031 -0.13672,0.126953 -0.32227,0.126953 -0.21484,0 -0.3418,-0.136719 -0.12695,-0.146484 -0.12695,-0.322265 0,-0.22461 0.14649,-0.341797 0.15625,-0.117188 0.33203,-0.117188 0.0976,0 0.16601,0.0293 z m -7.89062,-1.5625 q 0.18554,0 0.33203,0.136719 0.14648,0.126953 0.14648,0.3125 0,0.195313 -0.14648,0.341797 -0.14649,0.136719 -0.32227,0.136719 h -0.0195 q -0.18554,0 -0.32226,-0.136719 -0.12696,-0.146484 -0.12696,-0.332031 0,-0.195313 0.12696,-0.322266 0.13672,-0.136719 0.33203,-0.136719 z m 8.01758,-0.0098 q 0.19531,0 0.33203,0.136718 0.13672,0.136719 0.13672,0.332032 0,0.185547 -0.13672,0.322265 -0.12696,0.136719 -0.32227,0.136719 h -0.0391 q -0.17578,0 -0.3125,-0.136719 -0.12695,-0.136718 -0.12695,-0.3125 0,-0.195312 0.14648,-0.332031 0.14648,-0.136719 0.32227,-0.146484 z m -7.89063,1.582031 q 0.0781,-0.03906 0.18555,-0.03906 0.19531,0 0.33203,0.126954 0.13672,0.126953 0.13672,0.322265 0,0.185547 -0.13672,0.332031 -0.13672,0.146485 -0.33203,0.146485 -0.18555,0 -0.33203,-0.136719 -0.13672,-0.146484 -0.13672,-0.341797 0,-0.302734 0.2832,-0.410156 z m 7.41211,-3.076172 q 0.11719,-0.03906 0.17578,-0.03906 0.17578,0 0.32227,0.136718 0.14648,0.136719 0.14648,0.332032 0,0.175781 -0.13672,0.322265 -0.13672,0.146485 -0.34179,0.146485 -0.17579,0 -0.3125,-0.136719 -0.13672,-0.136719 -0.13672,-0.322266 0,-0.3125 0.2832,-0.439453 z m -6.68945,4.482422 q 0.14648,-0.146484 0.3125,-0.146484 0.20508,0 0.34179,0.136718 0.13672,0.126953 0.13672,0.322266 0,0.185547 -0.13672,0.332031 -0.12695,0.136719 -0.32226,0.136719 -0.18555,0 -0.33203,-0.136719 -0.13672,-0.146484 -0.13672,-0.332031 0,-0.175781 0.13672,-0.3125 z M 482.5,90.363281 q 0.15625,-0.136719 0.33203,-0.136719 0.19531,0 0.32227,0.136719 0.13672,0.136719 0.13672,0.332031 0,0.185547 -0.13672,0.332032 -0.12696,0.136718 -0.32227,0.136718 -0.18555,0 -0.32226,-0.146484 -0.13672,-0.146484 -0.13672,-0.322266 0,-0.185546 0.12695,-0.332031 z m -4.46289,6.699219 q 0.0586,-0.136719 0.18555,-0.214844 0.13671,-0.07813 0.2539,-0.07813 0.19531,0 0.32227,0.146485 0.13672,0.146484 0.13672,0.322265 0,0.195313 -0.14649,0.332031 -0.14648,0.126954 -0.32226,0.126954 -0.18555,0 -0.33203,-0.146485 -0.13672,-0.146484 -0.13672,-0.3125 0,-0.05859 0.0391,-0.175781 z m 3.06641,-7.412109 q 0.12695,-0.292969 0.42968,-0.292969 0.19532,0 0.33203,0.146484 0.13672,0.146485 0.13672,0.332031 0,0.195313 -0.14648,0.332032 -0.14649,0.126953 -0.32227,0.126953 -0.19531,0 -0.33203,-0.146485 -0.12695,-0.15625 -0.12695,-0.332031 0,-0.07813 0.0293,-0.166015 z m -1.5625,7.890625 q 0,-0.195313 0.13671,-0.332032 0.13672,-0.136718 0.32227,-0.136718 0.19531,0 0.33203,0.136718 0.13672,0.136719 0.13672,0.332032 0,0.185546 -0.13672,0.322265 Q 480.19531,98 480,98 q -0.18555,0 -0.32227,-0.136719 -0.13671,-0.136719 -0.13671,-0.322265 z m 0,-8.017579 q 0,-0.195312 0.13671,-0.332031 0.13672,-0.136719 0.32227,-0.136719 0.19531,0 0.33203,0.136719 0.13672,0.136719 0.13672,0.332031 0,0.185547 -0.13672,0.322266 -0.13672,0.136719 -0.33203,0.136719 -0.18555,0 -0.32227,-0.136719 -0.13671,-0.136719 -0.13671,-0.322266 z m 3.63281,-4.804687 q -0.58594,1.572266 -1.42578,2.207031 -0.84961,0.625 -1.72852,0.625 -0.95703,0 -1.77734,-0.625 -0.83008,-0.634765 -1.41602,-2.207031 0.11719,-0.175781 0.24414,-0.273438 0.11719,-0.09766 0.27344,-0.166015 0.48828,1.113281 1.24023,1.552734 0.74219,0.429688 1.39649,0.429688 0.69336,0 1.45508,-0.429688 0.75195,-0.439453 1.2207,-1.552734 0.3125,0.136719 0.51758,0.439453 z"
   id="t3"
   style="font-size:20px;line-height:0%;font-family:'Gentium Plus Compact';text-align:center;text-anchor:middle;fill:#111111"
   class="dead"
   aria-label="◌̆" />&#10;<path
   d="m 471.30859,57.195312 q 0,-0.55664 -0.34179,-0.996093 -0.33203,-0.439453 -0.95703,-0.439453 -0.61524,0 -0.9668,0.429687 -0.35156,0.429688 -0.35156,1.005859 0,0.556641 0.36132,0.976563 0.36133,0.410156 0.95704,0.410156 0.57617,0 0.9375,-0.419922 0.36132,-0.429687 0.36132,-0.966797 z m -3.30078,-0.01953 q 0,-0.839844 0.58594,-1.425781 0.5957,-0.585938 1.41602,-0.585938 0.82031,0 1.39648,0.585938 0.58594,0.585937 0.58594,1.425781 0,0.820313 -0.58594,1.416016 -0.57617,0.585937 -1.39648,0.585937 -0.82032,0 -1.41602,-0.585937 -0.58594,-0.595703 -0.58594,-1.416016 z"
   id="text122"
   style="font-size:20px;line-height:0%;font-family:'Linux Libertine';text-align:center;text-anchor:middle;fill:#111111;stroke-width:1.25"
   class="key"
   aria-label="∘" />&#10;&#10;</svg>
