<?xml version="1.0" encoding="UTF-8" standalone="no"?>
<svg
   version="1.1"
   id="Ebene_1"
   height="183"
   width="535"
   viewBox="0 0 535 183"
   enable-background="new 0 0 535 183"
   xml:space="preserve"
   inkscape:version="0.48.5 r10040"
   sodipodi:docname="noted-1-tkl.svg"
   inkscape:export-xdpi="90"
   inkscape:export-ydpi="90"
   xmlns:inkscape="http://www.inkscape.org/namespaces/inkscape"
   xmlns:sodipodi="http://sodipodi.sourceforge.net/DTD/sodipodi-0.dtd"
   xmlns:xlink="http://www.w3.org/1999/xlink"
   xmlns="http://www.w3.org/2000/svg"
   xmlns:svg="http://www.w3.org/2000/svg"
   xmlns:rdf="http://www.w3.org/1999/02/22-rdf-syntax-ns#"
   xmlns:cc="http://creativecommons.org/ns#"
   xmlns:dc="http://purl.org/dc/elements/1.1/">&#10;&#10;  <metadata
   id="metadata135">&#10;    <rdf:RDF>&#10;      <cc:Work
   rdf:about="">&#10;        <dc:format>image/svg+xml</dc:format>&#10;        <dc:type
   rdf:resource="http://purl.org/dc/dcmitype/StillImage" />&#10;        <dc:title />&#10;      </cc:Work>&#10;    </rdf:RDF>&#10;  </metadata>&#10;&#10;<defs
   id="defs">&#10;<style
   type="text/css"
   id="style46661">&#10;text.mod, text.key, text.dead {&#10;	fill:#111;&#10;	fill-opacity:1;&#10;    stroke:none;&#10;    font-style:normal;&#10;    font-variant:normal;&#10;    font-weight:normal;&#10;    font-stretch:normal;&#10;    display:inline;&#10;    font-family:DejaVu Sans;&#10;    writing-mode:lr-tb;&#10;}&#10;&#10;text.key {&#10;    font-family:Arial;&#10;}&#10;&#10;text.dead {&#10;    font-family: Gentium Plus Compact;&#10;}&#10;&#10;text.mod {&#10;    text-align:start;&#10;    text-anchor:start;&#10;}&#10;&#10;text.space, text.dead, text.center, text.key {&#10;    text-align:center;&#10;    text-anchor:middle;&#10;}&#10;&#10;text.key { font-size:18px; }&#10;text.dead { font-size:18px; }&#10;text.mod { font-size:8px; }&#10;text.big { font-size:12px; }&#10;&#10;.key {&#10;stroke-width:0.75;&#10;}&#10;&#10;.grey { fill:#949494; stroke:#696969; }&#10;.grey { fill:#9f9f9f; stroke:#747474; }&#10;&#10;.numpad { fill:#afaa9f; stroke:#747474; }&#10;&#10;/* bootstrap colors */&#10;.l5, .r5 { fill:#93CCEA; }&#10;.l4, .r4 { fill:#7abeb3; }&#10;.l3, .r3 { fill:#63b280; }&#10;.l2, .r2 { fill:#4aa44a; }&#10;&#10;/* btn bg hover, unused */&#10;.l2, .r2 { stroke:#3071a9; }&#10;.l3, .r3 { stroke:#449d44; }&#10;.l4, .r4 { stroke:#c9302c; }&#10;.l5, .r5 { stroke:#ec971f; }&#10;&#10;/* btn border hover */&#10;.l2, .r2 { stroke:#204d74; }&#10;.l3, .r3 { stroke:#204d74; }&#10;.l4, .r4 { stroke:#204d74; }&#10;.l5, .r5 { stroke:#204d74; }&#10;&#10;<!-- text.nubkey { fill:#eee; } -->&#10;&#10;.pressed {&#10;	<!--opacity:0.5;-->&#10;	fill:#777;&#10;}&#10;    </style>&#10;&#10;    <g
   id="basekey">&#10;        <rect
   width="32"
   height="32"
   rx="4"
   class="key"
   id="rect1" />&#10;	<!--rect width="20" height="20" x="6" y="6" /-->&#10;        <!--rect width="2" height="2" fill="#000" x="15" y="15" /-->&#10;    </g>&#10;&#10;    </defs>&#10;<sodipodi:namedview
   pagecolor="#ffffff"
   bordercolor="#666666"
   borderopacity="1"
   objecttolerance="10"
   gridtolerance="10"
   guidetolerance="10"
   inkscape:pageopacity="0"
   inkscape:pageshadow="2"
   inkscape:window-width="1614"
   inkscape:window-height="969"
   id="base"
   showgrid="false"
   inkscape:zoom="0.70961538"
   inkscape:cx="685.32105"
   inkscape:cy="241.15395"
   inkscape:window-x="78"
   inkscape:window-y="71"
   inkscape:window-maximized="0"
   inkscape:current-layer="Ebene_1"
   inkscape:showpageshadow="2"
   inkscape:pagecheckerboard="0"
   inkscape:deskcolor="#d1d1d1" />&#10;&#10;<g
   transform="translate(3.5,3.5)"
   id="g61">&#10;<use
   xlink:href="#basekey"
   y="0"
   x="0"
   class="l5"
   id="use1" />&#10;<use
   xlink:href="#basekey"
   y="0"
   x="36"
   class="l5"
   id="use2" />&#10;<use
   xlink:href="#basekey"
   y="0"
   x="72"
   class="l5"
   id="use3" />&#10;<use
   xlink:href="#basekey"
   y="0"
   x="108"
   class="l4"
   id="use4" />&#10;<use
   xlink:href="#basekey"
   y="0"
   x="144"
   class="l3"
   id="use5" />&#10;<use
   xlink:href="#basekey"
   y="0"
   x="180"
   class="l2"
   id="use6" />&#10;<use
   xlink:href="#basekey"
   y="0"
   x="216"
   class="l2"
   id="use7" />&#10;&#10;<use
   xlink:href="#basekey"
   y="0"
   x="252"
   class="r2"
   id="use8" />&#10;<use
   xlink:href="#basekey"
   y="0"
   x="288"
   class="r2"
   id="use9" />&#10;<use
   xlink:href="#basekey"
   y="0"
   x="324"
   class="r3"
   id="use10" />&#10;<use
   xlink:href="#basekey"
   y="0"
   x="360"
   class="r4"
   id="use11" />&#10;<use
   xlink:href="#basekey"
   y="0"
   x="396"
   class="r5"
   id="use12" />&#10;<use
   xlink:href="#basekey"
   y="0"
   x="432"
   class="r5"
   id="use13" />&#10;&#10;&#10;<use
   xlink:href="#basekey"
   y="36"
   x="54"
   class="l5"
   id="use14" />&#10;<use
   xlink:href="#basekey"
   y="36"
   x="90"
   class="l4"
   id="use15" />&#10;<use
   xlink:href="#basekey"
   y="36"
   x="126"
   class="l3"
   id="use16" />&#10;<use
   xlink:href="#basekey"
   y="36"
   x="162"
   class="l2"
   id="use17" />&#10;<use
   xlink:href="#basekey"
   y="36"
   x="198"
   class="l2"
   id="use18" />&#10;&#10;<use
   xlink:href="#basekey"
   y="36"
   x="234"
   class="r2"
   id="use19" />&#10;<use
   xlink:href="#basekey"
   y="36"
   x="270"
   class="r2"
   id="use20" />&#10;<use
   xlink:href="#basekey"
   y="36"
   x="306"
   class="r3"
   id="use21" />&#10;<use
   xlink:href="#basekey"
   y="36"
   x="342"
   class="r4"
   id="use22" />&#10;<use
   xlink:href="#basekey"
   y="36"
   x="378"
   class="r5"
   id="use23" />&#10;<use
   xlink:href="#basekey"
   y="36"
   x="414"
   class="r5"
   id="use24" />&#10;<use
   xlink:href="#basekey"
   y="36"
   x="450"
   class="r5"
   id="use25" />&#10;&#10;&#10;<use
   xlink:href="#basekey"
   y="72"
   x="64"
   class="l5"
   id="use26" />&#10;<use
   xlink:href="#basekey"
   y="72"
   x="100"
   class="l4"
   id="use27" />&#10;<use
   xlink:href="#basekey"
   y="72"
   x="136"
   class="l3"
   id="use28" />&#10;<use
   xlink:href="#basekey"
   y="72"
   x="172"
   class="l2"
   id="use29" />&#10;<use
   xlink:href="#basekey"
   y="72"
   x="208"
   class="l2"
   id="use30" />&#10;&#10;<use
   xlink:href="#basekey"
   y="72"
   x="244"
   class="r2"
   id="use31" />&#10;<use
   xlink:href="#basekey"
   y="72"
   x="280"
   class="r2"
   id="use32" />&#10;<use
   xlink:href="#basekey"
   y="72"
   x="316"
   class="r3"
   id="use33" />&#10;<use
   xlink:href="#basekey"
   y="72"
   x="352"
   class="r4"
   id="use34" />&#10;<use
   xlink:href="#basekey"
   y="72"
   x="388"
   class="r5"
   id="use35" />&#10;&#10;    <use
   xlink:href="#basekey"
   y="72"
   x="460"
   class="r5"
   id="use36" />&#10;&#10;&#10;&#10;<use
   xlink:href="#basekey"
   y="108"
   x="82"
   class="l5"
   id="use37" />&#10;<use
   xlink:href="#basekey"
   y="108"
   x="118"
   class="l4"
   id="use38" />&#10;<use
   xlink:href="#basekey"
   y="108"
   x="154"
   class="l3"
   id="use39" />&#10;<use
   xlink:href="#basekey"
   y="108"
   x="190"
   class="l2"
   id="use40" />&#10;<use
   xlink:href="#basekey"
   y="108"
   x="226"
   class="l2"
   id="use41" />&#10;&#10;<use
   xlink:href="#basekey"
   y="108"
   x="262"
   class="r2"
   id="use42" />&#10;<use
   xlink:href="#basekey"
   y="108"
   x="298"
   class="r2"
   id="use43" />&#10;<use
   xlink:href="#basekey"
   y="108"
   x="334"
   class="r3"
   id="use44" />&#10;<use
   xlink:href="#basekey"
   y="108"
   x="370"
   class="r4"
   id="use45" />&#10;<use
   xlink:href="#basekey"
   y="108"
   x="406"
   class="r5"
   id="use46" />&#10;&#10;&#10;<rect
   id="backspace"
   y="0"
   x="468"
   width="60"
   height="32"
   rx="4"
   class="key grey" />&#10;&#10;<rect
   id="tab"
   x="0"
   y="36"
   width="50"
   height="32"
   rx="4"
   class="key grey" />&#10;&#10;<rect
   id="m3l"
   x="0"
   y="72"
   width="60"
   height="32"
   rx="4"
   class="key grey" />&#10;&#10;<use
   id="m3r"
   xlink:href="#basekey"
   x="424"
   y="72"
   class="key grey" />&#10;&#10;&#10;<rect
   id="shiftl"
   x="0"
   y="108"
   width="40"
   height="32"
   rx="4"
   class="key grey" />&#10;<rect
   id="m4l"
   x="44"
   y="108"
   width="34"
   height="32"
   rx="4"
   class="key grey" />&#10;<rect
   id="shiftr"
   x="442"
   y="108"
   width="86"
   height="32"
   rx="4"
   class="key grey" />&#10;&#10;<rect
   id="ctrll"
   x="0"
   y="144"
   width="50"
   height="32"
   rx="4"
   class="key grey" />&#10;<rect
   id="altl"
   x="124"
   y="144"
   width="48"
   height="32"
   rx="4"
   class="key grey" />&#10;<rect
   id="space"
   x="176"
   y="144"
   width="168"
   height="32"
   rx="4"
   class="key grey" />&#10;<rect
   id="m4r"
   x="348"
   y="144"
   width="48"
   height="32"
   rx="4"
   class="key grey" />&#10;<rect
   id="ctrlr"
   x="478"
   y="144"
   width="50"
   height="32"
   rx="4"
   class="key grey" />&#10;&#10;<use
   xlink:href="#basekey"
   y="0"
   x="542"
   class="key numpad"
   id="use47" />&#10;<use
   xlink:href="#basekey"
   y="0"
   x="578"
   class="key numpad"
   id="use48" />&#10;<use
   xlink:href="#basekey"
   y="0"
   x="614"
   class="key numpad"
   id="use49" />&#10;<use
   xlink:href="#basekey"
   y="0"
   x="650"
   class="key numpad"
   id="use50" />&#10;&#10;<use
   xlink:href="#basekey"
   y="36"
   x="542"
   class="key numpad"
   id="use51" />&#10;<use
   xlink:href="#basekey"
   y="36"
   x="578"
   class="key numpad"
   id="use52" />&#10;<use
   xlink:href="#basekey"
   y="36"
   x="614"
   class="key numpad"
   id="use53" />&#10;<rect
   id="kpplus"
   x="650"
   y="36"
   width="32"
   height="68"
   rx="4"
   class="key numpad" />&#10;&#10;<use
   xlink:href="#basekey"
   y="72"
   x="542"
   class="key numpad"
   id="use54" />&#10;<use
   xlink:href="#basekey"
   y="72"
   x="578"
   class="key numpad"
   id="use55" />&#10;<use
   xlink:href="#basekey"
   y="72"
   x="614"
   class="key numpad"
   id="use56" />&#10;&#10;<use
   xlink:href="#basekey"
   y="108"
   x="542"
   class="key numpad"
   id="use57" />&#10;<use
   xlink:href="#basekey"
   y="108"
   x="578"
   class="key numpad"
   id="use58" />&#10;<use
   xlink:href="#basekey"
   y="108"
   x="614"
   class="key numpad"
   id="use59" />&#10;<rect
   id="kppenter"
   x="650"
   y="108"
   width="32"
   height="68"
   rx="4"
   class="key numpad" />&#10;&#10;<rect
   id="kp0"
   x="542"
   y="144"
   width="68"
   height="32"
   rx="4"
   class="key numpad" />&#10;<use
   xlink:href="#basekey"
   y="144"
   x="614"
   class="key numpad"
   id="use60" />&#10;&#10;<path
   fill-rule="evenodd"
   clip-rule="evenodd"
   d="      M 10,32      l -6,0 a 4,4 0 0 1 -4,-4      l 0,-24 a 4,4 0 0 1 4,-4      l 34,0 a 4,4 0 0 1 4,4      l 0,60 a 4,4 0 0 1 -4,4      l -24,0 a 4,4 0 0 1 -4,-4      z"
   transform="translate(486,36)"
   id="return"
   class="key grey" />&#10;&#10;<rect
   y="101"
   x="181"
   width="14"
   height="1"
   rx="1"
   id="nub"
   style="fill:#111;" />&#10;<use
   y="0"
   x="108"
   xlink:href="#nub"
   id="use61" />&#10;</g>&#10;&#10;<g
   transform="translate(-0.5,-0.5)"
   id="g62">&#10;<path
   d="m 10.785156,90.167969 h 1.175782 l 1.488281,3.96875 1.496094,-3.96875 h 1.175781 V 96 h -0.769531 v -5.121094 l -1.503907,4 h -0.792968 l -1.503907,-4 V 96 h -0.765625 z m 8.566406,1.960937 q -0.578125,0 -0.914062,0.453125 -0.335938,0.449219 -0.335938,1.234375 0,0.785156 0.332032,1.238281 0.335937,0.449219 0.917968,0.449219 0.574219,0 0.910157,-0.453125 0.335937,-0.453125 0.335937,-1.234375 0,-0.777344 -0.335937,-1.230469 -0.335938,-0.457031 -0.910157,-0.457031 z m 0,-0.609375 q 0.9375,0 1.472657,0.609375 0.535156,0.609375 0.535156,1.6875 0,1.074219 -0.535156,1.6875 -0.535157,0.609375 -1.472657,0.609375 -0.941406,0 -1.476562,-0.609375 -0.53125,-0.613281 -0.53125,-1.6875 0,-1.078125 0.53125,-1.6875 0.535156,-0.609375 1.476562,-0.609375 z m 6.078125,0.769531 v -2.367187 h 0.71875 V 96 h -0.71875 v -0.65625 q -0.226562,0.390625 -0.574218,0.582031 -0.34375,0.1875 -0.828125,0.1875 -0.792969,0 -1.292969,-0.632812 -0.496094,-0.632813 -0.496094,-1.664063 0,-1.03125 0.496094,-1.664062 0.5,-0.632813 1.292969,-0.632813 0.484375,0 0.828125,0.191406 0.347656,0.1875 0.574218,0.578125 z m -2.449218,1.527344 q 0,0.792969 0.324218,1.246094 0.328125,0.449219 0.898438,0.449219 0.570312,0 0.898437,-0.449219 0.328125,-0.453125 0.328125,-1.246094 0,-0.792969 -0.328125,-1.242187 -0.328125,-0.453125 -0.898437,-0.453125 -0.570313,0 -0.898438,0.453125 -0.324218,0.449218 -0.324218,1.242187 z m 7.140625,-0.960937 q 0.566406,0.121093 0.882812,0.503906 0.320313,0.382812 0.320313,0.945312 0,0.863282 -0.59375,1.335938 -0.59375,0.472656 -1.6875,0.472656 -0.367188,0 -0.757813,-0.07422 -0.386719,-0.07031 -0.800781,-0.214843 V 95.0625 q 0.328125,0.191406 0.71875,0.289062 0.390625,0.09766 0.816406,0.09766 0.742188,0 1.128906,-0.292969 0.390625,-0.292969 0.390625,-0.851563 0,-0.515625 -0.363281,-0.804687 -0.359375,-0.292969 -1.003906,-0.292969 h -0.679688 v -0.648437 h 0.710938 q 0.582031,0 0.890625,-0.230469 0.308594,-0.234375 0.308594,-0.671875 0,-0.449219 -0.320313,-0.6875 -0.316406,-0.242188 -0.910156,-0.242188 -0.324219,0 -0.695313,0.07031 -0.371093,0.07031 -0.816406,0.21875 V 90.3125 Q 28.109375,90.1875 28.5,90.125 q 0.394531,-0.0625 0.742187,-0.0625 0.898438,0 1.421875,0.410156 0.523438,0.40625 0.523438,1.101563 0,0.484375 -0.277344,0.820312 -0.277344,0.332031 -0.789062,0.460938 z"
   id="m3ltxt"
   style="font-size:8px;line-height:0%;font-family:'DejaVu Sans';fill:#111111"
   class="mod"
   aria-label="Mod3" />&#10;<path
   d="m 16.585937,126.34375 -1.558593,-1.55859 -1.558594,1.55859 h 0.767578 v 6.07031 h 1.582031 v -6.07031 z m -4.535156,0.58594 2.976563,-2.97656 2.976562,2.97656 H 16.404297 V 133 h -2.753906 v -6.07031 z"
   id="shiftltxt"
   style="font-size:12px;line-height:0%;font-family:'DejaVu Sans';fill:#111111"
   class="mod big"
   aria-label="⇧" />&#10;<path
   d="m 14.28125,162.35937 v 0.76954 q -0.449219,-0.21485 -0.847656,-0.32032 -0.398438,-0.10547 -0.769531,-0.10547 -0.644532,0 -0.996094,0.25 -0.347656,0.25 -0.347656,0.71094 0,0.38672 0.230468,0.58594 0.234375,0.19531 0.882813,0.31641 l 0.476562,0.0977 q 0.882813,0.16797 1.300782,0.59375 0.421875,0.42188 0.421875,1.13281 0,0.84766 -0.570313,1.28516 -0.566406,0.4375 -1.664062,0.4375 -0.414063,0 -0.882813,-0.0937 -0.464844,-0.0937 -0.964844,-0.27734 v -0.8125 q 0.480469,0.26953 0.941407,0.40625 0.460937,0.13672 0.90625,0.13672 0.675781,0 1.042968,-0.26563 0.367188,-0.26562 0.367188,-0.75781 0,-0.42969 -0.265625,-0.67188 -0.261719,-0.24218 -0.863281,-0.36328 l -0.480469,-0.0937 q -0.882813,-0.17578 -1.277344,-0.55078 -0.394531,-0.375 -0.394531,-1.04297 0,-0.77344 0.542969,-1.21875 0.546875,-0.44531 1.503906,-0.44531 0.410156,0 0.835937,0.0742 0.425782,0.0742 0.871094,0.22265 z m 2.261719,0.0234 v 1.24219 h 1.480468 v 0.55859 h -1.480468 v 2.375 q 0,0.53516 0.144531,0.6875 0.148437,0.15235 0.597656,0.15235 h 0.738281 V 168 h -0.738281 q -0.832031,0 -1.148437,-0.30859 -0.316406,-0.3125 -0.316406,-1.13282 v -2.375 H 15.292969 V 163.625 h 0.527344 v -1.24219 z m 4.960937,1.91406 q -0.121094,-0.0703 -0.265625,-0.10156 -0.140625,-0.0352 -0.3125,-0.0352 -0.609375,0 -0.9375,0.39843 -0.324219,0.39453 -0.324219,1.13672 V 168 h -0.722656 v -4.375 h 0.722656 v 0.67969 q 0.226563,-0.39844 0.589844,-0.58985 0.363281,-0.19531 0.882813,-0.19531 0.07422,0 0.164062,0.0117 0.08984,0.008 0.199219,0.0273 z m 3.492188,1.46485 q 0,-0.78125 -0.324219,-1.21094 -0.320313,-0.42969 -0.902344,-0.42969 -0.578125,0 -0.902344,0.42969 -0.320312,0.42969 -0.320312,1.21094 0,0.77734 0.320312,1.20703 0.324219,0.42969 0.902344,0.42969 0.582031,0 0.902344,-0.42969 0.324219,-0.42969 0.324219,-1.20703 z m 0.71875,1.69531 q 0,1.11719 -0.496094,1.66016 -0.496094,0.54687 -1.519531,0.54687 -0.378907,0 -0.714844,-0.0586 -0.335938,-0.0547 -0.652344,-0.17188 v -0.69922 q 0.316406,0.17188 0.625,0.25391 0.308594,0.082 0.628906,0.082 0.707032,0 1.058594,-0.37109 0.351563,-0.36719 0.351563,-1.11328 v -0.35547 q -0.222657,0.38672 -0.570313,0.57812 Q 24.078125,168 23.59375,168 q -0.804688,0 -1.296875,-0.61328 -0.492188,-0.61328 -0.492188,-1.625 0,-1.01563 0.492188,-1.62891 0.492187,-0.61328 1.296875,-0.61328 0.484375,0 0.832031,0.19141 0.347656,0.1914 0.570313,0.57812 V 163.625 h 0.71875 z"
   id="ctrlltxt"
   style="font-size:8px;line-height:0%;font-family:'DejaVu Sans';fill:#111111"
   class="mod"
   aria-label="Strg" />&#10;&#10;<path
   d="m 56.785156,126.16797 h 1.175781 l 1.488282,3.96875 1.496093,-3.96875 h 1.175782 V 132 h -0.769532 v -5.12109 l -1.503906,4 h -0.792969 l -1.503906,-4 V 132 h -0.765625 z m 9.140625,0.6875 -1.992187,3.11328 h 1.992187 z m -0.207031,-0.6875 h 0.992187 v 3.80078 h 0.832032 V 130.625 H 66.710937 V 132 h -0.785156 v -1.375 h -2.632812 v -0.76172 z"
   id="m4ltxt"
   style="font-size:8px;line-height:0%;font-family:'DejaVu Sans';fill:#111111"
   class="mod"
   aria-label="M4" />&#10;<path
   d="m 137.73437,162.94531 -1.07031,2.90235 h 2.14453 z m -0.44531,-0.77734 h 0.89453 L 140.40625,168 h -0.82031 l -0.53125,-1.49609 h -2.62891 L 135.89453,168 h -0.83203 z m 3.9375,-0.2461 h 0.71875 V 168 h -0.71875 z m 2.9336,0.46094 v 1.24219 h 1.48046 v 0.55859 h -1.48046 v 2.375 q 0,0.53516 0.14453,0.6875 0.14843,0.15235 0.59765,0.15235 h 0.73828 V 168 h -0.73828 q -0.83203,0 -1.14843,-0.30859 -0.31641,-0.3125 -0.31641,-1.13282 v -2.375 h -0.52734 V 163.625 h 0.52734 v -1.24219 z"
   id="altltxt"
   style="font-size:8px;line-height:0%;font-family:'DejaVu Sans';fill:#111111"
   class="mod"
   aria-label="Alt" />&#10;&#10;&#10;<path
   d="m 436.78516,90.167969 h 1.17578 l 1.48828,3.96875 1.49609,-3.96875 h 1.17578 V 96 h -0.76953 v -5.121094 l -1.5039,4 h -0.79297 l -1.50391,-4 V 96 h -0.76562 z m 9.36328,2.6875 q 0.5664,0.121093 0.88281,0.503906 0.32031,0.382812 0.32031,0.945312 0,0.863282 -0.59375,1.335938 -0.59375,0.472656 -1.6875,0.472656 -0.36719,0 -0.75781,-0.07422 -0.38672,-0.07031 -0.80078,-0.214843 V 95.0625 q 0.32812,0.191406 0.71875,0.289062 0.39062,0.09766 0.8164,0.09766 0.74219,0 1.12891,-0.292969 0.39063,-0.292969 0.39063,-0.851563 0,-0.515625 -0.36329,-0.804687 -0.35937,-0.292969 -1.0039,-0.292969 h -0.67969 v -0.648437 h 0.71094 q 0.58203,0 0.89062,-0.230469 0.3086,-0.234375 0.3086,-0.671875 0,-0.449219 -0.32032,-0.6875 -0.3164,-0.242188 -0.91015,-0.242188 -0.32422,0 -0.69531,0.07031 -0.3711,0.07031 -0.81641,0.21875 V 90.3125 q 0.44922,-0.125 0.83984,-0.1875 0.39453,-0.0625 0.74219,-0.0625 0.89844,0 1.42188,0.410156 0.52343,0.40625 0.52343,1.101563 0,0.484375 -0.27734,0.820312 -0.27734,0.332031 -0.78906,0.460938 z"
   id="m3rtxt"
   style="font-size:8px;line-height:0%;font-family:'DejaVu Sans';fill:#111111"
   class="mod"
   aria-label="M3" />&#10;&#10;&#10;<path
   d="m 456.58594,126.34375 -1.5586,-1.55859 -1.55859,1.55859 h 0.76758 v 6.07031 h 1.58203 v -6.07031 z m -4.53516,0.58594 2.97656,-2.97656 2.97657,2.97656 H 456.4043 V 133 h -2.75391 v -6.07031 z"
   id="shiftrtxt"
   style="font-size:12px;line-height:0%;font-family:'DejaVu Sans';fill:#111111"
   class="mod big"
   aria-label="⇧" />&#10;<path
   d="m 494.28125,162.35937 v 0.76954 q -0.44922,-0.21485 -0.84766,-0.32032 -0.39843,-0.10547 -0.76953,-0.10547 -0.64453,0 -0.99609,0.25 -0.34766,0.25 -0.34766,0.71094 0,0.38672 0.23047,0.58594 0.23438,0.19531 0.88281,0.31641 l 0.47657,0.0977 q 0.88281,0.16797 1.30078,0.59375 0.42187,0.42188 0.42187,1.13281 0,0.84766 -0.57031,1.28516 -0.56641,0.4375 -1.66406,0.4375 -0.41407,0 -0.88282,-0.0937 -0.46484,-0.0937 -0.96484,-0.27734 v -0.8125 q 0.48047,0.26953 0.94141,0.40625 0.46093,0.13672 0.90625,0.13672 0.67578,0 1.04297,-0.26563 0.36718,-0.26562 0.36718,-0.75781 0,-0.42969 -0.26562,-0.67188 -0.26172,-0.24218 -0.86328,-0.36328 l -0.48047,-0.0937 q -0.88281,-0.17578 -1.27735,-0.55078 -0.39453,-0.375 -0.39453,-1.04297 0,-0.77344 0.54297,-1.21875 0.54688,-0.44531 1.50391,-0.44531 0.41015,0 0.83594,0.0742 0.42578,0.0742 0.87109,0.22265 z m 2.26172,0.0234 v 1.24219 h 1.48047 v 0.55859 h -1.48047 v 2.375 q 0,0.53516 0.14453,0.6875 0.14844,0.15235 0.59766,0.15235 h 0.73828 V 168 h -0.73828 q -0.83204,0 -1.14844,-0.30859 -0.31641,-0.3125 -0.31641,-1.13282 v -2.375 h -0.52734 V 163.625 h 0.52734 v -1.24219 z m 4.96094,1.91406 q -0.1211,-0.0703 -0.26563,-0.10156 -0.14062,-0.0352 -0.3125,-0.0352 -0.60937,0 -0.9375,0.39843 -0.32422,0.39453 -0.32422,1.13672 V 168 h -0.72265 v -4.375 h 0.72265 v 0.67969 q 0.22656,-0.39844 0.58985,-0.58985 0.36328,-0.19531 0.88281,-0.19531 0.0742,0 0.16406,0.0117 0.0898,0.008 0.19922,0.0273 z m 3.49218,1.46485 q 0,-0.78125 -0.32422,-1.21094 -0.32031,-0.42969 -0.90234,-0.42969 -0.57812,0 -0.90234,0.42969 -0.32032,0.42969 -0.32032,1.21094 0,0.77734 0.32032,1.20703 0.32422,0.42969 0.90234,0.42969 0.58203,0 0.90234,-0.42969 0.32422,-0.42969 0.32422,-1.20703 z m 0.71875,1.69531 q 0,1.11719 -0.49609,1.66016 -0.49609,0.54687 -1.51953,0.54687 -0.37891,0 -0.71485,-0.0586 -0.33593,-0.0547 -0.65234,-0.17188 v -0.69922 q 0.31641,0.17188 0.625,0.25391 0.30859,0.082 0.62891,0.082 0.70703,0 1.05859,-0.37109 0.35156,-0.36719 0.35156,-1.11328 v -0.35547 q -0.22265,0.38672 -0.57031,0.57812 Q 504.07812,168 503.59375,168 q -0.80469,0 -1.29688,-0.61328 -0.49218,-0.61328 -0.49218,-1.625 0,-1.01563 0.49218,-1.62891 0.49219,-0.61328 1.29688,-0.61328 0.48437,0 0.83203,0.19141 0.34766,0.1914 0.57031,0.57812 V 163.625 h 0.71875 z"
   id="ctrlrtxt"
   style="font-size:8px;line-height:0%;font-family:'DejaVu Sans';fill:#111111"
   class="mod"
   aria-label="Strg" />&#10;<path
   d="m 357.78516,162.16797 h 1.17578 l 1.48828,3.96875 1.49609,-3.96875 h 1.17578 V 168 h -0.76953 v -5.12109 l -1.5039,4 h -0.79297 l -1.50391,-4 V 168 h -0.76562 z m 8.5664,1.96094 q -0.57812,0 -0.91406,0.45312 -0.33594,0.44922 -0.33594,1.23438 0,0.78515 0.33203,1.23828 0.33594,0.44922 0.91797,0.44922 0.57422,0 0.91016,-0.45313 0.33594,-0.45312 0.33594,-1.23437 0,-0.77735 -0.33594,-1.23047 -0.33594,-0.45703 -0.91016,-0.45703 z m 0,-0.60938 q 0.9375,0 1.47266,0.60938 0.53515,0.60937 0.53515,1.6875 0,1.07421 -0.53515,1.6875 -0.53516,0.60937 -1.47266,0.60937 -0.9414,0 -1.47656,-0.60937 -0.53125,-0.61329 -0.53125,-1.6875 0,-1.07813 0.53125,-1.6875 0.53516,-0.60938 1.47656,-0.60938 z m 6.07813,0.76953 v -2.36719 h 0.71875 V 168 h -0.71875 v -0.65625 q -0.22657,0.39062 -0.57422,0.58203 -0.34375,0.1875 -0.82813,0.1875 -0.79297,0 -1.29297,-0.63281 -0.49609,-0.63281 -0.49609,-1.66406 0,-1.03125 0.49609,-1.66407 0.5,-0.63281 1.29297,-0.63281 0.48438,0 0.82813,0.19141 0.34765,0.1875 0.57422,0.57812 z m -2.44922,1.52735 q 0,0.79296 0.32422,1.24609 0.32812,0.44922 0.89843,0.44922 0.57032,0 0.89844,-0.44922 0.32813,-0.45313 0.32813,-1.24609 0,-0.79297 -0.32813,-1.24219 -0.32812,-0.45313 -0.89844,-0.45313 -0.57031,0 -0.89843,0.45313 -0.32422,0.44922 -0.32422,1.24219 z m 6.91797,-2.96094 -1.99219,3.11328 h 1.99219 z m -0.20703,-0.6875 h 0.99218 v 3.80078 h 0.83203 v 0.65625 h -0.83203 V 168 h -0.78515 v -1.375 h -2.63282 v -0.76172 z"
   id="m4rtxt"
   style="font-size:8px;line-height:0%;font-family:'DejaVu Sans';fill:#111111"
   class="mod"
   aria-label="Mod4" />&#10;<path
   d="m 239.6582,162.16797 h 0.78907 v 5.16797 h 2.83984 V 168 h -3.62891 z m 8.02735,3.46484 v 0.35156 h -3.30469 q 0.0469,0.74219 0.44531,1.13282 0.40235,0.38672 1.11719,0.38672 0.41406,0 0.80078,-0.10157 0.39063,-0.10156 0.77344,-0.30468 v 0.67968 q -0.38672,0.16407 -0.79297,0.25 -0.40625,0.0859 -0.82422,0.0859 -1.04687,0 -1.66016,-0.60937 -0.60937,-0.60938 -0.60937,-1.64844 0,-1.07422 0.57812,-1.70313 0.58204,-0.63281 1.56641,-0.63281 0.88281,0 1.39453,0.57031 0.51563,0.56641 0.51563,1.54297 z m -0.71875,-0.21094 q -0.008,-0.58984 -0.33203,-0.9414 -0.32032,-0.35156 -0.85157,-0.35156 -0.60156,0 -0.96484,0.33984 -0.35938,0.33984 -0.41406,0.95703 z m 5.64062,0.21094 v 0.35156 h -3.30469 q 0.0469,0.74219 0.44532,1.13282 0.40234,0.38672 1.11718,0.38672 0.41407,0 0.80079,-0.10157 0.39062,-0.10156 0.77343,-0.30468 v 0.67968 q -0.38672,0.16407 -0.79297,0.25 -0.40625,0.0859 -0.82421,0.0859 -1.04688,0 -1.66016,-0.60937 -0.60938,-0.60938 -0.60938,-1.64844 0,-1.07422 0.57813,-1.70313 0.58203,-0.63281 1.56641,-0.63281 0.88281,0 1.39453,0.57031 0.51562,0.56641 0.51562,1.54297 z m -0.71875,-0.21094 q -0.008,-0.58984 -0.33203,-0.9414 -0.32031,-0.35156 -0.85156,-0.35156 -0.60156,0 -0.96485,0.33984 -0.35937,0.33984 -0.41406,0.95703 z m 4.4336,-1.125 q -0.1211,-0.0703 -0.26563,-0.10156 -0.14062,-0.0352 -0.3125,-0.0352 -0.60937,0 -0.9375,0.39843 -0.32422,0.39453 -0.32422,1.13672 V 168 h -0.72265 v -4.375 h 0.72265 v 0.67969 q 0.22656,-0.39844 0.58985,-0.58985 0.36328,-0.19531 0.88281,-0.19531 0.0742,0 0.16406,0.0117 0.0898,0.008 0.19922,0.0273 z m 0.4414,-0.67187 h 3.41406 v 0.65625 l -2.70312,3.14453 h 2.70312 V 168 h -3.51171 v -0.65625 l 2.70312,-3.14453 h -2.60547 z m 8.25391,2.00781 v 0.35156 h -3.30469 q 0.0469,0.74219 0.44531,1.13282 0.40235,0.38672 1.11719,0.38672 0.41406,0 0.80078,-0.10157 0.39063,-0.10156 0.77344,-0.30468 v 0.67968 q -0.38672,0.16407 -0.79297,0.25 -0.40625,0.0859 -0.82422,0.0859 -1.04687,0 -1.66015,-0.60937 -0.60938,-0.60938 -0.60938,-1.64844 0,-1.07422 0.57813,-1.70313 0.58203,-0.63281 1.5664,-0.63281 0.88281,0 1.39453,0.57031 0.51563,0.56641 0.51563,1.54297 z m -0.71875,-0.21094 q -0.008,-0.58984 -0.33203,-0.9414 -0.32032,-0.35156 -0.85157,-0.35156 -0.60156,0 -0.96484,0.33984 -0.35937,0.33984 -0.41406,0.95703 z m 1.89844,-1.79687 h 0.71875 V 168 h -0.71875 z m 0,-1.70313 h 0.71875 v 0.91016 h -0.71875 z m 5.37109,1.8711 v 0.67187 q -0.30469,-0.16797 -0.61328,-0.25 -0.30469,-0.0859 -0.61719,-0.0859 -0.69922,0 -1.08594,0.44531 -0.38672,0.4414 -0.38672,1.24219 0,0.80078 0.38672,1.24609 0.38672,0.44141 1.08594,0.44141 0.3125,0 0.61719,-0.082 0.30859,-0.0859 0.61328,-0.2539 v 0.66406 q -0.30078,0.14063 -0.625,0.21094 -0.32031,0.0703 -0.68359,0.0703 -0.98829,0 -1.57032,-0.62109 -0.58203,-0.6211 -0.58203,-1.67578 0,-1.07032 0.58594,-1.6836 0.58984,-0.61328 1.61328,-0.61328 0.33203,0 0.64844,0.0703 0.3164,0.0664 0.61328,0.20313 z m 4.88672,1.5664 V 168 h -0.71875 v -2.61719 q 0,-0.62109 -0.24219,-0.92969 -0.24219,-0.30859 -0.72656,-0.30859 -0.58203,0 -0.91797,0.37109 -0.33594,0.3711 -0.33594,1.01172 V 168 h -0.72265 v -6.07813 h 0.72265 v 2.38282 q 0.25781,-0.39453 0.60547,-0.58985 0.35156,-0.19531 0.80859,-0.19531 0.75391,0 1.14063,0.46875 0.38672,0.46484 0.38672,1.37109 z m 5.17578,0.27344 v 0.35156 h -3.30469 q 0.0469,0.74219 0.44531,1.13282 0.40235,0.38672 1.11719,0.38672 0.41406,0 0.80078,-0.10157 0.39063,-0.10156 0.77344,-0.30468 v 0.67968 q -0.38672,0.16407 -0.79297,0.25 -0.40625,0.0859 -0.82422,0.0859 -1.04687,0 -1.66015,-0.60937 -0.60938,-0.60938 -0.60938,-1.64844 0,-1.07422 0.57813,-1.70313 0.58203,-0.63281 1.5664,-0.63281 0.88282,0 1.39453,0.57031 0.51563,0.56641 0.51563,1.54297 z m -0.71875,-0.21094 q -0.008,-0.58984 -0.33203,-0.9414 -0.32031,-0.35156 -0.85156,-0.35156 -0.60157,0 -0.96485,0.33984 -0.35937,0.33984 -0.41406,0.95703 z m 5.53516,-0.0625 V 168 h -0.71875 v -2.61719 q 0,-0.62109 -0.24219,-0.92969 -0.24219,-0.30859 -0.72656,-0.30859 -0.58204,0 -0.91797,0.37109 -0.33594,0.3711 -0.33594,1.01172 V 168 h -0.72266 v -4.375 h 0.72266 v 0.67969 q 0.25781,-0.39453 0.60547,-0.58985 0.35156,-0.19531 0.80859,-0.19531 0.75391,0 1.14063,0.46875 0.38672,0.46484 0.38672,1.37109 z"
   id="text61"
   style="font-size:8px;line-height:0%;font-family:'DejaVu Sans';text-align:center;text-anchor:middle;fill:#111111"
   class="mod space"
   aria-label="Leerzeichen" />&#10;&#10;<path
   d="m 498.29883,61.214844 -2.97656,-2.976563 2.97656,-2.976562 v 1.599609 h 3.32226 v -3.609375 h 2.75391 l -0.006,6.363281 h -6.07031 z m -0.58594,-3.767578 v -0.767579 l -1.55859,1.558594 1.55859,1.558594 v -0.767578 h 6.07031 l 0.006,-5.191406 h -1.58203 l -0.006,3.609375 z"
   id="returntxt"
   style="font-size:12px;line-height:0%;font-family:'DejaVu Sans';fill:#111111"
   class="mod big"
   aria-label="⏎" />&#10;<path
   d="m 490.70312,23 h -7.66015 l -3.03906,-3.039063 3.03906,-3.039062 h 7.66015 z M 490.125,17.5 h -0.55078 l -2.46094,2.460937 2.46094,2.460938 h 0.55078 z m -5.47656,0 2.05078,2.050781 L 488.75,17.5 Z m 4.10156,4.921875 -2.05078,-2.050781 -2.05078,2.050781 z M 483.83594,17.5 h -0.55469 l -2.46094,2.46875 2.46094,2.453125 h 0.55469 l 2.46093,-2.460938 z"
   id="backspacetxt"
   style="font-size:8px;line-height:0%;font-family:'DejaVu Sans';fill:#111111"
   class="mod"
   aria-label="⌫" />&#10;</g>&#10;&#10;<g
   transform="translate(55,26)"
   id="g72">&#10;	<path
   d="m -3.6342773,0 v -1.3447266 h 3.15527339 V -10.87207 l -2.79492189,1.9951169 v -1.4941409 l 2.92675783,-2.012695 H 1.1118164 V -1.3447266 H 4.1264648 V 0 Z"
   id="text62"
   style="font-size:18px;line-height:0%;font-family:Arial;text-align:center;text-anchor:middle;fill:#111111;stroke-width:0.75"
   class="key"
   aria-label="1" />&#10;	<path
   d="m 31.899902,0 v -1.1162109 q 0.448243,-1.0283204 1.089844,-1.8105469 0.650391,-0.7910156 1.362305,-1.4238281 0.711914,-0.6416016 1.40625,-1.1865235 0.703125,-0.5449218 1.265625,-1.0898437 0.5625,-0.5449219 0.905273,-1.1425781 0.351563,-0.5976563 0.351563,-1.3535157 0,-1.0195311 -0.597657,-1.5820311 -0.597656,-0.5625 -1.661132,-0.5625 -1.010743,0 -1.669922,0.553711 -0.650391,0.544922 -0.764649,1.5380857 l -1.617187,-0.149414 q 0.175781,-1.4853517 1.256836,-2.3642577 1.089844,-0.878906 2.794922,-0.878906 1.87207,0 2.874023,0.887695 1.010742,0.878906 1.010742,2.5048827 0,0.7207032 -0.333984,1.4326172 -0.325195,0.7119141 -0.975586,1.4238282 -0.650391,0.711914 -2.487305,2.2060547 -1.010742,0.8261718 -1.608398,1.4941406 -0.597656,0.6591797 -0.861328,1.274414 h 6.459961 V 0 Z"
   id="text63"
   style="font-size:18px;line-height:0%;font-family:Arial;text-align:center;text-anchor:middle;fill:#111111;stroke-width:0.75"
   class="key"
   aria-label="2" />&#10;	<path
   d="m 76.214355,-3.4189453 q 0,1.7138672 -1.089843,2.65429686 -1.089844,0.94042969 -3.111328,0.94042969 -1.88086,0 -3.00586,-0.84375 -1.116211,-0.85253905 -1.327148,-2.51367185 l 1.634765,-0.1494141 q 0.316407,2.1972656 2.698243,2.1972656 1.195312,0 1.87207,-0.5888671 0.685547,-0.5888672 0.685547,-1.7490235 0,-1.0107422 -0.782227,-1.5732422 -0.773437,-0.571289 -2.241211,-0.571289 h -0.896484 v -1.3710938 h 0.861328 q 1.300781,0 2.012695,-0.5625 0.720703,-0.5712891 0.720703,-1.5732422 0,-0.9931641 -0.588867,-1.5644531 -0.580078,-0.580078 -1.731445,-0.580078 -1.045898,0 -1.696289,0.536133 -0.641602,0.536132 -0.74707,1.5117184 l -1.590821,-0.1230468 q 0.175782,-1.5205076 1.256836,-2.3730466 1.089844,-0.852539 2.794922,-0.852539 1.863281,0 2.891602,0.870117 1.037109,0.861328 1.037109,2.4082029 0,1.1865235 -0.667969,1.9335938 -0.659179,0.7382812 -1.924804,1.0019531 v 0.035156 q 1.388671,0.149414 2.162109,0.9316406 0.773437,0.7822266 0.773437,1.96875 z"
   id="text64"
   style="font-size:18px;line-height:0%;font-family:Arial;text-align:center;text-anchor:middle;fill:#111111;stroke-width:0.75"
   class="key"
   aria-label="3" />&#10;	<path
   d="M 110.73779,-2.8037109 V 0 h -1.49414 v -2.8037109 h -5.83594 v -1.2304688 l 5.66895,-8.3496093 h 1.66113 v 8.3320312 h 1.74024 v 1.2480469 z m -1.49414,-7.7958981 q -0.0176,0.05273 -0.24609,0.46582 -0.22852,0.4130859 -0.34277,0.5800781 l -3.17286,4.6757812 -0.47461,0.6503906 -0.14062,0.1757813 h 4.37695 z"
   id="text65"
   style="font-size:18px;line-height:0%;font-family:Arial;text-align:center;text-anchor:middle;fill:#111111;stroke-width:0.75"
   class="key"
   aria-label="4" />&#10;	<path
   d="m 148.24951,-4.0341797 q 0,1.9599609 -1.16894,3.08496095 -1.16016,1.125 -3.22559,1.125 -1.73144,0 -2.79492,-0.75585937 -1.06348,-0.75585938 -1.34473,-2.18847658 l 1.59961,-0.1845703 q 0.50098,1.8369141 2.5752,1.8369141 1.27441,0 1.99511,-0.7646485 0.72071,-0.7734375 0.72071,-2.118164 0,-1.1689453 -0.7295,-1.8896485 -0.7207,-0.7207031 -1.95117,-0.7207031 -0.6416,0 -1.19531,0.2021484 -0.55371,0.2021485 -1.10742,0.6855469 h -1.54688 l 0.41309,-6.6621093 h 7.04004 v 1.344726 h -5.59863 l -0.23731,3.9287114 q 1.02832,-0.7910156 2.55762,-0.7910156 1.82812,0 2.90918,1.0722656 1.08984,1.0722657 1.08984,2.7949219 z"
   id="text66"
   style="font-size:18px;line-height:0%;font-family:Arial;text-align:center;text-anchor:middle;fill:#111111;stroke-width:0.75"
   class="key"
   aria-label="5" />&#10;&#10;	<path
   d="m 184.21436,-4.0517578 q 0,1.9599609 -1.06348,3.09374999 -1.06348,1.13378906 -2.93555,1.13378906 -2.09179,0 -3.19922,-1.55566405 -1.10742,-1.5556641 -1.10742,-4.5263672 0,-3.2167969 1.15137,-4.939453 1.15137,-1.722656 3.27832,-1.722656 2.80371,0 3.5332,2.522461 l -1.51172,0.2724605 q -0.46582,-1.5117185 -2.03906,-1.5117185 -1.35351,0 -2.10059,1.265625 -0.73828,1.2568357 -0.73828,3.6474607 0.43067,-0.7998047 1.21289,-1.2128906 0.78223,-0.421875 1.79297,-0.421875 1.71387,0 2.71582,1.0722656 1.01075,1.0722656 1.01075,2.8828125 z m -1.6084,0.070312 q 0,-1.3447266 -0.65918,-2.0742188 -0.65918,-0.7294921 -1.83692,-0.7294921 -1.10742,0 -1.79297,0.6503906 -0.67675,0.6416015 -0.67675,1.7753906 0,1.4326172 0.70312,2.3466797 0.71192,0.9140625 1.81934,0.9140625 1.14258,0 1.79297,-0.7646484 0.65039,-0.7734376 0.65039,-2.1181641 z"
   id="text67"
   style="font-size:18px;line-height:0%;font-family:Arial;text-align:center;text-anchor:middle;fill:#111111;stroke-width:0.75"
   class="key"
   aria-label="6" />&#10;	<path
   d="m 220.1001,-11.100586 q -1.89844,2.9003907 -2.68067,4.5439454 -0.78222,1.6435547 -1.17773,3.243164 Q 215.85498,-1.7138672 215.85498,0 h -1.65234 q 0,-2.3730469 1.00195,-4.9921875 1.01074,-2.6279297 3.36621,-6.0468755 h -6.65332 v -1.344726 h 8.18262 z"
   id="text68"
   style="font-size:18px;line-height:0%;font-family:Arial;text-align:center;text-anchor:middle;fill:#111111;stroke-width:0.75"
   class="key"
   aria-label="7" />&#10;	<path
   d="m 256.22314,-3.4541016 q 0,1.7138672 -1.08984,2.67187504 -1.08984,0.95800781 -3.12891,0.95800781 -1.98632,0 -3.11132,-0.94042969 -1.11621,-0.94042966 -1.11621,-2.67187496 0,-1.2128907 0.69433,-2.0390625 0.69434,-0.8261719 1.77539,-1.0019532 v -0.035156 Q 249.23584,-6.75 248.64697,-7.5410156 q -0.58008,-0.7910157 -0.58008,-1.8544922 0,-1.4150392 1.05469,-2.2939452 1.06348,-0.878906 2.84766,-0.878906 1.82812,0 2.88281,0.861328 1.06348,0.861328 1.06348,2.3291013 0,1.0634766 -0.58887,1.8544922 -0.58887,0.7910156 -1.6084,0.9931641 v 0.035156 q 1.18653,0.1933594 1.8457,1.0107422 0.65918,0.8085938 0.65918,2.0302734 z m -1.95117,-5.8359375 q 0,-2.1005859 -2.30273,-2.1005859 -1.11621,0 -1.70508,0.527344 -0.58008,0.527343 -0.58008,1.5732419 0,1.0634766 0.59766,1.6259766 0.60644,0.5537109 1.70508,0.5537109 1.11621,0 1.69629,-0.5097656 0.58886,-0.5185547 0.58886,-1.6699219 z m 0.30762,5.6865235 q 0,-1.1513672 -0.68555,-1.7314453 -0.68554,-0.5888672 -1.9248,-0.5888672 -1.2041,0 -1.88086,0.6328125 -0.67676,0.6240234 -0.67676,1.7226562 0,2.5576172 2.61035,2.5576172 1.29199,0 1.92481,-0.6152344 0.63281,-0.6240234 0.63281,-1.977539 z"
   id="text69"
   style="font-size:18px;line-height:0%;font-family:Arial;text-align:center;text-anchor:middle;fill:#111111;stroke-width:0.75"
   class="key"
   aria-label="8" />&#10;	<path
   d="m 292.15283,-6.4423828 q 0,3.1904297 -1.16894,4.9042969 -1.16016,1.71386715 -3.31348,1.71386715 -1.4502,0 -2.3291,-0.60644531 -0.87012,-0.61523434 -1.24805,-1.97753904 l 1.51172,-0.2373047 q 0.47461,1.546875 2.0918,1.546875 1.3623,0 2.10937,-1.265625 0.74707,-1.265625 0.78223,-3.6123047 -0.35156,0.7910156 -1.2041,1.2744141 -0.85254,0.4746093 -1.87207,0.4746093 -1.66992,0 -2.67188,-1.1425781 -1.00195,-1.1425781 -1.00195,-3.0322266 0,-1.9423832 1.08984,-3.0498042 1.08985,-1.116211 3.03223,-1.116211 2.06543,0 3.12891,1.529296 1.06347,1.5292974 1.06347,4.5966802 z m -1.72265,-1.5292969 q 0,-1.4941406 -0.68555,-2.3994143 -0.68555,-0.914062 -1.83692,-0.914062 -1.14257,0 -1.80175,0.782226 -0.65918,0.7734378 -0.65918,2.1005862 0,1.3535157 0.65918,2.1445313 0.65918,0.7822266 1.78418,0.7822266 0.68554,0 1.27441,-0.3076172 0.58887,-0.3164063 0.92285,-0.8876953 0.34278,-0.5712891 0.34278,-1.3007813 z"
   id="text70"
   style="font-size:18px;line-height:0%;font-family:Arial;text-align:center;text-anchor:middle;fill:#111111;stroke-width:0.75"
   class="key"
   aria-label="9" />&#10;	<path
   d="m 328.30225,-6.1962891 q 0,3.1025391 -1.09864,4.7373047 -1.08984,1.63476565 -3.22558,1.63476565 -2.13574,0 -3.20801,-1.62597655 -1.07227,-1.6259766 -1.07227,-4.7460938 0,-3.1904297 1.03711,-4.7812499 1.0459,-1.59082 3.2959,-1.59082 2.18848,0 3.22559,1.608398 1.0459,1.6083985 1.0459,4.7636719 z m -1.6084,0 q 0,-2.680664 -0.62403,-3.8847659 -0.61523,-1.204101 -2.03906,-1.204101 -1.45898,0 -2.10058,1.186523 -0.63282,1.1865236 -0.63282,3.9023439 0,2.6367188 0.6416,3.8583985 0.6504,1.2216797 2.05665,1.2216797 1.39746,0 2.04785,-1.2480469 0.65039,-1.2480469 0.65039,-3.8320313 z"
   id="text71"
   style="font-size:18px;line-height:0%;font-family:Arial;text-align:center;text-anchor:middle;fill:#111111;stroke-width:0.75"
   class="key"
   aria-label="0" />&#10;	<path
   d="m 357.80273,-4.078125 v -1.40625 h 4.39454 v 1.40625 z"
   id="text72"
   style="font-size:18px;line-height:0%;font-family:Arial;text-align:center;text-anchor:middle;fill:#111111;stroke-width:0.75"
   class="key"
   aria-label="-" />&#10;</g>&#10;&#10;&#10;<path
   d="m 10.685547,55.740234 h 6.105469 l -1.371094,-1.371093 0.703125,-0.703125 2.308594,2.308593 v -2.25 h 0.996093 v 5.039063 h -0.996093 v -2.261719 l -2.308594,2.308594 -0.703125,-0.703125 1.371094,-1.371094 h -6.105469 z"
   id="text73"
   style="font-size:12px;line-height:0%;font-family:'DejaVu Sans';fill:#111111"
   class="mod big"
   aria-label="⇥" />&#10;&#10;<g
   transform="translate(73,62)"
   id="g84">&#10;	<path
   d="M -3.7705078,0 V -1.2041016 L 1.546875,-8.2880859 h -5.0185547 v -1.2216797 h 6.890625 v 1.2041015 l -5.3261719,7.0839844 H 3.6035156 V 0 Z"
   id="text74"
   style="font-size:18px;line-height:0%;font-family:Arial;text-align:center;text-anchor:middle;fill:#111111;stroke-width:0.75"
   class="key"
   aria-label="z" />&#10;	<path
   d="m 33.178711,3.7353516 q -0.650391,0 -1.089844,-0.09668 V 2.4521484 q 0.333985,0.052734 0.738281,0.052734 1.476563,0 2.337891,-2.17089842 l 0.149414,-0.37792969 -3.770508,-9.46582029 h 1.6875 l 2.003907,5.2558594 q 0.04395,0.1230468 0.105468,0.2988281 0.06152,0.1669922 0.395508,1.1425781 0.333984,0.9755859 0.360352,1.0898438 l 0.615234,-1.7314454 2.083008,-6.055664 h 1.669922 L 36.808594,0 q -0.588867,1.5205078 -1.098633,2.2587891 -0.509766,0.7470703 -1.133789,1.1074218 -0.615235,0.3691407 -1.397461,0.3691407 z"
   id="text75"
   style="font-size:18px;line-height:0%;font-family:Arial;text-align:center;text-anchor:middle;fill:#111111;stroke-width:0.75"
   class="key"
   aria-label="y" />&#10;	<path
   d="m 69.754395,-9.5097656 v 6.0292968 q 0,0.9404297 0.18457,1.4589844 0.18457,0.5185547 0.588867,0.7470703 0.404297,0.2285157 1.186523,0.2285157 1.142579,0 1.801758,-0.7822266 0.65918,-0.7822266 0.65918,-2.1708984 v -5.5107422 h 1.582031 v 7.4794922 q 0,1.66113277 0.05273,2.0302734 h -1.494141 q -0.0088,-0.04394531 -0.01758,-0.23730469 -0.0088,-0.19335937 -0.02637,-0.43945312 -0.0088,-0.25488282 -0.02637,-0.94921879 h -0.02637 q -0.544922,0.98437504 -1.265625,1.39746097 -0.711914,0.40429688 -1.77539,0.40429688 -1.564453,0 -2.293946,-0.7734375 -0.720703,-0.78222655 -0.720703,-2.57519535 v -6.336914 z"
   id="text76"
   style="font-size:18px;line-height:0%;font-family:Arial;text-align:center;text-anchor:middle;fill:#111111;stroke-width:0.75"
   class="key"
   aria-label="u" />&#10;	<path
   d="m 106.6333,0.17578125 q -1.43262,0 -2.15332,-0.75585937 -0.7207,-0.75585938 -0.7207,-2.07421878 0,-1.4765625 0.96679,-2.2675781 0.97559,-0.7910156 3.1377,-0.84375 l 2.13574,-0.035156 v -0.5185547 q 0,-1.1601563 -0.49219,-1.6611328 -0.49218,-0.5009766 -1.54687,-0.5009766 -1.06348,0 -1.54688,0.3603515 -0.48339,0.3603516 -0.58007,1.1513672 l -1.65235,-0.149414 q 0.4043,-2.5664063 3.81446,-2.5664063 1.79296,0 2.69824,0.8261719 0.90527,0.8173828 0.90527,2.3730469 v 4.0957031 q 0,0.703125 0.18457,1.0634766 0.18457,0.35156246 0.70313,0.35156246 0.22851,0 0.51855,-0.0615235 v 0.98437503 q -0.59766,0.14062499 -1.22168,0.14062499 -0.8789,0 -1.2832,-0.45703125 -0.39551,-0.46582031 -0.44824,-1.45019527 h -0.0527 q -0.60644,1.08984371 -1.41504,1.54687496 -0.7998,0.44824219 -1.95117,0.44824219 z m 0.36035,-1.18652345 q 0.87012,0 1.54688,-0.3955078 0.67676,-0.3955078 1.06347,-1.0810547 0.39551,-0.6943359 0.39551,-1.4238281 v -0.7822266 l -1.73144,0.035156 q -1.11621,0.017578 -1.69629,0.2285156 -0.57129,0.2109375 -0.87891,0.6503906 -0.30762,0.4394531 -0.30762,1.1513672 0,0.7734375 0.41309,1.1953125 0.42187,0.421875 1.19531,0.421875 z"
   id="text77"
   style="font-size:18px;line-height:0%;font-family:Arial;text-align:center;text-anchor:middle;fill:#111111;stroke-width:0.75"
   class="key"
   aria-label="a" />&#10;	<path
   d="m 143.24854,0.17578125 q -1.81055,0 -2.6543,-1.22167965 -0.84375,-1.2216797 -0.84375,-3.6650391 0,-4.9746094 3.49805,-4.9746094 1.08105,0 1.78417,0.3867188 0.70313,0.3779297 1.17774,1.265625 h 0.0176 q 0,-0.2636719 0.0352,-0.9052735 0.0352,-0.6503906 0.0703,-0.6943359 h 1.5205 q -0.0615,0.5185547 -0.0615,2.5927734 V 3.7353516 h -1.58203 v -3.85839847 l 0.0352,-1.44140623 h -0.0176 q -0.47461,0.94042966 -1.16895,1.34472654 -0.69433,0.39550781 -1.81054,0.39550781 z m 2.96191,-5.04492185 q 0,-1.8544922 -0.60645,-2.7509766 -0.60644,-0.8964844 -1.93359,-0.8964844 -1.2041,0 -1.73145,0.8964844 -0.52734,0.8964844 -0.52734,2.8564453 0,1.9951172 0.52734,2.8564453 0.53614,0.8613282 1.71387,0.8613282 1.34473,0 1.95117,-0.9580079 0.60645,-0.9580078 0.60645,-2.8652343 z"
   id="text78"
   style="font-size:18px;line-height:0%;font-family:Arial;text-align:center;text-anchor:middle;fill:#111111;stroke-width:0.75"
   class="key"
   aria-label="q" />&#10;&#10;	<path
   d="m 184.24951,-4.7988281 q 0,4.97460935 -3.49805,4.97460935 -2.19726,0 -2.95312,-1.65234375 h -0.0439 q 0.0352,0.070312 0.0352,1.49414063 V 3.7353516 h -1.58203 V -7.5673828 q 0,-1.4677735 -0.0527,-1.9423828 h 1.52929 q 0.009,0.035156 0.0264,0.2548828 0.0176,0.2109375 0.0352,0.6591797 0.0264,0.4482422 0.0264,0.6152344 h 0.0352 q 0.42187,-0.8789063 1.11621,-1.2832032 0.69434,-0.4130859 1.82812,-0.4130859 1.75782,0 2.62793,1.1777344 0.87012,1.1777343 0.87012,3.7001953 z m -1.66113,0.035156 q 0,-1.9863281 -0.53613,-2.8388672 -0.53614,-0.852539 -1.70508,-0.852539 -0.94043,0 -1.47656,0.3955078 -0.52735,0.3955078 -0.8086,1.2392578 -0.27246,0.8349609 -0.27246,2.1796875 0,1.8720703 0.59766,2.7597656 0.59765,0.88769534 1.94238,0.88769534 1.17773,0 1.71387,-0.86132814 0.54492,-0.8701172 0.54492,-2.9091797 z"
   id="text79"
   style="font-size:18px;line-height:0%;font-family:Arial;text-align:center;text-anchor:middle;fill:#111111;stroke-width:0.75"
   class="key"
   aria-label="p" />&#10;	<path
   d="m 220.24951,-4.7988281 q 0,4.97460935 -3.49805,4.97460935 -1.08105,0 -1.80175,-0.38671875 -0.71192,-0.39550781 -1.16016,-1.265625 h -0.0176 q 0,0.2724609 -0.0352,0.83496094 Q 213.70166,-0.08789062 213.68408,0 h -1.52929 q 0.0527,-0.47460938 0.0527,-1.9599609 V -13.042969 h 1.58203 v 3.7177737 q 0,0.571289 -0.0352,1.3447266 h 0.0352 q 0.43945,-0.9140626 1.16016,-1.3095704 0.72949,-0.3955078 1.80175,-0.3955078 1.80176,0 2.64551,1.2128906 0.85254,1.2128907 0.85254,3.6738282 z m -1.66113,0.052734 q 0,-1.9951172 -0.52734,-2.8564454 -0.52735,-0.8613281 -1.71387,-0.8613281 -1.33594,0 -1.95117,0.9140625 -0.60645,0.9140625 -0.60645,2.9003906 0,1.8720703 0.59766,2.7685547 0.59765,0.88769534 1.94238,0.88769534 1.19531,0 1.72266,-0.87890624 0.53613,-0.8876953 0.53613,-2.8740234 z"
   id="text80"
   style="font-size:18px;line-height:0%;font-family:Arial;text-align:center;text-anchor:middle;fill:#111111;stroke-width:0.75"
   class="key"
   aria-label="b" />&#10;	<path
   d="m 251.25293,0 v -6.0292969 q 0,-1.3798828 -0.37793,-1.9072265 -0.37793,-0.5273438 -1.3623,-0.5273438 -1.01075,0 -1.59961,0.7734375 -0.58887,0.7734375 -0.58887,2.1796875 V 0 h -1.57324 v -7.4794922 q 0,-1.6611328 -0.0527,-2.0302734 h 1.49414 q 0.009,0.043945 0.0176,0.2373047 0.009,0.1933593 0.0176,0.4482421 0.0176,0.2460938 0.0352,0.9404297 h 0.0264 q 0.50977,-1.0107422 1.16895,-1.40625 0.65918,-0.3955078 1.6084,-0.3955078 1.08105,0 1.70507,0.4306641 0.63282,0.430664 0.87891,1.3710937 h 0.0264 q 0.49219,-0.9580078 1.18652,-1.3798828 0.70313,-0.421875 1.69629,-0.421875 1.44141,0 2.0918,0.7822266 0.65918,0.7822265 0.65918,2.5664062 V 0 h -1.56446 v -6.0292969 q 0,-1.3798828 -0.37793,-1.9072265 -0.37793,-0.5273438 -1.3623,-0.5273438 -1.03711,0 -1.61719,0.7734375 -0.57129,0.7646485 -0.57129,2.1796875 V 0 Z"
   id="text81"
   style="font-size:18px;line-height:0%;font-family:Arial;text-align:center;text-anchor:middle;fill:#111111;stroke-width:0.75"
   class="key"
   aria-label="m" />&#10;	<path
   d="m 287.21338,0 v -13.042969 h 1.58203 V 0 Z"
   id="text82"
   style="font-size:18px;line-height:0%;font-family:Arial;text-align:center;text-anchor:middle;fill:#111111;stroke-width:0.75"
   class="key"
   aria-label="l" />&#10;	<path
   d="M 324.67236,-8.3583984 V 0 h -1.58203 v -8.3583984 h -1.33594 v -1.1513672 h 1.33594 v -1.0722654 q 0,-1.300782 0.57129,-1.872071 0.57129,-0.571289 1.74902,-0.571289 0.65918,0 1.11622,0.105469 v 1.204102 q -0.39551,-0.07031 -0.70313,-0.07031 -0.60644,0 -0.87891,0.307617 -0.27246,0.307618 -0.27246,1.116211 v 0.8525394 h 1.8545 v 1.1513672 z"
   id="text83"
   style="font-size:18px;line-height:0%;font-family:Arial;text-align:center;text-anchor:middle;fill:#111111;stroke-width:0.75"
   class="key"
   aria-label="f" />&#10;	<path
   d="m 359.20459,-11.53125 v -1.511719 h 1.58203 v 1.511719 z m 1.58203,12.7089844 q 0,1.3447265 -0.52734,1.9511719 -0.52735,0.6064453 -1.58203,0.6064453 -0.67676,0 -1.11621,-0.079102 V 2.4345703 l 0.54492,0.052734 q 0.60644,0 0.85254,-0.3164063 0.24609,-0.3164062 0.24609,-1.23046871 V -9.5097656 h 1.58203 z"
   id="text84"
   style="font-size:18px;line-height:0%;font-family:Arial;text-align:center;text-anchor:middle;fill:#111111;stroke-width:0.75"
   class="key"
   aria-label="j" />&#10;</g>&#10;&#10;&#10;<g
   transform="translate(84,98)"
   id="g94">&#10;	<path
   d="m -2.0830078,-4.7988281 q 0,1.8984375 0.5976562,2.8125 0.59765629,0.9140625 1.80175785,0.9140625 0.84374995,0 1.40624995,-0.4570313 0.5712891,-0.4570312 0.7031251,-1.40625 l 1.5996093,0.1054688 q -0.1845703,1.3710937 -1.1689453,2.18847654 -0.984375,0.81738281 -2.49609374,0.81738281 -1.99511716,0 -3.04980466,-1.25683595 -1.0458985,-1.265625 -1.0458985,-3.6826172 0,-2.399414 1.0546875,-3.65625 1.0546875,-1.265625 3.02343754,-1.265625 1.45898436,0 2.41699216,0.7558594 0.9667969,0.7558594 1.2128907,2.0830078 L 2.3466797,-6.7236328 Q 2.2236328,-7.5146484 1.7226562,-7.9804687 1.2216797,-8.4462891 0.29882813,-8.4462891 q -1.25683594,0 -1.81933593,0.834961 -0.5625,0.8349609 -0.5625,2.8125 z"
   id="text85"
   style="font-size:18px;line-height:0%;font-family:Arial;text-align:center;text-anchor:middle;fill:#111111;stroke-width:0.75"
   class="key"
   aria-label="c" />&#10;	<path
   d="m 39.849609,-2.6279297 q 0,1.3447266 -1.019531,2.07421876 -1.010742,0.72949219 -2.838867,0.72949219 -1.775391,0 -2.742188,-0.58007813 -0.958007,-0.58886718 -1.248046,-1.82812502 l 1.39746,-0.2724609 q 0.202149,0.7646484 0.834961,1.125 0.632813,0.3515625 1.757813,0.3515625 1.204101,0 1.757812,-0.3691406 0.5625,-0.3691407 0.5625,-1.1074219 0,-0.5625 -0.386718,-0.9140625 -0.386719,-0.3515625 -1.248047,-0.5800781 l -1.133789,-0.2988282 q -1.362305,-0.3515625 -1.942383,-0.6855468 -0.571289,-0.3427735 -0.896484,-0.8261719 -0.325196,-0.4833984 -0.325196,-1.1865234 0,-1.3007813 0.922852,-1.9775391 0.93164,-0.6855469 2.707031,-0.6855469 1.573242,0 2.496094,0.5537109 0.93164,0.553711 1.177734,1.7753907 l -1.423828,0.1757812 q -0.131836,-0.6328125 -0.711914,-0.9667969 -0.571289,-0.3427734 -1.538086,-0.3427734 -1.072266,0 -1.582031,0.3251953 -0.509766,0.3251953 -0.509766,0.984375 0,0.4042969 0.210938,0.6679688 0.210937,0.2636719 0.624023,0.4482422 0.413086,0.1845703 1.740234,0.5097656 1.256836,0.3164062 1.810547,0.5888672 0.553711,0.2636719 0.870118,0.5888672 0.325195,0.3251953 0.500976,0.7558593 0.175781,0.421875 0.175781,0.9667969 z"
   id="text86"
   style="font-size:18px;line-height:0%;font-family:Arial;text-align:center;text-anchor:middle;fill:#111111;stroke-width:0.75"
   class="key"
   aria-label="s" />&#10;	<path
   d="m 71.20459,-11.53125 v -1.511719 h 1.582031 v 1.511719 z m 0,11.53125 v -9.5097656 h 1.582031 V 0 Z"
   id="text87"
   style="font-size:18px;line-height:0%;font-family:Arial;text-align:center;text-anchor:middle;fill:#111111;stroke-width:0.75"
   class="key"
   aria-label="i" />&#10;	<path
   d="m 105.42041,-4.4208984 q 0,1.6347656 0.67676,2.5224609 0.67676,0.8876953 1.97754,0.8876953 1.02832,0 1.64355,-0.4130859 0.62403,-0.413086 0.84375,-1.0458985 l 1.38867,0.3955078 q -0.85254,2.25000005 -3.87597,2.25000005 -2.10938,0 -3.2168,-1.25683595 -1.09863,-1.2568359 -1.09863,-3.7353515 0,-2.3554688 1.09863,-3.6123047 1.10742,-1.256836 3.15527,-1.256836 4.19239,0 4.19239,5.053711 v 0.2109375 z m 5.15039,-1.2128907 q -0.13184,-1.5029296 -0.76465,-2.1884765 -0.63281,-0.694336 -1.81933,-0.694336 -1.15137,0 -1.82813,0.7734375 -0.66797,0.7646485 -0.7207,2.109375 z"
   id="text88"
   style="font-size:18px;line-height:0%;font-family:Arial;text-align:center;text-anchor:middle;fill:#111111;stroke-width:0.75"
   class="key nubkey"
   aria-label="e" />&#10;	<path
   d="m 148.24951,-4.7636719 q 0,2.4960938 -1.09863,3.7177735 -1.09863,1.22167965 -3.19043,1.22167965 -2.08301,0 -3.14649,-1.26562495 -1.06347,-1.2744141 -1.06347,-3.6738282 0,-4.921875 4.26269,-4.921875 2.17969,0 3.20801,1.2041016 1.02832,1.1953125 1.02832,3.7177734 z m -1.66113,0 q 0,-1.96875 -0.58887,-2.8564453 -0.58008,-0.8964844 -1.95996,-0.8964844 -1.38867,0 -2.01269,0.9140625 -0.61524,0.9052735 -0.61524,2.8388672 0,1.8808594 0.60645,2.8300782 0.61523,0.94042964 1.9248,0.94042964 1.42383,0 2.03027,-0.91406254 0.61524,-0.9140625 0.61524,-2.8564453 z"
   id="text89"
   style="font-size:18px;line-height:0%;font-family:Arial;text-align:center;text-anchor:middle;fill:#111111;stroke-width:0.75"
   class="key"
   aria-label="o" />&#10;&#10;	<path
   d="m 182.21045,-1.5292969 q -0.43945,0.91406253 -1.16895,1.30957034 -0.7207,0.39550781 -1.79296,0.39550781 -1.80176,0 -2.6543,-1.21289065 -0.84375,-1.2128906 -0.84375,-3.6738281 0,-4.9746094 3.49805,-4.9746094 1.08105,0 1.80175,0.3955078 0.72071,0.3955078 1.16016,1.256836 h 0.0176 l -0.0176,-1.0634766 v -3.9462893 h 1.58203 v 11.0830081 q 0,1.48535152 0.0527,1.9599609 h -1.51171 q -0.0264,-0.140625 -0.0615,-0.65039062 -0.0264,-0.50976558 -0.0264,-0.87890628 z m -4.79883,-3.234375 q 0,1.9951172 0.52734,2.8564453 0.52735,0.8613282 1.71387,0.8613282 1.34473,0 1.95117,-0.9316407 0.60645,-0.9316406 0.60645,-2.8916015 0,-1.8896485 -0.60645,-2.7685547 -0.60644,-0.8789063 -1.93359,-0.8789063 -1.19531,0 -1.73145,0.8876954 -0.52734,0.8789062 -0.52734,2.8652343 z"
   id="text90"
   style="font-size:18px;line-height:0%;font-family:Arial;text-align:center;text-anchor:middle;fill:#111111;stroke-width:0.75"
   class="key"
   aria-label="d" />&#10;	<path
   d="m 218.36865,-0.0703125 q -0.78222,0.2109375 -1.59961,0.2109375 -1.89843,0 -1.89843,-2.1533203 v -6.3457031 h -1.09864 v -1.1513672 h 1.16016 l 0.46582,-2.1269534 h 1.05469 v 2.1269534 h 1.75781 v 1.1513672 h -1.75781 v 6.0029296 q 0,0.6855469 0.21972,0.9667969 0.22852,0.272461 0.78223,0.272461 0.31641,0 0.91406,-0.1230469 z"
   id="text91"
   style="font-size:18px;line-height:0%;font-family:Arial;text-align:center;text-anchor:middle;fill:#111111;stroke-width:0.75"
   class="key nubkey"
   aria-label="t" />&#10;	<path
   d="m 254.24561,0 v -6.0292969 q 0,-0.9404297 -0.18457,-1.4589843 -0.18458,-0.5185547 -0.58887,-0.7470704 -0.4043,-0.2285156 -1.18653,-0.2285156 -1.14257,0 -1.80175,0.7822266 -0.65918,0.7822265 -0.65918,2.1708984 V 0 h -1.58203 v -7.4794922 q 0,-1.6611328 -0.0527,-2.0302734 h 1.49414 q 0.009,0.043945 0.0176,0.2373047 0.009,0.1933593 0.0176,0.4482421 0.0176,0.2460938 0.0351,0.9404297 h 0.0264 q 0.54492,-0.984375 1.25684,-1.3886718 0.7207,-0.413086 1.78418,-0.413086 1.56445,0 2.28515,0.7822266 0.7295,0.7734375 0.7295,2.5664062 V 0 Z"
   id="text92"
   style="font-size:18px;line-height:0%;font-family:Arial;text-align:center;text-anchor:middle;fill:#111111;stroke-width:0.75"
   class="key"
   aria-label="n" />&#10;	<path
   d="m 286.25098,0 v -7.2949219 q 0,-1.0019531 -0.0527,-2.2148437 h 1.49414 q 0.0703,1.6171875 0.0703,1.9423828 h 0.0351 q 0.37793,-1.2216797 0.87012,-1.6699219 0.49219,-0.4482422 1.38867,-0.4482422 0.31641,0 0.6416,0.087891 v 1.4501954 q -0.3164,-0.087891 -0.84375,-0.087891 -0.98437,0 -1.50293,0.8525391 -0.51855,0.84375 -0.51855,2.4257813 V 0 Z"
   id="text93"
   style="font-size:18px;line-height:0%;font-family:Arial;text-align:center;text-anchor:middle;fill:#111111;stroke-width:0.75"
   class="key"
   aria-label="r" />&#10;	<path
   d="m 321.78076,-7.8837891 q 0.50977,-0.9316406 1.22168,-1.3623047 0.7207,-0.4394531 1.81934,-0.4394531 1.54687,0 2.27636,0.7734375 0.73829,0.7646485 0.73829,2.5751953 V 0 h -1.59082 v -6.0292969 q 0,-1.0019531 -0.18457,-1.4853515 -0.18458,-0.4921875 -0.60645,-0.7207032 -0.42188,-0.2285156 -1.16895,-0.2285156 -1.11621,0 -1.79296,0.7734375 -0.66797,0.7734375 -0.66797,2.0830078 V 0 h -1.58203 v -13.042969 h 1.58203 v 3.3925784 q 0,0.5361328 -0.0352,1.1074218 -0.0264,0.5712891 -0.0352,0.6591797 z"
   id="text94"
   style="font-size:18px;line-height:0%;font-family:Arial;text-align:center;text-anchor:middle;fill:#111111;stroke-width:0.75"
   class="key"
   aria-label="h" />&#10;&#10;&#10;</g>&#10;&#10;<g
   transform="translate(101,134)"
   id="g104">&#10;    <path
   d="M 0.88769531,0 H -0.984375 l -3.4541016,-9.5097656 h 1.6875 l 2.09179691,6.1875 q 0.11425782,0.3515625 0.60644532,2.0830078 L 0.25488281,-2.2675781 0.59765625,-3.3046875 2.7597656,-9.5097656 h 1.678711 z"
   id="text95"
   style="font-size:18px;line-height:0%;font-family:Arial;text-align:center;text-anchor:middle;fill:#111111;stroke-width:0.75"
   class="key"
   aria-label="v" />&#10;    <path
   d="M 38.540039,0 35.982422,-3.9023438 33.407227,0 h -1.705079 l 3.383789,-4.8867187 -3.225585,-4.6230469 h 1.749023 l 2.373047,3.7001953 2.355469,-3.7001953 h 1.766601 L 36.878906,-4.9042969 40.306641,0 Z"
   id="text96"
   style="font-size:18px;line-height:0%;font-family:Arial;text-align:center;text-anchor:middle;fill:#111111;stroke-width:0.75"
   class="key"
   aria-label="x" />&#10;    <path
   d="m 69.807129,-9.5097656 v 6.0292968 q 0,0.9404297 0.18457,1.4589844 0.184571,0.5185547 0.588867,0.7470703 0.404297,0.2285157 1.186524,0.2285157 1.142578,0 1.801758,-0.7822266 0.659179,-0.7822266 0.659179,-2.1708984 v -5.5107422 h 1.582032 v 7.4794922 q 0,1.66113277 0.05273,2.0302734 h -1.494141 q -0.0088,-0.04394531 -0.01758,-0.23730469 -0.0088,-0.19335937 -0.02637,-0.43945312 -0.0088,-0.25488282 -0.02637,-0.94921879 h -0.02637 q -0.544922,0.98437504 -1.265625,1.39746097 -0.711914,0.40429688 -1.775391,0.40429688 -1.564453,0 -2.293945,-0.7734375 -0.720703,-0.78222655 -0.720703,-2.57519535 v -6.336914 z m 3.128906,-1.2041014 v -1.617188 h 1.432617 v 1.617188 z m -3.46289,0 v -1.617188 h 1.450195 v 1.617188 z"
   id="text97"
   style="font-size:18px;line-height:0%;font-family:Arial;text-align:center;text-anchor:middle;fill:#111111;stroke-width:0.75"
   class="key"
   aria-label="ü" />&#10;    <path
   d="m 106.6333,0.17578125 q -1.43262,0 -2.15332,-0.75585937 -0.7207,-0.75585938 -0.7207,-2.07421878 0,-1.4765625 0.96679,-2.2675781 0.97559,-0.7910156 3.1377,-0.84375 l 2.13574,-0.035156 v -0.5185547 q 0,-1.1601563 -0.49219,-1.6611328 -0.49218,-0.5009766 -1.54687,-0.5009766 -1.06348,0 -1.54688,0.3603515 -0.48339,0.3603516 -0.58007,1.1513672 l -1.65235,-0.149414 q 0.4043,-2.5664063 3.81446,-2.5664063 1.79296,0 2.69824,0.8261719 0.90527,0.8173828 0.90527,2.3730469 v 4.0957031 q 0,0.703125 0.18457,1.0634766 0.18457,0.35156246 0.70313,0.35156246 0.22851,0 0.51855,-0.0615235 v 0.98437503 q -0.59766,0.14062499 -1.22168,0.14062499 -0.8789,0 -1.2832,-0.45703125 -0.39551,-0.46582031 -0.44824,-1.45019527 h -0.0527 q -0.60644,1.08984371 -1.41504,1.54687496 -0.7998,0.44824219 -1.95117,0.44824219 z m 0.36035,-1.18652345 q 0.87012,0 1.54688,-0.3955078 0.67676,-0.3955078 1.06347,-1.0810547 0.39551,-0.6943359 0.39551,-1.4238281 v -0.7822266 l -1.73144,0.035156 q -1.11621,0.017578 -1.69629,0.2285156 -0.57129,0.2109375 -0.87891,0.6503906 -0.30762,0.4394531 -0.30762,1.1513672 0,0.7734375 0.41309,1.1953125 0.42187,0.421875 1.19531,0.421875 z m 1.92481,-9.7031248 v -1.617188 h 1.43261 v 1.617188 z m -3.46289,0 v -1.617188 h 1.45019 v 1.617188 z"
   id="text98"
   style="font-size:18px;line-height:0%;font-family:Arial;text-align:center;text-anchor:middle;fill:#111111;stroke-width:0.75"
   class="key"
   aria-label="ä" />&#10;&#10;    <path
   d="m 148.24951,-4.7636719 q 0,2.4960938 -1.09863,3.7177735 -1.09863,1.22167965 -3.19043,1.22167965 -2.08301,0 -3.14649,-1.26562495 -1.06347,-1.2744141 -1.06347,-3.6738282 0,-4.921875 4.26269,-4.921875 2.17969,0 3.20801,1.2041016 1.02832,1.1953125 1.02832,3.7177734 z m -1.66113,0 q 0,-1.96875 -0.58887,-2.8564453 -0.58008,-0.8964844 -1.95996,-0.8964844 -1.38867,0 -2.01269,0.9140625 -0.61524,0.9052735 -0.61524,2.8388672 0,1.8808594 0.60645,2.8300782 0.61523,0.94042964 1.9248,0.94042964 1.42383,0 2.03027,-0.91406254 0.61524,-0.9140625 0.61524,-2.8564453 z m -1.53809,-5.9501951 v -1.617188 h 1.43262 v 1.617188 z m -3.46289,0 v -1.617188 h 1.4502 v 1.617188 z"
   id="text99"
   style="font-size:18px;line-height:0%;font-family:Arial;text-align:center;text-anchor:middle;fill:#111111;stroke-width:0.75"
   class="key"
   aria-label="ö" />&#10;    <path
   d="m 183.81885,0 h -1.83692 l -1.66113,-6.7236328 -0.31641,-1.4853516 q -0.0791,0.3955078 -0.24609,1.1425782 Q 179.59131,-6.328125 177.96533,0 h -1.82812 l -2.66309,-9.5097656 h 1.56445 l 1.6084,6.4599609 q 0.0615,0.2109375 0.37793,1.7402344 l 0.14942,-0.6503906 1.98632,-7.5498047 h 1.69629 l 1.66114,6.5302734 0.40429,1.6699219 0.27246,-1.2216797 1.80176,-6.9785156 h 1.54688 z"
   id="text100"
   style="font-size:18px;line-height:0%;font-family:Arial;text-align:center;text-anchor:middle;fill:#111111;stroke-width:0.75"
   class="key"
   aria-label="w" />&#10;    <path
   d="m 215.81104,3.7353516 q -1.55567,0 -2.47852,-0.6152344 -0.92285,-0.6064453 -1.18652,-1.7314453 l 1.59082,-0.2285157 q 0.1582,0.6591797 0.69433,1.0107422 0.54492,0.3603516 1.42383,0.3603516 2.36426,0 2.36426,-2.76855469 V -1.7666016 h -0.0176 q -0.44824,0.91406254 -1.23047,1.37988285 -0.78223,0.45703125 -1.82812,0.45703125 -1.74903,0 -2.5752,-1.1601562 -0.81738,-1.1601563 -0.81738,-3.647461 0,-2.5224609 0.8789,-3.7177734 0.8877,-1.2041016 2.68946,-1.2041016 1.01074,0 1.74902,0.4658203 0.74707,0.4570313 1.15137,1.3095703 h 0.0176 q 0,-0.2636718 0.0352,-0.9140625 0.0352,-0.6503906 0.0703,-0.711914 h 1.50292 q -0.0527,0.4746093 -0.0527,1.96875 v 7.26855466 q 0,4.00781254 -3.98144,4.00781254 z m 2.4082,-8.4902344 q 0,-1.1601563 -0.31641,-1.9951172 -0.3164,-0.84375 -0.89648,-1.2832031 -0.57129,-0.4482422 -1.30078,-0.4482422 -1.21289,0 -1.76661,0.8789062 -0.55371,0.8789063 -0.55371,2.8476563 0,1.9511719 0.51856,2.8037109 0.51855,0.8525391 1.77539,0.8525391 0.74707,0 1.32715,-0.4394531 0.58008,-0.4394532 0.89648,-1.256836 0.31641,-0.8261719 0.31641,-1.9599609 z"
   id="text101"
   style="font-size:18px;line-height:0%;font-family:Arial;text-align:center;text-anchor:middle;fill:#111111;stroke-width:0.75"
   class="key"
   aria-label="g" />&#10;    <path
   d="m 252.8833,-1.9248047 v 1.47656251 q 0,0.93164063 -0.16699,1.55566409 -0.16699,0.6240234 -0.51856,1.1953125 H 251.1167 Q 251.94287,1.1074219 251.94287,0 h -0.77344 v -1.9248047 z"
   id="text102"
   style="font-size:18px;line-height:0%;font-family:Arial;text-align:center;text-anchor:middle;fill:#111111;stroke-width:0.75"
   class="key"
   aria-label="," />&#10;    <path
   d="m 287.14307,0 v -1.9248047 h 1.71386 V 0 Z"
   id="text103"
   style="font-size:18px;line-height:0%;font-family:Arial;text-align:center;text-anchor:middle;fill:#111111;stroke-width:0.75"
   class="key"
   aria-label="." />&#10;    <path
   d="m 326.67187,0 -3.21679,-4.3417969 -1.16016,0.9580078 V 0 h -1.58203 v -13.042969 h 1.58203 v 8.1474612 l 4.17481,-4.6142578 h 1.85449 l -3.8584,4.086914 L 328.52637,0 Z"
   id="text104"
   style="font-size:18px;line-height:0%;font-family:Arial;text-align:center;text-anchor:middle;fill:#111111;stroke-width:0.75"
   class="key"
   aria-label="k" />&#10;</g>&#10;&#10;&#10;<g
   transform="translate(561,26)"
   id="g108">&#10;    <path
   d="M -6.5126953,-6.3896484 H 2.6455078 L 0.58886719,-8.4462891 1.6435547,-9.5009766 5.1064453,-6.0380859 v -3.375 h 1.4941406 v 7.5585937 H 5.1064453 V -5.2470703 L 1.6435547,-1.7841797 0.58886719,-2.8388672 2.6455078,-4.8955078 h -9.1582031 z"
   id="text105"
   style="font-size:18px;line-height:0%;font-family:Arial;text-align:center;text-anchor:middle;fill:#111111;stroke-width:0.75"
   class="key"
   aria-label="⇥" />&#10;    <path
   d="M 33.499512,0.17578125 37.111816,-13.042969 h 1.388672 L 34.92334,0.17578125 Z"
   id="text106"
   style="font-size:18px;line-height:0%;font-family:Arial;text-align:center;text-anchor:middle;fill:#111111;stroke-width:0.75"
   class="key"
   aria-label="/" />&#10;    <path
   d="m 72.505371,-9.7910156 2.320313,-0.9052734 0.395507,1.1601562 -2.478515,0.6416015 1.625976,2.1972657 -1.045898,0.6328125 -1.318359,-2.2675782 -1.371094,2.2500001 -1.045899,-0.6328125 1.661133,-2.1796876 -2.460937,-0.6416015 0.395507,-1.1777342 2.34668,0.9404295 -0.105469,-2.6103515 h 1.195313 z"
   id="text107"
   style="font-size:18px;line-height:0%;font-family:Arial;text-align:center;text-anchor:middle;fill:#111111;stroke-width:0.75"
   class="key"
   aria-label="*" />&#10;    <path
   d="m 105.80273,-4.078125 v -1.40625 h 4.39454 v 1.40625 z"
   id="text108"
   style="font-size:18px;line-height:0%;font-family:Arial;text-align:center;text-anchor:middle;fill:#111111;stroke-width:0.75"
   class="key"
   aria-label="-" />&#10;</g>&#10;<g
   transform="translate(561,62)"
   id="g111">&#10;    <path
   d="M 4.1000977,-11.100586 Q 2.2016602,-8.2001953 1.4194336,-6.5566406 0.63720703,-4.9130859 0.24169922,-3.3134766 -0.14501953,-1.7138672 -0.14501953,0 H -1.7973633 q 0,-2.3730469 1.00195314,-4.9921875 1.01074219,-2.6279297 3.36621096,-6.0468755 h -6.6533203 v -1.344726 h 8.1826172 z"
   id="text109"
   style="font-size:18px;line-height:0%;font-family:Arial;text-align:center;text-anchor:middle;fill:#111111;stroke-width:0.75"
   class="key"
   aria-label="7" />&#10;    <path
   d="m 40.223145,-3.4541016 q 0,1.7138672 -1.089844,2.67187504 -1.089844,0.95800781 -3.128906,0.95800781 -1.986329,0 -3.111329,-0.94042969 -1.116211,-0.94042966 -1.116211,-2.67187496 0,-1.2128907 0.694336,-2.0390625 0.694336,-0.8261719 1.775391,-1.0019532 v -0.035156 Q 33.23584,-6.75 32.646973,-7.5410156 q -0.580078,-0.7910157 -0.580078,-1.8544922 0,-1.4150392 1.054687,-2.2939452 1.063477,-0.878906 2.847656,-0.878906 1.828125,0 2.882813,0.861328 1.063476,0.861328 1.063476,2.3291013 0,1.0634766 -0.588867,1.8544922 -0.588867,0.7910156 -1.608398,0.9931641 v 0.035156 q 1.186523,0.1933594 1.845703,1.0107422 0.65918,0.8085938 0.65918,2.0302734 z m -1.951172,-5.8359375 q 0,-2.1005859 -2.302735,-2.1005859 -1.116211,0 -1.705078,0.527344 -0.580078,0.527343 -0.580078,1.5732419 0,1.0634766 0.597656,1.6259766 0.606446,0.5537109 1.705078,0.5537109 1.116211,0 1.696289,-0.5097656 0.588868,-0.5185547 0.588868,-1.6699219 z m 0.307617,5.6865235 q 0,-1.1513672 -0.685547,-1.7314453 -0.685547,-0.5888672 -1.924805,-0.5888672 -1.204101,0 -1.880859,0.6328125 -0.676758,0.6240234 -0.676758,1.7226562 0,2.5576172 2.610352,2.5576172 1.291992,0 1.924804,-0.6152344 Q 38.57959,-2.25 38.57959,-3.6035156 Z"
   id="text110"
   style="font-size:18px;line-height:0%;font-family:Arial;text-align:center;text-anchor:middle;fill:#111111;stroke-width:0.75"
   class="key"
   aria-label="8" />&#10;    <path
   d="m 76.152832,-6.4423828 q 0,3.1904297 -1.168945,4.9042969 -1.160157,1.71386715 -3.313477,1.71386715 -1.450195,0 -2.329101,-0.60644531 -0.870118,-0.61523434 -1.248047,-1.97753904 l 1.511718,-0.2373047 q 0.47461,1.546875 2.091797,1.546875 1.362305,0 2.109375,-1.265625 0.747071,-1.265625 0.782227,-3.6123047 -0.351563,0.7910156 -1.204102,1.2744141 -0.852539,0.4746093 -1.87207,0.4746093 -1.669922,0 -2.671875,-1.1425781 -1.001953,-1.1425781 -1.001953,-3.0322266 0,-1.9423832 1.089844,-3.0498042 1.089843,-1.116211 3.032226,-1.116211 2.06543,0 3.128906,1.529296 1.063477,1.5292974 1.063477,4.5966802 z m -1.722656,-1.5292969 q 0,-1.4941406 -0.685547,-2.3994143 -0.685547,-0.914062 -1.836914,-0.914062 -1.142578,0 -1.801758,0.782226 -0.65918,0.7734378 -0.65918,2.1005862 0,1.3535157 0.65918,2.1445313 0.65918,0.7822266 1.78418,0.7822266 0.685547,0 1.274414,-0.3076172 0.588867,-0.3164063 0.922851,-0.8876953 0.342774,-0.5712891 0.342774,-1.3007813 z"
   id="text111"
   style="font-size:18px;line-height:0%;font-family:Arial;text-align:center;text-anchor:middle;fill:#111111;stroke-width:0.75"
   class="key"
   aria-label="9" />&#10;</g>&#10;<g
   transform="translate(561,98)"
   id="g114">&#10;    <path
   d="M 2.737793,-2.8037109 V 0 H 1.2436523 V -2.8037109 H -4.5922852 V -4.0341797 L 1.0766602,-12.383789 H 2.737793 v 8.3320312 h 1.7402343 v 1.2480469 z M 1.2436523,-10.599609 q -0.017578,0.05273 -0.24609371,0.46582 -0.22851562,0.4130859 -0.34277343,0.5800781 l -3.17285156,4.6757812 -0.4746094,0.6503906 -0.140625,0.1757813 h 4.3769531 z"
   id="text112"
   style="font-size:18px;line-height:0%;font-family:Arial;text-align:center;text-anchor:middle;fill:#111111;stroke-width:0.75"
   class="key"
   aria-label="4" />&#10;    <path
   d="m 40.249512,-4.0341797 q 0,1.9599609 -1.168946,3.08496095 -1.160156,1.125 -3.225586,1.125 -1.731445,0 -2.794921,-0.75585937 -1.063477,-0.75585938 -1.344727,-2.18847658 l 1.599609,-0.1845703 q 0.500977,1.8369141 2.575196,1.8369141 1.274414,0 1.995117,-0.7646485 0.720703,-0.7734375 0.720703,-2.118164 0,-1.1689453 -0.729492,-1.8896485 -0.720703,-0.7207031 -1.951172,-0.7207031 -0.641602,0 -1.195313,0.2021484 -0.55371,0.2021485 -1.107421,0.6855469 h -1.546875 l 0.413086,-6.6621093 h 7.040039 v 1.344726 h -5.598633 l -0.237305,3.9287114 q 1.02832,-0.7910156 2.557617,-0.7910156 1.828125,0 2.90918,1.0722656 1.089844,1.0722657 1.089844,2.7949219 z"
   id="text113"
   style="font-size:18px;line-height:0%;font-family:Arial;text-align:center;text-anchor:middle;fill:#111111;stroke-width:0.75"
   class="key"
   aria-label="5" />&#10;    <path
   d="m 76.214355,-4.0517578 q 0,1.9599609 -1.063476,3.09374999 -1.063477,1.13378906 -2.935547,1.13378906 -2.091797,0 -3.199219,-1.55566405 -1.107422,-1.5556641 -1.107422,-4.5263672 0,-3.2167969 1.151368,-4.939453 1.151367,-1.722656 3.27832,-1.722656 2.803711,0 3.533203,2.522461 l -1.511719,0.2724605 q -0.46582,-1.5117185 -2.039062,-1.5117185 -1.353516,0 -2.100586,1.265625 -0.738281,1.2568357 -0.738281,3.6474607 0.430664,-0.7998047 1.21289,-1.2128906 0.782227,-0.421875 1.792969,-0.421875 1.713867,0 2.71582,1.0722656 1.010742,1.0722656 1.010742,2.8828125 z m -1.608398,0.070312 q 0,-1.3447266 -0.65918,-2.0742188 -0.659179,-0.7294921 -1.836914,-0.7294921 -1.107422,0 -1.792968,0.6503906 -0.676758,0.6416015 -0.676758,1.7753906 0,1.4326172 0.703125,2.3466797 0.711914,0.9140625 1.819336,0.9140625 1.142578,0 1.792968,-0.7646484 0.650391,-0.7734376 0.650391,-2.1181641 z"
   id="text114"
   style="font-size:18px;line-height:0%;font-family:Arial;text-align:center;text-anchor:middle;fill:#111111;stroke-width:0.75"
   class="key"
   aria-label="6" />&#10;</g>&#10;<g
   transform="translate(561,134)"
   id="g117">&#10;    <path
   d="m -3.6342773,0 v -1.3447266 h 3.15527339 V -10.87207 l -2.79492189,1.9951169 v -1.4941409 l 2.92675783,-2.012695 H 1.1118164 V -1.3447266 H 4.1264648 V 0 Z"
   id="text115"
   style="font-size:18px;line-height:0%;font-family:Arial;text-align:center;text-anchor:middle;fill:#111111;stroke-width:0.75"
   class="key"
   aria-label="1" />&#10;    <path
   d="m 31.899902,0 v -1.1162109 q 0.448243,-1.0283204 1.089844,-1.8105469 0.650391,-0.7910156 1.362305,-1.4238281 0.711914,-0.6416016 1.40625,-1.1865235 0.703125,-0.5449218 1.265625,-1.0898437 0.5625,-0.5449219 0.905273,-1.1425781 0.351563,-0.5976563 0.351563,-1.3535157 0,-1.0195311 -0.597657,-1.5820311 -0.597656,-0.5625 -1.661132,-0.5625 -1.010743,0 -1.669922,0.553711 -0.650391,0.544922 -0.764649,1.5380857 l -1.617187,-0.149414 q 0.175781,-1.4853517 1.256836,-2.3642577 1.089844,-0.878906 2.794922,-0.878906 1.87207,0 2.874023,0.887695 1.010742,0.878906 1.010742,2.5048827 0,0.7207032 -0.333984,1.4326172 -0.325195,0.7119141 -0.975586,1.4238282 -0.650391,0.711914 -2.487305,2.2060547 -1.010742,0.8261718 -1.608398,1.4941406 -0.597656,0.6591797 -0.861328,1.274414 h 6.459961 V 0 Z"
   id="text116"
   style="font-size:18px;line-height:0%;font-family:Arial;text-align:center;text-anchor:middle;fill:#111111;stroke-width:0.75"
   class="key"
   aria-label="2" />&#10;    <path
   d="m 76.214355,-3.4189453 q 0,1.7138672 -1.089843,2.65429686 -1.089844,0.94042969 -3.111328,0.94042969 -1.88086,0 -3.00586,-0.84375 -1.116211,-0.85253905 -1.327148,-2.51367185 l 1.634765,-0.1494141 q 0.316407,2.1972656 2.698243,2.1972656 1.195312,0 1.87207,-0.5888671 0.685547,-0.5888672 0.685547,-1.7490235 0,-1.0107422 -0.782227,-1.5732422 -0.773437,-0.571289 -2.241211,-0.571289 h -0.896484 v -1.3710938 h 0.861328 q 1.300781,0 2.012695,-0.5625 0.720703,-0.5712891 0.720703,-1.5732422 0,-0.9931641 -0.588867,-1.5644531 -0.580078,-0.580078 -1.731445,-0.580078 -1.045898,0 -1.696289,0.536133 -0.641602,0.536132 -0.74707,1.5117184 l -1.590821,-0.1230468 q 0.175782,-1.5205076 1.256836,-2.3730466 1.089844,-0.852539 2.794922,-0.852539 1.863281,0 2.891602,0.870117 1.037109,0.861328 1.037109,2.4082029 0,1.1865235 -0.667969,1.9335938 -0.659179,0.7382812 -1.924804,1.0019531 v 0.035156 q 1.388671,0.149414 2.162109,0.9316406 0.773437,0.7822266 0.773437,1.96875 z"
   id="text117"
   style="font-size:18px;line-height:0%;font-family:Arial;text-align:center;text-anchor:middle;fill:#111111;stroke-width:0.75"
   class="key"
   aria-label="3" />&#10;</g>&#10;<g
   transform="translate(561,170)"
   id="g119">&#10;    <path
   d="m 22.302246,-6.1962891 q 0,3.1025391 -1.098633,4.7373047 -1.089843,1.63476565 -3.225586,1.63476565 -2.135742,0 -3.208007,-1.62597655 -1.072266,-1.6259766 -1.072266,-4.7460938 0,-3.1904297 1.037109,-4.7812499 1.045899,-1.59082 3.295899,-1.59082 2.188476,0 3.225586,1.608398 1.045898,1.6083985 1.045898,4.7636719 z m -1.608398,0 q 0,-2.680664 -0.624024,-3.8847659 -0.615234,-1.204101 -2.039062,-1.204101 -1.458985,0 -2.100586,1.186523 -0.632813,1.1865236 -0.632813,3.9023439 0,2.6367188 0.641602,3.8583985 0.65039,1.2216797 2.05664,1.2216797 1.397461,0 2.047852,-1.2480469 0.650391,-1.2480469 0.650391,-3.8320313 z"
   id="text118"
   style="font-size:18px;line-height:0%;font-family:Arial;text-align:center;text-anchor:middle;fill:#111111;stroke-width:0.75"
   class="key"
   aria-label="0" />&#10;    <path
   d="m 72.883301,-1.9248047 v 1.47656251 q 0,0.93164063 -0.166992,1.55566409 -0.166993,0.6240234 -0.518555,1.1953125 H 71.116699 Q 71.942871,1.1074219 71.942871,0 h -0.773437 v -1.9248047 z"
   id="text119"
   style="font-size:18px;line-height:0%;font-family:Arial;text-align:center;text-anchor:middle;fill:#111111;stroke-width:0.75"
   class="key"
   aria-label="," />&#10;</g>&#10;&#10;<g
   transform="translate(561,78)"
   id="g120">&#10;    <path
   d="m 108.6416,-5.34375 v 3.7617188 h -1.29199 V -5.34375 h -3.72656 v -1.2832031 h 3.72656 v -3.7617189 h 1.29199 v 3.7617189 h 3.72656 V -5.34375 Z"
   id="text120"
   style="font-size:18px;line-height:0%;font-family:Arial;text-align:center;text-anchor:middle;fill:#111111;stroke-width:0.75"
   class="key"
   aria-label="+" />&#10;</g>&#10;<g
   transform="translate(561,150)"
   id="g121">&#10;    <path
   d="m 105.40723,-1.1777344 -4.46485,-4.4648437 4.46485,-4.4648439 v 2.3994142 h 4.9834 V -13.12207 h 4.13085 l -0.009,9.5449216 h -9.10547 z m -0.87891,-5.6513672 v -1.1513671 l -2.33789,2.3378906 2.33789,2.3378906 v -1.1513672 h 9.10547 l 0.009,-7.7871093 h -2.37305 l -0.009,5.4140624 z"
   id="text121"
   style="font-size:18px;line-height:0%;font-family:Arial;text-align:center;text-anchor:middle;fill:#111111;stroke-width:0.75"
   class="key"
   aria-label="⏎" />&#10;</g>&#10;&#10;<path
   d="m 18.998047,18.476562 q 0.03516,0.07031 0.03516,0.166993 0,0.166992 -0.114258,0.298828 -0.105468,0.123047 -0.28125,0.123047 -0.166992,0 -0.307617,-0.114258 -0.131836,-0.123047 -0.131836,-0.307617 0,-0.158203 0.123047,-0.290039 0.131836,-0.131836 0.307617,-0.131836 0.263672,0 0.369141,0.254882 z m 2.768555,6.670899 q 0.03516,0.105469 0.03516,0.158203 0,0.158203 -0.123047,0.290039 -0.123047,0.131836 -0.298828,0.131836 -0.158203,0 -0.290039,-0.123047 -0.131836,-0.123047 -0.131836,-0.307617 0,-0.149414 0.114258,-0.28125 0.114257,-0.131836 0.28125,-0.131836 0.28125,0 0.413086,0.263672 z m -4.03418,-6.020508 q 0.131836,0.114258 0.131836,0.290039 0,0.421875 -0.413086,0.421875 -0.175781,0 -0.298828,-0.114258 -0.123047,-0.123047 -0.123047,-0.290039 0,-0.175781 0.123047,-0.298828 0.123047,-0.131836 0.290039,-0.131836 0.166992,0 0.290039,0.123047 z m 5.115234,5.097656 q 0.123047,0.123047 0.123047,0.298828 0,0.166993 -0.123047,0.29004 -0.114258,0.123046 -0.298828,0.123046 -0.175781,0 -0.298828,-0.123046 -0.123047,-0.123047 -0.123047,-0.29004 0,-0.175781 0.114258,-0.290039 0.123047,-0.123046 0.290039,-0.123046 0.175781,0 0.316406,0.114257 z m -6.029297,-4.016601 q 0.272461,0.114258 0.272461,0.404297 0,0.166992 -0.140625,0.290039 -0.131836,0.114258 -0.290039,0.114258 -0.18457,0 -0.298828,-0.131836 -0.114258,-0.131836 -0.114258,-0.290039 0,-0.175782 0.123047,-0.298829 0.131836,-0.123046 0.290039,-0.123046 0.05273,0 0.158203,0.03516 z m 6.670899,2.759765 q 0.263672,0.114258 0.263672,0.386719 0,0.175781 -0.131836,0.298828 -0.123047,0.114258 -0.290039,0.114258 -0.19336,0 -0.307618,-0.123047 -0.114257,-0.131836 -0.114257,-0.290039 0,-0.202148 0.131836,-0.307617 0.140625,-0.105469 0.298828,-0.105469 0.08789,0 0.149414,0.02637 z m -7.101563,-1.40625 q 0.166992,0 0.298828,0.123047 0.131836,0.114258 0.131836,0.28125 0,0.175782 -0.131836,0.307617 -0.131836,0.123047 -0.290039,0.123047 h -0.01758 q -0.166992,0 -0.290039,-0.123047 -0.114258,-0.131835 -0.114258,-0.298828 0,-0.175781 0.114258,-0.290039 0.123047,-0.123047 0.298828,-0.123047 z m 7.215821,-0.0088 q 0.175781,0 0.298828,0.123047 0.123047,0.123047 0.123047,0.298828 0,0.166993 -0.123047,0.290039 -0.114258,0.123047 -0.290039,0.123047 h -0.03516 q -0.158203,0 -0.28125,-0.123047 -0.114257,-0.123046 -0.114257,-0.28125 0,-0.175781 0.131836,-0.298828 0.131835,-0.123047 0.290039,-0.131836 z m -7.101563,1.423828 q 0.07031,-0.03516 0.166992,-0.03516 0.175782,0 0.298828,0.114258 0.123047,0.114258 0.123047,0.290039 0,0.166992 -0.123047,0.298828 -0.123046,0.131836 -0.298828,0.131836 -0.166992,0 -0.298828,-0.123047 -0.123047,-0.131836 -0.123047,-0.307617 0,-0.272461 0.254883,-0.369141 z m 6.670899,-2.768554 q 0.105468,-0.03516 0.158203,-0.03516 0.158203,0 0.290039,0.123046 0.131836,0.123047 0.131836,0.298829 0,0.158203 -0.123047,0.290039 -0.123047,0.131836 -0.307617,0.131836 -0.158204,0 -0.28125,-0.123047 -0.123047,-0.123047 -0.123047,-0.290039 0,-0.28125 0.254883,-0.395508 z m -6.020508,4.034179 q 0.131836,-0.131835 0.28125,-0.131835 0.18457,0 0.307617,0.123046 0.123047,0.114258 0.123047,0.290039 0,0.166993 -0.123047,0.298829 -0.114258,0.123046 -0.290039,0.123046 -0.166992,0 -0.298828,-0.123046 -0.123047,-0.131836 -0.123047,-0.298829 0,-0.158203 0.123047,-0.28125 z M 22.25,19.126953 q 0.140625,-0.123047 0.298828,-0.123047 0.175781,0 0.290039,0.123047 0.123047,0.123047 0.123047,0.298828 0,0.166992 -0.123047,0.298828 -0.114258,0.123047 -0.290039,0.123047 -0.166992,0 -0.290039,-0.131836 -0.123047,-0.131836 -0.123047,-0.290039 0,-0.166992 0.114258,-0.298828 z m -4.016602,6.029297 q 0.05273,-0.123047 0.166993,-0.193359 0.123046,-0.07031 0.228515,-0.07031 0.175781,0 0.290039,0.131836 0.123047,0.131836 0.123047,0.290039 0,0.175781 -0.131836,0.298828 -0.131836,0.114258 -0.290039,0.114258 -0.166992,0 -0.298828,-0.131836 -0.123047,-0.131836 -0.123047,-0.28125 0,-0.05273 0.03516,-0.158203 z m 2.759766,-6.670898 q 0.114258,-0.263672 0.386719,-0.263672 0.175781,0 0.298828,0.131836 0.123047,0.131836 0.123047,0.298828 0,0.175781 -0.131836,0.298828 -0.131836,0.114258 -0.290039,0.114258 -0.175781,0 -0.298828,-0.131836 -0.114258,-0.140625 -0.114258,-0.298828 0,-0.07031 0.02637,-0.149414 z m -1.40625,7.101562 q 0,-0.175781 0.123047,-0.298828 Q 19.833008,25.165039 20,25.165039 q 0.175781,0 0.298828,0.123047 0.123047,0.123047 0.123047,0.298828 0,0.166992 -0.123047,0.290039 Q 20.175781,26 20,26 19.833008,26 19.709961,25.876953 19.586914,25.753906 19.586914,25.586914 Z m 0,-7.21582 q 0,-0.175782 0.123047,-0.298828 Q 19.833008,17.949219 20,17.949219 q 0.175781,0 0.298828,0.123047 0.123047,0.123046 0.123047,0.298828 0,0.166992 -0.123047,0.290039 Q 20.175781,18.78418 20,18.78418 q -0.166992,0 -0.290039,-0.123047 -0.123047,-0.123047 -0.123047,-0.290039 z m 3.19043,-1.96875 q -0.105469,0.166992 -0.166992,0.246093 -0.06152,0.0791 -0.210938,0.149415 l -2.408203,-2.355469 -2.381836,2.355469 q -0.140625,-0.07031 -0.202148,-0.149415 -0.07031,-0.0791 -0.19336,-0.246093 l 2.320313,-3.331055 h 0.940429 z"
   id="t1"
   style="font-size:18px;line-height:0%;font-family:'Gentium Plus Compact';text-align:center;text-anchor:middle;fill:#111111"
   class="dead"
   aria-label="◌̂" />&#10;<path
   d="m 450.99805,18.476562 q 0.0352,0.07031 0.0352,0.166993 0,0.166992 -0.11425,0.298828 -0.10547,0.123047 -0.28125,0.123047 -0.167,0 -0.30762,-0.114258 -0.13184,-0.123047 -0.13184,-0.307617 0,-0.158203 0.12305,-0.290039 0.13183,-0.131836 0.30762,-0.131836 0.26367,0 0.36914,0.254882 z m 2.76855,6.670899 q 0.0352,0.105469 0.0352,0.158203 0,0.158203 -0.12305,0.290039 -0.12305,0.131836 -0.29883,0.131836 -0.1582,0 -0.29004,-0.123047 -0.13183,-0.123047 -0.13183,-0.307617 0,-0.149414 0.11426,-0.28125 0.11425,-0.131836 0.28125,-0.131836 0.28125,0 0.41308,0.263672 z m -4.03418,-6.020508 q 0.13184,0.114258 0.13184,0.290039 0,0.421875 -0.41309,0.421875 -0.17578,0 -0.29883,-0.114258 -0.12304,-0.123047 -0.12304,-0.290039 0,-0.175781 0.12304,-0.298828 0.12305,-0.131836 0.29004,-0.131836 0.16699,0 0.29004,0.123047 z m 5.11524,5.097656 q 0.12304,0.123047 0.12304,0.298828 0,0.166993 -0.12304,0.29004 -0.11426,0.123046 -0.29883,0.123046 -0.17578,0 -0.29883,-0.123046 -0.12305,-0.123047 -0.12305,-0.29004 0,-0.175781 0.11426,-0.290039 0.12305,-0.123046 0.29004,-0.123046 0.17578,0 0.31641,0.114257 z m -6.0293,-4.016601 q 0.27246,0.114258 0.27246,0.404297 0,0.166992 -0.14062,0.290039 -0.13184,0.114258 -0.29004,0.114258 -0.18457,0 -0.29883,-0.131836 -0.11426,-0.131836 -0.11426,-0.290039 0,-0.175782 0.12305,-0.298829 0.13183,-0.123046 0.29004,-0.123046 0.0527,0 0.1582,0.03516 z m 6.6709,2.759765 q 0.26367,0.114258 0.26367,0.386719 0,0.175781 -0.13184,0.298828 -0.12304,0.114258 -0.29004,0.114258 -0.19335,0 -0.30761,-0.123047 -0.11426,-0.131836 -0.11426,-0.290039 0,-0.202148 0.13184,-0.307617 0.14062,-0.105469 0.29882,-0.105469 0.0879,0 0.14942,0.02637 z m -7.10156,-1.40625 q 0.16699,0 0.29882,0.123047 0.13184,0.114258 0.13184,0.28125 0,0.175782 -0.13184,0.307617 -0.13183,0.123047 -0.29004,0.123047 h -0.0176 q -0.167,0 -0.29004,-0.123047 -0.11426,-0.131835 -0.11426,-0.298828 0,-0.175781 0.11426,-0.290039 0.12304,-0.123047 0.29883,-0.123047 z m 7.21582,-0.0088 q 0.17578,0 0.29882,0.123047 0.12305,0.123047 0.12305,0.298828 0,0.166993 -0.12305,0.290039 -0.11425,0.123047 -0.29004,0.123047 h -0.0351 q -0.1582,0 -0.28125,-0.123047 -0.11426,-0.123046 -0.11426,-0.28125 0,-0.175781 0.13184,-0.298828 0.13183,-0.123047 0.29004,-0.131836 z m -7.10157,1.423828 q 0.0703,-0.03516 0.167,-0.03516 0.17578,0 0.29882,0.114258 0.12305,0.114258 0.12305,0.290039 0,0.166992 -0.12305,0.298828 -0.12304,0.131836 -0.29882,0.131836 -0.167,0 -0.29883,-0.123047 -0.12305,-0.131836 -0.12305,-0.307617 0,-0.272461 0.25488,-0.369141 z m 6.6709,-2.768554 q 0.10547,-0.03516 0.1582,-0.03516 0.15821,0 0.29004,0.123046 0.13184,0.123047 0.13184,0.298829 0,0.158203 -0.12305,0.290039 -0.12304,0.131836 -0.30761,0.131836 -0.15821,0 -0.28125,-0.123047 -0.12305,-0.123047 -0.12305,-0.290039 0,-0.28125 0.25488,-0.395508 z m -6.02051,4.034179 q 0.13184,-0.131835 0.28125,-0.131835 0.18457,0 0.30762,0.123046 0.12305,0.114258 0.12305,0.290039 0,0.166993 -0.12305,0.298829 -0.11426,0.123046 -0.29004,0.123046 -0.16699,0 -0.29883,-0.123046 -0.12304,-0.131836 -0.12304,-0.298829 0,-0.158203 0.12304,-0.28125 z M 454.25,19.126953 q 0.14062,-0.123047 0.29883,-0.123047 0.17578,0 0.29004,0.123047 0.12304,0.123047 0.12304,0.298828 0,0.166992 -0.12304,0.298828 -0.11426,0.123047 -0.29004,0.123047 -0.16699,0 -0.29004,-0.131836 -0.12305,-0.131836 -0.12305,-0.290039 0,-0.166992 0.11426,-0.298828 z m -4.0166,6.029297 q 0.0527,-0.123047 0.16699,-0.193359 0.12305,-0.07031 0.22852,-0.07031 0.17578,0 0.29004,0.131836 0.12304,0.131836 0.12304,0.290039 0,0.175781 -0.13183,0.298828 -0.13184,0.114258 -0.29004,0.114258 -0.167,0 -0.29883,-0.131836 -0.12305,-0.131836 -0.12305,-0.28125 0,-0.05273 0.0352,-0.158203 z m 2.75976,-6.670898 q 0.11426,-0.263672 0.38672,-0.263672 0.17578,0 0.29883,0.131836 0.12305,0.131836 0.12305,0.298828 0,0.175781 -0.13184,0.298828 -0.13183,0.114258 -0.29004,0.114258 -0.17578,0 -0.29883,-0.131836 -0.11425,-0.140625 -0.11425,-0.298828 0,-0.07031 0.0264,-0.149414 z m -1.40625,7.101562 q 0,-0.175781 0.12305,-0.298828 0.12305,-0.123047 0.29004,-0.123047 0.17578,0 0.29883,0.123047 0.12304,0.123047 0.12304,0.298828 0,0.166992 -0.12304,0.290039 Q 452.17578,26 452,26 q -0.16699,0 -0.29004,-0.123047 -0.12305,-0.123047 -0.12305,-0.290039 z m 0,-7.21582 q 0,-0.175782 0.12305,-0.298828 0.12305,-0.123047 0.29004,-0.123047 0.17578,0 0.29883,0.123047 0.12304,0.123046 0.12304,0.298828 0,0.166992 -0.12304,0.290039 -0.12305,0.123047 -0.29883,0.123047 -0.16699,0 -0.29004,-0.123047 -0.12305,-0.123047 -0.12305,-0.290039 z m 1.41504,-1.845703 q -0.19336,0.18457 -0.49218,0.272461 l -3.09375,-3.313477 0.19335,-0.360352 q 0.11426,-0.03516 0.36915,-0.0791 0.24609,-0.04394 0.50976,-0.0791 0.26367,-0.04395 0.4043,-0.05273 z"
   id="t2"
   style="font-size:18px;line-height:0%;font-family:'Gentium Plus Compact';text-align:center;text-anchor:middle;fill:#111111"
   class="dead"
   aria-label="◌̀" />&#10;&#10;<path
   d="m 478.99805,90.476562 q 0.0352,0.07031 0.0352,0.166993 0,0.166992 -0.11425,0.298828 -0.10547,0.123047 -0.28125,0.123047 -0.167,0 -0.30762,-0.114258 -0.13184,-0.123047 -0.13184,-0.307617 0,-0.158203 0.12305,-0.290039 0.13183,-0.131836 0.30762,-0.131836 0.26367,0 0.36914,0.254882 z m 2.76855,6.670899 q 0.0352,0.105469 0.0352,0.158203 0,0.158203 -0.12305,0.290039 -0.12305,0.131836 -0.29883,0.131836 -0.1582,0 -0.29004,-0.123047 -0.13183,-0.123047 -0.13183,-0.307617 0,-0.149414 0.11426,-0.28125 0.11425,-0.131836 0.28125,-0.131836 0.28125,0 0.41308,0.263672 z m -4.03418,-6.020508 q 0.13184,0.114258 0.13184,0.290039 0,0.421875 -0.41309,0.421875 -0.17578,0 -0.29883,-0.114258 -0.12304,-0.123047 -0.12304,-0.290039 0,-0.175781 0.12304,-0.298828 0.12305,-0.131836 0.29004,-0.131836 0.16699,0 0.29004,0.123047 z m 5.11524,5.097656 q 0.12304,0.123047 0.12304,0.298828 0,0.166993 -0.12304,0.29004 -0.11426,0.123046 -0.29883,0.123046 -0.17578,0 -0.29883,-0.123046 -0.12305,-0.123047 -0.12305,-0.29004 0,-0.175781 0.11426,-0.290039 0.12305,-0.123046 0.29004,-0.123046 0.17578,0 0.31641,0.114257 z m -6.0293,-4.016601 q 0.27246,0.114258 0.27246,0.404297 0,0.166992 -0.14062,0.290039 -0.13184,0.114258 -0.29004,0.114258 -0.18457,0 -0.29883,-0.131836 -0.11426,-0.131836 -0.11426,-0.290039 0,-0.175782 0.12305,-0.298829 0.13183,-0.123046 0.29004,-0.123046 0.0527,0 0.1582,0.03516 z m 6.6709,2.759765 q 0.26367,0.114258 0.26367,0.386719 0,0.175781 -0.13184,0.298828 -0.12304,0.114258 -0.29004,0.114258 -0.19335,0 -0.30761,-0.123047 -0.11426,-0.131836 -0.11426,-0.290039 0,-0.202148 0.13184,-0.307617 0.14062,-0.105469 0.29882,-0.105469 0.0879,0 0.14942,0.02637 z m -7.10156,-1.40625 q 0.16699,0 0.29882,0.123047 0.13184,0.114258 0.13184,0.28125 0,0.175782 -0.13184,0.307617 -0.13183,0.123047 -0.29004,0.123047 h -0.0176 q -0.167,0 -0.29004,-0.123047 -0.11426,-0.131835 -0.11426,-0.298828 0,-0.175781 0.11426,-0.290039 0.12304,-0.123047 0.29883,-0.123047 z m 7.21582,-0.0088 q 0.17578,0 0.29882,0.123047 0.12305,0.123047 0.12305,0.298828 0,0.166993 -0.12305,0.290039 -0.11425,0.123047 -0.29004,0.123047 h -0.0351 q -0.1582,0 -0.28125,-0.123047 -0.11426,-0.123046 -0.11426,-0.28125 0,-0.175781 0.13184,-0.298828 0.13183,-0.123047 0.29004,-0.131836 z m -7.10157,1.423828 q 0.0703,-0.03516 0.167,-0.03516 0.17578,0 0.29882,0.114258 0.12305,0.114258 0.12305,0.290039 0,0.166992 -0.12305,0.298828 -0.12304,0.131836 -0.29882,0.131836 -0.167,0 -0.29883,-0.123047 -0.12305,-0.131836 -0.12305,-0.307617 0,-0.272461 0.25488,-0.369141 z m 6.6709,-2.768554 q 0.10547,-0.03516 0.1582,-0.03516 0.15821,0 0.29004,0.123046 0.13184,0.123047 0.13184,0.298829 0,0.158203 -0.12305,0.290039 -0.12304,0.131836 -0.30761,0.131836 -0.15821,0 -0.28125,-0.123047 -0.12305,-0.123047 -0.12305,-0.290039 0,-0.28125 0.25488,-0.395508 z m -6.02051,4.034179 q 0.13184,-0.131835 0.28125,-0.131835 0.18457,0 0.30762,0.123046 0.12305,0.114258 0.12305,0.290039 0,0.166993 -0.12305,0.298829 -0.11426,0.123046 -0.29004,0.123046 -0.16699,0 -0.29883,-0.123046 -0.12304,-0.131836 -0.12304,-0.298829 0,-0.158203 0.12304,-0.28125 z M 482.25,91.126953 q 0.14062,-0.123047 0.29883,-0.123047 0.17578,0 0.29004,0.123047 0.12304,0.123047 0.12304,0.298828 0,0.166992 -0.12304,0.298828 -0.11426,0.123047 -0.29004,0.123047 -0.16699,0 -0.29004,-0.131836 -0.12305,-0.131836 -0.12305,-0.290039 0,-0.166992 0.11426,-0.298828 z m -4.0166,6.029297 q 0.0527,-0.123047 0.16699,-0.193359 0.12305,-0.07031 0.22852,-0.07031 0.17578,0 0.29004,0.131836 0.12304,0.131836 0.12304,0.290039 0,0.175781 -0.13183,0.298828 -0.13184,0.114258 -0.29004,0.114258 -0.167,0 -0.29883,-0.131836 -0.12305,-0.131836 -0.12305,-0.28125 0,-0.05273 0.0352,-0.158203 z m 2.75976,-6.670898 q 0.11426,-0.263672 0.38672,-0.263672 0.17578,0 0.29883,0.131836 0.12305,0.131836 0.12305,0.298828 0,0.175781 -0.13184,0.298828 -0.13183,0.114258 -0.29004,0.114258 -0.17578,0 -0.29883,-0.131836 -0.11425,-0.140625 -0.11425,-0.298828 0,-0.07031 0.0264,-0.149414 z m -1.40625,7.101562 q 0,-0.175781 0.12305,-0.298828 0.12305,-0.123047 0.29004,-0.123047 0.17578,0 0.29883,0.123047 0.12304,0.123047 0.12304,0.298828 0,0.166992 -0.12304,0.290039 Q 480.17578,98 480,98 q -0.16699,0 -0.29004,-0.123047 -0.12305,-0.123047 -0.12305,-0.290039 z m 0,-7.21582 q 0,-0.175782 0.12305,-0.298828 0.12305,-0.123047 0.29004,-0.123047 0.17578,0 0.29883,0.123047 0.12304,0.123046 0.12304,0.298828 0,0.166992 -0.12304,0.290039 -0.12305,0.123047 -0.29883,0.123047 -0.16699,0 -0.29004,-0.123047 -0.12305,-0.123047 -0.12305,-0.290039 z m 0.0352,-1.573242 q -0.1582,-0.02637 -0.28125,-0.09668 -0.12305,-0.07031 -0.21973,-0.149414 l 2.05664,-3.638672 q 0.20215,0.0088 0.64161,0.0791 0.43945,0.06152 0.63281,0.123047 l 0.20215,0.342774 z"
   id="t3"
   style="font-size:18px;line-height:0%;font-family:'Gentium Plus Compact';text-align:center;text-anchor:middle;fill:#111111"
   class="dead"
   aria-label="◌́" />&#10;<path
   d="m 474.75928,59.407227 q 0,1.318359 -0.82617,2.047851 -0.82618,0.720703 -2.32032,0.720703 -1.50293,0 -2.4873,-0.430664 l -0.0176,-1.441406 q 0.45703,0.254883 1.16016,0.430664 0.70312,0.175781 1.30957,0.175781 0.80859,0 1.23925,-0.377929 0.43067,-0.37793 0.43067,-1.072266 0,-0.5625 -0.37793,-1.010742 -0.36914,-0.448242 -1.22168,-0.958008 -0.80859,-0.474609 -1.21289,-1.054688 -0.39551,-0.580078 -0.39551,-1.335937 0,-0.536133 0.24609,-0.975586 0.25489,-0.439453 0.7295,-0.834961 0.50976,-0.421875 0.73828,-0.791016 0.2373,-0.36914 0.2373,-0.808593 0,-0.676758 -0.58886,-1.081055 -0.58887,-0.413086 -1.54688,-0.413086 -1.30078,0 -1.91602,0.703125 -0.60644,0.703125 -0.60644,2.126953 V 62 h -1.58203 v -9.026367 q 0,-1.995117 1.02832,-3.00586 1.03711,-1.010742 3.07617,-1.010742 1.66992,0 2.6543,0.711914 0.99316,0.703125 0.99316,1.898438 0,1.256836 -0.99316,2.162109 -0.69434,0.632813 -0.84375,0.852539 -0.14942,0.210938 -0.14942,0.465821 0,0.333984 0.23731,0.597656 0.24609,0.254883 0.60644,0.509765 0.36035,0.246094 0.78223,0.527344 1.61719,1.089844 1.61719,2.72461 z"
   id="text122"
   style="font-size:18px;line-height:0%;font-family:Arial;text-align:center;text-anchor:middle;fill:#111111;stroke-width:0.75"
   class="key"
   aria-label="ß" />&#10;&#10;</svg>
